<svg height="24" viewBox="0 0 24 24" width="24" xmlns="http://www.w3.org/2000/svg"><path d="m4.29938584 21.9633992c-.08701731-.0126695-.32140265-.0464548-.52771789-.22242-.19789421-.1675189-.5852616-.6475519.06315773-1.4555842l1.16350567-1.6287339c.14877154-.2083428.27508699-.4434324.38596389-.6813373-2.08280148-.6602215-3.40771024-2.0594968-3.94244565-4.1668561-.55298099-2.1777454-.58666511-4.34282133-.10245587-6.43751116.63999829-2.76758077 2.46174783-4.66941273 5.41752945-5.65341017 1.99718767-.66585234 4.18665553-.86152565 6.89401673-.61517436 2.2217485.20130419 3.9649017.70526855 5.4834942 1.58791003 2.1277136 1.23457189 3.3698156 2.85767496 3.6912183 4.82285439.6736824 4.11336267-.6007002 6.99074577-3.8975335 8.79826037-1.4792944.8094399-3.1424478 1.3373356-5.3950734 1.7075664-.2975431.0492702-.5964897.0872787-.8954362.1252872-.3087711.0380085-.6175422.0774247-.9249098.1295104-.0140351.0042231-.0743858.0337853-.133333.0886864-1.1396461 1.057199-2.13332768 1.8201841-3.12841275 2.4043886-1.00350611.5884277-2.28911672 1.2331642-3.61121847 1.2331642-.17964864 0-.35929729-.0112618-.54034944-.0366008zm1.70061416-1.4633992s2.5-3.5 1.71020985-4c-1.7041103-.534465-3.91118576-1.4252829-4.34869655-3.1312404-.45243899-1.7629368-.47999873-3.5156173-.08382753-5.21131859.52363497-2.24042253 2.01415732-3.78000078 4.43252409-4.57657014 1.63406264-.53902332 3.42544544-.69742553 5.64055914-.49799829 1.8177942.16296054 3.2440105.57093168 4.4864953 1.28545097 1.7408566.99941535 2.6627357 1.63167645 3.0200876 3.90421547.6426481 4.72746098-2.7555453 6.54183418-3.8573519 6.92747318-1.8992192.6647383-4.5 1.2999878-6.5 1.2999878-.5.5-4.5 4-4.5 4z" fill="#5c5c5c" fill-rule="evenodd" opacity=".2"/></svg>