<svg height="20" viewBox="0 0 20 20" width="20" xmlns="http://www.w3.org/2000/svg"><path d="m1.3309783 12.46998 5.31907849 5.3190785c.77928158.7792815 2.04107942.7730018 2.8232059-.0091247l5.36005761-5.3600576c.7843352-.7843352.7862117-2.0461188.0091246-2.82320589l-8.19285366-8.19285371c-.39422868-.39422867-1.02767399-.39995433-1.42092094-.00670738-.39052429.39052429-.38535913 1.02885444.00688683 1.4211004l1.46655635 1.46655634c-.00065124.00064969-5.36201054 5.36200812-5.36201054 5.36200812-.7843352.78433522-.78621172 2.04611882-.00912464 2.82320592zm1.36215809-1.4662691 5.36396103-5.36396099 5.36396108 5.36396099zm16.30686361 5.9962891c0 1.1-.9 2-2 2s-2-.9-2-2 2-4 2-4 2 2.9 2 4z" fill="#5c5c5c" fill-rule="evenodd" opacity=".2" transform="matrix(-1 0 0 1 19.75 0)"/></svg>