<svg height="24" viewBox="0 0 24 24" width="24" xmlns="http://www.w3.org/2000/svg"><path d="m11 12.4003962-1.81490512 1.8149052c-.38917402.389174-1.01852171.390802-1.41176867-.0024449-.39052429-.3905243-.38440823-1.0298054-.0024449-1.4117687l3.50890229-3.50890231c.2176988-.21769882.5105513-.31412922.7951904-.28800833.2466815.0073562.4901893.1041322.6740654.28800833l3.5089023 3.50890231c.389174.389174.3908021 1.0185217-.0024449 1.4117687-.3905243.3905242-1.0298053.3844082-1.4117686.0024449l-1.8437282-1.8437282v8.6259535c0 .5536507-.4438648 1.0024733-1 1.0024733-.5522847 0-1-.455761-1-1.0024733zm12.9565217-2.58828319c0 .57926099-.0836933 1.14812189-.2464085 1.69310579.1630122.6287438.2464085 1.2792356.2464085 1.9400211 0 3.4533911-2.2910386 6.4612785-5.572843 7.4404047-.5062224.1510315-1.039032-.1369078-1.1900635-.6431302-.1510314-.5062225.1369078-1.0390321.6431303-1.1900636 2.4789387-.7395912 4.2067328-3.0079991 4.2067328-5.6072109 0-.5775537-.0842293-1.1428746-.2481594-1.6840506l-.0916165-.3024499.1065986-.2975c.1536872-.428917.2331773-.8829789.2331773-1.34912639 0-2.22871587-1.8270241-4.0390278-4.085145-4.0390278-.1183711 0-.2360171.00495311-.3527553.01479459l-.3627668.03058263-.2913-.21835625c-1.4150183-1.06068712-3.1372291-1.64358444-4.9515112-1.64358444-3.10784026 0-5.90392878 1.72347461-7.3023702 4.40790431l-.10546914.20245717-.18553062.13300764c-1.52858929 1.09585162-2.4501083 2.84391094-2.4501083 4.74534904 0 2.6337594 1.77381804 4.9248801 4.29874553 5.6338531.5086029.1428103.80513636.6708851.66232603 1.179488-.14281034.5086029-.6708851.8051363-1.17948799.662326-3.3427409-.9386064-5.69462705-3.9763785-5.69462705-7.4756671 0-2.4482379 1.15069116-4.7062904 3.06415259-6.1638644 1.75828514-3.19807034 5.1433155-5.23789724 8.89236915-5.23789724 2.1101642 0 4.1244813.64300148 5.8117327 1.81831186.0488-.00116502.0976694-.00174839.1466006-.00174839 3.3107504 0 5.9981884 2.66285549 5.9981884 5.95207128z" fill="#5c5c5c" opacity=".3"/></svg>