<svg height="601" viewBox="0 0 601 601" width="601" xmlns="http://www.w3.org/2000/svg" xmlns:xlink="http://www.w3.org/1999/xlink"><defs><linearGradient id="a" x1="0%" x2="100%" y1="100%" y2="100%"><stop offset="0" stop-color="#ff435d"/><stop offset="1" stop-color="#b0208e"/></linearGradient><linearGradient id="b" x1="92.082074%" x2="24.308517%" y1="76.53527%" y2="46.794315%"><stop offset="0" stop-color="#fff"/><stop offset="1" stop-color="#c8c8c8"/></linearGradient><path id="c" d="m781.284213 1237.17383c213.269068-10.18781 156.35912-209.70436 318.968687-304.004709 162.60956-94.300344 333.35979-127.692757 333.35979-384.704741 0-450.5843568-265.71839-449.46438-604.29355-449.46438s-682.278104 85.500013-739.6741487 339.7755c-65.642876 290.810532 261.0713857 312.246537 355.0695857 394.028101 112.382729 97.776715 123.300569 414.558029 336.569636 404.370229z"/><linearGradient id="d" x1="74.184059%" x2="-4.918351%" y1="24.031593%" y2="104.769419%"><stop offset="0" stop-color="#ff8b3b"/><stop offset="1" stop-color="#ff2d4c"/></linearGradient></defs><g fill="none" fill-rule="evenodd" transform="translate(-783.072063 -832.790562)"><g transform="matrix(.98768834 .15643447 -.15643447 .98768834 113.854303 -110.242076)"><use fill="url(#a)" xlink:href="#c"/><use fill="url(#b)" xlink:href="#c"/></g><path d="m973.184198 1315.85076c4.845581-98.03846-72.556243-115.36856-118.38402-193.58556-45.827777-78.21701-37.848797-145.65342-184.936108-155.949065-257.868291-18.049961-328.700434 126.958105-345.649168 281.951085s14.777148 315.7584 157.42518 352.21919c163.144117 41.69959 191.766878-107.00501 243.275717-146.75943 61.583134-47.52974 243.422819-39.83776 248.268399-137.87622z" stroke="url(#d)" stroke-width="2" transform="matrix(.99939083 -.0348995 .0348995 .99939083 -44.496919 23.354358)"/></g></svg>