<svg height="1390" viewBox="0 0 1451 1390" width="1451" xmlns="http://www.w3.org/2000/svg" xmlns:xlink="http://www.w3.org/1999/xlink"><linearGradient id="a" x1="86.721207%" x2="32.159995%" y1="50%" y2="30.283528%"><stop offset="0" stop-color="#fff"/><stop offset="1" stop-color="#efefef"/></linearGradient><g fill="none" fill-rule="evenodd" transform="translate(-58.920942 -373)"><path d="m1120.69662 1625.77204c240.98969-9.6694 45.76504-335.14427 234.03504-498.37185 188.27001-163.227575 415.97222-94.35691 509.55098-348.745125 93.57876-254.388214-354.76325-285.112134-678.62927-294.125825-323.866016-9.013691-949.876306 96.840575-1014.732666 338.177354-74.1751114 276.012756 463.243036 341.651296 569.459085 419.271436 126.990192 92.80139 139.327128 393.46341 380.316831 383.79401z" fill="url(#a)" transform="matrix(-.89879405 -.43837115 .43837115 -.89879405 1475.038543 2450.53948)"/><path d="m1537.044 1177.98154c166.47593 0 343.12055-71.14452 505.73012-165.44486 162.60956-94.300348 312.03417 36.82283 453.20691-152.958654 0-450.584357-498.65633-692.878231-837.23149-692.878231s-688.967013 82.866312-746.363058 337.141799c-65.642876 290.810532 267.760298 314.881426 361.758498 396.66299 112.38272 97.776715 78.53121 277.476956 262.89902 277.476956z" fill="#92a1ae" fill-opacity=".1" transform="matrix(.97437006 .22495105 -.22495105 .97437006 194.813006 -365.170468)"/></g></svg>