<svg height="890" viewBox="0 0 711 890" width="711" xmlns="http://www.w3.org/2000/svg" xmlns:xlink="http://www.w3.org/1999/xlink"><linearGradient id="a" x1="0%" x2="100%" y1="100%" y2="100%"><stop offset="0" stop-color="#ff435d"/><stop offset="1" stop-color="#b0208e"/></linearGradient><linearGradient id="b"><stop offset="0" stop-color="#f958b9"/><stop offset="1" stop-color="#f23745"/></linearGradient><linearGradient id="c" x1="101.51353%" x2="-4.918351%" xlink:href="#b" y1="21.31078%" y2="84.490053%"/><linearGradient id="d" x1="101.51353%" x2="-4.918351%" xlink:href="#b" y1="19.414255%" y2="86.770046%"/><g fill="none" fill-rule="evenodd" transform="translate(-2633.920942 -832)"><path d="m3468.23055 1643.8182c213.26907-10.1878 239.09311-147.69418 401.70268-241.99452 162.60956-94.30034 310.01311-93.25175 310.01311-350.26374 0-450.584355-325.1057-545.915331-663.68086-545.915331s-724.38343 92.796696-781.77948 347.072184c-65.64288 290.810527 303.17672 304.949617 397.17492 386.731187 112.38273 97.77671 123.30057 414.55803 336.56963 404.37022z" fill="url(#a)" transform="matrix(.98768834 .15643447 -.15643447 .98768834 210.660015 -526.986289)"/><g stroke-width="2"><path d="m3433.64472 1610.4048c213.26907-10.18781 239.09311-147.69418 401.70267-241.99452 162.60957-94.30035 310.01311-93.25176 310.01311-350.26374 0-450.584359-325.1057-545.915335-663.68086-545.915335s-728.84536 70.327148-786.24141 324.602636c-65.64287 290.810529 307.63865 327.419169 401.63685 409.200729 112.38273 97.77672 123.30057 414.55803 336.56964 404.37023z" stroke="url(#c)" transform="matrix(.99939083 -.0348995 .0348995 .99939083 -34.264394 119.870362)"/><path d="m3525.00513 1225.7701c122.49378-5.85272 137.32614-84.84787 230.723-139.02187 93.39685-54.174 178.05994-53.5716 178.05994-201.220761 0-258.853306-186.72856-313.619385-381.19347-313.619385s-391.87503 49.118217-424.84117 195.195305c-37.70282 167.06587 149.94964 179.380503 203.93869 226.362667 64.54844 56.171114 70.81923 238.156774 193.31301 232.304044z" stroke="url(#d)" transform="matrix(-.7193398 .69465837 -.69465837 -.7193398 6690.760125 -905.426393)"/></g></g></svg>