<svg height="160" viewBox="0 0 100 160" width="100" xmlns="http://www.w3.org/2000/svg"><g fill="none" fill-rule="evenodd"><path d="m98.1779515 15.9094665c-.7989127-7.30697996-5.9421014-12.87706317-13.1835665-13.35557516-31.302303-2.07185512-38.686467-2.07185512-69.9897749 0-7.24146508.47851199-12.38364892 6.04655898-13.1825616 13.35557516-2.42990044 22.2202643-2.42889551 25.9608027 0 48.181067.79891268 7.3090162 5.94411128 12.8770632 13.1825616 13.3555752 31.3043129 2.0718551 38.6874719 2.0718551 69.9897749 0 7.2394552-.478512 12.3846538-6.0485952 13.1835665-13.3555752 2.4288955-22.2202643 2.4299005-25.9608027 0-48.181067z" fill="#e62117"/><path d="m66.9435774 41.3914981-27.2395274 16.283753c-.7066405.4222123-1.6902761.4332439-2.4080369.0300864-.7177607-.4011518-1.2960131-1.1041702-1.2960131-1.921517v-32.567506c0-.8173467.5782524-1.5203651 1.2960131-1.9225198.7177608-.4021546 1.619511-.391123 2.3261516.0310893l27.2799646 16.283753c.6874328.4111805 1.0978707 1.0951443 1.0978707 1.8914305 0 .7962863-.3689897 1.4812529-1.0564226 1.8914306z" fill="#fff"/><path d="m84.994385 82.5538913c-31.302303-2.0718551-38.686467-2.0718551-69.9897749 0-7.24146508.478512-12.38364892 6.046559-13.1825616 13.3555752-2.42990044 22.2202645-2.42889551 25.9608025 0 48.1810675.79891268 7.309016 5.94411128 12.877063 13.1825616 13.355575 31.3043129 2.071855 38.6874719 2.071855 69.9897749 0 7.2394552-.478512 12.3846538-6.048596 13.1835665-13.355575 2.4288955-22.220265 2.4299005-25.960803 0-48.1810675-.7989127-7.30698-5.9421014-12.8770632-13.1835665-13.3555752z" fill="#e93d34"/><path d="m39.70405 137.675251c-.7066405.422212-1.6902761.433244-2.4080369.030087-.7177607-.401152-1.2960131-1.104171-1.2960131-1.921517v-32.567506c0-.817347.5782524-1.520366 1.2960131-1.92252.7177608-.402155 1.619511-.391123 2.3261516.031089l27.2799646 16.283753c.6874328.411181 1.0978707 1.095144 1.0978707 1.891431 0 .796286-.3689897 1.481252-1.0564226 1.89143z" fill="#fff"/></g></svg>