<svg height="48" viewBox="0 0 48 48" width="48" xmlns="http://www.w3.org/2000/svg"><path d="m13.7351847 39.0463366c-4.77019409-3.9300979-7.6989552-9.0383211-7.73517344-15.0530476.02222895-6.6246346.00057805-17.89745182.00003228-17.98009169-.00869715-1.31798973 1.23761636-2.28388226 2.51175017-1.94660549.04735986.01253666 2.71220549.66991943 4.65631999.96163537 3.5797676.53714699 7.2606923.97177281 10.8318863.97177281 3.5972154 0 7.2781401-.43462582 10.8579076-.97177281 1.9441146-.29171594 4.6089602-.94909871 4.6563201-.96163537 1.2741338-.33727677 2.5204473.62861576 2.5117501 1.94660549-.0005457.08263987-.0221966 11.35545709.0000323 17.98009169-.0362182 6.0147265-2.9649793 11.1229497-7.7351734 15.0530476-3.5173912 2.8979308-8.0231529 4.9830027-10.2908384 4.9534941-2.2416607.0295086-6.7474224-2.0555633-10.2648136-4.9534941zm-1.2768715-30.02906387c-.8725176-.12409031-1.6567108-.34864584-2.4583132-.50633797.0000002.76335701.0222476 8.86221854-.00003644 15.47699294.02825444 4.6807891 2.35449854 8.7381271 6.27870674 11.9712288 1.5512291 1.2780365 3.2750547 2.3488142 4.9237374 3.1117534 1.2913659.5975884 2.4165425.9338792 2.7975923.9292594.4070712.0046198 1.5322477-.331671 2.8236137-.9292594 1.6486827-.7629392 3.3725083-1.8337169 4.9237374-3.1117534 3.9242082-3.2331017 6.2504523-7.2904397 6.2787067-11.9712288-.022284-6.6147744-.0000366-14.71363593-.0000364-15.47699294-.8016024.15769213-1.5857956.38224766-2.4583132.50633797-3.8203573.54333496-7.7238732.98272727-11.5677082.98272727-3.8178136 0-7.7213295-.43939231-11.5416868-.98272727zm8.1274732 21.39694087-6-6c-.7810485-.7810486-.7810485-2.0473786 0-2.8284272.7810486-.7810485 2.0473786-.7810485 2.8284272 0l4.5857864 4.6139527 9.5857864-9.6139527c.7810486-.7810485 2.0473786-.7810485 2.8284272 0 .7810485.7810486.7810485 2.0473786 0 2.8284272l-11 11c-.7810486.7810485-2.0473786.7810485-2.8284272 0z" fill="#92a1ae" fill-rule="evenodd"/></svg>