<svg xmlns="http://www.w3.org/2000/svg" width="40" height="40" viewBox="0 0 40 40">
    <path fill="#FFFFFE" fill-rule="evenodd" d="M28.716 19.018c.041 4.845 4.233 6.447 4.284 6.463-.025.113-.656 2.312-2.228 4.546-1.313 1.965-2.689 3.886-4.873 3.922-2.122.049-2.836-1.252-5.27-1.252-2.458 0-3.218 1.216-5.254 1.301-2.08.077-3.669-2.098-5.03-4.046-2.719-3.978-4.836-11.21-1.997-16.13 1.375-2.413 3.884-3.967 6.564-4.009 2.082-.042 4.016 1.409 5.296 1.409 1.255 0 3.645-1.736 6.11-1.476 1.03.028 3.964.406 5.857 3.17-.153.092-3.495 2.059-3.459 6.102zM24.707 7.129c-1.142 1.35-2.97 2.382-4.75 2.249-.233-1.821.67-3.758 1.679-4.94C22.776 3.096 24.758 2.07 26.342 2c.208 1.893-.54 3.758-1.635 5.129z"/>
</svg>
