<?xml version="1.0" encoding="UTF-8"?>
<svg width="48px" height="48px" viewBox="0 0 48 48" version="1.1" xmlns="http://www.w3.org/2000/svg" xmlns:xlink="http://www.w3.org/1999/xlink">
    <!-- Generator: Sketch 42 (36781) - http://www.bohemiancoding.com/sketch -->
    <defs></defs>
    <g id="Standard" stroke="none" stroke-width="1" fill="none" fill-rule="evenodd" opacity="1">
        <g id="48pt_planet" fill="#92a1ae">
            <path d="M31.9999,7.8707 C29.5899,6.6737 26.8739,5.9997 23.9999,5.9997 C23.6859,5.9997 23.3729,6.0077 23.0619,6.0237 L24.2119,11.5157 C24.3899,12.3647 24.0009,13.2307 23.2489,13.6617 L19.7379,15.6707 L16.7409,19.9647 C16.5209,20.2807 16.2139,20.5257 15.8579,20.6717 L11.8009,22.3307 L6.1669,26.4587 C6.2429,27.0187 6.3459,27.5707 6.4729,28.1137 L8.1439,28.1137 C8.7249,28.1137 9.2779,28.3677 9.6579,28.8077 L11.0319,30.3997 L13.3469,30.5357 C14.0699,30.5777 14.7139,31.0087 15.0299,31.6607 L16.0209,33.7087 C16.1519,33.9787 16.2199,34.2747 16.2209,34.5757 L16.2289,38.4037 L16.6669,40.4437 C18.9069,41.4437 21.3889,41.9997 23.9999,41.9997 C30.5179,41.9997 36.2279,38.5357 39.3859,33.3477 L38.3389,32.7247 C38.2659,32.7077 38.1849,32.6877 38.0949,32.6677 C37.6819,32.5717 37.2519,32.4767 36.8279,32.3887 C36.6189,32.3447 36.4169,32.3047 36.2229,32.2667 C35.3909,32.1047 34.7429,32.0117 34.4939,32.0117 C34.1369,32.0117 33.7719,31.9707 33.3959,31.8967 C32.9399,31.8077 32.4779,31.6737 32.0129,31.5047 C31.5309,31.3307 31.1369,31.1547 30.8799,31.0267 C30.5699,30.8717 30.3049,30.6387 30.1119,30.3497 L28.2349,27.5477 L24.8279,27.4037 C24.3419,27.3837 23.8809,27.1867 23.5289,26.8497 L21.3659,24.7797 C20.8079,24.2457 20.6069,23.4387 20.8499,22.7057 C20.9059,22.5377 21.0039,22.2387 21.1309,21.8487 C21.3419,21.1977 21.5529,20.5367 21.7499,19.9067 C21.7939,19.7637 21.7939,19.7637 21.8379,19.6207 C22.0669,18.8807 22.2559,18.2477 22.3899,17.7607 C22.4609,17.5017 22.5149,17.2897 22.5689,17.1587 C22.5689,16.1127 23.0039,15.6367 23.8919,14.9737 C24.2669,14.6927 24.7449,14.3917 25.3239,14.0597 C25.5369,13.9377 25.7619,13.8127 25.9989,13.6847 C26.5439,13.3897 27.1239,13.0917 27.7029,12.8057 C27.8339,12.7407 27.9549,12.6817 28.0619,12.6297 L31.5789,8.2947 C31.6319,8.2297 31.6889,8.1667 31.7499,8.1087 L31.9999,7.8707 Z M35.4479,10.1087 L34.6049,10.9137 L30.8859,15.4977 C30.6959,15.7317 30.4559,15.9197 30.1839,16.0477 C30.0459,16.1127 29.7969,16.2327 29.4739,16.3917 C28.9369,16.6577 28.3999,16.9327 27.9039,17.2017 C27.6939,17.3157 27.4959,17.4257 27.3119,17.5307 C26.9559,17.7347 26.6599,17.9167 26.4419,18.0667 C26.3049,18.6797 26.0509,19.5377 25.6599,20.8037 C25.6139,20.9507 25.6139,20.9507 25.5679,21.0977 C25.3989,21.6397 25.2209,22.2017 25.0399,22.7597 L25.7499,23.4387 L29.4169,23.5927 C30.0539,23.6197 30.6399,23.9487 30.9949,24.4787 L33.1139,27.6447 C33.1949,27.6777 33.2829,27.7107 33.3759,27.7447 C33.6599,27.8477 33.9299,27.9267 34.1619,27.9717 C34.3009,27.9987 34.4159,28.0117 34.4939,28.0117 C35.0839,28.0117 35.9009,28.1297 36.9829,28.3397 C37.1969,28.3807 37.4179,28.4257 37.6449,28.4727 C38.0999,28.5667 38.5569,28.6687 38.9949,28.7697 C39.2589,28.8307 39.4589,28.8787 39.5729,28.9067 C39.7669,28.9537 39.9509,29.0287 40.1219,29.1307 L41.0789,29.6997 C41.6769,27.9087 41.9999,25.9917 41.9999,23.9997 C41.9999,18.4077 39.4489,13.4107 35.4479,10.1087 L35.4479,10.1087 Z M9.0929,34.0917 C9.9799,35.3997 11.0359,36.5857 12.2279,37.6167 L12.2219,35.0407 L11.9409,34.4597 L9.9529,34.3437 C9.6479,34.3257 9.3539,34.2377 9.0929,34.0917 L9.0929,34.0917 Z M6.1729,21.4947 L9.6349,18.9587 C9.7659,18.8627 9.9089,18.7827 10.0599,18.7217 L13.7979,17.1927 L16.7139,13.0137 C16.8839,12.7707 17.1039,12.5697 17.3609,12.4227 L19.9999,10.9127 L19.1109,6.6717 C12.3259,8.5827 7.1649,14.3717 6.1729,21.4947 L6.1729,21.4947 Z M23.9999,45.9997 C11.8499,45.9997 1.9999,36.1497 1.9999,23.9997 C1.9999,11.8497 11.8499,1.9997 23.9999,1.9997 C36.1499,1.9997 45.9999,11.8497 45.9999,23.9997 C45.9999,36.1497 36.1499,45.9997 23.9999,45.9997 L23.9999,45.9997 Z" id="Fill-1"></path>
        </g>
    </g>
</svg>