<svg height="48" viewBox="0 0 48 48" width="48" xmlns="http://www.w3.org/2000/svg"><path d="m4 7.98159027c0-2.19897159 1.79642476-3.98159027 3.98159027-3.98159027h32.03681943c2.1989716 0 3.9815903 1.79642476 3.9815903 3.98159027v32.03681943c0 2.1989716-1.7964248 3.9815903-3.9815903 3.9815903h-32.03681943c-2.19897159 0-3.98159027-1.7964248-3.98159027-3.9815903zm4 1.01119614c0-.5483008.45236206-.99278641.99278641-.99278641h30.01442719c.5483008 0 .9927864.45236206.9927864.99278641v30.01442719c0 .5483008-.4523621.9927864-.9927864.9927864h-30.01442719c-.5483008 0-.99278641-.4523621-.99278641-.9927864zm2.7792122 27.00721359 26.4277-.0130452c.2502529 0 .5401499-.1695877.6813817-.4331008.1412319-.2635132.1511429-.5478986.0148665-.8166299l-7.2771568-14.2949359c-.1288431-.253077-.3642295-.4174466-.6268712-.4409279-.2601639-.0156543-.5178501.1043616-.678904.3313482 0 0-5.0818688 7.7384157-5.3345994 8.1036815-.2775082.4017923-.7383701 1.1871137-1.2116206 1.1766775-.4113068-.0104362-1.2215316-.6705236-1.5758501-.9366457-.3146745-.2348137-2.5719063-2.2281211-2.5719063-2.2281211-.3146745-.2217685-.7235035-.1669786-.9836675.127843l-7.4208664 7.9549662c-.2180422.2478589-.28246371.6183427-.1610539.9366457.1214099.318303.4038736.5322444.718548.5322444zm6.192619-16.1203689c2.1426851-.5357382 3.4453403-2.7091308 2.9066254-4.8520837-.5356712-2.1429529-2.7057486-3.4427269-4.8484338-2.9069887-2.1426851.5357382-3.4453402 2.7060868-2.9096689 4.8490398.5356712 2.1429529 2.7087922 3.4457708 4.8514773 2.9100326z" fill="#92a1ae" fill-rule="evenodd"/></svg>