<svg height="48" viewBox="0 0 48 48" width="48" xmlns="http://www.w3.org/2000/svg"><path d="m26 27.4648712c1.1956027-.6916188 2-1.9843065 2-3.4648712s-.8043973-2.7732524-2-3.4648712v-10.5301822c0-1.09342469-.8954305-2.0049466-2-2.0049466-1.1122704 0-2 .89764516-2 2.0049466v10.5301822c-1.1956027.6916188-2 1.9843065-2 3.4648712s.8043973 2.7732524 2 3.4648712v2.5301822c0 1.0934247.8954305 2.0049466 2 2.0049466 1.1122704 0 2-.8976452 2-2.0049466zm1.9684902-25.10788283c10.2560604 1.86839153 18.0315098 10.84767483 18.0315098 21.64301163 0 12.1502645-9.8497355 22-22 22s-22-9.8497355-22-22c0-10.7954019 7.77554313-19.7747284 18.0316953-21.64304543-.0208256-.11570135-.0316953-.23497776-.0316953-.35695457 0-1.1045695.8867064-2 2.0187378-2h3.9625244c1.1149181 0 2.0187378.88772965 2.0187378 2 0 .12184821-.0107903.24115142-.0315098.35698837zm-3.9684902 39.64301163c9.9411255 0 18-8.0588745 18-18s-8.0588745-18-18-18-18 8.0588745-18 18 8.0588745 18 18 18zm14.5359917-37.20114448c-.6274448-.62744483-.6339136-1.6382651-.0047185-2.26746024.6248389-.62483888 1.6399046-.62283711 2.2674603.00471851l4.798889 4.79888906c.6274449.62744484.6339137 1.6382651.0047185 2.26746024-.6248389.62483891-1.6399046.62283711-2.2674602-.00471851z" fill="#92a1ae" fill-rule="evenodd"/></svg>