<svg height="48" viewBox="0 0 48 48" width="48" xmlns="http://www.w3.org/2000/svg"><path d="m30.0002 31.3838v-3.384c0-1.104-.896-2-2-2-7.678 0-15.39 2.846-20.794 7.356 2.69-10.184 8.942-15.112 21.16-17.39.948-.176 1.634-1.002 1.634-1.966v-3.384l11.076 10.384zm15.368-11.842-16-15c-.582-.546-1.432-.692-2.162-.376-.732.316-1.206 1.038-1.206 1.834v6.362c-15.256 3.282-22.244 11.332-23.988 27.422-.102.934.458 1.81 1.346 2.11.212.072.428.106.642.106.684 0 1.34-.352 1.71-.962 3.656-6.028 11.802-10.368 20.29-10.966v5.928c0 .798.474 1.518 1.206 1.836.73.318 1.582.17 2.162-.376l16-15c.404-.378.632-.908.632-1.46s-.228-1.08-.632-1.458z" fill="#92a1ae" fill-rule="evenodd"/></svg>