<svg height="48" viewBox="0 0 48 48" width="48" xmlns="http://www.w3.org/2000/svg"><path d="m24 46c12.1502645 0 22-9.8497355 22-22s-9.8497355-22-22-22-22 9.8497355-22 22 9.8497355 22 22 22zm.0011715-40c9.9248942 0 17.9988285 7.8895644 17.9988285 17.5850082 0 3.7582434-1.2183534 7.2418282-3.2825252 10.1051427-1.1691507-.5722051-2.591344-1.0597239-3.7066059-1.5289321-2.0571429-.8651742-1.7759844-1.3893141-1.848617-2.1080037-.014058-.1213075-.0210869-.2540591-.0234299-.3913883.6255776-.6156928 1.115262-1.4579787 1.4620241-2.3368858 0 0 .0210869-.0480652.0257728-.064087.0796616-.203705.1499512-.4165653.2085259-.6340033.4732834-.0915528.747413-.5790716.8528474-1.032258.1054344-.1808169.3256752-.6317145.2741295-1.1444103-.0515457-.5149846-.2319557-.8125313-.4592255-.9796152.0328018-.2357485.0515457-.44632.0515457-.6271368 0-.9086618.374878-3.7010228-.6372925-4.7287033-.5365441-.5447393-1.0496583-1.1100779-1.7759844-1.5289321l.0796616-.3089908-.7849008-.0183105c-.0187439-.0068665-.0398308-.013733-.0609177-.0205994l.1030915-.3868107-.6982102.2128603.2178978-.5332952-1.0707452.4280095c-.1218354-.0091553-.2483567-.0137329-.377221-.0160218-.6396355-.0114441-1.2394403.0846864-1.7947283.2494815.1757241 1.1123668.1476082 2.3551963.0820046 3.5842929-.0140579.2838138-.0281158.5264288-.0281158.7049568 0 .0938416-.002343.1899721-.007029.292969.2413277.3776554.4381386.8857735.5060852 1.556398.0866906.8903512-.1944679 1.6548172-.4287666 2.1194478-.2272698.7873543-.6607225 1.4122023-1.2300684 1.8058794-.0304588.0846864-.0609176.1693727-.0937195.2517703l-.0351448.0869751c-.3209892.8102425-.7122681 1.5472427-1.1527497 2.1949789.2225838.3341678.4662545.6477363.740384.9132394-.004686.1213075-.009372.2403262-.0210869.3501896-.0210869.1899721-.0210869.3662113-.0468598.5401616.0515458.0228882.0960625.0434876.1522942.0663758.4873414.203705 1.0215425.4119877 1.5721445.624848 2.7155223 1.0551463 5.5247641 2.1423361 6.4150992 4.0992776.2530427.5561834.4170518 1.0734569.5201432 1.5472427-.4521965.3776554-.923137.7347114-1.4104783 1.0688792-.011715-.2609255-.0609177-.5882269-.1616662-.9727487-.0257728-.0984193-.0562317-.2014162-.0913765-.306702-.0187439-.0595093-.0374878-.1167298-.0585746-.1762392-.0609177-.1716615-.1288643-.3501895-.2155549-.5401616 0 0 0-.0022888-.002343-.0022888-.1476082-.3250126-.4029938-.6271369-.735698-.9155283-.2225838-.1899721-.4803124-.3730777-.7638138-.5493169-.2835015-.178528-.5951188-.3479007-.923137-.5126958-.3280183-.1647951-.6747804-.3227237-1.0309145-.4783635-.356134-.153351-.72164-.3021243-1.0894891-.4486088-.182753-.0732423-.367849-.1441957-.550602-.217438-.731012-.2838137-1.4503091-.5584722-2.0876017-.8262642-.2272697-.0938416-.4217377-.1853944-.6044907-.2746584-1.8837618-.9155283-1.6072893-1.5289322-1.6916368-2.3414634-.0164009-.153351-.0257729-.3181461-.0281159-.48523.7755288-.7690437 1.3847055-1.8127459 1.8181582-2.9045133 0 0 .0234298-.0595093.0304588-.0778199.0984055-.254059.185096-.5195622.2600716-.7896431.5834038-.1121522.92548-.7186896 1.0566873-1.2794506.1312073-.2288821.4053368-.7873543.3420761-1.4236464-.0632606-.6385809-.2881874-1.0093699-.5693459-1.2153637.0398308-.2929691.0632607-.5561834.0632607-.7804878 0-1.1283886.4639115-4.5959517-.7919297-5.8708247-.6654084-.6774909-1.305044-1.3824476-2.2047511-1.9020099l.0960625-.382233-.9723398-.0228882c-.0257728-.0091553-.0515457-.0183106-.0773185-.0274659l.1288643-.4783635-.8669053.2655032.2694435-.6637579-1.3308168.5310063c-.1499512-.0091553-.3069313-.0183105-.4685975-.0205994-1.9446794-.0297546-3.6199153.6912238-4.8124959 1.7120378-.4123658.1945498-1.1363488.5310064-1.1363488.5310064l.2717865.3639224c-.0164009.0205994-.0328018.0434876-.0492027.064087l-1.0098276.3936771.559974.3227237c-.0140579.0251771-.0257729.0526429-.0374878.0778199l-.8739343.6843574.6466645-.089264c-.6091767 1.8882769-.6466645 4.641728-.6466645 4.8820542 0 .0343323.011715.1304628.0304589.2769473-.3842499.1602174-.7239831.5378728-.8036447 1.3481153-.0632606.6362921.2108689 1.1947643.3420762 1.4236464.1312073.5699163.4826554 1.1878978 1.0871461 1.2863171.0749756.2700808.1616661.535584.2624146.7919319.0046859.0183106.0117149.0343323.0187439.0503541l.0093719.0205993c.4428246 1.1146557 1.0684022 2.181246 1.8673609 2.9502897-.004686.1510622-.0117149.2998355-.0281159.4371648-.0913765.8903511.1780671 1.542665-2.3757891 2.6161218-1.4549951.6134039-3.320013 1.249696-4.81015293 2.002718-2.22818093-2.9274015-3.54962577-6.5506044-3.54962577-10.471354 0-9.6954438 8.0739343-17.5850082 18.0011715-17.5850082z" fill="#92a1ae" fill-rule="evenodd"/></svg>