<?xml version="1.0" encoding="UTF-8"?>
<svg width="48px" height="48px" viewBox="0 0 48 48" version="1.1" xmlns="http://www.w3.org/2000/svg" xmlns:xlink="http://www.w3.org/1999/xlink">
    <!-- Generator: Sketch 42 (36781) - http://www.bohemiancoding.com/sketch -->
    <defs></defs>
    <g id="Standard" stroke="none" stroke-width="1" fill="none" fill-rule="evenodd">
        <g id="Enter" fill-rule="nonzero" fill="#92a1ae">
            <path d="M39.9999745,14 C43.3133579,14 46,16.6839211 46,19.9962027 L46,28.0037973 C46,31.3143527 43.3092061,34 39.9999745,34 L34,34 L34,39.9999745 C34,43.3133579 31.3160789,46 28.0037973,46 L19.9962027,46 C16.6856473,46 14,43.3092061 14,39.9999745 L14,34 L8.00002553,34 C4.68664207,34 2,31.3160789 2,28.0037973 L2,19.9962027 C2,16.6856473 4.69079389,14 8.00002553,14 L14,14 L14,8.00002553 C14,4.68664207 16.6839211,2 19.9962027,2 L28.0037973,2 C31.3143527,2 34,4.69079389 34,8.00002553 L34,14 L39.9999745,14 Z M30,8.00002553 C30,6.8982204 29.1034976,6 28.0037973,6 L19.9962027,6 C18.8939679,6 18,6.89487425 18,8.00002553 L18,18 L8.00002553,18 C6.8982204,18 6,18.8965024 6,19.9962027 L6,28.0037973 C6,29.1060321 6.89487425,30 8.00002553,30 L18,30 L18,39.9999745 C18,41.1017796 18.8965024,42 19.9962027,42 L28.0037973,42 C29.1060321,42 30,41.1051257 30,39.9999745 L30,30 L39.9999745,30 C41.1017796,30 42,29.1034976 42,28.0037973 L42,19.9962027 C42,18.8939679 41.1051257,18 39.9999745,18 L30,18 L30,8.00002553 Z M24,9 L27,13 L21,13 L24,9 Z M24,39 L21,35 L27,35 L24,39 Z M9,24 L13,21 L13,27 L9,24 Z M39,24 L35,27 L35,21 L39,24 Z" id="Combined-Shape"></path>
        </g>
    </g>
</svg>