<?xml version="1.0" encoding="UTF-8"?>
<svg width="48px" height="48px" viewBox="0 0 48 48" version="1.1" xmlns="http://www.w3.org/2000/svg" xmlns:xlink="http://www.w3.org/1999/xlink">
    <!-- Generator: Sketch 42 (36781) - http://www.bohemiancoding.com/sketch -->
    <defs></defs>
    <g id="Statistics-icons" stroke="none" stroke-width="1" fill="none" fill-rule="evenodd">
        <g id="Picture" fill-rule="nonzero" fill="#92a1ae">
            <path d="M46.007983,22 C47.1081436,22 48,22.8877296 48,24 C48,25.1045695 47.0998238,26 46.007983,26 L41,26 L41,30 L46.007983,30 C47.1081436,30 48,30.8877296 48,32 C48,33.1045695 47.0998238,34 46.007983,34 L40.9381866,34 C40.4870817,37.6182762 37.6175164,40.487105 34,40.9381767 L34,46.000385 C34,47.1047419 33.1122704,48 32,48 C30.8954305,48 30,47.1125667 30,46.000385 L30,41 L26,41 L26,46.000385 C26,47.1047419 25.1122704,48 24,48 C22.8954305,48 22,47.1125667 22,46.000385 L22,41 L18,41 L18,46.000385 C18,47.1047419 17.1122704,48 16,48 C14.8954305,48 14,47.1125667 14,46.000385 L14,40.9381866 C10.3817238,40.4870817 7.512895,37.6175164 7.06182329,34 L1.99201702,34 C0.891856397,34 0,33.1122704 0,32 C0,30.8954305 0.900176167,30 1.99201702,30 L7,30 L7,26 L1.99201702,26 C0.891856397,26 0,25.1122704 0,24 C0,22.8954305 0.900176167,22 1.99201702,22 L7,22 L7,18 L1.99201702,18 C0.891856397,18 0,17.1122704 0,16 C0,14.8954305 0.900176167,14 1.99201702,14 L7.06181342,14 C7.51291835,10.3817238 10.3824836,7.512895 14,7.06182329 L14,1.99961498 C14,0.895258123 14.8877296,0 16,0 C17.1045695,0 18,0.88743329 18,1.99961498 L18,7 L22,7 L22,1.99961498 C22,0.895258123 22.8877296,0 24,0 C25.1045695,0 26,0.88743329 26,1.99961498 L26,7 L30,7 L30,1.99961498 C30,0.895258123 30.8877296,0 32,0 C33.1045695,0 34,0.88743329 34,1.99961498 L34,7.06181342 C37.6182762,7.51291835 40.487105,10.3824836 40.9381767,14 L46.007983,14 C47.1081436,14 48,14.8877296 48,16 C48,17.1045695 47.0998238,18 46.007983,18 L41,18 L41,22 L46.007983,22 Z M11,14.998845 L11,33.001155 C11,35.2078908 12.7915054,37 14.998845,37 L33.001155,37 C35.2078908,37 37,35.2084946 37,33.001155 L37,14.998845 C37,12.7921092 35.2084946,11 33.001155,11 L14.998845,11 C12.7921092,11 11,12.7915054 11,14.998845 Z M14,16 C14,14.8954305 14.9019504,14 16.0085302,14 L23.9914698,14 C25.1007504,14 26,14.8877296 26,16 C26,17.1045695 25.0980496,18 23.9914698,18 L16.0085302,18 C14.8992496,18 14,17.1122704 14,16 Z M30,16 C30,14.8954305 30.8877296,14 32,14 C33.1045695,14 34,14.8877296 34,16 C34,17.1045695 33.1122704,18 32,18 C30.8954305,18 30,17.1122704 30,16 Z M14,22 C14,20.8954305 14.8867064,20 15.9981014,20 L20.0018986,20 C21.1054196,20 22,20.8877296 22,22 C22,23.1045695 21.1132936,24 20.0018986,24 L15.9981014,24 C14.8945804,24 14,23.1122704 14,22 Z" id="Combined-Shape"></path>
        </g>
    </g>
</svg>