<svg height="48" viewBox="0 0 48 48" width="48" xmlns="http://www.w3.org/2000/svg"><path d="m34 34v-28h-20v28zm0 4h-20v4h20zm-21.9950534-36h23.9901068c1.1073014 0 2.0049466.89153983 2.0049466 1.99729162v40.00541678c0 1.1030737-.8970262 1.9972916-2.0049466 1.9972916h-23.9901068c-1.1073014 0-2.0049466-.8915398-2.0049466-1.9972916v-40.00541678c0-1.1030737.8970262-1.99729162 2.0049466-1.99729162zm9.9950534 38c0-.5522847.4433532-1 1.0093689-1h1.9812622c.5574591 0 1.0093689.4438648 1.0093689 1 0 .5522847-.4433532 1-1.0093689 1h-1.9812622c-.5574591 0-1.0093689-.4438648-1.0093689-1zm-12 1v3h-4.99833453c-1.65777406 0-3.00166547-1.3424683-3.00166547-2.995507v-33.00898601c0-1.65437283 1.33902013-2.99550699 3.00166547-2.99550699h4.99833453v3h-5v27h5v3h-5v3zm28 0h5v-3h-5v-3h5v-27h-5v-3h4.9983345c1.6626454 0 3.0016655 1.34113416 3.0016655 2.99550699v33.00898601c0 1.6530387-1.3438914 2.995507-3.0016655 2.995507h-4.9983345z" fill="#92a1ae" fill-rule="evenodd"/></svg>