<?xml version="1.0" encoding="UTF-8"?>
<svg width="1600px" height="1600px" viewBox="0 0 1600 1600" version="1.1" xmlns="http://www.w3.org/2000/svg" xmlns:xlink="http://www.w3.org/1999/xlink">
    <!-- Generator: Sketch 61.2 (89653) - https://sketch.com -->
    <title>Achievements-IE</title>
    <desc>Created with Sketch.</desc>
    <g id="Achievements-IE" stroke="none" stroke-width="1" fill="none" fill-rule="evenodd">
        <rect id="Rectangle-7" fill="#FFFFFF" x="1369" y="1124" width="2" height="532"></rect>
        <rect id="Rectangle-7" fill="#ED4159" x="1325" y="1042" width="6" height="613"></rect>
        <polygon id="+" fill="#ED4159" points="1391 566.28863 1405.71137 581 1420.25364 566.457726 1434.54227 580.746356 1448.74636 566.542274 1434.45773 552.253644 1449 537.71137 1434.28863 523 1419.74636 537.542274 1405.45773 523.253644 1391.25364 537.457726 1405.54227 551.746356"></polygon>
        <polyline id="Path-3" stroke="#ED4159" stroke-width="12" stroke-linecap="round" stroke-linejoin="round" transform="translate(152.075375, 1042.026283) rotate(-270.000000) translate(-152.075375, -1042.026283) " points="-1.95090857 1056.01034 26.1051875 1027.95424 54.169098 1056.01815 82.1620511 1028.0252 110.126861 1055.99001 138.091427 1028.02544 166.050239 1055.98426 193.982533 1028.05196 222.032229 1056.10166 250.182978 1027.95091 278.195295 1055.96323 306.101658 1028.05686"></polyline>
        <path d="M1241.21343,122.774007 L1238.70303,125.284402 C1230.96764,133.019789 1218.4261,133.019789 1210.69071,125.284402 C1202.95533,117.549014 1190.41379,117.549014 1182.6784,125.284402 L1182.55865,125.404144 C1174.81295,133.149854 1162.25467,133.149854 1154.50896,125.404144 L1154.45026,125.345444 C1146.73697,117.632154 1134.23125,117.632154 1126.51796,125.345444 C1118.80467,133.058734 1106.29896,133.058734 1098.58567,125.345444 L1098.57241,125.332185 C1090.8518,117.611572 1078.33421,117.611572 1070.6136,125.332185 L1070.61072,125.335062 C1062.88852,133.057264 1050.36836,133.057264 1042.64616,125.335062 L1042.64603,125.334941 C1034.92377,117.612672 1022.40349,117.612672 1014.68122,125.334941 L1014.66715,125.349012 C1006.93711,133.079053 994.404241,133.079053 986.6742,125.349012 L986.638721,125.313534 C978.889086,117.563899 966.324446,117.563899 958.574811,125.313534 L958.517139,125.371205 L958.517139,125.371205" id="Path-3" stroke="#FFFFFF" stroke-width="20" stroke-linecap="round" stroke-linejoin="round" transform="translate(1099.865283, 125.348144) rotate(-90.000000) translate(-1099.865283, -125.348144) "></path>
        <polygon id="+" fill-opacity="0.2" fill="#000000" points="593.869141 440 677.130859 440 677.130859 357.695312 758 357.695312 758 277.304688 677.130859 277.304688 677.130859 195 593.869141 195 593.869141 277.304688 513 277.304688 513 357.695312 593.869141 357.695312"></polygon>
        <rect id="Rectangle-7" fill="#FFFFFF" x="252" y="-89" width="6" height="683"></rect>
        <path d="M513,1158 C554.973641,1158 589,1192.02636 589,1234 C589,1275.97364 554.973641,1310 513,1310 C471.026359,1310 437,1275.97364 437,1234 C437,1192.02636 471.026359,1158 513,1158 Z M513,1202 C495.326888,1202 481,1216.32689 481,1234 C481,1251.67311 495.326888,1266 513,1266 C530.673112,1266 545,1251.67311 545,1234 C545,1216.32689 530.673112,1202 513,1202 Z" id="Combined-Shape" fill="#FFFFFF"></path>
        <path d="M48,163 C113.1696,163 166,215.8304 166,281 C166,346.1696 113.1696,399 48,399 C-17.1696005,399 -70,346.1696 -70,281 C-70,215.8304 -17.1696005,163 48,163 Z M48,231 C20.3857625,231 -2,253.385763 -2,281 C-2,308.614237 20.3857625,331 48,331 C75.6142375,331 98,308.614237 98,281 C98,253.385763 75.6142375,231 48,231 Z" id="Combined-Shape" fill="#ED4159"></path>
        <path d="M165.01227,1490.54278 L128.430876,1480.33459 C125.208522,1479.43538 123.325244,1476.09419 124.224455,1472.87183 C124.79414,1470.83035 126.389394,1469.2351 128.430876,1468.66541 L165.01227,1458.45722 C179.302642,1454.46942 190.469425,1443.30264 194.457215,1429.01227 L204.665412,1392.43088 C205.564624,1389.20852 208.905813,1387.32524 212.128167,1388.22446 C214.169649,1388.79414 215.764904,1390.38939 216.334588,1392.43088 L226.542785,1429.01227 C230.530575,1443.30264 241.697358,1454.46942 255.98773,1458.45722 L292.569124,1468.66541 C295.791478,1469.56462 297.674756,1472.90581 296.775545,1476.12817 C296.20586,1478.16965 294.610606,1479.7649 292.569124,1480.33459 L255.98773,1490.54278 C241.697358,1494.53058 230.530575,1505.69736 226.542785,1519.98773 L216.334588,1556.56912 C215.435376,1559.79148 212.094187,1561.67476 208.871833,1560.77554 C206.830351,1560.20586 205.235096,1558.61061 204.665412,1556.56912 L194.457215,1519.98773 C190.469425,1505.69736 179.302642,1494.53058 165.01227,1490.54278 Z" id="Star" fill-opacity="0.2" fill="#000000"></path>
        <path d="M1518.01227,1289.54278 L1481.43088,1279.33459 C1478.20852,1278.43538 1476.32524,1275.09419 1477.22446,1271.87183 C1477.79414,1269.83035 1479.38939,1268.2351 1481.43088,1267.66541 L1518.01227,1257.45722 C1532.30264,1253.46942 1543.46942,1242.30264 1547.45722,1228.01227 L1557.66541,1191.43088 C1558.56462,1188.20852 1561.90581,1186.32524 1565.12817,1187.22446 C1567.16965,1187.79414 1568.7649,1189.38939 1569.33459,1191.43088 L1579.54278,1228.01227 C1583.53058,1242.30264 1594.69736,1253.46942 1608.98773,1257.45722 L1645.56912,1267.66541 C1648.79148,1268.56462 1650.67476,1271.90581 1649.77554,1275.12817 C1649.20586,1277.16965 1647.61061,1278.7649 1645.56912,1279.33459 L1608.98773,1289.54278 C1594.69736,1293.53058 1583.53058,1304.69736 1579.54278,1318.98773 L1569.33459,1355.56912 C1568.43538,1358.79148 1565.09419,1360.67476 1561.87183,1359.77554 C1559.83035,1359.20586 1558.2351,1357.61061 1557.66541,1355.56912 L1547.45722,1318.98773 C1543.46942,1304.69736 1532.30264,1293.53058 1518.01227,1289.54278 Z" id="Star" fill-opacity="0.2" fill="#FFFFFF"></path>
        <polygon id="+" fill="#FFFFFF" points="1042 1502.45144 1051.3292 1511.78064 1060.55117 1502.55867 1069.61229 1511.6198 1078.6198 1502.61229 1069.55867 1493.55117 1078.78064 1484.3292 1069.45144 1475 1060.22947 1484.22197 1051.16835 1475.16085 1042.16085 1484.16835 1051.22197 1493.22947"></polygon>
        <g id="Group-2" transform="translate(355.000000, 610.000000)">
            <g id="Group-11" transform="translate(7.348232, 55.195905)">
                <path d="M0.192768061,55.804095 L42.8507681,55.804095 L42.8507681,43.638095 L20.5977681,43.638095 L29.8377681,37.170095 L30.6267272,36.5967559 C38.0090252,31.1876385 42.1668712,26.795428 42.3080507,18.7328553 L42.3117681,18.151095 C42.3117681,7.98709501 34.2267681,0.980095007 22.4457681,0.980095007 C12.0507681,0.980095007 6.27576806,5.06109501 0.500768061,12.530095 L10.5877681,20.923095 C14.8227681,16.072095 17.6717681,13.916095 21.2907681,13.916095 C24.9867681,13.916095 27.3737681,15.995095 27.3737681,19.460095 C27.3737681,22.694095 25.3717681,25.235095 20.3667681,29.162095 L0.192768061,44.562095 L0.192768061,55.804095 Z M73.7277681,56.882095 C88.9737681,56.882095 98.5596906,44.3544568 98.7498844,29.3107255 L98.7527681,28.700095 C98.7527681,13.454095 89.2047681,0.826095007 73.8817681,0.826095007 C58.7119981,0.826095007 49.0513702,13.3537332 48.8596746,28.3974645 L48.8567681,29.008095 C48.8567681,44.254095 58.4047681,56.882095 73.7277681,56.882095 Z M73.8817681,43.638095 C67.9640916,43.638095 63.9899657,37.6579393 63.8743594,29.2329552 L63.8717681,28.700095 C63.8717681,20.076095 67.7987681,13.993095 73.7277681,13.993095 C79.6454445,13.993095 83.6195704,20.0480027 83.7351767,28.4751853 L83.7377681,29.008095 C83.7377681,37.555095 79.8877681,43.638095 73.8817681,43.638095 Z" id="20" fill="#ED4159" fill-rule="nonzero"></path>
                <path d="M117.917349,56.8360241 L125.401692,56.8360241 L125.401692,46.6776704 L135.611104,30.0026371 L127.282373,30.0026371 L121.717093,39.7776567 L116.190193,30.0026371 L107.707938,30.0026371 L117.917349,46.7926707 L117.917349,56.8360241 Z M138.051054,56.8360241 L159.851602,56.8360241 L159.851602,50.5110114 L145.420254,50.5110114 L145.420254,46.2560029 L158.316352,46.2560029 L158.316352,40.3909912 L145.420254,40.3909912 L145.420254,36.3276498 L159.659696,36.3276498 L159.659696,30.0026371 L138.051054,30.0026371 L138.051054,56.8360241 Z M161.639071,56.8360241 L173.076683,29.8109701 L180.253976,29.8109701 L191.691587,56.8360241 L183.708288,56.8360241 L181.750844,52.0443478 L171.387908,52.0443478 L169.468846,56.8360241 L161.639071,56.8360241 Z M173.575639,46.2560029 L179.601495,46.2560029 L176.607757,38.6276544 L173.575639,46.2560029 Z M194.438588,56.8360241 L194.438588,30.0026371 L207.14278,30.0026371 C211.249573,30.0026371 214.089786,31.0759726 215.893704,32.8776429 C217.467335,34.4493127 218.273341,36.5193168 218.273341,39.2409889 C218.273341,43.3426638 216.08561,46.0643359 212.746442,47.4826721 L219.15611,56.8360241 L210.558711,56.8360241 L205.146955,48.7093412 L201.884549,48.7093412 L201.884549,56.8360241 L194.438588,56.8360241 Z M201.884549,42.8826629 L206.797349,42.8826629 C209.330511,42.8826629 210.788998,41.6559937 210.788998,39.624323 C210.788998,37.5159855 209.253749,36.44265 206.758968,36.44265 L201.884549,36.44265 L201.884549,42.8826629 Z M232.726622,57.296025 C239.251434,57.296025 243.588515,54.0376852 243.588515,48.5560075 C243.588515,43.457664 239.75039,41.4643267 233.571009,40.1226573 C229.848029,39.2793223 228.926879,38.7426546 228.926879,37.5159855 C228.926879,36.4809834 229.809647,35.7143152 231.613566,35.7143152 C233.993203,35.7143152 236.67989,36.634317 239.13629,38.3593205 L242.859271,33.1076433 C239.942296,30.7693053 236.37284,29.5426362 231.805472,29.5426362 C225.357423,29.5426362 221.404154,33.1459767 221.404154,38.12932 C221.404154,43.7259979 225.817998,45.3360011 231.536803,46.639337 C235.183022,47.4826721 236.06579,48.0960066 236.06579,49.2076755 C236.06579,50.4343446 234.991115,51.124346 232.995291,51.124346 C229.88641,51.124346 226.931054,50.0126771 224.282748,47.9043396 L220.137573,52.8493494 C223.43836,55.801022 227.967347,57.296025 232.726622,57.296025 Z" id="YEARS" fill="#ED4159"></path>
                <polygon id="K" fill="#ED4159" fill-rule="nonzero" points="395.509768 56.804095 395.509768 49.888095 398.207768 46.924095 404.933768 56.804095 413.749768 56.804095 403.337768 41.604095 413.407768 30.204095 404.667768 30.204095 395.509768 40.996095 395.509768 30.204095 388.137768 30.204095 388.137768 56.804095"></polygon>
                <path d="M7.00105609,96.0929768 C3.36032076,96.0929768 0.662667471,93.3986857 0.662667471,89.981536 C0.662667471,86.6081959 3.3822529,83.8700952 7.04492037,83.8700952 C10.6856557,83.8700952 13.383309,86.5643863 13.383309,89.981536 C13.383309,93.3548761 10.6637236,96.0929768 7.00105609,96.0929768 Z M7.04492037,93.2234472 C8.9530166,93.2234472 10.0934879,91.7558253 10.0934879,89.981536 C10.0934879,88.2510564 8.84335589,86.7396248 7.00105609,86.7396248 C5.09295986,86.7396248 3.95248855,88.2072467 3.95248855,89.981536 C3.95248855,91.7120157 5.20262056,93.2234472 7.04492037,93.2234472 Z M16.4444092,95.8301191 L19.7780945,95.8301191 L19.7780945,86.936768 L22.4318836,86.936768 L22.4318836,84.2205721 L19.7342303,84.2205721 L19.7342303,83.7605712 C19.7342303,82.884379 20.1728731,82.4900925 20.940498,82.4900925 C21.5107336,82.4900925 21.9713086,82.5996165 22.4538157,82.7748549 L22.4538157,80.0148494 C21.8397158,79.8177062 21.1378873,79.6862773 20.0851445,79.6862773 C18.9008089,79.6862773 18.0015912,79.9929446 17.3874912,80.6062792 C16.7733913,81.2196137 16.4444092,82.1615204 16.4444092,83.4539039 L16.4444092,84.1986673 L15.0626843,84.1986673 L15.0626843,86.936768 L16.4444092,86.936768 L16.4444092,95.8301191 Z M30.9885515,95.8301191 L34.3222369,95.8301191 L34.3222369,89.2805822 C34.3222369,87.7034362 35.0898618,86.8929584 36.3399938,86.8929584 C37.5901258,86.8929584 38.2919543,87.7034362 38.2919543,89.2805822 L38.2919543,95.8301191 L41.6256397,95.8301191 L41.6256397,89.2805822 C41.6256397,87.7034362 42.3932646,86.8929584 43.6433966,86.8929584 C44.8935286,86.8929584 45.5953571,87.7034362 45.5953571,89.2805822 L45.5953571,95.8301191 L48.9290425,95.8301191 L48.9290425,88.1853419 C48.9290425,85.359622 47.4376569,83.8700952 44.9593251,83.8700952 C43.3582788,83.8700952 42.1300789,84.5272394 41.0992683,85.7320037 C40.4851684,84.5491442 39.3227649,83.8700952 37.7875151,83.8700952 C36.0987403,83.8700952 35.0898618,84.7681923 34.3222369,85.7539085 L34.3222369,84.0891433 L30.9885515,84.0891433 L30.9885515,95.8301191 Z M57.6705671,96.0929768 C54.0298318,96.0929768 51.3321785,93.3986857 51.3321785,89.981536 C51.3321785,86.6081959 54.0517639,83.8700952 57.7144314,83.8700952 C61.3551667,83.8700952 64.05282,86.5643863 64.05282,89.981536 C64.05282,93.3548761 61.3332346,96.0929768 57.6705671,96.0929768 Z M57.7144314,93.2234472 C59.6225276,93.2234472 60.7629989,91.7558253 60.7629989,89.981536 C60.7629989,88.2510564 59.5128669,86.7396248 57.6705671,86.7396248 C55.7624709,86.7396248 54.6219996,88.2072467 54.6219996,89.981536 C54.6219996,91.7120157 55.8721316,93.2234472 57.7144314,93.2234472 Z M73.5400374,96.0491672 C71.763534,96.0491672 70.666927,95.2386894 69.8773699,94.2967827 L69.8773699,95.8301191 L66.5436845,95.8301191 L66.5436845,79.839611 L69.8773699,79.839611 L69.8773699,85.7758133 C70.6888591,84.680573 71.8073983,83.8700952 73.5400374,83.8700952 C76.2815549,83.8700952 78.8914797,86.0167662 78.8914797,89.981536 C78.8914797,93.9024962 76.3254192,96.0491672 73.5400374,96.0491672 Z M72.6846839,93.2234472 C74.2418659,93.2234472 75.5577943,91.9529685 75.5577943,89.9377264 C75.5577943,87.9881987 74.2418659,86.6958152 72.6846839,86.6958152 C71.1275019,86.6958152 69.8335056,87.9881987 69.8335056,89.981536 C69.8335056,91.9310637 71.1275019,93.2234472 72.6846839,93.2234472 Z M81.4920049,82.7967597 L85.0011474,82.7967597 L85.0011474,79.839611 L81.4920049,79.839611 L81.4920049,82.7967597 Z M81.5797335,95.8301191 L84.9134188,95.8301191 L84.9134188,84.0891433 L81.5797335,84.0891433 L81.5797335,95.8301191 Z M88.281569,95.8301191 L91.6152544,95.8301191 L91.6152544,79.839611 L88.281569,79.839611 L88.281569,95.8301191 Z M100.400643,96.0929768 C96.8695686,96.0929768 94.2596439,93.6177337 94.2596439,89.981536 C94.2596439,86.6301007 96.6502472,83.8700952 100.071661,83.8700952 C103.997514,83.8700952 105.79595,86.9148632 105.79595,90.2443937 C105.79595,90.5072513 105.774018,90.8139186 105.752086,91.1205859 L97.5713971,91.1205859 C97.9003792,92.6320175 98.953122,93.4205905 100.444508,93.4205905 C101.563047,93.4205905 102.374536,93.0701136 103.295686,92.2158262 L105.203782,93.9024962 C104.107175,95.2605942 102.528061,96.0929768 100.400643,96.0929768 Z M97.5275328,89.0396294 L102.549993,89.0396294 C102.352604,87.5501026 101.475318,86.5424815 100.071661,86.5424815 C98.6899363,86.5424815 97.7907185,87.5281978 97.5275328,89.0396294 Z M120.581346,96.0929768 C117.050271,96.0929768 114.440346,93.6177337 114.440346,89.981536 C114.440346,86.6301007 116.83095,83.8700952 120.252364,83.8700952 C124.178217,83.8700952 125.976652,86.9148632 125.976652,90.2443937 C125.976652,90.5072513 125.95472,90.8139186 125.932788,91.1205859 L117.7521,91.1205859 C118.081082,92.6320175 119.133824,93.4205905 120.62521,93.4205905 C121.743749,93.4205905 122.555238,93.0701136 123.476388,92.2158262 L125.384484,93.9024962 C124.287877,95.2605942 122.708763,96.0929768 120.581346,96.0929768 Z M117.708235,89.0396294 L122.730695,89.0396294 C122.533306,87.5501026 121.656021,86.5424815 120.252364,86.5424815 C118.870639,86.5424815 117.971421,87.5281978 117.708235,89.0396294 Z M126.888403,95.8301191 L130.375613,95.8301191 L132.744284,92.1720166 L135.112955,95.8301191 L138.687894,95.8301191 L134.54272,89.8062976 L138.512437,84.0891433 L135.025227,84.0891433 L132.810081,87.506293 L130.616867,84.0891433 L127.041928,84.0891433 L131.011645,89.872012 L126.888403,95.8301191 Z M140.762048,99.334888 L140.762048,84.0891433 L144.095734,84.0891433 L144.095734,85.7758133 C144.907223,84.680573 146.025762,83.8700952 147.758401,83.8700952 C150.499919,83.8700952 153.109843,86.0167662 153.109843,89.981536 C153.109843,93.9024962 150.543783,96.0491672 147.758401,96.0491672 C145.981898,96.0491672 144.885291,95.2386894 144.095734,94.2967827 L144.095734,99.334888 L140.762048,99.334888 Z M146.903048,93.2234472 C148.46023,93.2234472 149.776158,91.9529685 149.776158,89.9377264 C149.776158,87.9881987 148.46023,86.6958152 146.903048,86.6958152 C145.345866,86.6958152 144.051869,87.9881987 144.051869,89.981536 C144.051869,91.9310637 145.345866,93.2234472 146.903048,93.2234472 Z M161.215336,96.0929768 C157.684261,96.0929768 155.074336,93.6177337 155.074336,89.981536 C155.074336,86.6301007 157.46494,83.8700952 160.886354,83.8700952 C164.812207,83.8700952 166.610642,86.9148632 166.610642,90.2443937 C166.610642,90.5072513 166.58871,90.8139186 166.566778,91.1205859 L158.38609,91.1205859 C158.715072,92.6320175 159.767815,93.4205905 161.2592,93.4205905 C162.377739,93.4205905 163.189228,93.0701136 164.110378,92.2158262 L166.018475,93.9024962 C164.921868,95.2605942 163.342753,96.0929768 161.215336,96.0929768 Z M158.342225,89.0396294 L163.364686,89.0396294 C163.167296,87.5501026 162.290011,86.5424815 160.886354,86.5424815 C159.504629,86.5424815 158.605411,87.5281978 158.342225,89.0396294 Z M169.167303,95.8301191 L172.500989,95.8301191 L172.500989,91.4929676 C172.500989,88.6891525 173.860781,87.3529593 176.075928,87.3529593 L176.251385,87.3529593 L176.251385,83.8700952 C174.277492,83.782476 173.180885,84.8339067 172.500989,86.4548623 L172.500989,84.0891433 L169.167303,84.0891433 L169.167303,95.8301191 Z M178.479064,82.7967597 L181.988206,82.7967597 L181.988206,79.839611 L178.479064,79.839611 L178.479064,82.7967597 Z M178.566792,95.8301191 L181.900478,95.8301191 L181.900478,84.0891433 L178.566792,84.0891433 L178.566792,95.8301191 Z M190.685866,96.0929768 C187.154792,96.0929768 184.544867,93.6177337 184.544867,89.981536 C184.544867,86.6301007 186.93547,83.8700952 190.356884,83.8700952 C194.282737,83.8700952 196.081173,86.9148632 196.081173,90.2443937 C196.081173,90.5072513 196.059241,90.8139186 196.037309,91.1205859 L187.85662,91.1205859 C188.185602,92.6320175 189.238345,93.4205905 190.729731,93.4205905 C191.84827,93.4205905 192.659759,93.0701136 193.580909,92.2158262 L195.489005,93.9024962 C194.392398,95.2605942 192.813284,96.0929768 190.685866,96.0929768 Z M187.812756,89.0396294 L192.835216,89.0396294 C192.637827,87.5501026 191.760541,86.5424815 190.356884,86.5424815 C188.975159,86.5424815 188.075942,87.5281978 187.812756,89.0396294 Z M198.637834,95.8301191 L201.971519,95.8301191 L201.971519,89.2805822 C201.971519,87.7034362 202.783009,86.8929584 204.055073,86.8929584 C205.327137,86.8929584 206.07283,87.7034362 206.07283,89.2805822 L206.07283,95.8301191 L209.406515,95.8301191 L209.406515,88.2291516 C209.406515,85.5348605 207.937062,83.8700952 205.414865,83.8700952 C203.726091,83.8700952 202.739144,84.7681923 201.971519,85.7539085 L201.971519,84.0891433 L198.637834,84.0891433 L198.637834,95.8301191 Z M217.928718,96.0929768 C220.275457,96.0929768 221.591386,95.1948798 222.731857,93.9463058 L220.779896,91.9748733 C219.968407,92.7415415 219.200782,93.2234472 218.082243,93.2234472 C216.261875,93.2234472 215.099472,91.7777301 215.099472,89.981536 C215.099472,88.2072467 216.283808,86.7396248 217.95065,86.7396248 C219.266579,86.7396248 219.968407,87.2215305 220.692168,87.9005795 L222.644128,85.929147 C221.547521,84.7024778 220.187729,83.8700952 217.972582,83.8700952 C214.375711,83.8700952 211.809651,86.6301007 211.809651,89.981536 C211.809651,93.3767809 214.397644,96.0929768 217.928718,96.0929768 Z M230.22325,96.0929768 C226.692175,96.0929768 224.08225,93.6177337 224.08225,89.981536 C224.08225,86.6301007 226.472853,83.8700952 229.894267,83.8700952 C233.820121,83.8700952 235.618556,86.9148632 235.618556,90.2443937 C235.618556,90.5072513 235.596624,90.8139186 235.574692,91.1205859 L227.394003,91.1205859 C227.722986,92.6320175 228.775728,93.4205905 230.267114,93.4205905 C231.385653,93.4205905 232.197142,93.0701136 233.118292,92.2158262 L235.026388,93.9024962 C233.929781,95.2605942 232.350667,96.0929768 230.22325,96.0929768 Z M227.350139,89.0396294 L232.372599,89.0396294 C232.17521,87.5501026 231.297924,86.5424815 229.894267,86.5424815 C228.512543,86.5424815 227.613325,87.5281978 227.350139,89.0396294 Z" id="of-mobile-experience" fill="#FFFFFF"></path>
            </g>
            <g id="Group-11" transform="translate(0.000000, 250.548667)">
                <path d="M24.332,75.5293328 C36.2162128,75.5293328 44.934868,68.6706249 45.1190264,57.9359532 L45.122,57.4343328 C45.122,48.1943328 38.885,43.9593328 31.185,42.2653328 L44.044,31.1773328 L44.044,20.5513328 L5.159,20.5513328 L5.159,32.6403328 L25.718,32.6403328 L13.398,43.8053328 L15.477,51.5823328 L21.791,51.5823328 C27.489,51.5823328 30.569,53.6613328 30.569,57.1263328 L30.569,57.2803328 C30.569,60.5913328 27.951,62.7473328 23.716,62.7473328 C18.711,62.7473328 14.707,60.5143328 10.857,56.5873328 L1.386,65.9813328 C6.699,71.7563328 13.937,75.5293328 24.332,75.5293328 Z M75.845,75.5293328 C91.091,75.5293328 100.676923,63.0016946 100.867116,47.9579632 L100.87,47.3473328 C100.87,32.1013328 91.322,19.4733328 75.999,19.4733328 C60.82923,19.4733328 51.1686021,32.000971 50.9769065,47.0447023 L50.974,47.6553328 C50.974,62.9013328 60.522,75.5293328 75.845,75.5293328 Z M75.999,62.2853328 C70.0813235,62.2853328 66.1071977,56.3051771 65.9915914,47.880193 L65.989,47.3473328 C65.989,38.7233328 69.916,32.6403328 75.845,32.6403328 C81.7626765,32.6403328 85.7368023,38.6952404 85.8524086,47.1224231 L85.855,47.6553328 C85.855,56.2023328 82.005,62.2853328 75.999,62.2853328 Z M132.055,75.5293328 C147.301,75.5293328 156.886922,63.0016946 157.077116,47.9579632 L157.08,47.3473328 C157.08,32.1013328 147.532,19.4733328 132.209,19.4733328 C117.03923,19.4733328 107.378602,32.000971 107.186907,47.0447023 L107.184,47.6553328 C107.184,62.9013328 116.732,75.5293328 132.055,75.5293328 Z M132.209,62.2853328 C126.291324,62.2853328 122.317198,56.3051771 122.201591,47.880193 L122.199,47.3473328 C122.199,38.7233328 126.126,32.6403328 132.055,32.6403328 C137.972676,32.6403328 141.946802,38.6952404 142.062409,47.1224231 L142.065,47.6553328 C142.065,56.2023328 138.215,62.2853328 132.209,62.2853328 Z M178.178,67.2133328 L178.178,53.8153328 L164.626,53.8153328 L164.626,40.8793328 L178.178,40.8793328 L178.178,27.4813328 L191.576,27.4813328 L191.576,40.8793328 L205.128,40.8793328 L205.128,53.8153328 L191.576,53.8153328 L191.576,67.2133328 L178.178,67.2133328 Z" id="300+" fill="#ED4159" fill-rule="nonzero"></path>
                <path d="M364.551,74.4513328 L379.258,74.4513328 L379.258,20.1663328 L368.401,20.1663328 L352.616,24.6323328 L355.465,36.1823328 L364.551,34.0263328 L364.551,74.4513328 Z M412.522,75.5293328 C427.768,75.5293328 437.353923,63.0016946 437.544116,47.9579632 L437.547,47.3473328 C437.547,32.1013328 427.999,19.4733328 412.676,19.4733328 C397.50623,19.4733328 387.845602,32.000971 387.653907,47.0447023 L387.651,47.6553328 C387.651,62.9013328 397.199,75.5293328 412.522,75.5293328 Z M412.676,62.2853328 C406.758324,62.2853328 402.784198,56.3051771 402.668591,47.880193 L402.666,47.3473328 C402.666,38.7233328 406.593,32.6403328 412.522,32.6403328 C418.439676,32.6403328 422.413802,38.6952404 422.529409,47.1224231 L422.532,47.6553328 C422.532,56.2023328 418.682,62.2853328 412.676,62.2853328 Z" id="10" fill="#ED4159" fill-rule="nonzero"></path>
                <path d="M4.46885871,114.049212 L7.80254407,114.049212 L7.80254407,107.499675 C7.80254407,105.922529 8.61403327,105.112052 9.88609743,105.112052 C11.1581616,105.112052 11.9038544,105.922529 11.9038544,107.499675 L11.9038544,114.049212 L15.2375397,114.049212 L15.2375397,106.448245 C15.2375397,103.753954 13.7680863,102.089188 11.2458901,102.089188 C9.55711532,102.089188 8.57016899,102.987285 7.80254407,103.973002 L7.80254407,98.0587041 L4.46885871,98.0587041 L4.46885871,114.049212 Z M18.2767078,101.015853 L21.7858503,101.015853 L21.7858503,98.0587041 L18.2767078,98.0587041 L18.2767078,101.015853 Z M18.3644363,114.049212 L21.6981217,114.049212 L21.6981217,102.308236 L18.3644363,102.308236 L18.3644363,114.049212 Z M30.1764606,117.597791 C28.2683644,117.597791 26.4699289,117.159695 24.9785433,116.371122 L26.1190146,113.873974 C27.3252823,114.553023 28.5315501,114.947309 30.088732,114.947309 C32.3696747,114.947309 33.4443495,113.852069 33.4443495,111.749208 L33.4443495,111.179683 C32.4574032,112.362542 31.3827283,113.085401 29.606225,113.085401 C26.8647074,113.085401 24.3863755,111.092063 24.3863755,107.56539 C24.3863755,104.060621 26.9085717,102.089188 29.606225,102.089188 C31.4265926,102.089188 32.5012675,102.855857 33.4004853,103.841573 L33.4004853,102.308236 L36.7341706,102.308236 L36.7341706,111.398731 C36.7341706,113.501592 36.2297314,115.034929 35.2427851,116.020645 C34.146178,117.115885 32.4574032,117.597791 30.1764606,117.597791 Z M30.5712391,110.325395 C32.1942175,110.325395 33.4443495,109.20825 33.4443495,107.56539 C33.4443495,105.966339 32.1942175,104.849194 30.5712391,104.849194 C28.9482607,104.849194 27.7200609,105.966339 27.7200609,107.609199 C27.7200609,109.230155 28.9482607,110.325395 30.5712391,110.325395 Z M39.7952708,114.049212 L43.1289562,114.049212 L43.1289562,107.499675 C43.1289562,105.922529 43.9404454,105.112052 45.2125095,105.112052 C46.4845737,105.112052 47.2302665,105.922529 47.2302665,107.499675 L47.2302665,114.049212 L50.5639518,114.049212 L50.5639518,106.448245 C50.5639518,103.753954 49.0944984,102.089188 46.5723023,102.089188 C44.8835274,102.089188 43.8965811,102.987285 43.1289562,103.973002 L43.1289562,98.0587041 L39.7952708,98.0587041 L39.7952708,114.049212 Z M53.6908484,114.049212 L57.0245338,114.049212 L57.0245338,98.0587041 L53.6908484,98.0587041 L53.6908484,114.049212 Z M63.046473,117.619696 C65.0422978,117.619696 66.007312,116.721599 66.9065297,114.333975 L71.4245507,102.308236 L67.9592725,102.308236 L65.393212,110.30349 L62.7174909,102.308236 L59.1864162,102.308236 L63.7921658,114.093022 C63.5070479,114.684452 63.199998,114.85969 62.6297623,114.85969 C62.1911195,114.85969 61.642816,114.662547 61.2041732,114.399689 L60.085634,116.809218 C60.9409875,117.313028 61.8402053,117.619696 63.046473,117.619696 Z M84.2579861,114.26826 C86.8021144,114.26826 88.7540749,113.085401 88.7540749,110.478729 C88.7540749,108.288248 86.8459786,107.499675 85.2010681,106.952055 C83.929004,106.513959 82.8104648,106.207292 82.8104648,105.550148 C82.8104648,105.046337 83.2271755,104.69586 84.0386647,104.69586 C84.8940181,104.69586 86.0564216,105.112052 87.218825,105.791101 L88.4908892,103.491096 C87.218825,102.636808 85.5958466,102.132998 84.1044611,102.132998 C81.7357899,102.132998 79.8057615,103.469191 79.8057615,105.856815 C79.8057615,108.178724 81.6699935,108.945393 83.314904,109.427298 C84.6089003,109.821585 85.7493716,110.062538 85.7493716,110.785396 C85.7493716,111.354921 85.3107288,111.705398 84.3457146,111.705398 C83.2491076,111.705398 81.911247,111.223492 80.6391829,110.30349 L79.2135937,112.493971 C80.7707757,113.72064 82.6130755,114.26826 84.2579861,114.26826 Z M91.2230073,114.049212 L94.5566926,114.049212 L94.5566926,110.478729 L95.7190961,109.25206 L98.7895958,114.049212 L102.605788,114.049212 L97.9781066,106.93015 L102.452263,102.308236 L98.4606137,102.308236 L94.5566926,106.579674 L94.5566926,98.0587041 L91.2230073,98.0587041 L91.2230073,114.049212 Z M104.35096,101.015853 L107.860102,101.015853 L107.860102,98.0587041 L104.35096,98.0587041 L104.35096,101.015853 Z M104.438689,114.049212 L107.772374,114.049212 L107.772374,102.308236 L104.438689,102.308236 L104.438689,114.049212 Z M111.140524,114.049212 L114.474209,114.049212 L114.474209,98.0587041 L111.140524,98.0587041 L111.140524,114.049212 Z M117.84236,114.049212 L121.176045,114.049212 L121.176045,98.0587041 L117.84236,98.0587041 L117.84236,114.049212 Z M129.961434,114.31207 C126.430359,114.31207 123.820434,111.836827 123.820434,108.200629 C123.820434,104.849194 126.211038,102.089188 129.632452,102.089188 C133.558305,102.089188 135.35674,105.133956 135.35674,108.463487 C135.35674,108.726344 135.334808,109.033012 135.312876,109.339679 L127.132188,109.339679 C127.46117,110.851111 128.513913,111.639684 130.005298,111.639684 C131.123837,111.639684 131.935326,111.289207 132.856476,110.434919 L134.764573,112.121589 C133.667966,113.479687 132.088851,114.31207 129.961434,114.31207 Z M127.088323,107.258722 L132.110784,107.258722 C131.913394,105.769196 131.036109,104.761575 129.632452,104.761575 C128.250727,104.761575 127.351509,105.747291 127.088323,107.258722 Z M142.738472,114.26826 C139.996955,114.26826 137.38703,112.121589 137.38703,108.15682 C137.38703,104.235859 139.95309,102.089188 142.738472,102.089188 C144.514976,102.089188 145.611583,102.899666 146.40114,103.841573 L146.40114,98.0587041 L149.734825,98.0587041 L149.734825,114.049212 L146.40114,114.049212 L146.40114,112.362542 C145.589651,113.457782 144.471111,114.26826 142.738472,114.26826 Z M143.593826,111.44254 C145.151008,111.44254 146.445004,110.150157 146.445004,108.15682 C146.445004,106.207292 145.151008,104.914908 143.593826,104.914908 C142.036644,104.914908 140.720715,106.185387 140.720715,108.200629 C140.720715,110.150157 142.036644,111.44254 143.593826,111.44254 Z M10.0396224,138.270451 C6.50854778,138.270451 3.89862306,135.795208 3.89862306,132.15901 C3.89862306,128.807575 6.28922638,126.04757 9.7106403,126.04757 C13.6364935,126.04757 15.434929,129.092338 15.434929,132.421868 C15.434929,132.684726 15.4129968,132.991393 15.3910647,133.29806 L7.21037628,133.29806 C7.53935839,134.809492 8.59210113,135.598065 10.0834867,135.598065 C11.2020259,135.598065 12.0135151,135.247588 12.934665,134.393301 L14.8427612,136.079971 C13.7461542,137.438069 12.16704,138.270451 10.0396224,138.270451 Z M7.166512,131.217104 L12.1889722,131.217104 C11.9915829,129.727577 11.1142973,128.719956 9.7106403,128.719956 C8.32891545,128.719956 7.42969769,129.705672 7.166512,131.217104 Z M17.9915899,138.007593 L21.3252753,138.007593 L21.3252753,131.458057 C21.3252753,129.880911 22.0929002,129.070433 23.3430322,129.070433 C24.5931643,129.070433 25.2949927,129.880911 25.2949927,131.458057 L25.2949927,138.007593 L28.6286781,138.007593 L28.6286781,131.458057 C28.6286781,129.880911 29.396303,129.070433 30.646435,129.070433 C31.8965671,129.070433 32.5983956,129.880911 32.5983956,131.458057 L32.5983956,138.007593 L35.9320809,138.007593 L35.9320809,130.362816 C35.9320809,127.537096 34.4406954,126.04757 31.9623635,126.04757 C30.3613172,126.04757 29.1331173,126.704714 28.1023067,127.909478 C27.4882068,126.726619 26.3258034,126.04757 24.7905535,126.04757 C23.1017787,126.04757 22.0929002,126.945667 21.3252753,127.931383 L21.3252753,126.266618 L17.9915899,126.266618 L17.9915899,138.007593 Z M38.9054525,141.512362 L38.9054525,126.266618 L42.2391379,126.266618 L42.2391379,127.953288 C43.0506271,126.858047 44.1691663,126.04757 45.9018054,126.04757 C48.6433229,126.04757 51.2532477,128.194241 51.2532477,132.15901 C51.2532477,136.079971 48.6871872,138.226642 45.9018054,138.226642 C44.125302,138.226642 43.028695,137.416164 42.2391379,136.474257 L42.2391379,141.512362 L38.9054525,141.512362 Z M45.0464519,135.400922 C46.6036339,135.400922 47.9195623,134.130443 47.9195623,132.115201 C47.9195623,130.165673 46.6036339,128.873289 45.0464519,128.873289 C43.4892699,128.873289 42.1952736,130.165673 42.1952736,132.15901 C42.1952736,134.108538 43.4892699,135.400922 45.0464519,135.400922 Z M53.9415015,138.007593 L57.2751868,138.007593 L57.2751868,122.017085 L53.9415015,122.017085 L53.9415015,138.007593 Z M66.257965,138.270451 C62.6172297,138.270451 59.9195764,135.57616 59.9195764,132.15901 C59.9195764,128.78567 62.6391618,126.04757 66.3018293,126.04757 C69.9425646,126.04757 72.6402179,128.741861 72.6402179,132.15901 C72.6402179,135.53235 69.9206325,138.270451 66.257965,138.270451 Z M66.3018293,135.400922 C68.2099255,135.400922 69.3503968,133.9333 69.3503968,132.15901 C69.3503968,130.428531 68.1002648,128.917099 66.257965,128.917099 C64.3498688,128.917099 63.2093974,130.384721 63.2093974,132.15901 C63.2093974,133.88949 64.4595295,135.400922 66.3018293,135.400922 Z M77.2804322,141.578077 C79.276257,141.578077 80.2412712,140.67998 81.1404889,138.292356 L85.6585099,126.266618 L82.1932317,126.266618 L79.6271712,134.261872 L76.9514501,126.266618 L73.4203755,126.266618 L78.026125,138.051403 C77.7410071,138.642833 77.4339572,138.818071 76.8637215,138.818071 C76.4250787,138.818071 75.8767752,138.620928 75.4381324,138.35807 L74.3195932,140.767599 C75.1749467,141.27141 76.0741645,141.578077 77.2804322,141.578077 Z M92.6235311,138.270451 C89.0924565,138.270451 86.4825317,135.795208 86.4825317,132.15901 C86.4825317,128.807575 88.8731351,126.04757 92.294549,126.04757 C96.2204021,126.04757 98.0188377,129.092338 98.0188377,132.421868 C98.0188377,132.684726 97.9969055,132.991393 97.9749734,133.29806 L89.794285,133.29806 C90.1232671,134.809492 91.1760098,135.598065 92.6673954,135.598065 C93.7859345,135.598065 94.5974237,135.247588 95.5185736,134.393301 L97.4266699,136.079971 C96.3300628,137.438069 94.7509487,138.270451 92.6235311,138.270451 Z M89.7504207,131.217104 L94.7728809,131.217104 C94.5754916,129.727577 93.698206,128.719956 92.294549,128.719956 C90.9128241,128.719956 90.0136064,129.705672 89.7504207,131.217104 Z M106.146262,138.270451 C102.615188,138.270451 100.005263,135.795208 100.005263,132.15901 C100.005263,128.807575 102.395866,126.04757 105.81728,126.04757 C109.743133,126.04757 111.541569,129.092338 111.541569,132.421868 C111.541569,132.684726 111.519637,132.991393 111.497705,133.29806 L103.317016,133.29806 C103.645998,134.809492 104.698741,135.598065 106.190127,135.598065 C107.308666,135.598065 108.120155,135.247588 109.041305,134.393301 L110.949401,136.079971 C109.852794,137.438069 108.27368,138.270451 106.146262,138.270451 Z M103.273152,131.217104 L108.295612,131.217104 C108.098223,129.727577 107.220937,128.719956 105.81728,128.719956 C104.435555,128.719956 103.536338,129.705672 103.273152,131.217104 Z M118.221472,138.226642 C120.765601,138.226642 122.717561,137.043782 122.717561,134.43711 C122.717561,132.24663 120.809465,131.458057 119.164554,130.910436 C117.89249,130.47234 116.773951,130.165673 116.773951,129.508529 C116.773951,129.004718 117.190662,128.654241 118.002151,128.654241 C118.857504,128.654241 120.019908,129.070433 121.182311,129.749482 L122.454375,127.449477 C121.182311,126.59519 119.559333,126.091379 118.067947,126.091379 C115.699276,126.091379 113.769248,127.427572 113.769248,129.815196 C113.769248,132.137106 115.63348,132.903774 117.27839,133.385679 C118.572387,133.779966 119.712858,134.020919 119.712858,134.743777 C119.712858,135.313302 119.274215,135.663779 118.309201,135.663779 C117.212594,135.663779 115.874733,135.181874 114.602669,134.261872 L113.17708,136.452352 C114.734262,137.679021 116.576562,138.226642 118.221472,138.226642 Z" id="highly-skilled-emplo" fill="#FFFFFF"></path>
            </g>
            <g id="Group-11" transform="translate(355.764199, 298.767760)">
                <path d="M107.066395,27.5409828 L114.550738,27.5409828 L114.550738,17.3826292 L124.760149,0.707595888 L116.431419,0.707595888 L110.866138,10.4826154 L105.339239,0.707595888 L96.8569836,0.707595888 L107.066395,17.4976294 L107.066395,27.5409828 Z M127.2001,27.5409828 L149.000648,27.5409828 L149.000648,21.2159702 L134.569299,21.2159702 L134.569299,16.9609617 L147.465398,16.9609617 L147.465398,11.09595 L134.569299,11.09595 L134.569299,7.03260853 L148.808742,7.03260853 L148.808742,0.707595888 L127.2001,0.707595888 L127.2001,27.5409828 Z M150.788117,27.5409828 L162.225729,0.515928838 L169.403022,0.515928838 L180.840633,27.5409828 L172.857334,27.5409828 L170.89989,22.7493066 L160.536954,22.7493066 L158.617891,27.5409828 L150.788117,27.5409828 Z M162.724685,16.9609617 L168.75054,16.9609617 L165.756803,9.33261312 L162.724685,16.9609617 Z M183.587633,27.5409828 L183.587633,0.707595888 L196.291826,0.707595888 C200.398619,0.707595888 203.238831,1.78093137 205.04275,3.58260163 C206.616381,5.15427144 207.422387,7.22427558 207.422387,9.94594768 C207.422387,14.0476225 205.234656,16.7692947 201.895488,18.1876308 L208.305156,27.5409828 L199.707757,27.5409828 L194.296001,19.4142999 L191.033595,19.4142999 L191.033595,27.5409828 L183.587633,27.5409828 Z M191.033595,13.5876216 L195.946395,13.5876216 C198.479557,13.5876216 199.938044,12.3609525 199.938044,10.3292818 C199.938044,8.22094424 198.402794,7.14760876 195.908013,7.14760876 L191.033595,7.14760876 L191.033595,13.5876216 Z M221.875668,28.0009838 C228.40048,28.0009838 232.73756,24.7426439 232.73756,19.2609663 C232.73756,14.1626228 228.899436,12.1692855 222.720055,10.8276161 C218.997074,9.98428109 218.075924,9.44761335 218.075924,8.22094424 C218.075924,7.18594217 218.958693,6.41927397 220.762612,6.41927397 C223.142249,6.41927397 225.828936,7.33927581 228.285336,9.06427925 L232.008317,3.81260209 C229.091342,1.47426409 225.521886,0.247594968 220.954518,0.247594968 C214.506469,0.247594968 210.5532,3.8509355 210.5532,8.83427879 C210.5532,14.4309566 214.967043,16.0409599 220.685849,17.3442958 C224.332067,18.1876308 225.214836,18.8009654 225.214836,19.9126343 C225.214836,21.1393034 224.140161,21.8293048 222.144336,21.8293048 C219.035456,21.8293048 216.0801,20.7176359 213.431794,18.6092983 L209.286619,23.5543082 C212.587406,26.5059808 217.116393,28.0009838 221.875668,28.0009838 Z" id="YEARS" fill="#ED4159"></path>
                <path d="M7.14017788,65.6679582 C3.49944255,65.6679582 0.801789258,62.9736671 0.801789258,59.5565174 C0.801789258,56.1831773 3.52137469,53.4450766 7.18404216,53.4450766 C10.8247775,53.4450766 13.5224308,56.1393677 13.5224308,59.5565174 C13.5224308,62.9298575 10.8028453,65.6679582 7.14017788,65.6679582 Z M7.18404216,62.7984286 C9.09213838,62.7984286 10.2326097,61.3308066 10.2326097,59.5565174 C10.2326097,57.8260377 8.98247768,56.3146061 7.14017788,56.3146061 C5.23208165,56.3146061 4.09161034,57.7822281 4.09161034,59.5565174 C4.09161034,61.286997 5.34174235,62.7984286 7.18404216,62.7984286 Z M16.583531,65.4051005 L19.9172163,65.4051005 L19.9172163,56.5117494 L22.5710053,56.5117494 L22.5710053,53.7955535 L19.8733521,53.7955535 L19.8733521,53.3355526 C19.8733521,52.4593603 20.3119949,52.0650738 21.0796198,52.0650738 C21.6498554,52.0650738 22.1104304,52.1745979 22.5929375,52.3498363 L22.5929375,49.5898308 C21.9788375,49.3926876 21.277009,49.2612587 20.2242663,49.2612587 C19.0399307,49.2612587 18.1407129,49.567926 17.526613,50.1812606 C16.9125131,50.7945951 16.583531,51.7365018 16.583531,53.0288853 L16.583531,53.7736487 L15.2018061,53.7736487 L15.2018061,56.5117494 L16.583531,56.5117494 L16.583531,65.4051005 Z M31.1934697,52.3717411 L34.7026122,52.3717411 L34.7026122,49.4145924 L31.1934697,49.4145924 L31.1934697,52.3717411 Z M31.2811983,65.4051005 L34.6148837,65.4051005 L34.6148837,53.6641247 L31.2811983,53.6641247 L31.2811983,65.4051005 Z M45.6373509,65.6679582 C40.9000085,65.6679582 37.5005267,62.1412845 37.5005267,57.7384185 C37.5005267,53.3793622 40.9438728,49.8088789 45.6812152,49.8088789 C50.4185575,49.8088789 53.8180393,53.3355526 53.8180393,57.7384185 C53.8180393,62.0974748 50.3746932,65.6679582 45.6373509,65.6679582 Z M45.6812152,62.5574758 C48.4008006,62.5574758 50.2869647,60.4108048 50.2869647,57.7384185 C50.2869647,55.1098418 48.3569363,52.9193613 45.6373509,52.9193613 C42.9177655,52.9193613 41.0316014,55.0660322 41.0316014,57.7384185 C41.0316014,60.3669952 42.9616297,62.5574758 45.6812152,62.5574758 Z M62.2525139,65.6241486 C65.5642672,65.6241486 67.8890741,63.9155737 67.8890741,60.8708057 C67.8890741,58.1546098 66.1345028,57.0374647 63.0201389,56.2269869 C60.3663499,55.5479379 59.7083856,55.2193659 59.7083856,54.2117448 C59.7083856,53.4231718 60.388282,52.831742 61.6822783,52.831742 C62.9762746,52.831742 64.3141351,53.401267 65.6739279,54.3431736 L67.4284991,51.8022162 C65.8713171,50.5536423 63.9632209,49.8526885 61.7261426,49.8526885 C58.5898465,49.8526885 56.3527681,51.6926921 56.3527681,54.4746025 C56.3527681,57.5631801 58.3485929,58.4174675 61.4410247,59.2060405 C64.0070852,59.8631847 64.5334566,60.3012808 64.5334566,61.1555682 C64.5334566,62.0974748 63.7000352,62.645095 62.3183104,62.645095 C60.5637391,62.645095 59.1162178,61.9222364 57.734493,60.7831865 L55.7386682,63.1708103 C57.580968,64.8136707 59.927707,65.6241486 62.2525139,65.6241486 Z M80.5470523,65.6241486 C78.3319061,65.6241486 76.5115385,64.3536698 76.5115385,61.9879508 C76.5115385,59.4250886 78.463499,58.242229 81.2488808,58.242229 C82.4332164,58.242229 83.2885699,58.4393723 84.1219912,58.7241348 L84.1219912,58.5269915 C84.1219912,57.1469888 83.2666378,56.3803206 81.5997951,56.3803206 C80.3277309,56.3803206 79.4285132,56.6212734 78.3538383,57.0155599 L77.5204169,54.4746025 C78.8144132,53.9050775 80.0864774,53.5326958 82.0823022,53.5326958 C83.9026698,53.5326958 85.2185983,54.0146016 86.0520196,54.8469842 C86.9293052,55.7231764 87.3240838,57.0155599 87.3240838,58.5927059 L87.3240838,65.4051005 L84.1000591,65.4051005 L84.1000591,64.1346218 C83.2885699,65.0327188 82.1700307,65.6241486 80.5470523,65.6241486 Z M81.5559308,63.324144 C83.1131128,63.324144 84.1658555,62.4698565 84.1658555,61.2650922 L84.1658555,60.6736625 C83.5956199,60.4108048 82.8499271,60.2355664 82.0384379,60.2355664 C80.6128488,60.2355664 79.7355631,60.8050913 79.7355631,61.9003316 C79.7355631,62.7984286 80.4812559,63.324144 81.5559308,63.324144 Z M90.2755232,65.4051005 L93.6092086,65.4051005 L93.6092086,58.8555636 C93.6092086,57.2784176 94.4206978,56.4679398 95.692762,56.4679398 C96.9648261,56.4679398 97.7105189,57.2784176 97.7105189,58.8555636 L97.7105189,65.4051005 L101.044204,65.4051005 L101.044204,57.8041329 C101.044204,55.1098418 99.5747508,53.4450766 97.0525547,53.4450766 C95.3637799,53.4450766 94.3768335,54.3431736 93.6092086,55.3288899 L93.6092086,53.6641247 L90.2755232,53.6641247 L90.2755232,65.4051005 Z M108.842647,65.6241486 C106.101129,65.6241486 103.491205,63.4774776 103.491205,59.5127078 C103.491205,55.5917476 106.057265,53.4450766 108.842647,53.4450766 C110.61915,53.4450766 111.715757,54.2555544 112.505314,55.1974611 L112.505314,49.4145924 L115.839,49.4145924 L115.839,65.4051005 L112.505314,65.4051005 L112.505314,63.7184305 C111.693825,64.8136707 110.575286,65.6241486 108.842647,65.6241486 Z M109.698,62.7984286 C111.255182,62.7984286 112.549179,61.5060451 112.549179,59.5127078 C112.549179,57.5631801 111.255182,56.2707965 109.698,56.2707965 C108.140818,56.2707965 106.82489,57.5412753 106.82489,59.5565174 C106.82489,61.5060451 108.140818,62.7984286 109.698,62.7984286 Z M124.593057,65.4051005 L131.172699,49.9622125 L134.287063,49.9622125 L140.866705,65.4051005 L137.335631,65.4051005 L135.931974,61.966046 L129.44006,61.966046 L128.036403,65.4051005 L124.593057,65.4051005 Z M130.646328,58.9869924 L134.725706,58.9869924 L132.686017,54.0146016 L130.646328,58.9869924 Z M142.962791,65.4051005 L146.296477,65.4051005 L146.296477,58.8555636 C146.296477,57.2784176 147.107966,56.4679398 148.38003,56.4679398 C149.652094,56.4679398 150.397787,57.2784176 150.397787,58.8555636 L150.397787,65.4051005 L153.731472,65.4051005 L153.731472,57.8041329 C153.731472,55.1098418 152.262019,53.4450766 149.739823,53.4450766 C148.051048,53.4450766 147.064101,54.3431736 146.296477,55.3288899 L146.296477,53.6641247 L142.962791,53.6641247 L142.962791,65.4051005 Z M161.529915,65.6241486 C158.788397,65.6241486 156.178472,63.4774776 156.178472,59.5127078 C156.178472,55.5917476 158.744533,53.4450766 161.529915,53.4450766 C163.306418,53.4450766 164.403025,54.2555544 165.192582,55.1974611 L165.192582,49.4145924 L168.526268,49.4145924 L168.526268,65.4051005 L165.192582,65.4051005 L165.192582,63.7184305 C164.381093,64.8136707 163.262554,65.6241486 161.529915,65.6241486 Z M162.385268,62.7984286 C163.94245,62.7984286 165.236447,61.5060451 165.236447,59.5127078 C165.236447,57.5631801 163.94245,56.2707965 162.385268,56.2707965 C160.828086,56.2707965 159.512158,57.5412753 159.512158,59.5565174 C159.512158,61.5060451 160.828086,62.7984286 162.385268,62.7984286 Z M171.587368,65.4051005 L174.921053,65.4051005 L174.921053,61.067949 C174.921053,58.2641339 176.280846,56.9279407 178.495992,56.9279407 L178.671449,56.9279407 L178.671449,53.4450766 C176.697557,53.3574574 175.60095,54.4088881 174.921053,56.0298437 L174.921053,53.6641247 L171.587368,53.6641247 L171.587368,65.4051005 Z M186.272502,65.6679582 C182.631767,65.6679582 179.934114,62.9736671 179.934114,59.5565174 C179.934114,56.1831773 182.653699,53.4450766 186.316367,53.4450766 C189.957102,53.4450766 192.654755,56.1393677 192.654755,59.5565174 C192.654755,62.9298575 189.93517,65.6679582 186.272502,65.6679582 Z M186.316367,62.7984286 C188.224463,62.7984286 189.364934,61.3308066 189.364934,59.5565174 C189.364934,57.8260377 188.114802,56.3146061 186.272502,56.3146061 C184.364406,56.3146061 183.223935,57.7822281 183.223935,59.5565174 C183.223935,61.286997 184.474067,62.7984286 186.316367,62.7984286 Z M195.211416,52.3717411 L198.720559,52.3717411 L198.720559,49.4145924 L195.211416,49.4145924 L195.211416,52.3717411 Z M195.299145,65.4051005 L198.63283,65.4051005 L198.63283,53.6641247 L195.299145,53.6641247 L195.299145,65.4051005 Z M206.672526,65.6241486 C203.931009,65.6241486 201.321084,63.4774776 201.321084,59.5127078 C201.321084,55.5917476 203.887145,53.4450766 206.672526,53.4450766 C208.44903,53.4450766 209.545637,54.2555544 210.335194,55.1974611 L210.335194,49.4145924 L213.668879,49.4145924 L213.668879,65.4051005 L210.335194,65.4051005 L210.335194,63.7184305 C209.523705,64.8136707 208.405165,65.6241486 206.672526,65.6241486 Z M207.52788,62.7984286 C209.085062,62.7984286 210.379058,61.5060451 210.379058,59.5127078 C210.379058,57.5631801 209.085062,56.2707965 207.52788,56.2707965 C205.970698,56.2707965 204.654769,57.5412753 204.654769,59.5565174 C204.654769,61.5060451 205.970698,62.7984286 207.52788,62.7984286 Z M6.19709583,89.5825298 C3.45557826,89.5825298 0.845653539,87.4358588 0.845653539,83.471089 C0.845653539,79.5501288 3.41171398,77.4034578 6.19709583,77.4034578 C7.97359922,77.4034578 9.07020624,78.2139356 9.8597633,79.1558423 L9.8597633,73.3729736 L13.1934487,73.3729736 L13.1934487,89.3634817 L9.8597633,89.3634817 L9.8597633,87.6768117 C9.0482741,88.772052 7.92973494,89.5825298 6.19709583,89.5825298 Z M7.05244931,86.7568098 C8.60963129,86.7568098 9.90362758,85.4644263 9.90362758,83.471089 C9.90362758,81.5215613 8.60963129,80.2291777 7.05244931,80.2291777 C5.49526734,80.2291777 4.1793389,81.4996565 4.1793389,83.5148986 C4.1793389,85.4644263 5.49526734,86.7568098 7.05244931,86.7568098 Z M21.8253126,89.6263394 C18.2942379,89.6263394 15.6843132,87.1510963 15.6843132,83.5148986 C15.6843132,80.1634633 18.0749165,77.4034578 21.4963305,77.4034578 C25.4221836,77.4034578 27.2206191,80.4482258 27.2206191,83.7777563 C27.2206191,84.0406139 27.198687,84.3472812 27.1767549,84.6539485 L18.9960664,84.6539485 C19.3250485,86.1653801 20.3777913,86.9539531 21.8691768,86.9539531 C22.987716,86.9539531 23.7992052,86.6034762 24.7203551,85.7491888 L26.6284513,87.4358588 C25.5318443,88.7939568 23.9527302,89.6263394 21.8253126,89.6263394 Z M18.9522021,82.572992 L23.9746623,82.572992 C23.7772731,81.0834652 22.8999874,80.0758441 21.4963305,80.0758441 C20.1146056,80.0758441 19.2153878,81.0615604 18.9522021,82.572992 Z M32.8039155,89.4511009 L35.8305509,89.4511009 L40.4582325,77.6225059 L36.9929543,77.6225059 L34.3391653,85.4863311 L31.7073085,77.6225059 L28.1762338,77.6225059 L32.8039155,89.4511009 Z M47.3793895,89.6263394 C43.8483148,89.6263394 41.2383901,87.1510963 41.2383901,83.5148986 C41.2383901,80.1634633 43.6289934,77.4034578 47.0504074,77.4034578 C50.9762605,77.4034578 52.774696,80.4482258 52.774696,83.7777563 C52.774696,84.0406139 52.7527639,84.3472812 52.7308318,84.6539485 L44.5501433,84.6539485 C44.8791254,86.1653801 45.9318682,86.9539531 47.4232538,86.9539531 C48.5417929,86.9539531 49.3532821,86.6034762 50.274432,85.7491888 L52.1825283,87.4358588 C51.0859212,88.7939568 49.5068071,89.6263394 47.3793895,89.6263394 Z M44.5062791,82.572992 L49.5287392,82.572992 C49.33135,81.0834652 48.4540644,80.0758441 47.0504074,80.0758441 C45.6686825,80.0758441 44.7694647,81.0615604 44.5062791,82.572992 Z M55.484882,89.3634817 L58.8185674,89.3634817 L58.8185674,73.3729736 L55.484882,73.3729736 L55.484882,89.3634817 Z M67.8013455,89.6263394 C64.1606102,89.6263394 61.4629569,86.9320483 61.4629569,83.5148986 C61.4629569,80.1415585 64.1825423,77.4034578 67.8452098,77.4034578 C71.4859451,77.4034578 74.1835984,80.0977489 74.1835984,83.5148986 C74.1835984,86.8882387 71.464013,89.6263394 67.8013455,89.6263394 Z M67.8452098,86.7568098 C69.753306,86.7568098 70.8937773,85.2891879 70.8937773,83.5148986 C70.8937773,81.7844189 69.6436453,80.2729874 67.8013455,80.2729874 C65.8932493,80.2729874 64.752778,81.7406093 64.752778,83.5148986 C64.752778,85.2453782 66.00291,86.7568098 67.8452098,86.7568098 Z M76.6744629,92.8682506 L76.6744629,77.6225059 L80.0081483,77.6225059 L80.0081483,79.3091759 C80.8196375,78.2139356 81.9381767,77.4034578 83.6708158,77.4034578 C86.4123333,77.4034578 89.0222581,79.5501288 89.0222581,83.5148986 C89.0222581,87.4358588 86.4561976,89.5825298 83.6708158,89.5825298 C81.8943124,89.5825298 80.7977054,88.772052 80.0081483,87.8301453 L80.0081483,92.8682506 L76.6744629,92.8682506 Z M82.8154623,86.7568098 C84.3726443,86.7568098 85.6885727,85.4863311 85.6885727,83.471089 C85.6885727,81.5215613 84.3726443,80.2291777 82.8154623,80.2291777 C81.2582803,80.2291777 79.964284,81.5215613 79.964284,83.5148986 C79.964284,85.4644263 81.2582803,86.7568098 82.8154623,86.7568098 Z M91.5569869,89.3634817 L94.8906722,89.3634817 L94.8906722,82.8139448 C94.8906722,81.2367988 95.6582972,80.426321 96.9084292,80.426321 C98.1585612,80.426321 98.8603897,81.2367988 98.8603897,82.8139448 L98.8603897,89.3634817 L102.194075,89.3634817 L102.194075,82.8139448 C102.194075,81.2367988 102.9617,80.426321 104.211832,80.426321 C105.461964,80.426321 106.163792,81.2367988 106.163792,82.8139448 L106.163792,89.3634817 L109.497478,89.3634817 L109.497478,81.7187045 C109.497478,78.8929846 108.006092,77.4034578 105.52776,77.4034578 C103.926714,77.4034578 102.698514,78.060602 101.667704,79.2653663 C101.053604,78.0825068 99.8912003,77.4034578 98.3559505,77.4034578 C96.6671756,77.4034578 95.6582972,78.3015548 94.8906722,79.2872711 L94.8906722,77.6225059 L91.5569869,77.6225059 L91.5569869,89.3634817 Z M118.041613,89.6263394 C114.510539,89.6263394 111.900614,87.1510963 111.900614,83.5148986 C111.900614,80.1634633 114.291217,77.4034578 117.712631,77.4034578 C121.638484,77.4034578 123.43692,80.4482258 123.43692,83.7777563 C123.43692,84.0406139 123.414988,84.3472812 123.393055,84.6539485 L115.212367,84.6539485 C115.541349,86.1653801 116.594092,86.9539531 118.085477,86.9539531 C119.204017,86.9539531 120.015506,86.6034762 120.936656,85.7491888 L122.844752,87.4358588 C121.748145,88.7939568 120.169031,89.6263394 118.041613,89.6263394 Z M115.168503,82.572992 L120.190963,82.572992 C119.993574,81.0834652 119.116288,80.0758441 117.712631,80.0758441 C116.330906,80.0758441 115.431688,81.0615604 115.168503,82.572992 Z M125.993581,89.3634817 L129.327266,89.3634817 L129.327266,82.8139448 C129.327266,81.2367988 130.138755,80.426321 131.410819,80.426321 C132.682884,80.426321 133.428576,81.2367988 133.428576,82.8139448 L133.428576,89.3634817 L136.762262,89.3634817 L136.762262,81.7625141 C136.762262,79.068223 135.292808,77.4034578 132.770612,77.4034578 C131.081837,77.4034578 130.094891,78.3015548 129.327266,79.2872711 L129.327266,77.6225059 L125.993581,77.6225059 L125.993581,89.3634817 Z M143.705351,89.560625 C144.82389,89.560625 145.635379,89.2977673 146.337208,88.881576 L146.337208,86.2091897 C145.854701,86.4720474 145.306397,86.625381 144.692297,86.625381 C143.946604,86.625381 143.617622,86.2529993 143.617622,85.4863311 L143.617622,80.4701306 L146.381072,80.4701306 L146.381072,77.6225059 L143.617622,77.6225059 L143.617622,74.6215475 L140.283937,74.6215475 L140.283937,77.6225059 L138.88028,77.6225059 L138.88028,80.4701306 L140.283937,80.4701306 L140.283937,86.0339513 C140.283937,88.7501472 141.665662,89.560625 143.705351,89.560625 Z" id="of-iOS-and-Android-d" fill="#FFFFFF"></path>
                <path d="M319.873553,65.4051005 L323.207238,65.4051005 L323.207238,55.657462 L330.642234,65.4051005 L333.515345,65.4051005 L333.515345,50.0717365 L330.181659,50.0717365 L330.181659,59.5127078 L322.987917,50.0717365 L319.873553,50.0717365 L319.873553,65.4051005 Z M342.498123,65.6679582 C338.967048,65.6679582 336.357123,63.1927151 336.357123,59.5565174 C336.357123,56.2050821 338.747727,53.4450766 342.169141,53.4450766 C346.094994,53.4450766 347.893429,56.4898446 347.893429,59.8193751 C347.893429,60.0822327 347.871497,60.3889 347.849565,60.6955673 L339.668877,60.6955673 C339.997859,62.2069989 341.050601,62.9955719 342.541987,62.9955719 C343.660526,62.9955719 344.472015,62.645095 345.393165,61.7908076 L347.301261,63.4774776 C346.204654,64.8355756 344.62554,65.6679582 342.498123,65.6679582 Z M339.625012,58.6146107 L344.647472,58.6146107 C344.450083,57.125084 343.572798,56.1174629 342.169141,56.1174629 C340.787416,56.1174629 339.888198,57.1031792 339.625012,58.6146107 Z M352.555576,65.4927197 L355.538347,65.4927197 L357.841222,58.2860387 L360.100232,65.4927197 L363.104935,65.4927197 L366.767603,53.6641247 L363.45585,53.6641247 L361.525821,60.8050913 L359.288743,53.620315 L356.415632,53.620315 L354.200486,60.7831865 L352.314322,53.6641247 L348.936773,53.6641247 L352.555576,65.4927197 Z M380.193206,65.4051005 L380.193206,59.3593741 L374.29346,50.0717365 L378.241245,50.0717365 L381.903913,56.2269869 L385.632377,50.0717365 L389.470501,50.0717365 L383.570756,59.2936597 L383.570756,65.4051005 L380.193206,65.4051005 Z M394.659019,65.6679582 C391.018284,65.6679582 388.320631,62.9736671 388.320631,59.5565174 C388.320631,56.1831773 391.040216,53.4450766 394.702884,53.4450766 C398.343619,53.4450766 401.041272,56.1393677 401.041272,59.5565174 C401.041272,62.9298575 398.321687,65.6679582 394.659019,65.6679582 Z M394.702884,62.7984286 C396.61098,62.7984286 397.751451,61.3308066 397.751451,59.5565174 C397.751451,57.8260377 396.501319,56.3146061 394.659019,56.3146061 C392.750923,56.3146061 391.610452,57.7822281 391.610452,59.5565174 C391.610452,61.286997 392.860584,62.7984286 394.702884,62.7984286 Z M403.532137,65.4051005 L406.865822,65.4051005 L406.865822,61.067949 C406.865822,58.2641339 408.225615,56.9279407 410.440761,56.9279407 L410.616218,56.9279407 L410.616218,53.4450766 C408.642325,53.3574574 407.545718,54.4088881 406.865822,56.0298437 L406.865822,53.6641247 L403.532137,53.6641247 L403.532137,65.4051005 Z M412.778101,65.4051005 L416.111786,65.4051005 L416.111786,61.8346172 L417.274189,60.6079481 L420.344689,65.4051005 L424.160881,65.4051005 L419.5332,58.2860387 L424.007356,53.6641247 L420.015707,53.6641247 L416.111786,57.9355618 L416.111786,49.4145924 L412.778101,49.4145924 L412.778101,65.4051005 Z M425.204225,68.953679 C427.814149,68.9098694 429.261671,67.7489147 429.261671,64.8574804 L429.261671,61.9003316 L425.708664,61.9003316 L425.708664,65.4051005 L427.068457,65.4051005 L427.068457,65.6460534 C427.068457,66.7631985 426.344696,67.4203426 424.919107,67.5736763 L425.204225,68.953679 Z M439.200064,65.4051005 L442.511817,65.4051005 L442.511817,55.4603187 L446.788584,61.9441412 L446.876313,61.9441412 L451.196944,55.3946043 L451.196944,65.4051005 L454.552562,65.4051005 L454.552562,50.0717365 L450.911827,50.0717365 L446.876313,56.555559 L442.840799,50.0717365 L439.200064,50.0717365 L439.200064,65.4051005 Z M463.732729,65.6679582 C460.091994,65.6679582 457.394341,62.9736671 457.394341,59.5565174 C457.394341,56.1831773 460.113926,53.4450766 463.776594,53.4450766 C467.417329,53.4450766 470.114982,56.1393677 470.114982,59.5565174 C470.114982,62.9298575 467.395397,65.6679582 463.732729,65.6679582 Z M463.776594,62.7984286 C465.68469,62.7984286 466.825161,61.3308066 466.825161,59.5565174 C466.825161,57.8260377 465.575029,56.3146061 463.732729,56.3146061 C461.824633,56.3146061 460.684162,57.7822281 460.684162,59.5565174 C460.684162,61.286997 461.934294,62.7984286 463.776594,62.7984286 Z M476.729089,65.6241486 C479.273218,65.6241486 481.225178,64.4412891 481.225178,61.8346172 C481.225178,59.6441366 479.317082,58.8555636 477.672171,58.3079435 C476.400107,57.8698473 475.281568,57.5631801 475.281568,56.9060359 C475.281568,56.4022254 475.698279,56.0517485 476.509768,56.0517485 C477.365121,56.0517485 478.527525,56.4679398 479.689928,57.1469888 L480.961992,54.8469842 C479.689928,53.9926967 478.06695,53.4888862 476.575564,53.4888862 C474.206893,53.4888862 472.276865,54.8250794 472.276865,57.2127032 C472.276865,59.5346126 474.141097,60.3012808 475.786007,60.7831865 C477.080003,61.177473 478.220475,61.4184259 478.220475,62.1412845 C478.220475,62.7108094 477.781832,63.0612863 476.816818,63.0612863 C475.720211,63.0612863 474.38235,62.5793806 473.110286,61.6593787 L471.684697,63.8498593 C473.241879,65.0765284 475.084179,65.6241486 476.729089,65.6241486 Z M489.242942,65.6679582 C491.589681,65.6679582 492.905609,64.7698611 494.046081,63.5212872 L492.09412,61.5498547 C491.282631,62.3165229 490.515006,62.7984286 489.396467,62.7984286 C487.576099,62.7984286 486.413696,61.3527115 486.413696,59.5565174 C486.413696,57.7822281 487.598031,56.3146061 489.264874,56.3146061 C490.580803,56.3146061 491.282631,56.7965119 492.006392,57.4755608 L493.958352,55.5041283 C492.861745,54.2774592 491.501952,53.4450766 489.286806,53.4450766 C485.689935,53.4450766 483.123875,56.2050821 483.123875,59.5565174 C483.123875,62.9517623 485.711867,65.6679582 489.242942,65.6679582 Z M501.734863,65.6679582 C498.094127,65.6679582 495.396474,62.9736671 495.396474,59.5565174 C495.396474,56.1831773 498.116059,53.4450766 501.778727,53.4450766 C505.419462,53.4450766 508.117116,56.1393677 508.117116,59.5565174 C508.117116,62.9298575 505.39753,65.6679582 501.734863,65.6679582 Z M501.778727,62.7984286 C503.686823,62.7984286 504.827294,61.3308066 504.827294,59.5565174 C504.827294,57.8260377 503.577162,56.3146061 501.734863,56.3146061 C499.826766,56.3146061 498.686295,57.7822281 498.686295,59.5565174 C498.686295,61.286997 499.936427,62.7984286 501.778727,62.7984286 Z M512.713466,65.4927197 L509.094662,53.6641247 L512.472212,53.6641247 L514.358376,60.7831865 L516.573522,53.620315 L519.446633,53.620315 L521.683711,60.8050913 L523.613739,53.6641247 L526.925493,53.6641247 L523.262825,65.4927197 L520.258122,65.4927197 L517.999111,58.2860387 L515.696237,65.4927197 L512.713466,65.4927197 Z M526.850297,68.953679 L526.565179,67.5736763 C527.990768,67.4203426 528.714529,66.7631985 528.714529,65.6460534 L528.714529,65.4051005 L527.354736,65.4051005 L527.354736,61.9003316 L530.907743,61.9003316 L530.907743,64.8574804 C530.907743,67.7489147 529.460221,68.9098694 526.850297,68.953679 Z M319.873553,89.3634817 L323.185306,89.3634817 L323.185306,79.4186999 L327.462074,85.9025224 L327.549802,85.9025224 L331.870434,79.3529855 L331.870434,89.3634817 L335.226052,89.3634817 L335.226052,74.0301177 L331.585316,74.0301177 L327.549802,80.5139402 L323.514288,74.0301177 L319.873553,74.0301177 L319.873553,89.3634817 Z M338.703862,76.3301223 L342.213005,76.3301223 L342.213005,73.3729736 L338.703862,73.3729736 L338.703862,76.3301223 Z M338.791591,89.3634817 L342.125276,89.3634817 L342.125276,77.6225059 L338.791591,77.6225059 L338.791591,89.3634817 Z M348.673587,89.5825298 C346.458441,89.5825298 344.638073,88.312051 344.638073,85.946332 C344.638073,83.3834698 346.590033,82.2006103 349.375415,82.2006103 C350.559751,82.2006103 351.415104,82.3977535 352.248526,82.682516 L352.248526,82.4853727 C352.248526,81.10537 351.393172,80.3387018 349.72633,80.3387018 C348.454265,80.3387018 347.555048,80.5796546 346.480373,80.9739411 L345.646951,78.4329837 C346.940948,77.8634587 348.213012,77.491077 350.208837,77.491077 C352.029204,77.491077 353.345133,77.9729828 354.178554,78.8053654 C355.05584,79.6815576 355.450618,80.9739411 355.450618,82.5510871 L355.450618,89.3634817 L352.226594,89.3634817 L352.226594,88.093003 C351.415104,88.9911 350.296565,89.5825298 348.673587,89.5825298 Z M349.682465,87.2825252 C351.239647,87.2825252 352.29239,86.4282378 352.29239,85.2234734 L352.29239,84.6320437 C351.722154,84.369186 350.976462,84.1939476 350.164972,84.1939476 C348.739383,84.1939476 347.862098,84.7634725 347.862098,85.8587128 C347.862098,86.7568098 348.60779,87.2825252 349.682465,87.2825252 Z M358.402058,89.3634817 L361.735743,89.3634817 L361.735743,82.8139448 C361.735743,81.2367988 362.503368,80.426321 363.7535,80.426321 C365.003632,80.426321 365.705461,81.2367988 365.705461,82.8139448 L365.705461,89.3634817 L369.039146,89.3634817 L369.039146,82.8139448 C369.039146,81.2367988 369.806771,80.426321 371.056903,80.426321 C372.307035,80.426321 373.008863,81.2367988 373.008863,82.8139448 L373.008863,89.3634817 L376.342549,89.3634817 L376.342549,81.7187045 C376.342549,78.8929846 374.851163,77.4034578 372.372831,77.4034578 C370.771785,77.4034578 369.543585,78.060602 368.512775,79.2653663 C367.898675,78.0825068 366.736271,77.4034578 365.201021,77.4034578 C363.512247,77.4034578 362.503368,78.3015548 361.735743,79.2872711 L361.735743,77.6225059 L358.402058,77.6225059 L358.402058,89.3634817 Z M379.381717,76.3301223 L382.890859,76.3301223 L382.890859,73.3729736 L379.381717,73.3729736 L379.381717,76.3301223 Z M379.469445,89.3634817 L382.803131,89.3634817 L382.803131,77.6225059 L379.469445,77.6225059 L379.469445,89.3634817 Z M385.381724,92.9120602 C387.991649,92.8682506 389.43917,91.7072959 389.43917,88.8158616 L389.43917,85.8587128 L385.886163,85.8587128 L385.886163,89.3634817 L387.245956,89.3634817 L387.245956,89.6044346 C387.245956,90.7215797 386.522195,91.3787238 385.096606,91.5320575 L385.381724,92.9120602 Z M398.061634,89.3634817 L404.641276,73.9205937 L407.75564,73.9205937 L414.335283,89.3634817 L410.804208,89.3634817 L409.400551,85.9244272 L402.908637,85.9244272 L401.50498,89.3634817 L398.061634,89.3634817 Z M404.114905,82.9453737 L408.194283,82.9453737 L406.154594,77.9729828 L404.114905,82.9453737 Z M419.743122,89.560625 C420.861661,89.560625 421.67315,89.2977673 422.374979,88.881576 L422.374979,86.2091897 C421.892472,86.4720474 421.344168,86.625381 420.730068,86.625381 C419.984375,86.625381 419.655393,86.2529993 419.655393,85.4863311 L419.655393,80.4701306 L422.418843,80.4701306 L422.418843,77.6225059 L419.655393,77.6225059 L419.655393,74.6215475 L416.321708,74.6215475 L416.321708,77.6225059 L414.918051,77.6225059 L414.918051,80.4701306 L416.321708,80.4701306 L416.321708,86.0339513 C416.321708,88.7501472 417.703433,89.560625 419.743122,89.560625 Z M425.107097,89.3634817 L428.440782,89.3634817 L428.440782,73.3729736 L425.107097,73.3729736 L425.107097,89.3634817 Z M434.989093,89.5825298 C432.773946,89.5825298 430.953579,88.312051 430.953579,85.946332 C430.953579,83.3834698 432.905539,82.2006103 435.690921,82.2006103 C436.875257,82.2006103 437.73061,82.3977535 438.564031,82.682516 L438.564031,82.4853727 C438.564031,81.10537 437.708678,80.3387018 436.041835,80.3387018 C434.769771,80.3387018 433.870553,80.5796546 432.795879,80.9739411 L431.962457,78.4329837 C433.256453,77.8634587 434.528518,77.491077 436.524342,77.491077 C438.34471,77.491077 439.660639,77.9729828 440.49406,78.8053654 C441.371345,79.6815576 441.766124,80.9739411 441.766124,82.5510871 L441.766124,89.3634817 L438.542099,89.3634817 L438.542099,88.093003 C437.73061,88.9911 436.612071,89.5825298 434.989093,89.5825298 Z M435.997971,87.2825252 C437.555153,87.2825252 438.607896,86.4282378 438.607896,85.2234734 L438.607896,84.6320437 C438.03766,84.369186 437.291967,84.1939476 436.480478,84.1939476 C435.054889,84.1939476 434.177603,84.7634725 434.177603,85.8587128 C434.177603,86.7568098 434.923296,87.2825252 435.997971,87.2825252 Z M444.717564,89.3634817 L448.051249,89.3634817 L448.051249,82.8139448 C448.051249,81.2367988 448.862738,80.426321 450.134802,80.426321 C451.406866,80.426321 452.152559,81.2367988 452.152559,82.8139448 L452.152559,89.3634817 L455.486245,89.3634817 L455.486245,81.7625141 C455.486245,79.068223 454.016791,77.4034578 451.494595,77.4034578 C449.80582,77.4034578 448.818874,78.3015548 448.051249,79.2872711 L448.051249,77.6225059 L444.717564,77.6225059 L444.717564,89.3634817 Z M462.429334,89.560625 C463.547873,89.560625 464.359362,89.2977673 465.06119,88.881576 L465.06119,86.2091897 C464.578683,86.4720474 464.03038,86.625381 463.41628,86.625381 C462.670587,86.625381 462.341605,86.2529993 462.341605,85.4863311 L462.341605,80.4701306 L465.105055,80.4701306 L465.105055,77.6225059 L462.341605,77.6225059 L462.341605,74.6215475 L459.00792,74.6215475 L459.00792,77.6225059 L457.604263,77.6225059 L457.604263,80.4701306 L459.00792,80.4701306 L459.00792,86.0339513 C459.00792,88.7501472 460.389645,89.560625 462.429334,89.560625 Z M470.973469,89.5825298 C468.758323,89.5825298 466.937955,88.312051 466.937955,85.946332 C466.937955,83.3834698 468.889916,82.2006103 471.675297,82.2006103 C472.859633,82.2006103 473.714986,82.3977535 474.548408,82.682516 L474.548408,82.4853727 C474.548408,81.10537 473.693054,80.3387018 472.026212,80.3387018 C470.754148,80.3387018 469.85493,80.5796546 468.780255,80.9739411 L467.946834,78.4329837 C469.24083,77.8634587 470.512894,77.491077 472.508719,77.491077 C474.329086,77.491077 475.645015,77.9729828 476.478436,78.8053654 C477.355722,79.6815576 477.7505,80.9739411 477.7505,82.5510871 L477.7505,89.3634817 L474.526476,89.3634817 L474.526476,88.093003 C473.714986,88.9911 472.596447,89.5825298 470.973469,89.5825298 Z M471.982347,87.2825252 C473.539529,87.2825252 474.592272,86.4282378 474.592272,85.2234734 L474.592272,84.6320437 C474.022036,84.369186 473.276344,84.1939476 472.464854,84.1939476 C471.039265,84.1939476 470.16198,84.7634725 470.16198,85.8587128 C470.16198,86.7568098 470.907672,87.2825252 471.982347,87.2825252 Z M480.065908,92.9120602 C482.675832,92.8682506 484.123354,91.7072959 484.123354,88.8158616 L484.123354,85.8587128 L480.570347,85.8587128 L480.570347,89.3634817 L481.93014,89.3634817 L481.93014,89.6044346 C481.93014,90.7215797 481.206379,91.3787238 479.78079,91.5320575 L480.065908,92.9120602 Z M494.061747,89.3634817 L497.439296,89.3634817 L497.439296,84.6758533 L499.2158,82.8358496 L503.975074,89.3634817 L508.03252,89.3634817 L501.496742,80.535845 L507.747402,74.0301177 L503.668024,74.0301177 L497.439296,80.7329883 L497.439296,74.0301177 L494.061747,74.0301177 L494.061747,89.3634817 Z M509.86542,76.3301223 L513.374563,76.3301223 L513.374563,73.3729736 L509.86542,73.3729736 L509.86542,76.3301223 Z M509.953149,89.3634817 L513.286834,89.3634817 L513.286834,77.6225059 L509.953149,77.6225059 L509.953149,89.3634817 Z M522.072223,89.6263394 C518.541149,89.6263394 515.931224,87.1510963 515.931224,83.5148986 C515.931224,80.1634633 518.321827,77.4034578 521.743241,77.4034578 C525.669094,77.4034578 527.46753,80.4482258 527.46753,83.7777563 C527.46753,84.0406139 527.445598,84.3472812 527.423666,84.6539485 L519.242977,84.6539485 C519.571959,86.1653801 520.624702,86.9539531 522.116088,86.9539531 C523.234627,86.9539531 524.046116,86.6034762 524.967266,85.7491888 L526.875362,87.4358588 C525.778755,88.7939568 524.199641,89.6263394 522.072223,89.6263394 Z M519.199113,82.572992 L524.221573,82.572992 C524.024184,81.0834652 523.146898,80.0758441 521.743241,80.0758441 C520.361516,80.0758441 519.462299,81.0615604 519.199113,82.572992 Z M533.050826,89.4511009 L536.077462,89.4511009 L540.705143,77.6225059 L537.239865,77.6225059 L534.586076,85.4863311 L531.954219,77.6225059 L528.423145,77.6225059 L533.050826,89.4511009 Z" id="New-York,-Moscow,-Mi" fill="#FFFFFF"></path>
            </g>
            <g id="Group-11" transform="translate(353.312618, 37.195905)">
                <path d="M347.471,75.078 C360.561,75.078 369.724,67.84 369.724,55.905 L369.724,55.751 C369.724,44.047 360.946,38.657 351.244,38.657 C347.625,38.657 345.084,39.427 342.62,40.582 L343.082,32.42 L367.337,32.42 L367.337,20.1 L331.301,20.1 L329.761,47.358 L338.616,52.363 C341.157,50.823 343.929,49.668 347.24,49.668 C351.937,49.668 355.171,51.978 355.171,55.905 L355.171,56.059 C355.171,59.909 352.245,62.373 347.317,62.373 C342.697,62.373 338.539,60.217 334.227,56.521 L325.68,66.531 C331.301,71.767 337.923,75.078 347.471,75.078 Z M400.678,75.078 C416.078,75.078 425.703,62.296 425.703,47.05 L425.703,46.896 C425.703,31.65 416.155,19.022 400.832,19.022 C385.509,19.022 375.807,31.804 375.807,47.05 L375.807,47.204 C375.807,62.45 385.355,75.078 400.678,75.078 Z M400.832,61.834 C394.826,61.834 390.822,55.674 390.822,47.05 L390.822,46.896 C390.822,38.272 394.749,32.189 400.678,32.189 C406.684,32.189 410.688,38.426 410.688,47.05 L410.688,47.204 C410.688,55.751 406.838,61.834 400.832,61.834 Z" id="50" fill="#ED4159" fill-rule="nonzero"></path>
                <polygon id="1" fill="#ED4159" fill-rule="nonzero" points="27.511 74 27.511 19.715 16.654 19.715 0.869 24.181 3.718 35.731 12.804 33.575 12.804 74"></polygon>
                <path d="M444.377169,74.8360241 L451.669606,74.8360241 L451.669606,59.5026601 L458.501468,69.9293476 L458.654993,69.9293476 L465.525236,59.4259933 L465.525236,74.8360241 L472.932816,74.8360241 L472.932816,48.0026371 L465.064661,48.0026371 L458.654993,58.3909912 L452.245324,48.0026371 L444.377169,48.0026371 L444.377169,74.8360241 Z M477.829166,74.8360241 L485.121603,74.8360241 L485.121603,59.5026601 L491.953465,69.9293476 L492.10699,69.9293476 L498.977233,59.4259933 L498.977233,74.8360241 L506.384813,74.8360241 L506.384813,48.0026371 L498.516658,48.0026371 L492.10699,58.3909912 L485.697322,48.0026371 L477.829166,48.0026371 L477.829166,74.8360241 Z" id="MM" fill="#ED4159"></path>
                <path d="M328.136824,114.049167 C329.825599,114.049167 330.812545,113.15107 331.58017,112.165354 L331.58017,113.830119 L334.913856,113.830119 L334.913856,102.089143 L331.58017,102.089143 L331.58017,108.63868 C331.58017,110.215826 330.768681,111.026304 329.496617,111.026304 C328.224553,111.026304 327.47886,110.215826 327.47886,108.63868 L327.47886,102.089143 L324.145175,102.089143 L324.145175,109.690111 C324.145175,112.384402 325.614628,114.049167 328.136824,114.049167 Z M342.098198,114.049167 C344.642326,114.049167 346.594287,112.866308 346.594287,110.259636 C346.594287,108.069155 344.686191,107.280582 343.04128,106.732962 C341.769216,106.294866 340.650677,105.988199 340.650677,105.331055 C340.650677,104.827244 341.067388,104.476767 341.878877,104.476767 C342.73423,104.476767 343.896634,104.892958 345.059037,105.572007 L346.331101,103.272003 C345.059037,102.417715 343.436059,101.913905 341.944673,101.913905 C339.576002,101.913905 337.645974,103.250098 337.645974,105.637722 C337.645974,107.959631 339.510206,108.726299 341.155116,109.208205 C342.449112,109.602492 343.589584,109.843444 343.589584,110.566303 C343.589584,111.135828 343.150941,111.486305 342.185927,111.486305 C341.08932,111.486305 339.751459,111.004399 338.479395,110.084397 L337.053806,112.274878 C338.610988,113.501547 340.453288,114.049167 342.098198,114.049167 Z M354.633983,114.092977 C351.102908,114.092977 348.492984,111.617734 348.492984,107.981536 C348.492984,104.630101 350.883587,101.870095 354.305001,101.870095 C358.230854,101.870095 360.02929,104.914863 360.02929,108.244394 C360.02929,108.507251 360.007357,108.813919 359.985425,109.120586 L351.804737,109.120586 C352.133719,110.632017 353.186462,111.42059 354.677847,111.42059 C355.796387,111.42059 356.607876,111.070114 357.529026,110.215826 L359.437122,111.902496 C358.340515,113.260594 356.761401,114.092977 354.633983,114.092977 Z M351.760873,107.039629 L356.783333,107.039629 C356.585944,105.550103 355.708658,104.542482 354.305001,104.542482 C352.923276,104.542482 352.024058,105.528198 351.760873,107.039629 Z M362.585951,113.830119 L365.919636,113.830119 L365.919636,109.492968 C365.919636,106.689152 367.279429,105.352959 369.494575,105.352959 L369.670032,105.352959 L369.670032,101.870095 C367.696139,101.782476 366.599532,102.833907 365.919636,104.454862 L365.919636,102.089143 L362.585951,102.089143 L362.585951,113.830119 Z M375.955157,114.049167 C378.499285,114.049167 380.451246,112.866308 380.451246,110.259636 C380.451246,108.069155 378.543149,107.280582 376.898239,106.732962 C375.626175,106.294866 374.507636,105.988199 374.507636,105.331055 C374.507636,104.827244 374.924346,104.476767 375.735835,104.476767 C376.591189,104.476767 377.753592,104.892958 378.915996,105.572007 L380.18806,103.272003 C378.915996,102.417715 377.293017,101.913905 375.801632,101.913905 C373.432961,101.913905 371.502932,103.250098 371.502932,105.637722 C371.502932,107.959631 373.367164,108.726299 375.012075,109.208205 C376.306071,109.602492 377.446542,109.843444 377.446542,110.566303 C377.446542,111.135828 377.0079,111.486305 376.042885,111.486305 C374.946278,111.486305 373.608418,111.004399 372.336354,110.084397 L370.910764,112.274878 C372.467946,113.501547 374.310246,114.049167 375.955157,114.049167 Z M395.346302,114.092977 C391.705567,114.092977 389.007914,111.398686 389.007914,107.981536 C389.007914,104.608196 391.727499,101.870095 395.390166,101.870095 C399.030902,101.870095 401.728555,104.564386 401.728555,107.981536 C401.728555,111.354876 399.00897,114.092977 395.346302,114.092977 Z M395.390166,111.223447 C397.298263,111.223447 398.438734,109.755825 398.438734,107.981536 C398.438734,106.251056 397.188602,104.739625 395.346302,104.739625 C393.438206,104.739625 392.297735,106.207247 392.297735,107.981536 C392.297735,109.712016 393.547867,111.223447 395.390166,111.223447 Z M404.789655,113.830119 L408.123341,113.830119 L408.123341,104.936768 L410.77713,104.936768 L410.77713,102.220572 L408.079476,102.220572 L408.079476,101.760571 C408.079476,100.884379 408.518119,100.490092 409.285744,100.490092 C409.85598,100.490092 410.316555,100.599616 410.799062,100.774855 L410.799062,98.0148494 C410.184962,97.8177062 409.483133,97.6862773 408.430391,97.6862773 C407.246055,97.6862773 406.346837,97.9929446 405.732737,98.6062792 C405.118637,99.2196137 404.789655,100.16152 404.789655,101.453904 L404.789655,102.198667 L403.40793,102.198667 L403.40793,104.936768 L404.789655,104.936768 L404.789655,113.830119 Z M425.101951,114.092977 C421.461215,114.092977 418.763562,111.398686 418.763562,107.981536 C418.763562,104.608196 421.483147,101.870095 425.145815,101.870095 C428.78655,101.870095 431.484203,104.564386 431.484203,107.981536 C431.484203,111.354876 428.764618,114.092977 425.101951,114.092977 Z M425.145815,111.223447 C427.053911,111.223447 428.194382,109.755825 428.194382,107.981536 C428.194382,106.251056 426.94425,104.739625 425.101951,104.739625 C423.193854,104.739625 422.053383,106.207247 422.053383,107.981536 C422.053383,109.712016 423.303515,111.223447 425.145815,111.223447 Z M437.878989,114.049167 C439.567764,114.049167 440.55471,113.15107 441.322335,112.165354 L441.322335,113.830119 L444.65602,113.830119 L444.65602,102.089143 L441.322335,102.089143 L441.322335,108.63868 C441.322335,110.215826 440.510846,111.026304 439.238782,111.026304 C437.966718,111.026304 437.221025,110.215826 437.221025,108.63868 L437.221025,102.089143 L433.887339,102.089143 L433.887339,109.690111 C433.887339,112.384402 435.356793,114.049167 437.878989,114.049167 Z M447.717121,113.830119 L451.050806,113.830119 L451.050806,109.492968 C451.050806,106.689152 452.410599,105.352959 454.625745,105.352959 L454.801202,105.352959 L454.801202,101.870095 C452.827309,101.782476 451.730702,102.833907 451.050806,104.454862 L451.050806,102.089143 L447.717121,102.089143 L447.717121,113.830119 Z M466.954741,114.049167 C464.739595,114.049167 462.919227,112.778688 462.919227,110.412969 C462.919227,107.850107 464.871188,106.667248 467.65657,106.667248 C468.840905,106.667248 469.696259,106.864391 470.52968,107.149153 L470.52968,106.95201 C470.52968,105.572007 469.674326,104.805339 468.007484,104.805339 C466.73542,104.805339 465.836202,105.046292 464.761527,105.440579 L463.928106,102.899621 C465.222102,102.330096 466.494166,101.957714 468.489991,101.957714 C470.310359,101.957714 471.626287,102.43962 472.459708,103.272003 C473.336994,104.148195 473.731772,105.440579 473.731772,107.017725 L473.731772,113.830119 L470.507748,113.830119 L470.507748,112.55964 C469.696259,113.457737 468.577719,114.049167 466.954741,114.049167 Z M467.963619,111.749163 C469.520801,111.749163 470.573544,110.894875 470.573544,109.690111 L470.573544,109.098681 C470.003309,108.835823 469.257616,108.660585 468.446127,108.660585 C467.020537,108.660585 466.143252,109.23011 466.143252,110.32535 C466.143252,111.223447 466.888945,111.749163 467.963619,111.749163 Z M476.683212,117.334888 L476.683212,102.089143 L480.016897,102.089143 L480.016897,103.775813 C480.828386,102.680573 481.946926,101.870095 483.679565,101.870095 C486.421082,101.870095 489.031007,104.016766 489.031007,107.981536 C489.031007,111.902496 486.464947,114.049167 483.679565,114.049167 C481.903061,114.049167 480.806454,113.238689 480.016897,112.296783 L480.016897,117.334888 L476.683212,117.334888 Z M482.824211,111.223447 C484.381393,111.223447 485.697322,109.952969 485.697322,107.937726 C485.697322,105.988199 484.381393,104.695815 482.824211,104.695815 C481.267029,104.695815 479.973033,105.988199 479.973033,107.981536 C479.973033,109.931064 481.267029,111.223447 482.824211,111.223447 Z M491.565736,117.334888 L491.565736,102.089143 L494.899421,102.089143 L494.899421,103.775813 C495.71091,102.680573 496.82945,101.870095 498.562089,101.870095 C501.303606,101.870095 503.913531,104.016766 503.913531,107.981536 C503.913531,111.902496 501.347471,114.049167 498.562089,114.049167 C496.785585,114.049167 495.688978,113.238689 494.899421,112.296783 L494.899421,117.334888 L491.565736,117.334888 Z M497.706735,111.223447 C499.263917,111.223447 500.579846,109.952969 500.579846,107.937726 C500.579846,105.988199 499.263917,104.695815 497.706735,104.695815 C496.149553,104.695815 494.855557,105.988199 494.855557,107.981536 C494.855557,109.931064 496.149553,111.223447 497.706735,111.223447 Z M510.571502,114.049167 C513.115631,114.049167 515.067591,112.866308 515.067591,110.259636 C515.067591,108.069155 513.159495,107.280582 511.514584,106.732962 C510.24252,106.294866 509.123981,105.988199 509.123981,105.331055 C509.123981,104.827244 509.540692,104.476767 510.352181,104.476767 C511.207534,104.476767 512.369938,104.892958 513.532341,105.572007 L514.804405,103.272003 C513.532341,102.417715 511.909363,101.913905 510.417977,101.913905 C508.049306,101.913905 506.119278,103.250098 506.119278,105.637722 C506.119278,107.959631 507.98351,108.726299 509.62842,109.208205 C510.922416,109.602492 512.062888,109.843444 512.062888,110.566303 C512.062888,111.135828 511.624245,111.486305 510.659231,111.486305 C509.562624,111.486305 508.224763,111.004399 506.952699,110.084397 L505.52711,112.274878 C507.084292,113.501547 508.926592,114.049167 510.571502,114.049167 Z" id="users-of-our-apps" fill="#FFFFFF"></path>
            </g>
            <g id="Group" transform="translate(311.310649, 0.000000)">
                <g id="Group-11" transform="translate(45.453551, 134.195905)" fill="#FFFFFF">
                    <path d="M0.232903125,16.8301191 L3.56658849,16.8301191 L3.56658849,10.2805822 C3.56658849,8.70343621 4.33421341,7.8929584 5.58434542,7.8929584 C6.83447743,7.8929584 7.53630593,8.70343621 7.53630593,10.2805822 L7.53630593,16.8301191 L10.8699913,16.8301191 L10.8699913,10.2805822 C10.8699913,8.70343621 11.6376162,7.8929584 12.8877482,7.8929584 C14.1378802,7.8929584 14.8397087,8.70343621 14.8397087,10.2805822 L14.8397087,16.8301191 L18.1733941,16.8301191 L18.1733941,9.18534194 C18.1733941,6.35962201 16.6820085,4.87009522 14.2036767,4.87009522 C12.6026304,4.87009522 11.3744305,5.52723939 10.3436199,6.7320037 C9.72951998,5.5491442 8.56711653,4.87009522 7.03186669,4.87009522 C5.34309187,4.87009522 4.33421341,5.76819225 3.56658849,6.75390851 L3.56658849,5.08914328 L0.232903125,5.08914328 L0.232903125,16.8301191 Z M26.9149187,17.0929768 C23.2741834,17.0929768 20.5765301,14.3986857 20.5765301,10.981536 C20.5765301,7.60819593 23.2961155,4.87009522 26.958783,4.87009522 C30.5995183,4.87009522 33.2971716,7.56438632 33.2971716,10.981536 C33.2971716,14.3548761 30.5775862,17.0929768 26.9149187,17.0929768 Z M26.958783,14.2234472 C28.8668792,14.2234472 30.0073505,12.7558253 30.0073505,10.981536 C30.0073505,9.25105636 28.7572185,7.73962476 26.9149187,7.73962476 C25.0068225,7.73962476 23.8663512,9.20724674 23.8663512,10.981536 C23.8663512,12.7120157 25.1164832,14.2234472 26.958783,14.2234472 Z M42.784389,17.0491672 C41.0078856,17.0491672 39.9112785,16.2386894 39.1217215,15.2967827 L39.1217215,16.8301191 L35.7880361,16.8301191 L35.7880361,0.839610975 L39.1217215,0.839610975 L39.1217215,6.77581331 C39.9332107,5.68057303 41.0517499,4.87009522 42.784389,4.87009522 C45.5259065,4.87009522 48.1358313,7.01676618 48.1358313,10.981536 C48.1358313,14.9024962 45.5697708,17.0491672 42.784389,17.0491672 Z M41.9290355,14.2234472 C43.4862175,14.2234472 44.8021459,12.9529685 44.8021459,10.9377264 C44.8021459,8.98819869 43.4862175,7.69581515 41.9290355,7.69581515 C40.3718535,7.69581515 39.0778572,8.98819869 39.0778572,10.981536 C39.0778572,12.9310637 40.3718535,14.2234472 41.9290355,14.2234472 Z M50.7363565,3.79675974 L54.245499,3.79675974 L54.245499,0.839610975 L50.7363565,0.839610975 L50.7363565,3.79675974 Z M50.8240851,16.8301191 L54.1577704,16.8301191 L54.1577704,5.08914328 L50.8240851,5.08914328 L50.8240851,16.8301191 Z M57.5259206,16.8301191 L60.8596059,16.8301191 L60.8596059,0.839610975 L57.5259206,0.839610975 L57.5259206,16.8301191 Z M69.6449948,17.0929768 C66.1139202,17.0929768 63.5039955,14.6177337 63.5039955,10.981536 C63.5039955,7.63010074 65.8945988,4.87009522 69.3160127,4.87009522 C73.2418659,4.87009522 75.0403014,7.91486321 75.0403014,11.2443937 C75.0403014,11.5072513 75.0183693,11.8139186 74.9964371,12.1205859 L66.8157487,12.1205859 C67.1447308,13.6320175 68.1974735,14.4205905 69.6888591,14.4205905 C70.8073983,14.4205905 71.6188875,14.0701136 72.5400374,13.2158262 L74.4481336,14.9024962 C73.3515266,16.2605942 71.7724125,17.0929768 69.6449948,17.0929768 Z M66.7718844,10.0396294 L71.7943446,10.0396294 C71.5969553,8.55010257 70.7196697,7.54248151 69.3160127,7.54248151 C67.9342879,7.54248151 67.0350701,8.52819777 66.7718844,10.0396294 Z M87.588619,17.0491672 C85.3734728,17.0491672 83.5531051,15.7786884 83.5531051,13.4129694 C83.5531051,10.8501072 85.5050656,9.66724766 88.2904475,9.66724766 C89.4747831,9.66724766 90.3301365,9.86439091 91.1635579,10.1491534 L91.1635579,9.95201014 C91.1635579,8.57200738 90.3082044,7.80533918 88.6413617,7.80533918 C87.3692976,7.80533918 86.4700798,8.04629204 85.3954049,8.44057855 L84.5619836,5.89962109 C85.8559799,5.33009614 87.128044,4.95771444 89.1238688,4.95771444 C90.9442365,4.95771444 92.2601649,5.43962017 93.0935862,6.27200278 C93.9708719,7.14819501 94.3656504,8.44057855 94.3656504,10.0177246 L94.3656504,16.8301191 L91.1416257,16.8301191 L91.1416257,15.5596404 C90.3301365,16.4577374 89.2115974,17.0491672 87.588619,17.0491672 Z M88.5974974,14.7491626 C90.1546794,14.7491626 91.2074222,13.8948752 91.2074222,12.6901108 L91.2074222,12.0986811 C90.6371865,11.8358234 89.8914937,11.660585 89.0800045,11.660585 C87.6544154,11.660585 86.7771298,12.2301099 86.7771298,13.3253502 C86.7771298,14.2234472 87.5228225,14.7491626 88.5974974,14.7491626 Z M97.3170899,20.334888 L97.3170899,5.08914328 L100.650775,5.08914328 L100.650775,6.77581331 C101.462264,5.68057303 102.580804,4.87009522 104.313443,4.87009522 C107.05496,4.87009522 109.664885,7.01676618 109.664885,10.981536 C109.664885,14.9024962 107.098825,17.0491672 104.313443,17.0491672 C102.536939,17.0491672 101.440332,16.2386894 100.650775,15.2967827 L100.650775,20.334888 L97.3170899,20.334888 Z M103.458089,14.2234472 C105.015271,14.2234472 106.3312,12.9529685 106.3312,10.9377264 C106.3312,8.98819869 105.015271,7.69581515 103.458089,7.69581515 C101.900907,7.69581515 100.606911,8.98819869 100.606911,10.981536 C100.606911,12.9310637 101.900907,14.2234472 103.458089,14.2234472 Z M112.199614,20.334888 L112.199614,5.08914328 L115.533299,5.08914328 L115.533299,6.77581331 C116.344788,5.68057303 117.463328,4.87009522 119.195967,4.87009522 C121.937484,4.87009522 124.547409,7.01676618 124.547409,10.981536 C124.547409,14.9024962 121.981349,17.0491672 119.195967,17.0491672 C117.419463,17.0491672 116.322856,16.2386894 115.533299,15.2967827 L115.533299,20.334888 L112.199614,20.334888 Z M118.340613,14.2234472 C119.897795,14.2234472 121.213724,12.9529685 121.213724,10.9377264 C121.213724,8.98819869 119.897795,7.69581515 118.340613,7.69581515 C116.783431,7.69581515 115.489435,8.98819869 115.489435,10.981536 C115.489435,12.9310637 116.783431,14.2234472 118.340613,14.2234472 Z M131.20538,17.0491672 C133.749509,17.0491672 135.701469,15.8663077 135.701469,13.2596358 C135.701469,11.0691552 133.793373,10.2805822 132.148462,9.73296208 C130.876398,9.29486597 129.757859,8.98819869 129.757859,8.33105452 C129.757859,7.82724399 130.17457,7.4767671 130.986059,7.4767671 C131.841412,7.4767671 133.003816,7.8929584 134.166219,8.57200738 L135.438283,6.27200278 C134.166219,5.41771536 132.543241,4.91390483 131.051855,4.91390483 C128.683184,4.91390483 126.753156,6.25009798 126.753156,8.6377218 C126.753156,10.9596312 128.617388,11.7262994 130.262298,12.2082051 C131.556294,12.6024916 132.696766,12.8434445 132.696766,13.5663031 C132.696766,14.135828 132.258123,14.4863049 131.293109,14.4863049 C130.196502,14.4863049 128.858641,14.0043992 127.586577,13.0843973 L126.160988,15.2748779 C127.71817,16.501547 129.56047,17.0491672 131.20538,17.0491672 Z" id="mobile-apps"></path>
                </g>
                <path d="M238.157436,0.433890796 L238.157436,214.005746 L0.330787178,214.005746 L0.330787178,0.433890796 L238.157436,0.433890796 Z M224.449848,14.1243943 L14.038375,14.1243943 L14.038375,200.315243 L224.449848,200.315243 L224.449848,14.1243943 Z" id="Shape" fill="#ED4159" fill-rule="nonzero"></path>
            </g>
            <path d="M685.844054,294.164912 C692.368866,294.164912 696.705947,290.906572 696.705947,285.424895 C696.705947,280.326551 692.867822,278.333214 686.688442,276.991544 C682.965461,276.148209 682.044311,275.611542 682.044311,274.384873 C682.044311,273.34987 682.92708,272.583202 684.730998,272.583202 C687.110635,272.583202 689.797323,273.503204 692.253722,275.228208 L695.976703,269.97653 C693.059728,267.638192 689.490273,266.411523 684.922904,266.411523 C678.474855,266.411523 674.521587,270.014864 674.521587,274.998207 C674.521587,280.594885 678.93543,282.204888 684.654236,283.508224 C688.300454,284.351559 689.183223,284.964894 689.183223,286.076563 C689.183223,287.303232 688.108548,287.993233 686.112723,287.993233 C683.003842,287.993233 680.048486,286.881564 677.40018,284.773227 L673.255006,289.718237 C676.555793,292.669909 681.08478,294.164912 685.844054,294.164912 Z M697.725791,293.704911 L709.163403,266.679857 L716.340696,266.679857 L727.778307,293.704911 L719.795008,293.704911 L717.837564,288.913235 L707.474628,288.913235 L705.555566,293.704911 L697.725791,293.704911 Z M709.662359,283.12489 L715.688214,283.12489 L712.694477,275.496541 L709.662359,283.12489 Z M730.525308,293.704911 L750.982512,293.704911 L750.982512,287.188231 L737.971269,287.188231 L737.971269,266.871524 L730.525308,266.871524 L730.525308,293.704911 Z M754.305231,293.704911 L776.105779,293.704911 L776.105779,287.379899 L761.67443,287.379899 L761.67443,283.12489 L774.570529,283.12489 L774.570529,277.259878 L761.67443,277.259878 L761.67443,273.196537 L775.913872,273.196537 L775.913872,266.871524 L754.305231,266.871524 L754.305231,293.704911 Z M790.59744,294.164912 C797.122252,294.164912 801.459333,290.906572 801.459333,285.424895 C801.459333,280.326551 797.621208,278.333214 791.441828,276.991544 C787.718847,276.148209 786.797697,275.611542 786.797697,274.384873 C786.797697,273.34987 787.680466,272.583202 789.484384,272.583202 C791.864022,272.583202 794.550709,273.503204 797.007109,275.228208 L800.730089,269.97653 C797.813115,267.638192 794.243659,266.411523 789.676291,266.411523 C783.228241,266.411523 779.274973,270.014864 779.274973,274.998207 C779.274973,280.594885 783.688816,282.204888 789.407622,283.508224 C793.05384,284.351559 793.936609,284.964894 793.936609,286.076563 C793.936609,287.303232 792.861934,287.993233 790.866109,287.993233 C787.757228,287.993233 784.801872,286.881564 782.153566,284.773227 L778.008392,289.718237 C781.309179,292.669909 785.838166,294.164912 790.59744,294.164912 Z M688.79941,329.405513 C680.509061,329.405513 674.368062,323.233834 674.368062,315.452152 C674.368062,307.747137 680.585824,301.498791 688.876173,301.498791 C697.166522,301.498791 703.307521,307.67047 703.307521,315.452152 C703.307521,323.157168 697.089759,329.405513 688.79941,329.405513 Z M688.876173,322.697167 C692.982966,322.697167 695.708034,319.400493 695.708034,315.452152 C695.708034,311.580478 692.906203,308.207138 688.79941,308.207138 C684.730998,308.207138 682.00593,311.503811 682.00593,315.452152 C682.00593,319.323827 684.807761,322.697167 688.876173,322.697167 Z M707.321103,328.868846 L714.767065,328.868846 L714.767065,319.285493 L727.471257,319.285493 L727.471257,313.113814 L714.767065,313.113814 L714.767065,308.552138 L728.814601,308.552138 L728.814601,302.035459 L707.321103,302.035459 L707.321103,328.868846 Z M732.329226,328.868846 L739.775188,328.868846 L739.775188,319.285493 L752.47938,319.285493 L752.47938,313.113814 L739.775188,313.113814 L739.775188,308.552138 L753.822724,308.552138 L753.822724,302.035459 L732.329226,302.035459 L732.329226,328.868846 Z M757.490874,328.868846 L764.975217,328.868846 L764.975217,302.035459 L757.490874,302.035459 L757.490874,328.868846 Z M782.959573,329.405513 C788.908666,329.405513 792.324597,326.837175 794.857759,323.348835 L789.254097,319.36216 C787.642085,321.317164 785.991691,322.6205 783.18986,322.6205 C779.428498,322.6205 776.780192,319.47716 776.780192,315.452152 C776.780192,311.465477 779.428498,308.283804 783.18986,308.283804 C785.761403,308.283804 787.565322,309.47214 789.100572,311.388811 L794.550709,307.172136 C792.171072,303.875462 788.755141,301.498791 783.266622,301.498791 C775.129798,301.498791 769.103943,307.632136 769.103943,315.452152 C769.103943,323.540502 775.283323,329.405513 782.959573,329.405513 Z M798.180478,328.868846 L819.981026,328.868846 L819.981026,322.543833 L805.549677,322.543833 L805.549677,318.288824 L818.445776,318.288824 L818.445776,312.423813 L805.549677,312.423813 L805.549677,308.360471 L819.78912,308.360471 L819.78912,302.035459 L798.180478,302.035459 L798.180478,328.868846 Z M834.472688,329.328847 C840.997499,329.328847 845.33458,326.070507 845.33458,320.588829 C845.33458,315.490486 841.496456,313.497148 835.317075,312.155479 C831.594094,311.312144 830.672944,310.775476 830.672944,309.548807 C830.672944,308.513805 831.555713,307.747137 833.359631,307.747137 C835.739269,307.747137 838.425956,308.667139 840.882356,310.392142 L844.605337,305.140465 C841.688362,302.802127 838.118906,301.575458 833.551538,301.575458 C827.103488,301.575458 823.15022,305.178798 823.15022,310.162142 C823.15022,315.758819 827.564063,317.368823 833.282869,318.672159 C836.929087,319.515494 837.811856,320.128828 837.811856,321.240497 C837.811856,322.467166 836.737181,323.157168 834.741356,323.157168 C831.632475,323.157168 828.677119,322.045499 826.028813,319.937161 L821.883639,324.882171 C825.184426,327.833844 829.713413,329.328847 834.472688,329.328847 Z" id="SALES-OFFICES" fill="#ED4159"></path>
        </g>
    </g>
</svg>