<?xml version="1.0" encoding="UTF-8"?>
<svg width="230px" height="160px" viewBox="0 0 230 160" version="1.1" xmlns="http://www.w3.org/2000/svg" xmlns:xlink="http://www.w3.org/1999/xlink">
    <!-- Generator: Sketch 63.1 (92452) - https://sketch.com -->
    <title>logo_clients-affinity</title>
    <desc>Created with Sketch.</desc>
    <g id="03-what-we-do-(SRC)" stroke="none" stroke-width="1" fill="none" fill-rule="evenodd" opacity="0.301">
        <g id="Group-2" fill="#D4E1ED">
            <path d="M91.512605,116.178173 C93.2422969,116.178173 94.4712885,116.269658 95.1995798,116.452626 C96.6723636,116.822633 97.7941176,117.920422 97.7941176,119.197154 C97.7941176,121.530003 96.0189076,122.490587 95.1995798,122.902266 C96.0189076,123.313946 96.4195692,123.403795 97.2478992,124.137304 C98.0762291,124.870813 98.3403361,126.170458 98.3403361,126.744605 C98.3403361,127.554414 97.9694975,128.943349 96.9747899,129.763586 C96.5341055,130.126975 95.6421327,130.639502 94.3802521,130.861397 C93.8024118,130.963007 92.7554931,131.00875 91.2394958,130.998623 L86.8697479,130.998623 L86.8697479,129.900812 L89.0536387,129.900173 L89.0536387,117.275173 L86.5966387,117.275984 L86.5966387,116.178173 L91.512605,116.178173 Z M108.718487,120.569418 C110.493697,120.569418 111.995798,121.392776 111.995798,123.451172 L111.995798,127.567964 C111.995798,128.116869 112.177871,128.574291 112.542017,128.940228 C112.906162,129.306165 113.452381,129.489133 114.180672,129.489133 C113.998599,130.403976 113.452381,130.861397 112.542017,130.861397 C111.040098,130.861397 110.21662,129.481158 110.084034,129.21468 C110.039387,129.124949 110.000215,129.024215 109.966517,128.912481 L109.942017,128.826879 L109.927869,128.870572 C109.529451,130.016362 108.113655,131.007831 106.809367,130.998687 C105.652315,130.990455 104.56096,130.271446 104.624493,128.803001 C104.715505,126.699435 106.444281,125.464497 109.810822,125.098187 L109.810924,122.627814 L109.810924,122.627814 C109.810924,121.941682 109.199548,121.530003 108.445378,121.530003 C107.691208,121.530003 107.253507,122.015926 107.079832,122.627814 C106.906157,123.239702 106.922162,123.213321 106.806723,123.451172 C106.476116,124.13235 105.714286,124.68621 105.031513,124.27453 C104.348739,123.862851 104.621849,122.76504 105.304751,122.020582 C105.978866,121.144678 106.934738,120.569418 108.718487,120.569418 Z M123.466387,120.569418 L123.464356,121.989597 C124.019148,121.162473 125.140301,120.569418 126.334034,120.569418 C128.144042,120.569418 129.747899,121.906712 129.747899,123.725625 L129.747899,129.900812 L131.113445,129.900812 L131.113445,130.724171 L125.92437,130.724171 L125.92437,129.900812 L127.289916,129.900812 L127.289916,124.411757 C127.289916,123.588398 126.880252,122.490587 125.241597,122.490587 C124.041609,122.490587 123.506095,123.222843 123.466387,123.725625 L123.466726,123.898686 C123.467171,123.982137 123.467688,124.065507 123.467495,124.071257 L123.466387,129.900812 L124.831933,129.900812 L124.831933,130.724171 L119.369748,130.724171 L119.369748,129.900812 L121.007748,129.900418 L121.007748,121.666418 L119.369748,121.667229 L119.369748,120.569418 L123.466387,120.569418 Z M140.672269,114.531457 L140.672269,126.22589 L141.282526,125.747523 L141.781676,125.352091 C142.295918,124.942555 142.724024,124.594277 143.065995,124.307258 L143.266807,124.137304 C143.697173,123.769693 144.297473,123.232628 145.067707,122.526111 C145.169747,122.432511 145.227884,122.300082 145.227884,122.161244 C145.227884,121.902051 145.02925,121.689479 144.77661,121.668867 L144.736291,121.667229 L143.676471,121.667229 L143.676471,120.843871 L147.773109,120.843871 L147.773109,121.422386 C147.773109,121.578258 147.707164,121.72678 147.591729,121.830893 L146.132304,123.140773 C145.26204,123.916869 144.67102,124.432015 144.359244,124.68621 L144.153876,124.85217 L143.931735,125.028849 C143.778051,125.150208 143.613185,125.278712 143.437138,125.414362 L147.539771,129.651661 C147.694017,129.810954 147.905797,129.900812 148.126971,129.900812 L148.865546,129.900812 L148.865546,130.724171 L145.178571,130.724171 L141.78409,126.656513 L141.271089,127.033065 L140.672269,127.468612 L140.672269,129.900812 L142.584034,129.900812 L142.584034,130.724171 L136.57563,130.724171 L136.57563,129.900812 L138.214286,129.900812 L138.214286,115.903721 L136.57563,115.903721 L136.57563,114.805909 L138.551174,114.682016 L139.330702,114.628958 C139.73698,114.600469 140.184169,114.567969 140.672269,114.531457 Z M91.2394958,123.588398 L91.2394958,129.900812 L92.3739311,129.900812 C92.9122458,129.900812 94.2436975,129.900812 94.9264706,129.21468 C95.6092437,128.528548 95.6092437,127.524743 95.6092437,126.881832 C95.6092437,126.281169 95.3361345,125.235115 94.5168067,124.411757 C93.9705882,123.862851 92.8781513,123.588398 91.2394958,123.588398 Z M109.810651,125.784021 L109.448997,125.894298 C108.358176,126.233991 107.051964,126.733403 106.806723,127.842417 C106.533613,129.077454 107.348123,129.278678 107.802367,129.273868 C108.583022,129.265603 109.551225,128.732526 109.810651,127.432132 L109.810651,125.784021 Z M163.613445,123.039493 L163.613445,124.411757 L150.504202,124.411757 L150.504202,123.039493 L163.613445,123.039493 Z M83.3193277,123.039493 L83.3193277,124.411757 L70.210084,124.411757 L70.210084,123.039493 L83.3193277,123.039493 Z M91.2405674,117.002271 L91.2394958,122.490587 C92.9802794,122.48167 94.0727164,122.298702 94.5168067,121.941682 C95.1995798,121.392776 95.3361345,120.843871 95.3361345,119.883286 C95.3361345,118.785475 94.6787889,117.835841 93.697479,117.413211 C93.0872231,117.150386 92.2682525,117.013406 91.2405674,117.002271 Z M172.62605,96.6920258 L172.62605,97.789837 L170.789509,97.789837 C170.660863,97.789837 170.556575,97.894125 170.556575,98.0227709 C170.556575,98.0533025 170.562577,98.0835363 170.574241,98.1117524 L174.128151,106.709552 C174.886454,104.725348 175.387154,103.353084 175.630252,102.592761 C176.421224,100.118882 176.670217,98.7406517 176.722689,98.4759689 C176.834198,97.9134896 176.44958,97.789837 176.068622,97.7904794 L174.810924,97.789837 L174.810924,96.6920258 L180,96.6920258 L180,97.789837 L179.180672,97.789837 C178.770742,97.803294 178.441467,97.7666004 178.22479,98.4759689 C176.853792,102.406354 175.579282,105.791271 174.401261,108.630722 C172.912646,112.176639 171.813022,114.461686 171.102388,115.485865 C170.655797,116.1295 169.577058,116.429001 167.866172,116.384368 L167.575171,116.373747 C167.438924,116.367408 167.333612,116.251819 167.339952,116.115571 C167.343702,116.034976 167.386583,115.961295 167.454806,115.918222 C168.131635,115.490902 168.808465,114.937163 169.485294,114.257004 C170.677034,113.059401 171.990107,111.0044 172.89916,109.179627 L168.165283,98.2117203 C168.054766,97.9556635 167.80258,97.789837 167.523691,97.789837 L166.890756,97.789837 L166.890756,96.6920258 L172.62605,96.6920258 Z M155.093324,94.0728014 C155.128044,94.1146712 155.147059,94.1674486 155.147059,94.2219508 L155.147059,96.6920258 L160.063025,96.6920258 L160.063025,98.0642897 L155.147059,98.0642897 L155.146786,103.563363 L155.14787,105.140561 C155.158555,107.169469 155.324047,107.65824 157.468487,107.670137 C158.898115,107.678068 159.899515,107.4951 160.472689,107.121232 C160.472689,108.356269 157.605042,109.591307 155.898109,109.591307 C154.054622,109.591307 152.962185,108.630722 152.962185,106.4351 L152.962185,103.563363 C152.962185,100.263251 152.916667,98.4759689 152.82563,98.2015161 C152.689076,97.789837 152.158775,97.6720356 151.460084,97.3781578 C151.34198,97.3284716 151.28631,97.1919842 151.335744,97.0732959 C151.350124,97.0387698 151.372571,97.0082338 151.401183,96.9842728 L154.766801,94.0429716 C154.865165,93.9605986 155.011354,93.9739539 155.093324,94.0728014 Z M107.393116,96.4865605 C107.521762,96.4865605 107.62605,96.5908486 107.62605,96.7194945 L107.62605,108.28803 L110.084034,108.28803 L110.084034,109.385841 L102.983193,109.385841 L102.983193,108.28803 L105.441176,108.28803 L105.441176,97.8173056 C105.441176,97.6886598 105.336888,97.5843717 105.208243,97.5843717 L102.983193,97.5843717 L102.983193,96.4865605 L107.393116,96.4865605 Z M142.07799,96.4865605 C142.206636,96.4865605 142.310924,96.5908486 142.310924,96.7194945 L142.310924,108.28803 L144.768908,108.28803 L144.768908,109.385841 L137.668067,109.385841 L137.668067,108.28803 L140.12605,108.28803 L140.12605,97.8173056 C140.12605,97.6886598 140.021762,97.5843717 139.893116,97.5843717 L137.668067,97.5843717 L137.668067,96.4865605 L142.07799,96.4865605 Z M120.773109,96.4175731 C120.903059,96.4175731 121.046218,96.5547994 121.046218,96.6920258 L121.071601,98.4297196 L121.182773,98.3387425 C122.138655,97.5153842 123.178809,96.4175731 125.241597,96.4175731 C127.69958,96.4175731 128.966387,98.6131953 128.966387,100.808818 L128.968569,108.219043 L131.151261,108.219043 L131.151261,109.316854 L124.798319,109.316854 L124.798319,108.219043 L126.782202,108.219043 C126.772142,103.695931 126.759307,101.180114 126.743697,100.671591 C126.720283,99.9088074 126.743697,98.8876481 125.105042,98.4759689 C123.466387,98.0642897 121.827731,98.6806058 121.008403,99.4365536 L121.046218,108.219043 L123.504202,108.219043 L123.504202,109.316854 L116.676471,109.316854 L116.676471,108.219043 L118.861345,108.219043 L118.861345,97.789837 C118.861345,97.6632071 118.718185,97.5153842 118.588235,97.5153842 L116.638655,97.5153842 L116.676471,96.4175731 L120.773109,96.4175731 Z M60.7195378,89.6203372 C61.0548553,89.8434785 60.9596417,90.1740583 60.7448361,90.4051581 L60.7195378,90.4313702 C60.4174792,90.7328835 60.3119906,91.1805996 60.4474432,91.5862117 L60.487395,91.7058507 L66.5231092,108.219043 L68.5714286,108.219043 L68.5714286,109.316854 L61.7436975,109.316854 L61.7436975,108.219043 L63.9285714,108.219043 L62.1533613,102.729987 L55.3256303,102.729987 L54.2452738,105.172747 C53.8787815,106.001411 53.723168,106.907927 53.7923238,107.811375 L53.8235294,108.219043 L56.2815126,108.219043 L56.2815126,109.316854 L50,109.316854 L50,108.219043 L51.7820378,108.219043 L56.2520041,97.7121296 C57.9735251,93.6152542 58.9248528,91.3814375 59.1059873,91.0106795 C59.2447214,90.7267095 59.5733188,90.1860014 59.7909664,89.9679228 L59.8608624,89.8997028 C60.0377549,89.7330779 60.4210684,89.4217168 60.7195378,89.6203372 Z M81.0640601,88.4586856 C81.7312479,88.4572348 82.4701542,88.4498961 83.1827731,88.8701552 C83.7722484,89.2177916 83.8296906,90.0122301 83.4558824,90.3796455 C82.9843021,90.8431608 82.2268908,90.791291 81.5441176,90.2423855 C80.8613445,89.6934799 80.9978992,89.5562535 80.3151261,89.5562535 C79.2226891,89.5562535 78.9915529,90.9193631 78.9495798,91.6146494 C78.9215978,92.0781736 78.9058679,93.7706324 78.9023902,96.6920258 L78.9023902,96.6920258 L82.2336972,96.6920258 L82.2312829,97.789837 L78.9495798,97.789837 L78.9539712,108.219043 L82.0903361,108.219043 L82.0859448,109.316887 L74.5798319,109.316887 L74.5842233,108.219043 L74.5842233,108.219043 L76.7690973,108.219043 L76.7647059,97.789837 L75.4810193,97.789837 L75.4834336,96.6920258 L76.7647059,96.6920258 L76.7647059,96.6920258 L76.7647059,93.2613661 C76.7647059,90.5168383 77.874554,89.6222956 78.8130252,89.007348 C79.5168811,88.5461356 80.4034692,88.4601221 81.0640601,88.4586856 Z M95.2657408,88.4586856 C95.9329286,88.4572348 96.6718348,88.4498961 97.3844538,88.8701552 C97.9739291,89.2177916 98.0313712,90.0122301 97.657563,90.3796455 C97.1859828,90.8431608 96.4285714,90.791291 95.7457983,90.2423855 C95.0630252,89.6934799 95.1995798,89.5562535 94.5168067,89.5562535 C93.4243697,89.5562535 93.1932336,90.9193631 93.1512605,91.6146494 C93.1232784,92.0781736 93.1075486,93.7706324 93.1040709,96.6920258 L93.1040709,96.6920258 L96.4353779,96.6920258 L96.4329636,97.789837 L93.1512605,97.789837 L93.1556519,108.219043 L96.2920168,108.219043 L96.2876254,109.316887 L88.7815126,109.316887 L88.785904,108.219043 L88.785904,108.219043 L90.9707779,108.219043 L90.9663866,97.789837 L89.6827,97.789837 L89.6851142,96.6920258 L90.9663866,96.6920258 L90.9663866,96.6920258 L90.9663866,93.2613661 C90.9663866,90.5168383 92.0762347,89.6222956 93.0147059,89.007348 C93.7185618,88.5461356 94.6051499,88.4601221 95.2657408,88.4586856 Z M58.9784664,93.5596405 L55.7352941,101.357723 L61.4705882,101.357723 L58.9784664,93.5596405 Z M107.643553,91.217752 C108.200915,91.7628403 107.919759,92.5925785 107.223055,93.273939 C106.526352,93.9552994 105.67793,94.2302647 105.120568,93.6851764 C104.563205,93.140088 104.844362,92.3103498 105.541065,91.6289894 C106.237768,90.9476289 107.08619,90.6726636 107.643553,91.217752 Z M142.328427,91.217752 C142.885789,91.7628403 142.604632,92.5925785 141.907929,93.273939 C141.211226,93.9552994 140.362804,94.2302647 139.805442,93.6851764 C139.248079,93.140088 139.529236,92.3103498 140.225939,91.6289894 C140.922642,90.9476289 141.771064,90.6726636 142.328427,91.217752 Z M107.388295,30 L127.016807,79.9504062 L128.928571,79.9504062 C138.235498,79.9504062 142.055105,76.3821261 142.17437,66.9138991 C142.310924,56.0730142 136.327269,54.4790769 131.386555,54.3629623 L131.386555,54.0146184 L131.386555,54.0146184 C136.557069,52.9695866 140.134889,51.3650934 140.134889,41.8436931 C140.134889,32.5621612 134.204373,31.4011149 130.166907,31.3728086 L124.831933,31.3722639 L124.831933,61.0131643 L117.321429,42.0126322 L117.321429,31.3722639 L109.128151,31.3722639 L109.128151,30 L132.896168,30 C139.675288,30 148.389152,33.156207 148.455882,41.8014696 C148.51862,49.9293673 140.898534,52.8112485 136.302521,53.7401656 C140.898534,53.275707 150.777311,57.3080517 150.777311,66.6394463 C150.777311,75.4641588 143.16507,81.2292559 135.444267,81.3212761 L135.210084,81.3226701 L108.991597,81.3226701 L108.991597,79.9504062 L118.823529,79.9504062 L103.119748,39.0569418 L87.1428571,79.9504062 L95.1995798,79.9504062 L95.1995798,81.3226701 L79.2226891,81.3860053 L79.2226891,79.9504062 L85.5042017,79.9504062 L105.168067,30 L107.388295,30 Z" id="Combined-Shape"></path>
        </g>
    </g>
</svg>