<svg width="230" height="160" viewBox="0 0 230 160" xmlns="http://www.w3.org/2000/svg"><g fill="none" fill-rule="evenodd"><path d="M62.836 97.97h5.697v5.981H80.85V97.97h5.983L74.835 85.994l-12 11.976zm-3.843-22.448H53v12.292h5.993v5.972l12-11.975-12-11.975v5.686zM68.82 60v5.981h-5.983l11.999 11.976L86.833 65.98h-5.697V60H68.82zm42.904 15.298c-.863.831-1.073 1.393-1.073 2.571 0 1.178.081 2.128.686 2.85.605.723 1.497 1.38 2.677 1.974 1.18.594 2.013 1.114 2.5 1.56.485.444.95 1.22.95 1.883s-.268 1.463-.804 1.958c-.535.495-1.401.742-2.155.742-1.11 0-2.201-.402-3.272-1.65l-1.325 1.28c1.308 1.663 2.723 2.273 4.686 2.273 1.408 0 2.593-.475 3.555-1.425.962-.95 1.221-1.676 1.221-3.061 0-1.089-.1-1.788-.745-2.54-.644-.752-1.562-1.66-2.752-2.284-1.19-.624-2.239-1.148-2.705-1.574-.466-.425-.699-1.141-.699-1.705 0-.565.208-1.04.625-1.425.416-.386 1.153-.8 1.768-.8.972 0 2.043.544 3.213 1.632l1.355-1.411c-1.587-1.544-2.868-2.095-4.285-2.095-1.419 0-2.559.416-3.421 1.247zm-27.81 7.376c0 4.64 3.547 8.402 8.196 8.402a8.055 8.055 0 0 0 6.647-3.433v2.991h1.994v-15.92h-1.994v2.914c-1.469-2.146-3.86-3.577-6.647-3.577-4.65 0-8.197 3.983-8.197 8.623zm1.993 0c0-3.541 2.877-6.633 6.425-6.633s6.646 3.092 6.646 6.633c0 3.542-3.098 6.634-6.646 6.634s-6.425-3.092-6.425-6.634zm37.35 8.089h1.993V68.43h-1.994v22.332zm45.403-21.63l-1.143 1.955h3.491V90.97h1.915V69.133h-4.263zm11.24 0l-1.142 1.955h3.491V90.97h1.914V69.133H179.9zm-18.537-.702L149.25 85.42h10.519v5.333h1.985V85.42h2.676v-1.884h-2.676V68.43h-.392zm-1.558 5.863l-.035 9.243h-6.47l6.505-9.243zm-53.893-5.863H105.738a1.722 1.722 0 0 0-.993.42c-.306.254-.459.622-.459 1.105 0 .433.128.776.383 1.03.254.254.534.407.84.458a.306.306 0 0 0 .134.038h.249a1.852 1.852 0 0 0 1.05-.42c.319-.254.478-.623.478-1.106 0-.483-.153-.851-.458-1.106a1.723 1.723 0 0 0-.994-.42h-.057zm-.922 22.242h1.879v-15.92h-1.88v15.92zm24.59-7.999c0 4.763 3.646 8.624 8.418 8.624 3.565 0 6.502-2.032 7.76-5.046-.828-.448-1.745-.96-1.79-.862-1.058 2.24-3.348 3.809-5.97 3.809-3.61 0-6.37-2.922-6.37-6.525h14.786c-.11-4.667-3.718-8.623-8.416-8.623-4.772 0-8.419 3.86-8.419 8.623zm2.266-1.597c.639-2.886 3.11-5.036 6.207-5.036 3.093 0 5.399 2.183 5.996 5.074-1.141 0-10.851 0-12.203-.038z" opacity=".301" fill="#D4E1ED"/></g></svg>