<?xml version="1.0" encoding="UTF-8"?>
<svg width="48px" height="48px" viewBox="0 0 48 48" version="1.1" xmlns="http://www.w3.org/2000/svg" xmlns:xlink="http://www.w3.org/1999/xlink">
    <!-- Generator: Sketch 42 (36781) - http://www.bohemiancoding.com/sketch -->
    <defs></defs>
    <g id="Statistics-icons" stroke="none" stroke-width="1" fill="none" fill-rule="evenodd">
        <g id="Bell" fill="#92a1ae">
            <path d="M18,40 L12.0042577,40 C8.68987957,40 6,37.3108948 6,34 C6,31.8024742 7.18983536,29.8438302 9.00844297,28.7977476 C9.00844288,28.1907787 9,20.9971755 9,20.9971755 C9,14.0862012 13.6741243,8.26772191 20.0347314,6.52945872 C20.0118225,6.3562246 20,6.17949295 20,6 C20,3.790861 21.790861,2 24,2 C26.209139,2 28,3.790861 28,6 C28,6.17939159 27.9881908,6.35602499 27.9653074,6.52916523 C34.3272767,8.26706169 39,14.086356 39,21.0075959 L39,28.815212 C40.8207419,29.8662158 42,31.8167018 42,34 C42,37.315187 39.314063,40 35.9957423,40 L29.9999968,40 C29.9966158,43.3142875 27.304888,46 24,46 C20.6862915,46 18,43.3164546 18,40.0042999 L18,40 Z M22,40 L22,40.0042999 C22,41.1063051 22.8944204,42 24,42 C25.0978445,42 25.9966061,41.1030697 25.9999904,40 L22,40 Z M35,30.6721906 L35,21.0075959 C35,14.9214627 30.0787001,10 24,10 C17.9237746,10 13,14.9231178 13,20.9971755 L13,30.6721374 C13,31.23156 12.5704841,31.7874287 12.0406493,31.9238273 L11.4986148,32.0633665 C10.6230089,32.288779 10,33.0818983 10,34 C10,35.1014979 10.8987608,36 12.0042577,36 L35.9957423,36 C37.1052987,36 38,35.1056731 38,34 C38,33.0858917 37.374453,32.2896743 36.4994183,32.063461 L35.9749946,31.9278873 C35.4417651,31.7900372 35,31.2264866 35,30.6721906 Z" id="Combined-Shape"></path>
        </g>
    </g>
</svg>