<svg xmlns="http://www.w3.org/2000/svg" width="20" height="20" viewBox="0 0 20 20">
    <path fill="#FFFFFF" fill-rule="evenodd" d="M2 7.753v4.346c0 .615.478 1.113 1.067 1.113s1.066-.498 1.066-1.113V7.753c0-.614-.477-1.112-1.066-1.112C2.477 6.64 2 7.139 2 7.753zM14.888 7v7.615a.843.843 0 0 1-.832.854h-.95v2.419c0 .614-.477 1.112-1.067 1.112-.589 0-1.066-.498-1.066-1.112v-2.419h-1.66v2.419c0 .614-.478 1.112-1.067 1.112-.59 0-1.067-.498-1.067-1.112v-2.419h-.95a.843.843 0 0 1-.832-.854V7h9.491zm2.326-.36c.59 0 1.067.499 1.067 1.113v4.346c0 .615-.478 1.113-1.067 1.113-.59 0-1.067-.498-1.067-1.113V7.753c0-.614.478-1.112 1.067-1.112zm-5.025-3.1c.29 0 .525.242.525.54 0 .297-.235.539-.525.539a.532.532 0 0 1-.525-.54c0-.297.235-.539.525-.539zm-4.595.54c0-.298.235-.54.525-.54.29 0 .525.242.525.54 0 .297-.235.539-.525.539a.532.532 0 0 1-.525-.54zm5.654-2.827c.052-.078.04-.18-.029-.228-.068-.048-.165-.024-.217.053l-.911 1.358a5.249 5.249 0 0 0-1.97-.378c-.702 0-1.369.135-1.97.378l-.91-1.358c-.052-.077-.15-.101-.217-.053-.068.048-.081.15-.03.228l.878 1.306C6.478 3.225 5.5 4.49 5.376 5.967h9.491c-.124-1.477-1.102-2.742-2.496-3.408l.877-1.306z"/>
</svg>
