<svg width="84" height="73" viewBox="0 0 84 73" fill="none" xmlns="http://www.w3.org/2000/svg">
<path d="M58.1495 60.3658C61.862 60.3658 64.5825 63.2403 64.5825 66.7096C64.5825 69.5369 62.4698 73 58.1429 73C54.632 73 51.8013 70.3971 51.8013 66.6861C51.8013 62.6138 55.1246 60.3658 58.1495 60.3658ZM5.85832 60.3698C8.17253 60.3698 9.38585 61.7324 9.66826 62.0958L9.73311 62.1839V60.6454H12.4547V72.7699H10.5173C10.1009 72.7699 9.76129 72.3905 9.73479 72.0336L9.73311 71.9892V71.2084L9.68387 71.2759C9.43416 71.602 8.22587 72.9995 5.85832 72.9995C2.61131 72.9995 0 70.395 0 66.7077C0 62.6742 2.96998 60.3698 5.85832 60.3698ZM41.0082 54.5831V72.7699H39.0708C38.6544 72.7699 38.3148 72.3905 38.2883 72.0336L38.2867 71.9892V71.2084L38.2374 71.2759C37.9877 71.602 36.7794 72.9995 34.4119 72.9995C31.1649 72.9995 28.5535 70.395 28.5535 66.7077C28.5535 62.6742 31.5235 60.3698 34.4119 60.3698C36.7261 60.3698 37.9394 61.7324 38.2218 62.0958L38.2867 62.1839V54.5831H41.0082ZM84 54.5831V72.7699H82.0626C81.6462 72.7699 81.3066 72.3905 81.2801 72.0336L81.2784 71.9892V71.2084L81.2423 71.2586C81.0247 71.5487 79.8158 72.9995 77.4036 72.9995C74.1566 72.9995 71.5453 70.395 71.5453 66.7077C71.5453 62.6742 74.5153 60.3698 77.4036 60.3698C79.6733 60.3698 80.8841 61.6805 81.1962 62.0737L81.2784 62.1839V54.5831H84ZM21.8456 60.3661C24.8682 60.3661 26.4778 62.7651 26.4778 65.0084V72.7699H24.5865C24.0906 72.7699 23.7562 72.3566 23.7562 71.9433V65.6054C23.7562 64.362 22.991 62.8519 21.2213 62.8519C19.3117 62.8519 18.1746 64.6486 18.1746 66.3403V72.7699H16.2372C15.8191 72.7699 15.453 72.4713 15.453 71.9892V60.6454H18.1746V62.1458C18.7913 61.2229 19.9962 60.3661 21.8456 60.3661ZM50.0033 60.5076C50.5039 60.5076 50.972 60.5995 50.972 60.5995V63.401L50.8696 63.3651C50.6721 63.3005 50.2107 63.1713 49.6804 63.1713C47.7708 63.1713 46.7282 64.9681 46.7282 66.6598V72.7699H44.7908C44.3726 72.7699 44.0066 72.4713 44.0066 71.9892V60.6454H46.7282V62.6662C47.1966 61.5341 48.2075 60.5076 50.0033 60.5076ZM69.4234 60.6454V72.7699H67.486C67.0679 72.7699 66.7018 72.4713 66.7018 71.9892V60.6454H69.4234ZM6.34312 62.849C4.3103 62.849 2.76888 64.4775 2.76888 66.6807C2.76888 69.1213 4.56004 70.5631 6.34816 70.5631C8.48721 70.5631 9.96808 68.6847 9.96808 66.7068C9.96808 64.931 8.72084 62.849 6.34312 62.849ZM34.8967 62.849C32.8638 62.849 31.3224 64.4775 31.3224 66.6807C31.3224 69.1213 33.1136 70.5631 34.9017 70.5631C37.0407 70.5631 38.5216 68.6847 38.5216 66.7068C38.5216 64.9583 37.3125 62.913 35.0056 62.8505L34.8967 62.849ZM77.8884 62.849C75.8556 62.849 74.3142 64.4775 74.3142 66.6807C74.3142 69.1213 76.1054 70.5631 77.8935 70.5631C80.0325 70.5631 81.5134 68.6847 81.5134 66.7068C81.5134 64.931 80.2661 62.849 77.8884 62.849ZM58.1594 62.8962C56.2309 62.8962 54.5234 64.4053 54.5234 66.73C54.5234 69.0166 56.3187 70.513 58.1656 70.513C60.1551 70.513 61.8115 68.8495 61.8115 66.6937C61.8115 64.6073 60.2988 62.948 58.2555 62.8974L58.1594 62.8962ZM68.0412 54.446C69.0353 54.446 69.8412 55.2483 69.8412 56.2381C69.8412 57.2279 69.0353 58.0303 68.0412 58.0303C67.047 58.0303 66.2411 57.2279 66.2411 56.2381C66.2411 55.2483 67.047 54.446 68.0412 54.446ZM67.0337 0.700901C67.4175 0.0276356 68.2856 -0.199814 68.9527 0.191402C69.5996 0.570769 69.8426 1.38645 69.4985 2.04943L69.4645 2.11111L62.5011 14.1207C74.3977 20.5338 82.4879 32.4577 83.9519 46.4407L83.9943 46.865H0.0503845C1.38027 32.8408 9.36476 20.8408 21.1753 14.3167L21.5344 14.1207L14.571 2.11111C14.1781 1.43785 14.4066 0.582624 15.0828 0.191402C15.7385 -0.187959 16.5661 0.0144172 16.974 0.640926L17.011 0.700901L24.0657 12.8652C29.4481 10.4177 35.5068 9.05302 42.0223 9.05302C48.4256 9.05302 54.3875 10.3711 59.7 12.7395L59.979 12.8652L67.0337 0.700901ZM22.7498 28.1228C20.8125 28.1228 19.2316 29.6877 19.2316 31.6256C19.2316 33.5544 20.8033 35.1284 22.7498 35.1284C24.6962 35.1284 26.2772 33.5544 26.2681 31.6256C26.2681 29.6968 24.6962 28.1228 22.7498 28.1228ZM61.2857 28.1228C59.3484 28.1228 57.7675 29.6877 57.7675 31.6256C57.7675 33.5544 59.3393 35.1284 61.2857 35.1284C63.2322 35.1284 64.8131 33.5544 64.804 31.6256C64.804 29.6968 63.2322 28.1228 61.2857 28.1228Z" fill="#002B3B"/>
</svg>
