<?xml version="1.0" encoding="UTF-8"?>
<svg width="88px" height="88px" viewBox="0 0 88 88" version="1.1" xmlns="http://www.w3.org/2000/svg" xmlns:xlink="http://www.w3.org/1999/xlink">
    <!-- Generator: Sketch 42 (36781) - http://www.bohemiancoding.com/sketch -->
    <defs></defs>
    <g id="Kensington" stroke="none" stroke-width="1" fill="none" fill-rule="evenodd">
        <g id="Case-Study-Kensington-Proximo" transform="translate(-969.000000, -5059.000000)" fill="#A4C639">
            <g id="Group-6" transform="translate(864.000000, 5059.000000)">
                <g id="Group-9" transform="translate(103.000000, 0.000000)">
                    <path d="M57.0434,15.3327752 C58.2834,15.3327752 59.2934,16.3427752 59.2934,17.5827752 C59.2934,18.8217752 58.2834,19.8017752 57.0434,19.8017752 C55.8044,19.8017752 54.7934,18.8217752 54.7934,17.5827752 C54.7934,16.3427752 55.8044,15.3327752 57.0434,15.3327752 L57.0434,15.3327752 Z M34.5434,15.3327752 C35.7834,15.3327752 36.7934,16.3427752 36.7934,17.5827752 C36.7934,18.8217752 35.7834,19.8017752 34.5434,19.8017752 C33.3044,19.8017752 32.2934,18.8217752 32.2934,17.5827752 C32.2934,16.3427752 33.3044,15.3327752 34.5434,15.3327752 L34.5434,15.3327752 Z M30.4814,1.65277523 C30.4814,1.65277523 30.2964,1.27577523 30.6654,1.06577523 C31.0324,0.855775234 31.2624,1.21577523 31.2624,1.21577523 L35.3874,8.34077523 C38.5274,6.94277523 42.0594,6.15277523 45.7934,6.15277523 C49.5274,6.15277523 53.0584,6.94277523 56.1994,8.34077523 L60.3244,1.21577523 C60.3244,1.21577523 60.5684,0.856775234 60.9344,1.06677523 C61.2994,1.27777523 61.1054,1.65277523 61.1054,1.65277523 L57.0434,8.71477523 C64.4384,12.3427752 69.4494,19.4437752 69.4494,27.5897752 L45.7934,27.5897752 L22.1374,27.5897752 C22.1374,19.4437752 27.1494,12.3417752 34.5434,8.71477523 L30.4814,1.65277523 Z M21.9472,30.3439752 L69.6352,30.3439752 L69.6352,66.2369752 C69.6352,68.0179752 67.4832,70.3489752 65.7012,70.3489752 L60.1042,70.3489752 L60.1042,82.5859752 C60.1042,85.7009752 57.8032,88.2109752 54.9792,88.2109752 C52.1552,88.2109752 49.8852,85.7009752 49.8852,82.5859752 L49.8852,70.3489752 L41.6982,70.3489752 L41.6982,82.5859752 C41.6982,85.7009752 39.4282,88.2109752 36.6042,88.2109752 C33.7792,88.2109752 31.5102,85.7009752 31.5102,82.5859752 L31.5102,70.3489752 L25.8802,70.3489752 C24.0992,70.3489752 21.9472,68.0179752 21.9472,66.2369752 L21.9472,30.3439752 Z M14.099,29.5929752 C16.915,29.5929752 19.197,32.1119752 19.197,35.2179752 L19.197,56.5139752 C19.197,59.6189752 16.915,62.1389752 14.099,62.1389752 C11.283,62.1389752 9,59.6189752 9,56.5139752 L9,35.2179752 C9,32.1119752 11.283,29.5929752 14.099,29.5929752 Z M77.4887,29.5929752 C80.3047,29.5929752 82.5877,32.1119752 82.5877,35.2179752 L82.5877,56.5139752 C82.5877,59.6189752 80.3047,62.1389752 77.4887,62.1389752 C74.6737,62.1389752 72.3907,59.6189752 72.3907,56.5139752 L72.3907,35.2179752 C72.3907,32.1119752 74.6737,29.5929752 77.4887,29.5929752 Z" id="Combined-Shape"></path>
                </g>
            </g>
        </g>
    </g>
</svg>