<svg width="68" height="84" viewBox="0 0 68 84" fill="none" xmlns="http://www.w3.org/2000/svg">
<path d="M34.5296 24.1352C31.2322 24.1352 26.1281 20.3626 20.7529 20.499C13.6614 20.5899 7.15699 24.6351 3.49828 31.0439C-3.86431 43.9069 1.60117 62.9059 8.78308 73.3599C12.3063 78.4506 16.4619 84.1776 21.9725 83.9958C27.2573 83.7685 29.2448 80.5414 35.6588 80.5414C42.0277 80.5414 43.8344 83.9958 49.4354 83.8594C55.1268 83.7685 58.7403 78.6779 62.2183 73.5418C66.2384 67.633 67.9097 61.906 68 61.5878C67.8645 61.5424 56.9335 57.3153 56.798 44.5887C56.7077 33.9528 65.4254 28.8622 65.8319 28.6349C60.8633 21.3171 53.2297 20.499 50.5647 20.3172C43.6086 19.7717 37.7818 24.1352 34.5296 24.1352ZM46.2736 13.4084C49.2096 9.86314 51.1519 4.90884 50.6098 0C46.4091 0.181809 41.3501 2.81804 38.3238 6.36332C35.6136 9.49952 33.2648 14.5447 33.8972 19.3627C38.5496 19.7263 43.3376 16.9537 46.2736 13.4084Z" fill="#002B3B"/>
</svg>
