<svg xmlns="http://www.w3.org/2000/svg" width="20" height="20" viewBox="0 0 20 20">
    <path fill="#FFFFFF" fill-rule="evenodd" d="M14.138 4.214c1.191 0 2.453.669 3.353 1.825-2.947 1.666-2.469 6.006.509 7.167-.41.936-.606 1.355-1.134 2.183-.736 1.156-1.774 2.596-3.06 2.608-1.144.011-1.437-.767-2.988-.758-1.551.008-1.875.772-3.018.76-1.286-.011-2.27-1.312-3.007-2.467-2.06-3.233-2.275-7.028-1.005-9.044.904-1.434 2.327-2.273 3.666-2.273 1.364 0 2.22.771 3.348.771 1.093 0 1.76-.772 3.336-.772zM13.792 0c.157 1.094-.278 2.164-.85 2.922-.613.812-1.67 1.441-2.691 1.409-.186-1.047.292-2.124.872-2.85C11.762.68 12.856.065 13.792 0z"/>
</svg>
