<?xml version="1.0" encoding="UTF-8"?>
<svg width="88px" height="88px" viewBox="0 0 88 88" version="1.1" xmlns="http://www.w3.org/2000/svg" xmlns:xlink="http://www.w3.org/1999/xlink">
    <!-- Generator: Sketch 42 (36781) - http://www.bohemiancoding.com/sketch -->
    <defs></defs>
    <g id="Kensington" stroke="none" stroke-width="1" fill="none" fill-rule="evenodd">
        <g id="Case-Study-Kensington-Proximo" transform="translate(-864.000000, -5059.000000)" fill="#2B2B2B">
            <g id="Group-6" transform="translate(864.000000, 5059.000000)">
                <g id="Group-7">
                    <path d="M81,63.3599843 C78.9513523,67.7831032 77.9688216,69.7588346 75.33034,73.6688164 C71.6493981,79.1289638 66.4591753,85.9272622 60.0277779,85.9856431 C54.3123822,86.0378786 52.8456829,82.3629566 45.089525,82.4044378 C37.3333671,82.4459189 35.7152666,86.0501693 29.9982938,85.9994701 C23.5684735,85.9410892 18.6495112,79.8018802 14.9654151,74.3432691 C4.66855557,59.0766723 3.59139903,41.1598914 9.94236446,31.6361283 C14.4575902,24.8670204 21.5766013,20.9048031 28.2713737,20.9048031 C35.0875824,20.9048031 39.3725522,24.5459256 45.0090931,24.5459256 C50.4768848,24.5459256 53.8077115,20.8986577 61.68846,20.8986577 C67.6451514,20.8986577 73.9551123,24.0573699 78.4545671,29.5190537 C63.7181825,37.3851074 66.1122141,57.8798645 81,63.3599843 Z M55.7096892,14.7993934 C52.6438147,18.6340946 47.3605432,21.6053735 42.2539065,21.4502033 C41.3234199,16.5062656 43.7158744,11.4209848 46.6161539,7.99034069 C49.8097732,4.21248404 55.2807191,1.31341308 59.9583857,1 C60.7469337,6.16670676 58.5721184,11.2197245 55.7096892,14.7993934 Z" id="88pt_apple"></path>
                </g>
            </g>
        </g>
    </g>
</svg>