<svg xmlns="http://www.w3.org/2000/svg" width="482px" height="481px" viewBox="0 0 482 481"><defs><radialGradient id="gyikixatn3j1ekg7vemqwb0c" cx=".5" cy=".5" r=".5" fx=".5" fy=".5"><stop offset="0" stop-color="#fff"/><stop offset="1" stop-color="#fff" stop-opacity="0"/></radialGradient><radialGradient id="q99ogdqxbwhag6mm6rhhdprw" cx=".5" cy=".5" r=".5" fx=".5" fy=".5" gradientTransform="matrix(0 1 -1 0 1 0)"><stop offset="0" stop-color="#fff"/><stop offset="1" stop-color="#fff" stop-opacity="0"/></radialGradient></defs><style>
@keyframes a1_t { 0% { transform: translate(215.1px,236.2px); } 45.85% { transform: translate(148px,208.1px); } 100% { transform: translate(148px,208.1px); } }
@keyframes a2_t { 0% { transform: rotate(0deg); } 100% { transform: rotate(60deg); } }
@keyframes v8ew5jusljomtk8o5p9smabk_t { 0% { transform: scale(.5,.5) translate(-211.3px,-239px); } 40% { transform: scale(1,1) translate(-211.3px,-239px); } 45.85% { transform: scale(1.5,1.5) translate(-211.3px,-239px); } 100% { transform: scale(1.5,1.5) translate(-211.3px,-239px); } }
@keyframes v8ew5jusljomtk8o5p9smabk_o { 0% { opacity: 1; } 40% { opacity: 1; } 45.85% { opacity: 0; } 100% { opacity: 0; } }
@keyframes kesibwzbunsanmrf6xwmc8yb_t { 0% { transform: translate(243.8px,234.2px) rotate(0deg) scale(.5,.5) translate(-211.3px,-239px); } 68.275% { transform: translate(243.8px,234.2px) rotate(0deg) scale(.2,.2) translate(-211.3px,-239px); } 91.312% { transform: translate(251.2px,198.2px) rotate(43.6deg) scale(1,1) translate(-211.3px,-239px); } 100% { transform: translate(254px,184.6px) rotate(60deg) scale(1.4,1.4) translate(-211.3px,-239px); } }
@keyframes kesibwzbunsanmrf6xwmc8yb_o { 0% { opacity: 1; } 68.276% { opacity: 1; } 91.312% { opacity: 1; } 100% { opacity: 0; } }
@keyframes a5_t { 0% { transform: translate(238.7px,234.8px) rotate(20deg); } 40.524% { transform: translate(238.7px,234.8px) rotate(20deg); } 100% { transform: translate(230.9px,181.9px) rotate(20deg); } }
@keyframes h80mmmxp0ef9ube2zaeq6xtt_t { 0% { transform: scale(.2,.2) translate(-209px,-241.3px); } 40.524% { transform: scale(.2,.2) translate(-209px,-241.3px); animation-timing-function: cubic-bezier(.4,0,1,1); } 93.05% { transform: scale(1,1) translate(-209px,-241.3px); animation-timing-function: cubic-bezier(.4,0,1,1); } 100% { transform: scale(1.5,1.5) translate(-209px,-241.3px); } }
@keyframes h80mmmxp0ef9ube2zaeq6xtt_o { 0% { opacity: 1; } 40.524% { opacity: 1; animation-timing-function: cubic-bezier(.4,0,1,1); } 93.05% { opacity: 1; animation-timing-function: cubic-bezier(.4,0,1,1); } 100% { opacity: 0; } }
@keyframes a7_t { 0% { transform: translate(252.7px,236px) rotate(20deg); } 78.757% { transform: translate(320.6px,172.4px) rotate(90deg); } 100% { transform: translate(252.7px,236px) rotate(20deg); } }
@keyframes euzvkjhjt0r4f2g6brzzlnvx_t { 0% { transform: scale(.2,.2) translate(-209px,-241.3px); animation-timing-function: cubic-bezier(0,0,1,1); } 78.757% { transform: scale(3,3) translate(-209px,-241.3px); } 100% { transform: scale(.2,.2) translate(-209px,-241.3px); } }
@keyframes euzvkjhjt0r4f2g6brzzlnvx_o { 0% { opacity: 1; animation-timing-function: cubic-bezier(0,0,1,1); } 69.039% { opacity: 1; animation-timing-function: cubic-bezier(.4,0,1,1); } 78.757% { opacity: 0; } 100% { opacity: 0; } }
@keyframes a9_t { 0% { transform: translate(224.7px,235px) rotate(-82deg); } 71.65% { transform: translate(191px,209.7px) rotate(-82deg); } 100% { transform: translate(191px,209.7px) rotate(-82deg); } }
@keyframes krt3qlcd6deabqx80rqy75hs_t { 0% { transform: scale(.5,.5) translate(-209px,-241.3px); animation-timing-function: cubic-bezier(.4,0,1,1); } 71.65% { transform: scale(1.5,1.5) translate(-209px,-241.3px); } 100% { transform: scale(1.5,1.5) translate(-209px,-241.3px); } }
@keyframes krt3qlcd6deabqx80rqy75hs_o { 0% { opacity: 0; animation-timing-function: cubic-bezier(0,0,1,1); } 65.85% { opacity: 1; animation-timing-function: cubic-bezier(.4,0,1,1); } 71.65% { opacity: 0; } 100% { opacity: 0; } }
@keyframes a11_t { 0% { transform: translate(257px,235.7px) rotate(-82deg); } 15.505% { transform: translate(257px,235.7px) rotate(-82deg); } 100% { transform: translate(281.3px,210.9px) rotate(-82deg); } }
@keyframes q8piihx4otq0j31ggmiub1gu_t { 0% { transform: scale(.5,.5) translate(-209px,-241.3px); } 15.505% { transform: scale(.5,.5) translate(-209px,-241.3px); } 43.642% { transform: scale(.5,.5) translate(-209px,-241.3px); animation-timing-function: cubic-bezier(.4,0,1,1); } 76.046% { transform: scale(1.5,1.5) translate(-209px,-241.3px); } 100% { transform: scale(1.5,1.5) translate(-209px,-241.3px); } }
@keyframes q8piihx4otq0j31ggmiub1gu_o { 0% { opacity: 0; } 15.505% { opacity: 0; } 43.642% { opacity: 1; animation-timing-function: cubic-bezier(.4,0,1,1); } 71.103% { opacity: 1; animation-timing-function: cubic-bezier(.4,0,1,1); } 76.046% { opacity: 0; } 100% { opacity: 0; } }
@keyframes a13_t { 0% { transform: translate(240.5px,233.4px) rotate(-82deg); } 100% { transform: translate(232.5px,146.4px) rotate(0deg); } }
@keyframes uqiv8m7la0qsqzb2zo84vh81_t { 0% { transform: scale(.5,.5) translate(-209px,-241.3px); animation-timing-function: cubic-bezier(0,0,1,1); } 87.871% { transform: scale(1.5,1.5) translate(-209px,-241.3px); } 100% { transform: scale(1.5,1.5) translate(-209px,-241.3px); } }
@keyframes uqiv8m7la0qsqzb2zo84vh81_o { 0% { opacity: 0; } 25.247% { opacity: 1; animation-timing-function: cubic-bezier(.4,0,1,1); } 76.928% { opacity: 1; animation-timing-function: cubic-bezier(.4,0,1,1); } 87.871% { opacity: 0; } 100% { opacity: 0; } }
</style><title>Group 28</title><desc>Created with Sketch.</desc><path fill="url(#gyikixatn3j1ekg7vemqwb0c)" opacity=".3" d="M257 275l-16.1 238.5l13.8-238.7l-45.9 234.6l43.7-235l-74.9 227l72.8-227.7l-102.8 215.8l100.7-216.7l-129 201.2l127.1-202.4l-153.2 183.4l151.5-184.9l-175 162.8l173.4-164.4l-194 139.6l192.7-141.5l-210 114.2l208.9-116.1l-222.7 86.9l221.9-89l-231.8 58.3l231.2-60.5l-237.3 28.8l237.1-31.1l-239.1-1.1l239.1-1.1l-237.1-31.1l237.3 28.8l-231.2-60.5l231.8 58.3l-221.9-89l222.7 86.9l-208.9-116.1l210 114.2l-192.7-141.5l194 139.6l-173.4-164.4l175 162.8l-151.5-184.9l153.2 183.4l-127.1-202.4l129 201.2l-100.7-216.7l102.8 215.8l-72.8-227.7l74.9 227l-43.7-235l45.9 234.6l-13.8-238.7l16.1 238.5l16.1-238.5l-13.8 238.7l45.9-234.6l-43.7 235l74.9-227l-72.8 227.7l102.8-215.8l-100.7 216.7l129-201.2l-127.1 202.4l153.2-183.4l-151.5 184.9l175-162.8l-173.4 164.4l194-139.6l-192.7 141.5l210-114.2l-208.9 116.1l222.7-86.9l-221.9 89l231.8-58.3l-231.2 60.5l237.3-28.8l-237.1 31.1l239.1 1.1l-239.1 1.1l237.1 31.1l-237.3-28.8l231.2 60.5l-231.8-58.3l221.9 89l-222.7-86.9l208.9 116.1l-210-114.2l192.7 141.5l-194-139.6l173.4 164.4l-175-162.8l151.5 184.9l-153.2-183.5l127.1 202.5l-129-201.2l100.7 216.7l-102.8-215.8l72.8 227.7l-74.9-227l43.7 235l-45.9-234.6l13.8 238.7Z" fill-rule="evenodd" transform="translate(-16,-9.6)"/><path fill="url(#q99ogdqxbwhag6mm6rhhdprw)" opacity=".83" d="M257.5 266l-0.7 119.5l-0.4-119.5l-15.7 118.5l14.6-118.7l-30.5 115.6l29.4-115.9l-44.7 110.9l43.7-111.3l-58.3 104.4l57.3-104.9l-70.9 96.2l70-96.9l-82.4 86.6l81.5-87.4l-92.6 75.6l91.9-76.4l-101.3 63.4l100.7-64.4l-108.5 50.2l108-51.2l-113.9 36.2l113.6-37.3l-117.6 21.7l117.4-22.8l-119.4 6.7l119.3-7.8l-119.2-8.3l119.3 7.2l-117.3-23.2l117.5 22l-113.4-37.6l113.7 36.6l-107.8-51.6l108.3 50.6l-100.5-64.7l101.1 63.7l-91.6-76.8l92.4 75.9l-81.3-87.6l82.1 86.9l-69.6-97.2l70.5 96.5l-56.9-105.1l57.9 104.6l-43.3-111.5l44.3 111l-28.9-115.9l30 115.7l-14.2-118.7l15.4 118.5l.7-119.5l.4 119.5l15.7-118.5l-14.6 118.7l30.5-115.6l-29.4 115.9l44.7-110.9l-43.7 111.3l58.3-104.4l-57.3 104.9l70.9-96.2l-70 96.9l82.4-86.6l-81.5 87.4l92.6-75.6l-91.9 76.4l101.3-63.4l-100.7 64.4l108.5-50.2l-108 51.2l113.9-36.2l-113.6 37.3l117.6-21.7l-117.4 22.8l119.4-6.7l-119.3 7.8l119.2 8.3l-119.3-7.2l117.3 23.2l-117.5-22l113.4 37.6l-113.7-36.6l107.8 51.6l-108.3-50.6l100.5 64.7l-101.1-63.7l91.6 76.8l-92.4-75.9l81.3 87.6l-82.1-86.9l69.6 97.2l-70.5-96.5l56.9 105.1l-57.9-104.6l43.3 111.5l-44.3-111l28.9 115.9l-30-115.7l14.2 118.7Z" fill-rule="evenodd" transform="translate(-16,-9.6)"/><path d="M257 230.4c1.7 0 3 1.3 3 3v3h7.6c2.5 0 4.6 2.1 4.4 4.6c0 .7 0 2.1-0.2 3.8c-0.4 2.8-1 5.7-2 8.3c-2.9 8.1-8.4 13.1-16.9 13.2c-0.5 1.8-1 3.8-1.3 6.1c4.7 .3 8.4 4.2 8.4 9v6c0 1.6-1.3 3-3 3h-33c-1.6 0-3-1.4-3-3v-6c0-4.9 3.8-8.8 8.6-9c-0.3-2.3-0.7-4.3-1.3-6c-8.6-0.1-14.2-5.2-17.1-13.3c-1-2.6-1.6-5.5-1.9-8.3c-0.2-1.7-0.3-3.1-0.3-3.9c-0.1-2.4 1.9-4.5 4.5-4.5h7.5v-3c0-1.7 1.3-3 3-3h33Zm-6 48h-21c-1.7 0-3 1.3-3 3v3h27v-3c0-1.7-1.3-3-3-3Zm3-42h-27v9c0 2.9 .6 5 2.2 8.3c.4 .7 1.5 3 1.7 3.3c3.5 7 4.8 15.4 4.8 15.4c0 0 11 0 9.9 0c.6-5.6 2.1-10.1 4.6-15.4c.2-0.2 1.3-2.6 1.6-3.2c1.6-3.3 2.2-5.5 2.2-8.4v-4.7c0-2.6 0-3.8 0-4.3Zm-33 6h-5.9v.1c0 .2 .1 1.1 .1 1.6c.3 2.4 .8 4.8 1.7 7c1.8 5 4.6 8.1 8.8 9c-2.3-4.7-4.7-8.5-4.7-14.7v-3Zm39 0v3c0 6.2-2.3 10-4.6 14.7c4.2-1 7-4.1 8.8-9c.8-2.2 1.3-4.6 1.6-7c.1-0.6 .2-1.7 .2-1.7h-6Zm-19.5 0c3.3 0 6 2.7 6 6c0 3.3-2.7 6-6 6c-3.3 0-6-2.7-6-6c0-3.3 2.7-6 6-6Zm13.5-6c0 0 0-0.6 0-0.2v.2Z" fill="#fff" fill-rule="evenodd"/><g style="animation: 2s linear infinite both a1_t;"><g style="animation: .92s linear infinite both a2_t;"><path d="M208.2 231.5l4.2 3.3l5.1-1.7l-1.8 5l3.1 4.4l-5.3-0.2l-3.2 4.3l-1.5-5.1l-5-1.7l4.4-3v-5.3Z" fill="#fff" fill-rule="evenodd" transform="translate(215.1,236.2) scale(.5,.5) translate(-211.3,-239)" style="animation: 2s linear infinite both v8ew5jusljomtk8o5p9smabk_t, 2s linear infinite both v8ew5jusljomtk8o5p9smabk_o;"/></g></g><path d="M208.2 231.5l4.2 3.3l5.1-1.7l-1.8 5l3.1 4.4l-5.3-0.2l-3.2 4.3l-1.5-5.1l-5-1.7l4.4-3v-5.3Z" fill="#fff" fill-rule="evenodd" transform="translate(243.8,234.2) scale(.5,.5) translate(-211.3,-239)" style="animation: 3.83s linear infinite both kesibwzbunsanmrf6xwmc8yb_t, 3.83s linear infinite both kesibwzbunsanmrf6xwmc8yb_o;"/><g style="animation: 2.63s linear infinite both a5_t;"><path d="M207.3 237l2.4 1.9l2.8-0.9l-1 2.8l1.8 2.4l-3-0.1l-1.8 2.4l-0.8-2.8l-2.9-1l2.5-1.7v-3Z" fill="#fff" fill-rule="evenodd" transform="translate(238.7,234.8) rotate(20) scale(.2,.2) translate(-209,-241.3)" style="animation: 2.63s linear infinite both h80mmmxp0ef9ube2zaeq6xtt_t, 2.63s linear infinite both h80mmmxp0ef9ube2zaeq6xtt_o;"/></g><g style="animation: 1.88s linear infinite both a7_t;"><path d="M207.8 238.3l1.7 1.3l2-0.6l-0.7 1.9l1.2 1.7h-2.1l-1.2 1.6l-0.6-2l-2-0.6l1.7-1.2v-2.1Z" fill="#fff" fill-rule="evenodd" transform="translate(252.7,236) rotate(20) scale(.2,.2) translate(-209,-241.3)" style="animation: 1.88s linear infinite both euzvkjhjt0r4f2g6brzzlnvx_t, 1.88s linear infinite both euzvkjhjt0r4f2g6brzzlnvx_o;"/></g><g style="animation: 2s linear infinite both a9_t;"><path d="M208.3 239.4l1 .8l1.3-0.4l-0.4 1.2l.8 1.1h-1.4l-0.8 1.1l-0.4-1.3l-1.3-0.4l1.2-0.8v-1.3Z" fill="#fff" opacity="0" fill-rule="evenodd" transform="translate(224.7,235) rotate(-82) scale(.5,.5) translate(-209,-241.3)" style="animation: 2s linear infinite both krt3qlcd6deabqx80rqy75hs_t, 2s linear infinite both krt3qlcd6deabqx80rqy75hs_o;"/></g><g style="animation: 2.37s linear infinite both a11_t;"><path d="M208.3 239.4l1 .8l1.3-0.4l-0.4 1.2l.8 1.1h-1.4l-0.8 1.1l-0.4-1.3l-1.3-0.4l1.2-0.8v-1.3Z" fill="#fff" opacity="0" fill-rule="evenodd" transform="translate(257,235.7) rotate(-82) scale(.5,.5) translate(-209,-241.3)" style="animation: 2.37s linear infinite both q8piihx4otq0j31ggmiub1gu_t, 2.37s linear infinite both q8piihx4otq0j31ggmiub1gu_o;"/></g><g style="animation: 1.52s linear infinite both a13_t;"><path d="M208.3 239.4l1 .8l1.3-0.4l-0.4 1.2l.8 1.1h-1.4l-0.8 1.1l-0.4-1.3l-1.3-0.4l1.2-0.8v-1.3Z" fill="#fff" opacity="0" fill-rule="evenodd" transform="translate(240.5,233.4) rotate(-82) scale(.5,.5) translate(-209,-241.3)" style="animation: 1.52s linear infinite both uqiv8m7la0qsqzb2zo84vh81_t, 1.52s linear infinite both uqiv8m7la0qsqzb2zo84vh81_o;"/></g></svg>