<svg height="380" viewBox="0 0 860 380" width="860" xmlns="http://www.w3.org/2000/svg"><g fill="none" fill-rule="evenodd"><circle cx="756" cy="98" fill="#f88f74" r="5"/><path d="m477.84424 28.0461739c155.914792-1.8491146 15.065501 52.2127551 60.499849 95.1351151 45.434348 42.922359 171.315014 20.180925 171.655536 100.368783.217791 52.172617-94.394202 118.152356-210.045566 126.652526-134.434989 9.880732-346.954092-18.700373-346.954092-142.802848 0-108.8021693 168.92948-177.5044615 324.844273-179.3535761zm92.216986 52.955112c5.010366-20.0954818 32.964687-30.4290636 62.438044-23.0805303 29.473358 7.3485333 49.304848 29.5964724 44.294482 49.6919544s-29.820273 17.814916-59.293631 10.466383c-29.473357-7.348534-52.449262-16.982325-47.438895-37.0778071zm-448.06124-16.0012859c12.702541 0 22.999986 10.2974508 22.999986 23 0 12.702549-10.297445 23-22.999986 23-12.702542 0-22.999986-10.297451-22.999986-23 0-12.7025492 10.297444-23 22.999986-23z" fill="#ffdcb9"/><g fill="#f88f74"><circle cx="199" cy="292" r="16"/><circle cx="169" cy="292" r="7"/><path d="m735 63c8.836556 0 16 7.163444 16 16s-7.163444 16-16 16-16-7.163444-16-16 7.163444-16 16-16zm0 6c-5.522847 0-10 4.4771525-10 10s4.477153 10 10 10 10-4.4771525 10-10-4.477153-10-10-10z"/></g><g fill="#fff"><path d="m361 78c8.836556 0 16 7.163444 16 16s-7.163444 16-16 16-16-7.163444-16-16 7.163444-16 16-16zm0 6c-5.522847 0-10 4.4771525-10 10s4.477153 10 10 10 10-4.4771525 10-10-4.477153-10-10-10z" opacity=".2"/><circle cx="625" cy="196" opacity=".2" r="6"/><circle cx="528.5" cy="294.5" opacity=".2" r="13.5"/></g></g></svg>