<svg height="1140" viewBox="0 0 2560 1140" width="2560" xmlns="http://www.w3.org/2000/svg"><g fill="none" fill-rule="evenodd" transform="translate(0 -261)"><path d="m0 261h2560v723.273253c-428.76154 152.484497-855.42821 228.726747-1280 228.726747-424.571789 0-851.238455-76.24225-1280-228.726747z" fill="#0051f4"/><path d="m0 261h2560v723.273253c-428.76154 152.484497-855.42821 228.726747-1280 228.726747-424.571789 0-851.238455-76.24225-1280-228.726747z" fill="#0051f4"/><g fill="#f9fcff"><path d="m557.134454 552c146.18722 0 303.865546-92.435595 303.865546-238.6875s-157.678326-217.3125-303.865546-217.3125c-146.187221 0-261.134454 71.060595-261.134454 217.3125s114.947233 238.6875 261.134454 238.6875z" opacity=".1" transform="matrix(.91354546 -.40673664 .40673664 .91354546 -81.76872 263.30842)"/><path d="m2190.66871 1353c247.81299 0 515.10541-156.69455 515.10541-404.617188 0-247.922637-267.29242-368.382812-515.10541-368.382812-247.81298 0-442.66871 120.460175-442.66871 368.382812 0 247.922638 194.85573 404.617188 442.66871 404.617188z" opacity=".1" transform="matrix(.70710678 .70710678 -.70710678 .70710678 1335.658823 -1291.565646)"/></g></g></svg>