<svg height="990" viewBox="0 0 768 990" width="768" xmlns="http://www.w3.org/2000/svg" xmlns:xlink="http://www.w3.org/1999/xlink"><linearGradient id="a"><stop offset="0" stop-color="#ffdcb9"/><stop offset=".395673572" stop-color="#f99375"/><stop offset="1" stop-color="#f46c67"/></linearGradient><linearGradient id="b" x1="51.151854%" x2="16.853103%" xlink:href="#a" y1="66.689521%" y2="28.828055%"/><linearGradient id="c" x1="50.713214%" x2="29.475826%" xlink:href="#a" y1="100%" y2="-13.428861%"/><mask id="d" fill="#fff"><path d="m.42995636.59230615h2560.00000364v1255.00000385c-52.75104 89.33812-152.68879 155.67265-299.81328 199.00359-220.68672 64.99641-482.68672-.00359-496.15869-155.61954-13.47196-155.61595 177.97197-168.88405 139.97197-266.88405-38-98.000004-119.27278-156.541508-283.5-185.336989-405.9033-71.170784-479 270.836989-743.612331 285.298639-264.612327 14.46165-473.387673-176.961654-626.593584-209.294774-102.137274-21.555414-185.5686367-13.333444-250.29408864 24.66591z" fill="#fff" fill-rule="evenodd"/></mask><g fill="none" fill-rule="evenodd"><g transform="translate(0 -1432)"><path d="m1 1h2560v1255c-52.75103 89.33812-152.68879 155.67265-299.81327 199.00359-220.68673 64.99641-482.68673-.00359-496.15869-155.61954-13.47197-155.61594 177.97196-168.88405 139.97196-266.88405s-119.27278-156.541505-283.5-185.336985c-405.9033-71.170784-479 270.836985-743.612327 285.298635-264.612327 14.46166-473.387673-176.96165-626.593584-209.294771-102.137274-21.555413-185.5686371-13.333443-250.294089 24.665911z" fill="url(#b)"/><g stroke="#fff" stroke-width="2"><ellipse cx="566.929956" cy="608.092306" mask="url(#d)" opacity=".1" rx="479.5" ry="735.5" transform="matrix(.89879405 .43837115 -.43837115 .89879405 324.516852 -186.575479)"/><ellipse cx="494.804895" cy="520.121738" mask="url(#d)" opacity=".1" rx="657.804895" ry="1009" transform="matrix(.8480481 .52991926 -.52991926 .8480481 351.379119 -182.765464)"/><ellipse cx="990.815733" cy="290" mask="url(#d)" opacity=".1" rx="956.5" ry="1467" transform="matrix(.8480481 .52991926 -.52991926 .8480481 304.802968 -480.578598)"/></g></g><path d="m0 0h768v976c-72.425801-25.246029-110.060334-54.290461-112.903599-87.133297-7.544299-87.144923 99.664291-94.575063 78.384293-149.455059-21.279999-54.879996-66.79275-87.663236-158.759988-103.788704-227.305828-39.855636-268.239979 151.6687-416.422871 159.767225-37.954911 2.07432-90.720856-9.055735-158.297835-33.390165z" fill="url(#c)"/></g></svg>