<svg height="770" viewBox="0 0 768 770" width="768" xmlns="http://www.w3.org/2000/svg"><g fill="none" fill-rule="evenodd" transform="translate(-77 -62)"><path d="m77 62h768v651.327903c-128.628463 45.781398-256.628463 68.672097-384 68.672097s-255.371537-22.890699-384-68.672097z" fill="#0051f4"/><g fill="#f9fcff"><path d="m137.751183 230c60.880641 0 126.54683-38.514831 126.54683-99.453125 0-60.9382939-65.666189-90.546875-126.54683-90.546875-60.8806422 0-108.751183 29.6085811-108.751183 90.546875 0 60.938294 47.8705408 99.453125 108.751183 99.453125z" opacity=".1" transform="matrix(.91354546 -.40673664 .40673664 .91354546 -42.230974 71.318888)"/><path d="m804.508032 811.526282c109.977029 0 228.598848-69.529406 228.598848-179.539062 0-110.009657-118.621819-163.460938-228.598848-163.460938s-196.452134 53.451281-196.452134 163.460938c0 110.009656 86.475105 179.539062 196.452134 179.539062z" opacity=".1" transform="matrix(.70710678 .70710678 -.70710678 .70710678 692.909648 -392.779306)"/></g></g></svg>