<?xml version="1.0" encoding="UTF-8"?>
<svg width="16px" height="16px" viewBox="0 0 16 16" version="1.1" xmlns="http://www.w3.org/2000/svg" xmlns:xlink="http://www.w3.org/1999/xlink">
    <!-- Generator: Sketch 41.2 (35397) - http://www.bohemiancoding.com/sketch -->
    <defs></defs>
    <g id="03-what-we-do" stroke="none" stroke-width="1" fill="none" fill-rule="evenodd">
        <g id="01-06-ios-dev" transform="translate(-98.000000, -115.000000)" fill="#ed4159">
            <g id="Back" transform="translate(98.000000, 115.000000)">
                <g id="Line-+-Line-2-+-Line-3">
                    <path d="M11.0857864,9 L1.92307692,9 C1.41327562,9 1,8.55228475 1,8 C1,7.44771525 1.41327562,7 1.92307692,7 L11.0857864,7 L7.79289322,3.70710677 C7.40236893,3.31658247 7.40236893,2.6834175 7.79289322,2.2928932 C8.18341751,1.90236891 8.81658249,1.90236891 9.20710678,2.29289321 L14.2070065,7.29279296 C14.4023689,7.48815535 14.5,7.74407767 14.5,7.99999999 C14.5,8.25592231 14.4023689,8.51184463 14.2071068,8.70710678 L9.20710678,13.7071068 C8.81658249,14.0976311 8.18341751,14.0976311 7.79289322,13.7071068 C7.40236893,13.3165825 7.40236893,12.6834175 7.79289322,12.2928932 L11.0857864,9 L11.0857864,9 Z" id="Combined-Shape" transform="translate(7.750000, 8.000000) scale(-1, 1) translate(-7.750000, -8.000000) "></path>
                </g>
            </g>
        </g>
    </g>
</svg>