<svg height="640" viewBox="0 0 320 640" width="320" xmlns="http://www.w3.org/2000/svg"><g fill="none" fill-rule="evenodd" transform="translate(-118 -106)"><path d="m118 106h320v519.341566c-53.595193 19.105623-106.928526 28.658434-160 28.658434s-106.404807-9.552811-160-28.658434z" fill="#0051f4"/><g fill="#f9fcff"><path d="m137.751183 230c60.880641 0 126.54683-38.514831 126.54683-99.453125 0-60.9382939-65.666189-90.546875-126.54683-90.546875-60.8806422 0-108.751183 29.6085811-108.751183 90.546875 0 60.938294 47.8705408 99.453125 108.751183 99.453125z" opacity=".1" transform="matrix(.91354546 -.40673664 .40673664 .91354546 -42.230974 71.318888)"/><path d="m500.452134 758c109.977029 0 228.598846-69.529406 228.598846-179.539062 0-110.009657-118.621817-163.460938-228.598846-163.460938s-196.452134 53.451281-196.452134 163.460938c0 110.009656 86.475105 179.539062 196.452134 179.539062z" opacity=".1" transform="matrix(.70710678 .70710678 -.70710678 .70710678 566.004941 -193.456804)"/></g></g></svg>