<svg width="256" height="256" viewBox="0 0 256 256" xmlns="http://www.w3.org/2000/svg"><path d="M64.234 140.114c2.26 0 4.093-1.86 4.093-4.155 0-2.294-1.832-4.154-4.093-4.154h-9.575v-6.293h8.76l.022.008c2.073 0 3.752-1.705 3.752-3.808 0-2.103-1.68-3.808-3.752-3.808l-10.888-.007v22.214l11.68.003zm5.23-12.023c2.944 1.363 4.99 4.377 4.99 7.875h-.08l.024.003c0 5.735-4.583 10.402-10.235 10.402l-11.566.002h-6.142v-34.617h6.142l10.763-.009c5.464 0 9.894 4.616 9.894 10.021l.015-.09a7.284 7.284 0 0 1-3.83 6.435l.025-.022zm32.526 18.243l-.005-11.11H88.298v-6.232h13.685l-.001-3.785c0-4.397-3.514-7.962-7.847-7.962-4.334 0-7.846 3.565-7.846 7.962l.016 21.127-6.076.004-.06-21.126c0-7.839 6.263-14.193 13.987-14.193 7.726 0 13.988 6.354 13.988 14.193l.01 21.126-6.164-.004zm35.688-18.221l.025-.022c2.944 1.363 4.99 4.377 4.99 7.875l.003 10.368h-6.138l.008-10.375c0-2.294-1.832-4.154-4.093-4.154h-9.575v-6.293h8.761l.021.008c2.073 0 3.752-1.705 3.752-3.808 0-2.103-1.68-3.808-3.752-3.808l-10.888-.007.027 28.476h-6.124v-34.617h6.14l10.764-.009c5.465 0 9.893 4.616 9.893 10.021l.015-.09a7.283 7.283 0 0 1-3.829 6.435zm25.384 18.223c-9.42 0-17.058-7.75-17.058-17.308 0-9.559 7.637-17.308 17.058-17.308h10.17l-.027 6.203h-10.17c-6.028 0-10.916 4.96-10.916 11.078 0 6.117 4.888 11.077 10.916 11.077h10.17l.027 6.258h-10.17zm30.122-5.574c6.406 0 11.598-5.27 11.598-11.77s-5.192-11.769-11.598-11.769c-6.406 0-11.6 5.27-11.6 11.769 0 6.5 5.194 11.77 11.6 11.77zm0-4.847c3.767 0 6.822-3.1 6.822-6.923s-3.055-6.922-6.822-6.922c-3.769 0-6.824 3.1-6.824 6.922 0 3.824 3.055 6.923 6.824 6.923zm-16.452-13.483c2.588-6.696 9.009-11.432 16.519-11.432 7.545 0 13.989 4.78 16.554 11.516l-.014-.041c.687 1.82 2.425 3.113 4.461 3.113l.093-.015h5.2v6.924h-5.2l-.122.009a4.762 4.762 0 0 0-4.43 3.011l.017-.045C207.25 142.216 200.8 147 193.25 147c-7.482 0-13.885-4.702-16.512-11.408-.724-1.84-2.446-3.104-4.457-3.104l-5.567.009v-6.924l5.546.01c2.048 0 3.794-1.307 4.472-3.151z" fill="#FFF" fill-rule="evenodd"/></svg>