<svg width="230" height="160" viewBox="0 0 230 160" xmlns="http://www.w3.org/2000/svg"><g fill="none" fill-rule="evenodd"><path d="M71.34 85.84c1.696 0 3.071-1.395 3.071-3.116 0-1.72-1.375-3.116-3.071-3.116h-7.184v-4.721h6.573l.016.006c1.555 0 2.815-1.28 2.815-2.857 0-1.577-1.26-2.856-2.815-2.856l-8.17-.006v16.664l8.765.003zm3.924-9.019a6.498 6.498 0 0 1 3.745 5.908h-.06l.017.003c0 4.302-3.439 7.803-7.68 7.803l-8.678.001H58V64.567h4.608l8.076-.006c4.1 0 7.424 3.462 7.424 7.517l.011-.068a5.464 5.464 0 0 1-2.873 4.828l.018-.017zM99.67 90.507l-.004-8.335h-10.27v-4.675h10.268v-2.839c0-3.299-2.637-5.973-5.888-5.973-3.252 0-5.888 2.674-5.888 5.973l.013 15.849-4.559.003-.045-15.848c0-5.88 4.699-10.648 10.495-10.648 5.797 0 10.496 4.767 10.496 10.648l.006 15.848-4.624-.003zm26.778-13.67l.019-.016a6.498 6.498 0 0 1 3.744 5.908l.002 7.778h-4.605l.006-7.783c0-1.72-1.375-3.116-3.072-3.116h-7.184v-4.721h6.574l.016.006c1.555 0 2.815-1.28 2.815-2.857 0-1.577-1.26-2.856-2.815-2.856l-8.17-.006.02 21.362h-4.595V64.567h4.607l8.077-.006c4.1 0 7.423 3.462 7.423 7.517l.011-.068a5.464 5.464 0 0 1-2.873 4.828zm19.047 13.671c-7.07 0-12.8-5.813-12.8-12.984 0-7.17 5.73-12.984 12.8-12.984h7.63l-.02 4.654h-7.63c-4.524 0-8.192 3.72-8.192 8.31 0 4.589 3.668 8.31 8.192 8.31h7.63l.02 4.694h-7.63zm22.601-4.181c4.807 0 8.703-3.953 8.703-8.83 0-4.875-3.896-8.829-8.703-8.829-4.806 0-8.703 3.954-8.703 8.83 0 4.876 3.897 8.829 8.703 8.829zm0-3.636c2.827 0 5.12-2.325 5.12-5.194 0-2.868-2.293-5.193-5.12-5.193-2.828 0-5.12 2.325-5.12 5.193 0 2.869 2.292 5.194 5.12 5.194zm-12.344-10.115c1.941-5.023 6.76-8.576 12.394-8.576 5.662 0 10.497 3.585 12.422 8.639l-.011-.03c.516 1.365 1.82 2.335 3.348 2.335l.07-.011h3.9v5.194h-3.9l-.092.006a3.573 3.573 0 0 0-3.324 2.26l.013-.034c-1.922 5.058-6.76 8.648-12.426 8.648-5.615 0-10.418-3.528-12.39-8.558-.543-1.381-1.835-2.33-3.344-2.33l-4.177.008v-5.194l4.161.007c1.537 0 2.847-.98 3.356-2.364z" opacity=".301" fill="#D4E1ED"/></g></svg>