<svg xmlns="http://www.w3.org/2000/svg" width="112.665" height="23.275" viewBox="0 0 112.665 23.275"><g fill-rule="evenodd" clip-rule="evenodd" fill="#FFF"><path d="M11.571 19.229c1.473 0 2.768-1.608 2.768-3.091s-1.295-2.981-2.768-2.981h-6.45V9.108h5.935c1.35 0 2.442-.665 2.442-2.024s-1.093-3.035-2.442-3.035H4.097v15.18h7.474zm3.405-8.179a5.6 5.6 0 0 1 3.248 5.092h-.052l.015.003c0 3.708-2.98 7.131-6.661 7.131H0V0h11.003c3.336 0 6.409 4.049 6.409 6.964v-.061c0 1.806-.971 3.374-2.452 4.161l.016-.014zm20.873 12.225V15.18h-8.194v-4.048h8.489l-.002-1.946c0-2.844-2.286-5.137-5.107-5.137-2.82 0-5.428 2.293-5.428 5.137v14.09h-4.098V9.189c0-5.068 4.512-9.189 9.54-9.189s8.896 4.121 8.896 9.189v14.086h-4.096zm23.529-12.211l.016-.015c1.916.883 3.084 2.831 3.084 5.092v7.134h-4.097v-7.138c0-1.483-.92-1.97-2.392-1.97h-5.803V10.12h5.287c1.35 0 1.883-1.835 1.883-3.194 0-1.358-.533-2.877-1.883-2.877h-7.336v19.227h-4.096V0H55.42c3.557 0 5.008 3.036 6.033 6.964v-.061c.001 1.806-.594 3.374-2.075 4.161zm16.523 12.211c-6.134 0-11.375-5.439-11.375-11.619S69.768 0 75.901 0h6.037v4.049h-6.056c-3.925 0-7.259 3.635-7.259 7.59s3.334 7.59 7.259 7.59h6.056v4.047h-6.037v-.001z"/><path d="M95.505 19.229c4.172 0 7.942-3.393 7.942-7.596s-3.771-7.609-7.942-7.609c-4.168 0-7.422 3.406-7.422 7.609s3.254 7.609 7.422 7.609v-.013zm0-3.12c2.455 0 4.869-2.005 4.869-4.477 0-2.471-2.414-4.549-4.869-4.549-2.451 0-4.349 2.078-4.349 4.549 0 2.472 1.898 4.477 4.349 4.477zM84.799 7.391C86.483 3.063 90.662 0 95.55 0c4.91 0 9.105 3.09 10.775 7.445l-.01-.027c.447 1.178 1.58 1.69 2.904 1.69h3.446v4.048H109.2c-1.305 0-2.422 1.549-2.883 2.695l.01-.029c-1.666 4.36-5.863 7.453-10.777 7.453-4.871 0-9.037-3.041-10.748-7.375-.471-1.191-1.592-2.744-2.901-2.744h-4.06V9.108h4.045c1.333 0 2.47-.524 2.913-1.717z"/></g></svg>