<svg xmlns="http://www.w3.org/2000/svg" width="2560px" height="860px" viewBox="0 0 2560 860"><style>
@keyframes zdd4fgqm9smif9eopajba0gw_t { 0% { transform: translate(1797.2px,152.2px) scale(1,1) translate(-1797.2px,-152.2px); animation-timing-function: cubic-bezier(.4,0,.6,1); } 47.264% { transform: translate(1797.2px,152.2px) scale(1.2,1.2) translate(-1797.2px,-152.2px); animation-timing-function: cubic-bezier(.4,0,.6,1); } 100% { transform: translate(1797.2px,152.2px) scale(1,1) translate(-1797.2px,-152.2px); } }
@keyframes zdd4fgqm9smif9eopajba0gw_o { 0% { opacity: 1; } 12.1% { opacity: 1; animation-timing-function: cubic-bezier(.4,0,.6,1); } 23.64% { opacity: .5; animation-timing-function: cubic-bezier(.4,0,.6,1); } 35.707% { opacity: 1; } 100% { opacity: 1; } }
@keyframes zyzyflxp6y3afragmash4noj_t { 0% { transform: translate(507.5px,312.5px) scale(1,1) translate(-507.5px,-312.5px); animation-timing-function: cubic-bezier(0,0,.6,1); } 52.057% { transform: translate(507.5px,312.5px) scale(1.2,1.2) translate(-507.5px,-312.5px); animation-timing-function: cubic-bezier(.4,0,.6,1); } 100% { transform: translate(507.5px,312.5px) scale(1,1) translate(-507.5px,-312.5px); } }
@keyframes zyzyflxp6y3afragmash4noj_o { 0% { opacity: 1; animation-timing-function: cubic-bezier(0,0,1,1); } 11.57% { opacity: 1; animation-timing-function: cubic-bezier(.4,0,.6,1); } 17.355% { opacity: .5; animation-timing-function: cubic-bezier(.4,0,.6,1); } 23.421% { opacity: 1; animation-timing-function: cubic-bezier(0,0,1,1); } 100% { opacity: 1; } }
@keyframes poomp6pb2u0phdsr0o7c60op_o { 0% { opacity: 1; animation-timing-function: cubic-bezier(.4,0,.6,1); } 48.947% { opacity: .3; animation-timing-function: cubic-bezier(.4,0,.6,1); } 100% { opacity: 1; } }
@keyframes lichx4rdswwutma7n5s38dg4_o { 0% { opacity: .2; } 48.35% { opacity: 1; } 100% { opacity: .2; } }
@keyframes ivao32kwfhudpj113j54jxxg_o { 0% { opacity: 1; animation-timing-function: cubic-bezier(.4,0,.6,1); } 49.972% { opacity: .3; animation-timing-function: cubic-bezier(.4,0,.6,1); } 100% { opacity: 1; } }
@keyframes a7ft5w9slzsbz8z9bh4zqccv_o { 0% { opacity: 1; animation-timing-function: cubic-bezier(.4,0,.6,1); } 48.515% { opacity: .3; animation-timing-function: cubic-bezier(.4,0,.6,1); } 100% { opacity: 1; } }
@keyframes wdapng23y23uk419308upypn_o { 0% { opacity: 1; animation-timing-function: cubic-bezier(.4,0,.6,1); } 49.598% { opacity: .3; animation-timing-function: cubic-bezier(.4,0,.6,1); } 100% { opacity: 1; } }
@keyframes j288k0gpgosorm4qwzci6sm2_o { 0% { opacity: 1; animation-timing-function: cubic-bezier(.4,0,.6,1); } 51.358% { opacity: .3; animation-timing-function: cubic-bezier(.4,0,.6,1); } 100% { opacity: 1; } }
@keyframes e4xb6qvuwq8fw192tkae8szk_o { 0% { opacity: 1; animation-timing-function: cubic-bezier(.4,0,.6,1); } 53.609% { opacity: .3; animation-timing-function: cubic-bezier(.4,0,.6,1); } 100% { opacity: 1; } }
@keyframes ecxuj60y724mungr1qzid9i7_o { 0% { opacity: 1; animation-timing-function: cubic-bezier(.4,0,.6,1); } 49.598% { opacity: .3; animation-timing-function: cubic-bezier(.4,0,.6,1); } 100% { opacity: 1; } }
@keyframes hwqd7zktfo87sd43uznebb3c_o { 0% { opacity: .2; } 48.35% { opacity: 1; } 100% { opacity: .2; } }
@keyframes ewxdjiweaag0tkq0097h5owc_o { 0% { opacity: 1; animation-timing-function: cubic-bezier(.4,0,.6,1); } 47.368% { opacity: .3; animation-timing-function: cubic-bezier(.4,0,.6,1); } 100% { opacity: 1; } }
@keyframes oed8pqfutulgljfzoq13ddt5_t { 0% { transform: translate(2112.2px,597.4px) scale(1,1) translate(-2112.2px,-597.4px); animation-timing-function: cubic-bezier(0,0,.6,1); } 52.941% { transform: translate(2112.2px,597.4px) scale(1.2,1.2) translate(-2112.2px,-597.4px); animation-timing-function: cubic-bezier(.4,0,.6,1); } 100% { transform: translate(2112.2px,597.4px) scale(1,1) translate(-2112.2px,-597.4px); } }
@keyframes oed8pqfutulgljfzoq13ddt5_o { 0% { opacity: 1; animation-timing-function: cubic-bezier(0,0,1,1); } 12.791% { opacity: 1; animation-timing-function: cubic-bezier(.4,0,.6,1); } 20.93% { opacity: .5; animation-timing-function: cubic-bezier(.4,0,.6,1); } 29.465% { opacity: 1; animation-timing-function: cubic-bezier(0,0,1,1); } 100% { opacity: 1; } }
@keyframes ggeioyq5eyw9jp7qqoawzykp_t { 0% { transform: translate(2060.1px,284.1px) scale(1,1) translate(-2060.1px,-284.1px); animation-timing-function: cubic-bezier(0,0,.6,1); } 52.057% { transform: translate(2060.1px,284.1px) scale(1.2,1.2) translate(-2060.1px,-284.1px); animation-timing-function: cubic-bezier(.4,0,.6,1); } 100% { transform: translate(2060.1px,284.1px) scale(1,1) translate(-2060.1px,-284.1px); } }
@keyframes ggeioyq5eyw9jp7qqoawzykp_o { 0% { opacity: 1; animation-timing-function: cubic-bezier(0,0,1,1); } 11.57% { opacity: 1; animation-timing-function: cubic-bezier(.4,0,.6,1); } 17.355% { opacity: .5; animation-timing-function: cubic-bezier(.4,0,.6,1); } 23.421% { opacity: 1; animation-timing-function: cubic-bezier(0,0,1,1); } 100% { opacity: 1; } }
@keyframes ful3az0lv5vpqumn3brm5vcg_t { 0% { transform: translate(460.1px,434.1px) scale(1,1) translate(-460.1px,-434.1px); animation-timing-function: cubic-bezier(.4,0,.6,1); } 47.264% { transform: translate(460.1px,434.1px) scale(1.2,1.2) translate(-460.1px,-434.1px); animation-timing-function: cubic-bezier(.4,0,.6,1); } 100% { transform: translate(460.1px,434.1px) scale(1,1) translate(-460.1px,-434.1px); } }
@keyframes ful3az0lv5vpqumn3brm5vcg_o { 0% { opacity: 1; } 6.049% { opacity: 1; animation-timing-function: cubic-bezier(.4,0,.6,1); } 11.818% { opacity: .5; animation-timing-function: cubic-bezier(.4,0,.6,1); } 17.851% { opacity: 1; } 100% { opacity: 1; } }
</style><title>bg-2-stars</title><desc>Created with Sketch.</desc><path d="M1798.1 140.9l1.3 2.5c1.5 2.8 3.8 5 6.5 6.5l2.6 1.4c.5 .3 .7 .9 .4 1.4c-0.1 .1-0.2 .3-0.4 .4l-2.6 1.3c-2.7 1.5-5 3.8-6.5 6.5l-1.3 2.6c-0.3 .5-0.9 .7-1.4 .4c-0.2-0.1-0.3-0.2-0.4-0.4l-1.4-2.6c-1.5-2.7-3.7-5-6.5-6.5l-2.5-1.3c-0.5-0.3-0.7-0.9-0.4-1.4c.1-0.2 .2-0.3 .4-0.4l2.5-1.4c2.8-1.5 5-3.7 6.5-6.5l1.4-2.5c.3-0.5 .9-0.7 1.4-0.4c.1 .1 .3 .2 .4 .4Z" fill="#f2f3f5" fill-rule="evenodd" transform="translate(1797.2,152.2) translate(-1797.2,-152.2)" style="animation: 1.52s linear infinite both zdd4fgqm9smif9eopajba0gw_t, 3.03s linear infinite both zdd4fgqm9smif9eopajba0gw_o;"/><path d="M508.2 303.2l1.1 2.1c1.3 2.3 3.1 4.1 5.4 5.4l2.1 1.1c.4 .2 .5 .7 .3 1.1c-0.1 .1-0.2 .2-0.3 .3l-2.1 1.1c-2.3 1.3-4.1 3.1-5.4 5.4l-1.1 2.1c-0.2 .4-0.7 .5-1.1 .3c-0.1-0.1-0.2-0.2-0.3-0.3l-1.1-2.1c-1.3-2.3-3.1-4.1-5.4-5.4l-2.1-1.1c-0.4-0.2-0.5-0.7-0.3-1.1c.1-0.1 .2-0.2 .3-0.3l2.1-1.1c2.3-1.3 4.1-3.1 5.4-5.4l1.1-2.1c.2-0.4 .7-0.5 1.1-0.3c.1 .1 .2 .2 .3 .3Z" fill="#f2f3f5" fill-rule="evenodd" transform="translate(507.5,312.5) translate(-507.5,-312.5)" style="animation: 2.02s linear infinite both zyzyflxp6y3afragmash4noj_t, 6.05s linear infinite both zyzyflxp6y3afragmash4noj_o;"/><ellipse rx="1.5" ry="1.5" fill="#f2f3f5" fill-rule="evenodd" transform="translate(1964.5,187.5)" style="animation: 1.57s linear infinite both poomp6pb2u0phdsr0o7c60op_o;"/><ellipse rx="1" ry="1" fill="#f2f3f5" fill-rule="evenodd" opacity=".2" transform="translate(2079.5,470.5)" style="animation: 2s linear infinite both lichx4rdswwutma7n5s38dg4_o;"/><ellipse rx="1" ry="1" fill="#f2f3f5" fill-rule="evenodd" transform="translate(2012.5,277.5)" style="animation: 1.77s linear infinite both ivao32kwfhudpj113j54jxxg_o;"/><ellipse rx="1" ry="1" fill="#f2f3f5" fill-rule="evenodd" transform="translate(1962.5,377.5)" style="animation: 1.72s linear infinite both a7ft5w9slzsbz8z9bh4zqccv_o;"/><ellipse rx="1" ry="1" fill="#f2f3f5" fill-rule="evenodd" transform="translate(2012.5,217.5)" style="animation: 2.12s linear infinite both wdapng23y23uk419308upypn_o;"/><ellipse rx="1" ry="1" fill="#f2f3f5" fill-rule="evenodd" transform="translate(1933,352)" style="animation: 2.47s linear infinite both j288k0gpgosorm4qwzci6sm2_o;"/><ellipse rx="1" ry="1" fill="#f2f3f5" fill-rule="evenodd" transform="translate(2123,232)" style="animation: 2.3s linear infinite both e4xb6qvuwq8fw192tkae8szk_o;"/><ellipse rx="1" ry="1" fill="#f2f3f5" fill-rule="evenodd" transform="translate(583,342)" style="animation: 2.12s linear infinite both ecxuj60y724mungr1qzid9i7_o;"/><ellipse rx="1" ry="1" fill="#f2f3f5" fill-rule="evenodd" opacity=".2" transform="translate(793,642)" style="animation: 2s linear infinite both hwqd7zktfo87sd43uznebb3c_o;"/><ellipse rx="1" ry="1" fill="#f2f3f5" fill-rule="evenodd" transform="translate(763,612)" style="animation: 1.9s linear infinite both ewxdjiweaag0tkq0097h5owc_o;"/><path d="M2113.1 592.4l.1 .1c.6 1.8 2 3.2 3.9 3.9h.1c.5 .2 .8 .8 .6 1.3c-0.1 .3-0.3 .6-0.6 .7h-0.1c-1.9 .6-3.3 2.1-3.9 3.9l-0.1 .1c-0.2 .6-0.7 .8-1.3 .7c-0.3-0.1-0.5-0.4-0.6-0.7v-0.1c-0.7-1.8-2.1-3.3-3.9-3.9h-0.2c-0.5-0.2-0.8-0.8-0.6-1.3c.1-0.3 .3-0.6 .6-0.7h.2c1.8-0.7 3.2-2.1 3.9-3.9v-0.1c.2-0.6 .8-0.9 1.3-0.7c.3 .1 .5 .4 .6 .7Z" fill="#f2f3f5" fill-rule="evenodd" transform="translate(2112.2,597.4) translate(-2112.2,-597.4)" style="animation: 1.7s linear infinite both oed8pqfutulgljfzoq13ddt5_t, 4.3s linear infinite both oed8pqfutulgljfzoq13ddt5_o;"/><path d="M2061 279.6c.6 1.6 2 3 3.6 3.6c.6 .1 .8 .7 .7 1.2c-0.1 .3-0.4 .5-0.7 .6c-1.6 .6-3 2-3.6 3.6c-0.1 .6-0.7 .8-1.2 .7c-0.3-0.1-0.5-0.4-0.6-0.7c-0.6-1.6-2-3-3.6-3.6c-0.6-0.1-0.8-0.7-0.7-1.2c.1-0.3 .4-0.5 .7-0.6c1.6-0.6 3-2 3.6-3.6c.1-0.6 .7-0.8 1.2-0.7c.3 .1 .5 .4 .6 .7Z" fill="#f2f3f5" fill-rule="evenodd" transform="translate(2060.1,284.1) translate(-2060.1,-284.1)" style="animation: 2.02s linear infinite both ggeioyq5eyw9jp7qqoawzykp_t, 6.05s linear infinite both ggeioyq5eyw9jp7qqoawzykp_o;"/><path d="M461 429.6c.6 1.6 2 3 3.6 3.6c.6 .1 .8 .7 .7 1.2c-0.1 .3-0.4 .5-0.7 .6c-1.6 .6-3 2-3.6 3.6c-0.1 .6-0.7 .8-1.2 .7c-0.3-0.1-0.5-0.4-0.6-0.7c-0.6-1.6-2-3-3.6-3.6c-0.6-0.1-0.8-0.7-0.7-1.2c.1-0.3 .4-0.5 .7-0.6c1.6-0.6 3-2 3.6-3.6c.1-0.6 .7-0.8 1.2-0.7c.3 .1 .5 .4 .6 .7Z" fill="#f2f3f5" fill-rule="evenodd" transform="translate(460.1,434.1) translate(-460.1,-434.1)" style="animation: 1.52s linear infinite both ful3az0lv5vpqumn3brm5vcg_t, 6.07s linear infinite both ful3az0lv5vpqumn3brm5vcg_o;"/></svg>