<svg height="860" viewBox="0 0 2560 860" width="2560" xmlns="http://www.w3.org/2000/svg" xmlns:xlink="http://www.w3.org/1999/xlink"><linearGradient id="a" x1="100%" x2="100%" y1="0%" y2="100%"><stop offset="0" stop-color="#c21f36"/><stop offset="1" stop-color="#a21746"/></linearGradient><path d="m66.1796875 671c470.5862335-267.779506 718.2187925-403.198742 742.8976755-406.257707 37.018324-4.588448 100.146849-5.886977 145.31673-15.440941 35.296708-7.465672 92.162707-29.410084 184.919207-29.410084 22.8752 0 57.20726-20.45534 83.17902-20.45534 21.96213 0 91.23003 12.613281 159.33593 12.613281 19.23667 0 340.91006 8.917969 370.23047 8.917969 42.3125 0 359.90185-91.257913 524.41113-101.492187 14.07794-.875802 92.17618-47.1796879 104.54143-47.1796879 138.43996-19.828125 132.43996-45.2433086 178.98872-44.2680684-.1481 0-.1481 214.3242553 0 642.9727653z" fill="url(#a)" fill-rule="evenodd"/></svg>