<svg xmlns="http://www.w3.org/2000/svg" width="580" height="580" viewBox="0 0 580 580" style="background: rgba(0,81,255,0.00);"><style>
@keyframes f88peteuuq5zmsdk1r0husuy_t { 0% { transform: translate(391.3px,383px) rotate(477deg) translate(-365px,-367px); } 100% { transform: translate(391.3px,383px) rotate(117deg) translate(-365px,-367px); } }
@keyframes tktb7z3ds0r9h6ww3g8gacqu_t { 0% { transform: translate(391.3px,383px) rotate(117deg) translate(-365px,-367px); } 100% { transform: translate(391.3px,383px) rotate(477deg) translate(-365px,-367px); } }
</style><title>i580_teaser_big_data</title><desc>Created with Sketch.</desc><path d="M618.7 432.9c-48.7 88.4-179 224.6-335.5 194.5c-131.6-25.4-227.6-172.1-210.4-319.1c27.8-236.2 375-304.8 513.3-198.4c117.2 90.1 69.9 255.2 32.6 323Z" fill="#fff" opacity=".1" fill-rule="evenodd" transform="translate(391.3,383) rotate(477) translate(-365,-367)" style="animation: 14.75s linear infinite both f88peteuuq5zmsdk1r0husuy_t;"/><path d="M636.6 455.1c-46.8 89.1-195.1 202.6-351.1 172.5c-131.3-25.3-259.4-194.3-242.2-340.9c27.7-235.5 376.7-290.5 514.7-184.3c116.8 89.8 139.1 237.6 78.6 352.7Z" fill="none" opacity=".2" stroke="#fff" stroke-width="1.5" transform="translate(391.3,383) rotate(117) translate(-365,-367)" style="animation: 14.25s linear infinite both tktb7z3ds0r9h6ww3g8gacqu_t;"/></svg>