<svg height="860" viewBox="0 0 2560 860" width="2560" xmlns="http://www.w3.org/2000/svg" xmlns:xlink="http://www.w3.org/1999/xlink"><linearGradient id="a" x1="88.150414%" x2="3.557809%" y1="87.34779%" y2="15.746599%"><stop offset="0" stop-color="#ea3f57"/><stop offset="1" stop-color="#b22639"/></linearGradient><g fill="none" fill-rule="evenodd"><path d="m2560 860.162266h-2560v-420.728773l55.3931038-8.014259c344.3228512-49.767426 565.1430442-80.733512 662.4605792-92.89826 102.950344-12.868851 189.856066-13.642619 280.539393-24.233534 77.790314-9.085139 476.454704-70.28744 614.346974-70.28744s284.44444-13 391.69399-13h4.42561c74.50019.175067 259.54594 4.506667 551.14035 13z" fill="#ed4159"/><path d="m1438.64293 428.54605c5.70736 5.635967 7.8833 8.45395 6.52783 8.45395-2.03321 0-6.88168-3.685889-12.43979-7.880931-3.59729-2.92009-6.53526-5.347979-8.81391-7.283667l-6.50964-5.574663-2.81306-2.0443-1.52141-1.667609c-10.48385-6.775302-16.09107-10.475778-16.82166-11.101427-.73058-.625649-2.01681-1.727139-3.85868-3.304468l-7.31908-5.623746-16.5039-12.854782-8.73451-7.24996-.39166-.695428c-9.29804-7.700569-14.55069-12.347108-15.75793-13.939615-.03673-.126944 3.64532 2.922061 11.04616 9.147013-2.30287-2.002708-2.99879-2.778856-2.08776-2.328444.91102.450413 2.59594 1.776418 5.05475 3.978017l1.93375 1.251002 6.12875 5.017611 8.13066 5.845798c-11.70049-10.043895-17.70759-15.23694-18.02129-15.579135s-.79616-.853714-1.44737-1.534555c-5.82679-4.547882-9.23645-7.283766-10.22899-8.207653-1.4888-1.38583-3.97184-3.512233-5.40481-4.73938-1.43296-1.227148-4.72181-3.8219-5.25181-4.38664-.35334-.376493-.763-.813009-1.22898-1.309546-.07395-.330565-.56067-.84573-1.46015-1.545495s-5.723-4.64644-14.47057-11.840025l-22.25082-19.312036c-.65427-.811136-1.25857-1.39135-1.8129-1.740641-.55432-.349291-1.35082-.882985-2.38949-1.601082-6.06562-4.145566-9.95387-7.421801-8.98407-7.421801 1.4547 0 1.32481-1.846716 3.44328-.341729 1.41232 1.003326 7.02628 6.326055 9.48886 8.504788 4.29944 3.416628 7.181 5.751674 8.6447 7.005141 2.19554 1.8802 11.85155 9.716484 16.22537 13.462099 4.37382 3.745616 10.97288 8.934423 16.37791 13.285286s7.11243 6.014533 7.5262 6.014533 1.77473.86258-1.12156-1.803229-12.68709-11.193974-14.30379-12.841477-10.413-8.979661-14.48419-12.823145c-4.0712-3.843484-12.02172-10.757557-13.58305-12.299208-1.56132-1.541651-8.45813-7.223035-9.29484-8.504788-.8367-1.281752.58481-.576271 3.69393 0 1.15065.48136 7.57312 7.022272 7.80777 7.76353s4.93622 3.919177 6.81105 5.832788c1.87484 1.913611 15.95677 13.439037 22.09145 19.145571 6.13467 5.706535 22.86082 19.454256 28.84531 24.579198 5.98449 5.124941 6.2463 5.602161 7.89788 6.659496 1.10105.70489 7.70982 6.440143 19.82629 17.20576l-7.21012-7.472423-6.7315-6.268613c-2.52803-2.146209-3.93783-3.472215-4.2294-3.978017-.29156-.505802.34974-.081803 1.92391 1.271996-8.21555-7.15633-10.09797-8.971043-5.64724-5.44414s8.9931 7.2913 13.62711 11.29319l2.15722 1.455905c2.49559 2.208498 4.25737 3.752909 5.28535 4.633233 1.54195 1.320487 11.13352 10.395946 13.32669 12.553489 1.46211 1.438362 4.11432 4.032125 7.95663 7.781289 2.60007 2.118218 4.69852 4.047401 6.29535 5.787549 1.90358 2.074417 5.68343 6.84932 6.78316 8.351724.37994.519059 2.59977 2.45044 4.40936 3.978531 5.87704 4.962812 10.49812 9.057916 13.86325 12.285311z" fill="url(#a)"/><path d="m1289.46367 263.567496c-.90942-1.711664-2.04186-2.567496-3.39733-2.567496-2.03321 0-2.55435 1.119418-3.18737 2.393468-.16903.886842-.2566 1.624201-.2627 2.212077l.03517 1.693046-.413.620861.43641.506459-.48901.399086c-2.2032 1.804294-3.30297 2.795114-3.29928 2.972458l.02084 1.00358-.71665 1.707952-1.41204 3.904045-.22288 2.20184.4248.211204c-.25737 2.338691-.05486 3.749862.60755 4.233512.1123.038554.21474-.88744.30732-2.777981.04836.60823.26366.843948.64589.707157.38223-.136792.51038-.539505.38446-1.208139l.46504-.379934.23794-1.523867 1.26755-1.77539.05646 1.704143c.07188 1.935775.14273 2.944874.21256 3.027298l.12007.149394c.06724.08704.14529.192591.23416.316656l-.16001.464635c-.34528 1.030831-.49402 1.688442-.44623 1.972831l.01325.055228c.1382.420882.15161 1.066678.15935 1.439368.00775.372689-.2348 1.160725-.10178 1.332238l.30847.397715c.27923.089238.40357.222775.37302.400608l-.0416.146573c-.08896.350624-.27136 1.523308-.54719 3.51805l.42202 5.865137c.29802.246345.3749.422558.23066.528639-.1154.084865-.24724.205573-.39551.362122l-.11428.124133c-1.19861 1.259024-1.31301 1.888535-.34321 1.888535 1.4547 0 2.86084-.206983 3.21242-.664054.23439-.304713.30392-.787915.20861-1.449604l.13177-.491448c.17916-.696112.27502-1.207453.2876-1.534025l.00111-.102014c-.01186-.571024.44414-2.950932.42051-4.088489-.02363-1.137558.48364-2.713418.78064-4.034791s.0512-1.826636.46497-1.826636.76204-.261969.99548.547647c.22116.767005.43159 3.131948.7231 3.8042l.04935.095804c.30163.475336.14691 2.508793.50892 3.711747l.06159.18269c.41794 1.105845.58962 3.048658.81793 3.648203l.03862.087112c.24862.468205-.41338 1.060331.25473 1.449604l.13935.086644c.59106.387808 1.06471.914941 3.32352.752426.55891-.139545.04637-1.687783-.5542-2.024042l-.08628-.039509c-.6003-.212616.23211-1.085314.01324-1.671215l-.05004-.100224c-.35852-.560415.14082-3.835186-.3296-5.622344l-.05636-.192237c-.56494-1.733096.02102-5.90833-.01131-7.464793-.03233-1.556464-.33079-1.701398.07946-2.022514.27349-.214078.14891-1.955896-.37373-5.225453l1.5627 2.269402.62802 1.903801c-.00833.651812.13864 1.054525.4409 1.208139s.44577.024844.43055-.38631l.03806.41305c.18146 1.826628.41688 2.24008.70626 1.240355.31006-1.071133.43292-2.214394.36861-3.429783l.44795-.442164-.05804-.417273c-.05978-.45196-.09183-.781912-.09615-.989857-.00797-.3836-.98113-2.922066-1.36316-3.715525l-.4683-.926109c-.20469-.409631-.45762-.921002-.75878-1.534113.11322-.643311-.05324-1.229211-.49939-1.757701-.53184-.630008-2.35785-2.080163-3.02199-2.536449-.2065-.141876-.26575-.631183-.26419-1.065945l.00266-.142349c.05057-1.507225-.13611-2.750923-.56003-3.731095z" fill="#431c21"/><g fill="#ed4159" fill-rule="nonzero"><path d="m1286.06634 261c1.35547 0 2.48791.855832 3.39733 2.567496.38859.898491.57784 2.018417.56773 3.359779l-.01036.513665c-.00156.434762.05769.924069.26419 1.065945.66414.456286 2.49015 1.906441 3.02199 2.536449.44615.52849.61261 1.11439.49939 1.757701l.75878 1.534113.4683.926109c.38203.793459 1.35519 3.331925 1.36316 3.715525l.01049.208118c.01152.158664.0321.357168.06174.595511l.08196.603501-.44795.442164c.06431 1.215389-.05855 2.35865-.36861 3.429783l-.06118.192597c-.24143.683865-.44322.329478-.60537-1.063162l-.03971-.36979-.03806-.41305c.01522.411154-.12829.539924-.43055.38631-.27478-.139649-.42122-.485165-.43932-1.036548l-.00158-.171591-.62802-1.903801-1.5627-2.269402.09922.633542c.43827 2.861468.52977 4.392105.27451 4.591911-.41025.321116-.11179.46605-.07946 2.022514.03098 1.49161-.50588 5.388307-.05344 7.235802l.12111.421228c.45362 1.72333.00551 4.829914.29439 5.552104l.08525.170464c.206.551436-.51925 1.356921-.10481 1.627035l.17785.083689c.60057.336259 1.11311 1.884497.5542 2.024042-1.9113.137513-2.54447-.218747-3.05213-.566563l-.27139-.185863-.13935-.086644c-.62635-.364943-.08367-.908175-.21823-1.360443l-.0365-.089161-.03862-.087112c-.21488-.564277-.3796-2.31844-.74667-3.444809l-.13285-.386084c-.34296-1.139641-.22214-3.024664-.46495-3.624093l-.09332-.183458c-.29151-.672252-.50194-3.037195-.7231-3.8042-.23344-.809616-.58171-.547647-.99548-.547647s-.16797.505263-.46497 1.826636-.80427 2.897233-.78064 4.034791c.02238 1.077685-.3857 3.27039-.41863 3.98374l-.00299.206763c-.01118.290286-.08817.726563-.23097 1.308831l-.05663.225194-.13177.491448c.09531.661689.02578 1.144891-.20861 1.449604-.35158.457071-1.75772.664054-3.21242.664054-.9325 0-.86259-.582019.20972-1.746057l.24777-.266611c.14827-.156549.28011-.277257.39551-.362122.12822-.094294.08171-.244001-.13951-.449121l-.09115-.079518-.42202-5.865137.22302-1.573312c.12088-.825829.21349-1.402985.27784-1.731468l.04633-.21327.0416-.146573c.02673-.155604-.06512-.277293-.27557-.365067l-.09745-.035541-.30847-.397715c-.13302-.171513.10953-.959549.10178-1.332238l-.0108-.374716c-.01183-.278912-.03663-.600539-.09661-.871955l-.06519-.247925c-.04411-.262513.07923-.843037.37004-1.741572l.07619-.231259.16001-.464635-.16332-.223446-.07084-.09321-.12007-.149394c-.05713-.067438-.11495-.755212-.17346-2.063323l-.0391-.963975-.05646-1.704143-1.26755 1.77539-.23794 1.523867-.46504.379934c.12592.668634-.00223 1.071347-.38446 1.208139-.38223.136791-.59753-.098927-.64589-.707157l-.05148.935546c-.07868 1.259834-.16396 1.873979-.25584 1.842435-.63361-.462622-.84644-1.773864-.63851-3.933726l.03096-.299786-.4248-.211204.22288-2.20184 1.41204-3.904045.71665-1.707952-.02084-1.00358c-.00329-.158343.87308-.965184 2.62911-2.420522l.67017-.551936.48901-.399086-.43641-.506459.413-.620861-.03517-1.693046c.0061-.587876.09367-1.325235.2627-2.212077l.29013-.57353c.53903-1.018461 1.17683-1.819938 2.89724-1.819938zm.02231 3.002263-.02231-.002263-.12634.003-.08862.161983-.09638.183017-.01087.066271c-.07147.433278-.11226.78516-.12466 1.02093l-.00385.108048.03517 1.693045c.00318.153085-.00538.305496-.02529.45597l-.0185.104736.02354.112094c.16935.974371-.14787 2.007633-.91821 2.718935l-.14064.122104-.48508.395873c-.69237.567008-1.26942 1.048686-1.7281 1.442064l-.45851.39793-.01371.170288c-.02472.207305-.07104.411658-.13831.609695l-.07424.195806-.48374 1.152211.07569.008498c1.30221.170091 2.48715 1.166466 2.6188 2.70628l.01024.173312.05604 1.692168.04601 1.112558.04722.873184.02934.044559c.43367.703267.55802 1.555071.34351 2.352964l-.06071.198233-.15185.440632c-.06139.183272-.11426.348784-.15849.49516l-.0968.338452.021.114.07988-.086964c.56506-.586371 1.32637-.919583 2.13208-.967376l.05304-.00266.13516-.016102c.13253-.016128.23043-.02433.35601-.026858l.13711-.00072c.5182.003449 1.04022.111514 1.55729.378079.26955.138959.50537.300358.71187.481709l.07556.070892.00506-.077288c.00825-.168965.01119-.280326.01117-.380093l-.00133-.118934c-.00423-.204001-.01409-.376644-.0295-.542802l-.05802-.484533c-.02676-.209358-.04142-.35798-.04664-.546989-.01378-.498695.06612-.988259.25807-1.449605l.08219-.184756-.00795-.129033-.03221-.383049c-.07168-.755023-.21276-1.799251-.42324-3.115953-.28442-1.779298.90185-3.080275 2.31595-3.405404l.09345-.019561-.26108-.532305c-.18696-.380615-.29004-.794279-.30532-1.21338l-.0006-.137315-.03258-.030663c-.43586-.398594-1.29755-1.104844-1.88189-1.541158l-.3071-.221632c-.89463-.614641-1.26126-1.384777-1.44847-2.284967-.06834-.328575-.10315-.664027-.11328-1.029504l-.00312-.280098.00382-.186985c.03341-.995561-.06438-1.757776-.25521-2.287625l-.02417-.060368-.01543-.029592c-.35052-.633489-.53882-.797891-.64192-.818145z" fill-opacity=".04"/><path d="m1286.06634 261c1.35547 0 2.48791.855832 3.39733 2.567496.38859.898491.57784 2.018417.56773 3.359779l-.01036.513665c-.00156.434762.05769.924069.26419 1.065945.66414.456286 2.49015 1.906441 3.02199 2.536449.44615.52849.61261 1.11439.49939 1.757701l.75878 1.534113.4683.926109c.38203.793459 1.35519 3.331925 1.36316 3.715525l.01049.208118c.01152.158664.0321.357168.06174.595511l.08196.603501-.44795.442164c.06431 1.215389-.05855 2.35865-.36861 3.429783l-.06118.192597c-.24143.683865-.44322.329478-.60537-1.063162l-.03971-.36979-.03806-.41305c.01522.411154-.12829.539924-.43055.38631-.27478-.139649-.42122-.485165-.43932-1.036548l-.00158-.171591-.62802-1.903801-1.5627-2.269402.09922.633542c.43827 2.861468.52977 4.392105.27451 4.591911-.41025.321116-.11179.46605-.07946 2.022514.03098 1.49161-.50588 5.388307-.05344 7.235802l.12111.421228c.45362 1.72333.00551 4.829914.29439 5.552104l.08525.170464c.206.551436-.51925 1.356921-.10481 1.627035l.17785.083689c.60057.336259 1.11311 1.884497.5542 2.024042-1.9113.137513-2.54447-.218747-3.05213-.566563l-.27139-.185863-.13935-.086644c-.62635-.364943-.08367-.908175-.21823-1.360443l-.0365-.089161-.03862-.087112c-.21488-.564277-.3796-2.31844-.74667-3.444809l-.13285-.386084c-.34296-1.139641-.22214-3.024664-.46495-3.624093l-.09332-.183458c-.29151-.672252-.50194-3.037195-.7231-3.8042-.23344-.809616-.58171-.547647-.99548-.547647s-.16797.505263-.46497 1.826636-.80427 2.897233-.78064 4.034791c.02238 1.077685-.3857 3.27039-.41863 3.98374l-.00299.206763c-.01118.290286-.08817.726563-.23097 1.308831l-.05663.225194-.13177.491448c.09531.661689.02578 1.144891-.20861 1.449604-.35158.457071-1.75772.664054-3.21242.664054-.9325 0-.86259-.582019.20972-1.746057l.24777-.266611c.14827-.156549.28011-.277257.39551-.362122.12822-.094294.08171-.244001-.13951-.449121l-.09115-.079518-.42202-5.865137.22302-1.573312c.12088-.825829.21349-1.402985.27784-1.731468l.04633-.21327.0416-.146573c.02673-.155604-.06512-.277293-.27557-.365067l-.09745-.035541-.30847-.397715c-.13302-.171513.10953-.959549.10178-1.332238l-.0108-.374716c-.01183-.278912-.03663-.600539-.09661-.871955l-.06519-.247925c-.04411-.262513.07923-.843037.37004-1.741572l.07619-.231259.16001-.464635-.16332-.223446-.07084-.09321-.12007-.149394c-.05713-.067438-.11495-.755212-.17346-2.063323l-.0391-.963975-.05646-1.704143-1.26755 1.77539-.23794 1.523867-.46504.379934c.12592.668634-.00223 1.071347-.38446 1.208139-.38223.136791-.59753-.098927-.64589-.707157l-.05148.935546c-.07868 1.259834-.16396 1.873979-.25584 1.842435-.63361-.462622-.84644-1.773864-.63851-3.933726l.03096-.299786-.4248-.211204.22288-2.20184 1.41204-3.904045.71665-1.707952-.02084-1.00358c-.00329-.158343.87308-.965184 2.62911-2.420522l.67017-.551936.48901-.399086-.43641-.506459.413-.620861-.03517-1.693046c.0061-.587876.09367-1.325235.2627-2.212077l.29013-.57353c.53903-1.018461 1.17683-1.819938 2.89724-1.819938zm3.45946 27.695329.24615 1.598373c.02868.174471.05486.325539.07766.450626l.07539.373672.06966.123922.03634.073078-.01512-.211098c-.04016-.624476-.03906-1.336445-.00798-2.161296l.03764-.806905.16962-2.736647c.00787-.174505.00994-.290337.009-.403963l-.00147-.098172c-.00475-.228786-.01601-.425246-.03357-.614507l-.08039-.70848c-.01071-.107135-.01885-.202894-.02038-.258193-.01328-.480801.09083-.939869.34444-1.355396l.00821-.013343-.01178-.273561-.01072-.16481c-.05735-.801876-.2125-2.003184-.46544-3.585511-.29729-1.859832 1.81567-2.935765 3.14528-1.949373l.08966.071255-.75808-1.513008-.41844-.849184c-.16025-.326241-.22806-.688904-.19788-1.048864l.02328-.179574c.00868-.049327.01181-.038315-.05791-.120906-.3195-.378475-1.9075-1.684312-2.62627-2.178138-.90606-.622491-1.11293-1.397578-1.13018-2.534275l-.00113-.217419.00343-.172106c.03791-1.12978-.07956-2.02758-.32633-2.694069l-.04649-.113457-.06473-.118752c-.51036-.897461-.96714-1.256678-1.4232-1.300584l-.09773-.004664c-.63071 0-.75843.045625-1.11354.722635l-.1588.309365-.03846.231698c-.07717.471164-.1218.865918-.13545 1.161119l-.00425.139197.03516 1.693046c.00364.174954-.01572.348588-.05682.51666l-.01418.04528c.22479.712779.04163 1.508523-.5155 2.04543l-.12509.110962-1.00312.821939c-.74062.611991-1.32588 1.108998-1.75261 1.487953l-.28168.253716.00497.220504c.00465.223729-.02829.446248-.09707.658369l-.05827.156998-.69363 1.649129-.502 1.388.01622-.014556c1.16332-1.050011 3.14064-.359073 3.31233 1.281226l.01073.156535.05618 1.696159.05811 1.3644.05643.929236.07954.109277c.34294.478761.45577 1.081566.31497 1.647391l-.04987.168478-.15458.448633-.13723.424608c-.06069.195946-.10948.367029-.14625.511793l-.04658.19682.01285.052934c.0306.142966.05496.290374.07457.44389l.02606.235064c.02839.297886.03787.530156.04608.925568.00266.127888.00012.23273-.00967.34611l-.02389.201434.03129.030853c.41644.435001.65422 1.023672.57894 1.748371l-.02542.183999-.04708.207311-.02705.09244-.03576.171314c-.06295.335598-.17399 1.048849-.32203 2.083784l-.11889.838928.048.659.00514-.144135-.0001-.102232c-.01478-.711573.0863-1.415335.31262-2.403951l.47147-1.915392.08888-.403177c.02442-.125775.04031-.236076.05602-.389629l.03861-.443261c.03832-.477757.07453-.705169.2538-1.083503.36248-.765004 1.07142-1.203123 1.85486-1.258139l.1406-.008594.21781-.026354c.09232-.008972.17052-.012083.28292-.011335.37143.002472.7412.079021 1.10573.266941.72007.371218 1.11352.984801 1.33905 1.766987.02825.097955.05425.201603.07932.313964l.03706.175453c.03517.175213.06973.371292.10801.608686z" fill-opacity=".07"/><path d="m1286.06634 261c1.35547 0 2.48791.855832 3.39733 2.567496.38859.898491.57784 2.018417.56773 3.359779l-.01036.513665c-.00156.434762.05769.924069.26419 1.065945.66414.456286 2.49015 1.906441 3.02199 2.536449.44615.52849.61261 1.11439.49939 1.757701l.75878 1.534113.4683.926109c.38203.793459 1.35519 3.331925 1.36316 3.715525l.01049.208118c.01152.158664.0321.357168.06174.595511l.08196.603501-.44795.442164c.06431 1.215389-.05855 2.35865-.36861 3.429783l-.06118.192597c-.24143.683865-.44322.329478-.60537-1.063162l-.03971-.36979-.03806-.41305c.01522.411154-.12829.539924-.43055.38631-.27478-.139649-.42122-.485165-.43932-1.036548l-.00158-.171591-.62802-1.903801-1.5627-2.269402.09922.633542c.43827 2.861468.52977 4.392105.27451 4.591911-.41025.321116-.11179.46605-.07946 2.022514.03098 1.49161-.50588 5.388307-.05344 7.235802l.12111.421228c.45362 1.72333.00551 4.829914.29439 5.552104l.08525.170464c.206.551436-.51925 1.356921-.10481 1.627035l.17785.083689c.60057.336259 1.11311 1.884497.5542 2.024042-1.9113.137513-2.54447-.218747-3.05213-.566563l-.27139-.185863-.13935-.086644c-.62635-.364943-.08367-.908175-.21823-1.360443l-.0365-.089161-.03862-.087112c-.21488-.564277-.3796-2.31844-.74667-3.444809l-.13285-.386084c-.34296-1.139641-.22214-3.024664-.46495-3.624093l-.09332-.183458c-.29151-.672252-.50194-3.037195-.7231-3.8042-.23344-.809616-.58171-.547647-.99548-.547647s-.16797.505263-.46497 1.826636-.80427 2.897233-.78064 4.034791c.02238 1.077685-.3857 3.27039-.41863 3.98374l-.00299.206763c-.01118.290286-.08817.726563-.23097 1.308831l-.05663.225194-.13177.491448c.09531.661689.02578 1.144891-.20861 1.449604-.35158.457071-1.75772.664054-3.21242.664054-.9325 0-.86259-.582019.20972-1.746057l.24777-.266611c.14827-.156549.28011-.277257.39551-.362122.12822-.094294.08171-.244001-.13951-.449121l-.09115-.079518-.42202-5.865137.22302-1.573312c.12088-.825829.21349-1.402985.27784-1.731468l.04633-.21327.0416-.146573c.02673-.155604-.06512-.277293-.27557-.365067l-.09745-.035541-.30847-.397715c-.13302-.171513.10953-.959549.10178-1.332238l-.0108-.374716c-.01183-.278912-.03663-.600539-.09661-.871955l-.06519-.247925c-.04411-.262513.07923-.843037.37004-1.741572l.07619-.231259.16001-.464635-.16332-.223446-.07084-.09321-.12007-.149394c-.05713-.067438-.11495-.755212-.17346-2.063323l-.0391-.963975-.05646-1.704143-1.26755 1.77539-.23794 1.523867-.46504.379934c.12592.668634-.00223 1.071347-.38446 1.208139-.38223.136791-.59753-.098927-.64589-.707157l-.05148.935546c-.07868 1.259834-.16396 1.873979-.25584 1.842435-.63361-.462622-.84644-1.773864-.63851-3.933726l.03096-.299786-.4248-.211204.22288-2.20184 1.41204-3.904045.71665-1.707952-.02084-1.00358c-.00329-.158343.87308-.965184 2.62911-2.420522l.67017-.551936.48901-.399086-.43641-.506459.413-.620861-.03517-1.693046c.0061-.587876.09367-1.325235.2627-2.212077l.29013-.57353c.53903-1.018461 1.17683-1.819938 2.89724-1.819938zm0 1c-1.1067 0-1.48771.277656-2.06981 1.396801l-.15953.314199-.03161.174893c-.10451.595841-.16538 1.103423-.18371 1.506268l-.00562.192618.03516 1.693046c.00339.16329-.03327.324281-.10596.469178l-.05826.098997.02267.029177c.25587.386702.21063.902228-.10868 1.238454l-.09386.087021-.4877.398014c-.9996.818617-1.76779 1.466416-2.30167 1.940598l-.37281.338312c-.06996.065256-.13215.124589-.18638.177766l-.06557.064658.01419.660269c.00193.093221-.00918.186021-.03284.275742l-.04483.131942-.69839 1.661157-1.37113 3.78989-.143 1.416.01452.011823c.21605.185195.34481.456012.34904.744247l-.00593.124397-.03463.347533.04282.001939.07018.008061.00834-.015031c.03959-.068113.08742-.131871.14291-.189685l.08891-.082067.16784-.137217.1798-1.14645c.01802-.115412.05608-.226472.11215-.328264l.06202-.098521 1.26754-1.77539c.53243-.745737 1.68065-.436545 1.80327.431581l.01005.116363.05632 1.700151c.03557.957836.07077 1.684272.10528 2.175721l.01951.253495.01806.197314.1456.194423.09199.127178c.16504.230404.22349.518265.16487.791794l-.03233.11614-.15729.456634-.19693.620294-.22511.801632-.00906-.023438c.08434.25685.13556.546439.16725.879085.0152.159479.02442.300368.03104.467811l.01075.383668c.00384.184746-.01082.323471-.05832.612087l-.05846.345692.10585.063528c.39029.254993.63319.646606.59414 1.157175l-.01773.142183-.02355.103655-.03432.119507-.04105.192292c-.05346.278386-.13283.771262-.23558 1.465889l-.23476 1.646771.387 5.384.01161.012344c.45194.526385.5799 1.148045-.04703 1.682053l-.11155.088159c-.03088.02271-.06874.054597-.11149.094092l-.14076.139736-.28178.303616.21246-.01611.33359-.036382c.05339-.00688.10561-.014164.15658-.021845l.22051-.037228.23151-.049756c.24097-.05797.37536-.108819.35373-.080691.0395-.051358.07199-.277098.01145-.697328-.01288-.089396-.01355-.179915-.00218-.2691l.02609-.13247.12921-.481702c.14467-.562117.22779-.982169.25044-1.216542l.00566-.079101.00127-.070388c-.0035-.168261.01322-.379743.05007-.690157l.05052-.397588.18203-1.346752.05759-.477059c.05006-.444934.0774-.794212.08067-1.054295l-.00037-.122638c-.01404-.675834.10097-1.388757.36001-2.468098l.41351-1.669352.08306-.381751c.03594-.185117.05618-.340219.07872-.587206l.02931-.348292c.02779-.346543.05375-.509589.16068-.735248.19263-.406522.55655-.642023.97774-.685058l.17287-.009516.07328-.009125c.4418-.058882.65863-.057439 1.01613.126857.42934.221339.67975.611849.83642 1.155196.03365.116696.06508.251231.09679.409187l.07488.411054.27412 1.771887c.08844.542254.15499.875578.19428.999752l.01586.049374c.24187.381157.29785.710082.36316 1.70147l.05833.899839.00875.110274c.03922.486273.09016.855653.15385 1.113018l.02808.103456.04943.148649c.14407.38121.26242.829274.37839 1.393526l.0579.292037c.04445.231945.24947 1.406137.30033 1.645693l.06004.265126.00767.023484c.20318.382642.21714.693861.13718 1.104702l-.0226.101197.25532.17555c.35292.23975.69652.373248 1.30315.404439l.23653.006011-.02302-.05088c-.02404-.052928-.03898-.088704-.03429-.098027l.01161-.000161c-.59328-.21488-.91285-.727872-.89073-1.312469.00751-.198453.02755-.31123.09915-.536114l.15628-.477349-.02157-.0406c-.16426-.3218-.20042-.660204-.19146-1.62233l.02835-1.830254-.00029-.246833c-.00442-.795465-.04916-1.407646-.13964-1.841086l-.03608-.154171-.0475-.16362c-.27135-.832412-.33705-1.994889-.27587-3.641715l.01503-.360361c.01328-.288839.02912-.576814.04998-.914173l.13308-2.08497c.02039-.374929.02193-.536844.01744-.752733-.00526-.253572-.01792-.47385-.03763-.686212l-.02369-.216589-.05058-.427949-.0226-.257287c-.00903-.326949.06481-.620821.24924-.8838l.09979-.127317.00355-.069517c.00507-.148456.00119-.343964-.01249-.582902l-.01211-.18729c-.05982-.836392-.21829-2.063468-.47542-3.672021-.1622-1.014692 1.11047-1.562713 1.74348-.813605l.0676.088615 1.5627 2.269402c.03591.05214.06674.107513.09212.165355l.03393.088519.62801 1.903801c.01156.035049.02116.070657.02876.106658l.00487.033985.014.002.0025-.319775-.01401-.411307c-.01295-.244672.06438-.484067.21485-.67393l.08125-.090598.09041-.09039-.01511-.126822c-.03195-.257396-.05433-.474805-.06703-.655564l-.0118-.244067-.02002-.086838c-.1277-.441733-.83389-2.321286-1.18573-3.091326l-.05001-.106866-.6923-1.376092c-.15859-.319694-.33856-.684505-.53996-1.094504-.07478-.152246-.1093-.320355-.1013-.488424l.014-.125795c.06096-.346318-.02071-.633763-.27864-.939303-.3902-.462215-2.03768-1.816969-2.82414-2.357293-.53132-.365039-.68041-.92551-.69632-1.721045l-.00142-.187775.00304-.157228c.04596-1.369855-.11916-2.46991-.44369-3.22837-.75087-1.413255-1.5758-2.036688-2.51423-2.036688z" fill-opacity=".1"/></g></g></svg>