<svg height="321" viewBox="0 0 731 321" width="731" xmlns="http://www.w3.org/2000/svg"><g fill="#d8d8d8" fill-rule="evenodd" opacity=".634719" transform="translate(.079058 -170)"><path d="m84 184c.5522847 0 1 .447715 1 1v4h4c.5522847 0 1 .447715 1 1s-.4477153 1-1 1h-4v4c0 .552285-.4477153 1-1 1s-1-.447715-1-1v-4h-4c-.5522847 0-1-.447715-1-1s.4477153-1 1-1h4v-4c0-.552285.4477153-1 1-1z"/><path d="m174 184c.552285 0 1 .447715 1 1v4h4c.552285 0 1 .447715 1 1s-.447715 1-1 1h-4v4c0 .552285-.447715 1-1 1s-1-.447715-1-1v-4h-4c-.552285 0-1-.447715-1-1s.447715-1 1-1h4v-4c0-.552285.447715-1 1-1z"/><path d="m264 184c.552285 0 1 .447715 1 1v4h4c.552285 0 1 .447715 1 1s-.447715 1-1 1h-4v4c0 .552285-.447715 1-1 1s-1-.447715-1-1v-4h-4c-.552285 0-1-.447715-1-1s.447715-1 1-1h4v-4c0-.552285.447715-1 1-1z"/><path d="m354 184c.552285 0 1 .447715 1 1v4h4c.552285 0 1 .447715 1 1s-.447715 1-1 1h-4v4c0 .552285-.447715 1-1 1s-1-.447715-1-1v-4h-4c-.552285 0-1-.447715-1-1s.447715-1 1-1h4v-4c0-.552285.447715-1 1-1z"/><path d="m444 184c.552285 0 1 .447715 1 1v4h4c.552285 0 1 .447715 1 1s-.447715 1-1 1h-4v4c0 .552285-.447715 1-1 1s-1-.447715-1-1v-4h-4c-.552285 0-1-.447715-1-1s.447715-1 1-1h4v-4c0-.552285.447715-1 1-1z"/><path d="m534 184c.552285 0 1 .447715 1 1v4h4c.552285 0 1 .447715 1 1s-.447715 1-1 1h-4v4c0 .552285-.447715 1-1 1s-1-.447715-1-1v-4h-4c-.552285 0-1-.447715-1-1s.447715-1 1-1h4v-4c0-.552285.447715-1 1-1z"/><path d="m624 184c.552285 0 1 .447715 1 1v4h4c.552285 0 1 .447715 1 1s-.447715 1-1 1h-4v4c0 .552285-.447715 1-1 1s-1-.447715-1-1v-4h-4c-.552285 0-1-.447715-1-1s.447715-1 1-1h4v-4c0-.552285.447715-1 1-1z"/><path d="m714 184c.552285 0 1 .447715 1 1v4h4c.552285 0 1 .447715 1 1s-.447715 1-1 1h-4v4c0 .552285-.447715 1-1 1s-1-.447715-1-1v-4h-4c-.552285 0-1-.447715-1-1s.447715-1 1-1h4v-4c0-.552285.447715-1 1-1z"/><path d="m84 276c.5522847 0 1 .447715 1 1v4h4c.5522847 0 1 .447715 1 1s-.4477153 1-1 1h-4v4c0 .552285-.4477153 1-1 1s-1-.447715-1-1v-4h-4c-.5522847 0-1-.447715-1-1s.4477153-1 1-1h4v-4c0-.552285.4477153-1 1-1z"/><path d="m174 276c.552285 0 1 .447715 1 1v4h4c.552285 0 1 .447715 1 1s-.447715 1-1 1h-4v4c0 .552285-.447715 1-1 1s-1-.447715-1-1v-4h-4c-.552285 0-1-.447715-1-1s.447715-1 1-1h4v-4c0-.552285.447715-1 1-1z"/><path d="m264 276c.552285 0 1 .447715 1 1v4h4c.552285 0 1 .447715 1 1s-.447715 1-1 1h-4v4c0 .552285-.447715 1-1 1s-1-.447715-1-1v-4h-4c-.552285 0-1-.447715-1-1s.447715-1 1-1h4v-4c0-.552285.447715-1 1-1z"/><path d="m354 276c.552285 0 1 .447715 1 1v4h4c.552285 0 1 .447715 1 1s-.447715 1-1 1h-4v4c0 .552285-.447715 1-1 1s-1-.447715-1-1v-4h-4c-.552285 0-1-.447715-1-1s.447715-1 1-1h4v-4c0-.552285.447715-1 1-1z"/><path d="m444 276c.552285 0 1 .447715 1 1v4h4c.552285 0 1 .447715 1 1s-.447715 1-1 1h-4v4c0 .552285-.447715 1-1 1s-1-.447715-1-1v-4h-4c-.552285 0-1-.447715-1-1s.447715-1 1-1h4v-4c0-.552285.447715-1 1-1z"/><path d="m534 276c.552285 0 1 .447715 1 1v4h4c.552285 0 1 .447715 1 1s-.447715 1-1 1h-4v4c0 .552285-.447715 1-1 1s-1-.447715-1-1v-4h-4c-.552285 0-1-.447715-1-1s.447715-1 1-1h4v-4c0-.552285.447715-1 1-1z"/><path d="m624 276c.552285 0 1 .447715 1 1v4h4c.552285 0 1 .447715 1 1s-.447715 1-1 1h-4v4c0 .552285-.447715 1-1 1s-1-.447715-1-1v-4h-4c-.552285 0-1-.447715-1-1s.447715-1 1-1h4v-4c0-.552285.447715-1 1-1z"/><path d="m714 276c.552285 0 1 .447715 1 1v4h4c.552285 0 1 .447715 1 1s-.447715 1-1 1h-4v4c0 .552285-.447715 1-1 1s-1-.447715-1-1v-4h-4c-.552285 0-1-.447715-1-1s.447715-1 1-1h4v-4c0-.552285.447715-1 1-1z"/><path d="m84 368c.5522847 0 1 .447715 1 1v4h4c.5522847 0 1 .447715 1 1s-.4477153 1-1 1h-4v4c0 .552285-.4477153 1-1 1s-1-.447715-1-1v-4h-4c-.5522847 0-1-.447715-1-1s.4477153-1 1-1h4v-4c0-.552285.4477153-1 1-1z"/><path d="m174 368c.552285 0 1 .447715 1 1v4h4c.552285 0 1 .447715 1 1s-.447715 1-1 1h-4v4c0 .552285-.447715 1-1 1s-1-.447715-1-1v-4h-4c-.552285 0-1-.447715-1-1s.447715-1 1-1h4v-4c0-.552285.447715-1 1-1z"/><path d="m264 368c.552285 0 1 .447715 1 1v4h4c.552285 0 1 .447715 1 1s-.447715 1-1 1h-4v4c0 .552285-.447715 1-1 1s-1-.447715-1-1v-4h-4c-.552285 0-1-.447715-1-1s.447715-1 1-1h4v-4c0-.552285.447715-1 1-1z"/><path d="m354 368c.552285 0 1 .447715 1 1v4h4c.552285 0 1 .447715 1 1s-.447715 1-1 1h-4v4c0 .552285-.447715 1-1 1s-1-.447715-1-1v-4h-4c-.552285 0-1-.447715-1-1s.447715-1 1-1h4v-4c0-.552285.447715-1 1-1z"/><path d="m444 368c.552285 0 1 .447715 1 1v4h4c.552285 0 1 .447715 1 1s-.447715 1-1 1h-4v4c0 .552285-.447715 1-1 1s-1-.447715-1-1v-4h-4c-.552285 0-1-.447715-1-1s.447715-1 1-1h4v-4c0-.552285.447715-1 1-1z"/><path d="m534 368c.552285 0 1 .447715 1 1v4h4c.552285 0 1 .447715 1 1s-.447715 1-1 1h-4v4c0 .552285-.447715 1-1 1s-1-.447715-1-1v-4h-4c-.552285 0-1-.447715-1-1s.447715-1 1-1h4v-4c0-.552285.447715-1 1-1z"/><path d="m624 368c.552285 0 1 .447715 1 1v4h4c.552285 0 1 .447715 1 1s-.447715 1-1 1h-4v4c0 .552285-.447715 1-1 1s-1-.447715-1-1v-4h-4c-.552285 0-1-.447715-1-1s.447715-1 1-1h4v-4c0-.552285.447715-1 1-1z"/><path d="m714 368c.552285 0 1 .447715 1 1v4h4c.552285 0 1 .447715 1 1s-.447715 1-1 1h-4v4c0 .552285-.447715 1-1 1s-1-.447715-1-1v-4h-4c-.552285 0-1-.447715-1-1s.447715-1 1-1h4v-4c0-.552285.447715-1 1-1z"/><path d="m84 460c.5522847 0 1 .447715 1 1v4h4c.5522847 0 1 .447715 1 1s-.4477153 1-1 1h-4v4c0 .552285-.4477153 1-1 1s-1-.447715-1-1v-4h-4c-.5522847 0-1-.447715-1-1s.4477153-1 1-1h4v-4c0-.552285.4477153-1 1-1z"/><path d="m174 460c.552285 0 1 .447715 1 1v4h4c.552285 0 1 .447715 1 1s-.447715 1-1 1h-4v4c0 .552285-.447715 1-1 1s-1-.447715-1-1v-4h-4c-.552285 0-1-.447715-1-1s.447715-1 1-1h4v-4c0-.552285.447715-1 1-1z"/><path d="m264 460c.552285 0 1 .447715 1 1v4h4c.552285 0 1 .447715 1 1s-.447715 1-1 1h-4v4c0 .552285-.447715 1-1 1s-1-.447715-1-1v-4h-4c-.552285 0-1-.447715-1-1s.447715-1 1-1h4v-4c0-.552285.447715-1 1-1z"/><path d="m354 460c.552285 0 1 .447715 1 1v4h4c.552285 0 1 .447715 1 1s-.447715 1-1 1h-4v4c0 .552285-.447715 1-1 1s-1-.447715-1-1v-4h-4c-.552285 0-1-.447715-1-1s.447715-1 1-1h4v-4c0-.552285.447715-1 1-1z"/><path d="m444 460c.552285 0 1 .447715 1 1v4h4c.552285 0 1 .447715 1 1s-.447715 1-1 1h-4v4c0 .552285-.447715 1-1 1s-1-.447715-1-1v-4h-4c-.552285 0-1-.447715-1-1s.447715-1 1-1h4v-4c0-.552285.447715-1 1-1z"/><path d="m534 460c.552285 0 1 .447715 1 1v4h4c.552285 0 1 .447715 1 1s-.447715 1-1 1h-4v4c0 .552285-.447715 1-1 1s-1-.447715-1-1v-4h-4c-.552285 0-1-.447715-1-1s.447715-1 1-1h4v-4c0-.552285.447715-1 1-1z"/><path d="m624 460c.552285 0 1 .447715 1 1v4h4c.552285 0 1 .447715 1 1s-.447715 1-1 1h-4v4c0 .552285-.447715 1-1 1s-1-.447715-1-1v-4h-4c-.552285 0-1-.447715-1-1s.447715-1 1-1h4v-4c0-.552285.447715-1 1-1z"/><path d="m714 460c.552285 0 1 .447715 1 1v4h4c.552285 0 1 .447715 1 1s-.447715 1-1 1h-4v4c0 .552285-.447715 1-1 1s-1-.447715-1-1v-4h-4c-.552285 0-1-.447715-1-1s.447715-1 1-1h4v-4c0-.552285.447715-1 1-1z"/></g></svg>