<svg height="421" viewBox="0 0 321 421" width="321" xmlns="http://www.w3.org/2000/svg"><g fill="#d8d8d8" fill-rule="evenodd" transform="translate(.079058 -69)"><path d="m34 92c.5522847 0 1 .4477153 1 1v4h4c.5522847 0 1 .4477153 1 1s-.4477153 1-1 1h-4v4c0 .552285-.4477153 1-1 1s-1-.447715-1-1v-4h-4c-.5522847 0-1-.4477153-1-1s.4477153-1 1-1h4v-4c0-.5522847.4477153-1 1-1z"/><path d="m124 92c.552285 0 1 .4477153 1 1v4h4c.552285 0 1 .4477153 1 1s-.447715 1-1 1h-4v4c0 .552285-.447715 1-1 1s-1-.447715-1-1v-4h-4c-.552285 0-1-.4477153-1-1s.447715-1 1-1h4v-4c0-.5522847.447715-1 1-1z"/><path d="m214 92c.552285 0 1 .4477153 1 1v4h4c.552285 0 1 .4477153 1 1s-.447715 1-1 1h-4v4c0 .552285-.447715 1-1 1s-1-.447715-1-1v-4h-4c-.552285 0-1-.4477153-1-1s.447715-1 1-1h4v-4c0-.5522847.447715-1 1-1z"/><path d="m304 92c.552285 0 1 .4477153 1 1v4h4c.552285 0 1 .4477153 1 1s-.447715 1-1 1h-4v4c0 .552285-.447715 1-1 1s-1-.447715-1-1v-4h-4c-.552285 0-1-.4477153-1-1s.447715-1 1-1h4v-4c0-.5522847.447715-1 1-1z"/><path d="m34 184c.5522847 0 1 .447715 1 1v4h4c.5522847 0 1 .447715 1 1s-.4477153 1-1 1h-4v4c0 .552285-.4477153 1-1 1s-1-.447715-1-1v-4h-4c-.5522847 0-1-.447715-1-1s.4477153-1 1-1h4v-4c0-.552285.4477153-1 1-1z"/><path d="m124 184c.552285 0 1 .447715 1 1v4h4c.552285 0 1 .447715 1 1s-.447715 1-1 1h-4v4c0 .552285-.447715 1-1 1s-1-.447715-1-1v-4h-4c-.552285 0-1-.447715-1-1s.447715-1 1-1h4v-4c0-.552285.447715-1 1-1z"/><path d="m214 184c.552285 0 1 .447715 1 1v4h4c.552285 0 1 .447715 1 1s-.447715 1-1 1h-4v4c0 .552285-.447715 1-1 1s-1-.447715-1-1v-4h-4c-.552285 0-1-.447715-1-1s.447715-1 1-1h4v-4c0-.552285.447715-1 1-1z"/><path d="m304 184c.552285 0 1 .447715 1 1v4h4c.552285 0 1 .447715 1 1s-.447715 1-1 1h-4v4c0 .552285-.447715 1-1 1s-1-.447715-1-1v-4h-4c-.552285 0-1-.447715-1-1s.447715-1 1-1h4v-4c0-.552285.447715-1 1-1z"/><path d="m34 276c.5522847 0 1 .447715 1 1v4h4c.5522847 0 1 .447715 1 1s-.4477153 1-1 1h-4v4c0 .552285-.4477153 1-1 1s-1-.447715-1-1v-4h-4c-.5522847 0-1-.447715-1-1s.4477153-1 1-1h4v-4c0-.552285.4477153-1 1-1z"/><path d="m124 276c.552285 0 1 .447715 1 1v4h4c.552285 0 1 .447715 1 1s-.447715 1-1 1h-4v4c0 .552285-.447715 1-1 1s-1-.447715-1-1v-4h-4c-.552285 0-1-.447715-1-1s.447715-1 1-1h4v-4c0-.552285.447715-1 1-1z"/><path d="m214 276c.552285 0 1 .447715 1 1v4h4c.552285 0 1 .447715 1 1s-.447715 1-1 1h-4v4c0 .552285-.447715 1-1 1s-1-.447715-1-1v-4h-4c-.552285 0-1-.447715-1-1s.447715-1 1-1h4v-4c0-.552285.447715-1 1-1z"/><path d="m304 276c.552285 0 1 .447715 1 1v4h4c.552285 0 1 .447715 1 1s-.447715 1-1 1h-4v4c0 .552285-.447715 1-1 1s-1-.447715-1-1v-4h-4c-.552285 0-1-.447715-1-1s.447715-1 1-1h4v-4c0-.552285.447715-1 1-1z"/><path d="m34 368c.5522847 0 1 .447715 1 1v4h4c.5522847 0 1 .447715 1 1s-.4477153 1-1 1h-4v4c0 .552285-.4477153 1-1 1s-1-.447715-1-1v-4h-4c-.5522847 0-1-.447715-1-1s.4477153-1 1-1h4v-4c0-.552285.4477153-1 1-1z"/><path d="m124 368c.552285 0 1 .447715 1 1v4h4c.552285 0 1 .447715 1 1s-.447715 1-1 1h-4v4c0 .552285-.447715 1-1 1s-1-.447715-1-1v-4h-4c-.552285 0-1-.447715-1-1s.447715-1 1-1h4v-4c0-.552285.447715-1 1-1z"/><path d="m214 368c.552285 0 1 .447715 1 1v4h4c.552285 0 1 .447715 1 1s-.447715 1-1 1h-4v4c0 .552285-.447715 1-1 1s-1-.447715-1-1v-4h-4c-.552285 0-1-.447715-1-1s.447715-1 1-1h4v-4c0-.552285.447715-1 1-1z"/><path d="m304 368c.552285 0 1 .447715 1 1v4h4c.552285 0 1 .447715 1 1s-.447715 1-1 1h-4v4c0 .552285-.447715 1-1 1s-1-.447715-1-1v-4h-4c-.552285 0-1-.447715-1-1s.447715-1 1-1h4v-4c0-.552285.447715-1 1-1z"/><path d="m34 460c.5522847 0 1 .447715 1 1v4h4c.5522847 0 1 .447715 1 1s-.4477153 1-1 1h-4v4c0 .552285-.4477153 1-1 1s-1-.447715-1-1v-4h-4c-.5522847 0-1-.447715-1-1s.4477153-1 1-1h4v-4c0-.552285.4477153-1 1-1z"/><path d="m124 460c.552285 0 1 .447715 1 1v4h4c.552285 0 1 .447715 1 1s-.447715 1-1 1h-4v4c0 .552285-.447715 1-1 1s-1-.447715-1-1v-4h-4c-.552285 0-1-.447715-1-1s.447715-1 1-1h4v-4c0-.552285.447715-1 1-1z"/><path d="m214 460c.552285 0 1 .447715 1 1v4h4c.552285 0 1 .447715 1 1s-.447715 1-1 1h-4v4c0 .552285-.447715 1-1 1s-1-.447715-1-1v-4h-4c-.552285 0-1-.447715-1-1s.447715-1 1-1h4v-4c0-.552285.447715-1 1-1z"/><path d="m304 460c.552285 0 1 .447715 1 1v4h4c.552285 0 1 .447715 1 1s-.447715 1-1 1h-4v4c0 .552285-.447715 1-1 1s-1-.447715-1-1v-4h-4c-.552285 0-1-.447715-1-1s.447715-1 1-1h4v-4c0-.552285.447715-1 1-1z"/></g></svg>