<svg height="560" viewBox="0 0 560 560" width="560" xmlns="http://www.w3.org/2000/svg" xmlns:xlink="http://www.w3.org/1999/xlink"><linearGradient id="a" x1="101.51353%" x2="-4.918351%" y1="19.267765%" y2="86.946156%"><stop offset="0" stop-color="#f958b9"/><stop offset="1" stop-color="#f23745"/></linearGradient><g fill="none" fill-rule="evenodd" transform="translate(-131.356652 -115)"><path d="m493.6136 1386.2208c166.475933 0 343.120553-71.14453 505.730117-165.44487 162.609563-94.30035 312.034173 36.82284 453.206913-152.95865 0-450.584358-498.656331-692.878232-837.23149-692.878232-338.57516 0-682.2781039 85.501201-739.674149 339.776688-65.642876 290.810534 261.071386 312.246534 355.069586 394.028104 112.382729 97.77671 78.531211 277.47696 262.899023 277.47696z" fill="#fff" fill-opacity=".103393" transform="matrix(.20791169 -.9781476 .9781476 .20791169 -338.736823 1342.854704)"/><path d="m707.563933 1406.73981c212.71945-10.21661 238.495392-147.7255 400.697607-242.04719 162.20222-94.32169 309.2248-93.29307 309.2596-350.303229.06101-450.581159-324.19185-545.86744-661.892275-545.821613-337.700424.045859-680.5269615 85.591568-737.8091479 339.873023-65.5126582 290.817356 260.3546089 312.208972 354.0988849 393.977229 112.07914 97.7608 122.925881 414.53839 335.645331 404.32178z" stroke="url(#a)" stroke-width="2" transform="matrix(-.05233596 -.99862953 .99862953 -.05233596 -85.938142 1593.996869)"/></g></svg>