<svg height="230" viewBox="0 0 600 230" width="600" xmlns="http://www.w3.org/2000/svg"><g fill="none" fill-rule="evenodd"><path d="m502.966653 29.818686c.134667 1.5392515.083036 3.0891313-.153773 4.6160078l-9.890778 63.771227 76.894735-6.8574432c10.561944-.941977 19.887715 6.8565472 20.829692 17.4184914.152533 1.710285.074954 3.433303-.230664 5.12296l-12.348185 68.268947c-1.538981 8.508507-8.575443 14.938628-17.187828 15.706732l-266.729723 23.788544c-10.561945.941977-19.887715-6.856547-20.829692-17.418491-.152534-1.710286-.074954-3.433304.230664-5.12296l11.312001-62.54078-254.4626108 22.262931c-10.5635156.924188-19.8761393-6.890032-20.80032718-17.453547-.13466706-1.539252-.08303596-3.089132.15377292-4.616008l10.75411856-69.3395075c1.3544909-8.7333735 8.4956186-15.4140557 17.299774-16.1843194l444.3584955-38.876331c10.563516-.9241879 19.87614 6.8900313 20.800328 17.4535469z" fill="#fff"/><path d="m70.8914196 120.599993c23.0399987 0 32.0639984-9.12 32.0639984-20.447999 0-6.9119999-4.608-11.6159996-10.9439996-13.2479995 10.2719996-2.6879998 15.7439986-9.503998 15.7439986-17.6639989 0-8.2559995-4.991999-15.8399991-25.631998-15.8399991h-29.7599983l-18.0479989 67.1999965zm6.6239996-40.7999981h-10.3679993l2.4959998-9.4079994h9.3119995c4.7999997 0 6.9119996 1.1519999 6.9119996 3.9359998 0 2.8799998-2.5919999 5.4719996-8.3519996 5.4719996zm-5.9519996 23.8079991h-10.8479993l2.6879998-9.9839999h9.6959994c4.7999997 0 7.1999996 1.3439999 7.1999996 4.2239998 0 3.3600001-3.2639998 5.7600001-8.7359995 5.7600001zm69.5999954 18.335998c10.656 0 20.255999-2.495999 26.591999-8.831999 4.704-4.704 8.159999-11.231999 10.559999-20.1599988l10.656-39.5519977h-22.847999l-9.695999 36.0959979c-1.44 5.1839996-2.784 7.7759995-4.8 9.7919994-1.824 1.8240002-4.416 2.7840002-7.2 2.7840002-5.951999 0-9.215999-2.8800002-9.215999-8.4479999 0-1.5359999.288-3.3599998.768-5.2799997l9.407999-34.9439979h-22.847998l-9.024 33.503998c-.96 3.6479998-1.44 7.3919996-1.44 10.8479994 0 15.1679991 10.176 24.1919981 29.087998 24.1919981zm61.343997-1.343999 5.183999-19.199996h5.568l7.488 19.199996h24.191998l-9.311999-22.3679992c5.376-1.7279999 9.311999-4.1279997 12.191999-7.0079995 4.608-4.6079998 6.528-10.2719994 6.528-16.6079991 0-5.2799996-1.536-10.2719993-5.28-14.0159991-4.512-4.5119998-12.383999-7.1999996-24.767999-7.1999996h-26.207998l-18.047999 67.1999965zm17.567999-35.2319984h-8.16l3.552-13.1519992h7.968c3.167999 0 5.375999.6719999 6.623999 1.9199999.96.9599999 1.44 2.2079998 1.44 3.5519998 0 1.7279999-.672 3.3599998-1.92 4.6079997-1.824 1.8239999-5.088 3.0719998-9.503999 3.0719998zm71.615995 36.6719974c9.696 0 19.199999-2.975999 25.823999-6.911999l9.599999-34.2719981h-32.351998l-3.647999 14.3999991h11.039999l-2.208 7.2c-1.536.672-3.456 1.056-5.856 1.056-7.007999 0-13.055999-4.1280002-13.055999-12.4799997 0-5.4719997 1.92-10.3679994 5.472-13.9199992 3.456-3.4559998 8.543999-5.6639997 14.879999-5.6639997 5.952 0 11.711999 2.4959999 15.551999 6.0479997l14.015999-14.3999992c-4.608-5.6639996-15.455999-11.1359993-28.127998-11.1359993-14.015999 0-25.439999 4.8959997-33.119998 12.5759992-7.2 7.1999996-11.232 16.895999-11.232 27.5519984 0 21.1199988 16.511999 29.9519978 33.215998 29.9519978zm91.775995-1.439999 4.896-18.431999h-35.711998l2.016-7.296h32.831998l4.32-16.223999h-32.831999l1.824-6.8159996h35.231998l4.992-18.4319989h-57.311997l-18.047999 67.1999965zm31.679998 0 5.184-19.199996h5.567999l7.488 19.199996h24.191999l-9.312-22.3679992c5.376-1.7279999 9.312-4.1279997 12.191999-7.0079995 4.608-4.6079998 6.528-10.2719994 6.528-16.6079991 0-5.2799996-1.536-10.2719993-5.28-14.0159991-4.511999-4.5119998-12.383999-7.1999996-24.767998-7.1999996h-26.207999l-18.047999 67.1999965zm17.567999-35.2319984h-8.159999l3.551999-13.1519992h7.968c3.168 0 5.376.6719999 6.623999 1.9199999.96.9599999 1.44 2.2079998 1.44 3.5519998 0 1.7279999-.672 3.3599998-1.919999 4.6079997-1.824 1.8239999-5.088 3.0719998-9.504 3.0719998z" fill="#010101" fill-rule="nonzero" transform="matrix(.9961947 -.08715574 .08715574 .9961947 -6.628745 22.176771)"/><path d="m324.291405 188.599988 3.264-12.191999 9.407999-9.407999 8.063999 21.599998h23.903999l-14.015999-36.479997 30.623998-30.719999h-27.359998l-22.367999 24.095999 6.528-24.095999h-22.463999l-18.047999 67.199996zm71.519995 0 18.047999-67.199996h-22.463998l-18.047999 67.199996zm32.159999 0 9.023999-33.407998 15.935999 33.407998h19.967999l18.047999-67.199996h-22.271999l-8.639999 32.063999-15.263999-32.063999h-21.023999l-18.047999 67.199996zm94.463994 1.44c9.695999 0 19.199999-2.975999 25.823998-6.911999l9.6-34.271998h-32.351998l-3.648 14.399999h11.039999l-2.208 7.2c-1.535999.671999-3.455999 1.055999-5.855999 1.055999-7.008 0-13.055999-4.127999-13.055999-12.479999 0-5.471999 1.919999-10.367999 5.471999-13.919999 3.456-3.456 8.544-5.664 14.879999-5.664 5.952 0 11.712 2.496 15.551999 6.048l14.016-14.399999c-4.608-5.664-15.456-11.135999-28.127999-11.135999-14.015999 0-25.439998 4.895999-33.119998 12.575999-7.199999 7.199999-11.231999 16.895999-11.231999 27.551998 0 21.119999 16.511999 29.951998 33.215998 29.951998z" fill="#010101" fill-rule="nonzero" transform="matrix(.9961947 -.08715574 .08715574 .9961947 -11.866149 38.220481)"/><path d="m190.328457 10.1014082c1.478927-.12676522 3.006213.310661 4.231314 1.3423253.796604.6708238 1.382773 1.5294655 1.722804 2.4764842.340031.9470188.433923 1.9824145.245972 3.0067464l-5.710993 31.1249168c-.234768 1.2794802-.881171 2.4025242-1.792741 3.2353193s-2.088307 1.3753413-3.38374 1.4938261l-59.781831 5.4678504c-1.594968.1458812-3.098071-.3685367-4.238902-1.318167s-1.91939-2.334473-2.065271-3.9294412c-.049361-.539673-.022842-1.0836008.078781-1.6159128l5.940844-31.1187066c.300341-1.5732134 1.209919-2.8757537 2.437715-3.7099055 1.227797-.8341517 2.773811-1.199915 4.347025-.8995742 1.92253.3670286 3.530279 1.678933 4.275502 3.4887609l5.56845 13.5233777 13.322429-18.488269c.936341-1.2994117 2.310729-2.0962812 3.775885-2.3342125s3.021079.0830756 4.320491 1.0194164c.956916.6895425 1.680863 1.6544402 2.075291 2.7660085l5.262811 14.8315528 15.427006-18.3195726c1.031665-1.2251015 2.462232-1.9160582 3.941158-2.0428234z" fill="#ff4339" stroke="#fff" stroke-width="6"/></g></svg>