<?xml version="1.0" encoding="UTF-8"?>
<svg width="256px" height="256px" viewBox="0 0 256 256" version="1.1" xmlns="http://www.w3.org/2000/svg" xmlns:xlink="http://www.w3.org/1999/xlink">
    <!-- Generator: Sketch 42 (36781) - http://www.bohemiancoding.com/sketch -->
    <defs></defs>
    <g id="Logos" stroke="none" stroke-width="1" fill="none" fill-rule="evenodd">
        <g id="Group" fill-rule="nonzero" fill="#FFFFFF">
            <path d="M128.925301,114.554305 C125.27889,114.554305 122.323471,111.544956 122.323471,107.832007 C122.323471,104.119058 125.27889,101.109709 128.925301,101.109709 C132.571713,101.109709 135.527133,104.119058 135.527133,107.832007 C135.527133,111.544956 132.571713,114.554305 128.925301,114.554305 L128.925301,114.554305 Z M152.032811,91.4172782 C149.93783,88.3619932 152.776617,85.184587 154.675744,83.3807715 C151.603692,80.0252246 137.846576,80.3669416 134.254079,79.6599791 C130.661583,78.9541386 130.045412,75.1739659 130.154342,72.0021617 C125.295394,71.8285023 115.804162,82.1696364 112.80473,84.3028458 C109.804198,86.4360551 107.789539,84.7521193 104.912241,81.611687 C101.616827,84.7397961 101.95242,98.747943 101.258128,102.405993 C100.564935,106.065164 98.0441368,106.734032 93.7375412,106.58054 C93.5669948,111.52815 103.722812,121.192573 105.817793,124.246738 C107.912774,127.302021 106.685933,128.948985 103.174859,132.283244 C106.246911,135.638791 120.004028,135.297074 123.596523,136.004035 C127.18902,136.709877 127.869008,138.623491 127.69626,143.662973 C132.555208,143.835512 142.04644,133.494378 145.045873,131.361169 C148.046404,129.227959 150.548499,131.442957 152.938361,134.052329 C156.233775,130.92422 155.898182,116.916073 156.592475,113.258023 C157.285667,109.599972 159.990217,108.936705 164.114161,109.083475 C164.283609,104.135864 154.127792,94.4714411 152.032811,91.4172782 Z M46.148844,169.884954 L57.9789475,169.884954 C60.1016681,169.884954 60.9928925,170.365287 60.6032571,171.214933 C60.2550537,171.972811 59.2853719,173.171179 58.5589939,173.73209 C57.9339905,174.232565 57.3535039,174.475194 56.2480679,174.733042 L55.6834489,174.677086 C56.686188,174.858833 57.4672213,175.24874 57.1890992,175.85531 C56.6667941,176.992799 55.2131547,178.600322 54.12006,179.206893 C53.0516478,179.813463 51.6561886,179.999687 49.8296633,179.999687 L38,179.999687 L46.148844,169.884954 Z M45.0923329,174.267484 L53.9463986,174.267484 C55.0818073,174.267484 56.0285676,173.979194 56.6491627,173.433504 C57.2177483,172.948248 57.935753,172.083829 58.1376233,171.643785 C58.3879768,171.098097 57.9811516,170.855468 56.7963791,170.855468 L47.8435803,170.855468 L45.0923329,174.267484 Z M41.2766385,179.029175 L49.8345117,179.029175 C51.4142098,179.029175 52.2631217,178.847427 52.9617325,178.34695 C53.5060758,177.967787 54.5775726,176.708985 54.8354189,176.148075 C55.1488025,175.465405 54.660877,175.237996 52.8832765,175.237996 L44.3258435,175.237996 L41.2766385,179.029175 Z M69.9270456,169.884776 L72.4133954,169.884776 L65.4960448,178.581789 L77.329676,178.581789 L76.1219833,179.999956 L61.7782016,179.999956 L69.9270456,169.884776 Z M96.8865932,177.861559 L85.3209469,177.861559 L81.6313126,180 L79.5116781,180 L95.9543783,169.88482 L98.6412749,169.88482 L99.667373,180 L97.1069754,180 L96.8865932,177.861559 Z M96.3902929,170.870554 L96.1681482,170.870554 L87.4873023,176.443393 L96.7182219,176.443393 L96.3902929,170.870554 Z M113.009563,169.884686 L125.08341,169.884686 C127.787938,169.884686 128.588806,171.813178 127.949698,173.449799 C127.31015,175.08642 125.789955,177.128616 123.343274,178.581699 C121.481047,179.687851 117.83681,179.999866 114.948925,179.999866 L104.860278,179.999866 L113.009563,169.884686 Z M108.578563,178.581699 L116.233311,178.581699 C117.887057,178.581699 118.568478,178.581699 121.447989,177.307678 C123.26526,176.504139 124.525844,174.776197 125.068865,173.593496 C125.542245,172.562103 124.626778,171.302852 122.824935,171.302852 L114.7043,171.302852 L108.578563,178.581699 Z M137.626935,169.884776 L153.124197,169.884776 L152.357708,171.302942 L139.321673,171.302942 L137.011188,174.267303 L144.828578,174.267303 L144.037406,175.238265 L136.2447,175.238265 L133.6367,178.581789 L146.182605,178.581789 L145.391434,179.999956 L129.918415,179.999956 L137.626935,169.884776 Z M159.934309,169.884686 L172.624785,169.884686 C174.401945,169.884686 175.078518,170.400383 174.618801,171.401337 C173.999086,172.751012 172.481977,174.388976 171.171586,175.147302 C170.007968,175.799084 168.754435,176.056934 166.779373,176.056934 L157.439144,176.056934 L154.270933,179.999866 L152.225787,179.999866 L159.934309,169.884686 Z M158.670639,174.638767 L166.421032,174.638767 C167.753901,174.638767 168.951457,174.4418 169.713978,173.910882 C170.398485,173.440846 170.746249,172.895604 171.073736,172.182492 C171.386678,171.500267 171.498633,171.302852 170.06703,171.302852 L161.188282,171.302852 L158.670639,174.638767 Z M186.802442,177.861559 L175.236796,177.861559 L171.54716,180 L169.427527,180 L185.870226,169.88482 L188.557124,169.88482 L189.583222,180 L187.022824,180 L186.802442,177.861559 Z M186.306142,170.870554 L186.083997,170.870554 L177.40315,176.443393 L186.634069,176.443393 L186.306142,170.870554 Z M202.851936,169.884686 L214.925783,169.884686 C217.630311,169.884686 218.431179,171.813178 217.792071,173.449799 C217.152522,175.08642 215.632328,177.128616 213.185646,178.581699 C211.323419,179.687851 207.679182,179.999866 204.791297,179.999866 L194.702651,179.999866 L202.851936,169.884686 Z M198.420936,178.581699 L206.075683,178.581699 C207.729429,178.581699 208.41085,178.581699 211.290362,177.307678 C213.107632,176.504139 214.368216,174.776197 214.911237,173.593496 C215.384619,172.562103 214.469152,171.302852 212.667309,171.302852 L204.546673,171.302852 L198.420936,178.581699 Z" id="Bladepad"></path>
        </g>
    </g>
</svg>