<svg width="230" height="160" viewBox="0 0 230 160" xmlns="http://www.w3.org/2000/svg"><g fill="none" fill-rule="evenodd"><path d="M111.518 68.658c-2.642 0-4.784-2.172-4.784-4.853 0-2.68 2.142-4.852 4.784-4.852s4.783 2.172 4.783 4.852-2.141 4.853-4.783 4.853m16.742-16.702c-1.518-2.206.54-4.5 1.915-5.802-2.226-2.422-12.193-2.175-14.796-2.686-2.603-.51-3.05-3.238-2.97-5.528-3.522-.125-10.398 7.34-12.572 8.88-2.174 1.54-3.634.324-5.718-1.943-2.388 2.258-2.145 12.37-2.648 15.011-.502 2.642-2.329 3.125-5.45 3.014-.123 3.572 7.236 10.548 8.754 12.753 1.518 2.206.629 3.395-1.915 5.802 2.226 2.422 12.194 2.175 14.797 2.686 2.603.51 3.095 1.89 2.97 5.528 3.52.125 10.398-7.34 12.57-8.88 2.175-1.54 3.988.059 5.72 1.943 2.387-2.259 2.144-12.37 2.647-15.012.502-2.64 2.462-3.12 5.45-3.013.123-3.572-7.236-10.548-8.754-12.753zM51.541 108.6h8.572c1.538 0 2.184.347 1.901.96-.252.547-.955 1.412-1.481 1.817-.453.361-.873.536-1.674.723l-.41-.04c.727.13 1.293.412 1.091.85-.378.82-1.431 1.981-2.223 2.42-.774.437-1.785.572-3.109.572h-8.571l5.904-7.302zm-.765 3.164h6.415c.823 0 1.509-.209 1.958-.603.412-.35.932-.974 1.079-1.292.181-.393-.114-.569-.972-.569h-6.487l-1.993 2.464zm-2.765 3.437h6.2c1.145 0 1.76-.131 2.266-.493.395-.273 1.171-1.182 1.358-1.587.227-.493-.126-.657-1.414-.657h-6.2l-2.21 2.737zM68.77 108.6h1.801l-5.012 6.278h8.574l-.875 1.024H62.866l5.904-7.302zm19.534 5.758h-8.38l-2.674 1.544h-1.536l11.914-7.302h1.947l.743 7.302h-1.855l-.16-1.544zm-.36-5.047h-.16l-6.29 4.023h6.688l-.238-4.023zm12.042-.711h8.748c1.96 0 2.54 1.392 2.077 2.573-.464 1.182-1.565 2.656-3.338 3.705-1.35.798-3.99 1.024-6.082 1.024h-7.31l5.905-7.302zm-3.21 6.278h5.545c1.199 0 1.692 0 3.779-.92 1.317-.58 2.23-1.827 2.623-2.681.343-.745-.32-1.654-1.626-1.654h-5.883l-4.439 5.255zm21.046-6.278h11.23l-.556 1.023h-9.446l-1.674 2.14h5.664l-.573.701h-5.646l-1.89 2.414h9.09l-.573 1.024h-11.21l5.584-7.302zm16.163 0h9.195c1.288 0 1.778.372 1.445 1.094-.449.975-1.548 2.157-2.497 2.705-.844.47-1.752.656-3.183.656h-6.767l-2.296 2.847H128.4l5.585-7.302zm-.915 3.432h5.615c.966 0 1.834-.143 2.386-.526.496-.34.748-.733.986-1.248.226-.492.307-.635-.73-.635h-6.433l-1.824 2.409zm20.383 2.326h-8.38l-2.673 1.544h-1.536l11.914-7.302h1.946l.744 7.302h-1.855l-.16-1.544zm-.36-5.047h-.16l-6.29 4.023h6.688l-.238-4.023zm11.989-.711h8.748c1.96 0 2.54 1.392 2.077 2.573-.464 1.182-1.565 2.656-3.338 3.705-1.35.798-3.99 1.024-6.082 1.024h-7.31l5.905-7.302zm-3.21 6.278h5.546c1.198 0 1.692 0 3.778-.92 1.317-.58 2.23-1.827 2.623-2.681.343-.745-.32-1.654-1.625-1.654h-5.884l-4.439 5.255z" opacity=".301" fill="#D4E1ED"/></g></svg>