<?xml version="1.0" encoding="UTF-8" standalone="no"?>
<svg width="230px" height="160px" viewBox="0 0 230 160" version="1.1" xmlns="http://www.w3.org/2000/svg" xmlns:xlink="http://www.w3.org/1999/xlink">
    <!-- Generator: Sketch 3.8.3 (29802) - http://www.bohemiancoding.com/sketch -->
    <defs></defs>
    <g id="02-company" stroke="none" stroke-width="1" fill="none" fill-rule="evenodd">
        <g id="logos_clients_hover" transform="translate(-230.000000, -160.000000)">
            <g id="logos" transform="translate(54.000000, 17.000000)" fill="#FFFFFF">
                <path d="M287.517566,211.658172 C284.875525,211.658172 282.734148,209.485754 282.734148,206.805414 C282.734148,204.125074 284.875525,201.952656 287.517566,201.952656 C290.159608,201.952656 292.300985,204.125074 292.300985,206.805414 C292.300985,209.485754 290.159608,211.658172 287.517566,211.658172 M304.260328,194.955789 C302.74239,192.75021 304.79926,190.456473 306.17529,189.154317 C303.949406,186.731982 293.981559,186.978664 291.378582,186.468315 C288.775605,185.958776 288.329153,183.229908 288.408079,180.940215 C284.887483,180.814852 278.010522,188.280011 275.837256,189.819953 C273.663192,191.359895 272.203452,190.144279 270.118679,187.877233 C267.730956,190.135383 267.974113,200.247721 267.471057,202.88843 C266.968798,205.529948 265.14233,206.012797 262.021946,205.901993 C261.898375,209.473622 269.256867,216.45027 270.774805,218.65504 C272.292743,220.860618 271.403824,222.049544 268.859843,224.456512 C271.085727,226.878847 281.053574,226.632165 283.65655,227.142513 C286.259527,227.652053 286.752219,229.033471 286.627053,232.671422 C290.147649,232.795976 297.02461,225.330817 299.197877,223.790875 C301.37194,222.250933 303.184856,223.849917 304.916453,225.733596 C307.304176,223.475446 307.061019,213.363108 307.564075,210.722399 C308.066334,208.08169 310.025941,207.602884 313.013983,207.708836 C313.136758,204.137206 305.778266,197.160558 304.260328,194.955789 Z M227.541111,251.600802 L236.112723,251.600802 C237.65076,251.600802 238.296505,251.947549 238.014191,252.5609 C237.761897,253.108004 237.059305,253.973094 236.533001,254.37801 C236.080149,254.739298 235.659552,254.914449 234.858598,255.100587 L234.449498,255.060193 C235.176042,255.191394 235.741947,255.472864 235.540431,255.910741 C235.16199,256.731882 234.108742,257.892337 233.31673,258.330214 C232.542602,258.768091 231.531509,258.902524 230.208083,258.902524 L221.63679,258.902524 L227.541111,251.600802 Z M226.775606,254.764505 L233.190902,254.764505 C234.013573,254.764505 234.699557,254.556392 235.149215,254.162464 C235.561189,253.812162 236.081426,253.188147 236.227693,252.870484 C236.409089,252.476557 236.11432,252.301406 235.255882,252.301406 L228.769048,252.301406 L226.775606,254.764505 Z M224.010909,258.201921 L230.211596,258.201921 C231.356181,258.201921 231.971268,258.070719 232.477453,257.70943 C232.871862,257.435716 233.648225,256.527 233.83505,256.122085 C234.062115,255.629272 233.708584,255.465108 232.420607,255.465108 L226.220239,255.465108 L224.010909,258.201921 Z M244.769829,251.600673 L246.571337,251.600673 L241.559306,257.878958 L250.133474,257.878958 L249.258429,258.902718 L238.865508,258.902718 L244.769829,251.600673 Z M264.303621,257.359031 L255.923624,257.359031 L253.250265,258.90275 L251.714464,258.90275 L263.628176,251.600705 L265.574992,251.600705 L266.318461,258.90275 L264.463301,258.90275 L264.303621,257.359031 Z M263.944022,252.312296 L263.783065,252.312296 L257.493277,256.335272 L264.181626,256.335272 L263.944022,252.312296 Z M275.985669,251.600608 L284.733888,251.600608 C286.693479,251.600608 287.273755,252.992767 286.810684,254.174227 C286.347293,255.355687 285.245822,256.829927 283.473056,257.878893 C282.123762,258.677413 279.483296,258.902653 277.390852,258.902653 L270.081029,258.902653 L275.985669,251.600608 Z M272.775147,257.878893 L278.321466,257.878893 C279.519703,257.878893 280.013433,257.878893 282.09981,256.95919 C283.41653,256.379124 284.329898,255.13174 284.723349,254.27796 C285.066341,253.533408 284.403031,252.624368 283.097489,252.624368 L277.213607,252.624368 L272.775147,257.878893 Z M293.822416,251.600673 L305.051102,251.600673 L304.495735,252.624433 L295.050354,252.624433 L293.376271,254.764375 L299.040434,254.764375 L298.467183,255.465302 L292.820905,255.465302 L290.931254,257.878958 L300.021507,257.878958 L299.448256,258.902718 L288.237136,258.902718 L293.822416,251.600673 Z M309.985432,251.600608 L319.180435,251.600608 C320.468093,251.600608 320.95831,251.972885 320.625218,252.695463 C320.176198,253.66978 319.076962,254.852209 318.127506,255.399637 C317.284396,255.870152 316.376137,256.056291 314.945087,256.056291 L308.177537,256.056291 L305.88198,258.902653 L304.400151,258.902653 L309.985432,251.600608 Z M309.069828,255.032531 L314.685448,255.032531 C315.651191,255.032531 316.518891,254.890342 317.071383,254.507078 C317.567349,254.167764 317.819324,253.774159 318.056608,253.259371 C318.283353,252.76688 318.364471,252.624368 317.32719,252.624368 L310.89401,252.624368 L309.069828,255.032531 Z M329.452989,257.359031 L321.072992,257.359031 L318.399632,258.90275 L316.863832,258.90275 L328.777543,251.600705 L330.72436,251.600705 L331.467829,258.90275 L329.612669,258.90275 L329.452989,257.359031 Z M329.09339,252.312296 L328.932433,252.312296 L322.642644,256.335272 L329.330993,256.335272 L329.09339,252.312296 Z M341.0818,251.600608 L349.830018,251.600608 C351.789609,251.600608 352.369886,252.992767 351.906814,254.174227 C351.443423,255.355687 350.341952,256.829927 348.569186,257.878893 C347.219892,258.677413 344.579426,258.902653 342.486982,258.902653 L335.177159,258.902653 L341.0818,251.600608 Z M337.871277,257.878893 L343.417596,257.878893 C344.615833,257.878893 345.109563,257.878893 347.19594,256.95919 C348.51266,256.379124 349.426028,255.13174 349.819479,254.27796 C350.162472,253.533408 349.499162,252.624368 348.19362,252.624368 L342.309737,252.624368 L337.871277,257.878893 Z" id="Bladepad"></path>
            </g>
            <g id="Slices"></g>
        </g>
    </g>
</svg>