<?xml version="1.0" encoding="UTF-8"?>
<svg width="230px" height="160px" viewBox="0 0 230 160" version="1.1" xmlns="http://www.w3.org/2000/svg" xmlns:xlink="http://www.w3.org/1999/xlink">
    <!-- Generator: Sketch 52.4 (67378) - http://www.bohemiancoding.com/sketch -->
    <g id="03-what-we-do-(SRC)" stroke="none" stroke-width="1" fill="none" fill-rule="evenodd" opacity="0.301">
        <g id="Group-2" fill="#D4E1ED">
            <path d="M172.779842,67.7853083 C173.253058,67.4780603 173.566629,66.947791 173.566629,66.347336 C173.566629,65.4019904 172.788392,64.6302304 171.833754,64.6302304 C170.879727,64.6302304 170.10088,65.4019904 170.10088,66.347336 C170.10088,66.9017984 170.368463,67.3964153 170.782066,67.7108495 L170.782066,65.3027987 L171.726327,65.3027987 C171.956441,65.3027987 172.17801,65.2979601 172.298255,65.3433222 C172.552784,65.4388849 172.752989,65.7098477 172.740171,65.9699236 C172.724302,66.2729422 172.568654,66.5765657 172.278723,66.6545884 L172.779842,67.7853083 Z M172.760458,67.7977127 L172.318397,67.7977127 L171.888078,66.6932974 L171.180035,66.7180953 L171.180035,67.7977127 L170.90732,67.7977127 C171.175603,67.966902 171.49354,68.0650465 171.833754,68.0650465 C172.174186,68.0650465 172.492185,67.966902 172.760458,67.7977127 Z M64,97 L64,87.2610656 L168.075022,87.2610656 L168.075022,97 L64,97 Z M153.27875,83.7300819 L153.27875,64.6828504 L156.459451,64.6828504 L165.203784,78.8073899 L165.203784,64.6828504 L168.074411,64.6828504 L168.074411,83.7300819 L164.686791,83.7300819 L156.222013,69.52631 L156.222013,83.7300819 L153.27875,83.7300819 Z M112.995977,83.3835157 L112.995977,64.4747897 L120.151486,64.4747897 C121.897789,64.4747897 123.57695,64.4397097 124.48764,64.7826469 C126.414005,65.5066256 127.936298,67.5600154 127.833754,69.5341728 C127.71534,71.8282839 126.538523,74.129653 124.339317,74.71936 L128.180451,83.3835157 L124.637183,83.3835157 L121.375912,75.0157255 L116.011264,75.2032221 L116.011264,83.3835157 L112.995977,83.3835157 Z M115.805566,72.3411778 L120.519546,72.3411778 C121.520573,72.3411778 122.304914,72.2480343 122.868907,72.0605377 C123.43351,71.8760653 123.86444,71.5772805 124.156813,71.1696267 C124.452238,70.7595535 124.59934,70.3150052 124.59934,69.8341673 C124.59934,69.1307527 124.31307,68.5513279 123.746026,68.0989168 C123.175929,67.6446913 122.278667,67.4184857 121.048747,67.4184857 L115.805566,67.4184857 L115.805566,72.3411778 Z M171.833754,64.2008028 C173.027051,64.2008028 174,65.1655028 174,66.347336 C174,67.529774 173.027051,68.4938692 171.833754,68.4938692 C170.640457,68.4938692 169.667508,67.529774 169.667508,66.347336 C169.667508,65.1655028 170.640457,64.2008028 171.833754,64.2008028 Z M171.152568,66.3406829 L171.774547,66.3406829 C171.907,66.3406829 172.010155,66.3279815 172.084621,66.3037884 C172.159088,66.2795953 172.216464,66.2396767 172.254918,66.185847 C172.293372,66.1314125 172.312904,66.0733491 172.312904,66.0098422 C172.312904,65.9166987 172.27506,65.8404905 172.200594,65.7806125 C172.125517,65.7207346 172.007103,65.691098 171.844741,65.691098 L171.152568,65.691098 L171.152568,66.3406829 Z M105.01157,83.3829109 L105.01157,64.3356793 L108.172738,64.3356793 L108.172738,83.3829109 L105.01157,83.3829109 Z M82.0062703,74.3377138 C82.0062703,71.1030956 82.9145188,68.571892 84.7310157,66.7453126 C86.5505646,64.9151042 88.8974836,64 91.7717726,64 C93.656022,64 95.3510529,64.4288228 96.8648004,65.2894925 C98.3742752,66.1465332 99.5285076,67.3477209 100.319563,68.8815638 C101.11367,70.4190356 101.508587,72.1639633 101.508587,74.1133227 C101.508587,76.0856656 101.091696,77.8547864 100.258525,79.4128223 C99.4216908,80.9702535 98.2393807,82.150877 96.7115945,82.9534833 C95.1801459,83.7566943 93.5272314,84.1576951 91.7577338,84.1576951 C89.8380823,84.1576951 88.121688,83.7119371 86.6109924,82.8276791 C85.097245,81.9434211 83.9546098,80.7325562 83.1745415,79.2017375 C82.3944733,77.6678947 82.0062703,76.0487711 82.0062703,74.3377138 Z M85.1472963,74.1326772 C85.1472963,76.3094518 85.7753794,78.0217188 87.0291041,79.277341 C88.2816081,80.5293341 89.8527315,81.1541211 91.743695,81.1541211 C93.66884,81.1541211 95.2564437,80.5232859 96.4997919,79.2585913 C97.746192,77.9932919 98.367561,76.1987684 98.367561,73.873811 C98.367561,72.4010557 98.1002136,71.1206356 97.570402,70.0228735 C97.0369281,68.9251113 96.2599118,68.0765382 95.2332492,67.4711057 C94.2096385,66.8686974 93.0578476,66.5656788 91.7845906,66.5656788 C89.9711456,66.5656788 88.4134506,67.1463133 87.1066226,68.3100016 C85.7991843,69.4706659 85.1472963,71.4133722 85.1472963,74.1326772 Z M130.438865,74.3377138 C130.438865,71.1030956 131.347113,68.571892 133.16361,66.7453126 C134.983769,64.9151042 137.330688,64 140.204367,64 C142.088616,64 143.783647,64.4288228 145.297395,65.2894925 C146.80748,66.1465332 147.961102,67.3477209 148.752157,68.8815638 C149.546264,70.4190356 149.941792,72.1639633 149.941792,74.1133227 C149.941792,76.0856656 149.524901,77.8547864 148.691729,79.4128223 C147.854285,80.9702535 146.671975,82.150877 145.144189,82.9534833 C143.61274,83.7566943 141.960436,84.1576951 140.190328,84.1576951 C138.270677,84.1576951 136.554282,83.7119371 135.044197,82.8276791 C133.53045,81.9434211 132.387204,80.7325562 131.607136,79.2017375 C130.827068,77.6678947 130.438865,76.0487711 130.438865,74.3377138 Z M133.580501,74.1326772 C133.580501,76.3094518 134.208584,78.0217188 135.461699,79.277341 C136.714813,80.5293341 138.285326,81.1541211 140.1769,81.1541211 C142.102045,81.1541211 143.689648,80.5232859 144.932386,79.2585913 C146.178786,77.9932919 146.800155,76.1987684 146.800155,73.873811 C146.800155,72.4010557 146.533418,71.1206356 146.002996,70.0228735 C145.469523,68.9251113 144.692506,68.0765382 143.665844,67.4711057 C142.642233,66.8686974 141.490442,66.5656788 140.217185,66.5656788 C138.40374,66.5656788 136.846655,67.1463133 135.539217,68.3100016 C134.232389,69.4706659 133.580501,71.4133722 133.580501,74.1326772 Z M64.2514774,83.3835157 L64.2514774,64.3356793 L71.6078018,64.3356793 C73.1075105,64.3356793 74.3093527,64.5292242 75.2133285,64.9144994 C76.1179147,65.3009842 77.0554615,65.8955298 77.5681824,66.6945071 C78.0827345,67.4952988 78.2249535,68.3335899 78.2249535,69.2087755 C78.2249535,70.0234783 78.1102017,70.7922142 77.6572982,71.5101446 C77.203174,72.2292847 76.9693977,72.806895 76.0519935,73.2496289 C77.236745,73.5889372 77.6945315,74.1653379 78.3317704,74.978831 C78.9677885,75.7911145 79.0593458,76.7552098 79.0593458,77.8626491 C79.0593458,78.7535602 79.0953583,79.8077748 78.7053242,80.5765107 C78.3177316,81.3410128 77.6670643,81.989388 77.0957467,82.4055094 C76.5268707,82.8204212 75.8682685,83.1337219 75.0057986,83.3466212 C74.1463807,83.5589157 72.9774991,83.3835157 71.7304886,83.3835157 L64.2514774,83.3835157 Z M67.3601532,71.7200198 L71.0871459,71.7200198 C72.2377161,71.7200198 73.0623422,71.6438115 73.5628555,71.4974432 C74.2196266,71.305108 74.7195295,70.9905977 75.052798,70.5496783 C75.3872874,70.1063397 75.3848459,70.1764997 75.3848459,69.5081652 C75.3848459,68.8761203 75.399495,68.6589872 75.0869794,68.1775444 C74.776295,67.6979161 74.3301057,67.368285 73.7478012,67.1892561 C73.1697694,67.0120416 72.1754571,66.9231319 70.7648642,66.9231319 L67.3601532,66.9231319 L67.3601532,71.7200198 Z M67.3601532,80.9091659 L71.7304886,80.9091659 C72.566712,80.9091659 73.1551203,80.8783197 73.4944927,80.8196514 C74.0932775,80.715621 74.5907388,80.7700555 74.9942014,80.52631 C75.3952224,80.2849838 75.7236079,79.9311596 75.984241,79.4654423 C76.2406015,79.003354 76.3712233,78.4680816 76.3712233,77.8626491 C76.3712233,77.150767 76.1832256,76.5350525 75.8096718,76.0100621 C75.4373387,75.4874911 74.9154621,74.9491945 74.2513664,74.7362952 C73.5866604,74.5240007 72.6314125,74.4169462 71.3813501,74.4169462 L67.3601532,74.4169462 L67.3601532,80.9091659 Z" id="Combined-Shape"></path>
        </g>
    </g>
</svg>