<?xml version="1.0" encoding="UTF-8"?>
<svg width="230px" height="160px" viewBox="0 0 230 160" version="1.1" xmlns="http://www.w3.org/2000/svg" xmlns:xlink="http://www.w3.org/1999/xlink">
    <!-- Generator: Sketch 61.2 (89653) - https://sketch.com -->
    <title>logo_burger_king_main</title>
    <desc>Created with Sketch.</desc>
    <g id="03-what-we-do-(SRC)" stroke="none" stroke-width="1" fill="none" fill-rule="evenodd" opacity="0.301">
        <g id="Group-2" fill="#D4E1ED">
            <path d="M116.8945,32 C121.046337,32 125.073376,32.554157 128.911486,33.5877728 L128.638202,34.0498598 C119.409522,32.0799098 106.182112,35.0244118 100.340305,37.8027246 C85.8036746,44.0327929 75.50208,59.1432708 75.50208,76.7211081 C75.50208,86.2054736 78.5024266,94.9700719 83.5469147,102.010819 L83.5469147,109.643362 L88.4053617,107.654882 C95.4639473,114.49933 104.856136,118.685329 115.143286,118.685329 C131.407442,118.685329 145.434481,108.224674 151.53455,93.3348165 L154.701032,95.1372408 C156.472533,96.1492274 158.35041,97.2265584 160,98.1745703 C152.814306,115.098074 136.183268,127 116.8945,127 C91.065981,127 70,105.662349 70,79.5 C70,53.3376509 91.065981,32 116.8945,32 Z M147.691819,91.8981775 C141.690548,104.475283 129.858447,113.146654 116.576728,113.146654 C110.190663,113.146654 104.274902,111.14196 99.2789462,107.663568 C97.9235036,106.566835 98.3204299,105.587651 99.5938294,105.113404 C113.400258,99.5771553 128.030358,94.5921657 144.021064,90.5161133 L145.193552,90.2194929 C147.084585,89.7354017 148.530737,90.0527246 147.691819,91.8981775 Z M140.677721,95.8762953 C139.431477,99.7548153 135.835452,103.930391 129.586318,108.456876 L129.975225,108.297469 L130.375243,108.129131 C134.870776,106.210609 140.291317,102.968728 143.06159,95.8496587 C143.647446,93.8692856 141.426508,93.2491162 140.677721,95.8762953 Z M97.532355,79.6441851 C99.7348047,76.5908204 104.579963,79.6806656 102.817772,82.6240095 L97.9726138,91.4534621 L102.817772,96.97187 C104.884943,99.2425762 100.412263,104.532559 97.6165517,101.802435 L91.3652646,95.4263684 L91.2554888,102.931519 C91.3761266,104.426623 90.9968248,105.404981 89.8362819,105.865546 L89.7134273,105.911343 L84.4280102,108.118707 L84.4280102,85.0519932 L91.1451352,81.962148 L91.1214467,90.0185603 L97.532355,79.6441851 Z M111.680148,74.1026149 L111.507395,94.858314 C111.470418,96.5462636 110.773053,97.8149762 108.918997,98.663873 C107.423157,99.2973607 105.927317,99.9314275 104.432055,100.566073 L104.518142,79.6378154 L104.518142,79.6378154 C104.534897,78.0668353 105.265773,76.9712605 106.8477,76.0922528 L111.680148,74.1026149 Z M133.165588,68.3091552 L133.251709,89.5831098 C133.261498,91.9908265 128.933441,93.2745947 127.642709,91.6584481 L127.556143,91.5442729 C126.40208,90.062246 120.308528,83.4427953 120.308528,83.4427953 L120.050266,92.3504206 C119.920268,94.8797391 118.021724,95.7014202 113.836954,96.7610935 L113.664779,73.8437767 L117.46129,72.4598318 L117.46129,72.4598318 C118.905131,71.8512434 120.053155,72.6306534 120.567368,73.49808 L127.038942,80.5892052 L126.952854,72.6329696 L126.952854,72.6329696 C126.866767,71.0185603 128.448116,69.8656589 130.404437,69.1736865 L133.165588,68.3091552 Z M151.372198,65.1092893 C156.326774,65.8510953 154.600497,71.3965025 150.462952,70.6679208 L150.336838,70.6439108 C144.799515,69.5738145 141.08967,72.3480739 140.845274,77.3893393 C141.075225,82.4919846 144.526808,84.5962758 148.093367,81.6268743 L148.179455,79.3783981 L147.909534,79.4387487 C145.863897,79.8759252 144.37801,79.7128899 144.380652,78.0207109 L144.382944,77.9081738 C144.382944,77.9081738 144.641784,75.2271425 144.469032,75.1408631 L153.960596,72.8061075 L153.960596,82.2319883 C153.011324,85.8644094 150.077999,87.8245154 144.900624,88.6317201 C138.285186,89.2657869 134.258724,85.5181336 134.3737,78.4270084 C135.667899,68.338108 141.334065,63.8984823 151.372198,65.1092893 Z M87.8483938,64.4410581 C90.8834065,63.4427648 92.8657268,69.0405035 89.7683152,72.2635316 C92.9527662,71.9360752 92.9889531,78.0001275 89.278385,80.1377829 L89.1489485,80.2099232 L80.9111394,84.1208704 L80.8979317,73.2382163 C80.889425,70.0775542 80.8754395,67.3599096 80.8524463,66.9670653 L80.8487405,66.9246312 L87.8483938,64.4410581 Z M84.7665819,74.6179751 L84.5568523,79.0923443 L84.7923379,79.0021839 C86.3631605,78.3865808 87.9261723,77.4644236 87.9102149,75.283311 C87.9350589,74.114196 86.5281951,73.7204376 84.7665819,74.6179751 Z M99.4938757,61.1508594 C99.6175179,59.1230038 103.520337,58.3783372 103.581581,60.4681519 L103.520337,71.456327 L103.520337,71.456327 C103.354518,74.6428746 101.455396,76.7743813 98.0072799,77.4779349 C95.4719122,77.9863671 92.578747,76.9375327 92.4958297,74.3314316 L92.5560434,63.5718944 C92.5355964,61.201571 96.4861213,60.8614538 96.5810724,62.8464012 L96.5825052,62.9511459 L96.5825052,72.0151164 C96.5409059,74.2085822 99.348856,74.1049311 99.6175179,71.518286 L99.4938757,61.1508594 L99.4938757,61.1508594 Z M113.182921,64.8759295 L116.094292,68.1661282 L116.094292,68.1661282 C117.518489,69.9872608 114.545297,72.4911008 112.935059,71.0220346 L109.032817,67.3589236 L108.846776,71.0220346 L108.846776,71.0220346 C108.723134,72.8535901 107.422579,73.7019078 104.944534,74.1877362 L104.758493,58.4814092 L110.890917,56.5572047 C114.711116,55.3776667 117.436446,60.612916 113.182921,64.8759295 Z M84.7509822,68.2906254 L84.5568523,72.4673595 L84.7916842,72.3765636 C86.2405534,71.8019578 87.677182,70.9396156 87.6629304,68.9113739 C87.6854634,67.8198525 86.3831754,67.4527307 84.7509822,68.2906254 Z M127.174717,53.0637572 C130.380186,53.557479 129.277344,57.241287 126.610283,56.7827584 L126.502773,56.7621907 C122.909059,56.047056 120.500924,57.9011947 120.342616,61.2701451 C120.492258,64.6796294 122.731685,66.0861575 125.046799,64.1023101 L125.102265,62.5990796 L124.864815,62.6529213 C123.579719,62.9259926 122.650457,62.8069439 122.637319,61.7186243 L122.638664,61.6169999 C122.638664,61.6169999 122.806217,59.8253992 122.694708,59.7674936 L128.854865,58.2069365 L128.854865,64.5064915 C128.238965,66.9338961 126.334643,68.2437218 122.974347,68.7834024 C118.680957,69.2066927 116.067714,66.7022736 116.142246,61.9632756 C116.98232,55.2207424 120.65981,52.2542363 127.174717,53.0637572 Z M129.884446,51.5066744 L138.82251,49.6756979 L138.822146,49.9485519 C138.794055,52.5159182 138.028689,53.0720579 134.387748,53.8097432 L133.799399,53.9259722 L133.799399,56.4761368 L138.430783,55.6260819 L138.452292,55.9644981 C138.5642,58.1014663 138.057511,58.6631743 134.194039,59.3199812 L133.994685,59.3534682 L133.994685,62.6222419 L138.887798,61.4450201 L138.905382,61.7972258 C138.972893,63.5052288 138.729551,64.9936382 136.408597,65.5650067 L134.513287,65.9500269 C133.477026,66.1630488 132.524768,66.3620492 131.460505,66.5797449 L130.015022,66.8725162 L129.884446,51.5066744 Z M148.274786,56.7257101 L151.2578,60.2874863 L151.2578,60.2874863 C152.716085,62.233695 149.638318,64.2586554 147.98648,62.6268743 L143.983707,58.5752164 L143.772822,62.0866147 L143.772822,62.0866147 C143.635313,63.8382604 142.29027,64.4856455 139.733649,64.6275143 L139.626184,49.4394429 L145.957361,48.3919298 C149.900046,47.757863 152.681419,53.1726198 148.274786,56.7257101 Z M108.846776,64.6275143 C112.709152,62.7646897 112.233649,58.3569121 108.909175,59.9713215 L108.846776,64.6275143 L108.846776,64.6275143 Z M119.143749,36.5380653 C126.543795,36.5380653 133.313497,39.2306778 138.750289,43.7895892 C139.896002,44.8625808 139.694361,45.6709436 138.559048,45.8035475 C122.297781,49.1140132 106.037093,53.71867 89.7758262,59.0899976 C88.0072799,59.5903023 88.8242431,56.0487931 89.547608,54.8947336 C95.8978507,43.8990308 106.906055,36.5380653 119.143749,36.5380653 Z M143.80691,55.9132939 C147.796972,54.6248933 147.331292,50.3068694 143.895886,51.4261855 L143.80691,55.9132939 L143.80691,55.9132939 Z M103.077768,42.4594965 L101.671448,43.3427671 L101.140833,43.6857699 C98.4403567,45.4641161 95.6982899,47.8481125 93.2302981,54.3023589 C92.8096834,55.9167683 94.6354287,56.3892783 95.0155997,54.981013 C96.0041599,50.2478057 98.9709961,46.2054127 103.077768,42.4594965 Z M119.079039,38.3881507 L119.580711,38.4630111 L120.061696,38.5392005 C127.831147,39.8066125 131.342382,42.2036402 128.741622,46.2222053 C136.152646,44.0270023 133.763,39.2671584 119.079039,38.3881507 Z" id="Shape"></path>
        </g>
    </g>
</svg>