<?xml version="1.0" encoding="UTF-8"?>
<svg width="230px" height="160px" viewBox="0 0 230 160" version="1.1" xmlns="http://www.w3.org/2000/svg" xmlns:xlink="http://www.w3.org/1999/xlink">
    <!-- Generator: Sketch 52.4 (67378) - http://www.bohemiancoding.com/sketch -->
    <g id="03-what-we-do-(SRC)" stroke="none" stroke-width="1" fill="none" fill-rule="evenodd" opacity="0.301">
        <g id="Group-2" fill="#D4E1ED">
            <path d="M88.936132,111.623772 L88.936132,90.5256121 L94.1990749,90.5256121 L94.1990749,111.623772 L88.936132,111.623772 Z M136.62397,96.5715447 C136.410484,96.4584352 134.718169,95.4409136 132.197106,95.4409136 C128.802398,95.4409136 126.437097,97.8400858 126.437097,101.071586 C126.437097,104.206433 128.700236,106.704345 132.197106,106.704345 C134.673273,106.704345 136.400405,105.711624 136.62397,105.583912 L136.62397,111.249584 C135.96175,111.434545 134.169564,111.999861 131.827399,111.999861 C125.91094,111.999861 120.724275,107.869975 120.724275,101.071586 C120.724275,94.7685149 125.41731,90.1514237 131.827399,90.1514237 C134.303795,90.1514237 136.130111,90.7556786 136.62397,90.9061049 L136.62397,96.5715447 Z M81.7084502,96.5715447 C81.4963382,96.4584352 79.8040236,95.4409136 77.2827312,95.4409136 C73.876799,95.4409136 71.5169959,97.8400858 71.5169959,101.071586 C71.5169959,104.206433 73.7757824,106.704345 77.2827312,106.704345 C79.7591273,106.704345 81.4738901,105.711624 81.7084502,105.583912 L81.7084502,111.249584 C81.0485208,111.434545 79.2554186,111.999861 76.9018001,111.999861 C70.9917553,111.999861 65.8027996,107.869975 65.8027996,101.071586 C65.8027996,94.7685149 70.5031647,90.1514237 76.9018001,90.1514237 C79.3781961,90.1514237 81.2047415,90.7556786 81.7084502,90.9061049 L81.7084502,96.5715447 Z M164.197361,101.07147 C164.197361,107.107297 159.59366,111.999977 153.183801,111.999977 C146.763862,111.999977 142.17024,107.107297 142.17024,101.07147 C142.17024,95.0442192 146.763862,90.1513078 153.183801,90.1513078 C159.59366,90.1513078 164.197361,95.0442192 164.197361,101.07147 Z M153.183801,95.5230802 C150.057325,95.5230802 147.737149,98.0084752 147.737149,101.07147 C147.737149,104.138869 150.057325,106.624264 153.183801,106.624264 C156.298365,106.624264 158.61854,104.138869 158.61854,101.07147 C158.61854,98.0084752 156.298365,95.5230802 153.183801,95.5230802 Z M114.157943,95.3193673 C114.079603,95.2968845 111.861361,94.6782591 110.04604,94.6782591 C107.928127,94.6782591 106.784875,95.3914514 106.784875,96.4050327 C106.784875,97.6918846 108.331277,98.1378326 109.193698,98.4194474 L110.650307,98.8844014 C114.068379,99.9821195 115.625776,102.350233 115.625776,104.915593 C115.625776,110.219685 111.020243,112 106.986221,112 C104.185701,112 101.56408,111.479882 101.305926,111.4224 L101.305926,106.56866 C101.775963,106.685709 103.983439,107.349764 106.281395,107.349764 C108.891793,107.349764 110.101931,106.578858 110.101931,105.380315 C110.101931,104.309252 109.059467,103.696653 107.749,103.279446 C107.435184,103.172363 106.952778,103.0224 106.628883,102.90929 C103.692988,101.974051 101.249806,100.234762 101.249806,96.7422751 C101.249806,92.7950329 104.174477,90.1432186 109.026024,90.1432186 C111.592212,90.1432186 114.000577,90.7743602 114.157943,90.8153855 L114.157943,95.3193673 Z M60.2233151,67.8464461 L60.2233151,73.3867238 C60.2233151,74.8504251 59.0500563,76.0322799 57.6117721,76.0322799 C56.1753203,76.0322799 55,74.8504251 55,73.3867238 L55,67.8464461 C55,66.3971152 56.1753203,65.2171146 57.6117721,65.2171146 C59.0500563,65.2171146 60.2233151,66.3971152 60.2233151,67.8464461 Z M74.5719354,60.5772393 L74.5719354,73.3866542 C74.5719354,74.8503556 73.3954698,76.0324422 71.9603924,76.0324422 C70.52165,76.0324422 69.3483913,74.8503556 69.3483913,73.3866542 L69.3483913,60.5772393 C69.3483913,59.1281401 70.52165,57.9439675 71.9603924,57.9439675 C73.3954698,57.9439675 74.5719354,59.1281401 74.5719354,60.5772393 Z M88.9254806,50.6335035 L88.9254806,78.65336 C88.9254806,80.1133528 87.7490149,81.2912674 86.3148538,81.2912674 C84.8692396,81.2912674 83.692774,80.1133528 83.692774,78.65336 L83.692774,50.6335035 C83.692774,49.1802324 84.8692396,48 86.3148538,48 C87.7490149,48 88.9254806,49.1802324 88.9254806,50.6335035 Z M103.266725,60.5772393 L103.266725,73.3866542 C103.266725,74.8503556 102.101713,76.0324422 100.656327,76.0324422 C99.2228535,76.0324422 98.0454716,74.8503556 98.0454716,73.3866542 L98.0454716,60.5772393 C98.0454716,59.1281401 99.2228535,57.9439675 100.656327,57.9439675 C102.101713,57.9439675 103.266725,59.1281401 103.266725,60.5772393 Z M117.608199,67.8464461 L117.608199,73.3867238 C117.608199,74.8504251 116.432878,76.0322799 115.009712,76.0322799 C113.564098,76.0322799 112.399086,74.8504251 112.399086,73.3867238 L112.399086,67.8464461 C112.399086,66.3971152 113.564098,65.2171146 115.009712,65.2171146 C116.432878,65.2171146 117.608199,66.3971152 117.608199,67.8464461 Z M131.96376,60.5772393 L131.96376,73.3866542 C131.96376,74.8503556 130.797602,76.0324422 129.351071,76.0324422 C127.91691,76.0324422 126.752585,74.8503556 126.752585,73.3866542 L126.752585,60.5772393 C126.752585,59.1281401 127.91691,57.9439675 129.351071,57.9439675 C130.797602,57.9439675 131.96376,59.1281401 131.96376,60.5772393 Z M146.315289,50.6335035 L146.315289,78.65336 C146.315289,80.1133528 145.149131,81.2912674 143.714512,81.2912674 C142.270501,81.2912674 141.106176,80.1133528 141.106176,78.65336 L141.106176,50.6335035 C141.106176,49.1802324 142.270501,48 143.714512,48 C145.149131,48 146.315289,49.1802324 146.315289,50.6335035 Z M160.668834,60.5772393 L160.668834,73.3866542 C160.668834,74.8503556 159.504738,76.0324422 158.035759,76.0324422 C156.601598,76.0324422 155.437502,74.8503556 155.437502,73.3866542 L155.437502,60.5772393 C155.437502,59.1281401 156.601598,57.9439675 158.035759,57.9439675 C159.504738,57.9439675 160.668834,59.1281401 160.668834,60.5772393 Z M175,67.8464461 L175,73.3867238 C175,74.8504251 173.834071,76.0322799 172.401514,76.0322799 C170.955212,76.0322799 169.788825,74.8504251 169.788825,73.3867238 L169.788825,67.8464461 C169.788825,66.3971152 170.955212,65.2171146 172.401514,65.2171146 C173.834071,65.2171146 175,66.3971152 175,67.8464461 Z" id="Combined-Shape"></path>
        </g>
    </g>
</svg>