<svg xmlns="http://www.w3.org/2000/svg" width="2560" height="440" viewBox="0 0 2560 440"><defs><linearGradient id="m0mni3s2rgunfhcbvv1cidbz" x1="382" y1="440" x2="1280" y2="440" gradientUnits="userSpaceOnUse"><stop offset="0" stop-color="#4780fb"/><stop offset="1" stop-color="#4780fb" stop-opacity="0"/></linearGradient></defs><style>
@keyframes qzrir7i9g4ngmui87ffgb3em_t { 0% { transform: translate(0px,219.7px) translateY(-219.7px); } 100% { transform: translate(-2560px,219.7px) translateY(-219.7px); } }
@keyframes wlohxmlwmhgzyyzg2n0rhfql_t { 0% { transform: translate(-2560px,219.7px) scaleY(-1) translateY(-219.7px); } 100% { transform: translate(0px,219.7px) scaleY(-1) translateY(-219.7px); } }
</style><title>clients-path</title><desc>Created with Sketch.</desc><rect fill="#4780fb" width="2560" height="440" fill-rule="evenodd"/><path d="M5120 281.8c-74.3 68.1-174.9 89.8-246.9 41.5c-107.8-72.4-185.5-180.7-315.8-180.7c-130.3 0-149.7 96.1-338.1 96.1c-188.4 0-188.4-131.2-492.8-26c-304.4 105.2-403.9 108.1-610.9-53.1c-132.8-103.5-280.7-107.3-526.5 97.5c-9.6 7.9-43.9 37.7-51.7 43.5c-71.2 52.9-159.3 66.3-224.2 22.7c-107.8-72.4-185.5-180.7-315.8-180.7c-130.3 0-149.7 96.1-338.1 96.1c-188.4 0-188.4-131.2-492.8-26c-304.4 105.2-403.9 108.1-610.9-53.1c-137.9-107.5-292.2-107.5-555.5 122.2" stroke="#fff" stroke-width="1.5" fill="none" transform="translate(0,219.7) translate(0,-219.7)" style="animation: 21.65s linear infinite both qzrir7i9g4ngmui87ffgb3em_t;"/><path d="M5120 281.8c-74.3 68.1-174.9 89.8-246.9 41.5c-107.8-72.4-185.5-180.7-315.8-180.7c-130.3 0-149.7 96.1-338.1 96.1c-188.4 0-188.4-131.2-492.8-26c-304.4 105.2-403.9 108.1-610.9-53.1c-132.8-103.5-280.7-107.3-526.5 97.5c-9.6 7.9-43.9 37.7-51.7 43.5c-71.2 52.9-159.3 66.3-224.2 22.7c-107.8-72.4-185.5-180.7-315.8-180.7c-130.3 0-149.7 96.1-338.1 96.1c-188.4 0-188.4-131.2-492.8-26c-304.4 105.2-403.9 108.1-610.9-53.1c-137.9-107.5-292.2-107.5-555.5 122.2" stroke="#fff" fill="none" opacity=".5" transform="translate(-2560,219.7) scale(1,-1) translate(0,-219.7)" style="animation: 14.65s linear infinite both wlohxmlwmhgzyyzg2n0rhfql_t;"/><rect width="1280" height="440" fill="url(#m0mni3s2rgunfhcbvv1cidbz)"/><rect width="1280" height="440" fill="url(#m0mni3s2rgunfhcbvv1cidbz)" transform="translate(1920,220) rotate(180) translate(-640,-220)"/></svg>