<svg width="230" height="160" viewBox="0 0 230 160" xmlns="http://www.w3.org/2000/svg"><g fill="none" fill-rule="evenodd"><path d="M82.572 77.802c-.175 1.323-.538 2.33-1.107 3.081-.792.994-1.996 1.614-3.673 1.614h-.978c-1.667 0-2.87-.57-3.38-1.512-.345-.708-.437-1.707-.258-3.037l.39-2.96c.212-1.592.724-2.759 1.565-3.567.813-.79 1.982-1.168 3.388-1.168h.91c.968 0 2.244.158 2.959 1.095.596.777.782 1.921.577 3.492l-.393 2.962zM79.648 67h-.893c-6.357.067-9.677 2.684-10.379 7.695l-.42 3.25c-.267 2.238.136 3.916 1.23 5.134 1.353 1.502 3.718 2.589 7.314 2.626h.892c6.218-.063 9.533-2.605 10.317-7.264h.01l.043-.334.418-3.246c.278-2.327-.133-4.061-1.257-5.312-1.356-1.508-3.713-2.513-7.275-2.549zm54.13 10.802c-.177 1.323-.543 2.33-1.111 3.081-.79.994-1.997 1.614-3.67 1.614h-.976c-1.672 0-2.871-.57-3.385-1.512-.344-.708-.432-1.707-.258-3.037l.394-2.96c.209-1.592.722-2.759 1.561-3.567.815-.79 1.982-1.168 3.392-1.168h.908c.967 0 2.247.158 2.96 1.095.593.777.78 1.921.576 3.492l-.39 2.962zM130.856 67h-.895c-6.36.067-9.68 2.684-10.38 7.695l-.42 3.25c-.268 2.238.136 3.916 1.23 5.134 1.353 1.502 3.718 2.589 7.313 2.626h.895c6.217-.063 9.531-2.605 10.314-7.264h.01l.042-.334.418-3.246c.277-2.327-.133-4.061-1.256-5.312-1.357-1.508-3.712-2.513-7.271-2.549zm50.435 10.802c-.177 1.323-.54 2.33-1.111 3.081-.791.994-1.996 1.614-3.672 1.614h-.975c-1.668 0-2.871-.57-3.382-1.512-.349-.708-.435-1.707-.263-3.037l.396-2.96c.21-1.592.722-2.759 1.56-3.567.817-.79 1.986-1.168 3.394-1.168h.909c.965 0 2.243.158 2.96 1.095.592.777.78 1.921.575 3.492l-.391 2.962zm4.347-8.253c-1.355-1.508-3.712-2.513-7.272-2.549h-.895c-6.358.067-9.678 2.684-10.377 7.695l-.42 3.25c-.27 2.238.134 3.916 1.23 5.134 1.352 1.502 3.714 2.589 7.315 2.626h.889c6.218-.063 9.534-2.605 10.317-7.264h.006l.046-.334.419-3.246c.278-2.327-.132-4.061-1.258-5.312zm-38.751 2.967c.183 0 .349.016.504.045.605.109.993.402 1.227.658.443.488.651 1.192.566 1.932l-.667 5.438-.002.005-.176 1.398-.012.094h.032l-.006.004 3.037.001a7.4 7.4 0 0 0 .764-.048c1.363-.143 3.603-.696 4.247-2.449.02-.048.033-.096.052-.146.142-.471.26-.968.324-1.497l.259-1.9v-.003l.124-.888c.096-.718.115-1.399.041-2.015-.21-1.753-2.313-2.307-3.642-2.453a6.88 6.88 0 0 0-.752-.045h-3.03v.004h-2.378l-.006-.011c-.718-.05-1.189-.169-1.459-.365-.644-.465-.975-1.223-1.003-2.32l-.017-.55h.587l6.625.002h.096l.779.002c4.02.034 6.686.84 8.148 2.46 1.1 1.225 1.508 2.873 1.246 5.04l-.15 1.146-.21 1.776c-.031.236-.071.66-.113.883-.19 1.149-.525 2.14-1 2.954a6.41 6.41 0 0 1-2.144 2.213c-.29.183-.61.344-.946.495a10.77 10.77 0 0 1-2.396.752c-.27.051-.71.1-1.251.14a37.4 37.4 0 0 1-2.168.085l-5.478.002h-.736c-1.355-.036-2.154-.268-2.59-.754a1.356 1.356 0 0 1-.2-.298c-.145-.283-.198-.627-.15-1.045l.667-5.021.709-5.721h2.648zm-82.151 9.57h-7.247v.007c-.985-.007-1.766-.088-2.373-.257-.61-.167-1.071-.432-1.372-.79a2.213 2.213 0 0 1-.487-1.095 4.231 4.231 0 0 1-.069-.535 7.922 7.922 0 0 1 .066-1.558l.363-2.743c.042-.322.105-.62.175-.906.02-.078.048-.173.08-.296a5.79 5.79 0 0 1 .242-.715c.02-.052.04-.102.064-.152.08-.174.175-.329.267-.485.09-.138.188-.27.296-.394.404-.47.977-.839 1.708-1.1.724-.255 1.652-.381 2.836-.383h4.01l.008-.013c.733-.049 1.237-.168 1.56-.366.384-.235.705-.546.97-.938.042-.06.072-.136.11-.2.204-.345.377-.734.505-1.193l.165-.563h-7.597l-.497.001c-.897.01-1.725.078-2.5.192-4.507.666-6.933 3.103-7.509 7.227l-.405 3.135c-.259 2.16.13 3.777 1.186 4.951 1.223 1.359 3.317 2.308 6.43 2.459l5.476-.011c.737-.049 1.462-.085 1.783-.284.48-.291.856-.712 1.148-1.249.071-.13.14-.26.202-.407 0 0 .278-.642.406-1.34zm32.547.411l-.027.223a3.114 3.114 0 0 1-1.048 1.932 2.875 2.875 0 0 1-1.905.705H91.6l.25-2.046.1-.814 1.862-15.099h2.212c1.411 0 2.365.364 2.833 1.08l4.907 7.765 6.98-7.84c.607-.668 1.608-1.005 2.976-1.005h2.307l-1.894 15.1-.026.22a3.13 3.13 0 0 1-1.048 1.933c-.37.32-1.005.7-1.905.7l-2.605-.001 1.31-10.474-5.49 6.86c-.162.185-.672.745-1.288.75h-.043c-.58-.005-1.019-.576-1.18-.833l-3.62-6.809-.954 7.653zM56.11 101.106c-.023.824-.38 1.49-1.068 1.996-.689.508-1.576.763-2.668.763-1.365 0-2.433-.443-3.21-1.328-.778-.887-1.164-2.105-1.164-3.663 0-1.581.386-2.826 1.165-3.726.776-.903 1.844-1.352 3.209-1.352 1.141 0 2.049.246 2.725.747.674.5 1.01 1.17 1.01 2.011h-1.371c0-.489-.205-.885-.615-1.188-.409-.302-.944-.452-1.61-.452-1 0-1.773.332-2.32.997-.547.662-.821 1.6-.821 2.81 0 1.286.27 2.28.807 2.986.54.708 1.295 1.06 2.27 1.06.648 0 1.174-.147 1.582-.44.407-.295.64-.702.707-1.221h1.372zm1.599-4.181h1.257v.687c.488-.59 1.125-.885 1.905-.879l.339.013v1.16l-.257-.013c-.696 0-1.204.186-1.518.56-.315.372-.47.97-.47 1.79v3.428H57.71v-6.746zm9.777 2.65c-.04-.618-.17-1.071-.388-1.36-.27-.366-.737-.55-1.398-.55-.574 0-1.02.213-1.338.64-.24.32-.39.744-.444 1.27h3.568zm-1.683 4.29c-1.004 0-1.79-.307-2.357-.92-.567-.614-.852-1.46-.852-2.54 0-1.144.285-2.042.856-2.693.57-.655 1.357-.979 2.353-.979.967 0 1.704.282 2.21.849.51.562.764 1.387.764 2.465l-.013.453h-4.861c.034.77.18 1.354.445 1.75.3.455.775.683 1.42.683.458 0 .834-.128 1.126-.379.293-.252.47-.6.525-1.043h1.295c-.096.763-.392 1.349-.89 1.751-.499.4-1.172.603-2.02.603zm8.862-3.474h-1.152c-.71 0-1.242.113-1.597.343-.353.23-.531.574-.531 1.03 0 .372.127.657.375.863.25.203.602.306 1.061.306.613 0 1.074-.172 1.379-.517.307-.342.46-.847.464-1.517l.001-.508zm-2.054 3.474c-.778 0-1.391-.187-1.832-.56-.442-.372-.662-.89-.662-1.546 0-.717.302-1.273.907-1.68.606-.405 1.44-.606 2.503-.606h1.137l-.001-.57c0-.43-.124-.745-.376-.94-.248-.2-.65-.298-1.206-.298-.379 0-.683.09-.913.272-.23.181-.36.431-.388.752h-1.316c.05-.678.296-1.172.734-1.486.437-.313 1.103-.47 1.988-.47.82 0 1.478.199 1.98.597.501.398.752.924.752 1.573v2.347c0 .638.015 1.175.051 1.607.03.428.076.701.135.814h-1.192c-.049-.057-.089-.209-.116-.452a5.887 5.887 0 0 1-.05-.574 2.767 2.767 0 0 1-.284.416c-.448.537-1.065.804-1.851.804zm8.792-.095a7.188 7.188 0 0 1-1.233.095c-.473 0-.873-.127-1.2-.383-.328-.26-.492-.571-.492-.942v-4.716h-1.413v-.899h1.413v-1.216l1.253-.513v1.729h1.672v.899h-1.672v4.427c0 .24.063.41.183.519.117.108.31.163.575.163a5.25 5.25 0 0 0 .914-.09v.927zm1.618-6.845h1.256v6.747H83.02v-6.747zm-.06-2.938h1.377v1.27H82.96v-1.27zm3.727 2.938h1.167v.932c.065-.094.135-.183.214-.267.517-.57 1.218-.857 2.093-.857.897 0 1.554.237 1.976.708.42.47.63 1.206.63 2.21v4.02h-1.253v-4c0-.691-.133-1.192-.396-1.502-.261-.313-.685-.468-1.262-.468-.669 0-1.156.17-1.46.51-.302.341-.452.89-.452 1.644v3.816h-1.257v-6.746zm11.054.727c-.594 0-1.05.216-1.374.652-.327.43-.49 1.04-.49 1.826 0 .852.153 1.485.46 1.902.308.418.775.624 1.404.624.591 0 1.05-.22 1.376-.655.327-.437.489-1.053.489-1.85 0-.795-.162-1.412-.49-1.846-.325-.434-.784-.653-1.375-.653zm-.013 7.799c.68 0 1.166-.165 1.452-.493.282-.331.426-.893.426-1.684v-.899l-.21.288c-.507.61-1.175.915-2.002.915-.885 0-1.583-.308-2.088-.922-.508-.613-.76-1.46-.76-2.54 0-.988.28-1.799.841-2.434.562-.631 1.28-.949 2.16-.949.831 0 1.484.304 1.955.913l.104.129v-.85h1.255v6.35c0 1.08-.253 1.869-.76 2.364-.505.498-1.306.746-2.402.746-.957 0-1.658-.176-2.104-.529-.446-.352-.669-.905-.669-1.662h1.312c0 .435.118.754.358.955.243.202.618.302 1.132.302zm12.53-10.365h-3.279v-1.099h7.897v1.1h-3.28v8.584h-1.337v-8.585zm6.167 1.839h1.254v.687c.491-.59 1.125-.885 1.907-.879l.34.013v1.16l-.255-.013c-.7 0-1.207.186-1.518.56-.316.372-.474.97-.474 1.79v3.428h-1.254v-6.746zm6.395 4.039c0 .69.132 1.19.396 1.502.264.31.684.467 1.261.467.702 0 1.206-.173 1.507-.522.3-.348.437-.904.4-1.667v-3.819h1.254v6.746h-1.164v-.877l-.139.178c-.526.596-1.224.893-2.094.893-.922 0-1.596-.24-2.027-.723-.433-.483-.65-1.238-.65-2.267v-3.95h1.256v4.039zm10.892-2.22c0-.332-.121-.6-.365-.788-.24-.193-.578-.29-1.008-.29-.44 0-.785.082-1.032.24a.766.766 0 0 0-.366.673.71.71 0 0 0 .2.522c.13.137.334.243.609.316l1.389.371c.707.192 1.216.438 1.523.734.306.292.457.681.457 1.167 0 .678-.25 1.21-.75 1.596-.501.386-1.194.58-2.075.58-.925 0-1.628-.188-2.112-.567-.482-.377-.725-.927-.725-1.65h1.298c0 .404.137.716.408.944.272.226.649.34 1.13.34.5 0 .893-.1 1.17-.296.278-.197.415-.476.415-.837a.686.686 0 0 0-.259-.538c-.17-.143-.433-.267-.79-.362l-1.386-.37c-.625-.167-1.08-.397-1.355-.682-.273-.282-.408-.664-.408-1.154 0-.61.233-1.091.705-1.438.471-.347 1.123-.522 1.954-.522.83 0 1.484.18 1.961.534.473.358.71.85.71 1.476h-1.298zm7.15 5.026a7.188 7.188 0 0 1-1.234.095c-.47 0-.872-.127-1.2-.383-.33-.26-.491-.571-.491-.942v-4.716h-1.414v-.899h1.414v-1.216l1.253-.513v1.729h1.672v.899h-1.672v4.427c0 .24.06.41.181.519.118.108.312.163.575.163.334-.006.638-.036.916-.09v.927zm12.58-2.044c.532-.693.798-1.673.798-2.941 0-1.236-.266-2.193-.798-2.873-.534-.68-1.281-1.02-2.253-1.02-.968 0-1.715.34-2.246 1.02-.532.68-.797 1.637-.797 2.873 0 1.268.265 2.248.797 2.941.531.695 1.278 1.04 2.246 1.04.972 0 1.719-.345 2.253-1.04zm-5.465.785c-.78-.906-1.169-2.15-1.169-3.74 0-1.551.389-2.768 1.169-3.652.778-.883 1.85-1.323 3.212-1.323 1.373 0 2.448.44 3.223 1.323.777.884 1.163 2.1 1.163 3.652 0 1.59-.386 2.834-1.163 3.74-.775.902-1.85 1.354-3.223 1.354-1.363 0-2.434-.452-3.212-1.354zm9.32-5.586h1.163v.932c.064-.094.135-.183.215-.267.52-.57 1.217-.857 2.094-.857.896 0 1.553.237 1.976.708.42.47.63 1.206.63 2.21v4.02h-1.255v-4c0-.691-.132-1.192-.394-1.502-.265-.313-.684-.468-1.261-.468-.67 0-1.16.17-1.46.51-.303.341-.453.89-.453 1.644v3.816h-1.255v-6.746zm8.198-2.938h1.253v9.684h-1.253v-9.684zm3.74 2.938h1.256v6.747h-1.256v-6.747zm-.062-2.938h1.38v1.27h-1.38v-1.27zm3.73 2.938h1.168v.932c.062-.094.136-.183.214-.267.515-.57 1.215-.857 2.093-.857.896 0 1.554.237 1.976.708.42.47.63 1.206.63 2.21v4.02h-1.254v-4c0-.691-.134-1.192-.395-1.502-.264-.313-.685-.468-1.263-.468-.67 0-1.156.17-1.458.51-.303.341-.455.89-.455 1.644v3.816h-1.256v-6.746zm12.76 2.65c-.043-.618-.171-1.071-.39-1.36-.271-.366-.74-.55-1.4-.55-.573 0-1.02.213-1.335.64-.243.32-.39.744-.445 1.27h3.57zm-1.685 4.29c-1.002 0-1.79-.307-2.356-.92-.568-.614-.852-1.46-.852-2.54 0-1.144.284-2.042.854-2.693.572-.655 1.355-.979 2.354-.979.963 0 1.703.282 2.21.849.51.562.764 1.387.764 2.465l-.015.453h-4.858c.03.77.18 1.354.444 1.75.299.455.774.683 1.42.683.458 0 .83-.128 1.126-.379.293-.252.468-.6.525-1.043h1.294c-.096.763-.391 1.349-.89 1.751-.497.4-1.171.603-2.02.603zm5.94-6.994h.207c.243 0 .437-.079.437-.273 0-.17-.127-.284-.402-.284-.117 0-.198.01-.243.021v.536zm-.011 1.051h-.44v-1.86c.175-.035.417-.069.726-.069.356 0 .519.057.656.149.105.08.185.228.185.4 0 .215-.16.376-.392.445v.021c.186.057.29.206.347.457.055.284.09.4.138.457h-.471c-.057-.07-.094-.23-.152-.446-.035-.205-.15-.297-.391-.297h-.206v.743zm.286-2.465c-.829 0-1.45.673-1.45 1.495 0 .833.621 1.495 1.472 1.495.829.01 1.443-.662 1.443-1.495 0-.822-.614-1.495-1.454-1.495h-.01zm.022-.377c1.084 0 1.923.833 1.923 1.872 0 1.061-.839 1.881-1.934 1.881-1.08 0-1.945-.82-1.945-1.881 0-1.039.865-1.872 1.945-1.872h.011z" opacity=".301" fill="#D4E1ED"/></g></svg>