<svg xmlns="http://www.w3.org/2000/svg" width="157.655" height="21.273" viewBox="0 0 157.655 21.273"><path d="M35.896 0h-.004l-1.01.002C27.666.076 23.896 3.051 23.1 8.744l-.477 3.69c-.09 2.745.153 4.449 1.395 5.836 1.537 1.705 4.223 2.938 8.303 2.981h1.014c7.058-.071 10.82-2.958 11.71-8.251h.01l.052-.381.474-3.687c.315-2.645-.152-4.614-1.429-6.036C42.613 1.184 39.939.041 35.896 0m3.318 12.273c-.196 1.502-.61 2.648-1.256 3.501-.899 1.13-2.267 1.834-4.171 1.834h-1.11c-1.891 0-3.259-.65-3.836-1.721-.393-.802-.498-1.938-.293-3.448l.441-3.363c.24-1.809 1.193-2.868 1.777-4.053.984-1.986 2.25-.975 3.846-.975h1.035c1.098 0 2.547-.174 3.356.893.677.881.888 2.183.656 3.967l-.445 3.365zm116.997-9.377c-1.54-1.713-4.215-2.855-8.257-2.896h-.005l-1.012.002c-7.219.074-10.986 3.049-11.779 8.742l-.475 3.69c-.309 2.543.148 4.449 1.395 5.836 1.535 1.705 4.217 2.938 8.305 2.981h1.008c7.059-.072 10.822-2.959 11.711-8.252h.009l.051-.381.476-3.687c.093-2.859-.152-4.613-1.427-6.035m-4.938 9.377c-.201 1.502-.613 2.648-1.26 3.501-.898 1.13-2.266 1.834-4.169 1.834h-1.107c-1.895 0-3.261-.65-3.838-1.721-.396-.802-.496-1.938-.3-3.448l.451-3.363c.235-1.809.817-3.135 1.77-4.053.929-.898 2.253-1.986 3.852-1.986h1.033c1.095 0 2.544.838 3.358 1.904.673.881.888 2.183.654 3.967l-.444 3.365zm-39.632-6.201c.207 0-.174-.032 0 0 .686.125 2.279.722 2.545 1.012.504.556.623 2.195.528 3.036l-.644 5.319v.008l-.381 1.586v.171-.065.065h3.643c.217 0 .515.038.867 0 1.548-.163 4.09-.903 4.82-2.895l.061-.166c.16-.536.295-1.101.367-1.7l.293-2.159-.002-.003h.002l.191-1.01a9.214 9.214 0 0 0 0-2.289c-.238-1.991-2.629-2.621-4.137-2.787-.341-.038-.637-.146-.854-.146h-6.146c-.816-.058-1.349-.104-1.656-.326-.732-.53-1.105-1.389-1.141-2.637L109.593 0h9.566c4.563.039 7.59 1.42 9.249 3.261 1.249 1.391 1.713 3.263 1.417 5.726l-.171 1.301-.239 2.02c-.035.267-.081.749-.129 1.004-.217 1.303-.596 2.432-1.133 3.354a7.284 7.284 0 0 1-2.436 2.516 8.544 8.544 0 0 1-1.074.563c-.797.362-1.705 1.309-2.719 1.509-.307.06-.808-.047-1.42 0-.713.055-1.579-.014-2.463 0h-7.053c-1.539-.039-2.445-.459-2.939-1.012-.093-.104-.168-.459-.229-.581-.165-.322-.227-.713-.17-1.187l.758-5.705 1.183-6.695h2.05zM18.965 17.204H10.74c-1.119-.011-2.005.192-2.694 0-.692-.189-1.216-.839-1.556-1.245a2.508 2.508 0 0 1-.555-1.244 4.827 4.827 0 0 1-.078-.607 9.042 9.042 0 0 1 .075-1.771l.412-3.115c.048-.367.119-.703.199-1.03.022-.088.053-.196.09-.337.004-.02.013-.043.019-.064a6.587 6.587 0 0 1 .33-.919c.088-.2.198-.376.303-.554.104-.156.214-.307.336-.446.457-.535 1.107-1.526 1.939-1.823.82-.291 1.875.002 3.219 0h4.563c.83-.056 1.402-.068 1.767-.294.438-.266.802-.62 1.103-1.066.049-.067.084-.153.128-.226.229-.393.425-.834.57-1.355L21.51 0h-9.601c-1.018.012-1.957.556-2.837.688-5.116.756-7.87 3.525-8.522 8.209l-.461 3.564c-.293 2.451.148 4.289 1.347 5.624C2.82 19.629 5.2 21.08 8.732 21.252h6.217c.836-.057 1.658-.482 2.023-.709.545-.33.972-.809 1.303-1.418a6.505 6.505 0 0 0 .69-1.921zm36.947.404l-.03.252c-.113.847-.544 1.825-1.189 2.38-.421.365-1.142 1.012-2.163 1.012h-3.366l.58-2.72.117-.924L52.236 0h2.248c1.601 0 2.684.197 3.213 1.013l5.572 9.489 7.925-8.908C71.881.836 73.019 0 74.57 0h3.271L75.04 17.608l-.031.25c-.112.843-.618 1.824-1.265 2.382-.42.36-1.064 1.012-2.086 1.012h-2.959l1.49-12.304-6.232 7.794c-.188.212-.765.456-1.463.462h-.05c-.658-.006-1.155-.263-1.337-.554l-4.112-7.738-1.081 8.696M95.228 0h-.004l-1.009.002c-7.217.074-10.986 3.049-11.782 8.742l-.478 3.69c-.017 2.745.154 4.449 1.396 5.836 1.535 1.705 4.221 2.938 8.301 2.981h1.015c7.058-.072 10.82-2.959 11.71-8.252h.01l.051-.381.475-3.687c.315-2.645-.152-4.614-1.429-6.036C101.945 1.184 99.271.041 95.228 0m3.319 12.273c-.197 1.502-.613 2.648-1.257 3.501-.899 1.13-2.267 1.834-4.17 1.834h-1.11c-1.891 0-3.26-.65-3.836-1.721-.393-.802-.498-1.938-.294-3.448l.442-3.363c.24-1.809 1.191-2.868 1.778-4.053.982-1.986 2.249-.975 3.845-.975h1.034c1.099 0 2.548-.174 3.358.893.676.881.888 2.183.654 3.967l-.444 3.365z" fill="#FFF"/></svg>