<?xml version="1.0" encoding="UTF-8"?>
<svg width="20px" height="20px" viewBox="0 0 20 20" version="1.1" xmlns="http://www.w3.org/2000/svg" xmlns:xlink="http://www.w3.org/1999/xlink">
    <!-- Generator: Sketch 46.2 (44496) - http://www.bohemiancoding.com/sketch -->
    <defs></defs>
    <g id="Page-1" stroke="none" stroke-width="1" fill="none" fill-rule="evenodd" opacity="0.600000024">
        <g id="02-03-management" transform="translate(-1600.000000, -240.000000)" fill="#000000">
            <g id="Group-6" transform="translate(1600.000000, 239.000000)">
                <g id="icon20pt_cross" transform="translate(0.000000, 1.000000)">
                    <path d="M2.82359741,15.6519175 C2.39621299,16.0793019 2.39361005,16.7783864 2.82318678,17.2079631 C3.25575844,17.6405347 3.94942884,17.637356 4.37923236,17.2075525 L10.0155749,11.5712099 L15.6519175,17.2075525 C16.0793019,17.6349369 16.7783864,17.6375398 17.2079631,17.2079631 C17.6405347,16.7753914 17.637356,16.081721 17.2075525,15.6519175 L11.5712099,10.0155749 L17.2075525,4.37923236 C17.6349369,3.95184794 17.6375398,3.25276351 17.2079631,2.82318678 C16.7753914,2.39061512 16.081721,2.39379389 15.6519175,2.82359741 L10.0155749,8.45993998 L4.37923236,2.82359741 C3.95184794,2.39621299 3.25276351,2.39361005 2.82318678,2.82318678 C2.39061512,3.25575844 2.39379389,3.94942884 2.82359741,4.37923236 L8.45993998,10.0155749 L2.82359741,15.6519175 Z" id="Rectangle-929"></path>
                </g>
            </g>
        </g>
    </g>
</svg>