<?xml version="1.0" encoding="UTF-8"?>
<svg width="256px" height="256px" viewBox="0 0 256 256" version="1.1" xmlns="http://www.w3.org/2000/svg" xmlns:xlink="http://www.w3.org/1999/xlink">
    <!-- Generator: Sketch 42 (36781) - http://www.bohemiancoding.com/sketch -->
    <defs></defs>
    <g id="Standard" stroke="none" stroke-width="1" fill="none" fill-rule="evenodd">
        <g id="Group" fill="#FFFFFF">
            <path d="M13,127.718559 L127.226348,89 L243,127.983333 L127.226348,168 L13,127.718559 Z M181.673365,118.19671 L181.673365,120.100221 C181.725037,120.100221 182.029331,120.100221 182.075262,120.103083 C183.629743,120.130276 183.834998,120.589695 183.834998,121.152161 L178.908887,134.028769 L173.335434,118.998188 L169.170057,119.013932 L164.802297,119.013932 L159.64366,133.440541 L155.451011,121.096344 L155.50986,121.096344 C155.50986,120.130276 156.132801,120.05156 157.087307,120.05156 L157.087307,118.20816 L144.79356,118.20816 L144.79356,120.05156 C146.729843,120.05156 146.606403,120.493804 146.945145,121.096344 C146.952322,121.106363 146.923615,121.120675 146.920744,121.136418 L154.410384,140.45777 C154.489329,140.643828 154.486458,140.837041 154.486458,141.056017 C154.486458,142.122269 153.553482,142.31262 152.458313,142.338382 L152.458313,144.14457 L165.900337,144.196094 L165.900337,142.394199 L165.884548,142.394199 C164.476473,142.394199 163.945394,142.136581 163.945394,141.116127 C163.945394,140.962988 163.969795,140.818435 164.093235,140.683902 L169.170057,129.633519 C169.170057,129.633519 173.509111,140.712526 173.509111,141.094659 C173.509111,142.060727 173.176111,142.397061 171.977596,142.397061 L171.977596,144.200388 L184.436408,144.100203 L184.436408,142.3484 C182.54175,142.3484 182.527396,141.941936 182.544621,141.11899 C182.544621,141.11899 191.549988,121.030508 191.571518,121.003315 C191.837057,120.628338 192.313592,120.280554 193.021218,120.147451 C193.253744,120.100221 194.280017,120.104515 194.280017,120.104515 L194.280017,118.146618 L181.673365,118.19671 Z M144.164878,130.695478 C144.164878,122.861028 137.549363,116.512174 127.470357,116.512174 C117.32676,116.512174 110.777272,122.885358 110.777272,130.695478 C110.777272,139.377206 117.389915,144.873057 127.470357,144.873057 C137.549363,144.873057 144.164878,139.377206 144.164878,130.695478 Z M127.493323,123.125802 C133.187344,123.125802 136.889104,126.676637 136.889104,131.067593 C136.889104,135.458549 133.187344,139.012247 127.493323,139.012247 C121.79643,139.012247 118.0918,135.458549 118.0918,131.067593 C118.0918,126.676637 121.79643,123.125802 127.493323,123.125802 Z M105.736333,128.117867 C105.736333,119.539186 98.7648527,112.086869 92.7607963,112.086869 L69.101972,112.086869 L69.101972,113.628284 C69.1077134,113.628284 69.1163255,113.626852 69.1249376,113.626852 C70.8803669,113.626852 72.2740889,114.074822 72.4448952,114.634425 L72.4750374,114.634425 L72.4750374,114.681655 C72.4793435,114.704555 72.5123565,114.72316 72.5123565,114.743197 C72.5123565,114.761803 72.4793435,114.778977 72.4750374,114.801877 L72.4750374,140.828454 L72.3846106,140.828454 C72.3846106,141.432425 70.9191213,141.919037 69.101972,141.936211 L69.101972,143.637922 L92.7607963,143.637922 C97.851972,143.637922 105.736333,137.393547 105.736333,128.117867 Z M79.716363,136.713722 L79.716363,118.746295 L92.1005367,118.746295 C94.5234024,118.746295 99.0131677,121.986557 99.0246505,127.983333 C99.0375686,133.746821 95.1693085,136.713722 92.1005367,136.713722 L79.716363,136.713722 Z" id="Fill-2"></path>
        </g>
    </g>
</svg>