<svg xmlns="http://www.w3.org/2000/svg" width="115.218" height="37.461" viewBox="0 0 115.218 37.461"><g fill-rule="evenodd" clip-rule="evenodd" fill="#C43239"><path d="M42.919 17.684l-.065-.189v-.189l-.129-.191v-.189l-.063-.189-.256-.381-.064-.189-.129-.128-.063-.19-.193-.063-.128-.254-.192-.063-.32-.318-.193-.063-.256-.127-.195-.063-.734-.02c-2.069-.732-4.228-.457-6.452-.709v9.096c1.743-.143 3.929.125 5.649-.065h.258l.255-.126.194-.063.318-.129h.192l.194-.061.191-.191.385-.254.193-.063.258-.19.063-.128.192-.19.128-.188.193-.064c.072-.389.506-.996.704-1.395v-.19l.065-.189v-.698l.129-.189v-.316l-.129-.189v-.703zm18.926 1.394l-.065-.127v-.189l-.13-.189-.063-.189-.129-.191-.063-.063-.129-.253-.065-.064-.128-.189-.129-.127-.193-.063-.061-.194-.131-.127-.191-.063-.192-.127-.064-.063-.258-.126-.191-.128-.064-.063h-.192l-.193-.127h-.191l-.257-.063c-.903.043-.059-.104-.962-.061l-.385-.066-.193.127h-.385l-.255.063h-.193l-.191.127h-.192l-.065.063-.192.128-.257.126c-.331.372-.525.066-.641.571l-.193.063-.129.127-.127.189-.065.064-.128.253-.064.063-.127.191c-.454.834-.085.973-.386 1.583l.129.19v.571l.064.19v.188l.127.19.065.127.127.191.064.188.128.128.065.19.127.063.129.189.193.127.063.127c.465.287.871.441 1.284.76h.191l.193.063h.448l.191.127h1.156l.191-.127h.449l.191-.063h.193c.413-.318.818-.473 1.285-.76l.061-.127.193-.127.129-.189.128-.063.065-.19.129-.128.063-.188.129-.191.063-.127.13-.19v-.188l.065-.19v-.571l.127-.19-.127-.315v-.571z"/><path d="M57.61 0L0 18.762l57.61 18.699 57.607-18.699L57.61 0zM44.715 23.959c-1.184.961-1.296 1.064-2.694 1.776l-.385.063-.514.252-.385.065-.386.127-.511.063h-.387l-.513-.094h-9.495v-.161h.385l.129-.125h-.061V11.853h.123v-.126c-.479.023.541-.09-.123-.063v-.38h8.849l.644.063h.383l.449.127h.514l.385.064.514.189.385.126c.944.372 1.871.921 2.565 1.649 1.411 1.211 2.321 3.588 2.31 5.387-.049 2.147-.827 3.459-2.181 5.07zm5.261-3.993c0-8.888 15.652-8.831 15.652 0 0 8.37-15.652 8.37-15.652 0zm40.48-5.895l-.13.126h-.128v.064h-.064l-4.297 11.474v.063h.127v.127l.129.125h.063v.065h.194v.096h-5.068v-.096h.318v-.065h.131l.063-.125v-.508l-.063-.253-.258-.316c-.709-2.266-1.574-4.485-2.374-6.72l-2.759 7.607v.063h.129v.127h.063v.125h.194l.127.065h.064v.096h-5.133v-.096h.13l.063-.065.192-.548v.423h.131v-.189l-4.297-11.474v-.064l-.065-.126h-.191l-.13-.063h-.063l.345-.549h4.594v.549l-.127.063h-.194l-.063.126-.129.064v.127l2.374 7.415h.128l2.565-7.636h4.045l2.693 7.636h.127l2.375-7.415v-.127h-.13v-.064h-.063l-.129-.126h-.319v-.612h5.067v.612h-.257z"/></g><g fill="#FFF"><path d="M42.919 17.684l-.065-.189v-.189l-.129-.191v-.189l-.063-.189-.256-.381-.064-.189-.129-.128-.063-.19-.193-.063-.128-.254-.192-.063-.32-.318-.193-.063-.256-.127-.195-.063-.734-.02c-2.069-.732-4.228-.457-6.452-.709v9.096c1.743-.143 3.929.125 5.649-.065h.258l.255-.126.194-.063.318-.129h.192l.194-.061.191-.191.385-.254.193-.063.258-.19.063-.128.192-.19.128-.188.193-.064c.072-.389.506-.996.704-1.395v-.19l.065-.189v-.698l.129-.189v-.316l-.129-.189v-.703zm18.926 1.394l-.065-.127v-.189l-.13-.189-.063-.189-.129-.191-.063-.063-.129-.253-.065-.064-.128-.189-.129-.127-.193-.063-.061-.194-.131-.127-.191-.063-.192-.127-.064-.063-.258-.126-.191-.128-.064-.063h-.192l-.193-.127h-.191l-.257-.063c-.903.043-.059-.104-.962-.061l-.385-.066-.193.127h-.385l-.255.063h-.193l-.191.127h-.192l-.065.063-.192.128-.257.126c-.331.372-.525.066-.641.571l-.193.063-.129.127-.127.189-.065.064-.128.253-.064.063-.127.191c-.454.834-.085.973-.386 1.583l.129.19v.571l.064.19v.188l.127.19.065.127.127.191.064.188.128.128.065.19.127.063.129.189.193.127.063.127c.465.287.871.441 1.284.76h.191l.193.063h.448l.191.127h1.156l.191-.127h.449l.191-.063h.193c.413-.318.818-.473 1.285-.76l.061-.127.193-.127.129-.189.128-.063.065-.19.129-.128.063-.188.129-.191.063-.127.13-.19v-.188l.065-.19v-.571l.127-.19-.127-.315v-.571z"/><path d="M57.61 0L0 18.762l57.61 18.699 57.607-18.699L57.61 0zM44.715 23.959c-1.184.961-1.296 1.064-2.694 1.776l-.385.063-.514.252-.385.065-.386.127-.511.063h-.387l-.513-.094h-9.495v-.161h.385l.129-.125h-.061V11.853h.123v-.126c-.479.023.541-.09-.123-.063v-.38h8.849l.644.063h.383l.449.127h.514l.385.064.514.189.385.126c.944.372 1.871.921 2.565 1.649 1.411 1.211 2.321 3.588 2.31 5.387-.049 2.147-.827 3.459-2.181 5.07zm5.261-3.993c0-8.888 15.652-8.831 15.652 0 0 8.37-15.652 8.37-15.652 0zm40.48-5.895l-.13.126h-.128v.064h-.064l-4.297 11.474v.063h.127v.127l.129.125h.063v.065h.194v.096h-5.068v-.096h.318v-.065h.131l.063-.125v-.508l-.063-.253-.258-.316c-.709-2.266-1.574-4.485-2.374-6.72l-2.759 7.607v.063h.129v.127h.063v.125h.194l.127.065h.064v.096h-5.133v-.096h.13l.063-.065.192-.548v.423h.131v-.189l-4.297-11.474v-.064l-.065-.126h-.191l-.13-.063h-.063l.345-.549h4.594v.549l-.127.063h-.194l-.063.126-.129.064v.127l2.374 7.415h.128l2.565-7.636h4.045l2.693 7.636h.127l2.375-7.415v-.127h-.13v-.064h-.063l-.129-.126h-.319v-.612h5.067v.612h-.257z"/></g><path fill="none" d="M-747.87-33.183H534.464v82.982H-747.87z"/></svg>