<?xml version="1.0" encoding="UTF-8"?>
<svg width="230px" height="160px" viewBox="0 0 230 160" version="1.1" xmlns="http://www.w3.org/2000/svg" xmlns:xlink="http://www.w3.org/1999/xlink">
    <!-- Generator: Sketch 47.1 (45422) - http://www.bohemiancoding.com/sketch -->
    <defs></defs>
    <g id="---Text" stroke="none" stroke-width="1" fill="none" fill-rule="evenodd">
        <g id="dow">
            <g id="Group" transform="translate(45.000000, 52.000000)">
                <polygon id="Shape" fill="#EA3324" fill-rule="nonzero" points="0.34829932 24.2841372 69.8229708 0.753141168 140.238742 24.4450522 69.8229708 48.7649667"></polygon>
                <path d="M102.938698,18.4972848 L110.606308,18.4668414 L110.606308,19.6567428 C110.606308,19.6567428 109.982109,19.6541334 109.840682,19.6828372 C109.41029,19.7637296 109.120452,19.9750937 108.958946,20.2029841 C108.945851,20.2195105 103.468613,32.4281772 103.468613,32.4281772 C103.458137,32.9283185 103.466867,33.1753448 104.619234,33.1753448 L104.619234,34.2399935 L97.0415444,34.3008802 L97.0415444,33.2049184 C97.7705042,33.2049184 97.9730416,33.0005128 97.9730416,32.4133904 C97.9730416,32.1811509 95.3339451,25.4479442 95.3339451,25.4479442 L92.2461238,32.1637547 C92.1710453,32.2455169 92.1562042,32.3333678 92.1562042,32.4264376 C92.1562042,33.0466128 92.4792163,33.2031788 93.3356349,33.2031788 L93.345238,33.2031788 L93.345238,34.2982708 L85.1695391,34.2669576 L85.1695391,33.1692562 C85.8356425,33.1535996 86.4030962,33.0379147 86.4030962,32.3899055 C86.4030962,32.2568245 86.4048422,32.1394 86.3568269,32.0263246 L81.8014828,20.2838765 C81.8032288,20.2743086 81.820689,20.2656105 81.8163239,20.2595218 C81.6102946,19.8933314 81.6853731,19.6245598 80.5076883,19.6245598 L80.5076883,18.5042433 L87.9849826,18.5042433 L87.9849826,19.6245598 C87.4044338,19.6245598 87.0255493,19.6723994 87.0255493,20.2595218 L86.9897561,20.2595218 L89.5398059,27.7616414 L92.6773886,18.9939469 L95.3339451,18.9939469 L97.8674079,18.984379 L101.257289,28.1191337 L104.253445,20.2934445 C104.253445,19.9516088 104.128605,19.6723994 103.18314,19.655873 C103.155204,19.6541334 102.970127,19.6541334 102.938698,19.6541334 L102.938698,18.4972848 Z M80.1253118,26.093344 C80.1253118,31.3696173 76.1016282,34.7096914 69.9713818,34.7096914 C63.8402623,34.7096914 59.8183248,31.3696173 59.8183248,26.093344 C59.8183248,21.3467855 63.8018501,17.4735173 69.9713818,17.4735173 C76.1016282,17.4735173 80.1253118,21.3319988 80.1253118,26.093344 Z M69.9853499,21.4929138 C66.52039,21.4929138 64.2671621,23.6509148 64.2671621,26.3194948 C64.2671621,28.9880749 66.52039,31.1478155 69.9853499,31.1478155 C73.4485637,31.1478155 75.7000456,28.9880749 75.7000456,26.3194948 C75.7000456,23.6509148 73.4485637,21.4929138 69.9853499,21.4929138 Z M56.7523285,24.5268144 C56.7523285,30.1640593 51.9569079,33.9590445 48.8603565,33.9590445 L34.4706025,33.9590445 L34.4706025,32.9248393 C35.5758278,32.9144015 36.4671667,32.6186658 36.4671667,32.2516056 L36.522166,32.2516056 L36.522166,16.4340932 C36.5247851,16.4201762 36.5448642,16.4097385 36.5448642,16.398431 C36.5448642,16.3862536 36.5247851,16.3749461 36.522166,16.3610291 L36.522166,16.3323253 L36.5038329,16.3323253 C36.3999452,15.9922293 35.5522566,15.7199784 34.4845706,15.7199784 C34.4793326,15.7199784 34.4740945,15.7208482 34.4706025,15.7208482 L34.4706025,14.7840618 L48.8603565,14.7840618 C52.5121396,14.7840618 56.7523285,19.3131675 56.7523285,24.5268144 Z M40.9264801,29.7508991 L48.4587738,29.7508991 C50.3252601,29.7508991 52.6780106,27.9477809 52.6701536,24.4450522 C52.6631695,20.8005443 49.9324075,18.8312922 48.4587738,18.8312922 L40.9264801,18.8312922 L40.9264801,29.7508991 Z" id="Combined-Shape" fill="#FFFFFF"></path>
            </g>
        </g>
    </g>
</svg>