<svg width="230" height="160" viewBox="0 0 230 160" xmlns="http://www.w3.org/2000/svg"><g fill="none" fill-rule="evenodd"><path d="M64.685 77.055a1.503 1.503 0 0 0-1.47-1.51c-.806-.015-1.49.662-1.496 1.48-.006.853.649 1.525 1.484 1.524a1.493 1.493 0 0 0 1.482-1.494zm-7.582-.01c0 .859.656 1.522 1.488 1.503.813-.018 1.484-.706 1.475-1.512-.01-.806-.706-1.498-1.5-1.49-.82.006-1.463.664-1.463 1.498zm1.482-6.64c-.788-.01-1.438.638-1.49 1.403-.057.854.554 1.577 1.476 1.598.804.018 1.49-.685 1.495-1.49.005-.8-.682-1.5-1.481-1.51zm7.823 6.621c-.006.847.66 1.528 1.488 1.523a1.49 1.49 0 0 0 1.477-1.496 1.498 1.498 0 0 0-1.47-1.508c-.807-.012-1.49.665-1.495 1.481zm-4.689-5.12a1.484 1.484 0 0 0 1.468 1.503c.8.017 1.49-.664 1.498-1.479.008-.841-.67-1.533-1.492-1.525a1.492 1.492 0 0 0-1.474 1.501zm7.654.01a1.494 1.494 0 0 0-1.467-1.51c-.81-.014-1.493.659-1.498 1.476-.006.845.659 1.53 1.484 1.528a1.497 1.497 0 0 0 1.481-1.494zM54.788 88.8c.003-1.645-1.273-2.954-2.89-2.964-1.606-.01-2.95 1.293-2.942 2.925.009 1.84 1.48 2.942 2.922 2.938a2.895 2.895 0 0 0 2.91-2.9zm19.608-2.98c-1.623.002-2.94 1.317-2.908 2.944.032 1.566 1.172 2.896 2.924 2.898 1.849.003 2.929-1.482 2.925-2.932-.004-1.63-1.297-2.91-2.941-2.91zm-11.36-1.504s.48.878 1.83.878c.457 0 3.747-.01 4.192-.097 2.386-.465 3.9-1.938 4.694-4.189.292-.828.536-1.676.753-2.526.856-3.346 1.695-6.697 2.533-10.047.117-.467.233-.94.287-1.416.05-.437-.149-.625-.583-.62-.332.006-.67.02-.996.084-1.081.215-1.958.682-2.252 1.871a292.11 292.11 0 0 1-1.285 5.037 259.021 259.021 0 0 1-1.626 5.907c-.3 1.03-.944 1.789-2.018 2.111-.873.263-1.765.228-2.653.159-.603-.048-1.21-.318-1.272-1.053 0-.126-.109-.156-.222-.158-.855-.017-1.71-.008-2.566-.011-.213 0-.335.053-.363.307-.056.517-.306.798-.819.862a13.57 13.57 0 0 1-1.629.083c-1.723.003-2.724-.745-3.216-2.406-.676-2.28-1.33-4.565-2.013-6.843a3.528 3.528 0 0 0-.496-1.028c-.625-.87-1.577-1.054-2.563-1.106-.849-.045-1.034.177-.807 1.01a1419.6 1419.6 0 0 0 2.814 10.243c.693 2.476 2.898 3.62 4.773 3.758 1.27.093 2.55.075 3.825.062 1.13 0 1.677-.872 1.677-.872zm11.962-24.622c.383.079.768.15 1.149.238 3.061.714 5.27 3.21 5.6 6.336.04.37.063.741.063 1.112.003 7.5.026 15.001-.01 22.502-.013 2.846-1.327 5.008-3.795 6.435-1.072.62-2.25.901-3.485.902-7.65.005-15.302.03-22.953-.01-3.642-.018-6.461-2.696-7.056-5.95-.053-.287-.116-.573-.174-.86V66.55c.037-.189.084-.377.11-.568.403-2.895 2.674-5.382 5.518-6.035.404-.093.812-.17 1.218-.253h23.815zm110.545 13.578v-.428-8.906c.001-.736.27-.979 1.008-.934.269.016.414.139.415.415v21.389c0 .813-.317 1.08-1.113.947-.28-.047-.304-.261-.307-.477-.006-.533-.002-1.068-.001-1.602v-.444c-.135.12-.214.173-.27.243-2.974 3.662-9.07 3.793-11.936-1.012-2.113-3.542-1.25-8.508 2.554-10.906 2.625-1.655 6.711-1.433 9.099 1.197.157.172.293.362.439.544l.112-.026zm-11.599 5.781c.015 1.104.657 2.697 2.014 3.996 1.724 1.653 4.189 2.005 6.198.795 2.057-1.24 3.917-3.569 3.328-6.857-.607-3.385-3.752-5.364-6.93-4.674-2.678.581-4.61 3.147-4.61 6.74zm-22.324 5.194c.134-.407.236-.707.332-1.008 1.224-3.874 2.45-7.748 3.67-11.623.203-.642.622-1.03 1.284-1.145.51-.088.682.113.528.6-1.372 4.333-2.74 8.668-4.117 13a4.996 4.996 0 0 1-.38.888c-.547.997-1.9 1.11-2.572.191-.272-.372-.453-.823-.613-1.263-1.006-2.759-1.993-5.525-2.988-8.288-.043-.121-.104-.236-.206-.463-.272.76-.507 1.406-.735 2.055-.83 2.361-1.652 4.725-2.489 7.085-.187.528-.419 1.047-.96 1.32-.846.425-1.793.068-2.204-.884-.28-.646-.473-1.33-.69-2.001-1.255-3.865-2.504-7.732-3.756-11.597-.164-.505.032-.731.576-.647.674.104 1.112.471 1.321 1.14.955 3.063 1.923 6.123 2.888 9.183.305.97.61 1.938.917 2.906.044.137.108.268.204.501.109-.216.191-.343.24-.482 1.237-3.492 2.47-6.986 3.704-10.48.016-.047.032-.094.05-.14.181-.475.482-.7.939-.703.461-.003.713.177.9.682.918 2.475 1.83 4.951 2.744 7.428.4 1.081.795 2.164 1.194 3.246.05.134.115.263.22.499zm-47.477-5.06l-5.915.001c-.447 0-.467.03-.367.472.64 2.81 2.957 4.649 5.84 4.667 1.068.007 2.116-.075 3.055-.613a6.314 6.314 0 0 0 1.329-1.048c.595-.604 1.311-.71 2.085-.644.287.024.178.23.09.388-.55.979-1.263 1.809-2.203 2.432-1.387.92-2.924 1.353-4.575 1.267-3.983-.21-6.628-2.87-7.36-6.057-.99-4.308 1.896-8.668 6.257-9.355 4.451-.702 8.028 2.59 8.655 6.074.098.544.086 1.11.101 1.666.01.375-.206.6-.565.675a3.15 3.15 0 0 1-.624.073c-1.934.005-3.869.003-5.803.003zM97.76 77.52c.163.008.296.02.428.02 2.504 0 5.007-.002 7.51-.005 1.115-.002 2.23-.01 3.346-.01.25 0 .402-.046.35-.359-.415-2.493-2.801-4.72-5.31-4.896-2.416-.168-4.247.842-5.51 2.887a5.54 5.54 0 0 0-.814 2.363zm19.214.816c-.038-4.077 2.996-7.045 5.99-7.702 3.057-.671 6.574.85 8.09 3.57.181.325.114.439-.267.453-.087.003-.175-.01-.26.003-.858.118-1.481-.22-2.098-.832-2.496-2.477-6.482-2.018-8.606.942-2.774 3.866-.18 8.64 3.387 9.42 1.853.403 3.625.241 5.096-1.151.143-.136.29-.276.404-.435.399-.557.956-.758 1.612-.757.037 0 .075-.005.111 0 .258.043.514.088.771.132-.102.23-.172.484-.312.69-1.31 1.926-3.1 3.09-5.43 3.389-4.359.558-7.792-2.763-8.375-6.427-.068-.427-.077-.863-.113-1.295zm47.121.103l.001-6.886c0-.55.141-.678.688-.645.83.052.974.206.974 1.047v13.512c0 .658-.154.75-.8.695-.72-.062-.87-.383-.867-1.022.012-2.234.004-4.468.004-6.7zm2.121-11.437c.004.839-.446 1.305-1.263 1.309-.843.004-1.286-.437-1.306-1.266-.024-.92.507-1.335 1.28-1.339.68-.003 1.302.322 1.29 1.296z" opacity=".301" fill="#D4E1ED"/></g></svg>