<?xml version="1.0" encoding="UTF-8"?>
<svg width="25px" height="24px" viewBox="0 0 25 24" version="1.1" xmlns="http://www.w3.org/2000/svg" xmlns:xlink="http://www.w3.org/1999/xlink">
    <!-- Generator: Sketch 46.2 (44496) - http://www.bohemiancoding.com/sketch -->
    <defs></defs>
    <g id="Page-1" stroke="none" stroke-width="1" fill="none" fill-rule="evenodd">
        <g id="02-03-management" transform="translate(-960.000000, -701.000000)" fill="#ED4159">
            <g id="Group-5" transform="translate(960.000000, 354.000000)">
                <g id="Sent" transform="translate(0.000000, 347.000000)">
                    <path d="M21.5157866,18.999827 L15.8159173,13.4146146 L14.4970477,14.7071068 C14.1000084,15.0962053 13.4567947,15.0978335 13.0577096,14.7107501 L11.0321498,12.7461051 C10.6316023,12.3576034 10.6282648,11.7244469 11.0246951,11.3319104 C11.4211254,10.939374 12.0672035,10.9361032 12.4677509,11.3246049 L13.7755102,12.612378 L21.5198224,5 L1.52923042,5 C0.965674553,5 0.508822256,4.55228475 0.508822256,4 C0.508822256,3.44771525 0.965674553,3 1.52923042,3 L22.9605655,3 C24.088099,3 25,3.89350709 25,5.00087166 L25,18.9991283 C25,20.1039386 24.08853,21 22.9605655,21 L7.6516794,21 C7.08812353,21 6.63127124,20.5522847 6.63127124,20 C6.63127124,19.4477153 7.08812353,19 7.6516794,19 C7.6516794,19 17.7026891,19.000511 21.5157866,18.999827 Z M22.9593699,17.5861115 C22.9597192,14.9023271 22.9604522,9.09643197 22.960617,6.41280888 L17.2589924,12.000401 L22.9593699,17.5861115 Z M2.55102041,9 C2.55102041,8.44771525 2.99783811,8 3.54420409,8 L8.70069387,8 C9.24921407,8 9.69387755,8.44386482 9.69387755,9 C9.69387755,9.55228475 9.24705985,10 8.70069387,10 L3.54420409,10 C2.99568389,10 2.55102041,9.55613518 2.55102041,9 Z M4.59183673,15 C4.59183673,14.4477153 5.04460882,14 5.59983582,14 L8.68587847,14 C9.24258099,14 9.69387755,14.4438648 9.69387755,15 C9.69387755,15.5522847 9.24110546,16 8.68587847,16 L5.59983582,16 C5.0431333,16 4.59183673,15.5561352 4.59183673,15 Z" id="Combined-Shape"></path>
                </g>
            </g>
        </g>
    </g>
</svg>