<?xml version="1.0" encoding="UTF-8"?>
<svg width="256px" height="256px" viewBox="0 0 256 256" version="1.1" xmlns="http://www.w3.org/2000/svg" xmlns:xlink="http://www.w3.org/1999/xlink">
    <!-- Generator: Sketch 42 (36781) - http://www.bohemiancoding.com/sketch -->
    <defs></defs>
    <g id="Standard" stroke="none" stroke-width="1" fill="none" fill-rule="evenodd">
        <g id="Group" fill="#FFFFFF">
            <path d="M130.027746,91.1404685 C131.001453,91.0728633 131.984313,91.0384973 132.975199,91.0384973 C156.1362,91.0384973 174.911901,109.814198 174.911901,132.975199 C174.911901,156.1362 156.1362,174.911901 132.975199,174.911901 C109.814198,174.911901 91.0384973,156.1362 91.0384973,132.975199 C91.0384973,131.984313 91.0728633,131.001453 91.1404685,130.027746 C93.8841542,130.809377 96.780864,131.227837 99.7753102,131.227837 C117.146061,131.227837 131.227837,117.146061 131.227837,99.7753102 C131.227837,96.780864 130.809377,93.8841542 130.027746,91.1404685 Z M175.705704,75.4660901 L175.705712,75.4660958 L151.157453,87.5390102 C145.536468,85.2876102 139.400475,84.0490469 132.975199,84.0490469 C105.954031,84.0490469 84.0490469,105.954031 84.0490469,132.975199 C84.0490469,139.400475 85.2876102,145.536468 87.5390102,151.157453 L75.4660901,175.705704 C66.5875428,163.77597 61.3333333,148.989178 61.3333333,132.975199 C61.3333333,93.4084893 93.4084893,61.3333333 132.975199,61.3333333 C148.989178,61.3333333 163.77597,66.5875428 175.705704,75.4660901 Z M194.666667,96.528899 L194.666667,96.528899 L173.123141,105.00504 C168.829635,98.8537044 163.158524,93.7352133 156.557118,90.0968796 L179.736555,78.6971566 C185.62711,83.7765384 190.681899,89.7985376 194.666667,96.528899 Z M78.6971566,179.736555 L78.6971566,179.736555 L90.0968796,156.557118 C93.7352133,163.158524 98.8537044,168.829635 105.00504,173.123141 L96.528899,194.666667 C89.7985376,190.681899 83.7765384,185.62711 78.6971566,179.736555 Z" id="Combined-Shape"></path>
        </g>
    </g>
</svg>