<?xml version="1.0" encoding="UTF-8"?>
<svg width="230px" height="160px" viewBox="0 0 230 160" version="1.1" xmlns="http://www.w3.org/2000/svg" xmlns:xlink="http://www.w3.org/1999/xlink">
    <!-- Generator: Sketch 48.2 (47327) - http://www.bohemiancoding.com/sketch -->
    <defs></defs>
    <g id="---Logos" stroke="none" stroke-width="1" fill="none" fill-rule="evenodd">
        <g id="Group-2">
            <path d="M60.4259408,64.6018492 C60.7729888,64.5775629 61.1232993,64.5652174 61.4764706,64.5652174 C69.7315032,64.5652174 76.4235294,71.310145 76.4235294,79.6304348 C76.4235294,87.9507246 69.7315032,94.6956522 61.4764706,94.6956522 C53.2214379,94.6956522 46.5294118,87.9507246 46.5294118,79.6304348 C46.5294118,79.2744716 46.5416605,78.9213919 46.5657563,78.5716004 C47.5436594,78.8523913 48.5761033,79.0027174 49.6433824,79.0027174 C55.8346568,79.0027174 60.8536765,73.9440217 60.8536765,67.7038043 C60.8536765,66.6280883 60.7045294,65.5874828 60.4259408,64.6018492 Z M83.6705882,66.1886985 L75.9890882,69.1304348 C74.4582078,66.9955473 72.4361319,65.2191198 70.0823529,63.9563968 L78.3471488,60 C80.447469,61.7628542 82.2497906,63.852854 83.6705882,66.1886985 Z M42,96.634478 L45.9253662,88.3043478 C47.1781855,90.6767337 48.9406803,92.7147944 51.0588235,94.2577766 L48.1401597,102 C45.8226355,100.567971 43.7490279,98.7514016 42,96.634478 Z M171.10964,65.1341487 L171.10964,92.1180147 L164.150281,92.1180147 L164.150281,65.1341487 L171.10964,65.1341487 Z M196,74.1526291 C194.390344,72.1723709 192.401976,71.1822566 190.034835,71.1822566 C188.993293,71.1822566 188.028698,71.373122 187.14102,71.7548585 C186.253342,72.1365951 185.489951,72.6555104 184.850823,73.31162 C184.211695,73.9677297 183.708685,74.7490849 183.341778,75.6557092 C182.974871,76.5623334 182.791421,77.5405186 182.791421,78.5902941 C182.791421,79.6639281 182.974871,80.6540423 183.341778,81.5606666 C183.708685,82.4672908 184.217613,83.2546106 184.868576,83.9226495 C185.51954,84.5906885 186.282932,85.1155683 187.158774,85.4973048 C188.034616,85.8790414 188.981458,86.0699068 189.999328,86.0699068 C192.224441,86.0699068 194.224644,85.1155798 196,83.2068971 L196,91.5096251 L195.289861,91.7601385 C194.224648,92.141875 193.230464,92.4222085 192.307279,92.6011475 C191.384094,92.7800865 190.472759,92.8695547 189.573245,92.8695547 C187.726875,92.8695547 185.957464,92.5176466 184.264959,91.8138199 C182.572453,91.1099932 181.081177,90.1198789 179.791085,88.8434474 C178.500993,87.5670159 177.465385,86.0520217 176.684228,84.2984196 C175.903072,82.5448174 175.512499,80.6301988 175.512499,78.5545065 C175.512499,76.4788141 175.897154,74.5761246 176.666475,72.846381 C177.435796,71.1166373 178.465486,69.6255014 179.755578,68.3729284 C181.04567,67.1203554 182.542864,66.1421702 184.247205,65.4383435 C185.951546,64.7345168 187.738711,64.3826087 189.608752,64.3826087 C190.673965,64.3826087 191.721409,64.495935 192.751116,64.7225911 C193.780822,64.9492472 194.863772,65.3011552 196,65.7783259 L196,74.1526291 Z" id="Combined-Shape" fill="#FFFFFF"></path>
            <path d="M76.6890291,59.0055749 L67.9557594,63.2815879 C65.9560421,62.4841818 63.7731059,62.0455046 61.4872549,62.0455046 C51.8742251,62.0455046 44.0813247,69.8038632 44.0813247,79.3742836 C44.0813247,81.6500026 44.521955,83.823263 45.3229114,85.8141166 L41.0278587,94.5086738 C37.8692335,90.2833726 36,85.046152 36,79.3742836 C36,65.3604537 47.4110327,54 61.4872549,54 C67.1843756,54 72.4449134,55.8609482 76.6890264,59.0055728 Z M112.863447,71.2203682 L104.60569,71.2203682 L104.60569,75.6661426 L112.402714,75.6661426 L112.402714,81.523274 L104.60569,81.523274 L104.60569,86.1101841 L112.863447,86.1101841 L112.863447,91.9673155 L97.6592506,91.9673155 L97.6592506,65.3632369 L112.863447,65.3632369 L112.863447,71.2203682 Z M123.850162,89.4974408 L115.06079,73.8666625 L122.503404,73.8666625 L127.358823,83.1463345 L132.072478,73.8666625 L139.44421,73.8666625 L124.842511,101 L117.647984,101 L123.850162,89.4974408 Z M146.496972,83.9931487 C146.496972,86.7453085 147.796463,88.1213678 150.395484,88.1213678 C151.789505,88.1213678 152.840911,87.5568306 153.549735,86.4277394 L159.751913,86.4277394 C158.499657,90.5677405 155.369065,92.63771 150.360043,92.63771 C148.824258,92.63771 147.418445,92.4083668 146.142562,91.9496735 C144.866679,91.4909802 143.773925,90.8382341 142.864268,89.9914157 C141.954611,89.1445973 141.251704,88.133135 140.755528,86.9569983 C140.259351,85.7808616 140.011266,84.4636083 140.011266,83.0051988 C140.011266,81.4997439 140.247537,80.1413264 140.720087,78.9299056 C141.192636,77.7184848 141.866008,76.6893807 142.740225,75.8425623 C143.614441,74.9957438 144.671754,74.3429978 145.912196,73.8843045 C147.152637,73.4256112 148.552544,73.196268 150.111956,73.196268 C151.647741,73.196268 153.029927,73.4256112 154.258555,73.8843045 C155.487183,74.3429978 156.526776,75.007505 157.377365,75.8778462 C158.227953,76.7481873 158.877699,77.812575 159.326621,79.0710413 C159.775542,80.3295075 160,81.746731 160,83.3227541 L160,83.9931487 L146.496972,83.9931487 Z M154.010468,80.2883367 C153.797821,79.3944728 153.360719,78.6770402 152.69915,78.1360173 C152.037581,77.5949944 151.23426,77.3244871 150.289161,77.3244871 C149.296808,77.3244871 148.487579,77.5832332 147.861452,78.1007334 C147.235324,78.6182335 146.83957,79.3474273 146.674177,80.2883367 L154.010468,80.2883367 Z" id="Combined-Shape" fill="#00B2D9"></path>
        </g>
    </g>
</svg>