<svg width="230" height="160" viewBox="0 0 230 160" xmlns="http://www.w3.org/2000/svg"><g fill="none" fill-rule="evenodd"><path d="M115.674 64.17l2.466-2.442 5.103-5.055a1.291 1.291 0 0 0 0-1.839l-3.09-3.06-2.055 2.037 1.961 1.943-3.948 3.91-2.466 2.442-5.922 5.867-12.337-12.22 12.337-12.219 3.829 3.793 2.055-2.037-4.957-4.91a1.321 1.321 0 0 0-1.856 0L92.201 54.835a1.292 1.292 0 0 0 0 1.839l14.593 14.454a1.321 1.321 0 0 0 1.856 0l7.024-6.957zm23.78-9.335L124.861 40.38a1.321 1.321 0 0 0-1.855 0l-7.104 7.036-2.465 2.442-5.024 4.976a1.29 1.29 0 0 0 0 1.838l3.106 3.076 2.055-2.037-1.977-1.958 4.213-4.173 2.057-2.036 6.067-6.01 12.336 12.219-12.336 12.22-3.834-3.798-2.056 2.037 4.962 4.914a1.321 1.321 0 0 0 1.855 0l14.593-14.454a1.29 1.29 0 0 0 0-1.838zm35.8 48.18l-7.202-9.511 10.204-9.512h-4.802l-8.747 8.153 1.544-8.153h-4.202l-3.602 19.024h4.202l1.561-8.244 6.243 8.244h4.802zm-21.459 0h1.05l3.602-19.023h-4.202l-2.505 13.234-7.099-13.234h-4.202l-3.601 19.024h4.201l2.506-13.234 7.099 13.234h3.151zm-29.263-7.728l-6.303-11.295h4.202l4.533 8.123 6.272-8.123h4.202l-8.704 11.295-1.5 7.729h-4.203l1.501-7.729zm-21.91 7.728l3.602-19.023h4.202l-2.927 15.457h11.33l-.6 3.567h-15.607zM90.617 87.56h6.002l.6-3.567H79.212l-.6 3.567h12.006L76.21 99.449l-.6 3.567h18.008l.6-3.567H82.213l14.406-11.89h-6.002zm-15.607 0H57l.6-3.567H75.61l-.6 3.567zm-1.501 7.728H55.5l.6-3.567h18.008l-.6 3.567zm-1.5 7.729H54l.6-3.567h18.008l-.6 3.567z" opacity=".301" fill="#D4E1ED"/></g></svg>