<?xml version="1.0" encoding="UTF-8"?>
<svg width="230px" height="160px" viewBox="0 0 230 160" version="1.1" xmlns="http://www.w3.org/2000/svg" xmlns:xlink="http://www.w3.org/1999/xlink">
    <!-- Generator: Sketch 48.2 (47327) - http://www.bohemiancoding.com/sketch -->
    <defs></defs>
    <g id="---Logos" stroke="none" stroke-width="1" fill="none" fill-rule="evenodd" opacity="0.301">
        <g id="Group-2" fill="#D4E1ED">
            <path d="M111.073513,85.7985115 L111.073513,57.0041853 L134.108974,57.0041853 L134.108974,63.9970931 L119.053655,63.9970931 L119.053655,68.8921285 L132.669258,68.8921285 L132.669258,75.5148236 L119.053655,75.5148236 L119.053655,85.7985115 L111.073513,85.7985115 Z M150.974222,85.7985115 L150.974222,80.2041853 L137.029541,80.2041853 L135.713229,74.5687243 L150.645144,56.7985115 L158.707556,56.7985115 L158.707556,74.2396463 L162.368548,74.2396463 L162.368548,80.2041853 L158.707556,80.2041853 L158.707556,85.7985115 L150.974222,85.7985115 Z M144.104719,74.280781 L150.974222,66.0126959 L150.974222,74.280781 L144.104719,74.280781 Z M114.125599,103.575603 L114.125599,93.3489104 L110.073513,93.3489104 L110.073513,90.0686506 L121.92104,90.0686506 L121.92104,93.3489104 L117.868954,93.3489104 L117.868954,103.575603 L114.125599,103.575603 Z M123.561169,103.575603 L123.561169,90.0686506 L134.424618,90.0686506 L134.424618,93.2524321 L127.265933,93.2524321 L127.265933,95.2977706 L133.74927,95.2977706 L133.74927,98.2500044 L127.265933,98.2500044 L127.265933,100.391821 L134.521096,100.391821 L134.521096,103.575603 L123.561169,103.575603 Z M142.933998,103.845742 C139.074869,103.845742 135.96827,100.893508 135.96827,96.8221266 C135.96827,92.8858149 138.997686,89.7985115 143.088363,89.7985115 C145.84764,89.7985115 147.564953,90.9948416 148.761283,92.6542671 L146.021301,94.7767881 C145.249475,93.8120059 144.34258,93.2138408 143.049772,93.2138408 C141.158798,93.2138408 139.827399,94.8153794 139.827399,96.8221266 C139.827399,98.8481694 141.158798,100.430412 143.049772,100.430412 C144.458354,100.430412 145.288067,99.7743604 146.098484,98.7902825 L148.915648,100.79703 C147.642135,102.552933 145.924823,103.845742 142.933998,103.845742 Z M150.517187,103.575603 L150.517187,90.0686506 L154.260542,90.0686506 L154.260542,95.1241098 L159.065158,95.1241098 L159.065158,90.0686506 L162.808513,90.0686506 L162.808513,103.575603 L159.065158,103.575603 L159.065158,98.4429609 L154.260542,98.4429609 L154.260542,103.575603 L150.517187,103.575603 Z M91.073513,97.7985115 L91.073513,106.798512 C91.073513,107.350796 90.6257978,107.798512 90.073513,107.798512 L80.073513,107.798512 C79.5212283,107.798512 79.073513,107.350796 79.073513,106.798512 L79.073513,97.7985115 L68,97.7985115 C67.4477153,97.7985115 67,97.3507963 67,96.7985115 C67,96.5924926 67.0636311,96.3915017 67.1821936,96.2230181 L73.8142538,86.7985115 L70.8630775,86.7985115 C70.3107927,86.7985115 69.8630775,86.3507963 69.8630775,85.7985115 C69.8630775,85.6134518 69.9144298,85.4320218 70.0114191,85.2744141 L75.8427438,75.7985115 L72.8528967,75.7985115 C72.3006119,75.7985115 71.8528967,75.3507963 71.8528967,74.7985115 C71.8528967,74.6151048 71.9033363,74.4352304 71.9986981,74.2785646 L77.1604696,65.7985115 L75.1541379,65.7985115 C74.6018531,65.7985115 74.1541379,65.3507963 74.1541379,64.7985115 C74.1541379,64.57144 74.2314186,64.3511295 74.3732691,64.1738165 L83.5117754,52.7506836 C84.2017945,51.8881597 85.4603793,51.7483169 86.3229031,52.438336 C86.4382325,52.5305996 86.5429871,52.6353541 86.6352507,52.7506836 L95.773757,64.1738165 C96.1187665,64.6050784 96.0488452,65.2343708 95.6175832,65.5793803 C95.4402702,65.7212308 95.2199597,65.7985115 94.9928882,65.7985115 L92.9865565,65.7985115 L98.1483279,74.2785646 C98.4354867,74.7503254 98.2858372,75.3655513 97.8140763,75.6527101 C97.6574105,75.7480719 97.4775361,75.7985115 97.2941294,75.7985115 L94.3042823,75.7985115 L100.135607,85.2744141 C100.425058,85.744772 100.278404,86.3607188 99.808046,86.6501698 C99.6504383,86.7471592 99.4690084,86.7985115 99.2839486,86.7985115 L96.3327723,86.7985115 L102.964832,96.2230181 C103.282669,96.6746801 103.174181,97.2984817 102.722519,97.6163179 C102.554036,97.7348805 102.353045,97.7985115 102.147026,97.7985115 L91.073513,97.7985115 Z" id="Combined-Shape"></path>
        </g>
    </g>
</svg>