<svg width="98" height="96" viewBox="0 0 98 96" fill="none" xmlns="http://www.w3.org/2000/svg">
<rect x="79" y="53" width="10" height="20" rx="3" fill="#B0CEFF" stroke="#3959A4" stroke-width="2"/>
<rect x="84" y="36" width="49" height="75" rx="9" transform="rotate(90 84 36)" fill="#D3E3FF" stroke="#3959A4" stroke-width="2"/>
<rect x="80" y="40" width="41" height="67" rx="5" transform="rotate(90 80 40)" fill="white" stroke="#B9D2FF" stroke-width="2"/>
<rect x="19" y="46" width="10" height="29" rx="1" fill="#F4F9FF" stroke="#B9D2FF" stroke-width="2"/>
<rect x="34" y="46" width="10" height="29" rx="1" fill="#F4F9FF" stroke="#B9D2FF" stroke-width="2"/>
<rect x="49" y="46" width="10" height="29" rx="1" fill="#F4F9FF" stroke="#B9D2FF" stroke-width="2"/>
<rect x="64" y="46" width="10" height="29" rx="1" fill="#F4F9FF" stroke="#B9D2FF" stroke-width="2"/>
<circle cx="47.5" cy="28.5" r="23.5" fill="white" stroke="#3959A4" stroke-width="2"/>
<circle cx="47.3474" cy="28.3005" r="21.8005" fill="white" stroke="#D3E3FF" stroke-width="2"/>
<path fill-rule="evenodd" clip-rule="evenodd" d="M47.3487 15.1016C40.0584 15.1016 34.1484 21.0115 34.1484 28.3018C34.1484 35.5922 40.0584 41.5021 47.3487 41.5021C54.639 41.5021 60.549 35.5922 60.549 28.3018" fill="white"/>
<path d="M47.3487 15.1016C40.0584 15.1016 34.1484 21.0115 34.1484 28.3018C34.1484 35.5922 40.0584 41.5021 47.3487 41.5021C54.639 41.5021 60.549 35.5922 60.549 28.3018" stroke="url(#paint0_linear)" stroke-width="10"/>
<mask id="path-12-inside-1" fill="white">
<path fill-rule="evenodd" clip-rule="evenodd" d="M48.5485 13.1625C48.5485 12.5765 48.0112 12.1016 47.3485 12.1016C46.6857 12.1016 46.1484 12.5765 46.1484 13.1625V29.3411C46.1484 29.8946 46.628 30.3491 47.2398 30.3977C47.6204 30.4742 48.0309 30.3649 48.3259 30.0698L54.4779 23.9178C54.9465 23.4492 54.9465 22.6894 54.4779 22.2207C54.0092 21.7521 53.2494 21.7521 52.7808 22.2207L48.5485 26.453V13.1625Z"/>
</mask>
<path fill-rule="evenodd" clip-rule="evenodd" d="M48.5485 13.1625C48.5485 12.5765 48.0112 12.1016 47.3485 12.1016C46.6857 12.1016 46.1484 12.5765 46.1484 13.1625V29.3411C46.1484 29.8946 46.628 30.3491 47.2398 30.3977C47.6204 30.4742 48.0309 30.3649 48.3259 30.0698L54.4779 23.9178C54.9465 23.4492 54.9465 22.6894 54.4779 22.2207C54.0092 21.7521 53.2494 21.7521 52.7808 22.2207L48.5485 26.453V13.1625Z" fill="#B0CEFF"/>
<path d="M47.2398 30.3977L47.6339 28.4369L47.5169 28.4134L47.398 28.4039L47.2398 30.3977ZM48.3259 30.0698L46.9117 28.6556H46.9117L48.3259 30.0698ZM54.4779 23.9178L53.0637 22.5036L54.4779 23.9178ZM52.7808 22.2207L54.195 23.635L52.7808 22.2207ZM48.5485 26.453H46.5485V31.2815L49.9627 27.8673L48.5485 26.453ZM47.3485 14.1016C47.2037 14.1016 47.0296 14.0497 46.8723 13.9107C46.7113 13.7684 46.5485 13.5077 46.5485 13.1625H50.5485C50.5485 11.2475 48.877 10.1016 47.3485 10.1016V14.1016ZM48.1484 13.1625C48.1484 13.5077 47.9856 13.7684 47.8246 13.9107C47.6674 14.0497 47.4932 14.1016 47.3485 14.1016V10.1016C45.8199 10.1016 44.1484 11.2475 44.1484 13.1625H48.1484ZM48.1484 29.3411V13.1625H44.1484V29.3411H48.1484ZM47.398 28.4039C47.5382 28.4151 47.7037 28.4755 47.8512 28.6174C48.0035 28.7639 48.1484 29.0166 48.1484 29.3411H44.1484C44.1484 31.145 45.65 32.2778 47.0816 32.3914L47.398 28.4039ZM46.9117 28.6556C47.1098 28.4575 47.3861 28.3871 47.6339 28.4369L46.8457 32.3585C47.8546 32.5612 48.9519 32.2722 49.7401 31.484L46.9117 28.6556ZM53.0637 22.5036L46.9117 28.6556L49.7401 31.484L55.8921 25.3321L53.0637 22.5036ZM53.0637 23.635C52.7513 23.3226 52.7513 22.816 53.0637 22.5036L55.8921 25.3321C57.1418 24.0824 57.1418 22.0562 55.8921 20.8065L53.0637 23.635ZM54.195 23.635C53.8826 23.9474 53.3761 23.9474 53.0637 23.635L55.8921 20.8065C54.6424 19.5568 52.6163 19.5568 51.3666 20.8065L54.195 23.635ZM49.9627 27.8673L54.195 23.635L51.3666 20.8065L47.1343 25.0388L49.9627 27.8673ZM46.5485 13.1625V26.453H50.5485V13.1625H46.5485Z" fill="#3959A4" mask="url(#path-12-inside-1)"/>
<defs>
<linearGradient id="paint0_linear" x1="41.2866" y1="21.98" x2="55.0435" y2="34.1044" gradientUnits="userSpaceOnUse">
<stop stop-color="#E6F1FF"/>
<stop offset="1" stop-color="#F4F9FF" stop-opacity="0.01"/>
</linearGradient>
</defs>
</svg>
