<svg width="98" height="96" viewBox="0 0 98 96" fill="none" xmlns="http://www.w3.org/2000/svg">
<rect x="5" y="7" width="76" height="81" rx="7" fill="white" stroke="#3959A4" stroke-width="2"/>
<path d="M5 14C5 10.134 8.13401 7 12 7H74C77.866 7 81 10.134 81 14V20H5V14Z" fill="#F4F9FF" stroke="#3959A4" stroke-width="2"/>
<circle cx="13" cy="13" r="2" fill="#D3E3FF" stroke="#3959A4" stroke-width="2"/>
<circle cx="22" cy="13" r="2" fill="#D3E3FF" stroke="#3959A4" stroke-width="2"/>
<circle cx="31" cy="13" r="2" fill="#D3E3FF" stroke="#3959A4" stroke-width="2"/>
<path d="M13.1542 29.5H49.8458" stroke="#B0CEFF" stroke-width="2" stroke-linecap="square"/>
<path d="M13.1542 54H49.8458" stroke="#B0CEFF" stroke-width="2" stroke-linecap="square"/>
<path d="M13.1542 41.5H49.8458" stroke="#B0CEFF" stroke-width="2" stroke-linecap="square"/>
<path d="M13.1542 66H49.8458" stroke="#B0CEFF" stroke-width="2" stroke-linecap="square"/>
<path d="M13.1542 34H49.8458" stroke="#B0CEFF" stroke-width="2" stroke-linecap="square"/>
<path d="M13.1542 57H49.8458" stroke="#B0CEFF" stroke-width="2" stroke-linecap="square"/>
<path d="M13.1542 69H49.8458" stroke="#B0CEFF" stroke-width="2" stroke-linecap="square"/>
<path d="M13.1542 38H49.8458" stroke="#B0CEFF" stroke-width="2" stroke-linecap="square"/>
<path d="M13.1542 50H49.8458" stroke="#B0CEFF" stroke-width="2" stroke-linecap="square"/>
<path d="M13.1542 73H49.8458" stroke="#B0CEFF" stroke-width="2" stroke-linecap="square"/>
<path d="M93 47.5C93 57.191 85.3632 65 76 65C66.6368 65 59 57.191 59 47.5C59 37.809 66.6368 30 76 30C85.3632 30 93 37.809 93 47.5Z" fill="#B0CEFF" stroke="#3959A4" stroke-width="2"/>
<path fill-rule="evenodd" clip-rule="evenodd" d="M85.2769 40.1764C85.9289 40.5036 86.1876 41.1749 85.8548 41.6759L76.6661 55.5089C76.3334 56.0098 75.5351 56.1507 74.8831 55.8236C74.8019 55.7828 74.7268 55.7367 74.6582 55.6863C74.5616 55.6367 74.4704 55.5757 74.3873 55.5035L67.3992 49.4297C66.8669 48.967 66.8669 48.2169 67.3992 47.7542C67.9316 47.2915 68.7947 47.2915 69.327 47.7542L75.2496 52.9019L83.4938 40.4911C83.8266 39.9902 84.6249 39.8493 85.2769 40.1764Z" fill="white"/>
</svg>
