<svg width="98" height="96" viewBox="0 0 98 96" fill="none" xmlns="http://www.w3.org/2000/svg">
<path d="M32.7679 64.7837C33.7653 64.9554 34.6311 65.4897 35.2145 66.3292C35.7979 67.1496 36.0237 68.1608 35.8543 69.172C35.572 70.9655 34.1041 72.2629 32.335 72.3392L10.1842 68.5996C9.97713 68.5615 9.77012 68.5424 9.5631 68.5424C9.50664 68.5424 9.43136 68.5424 9.3749 68.5615L8.94205 68.4851C7.9446 68.3134 7.07889 67.7792 6.49547 66.9397C5.91206 66.1193 5.68622 65.1081 5.8556 64.0969C6.1379 62.3034 7.60584 61.006 9.3749 60.9297L31.5258 64.6693C31.7328 64.7074 31.9398 64.7265 32.1468 64.7265C32.2033 64.7265 32.2786 64.7265 32.335 64.7074L32.7679 64.7837Z" fill="white" stroke="#3959A4" stroke-width="2"/>
<path d="M32.7679 34.5673C33.7653 34.7342 34.6311 35.2536 35.2145 36.0698C35.7979 36.8674 36.0237 37.8505 35.8543 38.8337C35.572 40.5773 34.1041 41.8387 32.335 41.9129L10.1842 38.2772C9.97713 38.2401 9.77012 38.2215 9.5631 38.2215C9.50664 38.2215 9.43136 38.2215 9.3749 38.2401L8.94205 38.1659C7.9446 37.9989 7.07889 37.4796 6.49547 36.6634C5.91206 35.8658 5.68622 34.8826 5.8556 33.8995C6.1379 32.1559 7.60584 30.8945 9.3749 30.8203L31.5258 34.456C31.7328 34.4931 31.9398 34.5116 32.1468 34.5116C32.2033 34.5116 32.2786 34.5116 32.335 34.4931L32.7679 34.5673Z" fill="white" stroke="#3959A4" stroke-width="2"/>
<path d="M32.7679 49.5689C33.7653 49.7406 34.6311 50.2748 35.2145 51.1143C35.7979 51.9347 36.0237 52.9459 35.8543 53.9572C35.572 55.7506 34.1041 57.048 32.335 57.1243L10.1842 53.3848C9.97713 53.3466 9.77012 53.3275 9.5631 53.3275C9.50664 53.3275 9.43136 53.3275 9.3749 53.3466L8.94205 53.2703C7.9446 53.0986 7.07889 52.5644 6.49547 51.7249C5.91206 50.9044 5.68622 49.8932 5.8556 48.882C6.1379 47.0886 7.60584 45.7912 9.3749 45.7148L31.5258 49.4544C31.7328 49.4926 31.9398 49.5116 32.1468 49.5116C32.2033 49.5116 32.2786 49.5116 32.335 49.4926L32.7679 49.5689Z" fill="white" stroke="#3959A4" stroke-width="2"/>
<path d="M32.7679 41.9634C33.7653 42.1351 34.6311 42.6694 35.2145 43.5089C35.7979 44.3293 36.0237 45.3405 35.8543 46.3517C35.572 48.1451 34.1041 49.4425 32.335 49.5189L10.1842 45.7793C9.97713 45.7411 9.77012 45.7221 9.5631 45.7221C9.50664 45.7221 9.43136 45.7221 9.3749 45.7411L8.94205 45.6648C7.9446 45.4931 7.07889 44.9589 6.49547 44.1194C5.91206 43.299 5.68622 42.2878 5.8556 41.2766C6.1379 39.4831 7.60584 38.1857 9.3749 38.1094L31.5258 41.8489C31.7328 41.8871 31.9398 41.9062 32.1468 41.9062C32.2033 41.9062 32.2786 41.9062 32.335 41.8871L32.7679 41.9634Z" fill="white" stroke="#3959A4" stroke-width="2"/>
<path d="M32.7679 57.1744C33.7653 57.3461 34.6311 57.8803 35.2145 58.7198C35.7979 59.5402 36.0237 60.5514 35.8543 61.5626C35.572 63.3561 34.1041 64.6535 32.335 64.7298L10.1842 60.9902C9.97713 60.9521 9.77012 60.933 9.5631 60.933C9.50664 60.933 9.43136 60.933 9.3749 60.9521L8.94205 60.8758C7.9446 60.704 7.07889 60.1698 6.49547 59.3303C5.91206 58.5099 5.68622 57.4987 5.8556 56.4875C6.1379 54.694 7.60584 53.3966 9.3749 53.3203L31.5258 57.0599C31.7328 57.098 31.9398 57.1171 32.1468 57.1171C32.2033 57.1171 32.2786 57.1171 32.335 57.098L32.7679 57.1744Z" fill="white" stroke="#3959A4" stroke-width="2"/>
<path d="M35.2145 21.3353C35.7979 22.1543 36.0237 23.1639 35.8543 24.1734C35.572 25.9638 34.1041 27.2591 32.335 27.3353L10.1842 23.602C9.97713 23.5639 9.77012 23.5448 9.5631 23.5448C9.50664 23.5448 9.43136 23.5448 9.3749 23.5639L8.94205 23.4877C7.9446 23.3162 7.07889 22.7829 6.49547 21.9448C5.91206 21.1258 5.68622 20.1162 5.8556 19.1067C6.15672 17.2591 7.71876 15.9258 9.5631 15.9258C9.77012 15.9258 9.97713 15.9448 10.1842 15.9829L32.7679 19.7924C33.7653 19.9639 34.6311 20.4972 35.2145 21.3353Z" fill="white" stroke="#3959A4" stroke-width="2"/>
<path d="M32.7679 27.2782C33.7653 27.4452 34.6311 27.9646 35.2145 28.7807C35.7979 29.5784 36.0237 30.5615 35.8543 31.5446C35.572 33.2883 34.1041 34.5496 32.335 34.6238L10.1842 30.9881C9.97713 30.951 9.77012 30.9325 9.5631 30.9325C9.50664 30.9325 9.43136 30.9325 9.3749 30.951L8.94205 30.8768C7.9446 30.7099 7.07889 30.1905 6.49547 29.3743C5.91206 28.5767 5.68622 27.5936 5.8556 26.6105C6.1379 24.8668 7.60584 23.6054 9.3749 23.5312L31.5258 27.1669C31.7328 27.204 31.9398 27.2226 32.1468 27.2226C32.2033 27.2226 32.2786 27.2226 32.335 27.204L32.7679 27.2782Z" fill="white" stroke="#3959A4" stroke-width="2"/>
<path d="M32.7679 72.3828C33.7653 72.5542 34.6311 73.0875 35.2145 73.9256C35.7979 74.7447 36.0237 75.7542 35.8543 76.7637C35.5532 78.6113 33.9912 79.9446 32.1468 79.9446C31.9398 79.9446 31.7328 79.9256 31.5258 79.8875L8.94205 76.078C7.9446 75.9066 7.07889 75.3732 6.49547 74.5351C5.91206 73.7161 5.68622 72.7066 5.8556 71.6971C6.1379 69.9066 7.60584 68.6113 9.3749 68.5352L31.5258 72.2685C31.7328 72.3066 31.9398 72.3256 32.1468 72.3256C32.2033 72.3256 32.2786 72.3256 32.335 72.3066L32.7679 72.3828Z" fill="white" stroke="#3959A4" stroke-width="2"/>
<path d="M51.4 76H78C78 79.0433 76.727 81.7933 74.656 83.7733C72.604 85.7717 69.754 87 66.6 87H30.5H19.1H13.4C7.111 87 2 82.0683 2 76H32.4H51.4Z" fill="#B0CEFF" stroke="#3959A4" stroke-width="2"/>
<path d="M78 20H51.4H9.6H2C2 16.68 3.273 13.68 5.344 11.52C7.396 9.34 10.246 8 13.4 8H66.6C72.889 8 78 13.38 78 20Z" fill="#B0CEFF" stroke="#3959A4" stroke-width="2"/>
<rect x="43" y="20" width="51" height="56" rx="6.53779" fill="white" stroke="#3959A4" stroke-width="2"/>
<path d="M43 26.5378C43 22.9271 45.9271 20 49.5378 20H87.4622C91.0729 20 94 22.9271 94 26.5378V34.151H43V26.5378Z" fill="#F4F9FF" stroke="#3959A4" stroke-width="2"/>
<path d="M54.2454 27.2537C54.2454 28.5655 53.1944 29.6129 51.9176 29.6129C50.6409 29.6129 49.5898 28.5655 49.5898 27.2537C49.5898 25.9419 50.6409 24.8945 51.9176 24.8945C53.1944 24.8945 54.2454 25.9419 54.2454 27.2537Z" fill="#D3E3FF" stroke="#3959A4" stroke-width="2"/>
<path d="M64.0696 27.2537C64.0696 28.5655 63.0186 29.6129 61.7418 29.6129C60.4651 29.6129 59.4141 28.5655 59.4141 27.2537C59.4141 25.9419 60.4651 24.8945 61.7418 24.8945C63.0186 24.8945 64.0696 25.9419 64.0696 27.2537Z" fill="#D3E3FF" stroke="#3959A4" stroke-width="2"/>
<path d="M73.8938 27.2537C73.8938 28.5655 72.8428 29.6129 71.566 29.6129C70.2893 29.6129 69.2383 28.5655 69.2383 27.2537C69.2383 25.9419 70.2893 24.8945 71.566 24.8945C72.8428 24.8945 73.8938 25.9419 73.8938 27.2537Z" fill="#D3E3FF" stroke="#3959A4" stroke-width="2"/>
<path d="M58.4556 57.5586C60.224 57.5586 61.5361 56.6915 61.5361 55.2082V55.1854C61.5361 54.2384 61.0569 53.725 60.2469 53.3028C60.863 52.9263 61.2623 52.4129 61.2623 51.5572V51.5344C61.2623 50.3021 60.1442 49.3438 58.4556 49.3438C56.767 49.3438 55.6488 50.3136 55.6488 51.5344V51.5572C55.6488 52.4129 56.0482 52.9263 56.6643 53.3028C55.82 53.6908 55.375 54.2612 55.375 55.231V55.2539C55.375 56.6458 56.6871 57.5586 58.4556 57.5586ZM58.4556 52.721C57.7596 52.721 57.3146 52.2988 57.3146 51.7397V51.7169C57.3146 51.2263 57.7368 50.7928 58.4556 50.7928C59.1744 50.7928 59.5965 51.2377 59.5965 51.7283V51.7512C59.5965 52.3102 59.1515 52.721 58.4556 52.721ZM58.4556 56.1096C57.5884 56.1096 57.075 55.6646 57.075 55.117V55.0941C57.075 54.478 57.6569 54.1129 58.4556 54.1129C59.2542 54.1129 59.8361 54.478 59.8361 55.0941V55.117C59.8361 55.676 59.3227 56.1096 58.4556 56.1096Z" fill="#B0CEFF"/>
<path d="M66.4272 57.4445H68.1501V52.2646L70.3749 55.6418H70.4206L72.6682 52.2304V57.4445H74.4139V49.4578H72.5199L70.4206 52.8351L68.3212 49.4578H66.4272V57.4445Z" fill="#B0CEFF"/>
<path d="M76.3325 57.4445H80.1319C81.9346 57.4445 83.1212 56.7143 83.1212 55.2539V55.231C83.1212 54.1586 82.5507 53.6223 81.6266 53.2686C82.197 52.9491 82.6762 52.4471 82.6762 51.5458V51.523C82.6762 50.9753 82.4937 50.5303 82.1286 50.1652C81.6722 49.7089 80.9534 49.4578 80.0406 49.4578H76.3325V57.4445ZM80.9306 51.8424C80.9306 52.4357 80.44 52.6867 79.6641 52.6867H78.044V50.9981H79.7782C80.5198 50.9981 80.9306 51.2948 80.9306 51.8196V51.8424ZM81.3755 55.0143V55.0371C81.3755 55.6304 80.9078 55.9042 80.1319 55.9042H78.044V54.1471H80.0749C80.9762 54.1471 81.3755 54.478 81.3755 55.0143Z" fill="#B0CEFF"/>
</svg>
