<svg width="37" height="35" viewBox="0 0 37 35" xmlns="http://www.w3.org/2000/svg"><path d="M20.926 27.58A56.56 56.56 0 0 0 22 35H2.921C.769 35 0 34.28 0 32.242V2.758C0 .726.763 0 2.921 0h16.274a54.505 54.505 0 0 0-2.532 7.665C14.63 15.72 14.63 20.263 14.63 20.263h6.22s-.21 2.309-.018 5.882a15.5 15.5 0 0 1-1.502.102 14.157 14.157 0 0 1-10.631-5.099l-.547.536c-.167-.174-.33-.353-.487-.536l-1.04.982c2.953 3.36 7.409 5.502 12.394 5.502.104 0 .208-.001.31-.003a16.107 16.107 0 0 0 1.597-.05zm1.964-.286c.179 2.572.559 5.336 1.31 7.706h9.988C36.266 35 37 34.274 37 32.242V2.758C37 .72 36.26 0 34.188 0H21.41c-.7 1.843-1.766 4.426-2.408 7.068C17.045 15.123 17 18.698 17 18.698h5.895s-.263 3.21-.085 7.198a14.124 14.124 0 0 0 7.75-4.748l1 .982a15.54 15.54 0 0 1-8.67 5.164zM7.413 9.67a.92.92 0 0 1 .926-.92c.512 0 .927.415.927.92v1.66a.92.92 0 0 1-.927.92.925.925 0 0 1-.926-.92V9.67zm20.667-.037c0-.488.396-.883.892-.883.492 0 .892.401.892.883v1.734a.885.885 0 0 1-.892.883.892.892 0 0 1-.892-.883V9.633z" fill="#FFF" fill-rule="evenodd"/></svg>