<svg width="230" height="160" viewBox="0 0 230 160" xmlns="http://www.w3.org/2000/svg"><g fill="none" fill-rule="evenodd"><path d="M131.354 69.918c-4.33 2.751-4.853 4.817-4.905 6.163 1.844-3.839 11.266-7.128 13.907-15.704-.108 5.414-3.878 9.725-6.866 12.872-.84.886-2.918 2.346-1.853 3.286 1.065.94 2.885.261 4.046-.245 2.375-1.037 5.212-2.914 8.015-5.63-.916 1.965-3.103 4.656-4.075 6.112a4.16 4.16 0 0 0-.418.748c-.525 1.31-1.522 3 .1 3.82 1.736.878 3.015-3.22 3.153-3.49 1.148 1.483 1.561 2.866 1.561 5.9 0 4.284-4.723 9.397-10.22 9.397-5.499 0-7.34-2.21-9.075-3.934-6.53 6.494-17.692 4.476-22.242-3.119a14.554 14.554 0 0 1 4.1-19.439c6.199-4.384 14.523-3.28 19.679 2.707l-3.954 2.82c-.754-.576-1.452-1.184-2.222-1.684-4.051-2.633-9.18-1.88-12.246 1.77-3.281 3.905-3.113 9.386.401 13.077 3.37 3.54 8.348 3.942 12.299 1.052.592-.433 1.49-1.499 1.49-1.499s-.102-.875-.203-1.534c-.833-5.413 2.773-11.66 9.528-13.446zm-72.367 7.04v15.173h-4.57c-.072-.484-.204-.959-.205-1.434-.015-5.857-.071-11.714.005-17.57.088-6.806 4.7-12.75 12.198-12.75 0 3.484-.276 4.221-2.79 5.253-3.017 1.238-4.593 3.665-4.416 7.024h5.928v4.305h-6.15zm2.122 14.587h4.45v-13.45h-4.45v13.45zm38.034-11.19c-1.483.901-4.457 2.64-4.457 2.64s-.422 1.128-.73 1.737c-1.513 2.993-6.27 4.51-9.238 1.582l13.822-8.447c-2.215-5.844-8.232-8.781-13.826-6.92-5.656 1.883-8.747 8.086-6.895 13.838 1.908 5.923 7.902 9.143 13.815 7.42 5.19-1.512 8.742-7.031 7.51-11.85zM85.13 76.038c2.24-1.363 4.566-1.238 7.053.588l-9.84 5.997c-.556-2.849.503-5.194 2.787-6.585zm70.664-4.876s-4.105.028-5.23 3.03c-.076-.168-.06-2.251-.06-2.251l-4.679.033v19.81h5.096c0-3.573-.018-7.367.005-10.838.02-2.97 1.302-4.956 4.812-4.956 0-1.53.056-4.828.056-4.828zm-78.554 0s-4.105.028-5.23 3.03c-.076-.168-.06-2.251-.06-2.251l-4.679.033v19.81h5.096c0-3.573-.018-7.367.005-10.838.02-2.97 1.302-4.956 4.812-4.956 0-1.53.056-4.828.056-4.828zm99.688 9.193c-1.483.901-4.457 2.64-4.457 2.64s-.422 1.128-.73 1.737c-1.514 2.993-6.27 4.51-9.239 1.582l13.823-8.447c-2.215-5.844-8.232-8.781-13.826-6.92-5.657 1.883-8.747 8.086-6.895 13.838 1.908 5.923 7.902 9.143 13.815 7.42 5.19-1.512 8.742-7.031 7.509-11.85zm-14.014-4.317c2.24-1.363 4.565-1.238 7.052.588l-9.84 5.997c-.555-2.849.504-5.194 2.788-6.585z" fill="#A8372D"/></g></svg>