<svg xmlns="http://www.w3.org/2000/svg" width="390px" height="160px" viewBox="0 0 390 160"><defs><linearGradient id="d9vbhr4sfoe8cjblvyknaasi" x1="0" y1="45.4" x2="231.9" y2="45.4" gradientUnits="userSpaceOnUse"><stop offset="0" stop-color="#31aa52" stop-opacity="0"/><stop offset="1" stop-color="#31aa52" stop-opacity=".1"/></linearGradient><linearGradient id="lqsbgkp3qksgoy2utvn67yub" x1="0" y1="38.5" x2="154.3" y2="37.3" gradientUnits="userSpaceOnUse"><stop offset="0" stop-color="#fbbd00" stop-opacity="0"/><stop offset="1" stop-color="#fbbd00" stop-opacity=".1"/></linearGradient><linearGradient id="edfgey3fir355c5a344rv3a2" x1="0" y1="0" x2="231.9" y2="0" gradientUnits="userSpaceOnUse"><stop offset="0" stop-color="#eb4132" stop-opacity="0"/><stop offset="1" stop-color="#eb4132" stop-opacity=".1"/></linearGradient></defs><style>
@keyframes j2es5hbl2ec90dovligazzgt_t { 0% { transform: translate(309.3px,142px) scale(1,1) translate(-231.9px,-45.4px); animation-timing-function: cubic-bezier(.4,0,.6,1); } 40% { transform: translate(309.3px,142px) scale(.5,1) translate(-231.9px,-45.4px); animation-timing-function: cubic-bezier(.4,0,.6,1); } 100% { transform: translate(309.3px,142px) scale(1,1) translate(-231.9px,-45.4px); } }
@keyframes ydahe5688rp2d04nspoxm7vs_t { 0% { transform: translate(259px,78.8px) scale(1,1) translate(-154.3px,-38.5px); animation-timing-function: cubic-bezier(.4,0,.6,1); } 40% { transform: translate(259px,78.8px) scale(.3,1) translate(-154.3px,-38.5px); animation-timing-function: cubic-bezier(.4,0,.6,1); } 100% { transform: translate(259px,78.8px) scale(1,1) translate(-154.3px,-38.5px); } }
@keyframes wt3hixnnp2ha1b61m5tp1wvd_t { 0% { transform: translate(309.3px,54px) scale(1,1) translate(-231.9px,-38.5px); animation-timing-function: cubic-bezier(.4,0,.6,1); } 40% { transform: translate(309.3px,54px) scale(.5,1) translate(-231.9px,-38.5px); animation-timing-function: cubic-bezier(.4,0,.6,1); } 100% { transform: translate(309.3px,54px) scale(1,1) translate(-231.9px,-38.5px); } }
@keyframes mddqf88p3l37mbwb6ytzbbbr_t { 0% { transform: translate(15px,15px); animation-timing-function: cubic-bezier(.4,0,.6,1); } 100% { transform: translate(245px,15px); } }
@keyframes mddqf88p3l37mbwb6ytzbbbr_o { 0% { opacity: .2; animation-timing-function: cubic-bezier(.4,0,.6,1); } 100% { opacity: 0; } }
@keyframes m4tlnaec8sgu79vhvg1wk2e1_t { 0% { transform: translate(15px,15px); animation-timing-function: cubic-bezier(.4,0,.6,1); } 100% { transform: translate(245px,15px); } }
@keyframes m4tlnaec8sgu79vhvg1wk2e1_o { 0% { opacity: .2; animation-timing-function: cubic-bezier(.4,0,.6,1); } 100% { opacity: 0; } }
@keyframes t3mmmhebl1bkwhzj0vc5r2bk_o { 0% { opacity: 1; animation-timing-function: cubic-bezier(.4,0,.6,1); } 59.074% { opacity: .7; animation-timing-function: cubic-bezier(.4,0,.6,1); } 100% { opacity: 1; } }
@keyframes mnhlcoz8334dk5uxpydj23of_t { 0% { transform: translate(26.5px,80px) scale(0,1) translateX(18.9px); animation-timing-function: cubic-bezier(.4,0,.6,1); } 55% { transform: translate(118.7px,80px) scale(2,1) translateX(18.9px); animation-timing-function: cubic-bezier(.4,0,.6,1); } 100% { transform: translate(193.7px,80px) scale(0,1) translateX(18.9px); } }
@keyframes wmiu6ax8ylsfl51g9eb06o6x_t { 0% { transform: translate(8.3px,101.3px) scale(0,1) translateX(18.9px); animation-timing-function: cubic-bezier(.4,0,.6,1); } 60.024% { transform: translate(100.5px,101.3px) scale(2,1) translateX(18.9px); animation-timing-function: cubic-bezier(.4,0,.6,1); } 100% { transform: translate(175.5px,101.3px) scale(0,1) translateX(18.9px); } }
@keyframes y7dea1f60vm3hrk95nq7trgn_t { 0% { transform: translate(26.5px,92.2px) scale(0,1) translateX(18.9px); animation-timing-function: cubic-bezier(.4,0,.6,1); } 53.257% { transform: translate(168.7px,92.2px) scale(2,1) translateX(18.9px); animation-timing-function: cubic-bezier(.4,0,.6,1); } 100% { transform: translate(243.7px,92.2px) scale(0,1) translateX(18.9px); } }
@keyframes vpi0sgsqm75e7hkb9zy4v8t9_t { 0% { transform: translate(-12.4px,49.4px) scale(0,1) translateX(18.9px); animation-timing-function: cubic-bezier(.4,0,.6,1); } 63.577% { transform: translate(149.8px,49.4px) scale(2,1) translateX(18.9px); animation-timing-function: cubic-bezier(.4,0,.6,1); } 100% { transform: translate(224.8px,49.4px) scale(0,1) translateX(18.9px); } }
@keyframes i6ngl10q8uiwvbubclbaq9km_t { 0% { transform: translate(-11.8px,28.4px) scale(0,1) translateX(18.9px); animation-timing-function: cubic-bezier(.4,0,.6,1); } 53.464% { transform: translate(150.5px,28.4px) scale(2,1) translateX(18.9px); animation-timing-function: cubic-bezier(.4,0,.6,1); } 100% { transform: translate(225.5px,28.4px) scale(0,1) translateX(18.9px); } }
@keyframes u3mlwe17kw7h2vy1x8cqwm4z_t { 0% { transform: translate(12.5px,41.1px) scale(0,1) translateX(18.9px); animation-timing-function: cubic-bezier(.4,0,.6,1); } 54.941% { transform: translate(174.8px,41.1px) scale(2,1) translateX(18.9px); animation-timing-function: cubic-bezier(.4,0,.6,1); } 100% { transform: translate(249.8px,41.1px) scale(0,1) translateX(18.9px); } }
@keyframes muf94zcztqumq1s68ytco8c4_t { 0% { transform: translate(-11.7px,77.2px) scale(0,1) translateX(18.9px); animation-timing-function: cubic-bezier(.4,0,.6,1); } 55.08% { transform: translate(150.5px,77.2px) scale(2,1) translateX(18.9px); animation-timing-function: cubic-bezier(.4,0,.6,1); } 100% { transform: translate(225.5px,77.2px) scale(0,1) translateX(18.9px); } }
@keyframes yxxvu6ovm5gzcziueqy61015_t { 0% { transform: translate(27.2px,44.9px) scale(0,1) translateX(18.9px); animation-timing-function: cubic-bezier(.4,0,.6,1); } 63.437% { transform: translate(119.5px,44.9px) scale(2,1) translateX(18.9px); animation-timing-function: cubic-bezier(.4,0,.6,1); } 100% { transform: translate(194.5px,44.9px) scale(0,1) translateX(18.9px); } }
@keyframes sfu5abgkwr3z6fj06947nc5c_t { 0% { transform: translate(6.2px,25.3px) scale(0,1) translateX(18.9px); animation-timing-function: cubic-bezier(.4,0,.6,1); } 63.28% { transform: translate(98.5px,25.3px) scale(2,1) translateX(18.9px); animation-timing-function: cubic-bezier(.4,0,.6,1); } 100% { transform: translate(173.5px,25.3px) scale(0,1) translateX(18.9px); } }
@keyframes wiz8mqiu681zhy1w5jwwj85w_t { 0% { transform: translate(-6px,0px) scale(0,1) translateX(18.9px); animation-timing-function: cubic-bezier(.4,0,.6,1); } 50% { transform: translate(147.8px,.9px) scale(2,1) translateX(18.9px); animation-timing-function: cubic-bezier(.4,0,.6,1); } 100% { transform: translate(222.3px,.9px) scale(0,1) translateX(18.9px); } }
@keyframes su6khkw17mbblcej547wiogu_t { 0% { transform: translate(-4.3px,125.2px) scale(0,1) translateX(18.9px); animation-timing-function: cubic-bezier(.4,0,.6,1); } 49.355% { transform: translate(149.9px,125.2px) scale(2,1) translateX(18.9px); animation-timing-function: cubic-bezier(.4,0,.6,1); } 100% { transform: translate(224.9px,125.2px) scale(0,1) translateX(18.9px); } }
</style><title>Group 6</title><path fill="url(#d9vbhr4sfoe8cjblvyknaasi)" d="M0 0h173.9l58 45.4h-231.9Z" transform="translate(309.3,142) translate(-231.9,-45.4)" style="animation: 1s linear infinite both j2es5hbl2ec90dovligazzgt_t;"/><rect width="154.3" height="77" fill="url(#lqsbgkp3qksgoy2utvn67yub)" transform="translate(259,78.8) translate(-154.3,-38.5)" style="animation: 1s linear infinite both ydahe5688rp2d04nspoxm7vs_t;"/><path fill="url(#edfgey3fir355c5a344rv3a2)" d="M0 0h231.9l-60 46.1h-171.9Z" transform="translate(309.3,54) translate(-231.9,-38.5)" style="animation: 1s linear infinite both wt3hixnnp2ha1b61m5tp1wvd_t;"/><path d="M72 9.7c0 5.3-4.4 9.7-9.6 9.7c-5.3 0-9.7-4.4-9.7-9.7c0-5.3 4.4-9.7 9.7-9.7c5.2 0 9.6 4.4 9.6 9.7Zm17.2 16.3c-6.2 0-11.5 5.3-11.5 11.5c0 6.1 5.3 11.4 11.5 11.4c6.1 0 11.4-5.3 11.4-11.4c0-6.2-5.3-11.5-11.4-11.5Zm-26.8 1.3c-5.7 0-10.1 4.4-10.1 10.2c0 5.7 4.4 10.1 10.1 10.1c5.7 0 10.1-4.4 10.1-10.1c0-5.8-4.4-10.2-10.1-10.2Zm-27.3 1.3c-4.8 0-8.7 4-8.7 8.9c0 4.8 3.9 8.8 8.7 8.8c4.9 0 8.8-4 8.8-8.8c0-4.9-3.9-8.9-8.8-8.9Zm68.5 36.6c0-7.5 6.2-13.2 13.2-13.2c7.1 0 12.8 5.7 13.2 13.2c0 7.5-5.7 13.2-13.2 13.2c-7.4 0-13.2-6.1-13.2-13.2Zm-26.3 0c0-6.6 5.3-11.9 11.9-11.9c6.5 0 11.8 5.3 11.8 11.9c0 6.6-5.3 11.9-11.8 11.9c-6.6 0-11.9-5.3-11.9-11.9Zm-25.5 0c0-5.7 4.9-10.6 10.6-10.6c5.7 0 10.5 4.9 10.5 10.6c0 5.7-4.8 10.6-10.5 10.6c-5.7 0-10.6-4.9-10.6-10.6Zm-25.9 0c0-5.3 4-9.2 9.2-9.2c5.3 0 9.3 3.9 9.3 9.2c0 5.3-4 9.3-9.3 9.3c-5.2 0-9.2-4-9.2-9.3Zm-25.9 0c0-4.4 3.5-7.9 7.9-7.9c4.4 0 7.9 3.5 7.9 7.9c0 4.4-3.5 8-7.9 8c-4.4 0-7.9-3.6-7.9-8Zm89.2 15.9c-6.2 0-11.5 5.3-11.5 11.4c0 6.2 5.3 11.5 11.5 11.5c6.1 0 11.4-5.3 11.4-11.5c0-6.1-5.3-11.4-11.4-11.4Zm-26.8 1.3c-5.7 0-10.1 4.4-10.1 10.1c0 5.8 4.4 10.2 10.1 10.2c5.7 0 10.1-4.4 10.1-10.2c0-5.2-4.4-10.1-10.1-10.1Zm-27.3 1.3c-4.8 0-8.7 4-8.7 8.8c0 4.9 3.9 8.9 8.7 8.9c4.9 0 8.8-4 8.8-8.9c0-4.8-3.9-8.8-8.8-8.8Zm17.6 36.6c0-5.3 4.4-9.7 9.7-9.7c5.2 0 9.6 4.4 9.6 9.7c0 5.3-4.4 9.7-9.6 9.7c-5.3 0-9.7-4.4-9.7-9.7Z" fill="#00bbc4" fill-rule="evenodd" opacity=".2" transform="translate(77.4,24.7) translate(-62.4,-9.7)" style="animation: 1s linear infinite both mddqf88p3l37mbwb6ytzbbbr_t, 1s linear infinite both mddqf88p3l37mbwb6ytzbbbr_o;"/><path d="M72 9.7c0 5.3-4.4 9.7-9.6 9.7c-5.3 0-9.7-4.4-9.7-9.7c0-5.3 4.4-9.7 9.7-9.7c5.2 0 9.6 4.4 9.6 9.7Zm17.2 16.3c-6.2 0-11.5 5.3-11.5 11.5c0 6.1 5.3 11.4 11.5 11.4c6.1 0 11.4-5.3 11.4-11.4c0-6.2-5.3-11.5-11.4-11.5Zm-26.8 1.3c-5.7 0-10.1 4.4-10.1 10.2c0 5.7 4.4 10.1 10.1 10.1c5.7 0 10.1-4.4 10.1-10.1c0-5.8-4.4-10.2-10.1-10.2Zm-27.3 1.3c-4.8 0-8.7 4-8.7 8.9c0 4.8 3.9 8.8 8.7 8.8c4.9 0 8.8-4 8.8-8.8c0-4.9-3.9-8.9-8.8-8.9Zm68.5 36.6c0-7.5 6.2-13.2 13.2-13.2c7.1 0 12.8 5.7 13.2 13.2c0 7.5-5.7 13.2-13.2 13.2c-7.4 0-13.2-6.1-13.2-13.2Zm-26.3 0c0-6.6 5.3-11.9 11.9-11.9c6.5 0 11.8 5.3 11.8 11.9c0 6.6-5.3 11.9-11.8 11.9c-6.6 0-11.9-5.3-11.9-11.9Zm-25.5 0c0-5.7 4.9-10.6 10.6-10.6c5.7 0 10.5 4.9 10.5 10.6c0 5.7-4.8 10.6-10.5 10.6c-5.7 0-10.6-4.9-10.6-10.6Zm-25.9 0c0-5.3 4-9.2 9.2-9.2c5.3 0 9.3 3.9 9.3 9.2c0 5.3-4 9.3-9.3 9.3c-5.2 0-9.2-4-9.2-9.3Zm-25.9 0c0-4.4 3.5-7.9 7.9-7.9c4.4 0 7.9 3.5 7.9 7.9c0 4.4-3.5 8-7.9 8c-4.4 0-7.9-3.6-7.9-8Zm89.2 15.9c-6.2 0-11.5 5.3-11.5 11.4c0 6.2 5.3 11.5 11.5 11.5c6.1 0 11.4-5.3 11.4-11.5c0-6.1-5.3-11.4-11.4-11.4Zm-26.8 1.3c-5.7 0-10.1 4.4-10.1 10.1c0 5.8 4.4 10.2 10.1 10.2c5.7 0 10.1-4.4 10.1-10.2c0-5.2-4.4-10.1-10.1-10.1Zm-27.3 1.3c-4.8 0-8.7 4-8.7 8.8c0 4.9 3.9 8.9 8.7 8.9c4.9 0 8.8-4 8.8-8.9c0-4.8-3.9-8.8-8.8-8.8Zm17.6 36.6c0-5.3 4.4-9.7 9.7-9.7c5.2 0 9.6 4.4 9.6 9.7c0 5.3-4.4 9.7-9.6 9.7c-5.3 0-9.7-4.4-9.7-9.7Z" fill="#00bbc4" fill-rule="evenodd" opacity=".2" transform="translate(77.4,24.7) translate(-62.4,-9.7)" style="animation: 1s linear .5s infinite both m4tlnaec8sgu79vhvg1wk2e1_t, 1s linear .5s infinite both m4tlnaec8sgu79vhvg1wk2e1_o;"/><path d="M72 9.7c0 5.3-4.4 9.7-9.6 9.7c-5.3 0-9.7-4.4-9.7-9.7c0-5.3 4.4-9.7 9.7-9.7c5.2 0 9.6 4.4 9.6 9.7Zm17.2 16.3c-6.2 0-11.5 5.3-11.5 11.5c0 6.1 5.3 11.4 11.5 11.4c6.1 0 11.4-5.3 11.4-11.4c0-6.2-5.3-11.5-11.4-11.5Zm-26.8 1.3c-5.7 0-10.1 4.4-10.1 10.2c0 5.7 4.4 10.1 10.1 10.1c5.7 0 10.1-4.4 10.1-10.1c0-5.8-4.4-10.2-10.1-10.2Zm-27.3 1.3c-4.8 0-8.7 4-8.7 8.9c0 4.8 3.9 8.8 8.7 8.8c4.9 0 8.8-4 8.8-8.8c0-4.9-3.9-8.9-8.8-8.9Zm68.5 36.6c0-7.5 6.2-13.2 13.2-13.2c7.1 0 12.8 5.7 13.2 13.2c0 7.5-5.7 13.2-13.2 13.2c-7.4 0-13.2-6.1-13.2-13.2Zm-26.3 0c0-6.6 5.3-11.9 11.9-11.9c6.5 0 11.8 5.3 11.8 11.9c0 6.6-5.3 11.9-11.8 11.9c-6.6 0-11.9-5.3-11.9-11.9Zm-25.5 0c0-5.7 4.9-10.6 10.6-10.6c5.7 0 10.5 4.9 10.5 10.6c0 5.7-4.8 10.6-10.5 10.6c-5.7 0-10.6-4.9-10.6-10.6Zm-25.9 0c0-5.3 4-9.2 9.2-9.2c5.3 0 9.3 3.9 9.3 9.2c0 5.3-4 9.3-9.3 9.3c-5.2 0-9.2-4-9.2-9.3Zm-25.9 0c0-4.4 3.5-7.9 7.9-7.9c4.4 0 7.9 3.5 7.9 7.9c0 4.4-3.5 8-7.9 8c-4.4 0-7.9-3.6-7.9-8Zm89.2 15.9c-6.2 0-11.5 5.3-11.5 11.4c0 6.2 5.3 11.5 11.5 11.5c6.1 0 11.4-5.3 11.4-11.5c0-6.1-5.3-11.4-11.4-11.4Zm-26.8 1.3c-5.7 0-10.1 4.4-10.1 10.1c0 5.8 4.4 10.2 10.1 10.2c5.7 0 10.1-4.4 10.1-10.2c0-5.2-4.4-10.1-10.1-10.1Zm-27.3 1.3c-4.8 0-8.7 4-8.7 8.8c0 4.9 3.9 8.9 8.7 8.9c4.9 0 8.8-4 8.8-8.9c0-4.8-3.9-8.8-8.8-8.8Zm17.6 36.6c0-5.3 4.4-9.7 9.7-9.7c5.2 0 9.6 4.4 9.6 9.7c0 5.3-4.4 9.7-9.6 9.7c-5.3 0-9.7-4.4-9.7-9.7Z" fill="#00bbc4" fill-rule="evenodd" transform="translate(15,15)" style="animation: 1.38s linear infinite both t3mmmhebl1bkwhzj0vc5r2bk_o;"/><g transform="translate(246,15.5)"><path d="M29.6 63.2c0-6.2 1.8-12.1 4.8-17.1l-9.4-11.6l-12-9.7c-8.4 10.9-13 24.3-13 38.4c0 14.1 4.6 27.5 13 38.5l12-8.2l9.4-13.1c-3-5-4.8-10.9-4.8-17.2Z" fill="#fbbd00"/><path d="M63.2 96.8l-1.8 14.8l1.8 14.9c14.1 0 27.5-4.6 38.5-13.1l-8.7-10.9l-12.6-10.4c-5.1 3-11 4.7-17.2 4.7Z" fill="#0f9d58"/><path d="M34.4 80.4l-21.4 21.3c1.7 2.2 3.5 4.3 5.5 6.2c12 12 27.8 18.6 44.7 18.6v-29.7c-12.2 0-23-6.6-28.8-16.4Z" fill="#31aa52"/><path d="M126.5 63.2c0-3.8-0.4-7.7-1.1-11.4l-0.5-3.1h-61.7v29.7h30c-2.9 5.8-7.4 10.5-12.8 13.7l21.3 21.3c2.2-1.7 4.3-3.5 6.2-5.5c12-11.9 18.6-27.8 18.6-44.7Z" fill="#3c79e6"/><path d="M87 39.5l2.6 2.6l21-21l-2.7-2.6c-11.9-11.9-27.8-18.5-44.7-18.5l-1.8 14.8l1.8 14.8c9 0 17.4 3.5 23.8 9.9Z" fill="#cf2d48"/><path d="M63.2 29.6v-29.6c-16.9 0-32.7 6.6-44.7 18.5c-2 2-3.8 4.1-5.5 6.3l21.4 21.3c5.8-9.9 16.6-16.5 28.8-16.5Z" fill="#eb4132"/></g><g opacity=".3" transform="translate(85.7,15.8)"><path fill="#fbbd00" d="M18.9 0c0 .5-0.2 .9-2 .9c-10.5 0-35.8-0.4-35.8-0.9c0-0.5 25.3-0.9 35.8-0.9c1.8 0 2 .4 2 .9Z" transform="translate(26.5,80) scale(0,1) translate(18.9,0)" style="animation: 1s linear infinite both mnhlcoz8334dk5uxpydj23of_t;"/><path fill="#31aa52" d="M18.9 0c0 .5-0.2 .9-2 .9c-10.5 0-35.8-0.4-35.8-0.9c0-0.5 25.3-0.9 35.8-0.9c1.8 0 2 .4 2 .9Z" transform="translate(8.3,101.3) scale(0,1) translate(18.9,0)" style="animation: .83s linear infinite both wmiu6ax8ylsfl51g9eb06o6x_t;"/><path fill="#3c79e6" d="M18.9 0c0 .5-0.2 .9-2 .9c-10.5 0-35.8-0.4-35.8-0.9c0-0.5 25.3-0.9 35.8-0.9c1.8 0 2 .4 2 .9Z" transform="translate(26.5,92.2) scale(0,1) translate(18.9,0)" style="animation: .78s linear infinite both y7dea1f60vm3hrk95nq7trgn_t;"/><path fill="#3c79e6" d="M18.9 0c0 .5-0.2 .9-2 .9c-10.5 0-35.8-0.4-35.8-0.9c0-0.5 25.3-0.9 35.8-0.9c1.8 0 2 .4 2 .9Z" transform="translate(-12.4,49.4) scale(0,1) translate(18.9,0)" style="animation: .92s linear infinite both vpi0sgsqm75e7hkb9zy4v8t9_t;"/><path fill="#cf2d48" d="M18.9 0c0 .5-0.2 .9-2 .9c-10.5 0-35.8-0.4-35.8-0.9c0-0.5 25.3-0.9 35.8-0.9c1.8 0 2 .4 2 .9Z" transform="translate(-11.8,28.4) scale(0,1) translate(18.9,0)" style="animation: .97s linear infinite both i6ngl10q8uiwvbubclbaq9km_t;"/><path fill="#cf2d48" d="M18.9 0c0 .5-0.2 .9-2 .9c-10.5 0-35.8-0.4-35.8-0.9c0-0.5 25.3-0.9 35.8-0.9c1.8 0 2 .4 2 .9Z" transform="translate(12.5,41.1) scale(0,1) translate(18.9,0)" style="animation: .85s linear infinite both u3mlwe17kw7h2vy1x8cqwm4z_t;"/><path fill="#3c79e6" d="M18.9 0c0 .5-0.2 .9-2 .9c-10.5 0-35.8-0.4-35.8-0.9c0-0.5 25.3-0.9 35.8-0.9c1.8 0 2 .4 2 .9Z" transform="translate(-11.7,77.2) scale(0,1) translate(18.9,0)" style="animation: .82s linear infinite both muf94zcztqumq1s68ytco8c4_t;"/><path fill="#eb4132" d="M18.9 0c0 .5-0.2 .9-2 .9c-10.5 0-35.8-0.4-35.8-0.9c0-0.5 25.3-0.9 35.8-0.9c1.8 0 2 .4 2 .9Z" transform="translate(27.2,44.9) scale(0,1) translate(18.9,0)" style="animation: .87s linear infinite both yxxvu6ovm5gzcziueqy61015_t;"/><path fill="#fbbd00" d="M18.9 0c0 .5-0.2 .9-2 .9c-10.5 0-35.8-0.4-35.8-0.9c0-0.5 25.3-0.9 35.8-0.9c1.8 0 2 .4 2 .9Z" transform="translate(6.2,25.3) scale(0,1) translate(18.9,0)" style="animation: .82s linear infinite both sfu5abgkwr3z6fj06947nc5c_t;"/><path fill="#eb4132" d="M18.9 0c0 .5-0.2 .9-2 .9c-10.5 0-35.8-0.4-35.8-0.9c0-0.5 25.3-0.9 35.8-0.9c1.8 0 2 .4 2 .9Z" transform="translate(-6,0) scale(0,1) translate(18.9,0)" style="animation: 1.1s linear infinite both wiz8mqiu681zhy1w5jwwj85w_t;"/><path fill="#0f9d58" d="M18.9 0c0 .5-0.2 .9-2 .9c-10.5 0-35.8-0.4-35.8-0.9c0-0.5 25.3-0.9 35.8-0.9c1.8 0 2 .4 2 .9Z" transform="translate(-4.3,125.2) scale(0,1) translate(18.9,0)" style="animation: 1.32s linear infinite both su6khkw17mbblcej547wiogu_t;"/></g></svg>