<?xml version="1.0" encoding="UTF-8"?>
<svg width="230px" height="160px" viewBox="0 0 230 160" version="1.1" xmlns="http://www.w3.org/2000/svg" xmlns:xlink="http://www.w3.org/1999/xlink">
    <!-- Generator: Sketch 64 (93537) - https://sketch.com -->
    <title>logo_fitbit</title>
    <desc>Created with Sketch.</desc>
    <g id="03-what-we-do-(SRC)" stroke="none" stroke-width="1" fill="none" fill-rule="evenodd" opacity="0.301">
        <g id="Group-2" fill="#D4E1ED">
            <path d="M55.9819203,96.1545806 C57.7947476,96.1545806 59.2638937,97.6240304 59.2638937,99.4368577 C59.2638937,101.249381 57.7947476,102.719135 55.9819203,102.719135 C54.1693966,102.719135 52.6999469,101.249381 52.6999469,99.4368577 C52.6999469,97.6240304 54.1693966,96.1545806 55.9819203,96.1545806 Z M145.12041,62.2817913 C145.422569,62.2817913 145.672132,62.5169649 145.695214,62.81343 L145.696956,62.8583378 L145.696956,77.5883567 C147.536197,75.6191727 150.722839,74.2678254 153.768607,74.2678254 C157.156843,74.2678254 160.226596,75.5669526 162.411947,77.9256622 C164.619461,80.3080531 165.786216,83.5420569 165.786216,87.2776167 C165.786216,96.3086603 159.750239,100.350861 153.768607,100.350861 C147.846491,100.350861 141.871706,96.3891001 141.752803,87.5470523 L141.750998,87.2776167 L141.750998,62.8583378 C141.750998,62.5561782 141.986172,62.306616 142.282375,62.2835333 L142.327241,62.2817913 L145.12041,62.2817913 Z M115.085283,75.1046831 C115.387153,75.1046831 115.636977,75.3398568 115.660085,75.6363219 L115.661829,75.6812296 L115.661829,98.8602808 C115.661829,99.1624404 115.42638,99.4120026 115.130151,99.4350853 L115.085283,99.4368273 L112.296972,99.4368273 C111.995101,99.4368273 111.745277,99.2016537 111.722169,98.9051886 L111.720425,98.8602808 L111.720425,75.6812296 C111.720425,75.37907 111.955874,75.1295078 112.252103,75.1064252 L112.296972,75.1046831 L115.085283,75.1046831 Z M174.607195,75.1046831 C174.909066,75.1046831 175.158614,75.3398568 175.181696,75.6363219 L175.183438,75.6812296 L175.183438,98.8602808 C175.183438,99.1624404 174.948265,99.4120026 174.652062,99.4350853 L174.607195,99.4368273 L171.818581,99.4368273 C171.51671,99.4368273 171.267162,99.2016537 171.24408,98.9051886 L171.242338,98.8602808 L171.242338,75.6812296 C171.242338,75.37907 171.477511,75.1295078 171.773714,75.1064252 L171.818581,75.1046831 L174.607195,75.1046831 Z M105.17348,62.2815787 C105.47564,62.2815787 105.725202,62.5170278 105.748284,62.8132569 L105.750027,62.8581252 L105.750027,65.6461328 C105.750027,65.9482924 105.514853,66.19813 105.218388,66.2212389 L105.17348,66.2229829 L101.890899,66.2229829 C100.053663,66.2229829 98.6610208,67.689084 98.6172728,69.6486929 L98.6162125,69.7438937 L98.6162125,75.1046528 L105.17348,75.1046528 C105.47564,75.1046528 105.725202,75.3401018 105.748284,75.6363309 L105.750027,75.6811992 L105.750027,78.4695104 C105.750027,78.77167 105.514853,79.0212322 105.218388,79.0443149 L105.17348,79.0460569 L98.6162125,79.0460569 L98.6162125,98.8602505 C98.6162125,99.16241 98.3807635,99.4119722 98.0845344,99.4350549 L98.039666,99.436797 L95.2513548,99.436797 C94.9494844,99.436797 94.6996606,99.2016233 94.6765524,98.9051582 L94.6748083,98.8602505 L94.6748083,79.0460569 L91.6836888,79.0460569 C91.3818184,79.0460569 91.1319946,78.8108833 91.1088863,78.5144182 L91.1071423,78.4695104 L91.1071423,75.6811992 C91.1071423,75.3793288 91.3425913,75.129505 91.6388204,75.1063968 L91.6836888,75.1046528 L94.6748083,75.1046528 L94.6748083,69.7438937 C94.6748083,65.6702786 97.9554467,62.3486065 102.013315,62.2825804 L102.136516,62.2815787 L105.17348,62.2815787 Z M128.776182,65.596797 C129.078053,65.596797 129.328152,65.8319706 129.351286,66.1284357 L129.353032,66.1733435 L129.353032,75.1048046 L135.296713,75.1048046 C135.598873,75.1048046 135.848435,75.3399782 135.871518,75.6364433 L135.87326,75.681351 L135.87326,78.4693586 C135.87326,78.7715182 135.638086,79.0210804 135.341621,79.0441631 L135.296713,79.0459051 L129.353032,79.0459051 L129.353032,92.1288653 C129.353032,94.0787439 130.656821,95.4493567 132.53604,95.492377 L132.627416,95.4934194 L135.296713,95.4934194 C135.598873,95.4934194 135.848435,95.7288684 135.871518,96.0253597 L135.87326,96.0702694 L135.87326,98.858277 C135.87326,99.1601475 135.638086,99.4099713 135.341621,99.4330795 L135.296713,99.4348235 L132.278573,99.4348235 C128.211871,99.4348235 125.466054,96.7299707 125.411544,92.6903935 L125.410717,92.567575 L125.410717,79.0459051 L122.420205,79.0459051 C122.118335,79.0459051 121.868511,78.8107315 121.845402,78.5142664 L121.843658,78.4693586 L121.843658,75.681351 C121.843658,75.3791915 122.079107,75.1296293 122.375337,75.1065466 L122.420205,75.1048046 L125.410717,75.1048046 L125.410717,66.1733435 C125.410717,65.8711839 125.646166,65.6216217 125.942658,65.598539 L125.987567,65.596797 L128.776182,65.596797 Z M187.704364,65.596797 C188.006235,65.596797 188.256059,65.8319706 188.279167,66.1284357 L188.280911,66.1733435 L188.280911,75.1048046 L194.224896,75.1048046 C194.527055,75.1048046 194.776617,75.3399782 194.7997,75.6364433 L194.801442,75.681351 L194.801442,78.4693586 C194.801442,78.7715182 194.566268,79.0210804 194.269803,79.0441631 L194.224896,79.0459051 L188.280911,79.0459051 L188.280911,92.1288653 C188.280911,94.0787439 189.584994,95.4493567 191.463932,95.492377 L191.555294,95.4934194 L194.224896,95.4934194 C194.527055,95.4934194 194.776617,95.7288684 194.7997,96.0253597 L194.801442,96.0702694 L194.801442,98.858277 C194.801442,99.1601475 194.566268,99.4099713 194.269803,99.4330795 L194.224896,99.4348235 L191.206452,99.4348235 C187.13975,99.4348235 184.394527,96.7299707 184.340029,92.6903935 L184.339203,92.567575 L184.339203,79.0459051 L181.348387,79.0459051 C181.046517,79.0459051 180.796693,78.8107315 180.773585,78.5142664 L180.771841,78.4693586 L180.771841,75.681351 C180.771841,75.3791915 181.00729,75.1296293 181.303519,75.1065466 L181.348387,75.1048046 L184.339203,75.1048046 L184.339203,66.1733435 C184.339203,65.8711839 184.574377,65.6216217 184.870842,65.598539 L184.91575,65.596797 L187.704364,65.596797 Z M153.768607,78.2131765 C148.940372,78.2131765 145.696046,81.855833 145.696046,87.2776167 C145.696046,91.6905199 147.816729,96.4055104 153.768607,96.4055104 C159.720486,96.4055104 161.840865,91.6905199 161.840865,87.2776167 C161.840865,81.855833 158.596843,78.2131765 153.768607,78.2131765 Z M65.0202505,86.2977306 C67.1470057,86.2977306 68.8711803,88.0216015 68.8711803,90.1486603 C68.8711803,92.2754156 67.1470057,93.9995901 65.0202505,93.9995901 C62.8934953,93.9995901 61.1693207,92.2754156 61.1693207,90.1486603 C61.1693207,88.0216015 62.8934953,86.2977306 65.0202505,86.2977306 Z M55.9819203,86.7352258 C57.8670057,86.7352258 59.3953548,88.2632713 59.3953548,90.1486603 C59.3953548,92.0337457 57.8670057,93.5617913 55.9819203,93.5617913 C54.0968349,93.5617913 52.5684858,92.0337457 52.5684858,90.1486603 C52.5684858,88.2632713 54.0968349,86.7352258 55.9819203,86.7352258 Z M46.8260949,87.1727211 C48.4695104,87.1727211 49.8017306,88.5052448 49.8017306,90.1486603 C49.8017306,91.7920759 48.4695104,93.124296 46.8260949,93.124296 C45.1826793,93.124296 43.8501556,91.7920759 43.8501556,90.1486603 C43.8501556,88.5052448 45.1826793,87.1727211 46.8260949,87.1727211 Z M74.2990361,76.439666 C76.7400228,76.439666 78.7189222,78.4185655 78.7189222,80.8595522 C78.7189222,83.3008425 76.7400228,85.2794383 74.2990361,85.2794383 C71.8580493,85.2794383 69.8791499,83.3008425 69.8791499,80.8595522 C69.8791499,78.4185655 71.8580493,76.439666 74.2990361,76.439666 Z M65.0202505,76.8774649 C67.2195674,76.8774649 69.0023378,78.6602353 69.0023378,80.8595522 C69.0023378,83.0591727 67.2195674,84.8419431 65.0202505,84.8419431 C62.8209336,84.8419431 61.0378596,83.0591727 61.0378596,80.8595522 C61.0378596,78.6602353 62.8209336,76.8774649 65.0202505,76.8774649 Z M55.9819203,77.3149602 C57.9395674,77.3149602 59.5265123,78.9019051 59.5265123,80.8595522 C59.5265123,82.8175028 57.9395674,84.4041442 55.9819203,84.4041442 C54.0242732,84.4041442 52.4373283,82.8175028 52.4373283,80.8595522 C52.4373283,78.9019051 54.0242732,77.3149602 55.9819203,77.3149602 Z M46.8260949,77.752759 C48.5420721,77.752759 49.9331917,79.1438786 49.9331917,80.8595522 C49.9331917,82.575833 48.5420721,83.966649 46.8260949,83.966649 C45.1101176,83.966649 43.7189981,82.575833 43.7189981,80.8595522 C43.7189981,79.1438786 45.1101176,77.752759 46.8260949,77.752759 Z M37.6693586,78.1902543 C39.143666,78.1902543 40.3386565,79.3855484 40.3386565,80.8595522 C40.3386565,82.3338596 39.143666,83.5288501 37.6693586,83.5288501 C36.1953548,83.5288501 35.0000607,82.3338596 35.0000607,80.8595522 C35.0000607,79.3855484 36.1953548,78.1902543 37.6693586,78.1902543 Z M65.0202505,67.7192106 C67.1470057,67.7192106 68.8711803,69.4433852 68.8711803,71.5701404 C68.8711803,73.6968956 67.1470057,75.4210702 65.0202505,75.4210702 C62.8934953,75.4210702 61.1693207,73.6968956 61.1693207,71.5701404 C61.1693207,69.4433852 62.8934953,67.7192106 65.0202505,67.7192106 Z M55.9819203,68.1567059 C57.8670057,68.1567059 59.3953548,69.685055 59.3953548,71.5701404 C59.3953548,73.4552258 57.8670057,74.983575 55.9819203,74.983575 C54.0968349,74.983575 52.5684858,73.4552258 52.5684858,71.5701404 C52.5684858,69.685055 54.0968349,68.1567059 55.9819203,68.1567059 Z M46.8260949,68.5945047 C48.4695104,68.5945047 49.8017306,69.9267249 49.8017306,71.5701404 C49.8017306,73.213556 48.4695104,74.5460797 46.8260949,74.5460797 C45.1826793,74.5460797 43.8501556,73.213556 43.8501556,71.5701404 C43.8501556,69.9267249 45.1826793,68.5945047 46.8260949,68.5945047 Z M113.690459,65.3654497 C115.162338,65.3654497 116.360061,66.5628691 116.360061,68.0347476 C116.360061,69.5063226 115.162338,70.7037419 113.690459,70.7037419 C112.219188,70.7037419 111.022072,69.5063226 111.022072,68.0347476 C111.022072,66.5628691 112.219188,65.3654497 113.690459,65.3654497 Z M173.212099,65.3658748 C174.673351,65.3658748 175.862877,66.5629905 175.862877,68.0345655 C175.862877,69.5061404 174.673351,70.7032562 173.212099,70.7032562 C171.75115,70.7032562 170.524584,69.5061404 170.524584,68.0345655 C170.524584,66.5629905 171.75115,65.3658748 173.212099,65.3658748 Z M55.9819203,58.9999696 C57.7947476,58.9999696 59.2638937,60.4694194 59.2638937,62.2819431 C59.2638937,64.0947704 57.7947476,65.5642201 55.9819203,65.5642201 C54.1693966,65.5642201 52.6999469,64.0947704 52.6999469,62.2819431 C52.6999469,60.4694194 54.1693966,58.9999696 55.9819203,58.9999696 Z" id="Shape"></path>
        </g>
    </g>
</svg>