<svg width="82" height="81" viewBox="0 0 82 81" fill="none" xmlns="http://www.w3.org/2000/svg">
<path d="M45.7114 6.04068C45.7114 9.33559 42.9749 12.0814 39.6911 12.0814C36.4073 12.0814 33.6708 9.33559 33.6708 6.04068C33.6708 2.74576 36.4073 0 39.6911 0C42.9749 0 45.7114 2.74576 45.7114 6.04068ZM39.6911 17.0237C36.1337 17.0237 33.3972 19.7695 33.3972 23.339C33.3972 26.9085 36.1337 29.6542 39.6911 29.6542C43.2485 29.6542 45.985 26.9085 45.985 23.339C45.985 19.7695 43.2485 17.0237 39.6911 17.0237ZM39.6911 34.0475C36.1337 34.0475 33.1236 37.0678 33.1236 40.6373C33.1236 44.2068 36.1337 47.2271 39.6911 47.2271C43.2485 47.2271 46.2587 44.2068 46.2587 40.6373C46.2587 37.0678 43.2485 34.0475 39.6911 34.0475ZM39.6911 51.3458C36.1337 51.3458 33.3972 54.0915 33.3972 57.661C33.3972 61.2305 36.1337 63.9763 39.6911 63.9763C43.2485 63.9763 45.985 61.2305 45.985 57.661C45.985 54.3661 43.2485 51.3458 39.6911 51.3458ZM39.6911 68.9186C36.4073 68.9186 33.6708 71.6644 33.6708 74.9593C33.6708 78.2542 36.4073 81 39.6911 81C42.9749 81 45.7114 78.2542 45.7114 74.9593C45.7114 71.6644 42.9749 68.9186 39.6911 68.9186ZM56.3837 16.2C52.5526 16.2 49.2688 19.4949 49.2688 23.339C49.2688 27.1831 52.5526 30.478 56.3837 30.478C60.2148 30.478 63.4986 27.1831 63.4986 23.339C63.4986 19.4949 60.2148 16.2 56.3837 16.2ZM56.3837 33.2237C52.279 33.2237 48.9952 36.5186 48.9952 40.6373C48.9952 44.7559 52.279 48.0508 56.3837 48.0508C60.4884 48.0508 63.7722 44.7559 63.7722 40.6373C63.7722 36.5186 60.4884 33.2237 56.3837 33.2237ZM56.3837 50.522C52.5526 50.522 49.2688 53.817 49.2688 57.661C49.2688 61.5051 52.5526 64.8 56.3837 64.8C60.2148 64.8 63.4986 61.5051 63.4986 57.661C63.4986 53.817 60.2148 50.522 56.3837 50.522ZM73.6236 32.4C69.2452 32.4 65.4141 35.9695 65.4141 40.6373C65.4141 45.0305 68.9715 48.8746 73.6236 48.8746C78.2756 48.8746 81.833 45.3051 81.833 40.6373C81.5594 35.9695 78.0019 32.4 73.6236 32.4ZM22.7249 17.8475C19.7148 17.8475 17.2519 20.3186 17.2519 23.339C17.2519 26.3593 19.7148 28.8305 22.7249 28.8305C25.735 28.8305 28.1979 26.3593 28.1979 23.339C28.1979 20.3186 25.735 17.8475 22.7249 17.8475ZM22.7249 34.8712C19.4411 34.8712 16.9783 37.3424 16.9783 40.6373C16.9783 43.9322 19.4411 46.4034 22.7249 46.4034C26.0087 46.4034 28.4715 43.9322 28.4715 40.6373C28.4715 37.3424 26.0087 34.8712 22.7249 34.8712ZM22.7249 52.1695C19.7148 52.1695 17.2519 54.6407 17.2519 57.661C17.2519 60.6814 19.7148 63.1525 22.7249 63.1525C25.735 63.1525 28.1979 60.6814 28.1979 57.661C28.1979 54.6407 25.735 52.1695 22.7249 52.1695ZM5.75869 35.6949C3.0222 35.6949 0.833008 37.8915 0.833008 40.6373C0.833008 43.3831 3.0222 45.5797 5.75869 45.5797C8.49518 45.5797 10.6844 43.3831 10.6844 40.6373C10.6844 37.8915 8.49518 35.6949 5.75869 35.6949Z" fill="#002B3B"/>
</svg>
