<svg xmlns="http://www.w3.org/2000/svg" viewBox="0 0 768 680"><defs><linearGradient id="xl3j8ct92admbhakt6xm28ll" x1="0" y1=".1" x2="1" y2=".9"><stop offset="0" stop-color="#006b8a"/><stop offset="1" stop-color="#4cff8d"/></linearGradient><linearGradient id="svva21cuxc9s2qtd1is9dexa" x1="1.1" y1=".8" x2=".5" y2="0"><stop offset="0" stop-color="#4cff8d" stop-opacity="0"/><stop offset="1" stop-color="#4cff8d"/></linearGradient><linearGradient id="uiylwod56x7h1gep177lk7pi" x1=".4" y1=".5" x2=".3" y2=".5"><stop offset="1" stop-color="#4cff8d"/></linearGradient><linearGradient id="g3c9psaw57yi81gvmizzi3je" x1=".7" y1=".2" x2="-0.3" y2=".9"><stop offset="0" stop-color="#4cff8d" stop-opacity="0"/><stop offset="1" stop-color="#4cff8d"/></linearGradient><mask id="Mask-1" style="mask-type: alpha;"><g transform="translate(-280.5,-37)"><path d="M389 0l-389 389" stroke="#000" fill="none" stroke-linecap="square" stroke-width="4"/><path d="M409 0l-389 389" stroke="#000" fill="none" stroke-linecap="square" stroke-width="4"/><path d="M429 0l-389 389" stroke="#000" fill="none" stroke-linecap="square" stroke-width="4"/><path d="M449 0l-389 389" stroke="#000" fill="none" stroke-linecap="square" stroke-width="4"/><path d="M469 0l-389 389" stroke="#000" fill="none" stroke-linecap="square" stroke-width="4"/><path d="M489 0l-389 389" stroke="#000" fill="none" stroke-linecap="square" stroke-width="4"/><path d="M509 0l-389 389" stroke="#000" fill="none" stroke-linecap="square" stroke-width="4"/><path d="M529 0l-389 389" stroke="#000" fill="none" stroke-linecap="square" stroke-width="4"/><path d="M549 0l-389 389" stroke="#000" fill="none" stroke-linecap="square" stroke-width="4"/><path d="M569 0l-389 389" stroke="#000" fill="none" stroke-linecap="square" stroke-width="4"/><path d="M589 0l-389 389" stroke="#000" fill="none" stroke-linecap="square" stroke-width="4"/><path d="M609 0l-389 389" stroke="#000" fill="none" stroke-linecap="square" stroke-width="4"/><path d="M629 0l-389 389" stroke="#000" fill="none" stroke-linecap="square" stroke-width="4"/><path d="M649 0l-389 389" stroke="#000" fill="none" stroke-linecap="square" stroke-width="4"/><path d="M669 0l-389 389" stroke="#000" fill="none" stroke-linecap="square" stroke-width="4"/><path d="M689 0l-389 389" stroke="#000" fill="none" stroke-linecap="square" stroke-width="4"/><path d="M709 0l-389 389" stroke="#000" fill="none" stroke-linecap="square" stroke-width="4"/><path d="M729 0l-389 389" stroke="#000" fill="none" stroke-linecap="square" stroke-width="4"/><path d="M749 0l-389 389" stroke="#000" fill="none" stroke-linecap="square" stroke-width="4"/><path d="M769 0l-389 389" stroke="#000" fill="none" stroke-linecap="square" stroke-width="4"/><path d="M789 0l-389 389" stroke="#000" fill="none" stroke-linecap="square" stroke-width="4"/><path d="M809 0l-389 389" stroke="#000" fill="none" stroke-linecap="square" stroke-width="4"/><path d="M829 0l-389 389" stroke="#000" fill="none" stroke-linecap="square" stroke-width="4"/><path d="M849 0l-389 389" stroke="#000" fill="none" stroke-linecap="square" stroke-width="4"/><path d="M869 0l-389 389" stroke="#000" fill="none" stroke-linecap="square" stroke-width="4"/><path d="M722.9 166.1l-222.9 222.9" stroke="#000" fill="none" stroke-linecap="square" stroke-width="4"/><path d="M742.9 166.1l-222.9 222.9" stroke="#000" fill="none" stroke-linecap="square" stroke-width="4"/><path d="M762.9 166.1l-222.9 222.9" stroke="#000" fill="none" stroke-linecap="square" stroke-width="4"/><path d="M782.9 166.1l-222.9 222.9" stroke="#000" fill="none" stroke-linecap="square" stroke-width="4"/><path d="M802.9 166.1l-222.9 222.9" stroke="#000" fill="none" stroke-linecap="square" stroke-width="4"/><path d="M822.9 166.1l-222.9 222.9" stroke="#000" fill="none" stroke-linecap="square" stroke-width="4"/><path d="M842.9 166.1l-222.9 222.9" stroke="#000" fill="none" stroke-linecap="square" stroke-width="4"/><path d="M862.9 166.1l-222.9 222.9" stroke="#000" fill="none" stroke-linecap="square" stroke-width="4"/><path d="M882.9 166.1l-222.9 222.9" stroke="#000" fill="none" stroke-linecap="square" stroke-width="4"/><path d="M902.9 166.1l-222.9 222.9" stroke="#000" fill="none" stroke-linecap="square" stroke-width="4"/><path d="M922.9 166.1l-222.9 222.9" stroke="#000" fill="none" stroke-linecap="square" stroke-width="4"/><path d="M942.9 166.1l-222.9 222.9" stroke="#000" fill="none" stroke-linecap="square" stroke-width="4"/><path d="M962.9 166.1l-222.9 222.9" stroke="#000" fill="none" stroke-linecap="square" stroke-width="4"/></g></mask></defs><style>
@keyframes gwfs0iyt0qhm4d7djy4tsqgy_t { 0% { transform: translate(171.6px,605.8px) scale(1.3,1.3) translate(-171.6px,-606.8px); animation-timing-function: cubic-bezier(.4,0,.6,1); } 27.857% { transform: translate(171.6px,605.8px) scale(1,1) translate(-171.6px,-606.8px); animation-timing-function: cubic-bezier(.4,0,.6,1); } 62.857% { transform: translate(171.6px,605.8px) scale(1.3,1.3) translate(-171.6px,-606.8px); animation-timing-function: steps(1); } 62.864% { transform: translate(171.6px,605.8px) scale(1.3,1.3) translate(-171.6px,-606.8px); animation-timing-function: cubic-bezier(.4,0,.6,1); } 90.714% { transform: translate(171.6px,605.8px) scale(1,1) translate(-171.6px,-606.8px); animation-timing-function: cubic-bezier(.4,0,.7,.4); } 100% { transform: translate(171.6px,605.8px) scale(1,1) translate(-171.6px,-606.8px); } }
@keyframes w4esg4izgozhvwq396tgso01_t { 0% { transform: translateY(0px) scale(1,1) translateY(-1px); animation-timing-function: cubic-bezier(.4,0,.6,1); } 41.428% { transform: translateY(0px) scale(1.1,1.1) translateY(-1px); animation-timing-function: cubic-bezier(.4,0,.6,1); } 94.286% { transform: translateY(0px) scale(1,1) translateY(-1px); animation-timing-function: steps(1); } 94.293% { transform: translateY(0px) scale(1,1) translateY(-1px); animation-timing-function: cubic-bezier(.4,0,.7,.4); } 100% { transform: translateY(0px) scale(1,1) translateY(-1px); } }
@keyframes c95axjk1lz74gp7a1wep2nw5_t { 0% { transform: translateX(768px) scale(1,1) translate(-768px,-1px); animation-timing-function: cubic-bezier(.4,0,.6,1); } 50.714% { transform: translateX(768px) scale(.8,.8) translate(-768px,-1px); animation-timing-function: cubic-bezier(.4,0,.6,1); } 100% { transform: translateX(768px) scale(1,1) translate(-768px,-1px); } }
@keyframes dfuq3u9tv9rr82ii51s9lh06_t { 0% { transform: translate(662.6px,293.2px) scale(1,1) translate(-662.6px,-514.2px); animation-timing-function: cubic-bezier(.4,0,.6,1); } 21.428% { transform: translate(662.6px,293.2px) scale(1.2,1.2) translate(-662.6px,-514.2px); animation-timing-function: cubic-bezier(.4,0,.6,1); } 42.857% { transform: translate(662.6px,293.2px) scale(1,1) translate(-662.6px,-514.2px); animation-timing-function: steps(1); } 42.864% { transform: translate(662.6px,293.2px) scale(1,1) translate(-662.6px,-514.2px); animation-timing-function: cubic-bezier(.4,0,.6,1); } 64.286% { transform: translate(662.6px,293.2px) scale(1.2,1.2) translate(-662.6px,-514.2px); animation-timing-function: cubic-bezier(.4,0,.6,1); } 85.714% { transform: translate(662.6px,293.2px) scale(1,1) translate(-662.6px,-514.2px); animation-timing-function: steps(1); } 85.721% { transform: translate(662.6px,293.2px) scale(1,1) translate(-662.6px,-514.2px); animation-timing-function: cubic-bezier(.4,0,.7,.6); } 100% { transform: translate(662.6px,293.2px) scale(1.2,1.2) translate(-662.6px,-514.2px); } }
</style><title>Artboard</title><desc>Created with Sketch.</desc><path d="M768 6h-768v675c0 0 768 0 768 0v-675Z" fill="url(#xl3j8ct92admbhakt6xm28ll)" fill-rule="evenodd" transform="translate(0,-1)"/><path d="M227.9 554.9c29.2 23.8 55.5 78.1 51.3 126.1h-215.6c2.9-2.7 6.2-5.1 10-7.1l.8-0.4c95.5-48.8 26.9-99 73.8-135.1c10.2-7.9 44.9-12 79.7 16.5Z" fill="url(#svva21cuxc9s2qtd1is9dexa)" opacity=".2" fill-rule="evenodd" transform="translate(171.6,605.8) scale(1.3,1.3) translate(-171.6,-606.8)" style="animation: 14s linear infinite both gwfs0iyt0qhm4d7djy4tsqgy_t;"/><path d="M268.3 1c-124 56.9-106.8 173.3-165 242.8c-31.6 37.6-67.1 55.2-103.3 65.7v-304h268.3Z" fill="#4cff8d" opacity=".2" fill-rule="evenodd" transform="translate(0,0) translate(0,-1)" style="animation: 14s linear infinite both w4esg4izgozhvwq396tgso01_t;"/><path d="M768 94c-122-18-263.8 .6-301.4-86.8h301.4Z" fill="url(#uiylwod56x7h1gep177lk7pi)" opacity=".2" fill-rule="evenodd" transform="translate(768,0) translate(-768,-1)" style="animation: 14s linear infinite both c95axjk1lz74gp7a1wep2nw5_t;"/><path d="M563.7 457c22.5-48.2 95.6-61.6 163.4-30c15.3 7.1 29.1 16 40.9 25.9v156.5c-33.1 14-78.8 12.3-122.2-8c-67.8-31.6-104.5-96.3-82.1-144.4Z" fill="url(#g3c9psaw57yi81gvmizzi3je)" opacity=".2" fill-rule="evenodd" transform="translate(662.6,293.2) translate(-662.6,-514.2)" style="animation: 14s linear infinite both dfuq3u9tv9rr82ii51s9lh06_t;"/><path d="M246 53.2c40.8 58.9-7.7 152.9 145.4 113.3c29-7.5 68.3 7.3 102.6 32.1v198.5c-62 0-130.7 .1-206 .1c-55.4 6.9-100.7 1.8-135.8-15.5c-52.8-25.8-26.4-90.5-97.4-145.1c-70.9-54.6-69-164.4-15.8-208.7c53.2-44.4 166.3-33.7 207 25.3Z" fill="#fff" fill-opacity=".2" opacity=".7" fill-rule="evenodd" mask="url(#Mask-1)" transform="translate(521.1,480.2) scale(1.05,1.05) translate(-247.1,-200.4)"/><path d="M389.7 96.5c-101.9 51.2-231.8 56-389.7 14.4v-110.9h768v8c-149.6 7.5-275.7 37-378.3 88.5Z" fill="#fff" fill-rule="evenodd"/></svg>