<svg xmlns="http://www.w3.org/2000/svg" viewBox="0 0 375 470"><defs><linearGradient id="f5xfr1hgs53jstrwurz5qpq7" x1=".8" y1="1" x2=".2" y2="0"><stop offset="0" stop-color="#4cff8d"/><stop offset="1" stop-color="#006b8a"/></linearGradient><linearGradient id="bisl1symikfoup3drisob0dp" x1=".7" y1=".3" x2="-0.3" y2=".7"><stop offset="0" stop-color="#4cff8d" stop-opacity="0"/><stop offset="1" stop-color="#4cff8d"/></linearGradient><mask id="Mask-1" style="mask-type: alpha;"><g transform="translate(199.3,143.8) translate(-482.5,-152.5)" style="animation: 14s linear infinite both z55jxuvqzz2kyqmi6hfubuw8_t;"><path d="M305 0l-305 305" stroke="#000" fill="none" stroke-linecap="square" stroke-width="4"/><path d="M325 0l-305 305" stroke="#000" fill="none" stroke-linecap="square" stroke-width="4"/><path d="M345 0l-305 305" stroke="#000" fill="none" stroke-linecap="square" stroke-width="4"/><path d="M365 0l-305 305" stroke="#000" fill="none" stroke-linecap="square" stroke-width="4"/><path d="M385 0l-305 305" stroke="#000" fill="none" stroke-linecap="square" stroke-width="4"/><path d="M405 0l-305 305" stroke="#000" fill="none" stroke-linecap="square" stroke-width="4"/><path d="M425 0l-305 305" stroke="#000" fill="none" stroke-linecap="square" stroke-width="4"/><path d="M445 0l-305 305" stroke="#000" fill="none" stroke-linecap="square" stroke-width="4"/><path d="M465 0l-305 305" stroke="#000" fill="none" stroke-linecap="square" stroke-width="4"/><path d="M485 0l-305 305" stroke="#000" fill="none" stroke-linecap="square" stroke-width="4"/><path d="M505 0l-305 305" stroke="#000" fill="none" stroke-linecap="square" stroke-width="4"/><path d="M525 0l-305 305" stroke="#000" fill="none" stroke-linecap="square" stroke-width="4"/><path d="M545 0l-305 305" stroke="#000" fill="none" stroke-linecap="square" stroke-width="4"/><path d="M565 0l-305 305" stroke="#000" fill="none" stroke-linecap="square" stroke-width="4"/><path d="M585 0l-305 305" stroke="#000" fill="none" stroke-linecap="square" stroke-width="4"/><path d="M605 0l-305 305" stroke="#000" fill="none" stroke-linecap="square" stroke-width="4"/><path d="M625 0l-305 305" stroke="#000" fill="none" stroke-linecap="square" stroke-width="4"/><path d="M645 0l-305 305" stroke="#000" fill="none" stroke-linecap="square" stroke-width="4"/><path d="M665 0l-305 305" stroke="#000" fill="none" stroke-linecap="square" stroke-width="4"/><path d="M685 0l-305 305" stroke="#000" fill="none" stroke-linecap="square" stroke-width="4"/><path d="M705 0l-305 305" stroke="#000" fill="none" stroke-linecap="square" stroke-width="4"/><path d="M725 0l-305 305" stroke="#000" fill="none" stroke-linecap="square" stroke-width="4"/><path d="M745 0l-305 305" stroke="#000" fill="none" stroke-linecap="square" stroke-width="4"/><path d="M765 0l-305 305" stroke="#000" fill="none" stroke-linecap="square" stroke-width="4"/><path d="M785 0l-305 305" stroke="#000" fill="none" stroke-linecap="square" stroke-width="4"/><path d="M805 0l-305 305" stroke="#000" fill="none" stroke-linecap="square" stroke-width="4"/><path d="M825 0l-305 305" stroke="#000" fill="none" stroke-linecap="square" stroke-width="4"/><path d="M845 0l-305 305" stroke="#000" fill="none" stroke-linecap="square" stroke-width="4"/><path d="M865 0l-305 305" stroke="#000" fill="none" stroke-linecap="square" stroke-width="4"/><path d="M885 0l-305 305" stroke="#000" fill="none" stroke-linecap="square" stroke-width="4"/><path d="M905 0l-305 305" stroke="#000" fill="none" stroke-linecap="square" stroke-width="4"/><path d="M925 0l-305 305" stroke="#000" fill="none" stroke-linecap="square" stroke-width="4"/><path d="M945 0l-305 305" stroke="#000" fill="none" stroke-linecap="square" stroke-width="4"/><path d="M965 0l-305 305" stroke="#000" fill="none" stroke-linecap="square" stroke-width="4"/></g></mask></defs><style>
@keyframes vxr2q83wprznt9f12movga22_t { 0% { transform: translateX(375px) scale(1,1) translateX(-375px); animation-timing-function: cubic-bezier(.4,0,.6,1); } 50.714% { transform: translateX(375px) scale(.8,.8) translateX(-375px); animation-timing-function: cubic-bezier(.4,0,.6,1); } 100% { transform: translateX(375px) scale(1,1) translateX(-375px); } }
@keyframes e6hd7mz75qn76g7wv7ls7v8u_t { 0% { transform: translate(359px,179.7px) rotate(25deg) scale(1,1); animation-timing-function: cubic-bezier(.4,0,.6,1); } 21.428% { transform: translate(359px,179.7px) rotate(25deg) scale(1.1,1.2); animation-timing-function: cubic-bezier(.4,0,.6,1); } 42.857% { transform: translate(359px,179.7px) rotate(25deg) scale(1,1); animation-timing-function: steps(1); } 42.864% { transform: translate(359px,179.7px) rotate(25deg) scale(1,1); animation-timing-function: cubic-bezier(.4,0,.6,1); } 64.286% { transform: translate(359px,179.7px) rotate(25deg) scale(1.1,1.2); animation-timing-function: cubic-bezier(.4,0,.6,1); } 85.714% { transform: translate(359px,179.7px) rotate(25deg) scale(1,1); animation-timing-function: steps(1); } 85.721% { transform: translate(359px,179.7px) rotate(25deg) scale(1,1); animation-timing-function: cubic-bezier(.4,0,.7,.6); } 100% { transform: translate(359px,179.7px) rotate(25deg) scale(1.1,1.2); } }
@keyframes z55jxuvqzz2kyqmi6hfubuw8_t { 0% { transform: translate(-283.2px,-8.7px); } 20.714% { transform: translate(-302.2px,-8.7px); animation-timing-function: steps(1); } 20.721% { transform: translate(-283.2px,-8.7px); } 41.428% { transform: translate(-302.2px,-8.7px); animation-timing-function: steps(1); } 41.436% { transform: translate(-283.2px,-8.7px); } 62.143% { transform: translate(-302.2px,-8.7px); animation-timing-function: steps(1); } 62.15% { transform: translate(-283.2px,-8.7px); } 82.857% { transform: translate(-302.2px,-8.7px); animation-timing-function: steps(1); } 82.864% { transform: translate(-283.2px,-8.7px); } 100% { transform: translate(-298.9px,-8.7px); } }
</style><title>Artboard</title><desc>Created with Sketch.</desc><path d="M375 0h-375v470h375v-470Z" fill="url(#f5xfr1hgs53jstrwurz5qpq7)" fill-rule="evenodd"/><path d="M375 0v86.7c-12-7.9-26.9-15.2-46.9-20.8c-84.1-23.4-202.6-2.6-233.1-65.9h280Z" fill="#4cff8d" opacity=".2" fill-rule="evenodd" transform="translate(375,0) translate(-375,0)" style="animation: 14s linear infinite both vxr2q83wprznt9f12movga22_t;"/><ellipse fill="url(#bisl1symikfoup3drisob0dp)" opacity=".2" rx="88.5" ry="63" fill-rule="evenodd" transform="translate(359,179.7) rotate(25)" style="animation: 14s linear infinite both e6hd7mz75qn76g7wv7ls7v8u_t;"/><path d="M129.3 34.9c26.6 38.6-5.1 100.1 95 74.2c55.5-14.4 110.7 4.8 151.2 35.3v147.4h-182.4c-9.1-9.2-18.2-19.4-27.4-30.6c-27.4-33.7-63.3 5.7-97.8-11.2c-34.4-16.9-17.2-59.3-63.6-95c-1.3-1-2.6-2-3.8-3.1v-138.4c36.8-23.3 103.7-14.9 128.8 21.4Z" fill="#fff" opacity=".15" fill-rule="evenodd" mask="url(#Mask-1)" transform="translate(-0.3,178.2)"/><path d="M0 18.9c24.3 16.3 60.4 24.5 108.5 24.5c38.7 0 73.4-11.6 105.5-22.3c27.6-9.2 53.3-17.8 78-17.8c35.6 0 63.3 5.2 83 15.6v-57.2h-375.2Z" fill="#fff" fill-rule="evenodd"/></svg>