<?xml version="1.0" encoding="UTF-8"?>
<svg width="140px" height="46px" viewBox="0 0 140 46" version="1.1" xmlns="http://www.w3.org/2000/svg" xmlns:xlink="http://www.w3.org/1999/xlink">
    <!-- Generator: Sketch 58 (84663) - https://sketch.com -->
    <title>footer-logo-4</title>
    <desc>Created with Sketch.</desc>
    <g id="Header-&amp;-Footer" stroke="none" stroke-width="1" fill="none" fill-rule="evenodd">
        <g id="Group-5" transform="translate(-470.000000, 0.000000)" fill="#FFFFFF" fill-rule="nonzero">
            <g id="Group-23" transform="translate(470.000000, 0.000000)">
                <path d="M127.876212,25 L13.1237875,25 C14.1079837,32.8926232 20.8407647,39 29,39 L112,39 C120.159235,39 126.892016,32.8926232 127.876212,25 L127.876212,25 Z M29,5 L112,5 C121.941125,5 130,13.0588745 130,23 C130,32.9411255 121.941125,41 112,41 L29,41 C19.0588745,41 11,32.9411255 11,23 C11,13.0588745 19.0588745,5 29,5 Z M46.5849609,12.4848633 L46.5849609,11.1796875 L40.2148437,11.1796875 L40.2148437,12.4848633 L42.578125,12.4848633 L42.578125,19 L44.1894531,19 L44.1894531,12.4848633 L46.5849609,12.4848633 Z M47.159668,16.0405273 L47.159668,16.1533203 C47.159668,16.5794292 47.2205398,16.9724103 47.3422852,17.3322754 C47.4640306,17.6921405 47.6421701,18.0036608 47.876709,18.2668457 C48.1112479,18.5300306 48.3994937,18.7359205 48.7414551,18.8845215 C49.0834164,19.0331225 49.4746072,19.1074219 49.9150391,19.1074219 C50.355471,19.1074219 50.7457665,19.0331225 51.0859375,18.8845215 C51.4261085,18.7359205 51.7134591,18.5300306 51.947998,18.2668457 C52.182537,18.0036608 52.3606765,17.6921405 52.4824219,17.3322754 C52.6041673,16.9724103 52.6650391,16.5794292 52.6650391,16.1533203 L52.6650391,16.0405273 C52.6650391,15.6179992 52.6041673,15.2259133 52.4824219,14.8642578 C52.3606765,14.5026024 52.182537,14.1901869 51.947998,13.927002 C51.7134591,13.663817 51.4243181,13.457032 51.0805664,13.3066406 C50.7368147,13.1562492 50.3447288,13.0810547 49.9042969,13.0810547 C49.4674457,13.0810547 49.0780453,13.1562492 48.736084,13.3066406 C48.3941226,13.457032 48.106772,13.663817 47.8740234,13.927002 C47.6412749,14.1901869 47.4640306,14.5026024 47.3422852,14.8642578 C47.2205398,15.2259133 47.159668,15.6179992 47.159668,16.0405273 Z M48.7119141,16.1533203 L48.7119141,16.0405273 C48.7119141,15.8113595 48.7333982,15.5938324 48.7763672,15.3879395 C48.8193362,15.1820465 48.8882645,15.0012215 48.9831543,14.845459 C49.0780441,14.6896965 49.201578,14.5661626 49.3537598,14.4748535 C49.5059415,14.3835445 49.6894521,14.3378906 49.9042969,14.3378906 C50.1227224,14.3378906 50.3089185,14.3835445 50.4628906,14.4748535 C50.6168627,14.5661626 50.742187,14.6896965 50.8388672,14.845459 C50.9355474,15.0012215 51.0053709,15.1820465 51.0483398,15.3879395 C51.0913088,15.5938324 51.112793,15.8113595 51.112793,16.0405273 L51.112793,16.1533203 C51.112793,16.3896496 51.0913088,16.6116526 51.0483398,16.8193359 C51.0053709,17.0270193 50.9355474,17.2069491 50.8388672,17.3591309 C50.742187,17.5113126 50.6177579,17.632161 50.4655762,17.7216797 C50.3133944,17.8111984 50.1298839,17.855957 49.9150391,17.855957 C49.6930327,17.855957 49.5059415,17.8111984 49.3537598,17.7216797 C49.201578,17.632161 49.0780441,17.5113126 48.9831543,17.3591309 C48.8882645,17.2069491 48.8193362,17.0270193 48.7763672,16.8193359 C48.7333982,16.6116526 48.7119141,16.3896496 48.7119141,16.1533203 Z M58.8525391,16.1479492 L58.8525391,16.0351562 C58.8525391,15.5947244 58.8033045,15.1927915 58.704834,14.8293457 C58.6063634,14.4658999 58.4622405,14.1543796 58.2724609,13.8947754 C58.0826813,13.6351712 57.8463556,13.4346524 57.5634766,13.2932129 C57.2805975,13.1517734 56.9547544,13.0810547 56.5859375,13.0810547 C56.2600895,13.0810547 55.9781099,13.1401361 55.7399902,13.2583008 C55.5018706,13.3764654 55.2932952,13.5429677 55.1142578,13.7578125 L55.0605469,13.1884766 L53.6210937,13.1884766 L53.6210937,21.234375 L55.1733398,21.234375 L55.1733398,18.4951172 C55.3452157,18.6884775 55.5484201,18.8388667 55.782959,18.9462891 C56.0174979,19.0537115 56.2887354,19.1074219 56.5966797,19.1074219 C56.9619159,19.1074219 57.2850735,19.0322273 57.5661621,18.8818359 C57.8472508,18.7314446 58.0826813,18.5246595 58.2724609,18.2614746 C58.4622405,17.9982897 58.6063634,17.6858742 58.704834,17.3242188 C58.8033045,16.9625633 58.8525391,16.5704774 58.8525391,16.1479492 Z M57.300293,16.0351562 L57.300293,16.1479492 C57.300293,16.3806978 57.2805992,16.6009104 57.2412109,16.8085938 C57.2018227,17.0162771 57.1382654,17.1979973 57.0505371,17.3537598 C56.9628088,17.5095223 56.8482266,17.632161 56.7067871,17.7216797 C56.5653476,17.8111984 56.3925791,17.855957 56.1884766,17.855957 C55.927082,17.855957 55.7149259,17.8049322 55.552002,17.7028809 C55.389078,17.6008296 55.2628585,17.4602874 55.1733398,17.28125 L55.1733398,14.9018555 C55.2628585,14.7192374 55.389078,14.5804855 55.552002,14.4855957 C55.7149259,14.3907059 55.9235013,14.3432617 56.1777344,14.3432617 C56.381837,14.3432617 56.5546054,14.38623 56.6960449,14.472168 C56.8374844,14.5581059 56.9529618,14.677164 57.0424805,14.8293457 C57.1319991,14.9815275 57.1973468,15.1605621 57.2385254,15.3664551 C57.279704,15.572348 57.300293,15.7952462 57.300293,16.0351562 Z M62.6552734,19 L65.0454102,19 C65.5753607,19 66.0605447,18.9104827 66.5009766,18.7314453 C66.9414085,18.552408 67.3200668,18.2990739 67.6369629,17.9714355 C67.953859,17.6437972 68.1991365,17.2517113 68.3728027,16.795166 C68.546469,16.3386208 68.6333008,15.8310575 68.6333008,15.2724609 L68.6333008,14.9179688 C68.6333008,14.3593722 68.5455738,13.8509138 68.3701172,13.3925781 C68.1946606,12.9342425 67.9502783,12.5412614 67.6369629,12.213623 C67.3236475,11.8859847 66.9476747,11.6317555 66.5090332,11.4509277 C66.0703917,11.2701 65.5878933,11.1796875 65.0615234,11.1796875 L62.6552734,11.1796875 L62.6552734,19 Z M64.2666016,12.4848633 L65.0615234,12.4848633 C65.6953157,12.4848633 66.1769189,12.689858 66.5063477,13.0998535 C66.8357764,13.5098491 67.0004883,14.1123007 67.0004883,14.9072266 L67.0004883,15.2724609 C67.0004883,16.0530638 66.833986,16.6537251 66.5009766,17.0744629 C66.1679671,17.4952007 65.6827831,17.7055664 65.0454102,17.7055664 L64.2666016,17.7055664 L64.2666016,12.4848633 Z M72.3769531,19.1074219 C72.6598321,19.1074219 72.9203276,19.0778812 73.1584473,19.0187988 C73.3965669,18.9597165 73.6105134,18.8809412 73.800293,18.7824707 C73.9900726,18.6840002 74.1547845,18.5721035 74.2944336,18.4467773 C74.4340827,18.3214512 74.5504553,18.1925462 74.6435547,18.0600586 L73.8808594,17.2060547 C73.7089835,17.428061 73.5030936,17.5918777 73.2631836,17.6975098 C73.0232735,17.8031418 72.7618829,17.855957 72.4790039,17.855957 C72.2784821,17.855957 72.0976571,17.8255211 71.9365234,17.7646484 C71.7753898,17.7037757 71.6348476,17.6187343 71.5148926,17.5095215 C71.3949376,17.4003087 71.2964685,17.2687182 71.2194824,17.1147461 C71.1424964,16.960774 71.0914715,16.7889007 71.0664062,16.5991211 L74.7670898,16.5991211 L74.7670898,15.9384766 C74.7670898,15.5087869 74.7124843,15.1184913 74.6032715,14.7675781 C74.4940587,14.4166649 74.3311372,14.1167818 74.114502,13.8679199 C73.8978668,13.619058 73.6302099,13.4257006 73.3115234,13.2878418 C72.9928369,13.149983 72.6240255,13.0810547 72.2050781,13.0810547 C71.7897115,13.0810547 71.4146338,13.1553541 71.079834,13.3039551 C70.7450341,13.4525561 70.460369,13.6593411 70.2258301,13.9243164 C69.9912911,14.1892917 69.8104661,14.5052879 69.6833496,14.8723145 C69.5562331,15.239341 69.4926758,15.6430642 69.4926758,16.0834961 L69.4926758,16.2929688 C69.4926758,16.6832702 69.5580234,17.0493961 69.6887207,17.3913574 C69.819418,17.7333188 70.0091947,18.0314115 70.2580566,18.2856445 C70.5069186,18.5398776 70.8094872,18.7403964 71.1657715,18.887207 C71.5220558,19.0340177 71.925779,19.1074219 72.3769531,19.1074219 Z M72.199707,14.3378906 C72.3787444,14.3378906 72.5336094,14.3647458 72.6643066,14.418457 C72.7950039,14.4721682 72.9024247,14.5473628 72.9865723,14.644043 C73.0707198,14.7407231 73.133382,14.8553053 73.1745605,14.987793 C73.2157391,15.1202806 73.2381185,15.2635083 73.2416992,15.4174805 L73.2416992,15.5410156 L71.0825195,15.5410156 C71.1075848,15.3619783 71.1487627,15.1990567 71.2060547,15.0522461 C71.2633466,14.9054355 71.337646,14.779216 71.4289551,14.673584 C71.5202641,14.5679519 71.6294753,14.485596 71.7565918,14.4265137 C71.8837083,14.3674313 72.0314119,14.3378906 72.199707,14.3378906 Z M77.8232422,17.1040039 L76.7436523,13.1884766 L75.121582,13.1884766 L77.0820312,19 L78.5644531,19 L80.5249023,13.1884766 L78.902832,13.1884766 L77.8232422,17.1040039 Z M83.8818359,19.1074219 C84.164715,19.1074219 84.4252104,19.0778812 84.6633301,19.0187988 C84.9014498,18.9597165 85.1153962,18.8809412 85.3051758,18.7824707 C85.4949554,18.6840002 85.6596673,18.5721035 85.7993164,18.4467773 C85.9389655,18.3214512 86.0553381,18.1925462 86.1484375,18.0600586 L85.3857422,17.2060547 C85.2138663,17.428061 85.0079765,17.5918777 84.7680664,17.6975098 C84.5281564,17.8031418 84.2667657,17.855957 83.9838867,17.855957 C83.7833649,17.855957 83.6025399,17.8255211 83.4414062,17.7646484 C83.2802726,17.7037757 83.1397304,17.6187343 83.0197754,17.5095215 C82.8998204,17.4003087 82.8013513,17.2687182 82.7243652,17.1147461 C82.6473792,16.960774 82.5963543,16.7889007 82.5712891,16.5991211 L86.2719727,16.5991211 L86.2719727,15.9384766 C86.2719727,15.5087869 86.2173671,15.1184913 86.1081543,14.7675781 C85.9989415,14.4166649 85.83602,14.1167818 85.6193848,13.8679199 C85.4027496,13.619058 85.1350927,13.4257006 84.8164062,13.2878418 C84.4977198,13.149983 84.1289083,13.0810547 83.7099609,13.0810547 C83.2945943,13.0810547 82.9195166,13.1553541 82.5847168,13.3039551 C82.2499169,13.4525561 81.9652518,13.6593411 81.7307129,13.9243164 C81.496174,14.1892917 81.3153489,14.5052879 81.1882324,14.8723145 C81.0611159,15.239341 80.9975586,15.6430642 80.9975586,16.0834961 L80.9975586,16.2929688 C80.9975586,16.6832702 81.0629062,17.0493961 81.1936035,17.3913574 C81.3243008,17.7333188 81.5140775,18.0314115 81.7629395,18.2856445 C82.0118014,18.5398776 82.31437,18.7403964 82.6706543,18.887207 C83.0269386,19.0340177 83.4306618,19.1074219 83.8818359,19.1074219 Z M83.7045898,14.3378906 C83.8836272,14.3378906 84.0384922,14.3647458 84.1691895,14.418457 C84.2998867,14.4721682 84.4073075,14.5473628 84.4914551,14.644043 C84.5756026,14.7407231 84.6382648,14.8553053 84.6794434,14.987793 C84.720622,15.1202806 84.7430013,15.2635083 84.746582,15.4174805 L84.746582,15.5410156 L82.5874023,15.5410156 C82.6124676,15.3619783 82.6536455,15.1990567 82.7109375,15.0522461 C82.7682295,14.9054355 82.8425288,14.779216 82.9338379,14.673584 C83.0251469,14.5679519 83.1343581,14.485596 83.2614746,14.4265137 C83.3885911,14.3674313 83.5362947,14.3378906 83.7045898,14.3378906 Z M88.7910156,19 L88.7910156,10.75 L87.2333984,10.75 L87.2333984,19 L88.7910156,19 Z M89.8276367,16.0405273 L89.8276367,16.1533203 C89.8276367,16.5794292 89.8885085,16.9724103 90.0102539,17.3322754 C90.1319993,17.6921405 90.3101388,18.0036608 90.5446777,18.2668457 C90.7792167,18.5300306 91.0674625,18.7359205 91.4094238,18.8845215 C91.7513852,19.0331225 92.1425759,19.1074219 92.5830078,19.1074219 C93.0234397,19.1074219 93.4137353,19.0331225 93.7539062,18.8845215 C94.0940772,18.7359205 94.3814279,18.5300306 94.6159668,18.2668457 C94.8505057,18.0036608 95.0286452,17.6921405 95.1503906,17.3322754 C95.272136,16.9724103 95.3330078,16.5794292 95.3330078,16.1533203 L95.3330078,16.0405273 C95.3330078,15.6179992 95.272136,15.2259133 95.1503906,14.8642578 C95.0286452,14.5026024 94.8505057,14.1901869 94.6159668,13.927002 C94.3814279,13.663817 94.0922869,13.457032 93.7485352,13.3066406 C93.4047834,13.1562492 93.0126975,13.0810547 92.5722656,13.0810547 C92.1354145,13.0810547 91.7460141,13.1562492 91.4040527,13.3066406 C91.0620914,13.457032 90.7747407,13.663817 90.5419922,13.927002 C90.3092436,14.1901869 90.1319993,14.5026024 90.0102539,14.8642578 C89.8885085,15.2259133 89.8276367,15.6179992 89.8276367,16.0405273 Z M91.3798828,16.1533203 L91.3798828,16.0405273 C91.3798828,15.8113595 91.401367,15.5938324 91.4443359,15.3879395 C91.4873049,15.1820465 91.5562332,15.0012215 91.651123,14.845459 C91.7460128,14.6896965 91.8695468,14.5661626 92.0217285,14.4748535 C92.1739103,14.3835445 92.3574208,14.3378906 92.5722656,14.3378906 C92.7906912,14.3378906 92.9768873,14.3835445 93.1308594,14.4748535 C93.2848315,14.5661626 93.4101558,14.6896965 93.5068359,14.845459 C93.6035161,15.0012215 93.6733396,15.1820465 93.7163086,15.3879395 C93.7592776,15.5938324 93.7807617,15.8113595 93.7807617,16.0405273 L93.7807617,16.1533203 C93.7807617,16.3896496 93.7592776,16.6116526 93.7163086,16.8193359 C93.6733396,17.0270193 93.6035161,17.2069491 93.5068359,17.3591309 C93.4101558,17.5113126 93.2857267,17.632161 93.1335449,17.7216797 C92.9813632,17.8111984 92.7978526,17.855957 92.5830078,17.855957 C92.3610015,17.855957 92.1739103,17.8111984 92.0217285,17.7216797 C91.8695468,17.632161 91.7460128,17.5113126 91.651123,17.3591309 C91.5562332,17.2069491 91.4873049,17.0270193 91.4443359,16.8193359 C91.401367,16.6116526 91.3798828,16.3896496 91.3798828,16.1533203 Z M101.520508,16.1479492 L101.520508,16.0351562 C101.520508,15.5947244 101.471273,15.1927915 101.372803,14.8293457 C101.274332,14.4658999 101.130209,14.1543796 100.94043,13.8947754 C100.75065,13.6351712 100.514324,13.4346524 100.231445,13.2932129 C99.9485663,13.1517734 99.6227232,13.0810547 99.2539062,13.0810547 C98.9280583,13.0810547 98.6460787,13.1401361 98.407959,13.2583008 C98.1698393,13.3764654 97.9612639,13.5429677 97.7822266,13.7578125 L97.7285156,13.1884766 L96.2890625,13.1884766 L96.2890625,21.234375 L97.8413086,21.234375 L97.8413086,18.4951172 C98.0131845,18.6884775 98.2163888,18.8388667 98.4509277,18.9462891 C98.6854667,19.0537115 98.9567042,19.1074219 99.2646484,19.1074219 C99.6298846,19.1074219 99.9530422,19.0322273 100.234131,18.8818359 C100.51522,18.7314446 100.75065,18.5246595 100.94043,18.2614746 C101.130209,17.9982897 101.274332,17.6858742 101.372803,17.3242188 C101.471273,16.9625633 101.520508,16.5704774 101.520508,16.1479492 Z M99.9682617,16.0351562 L99.9682617,16.1479492 C99.9682617,16.3806978 99.9485679,16.6009104 99.9091797,16.8085938 C99.8697915,17.0162771 99.8062342,17.1979973 99.7185059,17.3537598 C99.6307776,17.5095223 99.5161954,17.632161 99.3747559,17.7216797 C99.2333164,17.8111984 99.0605479,17.855957 98.8564453,17.855957 C98.5950508,17.855957 98.3828947,17.8049322 98.2199707,17.7028809 C98.0570467,17.6008296 97.9308273,17.4602874 97.8413086,17.28125 L97.8413086,14.9018555 C97.9308273,14.7192374 98.0570467,14.5804855 98.2199707,14.4855957 C98.3828947,14.3907059 98.5914701,14.3432617 98.8457031,14.3432617 C99.0498057,14.3432617 99.2225742,14.38623 99.3640137,14.472168 C99.5054532,14.5581059 99.6209305,14.677164 99.7104492,14.8293457 C99.7999679,14.9815275 99.8653155,15.1605621 99.9064941,15.3664551 C99.9476727,15.572348 99.9682617,15.7952462 99.9682617,16.0351562 Z M105.156738,19.1074219 C105.439617,19.1074219 105.700113,19.0778812 105.938232,19.0187988 C106.176352,18.9597165 106.390299,18.8809412 106.580078,18.7824707 C106.769858,18.6840002 106.93457,18.5721035 107.074219,18.4467773 C107.213868,18.3214512 107.33024,18.1925462 107.42334,18.0600586 L106.660645,17.2060547 C106.488769,17.428061 106.282879,17.5918777 106.042969,17.6975098 C105.803059,17.8031418 105.541668,17.855957 105.258789,17.855957 C105.058267,17.855957 104.877442,17.8255211 104.716309,17.7646484 C104.555175,17.7037757 104.414633,17.6187343 104.294678,17.5095215 C104.174723,17.4003087 104.076254,17.2687182 103.999268,17.1147461 C103.922282,16.960774 103.871257,16.7889007 103.846191,16.5991211 L107.546875,16.5991211 L107.546875,15.9384766 C107.546875,15.5087869 107.492269,15.1184913 107.383057,14.7675781 C107.273844,14.4166649 107.110922,14.1167818 106.894287,13.8679199 C106.677652,13.619058 106.409995,13.4257006 106.091309,13.2878418 C105.772622,13.149983 105.403811,13.0810547 104.984863,13.0810547 C104.569497,13.0810547 104.194419,13.1553541 103.859619,13.3039551 C103.524819,13.4525561 103.240154,13.6593411 103.005615,13.9243164 C102.771076,14.1892917 102.590251,14.5052879 102.463135,14.8723145 C102.336018,15.239341 102.272461,15.6430642 102.272461,16.0834961 L102.272461,16.2929688 C102.272461,16.6832702 102.337809,17.0493961 102.468506,17.3913574 C102.599203,17.7333188 102.78898,18.0314115 103.037842,18.2856445 C103.286704,18.5398776 103.589272,18.7403964 103.945557,18.887207 C104.301841,19.0340177 104.705564,19.1074219 105.156738,19.1074219 Z M104.979492,14.3378906 C105.15853,14.3378906 105.313395,14.3647458 105.444092,14.418457 C105.574789,14.4721682 105.68221,14.5473628 105.766357,14.644043 C105.850505,14.7407231 105.913167,14.8553053 105.954346,14.987793 C105.995524,15.1202806 106.017904,15.2635083 106.021484,15.4174805 L106.021484,15.5410156 L103.862305,15.5410156 C103.88737,15.3619783 103.928548,15.1990567 103.98584,15.0522461 C104.043132,14.9054355 104.117431,14.779216 104.20874,14.673584 C104.300049,14.5679519 104.40926,14.485596 104.536377,14.4265137 C104.663493,14.3674313 104.811197,14.3378906 104.979492,14.3378906 Z M111.693359,14.644043 L111.714844,13.1508789 C111.657552,13.1329752 111.583252,13.1168621 111.491943,13.1025391 C111.400634,13.0882161 111.313802,13.0810547 111.231445,13.0810547 C110.944986,13.0810547 110.694337,13.1517734 110.479492,13.2932129 C110.264647,13.4346524 110.083822,13.6306954 109.937012,13.8813477 L109.894043,13.1884766 L108.427734,13.1884766 L108.427734,19 L109.97998,19 L109.97998,15.1972656 C110.069499,15.0039053 110.208251,14.8562017 110.39624,14.7541504 C110.584229,14.6520991 110.830402,14.6010742 111.134766,14.6010742 C111.217123,14.6010742 111.311116,14.6055501 111.416748,14.614502 C111.52238,14.6234538 111.614583,14.6333007 111.693359,14.644043 Z M115.587402,17.394043 C115.587402,17.5766611 115.511313,17.7243647 115.359131,17.8371582 C115.206949,17.9499517 114.982261,18.0063477 114.685059,18.0063477 C114.545409,18.0063477 114.412029,17.9902345 114.284912,17.9580078 C114.157796,17.9257811 114.045899,17.8756514 113.949219,17.8076172 C113.852539,17.739583 113.774658,17.6509608 113.715576,17.541748 C113.656494,17.4325353 113.623372,17.3027351 113.616211,17.1523438 L112.144531,17.1523438 C112.144531,17.3886731 112.198242,17.6232085 112.305664,17.855957 C112.413086,18.0887056 112.573323,18.2981762 112.786377,18.484375 C112.999431,18.6705738 113.261717,18.820963 113.573242,18.9355469 C113.884767,19.0501308 114.244627,19.1074219 114.652832,19.1074219 C115.02523,19.1074219 115.361815,19.0626632 115.662598,18.9731445 C115.96338,18.8836259 116.220295,18.7600919 116.43335,18.6025391 C116.646404,18.4449862 116.810221,18.257895 116.924805,18.0412598 C117.039389,17.8246246 117.09668,17.5874036 117.09668,17.3295898 C117.09668,17.0431301 117.041179,16.7987478 116.930176,16.5964355 C116.819173,16.3941233 116.666098,16.2222501 116.470947,16.0808105 C116.275797,15.939371 116.043947,15.8238937 115.775391,15.734375 C115.506835,15.6448563 115.215008,15.5696618 114.899902,15.5087891 C114.699381,15.4694008 114.530193,15.4264325 114.392334,15.3798828 C114.254475,15.3333331 114.143474,15.2823082 114.059326,15.2268066 C113.975179,15.1713051 113.914307,15.1104333 113.876709,15.0441895 C113.839111,14.9779456 113.820312,14.9018559 113.820312,14.815918 C113.820312,14.6332999 113.891926,14.4829107 114.035156,14.3647461 C114.178386,14.2465814 114.380695,14.1875 114.64209,14.1875 C114.946453,14.1875 115.170247,14.260009 115.313477,14.4050293 C115.456706,14.5500496 115.52832,14.7335601 115.52832,14.9555664 L117.080566,14.9555664 C117.080566,14.6834296 117.02417,14.4327811 116.911377,14.2036133 C116.798583,13.9744455 116.637452,13.7766122 116.427979,13.6101074 C116.218505,13.4436027 115.96338,13.3138025 115.662598,13.2207031 C115.361815,13.1276037 115.023439,13.0810547 114.647461,13.0810547 C114.285805,13.0810547 113.960858,13.129394 113.672607,13.2260742 C113.384357,13.3227544 113.14087,13.4543449 112.942139,13.6208496 C112.743407,13.7873543 112.591228,13.9798166 112.485596,14.1982422 C112.379964,14.4166678 112.327148,14.6476225 112.327148,14.8911133 C112.327148,15.1417656 112.379068,15.3619782 112.48291,15.5517578 C112.586752,15.7415374 112.730875,15.9080396 112.915283,16.0512695 C113.099692,16.1944994 113.318114,16.3144526 113.570557,16.4111328 C113.822999,16.507813 114.097818,16.5883786 114.39502,16.652832 C114.63851,16.7029625 114.837239,16.7548825 114.991211,16.8085938 C115.145183,16.862305 115.266927,16.9187009 115.356445,16.9777832 C115.445964,17.0368655 115.506836,17.1004228 115.539062,17.168457 C115.571289,17.2364912 115.587402,17.3116858 115.587402,17.394043 Z M29.5326214,7.11179564 C26.7497424,7.17732476 24.3763911,9.14605057 23.7977988,11.8689058 L23.3231395,14.1026519 L22.494582,15.4741325 C22.4794639,15.4991569 22.4656257,15.5249326 22.4531209,15.55136 C22.2490282,15.982685 22.4332364,16.4977928 22.8645614,16.7018855 L23.5606193,17.0312436 L23.5606193,19.5859676 C23.5606193,20.3812577 24.2053293,21.0259677 25.0006194,21.0259677 L26.4461701,21.0259677 C26.8438151,21.0259677 27.1661701,21.3483227 27.1661701,21.7459677 L27.1661701,22.424 C27.1661701,22.742116 27.4240541,23 27.7421701,23 L34.7073611,23 C34.7605662,23 34.8133135,22.9901701 34.8629471,22.9710053 C35.0854851,22.8850775 35.1962296,22.6350165 35.1103621,22.4124553 C35.0317228,22.2087931 34.9779397,22.0238515 34.9490128,21.8576304 C34.8942812,21.5431284 34.8669154,21.1884089 34.8669154,20.7934719 C34.8669154,19.8070939 35.4187334,17.9308623 36.5223694,15.1647772 C36.8634022,13.9091059 37.0218096,13.010526 36.9975913,12.4690375 C36.8602259,9.39773023 34.2927399,6.99972857 31.2192138,7.07208105 L29.5326214,7.11179564 Z M27.9949747,12.4949747 L26.4899495,14 L27.9949747,15.5050253 C28.2683418,15.7783923 28.2683418,16.2216077 27.9949747,16.4949747 C27.7216077,16.7683418 27.2783923,16.7683418 27.0050253,16.4949747 L25.0050253,14.4949747 C24.7316582,14.2216077 24.7316582,13.7783923 25.0050253,13.5050253 L27.0050253,11.5050253 C27.2783923,11.2316582 27.7216077,11.2316582 27.9949747,11.5050253 C28.2683418,11.7783923 28.2683418,12.2216077 27.9949747,12.4949747 Z M32.0050253,12.4949747 C31.7316582,12.2216077 31.7316582,11.7783923 32.0050253,11.5050253 C32.2783923,11.2316582 32.7216077,11.2316582 32.9949747,11.5050253 L34.9949747,13.5050253 C35.2683418,13.7783923 35.2683418,14.2216077 34.9949747,14.4949747 L32.9949747,16.4949747 C32.7216077,16.7683418 32.2783923,16.7683418 32.0050253,16.4949747 C31.7316582,16.2216077 31.7316582,15.7783923 32.0050253,15.5050253 L33.5100505,14 L32.0050253,12.4949747 Z M30.0374202,10.8932457 C30.1259666,10.5169233 30.5028173,10.2836348 30.8791397,10.3721812 C31.2554621,10.4607277 31.4887507,10.8375784 31.4002042,11.2139008 L29.9813918,17.2438536 C29.8928453,17.6201761 29.5159946,17.8534646 29.1396722,17.7649181 C28.7633498,17.6763717 28.5300613,17.299521 28.6186077,16.9231986 L30.0374202,10.8932457 Z M27.7890625,29.2617188 L26.046875,29.2617188 L26.046875,34 L24.875,34 L24.875,29.2617188 L23.15625,29.2617188 L23.15625,28.3125 L27.7890625,28.3125 L27.7890625,29.2617188 Z M28.2070312,31.8476562 C28.2070312,31.540363 28.2513016,31.2552096 28.3398438,30.9921875 C28.4283859,30.7291654 28.5572908,30.5019541 28.7265625,30.3105469 C28.8958342,30.1191397 29.1048165,29.9687505 29.3535156,29.859375 C29.6022148,29.7499995 29.8854151,29.6953125 30.203125,29.6953125 C30.5234391,29.6953125 30.8085925,29.7499995 31.0585938,29.859375 C31.308595,29.9687505 31.5188794,30.1191397 31.6894531,30.3105469 C31.8600269,30.5019541 31.9895829,30.7291654 32.078125,30.9921875 C32.1666671,31.2552096 32.2109375,31.540363 32.2109375,31.8476562 L32.2109375,31.9296875 C32.2109375,32.2395849 32.1666671,32.5253893 32.078125,32.7871094 C31.9895829,33.0488294 31.8600269,33.2753897 31.6894531,33.4667969 C31.5188794,33.6582041 31.3098971,33.8079422 31.0625,33.9160156 C30.8151029,34.0240891 30.5312516,34.078125 30.2109375,34.078125 C29.8906234,34.078125 29.606121,34.0240891 29.3574219,33.9160156 C29.1087227,33.8079422 28.8990894,33.6582041 28.7285156,33.4667969 C28.5579419,33.2753897 28.4283859,33.0488294 28.3398438,32.7871094 C28.2513016,32.5253893 28.2070312,32.2395849 28.2070312,31.9296875 L28.2070312,31.8476562 Z M29.3359375,31.9296875 C29.3359375,32.1015634 29.3515623,32.2630201 29.3828125,32.4140625 C29.4140627,32.5651049 29.4641924,32.695963 29.5332031,32.8066406 C29.6022139,32.9173183 29.6920567,33.005208 29.8027344,33.0703125 C29.913412,33.135417 30.0494784,33.1679688 30.2109375,33.1679688 C30.3671883,33.1679688 30.5006505,33.135417 30.6113281,33.0703125 C30.7220058,33.005208 30.8124996,32.9173183 30.8828125,32.8066406 C30.9531254,32.695963 31.0039061,32.5651049 31.0351562,32.4140625 C31.0664064,32.2630201 31.0820312,32.1015634 31.0820312,31.9296875 L31.0820312,31.8476562 C31.0820312,31.6809888 31.0664064,31.5227872 31.0351562,31.3730469 C31.0039061,31.2233065 30.9531254,31.0917974 30.8828125,30.9785156 C30.8124996,30.8652338 30.7213547,30.775391 30.609375,30.7089844 C30.4973953,30.6425778 30.36198,30.609375 30.203125,30.609375 C30.0468742,30.609375 29.913412,30.6425778 29.8027344,30.7089844 C29.6920567,30.775391 29.6022139,30.8652338 29.5332031,30.9785156 C29.4641924,31.0917974 29.4140627,31.2233065 29.3828125,31.3730469 C29.3515623,31.5227872 29.3359375,31.6809888 29.3359375,31.8476562 L29.3359375,31.9296875 Z M36.7109375,31.9257812 C36.7109375,32.2330745 36.6751306,32.5182279 36.6035156,32.78125 C36.5319007,33.0442721 36.427084,33.2714834 36.2890625,33.4628906 C36.151041,33.6542978 35.9798187,33.804687 35.7753906,33.9140625 C35.5709625,34.023438 35.3359388,34.078125 35.0703125,34.078125 C34.846353,34.078125 34.6490894,34.0390629 34.4785156,33.9609375 C34.3079419,33.8828121 34.1601569,33.7734382 34.0351562,33.6328125 L34.0351562,35.625 L32.90625,35.625 L32.90625,29.7734375 L33.953125,29.7734375 L33.9921875,30.1875 C34.1223965,30.0312492 34.2740877,29.9101567 34.4472656,29.8242188 C34.6204436,29.7382808 34.8255196,29.6953125 35.0625,29.6953125 C35.3307305,29.6953125 35.5677073,29.7467443 35.7734375,29.8496094 C35.9791677,29.9524745 36.151041,30.0983063 36.2890625,30.2871094 C36.427084,30.4759124 36.5319007,30.7024726 36.6035156,30.9667969 C36.6751306,31.2311211 36.7109375,31.5234359 36.7109375,31.84375 L36.7109375,31.9257812 Z M35.5820312,31.84375 C35.5820312,31.66927 35.5670574,31.5071622 35.5371094,31.3574219 C35.5071613,31.2076815 35.4596357,31.0774745 35.3945312,30.9667969 C35.3294268,30.8561192 35.2454432,30.7695316 35.1425781,30.7070312 C35.039713,30.6445309 34.9140632,30.6132812 34.765625,30.6132812 C34.5807282,30.6132812 34.4290371,30.6477861 34.3105469,30.7167969 C34.1920567,30.7858076 34.1002607,30.8867181 34.0351562,31.0195312 L34.0351562,32.75 C34.1002607,32.880209 34.1920567,32.9824215 34.3105469,33.0566406 C34.4290371,33.1308597 34.5833324,33.1679688 34.7734375,33.1679688 C34.9218757,33.1679688 35.0475255,33.135417 35.1503906,33.0703125 C35.2532557,33.005208 35.3365882,32.9160162 35.4003906,32.8027344 C35.464193,32.6894526 35.5104165,32.5572924 35.5390625,32.40625 C35.5677085,32.2552076 35.5820312,32.0950529 35.5820312,31.9257812 L35.5820312,31.84375 Z M41.0078125,28.3125 L42.46875,32.4375 L43.921875,28.3125 L45.4609375,28.3125 L45.4609375,34 L44.2851562,34 L44.2851562,32.4453125 L44.4023438,29.7617188 L42.8671875,34 L42.0625,34 L40.53125,29.765625 L40.6484375,32.4453125 L40.6484375,34 L39.4765625,34 L39.4765625,28.3125 L41.0078125,28.3125 Z M46.234375,31.8476562 C46.234375,31.540363 46.2786454,31.2552096 46.3671875,30.9921875 C46.4557296,30.7291654 46.5846346,30.5019541 46.7539062,30.3105469 C46.9231779,30.1191397 47.1321602,29.9687505 47.3808594,29.859375 C47.6295585,29.7499995 47.9127588,29.6953125 48.2304688,29.6953125 C48.5507829,29.6953125 48.8359363,29.7499995 49.0859375,29.859375 C49.3359387,29.9687505 49.5462231,30.1191397 49.7167969,30.3105469 C49.8873706,30.5019541 50.0169266,30.7291654 50.1054688,30.9921875 C50.1940109,31.2552096 50.2382812,31.540363 50.2382812,31.8476562 L50.2382812,31.9296875 C50.2382812,32.2395849 50.1940109,32.5253893 50.1054688,32.7871094 C50.0169266,33.0488294 49.8873706,33.2753897 49.7167969,33.4667969 C49.5462231,33.6582041 49.3372408,33.8079422 49.0898438,33.9160156 C48.8424467,34.0240891 48.5585954,34.078125 48.2382812,34.078125 C47.9179671,34.078125 47.6334648,34.0240891 47.3847656,33.9160156 C47.1360665,33.8079422 46.9264331,33.6582041 46.7558594,33.4667969 C46.5852856,33.2753897 46.4557296,33.0488294 46.3671875,32.7871094 C46.2786454,32.5253893 46.234375,32.2395849 46.234375,31.9296875 L46.234375,31.8476562 Z M47.3632812,31.9296875 C47.3632812,32.1015634 47.3789061,32.2630201 47.4101562,32.4140625 C47.4414064,32.5651049 47.4915361,32.695963 47.5605469,32.8066406 C47.6295576,32.9173183 47.7194005,33.005208 47.8300781,33.0703125 C47.9407558,33.135417 48.0768221,33.1679688 48.2382812,33.1679688 C48.394532,33.1679688 48.5279942,33.135417 48.6386719,33.0703125 C48.7493495,33.005208 48.8398434,32.9173183 48.9101562,32.8066406 C48.9804691,32.695963 49.0312498,32.5651049 49.0625,32.4140625 C49.0937502,32.2630201 49.109375,32.1015634 49.109375,31.9296875 L49.109375,31.8476562 C49.109375,31.6809888 49.0937502,31.5227872 49.0625,31.3730469 C49.0312498,31.2233065 48.9804691,31.0917974 48.9101562,30.9785156 C48.8398434,30.8652338 48.7486985,30.775391 48.6367188,30.7089844 C48.524739,30.6425778 48.3893237,30.609375 48.2304688,30.609375 C48.074218,30.609375 47.9407558,30.6425778 47.8300781,30.7089844 C47.7194005,30.775391 47.6295576,30.8652338 47.5605469,30.9785156 C47.4915361,31.0917974 47.4414064,31.2233065 47.4101562,31.3730469 C47.3789061,31.5227872 47.3632812,31.6809888 47.3632812,31.8476562 L47.3632812,31.9296875 Z M54.7421875,31.9257812 C54.7421875,32.2434912 54.7083337,32.5338529 54.640625,32.796875 C54.5729163,33.0598971 54.4707038,33.2864574 54.3339844,33.4765625 C54.1972649,33.6666676 54.0260427,33.8144526 53.8203125,33.9199219 C53.6145823,34.0253912 53.3736993,34.078125 53.0976562,34.078125 C52.8528634,34.078125 52.6412769,34.0319015 52.4628906,33.9394531 C52.2845043,33.8470047 52.130209,33.7174488 52,33.5507812 L51.9492188,34 L50.9335938,34 L50.9335938,28 L52.0625,28 L52.0625,30.1523438 C52.1875006,30.0065097 52.3339835,29.8938806 52.5019531,29.8144531 C52.6699227,29.7350256 52.8658843,29.6953125 53.0898438,29.6953125 C53.3658868,29.6953125 53.6074208,29.7486974 53.8144531,29.8554688 C54.0214854,29.9622401 54.1940097,30.1106761 54.3320312,30.3007812 C54.4700528,30.4908864 54.5729163,30.7174466 54.640625,30.9804688 C54.7083337,31.2434909 54.7421875,31.5312484 54.7421875,31.84375 L54.7421875,31.9257812 Z M53.6132812,31.84375 C53.6132812,31.6770825 53.6015626,31.518881 53.578125,31.3691406 C53.5546874,31.2194003 53.5123701,31.0885422 53.4511719,30.9765625 C53.3899737,30.8645828 53.3072922,30.776042 53.203125,30.7109375 C53.0989578,30.645833 52.9661466,30.6132812 52.8046875,30.6132812 C52.6145824,30.6132812 52.459636,30.6516923 52.3398438,30.7285156 C52.2200515,30.8053389 52.1276045,30.9140618 52.0625,31.0546875 L52.0625,32.7226562 C52.1276045,32.863282 52.2200515,32.9726559 52.3398438,33.0507812 C52.459636,33.1289066 52.6171865,33.1679688 52.8125,33.1679688 C52.971355,33.1679688 53.102213,33.1367191 53.2050781,33.0742188 C53.3079432,33.0117184 53.3899737,32.9257818 53.4511719,32.8164062 C53.5123701,32.7070307 53.5546874,32.5761726 53.578125,32.4238281 C53.6015626,32.2714836 53.6132812,32.1054696 53.6132812,31.9257812 L53.6132812,31.84375 Z M56.6289062,34 L55.4960938,34 L55.4960938,29.7734375 L56.6289062,29.7734375 L56.6289062,34 Z M55.4296875,28.6796875 C55.4296875,28.5104158 55.4863276,28.3710943 55.5996094,28.2617188 C55.7128912,28.1523432 55.8671865,28.0976562 56.0625,28.0976562 C56.1588546,28.0976562 56.2460934,28.111979 56.3242188,28.140625 C56.4023441,28.169271 56.4687497,28.2096352 56.5234375,28.2617188 C56.5781253,28.3138023 56.6204426,28.3756507 56.6503906,28.4472656 C56.6803387,28.5188806 56.6953125,28.5963537 56.6953125,28.6796875 C56.6953125,28.7656254 56.6803387,28.8444007 56.6503906,28.9160156 C56.6204426,28.9876306 56.5781253,29.0494789 56.5234375,29.1015625 C56.4687497,29.1536461 56.4023441,29.1940103 56.3242188,29.2226562 C56.2460934,29.2513022 56.1588546,29.265625 56.0625,29.265625 C55.9661454,29.265625 55.8789066,29.2513022 55.8007812,29.2226562 C55.7226559,29.1940103 55.6562503,29.1536461 55.6015625,29.1015625 C55.5468747,29.0494789 55.5045574,28.9876306 55.4746094,28.9160156 C55.4446613,28.8444007 55.4296875,28.7656254 55.4296875,28.6796875 Z M58.75,34 L57.6171875,34 L57.6171875,28 L58.75,28 L58.75,34 Z M61.625,34.078125 C61.2968734,34.078125 61.0032565,34.0247401 60.7441406,33.9179688 C60.4850247,33.8111974 60.2649749,33.6653655 60.0839844,33.4804688 C59.9029939,33.295572 59.7649744,33.0787773 59.6699219,32.8300781 C59.5748693,32.581379 59.5273438,32.3151056 59.5273438,32.03125 L59.5273438,31.8789062 C59.5273438,31.5585921 59.5735672,31.2649753 59.6660156,30.9980469 C59.758464,30.7311185 59.8899731,30.501303 60.0605469,30.3085938 C60.2311206,30.1158845 60.4381498,29.9654953 60.6816406,29.8574219 C60.9251314,29.7493484 61.1979152,29.6953125 61.5,29.6953125 C61.804689,29.6953125 62.0729155,29.7454422 62.3046875,29.8457031 C62.5364595,29.945964 62.731119,30.0865876 62.8886719,30.2675781 C63.0462247,30.4485686 63.1647131,30.6666654 63.2441406,30.921875 C63.3235681,31.1770846 63.3632812,31.4609359 63.3632812,31.7734375 L63.3632812,32.2539062 L60.671875,32.2539062 C60.6901043,32.3919278 60.7272133,32.5169265 60.7832031,32.6289062 C60.839193,32.740886 60.9108069,32.8365881 60.9980469,32.9160156 C61.0852869,32.9954431 61.1874994,33.0572914 61.3046875,33.1015625 C61.4218756,33.1458336 61.5533847,33.1679688 61.6992188,33.1679688 C61.9049489,33.1679688 62.0950512,33.1295577 62.2695312,33.0527344 C62.4440113,32.9759111 62.5937494,32.8567716 62.71875,32.6953125 L63.2734375,33.3164062 C63.2057288,33.4127609 63.1210943,33.50651 63.0195312,33.5976562 C62.9179682,33.6888025 62.7981778,33.7701819 62.6601562,33.8417969 C62.5221347,33.9134118 62.3665373,33.9707029 62.1933594,34.0136719 C62.0201814,34.0566408 61.8307302,34.078125 61.625,34.078125 Z M61.4960938,30.609375 C61.3736973,30.609375 61.2662765,30.6308592 61.1738281,30.6738281 C61.0813797,30.7167971 61.0019535,30.7766923 60.9355469,30.8535156 C60.8691403,30.9303389 60.8151044,31.0221349 60.7734375,31.1289062 C60.7317706,31.2356776 60.701823,31.354166 60.6835938,31.484375 L62.2539062,31.484375 L62.2539062,31.3945312 C62.2513021,31.2825515 62.2350262,31.1783859 62.2050781,31.0820312 C62.1751301,30.9856766 62.1295576,30.9023441 62.0683594,30.8320312 C62.0071612,30.7617184 61.9290369,30.7070314 61.8339844,30.6679688 C61.7389318,30.6289061 61.6263027,30.609375 61.4960938,30.609375 Z M69.28125,32.828125 L67.2265625,32.828125 L66.8359375,34 L65.5898438,34 L67.7070312,28.3125 L68.7929688,28.3125 L70.921875,34 L69.6757812,34 L69.28125,32.828125 Z M67.5429688,31.8789062 L68.9648438,31.8789062 L68.25,29.75 L67.5429688,31.8789062 Z M75.1835938,31.9257812 C75.1835938,32.2330745 75.1477868,32.5182279 75.0761719,32.78125 C75.0045569,33.0442721 74.8997403,33.2714834 74.7617188,33.4628906 C74.6236972,33.6542978 74.452475,33.804687 74.2480469,33.9140625 C74.0436188,34.023438 73.8085951,34.078125 73.5429688,34.078125 C73.3190093,34.078125 73.1217456,34.0390629 72.9511719,33.9609375 C72.7805981,33.8828121 72.6328131,33.7734382 72.5078125,33.6328125 L72.5078125,35.625 L71.3789062,35.625 L71.3789062,29.7734375 L72.4257812,29.7734375 L72.4648438,30.1875 C72.5950527,30.0312492 72.7467439,29.9101567 72.9199219,29.8242188 C73.0930998,29.7382808 73.2981759,29.6953125 73.5351562,29.6953125 C73.8033868,29.6953125 74.0403636,29.7467443 74.2460938,29.8496094 C74.4518239,29.9524745 74.6236972,30.0983063 74.7617188,30.2871094 C74.8997403,30.4759124 75.0045569,30.7024726 75.0761719,30.9667969 C75.1477868,31.2311211 75.1835938,31.5234359 75.1835938,31.84375 L75.1835938,31.9257812 Z M74.0546875,31.84375 C74.0546875,31.66927 74.0397137,31.5071622 74.0097656,31.3574219 C73.9798176,31.2076815 73.932292,31.0774745 73.8671875,30.9667969 C73.802083,30.8561192 73.7180995,30.7695316 73.6152344,30.7070312 C73.5123693,30.6445309 73.3867195,30.6132812 73.2382812,30.6132812 C73.0533845,30.6132812 72.9016933,30.6477861 72.7832031,30.7167969 C72.6647129,30.7858076 72.572917,30.8867181 72.5078125,31.0195312 L72.5078125,32.75 C72.572917,32.880209 72.6647129,32.9824215 72.7832031,33.0566406 C72.9016933,33.1308597 73.0559886,33.1679688 73.2460938,33.1679688 C73.394532,33.1679688 73.5201818,33.135417 73.6230469,33.0703125 C73.725912,33.005208 73.8092445,32.9160162 73.8730469,32.8027344 C73.9368493,32.6894526 73.9830728,32.5572924 74.0117188,32.40625 C74.0403647,32.2552076 74.0546875,32.0950529 74.0546875,31.9257812 L74.0546875,31.84375 Z M79.6875,31.9257812 C79.6875,32.2330745 79.6516931,32.5182279 79.5800781,32.78125 C79.5084632,33.0442721 79.4036465,33.2714834 79.265625,33.4628906 C79.1276035,33.6542978 78.9563812,33.804687 78.7519531,33.9140625 C78.547525,34.023438 78.3125013,34.078125 78.046875,34.078125 C77.8229155,34.078125 77.6256519,34.0390629 77.4550781,33.9609375 C77.2845044,33.8828121 77.1367194,33.7734382 77.0117188,33.6328125 L77.0117188,35.625 L75.8828125,35.625 L75.8828125,29.7734375 L76.9296875,29.7734375 L76.96875,30.1875 C77.098959,30.0312492 77.2506502,29.9101567 77.4238281,29.8242188 C77.5970061,29.7382808 77.8020821,29.6953125 78.0390625,29.6953125 C78.307293,29.6953125 78.5442698,29.7467443 78.75,29.8496094 C78.9557302,29.9524745 79.1276035,30.0983063 79.265625,30.2871094 C79.4036465,30.4759124 79.5084632,30.7024726 79.5800781,30.9667969 C79.6516931,31.2311211 79.6875,31.5234359 79.6875,31.84375 L79.6875,31.9257812 Z M78.5585938,31.84375 C78.5585938,31.66927 78.5436199,31.5071622 78.5136719,31.3574219 C78.4837238,31.2076815 78.4361982,31.0774745 78.3710938,30.9667969 C78.3059893,30.8561192 78.2220057,30.7695316 78.1191406,30.7070312 C78.0162755,30.6445309 77.8906257,30.6132812 77.7421875,30.6132812 C77.5572907,30.6132812 77.4055996,30.6477861 77.2871094,30.7167969 C77.1686192,30.7858076 77.0768232,30.8867181 77.0117188,31.0195312 L77.0117188,32.75 C77.0768232,32.880209 77.1686192,32.9824215 77.2871094,33.0566406 C77.4055996,33.1308597 77.5598949,33.1679688 77.75,33.1679688 C77.8984382,33.1679688 78.024088,33.135417 78.1269531,33.0703125 C78.2298182,33.005208 78.3131507,32.9160162 78.3769531,32.8027344 C78.4407555,32.6894526 78.486979,32.5572924 78.515625,32.40625 C78.544271,32.2552076 78.5585938,32.0950529 78.5585938,31.9257812 L78.5585938,31.84375 Z M82.453125,34 L82.453125,28.3125 L84.203125,28.3125 C84.5859394,28.3125 84.9368474,28.3782546 85.2558594,28.5097656 C85.5748714,28.6412767 85.8483062,28.8261707 86.0761719,29.0644531 C86.3040376,29.3027356 86.4817702,29.58854 86.609375,29.921875 C86.7369798,30.25521 86.8007812,30.624998 86.8007812,31.03125 L86.8007812,31.2890625 C86.8007812,31.6953145 86.7376308,32.0644515 86.6113281,32.3964844 C86.4850254,32.7285173 86.3066418,33.0136707 86.0761719,33.2519531 C85.845702,33.4902356 85.5703141,33.6744785 85.25,33.8046875 C84.9296859,33.9348965 84.5768248,34 84.1914062,34 L82.453125,34 Z M83.625,29.2617188 L83.625,33.0585938 L84.1914062,33.0585938 C84.6549502,33.0585938 85.0078113,32.9056005 85.25,32.5996094 C85.4921887,32.2936183 85.6132812,31.8567737 85.6132812,31.2890625 L85.6132812,31.0234375 C85.6132812,30.4453096 85.4934908,30.0071629 85.2539062,29.7089844 C85.0143217,29.4108058 84.6640648,29.2617188 84.203125,29.2617188 L83.625,29.2617188 Z M89.5234375,34.078125 C89.1953109,34.078125 88.901694,34.0247401 88.6425781,33.9179688 C88.3834622,33.8111974 88.1634124,33.6653655 87.9824219,33.4804688 C87.8014314,33.295572 87.6634119,33.0787773 87.5683594,32.8300781 C87.4733068,32.581379 87.4257812,32.3151056 87.4257812,32.03125 L87.4257812,31.8789062 C87.4257812,31.5585921 87.4720047,31.2649753 87.5644531,30.9980469 C87.6569015,30.7311185 87.7884106,30.501303 87.9589844,30.3085938 C88.1295581,30.1158845 88.3365873,29.9654953 88.5800781,29.8574219 C88.8235689,29.7493484 89.0963527,29.6953125 89.3984375,29.6953125 C89.7031265,29.6953125 89.971353,29.7454422 90.203125,29.8457031 C90.434897,29.945964 90.6295565,30.0865876 90.7871094,30.2675781 C90.9446622,30.4485686 91.0631506,30.6666654 91.1425781,30.921875 C91.2220056,31.1770846 91.2617188,31.4609359 91.2617188,31.7734375 L91.2617188,32.2539062 L88.5703125,32.2539062 C88.5885418,32.3919278 88.6256508,32.5169265 88.6816406,32.6289062 C88.7376305,32.740886 88.8092444,32.8365881 88.8964844,32.9160156 C88.9837244,32.9954431 89.0859369,33.0572914 89.203125,33.1015625 C89.3203131,33.1458336 89.4518222,33.1679688 89.5976562,33.1679688 C89.8033864,33.1679688 89.9934887,33.1295577 90.1679688,33.0527344 C90.3424488,32.9759111 90.4921869,32.8567716 90.6171875,32.6953125 L91.171875,33.3164062 C91.1041663,33.4127609 91.0195318,33.50651 90.9179688,33.5976562 C90.8164057,33.6888025 90.6966153,33.7701819 90.5585938,33.8417969 C90.4205722,33.9134118 90.2649748,33.9707029 90.0917969,34.0136719 C89.9186189,34.0566408 89.7291677,34.078125 89.5234375,34.078125 Z M89.3945312,30.609375 C89.2721348,30.609375 89.164714,30.6308592 89.0722656,30.6738281 C88.9798172,30.7167971 88.900391,30.7766923 88.8339844,30.8535156 C88.7675778,30.9303389 88.7135419,31.0221349 88.671875,31.1289062 C88.6302081,31.2356776 88.6002605,31.354166 88.5820312,31.484375 L90.1523438,31.484375 L90.1523438,31.3945312 C90.1497396,31.2825515 90.1334637,31.1783859 90.1035156,31.0820312 C90.0735676,30.9856766 90.0279951,30.9023441 89.9667969,30.8320312 C89.9055987,30.7617184 89.8274744,30.7070314 89.7324219,30.6679688 C89.6373693,30.6289061 89.5247402,30.609375 89.3945312,30.609375 Z M93.484375,32.6210938 L94.2695312,29.7734375 L95.4492188,29.7734375 L94.0234375,34 L92.9453125,34 L91.5195312,29.7734375 L92.6992188,29.7734375 L93.484375,32.6210938 Z M97.890625,34.078125 C97.5624984,34.078125 97.2688815,34.0247401 97.0097656,33.9179688 C96.7506497,33.8111974 96.5305999,33.6653655 96.3496094,33.4804688 C96.1686189,33.295572 96.0305994,33.0787773 95.9355469,32.8300781 C95.8404943,32.581379 95.7929688,32.3151056 95.7929688,32.03125 L95.7929688,31.8789062 C95.7929688,31.5585921 95.8391922,31.2649753 95.9316406,30.9980469 C96.024089,30.7311185 96.1555981,30.501303 96.3261719,30.3085938 C96.4967456,30.1158845 96.7037748,29.9654953 96.9472656,29.8574219 C97.1907564,29.7493484 97.4635402,29.6953125 97.765625,29.6953125 C98.070314,29.6953125 98.3385405,29.7454422 98.5703125,29.8457031 C98.8020845,29.945964 98.996744,30.0865876 99.1542969,30.2675781 C99.3118497,30.4485686 99.4303381,30.6666654 99.5097656,30.921875 C99.5891931,31.1770846 99.6289062,31.4609359 99.6289062,31.7734375 L99.6289062,32.2539062 L96.9375,32.2539062 C96.9557293,32.3919278 96.9928383,32.5169265 97.0488281,32.6289062 C97.104818,32.740886 97.1764319,32.8365881 97.2636719,32.9160156 C97.3509119,32.9954431 97.4531244,33.0572914 97.5703125,33.1015625 C97.6875006,33.1458336 97.8190097,33.1679688 97.9648438,33.1679688 C98.1705739,33.1679688 98.3606762,33.1295577 98.5351562,33.0527344 C98.7096363,32.9759111 98.8593744,32.8567716 98.984375,32.6953125 L99.5390625,33.3164062 C99.4713538,33.4127609 99.3867193,33.50651 99.2851562,33.5976562 C99.1835932,33.6888025 99.0638028,33.7701819 98.9257812,33.8417969 C98.7877597,33.9134118 98.6321623,33.9707029 98.4589844,34.0136719 C98.2858064,34.0566408 98.0963552,34.078125 97.890625,34.078125 Z M97.7617188,30.609375 C97.6393223,30.609375 97.5319015,30.6308592 97.4394531,30.6738281 C97.3470047,30.7167971 97.2675785,30.7766923 97.2011719,30.8535156 C97.1347653,30.9303389 97.0807294,31.0221349 97.0390625,31.1289062 C96.9973956,31.2356776 96.967448,31.354166 96.9492188,31.484375 L98.5195312,31.484375 L98.5195312,31.3945312 C98.5169271,31.2825515 98.5006512,31.1783859 98.4707031,31.0820312 C98.4407551,30.9856766 98.3951826,30.9023441 98.3339844,30.8320312 C98.2727862,30.7617184 98.1946619,30.7070314 98.0996094,30.6679688 C98.0045568,30.6289061 97.8919277,30.609375 97.7617188,30.609375 Z M101.460938,34 L100.328125,34 L100.328125,28 L101.460938,28 L101.460938,34 Z M102.214844,31.8476562 C102.214844,31.540363 102.259114,31.2552096 102.347656,30.9921875 C102.436198,30.7291654 102.565103,30.5019541 102.734375,30.3105469 C102.903647,30.1191397 103.112629,29.9687505 103.361328,29.859375 C103.610027,29.7499995 103.893228,29.6953125 104.210938,29.6953125 C104.531252,29.6953125 104.816405,29.7499995 105.066406,29.859375 C105.316407,29.9687505 105.526692,30.1191397 105.697266,30.3105469 C105.867839,30.5019541 105.997395,30.7291654 106.085938,30.9921875 C106.17448,31.2552096 106.21875,31.540363 106.21875,31.8476562 L106.21875,31.9296875 C106.21875,32.2395849 106.17448,32.5253893 106.085938,32.7871094 C105.997395,33.0488294 105.867839,33.2753897 105.697266,33.4667969 C105.526692,33.6582041 105.31771,33.8079422 105.070312,33.9160156 C104.822915,34.0240891 104.539064,34.078125 104.21875,34.078125 C103.898436,34.078125 103.613934,34.0240891 103.365234,33.9160156 C103.116535,33.8079422 102.906902,33.6582041 102.736328,33.4667969 C102.565754,33.2753897 102.436198,33.0488294 102.347656,32.7871094 C102.259114,32.5253893 102.214844,32.2395849 102.214844,31.9296875 L102.214844,31.8476562 Z M103.34375,31.9296875 C103.34375,32.1015634 103.359375,32.2630201 103.390625,32.4140625 C103.421875,32.5651049 103.472005,32.695963 103.541016,32.8066406 C103.610026,32.9173183 103.699869,33.005208 103.810547,33.0703125 C103.921225,33.135417 104.057291,33.1679688 104.21875,33.1679688 C104.375001,33.1679688 104.508463,33.135417 104.619141,33.0703125 C104.729818,33.005208 104.820312,32.9173183 104.890625,32.8066406 C104.960938,32.695963 105.011719,32.5651049 105.042969,32.4140625 C105.074219,32.2630201 105.089844,32.1015634 105.089844,31.9296875 L105.089844,31.8476562 C105.089844,31.6809888 105.074219,31.5227872 105.042969,31.3730469 C105.011719,31.2233065 104.960938,31.0917974 104.890625,30.9785156 C104.820312,30.8652338 104.729167,30.775391 104.617188,30.7089844 C104.505208,30.6425778 104.369792,30.609375 104.210938,30.609375 C104.054687,30.609375 103.921225,30.6425778 103.810547,30.7089844 C103.699869,30.775391 103.610026,30.8652338 103.541016,30.9785156 C103.472005,31.0917974 103.421875,31.2233065 103.390625,31.3730469 C103.359375,31.5227872 103.34375,31.6809888 103.34375,31.8476562 L103.34375,31.9296875 Z M110.71875,31.9257812 C110.71875,32.2330745 110.682943,32.5182279 110.611328,32.78125 C110.539713,33.0442721 110.434897,33.2714834 110.296875,33.4628906 C110.158853,33.6542978 109.987631,33.804687 109.783203,33.9140625 C109.578775,34.023438 109.343751,34.078125 109.078125,34.078125 C108.854166,34.078125 108.656902,34.0390629 108.486328,33.9609375 C108.315754,33.8828121 108.167969,33.7734382 108.042969,33.6328125 L108.042969,35.625 L106.914062,35.625 L106.914062,29.7734375 L107.960938,29.7734375 L108,30.1875 C108.130209,30.0312492 108.2819,29.9101567 108.455078,29.8242188 C108.628256,29.7382808 108.833332,29.6953125 109.070312,29.6953125 C109.338543,29.6953125 109.57552,29.7467443 109.78125,29.8496094 C109.98698,29.9524745 110.158853,30.0983063 110.296875,30.2871094 C110.434897,30.4759124 110.539713,30.7024726 110.611328,30.9667969 C110.682943,31.2311211 110.71875,31.5234359 110.71875,31.84375 L110.71875,31.9257812 Z M109.589844,31.84375 C109.589844,31.66927 109.57487,31.5071622 109.544922,31.3574219 C109.514974,31.2076815 109.467448,31.0774745 109.402344,30.9667969 C109.337239,30.8561192 109.253256,30.7695316 109.150391,30.7070312 C109.047526,30.6445309 108.921876,30.6132812 108.773438,30.6132812 C108.588541,30.6132812 108.43685,30.6477861 108.318359,30.7167969 C108.199869,30.7858076 108.108073,30.8867181 108.042969,31.0195312 L108.042969,32.75 C108.108073,32.880209 108.199869,32.9824215 108.318359,33.0566406 C108.43685,33.1308597 108.591145,33.1679688 108.78125,33.1679688 C108.929688,33.1679688 109.055338,33.135417 109.158203,33.0703125 C109.261068,33.005208 109.344401,32.9160162 109.408203,32.8027344 C109.472006,32.6894526 109.518229,32.5572924 109.546875,32.40625 C109.575521,32.2552076 109.589844,32.0950529 109.589844,31.9257812 L109.589844,31.84375 Z M113.363281,34.078125 C113.035155,34.078125 112.741538,34.0247401 112.482422,33.9179688 C112.223306,33.8111974 112.003256,33.6653655 111.822266,33.4804688 C111.641275,33.295572 111.503256,33.0787773 111.408203,32.8300781 C111.313151,32.581379 111.265625,32.3151056 111.265625,32.03125 L111.265625,31.8789062 C111.265625,31.5585921 111.311848,31.2649753 111.404297,30.9980469 C111.496745,30.7311185 111.628254,30.501303 111.798828,30.3085938 C111.969402,30.1158845 112.176431,29.9654953 112.419922,29.8574219 C112.663413,29.7493484 112.936196,29.6953125 113.238281,29.6953125 C113.54297,29.6953125 113.811197,29.7454422 114.042969,29.8457031 C114.274741,29.945964 114.4694,30.0865876 114.626953,30.2675781 C114.784506,30.4485686 114.902994,30.6666654 114.982422,30.921875 C115.061849,31.1770846 115.101562,31.4609359 115.101562,31.7734375 L115.101562,32.2539062 L112.410156,32.2539062 C112.428386,32.3919278 112.465495,32.5169265 112.521484,32.6289062 C112.577474,32.740886 112.649088,32.8365881 112.736328,32.9160156 C112.823568,32.9954431 112.925781,33.0572914 113.042969,33.1015625 C113.160157,33.1458336 113.291666,33.1679688 113.4375,33.1679688 C113.64323,33.1679688 113.833332,33.1295577 114.007812,33.0527344 C114.182293,32.9759111 114.332031,32.8567716 114.457031,32.6953125 L115.011719,33.3164062 C114.94401,33.4127609 114.859376,33.50651 114.757812,33.5976562 C114.656249,33.6888025 114.536459,33.7701819 114.398438,33.8417969 C114.260416,33.9134118 114.104819,33.9707029 113.931641,34.0136719 C113.758463,34.0566408 113.569011,34.078125 113.363281,34.078125 Z M113.234375,30.609375 C113.111979,30.609375 113.004558,30.6308592 112.912109,30.6738281 C112.819661,30.7167971 112.740235,30.7766923 112.673828,30.8535156 C112.607422,30.9303389 112.553386,31.0221349 112.511719,31.1289062 C112.470052,31.2356776 112.440104,31.354166 112.421875,31.484375 L113.992188,31.484375 L113.992188,31.3945312 C113.989583,31.2825515 113.973307,31.1783859 113.943359,31.0820312 C113.913411,30.9856766 113.867839,30.9023441 113.806641,30.8320312 C113.745442,30.7617184 113.667318,30.7070314 113.572266,30.6679688 C113.477213,30.6289061 113.364584,30.609375 113.234375,30.609375 Z M118.117188,30.8320312 C118.059896,30.8242187 117.992839,30.8170573 117.916016,30.8105469 C117.839192,30.8040364 117.770834,30.8007812 117.710938,30.8007812 C117.489582,30.8007812 117.310548,30.8378903 117.173828,30.9121094 C117.037109,30.9863285 116.936198,31.0937493 116.871094,31.234375 L116.871094,34 L115.742188,34 L115.742188,29.7734375 L116.808594,29.7734375 L116.839844,30.2773438 C116.946615,30.0950512 117.078124,29.9524745 117.234375,29.8496094 C117.390626,29.7467443 117.572916,29.6953125 117.78125,29.6953125 C117.841146,29.6953125 117.904297,29.7005208 117.970703,29.7109375 C118.03711,29.7213542 118.091146,29.7330729 118.132812,29.7460938 L118.117188,30.8320312 Z" id="Shape"></path>
            </g>
        </g>
    </g>
</svg>