<svg xmlns="http://www.w3.org/2000/svg" viewBox="0 0 2560 1164"><defs><linearGradient id="jnwd6ppnotkzzstbrt2alrkd" x1="0" y1=".4" x2="1" y2=".6"><stop offset="0" stop-color="#006b8a"/><stop offset="1" stop-color="#4cff8d"/></linearGradient><linearGradient id="q5yyj9ob5opsty8otvhw21e6" x1="1.1" y1="1.1" x2=".5" y2="-0.6"><stop offset="0" stop-color="#4cff8d" stop-opacity="0"/><stop offset="1" stop-color="#4cff8d"/></linearGradient><linearGradient id="e6wxjoicm8u0i8cv8hbhrggq" x1=".3" y1="0" x2=".6" y2=".8"><stop offset="0" stop-color="#c9ff52" stop-opacity="0"/><stop offset="1" stop-color="#fff" stop-opacity=".53"/></linearGradient><linearGradient id="gjscwb7udokt2cgiijqoxwfu" x1="1978.1" y1=".9" x2="1978.1" y2="383.3" gradientUnits="userSpaceOnUse"><stop offset="0" stop-color="#4cff8d" stop-opacity="0"/><stop offset="1" stop-color="#4cff8d"/></linearGradient><linearGradient id="adw9jic2emcqbogj4pt89ugz" x1=".7" y1=".3" x2="-0.3" y2=".7"><stop offset="0" stop-color="#4cff8d" stop-opacity="0"/><stop offset="1" stop-color="#4cff8d"/></linearGradient><mask id="Mask-1" style="mask-type: alpha;"><g opacity=".15" transform="translate(551,-65.2)"><path d="M1767.5 0l-1167.5 1167.5" stroke="#000" fill="none" stroke-linecap="square" stroke-width="8"/><path d="M1807.5 0l-1167.5 1167.5" stroke="#000" fill="none" stroke-linecap="square" stroke-width="8"/><path d="M1847.5 0l-1167.5 1167.5" stroke="#000" fill="none" stroke-linecap="square" stroke-width="8"/><path d="M1887.5 0l-1167.5 1167.5" stroke="#000" fill="none" stroke-linecap="square" stroke-width="8"/><path d="M1927.5 0l-1167.5 1167.5" stroke="#000" fill="none" stroke-linecap="square" stroke-width="8"/><path d="M1967.5 0l-1167.5 1167.5" stroke="#000" fill="none" stroke-linecap="square" stroke-width="8"/><path d="M2007.5 0l-1167.5 1167.5" stroke="#000" fill="none" stroke-linecap="square" stroke-width="8"/><path d="M2047.5 0l-1167.5 1167.5" stroke="#000" fill="none" stroke-linecap="square" stroke-width="8"/><path d="M2087.5 0l-1167.5 1167.5" stroke="#000" fill="none" stroke-linecap="square" stroke-width="8"/><path d="M2127.5 0l-1167.5 1167.5" stroke="#000" fill="none" stroke-linecap="square" stroke-width="8"/><path d="M2167.5 0l-1167.5 1167.5" stroke="#000" fill="none" stroke-linecap="square" stroke-width="8"/><path d="M2207.5 0l-1167.5 1167.5" stroke="#000" fill="none" stroke-linecap="square" stroke-width="8"/><path d="M2247.5 0l-1167.5 1167.5" stroke="#000" fill="none" stroke-linecap="square" stroke-width="8"/><path d="M2287.5 0l-1167.5 1167.5" stroke="#000" fill="none" stroke-linecap="square" stroke-width="8"/><path d="M2327.5 0l-1167.5 1167.5" stroke="#000" fill="none" stroke-linecap="square" stroke-width="8"/><path d="M2367.5 0l-1167.5 1167.5" stroke="#000" fill="none" stroke-linecap="square" stroke-width="8"/><path d="M2407.5 0l-1167.5 1167.5" stroke="#000" fill="none" stroke-linecap="square" stroke-width="8"/><path d="M2447.5 0l-1167.5 1167.5" stroke="#000" fill="none" stroke-linecap="square" stroke-width="8"/><path d="M2487.5 0l-1167.5 1167.5" stroke="#000" fill="none" stroke-linecap="square" stroke-width="8"/><path d="M2527.5 0l-1167.5 1167.5" stroke="#000" fill="none" stroke-linecap="square" stroke-width="8"/><path d="M2567.5 0l-1167.5 1167.5" stroke="#000" fill="none" stroke-linecap="square" stroke-width="8"/><path d="M2607.5 0l-1167.5 1167.5" stroke="#000" fill="none" stroke-linecap="square" stroke-width="8"/><path d="M2647.5 0l-1167.5 1167.5" stroke="#000" fill="none" stroke-linecap="square" stroke-width="8"/><path d="M2687.5 0l-1167.5 1167.5" stroke="#000" fill="none" stroke-linecap="square" stroke-width="8"/><path d="M1727.5 0l-1167.5 1167.5" stroke="#000" fill="none" stroke-linecap="square" stroke-width="8"/><path d="M1687.5 0l-1167.5 1167.5" stroke="#000" fill="none" stroke-linecap="square" stroke-width="8"/><path d="M1647.5 0l-1167.5 1167.5" stroke="#000" fill="none" stroke-linecap="square" stroke-width="8"/><path d="M1607.5 0l-1167.5 1167.5" stroke="#000" fill="none" stroke-linecap="square" stroke-width="8"/><path d="M1567.5 0l-1167.5 1167.5" stroke="#000" fill="none" stroke-linecap="square" stroke-width="8"/><path d="M1527.5 0l-1167.5 1167.5" stroke="#000" fill="none" stroke-linecap="square" stroke-width="8"/><path d="M1487.5 0l-1167.5 1167.5" stroke="#000" fill="none" stroke-linecap="square" stroke-width="8"/><path d="M1447.5 0l-1167.5 1167.5" stroke="#000" fill="none" stroke-linecap="square" stroke-width="8"/><path d="M1407.5 0l-1167.5 1167.5" stroke="#000" fill="none" stroke-linecap="square" stroke-width="8"/><path d="M1367.5 0l-1167.5 1167.5" stroke="#000" fill="none" stroke-linecap="square" stroke-width="8"/><path d="M1327.5 0l-1167.5 1167.5" stroke="#000" fill="none" stroke-linecap="square" stroke-width="8"/><path d="M1287.5 0l-1167.5 1167.5" stroke="#000" fill="none" stroke-linecap="square" stroke-width="8"/><path d="M1247.5 0l-1167.5 1167.5" stroke="#000" fill="none" stroke-linecap="square" stroke-width="8"/><path d="M1207.5 0l-1167.5 1167.5" stroke="#000" fill="none" stroke-linecap="square" stroke-width="8"/><path d="M1167.5 0l-1167.5 1167.5" stroke="#000" fill="none" stroke-linecap="square" stroke-width="8"/><path d="M152.4 45.2l-666.3 666.3" stroke="#000" fill="none" stroke-linecap="square" stroke-width="8"/><path d="M112.4 45.2l-666.3 666.3" stroke="#000" fill="none" stroke-linecap="square" stroke-width="8"/><path d="M72.4 45.2l-666.3 666.3" stroke="#000" fill="none" stroke-linecap="square" stroke-width="8"/><path d="M32.4 45.2l-666.3 666.3" stroke="#000" fill="none" stroke-linecap="square" stroke-width="8"/><path d="M-7.6 45.2l-666.3 666.3" stroke="#000" fill="none" stroke-linecap="square" stroke-width="8"/><path d="M-47.6 45.2l-666.3 666.3" stroke="#000" fill="none" stroke-linecap="square" stroke-width="8"/><path d="M-87.6 45.2l-666.3 666.3" stroke="#000" fill="none" stroke-linecap="square" stroke-width="8"/><path d="M-127.6 45.2l-666.3 666.3" stroke="#000" fill="none" stroke-linecap="square" stroke-width="8"/><path d="M-167.6 45.2l-666.3 666.3" stroke="#000" fill="none" stroke-linecap="square" stroke-width="8"/><path d="M-207.6 45.2l-666.3 666.3" stroke="#000" fill="none" stroke-linecap="square" stroke-width="8"/><path d="M-247.6 45.2l-666.3 666.3" stroke="#000" fill="none" stroke-linecap="square" stroke-width="8"/><path d="M-287.6 45.2l-666.3 666.3" stroke="#000" fill="none" stroke-linecap="square" stroke-width="8"/><path d="M-327.6 45.2l-666.3 666.3" stroke="#000" fill="none" stroke-linecap="square" stroke-width="8"/><path d="M-367.6 45.2l-666.4 666.3" stroke="#000" fill="none" stroke-linecap="square" stroke-width="8"/><path d="M-407.6 45.2l-666.4 666.3" stroke="#000" fill="none" stroke-linecap="square" stroke-width="8"/><path d="M-447.6 45.2l-666.4 666.3" stroke="#000" fill="none" stroke-linecap="square" stroke-width="8"/><path d="M-487.6 45.2l-666.4 666.3" stroke="#000" fill="none" stroke-linecap="square" stroke-width="8"/><path d="M-527.6 45.2l-666.4 666.3" stroke="#000" fill="none" stroke-linecap="square" stroke-width="8"/></g></mask></defs><style>
@keyframes y77pgc667l38jrg7x48ymfet_t { 0% { transform: translate(721px,863px) rotate(-14deg) scale(1.3,1.3) translate(-722px,-863.9px); animation-timing-function: cubic-bezier(.4,0,.6,1); } 44.944% { transform: translate(721px,863px) rotate(-14deg) scale(1,1) translate(-722px,-863.9px); animation-timing-function: cubic-bezier(.4,0,.6,1); } 100% { transform: translate(721px,863px) rotate(-14deg) scale(1.3,1.3) translate(-722px,-863.9px); } }
@keyframes hrqscq7mqgq6g4m776mnhz00_t { 0% { transform: translate(-1px,-0.9px) scale(1,1); animation-timing-function: cubic-bezier(.4,0,.6,1); } 43.939% { transform: translate(-1px,-0.9px) scale(1.1,1.1); animation-timing-function: cubic-bezier(.4,0,.6,1); } 100% { transform: translate(-1px,-0.9px) scale(1,1); } }
@keyframes zl3h9j5xd165wfxvpezmweri_t { 0% { transform: translateX(2560px) scale(1,1) translate(-2561px,-0.9px); animation-timing-function: cubic-bezier(.4,0,.6,1); } 50.714% { transform: translateX(2560px) scale(.8,.8) translate(-2561px,-0.9px); animation-timing-function: cubic-bezier(.4,0,.6,1); } 100% { transform: translateX(2560px) scale(1,1) translate(-2561px,-0.9px); } }
@keyframes v9k70rjp9c5wrhhpowbhaelk_t { 0% { transform: translate(1279.7px,-1.1px) rotate(180deg) scale(1,1) translate(-1280.7px,-1168.4px); animation-timing-function: cubic-bezier(.4,0,.6,1); } 49.858% { transform: translate(1279.7px,-1.1px) rotate(180deg) scale(1.1,1) translate(-1280.7px,-1168.4px); animation-timing-function: cubic-bezier(.4,0,.6,1); } 100% { transform: translate(1279.7px,-1.1px) rotate(180deg) scale(1,1) translate(-1280.7px,-1168.4px); } }
</style><title>Header-2560</title><desc>Created with Sketch.</desc><rect fill="url(#jnwd6ppnotkzzstbrt2alrkd)" width="2560" height="1160" fill-rule="evenodd"/><path d="M753 683.6c18-7.9 70.4-1.1 111.1 53.5c40.7 54.5 59.6 171 10.8 241.1c-59.3 84.9-223.8 87.5-300.7 28c-48.3-37.4-49-134.8 20.8-151c158.3-36.7 75.8-135.8 158-171.6Z" fill="url(#q5yyj9ob5opsty8otvhw21e6)" opacity=".2" fill-rule="evenodd" transform="translate(721,863) rotate(-14) scale(1.3,1.3) translate(-722,-863.9)" style="animation: 8.9s linear infinite both y77pgc667l38jrg7x48ymfet_t;"/><path d="M923 .9c-256.9 73.3-215.7 275-312.8 390.8c-120.3 143.5-279.5 95.1-394.3 165.3c-114.8 70.1-143.5 201.2-84.3 407.8c23.5 81.9 22.8 147.2-2.2 196.1h-128.4v-1160Z" fill="url(#e6wxjoicm8u0i8cv8hbhrggq)" opacity=".2" fill-rule="evenodd" transform="translate(-1,-0.9)" style="animation: 13.2s linear infinite both hrqscq7mqgq6g4m776mnhz00_t;"/><path d="M2561 .9v382.4c-54.9-32.2-114.2-52.8-215.8-29.5c-222.8 51.1-173.1-108.5-398.8-171.3c-207-57.6-503.4 .2-551.2-181.6h1165.8Z" fill="url(#gjscwb7udokt2cgiijqoxwfu)" opacity=".4" fill-rule="evenodd" transform="translate(2560,0) translate(-2561,-0.9)" style="animation: 14s linear infinite both zl3h9j5xd165wfxvpezmweri_t;"/><ellipse fill="url(#adw9jic2emcqbogj4pt89ugz)" opacity=".2" rx="205.2" ry="145.8" fill-rule="evenodd" transform="translate(1868.6,970.2) rotate(25) translate(0,0)"/><path d="M1484.1 523.1c61.8 89.3-11.6 231.7 220.3 171.7c232-60 468.6 100.6 479.6 201.1c11 100.5-90.5 126.1-170 153.1c-79.5 27-250.5 57-396 57c-133.9 0-196.2-45.9-276.1-85.1c-79.9-39.1-40-137.1-147.5-219.8c-107.4-82.8-104.5-249.2-23.9-316.3c80.6-67.2 251.9-51 313.6 38.3Zm-1046.8-311.1c-61.2 102-264.4 146-436.3 43.6v-254.7h458.6c16.4 82.2 6.9 162.6-22.3 211.1Zm1931.4-153.7c57.2 27.9 89.1 80.2 71.2 116.9c-17.9 36.6-78.7 43.7-135.9 15.8c-57.2-27.9-89.1-80.2-71.2-116.8c17.9-36.7 78.7-43.8 135.9-15.9Z" fill="#fff" fill-rule="evenodd" mask="url(#Mask-1)"/><path d="M2561 1168.4h-2560.5v-11c140.5-0.7 214 0 352.5-41.2c189.7-56.4 470.9-237.8 899-142.4c101.6 22.7 477.9 147 684.5 42.6c345.9-175 542.5-132 624.5-93.7Z" fill="#fff" fill-rule="evenodd" transform="translate(1279.7,-1.1) rotate(180) translate(-1280.7,-1168.4)" style="animation: 5.98s linear infinite both v9k70rjp9c5wrhhpowbhaelk_t;"/></svg>