<?xml version="1.0" encoding="UTF-8"?>
<svg width="140px" height="46px" viewBox="0 0 140 46" version="1.1" xmlns="http://www.w3.org/2000/svg" xmlns:xlink="http://www.w3.org/1999/xlink">
    <!-- Generator: Sketch 58 (84663) - https://sketch.com -->
    <title>footer-logo-1</title>
    <desc>Created with Sketch.</desc>
    <g id="Header-&amp;-Footer" stroke="none" stroke-width="1" fill="none" fill-rule="evenodd">
        <g id="Group-5" transform="translate(-640.000000, 0.000000)" fill="#FFFFFF" fill-rule="nonzero">
            <g id="Group-18" transform="translate(640.000000, 0.000000)">
                <path d="M19,10 C20.6568542,10 22,11.3431458 22,13 L22,24.06 L24.6727972,28.0763285 C25.2928624,29.0082112 25.0056269,30.2443861 24.0312387,30.8374024 C23.4199106,31.209459 22.6514538,31.2520059 22.0000711,30.9515148 L22,33 C22,34.6568542 20.6568542,36 19,36 L9,36 C7.34314575,36 6,34.6568542 6,33 L6,30.482 L5.91500655,30.5178601 C4.85343855,30.9529713 3.62405155,30.4826682 3.16909383,29.4674086 C2.89071259,28.8461878 2.95922403,28.1325259 3.3512285,27.5701697 L6,23.77 L6,13 C6,11.3431458 7.34314575,10 9,10 L19,10 Z M14,33 C13.4477153,33 13,33.4477153 13,34 C13,34.5522847 13.4477153,35 14,35 C14.5522847,35 15,34.5522847 15,34 C15,33.4477153 14.5522847,33 14,33 Z M49.6436878,18.1889007 C50.55769,18.1889007 51.3995215,18.3454271 52.1692076,18.6584845 C52.9388937,18.9715419 53.6083501,19.4019894 54.1775971,19.9498399 C54.7468441,20.4976904 55.1918122,21.1551011 55.5125147,21.9220918 C55.8332172,22.6890825 55.9935661,23.5186722 55.9935661,24.4108858 C55.9935661,25.3187523 55.837226,26.1522552 55.524541,26.9114194 C55.211856,27.6705837 54.7789141,28.3240812 54.2257023,28.8719317 C53.6724904,29.4197822 53.0230775,29.8463165 52.2774442,30.1515475 C51.5318108,30.4567785 50.7180403,30.6093917 49.8361084,30.6093917 C48.9221062,30.6093917 48.1123445,30.4372127 47.4067989,30.0928495 C46.7012534,29.7484864 46.1480498,29.3258652 45.7471716,28.8249733 L45.7471716,35 L43.0051788,35 L43.0051788,24.9509072 C43.0051788,23.8552062 43.1655276,22.8886559 43.4862301,22.0512273 C43.8069327,21.2137987 44.2559095,20.5094301 44.833174,19.9381003 C45.4104386,19.3667705 46.1079561,18.9324099 46.9257475,18.6350053 C47.743539,18.3376008 48.64951,18.1889007 49.6436878,18.1889007 Z M63.6831271,18.1889007 C64.5971293,18.1889007 65.4389608,18.3454271 66.2086468,18.6584845 C66.9783329,18.9715419 67.6477894,19.4019894 68.2170364,19.9498399 C68.7862833,20.4976904 69.2312514,21.1551011 69.5519539,21.9220918 C69.8726565,22.6890825 70.0330053,23.5186722 70.0330053,24.4108858 C70.0330053,25.3187523 69.8766652,26.1522552 69.5639802,26.9114194 C69.2512953,27.6705837 68.8183534,28.3240812 68.2651415,28.8719317 C67.7119296,29.4197822 67.0625168,29.8463165 66.3168834,30.1515475 C65.57125,30.4567785 64.7574796,30.6093917 63.8755476,30.6093917 C62.9615454,30.6093917 62.1517837,30.4372127 61.4462381,30.0928495 C60.7406926,29.7484864 60.187489,29.3258652 59.7866109,28.8249733 L59.7866109,35 L57.044618,35 L57.044618,24.9509072 C57.044618,23.8552062 57.2049668,22.8886559 57.5256694,22.0512273 C57.8463719,21.2137987 58.2953487,20.5094301 58.8726132,19.9381003 C59.4498778,19.3667705 60.1473953,18.9324099 60.9651868,18.6350053 C61.7829782,18.3376008 62.6889492,18.1889007 63.6831271,18.1889007 Z M14.0876254,27.1680998 L8,29.663 L8,31 C8,31.5522847 8.44771525,32 9,32 L19,32 C19.5522847,32 20,31.5522847 20,31 L20,29.995 L14.0876254,27.1680998 Z M35.0991447,18.1889007 C36.0452171,18.1889007 36.9070922,18.2789034 37.6847958,18.4589114 C38.4624995,18.6389194 39.1319559,18.92458 39.6931854,19.3159018 C40.2544148,19.7072236 40.6913654,20.2237606 41.0040504,20.8655283 C41.3167353,21.507296 41.4730755,22.2821015 41.4730755,23.189968 L41.4730755,30.2572038 L41.163399,30.3070971 L40.350622,30.4019922 L39.5007648,30.4802561 C39.0357462,30.5193883 38.5146124,30.5546067 37.9373478,30.5859125 C37.3600833,30.6172182 36.7587751,30.6328709 36.1334051,30.6328709 C34.8826653,30.6328709 33.8604413,30.5272156 33.0667026,30.3159018 C32.2729638,30.1045881 31.6476033,29.8228406 31.1906022,29.470651 C30.7336011,29.1184614 30.4209208,28.7114929 30.252552,28.2497332 C30.0841832,27.7879735 30,27.3144813 30,26.8292423 C30,26.1874746 30.100218,25.6239797 30.3006571,25.1387407 C30.5010962,24.6535017 30.8298114,24.2465331 31.2868124,23.9178228 C31.7438135,23.5891126 32.341113,23.3425835 33.0787289,23.1782284 C33.8163447,23.0138732 34.7142983,22.9316969 35.7726166,22.9316969 C36.1788398,22.9316969 36.5708057,22.9403928 36.9485194,22.9577848 L38.219966,23.046158 C38.4244123,23.0637673 38.594784,23.0803984 38.7310826,23.0960512 C38.7310826,22.5482007 38.638882,22.0942743 38.4544781,21.7342583 C38.2700741,21.3742422 38.017523,21.0924948 37.6968221,20.8890075 C37.3761196,20.6855201 36.9912823,20.5446464 36.5422988,20.4663821 C36.0933153,20.3881177 35.5962338,20.3489861 35.0510395,20.3489861 C34.1370373,20.3489861 33.4034413,20.4507283 32.8502294,20.6542156 C32.2970176,20.8577029 31.9322239,21.0298819 31.7558375,21.1707577 C31.6596268,21.0924934 31.527339,20.9437933 31.3589702,20.7246531 C31.1906013,20.505513 31.1064182,20.2394181 31.1064182,19.9263607 C31.1064182,19.7072205 31.166549,19.4919968 31.2868124,19.280683 C31.4070759,19.0693693 31.6195381,18.8815376 31.9242055,18.7171825 C32.2288729,18.5528274 32.6377625,18.4236931 33.1508866,18.3297759 C33.6640106,18.2358587 34.3134235,18.1889007 35.0991447,18.1889007 Z M91.0026352,18.5176094 C91.3073026,18.5176094 91.5798956,18.5528278 91.8204225,18.6232657 L92.1945737,18.7380529 C92.2391153,18.7528361 92.2747487,18.7654452 92.3014739,18.7758805 L92.3014739,25.5378869 C92.3014739,26.3361833 92.1611686,27.0522914 91.8805539,27.6862327 C91.5999392,28.3201739 91.1990671,28.8562767 90.6779255,29.2945571 C90.1567839,29.7328375 89.5354321,30.065456 88.8138514,30.2924226 C88.0922707,30.5193893 87.2985438,30.6328709 86.432647,30.6328709 C85.5667502,30.6328709 84.7730234,30.5193893 84.0514427,30.2924226 C83.329862,30.065456 82.7125189,29.7328375 82.1993949,29.2945571 C81.6862708,28.8562767 81.2853987,28.3201739 80.9967664,27.6862327 C80.7081341,27.0522914 80.5638202,26.3361833 80.5638202,25.5378869 L80.5638202,19.7620064 C80.5638202,19.323726 80.6920992,19.0067601 80.9486613,18.8110993 C81.2052233,18.6154384 81.5660082,18.5176094 82.0310269,18.5176094 C82.3196591,18.5176094 82.5842348,18.5528278 82.8247617,18.6232657 L83.1989128,18.7380529 C83.2434545,18.7528361 83.2790878,18.7654452 83.305813,18.7758805 L83.305813,24.9509072 C83.305813,26.0153024 83.5623712,26.8253263 84.0754952,27.3810032 C84.5886193,27.9366801 85.3743287,28.2145144 86.432647,28.2145144 C87.4909654,28.2145144 88.2766748,27.9366801 88.7897988,27.3810032 C89.3029228,26.8253263 89.559481,26.0153024 89.559481,24.9509072 L89.559481,19.7620064 C89.559481,19.323726 89.6877601,19.0067601 89.9443221,18.8110993 C90.2008841,18.6154384 90.5536516,18.5176094 91.0026352,18.5176094 Z M95.6375199,15.1835646 C95.9261521,15.1835646 96.1947365,15.218783 96.4432809,15.2892209 L96.8604427,15.4146878 C96.8910094,15.4249599 96.9163147,15.4340092 96.9363586,15.4418356 L96.9363586,18.5176094 L100.423981,18.5176094 C100.95314,18.5176094 101.325951,18.6232647 101.542426,18.8345784 C101.7589,19.0458922 101.867135,19.3550318 101.867135,19.7620064 C101.867135,20.0281052 101.827048,20.2746342 101.746872,20.5016009 L101.607902,20.8668327 C101.588304,20.9129214 101.570487,20.9516185 101.554452,20.9829242 L96.9363586,20.9829242 L96.9363586,26.2187834 C96.9363586,26.625758 96.9924807,26.9583765 97.1047266,27.2166489 C97.2169725,27.4749212 97.3733126,27.6823187 97.5737517,27.8388474 C97.7741908,27.9953761 98.0066966,28.1049445 98.2712762,28.167556 C98.5358558,28.2301675 98.8124575,28.2614728 99.1010898,28.2614728 C99.5661085,28.2614728 99.9990504,28.1910359 100.399929,28.0501601 C100.800807,27.9092842 101.089435,27.7762368 101.265821,27.6510139 L102.372239,29.4354322 L102.046194,29.6545711 C101.980272,29.6963118 101.90856,29.7406615 101.831056,29.7876201 C101.598547,29.9284959 101.313928,30.0615433 100.97719,30.1867663 C100.640453,30.3119892 100.263633,30.4176445 99.8467195,30.5037353 C99.4298062,30.5898261 98.9728119,30.6328709 98.475723,30.6328709 C97.0646319,30.6328709 95.998312,30.2767734 95.2767313,29.5645678 C94.5551506,28.8523621 94.1943657,27.9171171 94.1943657,26.7588047 L94.1943657,16.4279616 C94.1943657,15.9896812 94.3226448,15.6727153 94.5792068,15.4770544 C94.8357688,15.2813935 95.1885363,15.1835646 95.6375199,15.1835646 Z M113.236739,18.5176094 C113.541407,18.5176094 113.814,18.5528278 114.054527,18.6232657 L114.428678,18.7380529 C114.473219,18.7528361 114.508853,18.7654452 114.535578,18.7758805 L114.535578,25.5378869 C114.535578,26.3361833 114.395273,27.0522914 114.114658,27.6862327 C113.834043,28.3201739 113.433171,28.8562767 112.91203,29.2945571 C112.390888,29.7328375 111.769536,30.065456 111.047956,30.2924226 C110.326375,30.5193893 109.532648,30.6328709 108.666751,30.6328709 C107.800854,30.6328709 107.007128,30.5193893 106.285547,30.2924226 C105.563966,30.065456 104.946623,29.7328375 104.433499,29.2945571 C103.920375,28.8562767 103.519503,28.3201739 103.230871,27.6862327 C102.942238,27.0522914 102.797924,26.3361833 102.797924,25.5378869 L102.797924,19.7620064 C102.797924,19.323726 102.926203,19.0067601 103.182765,18.8110993 C103.439327,18.6154384 103.800112,18.5176094 104.265131,18.5176094 C104.553763,18.5176094 104.818339,18.5528278 105.058866,18.6232657 L105.433017,18.7380529 C105.477559,18.7528361 105.513192,18.7654452 105.539917,18.7758805 L105.539917,24.9509072 C105.539917,26.0153024 105.796475,26.8253263 106.309599,27.3810032 C106.822723,27.9366801 107.608433,28.2145144 108.666751,28.2145144 C109.72507,28.2145144 110.510779,27.9366801 111.023903,27.3810032 C111.537027,26.8253263 111.793585,26.0153024 111.793585,24.9509072 L111.793585,19.7620064 C111.793585,19.323726 111.921864,19.0067601 112.178426,18.8110993 C112.434988,18.6154384 112.787756,18.5176094 113.236739,18.5176094 Z M129.626069,18.1889007 C130.572142,18.1889007 131.434017,18.2789034 132.21172,18.4589114 C132.989424,18.6389194 133.65888,18.92458 134.22011,19.3159018 C134.781339,19.7072236 135.21829,20.2237606 135.530975,20.8655283 C135.84366,21.507296 136,22.2821015 136,23.189968 L136,30.2572038 L135.690324,30.3070971 L134.877547,30.4019922 L134.027689,30.4802561 C133.562671,30.5193883 133.041537,30.5546067 132.464272,30.5859125 C131.887008,30.6172182 131.2857,30.6328709 130.66033,30.6328709 C129.40959,30.6328709 128.387366,30.5272156 127.593627,30.3159018 C126.799888,30.1045881 126.174528,29.8228406 125.717527,29.470651 C125.260526,29.1184614 124.947845,28.7114929 124.779476,28.2497332 C124.611108,27.7879735 124.526925,27.3144813 124.526925,26.8292423 C124.526925,26.1874746 124.627143,25.6239797 124.827582,25.1387407 C125.028021,24.6535017 125.356736,24.2465331 125.813737,23.9178228 C126.270738,23.5891126 126.868038,23.3425835 127.605653,23.1782284 C128.343269,23.0138732 129.241223,22.9316969 130.299541,22.9316969 C130.705764,22.9316969 131.09773,22.9403928 131.475444,22.9577848 L132.746891,23.046158 C132.951337,23.0637673 133.121709,23.0803984 133.258007,23.0960512 C133.258007,22.5482007 133.165807,22.0942743 132.981403,21.7342583 C132.796999,21.3742422 132.544448,21.0924948 132.223747,20.8890075 C131.903044,20.6855201 131.518207,20.5446464 131.069223,20.4663821 C130.62024,20.3881177 130.123158,20.3489861 129.577964,20.3489861 C128.663962,20.3489861 127.930366,20.4507283 127.377154,20.6542156 C126.823942,20.8577029 126.459148,21.0298819 126.282762,21.1707577 C126.186551,21.0924934 126.054263,20.9437933 125.885895,20.7246531 C125.717526,20.505513 125.633343,20.2394181 125.633343,19.9263607 C125.633343,19.7072205 125.693474,19.4919968 125.813737,19.280683 C125.934,19.0693693 126.146463,18.8815376 126.45113,18.7171825 C126.755797,18.5528274 127.164687,18.4236931 127.677811,18.3297759 C128.190935,18.2358587 128.840348,18.1889007 129.626069,18.1889007 Z M76.3756224,13 C77.6905028,13 78.6205262,13.1526132 79.1657205,13.4578442 C79.7109147,13.7630752 79.9835078,14.1504779 79.9835078,14.620064 C79.9835078,14.8861628 79.9073421,15.1209524 79.7550084,15.3244397 C79.6026747,15.527927 79.4383171,15.6844534 79.2619307,15.7940235 C79.0053687,15.5905362 78.6566099,15.4261835 78.215644,15.3009605 C77.774678,15.1757375 77.3056576,15.113127 76.8085687,15.113127 C75.8624962,15.113127 75.189031,15.3479165 74.7881529,15.8175027 C74.3872747,16.2870888 74.1868386,16.9523258 74.1868386,17.8132337 L74.1868386,18.5176094 L77.794724,18.5176094 C78.3238832,18.5176094 78.6966943,18.6232647 78.9131685,18.8345784 C79.1296427,19.0458922 79.2378782,19.3550318 79.2378782,19.7620064 C79.2378782,20.0281052 79.1977909,20.2746342 79.1176153,20.5016009 L78.9786449,20.8668327 C78.9590466,20.9129214 78.9412299,20.9516185 78.9251948,20.9829242 L74.1868386,20.9829242 L74.1868386,30.3041622 L71.4448458,30.3041622 L71.4448458,17.7897545 C71.4448458,16.9444995 71.5651074,16.2166519 71.8056343,15.60619 C72.0461612,14.995728 72.3869025,14.4987568 72.8278685,14.1152615 C73.2688345,13.7317661 73.7899682,13.4500187 74.3912855,13.2700107 C74.9926027,13.0900027 75.6540417,13 76.3756224,13 Z M121.479509,18.1889007 C122.489722,18.1889007 123.31151,18.3258613 123.944898,18.5997866 C124.578285,18.8737118 124.894974,19.2924198 124.894974,19.8559232 C124.894974,20.122022 124.818808,20.3802905 124.666475,20.6307364 C124.514141,20.8811823 124.389871,21.0377087 124.29366,21.1003202 C124.021063,20.9750972 123.68433,20.8577024 123.283452,20.7481323 C122.882574,20.6385622 122.42558,20.583778 121.912456,20.583778 C120.036346,20.583778 119.098305,21.5542415 119.098305,23.4951974 L119.098305,30.3041622 L116.356312,30.3041622 L116.356312,22.7203842 C116.356312,21.2803201 116.809298,20.1650698 117.715282,19.3745998 C118.621267,18.5841298 119.875997,18.1889007 121.479509,18.1889007 Z M35.8688269,24.810032 C34.7784383,24.810032 33.9847114,24.9704715 33.4876225,25.2913554 C32.9905336,25.6122392 32.7419929,26.1170368 32.7419929,26.8057631 C32.7419929,27.0875147 32.7941063,27.3457832 32.8983346,27.5805763 C33.0025629,27.8153694 33.1829554,28.0149405 33.4395174,28.1792956 C33.6960794,28.3436508 34.0448382,28.4688719 34.4858041,28.5549626 C34.9267701,28.6410534 35.475965,28.6840982 36.1334051,28.6840982 L36.9454208,28.6709499 C37.1917187,28.6621844 37.4136429,28.6490361 37.6111945,28.6315049 L38.3395075,28.5418142 C38.5300036,28.5145784 38.6685455,28.4915689 38.7551352,28.4727855 L38.7551352,25.0448239 L38.15758,24.9479724 L37.8531638,24.9039488 C37.4121979,24.8413373 36.7507544,24.810032 35.8688269,24.810032 Z M130.395751,24.810032 C129.305363,24.810032 128.511636,24.9704715 128.014547,25.2913554 C127.517458,25.6122392 127.268917,26.1170368 127.268917,26.8057631 C127.268917,27.0875147 127.321031,27.3457832 127.425259,27.5805763 C127.529487,27.8153694 127.70988,28.0149405 127.966442,28.1792956 C128.223004,28.3436508 128.571763,28.4688719 129.012729,28.5549626 C129.453695,28.6410534 130.002889,28.6840982 130.66033,28.6840982 C131.305743,28.6840982 131.83452,28.6631261 132.246671,28.6211814 L132.416167,28.601921 L132.658618,28.5704588 L133.28206,28.4727855 L133.28206,25.0448239 C133.144616,25.0179904 132.904092,24.9796574 132.560483,24.9298239 L132.380088,24.9039488 L132.089051,24.8701386 C131.665726,24.8300674 131.101293,24.810032 130.395751,24.810032 Z M49.4512673,20.6072572 C48.906073,20.6072572 48.4049828,20.701173 47.9479817,20.8890075 C47.4909806,21.0768419 47.0981259,21.3351104 46.7694058,21.6638207 C46.4406857,21.992531 46.1841276,22.3877601 45.9997236,22.8495197 C45.8153197,23.3112794 45.7231191,23.8239033 45.7231191,24.3874066 C45.7231191,24.9352571 45.8153197,25.4439678 45.9997236,25.9135539 C46.1841276,26.38314 46.436677,26.7901086 46.7573795,27.1344717 C47.0780821,27.4788349 47.466928,27.7488428 47.9239291,27.9445037 C48.3809302,28.1401646 48.8900379,28.2379936 49.4512673,28.2379936 C49.9964616,28.2379936 50.4975518,28.1401646 50.9545529,27.9445037 C51.411554,27.7488428 51.8044087,27.4788349 52.1331287,27.1344717 C52.4618488,26.7901086 52.7143983,26.38314 52.8907847,25.9135539 C53.0671711,25.4439678 53.1553629,24.9352571 53.1553629,24.3874066 C53.1553629,23.855209 53.0671711,23.3582378 52.8907847,22.8964781 C52.7143983,22.4347184 52.4618488,22.0355762 52.1331287,21.6990395 C51.8044087,21.3625028 51.411554,21.096408 50.9545529,20.9007471 C50.4975518,20.7050862 49.9964616,20.6072572 49.4512673,20.6072572 Z M63.4907065,20.6072572 C62.9455122,20.6072572 62.444422,20.701173 61.9874209,20.8890075 C61.5304198,21.0768419 61.1375651,21.3351104 60.8088451,21.6638207 C60.480125,21.992531 60.2235668,22.3877601 60.0391628,22.8495197 C59.8547589,23.3112794 59.7625583,23.8239033 59.7625583,24.3874066 C59.7625583,24.9352571 59.8547589,25.4439678 60.0391628,25.9135539 C60.2235668,26.38314 60.4761162,26.7901086 60.7968188,27.1344717 C61.1175213,27.4788349 61.5063673,27.7488428 61.9633684,27.9445037 C62.4203695,28.1401646 62.9294771,28.2379936 63.4907065,28.2379936 C64.0359008,28.2379936 64.536991,28.1401646 64.9939921,27.9445037 C65.4509932,27.7488428 65.8438479,27.4788349 66.172568,27.1344717 C66.5012881,26.7901086 66.7538375,26.38314 66.9302239,25.9135539 C67.1066103,25.4439678 67.1948022,24.9352571 67.1948022,24.3874066 C67.1948022,23.855209 67.1066103,23.3582378 66.9302239,22.8964781 C66.7538375,22.4347184 66.5012881,22.0355762 66.172568,21.6990395 C65.8438479,21.3625028 65.4509932,21.096408 64.9939921,20.9007471 C64.536991,20.7050862 64.0359008,20.6072572 63.4907065,20.6072572 Z M19,12 L9,12 C8.44771525,12 8,12.4477153 8,13 L8,20.901 L13.1972472,13.4454061 C13.5175732,12.9858774 14.1667619,12.8617035 14.6472508,13.168056 C14.7683468,13.245265 14.8712558,13.3458011 14.9493923,13.4632308 L20,21.054 L20,13 C20,12.4477153 19.5522847,12 19,12 Z" id="Combined-Shape"></path>
            </g>
        </g>
    </g>
</svg>