<?xml version="1.0" encoding="UTF-8"?>
<svg width="140px" height="46px" viewBox="0 0 140 46" version="1.1" xmlns="http://www.w3.org/2000/svg" xmlns:xlink="http://www.w3.org/1999/xlink">
    <!-- Generator: Sketch 58 (84663) - https://sketch.com -->
    <title>footer-logo-2</title>
    <desc>Created with Sketch.</desc>
    <g id="Header-&amp;-Footer" stroke="none" stroke-width="1" fill="none" fill-rule="evenodd">
        <g id="Group-5" fill="#FFFFFF">
            <g id="Group-17">
                <path d="M89.5330294,28.886873 C89.8460508,28.886873 90.1343557,28.9437917 90.3979527,29.0576307 C90.6615496,29.1714698 90.8908206,29.3279962 91.0857726,29.5272145 C91.2807245,29.7264329 91.4331142,29.9654913 91.5429463,30.244397 C91.6527783,30.5233027 91.7076935,30.8249717 91.7076935,31.149413 C91.7076935,31.4795463 91.6541512,31.7826382 91.5470649,32.058698 C91.4399787,32.3347577 91.2917076,32.5723932 91.1022473,32.7716115 C90.912787,32.9708299 90.6903804,33.1259333 90.4350208,33.2369264 C90.1796612,33.3479194 89.9009665,33.4034152 89.5989283,33.4034152 C89.2859069,33.4034152 89.0085851,33.3408046 88.7669546,33.2155816 C88.525324,33.0903587 88.3358665,32.9366782 88.1985765,32.7545358 L88.1985765,35 L87.259517,35 L87.259517,31.3457844 C87.259517,30.9473477 87.3144322,30.5958749 87.4242642,30.2913554 C87.5340963,29.9868359 87.6878589,29.7307019 87.8855566,29.5229456 C88.0832543,29.3151893 88.3221355,29.15724 88.6022073,29.0490928 C88.8822791,28.9409457 89.19255,28.886873 89.5330294,28.886873 Z M122.021193,28.886873 C122.334215,28.886873 122.622519,28.9437917 122.886116,29.0576307 C123.149713,29.1714698 123.378984,29.3279962 123.573936,29.5272145 C123.768888,29.7264329 123.921278,29.9654913 124.03111,30.244397 C124.140942,30.5233027 124.195857,30.8249717 124.195857,31.149413 C124.195857,31.4795463 124.142315,31.7826382 124.035229,32.058698 C123.928142,32.3347577 123.779871,32.5723932 123.590411,32.7716115 C123.400951,32.9708299 123.178544,33.1259333 122.923185,33.2369264 C122.667825,33.3479194 122.38913,33.4034152 122.087092,33.4034152 C121.774071,33.4034152 121.496749,33.3408046 121.255118,33.2155816 C121.013488,33.0903587 120.82403,32.9366782 120.68674,32.7545358 L120.68674,35 L119.747681,35 L119.747681,31.3457844 C119.747681,30.9473477 119.802596,30.5958749 119.912428,30.2913554 C120.02226,29.9868359 120.176023,29.7307019 120.37372,29.5229456 C120.571418,29.3151893 120.810299,29.15724 121.090371,29.0490928 C121.370443,28.9409457 121.680714,28.886873 122.021193,28.886873 Z M84.590611,28.886873 C84.9036324,28.886873 85.1919373,28.9437917 85.4555342,29.0576307 C85.7191312,29.1714698 85.9484022,29.3279962 86.1433541,29.5272145 C86.3383061,29.7264329 86.4906958,29.9654913 86.6005278,30.244397 C86.7103599,30.5233027 86.7652751,30.8249717 86.7652751,31.149413 C86.7652751,31.4795463 86.7117328,31.7826382 86.6046465,32.058698 C86.4975602,32.3347577 86.3492892,32.5723932 86.1598289,32.7716115 C85.9703685,32.9708299 85.7479619,33.1259333 85.4926024,33.2369264 C85.2372428,33.3479194 84.9585481,33.4034152 84.6565099,33.4034152 C84.3434885,33.4034152 84.0661667,33.3408046 83.8245361,33.2155816 C83.5829056,33.0903587 83.3934481,32.9366782 83.256158,32.7545358 L83.256158,35 L82.3170985,35 L82.3170985,31.3457844 C82.3170985,30.9473477 82.3720137,30.5958749 82.4818458,30.2913554 C82.5916779,29.9868359 82.7454405,29.7307019 82.9431382,29.5229456 C83.1408359,29.3151893 83.3797171,29.15724 83.6597889,29.0490928 C83.9398606,28.9409457 84.2501316,28.886873 84.590611,28.886873 Z M45.1336372,28.886873 C45.4466586,28.886873 45.7349635,28.9437917 45.9985605,29.0576307 C46.2621574,29.1714698 46.4914284,29.3279962 46.6863804,29.5272145 C46.8813323,29.7264329 47.033722,29.9654913 47.1435541,30.244397 C47.2533861,30.5233027 47.3083013,30.8249717 47.3083013,31.149413 C47.3083013,31.4795463 47.254759,31.7826382 47.1476727,32.058698 C47.0405865,32.3347577 46.8923154,32.5723932 46.7028551,32.7716115 C46.5133948,32.9708299 46.2909882,33.1259333 46.0356286,33.2369264 C45.780269,33.3479194 45.5015743,33.4034152 45.1995361,33.4034152 C44.8865147,33.4034152 44.6091929,33.3408046 44.3675624,33.2155816 C44.1259318,33.0903587 43.9364743,32.9366782 43.7991843,32.7545358 L43.7991843,35 L42.8601248,35 L42.8601248,31.3457844 C42.8601248,30.9473477 42.91504,30.5958749 43.024872,30.2913554 C43.1347041,29.9868359 43.2884667,29.7307019 43.4861644,29.5229456 C43.6838622,29.3151893 43.9227433,29.15724 44.2028151,29.0490928 C44.4828869,28.9409457 44.7931578,28.886873 45.1336372,28.886873 Z M27,11 L27,17 L13,17 C11.4023191,17 10.0963391,18.24892 10.0050927,19.8237272 L10,20 L10,34 L4,34 L4,19 C4,14.581722 7.581722,11 12,11 L27,11 Z M27,19 L27,26 C27,30.418278 23.418278,34 19,34 L12,34 L12,27 L20,27 L20,25 L12,25 L12,20 C12,19.4871642 12.3860402,19.0644928 12.8833789,19.0067277 L13,19 L27,19 Z M116.996401,28.886873 C117.314914,28.886873 117.612829,28.9437917 117.890155,29.0576307 C118.167481,29.1714698 118.407735,29.3294191 118.610925,29.5314835 C118.814114,29.7335478 118.973368,29.9726062 119.088692,30.248666 C119.204015,30.5247257 119.261676,30.8249717 119.261676,31.149413 C119.261676,31.4681624 119.204015,31.7655625 119.088692,32.0416222 C118.973368,32.3176819 118.814114,32.5567404 118.610925,32.7588047 C118.407735,32.960869 118.167481,33.1202413 117.890155,33.2369264 C117.612829,33.3536114 117.314914,33.411953 116.996401,33.411953 C116.677888,33.411953 116.379973,33.3536114 116.102647,33.2369264 C115.825321,33.1202413 115.585067,32.960869 115.381878,32.7588047 C115.178688,32.5567404 115.019434,32.3176819 114.904111,32.0416222 C114.788787,31.7655625 114.731126,31.4681624 114.731126,31.149413 C114.731126,30.8249717 114.788787,30.5247257 114.904111,30.248666 C115.019434,29.9726062 115.178688,29.7335478 115.381878,29.5314835 C115.585067,29.3294191 115.825321,29.1714698 116.102647,29.0576307 C116.379973,28.9437917 116.677888,28.886873 116.996401,28.886873 Z M133.965371,28.886873 C134.536498,28.886873 134.979938,28.9523295 135.295705,29.0832444 C135.611473,29.2141593 135.769354,29.3849153 135.769354,29.5955176 C135.769354,29.663821 135.756998,29.7235857 135.732286,29.7748132 C135.707573,29.8260408 135.680116,29.8715758 135.649912,29.9114194 C135.619708,29.9512631 135.588132,29.9839913 135.555182,30.0096051 L135.500267,30.0475513 L135.481046,30.0565635 C135.45908,30.0337957 135.411029,29.9982215 135.336892,29.9498399 C135.262756,29.9014583 135.162535,29.8530774 135.036228,29.8046958 C134.909922,29.7563142 134.758905,29.7136252 134.583173,29.6766275 C134.407442,29.6396298 134.204256,29.6211313 133.973608,29.6211313 C133.336582,29.6211313 133.018074,29.7947332 133.018074,30.1419424 C133.018074,30.2899331 133.078481,30.4023475 133.199296,30.4791889 C133.320112,30.5560303 133.493094,30.60868 133.71825,30.6371398 L134.558461,30.7481323 C135.014264,30.8107438 135.368467,30.9402338 135.621081,31.1366062 C135.873695,31.3329786 136,31.6218409 136,32.0032017 C136,32.4300982 135.836627,32.7716102 135.509877,33.0277481 C135.183126,33.283886 134.712228,33.411953 134.097169,33.411953 C133.800622,33.411953 133.531538,33.3891856 133.289907,33.3436499 C133.048277,33.2981143 132.838226,33.2454645 132.659749,33.185699 C132.481272,33.1259335 132.337119,33.0675919 132.227287,33.0106724 L132.091371,32.9359658 C132.055675,32.9146211 132.029591,32.8968339 132.013116,32.8826041 L132.367322,32.2251868 L132.436476,32.2681924 L132.573257,32.3361793 C132.672105,32.3817149 132.794292,32.4286728 132.939819,32.4770544 C133.085347,32.525436 133.251465,32.5667021 133.43818,32.6008538 C133.624894,32.6350055 133.828081,32.6520811 134.047745,32.6520811 C134.333308,32.6520811 134.566698,32.613661 134.747921,32.5368196 C134.929144,32.4599783 135.019754,32.3276423 135.019754,32.1398079 C135.019754,31.9804332 134.962093,31.859481 134.846769,31.7769477 C134.750666,31.7081699 134.59164,31.6561919 134.369689,31.6210127 L133.586452,31.52508 C133.366788,31.5023122 133.164975,31.4610462 132.981006,31.4012807 C132.797037,31.3415152 132.639156,31.2604061 132.507358,31.1579509 C132.375559,31.0554958 132.272593,30.9288517 132.198456,30.7780149 C132.12432,30.6271782 132.087252,30.4464614 132.087252,30.2358591 C132.087252,30.0537166 132.121574,29.8815376 132.190219,29.719317 C132.258864,29.5570963 132.367322,29.4133766 132.515595,29.2881537 C132.663868,29.1629307 132.857444,29.064746 133.096329,28.9935966 C133.335214,28.9224472 133.624892,28.886873 133.965371,28.886873 Z M126.856526,28.886873 C127.142089,28.886873 127.394699,28.9252931 127.614363,29.0021345 C127.834028,29.0789758 128.019366,29.1814295 128.170385,29.3094984 C128.321405,29.4375673 128.435354,29.5869789 128.512236,29.7577375 C128.589119,29.9284961 128.627559,30.1106358 128.627559,30.3041622 C128.627559,30.5033806 128.591864,30.6840974 128.520473,30.846318 C128.449083,31.0085387 128.322778,31.1479895 128.141555,31.2646745 C127.960332,31.3813595 127.715959,31.4724294 127.408429,31.5378869 C127.1009,31.6033443 126.711002,31.6360726 126.238724,31.6360726 L125.929822,31.6318036 L125.620921,31.6189968 C125.664854,31.9092864 125.800769,32.1440759 126.028671,32.3233725 C126.256572,32.502669 126.581945,32.5923159 127.004798,32.5923159 C127.14758,32.5923159 127.279377,32.5809322 127.400192,32.5581644 C127.521007,32.5353965 127.629465,32.5069372 127.725568,32.4727855 L127.899468,32.4044824 L128.12508,32.2934899 L128.471049,32.9765208 L128.265115,33.0960512 C128.171758,33.1472788 128.055063,33.1956597 127.915027,33.2411953 C127.774991,33.2867309 127.612991,33.326574 127.429023,33.3607257 C127.245054,33.3948774 127.043241,33.411953 126.823576,33.411953 C126.516047,33.411953 126.229115,33.3635722 125.962772,33.266809 C125.696429,33.1700458 125.463039,33.0263261 125.262596,32.8356457 C125.062152,32.6449653 124.904271,32.4115987 124.788948,32.135539 C124.673624,31.8594792 124.615963,31.5421576 124.615963,31.1835646 C124.615963,30.8420474 124.672251,30.5304176 124.784829,30.248666 C124.897407,29.9669143 125.053915,29.7250099 125.254359,29.5229456 C125.454802,29.3208812 125.690938,29.1643549 125.962772,29.0533618 C126.234606,28.9423687 126.532521,28.886873 126.856526,28.886873 Z M62.2920665,27 C62.3909154,27 62.4815255,27.0128067 62.5638996,27.0384205 L62.7286468,27.0939168 L62.7286468,29.5442903 C62.8659369,29.3621478 63.0553944,29.2070444 63.297025,29.0789755 C63.5386555,28.9509065 63.8159773,28.886873 64.1289987,28.886873 C64.4310369,28.886873 64.7097316,28.9423687 64.9650912,29.0533618 C65.2204507,29.1643549 65.4428573,29.3208812 65.6323177,29.5229456 C65.821778,29.7250099 65.970049,29.9640683 66.0771353,30.2401281 C66.1842216,30.5161878 66.2377639,30.8192797 66.2377639,31.149413 C66.2377639,31.4738543 66.1828487,31.7755233 66.0730166,32.054429 C65.9631846,32.3333347 65.809422,32.5723932 65.6117242,32.7716115 C65.4140265,32.9708299 65.179264,33.1273562 64.9074296,33.2411953 C64.6355952,33.3550344 64.3376802,33.411953 64.0136756,33.411953 C63.689671,33.411953 63.391756,33.3607262 63.1199216,33.2582711 C62.8480873,33.1558159 62.6133247,33.0021355 62.415627,32.7972252 C62.2179293,32.5923149 62.0641667,32.3361793 61.9543346,32.0288154 C61.8445025,31.7214499 61.7895873,31.3600163 61.7895873,30.9445037 L61.7895873,27.452508 C61.7895873,27.2988253 61.8335195,27.1849879 61.9213852,27.1109925 C62.0092508,27.0369971 62.13281,27 62.2920665,27 Z M40.1088452,28.886873 C40.4273582,28.886873 40.7252732,28.9437917 41.0025992,29.0576307 C41.2799251,29.1714698 41.5201792,29.3294191 41.7233685,29.5314835 C41.9265579,29.7335478 42.085812,29.9726062 42.2011356,30.248666 C42.3164593,30.5247257 42.3741203,30.8249717 42.3741203,31.149413 C42.3741203,31.4681624 42.3164593,31.7655625 42.2011356,32.0416222 C42.085812,32.3176819 41.9265579,32.5567404 41.7233685,32.7588047 C41.5201792,32.960869 41.2799251,33.1202413 41.0025992,33.2369264 C40.7252732,33.3536114 40.4273582,33.411953 40.1088452,33.411953 C39.7903322,33.411953 39.4924171,33.3536114 39.2150912,33.2369264 C38.9377652,33.1202413 38.6975111,32.960869 38.4943218,32.7588047 C38.2911325,32.5567404 38.1318784,32.3176819 38.0165547,32.0416222 C37.901231,31.7655625 37.8435701,31.4681624 37.8435701,31.149413 C37.8435701,30.8249717 37.901231,30.5247257 38.0165547,30.248666 C38.1318784,29.9726062 38.2911325,29.7335478 38.4943218,29.5314835 C38.6975111,29.3294191 38.9377652,29.1714698 39.2150912,29.0576307 C39.4924171,28.9437917 39.7903322,28.886873 40.1088452,28.886873 Z M110.851328,28.886873 C111.136891,28.886873 111.389501,28.9252931 111.609165,29.0021345 C111.828829,29.0789758 112.014168,29.1814295 112.165187,29.3094984 C112.316206,29.4375673 112.430155,29.5869789 112.507038,29.7577375 C112.58392,29.9284961 112.622361,30.1106358 112.622361,30.3041622 C112.622361,30.5033806 112.586666,30.6840974 112.515275,30.846318 C112.443884,31.0085387 112.317579,31.1479895 112.136356,31.2646745 C111.955133,31.3813595 111.710761,31.4724294 111.403231,31.5378869 C111.095701,31.6033443 110.705803,31.6360726 110.233525,31.6360726 L109.924624,31.6318036 L109.615723,31.6189968 C109.659656,31.9092864 109.795571,32.1440759 110.023472,32.3233725 C110.251374,32.502669 110.576747,32.5923159 110.9996,32.5923159 C111.142382,32.5923159 111.274178,32.5809322 111.394994,32.5581644 C111.515809,32.5353965 111.624266,32.5069372 111.720369,32.4727855 L111.894269,32.4044824 L111.96749,32.3703308 L112.119882,32.2934899 L112.465851,32.9765208 L112.259917,33.0960512 C112.16656,33.1472788 112.049865,33.1956597 111.909829,33.2411953 C111.769793,33.2867309 111.607793,33.326574 111.423824,33.3607257 C111.239856,33.3948774 111.038042,33.411953 110.818378,33.411953 C110.510848,33.411953 110.223916,33.3635722 109.957574,33.266809 C109.691231,33.1700458 109.457841,33.0263261 109.257398,32.8356457 C109.056954,32.6449653 108.899073,32.4115987 108.783749,32.135539 C108.668426,31.8594792 108.610765,31.5421576 108.610765,31.1835646 C108.610765,30.8420474 108.667053,30.5304176 108.779631,30.248666 C108.892208,29.9669143 109.048717,29.7250099 109.24916,29.5229456 C109.449604,29.3208812 109.685739,29.1643549 109.957574,29.0533618 C110.229408,28.9423687 110.527323,28.886873 110.851328,28.886873 Z M59.0383077,28.886873 C59.3568207,28.886873 59.6547358,28.9437917 59.9320617,29.0576307 C60.2093877,29.1714698 60.4496418,29.3294191 60.6528311,29.5314835 C60.8560204,29.7335478 61.0152745,29.9726062 61.1305982,30.248666 C61.2459219,30.5247257 61.3035829,30.8249717 61.3035829,31.149413 C61.3035829,31.4681624 61.2459219,31.7655625 61.1305982,32.0416222 C61.0152745,32.3176819 60.8560204,32.5567404 60.6528311,32.7588047 C60.4496418,32.960869 60.2093877,33.1202413 59.9320617,33.2369264 C59.6547358,33.3536114 59.3568207,33.411953 59.0383077,33.411953 C58.7197947,33.411953 58.4218797,33.3536114 58.1445537,33.2369264 C57.8672278,33.1202413 57.6269737,32.960869 57.4237844,32.7588047 C57.2205951,32.5567404 57.0613409,32.3176819 56.9460173,32.0416222 C56.8306936,31.7655625 56.7730326,31.4681624 56.7730326,31.149413 C56.7730326,30.8249717 56.8306936,30.5247257 56.9460173,30.248666 C57.0613409,29.9726062 57.2205951,29.7335478 57.4237844,29.5314835 C57.6269737,29.3294191 57.8672278,29.1714698 58.1445537,29.0576307 C58.4218797,28.9437917 58.7197947,28.886873 59.0383077,28.886873 Z M72.4569738,28.886873 C72.7425371,28.886873 72.9951471,28.9252931 73.2148113,29.0021345 C73.4344754,29.0789758 73.6198142,29.1814295 73.7708333,29.3094984 C73.9218524,29.4375673 74.0358015,29.5869789 74.1126839,29.7577375 C74.1895664,29.9284961 74.228007,30.1106358 74.228007,30.3041622 C74.228007,30.5033806 74.1923122,30.6840974 74.1209213,30.846318 C74.0495305,31.0085387 73.9232255,31.1479895 73.7420026,31.2646745 C73.5607796,31.3813595 73.316407,31.4724294 73.0088772,31.5378869 C72.7013474,31.6033443 72.3114494,31.6360726 71.8391715,31.6360726 L71.5302703,31.6318036 L71.2213692,31.6189968 C71.265302,31.9092864 71.4012171,32.1440759 71.6291187,32.3233725 C71.8570202,32.502669 72.1823929,32.5923159 72.6052463,32.5923159 C72.748028,32.5923159 72.8798245,32.5809322 73.0006398,32.5581644 C73.1214551,32.5353965 73.2299126,32.5069372 73.3260157,32.4727855 L73.4999155,32.4044824 L73.5731366,32.3703308 L73.7255278,32.2934899 L74.0714971,32.9765208 L73.865563,33.0960512 C73.7722058,33.1472788 73.6555109,33.1956597 73.515475,33.2411953 C73.3754392,33.2867309 73.2134393,33.326574 73.0294706,33.3607257 C72.8455019,33.3948774 72.6436885,33.411953 72.4240243,33.411953 C72.1164945,33.411953 71.8295625,33.3635722 71.5632198,33.266809 C71.296877,33.1700458 71.0634874,33.0263261 70.8630438,32.8356457 C70.6626003,32.6449653 70.5047191,32.4115987 70.3893954,32.135539 C70.2740717,31.8594792 70.2164107,31.5421576 70.2164107,31.1835646 C70.2164107,30.8420474 70.2726988,30.5304176 70.3852767,30.248666 C70.4978546,29.9669143 70.6543629,29.7250099 70.8548065,29.5229456 C71.05525,29.3208812 71.2913854,29.1643549 71.5632198,29.0533618 C71.8350541,28.9423687 72.1329692,28.886873 72.4569738,28.886873 Z M102.169146,28.886873 C102.454709,28.886873 102.707319,28.9252931 102.926983,29.0021345 C103.146648,29.0789758 103.331986,29.1814295 103.483005,29.3094984 C103.634025,29.4375673 103.747974,29.5869789 103.824856,29.7577375 C103.901738,29.9284961 103.940179,30.1106358 103.940179,30.3041622 C103.940179,30.5033806 103.904484,30.6840974 103.833093,30.846318 C103.761703,31.0085387 103.635398,31.1479895 103.454175,31.2646745 C103.272952,31.3813595 103.028579,31.4724294 102.721049,31.5378869 C102.413519,31.6033443 102.023621,31.6360726 101.551344,31.6360726 L101.242442,31.6318036 L100.933541,31.6189968 C100.977474,31.9092864 101.113389,32.1440759 101.341291,32.3233725 C101.569192,32.502669 101.894565,32.5923159 102.317418,32.5923159 C102.4602,32.5923159 102.591997,32.5809322 102.712812,32.5581644 C102.833627,32.5353965 102.942085,32.5069372 103.038188,32.4727855 L103.212088,32.4044824 L103.285309,32.3703308 L103.4377,32.2934899 L103.783669,32.9765208 L103.577735,33.0960512 C103.484378,33.1472788 103.367683,33.1956597 103.227647,33.2411953 C103.087611,33.2867309 102.925611,33.326574 102.741643,33.3607257 C102.557674,33.3948774 102.355861,33.411953 102.136196,33.411953 C101.828667,33.411953 101.541735,33.3635722 101.275392,33.266809 C101.009049,33.1700458 100.775659,33.0263261 100.575216,32.8356457 C100.374772,32.6449653 100.216891,32.4115987 100.101567,32.135539 C99.9862438,31.8594792 99.9285829,31.5421576 99.9285829,31.1835646 C99.9285829,30.8420474 99.9848709,30.5304176 100.097449,30.248666 C100.210027,29.9669143 100.366535,29.7250099 100.566979,29.5229456 C100.767422,29.3208812 101.003558,29.1643549 101.275392,29.0533618 C101.547226,28.9423687 101.845141,28.886873 102.169146,28.886873 Z M96.1146833,27.3500534 C96.6363856,27.3500534 97.1045378,27.4197787 97.5191539,27.5592316 C97.9337699,27.6986844 98.2852273,27.8978998 98.5735365,28.1568837 C98.8618457,28.4158675 99.0828794,28.7317662 99.2366443,29.1045891 C99.3904092,29.477412 99.4672905,29.8943413 99.4672905,30.3553895 C99.4672905,30.8221297 99.3931549,31.2419049 99.2448816,31.6147279 C99.0966083,31.9875508 98.8783204,32.3048724 98.5900112,32.5667022 C98.301702,32.8285321 97.9447531,33.0291704 97.5191539,33.1686233 C97.0935546,33.3080761 96.6034363,33.3778015 96.0487844,33.3778015 L95.5827839,33.3746651 L95.1920982,33.3652561 L94.8767254,33.3495742 L94.8767254,33.3495742 L94.2859885,33.2924226 L94.2859885,27.9903949 C94.2859885,27.8424041 94.3134461,27.7257208 94.3683621,27.6403415 C94.4232782,27.5549622 94.5207527,27.4909287 94.6607885,27.4482391 C94.8008237,27.4055494 94.9875362,27.378513 95.2209293,27.3671291 L95.5319722,27.3562006 L95.9049594,27.3507364 L96.1146833,27.3500534 Z M37.8270953,27.4354322 C38.1510999,27.4354322 38.3130998,27.5891127 38.3130998,27.8964781 C38.3130998,28.0046252 38.2979981,28.1028099 38.2677943,28.1910352 C38.2375905,28.2792605 38.2115058,28.3376021 38.1895393,28.3660619 L36.1137236,28.3660619 L36.1137236,33.2924226 L35.1334773,33.2924226 L35.1334773,28.3660619 L33.4860045,28.3660619 C33.1619999,28.3660619 33,28.2123815 33,27.905016 C33,27.7968689 33.0164746,27.6986842 33.0494242,27.6104589 L33.1043399,27.4738527 C33.111662,27.4577256 33.1180689,27.4449188 33.1235605,27.4354322 L37.8270953,27.4354322 Z M67.3745202,29.0064034 C67.473369,29.0064034 67.5639791,29.0192101 67.6463532,29.0448239 L67.8111004,29.1003202 L67.8111004,33.2924226 L66.8720409,33.2924226 L66.8720409,29.4589114 C66.8720409,29.2995367 66.9159731,29.1842764 67.0038388,29.113127 C67.0917044,29.0419776 67.2152637,29.0064034 67.3745202,29.0064034 Z M79.137476,27.2817503 C79.2088669,27.2817503 79.2788837,27.2902881 79.3475288,27.3073639 C79.4161738,27.3244398 79.4765806,27.3443613 79.5287508,27.3671291 L79.6008278,27.4002135 L79.7223289,27.4695838 L79.8402879,27.697716 L79.9832883,27.9996153 L80.0641795,28.1782284 C80.2042154,28.4912858 80.3552322,28.8427586 80.5172345,29.2326574 L81.015595,30.4535752 L81.3395979,31.2713147 L81.6941479,32.1931699 L82.1029271,33.2924226 L81.015595,33.2924226 L80.9085093,33.0021345 L80.6850708,32.3778015 L80.4554543,31.7641409 L77.6959373,31.7641409 L77.5792411,32.0691336 L77.2397932,32.994664 L77.1357965,33.2924226 L76.1473129,33.2924226 L76.3656029,32.6979724 L76.6086052,32.058698 L76.7815901,31.6137787 L77.1440339,30.701174 C77.3307484,30.2372798 77.5243245,29.7662777 77.7247681,29.2881537 L78.1238224,28.3470893 L78.321977,27.8879402 L78.321977,27.8879402 C78.4208258,27.6602621 78.533402,27.5023128 78.6597089,27.4140875 C78.7860158,27.3258622 78.9452699,27.2817503 79.137476,27.2817503 Z M107.951775,29.0064034 C108.10554,29.0064034 108.230472,29.0334398 108.326575,29.0875133 L108.487204,29.185699 L108.420276,29.3980788 L108.318338,29.6766275 C108.23871,29.8843838 108.142608,30.1163274 108.03003,30.3724653 L107.667586,31.1750267 L107.284549,31.9903949 L106.926224,32.7289221 L106.642035,33.2924226 L105.71945,33.2924226 L105.348768,32.5720383 L105.011036,31.8964781 C104.890564,31.6515463 104.77965,31.4214743 104.678292,31.20626 L104.459133,30.7310566 L104.29175,30.3485588 C104.216625,30.1709711 104.154351,30.0138747 104.104926,29.8772679 L104.036282,29.6761528 C103.999671,29.5597846 103.981366,29.4788334 103.981366,29.4332978 C103.981366,29.3137667 104.019807,29.2127361 104.096689,29.1302028 C104.173572,29.0476695 104.291639,29.0064034 104.450896,29.0064034 C104.566219,29.0064034 104.660948,29.0177872 104.735085,29.040555 L104.822607,29.0704376 C104.843887,29.0789755 104.857272,29.0860903 104.862764,29.0917823 C104.972596,29.3991477 105.090664,29.7107775 105.216971,30.0266809 C105.301175,30.2372832 105.384769,30.4402942 105.467752,30.6357166 L105.712585,31.1963718 L105.93774,31.6915688 L106.205454,32.2593383 L106.368142,31.9242264 L106.543186,31.5336179 C106.664001,31.2547122 106.780696,30.9786566 106.893274,30.7054429 L107.332985,29.6197651 C107.356708,29.5592032 107.376258,29.5084314 107.391635,29.4674493 C107.446551,29.3251505 107.512449,29.2127361 107.589331,29.1302028 C107.666214,29.0476695 107.787027,29.0064034 107.951775,29.0064034 Z M55.174984,27.4354322 C55.3342405,27.4354322 55.4687828,27.4567767 55.5786148,27.4994664 C55.6884469,27.542156 55.7570909,27.5777302 55.7845489,27.60619 L55.9849914,31.2333685 L56.0494317,32.3745994 L56.0975688,33.2924226 L55.1337972,33.2924226 L54.9569513,29.9583773 L54.8949136,28.9295624 L54.2822597,30.2091782 L53.646953,31.5559111 L53.3710013,32.1483458 L52.5637396,32.1483458 L52.3475914,31.6674924 L51.6493922,30.1867663 L51.2241382,29.3094982 L51.0398273,28.9466382 L51.0398273,28.9466382 L50.9008217,31.5602989 L50.8174184,33.2924226 L49.8454095,33.2924226 L49.8888845,32.362267 L50.0531455,29.3137668 L50.1337172,27.9989328 C50.1447004,27.7940225 50.2105987,27.6488798 50.3314139,27.5635005 C50.4522292,27.4781212 50.5895173,27.4354322 50.7432821,27.4354322 C50.9135219,27.4354322 51.0535556,27.4610456 51.1633877,27.5122732 C51.2732198,27.5635008 51.3501011,27.6118817 51.3940339,27.6574173 L52.3660429,29.6862327 L52.9920825,30.9615795 L53.7622761,29.3692636 L54.4418586,27.9391676 C54.5187411,27.7741009 54.6148427,27.6488798 54.7301663,27.5635005 C54.84549,27.4781212 54.993762,27.4354322 55.174984,27.4354322 Z M69.1537908,27 C69.2526396,27 69.3432497,27.0128067 69.4256238,27.0384205 L69.5903711,27.0939168 L69.5903711,33.2924226 L68.6513116,33.2924226 L68.6513116,27.452508 C68.6513116,27.2988253 68.6952437,27.1849879 68.7831094,27.1109925 C68.8709751,27.0369971 68.9945343,27 69.1537908,27 Z M113.660269,27 C113.759118,27 113.849728,27.0128067 113.932102,27.0384205 L114.096849,27.0939168 L114.096849,33.2924226 L113.15779,33.2924226 L113.15779,27.452508 C113.15779,27.2988253 113.201722,27.1849879 113.289587,27.1109925 C113.377453,27.0369971 113.501012,27 113.660269,27 Z M130.87636,28.886873 C131.222331,28.886873 131.503771,28.9366768 131.720689,29.036286 C131.937608,29.1358952 132.046065,29.2881527 132.046065,29.493063 C132.046065,29.5898262 132.019981,29.683742 131.96781,29.7748132 C131.91564,29.8658845 131.873081,29.9228032 131.840131,29.945571 C131.746774,29.9000353 131.631452,29.8573463 131.494162,29.8175027 C131.356872,29.777659 131.200363,29.7577375 131.024632,29.7577375 C130.382115,29.7577375 130.060861,30.1106333 130.060861,30.8164354 L130.060861,33.2924226 L129.121801,33.2924226 L129.121801,30.5346852 C129.121801,30.0110255 129.276936,29.6054799 129.587212,29.3180363 C129.897488,29.0305927 130.327199,28.886873 130.87636,28.886873 Z M116.996401,29.7406617 C116.804195,29.7406617 116.629839,29.7762359 116.473329,29.8473853 C116.316818,29.9185347 116.182276,30.0167194 116.069698,30.1419424 C115.95712,30.2671653 115.869255,30.4165769 115.806102,30.5901814 C115.742949,30.763786 115.711372,30.9501947 115.711372,31.149413 C115.711372,31.3486314 115.742949,31.5321941 115.806102,31.7001067 C115.869255,31.8680193 115.95712,32.0160079 116.069698,32.1440768 C116.182276,32.2721458 116.316818,32.3717535 116.473329,32.4429029 C116.629839,32.5140523 116.804195,32.5496265 116.996401,32.5496265 C117.183116,32.5496265 117.356099,32.5140523 117.515355,32.4429029 C117.674612,32.3717535 117.810527,32.2721458 117.923105,32.1440768 C118.035682,32.0160079 118.123547,31.8680193 118.1867,31.7001067 C118.249854,31.5321941 118.28143,31.3486314 118.28143,31.149413 C118.28143,30.9501947 118.249854,30.763786 118.1867,30.5901814 C118.123547,30.4165769 118.035682,30.2671653 117.923105,30.1419424 C117.810527,30.0167194 117.674612,29.9185347 117.515355,29.8473853 C117.356099,29.7762359 117.183116,29.7406617 116.996401,29.7406617 Z M40.1088452,29.7406617 C39.916639,29.7406617 39.7422833,29.7762359 39.5857726,29.8473853 C39.4292619,29.9185347 39.2947196,30.0167194 39.1821417,30.1419424 C39.0695638,30.2671653 38.9816995,30.4165769 38.9185461,30.5901814 C38.8553926,30.763786 38.8238164,30.9501947 38.8238164,31.149413 C38.8238164,31.3486314 38.8553926,31.5321941 38.9185461,31.7001067 C38.9816995,31.8680193 39.0695638,32.0160079 39.1821417,32.1440768 C39.2947196,32.2721458 39.4292619,32.3717535 39.5857726,32.4429029 C39.7422833,32.5140523 39.916639,32.5496265 40.1088452,32.5496265 C40.2955597,32.5496265 40.4685426,32.5140523 40.6277991,32.4429029 C40.7870556,32.3717535 40.9229708,32.2721458 41.0355486,32.1440768 C41.1481265,32.0160079 41.2359908,31.8680193 41.2991443,31.7001067 C41.3622977,31.5321941 41.393874,31.3486314 41.393874,31.149413 C41.393874,30.9501947 41.3622977,30.763786 41.2991443,30.5901814 C41.2359908,30.4165769 41.1481265,30.2671653 41.0355486,30.1419424 C40.9229708,30.0167194 40.7870556,29.9185347 40.6277991,29.8473853 C40.4685426,29.7762359 40.2955597,29.7406617 40.1088452,29.7406617 Z M59.0383077,29.7406617 C58.8461016,29.7406617 58.6717458,29.7762359 58.5152351,29.8473853 C58.3587244,29.9185347 58.2241822,30.0167194 58.1116043,30.1419424 C57.9990264,30.2671653 57.9111621,30.4165769 57.8480086,30.5901814 C57.7848552,30.763786 57.753279,30.9501947 57.753279,31.149413 C57.753279,31.3486314 57.7848552,31.5321941 57.8480086,31.7001067 C57.9111621,31.8680193 57.9990264,32.0160079 58.1116043,32.1440768 C58.2241822,32.2721458 58.3587244,32.3717535 58.5152351,32.4429029 C58.6717458,32.5140523 58.8461016,32.5496265 59.0383077,32.5496265 C59.2250223,32.5496265 59.3980052,32.5140523 59.5572617,32.4429029 C59.7165182,32.3717535 59.8524333,32.2721458 59.9650112,32.1440768 C60.0775891,32.0160079 60.1654534,31.8680193 60.2286068,31.7001067 C60.2917603,31.5321941 60.3233365,31.3486314 60.3233365,31.149413 C60.3233365,30.9501947 60.2917603,30.763786 60.2286068,30.5901814 C60.1654534,30.4165769 60.0775891,30.2671653 59.9650112,30.1419424 C59.8524333,30.0167194 59.7165182,29.9185347 59.5572617,29.8473853 C59.3980052,29.7762359 59.2250223,29.7406617 59.0383077,29.7406617 Z M84.5247121,29.7662753 C84.3379976,29.7662753 84.1663875,29.8004266 84.0098768,29.86873 C83.8533661,29.9370334 83.7188239,30.0309492 83.606246,30.1504803 C83.4936681,30.2700113 83.4058038,30.4137309 83.3426504,30.5816435 C83.2794969,30.7495562 83.2479207,30.9359648 83.2479207,31.1408751 C83.2479207,31.3400935 83.2794969,31.5250792 83.3426504,31.6958378 C83.4058038,31.8665964 83.4922952,32.0145849 83.6021273,32.1398079 C83.7119594,32.2650309 83.8451288,32.3632156 84.0016395,32.434365 C84.1581502,32.5055144 84.332506,32.5410886 84.5247121,32.5410886 C84.7114266,32.5410886 84.8830366,32.5055144 85.0395473,32.434365 C85.196058,32.3632156 85.3306003,32.2650309 85.4431782,32.1398079 C85.5557561,32.0145849 85.6422475,31.8665964 85.7026552,31.6958378 C85.7630628,31.5250792 85.7932662,31.3400935 85.7932662,31.1408751 C85.7932662,30.9473487 85.7630628,30.7666319 85.7026552,30.5987193 C85.6422475,30.4308067 85.5557561,30.2856641 85.4431782,30.1632871 C85.3306003,30.0409101 85.196058,29.9441483 85.0395473,29.8729989 C84.8830366,29.8018495 84.7114266,29.7662753 84.5247121,29.7662753 Z M89.4671305,29.7662753 C89.280416,29.7662753 89.108806,29.8004266 88.9522953,29.86873 C88.7957846,29.9370334 88.6612423,30.0309492 88.5486644,30.1504803 C88.4360866,30.2700113 88.3482222,30.4137309 88.2850688,30.5816435 C88.2219153,30.7495562 88.1903391,30.9359648 88.1903391,31.1408751 C88.1903391,31.3400935 88.2219153,31.5250792 88.2850688,31.6958378 C88.3482222,31.8665964 88.4347137,32.0145849 88.5445457,32.1398079 C88.6543778,32.2650309 88.7875472,32.3632156 88.9440579,32.434365 C89.1005686,32.5055144 89.2749244,32.5410886 89.4671305,32.5410886 C89.653845,32.5410886 89.8254551,32.5055144 89.9819658,32.434365 C90.1384765,32.3632156 90.2730187,32.2650309 90.3855966,32.1398079 C90.4981745,32.0145849 90.5846659,31.8665964 90.6450736,31.6958378 C90.7054812,31.5250792 90.7356846,31.3400935 90.7356846,31.1408751 C90.7356846,30.9473487 90.7054812,30.7666319 90.6450736,30.5987193 C90.5846659,30.4308067 90.4981745,30.2856641 90.3855966,30.1632871 C90.2730187,30.0409101 90.1384765,29.9441483 89.9819658,29.8729989 C89.8254551,29.8018495 89.653845,29.7662753 89.4671305,29.7662753 Z M45.0677383,29.7662753 C44.8810238,29.7662753 44.7094138,29.8004266 44.5529031,29.86873 C44.3963924,29.9370334 44.2618501,30.0309492 44.1492722,30.1504803 C44.0366944,30.2700113 43.94883,30.4137309 43.8856766,30.5816435 C43.8225231,30.7495562 43.7909469,30.9359648 43.7909469,31.1408751 C43.7909469,31.3400935 43.8225231,31.5250792 43.8856766,31.6958378 C43.94883,31.8665964 44.0353215,32.0145849 44.1451536,32.1398079 C44.2549856,32.2650309 44.388155,32.3632156 44.5446657,32.434365 C44.7011764,32.5055144 44.8755322,32.5410886 45.0677383,32.5410886 C45.2544528,32.5410886 45.4260629,32.5055144 45.5825736,32.434365 C45.7390843,32.3632156 45.8736265,32.2650309 45.9862044,32.1398079 C46.0987823,32.0145849 46.1852737,31.8665964 46.2456814,31.6958378 C46.306089,31.5250792 46.3362924,31.3400935 46.3362924,31.1408751 C46.3362924,30.9473487 46.306089,30.7666319 46.2456814,30.5987193 C46.1852737,30.4308067 46.0987823,30.2856641 45.9862044,30.1632871 C45.8736265,30.0409101 45.7390843,29.9441483 45.5825736,29.8729989 C45.4260629,29.8018495 45.2544528,29.7662753 45.0677383,29.7662753 Z M121.955294,29.7662753 C121.76858,29.7662753 121.59697,29.8004266 121.440459,29.86873 C121.283948,29.9370334 121.149406,30.0309492 121.036828,30.1504803 C120.92425,30.2700113 120.836386,30.4137309 120.773233,30.5816435 C120.710079,30.7495562 120.678503,30.9359648 120.678503,31.1408751 C120.678503,31.3400935 120.710079,31.5250792 120.773233,31.6958378 C120.836386,31.8665964 120.922877,32.0145849 121.03271,32.1398079 C121.142542,32.2650309 121.275711,32.3632156 121.432222,32.434365 C121.588732,32.5055144 121.763088,32.5410886 121.955294,32.5410886 C122.142009,32.5410886 122.313619,32.5055144 122.47013,32.434365 C122.62664,32.3632156 122.761183,32.2650309 122.87376,32.1398079 C122.986338,32.0145849 123.07283,31.8665964 123.133237,31.6958378 C123.193645,31.5250792 123.223848,31.3400935 123.223848,31.1408751 C123.223848,30.9473487 123.193645,30.7666319 123.133237,30.5987193 C123.07283,30.4308067 122.986338,30.2856641 122.87376,30.1632871 C122.761183,30.0409101 122.62664,29.9441483 122.47013,29.8729989 C122.313619,29.8018495 122.142009,29.7662753 121.955294,29.7662753 Z M63.9972009,29.7577375 C63.8049948,29.7577375 63.630639,29.7933116 63.4741283,29.864461 C63.3176176,29.9356105 63.1844482,30.0337952 63.0746161,30.1590181 C62.9647841,30.2842411 62.8782926,30.4322297 62.8151392,30.6029883 C62.7519857,30.7737469 62.7204095,30.9558866 62.7204095,31.149413 C62.7204095,31.3543233 62.7519857,31.542155 62.8151392,31.7129136 C62.8782926,31.8836721 62.9661569,32.0288148 63.0787348,32.1483458 C63.1913127,32.2678768 63.3258549,32.3617926 63.4823656,32.4300961 C63.6388763,32.4983995 63.8104864,32.5325507 63.9972009,32.5325507 C64.1839154,32.5325507 64.3555254,32.4969765 64.5120361,32.4258271 C64.6685468,32.3546777 64.8030891,32.2579159 64.915667,32.135539 C65.0282449,32.013162 65.1147363,31.8680193 65.175144,31.7001067 C65.2355516,31.5321941 65.265755,31.3486314 65.265755,31.149413 C65.265755,30.9501947 65.2355516,30.765209 65.175144,30.5944504 C65.1147363,30.4236918 65.0282449,30.2771262 64.915667,30.1547492 C64.8030891,30.0323722 64.6685468,29.9356105 64.5120361,29.864461 C64.3555254,29.7933116 64.1839154,29.7577375 63.9972009,29.7577375 Z M96.131158,28.2465315 L95.8431794,28.2499466 L95.6118748,28.2601921 L95.6118748,28.2601921 L95.3222487,28.2888794 C95.2936926,28.2925222 95.2750214,28.295482 95.2662348,28.2977588 L95.2662348,32.4044824 C95.290947,32.4130203 95.3465488,32.4223586 95.4330411,32.4324973 L95.5298305,32.4429029 C95.6726121,32.4571328 95.8730527,32.4642476 96.131158,32.4642476 C96.8780161,32.4642476 97.4491343,32.2806849 97.8445298,31.9135539 C98.2399252,31.5464229 98.43762,31.02704 98.43762,30.3553895 C98.43762,30.0480241 98.3923149,29.7648537 98.3017035,29.5058698 C98.211092,29.2468859 98.0724311,29.0249031 97.8857166,28.8399146 C97.6990021,28.6549261 97.4601209,28.5097835 97.1690659,28.4044824 C96.8780109,28.2991813 96.5320451,28.2465315 96.131158,28.2465315 Z M102.152671,29.638207 C101.949482,29.638207 101.771007,29.6752042 101.617242,29.7491996 C101.463478,29.823195 101.334427,29.9213797 101.230086,30.0437567 C101.125746,30.1661337 101.044746,30.3070074 100.987084,30.4663821 C100.929422,30.6257568 100.897846,30.787975 100.892354,30.9530416 L101.077695,30.959445 L101.600768,30.9615795 C101.902806,30.9615795 102.147179,30.941658 102.333893,30.9018143 C102.520608,30.8619706 102.666133,30.8107438 102.770473,30.7481323 C102.874814,30.6855209 102.943458,30.6143725 102.976408,30.5346852 C103.009357,30.4549978 103.025832,30.3724657 103.025832,30.2870864 C103.025832,30.0707922 102.942086,29.908574 102.774592,29.8004269 C102.607098,29.6922798 102.399793,29.638207 102.152671,29.638207 Z M110.834853,29.638207 C110.631664,29.638207 110.453189,29.6752042 110.299424,29.7491996 C110.145659,29.823195 110.016609,29.9213797 109.912268,30.0437567 C109.807928,30.1661337 109.726928,30.3070074 109.669266,30.4663821 C109.611604,30.6257568 109.580028,30.787975 109.574536,30.9530416 L109.759877,30.959445 L110.282949,30.9615795 C110.584988,30.9615795 110.82936,30.941658 111.016075,30.9018143 C111.202789,30.8619706 111.348315,30.8107438 111.452655,30.7481323 C111.556996,30.6855209 111.62564,30.6143725 111.658589,30.5346852 C111.691539,30.4549978 111.708013,30.3724657 111.708013,30.2870864 C111.708013,30.0707922 111.624268,29.908574 111.456774,29.8004269 C111.28928,29.6922798 111.081975,29.638207 110.834853,29.638207 Z M72.440499,29.638207 C72.2373097,29.638207 72.0588353,29.6752042 71.9050704,29.7491996 C71.7513055,29.823195 71.6222547,29.9213797 71.5179143,30.0437567 C71.4135738,30.1661337 71.3325739,30.3070074 71.274912,30.4663821 C71.2172502,30.6257568 71.1856739,30.787975 71.1801823,30.9530416 L71.3655231,30.959445 L71.8885956,30.9615795 C72.1906338,30.9615795 72.4350065,30.941658 72.621721,30.9018143 C72.8084356,30.8619706 72.9539609,30.8107438 73.0583013,30.7481323 C73.1626418,30.6855209 73.2312858,30.6143725 73.2642354,30.5346852 C73.2971851,30.4549978 73.3136596,30.3724657 73.3136596,30.2870864 C73.3136596,30.0707922 73.2299139,29.908574 73.06242,29.8004269 C72.8949261,29.6922798 72.6876212,29.638207 72.440499,29.638207 Z M126.840051,29.638207 C126.636862,29.638207 126.458387,29.6752042 126.304623,29.7491996 C126.150858,29.823195 126.021807,29.9213797 125.917466,30.0437567 C125.813126,30.1661337 125.732126,30.3070074 125.674464,30.4663821 C125.616802,30.6257568 125.585226,30.787975 125.579734,30.9530416 L125.765075,30.959445 L126.288148,30.9615795 C126.590186,30.9615795 126.834559,30.941658 127.021273,30.9018143 C127.207988,30.8619706 127.353513,30.8107438 127.457853,30.7481323 C127.562194,30.6855209 127.630838,30.6143725 127.663788,30.5346852 C127.696737,30.4549978 127.713212,30.3724657 127.713212,30.2870864 C127.713212,30.0707922 127.629466,29.908574 127.461972,29.8004269 C127.294478,29.6922798 127.087173,29.638207 126.840051,29.638207 Z M79.0962892,28.3148346 L78.9425252,28.6620417 L78.7235485,29.1686232 L78.4455374,29.8377801 L78.3055022,30.1846318 C78.212145,30.4180019 78.1242806,30.6456766 78.0419066,30.8676628 L80.1259597,30.8676628 L79.9575515,30.418001 L79.5699376,29.4290288 L79.3850546,28.973675 L79.0962892,28.3148346 L79.0962892,28.3148346 Z M67.3415707,27.0853789 C67.5008272,27.0853789 67.6353695,27.1422975 67.7452015,27.2561366 C67.8550336,27.3699757 67.9099488,27.5094264 67.9099488,27.6744931 C67.9099488,27.8395597 67.8550336,27.9790105 67.7452015,28.0928495 C67.6353695,28.2066886 67.5008272,28.2636073 67.3415707,28.2636073 C67.1823142,28.2636073 67.0477719,28.2066886 66.9379399,28.0928495 C66.8281078,27.9790105 66.7731926,27.8395597 66.7731926,27.6744931 C66.7731926,27.5094264 66.8281078,27.3699757 66.9379399,27.2561366 C67.0477719,27.1422975 67.1823142,27.0853789 67.3415707,27.0853789 Z M38.922,12.144 C39.3046686,12.144 39.6499985,12.1673331 39.958,12.214 C40.2660015,12.2606669 40.5366655,12.3189997 40.77,12.389 C41.0033345,12.4590004 41.2016658,12.531333 41.365,12.606 L41.5837501,12.7145 C41.6479166,12.7494999 41.7033331,12.7833332 41.75,12.816 C41.9180008,12.9280006 42.0416663,13.0469994 42.121,13.173 C42.2003337,13.2990006 42.24,13.4273327 42.24,13.558 C42.24,13.6793339 42.2143336,13.7936661 42.163,13.901 C42.1116664,14.0083339 42.0510003,14.1063329 41.981,14.195 C41.9109997,14.2836671 41.838667,14.3606663 41.764,14.426 L41.6271112,14.538 C41.6063705,14.5535555 41.5866668,14.5675555 41.568,14.58 C41.4653328,14.4773328 41.3323342,14.3700006 41.169,14.258 C41.0056659,14.1459994 40.8096678,14.0456671 40.581,13.957 C40.3523322,13.8683329 40.0980014,13.793667 39.818,13.733 C39.5379986,13.672333 39.2300017,13.642 38.894,13.642 C38.3713307,13.642 37.8953355,13.7236659 37.466,13.887 C37.0366645,14.0503342 36.6633349,14.2859985 36.346,14.594 C36.0286651,14.9020015 35.7836675,15.2776645 35.611,15.721 C35.4383325,16.1643356 35.352,16.6613306 35.352,17.212 C35.352,17.8280031 35.4453324,18.3599978 35.632,18.808 C35.8186676,19.2560022 36.0846649,19.6223319 36.43,19.907 C36.7753351,20.1916681 37.1836643,20.4039993 37.655,20.544 C38.1263357,20.6840007 38.6513304,20.754 39.23,20.754 C39.4890013,20.754 39.7217499,20.7487501 39.9282497,20.73825 L40.126,20.726 L40.4340004,20.698 C40.5133335,20.6886667 40.5693332,20.6793334 40.602,20.67 L40.602,18.136 L38.964,18.136 C38.4133306,18.136 38.138,17.8933358 38.138,17.408 C38.138,17.2213324 38.1636664,17.0580007 38.215,16.918 C38.2663336,16.7779993 38.3106665,16.6846669 38.348,16.638 L41.246,16.638 C41.90867,16.638 42.24,16.9553302 42.24,17.59 L42.24,22.014 L42.1212801,22.03752 L41.9443203,22.06328 L41.9443203,22.06328 L41.127,22.154 C40.8516653,22.1820001 40.5460017,22.2053332 40.21,22.224 C39.8739983,22.2426668 39.5240018,22.252 39.16,22.252 C38.3479959,22.252 37.6013367,22.1446677 36.92,21.93 C36.2386633,21.7153323 35.6530024,21.3980021 35.163,20.978 C34.6729975,20.5579979 34.2903347,20.0330032 34.015,19.403 C33.7396653,18.7729969 33.602,18.0426708 33.602,17.212 C33.602,16.4279961 33.737332,15.7233365 34.008,15.098 C34.278668,14.4726635 34.6519976,13.9406689 35.128,13.502 C35.6040024,13.0633311 36.1663301,12.7273345 36.815,12.494 C37.4636699,12.2606655 38.1659962,12.144 38.922,12.144 Z M103.434,14.776 C104.404672,14.776 105.158331,14.8833323 105.695,15.098 C106.231669,15.3126677 106.5,15.5926649 106.5,15.938 C106.5,16.0500006 106.479,16.1479996 106.437,16.232 C106.395,16.3160004 106.348334,16.3906663 106.297,16.456 C106.245666,16.5213337 106.192,16.5749998 106.136,16.617 C106.08,16.6590002 106.038,16.6846666 106.01,16.694 C105.972666,16.6566665 105.891001,16.5983337 105.765,16.519 C105.638999,16.4396663 105.468668,16.3603337 105.254,16.281 C105.039332,16.2016663 104.782668,16.131667 104.484,16.071 C104.185332,16.010333 103.840002,15.98 103.448,15.98 C102.365328,15.98 101.824,16.2646638 101.824,16.834 C101.824,17.0766679 101.926666,17.2609994 102.132,17.387 C102.337334,17.5130006 102.631331,17.5993331 103.014,17.646 L104.442,17.828 C105.216671,17.9306672 105.818665,18.1429984 106.248,18.465 C106.677335,18.7870016 106.892,19.2606635 106.892,19.886 C106.892,20.5860035 106.614336,21.1459979 106.059,21.566 C105.503664,21.9860021 104.703339,22.196 103.658,22.196 C103.153997,22.196 102.696669,22.158667 102.286,22.084 C101.875331,22.009333 101.518335,21.9230005 101.215,21.825 C100.972332,21.7465996 100.767,21.6696935 100.599,21.5942801 L100.48,21.538 L100.28736,21.4371999 C100.20672,21.3923999 100.1496,21.3560001 100.116,21.328 L100.718,20.25 C100.750667,20.2733335 100.796167,20.3001667 100.8545,20.3304999 L101.068,20.432 C101.236001,20.506667 101.443665,20.5836663 101.691,20.663 C101.938335,20.7423337 102.220665,20.8099997 102.538,20.866 C102.855335,20.9220003 103.200665,20.95 103.574,20.95 C104.059336,20.95 104.455998,20.8870006 104.764,20.761 C105.072002,20.6349994 105.226,20.4180015 105.226,20.11 C105.226,19.8486654 105.128001,19.650334 104.932,19.515 C104.760499,19.3965827 104.471095,19.3085365 104.063782,19.2508594 L102.79,19.102 C102.416665,19.0646665 102.073668,18.9970005 101.761,18.899 C101.448332,18.8009995 101.180001,18.6680008 100.956,18.5 C100.731999,18.3319992 100.557001,18.1243346 100.431,17.877 C100.304999,17.6296654 100.242,17.3333351 100.242,16.988 C100.242,16.6893318 100.300333,16.4070013 100.417,16.141 C100.533667,15.8749987 100.717999,15.6393344 100.97,15.434 C101.222001,15.2286656 101.550998,15.0676673 101.957,14.951 C102.363002,14.8343328 102.85533,14.776 103.434,14.776 Z M67.944,11.682 C68.1120008,11.682 68.2659993,11.7029998 68.406,11.745 L68.64225,11.8198125 C68.65975,11.8259375 68.6743333,11.8313333 68.686,11.836 L68.686,18.15 C68.686,18.8313367 68.5903343,19.4239975 68.399,19.928 C68.2076657,20.4320025 67.9440017,20.8519983 67.608,21.188 C67.2719983,21.5240017 66.8753356,21.7759992 66.418,21.944 C65.9606644,22.1120008 65.461336,22.196 64.92,22.196 C64.3693306,22.196 63.8630023,22.1026676 63.401,21.916 C62.9389977,21.7293324 62.5400017,21.4726683 62.204,21.146 C61.8679983,20.8193317 61.6043343,20.4273356 61.413,19.97 C61.2216657,19.5126644 61.126,19.0180027 61.126,18.486 C61.126,17.944664 61.2169991,17.4476689 61.399,16.995 C61.5810009,16.5423311 61.8329984,16.150335 62.155,15.819 C62.4770016,15.487665 62.8549978,15.2310009 63.289,15.049 C63.7230022,14.8669991 64.1966641,14.776 64.71,14.776 C65.251336,14.776 65.7273313,14.880999 66.138,15.091 C66.5486687,15.3010011 66.8706655,15.5553318 67.104,15.854 L67.104,12.424 C67.104,12.1719987 67.1763326,11.9853339 67.321,11.864 C67.4656674,11.7426661 67.673332,11.682 67.944,11.682 Z M56.212,14.776 C56.753336,14.776 57.2596643,14.8693324 57.731,15.056 C58.2023357,15.2426676 58.6106649,15.501665 58.956,15.833 C59.3013351,16.164335 59.571999,16.5563311 59.768,17.009 C59.964001,17.4616689 60.062,17.9539973 60.062,18.486 C60.062,19.0086693 59.964001,19.4963311 59.768,19.949 C59.571999,20.4016689 59.3013351,20.793665 58.956,21.125 C58.6106649,21.456335 58.2023357,21.7176657 57.731,21.909 C57.2596643,22.1003343 56.753336,22.196 56.212,22.196 C55.670664,22.196 55.1643357,22.1003343 54.693,21.909 C54.2216643,21.7176657 53.8133351,21.456335 53.468,21.125 C53.1226649,20.793665 52.852001,20.4016689 52.656,19.949 C52.459999,19.4963311 52.362,19.0086693 52.362,18.486 C52.362,17.9539973 52.459999,17.4616689 52.656,17.009 C52.852001,16.5563311 53.1226649,16.164335 53.468,15.833 C53.8133351,15.501665 54.2216643,15.2426676 54.693,15.056 C55.1643357,14.8693324 55.670664,14.776 56.212,14.776 Z M47.448,14.776 C47.989336,14.776 48.4956643,14.8693324 48.967,15.056 C49.4383357,15.2426676 49.8466649,15.501665 50.192,15.833 C50.5373351,16.164335 50.807999,16.5563311 51.004,17.009 C51.200001,17.4616689 51.298,17.9539973 51.298,18.486 C51.298,19.0086693 51.200001,19.4963311 51.004,19.949 C50.807999,20.4016689 50.5373351,20.793665 50.192,21.125 C49.8466649,21.456335 49.4383357,21.7176657 48.967,21.909 C48.4956643,22.1003343 47.989336,22.196 47.448,22.196 C46.906664,22.196 46.4003357,22.1003343 45.929,21.909 C45.4576643,21.7176657 45.0493351,21.456335 44.704,21.125 C44.3586649,20.793665 44.088001,20.4016689 43.892,19.949 C43.695999,19.4963311 43.598,19.0086693 43.598,18.486 C43.598,17.9539973 43.695999,17.4616689 43.892,17.009 C44.088001,16.5563311 44.3586649,16.164335 44.704,15.833 C45.0493351,15.501665 45.4576643,15.2426676 45.929,15.056 C46.4003357,14.8693324 46.906664,14.776 47.448,14.776 Z M95.86,14.776 C96.2893355,14.776 96.6906648,14.8319994 97.064,14.944 C97.4373352,15.0560006 97.759332,15.2239989 98.03,15.448 C98.300668,15.6720011 98.5153325,15.9519983 98.674,16.288 C98.8326675,16.6240017 98.912,17.0159978 98.912,17.464 L98.912,22 L97.316,22 L97.316,18.01 C97.316,17.3659968 97.1713348,16.9063347 96.882,16.631 C96.5926652,16.3556653 96.2006691,16.218 95.706,16.218 C95.2299976,16.218 94.8310016,16.3719985 94.509,16.68 C94.1869984,16.9880015 94.026,17.4873299 94.026,18.178 L94.026,22 L92.43,22 L92.43,18.178 C92.43,17.4873299 92.2690016,16.9880015 91.947,16.68 C91.6249984,16.3719985 91.2260024,16.218 90.75,16.218 C90.2646642,16.218 89.8726682,16.3579986 89.574,16.638 C89.2753318,16.9180014 89.126,17.3799968 89.126,18.024 L89.126,22 L87.53,22 L87.53,17.478 C87.53,17.0299978 87.6093325,16.6380017 87.768,16.302 C87.9266675,15.9659983 88.1436653,15.6860011 88.419,15.462 C88.6943347,15.2379989 89.0186648,15.0676673 89.392,14.951 C89.7653352,14.8343328 90.1713311,14.776 90.61,14.776 C91.1886696,14.776 91.7066644,14.8833323 92.164,15.098 C92.6213356,15.3126677 92.985332,15.6299979 93.256,16.05 C93.526668,15.6299979 93.8859978,15.3126677 94.334,15.098 C94.7820022,14.8833323 95.2906638,14.776 95.86,14.776 Z M84.688,14.776 C85.2760029,14.776 85.7543315,14.8576659 86.123,15.021 C86.4916685,15.1843342 86.676,15.4339983 86.676,15.77 C86.676,15.9286675 86.6316671,16.0826659 86.543,16.232 L86.4444399,16.3843203 C86.39908,16.4470402 86.3596002,16.4895999 86.326,16.512 C86.1673325,16.437333 85.9713345,16.3673337 85.738,16.302 C85.5046655,16.2366663 85.2386682,16.204 84.94,16.204 C83.8479945,16.204 83.302,16.7826609 83.302,17.94 L83.302,22 L81.706,22 L81.706,17.478 C81.706,16.619329 81.969664,15.9543357 82.497,15.483 C83.024336,15.0116643 83.754662,14.776 84.688,14.776 Z M79.256,14.972 C79.4240008,14.972 79.5779993,14.9929998 79.718,15.035 L79.95425,15.1098125 C79.97175,15.1159375 79.9863333,15.1213333 79.998,15.126 L79.998,22 L78.402,22 L78.402,15.714 C78.402,15.4526654 78.4766659,15.2636673 78.626,15.147 C78.7753341,15.0303328 78.985332,14.972 79.256,14.972 Z M76.358,12.396 C76.9180028,12.396 77.198,12.6479975 77.198,13.152 C77.198,13.3293342 77.1700003,13.4903326 77.114,13.635 L77.0404999,13.8152502 L76.988,13.922 L76.988,13.922 L72.06,13.922 L72.06,16.47 L75.952,16.47 C76.5120028,16.47 76.792,16.7219975 76.792,17.226 C76.792,17.4033342 76.7640003,17.5643326 76.708,17.709 L76.6344999,17.8892502 L76.582,17.996 L76.582,17.996 L72.06,17.996 L72.06,22 L70.366,22 L70.366,13.348 C70.366,12.7133302 70.7066633,12.396 71.388,12.396 L76.358,12.396 Z M56.212,16.176 C55.8853317,16.176 55.5890013,16.2343328 55.323,16.351 C55.0569987,16.4676673 54.8283343,16.6286656 54.637,16.834 C54.4456657,17.0393344 54.2963339,17.2843319 54.189,17.569 C54.0816661,17.8536681 54.028,18.1593317 54.028,18.486 C54.028,18.8126683 54.0816661,19.1136653 54.189,19.389 C54.2963339,19.6643347 54.4456657,19.906999 54.637,20.117 C54.8283343,20.3270011 55.0569987,20.4903328 55.323,20.607 C55.5890013,20.7236673 55.8853317,20.782 56.212,20.782 C56.5293349,20.782 56.823332,20.7236673 57.094,20.607 C57.364668,20.4903328 57.5956657,20.3270011 57.787,20.117 C57.9783343,19.906999 58.1276661,19.6643347 58.235,19.389 C58.3423339,19.1136653 58.396,18.8126683 58.396,18.486 C58.396,18.1593317 58.3423339,17.8536681 58.235,17.569 C58.1276661,17.2843319 57.9783343,17.0393344 57.787,16.834 C57.5956657,16.6286656 57.364668,16.4676673 57.094,16.351 C56.823332,16.2343328 56.5293349,16.176 56.212,16.176 Z M47.448,16.176 C47.1213317,16.176 46.8250013,16.2343328 46.559,16.351 C46.2929987,16.4676673 46.0643343,16.6286656 45.873,16.834 C45.6816657,17.0393344 45.5323339,17.2843319 45.425,17.569 C45.3176661,17.8536681 45.264,18.1593317 45.264,18.486 C45.264,18.8126683 45.3176661,19.1136653 45.425,19.389 C45.5323339,19.6643347 45.6816657,19.906999 45.873,20.117 C46.0643343,20.3270011 46.2929987,20.4903328 46.559,20.607 C46.8250013,20.7236673 47.1213317,20.782 47.448,20.782 C47.7653349,20.782 48.059332,20.7236673 48.33,20.607 C48.600668,20.4903328 48.8316657,20.3270011 49.023,20.117 C49.2143343,19.906999 49.3636661,19.6643347 49.471,19.389 C49.5783339,19.1136653 49.632,18.8126683 49.632,18.486 C49.632,18.1593317 49.5783339,17.8536681 49.471,17.569 C49.3636661,17.2843319 49.2143343,17.0393344 49.023,16.834 C48.8316657,16.6286656 48.600668,16.4676673 48.33,16.351 C48.059332,16.2343328 47.7653349,16.176 47.448,16.176 Z M64.948,16.204 C64.6213317,16.204 64.3273346,16.2623328 64.066,16.379 C63.8046654,16.4956673 63.5783343,16.6543323 63.387,16.855 C63.1956657,17.0556677 63.0486672,17.2959986 62.946,17.576 C62.8433328,17.8560014 62.792,18.1593317 62.792,18.486 C62.792,18.8126683 62.8433328,19.1136653 62.946,19.389 C63.0486672,19.6643347 63.1956657,19.9023323 63.387,20.103 C63.5783343,20.3036677 63.8046654,20.4623328 64.066,20.579 C64.3273346,20.6956673 64.6213317,20.754 64.948,20.754 C65.2653349,20.754 65.5569987,20.6980006 65.823,20.586 C66.0890013,20.4739994 66.3153324,20.320001 66.502,20.124 C66.6886676,19.927999 66.8356661,19.6900014 66.943,19.41 C67.0503339,19.1299986 67.104,18.8220017 67.104,18.486 C67.104,18.1686651 67.0503339,17.8700014 66.943,17.59 C66.8356661,17.3099986 66.6886676,17.0673344 66.502,16.862 C66.3153324,16.6566656 66.0890013,16.4956673 65.823,16.379 C65.5569987,16.2623328 65.2653349,16.204 64.948,16.204 Z M79.2,11.822 C79.470668,11.822 79.6993324,11.9153324 79.886,12.102 C80.0726676,12.2886676 80.166,12.517332 80.166,12.788 C80.166,13.058668 80.0726676,13.2873324 79.886,13.474 C79.6993324,13.6606676 79.470668,13.754 79.2,13.754 C78.929332,13.754 78.7006676,13.6606676 78.514,13.474 C78.3273324,13.2873324 78.234,13.058668 78.234,12.788 C78.234,12.517332 78.3273324,12.2886676 78.514,12.102 C78.7006676,11.9153324 78.929332,11.822 79.2,11.822 Z" id="Shape"></path>
            </g>
        </g>
    </g>
</svg>