<?xml version="1.0" encoding="UTF-8"?>
<svg width="140px" height="46px" viewBox="0 0 140 46" version="1.1" xmlns="http://www.w3.org/2000/svg" xmlns:xlink="http://www.w3.org/1999/xlink">
    <!-- Generator: Sketch 58 (84663) - https://sketch.com -->
    <title>footer-logo-3</title>
    <desc>Created with Sketch.</desc>
    <g id="Header-&amp;-Footer" stroke="none" stroke-width="1" fill="none" fill-rule="evenodd">
        <g id="Group-5" transform="translate(-170.000000, 0.000000)" fill="#FFFFFF">
            <g id="Group-23" transform="translate(170.000000, 0.000000)">
                <path d="M29,7 C30.6568542,7 32,8.34314575 32,10 L32,37 C32,37.3506354 31.9398458,37.6872211 31.8292943,38 C31.4174579,39.1651924 30.3062188,40 29,40 L13,40 C11.3431458,40 10,38.6568542 10,37 L10,10 C10,8.34314575 11.3431458,7 13,7 L29,7 Z M29,8 L13,8 C11.8954305,8 11,8.8954305 11,10 L11,37 C11,38.1045695 11.8954305,39 13,39 L29,39 C29.7402824,39 30.3866262,38.5978014 30.7324356,38 C30.9026057,37.7058266 31,37.3642871 31,37 L31,10 C31,8.8954305 30.1045695,8 29,8 Z M29,9 C29.5522847,9 30,9.44771525 30,10 L30,29.8567796 C25.1872214,29.6127335 22.0913018,27.2623994 20.7122411,22.8057771 C20.6386097,22.5678269 20.5457272,22.1924637 20.4335938,21.6796875 L23.6376953,22.0800781 L16.8024902,13.3613281 L14.9128418,24.2260742 L17.817627,22.5610352 C18.2746522,29.5509968 20.7433377,34.6973184 25.2236834,38 L13,38 C12.4477153,38 12,37.5522847 12,37 L12,10 C12,9.44771525 12.4477153,9 13,9 L29,9 Z M113.945312,30.5136719 C114.566409,30.5136719 115.059324,30.6740707 115.424072,30.994873 C115.78882,31.3156754 115.971191,31.7514621 115.971191,32.3022461 C115.971191,32.6127945 115.893555,32.8881824 115.738281,33.128418 C115.583007,33.3686535 115.369142,33.5605462 115.09668,33.7041016 C115.407228,33.8535164 115.653319,34.0593249 115.834961,34.3215332 C116.016602,34.5837415 116.107422,34.8920881 116.107422,35.246582 C116.107422,35.8149442 115.914064,36.2639144 115.527344,36.5935059 C115.140623,36.9230974 114.614749,37.0878906 113.949707,37.0878906 C113.284665,37.0878906 112.757326,36.9223649 112.367676,36.5913086 C111.978025,36.2602523 111.783203,35.8120145 111.783203,35.246582 C111.783203,34.8920881 111.874023,34.5830091 112.055664,34.3193359 C112.237306,34.0556627 112.481932,33.8505867 112.789551,33.7041016 C112.517088,33.5605462 112.303956,33.3686535 112.150146,33.128418 C111.996337,32.8881824 111.919434,32.6127945 111.919434,32.3022461 C111.919434,31.7573215 112.101072,31.3229997 112.464355,30.9992676 C112.827639,30.6755355 113.321286,30.5136719 113.945312,30.5136719 Z M102.61377,30.5136719 C103.311039,30.5136719 103.844236,30.7429176 104.213379,31.201416 C104.582521,31.6599144 104.771484,32.3183551 104.780273,33.1767578 L104.780273,34.3544922 C104.780273,35.2392622 104.59717,35.9160133 104.230957,36.3847656 C103.864744,36.853518 103.328617,37.0878906 102.622559,37.0878906 C101.925289,37.0878906 101.392092,36.8579125 101.022949,36.3979492 C100.653807,35.937986 100.464844,35.2788129 100.456055,34.4204102 L100.456055,33.2426758 C100.456055,32.3491166 100.641356,31.6709008 101.011963,31.2080078 C101.38257,30.7451149 101.9165,30.5136719 102.61377,30.5136719 Z M81.9863281,30.5136719 C82.4433617,30.5136719 82.8505842,30.5964347 83.2080078,30.7619629 C83.5654315,30.9274911 83.8430166,31.1611313 84.0407715,31.4628906 C84.2385264,31.7646499 84.3374023,32.10742 84.3374023,32.4912109 L83.019043,32.4912109 C83.019043,32.1982407 82.9267587,31.9704598 82.7421875,31.8078613 C82.5576163,31.6452629 82.2983415,31.5639648 81.9643555,31.5639648 C81.6420882,31.5639648 81.3916025,31.6320794 81.2128906,31.7683105 C81.0341788,31.9045417 80.9448242,32.0839833 80.9448242,32.3066406 C80.9448242,32.5146495 81.0495595,32.6889641 81.2590332,32.8295898 C81.4335946,32.9467779 81.6768177,33.0578611 81.9887079,33.1628416 L82.184082,33.2250977 C82.9340858,33.4506847 83.480467,33.7304671 83.8232422,34.0644531 C84.1660173,34.3984392 84.3374023,34.8144506 84.3374023,35.3125 C84.3374023,35.8662137 84.1279318,36.3005355 83.7089844,36.6154785 C83.290037,36.9304215 82.7260778,37.0878906 82.0170898,37.0878906 C81.5248999,37.0878906 81.0766622,36.9978036 80.6723633,36.817627 C80.2680644,36.6374503 79.9597179,36.3906266 79.7473145,36.0771484 C79.534911,35.7636703 79.4287109,35.4003927 79.4287109,34.9873047 L80.7514648,34.9873047 C80.7514648,35.6933629 81.1733356,36.0463867 82.0170898,36.0463867 C82.330568,36.0463867 82.5751944,35.9826667 82.7509766,35.8552246 C82.9267587,35.7277826 83.0146484,35.5498058 83.0146484,35.3212891 C83.0146484,35.0722644 82.9267587,34.8811042 82.7509766,34.7478027 C82.6003062,34.6335444 82.3463224,34.5139064 81.9890193,34.3888863 L81.8017578,34.3259277 C81.3447243,34.1779778 80.9829115,34.0322273 80.7163086,33.8886719 C79.9897425,33.4960918 79.6264648,32.9672885 79.6264648,32.3022461 C79.6264648,31.9565412 79.723876,31.6481947 79.9187012,31.3771973 C80.1135264,31.1061998 80.3933087,30.894532 80.7580566,30.7421875 C81.1228046,30.589843 81.5322243,30.5136719 81.9863281,30.5136719 Z M69.2705078,30.5136719 C69.8037136,30.5136719 70.2775858,30.6418444 70.6921387,30.8981934 C71.1066915,31.1545423 71.4274891,31.5222144 71.654541,32.0012207 C71.8815929,32.480227 71.9951172,33.0332 71.9951172,33.6601562 L71.9951172,33.9458008 C71.9951172,34.5756867 71.8837902,35.1279273 71.6611328,35.6025391 C71.4384754,36.0771508 71.1198751,36.4433581 70.7053223,36.7011719 C70.2907694,36.9589857 69.8154324,37.0878906 69.2792969,37.0878906 C68.7490208,37.0878906 68.275881,36.9604505 67.8598633,36.7055664 C67.4438456,36.4506823 67.1215832,36.0866723 66.8930664,35.6135254 C66.6645496,35.1403785 66.5488281,34.5961945 66.5458984,33.980957 L66.5458984,33.6645508 C66.5458984,33.0346648 66.6594227,32.480227 66.8864746,32.0012207 C67.1135265,31.5222144 67.4343241,31.1545423 67.848877,30.8981934 C68.2634298,30.6418444 68.737302,30.5136719 69.2705078,30.5136719 Z M39.0366211,30.5136719 C39.774906,30.5136719 40.3696267,30.7114238 40.8208008,31.1069336 C41.2719749,31.5024434 41.5327145,32.0576136 41.6030273,32.7724609 L40.284668,32.7724609 C40.2524412,32.3593729 40.1374522,32.0598154 39.9396973,31.8737793 C39.7419424,31.6877432 39.44092,31.5947266 39.0366211,31.5947266 C38.5971658,31.5947266 38.2683116,31.7521957 38.0500488,32.0671387 C37.831786,32.3820817 37.7197266,32.8706022 37.7138672,33.5327148 L37.7138672,34.0161133 C37.7138672,34.707523 37.8186025,35.212889 38.0280762,35.5322266 C38.2375499,35.8515641 38.5678688,36.0112305 39.019043,36.0112305 C39.4262716,36.0112305 39.7302236,35.9182138 39.9309082,35.7321777 C40.1315928,35.5461416 40.2465819,35.2583027 40.2758789,34.8686523 L41.5942383,34.8686523 C41.5444333,35.5571323 41.2902855,36.0991191 40.8317871,36.4946289 C40.3732887,36.8901387 39.7690467,37.0878906 39.019043,37.0878906 C38.1987264,37.0878906 37.5534691,36.8117703 37.083252,36.2595215 C36.6130348,35.7072726 36.3779297,34.9492236 36.3779297,33.9853516 L36.3779297,33.5942383 C36.3779297,32.9790008 36.486327,32.4370141 36.703125,31.9682617 C36.919923,31.4995094 37.2297343,31.1398938 37.6325684,30.8894043 C38.0354024,30.6389148 38.5034153,30.5136719 39.0366211,30.5136719 Z M109.222168,30.5927734 L109.222168,37 L107.952148,37 L107.952148,32.1044922 L106.436035,32.574707 L106.436035,31.5419922 L109.085938,30.5927734 L109.222168,30.5927734 Z M96.90625,30.5136719 C97.565433,30.5136719 98.0773908,30.6718734 98.4421387,30.9882812 C98.8068866,31.3046891 98.9892578,31.751462 98.9892578,32.3286133 C98.9892578,32.6450211 98.9072274,32.9672835 98.7431641,33.2954102 C98.5791007,33.6235368 98.2978536,34.0058572 97.8994141,34.4423828 L96.4448242,35.9760742 L99.1958008,35.9760742 L99.1958008,37 L94.8100586,37 L94.8100586,36.1298828 L96.8798828,33.9238281 C97.1640639,33.6132797 97.3742669,33.3422863 97.510498,33.1108398 C97.6467292,32.8793934 97.7148438,32.659669 97.7148438,32.4516602 C97.7148438,32.167479 97.6430671,31.9440926 97.4995117,31.7814941 C97.3559563,31.6188957 97.1508802,31.5375977 96.8842773,31.5375977 C96.5971665,31.5375977 96.3708504,31.6364736 96.2053223,31.8342285 C96.0397941,32.0319834 95.9570312,32.2919906 95.9570312,32.6142578 L94.6826172,32.6142578 C94.6826172,32.2246074 94.7756338,31.868654 94.9616699,31.5463867 C95.147706,31.2241195 95.4106428,30.9714365 95.7504883,30.7883301 C96.0903337,30.6052237 96.4755838,30.5136719 96.90625,30.5136719 Z M75.8305664,30.6015625 C76.5864296,30.6015625 77.1694315,30.7700178 77.5795898,31.1069336 C77.9897481,31.4438493 78.1948242,31.9199188 78.1948242,32.5351562 C78.1948242,32.9716819 78.1003427,33.3356919 77.911377,33.6271973 C77.7224112,33.9187026 77.4360371,34.150878 77.0522461,34.3237305 L78.4365234,36.9384766 L78.4365234,37 L77.0214844,37 L75.8217773,34.6577148 L74.7714844,34.6577148 L74.7714844,37 L73.453125,37 L73.453125,30.6015625 L75.8305664,30.6015625 Z M65.6108398,30.6015625 L65.6108398,31.6694336 L63.6508789,31.6694336 L63.6508789,37 L62.3325195,37 L62.3325195,31.6694336 L60.3989258,31.6694336 L60.3989258,30.6015625 L65.6108398,30.6015625 Z M57.8291016,30.6015625 L60.2241211,37 L58.8222656,37 L58.378418,35.6816406 L56.0668945,35.6816406 L55.6274414,37 L54.2255859,37 L56.6074219,30.6015625 L57.8291016,30.6015625 Z M53.4838867,30.6015625 L53.4838867,31.6694336 L50.5219727,31.6694336 L50.5219727,33.1943359 L53.0532227,33.1943359 L53.0532227,34.2270508 L50.5219727,34.2270508 L50.5219727,35.940918 L53.4926758,35.940918 L53.4926758,37 L49.2036133,37 L49.2036133,30.6015625 L53.4838867,30.6015625 Z M45.3374023,30.6015625 C46.0932655,30.6015625 46.6762675,30.7700178 47.0864258,31.1069336 C47.4965841,31.4438493 47.7016602,31.9199188 47.7016602,32.5351562 C47.7016602,32.9716819 47.6071787,33.3356919 47.4182129,33.6271973 C47.2292471,33.9187026 46.942873,34.150878 46.559082,34.3237305 L47.9433594,36.9384766 L47.9433594,37 L46.5283203,37 L45.3286133,34.6577148 L44.2783203,34.6577148 L44.2783203,37 L42.9599609,37 L42.9599609,30.6015625 L45.3374023,30.6015625 Z M113.940918,34.2358398 C113.671385,34.2358398 113.456055,34.3186027 113.294922,34.4841309 C113.133788,34.649659 113.053223,34.8730455 113.053223,35.1542969 C113.053223,35.4267592 113.132323,35.6464835 113.290527,35.8134766 C113.448731,35.9804696 113.668456,36.0639648 113.949707,36.0639648 C114.225099,36.0639648 114.441161,35.9833992 114.5979,35.8222656 C114.754639,35.661132 114.833008,35.438478 114.833008,35.1542969 C114.833008,34.8759752 114.752442,34.6533211 114.591309,34.4863281 C114.430175,34.3193351 114.21338,34.2358398 113.940918,34.2358398 Z M102.61377,31.5419922 C102.31494,31.5419922 102.094483,31.6569813 101.952393,31.8869629 C101.810302,32.1169445 101.734863,32.4765601 101.726074,32.9658203 L101.726074,34.5214844 C101.726074,35.0429714 101.797118,35.4304187 101.939209,35.6838379 C102.0813,35.9372571 102.30908,36.0639648 102.622559,36.0639648 C102.933107,36.0639648 103.157226,35.942384 103.294922,35.6992188 C103.432618,35.4560535 103.504395,35.0839869 103.510254,34.5830078 L103.510254,33.0625 C103.510254,32.5322239 103.437745,32.1462414 103.292725,31.904541 C103.147704,31.6628406 102.921388,31.5419922 102.61377,31.5419922 Z M69.2705078,31.6035156 C68.8281228,31.6035156 68.4868176,31.775633 68.246582,32.119873 C68.0063465,32.464113 67.8847656,32.9687467 67.8818359,33.6337891 L67.8818359,33.9458008 C67.8818359,34.5991244 68.0019519,35.1059552 68.2421875,35.4663086 C68.4824231,35.826662 68.8281227,36.0068359 69.2792969,36.0068359 C69.7216819,36.0068359 70.0615223,35.8332537 70.2988281,35.486084 C70.536134,35.1389143 70.65625,34.6328158 70.6591797,33.9677734 L70.6591797,33.6557617 C70.6591797,32.9848599 70.5390637,32.4750994 70.2988281,32.1264648 C70.0585925,31.7778303 69.7158225,31.6035156 69.2705078,31.6035156 Z M89.5297852,32.6230469 C89.846193,32.6230469 90.098876,32.7138663 90.2878418,32.8955078 C90.4768076,33.0771493 90.5742187,33.3159165 90.5800781,33.6118164 L90.5800781,33.8007812 C90.5800781,34.1025406 90.4841318,34.3449698 90.2922363,34.5280762 C90.1003408,34.7111826 89.8491226,34.8027344 89.5385742,34.8027344 C89.2309555,34.8027344 88.9797373,34.711915 88.7849121,34.5302734 C88.5900869,34.3486319 88.4926758,34.1010758 88.4926758,33.7875977 L88.4926758,33.6337891 C88.4926758,33.3291 88.5893545,33.0844736 88.7827148,32.8999023 C88.9760752,32.7153311 89.2250961,32.6230469 89.5297852,32.6230469 Z M56.4228516,34.6137695 L58.0224609,34.6137695 L57.218,32.22 L56.4228516,34.6137695 Z M75.8305664,31.6694336 L74.7714844,31.6694336 L74.7714844,33.5898438 L75.8349609,33.5898438 C76.1660173,33.5898438 76.4223624,33.5056161 76.6040039,33.3371582 C76.7856454,33.1687003 76.8764648,32.9365249 76.8764648,32.640625 C76.8764648,32.3388657 76.7907723,32.1015634 76.6193848,31.9287109 C76.4479972,31.7558585 76.1850604,31.6694336 75.8305664,31.6694336 Z M45.3374023,31.6694336 L44.2783203,31.6694336 L44.2783203,33.5898438 L45.3417969,33.5898438 C45.6728532,33.5898438 45.9291983,33.5056161 46.1108398,33.3371582 C46.2924814,33.1687003 46.3833008,32.9365249 46.3833008,32.640625 C46.3833008,32.3388657 46.2976083,32.1015634 46.1262207,31.9287109 C45.9548331,31.7558585 45.6918963,31.6694336 45.3374023,31.6694336 Z M113.945312,31.5375977 C113.708007,31.5375977 113.523438,31.6108391 113.391602,31.7573242 C113.259765,31.9038093 113.193848,32.1059557 113.193848,32.3637695 C113.193848,32.6186536 113.259765,32.8237297 113.391602,32.9790039 C113.523438,33.1342781 113.709471,33.2119141 113.949707,33.2119141 C114.189943,33.2119141 114.375243,33.1342781 114.505615,32.9790039 C114.635987,32.8237297 114.701172,32.6186536 114.701172,32.3637695 C114.701172,32.1147448 114.635255,31.9147957 114.503418,31.763916 C114.371581,31.6130364 114.185548,31.5375977 113.945312,31.5375977 Z M45.0473633,19.5136719 C45.5805691,19.5136719 46.0544413,19.6418444 46.4689941,19.8981934 C46.883547,20.1545423 47.2043446,20.5222144 47.4313965,21.0012207 C47.6584484,21.480227 47.7719727,22.0332 47.7719727,22.6601562 L47.7719727,22.9458008 C47.7719727,23.5756867 47.6606456,24.1279273 47.4379883,24.6025391 C47.2153309,25.0771508 46.8967306,25.4433581 46.4821777,25.7011719 C46.0676249,25.9589857 45.5922878,26.0878906 45.0561523,26.0878906 C44.5258763,26.0878906 44.0527365,25.9604505 43.6367188,25.7055664 C43.220701,25.4506823 42.8984386,25.0866723 42.6699219,24.6135254 C42.4414051,24.1403785 42.3256836,23.5961945 42.3227539,22.980957 L42.3227539,22.6645508 C42.3227539,22.0346648 42.4362782,21.480227 42.6633301,21.0012207 C42.890382,20.5222144 43.2111796,20.1545423 43.6257324,19.8981934 C44.0402853,19.6418444 44.5141575,19.5136719 45.0473633,19.5136719 Z M59.1728516,19.6015625 L60.0385742,24.1455078 L61.0932617,19.6015625 L62.2094727,19.6015625 L63.2597656,24.1542969 L64.1210938,19.6015625 L65.4350586,19.6015625 L64.015625,26 L62.6884766,26 L61.6469727,21.7197266 L60.6054688,26 L59.2783203,26 L57.8588867,19.6015625 L59.1728516,19.6015625 Z M75.2724609,19.6015625 L77.6674805,26 L76.265625,26 L75.8217773,24.6816406 L73.5102539,24.6816406 L73.0708008,26 L71.6689453,26 L74.0507812,19.6015625 L75.2724609,19.6015625 Z M93.8056641,19.6015625 C94.5820351,19.6015625 95.1708964,19.7502427 95.5722656,20.0476074 C95.9736348,20.3449722 96.1743164,20.7807588 96.1743164,21.3549805 C96.1743164,21.6684586 96.0937508,21.9445789 95.9326172,22.1833496 C95.7714836,22.4221203 95.5473647,22.5971674 95.2602539,22.7084961 C95.5883805,22.7905278 95.8469229,22.9560534 96.0358887,23.2050781 C96.2248545,23.4541028 96.3193359,23.7587873 96.3193359,24.1191406 C96.3193359,24.7343781 96.1230488,25.2001937 95.7304688,25.5166016 C95.3378887,25.8330094 94.7783239,25.9941406 94.0517578,26 L91.5644531,26 L91.5644531,19.6015625 L93.8056641,19.6015625 Z M81.1425781,19.6015625 C81.8984413,19.6015625 82.4814433,19.7700178 82.8916016,20.1069336 C83.3017599,20.4438493 83.5068359,20.9199188 83.5068359,21.5351562 C83.5068359,21.9716819 83.4123545,22.3356919 83.2233887,22.6271973 C83.0344229,22.9187026 82.7480488,23.150878 82.3642578,23.3237305 L83.7485352,25.9384766 L83.7485352,26 L82.3334961,26 L81.1337891,23.6577148 L80.0834961,23.6577148 L80.0834961,26 L78.7651367,26 L78.7651367,19.6015625 L81.1425781,19.6015625 Z M114.54834,19.6015625 L116.943359,26 L115.541504,26 L115.097656,24.6816406 L112.786133,24.6816406 L112.34668,26 L110.944824,26 L113.32666,19.6015625 L114.54834,19.6015625 Z M107.461914,19.6015625 L107.461914,20.6694336 L104.5,20.6694336 L104.5,22.1943359 L107.03125,22.1943359 L107.03125,23.2270508 L104.5,23.2270508 L104.5,24.940918 L107.470703,24.940918 L107.470703,26 L103.181641,26 L103.181641,19.6015625 L107.461914,19.6015625 Z M99.1264648,19.6015625 L99.1264648,24.940918 L101.925781,24.940918 L101.925781,26 L97.8081055,26 L97.8081055,19.6015625 L99.1264648,19.6015625 Z M120.537109,19.6015625 C121.017581,19.6015625 121.440184,19.6894522 121.804932,19.8652344 C122.16968,20.0410165 122.450194,20.2907699 122.646484,20.614502 C122.842774,20.938234 122.940918,21.3066386 122.940918,21.7197266 C122.940918,22.3466828 122.726321,22.8410626 122.297119,23.2028809 C121.867918,23.5646991 121.27393,23.7456055 120.515137,23.7456055 L119.359375,23.7456055 L119.359375,26 L118.041016,26 L118.041016,19.6015625 L120.537109,19.6015625 Z M70.9272461,19.6015625 L70.9272461,20.6694336 L67.965332,20.6694336 L67.965332,22.1943359 L70.496582,22.1943359 L70.496582,23.2270508 L67.965332,23.2270508 L67.965332,24.940918 L70.9360352,24.940918 L70.9360352,26 L66.6469727,26 L66.6469727,19.6015625 L70.9272461,19.6015625 Z M88.0717773,19.6015625 L90.4667969,26 L89.0649414,26 L88.6210938,24.6816406 L86.3095703,24.6816406 L85.8701172,26 L84.4682617,26 L86.8500977,19.6015625 L88.0717773,19.6015625 Z M126.842285,19.6015625 C127.322756,19.6015625 127.74536,19.6894522 128.110107,19.8652344 C128.474855,20.0410165 128.75537,20.2907699 128.95166,20.614502 C129.14795,20.938234 129.246094,21.3066386 129.246094,21.7197266 C129.246094,22.3466828 129.031496,22.8410626 128.602295,23.2028809 C128.173094,23.5646991 127.579105,23.7456055 126.820312,23.7456055 L125.664551,23.7456055 L125.664551,26 L124.346191,26 L124.346191,19.6015625 L126.842285,19.6015625 Z M51.7260742,19.6015625 C52.2065454,19.6015625 52.6291486,19.6894522 52.9938965,19.8652344 C53.3586444,20.0410165 53.6391592,20.2907699 53.8354492,20.614502 C54.0317393,20.938234 54.1298828,21.3066386 54.1298828,21.7197266 C54.1298828,22.3466828 53.9152853,22.8410626 53.486084,23.2028809 C53.0568826,23.5646991 52.4628944,23.7456055 51.7041016,23.7456055 L50.5483398,23.7456055 L50.5483398,26 L49.2299805,26 L49.2299805,19.6015625 L51.7260742,19.6015625 Z M41.3876953,19.6015625 L41.3876953,20.6694336 L39.4277344,20.6694336 L39.4277344,26 L38.109375,26 L38.109375,20.6694336 L36.1757812,20.6694336 L36.1757812,19.6015625 L41.3876953,19.6015625 Z M45.0473633,20.6035156 C44.6049783,20.6035156 44.2636731,20.775633 44.0234375,21.119873 C43.7832019,21.464113 43.6616211,21.9687467 43.6586914,22.6337891 L43.6586914,22.9458008 C43.6586914,23.5991244 43.7788074,24.1059552 44.019043,24.4663086 C44.2592785,24.826662 44.6049782,25.0068359 45.0561523,25.0068359 C45.4985374,25.0068359 45.8383777,24.8332537 46.0756836,24.486084 C46.3129895,24.1389143 46.4331055,23.6328158 46.4360352,22.9677734 L46.4360352,22.6557617 C46.4360352,21.9848599 46.3159192,21.4750994 46.0756836,21.1264648 C45.835448,20.7778303 45.492678,20.6035156 45.0473633,20.6035156 Z M94.0913086,23.2138672 L92.8828125,23.2138672 L92.8828125,24.940918 L94.012207,24.940918 C94.3227555,24.940918 94.5651847,24.8669441 94.739502,24.7189941 C94.9138192,24.5710442 95.0009766,24.3667005 95.0009766,24.105957 C95.0009766,23.5200166 94.6977569,23.2226563 94.0913086,23.2138672 Z M113.9375,21.21875 L113.14209,23.6137695 L114.741699,23.6137695 L113.9375,21.21875 Z M87.4609375,21.21875 L86.6655273,23.6137695 L88.2651367,23.6137695 L87.4609375,21.21875 Z M74.6616211,21.21875 L73.8662109,23.6137695 L75.4658203,23.6137695 L74.6616211,21.21875 Z M120.567871,20.6694336 L119.359375,20.6694336 L119.359375,22.6777344 L120.537109,22.6777344 C120.885744,22.6777344 121.15161,22.5957039 121.334717,22.4316406 C121.517823,22.2675773 121.609375,22.0332046 121.609375,21.7285156 C121.609375,21.4150375 121.517091,21.1616221 121.33252,20.9682617 C121.147948,20.7749014 120.893068,20.675293 120.567871,20.6694336 Z M51.7568359,20.6694336 L50.5483398,20.6694336 L50.5483398,22.6777344 L51.7260742,22.6777344 C52.0747088,22.6777344 52.3405753,22.5957039 52.5236816,22.4316406 C52.706788,22.2675773 52.7983398,22.0332046 52.7983398,21.7285156 C52.7983398,21.4150375 52.7060556,21.1616221 52.5214844,20.9682617 C52.3369131,20.7749014 52.0820329,20.675293 51.7568359,20.6694336 Z M126.873047,20.6694336 L125.664551,20.6694336 L125.664551,22.6777344 L126.842285,22.6777344 C127.19092,22.6777344 127.456786,22.5957039 127.639893,22.4316406 C127.822999,22.2675773 127.914551,22.0332046 127.914551,21.7285156 C127.914551,21.4150375 127.822267,21.1616221 127.637695,20.9682617 C127.453124,20.7749014 127.198244,20.675293 126.873047,20.6694336 Z M81.1425781,20.6694336 L80.0834961,20.6694336 L80.0834961,22.5898438 L81.1469727,22.5898438 C81.478029,22.5898438 81.7343741,22.5056161 81.9160156,22.3371582 C82.0976572,22.1687003 82.1884766,21.9365249 82.1884766,21.640625 C82.1884766,21.3388657 82.1027841,21.1015634 81.9313965,20.9287109 C81.7600089,20.7558585 81.4970721,20.6694336 81.1425781,20.6694336 Z M93.8056641,20.6694336 L92.8828125,20.6694336 L92.8828125,22.2822266 L93.8583984,22.2822266 C94.5234408,22.2705078 94.855957,22.0053737 94.855957,21.4868164 C94.855957,21.1967759 94.7717294,20.9880377 94.6032715,20.8605957 C94.4348136,20.7331537 94.1689471,20.6694336 93.8056641,20.6694336 Z M21,11 C20.4477153,11 20,11.4477153 20,12 C20,12.5522847 20.4477153,13 21,13 C21.5522847,13 22,12.5522847 22,12 C22,11.4477153 21.5522847,11 21,11 Z" id="Combined-Shape"></path>
            </g>
        </g>
    </g>
</svg>