<?xml version="1.0" encoding="UTF-8"?>
<svg width="100px" height="46px" viewBox="0 0 100 46" version="1.1" xmlns="http://www.w3.org/2000/svg" xmlns:xlink="http://www.w3.org/1999/xlink">
    <!-- Generator: Sketch 58 (84663) - https://sketch.com -->
    <title>footer-logo-5</title>
    <desc>Created with Sketch.</desc>
    <g id="Header-&amp;-Footer" stroke="none" stroke-width="1" fill="none" fill-rule="evenodd">
        <g id="Group-5" transform="translate(-340.000000, 0.000000)" fill="#FFFFFF" fill-rule="nonzero">
            <g id="Group-23" transform="translate(340.000000, 0.000000)">
                <path d="M8.66662722,35.6895459 L6.60745562,35.6895459 C6.20248318,35.6895459 6,35.4994739 6,35.1193242 C6,34.9855678 6.02059151,34.8641329 6.06177515,34.7550158 C6.10295879,34.6458988 6.13384605,34.5737418 6.15443787,34.5385428 L12.0333728,34.5385428 C12.4383452,34.5385428 12.6408284,34.7286148 12.6408284,35.1087645 C12.6408284,35.2425209 12.6219529,35.3639558 12.5842012,35.4730729 C12.5464495,35.5821899 12.5138463,35.6543469 12.4863905,35.6895459 L9.89183432,35.6895459 L9.89183432,41.782471 L8.66662722,41.782471 L8.66662722,35.6895459 Z M15.9149112,36.3336853 C16.3130197,36.3336853 16.6853829,36.4040824 17.0320118,36.5448786 C17.3786408,36.6856748 17.6789336,36.8810266 17.9328994,37.1309398 C18.1868652,37.3808531 18.3859164,37.6765206 18.5300592,38.0179514 C18.6742019,38.3593822 18.7462722,38.7307266 18.7462722,39.1319958 C18.7462722,39.5262251 18.6742019,39.8940497 18.5300592,40.2354805 C18.3859164,40.5769112 18.1868652,40.8725788 17.9328994,41.1224921 C17.6789336,41.3724053 17.3786408,41.5695171 17.0320118,41.7138332 C16.6853829,41.8581493 16.3130197,41.9303062 15.9149112,41.9303062 C15.5168027,41.9303062 15.1444396,41.8581493 14.7978107,41.7138332 C14.4511817,41.5695171 14.1508888,41.3724053 13.8969231,41.1224921 C13.6429573,40.8725788 13.443906,40.5769112 13.2997633,40.2354805 C13.1556206,39.8940497 13.0835503,39.5262251 13.0835503,39.1319958 C13.0835503,38.7307266 13.1556206,38.3593822 13.2997633,38.0179514 C13.443906,37.6765206 13.6429573,37.3808531 13.8969231,37.1309398 C14.1508888,36.8810266 14.4511817,36.6856748 14.7978107,36.5448786 C15.1444396,36.4040824 15.5168027,36.3336853 15.9149112,36.3336853 Z M15.9149112,40.8637804 C16.1482852,40.8637804 16.364496,40.8197822 16.5635503,40.7317846 C16.7626045,40.643787 16.9324845,40.5205921 17.0731953,40.3621964 C17.213906,40.2038007 17.3237274,40.0207684 17.4026627,39.813094 C17.481598,39.6054196 17.5210651,39.3783891 17.5210651,39.1319958 C17.5210651,38.8856024 17.481598,38.6550521 17.4026627,38.4403379 C17.3237274,38.2256237 17.213906,38.0408315 17.0731953,37.8859556 C16.9324845,37.7310798 16.7626045,37.6096449 16.5635503,37.5216473 C16.364496,37.4336497 16.1482852,37.3896515 15.9149112,37.3896515 C15.6746734,37.3896515 15.4567465,37.4336497 15.2611243,37.5216473 C15.065502,37.6096449 14.897338,37.7310798 14.7566272,37.8859556 C14.6159165,38.0408315 14.5060951,38.2256237 14.4271598,38.4403379 C14.3482245,38.6550521 14.3087574,38.8856024 14.3087574,39.1319958 C14.3087574,39.3783891 14.3482245,39.6054196 14.4271598,39.813094 C14.5060951,40.0207684 14.6159165,40.2038007 14.7566272,40.3621964 C14.897338,40.5205921 15.065502,40.643787 15.2611243,40.7317846 C15.4567465,40.8197822 15.6746734,40.8637804 15.9149112,40.8637804 Z M19.6111243,39.374868 C19.6111243,38.8820813 19.6797626,38.4473796 19.8170414,38.0707497 C19.9543202,37.6941199 20.1465076,37.3773332 20.3936095,37.1203801 C20.6407113,36.8634271 20.9392882,36.6680753 21.2893491,36.5343189 C21.63941,36.4005625 22.0272168,36.3336853 22.4527811,36.3336853 C22.8440256,36.3336853 23.2043771,36.4040824 23.5338462,36.5448786 C23.8633153,36.6856748 24.1498804,36.8792666 24.3935503,37.12566 C24.6372202,37.3720533 24.8276916,37.6677209 24.9649704,38.0126716 C25.1022492,38.3576223 25.1708876,38.7307266 25.1708876,39.1319958 C25.1708876,39.5403048 25.1039652,39.915169 24.9701183,40.2565998 C24.8362715,40.5980306 24.6509479,40.8919382 24.414142,41.1383316 C24.1773361,41.3847249 23.8993507,41.5765569 23.5801775,41.7138332 C23.2610043,41.8511095 22.9126646,41.9197466 22.5351479,41.9197466 C22.1439034,41.9197466 21.7972796,41.8423098 21.4952663,41.687434 C21.1932529,41.5325582 20.9564506,41.3424862 20.7848521,41.1172122 L20.7848521,43.8944034 L19.6111243,43.8944034 L19.6111243,39.374868 Z M22.3704142,40.8532207 C22.6037881,40.8532207 22.818283,40.8092225 23.0139053,40.7212249 C23.2095276,40.6332273 23.3776916,40.5117924 23.5184024,40.3569166 C23.6591131,40.2020408 23.7672186,40.0190084 23.8427219,39.8078141 C23.9182252,39.5966199 23.9559763,39.3678295 23.9559763,39.1214361 C23.9559763,38.8820826 23.9182252,38.658572 23.8427219,38.4508976 C23.7672186,38.2432232 23.6591131,38.0637107 23.5184024,37.9123548 C23.3776916,37.7609989 23.2095276,37.6413239 23.0139053,37.5533263 C22.818283,37.4653287 22.6037881,37.4213305 22.3704142,37.4213305 C22.1370403,37.4213305 21.9225454,37.4635687 21.7269231,37.5480465 C21.5313008,37.6325242 21.3631368,37.7486793 21.222426,37.8965153 C21.0817153,38.0443513 20.9718939,38.2221039 20.8929586,38.4297782 C20.8140233,38.6374526 20.7745562,38.868003 20.7745562,39.1214361 C20.7745562,39.3678295 20.8140233,39.5966199 20.8929586,39.8078141 C20.9718939,40.0190084 21.0799993,40.2020408 21.2172781,40.3569166 C21.3545569,40.5117924 21.5210049,40.6332273 21.7166272,40.7212249 C21.9122495,40.8092225 22.1301763,40.8532207 22.3704142,40.8532207 Z M28.908284,35.1193242 C28.908284,34.9222095 28.9666266,34.7761356 29.0833136,34.6810982 C29.2000006,34.5860608 29.3578688,34.5385428 29.5569231,34.5385428 C29.6873379,34.5385428 29.8074551,34.556142 29.9172781,34.5913411 L30.0741871,34.6432946 C30.0999953,34.6523055 30.1197632,34.6596269 30.1334911,34.6652587 L30.1334911,40.6314678 L33.767929,40.6314678 L33.767929,41.782471 L28.908284,41.782471 L28.908284,35.1193242 Z M37.0420118,36.3336853 C37.4401203,36.3336853 37.8124835,36.4040824 38.1591124,36.5448786 C38.5057414,36.6856748 38.8060342,36.8810266 39.06,37.1309398 C39.3139658,37.3808531 39.513017,37.6765206 39.6571598,38.0179514 C39.8013025,38.3593822 39.8733728,38.7307266 39.8733728,39.1319958 C39.8733728,39.5262251 39.8013025,39.8940497 39.6571598,40.2354805 C39.513017,40.5769112 39.3139658,40.8725788 39.06,41.1224921 C38.8060342,41.3724053 38.5057414,41.5695171 38.1591124,41.7138332 C37.8124835,41.8581493 37.4401203,41.9303062 37.0420118,41.9303062 C36.6439033,41.9303062 36.2715402,41.8581493 35.9249112,41.7138332 C35.5782823,41.5695171 35.2779894,41.3724053 35.0240237,41.1224921 C34.7700579,40.8725788 34.5710066,40.5769112 34.4268639,40.2354805 C34.2827212,39.8940497 34.2106509,39.5262251 34.2106509,39.1319958 C34.2106509,38.7307266 34.2827212,38.3593822 34.4268639,38.0179514 C34.5710066,37.6765206 34.7700579,37.3808531 35.0240237,37.1309398 C35.2779894,36.8810266 35.5782823,36.6856748 35.9249112,36.5448786 C36.2715402,36.4040824 36.6439033,36.3336853 37.0420118,36.3336853 Z M37.0420118,40.8637804 C37.2753858,40.8637804 37.4915966,40.8197822 37.6906509,40.7317846 C37.8897051,40.643787 38.0595851,40.5205921 38.2002959,40.3621964 C38.3410066,40.2038007 38.450828,40.0207684 38.5297633,39.813094 C38.6086986,39.6054196 38.6481657,39.3783891 38.6481657,39.1319958 C38.6481657,38.8856024 38.6086986,38.6550521 38.5297633,38.4403379 C38.450828,38.2256237 38.3410066,38.0408315 38.2002959,37.8859556 C38.0595851,37.7310798 37.8897051,37.6096449 37.6906509,37.5216473 C37.4915966,37.4336497 37.2753858,37.3896515 37.0420118,37.3896515 C36.8017739,37.3896515 36.5838471,37.4336497 36.3882249,37.5216473 C36.1926026,37.6096449 36.0244386,37.7310798 35.8837278,37.8859556 C35.743017,38.0408315 35.6331957,38.2256237 35.5542604,38.4403379 C35.475325,38.6550521 35.435858,38.8856024 35.435858,39.1319958 C35.435858,39.3783891 35.475325,39.6054196 35.5542604,39.813094 C35.6331957,40.0207684 35.743017,40.2038007 35.8837278,40.3621964 C36.0244386,40.5205921 36.1926026,40.643787 36.3882249,40.7317846 C36.5838471,40.8197822 36.8017739,40.8637804 37.0420118,40.8637804 Z M45.3507692,41.4023231 C45.268402,41.4586416 45.1671604,41.5167192 45.0470414,41.5765576 C44.9269225,41.6363959 44.7896457,41.6927136 44.6352071,41.7455121 C44.4807685,41.7983107 44.3057406,41.8423089 44.1101183,41.8775079 C43.9144961,41.912707 43.6931373,41.9303062 43.4460355,41.9303062 C43.0616549,41.9303062 42.7013035,41.8704687 42.3649704,41.750792 C42.0286374,41.6311152 41.7334924,41.4533627 41.4795266,41.217529 C41.2255609,40.9816954 41.0247936,40.6913076 40.8772189,40.3463569 C40.7296442,40.0014062 40.655858,39.6036629 40.655858,39.1531151 C40.655858,38.7025673 40.7279283,38.3013041 40.872071,37.9493136 C41.0162137,37.5973231 41.215265,37.3016555 41.4692308,37.062302 C41.7231965,36.8229485 42.0234894,36.6416761 42.3701183,36.5184794 C42.7167473,36.3952827 43.0891104,36.3336853 43.4872189,36.3336853 C43.823552,36.3336853 44.1101172,36.3618441 44.3469231,36.4181626 C44.583729,36.4744811 44.7759164,36.5448781 44.9234911,36.6293559 C45.0710658,36.7138336 45.1774553,36.8088696 45.2426627,36.9144667 C45.3078701,37.0200639 45.3404734,37.1256595 45.3404734,37.2312566 C45.3404734,37.3720528 45.2941425,37.5022873 45.2014793,37.6219641 C45.1088161,37.7416409 45.0213022,37.833157 44.9389349,37.8965153 C44.815384,37.7768385 44.6369242,37.6624433 44.4035503,37.5533263 C44.1701763,37.4442092 43.8818952,37.3896515 43.5386982,37.3896515 C43.3053243,37.3896515 43.0873975,37.4248501 42.8849112,37.4952482 C42.682425,37.5656463 42.5073972,37.6730017 42.3598225,37.8173178 C42.2122478,37.9616339 42.0955626,38.1411464 42.0097633,38.3558606 C41.9239641,38.5705748 41.8810651,38.8257641 41.8810651,39.1214361 C41.8810651,39.4311878 41.92568,39.6951767 42.0149112,39.9134108 C42.1041425,40.1316449 42.2276915,40.3111573 42.3855621,40.4519535 C42.5434327,40.5927497 42.7253244,40.6965854 42.9312426,40.7634636 C43.1371608,40.8303418 43.3602355,40.8637804 43.6004734,40.8637804 C43.9436704,40.8637804 44.2199398,40.8162624 44.4292899,40.7212249 L44.6615774,40.6116414 C44.7484267,40.5685408 44.8134233,40.5329111 44.856568,40.5047518 L45.3507692,41.4023231 Z M50.6737278,41.7613516 C50.6188163,41.7726153 50.5386465,41.7850052 50.4332168,41.7985216 L50.3494083,41.8088701 C50.2387273,41.8220698 50.1135691,41.8352693 49.9739315,41.8484688 L49.8294675,41.8616684 C49.6304132,41.879268 49.4073385,41.8951073 49.1602367,41.9091869 C48.9131349,41.9232665 48.655741,41.9303062 48.3880473,41.9303062 C47.85266,41.9303062 47.4150905,41.8827882 47.0753254,41.7877508 C46.7355604,41.6927134 46.4678708,41.5659987 46.2722485,41.407603 C46.0766262,41.2492072 45.9427814,41.0661749 45.8707101,40.8585005 C45.7986387,40.6508261 45.7626036,40.4378751 45.7626036,40.219641 C45.7626036,39.9310088 45.8055025,39.6775794 45.8913018,39.4593453 C45.977101,39.2411112 46.1178097,39.0580789 46.313432,38.9102429 C46.5090542,38.7624069 46.7647321,38.6515315 47.0804734,38.5776135 C47.3962146,38.5036955 47.7805895,38.4667371 48.2336095,38.4667371 C48.4944392,38.4667371 48.7415373,38.4755367 48.9749112,38.4931362 L49.4367948,38.5334682 C49.4594838,38.5359126 49.4805522,38.5383081 49.5,38.5406547 C49.5,38.2942614 49.4605329,38.0901099 49.3815976,37.9281943 C49.3026623,37.7662787 49.1945569,37.639564 49.0572781,37.5480465 C48.9199993,37.4565289 48.7552672,37.3931716 48.5630769,37.3579725 C48.3708866,37.3227735 48.1581077,37.3051742 47.9247337,37.3051742 C47.5334892,37.3051742 47.2194686,37.3509323 46.9826627,37.4424498 C46.7458568,37.5339674 46.5897045,37.6114041 46.5142012,37.6747624 C46.4730175,37.6395634 46.4163909,37.5726862 46.3443195,37.4741288 C46.2722482,37.3755715 46.236213,37.2558965 46.236213,37.1151003 C46.236213,37.016543 46.2619524,36.919747 46.313432,36.8247096 C46.3649115,36.7296722 46.4558573,36.6451957 46.5862722,36.5712777 C46.716687,36.4973597 46.8917149,36.4392822 47.1113609,36.3970433 C47.331007,36.3548044 47.6089924,36.3336853 47.9453254,36.3336853 C48.3502979,36.3336853 48.7192291,36.3741636 49.0521302,36.4551214 C49.3850313,36.5360793 49.6715964,36.6645539 49.9118343,36.8405491 C50.1520722,37.0165444 50.3391118,37.2488546 50.4729586,37.5374868 C50.6068054,37.826119 50.6737278,38.1745844 50.6737278,38.5828933 L50.6737278,41.7613516 Z M49.5102959,40.9588173 L49.5102959,39.4171067 L49.3622931,39.3907075 C49.2979442,39.3801479 49.2185804,39.3678283 49.1242012,39.3537487 L48.964937,39.3352692 C48.7879772,39.3194297 48.5579304,39.31151 48.2747929,39.31151 C47.808045,39.31151 47.4682851,39.383667 47.255503,39.5279831 C47.0427208,39.6722992 46.9363314,39.8993297 46.9363314,40.2090813 C46.9363314,40.3357979 46.9586388,40.451953 47.0032544,40.5575502 C47.04787,40.6631473 47.1250882,40.7529035 47.2349112,40.8268215 C47.3447343,40.9007395 47.4940227,40.9570572 47.6827811,40.9957761 C47.8715394,41.0344951 48.1066258,41.0538543 48.3880473,41.0538543 C48.7037886,41.0538543 48.9543186,41.0415348 49.139645,41.0168955 L49.371302,40.9838965 C49.433077,40.9742168 49.4794081,40.9658571 49.5102959,40.9588173 Z M51.9298225,34.5596621 C51.9298225,34.3695872 51.9847332,34.2287931 52.0945562,34.1372756 C52.2043792,34.0457581 52.3588156,34 52.5578698,34 C52.6814207,34 52.794674,34.0158393 52.8976331,34.0475185 L53.0788402,34.1066526 C53.0884497,34.1101725 53.0966864,34.1133404 53.1035503,34.1161563 L53.1035503,41.782471 L51.9298225,41.782471 L51.9298225,34.5596621 Z M57.6337278,41.782471 L56.3982249,41.782471 L56.6140261,41.1987326 C56.7268684,40.8979941 56.8471236,40.583951 56.9747929,40.2565998 C57.187575,39.7110145 57.4106497,39.151358 57.6440237,38.5776135 C57.8773976,38.003869 58.1193479,37.4213335 58.3698817,36.8299894 C58.6204155,36.2386454 58.8692295,35.6613897 59.1163314,35.0982049 C59.2398823,34.8166125 59.3805909,34.6212607 59.5384615,34.5121436 C59.6963322,34.4030266 59.8953834,34.3484688 60.1356213,34.3484688 C60.2248525,34.3484688 60.3123664,34.3590284 60.3981657,34.3801478 C60.4839649,34.4012673 60.5594671,34.4259062 60.6246746,34.4540655 C60.689882,34.4822247 60.7447927,34.5086236 60.7894083,34.5332629 L60.8579401,34.5738516 C60.8620155,34.5767115 60.8649112,34.5790215 60.8666272,34.5807814 L60.9551074,34.7464363 C61.0497004,34.9299101 61.1626325,35.1668412 61.2939053,35.4572334 C61.4689358,35.8444229 61.6576913,36.2791247 61.8601775,36.7613516 L62.1677663,37.5005279 C62.2715826,37.7521992 62.3766859,38.0091504 62.4830769,38.2713833 L62.7310014,38.8872233 C62.8111716,39.0879972 62.8888708,39.2842655 62.9640992,39.4760289 L63.409132,40.6261877 L63.409132,40.6261877 L63.7288759,41.4722813 C63.7769231,41.6016368 63.8146744,41.7050331 63.8421302,41.782471 L62.4830769,41.782471 L62.4369515,41.6642028 L62.4369515,41.6642028 L62.1690533,40.9218585 L62.1690533,40.9218585 L61.968284,40.3780359 L61.968284,40.3780359 L61.7829586,39.8922914 L61.7829586,39.8922914 L58.3338462,39.8922914 L58.1600519,40.3425558 C58.1045917,40.4878565 58.0516025,40.6283699 58.0010842,40.7640967 L57.7637129,41.414203 C57.7148077,41.5505982 57.6714795,41.6733539 57.6337278,41.782471 Z M58.7662722,38.7835269 L61.3711243,38.7835269 L61.2166864,38.3730202 C61.1617753,38.2295851 61.1034323,38.0795502 61.0416568,37.9229145 L60.6761538,37.0042239 L60.6761538,37.0042239 C60.5860646,36.7798299 60.4998374,36.5702879 60.4174706,36.3755943 L60.2374357,35.9594036 C60.1764233,35.821737 60.1253256,35.7106657 60.084142,35.626188 L59.7855621,36.2967265 L59.7855621,36.2967265 L59.5613414,36.8153229 C59.5232086,36.9048843 59.4846945,36.9960103 59.4457988,37.0887012 C59.3291118,37.3667737 59.2124266,37.6501218 59.0957396,37.938754 C58.9790527,38.2273862 58.8692313,38.5089743 58.7662722,38.7835269 Z M64.8202367,43.5881732 L65.1394083,42.6906019 L65.1880047,42.7134107 C65.2201276,42.7277718 65.2639879,42.746568 65.3195858,42.7697994 C65.412249,42.8085183 65.5289342,42.8472367 65.669645,42.8859556 C65.8103557,42.9246746 65.9750878,42.9581132 66.1638462,42.9862724 C66.3526045,43.0144317 66.5568036,43.0285111 66.7764497,43.0285111 C67.0098237,43.0285111 67.2397622,43.0021122 67.4662722,42.9493136 C67.6927822,42.896515 67.8952654,42.801479 68.0737278,42.6642027 C68.2521902,42.5269265 68.3980468,42.3350945 68.5113018,42.0887012 C68.6245568,41.8423078 68.6811834,41.5255211 68.6811834,41.1383316 L68.6811834,41.0116156 C68.5233128,41.2016905 68.2950903,41.381203 67.9965089,41.5501584 C67.6979275,41.7191138 67.339292,41.8035903 66.9205917,41.8035903 C66.5362111,41.8035903 66.1827235,41.738473 65.8601183,41.6082365 C65.5375132,41.4780001 65.2595278,41.2949677 65.0261538,41.0591341 C64.7927799,40.8233005 64.6108882,40.5399524 64.4804734,40.2090813 C64.3500585,39.8782102 64.2848521,39.5121456 64.2848521,39.1108765 C64.2848521,38.7096073 64.3552064,38.3400228 64.4959172,38.0021119 C64.6366279,37.6642011 64.8305313,37.3720533 65.0776331,37.12566 C65.324735,36.8792666 65.6215959,36.6856748 65.9682249,36.5448786 C66.3148538,36.4040824 66.6940808,36.3336853 67.1059172,36.3336853 C67.4971617,36.3336853 67.8592291,36.3935228 68.1921302,36.5131996 C68.5250313,36.6328763 68.8150284,36.8159087 69.0621302,37.062302 C69.309232,37.3086954 69.5014194,37.6219622 69.6386982,38.0021119 C69.775977,38.3822617 69.8446154,38.8292829 69.8446154,39.343189 L69.8446154,40.8637804 C69.8446154,41.4199253 69.7708291,41.8968653 69.6232544,42.2946146 C69.4756797,42.6923638 69.2714806,43.0179502 69.0106509,43.2713833 C68.7498212,43.5248165 68.4392326,43.7096087 68.0788757,43.8257656 C67.7185189,43.9419224 67.3255643,44 66.9,44 C66.6185785,44 66.3629006,43.9841607 66.1329586,43.9524815 C65.9030166,43.9208024 65.6988175,43.882084 65.520355,43.8363252 C65.3418926,43.7905665 65.1943201,43.7448084 65.0776331,43.6990496 L64.9524353,43.6483632 C64.8972496,43.625132 64.8531836,43.6050687 64.8202367,43.5881732 Z M67.0956213,40.7898627 C67.3289952,40.7898627 67.5417742,40.7476245 67.7339645,40.6631468 C67.9261548,40.5786691 68.0908869,40.4625139 68.2281657,40.3146779 C68.3654445,40.1668419 68.4735499,39.9908493 68.5524852,39.7866948 C68.6314205,39.5825403 68.6708876,39.3572698 68.6708876,39.1108765 C68.6708876,38.8715229 68.6314205,38.6480123 68.5524852,38.4403379 C68.4735499,38.2326635 68.3654445,38.0531511 68.2281657,37.9017951 C68.0908869,37.7504392 67.9261548,37.6325242 67.7339645,37.5480465 C67.5417742,37.4635687 67.3289952,37.4213305 67.0956213,37.4213305 C66.8553834,37.4213305 66.6374566,37.4653287 66.4418343,37.5533263 C66.246212,37.6413239 66.079764,37.7627588 65.9424852,37.9176346 C65.8052064,38.0725105 65.6988169,38.2520229 65.6233136,38.4561774 C65.5478103,38.6603319 65.5100592,38.8785627 65.5100592,39.1108765 C65.5100592,39.6177428 65.6541997,40.0242857 65.9424852,40.3305174 C66.2307707,40.6367492 66.6151455,40.7898627 67.0956213,40.7898627 Z M75.095503,40.5469905 L75.527929,41.3917635 L75.4472095,41.4407603 C75.3994369,41.4686377 75.3405447,41.5015838 75.2705325,41.5395987 C75.1538456,41.602957 75.007989,41.6627945 74.8329586,41.719113 C74.6579281,41.7754315 74.4554449,41.8247094 74.225503,41.8669483 C73.995561,41.9091871 73.743315,41.9303062 73.4687574,41.9303062 C73.0843768,41.9303062 72.7257413,41.8704687 72.3928402,41.750792 C72.0599392,41.6311152 71.7682261,41.4533627 71.5176923,41.217529 C71.2671585,40.9816954 71.0698232,40.6930675 70.9256805,40.3516367 C70.7815377,40.010206 70.7094675,39.6177424 70.7094675,39.1742344 C70.7094675,38.7518458 70.7798218,38.366422 70.9205325,38.0179514 C71.0612433,37.6694808 71.2568627,37.3702934 71.5073964,37.1203801 C71.7579302,36.8704669 72.0530752,36.676875 72.3928402,36.5395987 C72.7326052,36.4023224 73.1049684,36.3336853 73.5099408,36.3336853 C73.8668657,36.3336853 74.1826022,36.3812033 74.4571598,36.4762408 C74.7317173,36.5712782 74.9633718,36.6979929 75.1521302,36.8563886 C75.3408885,37.0147843 75.4833131,37.1995766 75.5794083,37.4107709 C75.6755034,37.6219652 75.7235503,37.8472357 75.7235503,38.0865892 C75.7235503,38.3329826 75.6789354,38.5564932 75.5897041,38.7571278 C75.5004729,38.9577624 75.3426047,39.1302351 75.1160947,39.2745512 C74.8895847,39.4188673 74.5841439,39.5315026 74.1997633,39.6124604 C73.8153827,39.6934182 73.3280503,39.7338965 72.7377515,39.7338965 L72.4746352,39.7315499 L72.4746352,39.7315499 L72.3516568,39.7286167 C72.2315379,39.7250968 72.1028409,39.719817 71.9655621,39.7127772 C72.0204736,40.0718075 72.1903536,40.3621953 72.4752071,40.5839493 C72.7600606,40.8057033 73.1667429,40.9165787 73.6952663,40.9165787 C73.8737287,40.9165787 74.0384608,40.9024993 74.1894675,40.87434 C74.3404741,40.8461808 74.4760349,40.8109823 74.5961538,40.7687434 C74.7162728,40.7265045 74.8192303,40.6842663 74.9050296,40.6420275 L75.095503,40.5469905 L75.095503,40.5469905 Z M71.9140828,38.8891235 L72.2206705,38.8985099 C72.270243,38.8992921 72.319053,38.8996832 72.3671006,38.8996832 L72.7995266,38.8996832 C73.1770433,38.8996832 73.482484,38.8750442 73.715858,38.8257656 C73.9492319,38.7764869 74.1311236,38.7131296 74.2615385,38.6356917 C74.3919533,38.5582537 74.4777513,38.4702574 74.5189349,38.3717001 C74.5601185,38.2731428 74.5807101,38.1710671 74.5807101,38.0654699 C74.5807101,37.7979571 74.4760365,37.5973256 74.2666864,37.4635692 C74.0573362,37.3298128 73.7982264,37.2629356 73.4893491,37.2629356 C73.2353833,37.2629356 73.0123087,37.3086937 72.8201183,37.4002112 C72.627928,37.4917287 72.4666279,37.6131636 72.336213,37.7645195 C72.2057982,37.9158754 72.1045566,38.0901081 72.0324852,38.2872228 C71.9604138,38.4843375 71.9209468,38.6849691 71.9140828,38.8891235 Z M76.5986982,38.5828933 C76.5986982,38.2309029 76.6621887,37.9158761 76.7891716,37.6378036 C76.9161545,37.3597311 77.0911823,37.123901 77.3142604,36.9303062 C77.5373384,36.7367115 77.8015961,36.5888777 78.1070414,36.4868004 C78.4124867,36.3847232 78.7470988,36.3336853 79.1108876,36.3336853 C79.4746764,36.3336853 79.8110044,36.3847232 80.1198817,36.4868004 C80.4287589,36.5888777 80.6947326,36.7367115 80.9178107,36.9303062 C81.1408887,37.123901 81.3142006,37.3597311 81.4377515,37.6378036 C81.5613024,37.9158761 81.6230769,38.2309029 81.6230769,38.5828933 L81.6230769,41.782471 L80.4493491,41.782471 L80.4493491,38.8891235 C80.4493491,38.4104165 80.3360958,38.0461118 80.1095858,37.7961985 C79.8830758,37.5462853 79.5501797,37.4213305 79.1108876,37.4213305 C78.6647315,37.4213305 78.3301195,37.5462853 78.1070414,37.7961985 C77.8839634,38.0461118 77.772426,38.4104165 77.772426,38.8891235 L77.772426,41.782471 L76.5986982,41.782471 L76.5986982,38.5828933 Z M87.3063905,41.4023231 C87.2240233,41.4586416 87.1227817,41.5167192 87.0026627,41.5765576 C86.8825438,41.6363959 86.745267,41.6927136 86.5908284,41.7455121 C86.4363898,41.7983107 86.2613619,41.8423089 86.0657396,41.8775079 C85.8701174,41.912707 85.6487586,41.9303062 85.4016568,41.9303062 C85.0172762,41.9303062 84.6569248,41.8704687 84.3205917,41.750792 C83.9842587,41.6311152 83.6891137,41.4533627 83.4351479,41.217529 C83.1811822,40.9816954 82.9804149,40.6913076 82.8328402,40.3463569 C82.6852655,40.0014062 82.6114793,39.6036629 82.6114793,39.1531151 C82.6114793,38.7025673 82.6835496,38.3013041 82.8276923,37.9493136 C82.971835,37.5973231 83.1708863,37.3016555 83.4248521,37.062302 C83.6788178,36.8229485 83.9791107,36.6416761 84.3257396,36.5184794 C84.6723686,36.3952827 85.0447317,36.3336853 85.4428402,36.3336853 C85.7791733,36.3336853 86.0657385,36.3618441 86.3025444,36.4181626 C86.5393503,36.4744811 86.7315377,36.5448781 86.8791124,36.6293559 C87.0266871,36.7138336 87.1330766,36.8088696 87.198284,36.9144667 C87.2634915,37.0200639 87.2960947,37.1256595 87.2960947,37.2312566 C87.2960947,37.3720528 87.2497638,37.5022873 87.1571006,37.6219641 C87.0644374,37.7416409 86.9769235,37.833157 86.8945562,37.8965153 C86.7710053,37.7768385 86.5925455,37.6624433 86.3591716,37.5533263 C86.1257976,37.4442092 85.8375165,37.3896515 85.4943195,37.3896515 C85.2609456,37.3896515 85.0430188,37.4248501 84.8405325,37.4952482 C84.6380463,37.5656463 84.4630185,37.6730017 84.3154438,37.8173178 C84.1678691,37.9616339 84.0511839,38.1411464 83.9653846,38.3558606 C83.8795854,38.5705748 83.8366864,38.8257641 83.8366864,39.1214361 C83.8366864,39.4311878 83.8813013,39.6951767 83.9705325,39.9134108 C84.0597638,40.1316449 84.1833128,40.3111573 84.3411834,40.4519535 C84.499054,40.5927497 84.6809457,40.6965854 84.8868639,40.7634636 C85.0927821,40.8303418 85.3158568,40.8637804 85.5560947,40.8637804 C85.8992917,40.8637804 86.1755611,40.8162624 86.3849112,40.7212249 L86.6171987,40.6116414 C86.704048,40.5685408 86.7690446,40.5329111 86.8121893,40.5047518 L87.3063905,41.4023231 Z M87.9756213,37.0411827 C87.9756213,36.8511078 88.030532,36.7103137 88.140355,36.6187962 C88.2501781,36.5272787 88.4011825,36.4815206 88.5933728,36.4815206 C88.7169237,36.4815206 88.831893,36.4973599 88.938284,36.5290391 L89.1244331,36.5881732 C89.1341798,36.591693 89.1424852,36.594861 89.1493491,36.5976769 L89.1493491,39.4171067 C89.1493491,39.8324554 89.2574545,40.1633215 89.4736686,40.4097149 C89.6898827,40.6561082 90.0244948,40.7793031 90.4775148,40.7793031 C90.8962151,40.7793031 91.2256793,40.6543483 91.4659172,40.4044351 C91.706155,40.1545218 91.8262722,39.7866973 91.8262722,39.3009504 L91.8262722,37.0411827 C91.8262722,36.8511078 91.8811829,36.7103137 91.9910059,36.6187962 C92.100829,36.5272787 92.2518334,36.4815206 92.4440237,36.4815206 C92.5675746,36.4815206 92.6825438,36.4973599 92.7889349,36.5290391 L92.975084,36.5881732 C92.9848307,36.591693 92.9931361,36.594861 93,36.5976769 L93,41.2228089 C93,41.7226354 92.9347936,42.1467776 92.8043787,42.4952482 C92.6739638,42.8437187 92.4886403,43.1305867 92.2484024,43.3558606 C92.0081645,43.5811345 91.7198833,43.7448077 91.3835503,43.8468849 C91.0472173,43.9489621 90.6731382,44 90.2613018,44 C89.9798802,44 89.7224864,43.9841607 89.4891124,43.9524815 C89.2557385,43.9208024 89.0481074,43.8838439 88.866213,43.8416051 C88.6843186,43.7993662 88.5350302,43.7588879 88.4183432,43.720169 L88.2947927,43.6779303 C88.2412543,43.6589229 88.2000712,43.6430835 88.1712426,43.6304118 C88.2261541,43.4825758 88.2776329,43.3329821 88.3256805,43.1816262 L88.4698225,42.7328405 L88.4698225,42.7328405 L88.5624851,42.7697993 C88.6002365,42.7838789 88.6448518,42.7997183 88.6963314,42.8173178 C88.7992905,42.8525169 88.9228395,42.8859555 89.0669822,42.9176346 C89.211125,42.9493138 89.3741411,42.9757127 89.5560355,42.9968321 C89.7379299,43.0179515 89.9318333,43.0285111 90.1377515,43.0285111 C90.4054451,43.0285111 90.6456794,42.9985923 90.8584615,42.938754 C91.0712437,42.8789156 91.2514194,42.7750799 91.3989941,42.6272439 C91.5465688,42.4794079 91.6598221,42.2840561 91.7387574,42.0411827 C91.8176927,41.7983092 91.8571598,41.493842 91.8571598,41.1277719 C91.719881,41.3319264 91.5053861,41.4955995 91.2136686,41.6187962 C90.9219512,41.7419929 90.6010668,41.8035903 90.2510059,41.8035903 C89.9215368,41.8035903 89.6160961,41.7560723 89.3346746,41.6610348 C89.053253,41.5659974 88.8130187,41.4287232 88.6139645,41.249208 C88.4149102,41.0696929 88.258758,40.8461823 88.145503,40.5786695 C88.032248,40.3111567 87.9756213,40.0049296 87.9756213,39.6599789 L87.9756213,37.0411827 Z" id="TopLocalAgency"></path>
                <path d="M92.4972812,13.9574997 C92.8312203,13.9574997 93.1419647,13.9997236 93.4295234,14.0841728 L93.7878109,14.1932525 L93.9121675,14.2345971 C93.9475323,14.2469125 93.9768098,14.2577618 94,14.267145 L94,26.5966607 C94,27.9290808 93.823757,29.0597442 93.4712656,29.988685 C93.1187742,30.9176257 92.617873,31.6823483 91.9685468,32.2828757 C91.3192206,32.883403 90.5400408,33.3197171 89.6309841,33.5918311 C88.7219274,33.8639451 87.7108489,34 86.5977183,34 C85.837079,34 85.1413828,33.9577761 84.5106088,33.8733269 C83.8798348,33.7888777 83.3186374,33.6903552 82.8270071,33.5777563 L82.4748066,33.4941871 C82.195076,33.4252793 81.9497695,33.3582045 81.7388843,33.2929619 L81.3973366,33.181023 L81.1338394,33.0879976 C81.0590516,33.0602879 80.9973081,33.035877 80.9486086,33.0147647 C81.097026,32.6206687 81.2361653,32.2218869 81.3660305,31.8184076 C81.4958957,31.4149283 81.625759,31.0161466 81.7556243,30.6220505 C81.8854895,30.6783499 82.0895604,30.7534147 82.3678431,30.8472471 C82.6461257,30.9410795 82.9800599,31.030219 83.3696556,31.1146681 C83.7592513,31.1991173 84.1998589,31.2694905 84.6914916,31.32579 C85.1831243,31.3820894 85.7072155,31.4102387 86.2637808,31.4102387 C86.9873157,31.4102387 87.6366322,31.3304824 88.2117497,31.1709673 C88.7868671,31.0114522 89.2738545,30.7346508 89.6727263,30.3405547 C90.0715981,29.9464586 90.3777044,29.4256966 90.5910545,28.7782531 C90.8044045,28.1308095 90.9110779,27.3191714 90.9110779,26.3433145 C90.5400344,26.8875424 89.9602876,27.3238565 89.17182,27.6522699 C88.3833525,27.9806833 87.5160512,28.1448875 86.5698902,28.1448875 C85.6793857,28.1448875 84.8538262,28.0182157 84.0931869,27.7648682 C83.3325476,27.5115207 82.6832312,27.1455799 82.145218,26.6670346 C81.6072049,26.1884894 81.1851492,25.5926626 80.8790383,24.8795364 C80.5729274,24.1664101 80.4198742,23.3500805 80.4198742,22.430523 L80.4198742,15.4494273 C80.4198742,14.9427324 80.5682894,14.5674084 80.8651242,14.3234442 C81.161959,14.0794799 81.5701008,13.9574997 82.0895618,13.9574997 C82.423501,13.9574997 82.7342453,13.9997236 83.021804,14.0841728 L83.3800915,14.1932525 L83.5044481,14.2345971 C83.5398129,14.2469125 83.5690904,14.2577618 83.5922806,14.267145 L83.5922806,21.7830827 C83.5922806,22.890305 83.884473,23.7723163 84.4688666,24.4291431 C85.0532602,25.0859699 85.9576653,25.4143784 87.182109,25.4143784 C88.3137918,25.4143784 89.2042829,25.0812783 89.8536091,24.4150683 C90.5029353,23.7488583 90.8275936,22.7683244 90.8275936,21.4734373 L90.8275936,15.4494273 C90.8275936,14.9427324 90.9760088,14.5674084 91.2728436,14.3234442 C91.5696784,14.0794799 91.9778202,13.9574997 92.4972812,13.9574997 Z M34.0025589,13.5634055 C35.060033,13.5634055 36.0340077,13.7510675 36.9245122,14.1263971 C37.8150167,14.5017267 38.5895585,15.0177972 39.2481608,15.674624 C39.9067631,16.3314508 40.4215783,17.1196311 40.7926218,18.0391886 C41.1636654,18.9587461 41.3491843,19.9533547 41.3491843,21.023044 C41.3491843,22.1114999 41.1683033,23.1107999 40.8065359,24.0209742 C40.4447684,24.9311485 39.9438672,25.7146373 39.303817,26.3714641 C38.6637669,27.0282909 37.912415,27.5396698 37.0497388,27.9056161 C36.1870625,28.2715625 35.2455537,28.4545329 34.2251839,28.4545329 C33.1677098,28.4545329 32.2308389,28.2481047 31.4145431,27.8352422 C30.5982473,27.4223796 29.9582068,26.9156923 29.4944024,26.3151649 L29.4944024,33.7185042 L26.3219959,33.7185042 L26.3219959,21.6704843 C26.3219959,20.3568307 26.5075149,19.198018 26.8785585,18.1940113 C27.249602,17.1900046 27.7690552,16.3455257 28.4369336,15.6605492 C29.104812,14.9755727 29.9118196,14.4548107 30.8579806,14.0982476 C31.8041416,13.7416844 32.8523239,13.5634055 34.0025589,13.5634055 Z M22.7785478,8.77797709 C23.1495914,8.77797709 23.4835255,8.82489259 23.7803604,8.91872499 L23.9838541,8.9855804 C24.1682156,9.04891695 24.2951804,9.10169704 24.364751,9.14392162 L24.364751,19.418518 C24.364751,22.3836218 23.641227,24.6543318 22.1941572,26.2307162 C20.7470873,27.8071005 18.5765152,28.5952808 15.6823755,28.5952808 C12.7882359,28.5952808 10.6176637,27.8071005 9.17059388,26.2307162 C7.72352406,24.6543318 7,22.3836218 7,19.418518 L7,10.3262039 C7,9.80074251 7.15305317,9.41134389 7.45916409,9.15799641 C7.76527501,8.90464893 8.18733071,8.77797709 8.72534385,8.77797709 C9.0963874,8.77797709 9.43032158,8.82489259 9.72715641,8.91872499 L9.93065015,8.9855804 C10.1150116,9.04891695 10.2419764,9.10169704 10.3115471,9.14392162 L10.3115471,19.1370222 C10.3115471,20.2067116 10.4043066,21.1403299 10.5898283,21.9379053 C10.7753501,22.7354807 11.0768185,23.4016808 11.4942425,23.9365255 C11.9116664,24.4713701 12.4635854,24.8748434 13.150016,25.1469574 C13.8364465,25.4190713 14.680558,25.5551263 15.6823755,25.5551263 C16.6841931,25.5551263 17.5283045,25.4190713 18.214735,25.1469574 C18.9011656,24.8748434 19.4530846,24.4713701 19.8705086,23.9365255 C20.2879326,23.4016808 20.5894009,22.7354807 20.7749227,21.9379053 C20.9604445,21.1403299 21.053204,20.2067116 21.053204,19.1370222 L21.053204,10.3262039 C21.053204,9.80074251 21.2062571,9.41134389 21.5123681,9.15799641 C21.818479,8.90464893 22.2405347,8.77797709 22.7785478,8.77797709 Z M53.7327007,8.27128467 C55.0684575,8.27128467 56.1630195,8.38388186 57.0164197,8.60907962 C57.8698198,8.83427738 58.5423261,9.11107881 59.0339588,9.4394922 C59.5255915,9.7679056 59.8688017,10.1056972 60.0635995,10.4528771 C60.2583974,10.8000569 60.3557949,11.0862415 60.3557949,11.3114392 C60.3557949,11.5554035 60.3047771,11.7899821 60.2027402,12.0151787 C60.1007032,12.2403765 59.9801158,12.4421131 59.8409745,12.6203946 C59.7018332,12.7986762 59.558056,12.9534973 59.4096386,13.0848627 C59.2612211,13.2162281 59.1313578,13.3100591 59.0200448,13.3663585 C58.834523,13.1599272 58.5794344,12.9347328 58.2547713,12.6907686 C57.9301082,12.4468044 57.5451541,12.22161 57.099904,12.0151787 C56.6546518,11.8087474 56.1537505,11.6351601 55.5971852,11.4944115 C55.0406199,11.3536629 54.4376832,11.2832896 53.788357,11.2832896 C52.8421959,11.2832896 51.9609807,11.4474939 51.1446849,11.7759073 C50.3283891,12.1043207 49.623417,12.5828587 49.0297473,13.2115358 C48.4360776,13.8402129 47.9676422,14.6002439 47.6244269,15.4916517 C47.2812116,16.3830595 47.1096066,17.3917427 47.1096066,18.5177315 C47.1096066,19.6624868 47.2904876,20.6711699 47.652255,21.5438112 C48.0140225,22.4164525 48.5102858,23.1483343 49.1410598,23.7394784 C49.7718338,24.3306225 50.5139098,24.7763197 51.3673099,25.0765834 C52.2207101,25.3768471 53.1390291,25.5269767 54.1222945,25.5269767 C55.2910817,25.5269767 56.2975222,25.3768471 57.1416462,25.0765834 C57.9857703,24.7763197 58.6026209,24.4948268 58.9922167,24.232096 L60.4671074,26.7937077 L60.4949355,26.7937077 C60.2908615,26.9438396 60.0079451,27.1221185 59.6461776,27.3285497 C59.284412,27.534981 58.8298887,27.7320261 58.2825994,27.9196909 C57.7353102,28.1073557 57.0906317,28.2668684 56.3485446,28.3982338 C55.6064575,28.5295991 54.7623461,28.5952808 53.8161851,28.5952808 C52.443324,28.5952808 51.1446911,28.374778 49.9202474,27.9337657 C48.6958037,27.4927534 47.6151556,26.8500111 46.6782706,26.0055195 C45.7413857,25.1610279 44.9993097,24.1101208 44.4520205,22.8527667 C43.9047312,21.5954125 43.6310907,20.1504152 43.6310907,18.5177315 C43.6310907,16.9038142 43.8954553,15.4588169 44.4241923,14.1826963 C44.9529294,12.9065757 45.6764535,11.8322108 46.5947862,10.9595695 C47.513119,10.0869282 48.5844912,9.42072812 49.8089349,8.96094936 C51.0333785,8.5011706 52.3412874,8.27128467 53.7327007,8.27128467 Z M70.9861392,9.96025942 C71.3200784,9.96025942 71.6308227,10.0024834 71.9183815,10.0869325 L72.276669,10.1960122 L72.4010256,10.2373568 C72.4363904,10.2496722 72.4656679,10.2605215 72.4888581,10.2699048 L72.4888581,13.9574997 L76.5239365,13.9574997 C77.1361583,13.9574997 77.56749,14.0841715 77.8179443,14.337519 C78.0683987,14.5908665 78.1936241,14.9614989 78.1936241,15.4494273 C78.1936241,15.7684575 78.1472443,16.0640251 78.0544834,16.3361391 L77.9795177,16.5498466 C77.9208326,16.7116588 77.8716131,16.8327777 77.8318584,16.9132055 L72.4888581,16.9132055 L72.4888581,23.1905616 C72.4888581,23.6784901 72.5537897,24.0772718 72.683655,24.3869187 C72.8135202,24.6965656 72.9944012,24.9452178 73.2263034,25.1328826 C73.4582057,25.3205474 73.7272082,25.4519108 74.0333191,25.5269767 C74.33943,25.6020426 74.6594503,25.639575 74.9933895,25.639575 C75.5314026,25.639575 76.0323039,25.5551271 76.4961083,25.3862288 C76.9599128,25.2173305 77.2938469,25.0578178 77.4979209,24.9076859 L78.7780147,27.047054 C78.6295973,27.1596528 78.4208884,27.3003993 78.1518819,27.4692976 C77.8828753,27.638196 77.5535791,27.7977086 77.1639834,27.9478405 C76.7743876,28.0979723 76.338418,28.2246442 75.8560614,28.3278598 C75.3737048,28.4310754 74.8449757,28.4826825 74.2698582,28.4826825 C72.6372666,28.4826825 71.4035653,28.0557515 70.5687173,27.2018766 C69.7338694,26.3480018 69.3164516,25.2267214 69.3164516,23.8380019 L69.3164516,11.4521871 C69.3164516,10.9267257 69.4648668,10.546709 69.7617017,10.3121292 C70.0585365,10.0775482 70.4666783,9.96025942 70.9861392,9.96025942 Z M64.3630451,13.9574997 C64.6969843,13.9574997 65.0030906,13.9997236 65.2813733,14.0841728 L65.6292252,14.1932525 L65.7509729,14.2345971 C65.785758,14.2469125 65.8147456,14.2577618 65.8379358,14.267145 L65.8379358,28.0885884 L62.6655294,28.0885884 L62.6655294,15.4494273 C62.6655294,14.9239659 62.8139446,14.5439492 63.1107794,14.3093694 C63.4076142,14.0747884 63.8250347,13.9574997 64.3630451,13.9574997 Z M33.7799339,16.4628122 C33.1491599,16.4628122 32.569413,16.5754094 32.040676,16.8006071 C31.5119389,17.0258049 31.0574174,17.3354472 30.6770978,17.7295433 C30.2967781,18.1236393 29.9999478,18.5974858 29.7865977,19.151097 C29.5732477,19.7047082 29.4665743,20.3193012 29.4665743,20.9948944 C29.4665743,21.6517212 29.5732477,22.2616227 29.7865977,22.8246171 C29.9999478,23.3876115 30.2921402,23.8755326 30.6631837,24.2883952 C31.0342273,24.7012578 31.4841108,25.0249747 32.0128479,25.2595557 C32.5415849,25.4941367 33.1306077,25.6114254 33.7799339,25.6114254 C34.4107079,25.6114254 34.9904548,25.4941367 35.5191918,25.2595557 C36.0479289,25.0249747 36.5024504,24.7012578 36.88277,24.2883952 C37.2630897,23.8755326 37.5552821,23.3876115 37.759356,22.8246171 C37.96343,22.2616227 38.0654654,21.6517212 38.0654654,20.9948944 C38.0654654,20.3568341 37.96343,19.7610073 37.759356,19.2073962 C37.5552821,18.653785 37.2630897,18.1752469 36.88277,17.7717676 C36.5024504,17.3682883 36.0479289,17.0492618 35.5191918,16.8146819 C34.9904548,16.5801009 34.4107079,16.4628122 33.7799339,16.4628122 Z M67.6750874,1.37413681 C69.4863473,3.20631922 69.4863473,6.17687383 67.6750874,8.00905624 L64.3955112,11.326516 L61.1159351,8.00905624 C59.3046752,6.17687383 59.3046752,3.20631922 61.1159351,1.37413681 C62.927195,-0.458045602 65.8638275,-0.458045602 67.6750874,1.37413681 Z M63.1656702,3.44754913 C62.4864477,4.13461753 62.4864477,5.24857551 63.1656702,5.93564392 C63.8448926,6.62271232 64.9461298,6.62271232 65.6253523,5.93564392 C66.3045748,5.24857551 66.3045748,4.13461753 65.6253523,3.44754913 C64.9461298,2.76048073 63.8448926,2.76048073 63.1656702,3.44754913 Z" id="Shape"></path>
            </g>
        </g>
    </g>
</svg>