<svg xmlns="http://www.w3.org/2000/svg" width="140" height="46" viewBox="0 0 140 46">
    <g fill="#FFF" fill-rule="nonzero">
        <path d="M16.463 30.68c.517.26 1.034.486 1.519.713.258.13.517.26.775.357-.614 4.122-1.745 7.14-3.102 8.017-.249.139-.474.23-.676.233l-.1-.006c-1.702 0-3.168-3.309-3.913-8.212l-.09-.629.042.28c.544 3.565 1.515 5.962 2.61 6.089l.092.005c.161 0 .29-.032.42-.097.161-.065.29-.195.42-.325.872-.94 1.583-3.277 2.003-6.426zm37.773-3.019c1.196 0 2.068.162 2.65.52.582.356.872.908.872 1.655 0 .486-.129.908-.387 1.265a1.659 1.659 0 0 1-1.002.682v.065c.55.13.937.39 1.163.714.226.324.356.779.356 1.298 0 .779-.291 1.428-.905 1.882-.582.455-1.39.682-2.423.682h-3.393l.032-8.763h3.037zm11.212 0c1.39 0 2.488.357 3.232 1.071.775.714 1.13 1.753 1.13 3.116 0 1.46-.387 2.596-1.195 3.375-.808.779-1.939 1.2-3.36 1.2h-2.811v-8.762h3.004zm12.828 0l1.196 4.446c.258.974.387 1.688.42 2.045.032-.292.096-.617.161-1.038l.16-.714c.023-.098.045-.184.066-.26l1.163-4.479h2.65l-2.843 8.763h-2.78l-2.843-8.763h2.65zm-27.69 0v1.883h-2.844v1.363h2.617v1.914h-2.617v1.656h2.843v1.914h-5.17v-8.73h5.17zM34.72 27.63l.937 4.381.137.62c.145.689.24 1.255.315 1.684l.078-.53c.049-.324.112-.699.213-1.125.129-.714.258-1.266.387-1.72l.776-3.31h2.165l.743 3.31c.108.433.215.933.323 1.501l.23 1.25c.045.26.077.478.093.657l.08-.504c.074-.444.184-1.037.34-1.8l.97-4.414h2.261l-2.1 8.762H39.89l-.84-3.83c-.032-.161-.097-.486-.194-.94a12.865 12.865 0 0 1-.193-1.201l-.023.163-.139.81c-.065.39-.13.747-.226 1.071l-.873 3.927h-2.778l-2.165-8.762h2.262zm40.809.032v1.883h-2.812v1.363h2.618v1.914h-2.618v1.656h2.812v1.914h-5.17v-8.73h5.17zm-21.164 5.063h-.808v1.85h.84c.743 0 1.099-.325 1.099-.941 0-.292-.097-.52-.291-.682-.194-.162-.485-.227-.84-.227zm11.082-3.18h-.678v4.9h.517c.71 0 1.228-.195 1.583-.616.356-.422.517-1.039.517-1.915 0-.812-.161-1.396-.485-1.785-.323-.39-.807-.584-1.454-.584zM6.35 24.254l-.234.196c-2.534 2.158-3.918 4.051-3.385 4.996.678 1.169 4.233.455 8.66-1.558.064.044.143.087.217.13l1.56.941c.129.033.226.098.322.163.162.097.291.162.388.292l-.642.315c-5.96 2.873-11.027 3.84-12.056 2.054-.821-1.46 1.23-4.285 4.916-7.322l.254-.207zM14.88 9c.258 0 .55.097.808.26 1.284.85 2.387 3.622 3.012 7.429l.057.36.082.567c.184 1.34.318 2.8.403 4.333 0 .303.014.62.024.943l.008.485v1.136c0 .411 0 .808-.01 1.21l-.022.608c0 .227-.032.486-.032.714-.033.13-.033.292-.033.421.517.26 1.067.487 1.616.682l.637.256c2.514.981 4.581 1.438 5.748 1.233l.142-.029c.145-.024.272-.066.381-.127l.103-.067a.635.635 0 0 0 .291-.292c.614-1.006-1.098-3.18-4.103-5.582l.511.405c3.848 3.1 5.98 6.052 5.143 7.513-.161.26-.355.455-.646.585-1.379.692-4.428.225-8.118-1.195l-.348-.136a31.477 31.477 0 0 1-1.55-.65c-.26-.129-.518-.226-.776-.356-.302-.13-.603-.274-.905-.423l-1.615-.81c-.55-.293-1.099-.585-1.648-.91-.291-.161-.582-.356-.873-.518l-1.195-.768c-.592-.38-1.17-.758-1.713-1.147-4.49-3.148-7.463-6.394-7.56-8.341 0-.325.064-.617.193-.844.758-1.363 3.889-1.116 7.948.318l.292.104.003-.017-.036-.015c.069-.35.141-.685.218-1.005l.098-.39.012-.051c.785-3.488 1.988-5.767 3.343-5.884L14.88 9zm39.356 20.446h-.678v1.558h.71c.324 0 .615-.065.776-.195.194-.13.291-.357.291-.616 0-.487-.355-.747-1.099-.747zM87 24.953v.613H31.36v-.613H87zm-66.789-8.489c3.974-1.395 6.98-1.59 7.755-.26 1.002 1.688-2.036 5.388-7.109 8.99 0-.226 0-.454-.032-.68 0-.78 0-1.559-.032-2.305l.48-.378c2.898-2.322 4.497-4.446 3.914-5.431-.468-.816-2.235-.752-4.717.015l-.259.082v-.033zm56.062-2.174c.872 0 1.68.162 2.423.487l-.323.909c-.71-.293-1.422-.455-2.133-.455-.549 0-.969.13-1.26.357-.29.227-.452.552-.452.974 0 .292.065.552.161.746.081.163.23.325.445.468l.137.084c.226.142.576.309 1.028.479l.2.073c.937.324 1.55.681 1.906 1.07.291.358.485.845.485 1.429 0 .779-.29 1.395-.84 1.817-.55.422-1.325.65-2.294.65-1.034 0-1.842-.13-2.391-.423v-.973c.355.162.743.26 1.163.357.42.097.84.13 1.26.13.679 0 1.196-.13 1.551-.39s.517-.617.517-1.07c0-.293-.065-.553-.194-.747a1.73 1.73 0 0 0-.614-.552 7.109 7.109 0 0 0-1.325-.552c-.807-.292-1.389-.649-1.744-1.038-.356-.39-.517-.942-.517-1.59 0-.682.258-1.234.775-1.623.517-.39 1.196-.617 2.036-.617zm-38.612.13v.941h-3.877v3.213h3.618v.909h-3.618v3.797H32.75v-8.86h4.91zm4.653.032l4.782 7.4h.032l-.065-1.039-.018-.407c-.007-.189-.01-.355-.012-.498l-.002-5.423h.97v8.795h-1.164l-4.814-7.4h-.032c.064.877.097 1.655.097 2.402v4.998h-.938v-8.828h1.164zm30.47-.032v.941h-3.878v2.824h3.65v.908h-3.65v3.246h3.877v.94h-4.911v-8.86h4.911zm12.794 0v.941H82.8v7.919h-1.002V15.36h-2.811v-.941h6.591zm-33.539.032c1.357 0 2.424.39 3.2 1.136.775.747 1.13 1.818 1.13 3.18 0 1.461-.388 2.565-1.195 3.344-.776.778-1.907 1.168-3.393 1.168h-2.423v-8.828h2.681zm-12.472-.032v8.827h-1.034V14.42h1.034zm23.878 0c1.163 0 2.003.162 2.52.52.517.356.776.908.776 1.654 0 .52-.13.941-.42 1.298-.29.325-.711.552-1.26.65v.064c1.324.228 2.003.942 2.003 2.11 0 .779-.258 1.396-.808 1.85-.517.454-1.26.649-2.23.649h-3.069V14.42h2.488zM13.62 11.434c-.84 0-1.595 1.264-2.16 3.34l-.045.165-.051.235c-.062.289-.121.584-.177.888l-.052.288.418.171.538.21-.652-.242-.34-.122h-.032c-2.752-.942-4.807-1.124-5.405-.341l-.055.081a.654.654 0 0 0-.13.422c0 .163 0 .325.065.52.388 1.298 2.294 3.31 5.105 5.387a4.823 4.823 0 0 1 5.945-2.564c-.355-3.927-1.163-6.913-2.132-8.016a1.627 1.627 0 0 0-.42-.325 1.111 1.111 0 0 0-.42-.097zm50.148 7.66h-1.777v3.31h1.842c.71 0 1.26-.13 1.615-.422.356-.26.55-.714.55-1.298 0-.552-.194-.942-.55-1.201-.355-.26-.937-.39-1.68-.39zm-11.89-3.765H50.39v7.042h1.26c1.228 0 2.133-.292 2.747-.909.582-.584.905-1.492.905-2.66 0-1.17-.291-2.013-.873-2.597-.581-.584-1.421-.876-2.552-.876zm11.632 0H61.99v2.888h1.68c.711 0 1.228-.097 1.551-.357.323-.227.485-.617.485-1.136 0-.487-.162-.844-.517-1.07-.355-.228-.905-.325-1.68-.325zM130.516 31.305c.35 0 .668.067.95.2.283.134.523.326.719.574a2.6 2.6 0 0 1 .444.9c.1.35.15.742.15 1.177 0 .436-.05.828-.15 1.178a2.6 2.6 0 0 1-.444.9c-.196.248-.436.439-.72.57-.282.13-.599.196-.95.196-.355 0-.674-.065-.957-.196a1.944 1.944 0 0 1-.72-.57 2.6 2.6 0 0 1-.443-.9c-.1-.35-.15-.742-.15-1.178 0-.435.05-.828.15-1.177a2.6 2.6 0 0 1 .444-.9 1.98 1.98 0 0 1 .718-.574c.283-.133.603-.2.959-.2zm-9.22 0c.351 0 .669.067.951.2.283.134.523.326.719.574a2.6 2.6 0 0 1 .443.9c.101.35.151.742.151 1.177 0 .436-.05.828-.15 1.178a2.6 2.6 0 0 1-.444.9c-.196.248-.436.439-.72.57-.282.13-.599.196-.95.196-.355 0-.674-.065-.957-.196a1.944 1.944 0 0 1-.72-.57 2.6 2.6 0 0 1-.443-.9c-.1-.35-.15-.742-.15-1.178 0-.435.05-.828.15-1.177a2.6 2.6 0 0 1 .444-.9 1.98 1.98 0 0 1 .718-.574c.283-.133.603-.2.959-.2zm-23.6 0c.351 0 .669.067.951.2.284.134.523.326.719.574a2.6 2.6 0 0 1 .444.9c.1.35.15.742.15 1.177 0 .436-.05.828-.15 1.178a2.6 2.6 0 0 1-.444.9c-.196.248-.436.439-.72.57-.282.13-.599.196-.95.196-.355 0-.674-.065-.957-.196a1.944 1.944 0 0 1-.72-.57 2.6 2.6 0 0 1-.443-.9c-.1-.35-.15-.742-.15-1.178 0-.435.05-.828.15-1.177a2.6 2.6 0 0 1 .444-.9 1.98 1.98 0 0 1 .718-.574c.283-.133.603-.2.959-.2zm14.562-.25c.134 0 .25.028.345.088.07.043.121.08.167.168l.033.076-1.78 5.478-.103.074h-.819l-.102-.142 1.731-5.318.046-.113a.704.704 0 0 1 .123-.187c.08-.085.202-.125.359-.125zm-6.38.25c.304 0 .584.048.842.143a2 2 0 0 1 .67.406c.19.175.336.384.44.626a2 2 0 0 1 .155.795c0 .376-.08.726-.24 1.048a5.842 5.842 0 0 1-.355.612l-.208.297-1.326 1.7h-1.006l-.086-.174 1.195-1.603-.077.016-.063.007-.128.006c-.309 0-.585-.05-.829-.148a1.716 1.716 0 0 1-.992-.996 1.96 1.96 0 0 1-.127-.704c0-.293.053-.565.159-.814a1.93 1.93 0 0 1 1.124-1.07c.26-.098.545-.147.853-.147zm19.776 0c.327 0 .617.044.87.131.252.088.466.21.64.363.175.155.307.34.396.552.089.212.133.439.133.68a2.041 2.041 0 0 1-.23.963 2.502 2.502 0 0 1-.232.369 5.4 5.4 0 0 1-.257.314c-.088.1-.209.218-.362.355-.151.135-.308.269-.47.401l-.312.252-.213.163h2.006l.107.109v.805l-.107.109h-3.697l-.107-.109.048-.858.336-.23.505-.363c.183-.134.363-.27.543-.409.178-.137.326-.26.444-.37.285-.259.502-.5.652-.722a1.24 1.24 0 0 0 .214-.71.831.831 0 0 0-.056-.306.723.723 0 0 0-.17-.254.829.829 0 0 0-.3-.181 1.324 1.324 0 0 0-.456-.07c-.177 0-.328.026-.452.076a1.22 1.22 0 0 0-.318.181.942.942 0 0 0-.196.211c-.033.051-.059.094-.078.129l-.022.046-.122.061a.795.795 0 0 1-.342-.174.692.692 0 0 1-.143-.167.444.444 0 0 1-.065-.236c0-.09.017-.176.05-.257a.988.988 0 0 1 .113-.208 1.428 1.428 0 0 1 .486-.39c.135-.07.298-.13.487-.18.193-.05.418-.076.677-.076zm-23.352.137c.134 0 .253.021.357.065a.453.453 0 0 1 .179.112l.053.068v5.075l-.108.109h-.871l-.108-.109v-3.974l-1.024.75-.112.008-.116-.062a.769.769 0 0 1-.153-.115.66.66 0 0 1-.125-.163.453.453 0 0 1-.055-.22c0-.133.034-.25.103-.345.048-.066.115-.132.203-.2l.093-.068 1.022-.713c.08-.052.156-.095.228-.131a.975.975 0 0 1 .434-.087zm14.133-.137c.327 0 .617.044.87.131.252.088.466.21.64.363.175.155.307.34.396.552.089.212.133.439.133.68a2.041 2.041 0 0 1-.23.963 2.502 2.502 0 0 1-.232.369 5.4 5.4 0 0 1-.257.314c-.088.1-.209.218-.362.355-.151.135-.308.269-.47.401l-.312.252-.213.163h2.006l.107.109v.805l-.107.109h-3.697l-.107-.109.048-.858.336-.23.505-.363c.183-.134.363-.27.543-.409.178-.137.326-.26.444-.37.285-.259.502-.5.652-.722a1.24 1.24 0 0 0 .214-.71.831.831 0 0 0-.056-.306.723.723 0 0 0-.17-.254.829.829 0 0 0-.3-.181 1.324 1.324 0 0 0-.456-.07c-.177 0-.328.026-.452.076a1.22 1.22 0 0 0-.318.181.942.942 0 0 0-.196.211c-.033.051-.059.094-.078.129l-.022.046-.122.061a.795.795 0 0 1-.342-.174.692.692 0 0 1-.143-.167.444.444 0 0 1-.065-.236c0-.09.017-.176.05-.257a.988.988 0 0 1 .113-.208 1.428 1.428 0 0 1 .486-.39c.135-.07.297-.13.487-.18.193-.05.418-.076.677-.076zm-23.6 0c.327 0 .617.044.87.131.252.088.466.21.64.363.175.155.307.34.396.552.089.212.133.439.133.68a2.041 2.041 0 0 1-.23.963 2.502 2.502 0 0 1-.232.369 5.4 5.4 0 0 1-.257.314 4.47 4.47 0 0 1-.362.355c-.151.135-.308.269-.47.401l-.312.252-.213.163h2.006l.107.109v.805l-.107.109h-3.697L91 36.762l.049-.858.335-.23.506-.363c.182-.134.363-.27.542-.409.178-.137.326-.26.444-.37.285-.259.502-.5.652-.722a1.24 1.24 0 0 0 .214-.71.831.831 0 0 0-.056-.306.723.723 0 0 0-.17-.254.829.829 0 0 0-.3-.181 1.324 1.324 0 0 0-.456-.07c-.177 0-.328.026-.452.076a1.22 1.22 0 0 0-.318.181.942.942 0 0 0-.196.211c-.033.051-.059.094-.078.129l-.022.046-.122.061a.795.795 0 0 1-.342-.174.692.692 0 0 1-.143-.167.444.444 0 0 1-.064-.236c0-.09.016-.176.049-.257a.988.988 0 0 1 .113-.208 1.428 1.428 0 0 1 .486-.39c.135-.07.298-.13.487-.18.193-.05.418-.076.677-.076zm4.862 1.022a.934.934 0 0 0-.497.13c-.143.086-.26.207-.355.362-.096.159-.17.352-.22.578a3.52 3.52 0 0 0-.076.76c0 .275.026.528.077.758.05.227.123.422.22.583.093.157.21.277.353.362.14.083.306.125.498.125a.936.936 0 0 0 .493-.125c.14-.084.256-.204.35-.362.097-.161.17-.356.22-.583.051-.23.077-.483.077-.759a3.52 3.52 0 0 0-.077-.759 1.907 1.907 0 0 0-.22-.578 1.067 1.067 0 0 0-.35-.363.914.914 0 0 0-.493-.129zm32.819 0a.934.934 0 0 0-.497.13c-.143.086-.26.207-.355.362-.096.159-.17.352-.22.578a3.52 3.52 0 0 0-.076.76c0 .275.026.528.076.758.05.227.124.422.22.583.094.157.212.277.354.362.14.083.306.125.498.125a.936.936 0 0 0 .493-.125c.14-.084.256-.204.35-.362.097-.161.17-.356.22-.583.051-.23.077-.483.077-.759a3.52 3.52 0 0 0-.077-.759 1.907 1.907 0 0 0-.22-.578 1.067 1.067 0 0 0-.351-.363.914.914 0 0 0-.492-.129zm-9.22 0a.934.934 0 0 0-.496.13c-.143.086-.261.207-.355.362-.096.159-.17.352-.22.578a3.52 3.52 0 0 0-.076.76c0 .275.026.528.076.758.05.227.124.422.22.583.094.157.212.277.354.362.14.083.306.125.498.125a.936.936 0 0 0 .493-.125c.14-.084.256-.204.35-.362.096-.161.17-.356.22-.583.051-.23.076-.483.076-.759a3.52 3.52 0 0 0-.076-.759 1.907 1.907 0 0 0-.22-.578 1.067 1.067 0 0 0-.351-.363.914.914 0 0 0-.492-.129zm-15.417-.053c-.163 0-.309.026-.439.077a.926.926 0 0 0-.536.532 1.1 1.1 0 0 0-.075.415c0 .163.026.307.078.433.052.125.123.23.215.315a.986.986 0 0 0 .329.202c.127.049.27.073.428.073.157 0 .3-.025.43-.076a.965.965 0 0 0 .55-.534c.051-.123.077-.26.077-.413 0-.148-.026-.285-.078-.41a.965.965 0 0 0-.548-.537 1.175 1.175 0 0 0-.431-.077zm12.082-8.224c.299 0 .576.054.83.16a1.994 1.994 0 0 1 1.102 1.115c.106.262.158.545.158.847 0 .308-.05.591-.154.85a1.955 1.955 0 0 1-1.072 1.108 2.04 2.04 0 0 1-.804.157 1.765 1.765 0 0 1-1.025-.307l-.097-.07-.048-.044v1.733l-.108.108h-.856l-.108-.108v-3.255l.007-.211c.016-.28.067-.535.15-.762.106-.285.254-.526.445-.722.192-.196.423-.346.693-.447.268-.101.564-.152.887-.152zm-19.047 0c.271 0 .513.036.725.109a1.7 1.7 0 0 1 .541.292 1.237 1.237 0 0 1 .457.97c0 .192-.036.368-.108.527a.974.974 0 0 1-.386.42 2.15 2.15 0 0 1-.704.256c-.289.06-.651.09-1.089.09l-.427-.008c.04.127.105.238.198.334l.103.09c.187.144.461.218.825.218a1.892 1.892 0 0 0 .623-.1l.15-.058.2-.097.144.047.316.608-.04.143-.193.11a2.008 2.008 0 0 1-.338.136 3.703 3.703 0 0 1-.456.11 3.211 3.211 0 0 1-.571.047 2.44 2.44 0 0 1-.82-.135 1.93 1.93 0 0 1-.677-.406c-.194-.18-.346-.4-.458-.66a2.244 2.244 0 0 1-.166-.89c0-.318.054-.61.162-.874.108-.264.26-.492.453-.682.193-.19.42-.337.681-.44a2.29 2.29 0 0 1 .855-.157zm8.295 0c.271 0 .513.036.725.109a1.7 1.7 0 0 1 .541.292 1.237 1.237 0 0 1 .456.97c0 .192-.035.368-.107.527a.974.974 0 0 1-.387.42 2.15 2.15 0 0 1-.703.256c-.289.06-.651.09-1.089.09l-.427-.008c.04.127.105.238.198.334l.103.09c.186.144.46.218.825.218a1.892 1.892 0 0 0 .623-.1l.15-.058.2-.097.144.047.315.608-.04.143-.192.11a2.008 2.008 0 0 1-.338.136 3.703 3.703 0 0 1-.456.11 3.211 3.211 0 0 1-.571.047 2.44 2.44 0 0 1-.821-.135 1.93 1.93 0 0 1-.676-.406c-.194-.18-.347-.4-.458-.66a2.244 2.244 0 0 1-.166-.89c0-.318.054-.61.162-.874.108-.264.26-.492.453-.682.193-.19.42-.337.681-.44a2.29 2.29 0 0 1 .855-.157zm22.33 0c.271 0 .513.036.725.109a1.7 1.7 0 0 1 .541.292 1.237 1.237 0 0 1 .457.97c0 .192-.036.368-.108.527a.974.974 0 0 1-.386.42 2.15 2.15 0 0 1-.704.256c-.289.06-.651.09-1.089.09l-.427-.008c.04.127.105.238.198.334l.103.09c.187.144.461.218.825.218a1.892 1.892 0 0 0 .623-.1l.15-.058.2-.097.144.047.316.608-.04.143-.193.11a2.008 2.008 0 0 1-.338.136 3.703 3.703 0 0 1-.456.11 3.211 3.211 0 0 1-.571.047 2.44 2.44 0 0 1-.82-.135 1.93 1.93 0 0 1-.677-.406c-.194-.18-.346-.4-.458-.66a2.244 2.244 0 0 1-.166-.89c0-.318.054-.61.162-.874.108-.264.26-.492.453-.682.193-.19.42-.337.681-.44a2.29 2.29 0 0 1 .855-.157zm-16.35 0c.304 0 .59.054.855.16a2.055 2.055 0 0 1 1.152 1.118c.112.26.167.541.167.844 0 .299-.055.578-.167.837-.11.26-.264.484-.46.674-.195.19-.426.339-.69.448-.267.109-.552.163-.857.163-.304 0-.59-.054-.855-.163a2.159 2.159 0 0 1-.691-.448 2.055 2.055 0 0 1-.46-.674 2.105 2.105 0 0 1-.167-.837c0-.303.055-.585.167-.844a2.055 2.055 0 0 1 1.152-1.118c.266-.106.55-.16.854-.16zm23.615-.972c.1 0 .194.013.282.038l.126.04.038.013.067.101v.887h.987l.099.004c.14.014.248.055.322.13.09.09.133.219.133.377 0 .098-.015.19-.044.275l-.046.126-.02.043-.095.06h-1.336v1.58l.006.118a.59.59 0 0 0 .039.168.396.396 0 0 0 .29.245 1.071 1.071 0 0 0 .603-.035c.088-.032.156-.062.204-.089l.04-.026.155.032.346.577-.03.145-.046.034a1.662 1.662 0 0 1-.413.222 2.46 2.46 0 0 1-.37.107c-.137.03-.288.044-.45.044-.467 0-.828-.124-1.076-.378a1.301 1.301 0 0 1-.361-.816l-.008-.168v-3.351l.01-.109a.427.427 0 0 1 .152-.276c.1-.08.234-.118.396-.118zm-43.6-.395c.486 0 .924.064 1.314.191.391.129.724.313.999.553a2.4 2.4 0 0 1 .633.883c.146.346.219.731.219 1.156 0 .429-.07.816-.211 1.162-.142.347-.35.643-.626.887a2.788 2.788 0 0 1-1.015.558 4.51 4.51 0 0 1-1.374.19l-.615-.005a9.275 9.275 0 0 1-.581-.029l-.432-.043-.087-.107v-4.723l.006-.1a.591.591 0 0 1 .087-.266c.066-.1.176-.17.326-.215a2.32 2.32 0 0 1 .536-.077l.45-.013.37-.002zm16.755-.312c.1 0 .193.013.278.04l.123.038.037.014.067.1v5.516l-.107.109h-.857l-.107-.109v-5.205l.01-.105a.437.437 0 0 1 .15-.275.621.621 0 0 1 .406-.123zm23.667 1.68c.277 0 .533.038.77.115.238.078.444.19.618.34.175.15.311.332.408.546.072.161.118.338.136.53l.009.195v2.302l-.108.109h-.856l-.107-.109v-2.077l-.007-.16c-.02-.242-.092-.426-.213-.557-.143-.156-.357-.235-.65-.235-.297 0-.513.08-.653.235-.12.13-.19.317-.21.56l-.006.153v2.081l-.108.109h-.856l-.107-.109v-2.307l.009-.19a1.587 1.587 0 0 1 .551-1.076 1.8 1.8 0 0 1 .614-.34c.234-.077.49-.116.766-.116zm-29.25.106a.81.81 0 0 1 .393.085l.117.066a.529.529 0 0 1 .033.023l.021.017.028.107-.063.194a6.346 6.346 0 0 1-.043.12l-.052.133c-.049.124-.104.258-.166.402l-.099.222c-.103.229-.213.467-.331.716l-.35.727-.402.804-.186.358-.094.057h-.842l-.095-.057-.229-.433a55.365 55.365 0 0 1-.418-.812l-.273-.551-.121-.252-.265-.58a9.895 9.895 0 0 1-.122-.295l-.05-.13c-.08-.215-.12-.354-.12-.433 0-.134.046-.25.136-.345.092-.097.228-.143.4-.143.115 0 .211.011.29.035.09.027.133.043.186.112a25.847 25.847 0 0 0 .662 1.622l.315.682.148.31.103-.213.106-.235.163-.37.556-1.33.054-.135c.055-.139.122-.25.202-.335.093-.097.231-.143.408-.143zm20.767-.107c.241 0 .467.032.677.096.214.065.4.163.556.294.158.132.283.297.375.493.069.148.112.314.13.497l.008.188v2.461l-.108.109h-.856l-.107-.109v-2.161l-.005-.14c-.017-.25-.084-.427-.195-.534-.134-.129-.318-.194-.557-.194a.782.782 0 0 0-.568.22c-.128.124-.203.32-.222.593l-.004.142v2.074l-.108.109h-.856l-.108-.109v-2.07l-.005-.15c-.02-.271-.094-.466-.22-.588a.782.782 0 0 0-.569-.22c-.234 0-.418.066-.558.198-.113.107-.18.279-.2.52l-.006.153v2.157l-.108.109h-.856l-.107-.109V25.62l.008-.181c.017-.184.06-.35.13-.498.092-.197.218-.362.378-.494.159-.13.345-.23.558-.297.211-.066.44-.1.686-.1.326 0 .62.062.88.186.21.1.388.239.53.416l.009.013.01-.013c.071-.089.15-.168.237-.237l.137-.097.15-.082a1.96 1.96 0 0 1 .864-.186zm-11.954.977c-.16 0-.305.03-.434.086a.995.995 0 0 0-.332.237 1.09 1.09 0 0 0-.219.363c-.053.142-.08.295-.08.46 0 .164.027.313.08.45.053.137.126.257.22.361a.97.97 0 0 0 .331.24c.13.057.274.086.434.086.156 0 .3-.029.431-.086a.961.961 0 0 0 .335-.24c.094-.104.167-.224.22-.361.053-.137.08-.286.08-.45 0-.165-.027-.318-.08-.46a1.09 1.09 0 0 0-.219-.363.985.985 0 0 0-.336-.237 1.066 1.066 0 0 0-.43-.086zm4.711.023a1.08 1.08 0 0 0-.427.083c-.13.055-.241.13-.333.226a1.022 1.022 0 0 0-.218.348c-.052.136-.079.289-.079.458 0 .164.027.316.08.455.052.14.124.26.215.36.09.1.2.18.328.236.13.058.274.086.434.086.156 0 .298-.028.427-.086a.995.995 0 0 0 .547-.595c.05-.14.076-.291.076-.456 0-.16-.025-.308-.076-.445a1.016 1.016 0 0 0-.213-.35 1.021 1.021 0 0 0-.76-.32zM93.22 23.698l-.316.004a5.034 5.034 0 0 0-.127.006l-.239.021v3.47l.143.016c.127.013.306.019.539.019.656 0 1.152-.156 1.49-.462.337-.305.506-.738.506-1.306 0-.261-.04-.5-.117-.72a1.421 1.421 0 0 0-.353-.55 1.669 1.669 0 0 0-.615-.364 2.747 2.747 0 0 0-.911-.134zm13.975 1.238c-.17 0-.318.03-.443.089a.953.953 0 0 0-.318.235 1.09 1.09 0 0 0-.202.343 1.285 1.285 0 0 0-.068.264l-.002.025.214.005h.315a3.3 3.3 0 0 0 .647-.051 1.25 1.25 0 0 0 .366-.125c.077-.045.124-.091.143-.138a.45.45 0 0 0 .037-.178c0-.156-.058-.265-.179-.34a.94.94 0 0 0-.51-.129zm22.33 0c-.17 0-.318.03-.443.089a.953.953 0 0 0-.318.235 1.09 1.09 0 0 0-.202.343 1.285 1.285 0 0 0-.068.264l-.002.025.214.005h.315a3.3 3.3 0 0 0 .647-.051 1.25 1.25 0 0 0 .367-.125c.076-.045.123-.091.143-.138a.45.45 0 0 0 .036-.178c0-.156-.058-.265-.179-.34a.94.94 0 0 0-.51-.129zm-30.625 0c-.17 0-.318.03-.443.089a.953.953 0 0 0-.318.235 1.09 1.09 0 0 0-.202.343 1.285 1.285 0 0 0-.068.264l-.002.025.214.005h.315a3.3 3.3 0 0 0 .647-.051 1.25 1.25 0 0 0 .367-.125c.076-.045.123-.091.143-.138a.45.45 0 0 0 .036-.178c0-.156-.058-.265-.179-.34a.94.94 0 0 0-.51-.129zm14.794-9.568c.304 0 .589.053.855.16a2.055 2.055 0 0 1 1.152 1.118c.111.258.166.54.166.843 0 .299-.055.578-.166.838-.111.258-.264.483-.46.673-.195.19-.426.339-.692.448-.266.109-.551.163-.855.163-.304 0-.59-.054-.856-.163a2.159 2.159 0 0 1-.691-.448 2.055 2.055 0 0 1-.46-.673 2.105 2.105 0 0 1-.167-.838c0-.303.056-.585.167-.844a2.055 2.055 0 0 1 1.152-1.118c.266-.106.551-.16.855-.16zm-8.34-.973c.1 0 .194.013.282.039l.126.039.038.013.067.101v.887h.987l.098.004c.14.014.248.055.322.13.09.091.133.219.133.377 0 .098-.014.19-.043.275l-.047.126-.019.043-.096.06h-1.335v1.58l.005.118a.59.59 0 0 0 .04.168.396.396 0 0 0 .29.245 1.071 1.071 0 0 0 .603-.035c.088-.032.156-.062.203-.089l.04-.026.156.032.346.577-.03.145-.047.034a1.662 1.662 0 0 1-.413.222 2.46 2.46 0 0 1-.369.107c-.138.03-.288.044-.45.044-.468 0-.828-.124-1.076-.378a1.301 1.301 0 0 1-.362-.816l-.007-.168v-3.351l.009-.108a.427.427 0 0 1 .152-.277c.101-.08.234-.118.397-.118zm-3.043.973c.533 0 .95.06 1.253.182.325.131.5.316.5.557a.464.464 0 0 1-.045.208.82.82 0 0 1-.087.14.579.579 0 0 1-.107.107l-.052.036-.046.022-.11-.026-.059-.045a1.4 1.4 0 0 0-.308-.154 2.682 2.682 0 0 0-.932-.157c-.53 0-.764.125-.764.355 0 .094.036.159.114.208.072.044.17.079.296.104l.135.02.77.1.204.034c.335.066.606.176.813.332.258.196.388.486.388.858 0 .414-.165.75-.49.998-.319.244-.77.364-1.353.364-.276 0-.528-.02-.755-.062a4.58 4.58 0 0 1-.589-.144 2.976 2.976 0 0 1-.41-.162l-.133-.072a.902.902 0 0 1-.048-.03l-.034-.026-.025-.136.323-.585.15-.04.04.026c.032.018.077.04.135.066a3.256 3.256 0 0 0 1.301.272c.248 0 .447-.032.598-.094.126-.052.181-.131.181-.253 0-.107-.036-.181-.111-.234-.07-.048-.194-.089-.372-.118l-.143-.02-.588-.068-.198-.026a2.666 2.666 0 0 1-.372-.088 1.522 1.522 0 0 1-.464-.233 1.07 1.07 0 0 1-.313-.376 1.17 1.17 0 0 1-.113-.531c0-.177.034-.346.102-.504.07-.16.18-.302.328-.424.147-.121.337-.215.568-.282.228-.067.502-.1.822-.1zm-3.81 0c.272 0 .514.035.726.108a1.7 1.7 0 0 1 .541.292 1.237 1.237 0 0 1 .456.97c0 .192-.035.368-.107.527a.974.974 0 0 1-.387.42 2.15 2.15 0 0 1-.703.256c-.289.06-.651.09-1.089.09l-.427-.008c.04.128.105.238.198.334l.102.09c.187.144.462.218.826.218a1.892 1.892 0 0 0 .622-.1l.151-.058.2-.097.144.047.315.608-.04.144-.192.109a2.008 2.008 0 0 1-.338.136 3.703 3.703 0 0 1-.456.11 3.211 3.211 0 0 1-.571.047 2.44 2.44 0 0 1-.821-.135 1.93 1.93 0 0 1-.676-.406c-.194-.18-.347-.4-.458-.66a2.244 2.244 0 0 1-.166-.89c0-.318.054-.61.162-.874.108-.264.259-.491.452-.682.194-.19.421-.337.682-.44a2.29 2.29 0 0 1 .855-.156zM93.385 14c.465 0 .85.042 1.155.125.309.085.553.199.734.343.182.146.31.316.383.51a1.674 1.674 0 0 1 .035 1.054c-.046.133-.103.25-.171.35a1.202 1.202 0 0 1-.151.18l-.086.075-.064.046.105.057c.063.04.122.084.177.133l.08.076.109.13c.172.23.258.517.258.859 0 .224-.034.437-.104.636a1.172 1.172 0 0 1-.4.54c-.19.15-.452.264-.784.346-.327.08-.745.121-1.254.121l-.466-.005-.793-.03-.296-.016-.289-.024-.026-.001-.108-.109v-4.723l.006-.099a.506.506 0 0 1 .15-.33.667.667 0 0 1 .329-.166l.156-.024a5.37 5.37 0 0 1 .213-.021l.13-.01c.225-.015.549-.023.972-.023zm27.108.076l.11.007c.281.037.434.219.434.512a.896.896 0 0 1-.048.298.377.377 0 0 1-.114.183l-.058.045h-1.786v4.275l-.108.109h-.894l-.107-.109v-4.275h-1.402l-.111-.007c-.28-.037-.433-.219-.433-.512 0-.109.017-.21.052-.3a.412.412 0 0 1 .1-.167l.068-.059h4.297zm-10.12 0c.106 0 .204.014.295.043l.166.056.067.1v5.121l-.107.109h-.894l-.108-.109v-4.802l.01-.11a.447.447 0 0 1 .159-.282.64.64 0 0 1 .412-.126zm3.32 2.268c-.16 0-.304.03-.433.086a.995.995 0 0 0-.333.237 1.09 1.09 0 0 0-.218.363c-.053.142-.08.295-.08.46 0 .164.027.314.08.45.052.137.125.257.219.361a.97.97 0 0 0 .332.24c.129.057.273.086.434.086.156 0 .3-.029.43-.086a.961.961 0 0 0 .336-.24c.094-.104.167-.224.22-.36.052-.137.079-.287.079-.452 0-.164-.027-.317-.08-.459a1.09 1.09 0 0 0-.218-.363.985.985 0 0 0-.336-.237 1.066 1.066 0 0 0-.431-.086zm-19.767.897h-1.41v1.302l.236.024.246.014c.141.005.31.008.507.008.26 0 .476-.016.65-.048.168-.03.303-.077.403-.138a.496.496 0 0 0 .2-.205.7.7 0 0 0 .06-.306.766.766 0 0 0-.043-.26.464.464 0 0 0-.134-.194.744.744 0 0 0-.27-.141 1.3 1.3 0 0 0-.316-.053l-.13-.003zm4.56-.988c-.17 0-.317.03-.443.089a.953.953 0 0 0-.317.235 1.09 1.09 0 0 0-.202.343 1.285 1.285 0 0 0-.068.264l-.002.025.214.005h.315a3.3 3.3 0 0 0 .647-.051 1.25 1.25 0 0 0 .366-.125c.077-.044.123-.091.143-.138a.45.45 0 0 0 .037-.178c0-.156-.058-.265-.179-.34a.94.94 0 0 0-.51-.129zm-5.018-1.269c-.216 0-.403.005-.559.013l-.33.026-.063.007v1.211h1.29c.11 0 .208-.008.293-.023l.118-.029a.74.74 0 0 0 .256-.131.428.428 0 0 0 .13-.183.71.71 0 0 0 .042-.247.607.607 0 0 0-.054-.255.463.463 0 0 0-.175-.193 1.126 1.126 0 0 0-.364-.141 2.665 2.665 0 0 0-.584-.055z"/>
    </g>
</svg>
