<svg xmlns="http://www.w3.org/2000/svg" width="200" height="200" viewBox="0 0 200 200"><style>
@keyframes euiay8080ltx2sjhzcgo4hk6_t { 0% { transform: translate(100px,100px) scale(1,1) translate(-75px,-66px); } 3.333% { transform: translate(100px,100px) scale(1,1) translate(-75px,-66px); animation-timing-function: cubic-bezier(.4,0,.6,1); } 11.667% { transform: translate(100px,100px) scale(1.1,1.1) translate(-75px,-66px); animation-timing-function: cubic-bezier(.4,0,.6,1); } 23.333% { transform: translate(100px,100px) scale(1,1) translate(-75px,-66px); animation-timing-function: cubic-bezier(.4,0,.6,1); } 31.667% { transform: translate(100px,100px) scale(1.1,1.1) translate(-75px,-66px); animation-timing-function: cubic-bezier(.4,0,.6,1); } 43.333% { transform: translate(100px,100px) scale(1,1) translate(-75px,-66px); } 100% { transform: translate(100px,100px) scale(1,1) translate(-75px,-66px); } }
@keyframes o1cmpevtd2temqqhpv9s5y9n_t { 0% { transform: translate(100px,100px) scale(1,1) translate(-60px,-60px); animation-timing-function: cubic-bezier(.4,0,.6,1); } 8.333% { transform: translate(100px,100px) scale(1.1,1.1) translate(-60px,-60px); animation-timing-function: cubic-bezier(.4,0,.6,1); } 20% { transform: translate(100px,100px) scale(1,1) translate(-60px,-60px); animation-timing-function: cubic-bezier(.4,0,.6,1); } 28.333% { transform: translate(100px,100px) scale(1.1,1.1) translate(-60px,-60px); animation-timing-function: cubic-bezier(.4,0,.6,1); } 40% { transform: translate(100px,100px) scale(1,1) translate(-60px,-60px); } 100% { transform: translate(100px,100px) scale(1,1) translate(-60px,-60px); } }
</style><title>get-line</title><desc>Created with Sketch.</desc><g transform="translate(100,100) translate(-75,-66)" style="animation: 1s linear infinite both euiay8080ltx2sjhzcgo4hk6_t;"><g transform="translate(0,2)"><path d="M75 150c41.4 0 75-33.6 75-75c0-41.4-33.6-75-75-75c-20.2 0-38.5 8-52 20.9c-14.2 13.7-23 32.9-23 54.1c0 22 9.4 41.7 24.5 55.4c13.3 12.2 31 19.6 50.5 19.6Z" fill-opacity=".01" fill="#0056e6" fill-rule="evenodd"/><path d="M75 142c39.2 0 71-31.8 71-71c0-39.2-31.8-71-71-71c-19.1 0-36.4 7.5-49.2 19.8c-13.4 12.9-21.8 31.1-21.8 51.2c0 20.8 8.9 39.5 23.2 52.5c12.6 11.5 29.4 18.5 47.8 18.5Z" fill-opacity=".02" fill="#0056e6" fill-rule="evenodd"/><path d="M75 134c36.5 0 66-29.5 66-66c0-36.5-29.5-66-66-66c-17.8 0-33.9 7-45.7 18.4c-12.5 12-20.3 28.9-20.3 47.6c0 19.3 8.3 36.7 21.5 48.8c11.8 10.7 27.4 17.2 44.5 17.2Z" fill-opacity=".03" fill="#0056e6" fill-rule="evenodd"/><path d="M75 126.3c34.2 0 62-27.7 62-62c0-34.2-27.8-62-62-62c-16.7 0-31.8 6.6-43 17.3c-11.7 11.3-19 27.2-19 44.7c0 18.2 7.8 34.5 20.2 45.8c11.1 10.1 25.7 16.2 41.8 16.2Z" fill-opacity=".04" fill="#0056e6" fill-rule="evenodd"/></g><path d="M75 126c33.1 0 60-26.9 60-60c0-33.1-26.9-60-60-60c-16.1 0-30.8 6.4-41.6 16.7c-11.3 11-18.4 26.3-18.4 43.3c0 17.6 7.6 33.4 19.6 44.3c10.6 9.8 24.8 15.7 40.4 15.7Z" fill="#fff" fill-rule="evenodd"/></g><path d="M71 31c2.8 0 5 2.2 5 5v48c0 2.8-2.2 5-5 5h-22c-2.8 0-5-2.2-5-5v-48c0-2.8 2.2-5 5-5h22Zm0 2h-2.1c.1 .2 .1 .3 .1 .5c0 1.1-0.8 1.9-1.9 2h-0.1h-14c-1.1 0-2-0.9-2-2c0-0.2 0-0.3 .1-0.5h-2.1c-1.7 0-3 1.3-3 3v48c0 1.7 1.3 3 3 3h22c1.7 0 3-1.3 3-3v-48c0-1.7-1.3-3-3-3Zm-11 48c1.1 0 2 .9 2 2c0 1.1-0.9 2-2 2c-1.1 0-2-0.9-2-2c0-1.1 .9-2 2-2Z" fill="#ed4159" transform="translate(100,100) translate(-60,-60)" style="animation: 1s linear infinite both o1cmpevtd2temqqhpv9s5y9n_t;"/></svg>