<?xml version="1.0" encoding="UTF-8"?>
<svg width="230px" height="160px" viewBox="0 0 230 160" version="1.1" xmlns="http://www.w3.org/2000/svg" xmlns:xlink="http://www.w3.org/1999/xlink">
    <title>logo_clients-google</title>
    <g id="03-what-we-do-(SRC)" stroke="none" stroke-width="1" fill="none" fill-rule="evenodd" opacity="0.301">
        <g id="Group-2" fill="#D4E1ED">
            <path d="M146.992818,71.1869099 C147.774479,71.5300873 148.441352,72.0714634 149.073936,72.6488757 L149.491463,73.0373764 L149.491463,73.0373764 L149.50218,72.5335098 L149.50218,72.5335098 L149.505242,71.5072719 C149.506774,71.3349472 149.509836,71.162237 149.51596,70.9895268 L150.747293,71.0003212 L150.747293,71.0003212 L153.219145,71.0034053 C153.632907,71.0049473 154.047817,71.0080314 154.464258,71.0141996 L154.464258,92.7756857 C154.439761,96.0571797 153.606879,99.5360567 151.255213,101.929327 C148.683078,104.569326 144.739137,105.383531 141.187141,104.840727 C137.39018,104.273251 134.083149,101.485215 132.613358,97.9569919 C134.083149,97.2414782 135.62643,96.6740018 137.145215,96.0078339 C138.002593,98.0310106 139.741846,99.7581127 141.922037,100.152879 C144.102228,100.547645 146.62537,100.004842 148.046168,98.1790479 C149.355465,96.5625484 149.536058,94.4326417 149.513886,92.4057958 L149.505145,91.9216471 L149.505145,91.9216471 L149.491463,91.4433498 L149.491463,91.4433498 C148.430908,92.4883192 147.218457,93.4240106 145.772419,93.8390254 L145.49853,93.9106385 C142.093513,94.8728811 138.345544,93.6885825 135.724416,91.3693312 C133.148413,89.1111128 131.594275,85.6599329 131.64994,82.2001352 L131.657993,81.9196156 C131.731483,77.897935 133.985163,74.0242918 137.39018,71.9270965 C140.20728,70.1506486 143.955249,69.6571909 146.992818,71.1869099 Z M98.8081536,72.5192457 C101.155079,74.1906348 102.813756,76.7862944 103.384558,79.635383 L103.437997,79.9211118 C104.080506,83.2526564 103.312895,86.886882 101.247445,89.5798031 L101.061834,89.8149393 C98.685671,92.8497044 94.7907235,94.4781149 90.9937622,94.231386 C87.5152557,94.0340029 84.1347353,92.282228 82.0770272,89.4201731 C79.8052662,86.3372372 79.2142667,82.1257265 80.3723931,78.4841013 L80.4602566,78.2186826 C81.7340759,74.2463478 85.335065,71.2115827 89.4014881,70.496069 C92.6350294,69.8792469 96.1380324,70.5700877 98.8081536,72.5192457 Z M61.2794778,57 C65.7868383,57.0986915 70.2207093,58.9244852 73.4052575,62.1566333 C72.2294243,63.3656048 71.0290946,64.5252304 69.8777579,65.7342019 C68.1672615,64.1765918 66.1205745,62.9575926 63.8877647,62.4658708 L63.5821511,62.4033622 C60.2090539,61.6856055 56.5825785,62.2902611 53.7078615,64.1498376 L53.4405899,64.3278474 C50.2560416,66.4250427 48.1003475,69.9779384 47.6349135,73.777563 C47.1204865,77.5278417 48.1738371,81.4755036 50.598993,84.3869042 C52.8632664,87.1476002 56.2870538,88.9039349 59.8549971,89.1104851 L60.1526376,89.1240985 C63.5821511,89.3214816 67.1586437,88.2605475 69.6572892,85.8426046 C71.6170112,84.1401754 72.5233826,81.5495223 72.8173409,79.0328878 C68.7509178,79.0328878 64.6844947,79.0575607 60.6180716,79.0328878 L60.6180716,73.9502732 L77.7411424,73.9502732 C78.6069832,79.303841 77.394806,85.3233565 73.4554451,89.2300016 L73.2337818,89.444846 C70.490171,92.2082093 66.6932097,93.8366199 62.8227588,94.1573674 C59.0747905,94.5274607 55.2043396,93.811947 51.8728123,91.9861534 C47.8798788,89.8396122 44.6953305,86.2126979 43.127553,81.9442885 C41.6577615,78.0212995 41.633265,73.5801799 43.0050703,69.632518 C44.2543931,66.0302765 46.6550525,62.8474741 49.7416146,60.6269143 C52.7056941,58.4310274 56.3066832,57.222056 59.981162,57 L61.2794778,57 Z M125.666842,73.2389565 L125.876813,73.4321425 C130.31885,77.4441685 130.85906,84.9068539 127.192634,89.6092895 L127.02815,89.8149393 C124.75774,92.7034724 121.111678,94.323869 117.477559,94.2408158 L117.205044,94.231386 C113.653048,94.1326945 110.150045,92.3562467 108.043343,89.4201731 C105.667181,86.188025 105.152753,81.7469054 106.500062,77.9719537 C107.819302,74.2031703 111.228838,71.3096425 115.118867,70.542158 L115.367804,70.496069 C118.974305,69.7984432 122.906824,70.7660984 125.666842,73.2389565 L125.666842,73.2389565 Z M180.993994,70.940181 C184.570487,72.2971898 186.848663,75.726721 188,79.2549438 C182.684254,81.4755036 177.393005,83.6713905 172.077259,85.8919503 C172.812155,87.2983049 173.938995,88.581295 175.457779,89.0994256 C177.588977,89.8642851 180.136616,89.5928833 181.924862,88.1618559 C182.477395,87.7396754 182.941014,87.2130159 183.373349,86.6747476 L183.737605,86.2126979 L183.737605,86.2126979 C185.084914,87.1255947 186.432222,88.0138186 187.779531,88.9267154 C185.919085,91.7374766 182.827756,93.7295388 179.477905,94.1285236 L179.205748,94.1573674 C175.471141,94.615498 171.502578,93.2120619 169.014855,90.338545 L168.843718,90.1356868 C164.777295,85.3984926 165.169239,77.4538231 169.750089,73.1854137 C172.689672,70.4220504 177.221529,69.4844807 180.993994,70.940181 Z M163.454482,58.2829901 L163.454482,93.5158723 L161.358756,93.5213991 C160.308149,93.5237677 159.255778,93.5208069 158.212226,93.4911994 C158.236722,81.7715783 158.212226,70.0272842 158.212226,58.2829901 L163.454482,58.2829901 Z M142.460961,75.085226 C140.966673,75.3319548 139.570371,76.170833 138.615006,77.3304586 C136.312333,80.093822 136.312333,84.5102687 138.639503,87.2242862 C139.962315,88.8280239 142.093513,89.7162478 144.151221,89.4941918 C146.086446,89.2968087 147.874693,88.0631644 148.830057,86.3607352 C150.446828,83.4740074 150.177366,79.5510185 147.997175,77.034384 C146.649866,75.4799921 144.494172,74.7151327 142.460961,75.085226 Z M116.1027,75.1839175 C114.779888,75.5293379 113.555061,76.2941974 112.673187,77.3551315 C110.32152,80.1678406 110.419506,84.7569975 112.942648,87.4463422 C114.436936,89.0500798 116.764106,89.8396122 118.9198,89.3955002 C120.830529,89.0254069 122.545286,87.7424168 123.476154,86.0153148 C125.068428,83.0545684 124.602994,79.0082149 122.104349,76.7136365 C120.512074,75.2332633 118.184905,74.641114 116.1027,75.1839175 Z M90.1363839,75.1839175 C88.8135715,75.5293379 87.5887453,76.2941974 86.7068704,77.3798044 C84.3307075,80.2418593 84.4776866,84.9050349 87.0988148,87.5697066 C88.5931028,89.0994256 90.8467831,89.8149393 92.9289877,89.3955002 C94.8642131,89.0500798 96.5544733,87.7424168 97.4853413,86.0153148 C99.1021119,83.0792412 98.6366779,79.0328878 96.1625289,76.7383094 C94.5702548,75.2579362 92.243085,74.641114 90.1363839,75.1839175 Z M172.371217,77.7498977 C171.538335,78.9588692 171.195384,80.4392424 171.219881,81.8949427 C174.771877,80.4145695 178.323873,78.9341963 181.875869,77.4291502 C181.287952,76.0474685 179.867154,75.2085904 178.421859,74.9865344 C176.094689,74.5670953 173.669533,75.8254126 172.371217,77.7498977 Z" id="Shape"></path>
        </g>
    </g>
</svg>