<svg xmlns="http://www.w3.org/2000/svg" width="86px" height="86px" viewBox="0 0 86 86"><defs><linearGradient id="Gradient-0" x1="0" y1="0" x2="1" y2="1"><stop offset="0" stop-color="#00c5b8"/><stop offset="1" stop-color="#49f592"/></linearGradient><linearGradient id="Gradient-1" x1="12.9" y1="-14.4" x2="3.8" y2="2.7" gradientUnits="userSpaceOnUse"><stop offset="0" stop-color="#fff" stop-opacity="0"/><stop offset="1" stop-color="#fff" stop-opacity=".4"/></linearGradient><mask id="Mask-1"><ellipse rx="43" ry="43" fill="url(#Gradient-0)" fill-rule="evenodd" transform="translate(185.3,199.3)"/></mask></defs><style>
@keyframes a0_t { 0% { transform: translate(137.9px,168.1px) rotate(0deg) translate(-119px,-124.5px); } 100% { transform: translate(137.9px,168.1px) rotate(360deg) translate(-119px,-124.5px); } }
@keyframes a1_t { 0% { transform: translate(43px,43px) scale(1.3,1.3); } 50% { transform: translate(43px,43px) scale(1.6,1.6); } 100% { transform: translate(43px,43px) scale(1.3,1.3); } }
@keyframes a2_d { 0% { d: path('M-3 1l-2.3-25.3l39.3 20.6l-26 11.7c0 0-11-7-11-7Z'); } 50% { d: path('M-3 1l-8.6-26.6l52.7 25.6l-33.1 8c0 0-11-7-11-7Z'); } 100% { d: path('M-3 1l-2.3-25.3l39.3 20.6l-26 11.7c0 0-11-7-11-7Z'); } }
</style><title>Group 2</title><desc>Created with Sketch.</desc><ellipse rx="43" ry="43" fill="url(#Gradient-0)" fill-rule="evenodd" transform="translate(43,43)"/><ellipse rx="43" ry="43" fill="url(#Gradient-0)" fill-rule="evenodd" transform="translate(43,43)"/><g mask="url(#Mask-1)" transform="translate(-142.3,-156.3)"><g fill="none" fill-rule="evenodd" transform="translate(137.9,168.1) translate(-119,-124.5)" style="animation: 17.6s linear infinite both a0_t;"><ellipse cx="118.5" cy="124.4" stroke="#90edd3" stroke-width="4" rx="58.5" ry="58"/><ellipse cx="119" cy="124.4" fill="#90edd3" rx="1" ry="1"/><path d="M118.4 121.9c11.5-34.7 34.3-32.9 47.8-30.1" stroke="#90edd3" stroke-width="4"/><path d="M61.9 120c18.3-1.5 38.7-0.9 49.8 7.3" stroke="#90edd3" stroke-width="4"/><path d="M176 138.5c18.7-7.8 35.2-8.8 49.6-3.1" stroke="#90edd3" stroke-width="4"/><path d="M98.4 69.9c-18.5 3.3-33.6-4.3-46.7-22.9" stroke="#90edd3" stroke-width="4"/><path stroke="#90edd3" stroke-width="4" d="M69.3 63.8l16.1-63.8"/><path d="M75.3 163.3c1.4 9-1.5 16.9-8.5 23.7c-7.1 6.8-7.1 14.7 0 23.7" stroke="#90edd3" stroke-width="4"/><path d="M62.3 144.6c-30.5 22.4-51.5 20.5-62.3-6.1" stroke="#90edd3" stroke-width="4"/><path d="M121.9 141.5c-18.4 0-29.4-11.1-35.7-22.8" stroke="#90edd3" stroke-width="2"/><path d="M92.1 120.1c11.6-14.3 26.7-20.4 42.9-24.1" stroke="#90edd3" stroke-width="4"/><path d="M145.4 176.3c-18.5-5.6-21.7-27.3-21.7-38.3c0-10.6 4.4-8.3 3.4-15.4" stroke="#90edd3" stroke-width="4"/><path d="M147.5 73.4c8.2-12 69.4-137.8-31.3-51.7" stroke="#90edd3" stroke-width="2"/><path d="M29.2 160.4c2.8 15.7 31.5 6.4 34.7 27.3" stroke-width="2" stroke="#90edd3"/><path fill="#0dcccc" d="M145.8 45.7c2.5-0.5 4.9 1 5.5 3.5c.5 2.5-1.7 7-4.2 7.5c-2.5 .5-12-2.6-13.7-4.5c-7.9-8.8 10-6 12.4-6.5Z"/><path fill="#0dcc7e" d="M38.5 48.4c2.5-0.6 14.7 41 10.3 47.2c-5.7 7.9-12 16.2-11.4 23.2c2.2 29.4-27.8 34.3-28.8 3c-0.4-11.7 27.5-72.9 29.9-73.4Z"/><path fill="#0dcccc" d="M145.8 45.7c2.5-0.5 4.9 1 5.5 3.5c.5 2.5-1.7 7-4.2 7.5c-2.5 .5-12-2.6-13.7-4.5c-7.9-8.8 10-6 12.4-6.5Z"/><path fill="#0dcccc" d="M190.7 70.2c4 3 9.4 4.4 21.7 10.3c24.5 11.9 6.9 35.2-7.6 30.1c-8-2.9-7.7-14.2-17.2-23.7c-11.3-11.3-6.2-23.9 3.1-16.7Z"/><path fill="#0dcccc" d="M143 39.9c.9-0.2 3.9 .3 4.1 1.1c.2 .9-2.6 1.8-3.4 2c-0.9 .2-1.7-0.4-1.9-1.2c-0.2-0.9 .4-1.8 1.2-1.9Z"/><path d="M127.1 182.1c0 0 24.5 5.8 15.5 26.7c-9.1 20.9 10.2 32 10.2 32" stroke="#90edd3" stroke-width="2"/><path d="M142.7 203.5c0 0-27.2-2.1-39.8 15.5c-12.6 17.6-14.8 29.4-14.8 29.4" stroke="#90edd3" stroke-width="2"/><path d="M160.6 166.1c0 0 1.5 2.7 1.5 5.4c0 8.3-11.4 14-19.7 19.5" stroke="#90edd3" stroke-width="2"/><rect width="12.8" height="5.1" fill="#53a08d" rx="1" transform="translate(161.9,189.7) rotate(49) translate(-6.4,-2.5)"/><rect width="9.8" height="7.6" fill="#53a08d" rx="1" transform="translate(156.4,195) rotate(49) translate(-6.4,-2.5)"/><path d="M258.3 29c23.6 2.5 26.2 95.6 23.7 119.2c-0.7 7.2-79.6 29.8-83.3 35.4c0 0-35.6 13.2-23.3-19.7c12.2-32.9-37.6-18.3-44.8-31.6c-7.3-13.3-25.2-25-7-66.9c53-103 124.3-37.5 134.7-36.4Z" fill="#fff" opacity=".1"/><rect width="7.1" height="2.8" fill="#53a08d" rx="1" transform="translate(167.8,184.1) rotate(45) translate(-6.4,-0.3)"/><path fill="#0dcc7e" d="M40.4 117.9c-0.7-1.5 1-6.9 2.7-7.7c1.8-0.7 3.1 3.3 3.7 4.8c.7 1.5-0.2 3.3-2 4.1c-1.8 .8-3.8 .3-4.4-1.2Z"/><path fill="#0dcccc" d="M63.5 174.8c-4.4-0.9-13.6-3.9-15.1-11.3c-0.7-3.5 11-11.4 12.6-7.1c3.8 10.1 5.8 7.7 6.8 11.2c.8 3 .2 8.1-4.3 7.2Z"/></g></g><ellipse rx="8" ry="8" fill="#fff" opacity=".2" transform="translate(43,43) scale(1.3,1.3)" style="animation: 2s linear infinite both a1_t;"/><ellipse cx="43" cy="43" rx="8" ry="8" fill="#fff"/><path d="M-3 1l-2.3-25.3l39.3 20.6l-26 11.7c0 0-11-7-11-7Z" fill="url(#Gradient-1)" transform="translate(43,35)" style="animation: 6s linear infinite both a2_d;"/></svg>