<svg xmlns="http://www.w3.org/2000/svg" width="141.225" height="19.72" viewBox="0 0 141.225 19.72"><g fill-rule="evenodd" clip-rule="evenodd" fill="#FFF"><path d="M14.965 1.238l.305.427.366-1.098h3.72c-.304 2.196-.67 4.331-1.036 6.526h-4.452c-.245-1.098-1.342-2.073-2.38-2.256-1.952-.427-3.843.122-5.063 1.707-1.342 1.83-1.769 4.879-.487 6.893.854 1.402 2.379 2.013 3.903 1.707 1.221-.183 2.44-1.159 2.989-2.317H7.828l.61-3.843h10.49L17.221 19.72h-4.025c.06-.548.305-1.098.243-1.647-1.708 1.402-4.025 1.647-6.1 1.586-2.928-.55-5.916-2.745-6.893-5.673C-.65 10.265.326 6.3 2.766 3.434 5.51.323 9.903-.836 13.806.628c.365.122.793.305 1.159.61zm83.381.427l.366-1.098h3.72c-.305 2.196-.671 4.331-.977 6.526h-4.513c-.365-1.28-1.586-2.195-2.928-2.317-1.952-.183-3.781.488-4.758 2.257-1.097 1.769-1.464 4.575-.306 6.405.916 1.402 2.44 2.073 4.088 1.768 1.22-.304 2.317-1.219 2.867-2.318l-.062-.06h-4.94l.609-3.843h10.492l-1.77 10.735H96.33l.184-1.586c-1.647 1.342-3.782 1.586-5.917 1.586-3.171-.427-6.466-2.988-7.259-6.162-.793-3.659.183-7.44 2.563-10.186C88.707.322 92.976-.775 96.819.627c.55.245 1.099.489 1.527 1.038z"/><path d="M76.692 10.082l.854-5.428h-1.403l.61-4.087h8.112l-.609 4.087H82.73L80.229 19.72H75.96L70.531 8.923l-.976 6.527h1.403l-.671 4.27h-8.233l.61-4.27h1.707l1.77-10.796h-1.648l.611-4.087h6.648l4.94 9.515zM119.389.567l-.915 5.977h-4.698l.245-1.89h-3.416l-.487 2.744h4.087l-.672 4.636h-4.209l-.548 3.416h3.782l.426-2.44h4.758l-1.037 6.71h-15.371l.672-4.27h1.707l1.768-10.796h-1.708l.672-4.087h14.944zm11.772 11.467c.915-.243 1.769-.793 2.501-1.464 1.769-1.646 2.745-3.964 2.013-6.343-.671-2.257-2.989-3.477-5.185-3.66h-9.576l-.732 4.087h1.464L120 15.45h-1.525l-.731 4.27h7.99l.671-4.27h-1.22l.366-2.746 3.903 7.015h5.49l.731-4.27h-2.562l-1.952-3.415zm-1.281-3.537c-.915.854-2.317.487-3.599.548l.671-4.209c1.403.061 3.354-.366 3.904 1.22.123.977-.182 1.831-.976 2.441zM64.127.567h-8.296l-.671 4.087h1.465L54.917 15.45h-2.745L49.609.567h-9.027l-.731 4.087h1.403l-5.49 10.796h-2.44l-1.89-3.416v-.061c.793-.183 1.464-.61 2.135-1.159 2.013-1.647 3.111-4.026 2.44-6.587-.672-2.257-3.111-3.538-5.308-3.66h-9.637l-.671 4.087h1.524L20.211 15.45h-1.525l-.731 4.27h7.989l.672-4.27h-1.221l.428-2.746 3.902 7.015h11.712l.914-4.27h-1.464l.733-1.586h4.94l.183 1.586h-1.587l-.365 4.27h16.226l.731-4.27h-1.402l1.708-10.796h1.464l.671-4.087h-.062v.001zM30.213 8.252c-.976 1.037-2.561.732-3.842.732l.67-4.331c1.342 0 2.988-.183 3.782 1.037.366.915.123 1.891-.61 2.562zm13.542 1.587l1.952-4.514.366 4.514h-2.318zm94.908 6.77h.367c.304 0 .487 0 .548.123.123.061.123.121.123.243 0 .428-.428.428-.611.428h-.427v-.794zm-.365-.305v2.623h.365v-1.219h.183c.367 0 .61.061.672.426 0 .062.061.367.061.428.061.122.061.243.123.365h.426c-.121-.243-.121-.365-.183-.731-.061-.367-.122-.488-.427-.61.305-.061.609-.245.609-.61 0-.243-.183-.488-.426-.609-.123-.062-.306-.062-.611-.062h-.792v-.001zm2.927 1.342c0-1.159-.853-2.073-2.073-2.073-1.159 0-2.135.854-2.135 2.073 0 1.221 1.037 2.074 2.135 2.074a2.057 2.057 0 0 0 2.073-2.074zm-.183 0a1.9 1.9 0 0 1-1.891 1.892 1.901 1.901 0 0 1-1.891-1.892c0-1.037.793-1.89 1.891-1.89 1.099-.001 1.891.853 1.891 1.89z"/></g></svg>