<svg width="230" height="160" viewBox="0 0 230 160" xmlns="http://www.w3.org/2000/svg"><g fill="none" fill-rule="evenodd"><path d="M170.211 68.114l-.911 5.594h-4.463l.293-1.819h-3.354l-.42 2.622h3.926l-.702 4.3h-3.919l-.529 3.188h3.557l.354-2.256h4.591l-1.025 6.24h-14.262l.656-3.984h1.353l1.666-10.11h-1.332l.619-3.775h13.902zm-39.917 8.878l.837-5.103h-1.33l.61-3.775h7.496l-.616 3.775h-1.34l-2.309 14.094h-4.03l-5.105-10.008-.973 6.024h1.336l-.645 3.984h-7.55l.646-3.984h1.331l1.665-10.11h-1.337l.607-3.775h6.036l4.67 8.878zm-31.59-.231l1.831-4.207.376 4.207h-2.207zm8.61 9.221l.654-3.983h-1.344l-2.38-13.885H95.63l-.612 3.775h1.34L91.146 82h-1.322l-.661 3.984h7.542L97.367 82h-1.352l.67-1.476h4.67l.19 1.476h-1.335l-.65 3.984h7.754zm-23.068-10.49c-.869.792-2.221.483-3.401.536l.642-3.914c1.34.032 3.18-.373 3.676 1.142.116.861-.19 1.677-.917 2.237zm1.196 3.308c.894-.21 1.668-.744 2.395-1.374 1.644-1.49 2.559-3.658 1.9-5.894-.632-2.097-2.862-3.274-4.93-3.416h-8.952l-.607 3.775h1.332l-1.655 10.11h-1.347l-.649 3.985h7.303l.66-3.986h-1.017l.386-2.384 3.587 6.37h4.492L89 82h-1.68l-1.878-3.2zm30.436 7.175l.646-3.98h-1.337l1.666-10.11h1.332l.607-3.775h-7.746l-.62 3.775h1.332l-1.647 10.11h-1.343l-.648 3.99 7.758-.01zm-45.59-16.868l-.304-.374a3.622 3.622 0 0 0-1.08-.606c-3.663-1.351-7.817-.256-10.422 2.657-2.255 2.655-3.218 6.406-2.159 9.88.89 2.726 3.754 4.797 6.477 5.264 1.996.07 4.155-.162 5.753-1.445l-.257 1.5h3.823l1.645-10.044h-9.919l-.589 3.625 4.709.004c-.493 1.07-1.62 1.981-2.77 2.192-1.48.23-2.887-.329-3.71-1.61-1.196-1.91-.773-4.73.494-6.478 1.15-1.444 2.934-2.004 4.742-1.607.986.21 1.996 1.13 2.23 2.107h4.225l.985-6.058h-3.715l-.164.996.006-.003zm80.427 0l-.304-.374c-.33-.28-.706-.465-1.08-.606-3.663-1.352-7.817-.256-10.422 2.656-2.254 2.656-3.217 6.407-2.16 9.88.892 2.727 3.755 4.798 6.478 5.265 1.996.07 4.155-.162 5.753-1.445l-.257 1.5h3.823l1.645-10.044h-9.92l-.588 3.625 4.708.004c-.493 1.07-1.618 1.981-2.77 2.19-1.48.232-2.887-.328-3.71-1.608-1.194-1.91-.772-4.73.494-6.479 1.15-1.443 2.933-2.003 4.743-1.606.985.21 1.995 1.13 2.23 2.107h4.225l.985-6.058h-3.715l-.163.996.005-.003zm29.016 6.382c-.869.791-2.22.482-3.401.535l.642-3.914c1.34.032 3.18-.371 3.676 1.142.116.862-.19 1.677-.917 2.237zm1.196 3.308c.895-.21 1.667-.745 2.395-1.374 1.644-1.491 2.559-3.658 1.898-5.895-.63-2.097-2.86-3.274-4.928-3.416h-8.952l-.607 3.776h1.332l-1.654 10.11h-1.348l-.649 3.984h7.302l.66-3.985h-1.016l.384-2.384 3.588 6.37h4.494l.658-3.986h-1.678l-1.879-3.2zM81.653 89.97l-1.3 7.965h101.512l1.307-7.965H81.653zm7.417 2.233l-.114.671h-1.848l-.123.732h1.701l-.115.676h-1.7l-.238 1.408h-.889l.59-3.487h2.736zm2.999 3.22c.445-.311.82-.853.922-1.456.04-.238.165-1.399-.863-1.77a1.867 1.867 0 0 0-.633-.102c-1.145 0-1.907.893-2.067 1.838-.17 1.006.327 1.857 1.457 1.857a2 2 0 0 0 1.184-.366zm.019-1.397c-.15.73-.654 1.027-1.078 1.027-.419 0-.842-.306-.701-1.136.107-.632.53-1.097 1.068-1.097a.74.74 0 0 1 .584.257c.165.214.204.583.127.95zm1.419 1.664h.893l.21-1.245h.561l.495 1.245h.985l-.587-1.393c.257-.088.776-.261.895-.963.053-.316-.016-.593-.151-.776-.27-.346-.734-.35-1.107-.355h-1.605l-.59 3.487zm2.13-2.835c.186.005.51.02.436.465-.08.464-.49.474-.616.478h-.737l.16-.943h.756zm3.603-.658h2.746l-.117.692h-.923l-.474 2.801h-.894l.475-2.8h-.93l.117-.693zm6.491.006l-.59 3.487h-.893l.25-1.486h-1.301l-.251 1.486h-.9l.59-3.487h.899l-.213 1.259h1.302l.213-1.259h.894zm1.156 0h2.634l-.114.676h-1.746l-.107.634h1.63l-.113.661h-1.63l-.14.83h1.763l-.116.686h-2.652l.59-3.487zm9.377 0h.873l.555 1.284c.2.489.26.648.374.954l.338-2.238h.853l-.59 3.487h-.873l-.48-1.102a10.028 10.028 0 0 1-.441-1.09l-.345 2.192h-.854l.59-3.487zm4.149 0h2.635l-.115.676h-1.746l-.108.634h1.631l-.112.661h-1.63l-.14.83h1.763l-.117.686h-2.65l.589-3.487zm3.691 2.44a.85.85 0 0 0 .298.272c.214.123.45.168.657.168.353 0 .684-.163.724-.405.048-.276-.304-.321-.56-.356-.193-.025-.385-.049-.572-.089-.209-.044-.923-.197-.797-.948.152-.9 1.015-1.165 1.63-1.165.824 0 1.2.39 1.463.66l-.733.46a1.306 1.306 0 0 0-.307-.28 1.126 1.126 0 0 0-.553-.154c-.354 0-.564.197-.593.365-.045.267.252.306.399.327.372.044.866.139 1.056.207.384.148.537.46.471.853a1.384 1.384 0 0 1-.408.742c-.386.366-.918.47-1.417.47-1.005 0-1.326-.455-1.505-.707l.747-.42zm7.887-2.44c.043.375.085.751.138 1.126.083.672.1.781.095 1.458.225-.692.27-.811.553-1.522.134-.356.276-.711.41-1.062h.884l-1.494 3.487h-.919c-.045-.384-.086-.77-.137-1.15-.084-.642-.09-.667-.113-1.156-.164.43-.179.464-.495 1.13l-.541 1.176h-.92l-.313-3.487h.888c.105 1.655.115 1.839.092 2.593.248-.69.306-.825.61-1.517l.475-1.076h.787zm5.78 0l-.59 3.487h-.893l.25-1.486h-1.302l-.251 1.486h-.899l.59-3.487h.899l-.213 1.259h1.301l.214-1.259h.894zm3.266 3.22c.445-.311.82-.853.922-1.456.04-.238.165-1.399-.863-1.77a1.862 1.862 0 0 0-.632-.102c-1.146 0-1.908.893-2.068 1.838-.17 1.006.327 1.857 1.459 1.857a2 2 0 0 0 1.182-.366zm.018-1.397c-.149.73-.653 1.027-1.076 1.027-.42 0-.841-.306-.702-1.136.108-.632.528-1.097 1.068-1.097.244 0 .458.099.584.257.166.214.204.583.126.95zm5.614 1.339a1.699 1.699 0 0 1-1.119.405c-.994 0-1.47-.791-1.297-1.818.19-1.12 1.058-1.869 2.072-1.869.944 0 1.303.594 1.434.806l-.744.402c-.095-.189-.25-.495-.744-.495-.676 0-1.027.548-1.126 1.132-.066.394-.01.715.132.889.112.144.337.252.61.252.161 0 .35-.04.511-.134.258-.148.32-.336.376-.518h-.797l.11-.663h1.552l-.328 1.936h-.697l.055-.325zm2.27-3.162h2.634l-.113.676h-1.746l-.106.634h1.63l-.113.661h-1.63l-.14.83h1.762l-.115.686h-2.652l.59-3.487zm3.207-.006h2.746l-.117.692h-.924l-.474 2.801h-.893l.473-2.8h-.929l.118-.693zm5.898.006l-.589 3.487h-.889l.591-3.487h.887zm.643-.006h2.745l-.116.692h-.923l-.474 2.801h-.894l.475-2.8h-.93l.117-.693zm4.422 3.493h1.401c.376-.005 1.373-.024 1.884-1.102.07-.147.154-.37.204-.671.083-.488.025-.978-.29-1.305-.387-.393-1.04-.404-1.474-.409h-1.137l-.588 3.487zm6.848-.266a2.3 2.3 0 0 0 .923-1.457c.039-.238.165-1.399-.862-1.77a1.87 1.87 0 0 0-.634-.102c-1.144 0-1.908.893-2.067 1.838-.17 1.006.328 1.857 1.458 1.857.368 0 .786-.085 1.182-.366zm.019-1.398c-.149.73-.653 1.027-1.077 1.027-.419 0-.841-.306-.702-1.136.107-.632.529-1.097 1.07-1.097.242 0 .457.099.582.257.167.214.204.583.127.95zm2.01-1.823h.872l.556 1.284c.2.489.259.648.374.954l.338-2.238h.853l-.59 3.487h-.873l-.48-1.102a10.176 10.176 0 0 1-.442-1.09l-.345 2.192h-.854l.592-3.487zm4.148 0h2.635l-.115.676h-1.746l-.107.634h1.632l-.114.661h-1.63l-.14.83h1.762l-.115.686h-2.65l.588-3.487zm-61.898 3.22c.446-.311.82-.853.922-1.456.04-.238.166-1.399-.86-1.77a1.874 1.874 0 0 0-.635-.102c-1.146 0-1.908.893-2.067 1.838-.17 1.006.327 1.857 1.457 1.857.369 0 .786-.085 1.183-.366zm.019-1.397c-.15.73-.653 1.027-1.077 1.027-.42 0-.842-.306-.702-1.136.107-.632.53-1.097 1.069-1.097.243 0 .458.099.582.257.167.214.205.583.128.95zm50.576-1.087c.271 0 .616-.005.805.312.124.216.108.459.068.7-.17 1.004-.83 1.028-1.306 1.039h-.273l.346-2.05h.36zM63.055 89.97H61.25l-1.3 7.966h1.805l1.3-7.965zm5.844 0h-2.54l-1.3 7.966h2.54l1.3-7.965zm-11.688 0h-1.068l-1.302 7.966h1.069l1.301-7.965zm23.38 0h-4.013l-1.301 7.966h4.012l1.301-7.965zm-5.847 0h-3.276l-1.3 7.966h3.276l1.3-7.965zm114.653-5.902a1.895 1.895 0 0 0-1.925-1.916c-1.036 0-1.92.808-1.92 1.904 0 1.13.917 1.906 1.914 1.906 1.089 0 1.925-.84 1.93-1.894zm-2.34-.943h.328c.292 0 .41 0 .514.091.068.06.113.156.113.263 0 .38-.4.373-.551.373h-.404v-.727zm-.356-.266v2.38h.351v-1.107h.173c.344.005.538.048.608.402.01.058.049.325.059.379.022.113.043.22.097.326h.405c-.108-.213-.124-.342-.178-.69-.05-.289-.129-.428-.388-.525.297-.047.539-.24.539-.572a.573.573 0 0 0-.367-.541c-.145-.052-.28-.052-.56-.052h-.739zm2.523 1.203a1.726 1.726 0 0 1-1.752 1.728c-.96 0-1.747-.76-1.747-1.734 0-.951.766-1.733 1.757-1.733a1.72 1.72 0 0 1 1.742 1.739z" opacity=".301" fill="#D4E1ED"/></g></svg>