<?xml version="1.0" encoding="UTF-8"?>
<svg width="230px" height="160px" viewBox="0 0 230 160" version="1.1" xmlns="http://www.w3.org/2000/svg" xmlns:xlink="http://www.w3.org/1999/xlink">
    <!-- Generator: Sketch 62 (91390) - https://sketch.com -->
    <title>logo_clients-grants-active</title>
    <desc>Created with Sketch.</desc>
    <g id="03-what-we-do-(SRC)" stroke="none" stroke-width="1" fill="none" fill-rule="evenodd">
        <g id="Group-2" fill="#FFFFFF">
            <path d="M49.8966484,64.1260091 C53.2631226,64.1260091 56.4612731,64.9054267 59.2806952,66.8972717 L60.7114468,65.0353297 L61.3426607,65.0353297 L61.5951462,73.9553311 L60.7114468,73.9553311 L60.5479066,73.5113807 C58.8518705,69.0136738 56.1219538,65.0353297 50.9065906,65.0353297 C46.614336,65.0353297 39.7130639,69.1922235 39.7130639,80.10407 C39.7130639,91.102912 45.6043938,94.0902858 49.8124865,94.0902858 C54.188903,94.0902858 56.8820823,91.5792227 56.8820823,87.162523 L56.8820823,83.957857 C56.8820823,81.922711 56.2508684,81.5330022 53.2631226,81.3164973 L53.2631226,80.4071768 L64.2041637,80.4071768 L64.2041637,81.3164973 C61.7014006,81.5275896 61.1587933,82.0679858 61.1332272,83.5798286 L61.132256,91.3190232 C57.5553772,93.3978638 53.6839318,95 49.51792,95 C42.574567,95 35,90.4966983 35,80.10407 C35,69.2788255 42.6587288,64.1260091 49.8966484,64.1260091 Z M183.574255,64.0533852 C185.930787,64.0533852 188.581503,64.8761038 190.349284,66.521541 L191.611329,65.3957156 L192.200462,65.3957156 L192.200462,74.2728097 L191.443388,74.2728097 C190.854255,72.1077608 190.222659,69.0329977 188.750209,67.3442596 C187.529479,65.9157209 186.014566,64.9627058 184.120924,64.9627058 C180.165317,64.9627058 177.977491,67.6906674 177.977491,71.63145 C177.977491,75.328486 180.652552,76.2729035 183.537019,77.1667187 L183.700498,77.2172762 C188.287319,78.6458148 193,80.5947524 193,86.3970835 C193,92.5454287 188.371481,94.9273761 182.985122,94.9273761 C180.418185,94.9273761 177.935028,94.1479585 175.788901,92.7190262 L174.189825,94.3207688 L173.684854,94.3207688 L173.684854,85.2708644 L174.526473,85.2708644 C175.073907,89.8607681 177.303814,94.0180556 182.564313,94.0180556 C188.161076,94.0180556 189.339342,89.9044627 189.339342,87.7394138 C189.339342,83.366015 185.467897,82.8460096 182.311827,81.6339759 L181.64411,81.4029941 C177.206342,79.8371924 174.568936,78.2046861 174.568936,72.7568818 C174.568936,67.4745561 178.608323,64.0533852 183.574255,64.0533852 Z M99.327239,63.6931568 L109.407723,90.115521 C110.138779,92.0041362 110.707057,93.0035814 112.414109,93.3965643 L112.695665,93.3632931 C114.075894,93.1881176 115.034953,92.8553516 115.217905,91.2264326 L115.233601,91.059178 C115.233601,91.059178 115.233601,91.015877 115.275681,90.9296687 L115.275681,67.9364558 L114.737423,67.3416431 C113.803388,66.3226803 112.887168,65.4613719 111.614641,65.4249991 L111.614641,64.5156786 L117.884699,64.5156786 L138.715141,88.0281096 L138.715141,68.1962617 C138.715141,65.9879118 137.578573,65.684805 135.011637,65.4249991 L135.011637,64.5156786 L143.312496,64.5150588 L143.464815,63.8229416 L144.057455,63.9945418 C145.051032,64.2751963 146.073833,64.5157573 147.125856,64.5157573 L168.08254,64.5157573 C169.344585,64.5157573 170.564932,64.1693495 171.743198,63.8229416 L173.300193,71.9202245 L172.71106,72.2233314 C171.659036,70.5778942 170.817418,68.7592531 169.55499,67.2437189 L169.125536,66.7229765 C168.423383,65.8833754 167.9172,65.4250778 166.609325,65.4250778 L159.750134,65.4250778 L159.750134,91.0592567 C159.750134,92.9211988 160.592135,93.3542086 163.66366,93.4841115 L163.66366,94.393432 L151.670596,94.393432 L151.670596,93.4841115 L152.054379,93.464413 C154.656429,93.3118917 155.49996,92.8365651 155.49996,91.0592567 L155.49996,65.4250778 L148.598688,65.4250778 C147.041694,65.4250778 146.620885,66.0745925 145.653023,67.2437189 C144.390595,68.7592531 143.548977,70.5778942 142.244468,72.1800304 L141.697416,71.8769235 L143.088302,65.532403 C140.64931,66.0218688 139.851326,66.8260412 139.851326,68.1529607 L139.851326,94.7401548 L139.219729,94.7401548 L116.411867,69.1921842 L116.411867,91.059178 C116.411867,92.5318049 117.46389,93.3978245 120.283312,93.4840328 L120.283312,94.3933533 L101.894176,94.3935501 L101.894176,93.4842296 L102.437481,93.4802848 C103.715254,93.4542496 105.428974,93.2563815 105.428974,91.7525841 C105.428974,90.4964621 103.072442,84.9539369 102.525773,83.0486939 L92.4680483,83.0486939 L92.3985642,83.2872478 C91.8304005,85.1330455 89.6065452,90.547636 89.6065452,91.6222875 C89.6065452,93.3110257 91.8368344,93.3110257 93.0151003,93.4842296 L93.0151003,94.3935501 L83.2669387,94.3933533 L82.3912199,92.8545843 C80.5276014,89.6011412 77.7617632,84.9486459 75.6082099,82.6587883 C74.3037011,81.229856 72.4100594,80.9700502 70.6005795,80.8834482 L70.6005795,91.059178 C70.6005795,93.2679215 71.6105218,93.4840328 74.1774583,93.4840328 L74.1774583,94.3933533 L63.2364172,94.3933533 L63.2364172,93.4840328 L63.7082204,93.4802737 C65.7109576,93.4441786 66.4674584,93.1138231 66.3500233,91.059178 L66.3500233,67.8498539 C66.3500233,65.641504 65.3404636,65.4249991 63.4047409,65.4249991 L63.4047409,64.5156786 C67.1499434,64.5156786 71.0213888,64.3424747 74.8924516,64.3424747 C79.9425454,64.3424747 85.6234706,66.3343196 85.6234706,72.4830585 C85.6234706,77.0296612 82.9302913,79.0648071 79.016765,80.4071374 C81.6678635,83.308303 84.5293665,87.4651968 86.2126036,91.059178 C86.5044421,91.6932957 86.8837351,92.1987391 87.3504827,92.5805289 C87.6738577,92.254959 87.9295603,91.856063 88.0916318,91.4057826 L96.676141,68.3696624 L95.9186843,67.0706331 C97.307355,66.2479145 98.3172972,64.9488852 99.327239,63.6931568 Z M97.307355,69.6253908 L92.9309385,81.8795675 L102.0625,81.8795675 L97.307355,69.6253908 Z M73.79873,65.2517952 L73.4850114,65.2545881 C71.5500304,65.2911991 70.6005795,65.7107856 70.6005795,67.8498539 L70.6005795,79.9741277 C71.8630073,79.9741277 73.1254352,79.8875257 74.387863,79.8009238 C78.7221985,79.4545159 81.0366495,76.8564573 81.0366495,72.4397575 C81.0366495,67.9797568 78.2172274,65.2517952 73.79873,65.2517952 Z M174.225667,59 C176.330096,59 177.324736,61.1654425 177.324736,63.0549398 C177.324736,65.8498211 175.411967,67.8578055 173.269282,69.3142929 L172.886728,68.5663669 C173.996135,67.7393183 175.679754,66.1253727 175.679754,64.6295208 C175.679754,64.1177819 175.52635,63.7635012 175.067286,63.448585 C173.651836,62.7793881 172.121621,63.0549398 172.121621,61.0079844 C172.121621,59.826655 173.116261,59 174.225667,59 Z" id="Shape"></path>
        </g>
    </g>
</svg>