<?xml version="1.0" encoding="UTF-8"?>
<svg width="100px" height="100px" viewBox="0 0 100 100" version="1.1" xmlns="http://www.w3.org/2000/svg" xmlns:xlink="http://www.w3.org/1999/xlink">
    <!-- Generator: Sketch 60 (88103) - https://sketch.com -->
    <title>greenlinks_logo</title>
    <desc>Created with Sketch.</desc>
    <g id="Actual" stroke="none" stroke-width="1" fill="none" fill-rule="evenodd">
        <g id="Case_Greenlinks_2560" transform="translate(-1230.000000, -237.000000)" fill="#FFFFFF">
            <g id="Header">
                <g id="Group-5" transform="translate(1230.000000, 237.000000)">
                    <path d="M50.0003168,0 C77.5702794,0 100,22.4300854 100,49.9998733 C100,77.5696611 77.5702794,100 50.0003168,100 C22.4303543,100 0,77.5696611 0,49.9998733 C0,22.4300854 22.4303543,0 50.0003168,0 Z M50.0003168,7.47572348 C26.552256,7.47572348 7.47577085,26.5520877 7.47577085,49.9998733 C7.47577085,73.4479123 26.552256,92.5242765 50.0003168,92.5242765 C73.4483777,92.5242765 92.5241024,73.4479123 92.5241024,49.9998733 C92.5241024,26.5520877 73.4483777,7.47572348 50.0003168,7.47572348 Z M28.5919909,27.9654869 L29.554313,27.9654869 L29.5550734,64.5587136 L70.444952,64.5587136 L70.444952,64.5537708 L77.9208496,64.5537708 L77.9208496,65.5216632 C77.9208496,69.0364809 75.1220405,71.9099341 71.6361976,72.0306176 L71.4079077,72.0345638 L28.5919909,72.0345638 C25.077275,72.0345638 22.2038062,69.2358939 22.083122,65.7499594 L22.0791758,65.5216632 L22.0791758,34.4782608 C22.0791758,30.9635671 24.8778635,28.0901165 28.3637011,27.9694331 L28.5919909,27.9654869 Z M71.4079077,46.2620369 C74.9226236,46.2620369 77.7962138,49.0608282 77.9169032,52.546649 L77.9208496,52.7749375 L77.9208496,59.5825021 L70.444952,59.5825021 L70.444952,53.7377603 L43.7466937,53.7377603 L43.7466937,46.2620369 L71.4079077,46.2620369 Z M77.8856164,27.9654869 L77.8856164,35.4412104 L34.5256131,35.4412104 L34.5256131,27.9654869 L77.8856164,27.9654869 Z" id="greenlinks_logo"></path>
                </g>
            </g>
        </g>
    </g>
</svg>