<svg preserveAspectRatio="none" viewBox="0 0 146 128" xmlns="http://www.w3.org/2000/svg"><g fill="none" fill-rule="evenodd"><path d="m61 122.272h24c8 0 12-3 12-3h-48s4 3 12 3zm6 5h12c2.98 0 8-3 8-3h-28s5 3 8 3zm49-31.272c.608-1.328.363-1.045 1-2 3.844 0 25.502-6.386 29-9 0 9.552-11.244 10.573-30 11zm-2 5 1-2s20.182-.999 25-3c-3.121 9.583-26 5-26 5zm-2 5 1-2s13.916.962 19.454 0c-5.151 8.878-20.454 2-20.454 2zm-82-10c-.608-1.328-.363-1.045-1-2-3.844 0-25.502-6.386-29-9 0 9.552 11.244 10.573 30 11zm2 5-1-2s-20.182-.999-25-3c3.121 9.583 26 5 26 5zm2 5-1-2s-13.916.962-19.454 0c5.151 8.878 20.454 2 20.454 2zm-8.222-77.636 2.475-2.475-1.414-1.414-2.475 2.475-2.475-2.475-1.414 1.414 2.475 2.475-2.475 2.475 1.414 1.414 2.475-2.475 2.475 2.475 1.414-1.414zm97.222-4.546 3.818-3.818-2.182-2.182-3.818 3.818-3.818-3.818-2.182 2.182 3.818 3.818-3.818 3.818 2.182 2.182 3.818-3.818 3.818 3.818 2.182-2.182zm-52-11.818a6 6 0 1 0 0-12 6 6 0 0 0 0 12zm0-2a4 4 0 1 0 0-8 4 4 0 0 0 0 8zm-56 65a4 4 0 1 0 0-8 4 4 0 0 0 0 8zm0-1.5a2.5 2.5 0 1 0 0-5 2.5 2.5 0 0 0 0 5zm122-4.5a4 4 0 1 0 0-8 4 4 0 0 0 0 8zm0-1.5a2.5 2.5 0 1 0 0-5 2.5 2.5 0 0 0 0 5z" fill="#fff" opacity=".301"/><g opacity=".3" transform="translate(50 32)"><path d="m45 14.145a186.355 186.355 0 0 0 -.026-3.004c-.02-1.01-.085-2.031-.256-2.944-.187-.995-.441-1.899-.9-2.803-.464-.918-1.102-1.711-1.793-2.419-.708-.69-1.5-1.329-2.419-1.794-.904-.458-1.808-.712-2.803-.899-.913-.171-1.934-.236-2.944-.256a177.234 177.234 0 0 0 -3.004-.026h-16.71a177.234 177.234 0 0 0 -3.004.026c-1.01.02-2.031.085-2.944.256-.995.187-1.899.441-2.803.9-.918.464-1.711 1.102-2.419 1.793-.69.708-1.328 1.501-1.793 2.419-.459.904-.712 1.808-.9 2.803-.17.913-.236 1.934-.255 2.944a188.238 188.238 0 0 0 -.027 3.004v16.71a188.238 188.238 0 0 0 .027 3.004c.019 1.01.084 2.031.256 2.944.187.995.44 1.899.899 2.803.465.918 1.102 1.711 1.793 2.419.708.691 1.5 1.329 2.419 1.794.904.458 1.808.712 2.803.899.913.171 1.934.236 2.944.256a186.35 186.35 0 0 0 3.004.026h16.71a186.35 186.35 0 0 0 3.004-.026c1.01-.02 2.031-.085 2.944-.256.995-.187 1.899-.441 2.803-.9.918-.464 1.711-1.102 2.419-1.793.69-.708 1.329-1.5 1.794-2.419.458-.904.712-1.808.899-2.803.171-.913.236-1.934.256-2.944a186.355 186.355 0 0 0 .026-3.004z" fill="#fff"/><circle cx="22.5" cy="22.5" opacity=".497" r="8.5" stroke="#dc4f4c" stroke-linecap="square"/><circle cx="22.5" cy="22.5" opacity=".497" r="12.5" stroke="#dc4f4c" stroke-linecap="square"/><circle cx="22.5" cy="22.5" opacity=".497" r="19.5" stroke="#dc4f4c" stroke-linecap="square"/><g fill="#dc4f4c"><path d="m22 0h1v45h-1zm-7 0h1v45h-1zm14 0h1v45h-1zm-26 3h1v39h-1z" opacity=".502"/><path d="m42 41v1h-39v-1zm0-38v1h-39v-1z" opacity=".502"/><path d="m41 3h1v39h-1z" opacity=".502"/><path d="m0 15h45v1h-45zm0 14h45v1h-45zm0-7h45v1h-45z" opacity=".502"/></g><path d="m41.5 3.5-38.053 38.053m.053-38.053 38 38" opacity=".497" stroke="#dc4f4c" stroke-linecap="square"/></g></g></svg>