<svg xmlns="http://www.w3.org/2000/svg" width="120px" height="60px" viewBox="0 0 120 60"><defs><linearGradient id="umyfid7iodofkiwpzas8vqay" x1="59.5" y1="5.5" x2="59.5" y2="51.5" gradientUnits="userSpaceOnUse"><stop offset="0" stop-color="#0056e6"/><stop offset="1" stop-color="#f5f5f7"/></linearGradient><linearGradient id="ozxagzmtllvtu69opawboa5d" x1="13.5" y1="30" x2="44" y2="30" gradientUnits="userSpaceOnUse"><stop offset="0" stop-color="#fff"/><stop offset="1" stop-color="#fff" stop-opacity="0"/></linearGradient></defs><style>
@keyframes tys3b0yg9ix7ae2fafaga5ng_t { 0% { transform: translate(0px,3px); } 100% { transform: translate(-161px,3px); } }
@keyframes kdbp0h5ezzy4mkuu2ldung1i_t { 0% { transform: translate(0px,0px); } 100% { transform: translate(-161px,0px); } }
@keyframes j2cr1omugwbmo5rqypdpkgjc_t { 0% { transform: translate(0px,0px); } 100% { transform: translate(-161px,0px); } }
</style><title>header-graph</title><desc>Created with Sketch.</desc><path d="M62.7 45.5c.5 1.7 2.6 2 3.6 .6l7.7-11.8h54.5c.8 0 1.5-0.5 1.8-1.1l6.7-7.4l6.7 16.7c.4 1.7 2.6 2 3.6 .6l7.7-8.8h53.5c.8 0 1.5-0.5 1.8-1.1l6.3-12.7l7.1 25c.4 1.7 2.6 2 3.6 .6l7.7-11.8h46v-4h-47.1c-0.7 0-1.3 .3-1.7 .9l-5.9 9l-7.2-25.7c-0.5-1.8-2.9-2-3.7-0.4l-8.1 16.2h-53.4c-0.7 0-1.3 .3-1.7 .9l-5.9 7l-7.2-16.7c-0.5-1.8-2.9-2-3.7-0.4l-8.1 9.2h-54.4c-0.7 0-1.3 .3-1.7 .9l-5.9 9l-7.2-25.7c-0.5-1.8-2.9-2-3.7-0.4l-8.1 16.2h-46.3v4h47.5c.8 0 1.5-0.5 1.8-1.1l6.4-12.7Z" fill="url(#umyfid7iodofkiwpzas8vqay)" fill-rule="evenodd" opacity=".4" transform="translate(140.5,33) translate(-140.5,-30)" style="animation: 2s linear infinite both tys3b0yg9ix7ae2fafaga5ng_t;"/><path d="M62.7 45.5c.5 1.7 2.6 2 3.6 .6l7.7-11.8h54.5c.8 0 1.5-0.5 1.8-1.1l6.7-7.4l6.7 16.7c.4 1.7 2.6 2 3.6 .6l7.7-8.8h53.5c.8 0 1.5-0.5 1.8-1.1l6.3-12.7l7.1 25c.4 1.7 2.6 2 3.6 .6l7.7-11.8h46v-4h-47.1c-0.7 0-1.3 .3-1.7 .9l-5.9 9l-7.2-25.7c-0.5-1.8-2.9-2-3.7-0.4l-8.1 16.2h-53.4c-0.7 0-1.3 .3-1.7 .9l-5.9 7l-7.2-16.7c-0.5-1.8-2.9-2-3.7-0.4l-8.1 9.2h-54.4c-0.7 0-1.3 .3-1.7 .9l-5.9 9l-7.2-25.7c-0.5-1.8-2.9-2-3.7-0.4l-8.1 16.2h-46.3v4h47.5c.8 0 1.5-0.5 1.8-1.1l6.4-12.7Z" fill="url(#umyfid7iodofkiwpzas8vqay)" fill-rule="evenodd" transform="translate(140.5,30) translate(-140.5,-30)" style="animation: 2s linear infinite both kdbp0h5ezzy4mkuu2ldung1i_t;"/><path d="M66.3 44.3c-1 1.4-3.1 1.1-3.6-0.6l-7-25l-6.4 12.7c-0.3 .6-1 1.1-1.8 1.1h-47.5v1.8h47.5c.8 0 1.5-0.5 1.8-1.1l6.4-12.7l7 25c.5 1.7 2.6 2 3.6 .6l7.7-11.8h54.5c.8 0 1.5-0.5 1.8-1.1l6.7-7.4l6.7 16.7c.4 1.7 2.6 2 3.6 .6l7.7-8.8h53.5c.8 0 1.5-0.5 1.8-1.1l6.3-12.7l7.1 25c.4 1.7 2.6 2 3.6 .6l7.7-11.8h46v-1.8h-46l-7.7 11.8c-1 1.4-3.2 1.1-3.6-0.6l-7.1-25l-6.3 12.7c-0.3 .6-1 1.1-1.8 1.1h-53.5l-7.7 8.8c-1 1.4-3.2 1.1-3.6-0.6l-6.7-16.8l-6.7 7.5c-0.3 .6-1 1.1-1.8 1.1h-54.5Z" fill="#0056e6" fill-rule="evenodd" opacity=".2" transform="translate(140.5,30) translate(-140.5,-30)" style="animation: 2s linear infinite both j2cr1omugwbmo5rqypdpkgjc_t;"/><path fill="url(#ozxagzmtllvtu69opawboa5d)" d="M0 0h44v60h-44Z"/><path fill="url(#ozxagzmtllvtu69opawboa5d)" d="M0 0h44v60h-44Z" transform="translate(105.5,30) rotate(180) translate(-14.5,-30)"/></svg>