<svg xmlns="http://www.w3.org/2000/svg" viewBox="0 0 768 680"><defs><linearGradient id="ivpbzcubw3w91aoai2avanbw" x1="0" y1=".1" x2="1" y2=".9"><stop offset="0" stop-color="#006b8a"/><stop offset="1" stop-color="#4cff8d"/></linearGradient><linearGradient id="duu3qr3j7ewz59nk40cxs94z" x1="1.1" y1=".8" x2=".5" y2="0"><stop offset="0" stop-color="#4cff8d" stop-opacity="0"/><stop offset="1" stop-color="#4cff8d"/></linearGradient><linearGradient id="o4i810vusg4hnreqcb9d0cdy" x1=".4" y1=".5" x2=".3" y2=".5"><stop offset="1" stop-color="#4cff8d"/></linearGradient><linearGradient id="wtidk5n37lgttdofvajsi4vb" x1=".7" y1=".2" x2="-0.3" y2=".9"><stop offset="0" stop-color="#4cff8d" stop-opacity="0"/><stop offset="1" stop-color="#4cff8d"/></linearGradient><mask id="Mask-1" style="mask-type: alpha;"><g transform="translate(200.9,157.5) translate(-481.5,-194.5)" style="animation: 14s linear infinite both pnd5ucdxg0flh8mlc2x8fkqi_t;"><path d="M389 0l-389 389" stroke="#000" fill="none" stroke-linecap="square" stroke-width="4"/><path d="M409 0l-389 389" stroke="#000" fill="none" stroke-linecap="square" stroke-width="4"/><path d="M429 0l-389 389" stroke="#000" fill="none" stroke-linecap="square" stroke-width="4"/><path d="M449 0l-389 389" stroke="#000" fill="none" stroke-linecap="square" stroke-width="4"/><path d="M469 0l-389 389" stroke="#000" fill="none" stroke-linecap="square" stroke-width="4"/><path d="M489 0l-389 389" stroke="#000" fill="none" stroke-linecap="square" stroke-width="4"/><path d="M509 0l-389 389" stroke="#000" fill="none" stroke-linecap="square" stroke-width="4"/><path d="M529 0l-389 389" stroke="#000" fill="none" stroke-linecap="square" stroke-width="4"/><path d="M549 0l-389 389" stroke="#000" fill="none" stroke-linecap="square" stroke-width="4"/><path d="M569 0l-389 389" stroke="#000" fill="none" stroke-linecap="square" stroke-width="4"/><path d="M589 0l-389 389" stroke="#000" fill="none" stroke-linecap="square" stroke-width="4"/><path d="M609 0l-389 389" stroke="#000" fill="none" stroke-linecap="square" stroke-width="4"/><path d="M629 0l-389 389" stroke="#000" fill="none" stroke-linecap="square" stroke-width="4"/><path d="M649 0l-389 389" stroke="#000" fill="none" stroke-linecap="square" stroke-width="4"/><path d="M669 0l-389 389" stroke="#000" fill="none" stroke-linecap="square" stroke-width="4"/><path d="M689 0l-389 389" stroke="#000" fill="none" stroke-linecap="square" stroke-width="4"/><path d="M709 0l-389 389" stroke="#000" fill="none" stroke-linecap="square" stroke-width="4"/><path d="M729 0l-389 389" stroke="#000" fill="none" stroke-linecap="square" stroke-width="4"/><path d="M749 0l-389 389" stroke="#000" fill="none" stroke-linecap="square" stroke-width="4"/><path d="M769 0l-389 389" stroke="#000" fill="none" stroke-linecap="square" stroke-width="4"/><path d="M789 0l-389 389" stroke="#000" fill="none" stroke-linecap="square" stroke-width="4"/><path d="M809 0l-389 389" stroke="#000" fill="none" stroke-linecap="square" stroke-width="4"/><path d="M829 0l-389 389" stroke="#000" fill="none" stroke-linecap="square" stroke-width="4"/><path d="M849 0l-389 389" stroke="#000" fill="none" stroke-linecap="square" stroke-width="4"/><path d="M869 0l-389 389" stroke="#000" fill="none" stroke-linecap="square" stroke-width="4"/><path d="M722.9 166.1l-222.9 222.9" stroke="#000" fill="none" stroke-linecap="square" stroke-width="4"/><path d="M742.9 166.1l-222.9 222.9" stroke="#000" fill="none" stroke-linecap="square" stroke-width="4"/><path d="M762.9 166.1l-222.9 222.9" stroke="#000" fill="none" stroke-linecap="square" stroke-width="4"/><path d="M782.9 166.1l-222.9 222.9" stroke="#000" fill="none" stroke-linecap="square" stroke-width="4"/><path d="M802.9 166.1l-222.9 222.9" stroke="#000" fill="none" stroke-linecap="square" stroke-width="4"/><path d="M822.9 166.1l-222.9 222.9" stroke="#000" fill="none" stroke-linecap="square" stroke-width="4"/><path d="M842.9 166.1l-222.9 222.9" stroke="#000" fill="none" stroke-linecap="square" stroke-width="4"/><path d="M862.9 166.1l-222.9 222.9" stroke="#000" fill="none" stroke-linecap="square" stroke-width="4"/><path d="M882.9 166.1l-222.9 222.9" stroke="#000" fill="none" stroke-linecap="square" stroke-width="4"/><path d="M902.9 166.1l-222.9 222.9" stroke="#000" fill="none" stroke-linecap="square" stroke-width="4"/><path d="M922.9 166.1l-222.9 222.9" stroke="#000" fill="none" stroke-linecap="square" stroke-width="4"/><path d="M942.9 166.1l-222.9 222.9" stroke="#000" fill="none" stroke-linecap="square" stroke-width="4"/><path d="M962.9 166.1l-222.9 222.9" stroke="#000" fill="none" stroke-linecap="square" stroke-width="4"/></g></mask></defs><style>
@keyframes uu4xt7mcnwvrb1plllw04qfs_t { 0% { transform: translate(171.6px,605.8px) scale(1.3,1.3) translate(-171.6px,-606.8px); animation-timing-function: cubic-bezier(.4,0,.6,1); } 27.857% { transform: translate(171.6px,605.8px) scale(1,1) translate(-171.6px,-606.8px); animation-timing-function: cubic-bezier(.4,0,.6,1); } 62.857% { transform: translate(171.6px,605.8px) scale(1.3,1.3) translate(-171.6px,-606.8px); animation-timing-function: steps(1); } 62.864% { transform: translate(171.6px,605.8px) scale(1.3,1.3) translate(-171.6px,-606.8px); animation-timing-function: cubic-bezier(.4,0,.6,1); } 90.714% { transform: translate(171.6px,605.8px) scale(1,1) translate(-171.6px,-606.8px); animation-timing-function: cubic-bezier(.4,0,.7,.4); } 100% { transform: translate(171.6px,605.8px) scale(1,1) translate(-171.6px,-606.8px); } }
@keyframes q8fyyb7egckoe14kq4414xbk_t { 0% { transform: translateY(0px) scale(1,1) translateY(-1px); animation-timing-function: cubic-bezier(.4,0,.6,1); } 41.428% { transform: translateY(0px) scale(1.1,1.1) translateY(-1px); animation-timing-function: cubic-bezier(.4,0,.6,1); } 94.286% { transform: translateY(0px) scale(1,1) translateY(-1px); animation-timing-function: steps(1); } 94.293% { transform: translateY(0px) scale(1,1) translateY(-1px); animation-timing-function: cubic-bezier(.4,0,.7,.4); } 100% { transform: translateY(0px) scale(1,1) translateY(-1px); } }
@keyframes amz217tw7nsm0y3fwv4hrhgv_t { 0% { transform: translateX(768px) scale(1,1) translate(-768px,-1px); animation-timing-function: cubic-bezier(.4,0,.6,1); } 50.714% { transform: translateX(768px) scale(.8,.8) translate(-768px,-1px); animation-timing-function: cubic-bezier(.4,0,.6,1); } 100% { transform: translateX(768px) scale(1,1) translate(-768px,-1px); } }
@keyframes z6vwn6jezw0vtv6taverjj81_t { 0% { transform: translate(662.6px,293.2px) scale(1,1) translate(-662.6px,-514.2px); animation-timing-function: cubic-bezier(.4,0,.6,1); } 21.428% { transform: translate(662.6px,293.2px) scale(1.2,1.2) translate(-662.6px,-514.2px); animation-timing-function: cubic-bezier(.4,0,.6,1); } 42.857% { transform: translate(662.6px,293.2px) scale(1,1) translate(-662.6px,-514.2px); animation-timing-function: steps(1); } 42.864% { transform: translate(662.6px,293.2px) scale(1,1) translate(-662.6px,-514.2px); animation-timing-function: cubic-bezier(.4,0,.6,1); } 64.286% { transform: translate(662.6px,293.2px) scale(1.2,1.2) translate(-662.6px,-514.2px); animation-timing-function: cubic-bezier(.4,0,.6,1); } 85.714% { transform: translate(662.6px,293.2px) scale(1,1) translate(-662.6px,-514.2px); animation-timing-function: steps(1); } 85.721% { transform: translate(662.6px,293.2px) scale(1,1) translate(-662.6px,-514.2px); animation-timing-function: cubic-bezier(.4,0,.7,.6); } 100% { transform: translate(662.6px,293.2px) scale(1.2,1.2) translate(-662.6px,-514.2px); } }
@keyframes pnd5ucdxg0flh8mlc2x8fkqi_t { 0% { transform: translate(-280.5px,-37px); } 14.286% { transform: translate(-300.3px,-37px); animation-timing-function: steps(1); } 14.293% { transform: translate(-280.5px,-37px); } 28.571% { transform: translate(-300.3px,-37px); animation-timing-function: steps(1); } 28.578% { transform: translate(-280.5px,-37px); } 42.857% { transform: translate(-300.3px,-37px); animation-timing-function: steps(1); } 42.864% { transform: translate(-280.5px,-37px); } 57.143% { transform: translate(-300.3px,-37px); animation-timing-function: steps(1); } 57.15% { transform: translate(-280.5px,-37px); } 71.428% { transform: translate(-300.3px,-37px); animation-timing-function: steps(1); } 71.436% { transform: translate(-280.5px,-37px); } 85.714% { transform: translate(-300.3px,-37px); animation-timing-function: steps(1); } 85.721% { transform: translate(-280.5px,-37px); } 100% { transform: translate(-300.3px,-37px); } }
@keyframes zti6cqv8xz031sec77cgu46l_t { 0% { transform: translate(384px,680px) scale(1,1) translate(-384px,-680px); } 20% { transform: translate(384px,680px) scale(1.1,1) translate(-384px,-680px); } 37.857% { transform: translate(384px,680px) scale(1,1) translate(-384px,-680px); animation-timing-function: steps(1); } 37.864% { transform: translate(384px,680px) scale(1,1) translate(-384px,-680px); } 57.857% { transform: translate(384px,680px) scale(1.1,1) translate(-384px,-680px); } 75.714% { transform: translate(384px,680px) scale(1,1) translate(-384px,-680px); animation-timing-function: steps(1); } 75.721% { transform: translate(384px,680px) scale(1,1) translate(-384px,-680px); } 95.714% { transform: translate(384px,680px) scale(1.1,1) translate(-384px,-680px); } 100% { transform: translate(384px,680px) scale(1.1,1) translate(-384px,-680px); } }
</style><title>Artboard</title><desc>Created with Sketch.</desc><path d="M768 1h-768v672c149-7.5 274.6-37 376.8-88.5c102.1-51.5 232.5-56.1 391.2-13.6v-569.9Z" fill="url(#ivpbzcubw3w91aoai2avanbw)" fill-rule="evenodd" transform="translate(0,-1)"/><path d="M227.9 554.9c29.2 23.8 55.5 78.1 51.3 126.1h-215.6c2.9-2.7 6.2-5.1 10-7.1l.8-0.4c95.5-48.8 26.9-99 73.8-135.1c10.2-7.9 44.9-12 79.7 16.5Z" fill="url(#duu3qr3j7ewz59nk40cxs94z)" opacity=".2" fill-rule="evenodd" transform="translate(171.6,605.8) scale(1.3,1.3) translate(-171.6,-606.8)" style="animation: 14s linear infinite both uu4xt7mcnwvrb1plllw04qfs_t;"/><path d="M268.3 1c-124 56.9-106.8 173.3-165 242.8c-31.6 37.6-67.1 55.2-103.3 65.7v-308.5h268.3Z" fill="#4cff8d" opacity=".2" fill-rule="evenodd" transform="translate(0,0) translate(0,-1)" style="animation: 14s linear infinite both q8fyyb7egckoe14kq4414xbk_t;"/><path d="M768 1v93c-122-18-263.8-5.6-301.4-93h301.4Z" fill="url(#o4i810vusg4hnreqcb9d0cdy)" opacity=".2" fill-rule="evenodd" transform="translate(768,0) translate(-768,-1)" style="animation: 14s linear infinite both amz217tw7nsm0y3fwv4hrhgv_t;"/><path d="M563.7 457c22.5-48.2 95.6-61.6 163.4-30c15.3 7.1 29.1 16 40.9 25.9v156.5c-33.1 14-78.8 12.3-122.2-8c-67.8-31.6-104.5-96.3-82.1-144.4Z" fill="url(#wtidk5n37lgttdofvajsi4vb)" opacity=".2" fill-rule="evenodd" transform="translate(662.6,293.2) translate(-662.6,-514.2)" style="animation: 14s linear infinite both z6vwn6jezw0vtv6taverjj81_t;"/><path d="M246 53.2c40.8 58.9-7.7 152.9 145.4 113.3c29-7.5 68.3 7.3 102.6 32.1v198.5c-62 0-130.7 .1-206 .1c-55.4 6.9-100.7 1.8-135.8-15.5c-52.8-25.8-26.4-90.5-97.4-145.1c-70.9-54.6-69-164.4-15.8-208.7c53.2-44.4 166.3-33.7 207 25.3Z" fill="#fff" fill-opacity=".2" opacity=".7" fill-rule="evenodd" mask="url(#Mask-1)" transform="translate(521.1,480.2) scale(1.05,1.05) translate(-247.1,-200.4)"/><path d="M378.3 583.5c101.9-51.2 231.8-56 389.7-14.4v110.9h-768v-8c149.6-7.5 275.7-37 378.3-88.5Z" fill="#fff" fill-rule="evenodd" transform="translate(384,680) translate(-384,-680)" style="animation: 14s linear infinite both zti6cqv8xz031sec77cgu46l_t;"/></svg>