<svg xmlns="http://www.w3.org/2000/svg" width="2560" height="2560" viewBox="0 0 2560 2560" style="background: #fff;"><style>
@keyframes n0rjj37flup8kkbqxu61t5uo_t { 0% { transform: translate(58.6px,1078.8px) rotate(0deg) translate(-421.5px,-1078.8px); } 100% { transform: translate(58.6px,1078.8px) rotate(360deg) translate(-421.5px,-1078.8px); } }
@keyframes pc0fh5gvxzv78efkedetthsy_t { 0% { transform: translate(1055.5px,2538.8px) rotate(0deg) translate(-421.5px,-1078.8px); } 100% { transform: translate(1055.5px,2538.8px) rotate(-360deg) translate(-421.5px,-1078.8px); } }
@keyframes d9wh4ehh2iwqzvw6f3tm04x8_t { 0% { transform: translate(1829px,925.5px) rotate(0deg) scale(1,1) translate(-2191.9px,-925.5px); animation-timing-function: cubic-bezier(.4,0,.6,1); } 47.967% { transform: translate(1829px,925.5px) rotate(20deg) scale(.9,.9) translate(-2191.9px,-925.5px); animation-timing-function: cubic-bezier(.4,0,.6,1); } 100% { transform: translate(1829px,925.5px) rotate(0deg) scale(1,1) translate(-2191.9px,-925.5px); } }
@keyframes a4_t { 0% { transform: translate(1901px,939.5px) rotate(0deg); animation-timing-function: cubic-bezier(.4,0,.6,1); } 52.581% { transform: translate(1901px,939.5px) rotate(-20deg); animation-timing-function: cubic-bezier(.4,0,.6,1); } 100% { transform: translate(1901px,939.5px) rotate(0deg); } }
@keyframes vtmalgiwojxxoi5yhuyggkxo_t { 0% { transform: scale(1,1) translate(-2263.9px,-939.5px); animation-timing-function: cubic-bezier(.4,0,.6,1); } 49.94% { transform: scale(.9,.9) translate(-2263.9px,-939.5px); animation-timing-function: cubic-bezier(.4,0,.6,1); } 100% { transform: scale(1,1) translate(-2263.9px,-939.5px); } }
@keyframes a6_t { 0% { transform: translate(1183.7px,2316.6px) rotate(0deg); animation-timing-function: cubic-bezier(.4,0,.6,1); } 52.581% { transform: translate(1183.7px,2316.6px) rotate(-20deg); animation-timing-function: cubic-bezier(.4,0,.6,1); } 100% { transform: translate(1183.7px,2316.6px) rotate(0deg); } }
@keyframes rm0yr210b3h2u73v8tp6tin7_t { 0% { transform: scale(1,1) translate(-2263.9px,-939.5px); animation-timing-function: cubic-bezier(.4,0,.6,1); } 49.94% { transform: scale(.9,.9) translate(-2263.9px,-939.5px); animation-timing-function: cubic-bezier(.4,0,.6,1); } 100% { transform: scale(1,1) translate(-2263.9px,-939.5px); } }
</style><title>Rectangle</title><desc>Created with Sketch.</desc><path d="M778.4 1167.5c-99.9 196.4-305.8 409.3-501.5 309.5c-195.6-99.8-259.1-214.2-215-502c45.5-296.1 495.1-373 670.8-261.9c175.7 111.1 145.7 258.1 45.7 454.4Z" fill="#0056e6" opacity=".1" fill-rule="evenodd" transform="translate(58.6,1078.8) translate(-421.5,-1078.8)" style="animation: 36s linear infinite both n0rjj37flup8kkbqxu61t5uo_t;"/><path d="M778.4 1167.5c-99.9 196.4-305.8 409.3-501.5 309.5c-195.6-99.8-259.1-214.2-215-502c45.5-296.1 495.1-373 670.8-261.9c175.7 111.1 145.7 258.1 45.7 454.4Z" fill="#0056e6" opacity=".1" fill-rule="evenodd" transform="translate(1055.5,2538.8) translate(-421.5,-1078.8)" style="animation: 44.17s linear infinite both pc0fh5gvxzv78efkedetthsy_t;"/><path d="M2729.6 1059.1c-150.6 295.5-452.8 482.2-710.8 411.7c-319.1-87.2-577.7-371.3-445.8-675.6c171.1-394.9 849.4-623.1 1087.7-420.1c178.6 152.2 219.5 388.4 68.9 684Z" fill="#0056e6" opacity=".1" fill-rule="evenodd" transform="translate(1829,925.5) translate(-2191.9,-925.5)" style="animation: 12.3s linear infinite both d9wh4ehh2iwqzvw6f3tm04x8_t;"/><g style="animation: 13.88s linear infinite both a4_t;"><path d="M2801.6 1073.1c-150.6 295.5-464 461-710.8 411.7c-324.4-64.9-584.7-374.4-445.8-675.6c101.8-220.8 738-632.1 1087.6-420.1c206.1 125 219.6 388.4 69 684Z" stroke="#4780fb" stroke-width="2" opacity=".4" fill="none" transform="translate(1901,939.5) translate(-2263.9,-939.5)" style="animation: 13.88s linear infinite both vtmalgiwojxxoi5yhuyggkxo_t;"/></g><g style="animation: 13.88s linear infinite both a6_t;"><path d="M2394.4 1227.8c-99.3 195-274.4 370.8-468.9 271.7c-194.5-99.1-393.5-250.8-294.1-445.8c53.8-105.6 437.9-417 717.6-277.1c184.6 92.5 144.8 256.3 45.4 451.2Z" stroke="#4780fb" stroke-width="2" opacity=".4" fill="none" transform="translate(1183.7,2316.6) translate(-2263.9,-939.5)" style="animation: 13.88s linear infinite both rm0yr210b3h2u73v8tp6tin7_t;"/></g></svg>