<svg xmlns="http://www.w3.org/2000/svg" width="120px" height="120px" viewBox="0 0 120 120"><defs><linearGradient id="pdayildeqgxmfjzlh9j4abxg" x1=".1" y1=".4" x2=".9" y2=".6"><stop offset="0" stop-color="#0056e6" stop-opacity=".04"/><stop offset=".5" stop-color="#0056e6" stop-opacity=".09"/><stop offset="1" stop-color="#0056e6" stop-opacity="0"/></linearGradient><linearGradient id="vc5viwc9skl2741idy34w79x" x1=".1" y1=".5" x2=".9" y2=".6"><stop offset="0" stop-color="#0056e6" stop-opacity=".04"/><stop offset=".5" stop-color="#0056e6" stop-opacity=".09"/><stop offset="1" stop-color="#0056e6" stop-opacity="0"/></linearGradient><linearGradient id="t30ue4v79piptr9dfiflpky5" x1=".1" y1=".5" x2=".9" y2=".5"><stop offset="0" stop-color="#0056e6" stop-opacity=".04"/><stop offset=".5" stop-color="#0056e6" stop-opacity=".09"/><stop offset="1" stop-color="#0056e6" stop-opacity="0"/></linearGradient><linearGradient id="x1hmkbicxktbsqdzvn1xb98q" x1=".7" y1="-1.6" x2=".7" y2="1.2"><stop offset="0" stop-color="#0056e6"/><stop offset="1" stop-color="#fff"/></linearGradient><linearGradient id="srn5say3c98j02x7m8cwhk5y" x1=".5" y1="0" x2=".5" y2="1.4"><stop offset="0" stop-color="#0056e6"/><stop offset="1" stop-color="#f5f5f7"/></linearGradient></defs><style>
@keyframes n2eq97bcexvbhagkl09xd3ye_t { 0% { transform: translate(53.4px,70.4px) rotate(0deg) translate(-33.2px,-33.2px); animation-timing-function: cubic-bezier(.4,0,.6,1); } 46.617% { transform: translate(47.2px,66.5px) rotate(13deg) translate(-33.2px,-33.2px); animation-timing-function: cubic-bezier(.4,0,.6,1); } 100% { transform: translate(53.4px,70.4px) rotate(0deg) translate(-33.2px,-33.2px); } }
@keyframes n2eq97bcexvbhagkl09xd3ye_o { 0% { opacity: 1; animation-timing-function: cubic-bezier(.4,0,.6,1); } 46.617% { opacity: .3; animation-timing-function: cubic-bezier(.4,0,.6,1); } 100% { opacity: 1; } }
@keyframes ycy7n678jugt3d5ppszcuhfu_t { 0% { transform: translate(60px,65.3px) rotate(0deg) translate(-33.9px,-33.9px); animation-timing-function: cubic-bezier(.4,0,.6,1); } 46.617% { transform: translate(60px,55.3px) rotate(-10deg) translate(-33.9px,-33.9px); animation-timing-function: cubic-bezier(.4,0,.6,1); } 100% { transform: translate(60px,65.3px) rotate(0deg) translate(-33.9px,-33.9px); } }
</style><title>header-pills</title><desc>Created with Sketch.</desc><g transform="translate(53.4,70.4) translate(-33.2,-33.2)" style="animation: 4.43s linear infinite both n2eq97bcexvbhagkl09xd3ye_t, 4.43s linear infinite both n2eq97bcexvbhagkl09xd3ye_o;"><path d="M12.1 .9h47.4c6.5 0 11.8 5.1 11.8 11.5c0 6.3-5.3 11.5-11.8 11.5h-47.4c-6.5 0-11.8-5.2-11.8-11.5c0-6.4 5.3-11.5 11.8-11.5Z" fill="url(#pdayildeqgxmfjzlh9j4abxg)" fill-rule="evenodd" transform="translate(49.8,67.3) rotate(-135)"/><path d="M12 3.7h47c4.9 0 8.9 3.9 8.9 8.7c0 4.8-4 8.6-8.9 8.6h-47c-4.9 0-8.9-3.8-8.9-8.6c0-4.8 4-8.7 8.9-8.7Z" fill="url(#vc5viwc9skl2741idy34w79x)" fill-rule="evenodd" transform="translate(49.8,67.3) rotate(-135)"/><path d="M12.2 5.1h39.4c2.6 0 4.8 2.1 4.8 4.7c0 2.6-2.2 4.6-4.8 4.6h-39.4c-2.7 0-4.8-2-4.8-4.6c0-2.6 2.1-4.7 4.8-4.7Z" fill="url(#t30ue4v79piptr9dfiflpky5)" fill-rule="evenodd" transform="translate(49.8,67.3) rotate(-135)"/></g><g transform="translate(60,65.3) translate(-33.9,-33.9)" style="animation: 4.43s linear infinite both ycy7n678jugt3d5ppszcuhfu_t;"><path d="M18 6h48c6.6 0 12 5.4 12 12c0 6.6-5.4 12-12 12h-48c-6.6 0-12-5.4-12-12c0-6.6 5.4-12 12-12Z" fill="url(#x1hmkbicxktbsqdzvn1xb98q)" fill-rule="evenodd" transform="translate(50.9,76.4) rotate(-135)"/><path d="M18 6h24v24h-24c-6.6 0-12-5.4-12-12c0-6.6 5.4-12 12-12Z" fill="url(#srn5say3c98j02x7m8cwhk5y)" fill-rule="evenodd" transform="translate(50.9,76.4) rotate(-135)"/></g></svg>