<?xml version="1.0" encoding="UTF-8"?>
<svg width="230px" height="160px" viewBox="0 0 230 160" version="1.1" xmlns="http://www.w3.org/2000/svg" xmlns:xlink="http://www.w3.org/1999/xlink">
    <!-- Generator: Sketch 52.4 (67378) - http://www.bohemiancoding.com/sketch -->
    <g id="03-what-we-do-(SRC)" stroke="none" stroke-width="1" fill="none" fill-rule="evenodd" opacity="0.301">
        <g id="Group-2" fill="#D4E1ED">
            <path d="M55,78.5010545 C55,61.1298162 81.9174459,47 114.998931,47 C148.084691,47 175,61.1298162 175,78.5010545 C175,95.8701838 148.084691,110 114.998931,110 C81.9174459,110 55,95.8701838 55,78.5010545 Z M57.825541,78.5010545 C57.825541,94.3348843 83.473417,107.211997 114.998931,107.211997 C146.522308,107.211997 172.172322,94.3348843 172.172322,78.5010545 C172.172322,62.6651157 146.522308,49.7880025 114.998931,49.7880025 C83.473417,49.7880025 57.825541,62.6651157 57.825541,78.5010545 Z M71.0534331,87.8878921 L66.2166711,87.8878921 L66.2166711,67.941653 L71.0534331,67.941653 L71.0534331,75.4346735 L78.4955918,75.4346735 L78.4955918,67.941653 L83.3302164,67.941653 L83.3302164,87.8878921 L78.4955918,87.8878921 L78.4955918,79.3108827 L71.0534331,79.3108827 L71.0534331,87.8878921 Z M102.465669,83.6995615 C101.292279,87.7993171 97.481432,88.4256687 94.7264227,88.4256687 C92.7664975,88.4256687 86.72856,88.0017742 86.72856,80.6247448 C86.72856,75.6097145 90.2166711,72.8702173 95.0812183,72.8702173 C102.316057,72.8702173 102.698637,79.1442774 102.756345,80.9073411 L102.78413,81.7024069 L91.3580016,81.7024069 C91.3857868,83.100626 92.0333957,85.523784 94.9316057,85.523784 C96.2225488,85.523784 97.5711996,84.9796806 97.9495057,83.6995615 L102.465669,83.6995615 Z M98.1589634,79.2834667 C98.096981,76.1749071 96.104996,75.7784287 95.0192359,75.7784287 C94.4357467,75.7784287 91.7961528,75.7235966 91.3580016,79.2834667 L98.1589634,79.2834667 Z M109.993321,75.1520771 C111.194496,73.5556188 113.158696,72.8702173 115.150681,72.8702173 C117.170452,72.8702173 120.130644,73.4143206 120.130644,78.8005222 L120.130644,87.8878921 L115.6786,87.8878921 L115.6786,79.5133398 C115.6786,78.0855957 115.533262,75.7784287 113.158696,75.7784287 C110.230564,75.7784287 110.168581,79.1105346 110.168581,79.7368862 L110.168581,87.8878921 L105.7144,87.8878921 L105.7144,73.4143206 L109.993321,73.4143206 L109.993321,75.1520771 Z M133.290142,73.4143206 L138.64841,73.4143206 L132.760085,79.1105346 L139.178466,87.8878921 L133.875768,87.8878921 L129.7144,81.8753389 L128.192626,83.3832223 L128.192626,87.8878921 L123.738445,87.8878921 L123.738445,67.941653 L128.192626,67.941653 L128.192626,78.9144043 L133.290142,73.4143206 Z M151.192359,83.6995615 L155.702111,83.6995615 C154.530858,87.7993171 150.724285,88.4256687 147.969276,88.4256687 C146.005076,88.4256687 139.967139,88.0017742 139.967139,80.6247448 C139.967139,75.6097145 143.45525,72.8702173 148.31766,72.8702173 C155.556773,72.8702173 155.939353,79.1442774 155.999199,80.9073411 L156.026984,81.7024069 L144.598718,81.7024069 C144.624365,83.100626 145.271974,85.523784 148.174459,85.523784 C149.45899,85.523784 150.811916,84.9796806 151.192359,83.6995615 Z M144.598718,79.2834667 L151.395405,79.2834667 C151.33556,76.1749071 149.343575,75.7784287 148.264227,75.7784287 C147.676463,75.7784287 145.039006,75.7235966 144.598718,79.2834667 Z M158.957254,87.8857831 L158.957254,67.941653 L163.411435,67.941653 L163.411435,87.8857831 L158.957254,87.8857831 Z" id="Combined-Shape"></path>
        </g>
    </g>
</svg>