<svg width="230" height="160" viewBox="0 0 230 160" xmlns="http://www.w3.org/2000/svg"><g fill="none" fill-rule="evenodd"><path d="M161.47 53.138c-1.677.444-3.337.961-5.032 1.316-3.347.7-6.707.47-10.059-.042-1.164-.178-2.327-.372-3.498-.483-1.546-.147-3.058.035-4.378.932-.44.298-.834.72-1.125 1.166-.493.755-.617 1.598-.103 2.409.524.826 1.393 1.04 2.25.874a9.94 9.94 0 0 0 2.675-.926c.946-.493 1.79-1.181 2.738-1.825-1.746 2.034-3.479 3.974-6.27 4.428-2.474.402-3.518-1.542-3.432-3.27.101-2.036 1.449-3.17 3.081-4.06a7.624 7.624 0 0 1 3.868-.935c2.393.062 4.785.237 7.174.397 3.758.252 7.512.278 11.261-.136.262-.03.525-.044.787-.065l.062.22zm-32.007 26.116l-1.173 1.893c-1.007-1.272-2.381-1.39-3.768-1.39-.514 0-1.048.144-1.532.329-.233.089-.535.443-.513.644.029.25.33.627.565.671.993.186 2.007.256 3.01.394.66.091 1.327.179 1.969.352.82.222 1.397.727 1.512 1.632.124.968-.224 1.716-1.063 2.21-1.314.775-2.777.933-4.242.802-1.017-.091-2.01-.428-3.016-.644-.246-.052-.501-.06-.832-.097l.876-1.77c1.618 1.326 3.422 1.426 5.326.976.175-.042.385-.092.496-.214.204-.222.477-.503.472-.756-.003-.204-.342-.524-.582-.58-.626-.148-1.28-.179-1.923-.257-.985-.12-1.983-.178-2.95-.382-.842-.178-1.45-.704-1.584-1.635-.15-1.031.272-1.787 1.134-2.298 1.167-.691 2.468-.822 3.774-.675.96.108 1.901.39 2.852.588.347.071.698.122 1.192.207zm-64.858-.855c-.078.37-.198.684-.2 1a382.067 382.067 0 0 0-.002 6.144c.003.297.116.592.188.937h-2.364c.075-.36.188-.684.203-1.014.031-.648.03-1.299-.008-1.946-.009-.156-.21-.43-.326-.432-1.763-.028-3.527-.02-5.38-.02.073 1.169-.23 2.288.24 3.418h-2.353c.055-.411.155-.824.158-1.237.017-1.967.016-3.935-.001-5.902-.002-.296-.121-.592-.197-.937h2.431c-.53 1.01-.197 2.052-.287 3.15h2.08c1.057 0 2.114-.007 3.17.004.317.004.496-.067.486-.434-.02-.67.017-1.34-.019-2.007-.012-.231-.17-.455-.278-.724h2.459zm106.917 1.88h2.293c.086.303.113.611.255.852.585.993 1.205 1.967 1.816 2.953.7-.6 2.239-3.28 2.193-3.813h2.306c-.287.736-.274 5.75.024 6.403h-1.865c.064-.358.177-.72.185-1.086.025-1.066.01-2.134-.136-3.25-.883 1.43-1.765 2.86-2.701 4.38l-2.606-4.329-.178.032c.071 1.401-.15 2.81.158 4.249h-1.739c.298-.596.297-5.773-.005-6.39zm-8.36 5.33c1.807-.062 3.517.09 5.247-.099v1.36c-.336-.052-.659-.144-.982-.146-1.769-.014-3.538-.006-5.306-.006h-.596V80.27c.134-.007.347-.027.56-.027 1.749-.003 3.497.006 5.246-.01.324-.002.648-.098 1.022-.16v1.343c-.478-.05-.908-.128-1.34-.135-1.097-.019-2.195.008-3.293-.013-.414-.008-.615.113-.56.55.017.14.02.286-.001.425-.072.49.148.643.617.62.588-.03 1.182.024 1.768-.02.362-.027.714-.17 1.103-.27v1.578c-.43-.102-.827-.246-1.233-.278-.586-.046-1.178.001-1.767-.015-.37-.01-.511.138-.49.505.023.38.006.763.006 1.247zm-90.34-3.053v1.595c-.409-.102-.786-.25-1.172-.279-.606-.045-1.218 0-1.828-.015-.361-.01-.519.122-.496.496.024.38.005.764.005 1.243 1.77-.027 3.49.075 5.256-.068v1.318c-.36-.043-.719-.12-1.078-.122-1.948-.012-3.896-.006-5.817-.006V80.24h.586c1.707 0 3.414.008 5.12-.006.364-.003.727-.086 1.133-.137v1.342c-1.62-.329-3.234-.106-4.84-.145-.116-.003-.325.217-.344.354-.16 1.147-.1 1.207 1.04 1.207.487 0 .978.032 1.461-.014.31-.029.608-.173.975-.285zm33.966.208h4.265v-2.469h1.666c-.059 2.12-.049 4.23-.007 6.378h-1.662v-2.687h-4.348c.04.894-.17 1.786.171 2.695h-1.879c.257-.757.233-5.835-.049-6.39h1.843v2.473zm35.005 3.372l.693-1.399c.948 1.01 3.382 1.352 4.537.652.18-.11.397-.39.369-.552-.035-.2-.288-.482-.483-.515-.756-.129-1.528-.163-2.292-.253-.501-.06-1.009-.115-1.495-.24-.673-.175-1.155-.569-1.251-1.32-.1-.776.22-1.346.864-1.735 1.126-.68 2.368-.67 3.604-.484.832.124 1.645.371 2.539.58l-.86 1.395c-1.156-1.085-2.505-1.204-3.919-.872-.266.062-.463.415-.692.633.248.204.472.54.747.588.856.15 1.734.172 2.598.281.418.053.85.132 1.232.298 1.213.53 1.407 2.057.301 2.784-.586.385-1.33.626-2.031.72-1.229.162-2.472.118-3.653-.38-.227-.095-.487-.111-.808-.18zm-54.04.582c.106-.363.263-.66.268-.958.025-1.519.025-3.039 0-4.558-.005-.296-.159-.59-.254-.917h1.964c-.067.395-.183.797-.193 1.2-.027 1.135-.011 2.27-.007 3.404 0 .217.025.433.038.635 1.174.2 4.627.093 5.252-.163v1.51c-.348-.051-.69-.143-1.034-.146-1.826-.014-3.653-.007-5.48-.007h-.554zm48.802-.037h-1.852c.092-1.16.497-2.298-.44-3.314-.548-.596-1.01-1.271-1.534-1.891-.344-.408-.73-.78-1.106-1.178h2.488c.073.308.069.607.207.808.423.616.902 1.195 1.428 1.878.607-.75 1.187-1.443 1.728-2.165.07-.093-.063-.338-.11-.543h2.08c-.938 1.162-1.904 2.358-2.869 3.556-.063.079-.157.165-.162.252-.052.85-.196 1.708.142 2.597zm22.125-6.596v1.399h-2.836c.017 1.688-.05 3.42.04 5.19h-1.606c.083-1.76.023-3.481.037-5.27-.994.012-1.926-.168-2.874.147v-1.46c.35.05.693.14 1.036.143 1.767.015 3.533.013 5.3 0 .281-.002.562-.09.903-.149zm-56.192-.105v1.501h-2.769c-.222.74-.123 4.727.18 5.183h-2.004c.068-.184.178-.342.179-.501.013-1.56.008-3.12.008-4.69H95.28v-1.388c.81.262 6.64.214 7.208-.105zm-17.18 6.688H83.02c.199-.861-.372-1.587-1.237-1.589-.71-.002-1.42-.006-2.131.002-.69.007-1.27.934-.972 1.588h-1.743c1.026-1.9 2.047-3.778 3.04-5.67.085-.161-.02-.421-.04-.7h1.896c.093.38.105.721.252.988a247.299 247.299 0 0 0 2.59 4.538c.167.286.4.535.633.843zm-31.013 6.594c2.4.732 4.8 1.468 7.203 2.196 5.756 1.746 11.6 3.136 17.56 3.945 4.343.59 8.712 1.034 13.082 1.39 8.579.7 17.182.729 25.78.576 5.89-.105 11.778-.398 17.664-.682 5.867-.284 11.708-.88 17.52-1.73 6.756-.987 13.448-2.273 19.851-4.738 3.143-1.211 6.163-2.663 8.632-5.023 1.683-1.608 2.855-3.481 2.764-5.928-.052-1.426-.574-2.69-1.37-3.842-1.73-2.504-4.175-4.107-6.89-5.352-1.968-.903-4.038-1.46-6.17-1.824-1.272-.218-1.946-.83-1.987-1.796-.017-.415.104-.836.17-1.312-.458.505-.852 1.029-1.337 1.45-.5.433-1.05.842-1.644 1.126-.73.347-1.52.333-2.188-.205-.675-.545-.795-1.312-.61-2.103.14-.602.395-1.179.62-1.828-.175.1-.33.21-.502.28-.412.166-.82.373-1.25.46-1.49.298-2.048-.263-1.775-1.918-.301.267-.546.43-.722.649-1.08 1.342-2.174 2.676-3.2 4.059-.343.46-.676.694-1.249.635-.415-.042-.839-.008-1.388-.008.189-.264.295-.424.413-.575 1.215-1.55 2.437-3.095 3.642-4.653.222-.285.425-.604.547-.94.072-.196.05-.546-.078-.662-.117-.106-.502-.071-.655.048-.542.42-1.057.88-1.543 1.365-1.452 1.446-2.872 2.925-4.332 4.363-.726.716-1.636 1.107-2.648 1.271-1.889.305-3.131-.8-3.052-2.697.055-1.338.627-2.41 1.584-3.31.142-.134.29-.263.38-.494-.431.151-.855.334-1.296.448-1.432.373-2.864.746-4.31 1.06-.387.084-.582.25-.77.568-.932 1.591-1.845 3.198-2.852 4.741a10.066 10.066 0 0 1-2.962 2.946c-1.286.836-2.703 1.145-4.194.886-2.583-.448-3.729-3.129-2.42-5.526 1.054-1.93 2.758-3.035 4.762-3.762 1.944-.705 3.97-1.03 6.019-1.168.69-.046 1.09-.267 1.344-.868.092-.216.226-.415.367-.67-.604 0-1.139-.015-1.672.003-3.838.126-7.29 1.321-10.492 3.462-1.8 1.204-3.357 2.52-4.558 4.353-1.568 2.393-3.328 4.67-5.515 6.552-.66.568-1.452 1.071-2.27 1.347-1.072.36-1.913-.527-1.638-1.62.12-.48.33-.976.629-1.363.506-.654 1.065-1.288 1.694-1.824 2.07-1.764 4.182-3.48 6.278-5.214.094-.078.214-.137.28-.233.906-1.314 1.805-2.634 2.706-3.952l-.157-.142c-.117.144-.222.3-.352.43-1.481 1.475-2.908 3.011-4.474 4.39-.72.634-1.671 1.086-2.594 1.389-1.214.398-1.824-.343-1.445-1.575.344-1.12 1.194-1.862 1.971-2.66.538-.553 1.106-1.08 1.602-1.669.16-.189.132-.536.19-.81-.285-.031-.596-.149-.846-.071-.315.098-.603.328-.863.549-.82.696-1.609 1.43-2.437 2.117-.582.483-1.27.73-2.04.606-.948-.15-1.359-.748-1.194-1.69l.06-.343-.14-.103c-.624.706-1.28 1.387-1.863 2.125a38.255 38.255 0 0 0-2.044 2.804c-.372.57-.772.884-1.477.78-.373-.054-.76-.01-1.305-.01.264-.321.442-.526.607-.741 1.215-1.576 2.437-3.147 3.636-4.734.294-.39.67-.78.463-1.528-.416.243-.821.406-1.134.675a87.553 87.553 0 0 0-2.753 2.496c-.726.68-1.41 1.406-2.137 2.085-1.063.992-2.264 1.73-3.77 1.778-.993.031-1.446-.551-1.016-1.447.424-.886 1.008-1.706 1.594-2.502.54-.734 1.183-1.391 1.766-2.095.185-.225.32-.491.48-.739l-.14-.182c-.28.145-.588.252-.833.44-2.255 1.745-4.387 3.625-6.181 5.849-.4.496-.813.715-1.444.657-.579-.053-1.165-.011-1.926-.011.288-.354.462-.588.658-.803 1.218-1.334 2.453-2.653 3.656-4.001.334-.375.61-.813.845-1.257.093-.175.086-.556-.032-.651-.16-.13-.523-.174-.703-.077-.424.226-.827.52-1.174.853-1.16 1.11-2.28 2.26-3.435 3.373-1.27 1.224-2.662 2.268-4.442 2.637a2.982 2.982 0 0 1-1.027.033c-.962-.144-1.3-.617-1.475-2.022-.55.117-1.103.21-1.636.367-.131.038-.264.277-.288.44-.45 2.977-3.448 5.596-6.469 5.633-1.877.024-2.994-1.086-3.04-2.957-.044-1.781.583-3.377 1.276-4.961.097-.223.201-.443.296-.666.013-.031-.01-.078-.029-.19-.897.1-1.803.174-2.696.32-.176.03-.338.32-.45.523-1.57 2.828-3.644 5.166-6.517 6.738-1.245.681-2.546 1.147-3.998 1.122-1.737-.03-3.034-.757-3.516-2.022-.559-1.463-.073-3.27 1.182-4.37 1.254-1.098 2.758-1.73 4.343-2.11 2.128-.512 4.283-.914 6.433-1.326 1.137-.218 1.463-.453 1.99-1.756-.88.119-1.708.226-2.535.344-3.85.548-7.625 1.431-11.251 2.836-3.981 1.544-7.51 3.78-10.143 7.224-1.154 1.511-1.923 3.185-1.902 5.151.026 2.291 1.178 4.004 2.788 5.469 2.06 1.874 4.529 3.068 7.1 4.06 4.507 1.738 9.202 2.755 13.951 3.561 5.613.953 11.27 1.53 16.945 1.9 3.852.251 7.711.437 11.57.533 5.06.127 10.123.251 15.182.17 5.85-.096 11.7-.326 17.54-.666 4.926-.286 9.856-.67 14.752-1.269 6.687-.818 13.353-1.822 20.01-2.86 4.166-.648 8.3-1.504 12.478-2.215-.901.397-1.793.816-2.705 1.186-4.546 1.843-9.27 3.089-14.052 4.136a160.796 160.796 0 0 1-16.88 2.76c-4.723.518-9.461.938-14.203 1.248-4.378.287-8.769.459-13.156.518-5.446.073-10.897.078-16.34-.075a291.747 291.747 0 0 1-15.092-.828c-8.508-.68-16.959-1.79-25.205-4.1-3.861-1.082-7.649-2.38-11.069-4.514-1.385-.865-2.735-1.858-3.891-3.003-3.48-3.444-3.76-7.687-.896-11.66 2.105-2.92 4.96-4.933 8.088-6.612 3.811-2.046 7.92-3.243 12.124-4.101 2.582-.528 5.21-.827 7.813-1.253.244-.04.546-.198.675-.396 1.444-2.21 2.838-4.453 4.749-6.313.022-.021.016-.071.046-.218-.509.295-.938.587-1.402.803a77.452 77.452 0 0 1-3.159 1.382c-.21.087-.485.063-.723.032-1.4-.177-1.773-.932-1.078-2.154.447-.786.19-1.415-.704-1.563-3.332-.55-6.427.153-9.248 1.95-.617.393-1.135 1.06-1.489 1.715-.571 1.057-.11 2.162.976 2.695a3.723 3.723 0 0 0 2.91.174c.99-.34 1.927-.832 2.884-1.265.174-.08.33-.196.521-.241-1.833 1.772-3.864 3.095-6.587 2.637-1.455-.244-2.343-1.563-2.162-3.045.19-1.557.994-2.727 2.261-3.59 2.082-1.419 4.436-2.12 6.914-2.307 1.485-.113 2.992.037 4.489.09.235.009.474.111.699.2.962.38 1.246 1.018.89 1.983-.048.133-.133.256-.164.392-.04.17-.116.433-.04.501a.646.646 0 0 0 .542.109 29.04 29.04 0 0 0 1.87-.719c1.796-.743 3.59-1.494 5.451-2.154-2.73 2.713-4.927 5.785-6.892 9.18 1-.088 1.903-.145 2.798-.265.167-.022.325-.28.446-.458 1.403-2.073 2.872-4.098 4.838-5.685 1.603-1.293 3.329-2.395 5.373-2.89.117-.028.238-.05.359-.06 1.806-.148 2.747 1.017 2.131 2.723-.524 1.452-1.437 2.679-2.507 3.779-2.334 2.4-5.21 3.78-8.497 4.258-.884.129-1.411.45-1.656 1.276-.023.077-.06.15-.088.226-.005.016.008.04.03.14 1.486-.053 2.935-.387 4.36-.8 1.417-.41 2.812-.896 4.263-1.28-.62.4-1.225.824-1.861 1.194-2.158 1.255-4.442 2.175-6.918 2.6-.244.043-.557.278-.65.502-.537 1.286-1.09 2.574-1.485 3.907-.18.607-.116 1.338.017 1.976.193.926.918 1.262 1.818.99 1.676-.507 2.915-2.055 3.053-3.921l-2.808.371a8.929 8.929 0 0 1-.017-.053c.787-.248 1.568-.511 2.36-.736.49-.138.493-.389.263-.755-.383-.607-1.257-.818-1.943-.381-.506.322-.94.756-1.396 1.131.151-1.136 1.354-2.304 2.616-2.525 1.349-.236 2.317.262 3.036 1.632.91-.456 1.985-.47 2.614-1.588 1.085-1.927 2.65-3.443 4.68-4.392a4.692 4.692 0 0 1 1.756-.408c1.032-.042 1.529.683 1.06 1.611-.34.67-.852 1.285-1.397 1.812-1.258 1.219-2.801 2-4.432 2.606-.353.131-.712.306-.586.698.095.294.41.677.678.72.43.072.934-.02 1.346-.19 1.323-.544 2.33-1.52 3.326-2.519a84.907 84.907 0 0 1 3.885-3.683c.437-.387 1.048-.604 1.61-.818.535-.203 1.105-.181 1.52.288.422.475.396 1.062.207 1.613-.154.449-.411.861-.552 1.358.26-.234.502-.492.783-.698 1.013-.742 2.012-1.51 3.074-2.175.444-.279 1.024-.39 1.559-.466.868-.123 1.285.431.934 1.23-.2.459-.474.901-.79 1.29-.972 1.198-1.98 2.367-2.975 3.547-.052.062-.126.115-.155.186-.134.33-.256.664-.382.997.353-.095.775-.1 1.046-.304.66-.5 1.261-1.08 1.869-1.648 1.573-1.468 3.109-2.979 4.722-4.402.462-.407 1.11-.681 1.72-.83 1.224-.298 1.817.365 1.53 1.593-.026.114-.058.226.015.419.323-.343.632-.701.972-1.026.676-.647 1.434-1.125 2.423-1.111.82.01 1.136.4.843 1.162a2.384 2.384 0 0 1-1.434 1.412c-.661.247-.846.08-1.136-.93-.307.5-.686.973-.902 1.51-.251.626.214 1.143.865.95a4.968 4.968 0 0 0 1.543-.8c1.003-.76 1.925-1.626 2.935-2.375a5.47 5.47 0 0 1 1.676-.825c.926-.274 1.725.378 1.585 1.327a3.504 3.504 0 0 1-.722 1.621c-.715.879-1.552 1.66-2.339 2.48-.084.088-.185.164-.255.261-.212.293-.708.578-.34.948.146.145.776.017 1.023-.184a44.862 44.862 0 0 0 2.898-2.597c1.236-1.205 2.42-2.463 3.634-3.69.119-.12.296-.25.45-.254.886-.025 1.773-.012 2.78-.012l-2.304 3.097.086.112c.151-.099.31-.189.453-.299 2.538-1.957 5.423-2.963 8.613-3.161 1.52-.095 3.04-.215 4.556-.369.254-.026.558-.227.717-.439 1.647-2.191 3.58-4.04 6.104-5.2a16.277 16.277 0 0 1 1.882-.732c-2.484 1.71-4.844 3.538-6.544 6.276l7.667-.866.053.139c-.88.345-1.734.784-2.643 1.014-1.865.473-3.758.832-5.64 1.243-.13.029-.3.064-.37.157-.326.43-.622.883-.928 1.327l.095.19c1.16-.239 2.337-.416 3.476-.73 1.68-.46 3.33-1.026 4.999-1.531.436-.132.891-.204 1.399-.317-.052.575-.3.798-.725.964-2.013.785-3.532 2.064-4.06 4.264a2.75 2.75 0 0 0-.072.783c.063 1.133.94 1.796 2.02 1.442.584-.19 1.202-.482 1.627-.906.827-.825 1.535-1.77 2.275-2.678.136-.167.218-.392.277-.604.124-.445.175-.915-.275-1.209-.45-.293-.86-.062-1.223.23-.209.168-.394.364-.59.547l-.118-.122 2.342-2.52c.963.73 1.046 1.696.858 2.887.722-.695 1.32-1.292 1.941-1.864.683-.628 1.422-1.146 2.418-1.13 1.092.017 1.46.491 1.183 1.559-.043.167-.08.336-.136.574.568-.492 1.019-1.016 1.586-1.337a6.957 6.957 0 0 1 2.077-.764c.66-.127 1.074.412.741.973-.357.603-.872 1.178-1.451 1.566-.596.4-.945.033-1.01-.998-.67.464-.99 1.095-1.096 1.832-.064.442.333.797.855.679.516-.117 1.062-.319 1.472-.64.765-.598 1.434-1.317 2.156-1.971.825-.75 1.741-1.343 2.883-1.467 1.556-.168 2.225.436 2.244 1.991.001.072.022.143.059.371.363-.594.655-1.066.942-1.542 1.13-1.878 2.271-3.75 3.377-5.64.237-.405.493-.579.962-.534.463.044.933.01 1.511.01-.155.285-.269.51-.397.727-1.81 3.055-3.627 6.105-5.426 9.166a8.448 8.448 0 0 0-.745 1.592c-.232.696.007.973.721 1.18 2.607.756 5.312 1.196 7.776 2.414 2.302 1.138 4.372 2.578 6.034 4.555 3.743 4.449 3.415 9.438-.862 13.4-2.157 1.999-4.662 3.45-7.323 4.648-5.231 2.355-10.75 3.77-16.355 4.877a149.88 149.88 0 0 1-16.58 2.33c-4.534.379-9.073.73-13.617.956-4.587.227-9.18.343-13.772.4-4.428.053-8.86.054-13.285-.077-6.196-.182-12.375-.67-18.517-1.533-8.508-1.196-16.867-2.986-24.818-6.342-1.717-.725-3.367-1.61-5.047-2.425-.138-.067-.262-.162-.393-.244l.028-.056zm26.554-11.38l-1.275 2.306h2.414l-1.139-2.305zm58.4-14.822c-1.61-.112-4.868.656-6.614 1.52-1.032.51-1.986 1.122-2.628 2.104-1.091 1.667-.26 3.668 1.624 3.89.84.1 1.596-.232 2.299-.66 2.623-1.602 3.992-4.17 5.319-6.854zm-67.393 1.13l-.14-.19c-.661.077-1.325.139-1.983.233-2.197.317-4.376.74-6.336 1.833a7.024 7.024 0 0 0-1.849 1.533c-.564.654-.487 1.488-.106 2.24.365.72 1.047.975 1.795.884.696-.084 1.407-.234 2.052-.498 1.843-.753 3.33-2.015 4.62-3.5.696-.804 1.3-1.687 1.947-2.535zm10.1-6.27c.336-.047.534-.066.728-.104.398-.078.798-.152 1.19-.25 3.076-.773 5.44-2.485 6.93-5.307.253-.48.61-1.08.12-1.58-.47-.48-1.05-.132-1.534.084-3.292 1.47-5.45 4.125-7.434 7.158zm85.528 2.486c-.24.114-.745.254-1.129.551-1.319 1.022-2.182 2.37-2.616 3.981a2.063 2.063 0 0 0-.05.72c.056.588.455.886 1.014.701.373-.123.795-.3 1.037-.587a48.408 48.408 0 0 0 2.484-3.197c.242-.34.333-.824.386-1.255.07-.572-.292-.905-1.126-.914zm-45.01 7.504l-.172-.145c-1.609 1.359-3.234 2.7-4.818 4.088-.45.395-.809.908-1.151 1.407-.25.363-.699.848-.28 1.23.414.374.907-.076 1.213-.381.988-.986 1.965-1.99 2.86-3.057.84-1 1.57-2.091 2.348-3.142zm-33.302-4.104c1.189-.314 2.268-.819 3.188-1.595.521-.44.982-.96 1.42-1.485.121-.146.062-.442.085-.67-.212-.02-.455-.12-.634-.052-1.868.706-3.182 2.018-4.059 3.802zm-10.746-3.6c-.624.062-1.185.104-1.743.174-.852.108-1.396.658-1.574 1.61.454-.049.896-.156 1.33-.13 1.035.06 1.679-.362 1.92-1.375l.067-.278z" opacity=".301" fill="#D4E1ED"/></g></svg>