<?xml version="1.0" encoding="UTF-8"?>
<svg width="230px" height="160px" viewBox="0 0 230 160" version="1.1" xmlns="http://www.w3.org/2000/svg" xmlns:xlink="http://www.w3.org/1999/xlink">
    <!-- Generator: Sketch 52.4 (67378) - http://www.bohemiancoding.com/sketch -->
    <g id="03-what-we-do-(SRC)" stroke="none" stroke-width="1" fill="none" fill-rule="evenodd" opacity="0.301">
        <g id="Group-2" fill="#D4E1ED">
            <path d="M94.2222222,77.12 L102.166667,77.12 L102.166667,67.76 L108.666667,67.76 L108.666667,92.24 L102.166667,92.24 L102.166667,82.88 L94.2222222,82.88 L94.2222222,92.24 L87.7222222,92.24 L87.7222222,67.76 L94.2222222,67.76 L94.2222222,77.12 Z M66.0555556,98 C56.0837476,98 48,89.9411255 48,80 C48,70.0588745 56.0837476,62 66.0555556,62 C76.0273635,62 84.1111111,70.0588745 84.1111111,80 C84.1111111,89.9411255 76.0273635,98 66.0555556,98 Z M52.3333333,80 L59.1944444,91.52 L72.9166667,91.52 L79.7777778,80 L72.9166667,68.48 L59.1944444,68.48 L52.3333333,80 Z M149.736192,80 L157.777778,92.24 L149.681287,92.24 L144.416667,84.2267857 L139.152047,92.24 L131.055556,92.24 L139.097141,80 L131.055556,67.76 L139.152047,67.76 L144.416667,75.7732143 L149.681287,67.76 L157.777778,67.76 L149.736192,80 Z M117.333333,86.48 L132.5,86.48 L128.888889,92.24 L115.166667,92.24 L110.833333,87.2 L110.833333,72.8 L115.166667,67.76 L128.888889,67.76 L132.5,73.52 L117.333333,73.52 L117.333333,77.12 L128.166667,77.12 L128.166667,82.88 L117.333333,82.88 L117.333333,86.48 Z M171.5,86.48 L171.5,82.88 L160.666667,82.88 L160.666667,77.12 L171.5,77.12 L171.5,73.52 L156.333333,73.52 L159.944444,67.76 L173.666667,67.76 L178,72.8 L178,87.2 L173.666667,92.24 L159.944444,92.24 L156.333333,86.48 L171.5,86.48 Z M66.0555556,82.88 C64.4600663,82.88 63.1666667,81.5905801 63.1666667,80 C63.1666667,78.4094199 64.4600663,77.12 66.0555556,77.12 C67.6510448,77.12 68.9444444,78.4094199 68.9444444,80 C68.9444444,81.5905801 67.6510448,82.88 66.0555556,82.88 Z M70.3888889,89.36 C68.7933996,89.36 67.5,88.0705801 67.5,86.48 C67.5,84.8894199 68.7933996,83.6 70.3888889,83.6 C71.9843782,83.6 73.2777778,84.8894199 73.2777778,86.48 C73.2777778,88.0705801 71.9843782,89.36 70.3888889,89.36 Z M61.7222222,76.4 C60.1267329,76.4 58.8333333,75.1105801 58.8333333,73.52 C58.8333333,71.9294199 60.1267329,70.64 61.7222222,70.64 C63.3177115,70.64 64.6111111,71.9294199 64.6111111,73.52 C64.6111111,75.1105801 63.3177115,76.4 61.7222222,76.4 Z" id="Combined-Shape"></path>
        </g>
    </g>
</svg>