<svg preserveAspectRatio="none" viewBox="0 0 141 129" xmlns="http://www.w3.org/2000/svg"><path d="M59 123.272h24c8 0 12-3 12-3H47s4 3 12 3zm6 5h12c2.98 0 8-3 8-3H57s5 3 8 3zM111 97c.608-1.328.363-1.045 1-2 3.844 0 25.502-6.386 29-9 0 9.552-11.244 10.573-30 11zm-2 5l1-2s20.182-.999 25-3c-3.121 9.583-26 5-26 5zm-2 5l1-2s13.916.962 19.454 0c-5.151 8.878-20.454 2-20.454 2zM30 97c-.608-1.328-.363-1.045-1-2-3.844 0-25.502-6.386-29-9 0 9.552 11.244 10.573 30 11zm2 5l-1-2s-20.182-.999-25-3c3.121 9.583 26 5 26 5zm2 5l-1-2s-13.916.962-19.454 0C18.697 113.878 34 107 34 107zM98.778 4.364l2.475-2.475L99.839.475 97.364 2.95 94.889.475l-1.414 1.414 2.475 2.475-2.475 2.475 1.414 1.414 2.475-2.475 2.475 2.475 1.414-1.414-2.475-2.475zM15 75.818L18.818 72l-2.182-2.182-3.818 3.818L9 69.818 6.818 72l3.818 3.818-3.818 3.818L9 81.818 12.818 78l3.818 3.818 2.182-2.182L15 75.818zM31 29a6 6 0 1 0 0-12 6 6 0 0 0 0 12zm0-2a4 4 0 1 0 0-8 4 4 0 0 0 0 8zm100 34a4 4 0 1 0 0-8 4 4 0 0 0 0 8zm0-1.5a2.5 2.5 0 1 0 0-5 2.5 2.5 0 0 0 0 5zM94.747 76.737c-1.771-.874-6.258-1.693-10.455-2.906.012-.014.025-.024.037-.036l-2.321-.683a29.881 29.881 0 0 1-1.318-.486c-.038-.017-.076-.03-.113-.046a21.41 21.41 0 0 1-1.418-.629 18.766 18.766 0 0 1-.515-.267c-.04-.02-.08-.043-.12-.064-.167-.093-.33-.188-.486-.283l-.071-.044a9.098 9.098 0 0 1-.524-.35l-.004-.002a7.475 7.475 0 0 1-.44-.346c-.035-.027-.068-.058-.101-.087a5.975 5.975 0 0 1-.304-.285l-.098-.098a5.386 5.386 0 0 1-.29-.336c-.013-.017-.028-.033-.04-.05a3.935 3.935 0 0 1-.267-.403c-.017-.032-.032-.065-.05-.097a3.323 3.323 0 0 1-.199-.458 2.67 2.67 0 0 1-.085-.312c-.01-.046-.021-.09-.028-.136a2.8 2.8 0 0 1-.041-.455v-2.667c2.672-2.136 4.631-5.424 5.384-9.246.05.007.1.017.15.017 1.27 0 2.386-2.327 2.493-5.201.063-1.702-.244-3.21-.768-4.159.65-1.46 1.4-3.56 2.05-6.466 0 0-9.625-25.032-24.649-10.757 0 0-9.67 2.002-7.623 11.097.509 2.26 1.109 3.87 1.763 5.502-.791.794-1.297 2.637-1.216 4.784.106 2.874 1.222 5.201 2.493 5.201.051 0 .1-.01.15-.017.752 3.823 2.713 7.113 5.385 9.247v2.665a2.8 2.8 0 0 1-.041.455c-.008.046-.019.09-.029.136-.022.104-.05.209-.085.31l-.05.14a2.883 2.883 0 0 1-.147.315c-.018.034-.033.07-.052.103a3.839 3.839 0 0 1-.263.399l-.053.064a4.921 4.921 0 0 1-.275.32c-.035.038-.073.075-.11.112-.09.09-.187.18-.287.268-.039.034-.077.068-.118.101-.127.107-.26.213-.401.314l-.043.032a9.727 9.727 0 0 1-.618.406 9.764 9.764 0 0 1-.44.256c-.05.03-.102.056-.154.084-.151.083-.305.163-.464.24-.045.022-.087.045-.132.068a21.064 21.064 0 0 1-1.465.636c-.097.039-.195.076-.293.113l-3.274 1.08c-4.198 1.215-8.684 2.034-10.456 2.907-1.17.575-2.167 1.415-2.858 2.661l.002.004h58.583c-.69-1.24-1.673-2.09-2.838-2.665zM82.213 46.606c-.176.355-.47.634-.586.969-.133.38-.157.842-.235 1.252-.222 1.162-.45 2.43-1.232 3.13-.649.58-2.257 1.047-3.402 1.138-4.109.323-5.81-1.662-6.8-4.382-.3-.82-.41-1.681-1.525-1.594-.893.07-.933.777-1.29 1.82-.77 2.256-2.206 3.99-5.16 4.211-1.736.13-3.861-.213-4.75-1.024-.824-.753-1.12-2.274-1.406-3.642-.105-.499-.225-.713-.47-1.08a3.974 3.974 0 0 1-.292-.513c-.324-.695-.767-1.413-.411-2.391 3.797-.593 7.186-.583 10.613.056 1.093.204 2.203.544 3.284.57 1.261.03 2.786-.442 3.987-.683 3.141-.628 6.582-.901 10.027-.17.366.887.035 1.552-.352 2.333zm-20.905 5.712c3.518 0 4.7-2.799 4.7-5.141 0-2.343-2.357-1.683-4.7-1.683-2.342 0-4.241.24-4.241 2.583 0 2.342.724 4.241 4.241 4.241zm14.879 0c-3.518 0-4.7-2.799-4.7-5.141 0-2.343 2.357-1.683 4.7-1.683 2.342 0 4.241.24 4.241 2.583 0 2.342-.724 4.241-4.241 4.241z" fill="#FFF" fill-rule="evenodd" opacity=".304"/></svg>