<svg xmlns="http://www.w3.org/2000/svg" width="90.133" height="55.66" viewBox="0 0 90.133 55.66"><g fill-rule="evenodd" clip-rule="evenodd" fill="#FFF"><path d="M48.463 51.652c12.555 0 22.732-10.712 22.732-23.928.003-13.214-10.177-23.927-22.73-23.927-.466 0-.932.014-1.395.043L48.311 0l36.016.002c3.209 0 5.807 2.686 5.807 5.997v43.657c0 3.309-2.602 5.994-5.811 5.994l-37.253-.002 1.393-3.996M35.92 0H5.81C2.604 0 .002 2.686.002 5.998L0 49.652c0 3.313 2.6 5.996 5.806 5.996H34.68l1.699-4.452c-10.24-2.382-17.916-12.198-17.916-23.945 0-10.974 6.693-20.259 15.919-23.378L35.92 0"/><path d="M53.858 35.931h-3.034l5.699-15.888h3.038l-5.703 15.888m7.622-18.727h-9.83L37.707 55.66h6.041l5.94-17.204h6.044c1.334 0 3.02.245 3.714-1.735.698-1.977 4.472-12.354 5.519-15.47 1.044-3.118-1.451-4.047-3.485-4.047zm-15.2 4.546l-5.949 16.706h-5.987l6.547-18.368h-3.083l-6.546 18.368h-6.04L38.979.022 45.016 0 38.96 17.204h4.067c2.93 0 4.131 1.962 3.253 4.546"/></g></svg>