<svg width="230" height="160" viewBox="0 0 230 160" xmlns="http://www.w3.org/2000/svg"><g fill="none" fill-rule="evenodd"><path d="M61.665 66.732v-8.2c0-1.066-.552-2.245-3.23-2.245v-.698h10.192v.698c-2.675 0-3.224 1.18-3.224 2.245v18.46c0 1.066.549 2.244 3.224 2.244v.698H58.435v-.698c2.678 0 3.23-1.178 3.23-2.243V68.24H50.553v8.753c0 1.065.549 2.243 3.227 2.243v.698H43.586v-.698c2.677 0 3.227-1.178 3.227-2.243v-18.46c0-1.067-.55-2.246-3.227-2.246v-.698H53.78v.698c-2.678 0-3.227 1.18-3.227 2.245v8.2h11.112zm7.823 5.811h.843c1.138 3.42 3.704 6.512 7.59 6.512 2.97 0 4.985-2.576 4.145-5.445-1.506-5.15-11.513-5.37-11.513-12.393 0-3.642 2.895-6.143 6.489-6.143 3.886 0 5.645 2.722 6.526 0h.768l.807 7.835h-.914c-.845-3.42-3.266-6.325-6.675-6.325-2.2 0-3.849 1.212-3.849 3.531 0 2.131 2.31 3.638 3.886 4.594 4.985 3.017 8.358 4.598 8.358 9.01 0 3.311-2.75 6.73-7.733 6.73-3.813 0-6.455-2.682-6.823 0h-.806l-1.1-7.906zm28.583-6.067c3.702 0 5.866-1.583 5.866-4.56 0-2.797-1.759-4.305-4.325-4.78-3.375-.223-4.549-.295-4.549.991v8.349h3.008zm-3.008 10.149c0 1.288.331 1.95 3.008 1.95 3.813 0 6.637-1.14 6.637-5.443 0-4.377-4.365-5.187-7.81-5.187h-1.835v8.68zm-3.739-18.093c0-1.066-.55-2.245-3.52-2.245v-.698h9.825c5.648 0 10.049 1.508 10.049 6.217 0 3.087-2.056 4.67-4.876 5.295v.074c3.15.587 6.12 2.535 6.12 6.068 0 4.413-3.81 6.691-9.568 6.691h-11.55v-.698c2.97 0 3.52-1.178 3.52-2.243v-18.46zm39.605 4.63h-.88c-1.061-4.046-3.738-6.804-7.92-6.804-6.047 0-8.65 4.89-8.65 11.51 0 5.149 2.675 10.7 8.69 10.7 3.593 0 6.049-1.177 8.579-3.676l.623.736c-2.236 2.758-6.013 4.598-9.533 4.598-7.15 0-12.612-4.598-12.612-12.653 0-7.317 5.169-12.725 12.54-12.725 5.022 0 6.856 3.019 8.068.039h.767l.328 8.275zm19.805-8.254h24.66l-12.33 12.367-12.33-12.367zm0 24.733h24.66l-12.33-12.366-12.33 12.366zm0-24.733V79.64l-12.332-12.366 12.332-12.367zm24.66 0V79.64l12.332-12.366-12.331-12.367zM54.718 85.798l.317 3.901h-.317c-.323-.971-.739-1.703-1.248-2.198-.733-.71-1.677-1.065-2.83-1.065-1.57 0-2.766.622-3.583 1.868-.686 1.053-1.027 2.305-1.027 3.76 0 1.18.226 2.257.68 3.23.456.974 1.052 1.687 1.788 2.139.736.455 1.494.682 2.27.682.457 0 .895-.06 1.32-.175a5.247 5.247 0 0 0 1.227-.51V93.85c0-.62-.047-1.025-.14-1.218a.945.945 0 0 0-.438-.436c-.196-.102-.543-.152-1.04-.152v-.346h4.776v.346h-.227c-.475 0-.798.159-.975.476-.121.224-.18.67-.18 1.33v3.787a9.369 9.369 0 0 1-2.065.832c-.68.177-1.435.265-2.267.265-2.382 0-4.192-.767-5.431-2.299-.929-1.152-1.391-2.476-1.391-3.98 0-1.087.26-2.13.782-3.13.618-1.187 1.469-2.1 2.547-2.738.903-.53 1.971-.79 3.2-.79.451 0 .858.033 1.228.108.366.072.885.234 1.558.483.339.127.569.19.684.19a.362.362 0 0 0 .295-.16c.08-.105.13-.314.149-.622h.338zm5.465-.322v11.088c0 .523.04.869.115 1.04a.802.802 0 0 0 .351.386c.159.087.45.134.882.134v.327h-4.083v-.327c.382 0 .642-.04.78-.121a.775.775 0 0 0 .328-.393c.078-.18.118-.53.118-1.046V88.97c0-.944-.021-1.523-.062-1.738-.043-.215-.112-.365-.205-.442a.534.534 0 0 0-.36-.119c-.158 0-.357.047-.6.147l-.155-.321 2.485-1.022h.406zm6.388 4.37c1.26 0 2.273.483 3.04 1.442a4.44 4.44 0 0 1 .972 2.828c0 .75-.18 1.507-.537 2.273-.357.767-.851 1.346-1.478 1.735a3.894 3.894 0 0 1-2.096.583c-1.258 0-2.255-.502-2.994-1.505a4.686 4.686 0 0 1-.938-2.846c0-.77.19-1.53.569-2.286.378-.757.878-1.318 1.496-1.679a3.806 3.806 0 0 1 1.966-.545zm-.283.595c-.32 0-.642.093-.968.286-.323.193-.587.527-.786 1.01-.202.48-.301 1.096-.301 1.85 0 1.217.242 2.267.723 3.148.482.882 1.118 1.324 1.907 1.324.587 0 1.071-.243 1.456-.729.382-.489.572-1.324.572-2.51 0-1.486-.317-2.654-.957-3.504-.428-.586-.978-.875-1.646-.875zm7.807 1.093c.808-1.124 1.677-1.688 2.612-1.688.854 0 1.599.367 2.236 1.1.636.734.956 1.734.956 3.008 0 1.482-.49 2.678-1.475 3.585-.842.778-1.782 1.168-2.82 1.168a4.4 4.4 0 0 1-1.478-.265 6.882 6.882 0 0 1-1.534-.794v-8.659c0-.95-.021-1.532-.068-1.753-.044-.218-.115-.368-.211-.445a.558.558 0 0 0-.367-.119c-.167 0-.382.047-.636.147l-.128-.321 2.503-1.022h.41v6.058zm0 .585v5c.308.304.627.535.96.687.329.156.667.234 1.015.234.55 0 1.065-.305 1.54-.912.475-.608.715-1.492.715-2.654 0-1.071-.24-1.894-.715-2.47-.475-.573-1.015-.862-1.624-.862-.32 0-.642.084-.962.245-.243.122-.553.368-.929.732zm11.754 5.127c-.854.663-1.391 1.046-1.612 1.15-.326.152-.674.23-1.043.23-.578 0-1.053-.2-1.426-.595-.372-.396-.559-.916-.559-1.56 0-.409.09-.76.274-1.06.248-.41.68-.8 1.294-1.167.615-.365 1.64-.807 3.072-1.33v-.33c0-.832-.13-1.405-.395-1.717-.264-.308-.649-.464-1.152-.464-.382 0-.686.103-.91.312-.23.205-.344.442-.344.71l.018.53c0 .28-.071.495-.214.647a.73.73 0 0 1-.559.228.707.707 0 0 1-.553-.237c-.143-.16-.214-.374-.214-.648 0-.523.267-1.003.801-1.442.534-.436 1.283-.657 2.248-.657.74 0 1.345.124 1.82.374.357.19.621.485.792.887.109.262.162.794.162 1.604v2.837c0 .798.015 1.287.046 1.467.031.178.08.3.15.359a.358.358 0 0 0 .241.093.485.485 0 0 0 .255-.065c.127-.078.373-.302.736-.667v.51c-.677.913-1.326 1.371-1.947 1.371a.88.88 0 0 1-.708-.311c-.177-.206-.267-.56-.273-1.06zm0-.592v-3.186c-.916.368-1.506.626-1.774.776-.48.267-.822.548-1.027.84-.208.293-.31.611-.31.96 0 .436.13.8.39 1.09.261.286.562.433.901.433.463 0 1.068-.306 1.82-.913zm6.412-11.178v11.088c0 .523.04.869.115 1.04a.801.801 0 0 0 .35.386c.16.087.451.134.883.134v.327h-4.084v-.327c.382 0 .643-.04.78-.121a.776.776 0 0 0 .329-.393c.078-.18.118-.53.118-1.046V88.97c0-.944-.022-1.523-.062-1.738-.044-.215-.112-.365-.205-.442a.535.535 0 0 0-.36-.119c-.159 0-.358.047-.6.147l-.155-.321 2.484-1.022h.407zm16.834.601l.137 2.903h-.348c-.066-.51-.156-.875-.274-1.096a1.831 1.831 0 0 0-.748-.779c-.314-.168-.723-.252-1.233-.252h-1.739v9.455c0 .76.084 1.234.245 1.424.23.255.587.383 1.066.383h.428v.336h-5.232v-.336h.438c.521 0 .89-.159 1.108-.477.134-.193.202-.638.202-1.33v-9.455h-1.484c-.575 0-.985.044-1.227.127-.317.116-.587.34-.81.667-.224.33-.357.773-.4 1.333h-.346l.146-2.903h10.07zm1.282 7.164c-.006 1.242.292 2.214.9 2.921.606.704 1.32 1.056 2.137 1.056.547 0 1.022-.15 1.426-.452.403-.299.739-.816 1.012-1.544l.282.18c-.127.835-.496 1.595-1.108 2.277-.615.685-1.382 1.028-2.301 1.028-1.003 0-1.86-.39-2.571-1.171-.715-.782-1.068-1.835-1.068-3.156 0-1.429.363-2.544 1.096-3.341.73-.8 1.646-1.202 2.75-1.202.936 0 1.703.308 2.302.928.6.616.9 1.442.9 2.476h-5.757zm0-.53h3.857c-.03-.535-.093-.912-.192-1.13a1.801 1.801 0 0 0-.677-.804 1.722 1.722 0 0 0-.941-.293c-.503 0-.954.197-1.351.589-.398.393-.63.94-.696 1.638zm13.946 2.563c-.223 1.103-.664 1.95-1.32 2.542-.655.595-1.378.89-2.173.89-.947 0-1.773-.398-2.475-1.195-.705-.798-1.056-1.872-1.056-3.23 0-1.314.391-2.383 1.17-3.202.78-.822 1.715-1.233 2.805-1.233.82 0 1.493.218 2.021.654.528.433.792.885.792 1.355 0 .23-.074.417-.223.56-.15.144-.357.215-.624.215-.358 0-.628-.115-.811-.345-.102-.128-.17-.374-.202-.732-.034-.358-.158-.633-.37-.823-.214-.18-.506-.27-.881-.27-.609 0-1.096.224-1.466.672-.49.598-.736 1.386-.736 2.364 0 .997.242 1.878.733 2.641.487.763 1.146 1.146 1.978 1.146.593 0 1.127-.202 1.6-.61.335-.28.657-.788.974-1.526l.264.127zm3.64-9.798v6.114c.67-.741 1.204-1.218 1.599-1.43a2.51 2.51 0 0 1 1.183-.314c.472 0 .879.13 1.22.392.339.262.59.673.755 1.234.115.389.17 1.099.17 2.133v2.959c0 .526.044.89.131 1.084a.71.71 0 0 0 .307.348c.146.085.413.128.802.128v.327h-4.093v-.327h.19c.388 0 .658-.062.81-.18.152-.119.258-.293.317-.524.018-.096.028-.383.028-.856v-2.959c0-.913-.047-1.51-.14-1.797-.097-.287-.246-.498-.45-.642a1.284 1.284 0 0 0-.749-.214c-.295 0-.605.077-.925.236-.323.159-.708.477-1.155.96v4.416c0 .57.03.925.093 1.065.065.14.183.259.357.352.17.093.469.143.894.143v.327h-4.13v-.327c.37 0 .662-.059.873-.174a.658.658 0 0 0 .292-.346c.074-.171.108-.517.108-1.04v-7.565c0-.956-.021-1.542-.068-1.763-.044-.218-.115-.368-.208-.445a.559.559 0 0 0-.379-.119c-.127 0-.332.047-.618.147l-.127-.321 2.493-1.022h.42zm9.297 6.142c.975-1.18 1.906-1.772 2.791-1.772.457 0 .848.115 1.174.343.33.227.59.604.783 1.127.133.364.199.925.199 1.679v3.569c0 .526.043.888.13 1.074a.75.75 0 0 0 .323.358c.146.085.422.128.823.128v.327h-4.124v-.327h.174c.388 0 .661-.062.813-.18a.92.92 0 0 0 .323-.524c.025-.09.038-.377.038-.856V93.14c0-.76-.1-1.311-.295-1.657-.2-.342-.531-.514-.997-.514-.72 0-1.441.396-2.155 1.187v4.407c0 .564.03.912.1 1.046a.83.83 0 0 0 .35.39c.15.08.45.124.904.124v.327h-4.121v-.327h.183c.423 0 .711-.109.86-.324.146-.218.22-.629.22-1.236v-3.105c0-1.003-.02-1.614-.067-1.832-.044-.22-.115-.37-.208-.448a.575.575 0 0 0-.38-.118 1.77 1.77 0 0 0-.608.136l-.137-.33 2.513-1.021h.39v1.772zm10.961-1.772c1.261 0 2.274.483 3.04 1.442.65.822.973 1.766.973 2.828 0 .75-.18 1.507-.538 2.273-.357.767-.85 1.346-1.478 1.735a3.894 3.894 0 0 1-2.096.583c-1.258 0-2.254-.502-2.993-1.505a4.687 4.687 0 0 1-.938-2.846c0-.77.19-1.53.568-2.286.379-.757.879-1.318 1.497-1.679a3.807 3.807 0 0 1 1.965-.545zm-.282.595c-.32 0-.643.093-.969.286-.323.193-.587.527-.786 1.01-.201.48-.3 1.096-.3 1.85 0 1.217.242 2.267.723 3.148.481.882 1.118 1.324 1.906 1.324.587 0 1.072-.243 1.457-.729.382-.489.571-1.324.571-2.51 0-1.486-.317-2.654-.956-3.504-.429-.586-.978-.875-1.646-.875zm8.387-4.965v11.088c0 .523.04.869.115 1.04a.802.802 0 0 0 .351.386c.158.087.45.134.882.134v.327h-4.083v-.327c.381 0 .642-.04.779-.121a.776.776 0 0 0 .33-.393c.077-.18.117-.53.117-1.046V88.97c0-.944-.022-1.523-.062-1.738-.043-.215-.112-.365-.205-.442a.534.534 0 0 0-.36-.119c-.159 0-.357.047-.6.147l-.155-.321 2.484-1.022h.407zm6.388 4.37c1.26 0 2.273.483 3.04 1.442a4.44 4.44 0 0 1 .972 2.828c0 .75-.18 1.507-.537 2.273-.357.767-.851 1.346-1.478 1.735a3.894 3.894 0 0 1-2.097.583c-1.257 0-2.254-.502-2.993-1.505a4.686 4.686 0 0 1-.938-2.846c0-.77.19-1.53.568-2.286.38-.757.88-1.318 1.497-1.679a3.806 3.806 0 0 1 1.966-.545zm-.283.595c-.32 0-.642.093-.969.286-.323.193-.586.527-.785 1.01-.202.48-.301 1.096-.301 1.85 0 1.217.242 2.267.723 3.148.481.882 1.118 1.324 1.907 1.324.587 0 1.071-.243 1.456-.729.382-.489.571-1.324.571-2.51 0-1.486-.316-2.654-.956-3.504-.428-.586-.978-.875-1.646-.875zm7.751 4.961c-.51-.249-.9-.595-1.174-1.043a2.786 2.786 0 0 1-.406-1.483c0-.828.31-1.538.931-2.136.621-.595 1.416-.894 2.388-.894.795 0 1.481.196 2.065.586h1.764c.26 0 .413.006.456.021a.16.16 0 0 1 .09.078c.038.056.056.153.056.293 0 .159-.015.268-.046.327a.187.187 0 0 1-.097.075c-.043.018-.198.025-.46.025h-1.08c.339.439.51 1 .51 1.681 0 .779-.299 1.442-.892 1.997-.596.554-1.394.831-2.394.831-.413 0-.832-.062-1.264-.183-.267.23-.447.432-.54.607-.096.174-.143.32-.143.442 0 .103.05.203.15.302.102.097.297.165.586.209.17.025.596.047 1.276.065 1.249.028 2.059.072 2.429.128.562.078 1.012.287 1.35.63.336.339.504.76.504 1.257 0 .689-.32 1.333-.963 1.934-.947.888-2.18 1.333-3.702 1.333-1.17 0-2.161-.264-2.968-.794-.454-.305-.68-.62-.68-.95 0-.146.03-.29.099-.436.102-.227.317-.539.637-.94.043-.056.35-.383.928-.984-.317-.19-.537-.358-.668-.508a.75.75 0 0 1-.195-.508c0-.212.084-.46.258-.747.173-.287.571-.692 1.195-1.215zm1.584-5.117c-.447 0-.826.18-1.127.539-.305.358-.457.91-.457 1.65 0 .963.208 1.707.621 2.237.314.401.714.6 1.199.6.463 0 .841-.17 1.136-.52.298-.345.448-.89.448-1.631 0-.969-.209-1.726-.628-2.274-.31-.402-.708-.6-1.192-.6zm-1.674 8.166a4.51 4.51 0 0 0-.646.866c-.146.268-.217.514-.217.741 0 .29.174.545.528.767.605.376 1.48.563 2.627.563 1.093 0 1.897-.193 2.416-.58.518-.385.78-.796.78-1.236 0-.314-.156-.538-.467-.672-.313-.134-.94-.215-1.872-.24-1.366-.034-2.416-.106-3.149-.209zm6.704-8.359h3.885v.34h-.19c-.273 0-.478.059-.614.177a.56.56 0 0 0-.205.442c0 .237.1.567.301.984L182 96.252l1.866-4.615c.103-.252.152-.499.152-.742a.416.416 0 0 0-.062-.246.51.51 0 0 0-.227-.158c-.105-.04-.285-.06-.546-.06v-.339h2.711v.34c-.224.024-.398.071-.519.146-.12.071-.254.208-.4.41-.056.085-.159.319-.31.702l-3.392 8.34c-.329.81-.758 1.42-1.288 1.835-.531.414-1.04.62-1.534.62-.358 0-.653-.103-.882-.312-.23-.205-.345-.442-.345-.71 0-.255.084-.46.248-.617.168-.155.398-.233.69-.233.198 0 .472.068.816.202.243.09.395.137.457.137.18 0 .379-.096.596-.283.214-.19.432-.555.65-1.097l.592-1.448-2.993-6.307a5.061 5.061 0 0 0-.438-.7c-.152-.215-.277-.359-.373-.43-.14-.097-.363-.184-.674-.255v-.34z" opacity=".301" fill="#D4E1ED"/></g></svg>