<svg xmlns="http://www.w3.org/2000/svg" width="133.149" height="23.276" viewBox="0 0 133.149 23.276"><g fill="#FFF"><path d="M6.146 10.12h10.242V4.399c0-1.123.143-1.862 0-2.22-.109-.27-.213-.502-.566-.697a3.09 3.09 0 0 0-1.502-.39l-1.004-.08V0h10.242v1.093H22.31c-.529 0-1.029.126-1.501.374a1.37 1.37 0 0 0-.718.785c-.127.352-.631 1.067-.631 2.147v14.259c0 1.117.512 1.855.654 2.215.11.271.335.504.676.699.486.261.99.393 1.52.393h1.248v1.312h-10.03v-1.312h.791c.913 0 .625-.268 1.044-.8.274-.347 1.024-1.183 1.024-2.507v-6.514H6.146v6.514c0 1.117.297 1.855.439 2.215.108.271.338.504.689.699.471.261.967.393 1.494.393l1.474.299v1.013H0v-1.312h.792c.924 0 1.594-.18 2.012-.713.264-.347.27-1.27.27-2.594V4.399c0-1.123.055-1.862-.086-2.22-.111-.269-.337-.501-.678-.697a3.19 3.19 0 0 0-1.518-.39L0 1.013V0h10.242v1.013l-1.474.08c-.527 0-1.023.126-1.494.374a1.424 1.424 0 0 0-.707.785c-.13.352-.422 1.067-.422 2.147v5.721zM37.896 0v8.097h-.97c-.197-1.462-.554-3.106-1.066-3.972-.511-.869-1.24-1.557-2.188-2.066-.945-.508-1.925-.763-2.938-.763-1.145 0-2.091.345-2.84 1.033-.75.688-1.123 1.47-1.123 2.349 0 .672.235 1.287.711 1.84.681.813 2.305 1.896 4.869 3.252 2.092 1.107 3.519 1.955 4.283 2.546.765.592 1.355 1.286 1.766 2.09.413.802.52 1.642.52 2.521 0 1.669-.557 3.109-1.869 4.316-1.314 1.211-3.002 2.034-5.065 2.034-.649 0-1.259-.271-1.831-.369-.341-.054-1.046-.254-2.117-.599-1.071-.344-1.75-.518-2.035-.518-.274 0-.492.083-.651.247s.331.724.255 1.238h-1.025V15.18h1.025c.285 1.585.062 3.085.543 3.871.484.786 1.223 1.439 2.216 1.96.994.521 2.083.78 3.271.78 1.371 0 2.457-.357 3.252-1.077.797-.72 1.195-1.567 1.195-2.549 0-.544-.15-1.095-.451-1.65-.303-.555-.768-1.071-1.402-1.552-.426-.326-1.6-1.012-3.52-2.061s-3.283-1.887-4.092-2.516c-.807-.627-1.42-1.32-1.838-2.08-.417-.758-1.223-1.592-1.223-2.503 0-1.581 1.212-2.944 2.444-4.087C27.233.574 28.802 0 30.706 0c1.188 0 2.447.288 3.779.861.614.27 1.051.405 1.303.405.286 0 .52-.084.702-.251.181-.167.326-.505.437-1.015h.969zm16.847 11.275c1.549.326 2.707.848 3.477 1.567 1.064.999 1.186 2.224 1.186 3.671 0 1.099 0 2.715-.641 3.157-1.016.7-1.665 1.741-2.889 2.204s-2.152 1.401-4.664 1.401H39.944v-1.013h1.025c.924 0 1.193-.592 1.597-1.181.251-.378.451-1.187.451-2.425V4.399c0-1.366-.233-2.229-.55-2.589-.424-.479-1.055-.718-1.895-.718h-.629V0h9.434c1.799 0 3.24.62 4.326.879 1.645.392 2.898 1.081 3.766 2.072.866.992.911 2.131.911 3.42 0 1.104 0 2.737-.632 2.963-1.044.376-1.679 1.519-3.005 1.941zm-8.652-1.155c.405.076.893-.037 1.414 0 .521.038 1.096 0 1.721 0 1.604 0 2.809.341 3.615 0a3.9 3.9 0 0 0 1.854-1.586 4.338 4.338 0 0 0 .643-2.3c0-1.287-.533-2.384-1.598-3.291-1.065-.908-2.62-1.361-4.662-1.361-1.098 0-2.108.119-2.986.356v8.182zm0 11.132c1.277.295 2.563.165 3.809.165 1.996 0 3.517-.441 4.563-1.328 1.049-.888 1.572-1.983 1.572-3.289 0-.857-.242-1.686-.729-2.479-.484-.793-1.26-1.42-2.324-1.875-1.064-.458-2.385-.301-3.953-.301-.682 0-1.263-.023-1.746 0-.484.02-.895-.055-1.191 0v9.107zM80.914 0v8.097H79.89c-.678-2.253-1.288-4.468-2.545-5.46-1.259-.99-2.769-1.484-4.529-1.484-1.478 0-2.813.369-4.004 1.113-1.191.742-2.129 1.928-2.813 3.555-.685 1.627-1.473 3.65-1.473 6.068 0 1.998.77 3.727 1.416 5.191s1.619 2.588 2.917 3.367c1.298.781 2.78 1.17 4.446 1.17 1.447 0 2.723-.305 3.83-.916 1.106-.615 2.324-1.832 3.65-3.653l.509.316c-1.119 1.968-2.427 3.409-3.919 4.321-1.492.914-3.267 1.591-5.318 1.591-3.698 0-6.563-1.575-8.595-4.284-1.515-2.016-2.009-4.391-2.009-7.123 0-2.199.236-4.222 1.23-6.063.994-1.843 2.365-3.271 4.11-4.284C68.539.508 70.446 0 72.515 0c1.607 0 3.194.391 4.759 1.169.459.237.787.355.983.355.297 0 .553-.103.773-.308.283-.29.487-.696.606-1.216h1.278zM110.4 12.145L98.326 0h23.558zm0 0l11.484 11.131H99.351z"/><path d="M87.653 11.133L99.351 0v23.276zm45.496.106l-11.265 12.037V0z"/></g></svg>