<svg width="256" height="256" viewBox="0 0 256 256" xmlns="http://www.w3.org/2000/svg"><path d="M57.093 111.842v-10.93c0-1.422-.735-2.993-4.304-2.993v-.931h13.584v.93c-3.566 0-4.297 1.572-4.297 2.993v24.608c0 1.42.73 2.99 4.297 2.99v.931H52.789v-.93c3.57 0 4.304-1.57 4.304-2.99V113.85H42.285v11.668c0 1.42.731 2.99 4.3 2.99v.931H33v-.93c3.567 0 4.3-1.57 4.3-2.99V100.91c0-1.42-.733-2.992-4.3-2.992v-.931h13.585v.93c-3.569 0-4.3 1.572-4.3 2.993v10.931h14.808zm10.427 7.746h1.123c1.516 4.56 4.937 8.68 10.117 8.68 3.957 0 6.643-3.434 5.522-7.258-2.006-6.864-15.343-7.159-15.343-16.52 0-4.854 3.858-8.188 8.648-8.188 5.179 0 7.524 3.628 8.698 0h1.024l1.075 10.444h-1.219c-1.125-4.56-4.351-8.432-8.895-8.432-2.932 0-5.13 1.616-5.13 4.707 0 2.841 3.078 4.85 5.178 6.125 6.645 4.021 11.14 6.129 11.14 12.01 0 4.413-3.665 8.97-10.306 8.97-5.082 0-8.603-3.574-9.094 0h-1.073l-1.465-10.538zm38.093-8.088c4.934 0 7.818-2.11 7.818-6.077 0-3.73-2.344-5.74-5.765-6.374-4.497-.296-6.062-.391-6.062 1.322v11.13h4.01zm-4.009 13.529c0 1.717.442 2.599 4.01 2.599 5.08 0 8.845-1.52 8.845-7.255 0-5.834-5.817-6.915-10.41-6.915h-2.445v11.57zm-4.983-24.118c0-1.42-.733-2.992-4.69-2.992v-.931h13.094c7.527 0 13.392 2.01 13.392 8.287 0 4.115-2.74 6.225-6.499 7.059v.099c4.2.781 8.158 3.378 8.158 8.088 0 5.883-5.08 8.92-12.752 8.92H91.93v-.932c3.957 0 4.69-1.57 4.69-2.99v-24.608zm52.783 6.172h-1.172c-1.415-5.393-4.982-9.07-10.555-9.07-8.06 0-11.53 6.52-11.53 15.342 0 6.864 3.566 14.264 11.582 14.264 4.789 0 8.062-1.568 11.434-4.9l.83.98c-2.98 3.677-8.014 6.13-12.705 6.13-9.528 0-16.809-6.13-16.809-16.866 0-9.754 6.89-16.963 16.713-16.963 6.693 0 9.138 4.024 10.752.052h1.023l.437 11.031zm26.394-11.003h32.867l-16.433 16.485-16.434-16.485zm0 32.97h32.867l-16.433-16.485-16.434 16.485zm0-32.97v32.97l-16.434-16.485 16.434-16.485zm32.867 0v32.97l16.434-16.485-16.434-16.485zm-160.83 41.176l.421 5.202h-.422c-.43-1.296-.985-2.271-1.663-2.931-.977-.947-2.235-1.42-3.77-1.42-2.095 0-3.688.83-4.776 2.49-.915 1.404-1.37 3.073-1.37 5.012 0 1.573.302 3.01.906 4.305.608 1.3 1.403 2.25 2.384 2.852.98.606 1.99.91 3.025.91.608 0 1.192-.08 1.759-.233a6.991 6.991 0 0 0 1.635-.68v-4.771c0-.826-.062-1.366-.187-1.623a1.26 1.26 0 0 0-.583-.582c-.26-.137-.724-.203-1.387-.203v-.461h6.366v.46h-.303c-.633 0-1.063.213-1.299.636-.161.299-.24.893-.24 1.773v5.048c-.931.502-1.85.872-2.752 1.109-.907.236-1.912.352-3.021.352-3.174 0-5.587-1.02-7.239-3.063-1.237-1.537-1.854-3.3-1.854-5.306 0-1.45.348-2.84 1.043-4.173.824-1.581 1.958-2.798 3.394-3.649 1.204-.706 2.628-1.054 4.267-1.054.6 0 1.142.045 1.634.145.489.095 1.18.311 2.078.644.451.17.757.253.91.253.154 0 .286-.071.393-.212.108-.141.174-.42.2-.83h.45zm7.283-.428v14.78c0 .697.054 1.158.153 1.387.1.224.257.398.468.514.21.116.6.179 1.175.179v.436h-5.442v-.436c.509 0 .857-.054 1.039-.162.186-.104.335-.278.438-.523.104-.24.158-.706.158-1.395v-10.122c0-1.258-.03-2.03-.083-2.316-.058-.287-.149-.486-.273-.59a.712.712 0 0 0-.48-.158c-.211 0-.476.062-.799.195l-.207-.427 3.31-1.362h.543zm8.513 5.825c1.68 0 3.03.643 4.052 1.922.864 1.096 1.295 2.354 1.295 3.77 0 1-.24 2.009-.716 3.03-.476 1.022-1.134 1.794-1.97 2.313-.836.519-1.767.776-2.794.776-1.676 0-3.004-.668-3.989-2.005a6.247 6.247 0 0 1-1.25-3.795c0-1.025.253-2.038.757-3.047.505-1.009 1.172-1.756 1.995-2.238a5.072 5.072 0 0 1 2.62-.726zm-.377.793c-.426 0-.856.124-1.29.382-.431.257-.783.701-1.048 1.345-.269.64-.401 1.461-.401 2.466 0 1.623.322 3.022.964 4.197.641 1.175 1.49 1.765 2.541 1.765.782 0 1.428-.324 1.94-.972.51-.652.762-1.764.762-3.346 0-1.98-.422-3.537-1.274-4.67-.571-.781-1.304-1.167-2.194-1.167zm10.405 1.457c1.076-1.499 2.234-2.25 3.48-2.25 1.138 0 2.131.49 2.98 1.465.848.98 1.274 2.313 1.274 4.01 0 1.977-.653 3.571-1.966 4.78-1.121 1.037-2.375 1.556-3.757 1.556a5.862 5.862 0 0 1-1.97-.353 9.17 9.17 0 0 1-2.044-1.059v-11.541c0-1.266-.03-2.043-.092-2.337-.058-.29-.153-.49-.28-.594a.743.743 0 0 0-.49-.158c-.223 0-.508.062-.848.195l-.17-.427 3.336-1.362h.547v8.075zm0 .78v6.664c.41.407.836.714 1.278.917.44.208.89.312 1.354.312.732 0 1.42-.407 2.052-1.217.634-.81.952-1.988.952-3.537 0-1.428-.318-2.524-.952-3.292-.633-.764-1.353-1.15-2.164-1.15-.426 0-.857.112-1.283.328-.323.162-.737.49-1.237.975zm15.664 6.834c-1.138.884-1.854 1.395-2.148 1.532a3.244 3.244 0 0 1-1.39.307c-.77 0-1.404-.266-1.9-.793-.497-.527-.745-1.22-.745-2.08 0-.544.12-1.013.364-1.411.331-.548.906-1.067 1.726-1.557.82-.486 2.185-1.075 4.093-1.773v-.44c0-1.109-.174-1.872-.526-2.288-.352-.41-.865-.618-1.535-.618-.51 0-.915.137-1.213.415-.306.274-.46.59-.46.947l.026.705c0 .374-.096.66-.286.864-.19.203-.439.303-.745.303a.942.942 0 0 1-.736-.315c-.19-.212-.286-.499-.286-.864 0-.698.356-1.337 1.068-1.922.712-.581 1.709-.876 2.996-.876.985 0 1.792.166 2.425.498.476.253.828.648 1.055 1.183.145.349.216 1.059.216 2.138v3.782c0 1.063.02 1.715.062 1.956.041.236.108.398.199.477a.478.478 0 0 0 .322.125c.128 0 .245-.03.34-.087.17-.104.496-.403.98-.889v.68c-.902 1.217-1.767 1.828-2.594 1.828-.394 0-.708-.137-.944-.416-.236-.273-.356-.747-.364-1.411zm0-.789v-4.247c-1.221.49-2.007.835-2.363 1.034-.642.357-1.097.73-1.37 1.12-.277.39-.414.815-.414 1.28 0 .58.174 1.066.521 1.453.348.381.75.577 1.2.577.617 0 1.424-.407 2.426-1.217zm8.546-14.9v14.78c0 .697.054 1.158.153 1.387.1.224.256.398.468.514.21.116.6.179 1.175.179v.436h-5.442v-.436c.509 0 .856-.054 1.039-.162.186-.104.335-.278.438-.523.104-.24.158-.706.158-1.395v-10.122c0-1.258-.03-2.03-.083-2.316-.058-.287-.15-.486-.273-.59a.713.713 0 0 0-.48-.158c-.212 0-.476.062-.8.195l-.206-.427 3.31-1.362h.543zm22.435.801l.182 3.87h-.464c-.087-.681-.207-1.167-.364-1.462-.248-.47-.583-.813-.997-1.038-.418-.224-.965-.336-1.643-.336H114.7v12.604c0 1.013.112 1.644.327 1.898.306.34.782.51 1.42.51h.57v.449h-6.973v-.449h.584c.695 0 1.187-.212 1.477-.635.178-.257.27-.851.27-1.773v-12.604h-1.979c-.766 0-1.312.058-1.635.17-.422.154-.782.453-1.08.889-.298.44-.476 1.03-.534 1.777h-.459l.194-3.87h13.422zm1.709 9.549c-.008 1.657.389 2.952 1.2 3.894.807.938 1.759 1.408 2.848 1.408.728 0 1.36-.2 1.899-.602.538-.399.985-1.088 1.349-2.06l.377.241c-.17 1.113-.663 2.126-1.478 3.035-.82.913-1.841 1.37-3.066 1.37-1.337 0-2.48-.519-3.427-1.56-.952-1.043-1.424-2.446-1.424-4.207 0-1.905.485-3.391 1.461-4.454.973-1.067 2.194-1.603 3.667-1.603 1.246 0 2.268.411 3.067 1.237.798.822 1.2 1.923 1.2 3.3h-7.673zm0-.706h5.14c-.041-.714-.124-1.216-.257-1.507-.198-.452-.5-.81-.902-1.07-.401-.258-.82-.391-1.254-.391-.67 0-1.27.261-1.8.784-.53.524-.84 1.254-.927 2.184zm18.586 3.417c-.298 1.47-.886 2.599-1.759 3.388-.873.793-1.838 1.187-2.897 1.187-1.262 0-2.363-.531-3.298-1.594-.94-1.063-1.407-2.495-1.407-4.305 0-1.752.521-3.176 1.56-4.268 1.039-1.096 2.284-1.644 3.737-1.644 1.092 0 1.99.29 2.694.872.704.577 1.056 1.179 1.056 1.805 0 .308-.1.557-.299.748-.198.19-.475.286-.831.286-.476 0-.836-.153-1.08-.46-.137-.17-.228-.499-.27-.976-.045-.478-.21-.843-.492-1.096-.286-.241-.675-.361-1.175-.361-.812 0-1.461.299-1.954.896-.654.797-.98 1.848-.98 3.152 0 1.328.322 2.503.976 3.52.65 1.017 1.527 1.528 2.636 1.528.79 0 1.503-.27 2.132-.814.447-.373.877-1.05 1.3-2.034l.351.17zm4.85-13.06v8.149c.894-.989 1.606-1.624 2.132-1.906.525-.278 1.05-.42 1.576-.42.63 0 1.172.175 1.627.524.451.349.786.897 1.006 1.644.153.519.227 1.465.227 2.844v3.944c0 .701.058 1.187.174 1.444a.946.946 0 0 0 .41.465c.194.113.55.17 1.067.17v.437h-5.454v-.436h.252c.518 0 .878-.083 1.08-.241.203-.158.344-.39.423-.698.024-.128.037-.51.037-1.141v-3.944c0-1.217-.062-2.014-.186-2.396-.129-.382-.328-.664-.6-.855-.278-.191-.609-.286-.998-.286-.393 0-.807.103-1.233.315-.43.212-.944.635-1.54 1.279v5.887c0 .76.042 1.233.124 1.42.087.186.245.344.476.469.228.124.625.19 1.192.19v.437h-5.504v-.436c.492 0 .882-.08 1.163-.233.161-.083.294-.236.389-.46.1-.229.145-.69.145-1.387v-10.085c0-1.274-.029-2.055-.091-2.35-.058-.29-.153-.49-.277-.593-.125-.108-.294-.158-.505-.158-.17 0-.443.062-.824.195l-.17-.427 3.323-1.362h.56zm12.391 8.186c1.3-1.574 2.54-2.362 3.72-2.362.609 0 1.13.153 1.565.456.439.304.786.806 1.043 1.503.178.486.265 1.233.265 2.238v4.758c0 .701.058 1.183.174 1.432a1 1 0 0 0 .43.477c.194.113.563.17 1.097.17v.437h-5.496v-.436h.231c.518 0 .882-.083 1.085-.241.206-.158.351-.39.43-.698.033-.12.05-.502.05-1.141v-4.563c0-1.013-.133-1.748-.394-2.209-.264-.456-.707-.684-1.328-.684-.96 0-1.92.527-2.872 1.581v5.875c0 .751.041 1.216.132 1.395.112.236.27.41.468.519.199.108.6.166 1.204.166v.436h-5.492v-.436h.245c.563 0 .948-.146 1.146-.432.194-.29.294-.839.294-1.648v-4.14c0-1.336-.029-2.15-.091-2.44-.058-.295-.153-.495-.277-.598-.124-.104-.294-.158-.505-.158-.224 0-.497.062-.812.182l-.181-.44 3.348-1.361h.521v2.362zm14.609-2.362c1.68 0 3.03.643 4.052 1.922.865 1.096 1.295 2.354 1.295 3.77 0 1-.24 2.009-.716 3.03-.476 1.022-1.134 1.794-1.97 2.313-.836.519-1.767.776-2.794.776-1.676 0-3.004-.668-3.99-2.005a6.248 6.248 0 0 1-1.249-3.795c0-1.025.253-2.038.758-3.047.504-1.009 1.17-1.756 1.994-2.238a5.073 5.073 0 0 1 2.62-.726zm-.377.793c-.426 0-.856.124-1.29.382-.431.257-.783.701-1.048 1.345-.269.64-.401 1.461-.401 2.466 0 1.623.323 3.022.964 4.197.641 1.175 1.49 1.765 2.54 1.765.783 0 1.429-.324 1.942-.972.509-.652.761-1.764.761-3.346 0-1.98-.422-3.537-1.274-4.67-.571-.781-1.304-1.167-2.194-1.167zm11.178-6.618v14.78c0 .697.054 1.158.153 1.387.1.224.257.398.468.514.211.116.6.179 1.175.179v.436h-5.442v-.436c.51 0 .857-.054 1.04-.162.185-.104.334-.278.438-.523.103-.24.157-.706.157-1.395v-10.122c0-1.258-.029-2.03-.083-2.316-.057-.287-.149-.486-.273-.59a.712.712 0 0 0-.48-.158c-.211 0-.476.062-.799.195l-.206-.427 3.31-1.362h.542zm8.513 5.825c1.68 0 3.03.643 4.052 1.922.865 1.096 1.295 2.354 1.295 3.77 0 1-.24 2.009-.716 3.03-.476 1.022-1.134 1.794-1.97 2.313-.835.519-1.767.776-2.793.776-1.676 0-3.005-.668-3.99-2.005a6.247 6.247 0 0 1-1.25-3.795c0-1.025.253-2.038.758-3.047.505-1.009 1.171-1.756 1.995-2.238a5.072 5.072 0 0 1 2.62-.726zm-.376.793c-.426 0-.857.124-1.292.382-.43.257-.782.701-1.047 1.345-.269.64-.401 1.461-.401 2.466 0 1.623.323 3.022.964 4.197.642 1.175 1.49 1.765 2.541 1.765.782 0 1.428-.324 1.941-.972.51-.652.762-1.764.762-3.346 0-1.98-.422-3.537-1.275-4.67-.571-.781-1.303-1.167-2.193-1.167zm10.33 6.613c-.68-.332-1.2-.793-1.565-1.39a3.714 3.714 0 0 1-.542-1.977c0-1.104.414-2.05 1.242-2.848.827-.793 1.887-1.191 3.182-1.191 1.06 0 1.974.261 2.752.78h2.35c.348 0 .551.008.61.03.053.02.094.053.12.103.049.075.074.204.074.39 0 .212-.021.357-.062.436a.25.25 0 0 1-.129.1c-.058.025-.265.033-.612.033h-1.44c.45.585.678 1.333.678 2.242 0 1.038-.397 1.922-1.187 2.661-.795.739-1.859 1.109-3.191 1.109-.55 0-1.11-.083-1.685-.245-.356.307-.596.577-.72.81-.128.232-.19.427-.19.589 0 .137.066.27.198.403.137.128.398.22.783.278.227.033.794.062 1.7.087 1.664.037 2.744.095 3.237.17.749.104 1.349.382 1.8.839.447.452.67 1.013.67 1.677 0 .917-.426 1.777-1.282 2.578-1.263 1.183-2.906 1.777-4.933 1.777-1.56 0-2.88-.353-3.957-1.059-.604-.406-.906-.826-.906-1.266 0-.195.041-.386.132-.581.137-.303.422-.718.849-1.254.058-.075.467-.51 1.237-1.312-.422-.253-.716-.477-.89-.676a1 1 0 0 1-.26-.677c0-.283.111-.615.343-.997.232-.382.762-.921 1.593-1.619zm2.11-6.82c-.596 0-1.1.24-1.502.717-.406.478-.609 1.213-.609 2.2 0 1.284.278 2.276.828 2.982.418.535.952.8 1.598.8.616 0 1.121-.228 1.514-.692.398-.461.596-1.188.596-2.176 0-1.291-.277-2.3-.836-3.03-.414-.536-.943-.802-1.589-.802zm-2.23 10.885c-.381.415-.667.797-.861 1.154-.195.357-.29.685-.29.988 0 .386.232.726.704 1.021.806.503 1.973.752 3.5.752 1.457 0 2.53-.258 3.22-.773.691-.515 1.04-1.062 1.04-1.648 0-.42-.208-.718-.622-.897-.418-.178-1.254-.286-2.495-.32-1.821-.045-3.22-.14-4.197-.277zm8.934-11.143h5.178v.452h-.253c-.364 0-.637.079-.82.237a.747.747 0 0 0-.272.59c0 .315.132.755.401 1.311l2.703 5.622 2.487-6.153c.136-.336.203-.664.203-.988a.555.555 0 0 0-.083-.328.68.68 0 0 0-.302-.212c-.141-.054-.38-.079-.729-.079v-.452h3.613v.452c-.298.033-.53.096-.69.195-.162.096-.34.278-.535.548-.074.112-.21.424-.414.935l-4.519 11.118c-.439 1.079-1.01 1.893-1.717 2.445-.708.552-1.387.826-2.045.826-.476 0-.869-.137-1.175-.415-.306-.274-.46-.59-.46-.947 0-.34.112-.614.332-.822.223-.207.53-.311.918-.311.265 0 .63.091 1.089.27.323.12.526.182.608.182.24 0 .505-.128.795-.377.285-.253.575-.74.865-1.462l.79-1.93-3.99-8.407a6.747 6.747 0 0 0-.583-.934c-.203-.287-.368-.478-.496-.573-.187-.129-.485-.245-.899-.34v-.453z" fill="#FFF" fill-rule="evenodd"/></svg>