<svg xmlns="http://www.w3.org/2000/svg" xmlns:xlink="http://www.w3.org/1999/xlink" width="20" height="20" viewBox="0 0 20 20">
    <defs>
        <path id="a" d="M16 5.485L10.484 11a1.05 1.05 0 0 1-1.485-1.485L14.515 4H12a1 1 0 0 1 0-2h4a2 2 0 0 1 2 2v4a1 1 0 0 1-2 0V5.485zM8 3a1 1 0 0 1-1 1H4.3a.3.3 0 0 0-.3.3v11.4a.3.3 0 0 0 .3.3h11.4a.3.3 0 0 0 .3-.3V13a1 1 0 0 1 2 0v3a2 2 0 0 1-2 2H4a2 2 0 0 1-2-2V4a2 2 0 0 1 2-2h3a1 1 0 0 1 1 1z"/>
    </defs>
    <g fill="none" fill-rule="evenodd">
        <mask id="b" fill="#fff">
            <use xlink:href="#a"/>
        </mask>
        <g fill="#fff" mask="url(#b)">
            <path d="M0 0h20v20H0z"/>
        </g>
    </g>
</svg>
