<svg xmlns="http://www.w3.org/2000/svg" width="24" height="24" viewBox="0 0 24 24">
    <path fill="#fff" fill-opacity="0.75" fill-rule="nonzero" d="M7.086 7.53V19H3.228V7.53h3.858zM7.34 3.98c0 1.102-.837 1.983-2.183 1.983h-.024C3.837 5.964 3 5.083 3 3.98 3 2.857 3.863 2 5.183 2c1.32 0 2.132.857 2.157 1.981zM21 12.423V19h-3.858v-6.137c0-1.541-.558-2.593-1.955-2.593-1.066 0-1.7.709-1.98 1.394-.102.245-.127.587-.127.93V19H9.222s.05-10.394 0-11.47h3.858v1.624c.512-.78 1.43-1.894 3.478-1.894C19.097 7.26 21 8.9 21 12.423z"/>
</svg>
