<svg xmlns="http://www.w3.org/2000/svg" width="24" height="24" viewBox="0 0 24 24">
    <path fill="#fff" fill-opacity="0.75" fill-rule="nonzero" d="M16.12 2.06c1.065.05 1.792.218 2.43.465a4.887 4.887 0 0 1 1.77 1.153 4.908 4.908 0 0 1 1.155 1.772c.246.635.415 1.362.465 2.427.047 1.066.06 1.407.06 4.123s-.013 3.056-.06 4.122c-.05 1.065-.22 1.792-.465 2.428a4.909 4.909 0 0 1-1.154 1.77 4.893 4.893 0 0 1-1.77 1.155c-.637.247-1.364.416-2.429.465-1.066.048-1.406.06-4.122.06s-3.057-.012-4.123-.06c-1.065-.05-1.792-.218-2.428-.465a4.897 4.897 0 0 1-1.77-1.154 4.9 4.9 0 0 1-1.154-1.772c-.247-.635-.416-1.362-.465-2.427C2.012 15.056 2 14.716 2 12s.013-3.057.06-4.124c.048-1.064.217-1.79.465-2.427a4.909 4.909 0 0 1 1.154-1.77A4.897 4.897 0 0 1 5.45 2.524c.636-.247 1.363-.416 2.428-.465C8.944 2.012 9.285 2 11.998 2c2.717 0 3.057.012 4.123.06zM12 6.865a5.136 5.136 0 1 0 .001 10.27 5.136 5.136 0 0 0 0-10.27zm0 2a3.135 3.135 0 1 1 0 6.27 3.135 3.135 0 0 1 0-6.27zm5.339-3.402a1.2 1.2 0 1 0 0 2.4 1.2 1.2 0 0 0 0-2.4z"/>
</svg>
