<svg xmlns="http://www.w3.org/2000/svg" width="32" height="32" viewBox="0 0 32 32">
    <g fill="none" fill-rule="evenodd">
        <g fill="#e9514f" fill-rule="nonzero">
            <g>
                <path d="M15 25c0 .552.448 1 1 1 .513 0 .936-.386.993-.883L17 25h-2zm1-17c-3.314 0-6 2.686-6 6v9h12v-9c0-3.314-2.686-6-6-6zm0 20c-1.598 0-2.904-1.249-2.995-2.824L13 25H6c-.552 0-1-.448-1-1s.448-1 1-1h2v-9c0-4.08 3.054-7.446 7-7.938V5c0-.552.448-1 1-1s1 .448 1 1l.001 1.062C20.947 6.555 24 9.921 24 14v9h2c.552 0 1 .448 1 1s-.448 1-1 1h-7c0 1.657-1.343 3-3 3z" transform="translate(-494 -684) translate(494 684)"/>
            </g>
        </g>
    </g>
</svg>
