<svg xmlns="http://www.w3.org/2000/svg" width="32" height="32" viewBox="0 0 32 32">
    <g fill="none" fill-rule="evenodd">
        <g fill="#e9514f" fill-rule="nonzero">
            <g>
                <path d="M15.235 6.004c-4.143.12-7.584 3.04-8.497 6.932l-.046.206C4.004 13.744 2 16.138 2 19c0 3.314 2.686 6 6 6h15l.26-.005C27.04 24.834 30 21.753 30 18l-.005-.26-.014-.24c-.26-3.426-2.924-6.127-6.271-6.464l-.134-.012-.006-.014C22.08 8 18.987 6 15.5 6l-.265.004zM15.5 8c3.193 0 5.886 2.138 6.728 5.06.25-.04.509-.06.772-.06 2.689 0 4.882 2.122 4.995 4.783L28 18c0 2.689-2.122 4.882-4.783 4.995L23 23H8c-2.21 0-4-1.79-4-4s1.79-4 4-4c.17 0 .337.01.502.031L8.5 15c0-3.866 3.134-7 7-7z" transform="translate(-326 -684) translate(326 684)"/>
            </g>
        </g>
    </g>
</svg>
