<svg xmlns="http://www.w3.org/2000/svg" width="32" height="32" viewBox="0 0 32 32">
    <g fill="none" fill-rule="evenodd">
        <g fill="#e9514f" fill-rule="nonzero">
            <g>
                <path d="M22 2c1.657 0 3 1.343 3 3v22c0 1.657-1.343 3-3 3H10c-1.657 0-3-1.343-3-3V5c0-1.657 1.343-3 3-3zm1 23H9v2c0 .552.448 1 1 1h5c0-.552.448-1 1-1s1 .448 1 1h5c.552 0 1-.448 1-1v-2zM9 8v15h14V8H9zm0-2h14V5c0-.552-.448-1-1-1H10c-.552 0-1 .448-1 1v1z" transform="translate(-452 -684) translate(452 684)"/>
            </g>
        </g>
    </g>
</svg>
