<svg xmlns="http://www.w3.org/2000/svg" width="32" height="32" viewBox="0 0 32 32">
    <g fill="none" fill-rule="evenodd">
        <g fill="#e9514f" fill-rule="nonzero">
            <g>
                <path d="M26.605 5.392c2.239 2.239 1.323 6.325-1.54 10.607 2.863 4.282 3.779 8.367 1.54 10.606-2.239 2.239-6.324 1.323-10.607-1.54-4.281 2.863-8.367 3.779-10.606 1.54-2.239-2.239-1.323-6.324 1.54-10.607-2.863-4.281-3.779-8.367-1.54-10.606 2.239-2.239 6.325-1.323 10.607 1.54 4.282-2.863 8.367-3.779 10.606-1.54zM14.248 23.794l-.201-.16c-.245-.194-.49-.395-.733-.6l-.366-.314-.547-.484c-.303-.274-.604-.557-.904-.847l-.448-.44-.266-.27c-.234-.238-.464-.479-.689-.72l-.333-.363-.484-.547c-.375-.432-.733-.865-1.073-1.3-2.03 3.27-2.678 6.162-1.398 7.442 1.28 1.28 4.171.632 7.442-1.397zm5.286-11.33c-.959-.96-1.94-1.828-2.913-2.592l-.487-.373-.135-.1-.136.1c-.97.729-1.953 1.564-2.919 2.492l-.48.472-.257.259c-.87.888-1.661 1.793-2.364 2.692l-.344.449-.1.135.1.136c.729.971 1.564 1.954 2.492 2.919l.472.481.259.256c.888.87 1.793 1.662 2.692 2.365l.449.344.136.098.135-.098c.971-.73 1.954-1.565 2.919-2.493l.481-.472c.959-.959 1.827-1.94 2.591-2.913l.374-.487.099-.136-.1-.135c-.729-.97-1.564-1.953-2.492-2.919l-.472-.48zm-5.286-4.26l-.21-.129C10.856 6.147 8.06 5.553 6.807 6.806c-1.28 1.28-.632 4.171 1.397 7.442.227-.29.462-.579.705-.868l.369-.432.484-.547c.275-.303.557-.604.847-.904l.44-.448.27-.266c.238-.234.479-.464.72-.689l.363-.333.547-.484c.432-.375.866-.733 1.3-1.073zm9.546 9.546l-.16.2c-.194.245-.395.49-.6.734l-.314.365-.484.547c-.412.454-.841.906-1.288 1.352-.297.298-.597.588-.899.87l-.453.418-.547.484c-.432.375-.865.733-1.3 1.073 3.27 2.03 6.162 2.678 7.442 1.398 1.28-1.28.632-4.171-1.397-7.441zm-6.381-3.166c.78.781.78 2.048 0 2.829-.781.78-2.048.78-2.829 0-.78-.781-.78-2.048 0-2.829.781-.78 2.048-.78 2.829 0zm7.778-7.778c-1.28-1.28-4.171-.632-7.441 1.397.289.227.578.462.867.705l.432.369.547.484c.454.412.906.841 1.352 1.288.298.298.588.597.87.899l.418.453.484.547c.375.432.733.866 1.073 1.3 2.03-3.27 2.678-6.161 1.398-7.442z" transform="translate(-368 -684) translate(368 684)"/>
            </g>
        </g>
    </g>
</svg>
