<svg xmlns="http://www.w3.org/2000/svg" width="32" height="32" viewBox="0 0 32 32">
    <g fill="none" fill-rule="evenodd">
        <g fill="#e9514f" fill-rule="nonzero">
            <g>
                <path d="M23.791 23.13l3.791 3.79c.39.39.39 1.024 0 1.415-.39.39-1.024.39-1.414 0l-4.261-4.26c.646-.271 1.275-.587 1.884-.945zm-16.46 0c.61.358 1.238.673 1.885.945l-4.261 4.26c-.36.36-.928.388-1.32.083l-.095-.083c-.36-.361-.388-.928-.083-1.32l.083-.095 3.79-3.79zm8.23-13.816c4.62 0 8.523 1.951 11.562 5.75l1 1.25-1 1.25c-3.04 3.798-6.942 5.75-11.562 5.75-4.62 0-8.522-1.952-11.561-5.75l-1-1.25 1-1.25c3.039-3.799 6.942-5.75 11.561-5.75zm0 2c-4 0-7.333 1.666-10 5 2.667 3.333 6 5 10 5s7.334-1.667 10-5c-2.666-3.334-6-5-10-5zm1.414 3.585c.782.782.782 2.048 0 2.829-.78.781-2.047.781-2.828 0-.781-.781-.781-2.047 0-2.829.781-.78 2.047-.78 2.828 0zM4.955 4.293l4.26 4.26c-.647.271-1.275.586-1.884.945l-3.79-3.79c-.391-.391-.391-1.025 0-1.415.39-.39 1.023-.39 1.414 0zm22.533-.083l.094.083c.36.36.388.928.083 1.32l-.083.094-3.791 3.79c-.61-.358-1.238-.673-1.884-.944l4.26-4.26c.361-.36.929-.388 1.32-.083z" transform="translate(-536 -684) translate(536 684)"/>
            </g>
        </g>
    </g>
</svg>
