<svg xmlns="http://www.w3.org/2000/svg" width="32" height="32" viewBox="0 0 32 32">
    <g fill="none" fill-rule="evenodd">
        <g fill="#e9514f" fill-rule="nonzero">
            <g>
                <path d="M13.5 9c3.395 0 6 2.594 6 6.143 0 1.872-.664 3.8-1.725 5.278.377.162.794.341.86.366C21.835 22.022 24 24.897 24 28c0 .552-.448 1-1 1H4c-.552 0-1-.448-1-1 0-3.113 2.18-5.994 5.397-7.225.061-.023.448-.19.829-.353-1.062-1.478-1.726-3.407-1.726-5.28C7.5 11.595 10.105 9 13.5 9zm2.81 12.961c-.845.65-1.804 1.039-2.81 1.039-1.003 0-1.959-.386-2.8-1.032l-.167.07c-.427.183-1.29.555-1.422.605-2.103.805-3.602 2.49-4.003 4.357h16.785c-.4-1.86-1.889-3.54-3.978-4.347-.07-.027-.35-.146-.651-.275l-.302-.13-.552-.237-.1-.05zM18.5 3c3.395 0 6 2.594 6 6.143 0 1.872-.664 3.8-1.725 5.278.377.162.794.341.86.366C26.835 16.022 29 18.897 29 22c0 .552-.448 1-1 1l-3.528-.001c-.478-.73-1.056-1.402-1.72-2l4.14.001c-.4-1.86-1.888-3.54-3.977-4.347-.07-.027-.35-.146-.651-.275l-.302-.13-.503-.217c.028-.296.041-.593.041-.888 0-.715-.083-1.403-.24-2.056.74-1.103 1.24-2.547 1.24-3.944C22.5 6.7 20.792 5 18.5 5c-1.586 0-2.892.814-3.547 2.125C14.485 7.043 14 7 13.5 7c-.224 0-.445.009-.664.026C13.643 4.609 15.826 3 18.5 3zm-5 8c-2.292 0-4 1.7-4 4.143 0 2.833 2.058 5.857 4 5.857 1.942 0 4-3.024 4-5.857 0-2.442-1.708-4.143-4-4.143z" transform="translate(-578 -684) translate(578 684)"/>
            </g>
        </g>
    </g>
</svg>
