<svg xmlns="http://www.w3.org/2000/svg" xmlns:xlink="http://www.w3.org/1999/xlink" width="410" height="410" viewBox="0 0 410 410">
    <defs>
        <linearGradient id="a" x1="0%" y1="0%" y2="100%">
            <stop offset="0%" stop-color="#AC53FF"/>
            <stop offset="100%" stop-color="#4439FF"/>
        </linearGradient>
        <linearGradient id="d" x1="50%" x2="50%" y1="0%" y2="100%">
            <stop offset="0%" stop-color="#AC53FF"/>
            <stop offset="100%" stop-color="#4439FF"/>
        </linearGradient>
        <rect id="b" width="163" height="247.234" y=".425" rx="8.8"/>
        <filter id="c" width="102.6%" height="101.7%" x="-1.3%" y="-.8%" filterUnits="objectBoundingBox">
            <feOffset dy="2" in="SourceAlpha" result="shadowOffsetInner1"/>
            <feComposite in="shadowOffsetInner1" in2="SourceAlpha" k2="-1" k3="1" operator="arithmetic" result="shadowInnerInner1"/>
            <feColorMatrix in="shadowInnerInner1" values="0 0 0 0 1 0 0 0 0 1 0 0 0 0 1 0 0 0 1 0"/>
        </filter>
        <linearGradient id="g" x1="50%" x2="50%" y1="0%" y2="100%">
            <stop offset="0%" stop-color="#AC53FF"/>
            <stop offset="100%" stop-color="#4439FF"/>
        </linearGradient>
        <rect id="e" width="152.427" height="218.096" x="5.286" y="14.552" rx="3.52"/>
        <filter id="f" width="103.4%" height="102.4%" x="-1.7%" y="-1.2%" filterUnits="objectBoundingBox">
            <feOffset dy="3" in="SourceAlpha" result="shadowOffsetInner1"/>
            <feComposite in="shadowOffsetInner1" in2="SourceAlpha" k2="-1" k3="1" operator="arithmetic" result="shadowInnerInner1"/>
            <feColorMatrix in="shadowInnerInner1" result="shadowMatrixInner1" values="0 0 0 0 0.632133152 0 0 0 0 0 0 0 0 0 1 0 0 0 0.15 0"/>
            <feOffset dy="-3" in="SourceAlpha" result="shadowOffsetInner2"/>
            <feComposite in="shadowOffsetInner2" in2="SourceAlpha" k2="-1" k3="1" operator="arithmetic" result="shadowInnerInner2"/>
            <feColorMatrix in="shadowInnerInner2" result="shadowMatrixInner2" values="0 0 0 0 0.378078565 0 0 0 0 0.0752805963 0 0 0 0 0.907233206 0 0 0 0.2 0"/>
            <feMerge>
                <feMergeNode in="shadowMatrixInner1"/>
                <feMergeNode in="shadowMatrixInner2"/>
            </feMerge>
        </filter>
        <path id="i" d="M81.06 6.18c.973 0 1.762.791 1.762 1.767 0 .975-.79 1.766-1.763 1.766-.973 0-1.762-.79-1.762-1.766s.79-1.766 1.762-1.766zm-6.168.884a.882.882 0 1 1-.002 1.764.882.882 0 0 1 .002-1.764z"/>
        <filter id="h" width="111.3%" height="156.6%" x="-5.7%" y="-14.2%" filterUnits="objectBoundingBox">
            <feOffset dy="1" in="SourceAlpha" result="shadowOffsetOuter1"/>
            <feColorMatrix in="shadowOffsetOuter1" values="0 0 0 0 1 0 0 0 0 1 0 0 0 0 1 0 0 0 1 0"/>
        </filter>
        <linearGradient id="j" x1="50%" x2="50%" y1="0%" y2="100%">
            <stop offset="0%" stop-color="#AC53FF"/>
            <stop offset="100%" stop-color="#4439FF"/>
        </linearGradient>
        <linearGradient id="m" x1="50%" x2="50%" y1="0%" y2="100%">
            <stop offset="0%" stop-color="#AC53FF"/>
            <stop offset="100%" stop-color="#4439FF"/>
        </linearGradient>
        <rect id="k" width="163" height="264.12" y=".423" rx="14.08"/>
        <filter id="l" width="102.6%" height="101.6%" x="-1.3%" y="-.8%" filterUnits="objectBoundingBox">
            <feOffset dy="2" in="SourceAlpha" result="shadowOffsetInner1"/>
            <feComposite in="shadowOffsetInner1" in2="SourceAlpha" k2="-1" k3="1" operator="arithmetic" result="shadowInnerInner1"/>
            <feColorMatrix in="shadowInnerInner1" values="0 0 0 0 1 0 0 0 0 1 0 0 0 0 1 0 0 0 1 0"/>
        </filter>
        <linearGradient id="p" x1="50%" x2="50%" y1="0%" y2="100%">
            <stop offset="0%" stop-color="#AC53FF"/>
            <stop offset="100%" stop-color="#4439FF"/>
        </linearGradient>
        <rect id="n" width="150" height="249" x="7" y="8" rx="8.749"/>
        <filter id="o" width="103.5%" height="102.1%" x="-1.7%" y="-1%" filterUnits="objectBoundingBox">
            <feOffset dy="3" in="SourceAlpha" result="shadowOffsetInner1"/>
            <feComposite in="shadowOffsetInner1" in2="SourceAlpha" k2="-1" k3="1" operator="arithmetic" result="shadowInnerInner1"/>
            <feColorMatrix in="shadowInnerInner1" result="shadowMatrixInner1" values="0 0 0 0 0.632133152 0 0 0 0 0 0 0 0 0 1 0 0 0 0.15 0"/>
            <feOffset dy="-3" in="SourceAlpha" result="shadowOffsetInner2"/>
            <feComposite in="shadowOffsetInner2" in2="SourceAlpha" k2="-1" k3="1" operator="arithmetic" result="shadowInnerInner2"/>
            <feColorMatrix in="shadowInnerInner2" result="shadowMatrixInner2" values="0 0 0 0 0.378078565 0 0 0 0 0.0752805963 0 0 0 0 0.907233206 0 0 0 0.2 0"/>
            <feMerge>
                <feMergeNode in="shadowMatrixInner1"/>
                <feMergeNode in="shadowMatrixInner2"/>
            </feMerge>
        </filter>
        <linearGradient id="q" x1="50%" x2="50%" y1="0%" y2="100%">
            <stop offset="0%" stop-color="#AC53FF"/>
            <stop offset="100%" stop-color="#4439FF"/>
        </linearGradient>
        <rect id="s" width="27" height="2" x="68" y="3" rx="1"/>
        <filter id="r" width="103.7%" height="200%" x="-1.9%" y="-25%" filterUnits="objectBoundingBox">
            <feOffset dy="1" in="SourceAlpha" result="shadowOffsetOuter1"/>
            <feColorMatrix in="shadowOffsetOuter1" values="0 0 0 0 1 0 0 0 0 1 0 0 0 0 1 0 0 0 1 0"/>
        </filter>
    </defs>
    <g fill="none" fill-rule="evenodd">
        <path fill="url(#a)" d="M158.439 16.213l210.35 84.987c22.515 9.097 33.393 34.724 24.296 57.239l-84.987 210.35c-9.097 22.515-34.723 33.393-57.239 24.296L40.51 308.098c-22.515-9.097-33.392-34.723-24.296-57.239L101.2 40.51c9.097-22.515 34.724-33.392 57.239-24.296z" opacity=".2"/>
        <path fill="url(#a)" d="M142.311 68.634l173.007 33.63c18.518 3.599 30.612 21.529 27.013 40.047L308.7 315.318c-3.599 18.518-21.53 30.612-40.047 27.013L95.647 308.7c-18.519-3.599-30.613-21.53-27.013-40.047l33.63-173.007c3.599-18.519 21.529-30.613 40.047-27.013z" opacity=".5"/>
        <path fill="url(#a)" d="M116.527 142.489l119.5-41.148c12.791-4.404 26.731 2.395 31.135 15.186l41.148 119.5c4.404 12.791-2.395 26.731-15.186 31.135l-119.5 41.148c-12.792 4.404-26.731-2.395-31.135-15.186l-41.148-119.5c-4.404-12.792 2.395-26.731 15.186-31.135z"/>
        <g transform="translate(79 41.458)">
            <use fill="#F3DCFF" xlink:href="#b"/>
            <use fill="#000" filter="url(#c)" xlink:href="#b"/>
            <use stroke="url(#d)" stroke-width="2.2" xlink:href="#b"/>
        </g>
        <g transform="translate(79 41.458)">
            <use fill="#FFF" xlink:href="#e"/>
            <use fill="#000" filter="url(#f)" xlink:href="#e"/>
            <use stroke="url(#g)" stroke-width="2.204" xlink:href="#e"/>
        </g>
        <g transform="translate(79 41)">
            <use fill="#000" filter="url(#h)" xlink:href="#i"/>
            <use fill="#AC53FF" xlink:href="#i"/>
        </g>
        <path fill="url(#j)" d="M81.94 159.82c19.465 0 35.244-15.814 35.244-35.32s-15.78-35.32-35.243-35.32c-19.465 0-35.244 15.814-35.244 35.32s15.78 35.32 35.244 35.32zm-10.148-53.866l15.39 18.796-15.39 18.796a4.4 4.4 0 0 1-3.95-4.377l.001-28.837a4.4 4.4 0 0 1 3.95-4.378zm16.643 20.327l4.736 5.785-18.113 10.554 13.377-16.339zm6.434-7.859l5.64 3.287a3.52 3.52 0 0 1 0 6.083l-5.64 3.285-5.18-6.327 5.18-6.328zm-19.814-11.545l18.116 10.556-4.737 5.785-13.379-16.34z" transform="translate(79 41)"/>
        <g>
            <g transform="translate(168 90)">
                <use fill="#F3DCFF" xlink:href="#k"/>
                <use fill="#000" filter="url(#l)" xlink:href="#k"/>
                <use stroke="url(#m)" stroke-width="2.2" xlink:href="#k"/>
            </g>
            <g transform="translate(168 90)">
                <use fill="#FFF" xlink:href="#n"/>
                <use fill="#000" filter="url(#o)" xlink:href="#n"/>
                <use stroke="url(#p)" stroke-width="2.204" xlink:href="#n"/>
            </g>
            <path fill="url(#q)" d="M35 0c19.33 0 35 15.67 35 35S54.33 70 35 70 0 54.33 0 35 15.67 0 35 0zm4.192 23.608c-1.707 1.405-3.435 5.576-1.02 9.74l10.68 18.414a2.895 2.895 0 0 0 3.945 1.052 2.867 2.867 0 0 0 1.056-3.926l-2.822-4.867h4.181a2.881 2.881 0 0 0 2.888-2.874 2.881 2.881 0 0 0-2.888-2.874h-7.515l-8.505-14.665zM23.775 46.975c-1.488-1.805-3.393-2.353-5.716-1.643L16 48.882l-.005.01a2.873 2.873 0 0 0 1.059 3.922 2.896 2.896 0 0 0 3.948-1.057zm16.379-33.99a2.895 2.895 0 0 0-3.944 1.053l-1.285 2.214-1.284-2.214-.096-.155a2.896 2.896 0 0 0-3.848-.897 2.867 2.867 0 0 0-1.057 3.926l2.951 5.089-9.437 16.272h-7.367l-.17.004a2.88 2.88 0 0 0-2.717 2.87 2.881 2.881 0 0 0 2.887 2.874H41.05l.079-.154c1.118-2.34-.51-5.594-3.344-5.594h-8.963l12.389-21.36.086-.161a2.868 2.868 0 0 0-1.143-3.766z" transform="translate(214 188)"/>
            <g transform="translate(168 90)">
                <use fill="#000" filter="url(#r)" xlink:href="#s"/>
                <use fill="#AC52FF" xlink:href="#s"/>
            </g>
        </g>
    </g>
</svg>
