<svg xmlns="http://www.w3.org/2000/svg" xmlns:xlink="http://www.w3.org/1999/xlink" width="410" height="410" viewBox="0 0 410 410">
    <defs>
        <linearGradient id="a" x1="50%" x2="50%" y1="0%" y2="100%">
            <stop offset="0%" stop-color="#12C8FC"/>
            <stop offset="100%" stop-color="#1860ED"/>
        </linearGradient>
        <linearGradient id="d" x1="50%" x2="50%" y1="0%" y2="100%">
            <stop offset="0%" stop-color="#12C8FC"/>
            <stop offset="100%" stop-color="#1860ED"/>
        </linearGradient>
        <path id="b" d="M70 .53c12.716 0 25.433 1.354 38.15 4.061a10 10 0 0 1 7.899 9.179l1.738 28.794a25.004 25.004 0 0 0 8.116 16.974C134.21 63.246 140 71.579 140 81.265v126.432c0 10.04-6.22 18.626-15.016 22.116a25 25 0 0 0-7.197 16.091l-1.738 28.794a10 10 0 0 1-7.9 9.179c-12.716 2.707-25.433 4.06-38.149 4.06-12.716 0-25.433-1.353-38.15-4.06a10 10 0 0 1-7.899-9.179l-1.738-28.794a25.005 25.005 0 0 0-7.196-16.092C6.22 226.322 0 217.736 0 207.697V81.265c0-9.686 5.79-18.02 14.097-21.728a24.998 24.998 0 0 0 8.116-16.973l1.738-28.794a10 10 0 0 1 7.9-9.179C44.567 1.884 57.284.531 70 .531z"/>
        <filter id="c" width="103.6%" height="101.7%" x="-1.8%" y="-.9%" filterUnits="objectBoundingBox">
            <feOffset dy="3" in="SourceAlpha" result="shadowOffsetInner1"/>
            <feComposite in="shadowOffsetInner1" in2="SourceAlpha" k2="-1" k3="1" operator="arithmetic" result="shadowInnerInner1"/>
            <feColorMatrix in="shadowInnerInner1" values="0 0 0 0 1 0 0 0 0 1 0 0 0 0 1 0 0 0 1 0"/>
        </filter>
        <linearGradient id="g" x1="50%" x2="50%" y1="0%" y2="100%">
            <stop offset="0%" stop-color="#12C8FC"/>
            <stop offset="100%" stop-color="#1860ED"/>
        </linearGradient>
        <rect id="e" width="126" height="161" x="7" y="63.481" rx="17"/>
        <filter id="f" width="104.8%" height="103.7%" x="-2.4%" y="-1.9%" filterUnits="objectBoundingBox">
            <feOffset dy="4" in="SourceAlpha" result="shadowOffsetInner1"/>
            <feComposite in="shadowOffsetInner1" in2="SourceAlpha" k2="-1" k3="1" operator="arithmetic" result="shadowInnerInner1"/>
            <feColorMatrix in="shadowInnerInner1" result="shadowMatrixInner1" values="0 0 0 0 0 0 0 0 0 0.623529412 0 0 0 0 1 0 0 0 0.15 0"/>
            <feOffset dy="-4" in="SourceAlpha" result="shadowOffsetInner2"/>
            <feComposite in="shadowOffsetInner2" in2="SourceAlpha" k2="-1" k3="1" operator="arithmetic" result="shadowInnerInner2"/>
            <feColorMatrix in="shadowInnerInner2" result="shadowMatrixInner2" values="0 0 0 0 0.0941176471 0 0 0 0 0.419607843 0 0 0 0 0.937254902 0 0 0 0.2 0"/>
            <feMerge>
                <feMergeNode in="shadowMatrixInner1"/>
                <feMergeNode in="shadowMatrixInner2"/>
            </feMerge>
        </filter>
        <linearGradient id="j" x1="50%" x2="50%" y1="0%" y2="100%">
            <stop offset="0%" stop-color="#12C8FC"/>
            <stop offset="100%" stop-color="#1860ED"/>
        </linearGradient>
        <path id="h" d="M139.642 89.48h4.558a3 3 0 0 1 2.993 2.794l.333 4.827a100 100 0 0 1 0 13.76l-.333 4.826a3 3 0 0 1-2.993 2.794h-4.558a65.906 65.906 0 0 1 0-29z"/>
        <filter id="i" width="147.8%" height="117.2%" x="-25.1%" y="-8.6%" filterUnits="objectBoundingBox">
            <feOffset dy="3" in="SourceAlpha" result="shadowOffsetInner1"/>
            <feComposite in="shadowOffsetInner1" in2="SourceAlpha" k2="-1" k3="1" operator="arithmetic" result="shadowInnerInner1"/>
            <feColorMatrix in="shadowInnerInner1" values="0 0 0 0 1 0 0 0 0 1 0 0 0 0 1 0 0 0 1 0"/>
        </filter>
    </defs>
    <g fill="none" fill-rule="evenodd">
        <path fill="url(#a)" fill-rule="nonzero" d="M207 17.5c11.322 0 20.5 9.178 20.5 20.5s-9.178 20.5-20.5 20.5c-82.014 0-148.5 66.486-148.5 148.5S124.986 355.5 207 355.5 355.5 289.014 355.5 207c0-11.322 9.178-20.5 20.5-20.5s20.5 9.178 20.5 20.5c0 104.658-84.842 189.5-189.5 189.5S17.5 311.658 17.5 207 102.342 17.5 207 17.5z" opacity=".2" transform="rotate(75 207.303 204.697)"/>
        <path fill="url(#a)" fill-rule="nonzero" d="M347.5 207c0 11.322-9.178 20.5-20.5 20.5s-20.5-9.178-20.5-20.5c0-54.952-44.548-99.5-99.5-99.5s-99.5 44.548-99.5 99.5 44.548 99.5 99.5 99.5c11.322 0 20.5 9.178 20.5 20.5s-9.178 20.5-20.5 20.5c-77.596 0-140.5-62.904-140.5-140.5S129.404 66.5 207 66.5 347.5 129.404 347.5 207z" opacity=".5" transform="translate(-2 -2)"/>
        <g transform="translate(135 60.52)">
            <use fill="#DCF2FF" xlink:href="#b"/>
            <use fill="#000" filter="url(#c)" xlink:href="#b"/>
            <use stroke="url(#d)" stroke-width="2" xlink:href="#b"/>
        </g>
        <g transform="translate(135 60.52)">
            <use fill="#FFF" xlink:href="#e"/>
            <use fill="#000" filter="url(#f)" xlink:href="#e"/>
            <use stroke="url(#g)" stroke-width="2" xlink:href="#e"/>
        </g>
        <g transform="translate(135 60.52)">
            <use fill="#DCF2FF" xlink:href="#h"/>
            <use fill="#000" filter="url(#i)" xlink:href="#h"/>
            <use stroke="url(#j)" stroke-width="2" xlink:href="#h"/>
        </g>
        <path fill="url(#a)" d="M40 0c22.091 0 40 17.909 40 40S62.091 80 40 80 0 62.091 0 40 17.909 0 40 0zm4.79 26.98c-1.95 1.606-3.924 6.373-1.164 11.133L55.83 59.157a3.308 3.308 0 0 0 4.508 1.202 3.277 3.277 0 0 0 1.208-4.487L58.32 50.31H63.1c1.823 0 3.3-1.47 3.3-3.285a3.293 3.293 0 0 0-3.3-3.285h-8.59l-9.72-16.76zM27.171 53.687c-1.7-2.063-3.878-2.689-6.532-1.878l-2.353 4.057a3.283 3.283 0 0 0 1.204 4.494 3.31 3.31 0 0 0 4.512-1.209zm18.72-38.845a3.308 3.308 0 0 0-4.509 1.202l-1.467 2.53-1.468-2.53-.102-.164a3.31 3.31 0 0 0-4.406-1.038 3.277 3.277 0 0 0-1.208 4.487l3.373 5.816L25.32 43.74H16.9l-.187.005a3.292 3.292 0 0 0-3.113 3.28 3.293 3.293 0 0 0 3.3 3.285h30.014l.083-.162c1.292-2.676-.569-6.408-3.814-6.408H32.94l14.158-24.412.092-.17a3.277 3.277 0 0 0-1.3-4.317z" transform="translate(165 165.52)"/>
    </g>
</svg>
