<svg xmlns="http://www.w3.org/2000/svg" xmlns:xlink="http://www.w3.org/1999/xlink" width="410" height="410" viewBox="0 0 410 410">
    <defs>
        <linearGradient id="a" x1="0%" y1="0%" y2="100%">
            <stop offset="0%" stop-color="#AC53FF"/>
            <stop offset="100%" stop-color="#4439FF"/>
        </linearGradient>
        <linearGradient id="d" x1="50%" x2="50%" y1="0%" y2="100%">
            <stop offset="0%" stop-color="#AC53FF"/>
            <stop offset="100%" stop-color="#4439FF"/>
        </linearGradient>
        <rect id="b" width="127" height="268" rx="19.36"/>
        <filter id="c" width="103.3%" height="101.6%" x="-1.7%" y="-.8%" filterUnits="objectBoundingBox">
            <feOffset dy="2" in="SourceAlpha" result="shadowOffsetInner1"/>
            <feComposite in="shadowOffsetInner1" in2="SourceAlpha" k2="-1" k3="1" operator="arithmetic" result="shadowInnerInner1"/>
            <feColorMatrix in="shadowInnerInner1" values="0 0 0 0 1 0 0 0 0 1 0 0 0 0 1 0 0 0 1 0"/>
        </filter>
        <linearGradient id="g" x1="50%" x2="50%" y1="0%" y2="100%">
            <stop offset="0%" stop-color="#AC53FF"/>
            <stop offset="100%" stop-color="#4439FF"/>
        </linearGradient>
        <rect id="e" width="115.957" height="243.836" x="5.522" y="13.18" rx="7.012"/>
        <filter id="f" width="104.5%" height="102.1%" x="-2.2%" y="-1.1%" filterUnits="objectBoundingBox">
            <feOffset dy="3" in="SourceAlpha" result="shadowOffsetInner1"/>
            <feComposite in="shadowOffsetInner1" in2="SourceAlpha" k2="-1" k3="1" operator="arithmetic" result="shadowInnerInner1"/>
            <feColorMatrix in="shadowInnerInner1" result="shadowMatrixInner1" values="0 0 0 0 0.632133152 0 0 0 0 0 0 0 0 0 1 0 0 0 0.15 0"/>
            <feOffset dy="-3" in="SourceAlpha" result="shadowOffsetInner2"/>
            <feComposite in="shadowOffsetInner2" in2="SourceAlpha" k2="-1" k3="1" operator="arithmetic" result="shadowInnerInner2"/>
            <feColorMatrix in="shadowInnerInner2" result="shadowMatrixInner2" values="0 0 0 0 0.378078565 0 0 0 0 0.0752805963 0 0 0 0 0.907233206 0 0 0 0.2 0"/>
            <feMerge>
                <feMergeNode in="shadowMatrixInner1"/>
                <feMergeNode in="shadowMatrixInner2"/>
            </feMerge>
        </filter>
        <path id="i" d="M89.958 4.393a1.76 1.76 0 0 1 1.764 1.758c0 .97-.79 1.757-1.764 1.757a1.76 1.76 0 0 1-1.764-1.757c0-.97.79-1.758 1.764-1.758zm-59.972 0a1.76 1.76 0 0 1 1.764 1.758c0 .97-.79 1.757-1.764 1.757a1.76 1.76 0 0 1-1.764-1.757c0-.97.79-1.758 1.764-1.758zm40.572.88a.88.88 0 0 1 .88.88v.436a.88.88 0 0 1-.88.88H56.442a.88.88 0 0 1-.88-.88v-.437a.88.88 0 0 1 .88-.88h14.116zm-29.107 0a.88.88 0 0 1 .882.878.88.88 0 0 1-.882.879.88.88 0 0 1-.882-.88.88.88 0 0 1 .882-.878zm55.563 0a.88.88 0 0 1 .882.878.88.88 0 0 1-.882.879.88.88 0 0 1-.882-.88.88.88 0 0 1 .882-.878zm-59.972 0a.88.88 0 0 1 .882.878.88.88 0 0 1-.882.879.88.88 0 0 1-.882-.88.88.88 0 0 1 .882-.878z"/>
        <filter id="h" width="101.4%" height="156.9%" x="-.7%" y="-14.2%" filterUnits="objectBoundingBox">
            <feOffset dy="1" in="SourceAlpha" result="shadowOffsetOuter1"/>
            <feColorMatrix in="shadowOffsetOuter1" values="0 0 0 0 1 0 0 0 0 1 0 0 0 0 1 0 0 0 1 0"/>
        </filter>
        <linearGradient id="j" x1="50%" x2="50%" y1="0%" y2="100%">
            <stop offset="0%" stop-color="#AC53FF"/>
            <stop offset="100%" stop-color="#4439FF"/>
        </linearGradient>
        <linearGradient id="m" x1="50%" x2="50%" y1="0%" y2="100%">
            <stop offset="0%" stop-color="#AC53FF"/>
            <stop offset="100%" stop-color="#4439FF"/>
        </linearGradient>
        <rect id="k" width="132" height="267.121" y=".423" rx="20.93"/>
        <filter id="l" width="103.2%" height="101.6%" x="-1.6%" y="-.8%" filterUnits="objectBoundingBox">
            <feOffset dy="2" in="SourceAlpha" result="shadowOffsetInner1"/>
            <feComposite in="shadowOffsetInner1" in2="SourceAlpha" k2="-1" k3="1" operator="arithmetic" result="shadowInnerInner1"/>
            <feColorMatrix in="shadowInnerInner1" values="0 0 0 0 1 0 0 0 0 1 0 0 0 0 1 0 0 0 1 0"/>
        </filter>
        <linearGradient id="p" x1="50%" x2="50%" y1="0%" y2="100%">
            <stop offset="0%" stop-color="#AC53FF"/>
            <stop offset="100%" stop-color="#4439FF"/>
        </linearGradient>
        <path id="n" d="M111.512 5.492c8.278 0 14.988 6.71 14.988 14.987v225.943c0 8.278-6.71 14.988-14.988 14.988H21.588c-8.278 0-14.988-6.71-14.988-14.988V20.48c0-8.277 6.71-14.987 14.988-14.987h11.475a9.32 9.32 0 0 0 9.305 8.794h48.364a9.32 9.32 0 0 0 9.305-8.794h11.475z"/>
        <filter id="o" width="104.3%" height="102%" x="-2.2%" y="-1%" filterUnits="objectBoundingBox">
            <feOffset dy="3" in="SourceAlpha" result="shadowOffsetInner1"/>
            <feComposite in="shadowOffsetInner1" in2="SourceAlpha" k2="-1" k3="1" operator="arithmetic" result="shadowInnerInner1"/>
            <feColorMatrix in="shadowInnerInner1" result="shadowMatrixInner1" values="0 0 0 0 0.632133152 0 0 0 0 0 0 0 0 0 1 0 0 0 0.15 0"/>
            <feOffset dy="-3" in="SourceAlpha" result="shadowOffsetInner2"/>
            <feComposite in="shadowOffsetInner2" in2="SourceAlpha" k2="-1" k3="1" operator="arithmetic" result="shadowInnerInner2"/>
            <feColorMatrix in="shadowInnerInner2" result="shadowMatrixInner2" values="0 0 0 0 0.378078565 0 0 0 0 0.0752805963 0 0 0 0 0.907233206 0 0 0 0.2 0"/>
            <feMerge>
                <feMergeNode in="shadowMatrixInner1"/>
                <feMergeNode in="shadowMatrixInner2"/>
            </feMerge>
        </filter>
        <path id="r" d="M51.044 4.816a2.636 2.636 0 0 1 0 5.272h-.008a2.636 2.636 0 1 1 0-5.272h.008zm28.159.879a1.757 1.757 0 0 1 0 3.514H58.957a1.757 1.757 0 0 1 0-3.514h20.246z"/>
        <filter id="q" width="106.1%" height="175.9%" x="-3.1%" y="-19%" filterUnits="objectBoundingBox">
            <feOffset dy="2" in="SourceAlpha" result="shadowOffsetOuter1"/>
            <feColorMatrix in="shadowOffsetOuter1" values="0 0 0 0 1 0 0 0 0 1 0 0 0 0 1 0 0 0 1 0"/>
        </filter>
    </defs>
    <g fill="none" fill-rule="evenodd">
        <g fill="url(#a)" transform="translate(13 13)">
            <circle cx="192" cy="192" r="192" opacity=".2"/>
            <circle cx="192" cy="196" r="150" opacity=".5"/>
            <circle cx="192" cy="192" r="107"/>
        </g>
        <g transform="translate(99 49)">
            <use fill="#F3DCFF" xlink:href="#b"/>
            <use fill="#000" filter="url(#c)" xlink:href="#b"/>
            <use stroke="url(#d)" stroke-width="2.2" xlink:href="#b"/>
        </g>
        <g transform="translate(99 49)">
            <use fill="#FFF" xlink:href="#e"/>
            <use fill="#000" filter="url(#f)" xlink:href="#e"/>
            <use stroke="url(#g)" stroke-width="2.204" xlink:href="#e"/>
        </g>
        <g transform="translate(99 49)">
            <use fill="#000" filter="url(#h)" xlink:href="#i"/>
            <use fill="#AC52FF" xlink:href="#i"/>
        </g>
        <path fill="url(#j)" d="M63 169c19.33 0 35-15.67 35-35S82.33 99 63 99s-35 15.67-35 35 15.67 35 35 35zm-10.08-53.383l15.284 18.631-15.284 18.63a4.365 4.365 0 0 1-3.92-4.343V119.96c0-2.26 1.718-4.12 3.92-4.343zm16.53 20.149l4.703 5.732-17.989 10.459 13.286-16.191zm6.39-7.789l5.592 3.252a3.492 3.492 0 0 1 0 6.038l-5.592 3.25-5.145-6.27 5.145-6.27zm-19.677-11.44l17.991 10.46-4.704 5.733-13.287-16.193z" transform="translate(99 49)"/>
        <g>
            <g transform="translate(179 82)">
                <use fill="#F3DCFF" xlink:href="#k"/>
                <use fill="#000" filter="url(#l)" xlink:href="#k"/>
                <use stroke="url(#m)" stroke-width="2.2" xlink:href="#k"/>
            </g>
            <g transform="translate(179 82)">
                <use fill="#FFF" xlink:href="#n"/>
                <use fill="#000" filter="url(#o)" xlink:href="#n"/>
                <use stroke="url(#p)" stroke-width="2.204" xlink:href="#n"/>
            </g>
            <path fill="url(#j)" d="M35 0c19.33 0 35 15.67 35 35S54.33 70 35 70 0 54.33 0 35 15.67 0 35 0zm4.192 23.608c-1.707 1.405-3.435 5.576-1.02 9.74l10.68 18.414a2.895 2.895 0 0 0 3.945 1.052 2.867 2.867 0 0 0 1.056-3.926l-2.822-4.867h4.181a2.881 2.881 0 0 0 2.888-2.874 2.881 2.881 0 0 0-2.888-2.874h-7.515l-8.505-14.665zM23.775 46.975c-1.488-1.805-3.393-2.353-5.716-1.643L16 48.882l-.005.01a2.873 2.873 0 0 0 1.059 3.922 2.896 2.896 0 0 0 3.948-1.057zm16.379-33.99a2.895 2.895 0 0 0-3.944 1.053l-1.285 2.214-1.284-2.214-.096-.155a2.896 2.896 0 0 0-3.848-.897 2.867 2.867 0 0 0-1.057 3.926l2.951 5.089-9.437 16.272h-7.367l-.17.004a2.88 2.88 0 0 0-2.717 2.87 2.881 2.881 0 0 0 2.887 2.874H41.05l.079-.154c1.118-2.34-.51-5.594-3.344-5.594h-8.963l12.389-21.36.086-.161a2.868 2.868 0 0 0-1.143-3.766z" transform="translate(210 181)"/>
            <g transform="translate(179 82)">
                <use fill="#000" filter="url(#q)" xlink:href="#r"/>
                <use fill="#AC52FF" xlink:href="#r"/>
            </g>
        </g>
    </g>
</svg>
