<svg xmlns="http://www.w3.org/2000/svg" xmlns:xlink="http://www.w3.org/1999/xlink" width="410" height="410" viewBox="0 0 410 410">
    <defs>
        <linearGradient id="a" x1="38.25%" x2="67.372%" y1="0%" y2="97.952%">
            <stop offset="0%" stop-color="#7BCD59"/>
            <stop offset="100%" stop-color="#029E48"/>
        </linearGradient>
        <linearGradient id="b" x1="16.757%" x2="82.054%" y1="3.065%" y2="95.333%">
            <stop offset="0%" stop-color="#7BCD59"/>
            <stop offset="100%" stop-color="#029E48"/>
        </linearGradient>
        <linearGradient id="c" x1="0%" x2="97.521%" y1="27.015%" y2="72.532%">
            <stop offset="0%" stop-color="#7BCD59"/>
            <stop offset="100%" stop-color="#029E48"/>
        </linearGradient>
        <linearGradient id="f" x1="50%" x2="50%" y1="0%" y2="100%">
            <stop offset="0%" stop-color="#7BCD59"/>
            <stop offset="100%" stop-color="#029E48"/>
        </linearGradient>
        <rect id="d" width="185" height="280" y=".481" rx="10"/>
        <filter id="e" width="102.7%" height="101.8%" x="-1.4%" y="-.9%" filterUnits="objectBoundingBox">
            <feOffset dy="3" in="SourceAlpha" result="shadowOffsetInner1"/>
            <feComposite in="shadowOffsetInner1" in2="SourceAlpha" k2="-1" k3="1" operator="arithmetic" result="shadowInnerInner1"/>
            <feColorMatrix in="shadowInnerInner1" values="0 0 0 0 1 0 0 0 0 1 0 0 0 0 1 0 0 0 1 0"/>
        </filter>
        <linearGradient id="i" x1="50%" x2="50%" y1="0%" y2="100%">
            <stop offset="0%" stop-color="#7BCD59"/>
            <stop offset="100%" stop-color="#029E48"/>
        </linearGradient>
        <rect id="g" width="173" height="247" x="6" y="16.481" rx="4"/>
        <filter id="h" width="103.5%" height="102.4%" x="-1.7%" y="-1.2%" filterUnits="objectBoundingBox">
            <feOffset dy="4" in="SourceAlpha" result="shadowOffsetInner1"/>
            <feComposite in="shadowOffsetInner1" in2="SourceAlpha" k2="-1" k3="1" operator="arithmetic" result="shadowInnerInner1"/>
            <feColorMatrix in="shadowInnerInner1" result="shadowMatrixInner1" values="0 0 0 0 0.0429545581 0 0 0 0 0.778991284 0 0 0 0 0.0995823836 0 0 0 0.15 0"/>
            <feOffset dy="-4" in="SourceAlpha" result="shadowOffsetInner2"/>
            <feComposite in="shadowOffsetInner2" in2="SourceAlpha" k2="-1" k3="1" operator="arithmetic" result="shadowInnerInner2"/>
            <feColorMatrix in="shadowInnerInner2" result="shadowMatrixInner2" values="0 0 0 0 0.0422931651 0 0 0 0 0.660023384 0 0 0 0 0.103667516 0 0 0 0.2 0"/>
            <feMerge>
                <feMergeNode in="shadowMatrixInner1"/>
                <feMergeNode in="shadowMatrixInner2"/>
            </feMerge>
        </filter>
        <linearGradient id="j" x1="17.361%" y1="5.597%" y2="100%">
            <stop offset="0%" stop-color="#7BCD59"/>
            <stop offset="100%" stop-color="#029E48"/>
        </linearGradient>
        <path id="l" d="M204 59a2 2 0 1 1 0 4 2 2 0 0 1 0-4zm-7 1a1 1 0 1 1 0 2 1 1 0 0 1 0-2z"/>
        <filter id="k" width="110%" height="150%" x="-5%" y="-12.5%" filterUnits="objectBoundingBox">
            <feOffset dy="1" in="SourceAlpha" result="shadowOffsetOuter1"/>
            <feColorMatrix in="shadowOffsetOuter1" values="0 0 0 0 1 0 0 0 0 1 0 0 0 0 1 0 0 0 1 0"/>
        </filter>
    </defs>
    <g fill="none" fill-rule="evenodd">
        <path fill="url(#a)" d="M158.439 16.213l210.35 84.987c22.515 9.097 33.393 34.724 24.296 57.239l-84.987 210.35c-9.097 22.515-34.723 33.393-57.239 24.296L40.51 308.098c-22.515-9.097-33.392-34.723-24.296-57.239L101.2 40.51c9.097-22.515 34.724-33.392 57.239-24.296z" opacity=".2"/>
        <path fill="url(#b)" d="M142.311 68.634l173.007 33.63c18.518 3.599 30.612 21.529 27.013 40.047L308.7 315.318c-3.599 18.518-21.53 30.612-40.047 27.013L95.647 308.7c-18.519-3.599-30.613-21.53-27.013-40.047l33.63-173.007c3.599-18.519 21.529-30.613 40.047-27.013z" opacity=".5"/>
        <path fill="url(#c)" d="M116.527 142.489l119.5-41.148c12.791-4.404 26.731 2.395 31.135 15.186l41.148 119.5c4.404 12.791-2.395 26.731-15.186 31.135l-119.5 41.148c-12.792 4.404-26.731-2.395-31.135-15.186l-41.148-119.5c-4.404-12.792 2.395-26.731 15.186-31.135z"/>
        <g transform="translate(112 52.52)">
            <use fill="#E0FFDC" xlink:href="#d"/>
            <use fill="#000" filter="url(#e)" xlink:href="#d"/>
            <use stroke="url(#f)" stroke-width="2" xlink:href="#d"/>
        </g>
        <g transform="translate(112 52.52)">
            <use fill="#FFF" xlink:href="#g"/>
            <use fill="#000" filter="url(#h)" xlink:href="#g"/>
            <use stroke="url(#i)" stroke-width="2" xlink:href="#g"/>
        </g>
        <path fill="url(#j)" d="M205 233c22.091 0 40-17.909 40-40s-17.909-40-40-40-40 17.909-40 40 17.909 40 40 40zm-11.514-61l17.462 21.283-17.463 21.283a5 5 0 0 1-4.485-4.974v-32.618a5 5 0 0 1 4.486-4.974zm18.885 23.017l5.376 6.552-20.561 11.954 15.185-18.506zm7.303-8.9l6.378 3.708a4 4 0 0 1 0 6.916l-6.378 3.708-5.88-7.166 5.88-7.166zm-22.489-13.075l20.562 11.955-5.376 6.552-15.186-18.507z"/>
        <g>
            <use fill="#000" filter="url(#k)" xlink:href="#l"/>
            <use fill="#7BCD59" xlink:href="#l"/>
        </g>
    </g>
</svg>
