<svg xmlns="http://www.w3.org/2000/svg" xmlns:xlink="http://www.w3.org/1999/xlink" width="410" height="410" viewBox="0 0 410 410">
    <defs>
        <linearGradient id="a" x1="50%" x2="50%" y1="0%" y2="100%">
            <stop offset="0%" stop-color="#7BCD59"/>
            <stop offset="100%" stop-color="#029E48"/>
        </linearGradient>
        <linearGradient id="d" x1="50%" x2="50%" y1="0%" y2="100%">
            <stop offset="0%" stop-color="#7BCD59"/>
            <stop offset="100%" stop-color="#029E48"/>
        </linearGradient>
        <path id="b" d="M196.778 129.691l5.88-2.438a4.36 4.36 0 0 0 2.573-5.032 92.922 92.922 0 0 0-4.999-15.205c-1.985-4.636-4.275-8.922-6.872-12.858a4.36 4.36 0 0 0-5.806-1.383l-5.229 2.995 14.453 33.921z"/>
        <filter id="c" width="122.9%" height="114.1%" x="-12%" y="-6.7%" filterUnits="objectBoundingBox">
            <feOffset dy="3" in="SourceAlpha" result="shadowOffsetInner1"/>
            <feComposite in="shadowOffsetInner1" in2="SourceAlpha" k2="-1" k3="1" operator="arithmetic" result="shadowInnerInner1"/>
            <feColorMatrix in="shadowInnerInner1" values="0 0 0 0 1 0 0 0 0 1 0 0 0 0 1 0 0 0 1 0"/>
        </filter>
        <linearGradient id="g" x1="50%" x2="50%" y1="100%" y2="0%">
            <stop offset="0%" stop-color="#7BCD59"/>
            <stop offset="100%" stop-color="#029E48"/>
        </linearGradient>
        <path id="e" d="M196.778 209.691l5.88-2.438a4.36 4.36 0 0 0 2.573-5.032 92.922 92.922 0 0 0-4.999-15.205c-1.985-4.636-4.275-8.922-6.872-12.858a4.36 4.36 0 0 0-5.806-1.383l-5.229 2.995 14.453 33.921z"/>
        <filter id="f" width="122.9%" height="114.1%" x="-12%" y="-6.7%" filterUnits="objectBoundingBox">
            <feOffset dy="-3" in="SourceAlpha" result="shadowOffsetInner1"/>
            <feComposite in="shadowOffsetInner1" in2="SourceAlpha" k2="-1" k3="1" operator="arithmetic" result="shadowInnerInner1"/>
            <feColorMatrix in="shadowInnerInner1" values="0 0 0 0 1 0 0 0 0 1 0 0 0 0 1 0 0 0 1 0"/>
        </filter>
        <linearGradient id="j" x1="50%" x2="50%" y1="0%" y2="100%">
            <stop offset="0%" stop-color="#7BCD59"/>
            <stop offset="100%" stop-color="#029E48"/>
        </linearGradient>
        <path id="h" d="M189.487 204.906l-22.335 40.927a109.05 109.05 0 0 0-10.462 27.413l-5.02 21.472a6.54 6.54 0 0 1-5.395 4.978A294.668 294.668 0 0 1 102.366 303a294.668 294.668 0 0 1-43.908-3.304 6.54 6.54 0 0 1-5.395-4.978l-5.022-21.48a109 109 0 0 0-10.458-27.4l-22.337-40.932h174.24zM102.367 0c14.636 0 29.272 1.101 43.908 3.304a6.54 6.54 0 0 1 5.395 4.978l5.022 21.48a109 109 0 0 0 10.458 27.4l22.337 40.932H15.247L37.58 57.167a109.05 109.05 0 0 0 10.462-27.413l5.02-21.472a6.54 6.54 0 0 1 5.395-4.978A294.668 294.668 0 0 1 102.366 0z"/>
        <filter id="i" width="103.7%" height="101.7%" x="-1.8%" y="-.8%" filterUnits="objectBoundingBox">
            <feOffset dy="3" in="SourceAlpha" result="shadowOffsetInner1"/>
            <feComposite in="shadowOffsetInner1" in2="SourceAlpha" k2="-1" k3="1" operator="arithmetic" result="shadowInnerInner1"/>
            <feColorMatrix in="shadowInnerInner1" values="0 0 0 0 1 0 0 0 0 1 0 0 0 0 1 0 0 0 1 0"/>
        </filter>
        <linearGradient id="m" x1="50%" x2="50%" y1="0%" y2="100%">
            <stop offset="0%" stop-color="#7BCD59"/>
            <stop offset="100%" stop-color="#029E48"/>
        </linearGradient>
        <ellipse id="k" cx="102.366" cy="151.5" rx="102.366" ry="102.453"/>
        <filter id="l" width="102.4%" height="102.4%" x="-1.2%" y="-1.2%" filterUnits="objectBoundingBox">
            <feOffset dy="3" in="SourceAlpha" result="shadowOffsetInner1"/>
            <feComposite in="shadowOffsetInner1" in2="SourceAlpha" k2="-1" k3="1" operator="arithmetic" result="shadowInnerInner1"/>
            <feColorMatrix in="shadowInnerInner1" values="0 0 0 0 1 0 0 0 0 1 0 0 0 0 1 0 0 0 1 0"/>
        </filter>
        <linearGradient id="p" x1="50%" x2="50%" y1="0%" y2="100%">
            <stop offset="0%" stop-color="#7BCD59"/>
            <stop offset="100%" stop-color="#029E48"/>
        </linearGradient>
        <ellipse id="n" cx="102.366" cy="151.5" rx="83.853" ry="83.924"/>
        <filter id="o" width="103.6%" height="103.6%" x="-1.8%" y="-1.8%" filterUnits="objectBoundingBox">
            <feOffset dy="4" in="SourceAlpha" result="shadowOffsetInner1"/>
            <feComposite in="shadowOffsetInner1" in2="SourceAlpha" k2="-1" k3="1" operator="arithmetic" result="shadowInnerInner1"/>
            <feColorMatrix in="shadowInnerInner1" result="shadowMatrixInner1" values="0 0 0 0 0.0429545581 0 0 0 0 0.778991284 0 0 0 0 0.0995823836 0 0 0 0.15 0"/>
            <feOffset dy="-4" in="SourceAlpha" result="shadowOffsetInner2"/>
            <feComposite in="shadowOffsetInner2" in2="SourceAlpha" k2="-1" k3="1" operator="arithmetic" result="shadowInnerInner2"/>
            <feColorMatrix in="shadowInnerInner2" result="shadowMatrixInner2" values="0 0 0 0 0.0422931651 0 0 0 0 0.660023384 0 0 0 0 0.103667516 0 0 0 0.2 0"/>
            <feMerge>
                <feMergeNode in="shadowMatrixInner1"/>
                <feMergeNode in="shadowMatrixInner2"/>
            </feMerge>
        </filter>
        <linearGradient id="q" x1="17.416%" x2="99.915%" y1="5.597%" y2="100%">
            <stop offset="0%" stop-color="#7BCD59"/>
            <stop offset="100%" stop-color="#029E48"/>
        </linearGradient>
    </defs>
    <g fill="none" fill-rule="evenodd">
        <g fill="url(#a)" fill-rule="nonzero" transform="translate(-28 -28)">
            <path d="M416.043 183.954c2.93 10.936-3.56 22.177-14.496 25.107-10.936 2.93-22.177-3.56-25.107-14.496-21.227-79.22-102.655-126.232-181.875-105.005-79.22 21.227-126.232 102.655-105.005 181.875 21.227 79.22 102.655 126.232 181.875 105.005 10.936-2.93 22.177 3.56 25.107 14.496 2.93 10.936-3.56 22.177-14.496 25.107C180.954 443.13 77.045 383.138 49.957 282.046 22.87 180.954 82.862 77.045 183.954 49.957 285.046 22.87 388.955 82.862 416.043 183.954z" opacity=".2"/>
            <path d="M373.5 233c0 11.322-9.178 20.5-20.5 20.5s-20.5-9.178-20.5-20.5c0-54.952-44.548-99.5-99.5-99.5s-99.5 44.548-99.5 99.5 44.548 99.5 99.5 99.5c11.322 0 20.5 9.178 20.5 20.5s-9.178 20.5-20.5 20.5c-77.596 0-140.5-62.904-140.5-140.5S155.404 92.5 233 92.5 373.5 155.404 373.5 233z" opacity=".5"/>
        </g>
        <g transform="rotate(-1 3338.23 -5648.782)">
            <use fill="#E0FFDC" xlink:href="#b"/>
            <use fill="#000" filter="url(#c)" xlink:href="#b"/>
            <use stroke="url(#d)" stroke-width="2" xlink:href="#b"/>
        </g>
        <g transform="scale(1 -1) rotate(-1 -24729.644 -5813.727)">
            <use fill="#E0FFDC" xlink:href="#e"/>
            <use fill="#000" filter="url(#f)" xlink:href="#e"/>
            <use stroke="url(#g)" stroke-width="2" xlink:href="#e"/>
        </g>
        <g transform="translate(101 54)">
            <use fill="#E0FFDC" xlink:href="#h"/>
            <use fill="#000" filter="url(#i)" xlink:href="#h"/>
            <use stroke="url(#j)" stroke-width="2" xlink:href="#h"/>
        </g>
        <g transform="translate(101 54)">
            <use fill="#E0FFDC" xlink:href="#k"/>
            <use fill="#000" filter="url(#l)" xlink:href="#k"/>
            <use stroke="url(#m)" stroke-width="2" xlink:href="#k"/>
        </g>
        <g transform="translate(101 54)">
            <use fill="#FFF" xlink:href="#n"/>
            <use fill="#000" filter="url(#o)" xlink:href="#n"/>
            <use stroke="url(#p)" stroke-width="2" xlink:href="#n"/>
        </g>
        <path fill="url(#q)" d="M102.366 195.097c24.058 0 43.56-19.519 43.56-43.597 0-24.078-19.502-43.597-43.56-43.597-24.057 0-43.56 19.519-43.56 43.597 0 24.078 19.503 43.597 43.56 43.597zm-12.534-66.481l19.012 23.193L89.831 175a5.45 5.45 0 0 1-4.888-5.421v-35.543a5.45 5.45 0 0 1 4.889-5.421zm20.562 25.083l5.854 7.14-22.392 13.03 16.538-20.17zm7.952-9.701l6.947 4.042a4.36 4.36 0 0 1 0 7.537l-6.947 4.042-6.403-7.81 6.403-7.811zm-24.49-14.25l22.392 13.03-5.855 7.14-16.537-20.17z" transform="translate(101 54)"/>
    </g>
</svg>
