<svg xmlns="http://www.w3.org/2000/svg" width="48" height="48" viewBox="0 0 48 48">
    <path fill="#fff" fill-rule="evenodd" d="M42.031 9.504l-3.47 4.338a3.134 3.134 0 0 1-3.331 1.05l-7.341 7.34 4.95 4.95c.056.056.107.116.152.178a4.501 4.501 0 0 1 1.825-.003l.26.062 2.933.785.242.073a4.5 4.5 0 0 1 2.868 2.867l.072.242.815 3.043.031.141a1.5 1.5 0 0 1-2.884.773l-.044-.138-.816-3.042-.05-.152a1.5 1.5 0 0 0-.859-.86l-.151-.049-2.933-.786-.142-.03a1.5 1.5 0 0 0-1.187.31l-.12.109-2.146 2.146-.098.108a1.5 1.5 0 0 0-.324 1.184l.033.157.786 2.933.05.151a1.5 1.5 0 0 0 .86.86l.15.05 3.026.81.138.044a1.5 1.5 0 0 1-.773 2.885l-.141-.031-3.026-.81-.242-.073a4.5 4.5 0 0 1-2.867-2.868l-.073-.242-.785-2.932-.054-.223a4.496 4.496 0 0 1-.004-1.864l-.072-.054-.107-.097-3.3-3.3-.527.527c-.436.437-.776.96-.996 1.535l-.087.25a9.986 9.986 0 0 1-2.396 3.985l-.259.254-4.511 4.273a5.283 5.283 0 0 1-7.617-7.306l.148-.163 4.273-4.511a9.986 9.986 0 0 1 4.24-2.655 4.399 4.399 0 0 0 1.592-.902l.192-.181.526-.528-3.299-3.299a1.515 1.515 0 0 1-.12-.136 4.497 4.497 0 0 1-1.855-.007l-.223-.054-2.932-.785a4.5 4.5 0 0 1-3.11-2.94l-.072-.242-.81-3.026a1.5 1.5 0 0 1 2.853-.914l.044.138.81 3.025a1.5 1.5 0 0 0 .91 1.011l.151.05 2.933.786a1.5 1.5 0 0 0 1.341-.291l.108-.098 2.146-2.146a1.5 1.5 0 0 0 .42-1.307l-.031-.142-.786-2.933a1.5 1.5 0 0 0-.909-1.01l-.152-.05-3.042-.815a1.5 1.5 0 0 1 .635-2.929l.141.03 3.043.816a4.5 4.5 0 0 1 3.11 2.94l.072.242.785 2.932c.185.69.2 1.402.06 2.079l.03.022.107.097 4.95 4.95 7.34-7.341a3.132 3.132 0 0 1 1.05-3.33l4.338-3.471 3.535 3.535zm-20.27 17.914l-1.179-1.179-.526.527a7.399 7.399 0 0 1-2.696 1.719l-.611.208a6.986 6.986 0 0 0-2.434 1.524l-.227.229-4.273 4.511a2.283 2.283 0 0 0 3.108 3.334l.12-.106 4.511-4.273a6.986 6.986 0 0 0 1.753-2.66l.208-.612c.329-.9.828-1.727 1.471-2.435l.248-.26.527-.527zm8.603 1.532L19.09 17.676l-1.414 1.414L28.95 30.364l1.414-1.414z"/>
</svg>
