<svg xmlns="http://www.w3.org/2000/svg" width="48" height="48" viewBox="0 0 48 48">
    <path fill="#ffffff" fill-rule="nonzero" d="M25.408 28.63l9.164 10.5c.994 1.14.146 2.87-1.408 2.87H14.836c-1.554 0-2.402-1.73-1.408-2.87l9.164-10.5c.733-.84 2.083-.84 2.816 0zM24 31.5L17.5 39h13L24 31.5zM9.455 6h29.09c2.94 0 5.336 2.317 5.45 5.219l.005.219v18.124c0 2.93-2.324 5.319-5.235 5.434l-.22.004h-1.818C35.723 35 35 34.501 35 33.5c0-.942.443-1.44 1.329-1.495L36.5 32H39c.959 0 1.91-.91 1.994-1.864L41 30V11c0-.956-.907-1.91-1.863-1.994L39 9H9c-.959 0-1.91.91-1.994 1.864L7 11v19c0 .956.907 1.91 1.863 1.994L9 32h2.5c1.004 0 1.5.499 1.5 1.5 0 .945-.645 1.443-1.563 1.495l-.164.005H9.455c-2.94 0-5.336-2.317-5.45-5.219L4 29.563V11.438c0-2.93 2.324-5.319 5.235-5.434L9.455 6z"/>
</svg>
