<svg xmlns="http://www.w3.org/2000/svg" width="48" height="48" viewBox="0 0 48 48">
    <path fill="#ffffff" fill-rule="evenodd" d="M23.267 3.004C19.785 3.127 17 5.988 17 9.5v.5H8.5C7.12 10 6 11.12 6 12.5v30C6 43.88 7.12 45 8.5 45h10c.828 0 1.5-.672 1.5-1.5v-2l.004-.185C20.083 39.48 21.624 38 23.5 38l.185.004C25.52 38.083 27 39.624 27 41.5v2c0 .828.672 1.5 1.5 1.5h11c1.38 0 2.5-1.12 2.5-2.5V32c0-.828-.672-1.5-1.5-1.5H37c-1.933 0-3.5-1.567-3.5-3.5s1.567-3.5 3.5-3.5h3.5c.828 0 1.5-.672 1.5-1.5v-9.5l-.005-.164C41.91 11.032 40.825 10 39.5 10H30v-.5C30 5.91 27.09 3 23.5 3l-.233.004zM23.5 6C25.433 6 27 7.567 27 9.5v2l.007.144C27.08 12.405 27.72 13 28.5 13H39v7.5h-2c-3.59 0-6.5 2.91-6.5 6.5l.004.233C30.627 30.715 33.488 33.5 37 33.5h2V42h-9v-.5c0-3.485-2.748-6.346-6.22-6.494L23.533 35c-3.517 0-6.378 2.748-6.526 6.22l-.006.248V42H9V13h9.5c.828 0 1.5-.672 1.5-1.5v-2C20 7.567 21.567 6 23.5 6z"/>
</svg>
