<?xml version="1.0" encoding="UTF-8"?>
<svg width="48px" height="48px" viewBox="0 0 48 48" version="1.1" xmlns="http://www.w3.org/2000/svg" xmlns:xlink="http://www.w3.org/1999/xlink">
    <!-- Generator: sketchtool 58 (101010) - https://sketch.com -->
    <title>CB64D182-5620-4773-9369-9E0C3D8235EA</title>
    <desc>Created with sketchtool.</desc>
    <g fill="#ffffff" id="Icon-pack" stroke="none" stroke-width="1" fill-rule="evenodd">
        <g id="Mercdev-icon-pack" transform="translate(-614.000000, -707.000000)" fill="#4780fb" fill-rule="nonzero">
            <g id="Folder" transform="translate(614.000000, 707.000000)">
                <path fill="#ffffff" d="M25.7777778,4 C26.2492738,4 26.7014585,4.19155789 27.0348565,4.53253313 L39.4793009,17.2598059 C39.7355059,17.5218337 39.9054349,17.8556041 39.9703889,18.2149482 C39.9895027,18.3053916 40,18.4003055 40,18.5 L40,38.5454545 C40,41.5579168 37.6121853,44 34.6666667,44 L13.3333333,44 C10.3878147,44 8,41.5579168 8,38.5454545 L8,9.45454545 C8,6.44208318 10.3878147,4 13.3333333,4 L25.7777778,4 Z M24,7 L12.8571429,7 C11.8314712,7 11,7.84568436 11,8.88888889 L11,39.1111111 C11,40.1543156 11.8314712,41 12.8571429,41 L35.1428571,41 C36.1685288,41 37,40.1543156 37,39.1111111 L37,20 L26,20 C25.0627895,20 24.092485,19.072296 24.0062119,18.1340133 L24,18 L24,7 Z M34.92,17 L27,8.945 L27,17 L34.92,17 Z" id="Shape"></path>
            </g>
        </g>
    </g>
</svg>