<svg xmlns="http://www.w3.org/2000/svg" width="48" height="48" viewBox="0 0 48 48">
    <path fill="#fff" fill-rule="nonzero" d="M20.996 6c0-1.226 1.38-1.916 2.354-1.234l.106.082 12.004 10a1.5 1.5 0 0 1 .003 2.303l-.118.088L25.43 24l9.915 6.76a1.5 1.5 0 0 1 .224 2.293l-.109.1-12.004 10c-.942.784-2.354.166-2.454-1.019L20.996 42V27.022l-7.651 5.217a1.5 1.5 0 0 1-1.997-.279l-.087-.115a1.5 1.5 0 0 1 .279-1.997l.115-.087L20.103 24l-8.448-5.76a1.5 1.5 0 0 1-.47-1.962l.076-.123a1.5 1.5 0 0 1 1.96-.47l.124.076 7.651 5.216V6zm3 20.654v12.144l8.016-6.679-8.016-5.465zm0-17.453v12.144l8.016-5.465-8.016-6.679z"/>
</svg>
