<svg xmlns="http://www.w3.org/2000/svg" width="48" height="48" viewBox="0 0 48 48">
    <path fill="#fff" fill-rule="nonzero" d="M19.856 3.002L27.872 3c1.783 0 2.43.186 3.082.534.652.349 1.163.86 1.512 1.512.33.618.514 1.23.532 2.81l.002.768c.29.114.572.246.857.398a7.543 7.543 0 0 1 3.12 3.121c.473.883.753 1.743.897 2.864l.062-.005L39 15a1 1 0 0 1 1 1v4a1 1 0 0 1-1 1h-1v9.59c0 2.485-.263 3.847-1.022 5.267a7.543 7.543 0 0 1-3.121 3.12 8.156 8.156 0 0 1-.857.4v.495c0 1.783-.186 2.43-.534 3.082a3.635 3.635 0 0 1-1.512 1.512c-.618.33-1.23.514-2.81.532l-.272.002-8.016-.002c-1.58-.018-2.192-.202-2.81-.532a3.635 3.635 0 0 1-1.512-1.512c-.33-.618-.514-1.23-.532-2.81L15 39.377a8.155 8.155 0 0 1-.858-.4 7.543 7.543 0 0 1-3.12-3.12c-.722-1.35-.995-2.645-1.021-4.902L10 30.59V17.41c0-2.485.263-3.847 1.022-5.267a7.543 7.543 0 0 1 3.121-3.12c.285-.153.568-.285.858-.4L15 8.128c0-1.783.186-2.43.534-3.082a3.635 3.635 0 0 1 1.512-1.512c.618-.33 1.23-.514 2.81-.532zm10.146 36.962c-.322.019-.665.03-1.034.034L28.59 40h-9.18c-.515 0-.982-.011-1.41-.036l.005.476c.016.698.067.898.175 1.099a.638.638 0 0 0 .281.281l.114.054c.14.057.32.091.67.11l.162.006.512.01h8.162l.512-.01c.576-.02.76-.07.946-.17a.638.638 0 0 0 .281-.281c.132-.247.18-.494.18-1.667l.002.092zm-1.116-28.963h-9.772l-.569.013c-1.335.047-2.04.212-2.644.484l-.12.056-.223.114a4.543 4.543 0 0 0-1.89 1.89l-.114.223c-.344.713-.534 1.518-.553 3.333v13.772l.013.569c.047 1.335.212 2.04.484 2.644l.056.12.114.223a4.543 4.543 0 0 0 1.89 1.89c.7.374 1.394.598 2.987.654l.291.008.574.006h9.18l.574-.006c1.532-.032 2.293-.202 2.942-.495l.113-.053.223-.114a4.543 4.543 0 0 0 1.89-1.89c.374-.7.598-1.394.654-2.987l.008-.291.006-.574V17.41l-.006-.574c-.032-1.532-.202-2.293-.495-2.942l-.053-.113-.114-.223a4.543 4.543 0 0 0-1.89-1.89l-.223-.114c-.713-.344-1.518-.534-3.333-.553zM23.5 17a1.5 1.5 0 0 1 1.5 1.5V24h3.5a1.5 1.5 0 0 1 0 3h-5a1.5 1.5 0 0 1-1.5-1.5v-7a1.5 1.5 0 0 1 1.5-1.5zm4.581-11H19.92l-.512.01c-.576.02-.76.07-.946.17a.638.638 0 0 0-.281.281c-.108.2-.16.401-.175 1.099L18 8.036c.322-.019.665-.03 1.033-.034L19.41 8h9.18c.516 0 .983.011 1.412.036L30 8.128l-.005-.568c-.016-.698-.067-.898-.175-1.099a.638.638 0 0 0-.281-.281c-.231-.124-.463-.174-1.458-.18z"/>
</svg>
