<svg xmlns="http://www.w3.org/2000/svg" width="48" height="48" viewBox="0 0 48 48">
    <path fill="#ed4159" fill-rule="nonzero" d="M39.088 28.286a1.5 1.5 0 0 1 .344 2.094c-3.184 4.434-8.163 8.778-13.875 12.197-.9.56-2.2.566-3.08.02C16.741 39.2 11.74 34.842 8.547 30.378a1.5 1.5 0 0 1 2.44-1.745c2.833 3.96 7.298 7.898 12.456 11.046l.588.353a.094.094 0 0 1-.027-.022c5.382-3.223 10.059-7.298 12.99-11.38a1.5 1.5 0 0 1 2.093-.344zM19.262 16.693l.08.14 4.951 9.9 2.537-3.17c.243-.304.594-.5 1.01-.554l.162-.01H46a1.5 1.5 0 0 1 1.5 1.5c0 .764-.573 1.403-1.355 1.493L46 26H28.722l-3.55 4.437c-.638.796-1.862.736-2.436-.13l-.078-.136-4.746-9.49-2.61 4.563a1.512 1.512 0 0 1-1.154.748L14 26H2a1.5 1.5 0 0 1-1.5-1.5c0-.763.573-1.403 1.355-1.493L2 23l11.129-.001 3.569-6.24c.555-.971 1.935-1.01 2.564-.066zM31.2 7c6.677 0 12.13 5.323 12.296 11.987l.004.31-.002.239a1.5 1.5 0 0 1-1.526 1.474 1.506 1.506 0 0 1-1.469-1.38l-.005-.141.002-.196C40.5 14.16 36.336 10 31.2 10c-2.305 0-4.493.84-6.2 2.366a1.5 1.5 0 0 1-2 0A9.262 9.262 0 0 0 16.8 10c-5.04 0-9.158 4.01-9.296 9.025l-.004.263.002.194a1.5 1.5 0 1 1-3 .047l-.002-.243.004-.305C4.67 12.323 10.124 7 16.8 7c2.602 0 5.105.813 7.2 2.325l.318-.223A12.259 12.259 0 0 1 31.2 7z"/>
</svg>
