<svg xmlns="http://www.w3.org/2000/svg" width="48" height="48" viewBox="0 0 48 48">
    <path fill="#ffffff" fill-rule="evenodd" d="M24.5 3C33.613 3 41 10.476 41 19.698c0 6.213-3.384 11.798-8.63 14.68l-.37.195v2.837c0 4.026-3.097 7.32-7.012 7.574l-.245.012L24.5 45c-4.06 0-7.368-3.266-7.496-7.344L17 37.41v-2.836l-.375-.199c-5.035-2.768-8.354-8.028-8.61-13.942l-.011-.37L8 19.698C8 10.476 15.387 3 24.5 3zm4.214 36.01h-8.428c.64 1.726 2.285 2.954 4.214 2.954 1.929 0 3.574-1.228 4.214-2.954zM24.81 6.04l-.31-.004c-7.456 0-13.5 6.117-13.5 13.662 0 5.371 3.09 10.168 7.804 12.39l.297.136.9.397L20 35.974h3v-6.871c-2.308-.66-4-2.81-4-5.357 0-.838.672-1.518 1.5-1.518.78 0 1.42.602 1.493 1.372l.007.146c0 1.397 1.12 2.53 2.5 2.53 1.325 0 2.41-1.044 2.495-2.364l.005-.166c0-.838.672-1.518 1.5-1.518s1.5.68 1.5 1.518c0 2.548-1.691 4.695-4 5.356v6.872h3l.001-3.353.9-.398C34.78 30.066 38 25.181 38 19.698c0-7.44-5.877-13.492-13.19-13.658z"/>
</svg>
