<svg xmlns="http://www.w3.org/2000/svg" width="48" height="48" viewBox="0 0 48 48">
    <path fill="#ffffff" fill-rule="evenodd" d="M40.427 7.577c6.097 6.103 6.097 15.997 0 22.1-5.744 5.748-14.849 6.082-20.983 1.002l-.043.046L6.58 43.557c-.59.59-1.547.59-2.137 0-.556-.556-.588-1.437-.098-2.03l.098-.109 12.821-12.832.05-.045c-5.045-6.139-4.702-15.227 1.03-20.964 6.098-6.103 15.985-6.103 22.083 0zM38.29 9.716c-4.918-4.922-12.89-4.922-17.809 0-4.917 4.921-4.917 12.9 0 17.822 4.918 4.921 12.891 4.921 17.809 0 4.917-4.922 4.917-12.9 0-17.822zm-2.137 2.138c.59.59.59 1.548 0 2.139-.59.59-1.547.59-2.137 0-2.557-2.56-6.703-2.56-9.26 0-.59.59-1.547.59-2.138 0-.59-.59-.59-1.548 0-2.139 3.738-3.74 9.797-3.74 13.535 0z"/>
</svg>
