<svg xmlns="http://www.w3.org/2000/svg" width="48" height="48" viewBox="0 0 48 48">
    <path fill="#fff" fill-rule="nonzero" d="M25.915 5.56a2.4 2.4 0 0 1 1.466.476l4.568 3.41 5.4-1.831a2.4 2.4 0 0 1 2.985 1.348l.058.154a2.4 2.4 0 0 1 0 1.541l-1.83 5.4 3.409 4.568a2.4 2.4 0 0 1-.36 3.256l-.128.103a2.4 2.4 0 0 1-1.466.476l-5.702-.072-3.29 4.654a2.4 2.4 0 0 1-3.208.664l-.138-.09a2.4 2.4 0 0 1-.906-1.248l-.381-1.225L8.785 42.848a1.5 1.5 0 0 1-1.956.034l-.103-.093-1.515-1.515a1.5 1.5 0 0 1-.146-1.952l.087-.107 15.7-17.604-1.215-.378a2.4 2.4 0 0 1-1.656-2.68l.032-.158.045-.166a2.4 2.4 0 0 1 .906-1.247l4.654-3.292-.072-5.7a2.4 2.4 0 0 1 2.369-2.43zM24 22.589L12.366 35.634l13.047-11.637-.333-1.072L24 22.59zm15.075 5.14l.044.137.674 2.49a1.5 1.5 0 0 1-2.851.921l-.045-.137-.673-2.49a1.5 1.5 0 0 1 2.851-.922zm5.924-2.34c.04.03.07.073.085.12l.225.761.762.273a.23.23 0 0 1 .145.287.213.213 0 0 1-.088.112l-.663.418-.003.784c0 .123-.104.22-.23.214a.24.24 0 0 1-.14-.051l-.634-.502-.764.212a.238.238 0 0 1-.288-.155.218.218 0 0 1 .003-.143l.27-.729-.468-.653a.217.217 0 0 1 .192-.347l.802.052.474-.616a.23.23 0 0 1 .32-.037zM26.561 9.168l.067 5.273a1.5 1.5 0 0 1-.634 1.243L21.69 18.73l5.036 1.566c.419.13.757.436.93.834l.057.153 1.564 5.035 3.046-4.305a1.5 1.5 0 0 1 1.08-.627l.164-.007 5.273.068-3.154-4.227a1.5 1.5 0 0 1-.258-1.237l.04-.142 1.693-4.994-4.994 1.694a1.5 1.5 0 0 1-1.257-.136l-.122-.083-4.226-3.153zm3.019 6.354c.054.041.093.098.112.161l.3 1.014 1.016.363c.16.057.247.229.195.383a.284.284 0 0 1-.118.15l-.884.557-.005 1.045a.29.29 0 0 1-.306.286.32.32 0 0 1-.185-.069l-.847-.67-1.019.284a.318.318 0 0 1-.383-.207.291.291 0 0 1 .003-.191l.361-.971-.625-.87a.29.29 0 0 1 .257-.464l1.069.07.633-.821c.1-.13.29-.152.426-.05zM12.13 11.808l.141.032 2.937.815a1.5 1.5 0 0 1-.662 2.923l-.14-.032-2.938-.816a1.5 1.5 0 0 1 .662-2.922zm7.663-6.15a.391.391 0 0 1 .08.231l.011 1.322 1.096.787c.173.123.218.36.101.527a.355.355 0 0 1-.193.138l-1.254.366-.365 1.254a.361.361 0 0 1-.467.238.4.4 0 0 1-.199-.147l-.786-1.095-1.322-.012a.397.397 0 0 1-.39-.38.364.364 0 0 1 .07-.228l.769-1.043-.452-1.261a.362.362 0 0 1 .468-.468l1.261.451 1.043-.768a.383.383 0 0 1 .53.088zm14.469-4.26a.235.235 0 0 1 .092.114l.278.742.78.219a.23.23 0 0 1 .165.276.213.213 0 0 1-.08.118l-.633.463.051.783a.217.217 0 0 1-.214.23.24.24 0 0 1-.142-.042l-.668-.457-.748.265a.238.238 0 0 1-.298-.134.218.218 0 0 1-.007-.143l.219-.746-.513-.619a.217.217 0 0 1 .168-.36l.803-.004.43-.647a.23.23 0 0 1 .317-.059z"/>
</svg>
