<svg xmlns="http://www.w3.org/2000/svg" width="48" height="48" viewBox="0 0 48 48">
    <path fill="#ed4159" fill-rule="nonzero" d="M42.231 5.939l1.329.337.144.038.269.081c.36.119.538.233.527.612-.006.202-.03.258-.212.46l-.494.53-.494.547c-.261.294-.513.587-.752.874-1.633 1.962-2.777 3.7-3.632 5.508-.705 1.49-1.217 2.995-1.794 5.254l-.488 1.999-.285 1.192c-1.586 6.175-6.07 9.67-12.41 9.67-1.758 0-3.361-.27-4.801-.808l-.376-.149-.499-.207-.166.514a35.01 35.01 0 0 0-1.174 4.777c-.17.977-.294 1.931-.372 2.83l-.029.363c-.012.166-.02.316-.027.444l-.008.22a1.497 1.497 0 0 1-1.181 1.435 1.494 1.494 0 0 1-1.845-1.456l-.007-.277-.013-.235a14.347 14.347 0 0 0-.144-1.29c-.215-1.38-.602-2.67-1.148-3.815-1.194-2.507-3.045-4.142-5.584-4.908a1.498 1.498 0 1 1 .867-2.867c2.698.814 4.845 2.393 6.4 4.692l.202.307.591.93.308-1.057c.135-.461.277-.917.43-1.371l.23-.667.108-.3-.228-.224c-2.278-2.227-3.53-5.542-3.53-9.246 0-5.36 2.526-10.128 7.005-13.01C24.393 4.165 32.33 3.537 42.23 5.94zm-21.662 4.247c-3.593 2.311-5.629 6.12-5.629 10.49 0 2.153.466 4.027 1.364 5.515l.18.284.466.707.392-.751c2.184-4.194 5.14-7.428 8.84-9.646a1.499 1.499 0 0 1 1.54 2.57c-3.305 1.98-5.94 4.92-7.883 8.772l-.222.45-.22.458.462.211c1.16.53 2.528.799 4.08.799 4.964 0 8.253-2.56 9.5-7.391l.66-2.741.235-.919c.584-2.219 1.13-3.777 1.873-5.348a25.82 25.82 0 0 1 2.449-4.104l.38-.515.467-.622-.761-.163c-7.03-1.51-13.905-.802-18.173 1.944z"/>
</svg>
