<svg xmlns="http://www.w3.org/2000/svg" width="48" height="48" viewBox="0 0 48 48">
    <path fill="#ffffff" fill-rule="evenodd" d="M18.443 6.949c.827 0 1.498.671 1.498 1.5 0 .78-.594 1.42-1.353 1.493l-.145.007H7.275c-.11 0-.235.12-.265.314l-.006.087-.008 30.25c0 .213.111.36.223.393l.048.007h30.466c.11 0 .235-.12.265-.313l.006-.087v-8.13c0-.829.671-1.5 1.498-1.5.779 0 1.419.595 1.491 1.355l.007.145v8.13c0 1.793-1.344 3.297-3.085 3.395l-.182.005H7.267c-1.768 0-3.17-1.443-3.262-3.215L4 40.6l.008-30.25c0-1.793 1.344-3.297 3.085-3.395l.181-.005 11.169-.001zM33.26 3.336c.549-.448 1.341-.448 1.89 0l.114.103 4.993 5 .103.114c.447.55.447 1.344 0 1.893l-.103.114-.114.103c-.549.449-1.342.449-1.89 0l-.114-.103-2.417-2.42c.146 6.601-1.45 12.37-4.793 17.26-3.561 5.208-8.808 7.735-15.56 7.528-.826-.026-1.476-.718-1.45-1.546.025-.828.716-1.478 1.543-1.453 5.754.177 10.025-1.88 12.996-6.225 2.993-4.378 4.418-9.564 4.267-15.6l-2.453 2.456-.114.103c-.588.48-1.456.447-2.004-.103-.549-.549-.583-1.418-.103-2.007l.103-.114 4.992-5 .114-.103z"/>
</svg>
