<svg xmlns="http://www.w3.org/2000/svg" width="48" height="48" viewBox="0 0 48 48">
    <path fill="#fff" fill-rule="evenodd" d="M24 3c11.598 0 21 9.402 21 21 0 10.923-8.34 19.898-18.999 20.906V41.89C35 40.895 42 33.265 42 24c0-9.941-8.059-18-18-18S6 14.059 6 24c0 9.265 7 16.896 16 17.89v3.016C11.34 43.899 3 34.923 3 24 3 12.402 12.402 3 24 3zm0 6c8.284 0 15 6.716 15 15 0 7.606-5.661 13.89-13 14.868v-3.034C31.677 34.88 36 29.946 36 24c0-6.627-5.373-12-12-12s-12 5.373-12 12c0 5.946 4.325 10.882 10 11.834v3.034C14.661 37.89 9 31.606 9 24c0-8.284 6.716-15 15-15zm0 6a9 9 0 0 1 2 17.777v-3.119a6 6 0 1 0-4 0v3.119A9 9 0 0 1 24 15zm0 6a3 3 0 1 1 0 6 3 3 0 0 1 0-6z"/>
</svg>
