<svg xmlns="http://www.w3.org/2000/svg" width="48" height="48" viewBox="0 0 48 48">
    <path fill="#ed4159" fill-rule="nonzero" d="M34.5 4A1.5 1.5 0 0 1 36 5.5V6a7 7 0 0 1 7 7v23a7 7 0 0 1-7 7H12a7 7 0 0 1-7-7V13a7 7 0 0 1 7-7v-.5a1.5 1.5 0 0 1 3 0V6h4v-.5a1.5 1.5 0 0 1 3 0V6h4v-.5a1.5 1.5 0 0 1 3 0V6h4v-.5A1.5 1.5 0 0 1 34.5 4zM40 19H8v17a4 4 0 0 0 4 4h24a4 4 0 0 0 4-4V19zm-6.5 12a1.5 1.5 0 0 1 0 3h-19a1.5 1.5 0 0 1 0-3h19zm0-7a1.5 1.5 0 0 1 0 3h-19a1.5 1.5 0 0 1 0-3h19zM36 9.5a1.5 1.5 0 0 1-3 0V9h-4v.5a1.5 1.5 0 0 1-3 0V9h-4v.5a1.5 1.5 0 0 1-3 0V9h-4v.5a1.5 1.5 0 0 1-3 0V9a4 4 0 0 0-4 4v3h32v-3a4 4 0 0 0-4-4v.5z"/>
</svg>
