<svg xmlns="http://www.w3.org/2000/svg" width="48" height="48" viewBox="0 0 48 48">
    <path fill="#fff" fill-rule="nonzero" d="M13.5 37a1.5 1.5 0 0 1 1.415 1h18.17a1.5 1.5 0 0 1 1.415-1h2a1.5 1.5 0 0 1 1.415 1H39.5a1.5 1.5 0 0 1 0 3h-31a1.5 1.5 0 0 1 0-3h1.585a1.5 1.5 0 0 1 1.415-1h2zM38.545 7c2.94 0 5.336 2.317 5.45 5.219l.005.219v18.124c0 2.93-2.324 5.319-5.235 5.434l-.22.004H9.455c-2.94 0-5.336-2.317-5.45-5.219L4 30.563V12.438c0-2.93 2.324-5.319 5.235-5.434L9.455 7h29.09zM39 10H9c-.959 0-1.91.91-1.994 1.864L7 12v19c0 .956.907 1.91 1.863 1.994L9 33h30c.959 0 1.91-.91 1.994-1.864L41 31V12c0-.956-.907-1.91-1.863-1.994L39 10z"/>
</svg>
