<svg xmlns="http://www.w3.org/2000/svg" width="64" height="64" viewBox="0 0 64 64">
    <g fill="#ED4159" fill-rule="evenodd">
        <path fill-opacity=".4" d="M23.844 29.076l6.4 12.797c.674 1.348 2.553 1.465 3.389.212l3.417-5.122h19.922l-.922 1.564c-4.578 7.767-12.875 15.325-22.352 21.053-.964.606-2.422.61-3.37.017-9.495-5.683-17.82-13.266-22.4-21.072l-.916-1.561L18 36.963c.69 0 1.328-.362 1.683-.953l4.16-6.934zM42.8 7.963c9.522 0 17.237 7.788 17.237 17.39 0 2.298-.39 4.625-1.147 6.967l-.232.718L36 33.037c-.656 0-1.269.328-1.633.874l-2.124 3.183-6.487-12.972c-.693-1.385-2.642-1.46-3.44-.132l-5.427 9.047H5.334l-.231-.72c-.753-2.34-1.14-4.667-1.14-6.964 0-9.602 7.715-17.39 17.237-17.39 3.99 0 7.769 1.373 10.8 3.836l.328-.26A17.07 17.07 0 0 1 42.8 7.963z"/>
        <path fill-rule="nonzero" d="M23.844 29.076l6.4 12.797c.674 1.348 2.553 1.465 3.389.212l3.417-5.122h19.922l-.922 1.564c-4.578 7.767-12.875 15.325-22.352 21.053-.964.606-2.422.61-3.37.017-9.495-5.683-17.82-13.266-22.4-21.072l-.916-1.561L18 36.963c.69 0 1.328-.362 1.683-.953l4.16-6.934zm-.165 4.306l-2.217 3.695A4.037 4.037 0 0 1 18 39.037h-7.312c4.545 6.925 12.13 13.648 20.724 18.791.29.182.89.18 1.198-.014 8.574-5.182 16.135-11.886 20.677-18.776H38.16l-2.802 4.198c-1.72 2.578-5.582 2.337-6.969-.435l-4.71-9.419zM42.8 7.963c9.522 0 17.237 7.788 17.237 17.39 0 2.298-.39 4.625-1.147 6.967l-.232.718L36 33.037c-.656 0-1.269.328-1.633.874l-2.124 3.183-6.487-12.972c-.693-1.385-2.642-1.46-3.44-.132l-5.427 9.047H5.334l-.231-.72c-.753-2.34-1.14-4.667-1.14-6.964 0-9.602 7.715-17.39 17.237-17.39 3.99 0 7.769 1.373 10.8 3.836l.328-.26A17.07 17.07 0 0 1 42.8 7.963zm0 2.074c-3.78 0-7.344 1.402-10.105 3.896l-.695.628-.695-.628A15.015 15.015 0 0 0 21.2 10.037c-8.372 0-15.163 6.855-15.163 15.316 0 1.842.277 3.715.822 5.61h8.855l4.824-8.04c1.64-2.731 5.648-2.578 7.073.271l4.89 9.777.14-.212A4.037 4.037 0 0 1 36 30.963h21.137l.156-.568c.444-1.702.67-3.384.67-5.042 0-8.461-6.79-15.316-15.163-15.316z"/>
    </g>
</svg>
