<svg xmlns="http://www.w3.org/2000/svg" width="64" height="64" viewBox="0 0 64 64">
    <g fill="#ED4159" fill-rule="evenodd">
        <path fill-opacity=".4" d="M32 24c7.732 0 14 6.268 14 14s-6.268 14-14 14-14-6.268-14-14 6.268-14 14-14zM22 5v4h20V5h9a4 4 0 0 1 4 4v8H9V9a4 4 0 0 1 4-4h9z"/>
        <path fill-rule="nonzero" d="M40 0a3 3 0 0 1 3 3v1h9.308c2.531 0 4.579 2.07 4.687 4.646l.005.216v48.276c0 2.603-1.979 4.743-4.483 4.857l-.21.005H11.693c-2.531 0-4.579-2.07-4.687-4.646L7 57.138V8.862C7 6.26 8.979 4.12 11.483 4.005l.21-.005H21V3a3 3 0 0 1 3-3h16zM21 6h-9.308C10.27 6 9.09 7.18 9.005 8.687L9 8.862v48.276c0 1.532 1.127 2.767 2.53 2.857l.162.005h40.616c1.422 0 2.602-1.18 2.687-2.687l.005-.175V8.862c0-1.532-1.127-2.767-2.53-2.857L52.309 6H43v1a3 3 0 0 1-3 3H24a3 3 0 0 1-3-3V6zm8.971 35.537l8.286-9.206a1 1 0 0 1 1.564 1.24l-.078.098-9 10a1 1 0 0 1-1.369.111l-.09-.082-5-5.134a1 1 0 0 1 1.34-1.48l.092.085 4.255 4.368 8.286-9.206-8.286 9.206zM40 2H24a1 1 0 0 0-1 1v4a1 1 0 0 0 1 1h16a1 1 0 0 0 1-1V6h-.012V4H41V3a1 1 0 0 0-1-1z"/>
    </g>
</svg>
