<svg xmlns="http://www.w3.org/2000/svg" width="64" height="64" viewBox="0 0 64 64">
    <g fill="#ED4159" fill-rule="evenodd">
        <path fill-opacity=".4" d="M49 12a6 6 0 0 1 5.996 5.775L55 18v2.535a4 4 0 0 1 5.995 3.265L61 24v5a3 3 0 0 1 0 6v5a4 4 0 0 1-6 3.465V46a6 6 0 0 1-11.996.225L43 46V35H21v11a6 6 0 1 1-12 0l.001-2.536A4 4 0 0 1 3 40v-5a3 3 0 0 1 0-6v-5a4 4 0 0 1 6.001-3.464L9 18a6 6 0 1 1 12 0v11h22V18a6 6 0 0 1 6-6z"/>
        <path fill-rule="nonzero" d="M15 12a6 6 0 0 1 6 6v28a6 6 0 1 1-12 0l.001-2.536A4 4 0 0 1 3 40V24a4 4 0 0 1 6.001-3.464L9 18a6 6 0 0 1 6-6zm34 0a6 6 0 0 1 5.996 5.775L55 18v2.535A4 4 0 0 1 61 24v16a4 4 0 0 1-6 3.465V46a6 6 0 0 1-11.996.225L43 46V18a6 6 0 0 1 6-6zm-34 2a4 4 0 0 0-4 4v28a4 4 0 1 0 8 0V18a4 4 0 0 0-4-4zm34 0a4 4 0 0 0-3.995 3.8L45 18v28a4 4 0 0 0 7.995.2L53 46V18a4 4 0 0 0-4-4zM7 22a2 2 0 0 0-2 2v16a2 2 0 1 0 4 0V24a2 2 0 0 0-2-2zm50 0a2 2 0 0 0-2 2v16a2 2 0 1 0 4 0V24a2 2 0 0 0-2-2z"/>
    </g>
</svg>
