<svg height="1120" viewBox="0 0 1024 1120" width="1024" xmlns="http://www.w3.org/2000/svg" xmlns:xlink="http://www.w3.org/1999/xlink"><defs><linearGradient id="a" x1="71.303917%" x2="71.303917%" y1="0%" y2="100%"><stop offset="0" stop-color="#00d8ff"/><stop offset="1" stop-color="#0089ff"/></linearGradient><path id="b" d="m1024.002 0v1089.06783c-211.300559-35.92076-386.26156-13.32643-538.027704 7.55063l-16.76812 2.30955-16.58122 2.27705c-115.423729 15.78278-217.404575 27.82769-312.122552 7.79494-51.4036816-10.87183-97.7047103-27.69303-140.502404-48.05524v-1060.94476z"/><linearGradient id="c" x1="14.258911%" x2="80.839783%" y1="51.01603%" y2="46.617394%"><stop offset="0" stop-color="#b6e6ff"/><stop offset="1" stop-color="#00b4ff"/></linearGradient><mask id="d" fill="#fff"><use fill="#fff" fill-rule="evenodd" xlink:href="#b"/></mask></defs><g fill="none" fill-rule="evenodd"><path d="m0 0h1024v1228h-1024z" fill="#f2f4f7"/><use fill="url(#a)" xlink:href="#b"/><path d="m1775 1745.5v-881.5c-84-84.666667-211.16667-113.5-381.5-86.5-255.5 40.5-738.982005 307.59047-1081.5 319.5-359.5 12.5-601.262104-297.044205-687.504246-233v881.5z" fill="#fff" mask="url(#d)" opacity=".1"/><path d="m1775 1760 493.5-319.5c-349.33333-364.33333-641.83333-546.5-877.5-546.5-316 0-580.457758 102.765321-896 152-99.334725 15.49939-229.543041 40.76429-368.5 16.5-226.1196193-39.4844-467.5-243-635-261-111.666667-12-52.5 307.5 177.5 958.5z" fill="url(#c)" mask="url(#d)" opacity=".4"/></g></svg>