<?xml version="1.0" encoding="UTF-8"?>
<svg width="86px" height="94px" viewBox="0 0 86 94" version="1.1" xmlns="http://www.w3.org/2000/svg" xmlns:xlink="http://www.w3.org/1999/xlink">
    <title>i110_award6</title>
    <defs>
        <linearGradient x1="100%" y1="-5.34069351%" x2="11.0767715%" y2="86.0932709%" id="linearGradient-1">
            <stop stop-color="#434A5C" offset="0%"></stop>
            <stop stop-color="#2C303B" offset="100%"></stop>
        </linearGradient>
        <path d="M24.783,53.238 C27.418,53.238 28.931,52.099 30.053,50.552 L27.571,48.784 C26.857,49.651 26.126,50.229 24.885,50.229 C23.219,50.229 22.046,48.835 22.046,47.05 L22.046,47.016 C22.046,45.282 23.219,43.871 24.885,43.871 C26.024,43.871 26.806,44.415 27.486,45.265 L29.968,43.344 C28.914,41.882 27.35,40.862 24.919,40.862 C21.315,40.862 18.646,43.582 18.646,47.05 L18.646,47.084 C18.646,50.637 21.383,53.238 24.783,53.238 Z M36.139,53.204 C39.029,53.204 40.95,51.759 40.95,49.328 L40.95,49.294 C40.95,47.067 39.25,46.183 36.513,45.588 C34.864,45.214 34.456,44.976 34.456,44.432 L34.456,44.398 C34.456,43.973 34.847,43.633 35.646,43.633 C36.7,43.633 37.89,44.041 38.978,44.806 L40.627,42.477 C39.335,41.44 37.754,40.896 35.731,40.896 C32.875,40.896 31.124,42.494 31.124,44.704 L31.124,44.738 C31.124,47.186 33.079,47.9 35.612,48.478 C37.227,48.852 37.618,49.124 37.618,49.617 L37.618,49.651 C37.618,50.161 37.142,50.467 36.258,50.467 C34.881,50.467 33.572,49.974 32.399,49.039 L30.563,51.232 C32.025,52.541 34.031,53.204 36.139,53.204 Z M47.053,53.204 C49.943,53.204 51.864,51.759 51.864,49.328 L51.864,49.294 C51.864,47.067 50.164,46.183 47.427,45.588 C45.778,45.214 45.37,44.976 45.37,44.432 L45.37,44.398 C45.37,43.973 45.761,43.633 46.56,43.633 C47.614,43.633 48.804,44.041 49.892,44.806 L51.541,42.477 C50.249,41.44 48.668,40.896 46.645,40.896 C43.789,40.896 42.038,42.494 42.038,44.704 L42.038,44.738 C42.038,47.186 43.993,47.9 46.526,48.478 C48.141,48.852 48.532,49.124 48.532,49.617 L48.532,49.651 C48.532,50.161 48.056,50.467 47.172,50.467 C45.795,50.467 44.486,49.974 43.313,49.039 L41.477,51.232 C42.939,52.541 44.945,53.204 47.053,53.204 Z M55.723,53 L56.573,50.875 L61.163,50.875 L62.03,53 L65.566,53 L60.5,41.015 L57.321,41.015 L52.255,53 L55.723,53 Z M60.211,48.308 L57.542,48.308 L58.885,44.925 L60.211,48.308 Z" id="path-2"></path>
    </defs>
    <g id="Page-1" stroke="none" stroke-width="1" fill="none" fill-rule="evenodd">
        <g id="i110_award6" transform="translate(0.564755, 0.165808)" fill-rule="nonzero">
            <path d="M49.4352448,1.87564436 L77.8704896,18.2927406 C82.2021047,20.7935997 84.8704896,25.415378 84.8704896,30.4170963 L84.8704896,63.2512887 C84.8704896,68.253007 82.2021047,72.8747853 77.8704896,75.3756444 L49.4352448,91.7927406 C45.1036297,94.2935995 39.7668599,94.2935995 35.4352448,91.7927406 L7,75.3756444 C2.6683849,72.8747853 0,68.253007 0,63.2512887 L0,30.4170963 C0,25.415378 2.6683849,20.7935997 7,18.2927406 L35.4352448,1.87564436 C39.7668599,-0.625214788 45.1036297,-0.625214788 49.4352448,1.87564436 Z" id="Polygon" fill="url(#linearGradient-1)"></path>
            <g id="CSSA">
                <use fill="#000000" xlink:href="#path-2"></use>
                <use fill="#FFFFFF" xlink:href="#path-2"></use>
            </g>
        </g>
    </g>
</svg>