<?xml version="1.0" encoding="UTF-8"?>
<svg width="86px" height="94px" viewBox="0 0 86 94" version="1.1" xmlns="http://www.w3.org/2000/svg" xmlns:xlink="http://www.w3.org/1999/xlink">
    <title>i110_award1</title>
    <defs>
        <linearGradient x1="84.0697292%" y1="-8.9408363%" x2="14.3918224%" y2="93.8804673%" id="linearGradient-1">
            <stop stop-color="#FFFFFF" offset="0%"></stop>
            <stop stop-color="#E4E3E3" offset="100%"></stop>
        </linearGradient>
    </defs>
    <g id="Page-1" stroke="none" stroke-width="1" fill="none" fill-rule="evenodd">
        <g id="i110_award1" transform="translate(0.564755, 0.165808)" fill-rule="nonzero">
            <path d="M49.4352448,1.87564436 L77.8704896,18.2927406 C82.2021047,20.7935997 84.8704896,25.415378 84.8704896,30.4170963 L84.8704896,63.2512887 C84.8704896,68.253007 82.2021047,72.8747853 77.8704896,75.3756444 L49.4352448,91.7927406 C45.1036297,94.2935995 39.7668599,94.2935995 35.4352448,91.7927406 L7,75.3756444 C2.6683849,72.8747853 0,68.253007 0,63.2512887 L0,30.4170963 C0,25.415378 2.6683849,20.7935997 7,18.2927406 L35.4352448,1.87564436 C39.7668599,-0.625214788 45.1036297,-0.625214788 49.4352448,1.87564436 Z" id="Polygon" fill="url(#linearGradient-1)"></path>
            <g id="Group-2" transform="translate(13.435245, 24.834192)" fill="#2C2C35">
                <polygon id="Fill-1" points="19.4953968 -8.52651249e-16 5.34859026 14.052574 4.26325624e-16 14.052574 4.26325624e-16 15.0342622 57.8456478 15.0342622 57.8456478 14.052574 37.3840694 14.052574 30.6219913 7.38114998 23.9875446 14.052574 20.1908089 14.052574 34.2875172 -8.52651249e-16"></polygon>
                <polygon id="Fill-2" points="4.26325624e-16 29.0863591 4.26325624e-16 30.0656616 20.3136691 30.0656616 26.920681 36.6643238 33.6469746 30.0656616 37.256438 30.0656616 23.2527695 44.0037252 30.6482333 44.0037252 38.0448899 44.0037252 45.4081476 36.7156149 52.1093921 30.0656616 57.8456478 30.0656616 57.8456478 29.0863591"></polygon>
                <path d="M11.1995949,20.1702925 C11.4775212,20.1702925 11.7375553,20.2084626 11.9796971,20.2871885 C12.2218389,20.3647216 12.4651735,20.4589541 12.7073153,20.5734646 L13.2488541,19.1802546 C12.6035402,18.8725079 11.9260203,18.7174417 11.21868,18.7174417 C10.5697877,18.7174417 10.0043926,18.8546156 9.52607304,19.1325419 C9.0453679,19.4080826 8.67917316,19.8029049 8.42391037,20.3182018 C8.16745478,20.8323058 8.0410162,21.4287142 8.0410162,22.1062341 C8.0410162,23.1905045 8.30343588,24.0207049 8.8318537,24.5944498 C9.35788588,25.1670018 10.1177101,25.4556635 11.1053624,25.4556635 C11.7960033,25.4556635 12.4150752,25.3339962 12.9625781,25.0918544 L12.9625781,23.5948694 C12.6858446,23.7081869 12.4138824,23.8059979 12.1407273,23.8847238 C11.8699579,23.9670282 11.5884532,24.0075839 11.2985987,24.0075839 C10.3383812,24.0075839 9.85886891,23.3765839 9.85886891,22.1157766 C9.85886891,21.5086329 9.97815059,21.032699 10.2143283,20.687975 C10.4493132,20.3432509 10.7785306,20.1702925 11.1995949,20.1702925" id="Fill-3"></path>
                <path d="M19.0484484,24.0155758 C18.7430873,24.0155758 18.4090986,23.9666703 18.0440967,23.8700522 C17.6814804,23.773434 17.3284066,23.6386457 16.9908395,23.4644945 L16.9908395,25.042591 C17.3105144,25.1940788 17.6182611,25.3014323 17.9140796,25.3622659 C18.2098982,25.4254852 18.5760929,25.4541128 19.0126638,25.4541128 C19.5351176,25.4541128 19.9907736,25.3670372 20.3796318,25.1916931 C20.7684901,25.0175419 21.0655015,24.7730144 21.2718588,24.456918 C21.478216,24.1420144 21.5807983,23.7829766 21.5807983,23.3750332 C21.5807983,22.9324982 21.4710591,22.5651107 21.2515809,22.2740634 C21.0321026,21.9830161 20.6396659,21.7098611 20.0754636,21.4557911 C19.4862121,21.1874073 19.1247886,21.0037135 18.992386,20.9011313 C18.8599833,20.7985491 18.7931856,20.6840387 18.7931856,20.5564073 C18.7931856,20.4359328 18.8456695,20.3357362 18.9494446,20.2558175 C19.0544124,20.1747059 19.2225996,20.1341501 19.4516204,20.1341501 C19.8965411,20.1341501 20.4261517,20.2749025 21.0380667,20.5564073 L21.5807983,19.1882465 C20.8758436,18.8745357 20.1840099,18.7182767 19.5052972,18.7182767 C18.7371232,18.7182767 18.1335579,18.8864638 17.6946014,19.224031 C17.2556448,19.5627909 17.0361665,20.0327607 17.0361665,20.636326 C17.0361665,20.9583865 17.0874576,21.2386984 17.1900399,21.4736833 C17.2938149,21.7098611 17.4524596,21.9197968 17.6659738,22.1022978 C17.8806808,22.2836059 18.2003556,22.472071 18.627384,22.6665001 C19.0997395,22.8788215 19.3895939,23.0195738 19.4993331,23.0887572 C19.6078794,23.1567478 19.6877981,23.2247383 19.7367036,23.2927289 C19.7856091,23.3595266 19.8106582,23.4382525 19.8106582,23.5277138 C19.8106582,23.6708518 19.7498246,23.7889406 19.6269645,23.8784019 C19.5041043,23.9702488 19.310868,24.0155758 19.0484484,24.0155758" id="Fill-5"></path>
                <path d="M27.4040103,24.0155758 C27.0986492,24.0155758 26.7646606,23.9666703 26.3996586,23.8700522 C26.0358495,23.773434 25.6839686,23.6386457 25.3464015,23.4644945 L25.3464015,25.042591 C25.6660763,25.1940788 25.9738231,25.3014323 26.2696416,25.3622659 C26.5654602,25.4254852 26.9316549,25.4541128 27.3682258,25.4541128 C27.8906796,25.4541128 28.3463356,25.3670372 28.7351938,25.1916931 C29.1240521,25.0175419 29.4210634,24.7730144 29.6274207,24.456918 C29.833778,24.1420144 29.9363603,23.7829766 29.9363603,23.3750332 C29.9363603,22.9324982 29.8266211,22.5651107 29.6071428,22.2740634 C29.3876646,21.9830161 28.9952279,21.7098611 28.4310255,21.4557911 C27.8417741,21.1874073 27.4791578,21.0037135 27.3479479,20.9011313 C27.2155453,20.7985491 27.1487475,20.6840387 27.1487475,20.5564073 C27.1487475,20.4359328 27.2012315,20.3357362 27.3050065,20.2558175 C27.4099744,20.1747059 27.5769688,20.1341501 27.8071824,20.1341501 C28.252103,20.1341501 28.7817137,20.2749025 29.3948215,20.5564073 L29.9363603,19.1882465 C29.2314056,18.8745357 28.5395719,18.7182767 27.8608591,18.7182767 C27.0926852,18.7182767 26.4879271,18.8864638 26.0501633,19.224031 C25.6112068,19.5627909 25.3917285,20.0327607 25.3917285,20.636326 C25.3917285,20.9583865 25.4418268,21.2386984 25.5456018,21.4736833 C25.6493769,21.7098611 25.8080215,21.9197968 26.0215357,22.1022978 C26.2350499,22.2836059 26.5559176,22.472071 26.9817532,22.6665001 C27.4553014,22.8788215 27.7451559,23.0195738 27.8548951,23.0887572 C27.9634414,23.1567478 28.0433601,23.2247383 28.0922656,23.2927289 C28.1411711,23.3595266 28.1662202,23.4382525 28.1662202,23.5277138 C28.1662202,23.6708518 28.1053866,23.7889406 27.9825264,23.8784019 C27.8596663,23.9702488 27.66643,24.0155758 27.4040103,24.0155758" id="Fill-7"></path>
                <path d="M37.3553225,23.444813 C37.1024454,23.757331 36.7100087,23.91359 36.1720483,23.91359 L35.777226,23.91359 L35.777226,20.2409072 L36.29133,20.2409072 C36.7768064,20.2409072 37.1370371,20.3876237 37.3756004,20.6762854 C37.612971,20.9673326 37.729867,21.4122533 37.729867,22.0122401 C37.729867,22.6551683 37.6058141,23.1311022 37.3553225,23.444813 M39.5679976,21.9502136 C39.5679976,20.9339338 39.2817216,20.1574101 38.7115552,19.6194497 C38.1378103,19.0814894 37.3266949,18.8119128 36.2746306,18.8119128 L34.0058931,18.8119128 L34.0058931,25.3640551 L36.1267213,25.3640551 C37.2181486,25.3640551 38.0638557,25.0682366 38.6662281,24.4777923 C39.2686006,23.8861552 39.5679976,23.0440266 39.5679976,21.9502136" id="Fill-9"></path>
                <path d="M46.2630394,20.6187916 C46.3417653,20.2692963 46.395442,20.0164191 46.4228768,19.8649314 C46.4515044,20.0295401 46.5135309,20.3003095 46.6077634,20.6820109 C46.7019959,21.0601338 46.7831075,21.3702661 46.8475196,21.6076367 L47.13141,22.6835574 L45.7370072,22.6835574 C46.0077766,21.6565422 46.1855063,20.9682869 46.2630394,20.6187916 L46.2630394,20.6187916 Z M47.4976047,24.1364082 L47.8220509,25.3650094 L49.7579924,25.3650094 L47.5918372,18.7854323 L45.2312529,18.7854323 L43.0925325,25.3650094 L45.0380166,25.3650094 L45.3684268,24.1364082 L47.4976047,24.1364082 Z" id="Fill-11"></path>
            </g>
        </g>
    </g>
</svg>