<?xml version="1.0" encoding="UTF-8"?>
<svg width="85px" height="94px" viewBox="0 0 85 94" version="1.1" xmlns="http://www.w3.org/2000/svg" xmlns:xlink="http://www.w3.org/1999/xlink">
    <title>i110_award4</title>
    <defs>
        <linearGradient x1="84.0697292%" y1="-8.9408363%" x2="14.3918224%" y2="93.8804673%" id="linearGradient-1">
            <stop stop-color="#64CFD6" offset="0%"></stop>
            <stop stop-color="#4CBFC6" offset="100%"></stop>
        </linearGradient>
    </defs>
    <g id="Page-1" stroke="none" stroke-width="1" fill="none" fill-rule="evenodd">
        <g id="i110_award4" fill-rule="nonzero">
            <path d="M49.4352448,1.87564436 L77.8704896,18.2927406 C82.2021047,20.7935997 84.8704896,25.415378 84.8704896,30.4170963 L84.8704896,63.2512887 C84.8704896,68.253007 82.2021047,72.8747853 77.8704896,75.3756444 L49.4352448,91.7927406 C45.1036297,94.2935995 39.7668599,94.2935995 35.4352448,91.7927406 L7,75.3756444 C2.6683849,72.8747853 0,68.253007 0,63.2512887 L0,30.4170963 C0,25.415378 2.6683849,20.7935997 7,18.2927406 L35.4352448,1.87564436 C39.7668599,-0.625214788 45.1036297,-0.625214788 49.4352448,1.87564436 Z" id="Polygon" fill="url(#linearGradient-1)"></path>
            <path d="M32.4366846,57.377012 L37.49328,57.377012 L41.6821756,45.0973002 L45.9009918,57.377012 L50.9575872,57.377012 L57.959027,35.895134 L51.9449698,35.895134 L48.2946465,48.2357873 L44.2553543,35.8341925 L39.2586003,35.8341925 L35.2193081,48.2357873 L31.5689848,35.895134 L25.4352448,35.895134 L32.4366846,57.377012 Z M56.7023583,57.2246583 L56.7023583,51.2828622 L62.6266535,51.2828622 L62.6266535,57.2246583 L56.7023583,57.2246583 Z" id="Combined-Shape-Copy" fill="#FFFFFF"></path>
        </g>
    </g>
</svg>