<svg height="106" viewBox="0 0 106 106" width="106" xmlns="http://www.w3.org/2000/svg"><path d="m53 0c3.2397814 0 6.4458691.29150691 9.5900191.86664352 3.7705555.6897204 6.2680657 4.30548837 5.5783453 8.0760438-.6897204 3.77055538-4.3054884 6.26806568-8.0760438 5.57834528-2.3210941-.424581-4.691225-.6400802-7.0923206-.6400802-21.6048534 0-39.1190476 17.5141942-39.1190476 39.1190476s17.5141942 39.1190476 39.1190476 39.1190476 39.1190476-17.5141942 39.1190476-39.1190476c0-7.5447141-2.1326587-14.7566621-6.0921731-20.9757294-2.0586205-3.2334013-1.1062724-7.5234327 2.1271289-9.5820531 3.2334014-2.0586205 7.5234327-1.1062724 9.5820532 2.1271289 5.3675714 8.4306536 8.2639434 18.2252264 8.2639434 28.4306536 0 29.2710917-23.7289083 53-53 53s-53-23.7289083-53-53 23.7289083-53 53-53zm20.8214286 25.8690476-3.0319794 10.6876847h-20.2716626c-2.0094192 0-3.6383752 1.5950131-3.6383752 3.5625615v13.5993585l5.1514039-5.2867149h17.2361302v10.6876847h-22.3875341v23.5351398h-10.9151257v-42.5354681c0-7.8701936 6.5158243-14.2502462 14.5535009-14.2502462zm4.4166666-17.66666665c3.8331192 0 6.9404762 3.10735705 6.9404762 6.94047615 0 3.8331192-3.107357 6.9404762-6.9404762 6.9404762-3.8331191 0-6.9404762-3.107357-6.9404762-6.9404762 0-3.8331191 3.1073571-6.94047615 6.9404762-6.94047615z" fill="#fff"/></svg>