<svg height="40" viewBox="0 0 120 40" width="120" xmlns="http://www.w3.org/2000/svg"><path d="m7.1370817 3.6104249.13068525.12180815 15.00000005 14.99999995c.9338624.9338625.9744651 2.4227254.1218081 3.4048487l-.1218081.1306853-15.00000005 15c-.97631073.9763107-2.55922317.9763107-3.5355339 0-.93386244-.9338625-.97446515-2.4227254-.12180815-3.4048487l.12180815-.1306853 13.23276695-13.232233-13.23276695-13.23223305c-.93386244-.93386243-.97446515-2.42272531-.12180815-3.40484865l.12180815-.13068525c.93386243-.93386244 2.42272531-.97446515 3.40484865-.12180815zm19 0 .1306853.12180815 15 14.99999995c.9338624.9338625.9744651 2.4227254.1218081 3.4048487l-.1218081.1306853-15 15c-.9763108.9763107-2.5592232.9763107-3.535534 0-.9338624-.9338625-.9744651-2.4227254-.1218081-3.4048487l.1218081-.1306853 13.232767-13.232233-13.232767-13.23223305c-.9338624-.93386243-.9744651-2.42272531-.1218081-3.40484865l.1218081-.13068525c.9338625-.93386244 2.4227254-.97446515 3.4048487-.12180815zm19 0 .1306853.12180815 15 14.99999995c.9338624.9338625.9744651 2.4227254.1218081 3.4048487l-.1218081.1306853-15 15c-.9763108.9763107-2.5592232.9763107-3.535534 0-.9338624-.9338625-.9744651-2.4227254-.1218081-3.4048487l.1218081-.1306853 13.232767-13.232233-13.232767-13.23223305c-.9338624-.93386243-.9744651-2.42272531-.1218081-3.40484865l.1218081-.13068525c.9338625-.93386244 2.4227254-.97446515 3.4048487-.12180815zm19 0 .1306853.12180815 15 14.99999995c.9338624.9338625.9744651 2.4227254.1218081 3.4048487l-.1218081.1306853-15 15c-.9763108.9763107-2.5592232.9763107-3.535534 0-.9338624-.9338625-.9744651-2.4227254-.1218081-3.4048487l.1218081-.1306853 13.232767-13.232233-13.232767-13.23223305c-.9338624-.93386243-.9744651-2.42272531-.1218081-3.40484865l.1218081-.13068525c.9338625-.93386244 2.4227254-.97446515 3.4048487-.12180815zm19 0 .1306853.12180815 15 14.99999995c.9338624.9338625.9744651 2.4227254.1218081 3.4048487l-.1218081.1306853-15 15c-.9763108.9763107-2.5592232.9763107-3.535534 0-.9338624-.9338625-.9744651-2.4227254-.1218081-3.4048487l.1218081-.1306853 13.232767-13.232233-13.232767-13.23223305c-.9338624-.93386243-.9744651-2.42272531-.1218081-3.40484865l.1218081-.13068525c.9338625-.93386244 2.4227254-.97446515 3.4048487-.12180815zm19.0000003 0 .130685.12180815 15 14.99999995c.933862.9338625.974465 2.4227254.121808 3.4048487l-.121808.1306853-15 15c-.976311.9763107-2.5592232.9763107-3.535534 0-.9338624-.9338625-.9744651-2.4227254-.1218081-3.4048487l.1218081-.1306853 13.232767-13.232233-13.232767-13.23223305c-.9338624-.93386243-.9744651-2.42272531-.1218081-3.40484865l.1218081-.13068525c.9338625-.93386244 2.422725-.97446515 3.404849-.12180815z" fill="#fef8ec"/></svg>