<svg height="125" viewBox="0 0 125 125" width="125" xmlns="http://www.w3.org/2000/svg"><g fill="none" fill-rule="evenodd" transform="translate(18 18)"><path d="m30 0h30c16.5685425 0 30 13.4314575 30 30v30c0 16.5685425-13.4314575 30-30 30h-30c-16.5685425 0-30-13.4314575-30-30v-30c0-16.5685425 13.4314575-30 30-30z" fill="#6193fe" fill-opacity=".212221"/><g fill-rule="nonzero"><path d="m60 0c16.5685425 0 30 13.4314575 30 30v30c0 16.5685425-13.4314575 30-30 30h-30c-16.5685425 0-30-13.4314575-30-30v-30c0-16.5685425 13.4314575-30 30-30zm0 2h-30c-15.3093333 0-27.74898667 12.2865601-27.9962488 27.5369688l-.0037512.4630312v30c0 15.3093333 12.2865601 27.7489867 27.5369688 27.9962488l.4630312.0037512h30c15.3093333 0 27.7489867-12.2865601 27.9962488-27.5369688l.0037512-.4630312v-30c0-15.3093333-12.2865601-27.74898667-27.5369688-27.9962488z" fill="#91b4ff"/><path d="m57 29c1.5976809 0 2.9036609 1.24892 2.9949073 2.8237272l.0050927.1762728v.6407337c0 .5522847-.4477153 1-1 1-.5128358 0-.9355072-.3860402-.9932723-.8833789l-.0067277-.1166211v-.6407337c0-.5128358-.3860402-.9355072-.8833789-.9932723l-.1166211-.0067277h-27c-.5128358 0-.9355072.3860402-.9932723.8833789l-.0067277.1166211v27c0 .5128358.3860402.9355072.8833789.9932723l.1166211.0067277h27c.5128358 0 .9355072-.3860402.9932723-.8833789l.0067277-.1166211v-14.6590967c0-.5522847.4477153-1 1-1 .5128358 0 .9355072.3860402.9932723.8833789l.0067277.1166211v14.6590967c0 1.5976809-1.24892 2.9036609-2.8237272 2.9949073l-.1762728.0050927h-27c-1.5976809 0-2.9036609-1.24892-2.9949073-2.8237272l-.0050927-.1762728v-27c0-1.5976809 1.24892-2.9036609 2.8237272-2.9949073l.1762728-.0050927zm7.857244 2.2097046c.3922912-.3050249.9595223-.2772953 1.3200062.0831886.3905243.3905243.3905243 1.0236893 0 1.4142136l-19.4701434 19.4701434-.0942074.0831887c-.3922912.3050248-.9595222.2772953-1.3200062-.0831887l-9.4701434-9.4701434-.0831887-.0942074c-.3050248-.3922912-.2772953-.9595222.0831887-1.3200062l.0942073-.0831886c.3922912-.3050249.9595223-.2772953 1.3200062.0831886l8.7640367 8.7631068 18.7620367-18.7631068z" fill="#fff"/></g></g></svg>