<svg height="125" viewBox="0 0 125 125" width="125" xmlns="http://www.w3.org/2000/svg"><g fill="none" fill-rule="evenodd" transform="translate(17 18)"><path d="m30 0h30c16.5685425 0 30 13.4314575 30 30v30c0 16.5685425-13.4314575 30-30 30h-30c-16.5685425 0-30-13.4314575-30-30v-30c0-16.5685425 13.4314575-30 30-30z" fill="#6193fe" fill-opacity=".212221"/><g fill-rule="nonzero"><path d="m60 0c16.5685425 0 30 13.4314575 30 30v30c0 16.5685425-13.4314575 30-30 30h-30c-16.5685425 0-30-13.4314575-30-30v-30c0-16.5685425 13.4314575-30 30-30zm0 2h-30c-15.3093333 0-27.74898667 12.2865601-27.9962488 27.5369688l-.0037512.4630312v30c0 15.3093333 12.2865601 27.7489867 27.5369688 27.9962488l.4630312.0037512h30c15.3093333 0 27.7489867-12.2865601 27.9962488-27.5369688l.0037512-.4630312v-30c0-15.3093333-12.2865601-27.74898667-27.5369688-27.9962488z" fill="#91b4ff"/><path d="m45 24c.5128358 0 .9355072.3860402.9932723.8833789l.0067277.1166211.0006466 3.0273438c9.1447761.5010718 16.4714917 7.8281033 16.9720645 16.9730123l3.0272889-.0003561c.5522847 0 1 .4477153 1 1 0 .5128358-.3860402.9355072-.8833789.9932723l-.1166211.0067277-3.0273438.0006466c-.5010535 9.1444419-7.8275677 16.4709561-16.9720096 16.9720096l-.0006466 3.0273438c0 .5522847-.4477153 1-1 1-.5128358 0-.9355072-.3860402-.9932723-.8833789l-.0067277-.1166211.0003561-3.0272889c-9.144909-.5005728-16.4719405-7.8272884-16.9730123-16.9720645l-3.0273438-.0006466c-.5522847 0-1-.4477153-1-1 0-.5128358.3860402-.9355072.8833789-.9932723l.1166211-.0067277 3.0272889.0003561c.5005911-9.1452432 7.827824-16.4724761 16.9730672-16.9730672l-.0003561-3.0272889c0-.5522847.4477153-1 1-1zm1.0002994 6.0307604-.0002994 2.9692396c0 .5522847-.4477153 1-1 1-.5128358 0-.9355072-.3860402-.9932723-.8833789l-.0067277-.1166211.0007031-2.9693014c-8.0405766.495485-14.4745195 6.9294279-14.9700045 14.9700045l2.9693014-.0007031c.5522847 0 1 .4477153 1 1 0 .5128358-.3860402.9355072-.8833789.9932723l-.1166211.0067277-2.9692396.0002994c.495958 8.0401089 6.9297003 14.4735376 14.9699427 14.969002l-.0007031-2.9693014c0-.5522847.4477153-1 1-1 .5128358 0 .9355072.3860402.9932723.8833789l.0067277.1166211.0002994 2.9692396c8.0397747-.4959374 14.4730028-6.9291655 14.9689402-14.9689402l-2.9692396-.0002994c-.5522847 0-1-.4477153-1-1 0-.5128358.3860402-.9355072.8833789-.9932723l.1166211-.0067277 2.9693014.0007031c-.4954644-8.0402424-6.9288931-14.4739847-14.969002-14.9699427zm9.9799292 18.4161929.1140001.0254896 1.5653425.4460557c.4512349.1285827.7413312.5472487.7255998.9959867.0049553.115528-.0097769.2341289-.0470975.3509225-1.3043521 4.0819203-4.4329706 7.3584508-8.4443751 8.8552049l-.0306984.0083873-.0196768.008995c-.0076119.002397-.0152358.0046979-.0228703.0069032l.0732455-.0242855c-.045791.0170858-.0920405.0306002-.1384426.040683-.0183576.0040643-.0370023.0075559-.0556638.010504-.0173996.0027011-.0347312.0049758-.0520511.0067885-.0234909.0024801-.0472083.0040908-.0708788.0048527-.012047.0003981-.0237552.0005687-.0354431.0005329-.0210974-.0000903-.0424964-.0008514-.0638072-.0022942-.0198587-.0012995-.0392504-.0031905-.0585352-.005641-.0155084-.0020216-.0315265-.0044468-.0474623-.0072556-.0200699-.0034905-.0393634-.0074978-.0585012-.0120637-.0154798-.003733-.0315387-.0079733-.0474769-.0126065-.0220618-.0063826-.043674-.0134831-.0650106-.021303-.0105992-.0039007-.0210059-.0079094-.0313438-.0120903-.0214328-.0086662-.0427843-.0181831-.0637824-.0284332-.0145671-.0070861-.0286334-.0143685-.0425279-.0219845-.0190468-.0104823-.0380994-.021756-.0567746-.033658-.0111786-.0070567-.0222166-.0144-.0331145-.0219674-.0167315-.0116952-.033056-.0237852-.0490196-.0363805-.0184908-.0145118-.0366428-.0299096-.0542675-.0459889-.007802-.00717-.015608-.0145189-.0233019-.0220011-.016648-.0161884-.0321127-.0323136-.047068-.0490086-.0123893-.0137998-.0248339-.0284928-.0368763-.0435855-.0106336-.013402-.0206462-.0266426-.030355-.0401777-.012061-.0166958-.0237828-.0341447-.0349879-.0520349-.0039803-.006498-.0079844-.0130599-.0119205-.0196811l-.0130565-.0224687c-.0104701-.018702-.020394-.037842-.0297437-.0574071l-.0109697-.0238283-.6432575-1.4376976c-.2255569-.5041255.0002677-1.0956499.5043932-1.3212068.4681166-.2094456 1.0115924-.02969 1.2674369.4006891l.0537699.1037041.2446087.5476596c1.0277634-.478438 1.9758279-1.0978971 2.8197008-1.8330132l-.495521-.4278919c-.4184659-.360423-.4655189-.9918372-.1050959-1.4103031.3326982-.3862762.8963001-.4560822 1.3101742-.1810535l.1001289.0759576.5876741.5052692c.7535697-.9168815 1.3734315-1.9468146 1.8303567-3.0595305l-.559552-.158822c-.5311411-.1513525-.8390205-.7046229-.687668-1.235764.1405416-.4932024.6276348-.7938987 1.1217638-.7131577zm-10.9802286-.4469533c.5522847 0 1 .4477153 1 1s-.4477153 1-1 1-1-.4477153-1-1 .4477153-1 1-1zm0-7c.5128358 0 .9355072.3860402.9932723.8833789l.0067277.1166211v3h3c.5522847 0 1 .4477153 1 1 0 .5128358-.3860402.9355072-.8833789.9932723l-.1166211.0067277h-8c-.5522847 0-1-.4477153-1-1 0-.5128358.3860402-.9355072.8833789-.9932723l.1166211-.0067277h3v-3c0-.5522847.4477153-1 1-1z" fill="#fff"/></g></g></svg>