<svg height="125" viewBox="0 0 125 125" width="125" xmlns="http://www.w3.org/2000/svg"><g fill="none" fill-rule="evenodd"><rect fill="#ffeeef" height="100" rx="50" width="100" x="12" y="12.820572"/><path d="m30 17.8205716c0-3.309-2.691-6-6-6s-6 2.691-6 6 2.691 6 6 6 6-2.691 6-6zm9 21h-7.5v-3h4.176c-1.239-5.679-5.9985-9-11.676-9s-10.437 3.321-11.676 9h4.176v3h-7.5c0-6.8325 3.8745-11.928 9.363-13.9905-2.049-1.6485-3.363-4.1745-3.363-7.0095 0-4.971 4.029-9.00000004 9-9.00000004s9 4.02900004 9 9.00000004c0 2.835-1.314 5.361-3.363 7.0095 5.4885 2.0625 9.363 7.158 9.363 13.9905zm-13.5-3h3v3h-3v3h-3v-3h-3v-3h3v-3h3z" fill="#ff595f" transform="translate(38 38)"/></g></svg>