<svg height="125" viewBox="0 0 125 125" width="125" xmlns="http://www.w3.org/2000/svg"><g fill="none" fill-rule="evenodd" transform="translate(17 17)"><path d="m30 0h30c16.5685425 0 30 13.4314575 30 30v30c0 16.5685425-13.4314575 30-30 30h-30c-16.5685425 0-30-13.4314575-30-30v-30c0-16.5685425 13.4314575-30 30-30z" fill="#6193fe" fill-opacity=".212221"/><g fill-rule="nonzero"><path d="m60 0c16.5685425 0 30 13.4314575 30 30v30c0 16.5685425-13.4314575 30-30 30h-30c-16.5685425 0-30-13.4314575-30-30v-30c0-16.5685425 13.4314575-30 30-30zm0 2h-30c-15.3093333 0-27.74898667 12.2865601-27.9962488 27.5369688l-.0037512.4630312v30c0 15.3093333 12.2865601 27.7489867 27.5369688 27.9962488l.4630312.0037512h30c15.3093333 0 27.7489867-12.2865601 27.9962488-27.5369688l.0037512-.4630312v-30c0-15.3093333-12.2865601-27.74898667-27.5369688-27.9962488z" fill="#91b4ff"/><path d="m65 33c.5128358 0 .9355072.3860402.9932723.8833789l.0067277.1166211v30c0 1.5976809-1.24892 2.9036609-2.8237272 2.9949073l-.1762728.0050927h-30c-.5522847 0-1-.4477153-1-1 0-.5128358.3860402-.9355072.8833789-.9932723l.1166211-.0067277h30c.5128358 0 .9355072-.3860402.9932723-.8833789l.0067277-.1166211v-30c0-.5522847.4477153-1 1-1zm-9-7c1.6568542 0 3 1.3431458 3 3v28c0 1.6568542-1.3431458 3-3 3h-28c-1.6568542 0-3-1.3431458-3-3v-28c0-1.6568542 1.3431458-3 3-3zm0 2h-28c-.5522847 0-1 .4477153-1 1v28c0 .5522847.4477153 1 1 1h28c.5522847 0 1-.4477153 1-1v-28c0-.5522847-.4477153-1-1-1zm-22.2759894 5.3208157.0942073.0831886 7.9457821 7.9459957 7.9467985-7.9459957.0942074-.0831886c.3922912-.3050249.9595222-.2772953 1.3200062.0831886.3905243.3905243.3905243 1.0236893 0 1.4142136l-7.9460121 7.9457821 7.9460121 7.9467985c.3905243.3905243.3905243 1.0236893 0 1.4142136-.360484.3604839-.927715.3882135-1.3200062.0831886l-.0942074-.0831886-7.9467985-7.9460121-7.9457821 7.9460121-.0942073.0831886c-.3922913.3050249-.9595223.2772953-1.3200063-.0831886-.3905243-.3905243-.3905243-1.0236893 0-1.4142136l7.9459957-7.9467985-7.9459957-7.9457821c-.3905243-.3905243-.3905243-1.0236893 0-1.4142136.360484-.3604839.927715-.3882135 1.3200063-.0831886z" fill="#fff"/></g></g></svg>