<svg height="125" viewBox="0 0 125 125" width="125" xmlns="http://www.w3.org/2000/svg"><g fill="none" fill-rule="evenodd" transform="translate(18 17)"><path d="m30 0h30c16.5685425 0 30 13.4314575 30 30v30c0 16.5685425-13.4314575 30-30 30h-30c-16.5685425 0-30-13.4314575-30-30v-30c0-16.5685425 13.4314575-30 30-30z" fill="#6193fe" fill-opacity=".212221"/><g fill-rule="nonzero"><path d="m60 0c16.5685425 0 30 13.4314575 30 30v30c0 16.5685425-13.4314575 30-30 30h-30c-16.5685425 0-30-13.4314575-30-30v-30c0-16.5685425 13.4314575-30 30-30zm0 2h-30c-15.3093333 0-27.74898667 12.2865601-27.9962488 27.5369688l-.0037512.4630312v30c0 15.3093333 12.2865601 27.7489867 27.5369688 27.9962488l.4630312.0037512h30c15.3093333 0 27.7489867-12.2865601 27.9962488-27.5369688l.0037512-.4630312v-30c0-15.3093333-12.2865601-27.74898667-27.5369688-27.9962488z" fill="#91b4ff"/><path d="m45.5934852 26c1.8747946 0 3.4980482 1.3021279 3.9047286 3.13219l.7137862 3.21081.3877115.1833863c.8574397.4207362 1.6724007.9226189 2.4340352 1.4980027l.3082533.240611 3.2667589-1.027458c1.722073-.5420158 3.5841644.1377549 4.5567868 1.6386684l.1082198.1768037 1.0934852 1.8939718c.9373973 1.6236198.6213482 3.6804626-.7602557 4.9477478l-2.695995 2.4722663c.0403564.3639621.0662796.7249028.0792579 1.0876298l.0097421.5453702c0 .3643932-.0130118.7272403-.0389015 1.0880609l-.0500985.5439391 2.6959923 2.4732638c1.2613565 1.1569875 1.6397538 2.9795853.9565633 4.5564974l-.0909408.1957685-.1053641.1954844-1.0934852 1.8939718c-.8934517 1.5475037-2.7035619 2.3126439-4.460636 1.8735655l-.2043072-.0580734-3.2668223-1.028478-.3082533.241611c-.7616345.5753838-1.5765955 1.0772665-2.4340352 1.4980027l-.3877115.1823863-.7137666 3.2117218c-.3727247 1.6772615-1.7710203 2.9189955-3.485193 3.1086634l-.2071715.0176708-.2123837.005944h-2.1869704c-1.7869033 0-3.3545893-1.1850314-3.8528733-2.9262414l-.0518595-.2059674-.614782-2.7637912-.3363071-.1248126c-1.1681759-.4556911-2.2729444-1.0565011-3.2897895-1.7865516l-.3159034-.2346358-2.5537589.804458c-1.6362911.5150163-3.4077562-.0723654-4.4298697-1.4572697l-.1237974-.1772447-.1113395-.1809577-1.0934852-1.8939718c-.8914683-1.5440685-.652229-3.4894139.6010654-4.7929171l.1591628-.1548055 1.8060225-1.6582915-.0640359-.427013c-.0672428-.4992316-.1095387-1.0033836-.126484-1.5111138l-.0084801-.5088732c0-.6799552.045307-1.3543449.1349641-2.019987l.0640359-.428013-1.8059923-1.6572638c-1.3284679-1.2185459-1.6717679-3.1670798-.8628677-4.7585565l.1026093-.1891938 1.0934852-1.8939718c.9373973-1.6236198 2.8767-2.3783347 4.6649261-1.8154975l2.5538394.8034834.3159034-.2336358c1.0168451-.7300505 2.1216136-1.3308605 3.2897895-1.7865516l.3363071-.1258126.6147666-2.7627218c.392175-1.7647877 1.9155587-3.0385956 3.7048839-3.1273308l.1998643-.0049474zm0 2h-2.1869704c-.9373973 0-1.7490241.651064-1.9523895 1.5662085l-.8605386 3.871124-.5476259.1746317c-1.5566035.4963831-3.0022984 1.2836341-4.2653628 2.3156676l-.4179874.341532-3.571822-1.1238858c-.8941533-.2814313-1.8638046.0959262-2.3325033.9077361l-1.0934852 1.8939718c-.4686986.8118099-.3106741 1.8402313.3801594 2.4739029l2.6303266 2.4128828-.1130095.5542841c-.1738804.852842-.2622766 1.7264001-.2622766 2.6119443s.0883962 1.7591023.2622766 2.6119443l.1130095.5542841-2.6074977 2.3912706-.1141094.1107845c-.6149001.6398865-.73455 1.6128055-.2888789 2.3847306l1.078038 1.8681232.0796312.1296729c.4904045.7421805 1.4162017 1.0721125 2.2683998.8038865l3.5717415-1.1238605.4179874.341532c1.2630644 1.0320335 2.7087593 1.8192845 4.2653628 2.3156676l.5476259.1746317.8535798 3.8418995.0370265.1475982c.244959.8551746 1.0289932 1.4478348 1.9223218 1.4478348l2.1568611.0004534.1521157-.0041263c.8879494-.0536124 1.6365775-.6904104 1.8303873-1.5625543l.9372954-4.2160314.4810521-.1989293c1.2770673-.528105 2.4612298-1.2579749 3.5087307-2.1590278l.4216939-.3627382 4.285704 1.3490688.1463371.0417332c.8630824.2154465 1.7683583-.1672169 2.2150226-.9408622l1.0781775-1.8664673.0755849-.1399325c.3944228-.7949764.2164572-1.7589347-.4404091-2.3614497l-3.4651558-3.1784605.0755987-.5228932c.0893304-.6178706.1344891-1.2448343.1344891-1.8777827s-.0451587-1.2599121-.1344891-1.8777827l-.0755987-.5228932 3.4651585-3.178463c.6908033-.6336439.8488278-1.6620653.3801292-2.4738752l-1.0934852-1.8939718c-.4686987-.8118099-1.43835-1.1891674-2.3325667-.9077161l-4.314497 1.3576559-.4216939-.3627382c-1.0475009-.9010529-2.2316634-1.6309228-3.5087307-2.1590278l-.4810521-.1989293-.937315-4.2161195c-.20335-.9150751-1.0149768-1.5661391-1.9523741-1.5661391zm-7.3482036 12.442733c.3972804.3836493.4083307 1.0167178.0246814 1.4139982-2.6855445 2.7809628-2.6081928 7.2124426.17277 9.8979872s7.2124427 2.6081928 9.8979872-.17277c.3836493-.3972804 1.0167178-.4083307 1.4139982-.0246814.3972804.3836492.4083307 1.0167177.0246814 1.4139981-3.452843 3.5755236-9.1504599 3.6749759-12.7259835.2221329s-3.6749759-9.1504599-.2221329-12.7259835c.3836493-.3972804 1.0167178-.4083307 1.4139982-.0246815zm5.7547184 1.557267c2.209139 0 4 1.790861 4 4s-1.790861 4-4 4-4-1.790861-4-4 1.790861-4 4-4z" fill="#fff"/></g></g></svg>