<svg height="125" viewBox="0 0 125 125" width="125" xmlns="http://www.w3.org/2000/svg"><g fill="none" fill-rule="evenodd" transform="translate(17 18)"><path d="m30 0h30c16.5685425 0 30 13.4314575 30 30v30c0 16.5685425-13.4314575 30-30 30h-30c-16.5685425 0-30-13.4314575-30-30v-30c0-16.5685425 13.4314575-30 30-30z" fill="#6193fe" fill-opacity=".212221"/><g fill-rule="nonzero"><path d="m60 0c16.5685425 0 30 13.4314575 30 30v30c0 16.5685425-13.4314575 30-30 30h-30c-16.5685425 0-30-13.4314575-30-30v-30c0-16.5685425 13.4314575-30 30-30zm0 2h-30c-15.3093333 0-27.74898667 12.2865601-27.9962488 27.5369688l-.0037512.4630312v30c0 15.3093333 12.2865601 27.7489867 27.5369688 27.9962488l.4630312.0037512h30c15.3093333 0 27.7489867-12.2865601 27.9962488-27.5369688l.0037512-.4630312v-30c0-15.3093333-12.2865601-27.74898667-27.5369688-27.9962488z" fill="#91b4ff"/><path d="m44.2740473 29.3122554c.3871085-.4086146 1.0350526-.417369 1.4330595-.0193622l15 15c.3830835.3830835.3914397 1.0015579.0188459 1.3948514l-18 19c-.1888495.1993411-.4513603.3122548-.7259527.3122548h-15c-.5522847 0-1-.4477147-1-1v-15c0-.2558651.098077-.5019976.2740473-.687744zm-16.2751627 22.2229299.0001154 11.4648147 11.3266164.0002347c-.1018548-.2128623-.1933317-.4411029-.2742997-.6840069-.2672142-.8016426-.311073-1.9528891-.1561776-3.4964778-1.5137512-.3518451-2.8746348-1.0854221-4.0680885-2.1916426-1.2388463-1.1482952-2.1003088-2.6378288-2.5862975-4.4479658-1.2053254.1849492-2.3272382.1112805-3.3554547-.2314583-.3118473-.1039491-.6073692-.2421375-.8864138-.413498zm21.0221154-16.0991853-14.936 15.87.0448227.1919264c.3567418 1.4258753.9739858 2.5741288 1.8500549 3.4628792l.2067636.200498c1.1400414 1.0567122 2.4420208 1.6667626 3.9326347 1.8458353.5483421.0658742.9394595.5637949.8735852 1.112137l-.0038611.0150035.0018085.0009928-.0745001.5951853c-.1617826 1.4309593-.141345 2.4321551.0323749 2.9533147.2069362.6208085.4538133.9921072.7525516 1.1790131l16.9027651-17.8437853zm-15.321 23.964c.5522847 0 1 .4477153 1 1 0 .5128358-.3860402.9355072-.8833789.9932723l-.1166211.0067277h-3c-.5522847 0-1-.4477153-1-1 0-.5128358.3860402-.9355072.8833789-.9932723l.1166211-.0067277zm19.9745379-15.1848042c.4015183.3792118.4196014 1.0121185.0403896 1.4136367l-2.4452011 2.5993255-6.3224725 6.7989002c-.2432313.2594286-.4825249.5137493-.7237347.7691479-.3792118.4015183-1.0121185.4196014-1.4136367.0403896-.4015183-.3792117-.4196014-1.0121184-.0403897-1.4136366l2.6207222-2.8077235 3.5104183-3.7816029c1.0478964-1.122829 2.1297882-2.2751863 3.3602679-3.5780472.3792117-.4015183 1.0121185-.4196014 1.4136367-.0403897zm-8.6565379-12.7821958-16.7495226 17.681041c.3722571.4777469.7877206.7834237 1.2492765.9372757.8414319.2804773 1.8111176.3038504 2.9224287.0556942l.0348174-.0087315 15.131-16.078zm21.0607033 6.0570261c.0516941.8787998.0227647 1.7604877-.0864254 2.6340086-.0220659.176527-.0907.3431411-.1977797.4832343l-.0873914.0998378-2 2c-.3905243.3905243-1.0236893.3905243-1.4142136 0-.3604839-.360484-.3882135-.927715-.0831886-1.3200062l.0831886-.0942074 1.7491068-1.7508932.0138477-.1181856c.0398258-.4528426.0547448-.9075318.0446894-1.3620111l-.0183826-.4543331c-.3965496-6.7413444-6.1025104-11.9086655-12.8143612-11.6766115l-.3057619.0142798-.5240314.0308615-1.7308932 1.7311068c-.360484.3604839-.927715.3882135-1.3200062.0831886l-.0942074-.0831886c-.3604839-.360484-.3882135-.927715-.0831886-1.3200062l.0831886-.0942074 2-2c.1443171-.144317.3285871-.240318.5274898-.2766323l.120895-.0145353.9033094-.0531358c7.9461493-.4674206 14.7666953 5.595287 15.2341159 13.5414363z" fill="#fff"/></g></g></svg>