<svg height="140" viewBox="0 0 140 140" width="140" xmlns="http://www.w3.org/2000/svg"><path d="m72.9562373 8c6.6459497 0 12.616461 1.0418857 18.6249964 2.9646842-3.8998144-.8834317-9.0724183-1.7740605-14.7954727-1.7740605-35.0629444 0-60.2038646 25.8742946-60.2038646 58.6983722 0 12.8155779 3.833722 24.0968754 10.4457258 33.0155181l-.0100758 9.396283 6.0687503-2.596558c10.0342973 9.408039 23.9282258 14.80195 39.672143 14.578603 21.6201479-.306352 38.1169913-13.74555 46.7157273-33.0566603l10.475833 5.6912676c-5.818774 14.2998397-24.01423 38.0772877-57.7394919 38.0772877-35.3095615 0-62.2105081-28.722987-62.2105081-63.0142929.0013195-31.4673232 25.3255233-61.9804441 62.9562373-61.9804441zm39.9120427 76.561806c.391877-.0068372.707585.0915218.956002.3485747.473682.4928745.374364 1.3150118.251055 1.825639-.59999 2.5040762-5.896982 20.2397633-30.965812 26.3026363-16.4153974 3.967706-31.5367742-1.449836-34.9428744-5.723774 0 0-.7944288-.798148-.446094-1.600613.2237067-.521063.5479316-.632856 1.2669119-.940888 16.7043569-7.1572966 45.6783994-16.0022896 63.0899815-20.0953435.293997-.0680116.555848-.1120333.79095-.1162315zm-5.982386 4.9404911c-.705666.0024085-1.479703.4844875-1.859225 1.6417651-2.321152 5.9679923-7.0901245 12.9758308-15.4922621 17.7488818 7.4589708-2.933737 14.6267031-8.537561 18.5922501-16.9316624.679397-1.4403596-.209553-2.4625735-1.240763-2.4589845zm-61.2428714-18.3876058c.9414875-1.4461172 3.1582835-2.7545318 5.740807-1.5813009 2.3449025 1.065276 2.9897537 3.6240494 1.707968 5.6900682-.440448.7094768-1.9089362 3.0321923-3.375962 5.3488032l-.3380499.5337571c-1.404528 2.2173941-2.7344859 4.3139772-3.0746498 4.850159l-.0621667.0979869c-.0140751.0221843-.021347.0336451-.021347.0336451l6.7115624 6.7560638c1.3229285 1.4621905 1.6902154 4.7273494-.681316 6.6424711-2.6227068 2.1185572-5.5950678 1.2558762-7.2128334-.4241432l-7.367449-7.8178612-.0081566 9.7605716-.0002523.083684c-.0046919.378393-.0627065 1.953787-.6906597 2.942894-.7809944 1.227089-2.075015 1.594016-2.075015 1.594016l-6.5920922 2.763408.0292678-30.7808494 9.3581392-3.8765441.0139142 10.8847428zm19.7041865-7.6843569-.0001718.3882826c-.0000159.036051-.0000328.0744782-.0000508.1152247l-.0009253 2.1109075c-.000037.084895-.0000747.1714842-.0001131.2597108l-.0008991 2.073953c-.0000468.1083645-.000094.2179685-.0001418.3287552l-.0009045 2.1096149c-.0000524.1229329-.0001052.2467076-.0001582.371267l-.0008135 1.9201524c-.0000552.1309873-.0001105.2624752-.000166.394407l-.0008379 2.0051624c-.000056.1349496-.000112.2700589-.0001679.405271l-.000833 2.0287935c-.0000549.1348201-.0001096.2694588-.0001641.4038594l-.0007988 1.9910457c-.0000518.1305986-.0001033.2606748-.0001544.390172l-.0008743 2.2561277c-.0000457.1205017-.0000909.2400833-.0001356.358688l-.0008468 2.3275935c-.0000355.1021427-.0000703.2029105-.0001044.3022468l-.0009345 3.5457308c0 3.6252489-1.3024171 5.4011086-4.754818 6.7026861-2.4282678.9160581-5.0328621 1.8066869-5.0328621 1.8066869l.0006015-1.8213719c.0000234-.0713375.0000473-.1444775.0000718-.2193666l.0009831-3.0352501c.0000342-.1069134.0000688-.2149891.0001038-.3241736l.0008888-2.8060089c.0000387-.1235113.0000776-.2477047.0001166-.3725266l.0008329-2.6953729c.00004-.1310087.00008-.2622726.0001199-.3937383l.0009453-3.1666072c.0000383-.13128.0000765-.262335.0001146-.3931116l.0008641-3.0578713c.0000336-.1229078.0000669-.2451103.0000997-.3665543l.0009218-3.6612735c.0000222-.0982994.0000438-.1952533.0000648-.2908084l.0004683-3.0443935c0-4.500644 1.7139656-6.2209669 4.6870463-7.2959588 2.2898455-.8266954 5.1036326-1.6519514 5.1036326-1.6519514zm29.3843914-7.6222227.0003876.4105476c.0000308.0333857.0000634.068703.0000975.1059132l.0007725.8658443c.0000509.0585298.0001029.1187199.0001562.1805317l.0008746 1.043957c.0000628.0770595.0001265.155547.0001908.2354236l.0008032 1.0227197c.0000691.09037.0001387.1819741.0002087.2747737l.0008547 1.1684958c.0000721.101743.0001443.2045265.0002166.3083117l.0006504.9600663c.0000721.1094466.000144.2197787.0002157.3309575l.0008465 1.3723075c.000069.1173325.0001375.2353567.0002055.3540339l.0007859 1.4529889c.0000627.123281.0001245.24706.0001854.3712982l.0008406 1.8931725c.0000506.127862.0001.2559894.0001481.3843435l.0009408 3.4924175c.0000198.1292973.0000377.2584726.0000537.3874872l-.0000227 3.0456546c-.0000193.1239633-.000041.247456-.0000654.3704392l-.0009066 2.4944708c-.0000632.1139526-.0001293.2271244-.0001985.3394769l-.0007076.988002c-.0000883.1070872-.0001798.2132389-.0002747.3184161l-.0006097.6190606c-.0001085.1011247-.0002204.2011974-.0003359.3001795l-.000736.5804951c-.0005196.3778583-.0010981.7370265-.0017395 1.0750247-.0453411 2.3215123-1.5444762 3.9675862-3.3448058 4.4946465-1.7414341.510987-3.6434812.3771228-5.1612086-1.1901439l-9.3429055-10.7652726.0004072.3706473c.0000424.0340112.0000885.0701756.0001387.1084143l.0008084.5533851c.0000858.0535714.0001764.1089015.0002721.1659115l.0006375.3615875c.000117.063414.0002396.1283501.0003679.1947294l.0008409.4149633c.0019792.9338757.0050061 2.084989.0095612 3.2800133l.0022127.5540364c.006974 1.6676763.01702 3.3684146.031414 4.6421143.014394 3.3234546-1.1621956 5.2438541-4.3917294 6.3581896-.3474951.1221091-4.3654603 1.5003346-4.3654603 1.5003346l-.0076768-30.8634948 4.4828914-1.3566345s3.041812-1.096343 4.8802857.7400915c.9048333.9051805 1.9356972 2.0288462 2.9635983 3.1933192l.6153531.7021593c2.5198384 2.895099 4.8646785 5.8222737 5.0985482 6.1148831l.0191153.0239357.0008698-1.3542493c.0000433-.0681367.0000877-.1382251.0001331-.2101173l.0007483-1.1951733c.0000534-.0862318.0001073-.1735278.0001617-.2617401l.0008341-1.3734204c.0000559-.0936779.0001118-.1875325.0001674-.2814161l.0009557-1.6610791c.0000493-.0889059.0000978-.1769533.0001452-.2639944l.0008205-1.6291885c.000029-.065704.0000562-.1293664.0000816-.1908391l.0002404-.8380828c0-3.8812221 1.7740605-5.3514493 4.0798594-6.0048169.1382154-.0391947.2783821-.0781224.4195734-.1166335l.4257212-.114134.42631-.1107369c1.6282136-.4168332 3.1468736-.7390052 3.1468736-.7390052zm15.7362405-4.4701767c3.607496-.7202997 7.391679-.5079882 10.308503.666922 3.945635 1.5254042 2.715548 8.0284934-1.621964 7.3789642-1.291861-.1969579-3.490065-1.1223722-7.373806-.2317434-3.452041.7949086-6.297615 3.6973388-6.38278 8.7300809.051219 4.6960425 2.013841 7.3535348 6.332761 6.6755774 2.952903-.5838409 3.09953-1.8189331 3.105842-2.0211901l.000225-.0282584.000518.0025017-.017753-2.5007176s-1.023293.326264-1.688056.4351786c-2.121076.3901974-3.09651-.7114234-3.120619-2.7350999.0005-.270263.000956-.5220696.00137-.7556364l.000773-.4428781c.00012-.0697812.000236-.1375517.000347-.2033197l.000618-.3706414c.000094-.0577898.000185-.1135932.000271-.167418l.00086-.551444c.000057-.0381253.000111-.0743043.000161-.1085448l.000637-.4593224 13.095542-2.8333389.000701.0832807c.003772.4546121.021709 2.7027107.027899 5.0654455l.001247.5683978.000239 1.6800313c-.002229 1.2679451-.010741 2.4033642-.030086 3.1114243-.002519 1.7210426-.402073 4.0378768-2.114719 5.7204155-1.879137 1.844831-5.302749 3.8338419-10.251287 4.3952079-6.892806.7897508-14.5670875-2.6025552-14.5928768-13.0118162.0262691-13.0997395 9.4987208-17.1314989 14.3154328-18.0920585zm-72.4025397 3.471473c0 2.1550217-.9224155 3.9867781-2.924381 5.5963872 1.9714982.3287829 3.6548765 1.9482279 3.6926607 4.1897335.0741291 4.3044058-3.0265784 6.5946111-7.0658946 8.2681535l-8.274151 3.5152547-.019192-22.4164959s5.213027-2.1252741 6.913798-2.7439762c4.8344648-1.7591867 7.6771599.3614094 7.6771599 3.5909432zm-8.8351572 9.0869322-.004798 5.4541265s.3760065-.1664613.7878844-.3533367l.2487102-.1134066c.0825242-.0378399.1637622-.0753279.2409929-.1112958 1.3326445-.6182223 2.3795681-1.7300388 2.3482611-3.3977037-.0229104-1.6965728-1.3418806-2.6223469-3.6210506-1.4783837zm22.4409657-20.1592768c1.5707453-.4520916 2.869324.0500191 2.869324 1.9380321l.0063573 11.7084395c-.0542174 6.1611118-2.9180236 8.5610714-7.2068359 9.8291828-4.8616934 1.4360414-8.0514038-.8737158-8.028972-5.4997075.0053385-.8695623.0085107-2.0266417.0102122-3.3023191l.0006833-.5965802c.0000974-.1006286.0001866-.2018051.0002681-.3034527l-.0000567-4.0341889c-.0000666-.1009025-.0001368-.2012767-.0002103-.3010456l-.0007431-.8795007c-.0000906-.0954451-.0001836-.1900542-.0002787-.2837504l-.0005925-.5506084c-.000102-.0897373-.0002054-.178408-.0003099-.2659352l-.000638-.5108261c-.0001077-.0826456-.0002159-.163994-.0003242-.2439682l-.0009707-.6805894c-.0001064-.0710372-.000212-.1404696-.0003165-.2082203l-.0006113-.3857086c-.0000988-.0607163-.0001959-.1195971-.0002909-.1765656l-.0007909-.4590062c-.0000798-.0448023-.0001566-.0874615-.00023-.1279009l-.0007018-.3737954c-.0000418-.0214499-.000079-.0403722-.0001113-.0566903l-.0001496-.0744691s.007997-.0031999.0237574-.0094296l.070338-.0276086c.2950106-.1151337 1.2695953-.4883637 2.7235301-.9739004 1.5657074-.5195035 2.885997.0486997 2.885997 1.9464286l.0185923 11.4067652c.0013194 1.3855425.6220607 2.2614174 1.9346735 1.9304753 1.7101272-.4305005 1.9249576-2.1682162 1.9401913-3.5562776l.0101957-13.9362708s1.4791035-.5775592 2.7490141-.9410077zm19.1652512.8049844c-.0266289 3.2994647-1.8672617 5.3015501-3.5205325 6.6722188l3.6332855 3.4883859c1.1164946 1.0817091 1.1944621 3.037134-.0614144 4.2188814-.7445297.6995484-2.7359396 1.4245262-4.2951696-.1622924l-4.8426214-4.9977167-.0007452.2627988c-.0000951.033451-.0001985.0697703-.0003096.1087674l-.0007557.2645904c-.0016812.5873455-.0043323 1.5053749-.0070804 2.4246124l-.0013781.4581941c-.0022967.7587401-.0045599 1.4801855-.0062841 1.9736673-.0135544 1.4804229-1.024373 2.5495373-2.3041196 3.0384535-.3423469.117455-.8079648.2774456-1.2829039.4407217l-.3561716.1224598c-.885896.3046231-1.7044108.5862993-1.7044108.5862993l.0088763-21.0427085s2.5576781-.8910052 5.0075275-1.6156682l.4721022-.1378963c.7039862-.202877 1.3843891-.3859837 1.9759825-.5234464 4.2901317-.997864 7.3412999.9542023 7.2861229 4.4196777zm-41.6485592 11.1579889-.0026389 4.7447422c.354798-.1373668.7034252-.2901688 1.0448844-.4579691 1.2347653-.6013093 2.113519-1.7164845 2.1237148-3.1604426.0127147-1.6445145-1.3415208-2.0694973-3.1659603-1.1263305zm54.2692184-20.9088443c3.6287273-.1258276 5.3193027 1.0529211 5.2744414 2.9589266-.0441416 1.7794582-1.2839448 2.8176255-3.4371673 2.4697705-.8817524-.1144323-2.0168393-.2708471-3.2643193.050379-2.4977188.6389736-4.3315144 2.9273797-4.3938884 6.8255148.028788 2.9646842 1.1406045 4.5227148 3.1456887 4.5747731 1.4308836.0331062 2.8087492-.5682032 2.7998729-1.4864204l-.0127147-2.3210325s-.5504505.1276268-1.2381239.2703673c-1.0905854.2245464-1.8486694-.4771611-1.8600646-1.5580306.0000694-.0758652.0001631-.1501834.0002783-.2229072l.0009274-.416832c.0030443-1.0585142.0101895-1.6846519.0101895-1.6846519l8.3572764-1.8978489v7.9446484c0 1.201899-.4423756 2.6095122-1.5152084 3.55052-1.0731927.9411277-2.6218671 1.9521862-5.7352893 2.5801245-5.5095434.9957049-10.0232619-2.0563029-10.0232619-8.9657827 0-6.7467077 4.023123-12.3998313 11.8913632-12.671518zm18.8729328-3.8739052-.000851.1086423c-.001601.2080078-.005155.6862817-.007958 1.1843472l-.001727.3322271c-.000779.164831-.001407.3256764-.001786.4732596l-.000393.2747345c0 1.2232501-.428341 2.1121996-1.7262 2.3849659-1.5549198.3267917-4.3514917.9107329-4.7174572.9871393l-.0398797.0083257.0011995 3.130695 5.9467614-1.261874.000263.0379926c.001179.1744364.005971.9293474.00715 1.8439923l.000264.4005437c0 1.3118931-.60119 1.9376723-1.749111 2.1893274-.9135396.1992369-4.2031683.8966262-4.2031683.8966262l-.0123549 3.9485141 6.7116822-1.4663887-.000345.0745626c-.000072.0162596-.000154.0350743-.000244.0563408l-.000629.1561942c-.000117.0306606-.00024.0635663-.000366.0986141l-.000791.2351642c-.000406.1296079-.000819.2766348-.001198.4382924l-.000701.3419971c-.000105.0599754-.000204.1213699-.000294.1840803l-.00059.8090762c0 1.5096907-.770798 2.3834065-2.006283 2.6499354-1.009589.2190993-2.2459096.4967345-3.5084036.7842579l-1.0838698.2477356c-2.4320794.5577479-4.7483782 1.1005768-5.5102693 1.2795311l-.1944197.045696c-.0443007.0104206-.0674377.0158702-.0674377.0158702l.04786-20.434682c3.5163343-.8054642 9.1551838-1.9320346 12.1215471-2.4557363zm15.85823 3.6217703c-.022431 2.9283393-1.862224 4.6905248-3.425772 5.7477641 0 0 2.872802 3.2367308 3.642761 4.0929339 1.034209 1.1542788.988029 3.1274563-.541934 4.0938935-1.503813.9483247-2.993472.4522115-3.858311-.5028304l-4.742584-5.5620815.000423.0972808c.00009.0210238.000194.0452543.000309.0724936l.000822.1979558c.002833.6926738.00868 2.2318185.010131 3.4621946l.000032.9290784c-.000087.0538721-.000193.1058009-.000321.1555882-.013914 1.4867802-.874076 2.5706484-2.416393 2.8897154l-3.090152.6088662.008876-20.1771493s1.623802-.2870376 3.386589-.58805l.506153-.086148c1.437546-.2438266 2.873503-.479769 3.520168-.5629663 4.22344-.5424139 7.057259 1.801649 6.999203 5.131461zm-56.4454714 10.229336-.0013195 5.8408453c.004798-.0038384 3.320216-1.7164845 3.2838712-4.433352-.0326264-2.3231916-2.1724145-1.8147236-3.2825517-1.4074933zm14.7171452-30.4673c1.828038-.0154736 3.5872247.0641732 5.2365372.2399 16.4276323 1.7524695 21.073656 9.6522565 21.073656 9.6522565s.590154.6983489.299875 1.413131c-.202956.4945538-.684315.6735192-1.221931.7646812-7.5752023 1.290662-19.3770828 3.605697-33.7434943 7.4144694-10.0948721 2.6790832-26.0934432 7.9853114-31.460606 9.7983556-.6287779.2123115-1.1360464.2195085-1.4843812-.2173494-.3419775-.429301-.194319-1.4350818-.1086747-1.765544 0 0 2.2753315-13.4980935 17.4827125-21.6922378 6.8195173-3.6774271 16.0042088-5.5404905 23.9261866-5.6076625zm32.7837742 19.539735.008517 5.450528.040287-.0154595c.37452-.1507719 3.232548-1.398337 3.197763-3.8499292-.033946-2.2164361-2.216436-1.8152034-3.246567-1.5851393zm-53.3290501-14.0857285c-9.2164782 4.0684641-15.4390044 13.7507082-15.7808619 17.8499994-.1348238 1.6296407 2.0231967 1.8654624 2.2265119.1349438 1.9448693-7.4775631 7.8995472-14.5275044 13.55435-17.9849432zm20.3428003-4.018389c-.7643696.0014907-1.5283925.0327414-2.2903253.093745 9.8974344.6614043 15.8345995 4.4704165 15.8672259 7.1257497.0185923 1.6796598-1.4371209 3.1605625-3.3811506 3.744719 4.9709679-1.2194117 7.7025893-1.4002963 7.7517688-3.6209306.0797667-3.4280511-8.9287181-7.3615714-17.9475188-7.3432831z" fill="#ef7d00"/></svg>