<svg height="160" viewBox="0 0 160 160" width="160" xmlns="http://www.w3.org/2000/svg"><path d="m130.69045 106c9.689489 0 18.010903 5.477219 24.831461 16.059246.897616 1.392642.496318 3.249263-.896324 4.146879s-3.249263.496318-4.146879-.896324c-5.79916-8.997338-12.350986-13.309801-19.788258-13.309801-2.744505 0-5.032795.856319-7.92837 2.964463l-.608098.45416c-.308731.23614-.624745.485969-.949221.749924l-.660582.546875-.685237.585323-1.164896 1.028232-1.977695 1.774282-.838896.736872c-6.626354 5.753913-11.277595 8.136056-18.3137651 8.136056-4.1821498 0-7.6827809-1.065868-10.8149761-3.114894l-.47991-.321254c-.1565208-.107312-.3098736-.215086-.4609017-.324021l-.446954-.330986c-.2944447-.223913-.5829645-.455268-.8723067-.699664l-.4354737-.377073c-.1459258-.129418-.2929007-.262795-.441768-.400832l-.4531226-.42879c-.0767478-.074027-.1541795-.149395-.2324007-.22619l-.4796431-.478597-.5036491-.51705-.5327156-.559702-.8646427-.928707-.9997038-1.091284-.6080364-.654551-.5860204-.617028-.5660985-.580397c-3.9906549-4.030379-6.6078302-5.30729-11.3202684-5.30729-4.9082441 0-7.6621691 1.335609-12.0265968 5.531077l-.6198208.604128c-.1051718.103833-.2113093.20925-.3184599.316272l-.655439.661535-.8166921.836361-.7063685.712549c-.696577.695316-1.364743 1.339241-2.013166 1.934571l-.6421631.579235c-4.4535691 3.942707-8.0813125 5.549892-13.8563984 5.780199-11.3867805.454099-20.9061113-4.980541-28.30025813-15.991827-.92366077-1.375506-.55736783-3.239349.81813818-4.16301s3.23934895-.557368 4.16300975.818138c6.2883875 9.364601 13.8958172 13.707726 23.0800236 13.341465 4.5404458-.181071 7.203525-1.483492 11.2491371-5.313874l.6176183-.593693.6408012-.632668c.108868-.108751.2188038-.21917.3298583-.331279l1.7731379-1.809112.8827391-.882222.5460301-.532553.5181042-.492802c.0843113-.079046.1676749-.156604.2501988-.23276l.4859292-.440769c.0795965-.07088.158569-.140526.2370255-.209022l.465411-.397849.458208-.374299.4561859-.354799c.2284509-.173199.4580862-.340605.6918203-.504495l.4737963-.323767c.0801647-.053405.1610007-.106588.2426158-.159633l.499905-.317299c3.2435403-2.012202 6.8260621-3.057798 11.0756692-3.057798 4.2352201 0 7.7762 1.073522 10.9395419 3.137095l.4849273.323729c.0790725.054071.1573413.108259.2349125.162651l.4579042.329505c.3008197.222241.5938712.45056.8859416.690575l.4382182.369495c.1463931.126557.2933893.25674.441837.391251l.4505462.417221.4643458.447403.4832358.481798.5072162.520406.536287.563228.5704481.610263 1.6174778 1.759537.6033642.642483.5815659.604134c.2857002.292638.5640513.571251.8362911.836371l.5366983.512407c3.3521288 3.13331 5.8561556 4.158758 10.0278324 4.158758 4.7786281 0 8.1543441-1.50598 12.9686851-5.470921l.715137-.597899c.121011-.102612.24296-.206715.365889-.312322l.749658-.651805c.127011-.111679.255085-.224891.384262-.339648l2.416778-2.165708.786868-.68997c5.433173-4.702777 9.341116-6.747914 14.739483-6.747914zm0-25c9.689489 0 18.010903 5.4772194 24.831461 16.0592463.897616 1.392642.496318 3.2492627-.896324 4.1468787s-3.249263.496318-4.146879-.896324c-5.79916-8.9973379-12.350986-13.309801-19.788258-13.309801-2.744505 0-5.032795.8563188-7.92837 2.9644634l-.608098.4541596c-.308731.2361405-.624745.4859693-.949221.7499244l-.660582.5468748-.685237.5853232-1.164896 1.0282316-1.977695 1.7742821-.838896.736872c-6.626354 5.7539129-11.277595 8.1360559-18.3137651 8.1360559-4.1821498 0-7.6827809-1.065868-10.8149761-3.114894l-.47991-.321254c-.1565208-.107312-.3098736-.215086-.4609017-.324021l-.446954-.3309863c-.2944447-.2239125-.5829645-.4552677-.8723067-.6996632l-.4354737-.3770734c-.1459258-.1294177-.2929007-.2627952-.441768-.4008322l-.4531226-.4287895c-.0767478-.0740279-.1541795-.1493956-.2324007-.2261906l-.4796431-.4785971-.5036491-.5170502-.5327156-.5597015-.8646427-.9287073-.9997038-1.0912833-.6080364-.6545512-.5860204-.6170283-.5660985-.580397c-3.9906549-4.0303784-6.6078302-5.3072895-11.3202684-5.3072895-4.9082441 0-7.6621691 1.3356084-12.0265968 5.5310766l-.6198208.6041281c-.1051718.1038325-.2113093.2092501-.3184599.3162719l-.655439.6615349-.8166921.8363613-.7063685.7125491c-.696577.6953156-1.364743 1.3392409-2.013166 1.934571l-.6421631.5792351c-4.4535691 3.9427066-8.0813125 5.5498916-13.8563984 5.7801986-11.3867805.454099-20.9061113-4.9805408-28.30025813-15.9918273-.92366077-1.3755061-.55736783-3.239349.81813818-4.1630098 1.37550601-.9236607 3.23934895-.5573678 4.16300975.8181382 6.2883875 9.3646012 13.8958172 13.7077258 23.0800236 13.3414648 4.5404458-.1810704 7.203525-1.4834914 11.2491371-5.3138743l.6176183-.593693.6408012-.6326674c.108868-.108751.2188038-.2191699.3298583-.3312787l1.7731379-1.8091121.8827391-.8822225.5460301-.5325529.5181042-.4928018c.0843113-.0790461.1676749-.1566046.2501988-.23276l.4859292-.4407692c.0795965-.0708802.158569-.140526.2370255-.2090218l.465411-.3978495.458208-.374299.4561859-.3547986c.2284509-.1731993.4580862-.3406048.6918203-.5044946l.4737963-.3237673c.0801647-.0534049.1610007-.106588.2426158-.1596336l.499905-.3172989c3.2435403-2.0122014 6.8260621-3.0577973 11.0756692-3.0577973 4.2352201 0 7.7762 1.073522 10.9395419 3.1370943l.4849273.3237295c.0790725.054071.1573413.1082585.2349125.1626504l.4579042.3295054c.3008197.2222411.5938712.4505601.8859416.6905745l.4382182.3694953c.1463931.126557.2933893.2567401.441837.3912514l.4505462.4172206.4643458.4474028.4832358.4817981.5072162.5204065.536287.5632279.5704481.6102625 1.6174778 1.7595379.6033642.642482.5815659.6041344c.2857002.2926381.5640513.5712508.8362911.8363709l.5366983.5124077c3.3521288 3.133309 5.8561556 4.1587577 10.0278324 4.1587577 4.7786281 0 8.1543441-1.5059801 12.9686851-5.4709209l.715137-.5978994c.121011-.1026123.24296-.2067152.365889-.3123223l.749658-.6518045c.127011-.1116795.255085-.2248909.384262-.3396481l2.416778-2.1657079.786868-.6899705c5.433173-4.7027767 9.341116-6.7479136 14.739483-6.7479136zm0-26c9.689489 0 18.010903 5.4772194 24.831461 16.0592463.897616 1.392642.496318 3.2492629-.896324 4.1468788s-3.249263.496318-4.146879-.896324c-5.79916-8.997338-12.350986-13.3098011-19.788258-13.3098011-2.744505 0-5.032795.8563188-7.92837 2.9644634l-.608098.4541596c-.308731.2361405-.624745.4859693-.949221.7499244l-.660582.5468748-.685237.5853232-1.164896 1.0282316-1.977695 1.7742821-.838896.736872c-6.626354 5.7539124-11.277595 8.1360561-18.3137651 8.1360561-4.1821498 0-7.6827809-1.0658683-10.8149761-3.1148943l-.47991-.3212536c-.1565208-.1073126-.3098736-.2150863-.4609017-.324021l-.446954-.3309866c-.2944447-.2239125-.5829645-.4552677-.8723067-.6996632l-.4354737-.3770734c-.1459258-.1294177-.2929007-.2627952-.441768-.4008322l-.4531226-.4287895c-.0767478-.0740279-.1541795-.1493956-.2324007-.2261906l-.4796431-.4785971-.5036491-.5170502-.5327156-.5597015-.8646427-.9287073-.9997038-1.0912833-.6080364-.6545512-.5860204-.6170283-.5660985-.580397c-3.9906549-4.0303784-6.6078302-5.3072895-11.3202684-5.3072895-4.9082441 0-7.6621691 1.3356084-12.0265968 5.5310766l-.6198208.6041281c-.1051718.1038325-.2113093.2092501-.3184599.3162719l-.655439.6615349-.8166921.8363613-.7063685.7125491c-.696577.6953156-1.364743 1.3392409-2.013166 1.934571l-.6421631.5792351c-4.4535691 3.9427062-8.0813125 5.5498919-13.8563984 5.7801991-11.3867805.4540984-20.9061113-4.9805413-28.30025813-15.9918278-.92366077-1.3755061-.55736783-3.239349.81813818-4.1630098 1.37550601-.9236607 3.23934895-.5573678 4.16300975.8181382 6.2883875 9.3646012 13.8958172 13.7077258 23.0800236 13.3414648 4.5404458-.1810704 7.203525-1.4834914 11.2491371-5.3138743l.6176183-.593693.6408012-.6326674c.108868-.108751.2188038-.2191699.3298583-.3312787l1.7731379-1.8091121.8827391-.8822225.5460301-.5325529.5181042-.4928018c.0843113-.0790461.1676749-.1566046.2501988-.23276l.4859292-.4407692c.0795965-.0708802.158569-.140526.2370255-.2090218l.465411-.3978495.458208-.374299.4561859-.3547986c.2284509-.1731993.4580862-.3406048.6918203-.5044946l.4737963-.3237673c.0801647-.0534049.1610007-.106588.2426158-.1596336l.499905-.3172989c3.2435403-2.0122014 6.8260621-3.0577973 11.0756692-3.0577973 4.2352201 0 7.7762 1.073522 10.9395419 3.1370943l.4849273.3237295c.0790725.054071.1573413.1082585.2349125.1626504l.4579042.3295054c.3008197.2222411.5938712.4505601.8859416.6905745l.4382182.3694953c.1463931.126557.2933893.2567401.441837.3912514l.4505462.4172206.4643458.4474028.4832358.4817981.5072162.5204065.536287.5632279.5704481.6102625 1.6174778 1.7595379.6033642.642482.5815659.6041344c.2857002.2926381.5640513.5712508.8362911.8363709l.5366983.5124077c3.3521288 3.133309 5.8561556 4.1587577 10.0278324 4.1587577 4.7786281 0 8.1543441-1.5059801 12.9686851-5.4709209l.715137-.5978994c.121011-.1026123.24296-.2067152.365889-.3123223l.749658-.6518045c.127011-.1116795.255085-.2248909.384262-.3396481l2.416778-2.1657079.786868-.6899705c5.433173-4.7027767 9.341116-6.7479136 14.739483-6.7479136zm0-25c9.689489 0 18.010903 5.4772194 24.831461 16.0592463.897616 1.392642.496318 3.2492629-.896324 4.1468788s-3.249263.496318-4.146879-.896324c-5.79916-8.997338-12.350986-13.3098011-19.788258-13.3098011-2.744505 0-5.032795.8563188-7.92837 2.9644634l-.608098.4541596c-.308731.2361405-.624745.4859693-.949221.7499244l-.660582.5468748-.685237.5853232-1.164896 1.0282316-1.977695 1.7742821-.838896.736872c-6.626354 5.7539124-11.277595 8.1360561-18.3137651 8.1360561-4.1821498 0-7.6827809-1.0658683-10.8149761-3.1148943l-.47991-.3212536c-.1565208-.1073126-.3098736-.2150863-.4609017-.324021l-.446954-.3309866c-.2944447-.2239125-.5829645-.4552677-.8723067-.6996632l-.4354737-.3770734c-.1459258-.1294177-.2929007-.2627952-.441768-.4008322l-.4531226-.4287895c-.0767478-.0740279-.1541795-.1493956-.2324007-.2261906l-.4796431-.4785971-.5036491-.5170502-.5327156-.5597015-.8646427-.9287073-.9997038-1.0912833-.6080364-.6545512-.5860204-.6170283-.5660985-.580397c-3.9906549-4.0303784-6.6078302-5.3072895-11.3202684-5.3072895-4.9082441 0-7.6621691 1.3356084-12.0265968 5.5310766l-.6198208.6041281c-.1051718.1038325-.2113093.2092501-.3184599.3162719l-.655439.6615349-.8166921.8363613-.7063685.7125491c-.696577.6953156-1.364743 1.3392409-2.013166 1.934571l-.6421631.5792351c-4.4535691 3.9427062-8.0813125 5.5498919-13.8563984 5.7801991-11.3867805.4540984-20.9061113-4.9805413-28.30025813-15.9918278-.92366077-1.3755061-.55736783-3.239349.81813818-4.1630098 1.37550601-.9236607 3.23934895-.5573678 4.16300975.8181382 6.2883875 9.3646012 13.8958172 13.7077258 23.0800236 13.3414648 4.5404458-.1810704 7.203525-1.4834914 11.2491371-5.3138743l.6176183-.593693.6408012-.6326674c.108868-.108751.2188038-.2191699.3298583-.3312787l1.7731379-1.8091121.8827391-.8822225.5460301-.5325529.5181042-.4928018c.0843113-.0790461.1676749-.1566046.2501988-.23276l.4859292-.4407692c.0795965-.0708802.158569-.140526.2370255-.2090218l.465411-.3978495.458208-.374299.4561859-.3547986c.2284509-.1731993.4580862-.3406048.6918203-.5044946l.4737963-.3237673c.0801647-.0534049.1610007-.106588.2426158-.1596336l.499905-.3172989c3.2435403-2.0122014 6.8260621-3.0577973 11.0756692-3.0577973 4.2352201 0 7.7762 1.073522 10.9395419 3.1370943l.4849273.3237295c.0790725.054071.1573413.1082585.2349125.1626504l.4579042.3295054c.3008197.2222411.5938712.4505601.8859416.6905745l.4382182.3694953c.1463931.126557.2933893.2567401.441837.3912514l.4505462.4172206.4643458.4474028.4832358.4817981.5072162.5204065.536287.5632279.5704481.6102625 1.6174778 1.7595379.6033642.642482.5815659.6041344c.2857002.2926381.5640513.5712508.8362911.8363709l.5366983.5124077c3.3521288 3.133309 5.8561556 4.1587577 10.0278324 4.1587577 4.7786281 0 8.1543441-1.5059801 12.9686851-5.4709209l.715137-.5978994c.121011-.1026123.24296-.2067152.365889-.3123223l.749658-.6518045c.127011-.1116795.255085-.2248909.384262-.3396481l2.416778-2.1657079.786868-.6899705c5.433173-4.7027767 9.341116-6.7479136 14.739483-6.7479136z" fill="#fff"/></svg>