<svg height="170" viewBox="0 0 170 170" width="170" xmlns="http://www.w3.org/2000/svg"><path d="m71.607637 149.807636 3.9799787.363677 4.0773594 6.786879 1.9090604-1.633414.4244203-4.567229 3.3129376.303009-1.3879241 14.939442-3.3129376-.303009.6065521-6.530689-6.6734024 5.975776-4.0657269-.37159 6.7415356-5.775969zm30.416809 6.904291.00565.042533c.566004 4.227951-2.1825905 8.114317-6.7870686 8.721324-2.8270313.37258-4.6440287-.339278-6.2180729-1.515705l1.7771145-2.677296c1.2958612.888915 2.5591513 1.37096 4.0584151 1.17313 2.4918166-.328388 4.0257002-2.591083 3.7405219-5.098483l-.0187848-.148621c-.3416633-2.549695-2.403608-4.439958-4.9737271-4.10134-1.7133019.225856-2.671488 1.044211-3.7074457 2.261853l-2.380343-1.826957c1.3231144-1.839157 2.8998175-3.084825 5.7909937-3.465647 4.4117108-.58162 8.1407599 2.364724 8.7127469 6.635209zm14.011187-12.780164-.778049 16.403053-2.875887 1.058719-11.375262-11.929133 3.26109-1.200497 2.476395 2.677296 5.995393-2.206791.116325-3.632154zm-3.388383 7.945502-3.76727 1.386786 3.589791 3.867901zm-53.1564298-1.609312c1.6478275.644595 2.4714089 2.487379 1.821318 4.122442l-.0159531.039896c-.6497585 1.634733-2.5196007 2.424073-4.1677606 1.779148-1.6189183-.633286-2.4422577-2.423088-1.8541761-4.036201l.0484788-.126136c.6500909-1.634733 2.5199331-2.424074 4.168093-1.779149zm67.7529978-13.836409 8.402657 12.473824-5.837856 3.870209c-1.437113.95288-2.833013 1.310952-4.031494 1.074545-.958851-.188927-1.714631-.693723-2.290606-1.549007l-.02393-.035609c-.948548-1.407559-.722213-2.692133-.160196-3.786461-1.792497.404369-3.234027.178716-4.353468-1.411871l-.088488-.128893c-1.536488-2.280977-.436385-4.65988 2.401614-6.54157zm-80.2160976 2.251895 2.6545378 1.988849-9.1125726 11.970347-9.1876854-6.883485 1.8226475-2.39407 6.5328152 4.894637 1.9399696-2.548047-5.7574257-4.313677 1.8226475-2.39374 5.7570933 4.313678zm82.5273106 6.965322-2.550843 1.690784c-1.221413.809783-1.729919 1.713865-1.10542 2.640698l.02393.035609c.552045.819675 1.510896.854295 2.678467.080121l2.730315-1.809812zm-3.38506-5.025205-3.287346 2.179094c-1.221413.809783-1.669763 1.725405-1.045596 2.652237l.02393.03561c.564343.837479 1.541141.937713 2.960307-.002968l3.197277-2.119745zm-94.6470181-16.796767 7.5980204 8.584162-11.3632963 9.8994-7.5268959-8.503052 2.2238027-1.937742 5.3459673 6.039082 2.3052303-2.007972-4.7045177-5.314695 2.2241351-1.937413 4.7041853 5.314696 2.3866578-2.078861-5.4174241-6.119863zm106.9806321 1.213455 11.058192 10.234391-4.023185 4.278068c-3.209726 3.413016-7.774593 3.618728-10.885319.828541l-.126343-.115694c-3.112194-2.880071-3.289008-7.499066-.04653-10.946909zm-.073783 4.445564-1.753518 1.864875c-1.829493 1.945522-1.769398 4.473029.105307 6.28086l.118038.111018c1.958913 1.81278 4.585866 1.752772 6.443078-.221899l1.753517-1.864875zm7.130028-16.093449 13.067292 7.550501-5.740808 9.778394-2.557489-1.477788 4.077359-6.944813-2.650882-1.531532-3.588129 6.111291-2.55749-1.477788 3.58813-6.11162-2.744275-1.585276-4.131866 7.037463-2.557157-1.478118zm-120.9415336-1.356024 5.6653626 9.942922-13.1633435 7.381687-5.6125178-9.849942 2.5764339-1.444487 3.9859611 6.995589 2.670491-1.497241-3.5080314-6.156462 2.5764339-1.444816 3.507699 6.156461 2.7642157-1.549996-4.0391384-7.089228zm125.5463106-11.483489 14.356174 4.715602-3.585471 10.742484-2.809749-.922876 2.546522-7.629633-2.912115-.956507-2.241085 6.714011-2.809749-.922875 2.241086-6.714341-3.014813-.990138-2.580423 7.731516-2.809748-.922876zm-128.1433506 3.898895 1.6823927 5.607483-14.49476686 4.279058-1.68206032-5.607814c-1.3421286-4.474226.79109909-8.483432 4.79176808-9.7318489l.163347-.0491829c4.0790212-1.2041237 8.1839663.982884 9.5393194 5.5023048zm-8.5060205-2.207451-.0412124.0122c-2.5677925.758018-3.84537398 3.035697-3.0689873 5.624299l.7331802 2.444516 8.7383383-2.579699-.7335126-2.444516c-.7760543-2.588273-3.0600137-3.814817-5.6278062-3.0568zm98.2127641-35.71429v16.854c0 15.688-8.48 21.094-21.73 21.518l-1.59-7.738c7.102-.848 10.812-4.24 10.6-9.964h-8.162v-20.67zm-29.998-.53 1.696 7.738c-7.102.742-10.918 4.24-10.6 9.964h8.056v20.67h-20.882v-16.854c0-15.688 8.586-21.094 21.73-21.518zm70.246453 21.3399631 15.023547 1.7115569-1.313808 11.348503-3.00451-.342246.933924-8.0698043-3.19761-.3640067-.823249 7.1113195-3.004843-.3425752.82325-7.1109898-5.816253-.6627296zm-132.8737923.1990497.4087995 7.1254973-15.09799535.8523164-.39882876-6.9540449c-.09804541-1.7118866.29912157-3.0864735 1.11273226-3.9915446.65108796-.7233974 1.47234286-1.1134517 2.50763587-1.1718114l.04320645-.0023081c1.70399591-.0962771 2.70472373.7487856 3.36977073 1.784754l.0661251-.1977106c.5652926-1.6243452 1.4945939-2.6634811 3.3691725-2.8073512l.1568202-.0101931c2.7608921-.1556261 4.2687972 1.991486 4.4625615 5.3723962zm-10.60366808-.9025722-.11551975.0050846c-.9917542.0560518-1.50856981.8579216-1.42880406 2.2489944l.18645245 3.2519911 3.19229194-.1800251-.1741552-3.038335c-.0819333-1.4234064-.5881641-2.3091386-1.66026538-2.28771zm5.91909188-1.1726618-.0432065.0023081c-1.0136898.0573706-1.5963121.8414358-1.4992638 2.5318908l.2183588 3.8088819 3.3215789-.1879383-.2243412-3.9153801c-.0834217-1.4550377-.6514203-2.3030679-1.7731262-2.2397624zm7.0450775-19.8555769-.6035609 3.3980554-3.5798205.7669199-1.1094087 6.2471333 3.1002289 1.9344451-.5886047 3.3136481-13.87392342-8.9527847.53210405-2.9967907zm140.252191 7.490625c.266854 1.7066738-.874178 3.3159034-2.575137 3.6268833l-.132578.0220862c-1.750526.2697079-3.381404-.9321078-3.653604-2.6683934-.267181-1.7066737.874166-3.3162218 2.575136-3.6268998l.132579-.0220697c1.750526-.2697078 3.381403.9321078 3.653604 2.6683934zm-147.5351367-2.6705035-5.17779442 1.1190568 4.48084122 2.8065445zm142.5108577-25.208454 1.411189 2.9882182-5.985423 2.7821455 8.569834 2.6901546 1.731913 3.6674336-8.430243-2.8494076-5.15187 9.4463698-1.695355-3.5902799 3.840389-6.9197544-2.385329-.8081345-4.18604 1.9453257-1.411189-2.9882181zm-141.7839258 2.8072369 1.4304659 2.8738066c-1.4274746.6600919-2.4853679 1.4979009-3.0709815 2.8810604-.9735261 2.2982614.2184262 4.7535648 2.5422888 5.7771635l.1404994.0598028c2.389649.995743 5.0757607.1862897 6.0798122-2.18437.6693676-1.5806595.4423675-2.8144576-.0933924-4.316315l2.7918013-1.1141112c.9309328 2.0617156 1.2174248 4.0406724.0877423 6.7077469-1.7063689 4.0293169-6.0818792 5.738705-10.0532397 4.1533579l-.1601003-.0655362c-3.9630285-1.652208-5.95418109-5.968523-4.155131-10.2162572 1.1047557-2.6080553 2.6419082-3.8036063 4.460235-4.5563485zm8.7202249-16.2911797 1.5936532 8.693298 10.8265393-.1328757-2.3364719 3.2167115-7.9629487.0398957.4493471 2.4606722 3.7506522 2.6809226-1.9446226 2.6776254-12.2686376-8.7691327 1.9446226-2.6776254 5.3632499 3.8332808-1.8020414-8.7364908zm126.8492179 4.0464424c1.758502 2.2265736 2.062941 4.140906 1.840594 6.0832643l-3.227189-.1595826c.113999-1.5588983-.108681-2.882709-1.041275-4.0637525-1.548232-1.9603378-4.286301-2.1246759-6.318232-.614272l-.127174.097277c-2.040341 1.5862647-2.635261 4.3080721-1.03629 6.3322 1.065538 1.3495285 2.262689 1.7534309 3.845374 2.0201713l-.377558 2.9618409c-2.268671-.1971703-4.15081-.9123248-5.949195-3.189345-2.717161-3.440457-2.092194-8.0639839 1.237022-10.7340525l.135613-.1066873c3.384062-2.6301463 8.154054-2.2539401 11.01831 1.3729384zm-14.584537-14.4902697 2.374361 1.9268616-4.626746 15.7650515-2.691762-2.1846997 1.07717-3.472901-4.949133-4.0159436-3.217551 1.7352965-2.624958-2.1299668zm-93.5791876 3.9012023.0265886.0336311c1.0937879 1.3825001.8355462 3.3818993-.5580279 4.4669954-1.3682365 1.0650433-3.3391105.8663726-4.4455313-.4496577l-.08749-.1078924c-1.0934556-1.3825002-.8352139-3.3815696.5583602-4.466336 1.3935742-1.0850961 3.4123125-.8592405 4.5061004.5232596zm92.2025636.1038606-4.659649 2.5035353 3.109867 2.523648zm-18.853998-15.69416252 6.314124 3.04624822c1.554103.7497747 2.570451 1.7643115 2.969612 2.9100754.30662.8799466.265588 1.7462193-.139267 2.6326566l-.071447.1494889c-.746475 1.5226295-1.978191 1.9769785-3.213895 2.0478674 1.256411 1.3311826 1.787851 2.6795044.968725 4.4413812l-.067705.1403555c-1.209448 2.4669368-3.834738 2.725764-6.904058 1.2450085l-6.47-3.1214235zm-57.3923905-1.15671045 1.2210808 2.74455787-7.4900043 3.2796873 1.2995171 2.9216154 6.6009484-2.8906221 1.2210808 2.7448876-6.6006161 2.8902924 2.3637251 5.3133769-3.0433958 1.332713-6.1060684-13.7244378zm56.4232365 10.48405277-1.454728 2.9684351 3.555226 1.7151838c1.291762.6231783 2.29882.5623184 2.802138-.377683l.052479-.1040324c.444029-.9057305.038221-1.7929968-1.496937-2.5332097zm-40.4311003-14.30533193.6161905 2.87182832-7.9243953 1.67396927.6384584 2.97667804 6.9738533-1.4725126.6161905 2.872158-6.973521 1.4725127.6610587 3.0818575 8.0304172-1.6957305.6161904 2.872158-11.263589 2.3785728-3.1487532-14.67533939zm22.4772581-.03039983 5.7567612 1.27171548c4.592653 1.01483686 7.084912 4.81494558 6.236819 8.88956788l-.036029.1654288c-.925283 4.1207934-4.848761 6.613448-9.487804 5.5883603l-5.7567609-1.2717155zm-5.8716568-.59461024.0478595 2.93546354-8.0995476.13056763.0495213 3.04229163 7.1274024-.11474128.0481918 2.93579328-7.1277348.1144115.0515154 3.1501088 8.2075637-.1322162.0481918 2.9357933-11.5121924.1849708-.2452797-14.99912078zm26.433174 9.6110301-1.398227 2.8523751 2.758898 1.3310644c1.2924.6234862 2.318899.6168459 2.822798-.3221158l.05176-.102229c.434724-.8866069-.019276-1.7250753-1.281902-2.3343909zm-17.9668037-5.39118998-1.9818466 8.82782218 2.5092977.5545827c2.6202916.5787436 4.7874706-.7572617 5.4058466-3.2817781l.03451-.1492489c.58229-2.5938776-.801646-4.80990031-3.45851-5.39679519z" fill="#ef7d00" fill-rule="evenodd"/></svg>