<svg xmlns="http://www.w3.org/2000/svg" width="178px" height="178px" viewBox="0 0 178 178"><style>
@keyframes mrg2m2udji0602zsqgeykis7_t { 0% { transform: translate(89px,89px) rotate(0deg) translate(-88px,-88px); } 100% { transform: translate(89px,89px) rotate(360deg) translate(-88px,-88px); } }
@keyframes pauig50d88w6uomaospdapj5_t { 0% { transform: translate(90.9px,88.7px) rotate(0deg) translate(-70.7px,-72.7px); } 100% { transform: translate(90.9px,88.7px) rotate(360deg) translate(-70.7px,-72.7px); } }
@keyframes spjf5kwwynx65ovj9yp00qjc_t { 0% { transform: translate(4.3px,0px); animation-timing-function: cubic-bezier(.4,0,.6,1); } 50% { transform: translate(6.3px,0px); animation-timing-function: cubic-bezier(.4,0,.6,1); } 100% { transform: translate(4.3px,0px); } }
@keyframes gwlf8q862834uuknnqtgjo97_t { 0% { transform: translate(-7.3px,45.3px); animation-timing-function: cubic-bezier(.4,0,.6,1); } 50% { transform: translate(-9.3px,45.3px); animation-timing-function: cubic-bezier(.4,0,.6,1); } 100% { transform: translate(-7.3px,45.3px); } }
@keyframes a5_t { 0% { transform: translate(56.2px,59.2px); animation-timing-function: cubic-bezier(.4,0,.6,1); } 50% { transform: translate(63.2px,59.2px); animation-timing-function: cubic-bezier(.4,0,.6,1); } 100% { transform: translate(56.2px,59.2px); } }
@keyframes dyo411bw65e2jbdh9udpmcer_t { 0% { transform: scale(1,1) translate(-48px,-43.9px); animation-timing-function: cubic-bezier(.4,0,.6,1); } 25% { transform: scale(1,1) translate(-48px,-43.9px); animation-timing-function: cubic-bezier(.4,0,.6,1); } 50% { transform: scale(1,1) translate(-48px,-43.9px); animation-timing-function: cubic-bezier(.4,0,.6,1); } 75% { transform: scale(1,1) translate(-48px,-43.9px); animation-timing-function: cubic-bezier(.4,0,.6,1); } 100% { transform: scale(1,1) translate(-48px,-43.9px); } }
@keyframes pm5fpchovqnr2zqmlq2xwjo7_t { 0% { transform: translate(86.5px,53.9px) scale(.9,1) translate(-127.8px,-104.2px); animation-timing-function: cubic-bezier(.4,0,.6,1); } 50% { transform: translate(86.5px,53.9px) scale(1.1,1) translate(-127.8px,-104.2px); animation-timing-function: cubic-bezier(.4,0,.6,1); } 100% { transform: translate(86.5px,53.9px) scale(.9,1) translate(-127.8px,-104.2px); animation-timing-function: cubic-bezier(.4,0,.6,1); } }
@keyframes a396jdskn0o38rceiyvzlzjs_t { 0% { transform: translate(66.8px,63.7px) rotate(0deg) scaleX(1) translate(-99.5px,-98.5px); animation-timing-function: cubic-bezier(.4,0,.6,1); } 50% { transform: translate(71.9px,58.8px) rotate(-21deg) scaleX(1) translate(-99.5px,-98.5px); animation-timing-function: cubic-bezier(.4,0,.6,1); } 100% { transform: translate(66.8px,63.7px) rotate(0deg) scaleX(1) translate(-99.5px,-98.5px); } }
@keyframes hzt8jk2auh2ftr9bp5vmi53w_t { 0% { transform: translate(29.8px,42.2px) rotate(-10.2deg) skewX(-0.4deg) scale(1,1) translate(-62.5px,-77.2px); animation-timing-function: cubic-bezier(.4,0,.6,1); } 50% { transform: translate(35.5px,40.7px) rotate(-10.2deg) skewX(-0.4deg) scale(1,1) translate(-62.5px,-77.2px); animation-timing-function: cubic-bezier(.4,0,.6,1); } 100% { transform: translate(29.8px,42.2px) rotate(-10.2deg) skewX(-0.4deg) scale(1,1) translate(-62.5px,-77.2px); } }
</style><g transform="translate(89,89) translate(-88,-88)" style="animation: 36.87s linear infinite both mrg2m2udji0602zsqgeykis7_t;"><ellipse cx="88" cy="88" fill="#ebebec" rx="88" ry="88"/><path d="M22.9 84.2c1.5-4.9 5.1-7.4 8-8.4c-2.4 2.5-3.5 3.5-4.9 8.4c-2.1 7.1 3.4 14.6 4.9 15.6c-2.9 0-10-7-8-15.6Z" fill="#8b8c90" fill-rule="evenodd" opacity=".5"/><path d="M129.8 132.3c-2.8 0-5.1-1.7-5.8-4.1c2.2 2.1 5.3 2.7 7.6 1.2c2.1-1.3 3-3.9 2.4-6.5c1.1 1 1.8 2.4 1.8 3.9c0 3-2.7 5.5-6 5.5Z" fill="#8b8c90" fill-rule="evenodd" opacity=".5"/></g><g transform="translate(90.9,88.7) translate(-70.7,-72.7)" style="animation: 39.4s linear infinite both pauig50d88w6uomaospdapj5_t;"><path d="M92.4 1.7c2.4-3.3 10.3-1.7 17.7 3.6c6 4.4 9.8 9.9 9.7 13.6c-1.5-3.1-4.6-6.6-8.7-9.6c-7.4-5.3-15.3-6.9-17.7-3.6c-0.5 .6-0.7 1.3-0.8 2.2c-1.1-2.5-1.3-4.7-0.2-6.2Z" fill="#8b8c90" fill-rule="evenodd" opacity=".3"/><path d="M138.8 51c-1.9 .4-2.7 4.1-1.7 8.3c.9 3.3 2.6 6 4.2 6.6c-1.1-1.2-2-3.2-2.6-5.5c-1-4.1-0.3-7.8 1.6-8.2c.4-0.1 .7 0 1.1 .1c-0.9-1-1.8-1.5-2.6-1.3Z" fill="#8b8c90" fill-rule="evenodd" opacity=".3"/><path d="M52.1 142.4c0 2 3.5 3.3 7.8 3c3.4-0.2 6.3-1.4 7.2-2.9c-1.3 .8-3.4 1.4-5.8 1.6c-4.2 .3-7.7-1.1-7.8-3c0-0.4 .1-0.7 .3-1.1c-1.1 .7-1.8 1.5-1.7 2.4Z" fill="#8b8c90" fill-rule="evenodd" opacity=".3"/><path d="M21.2 13.9c2.8 0 5.1 1.8 5.8 4.1c-2.1-2.1-5.2-2.7-7.6-1.2c-2.1 1.3-3 3.9-2.4 6.5c-1.1-1-1.8-2.4-1.8-3.9c0-3 2.7-5.5 6-5.5Z" fill="#8b8c90" fill-rule="evenodd" opacity=".3"/><path d="M131.4 112.6c-1.4 .8-3.1 .6-4.2-0.4c1.7 .4 3.5-0.2 4.2-1.6c.7-1.3 .4-2.8-0.7-4c.9 .2 1.7 .7 2.1 1.5c.9 1.5 .3 3.5-1.4 4.5Z" fill="#8b8c90" fill-rule="evenodd" opacity=".3"/><path d="M.7 99.4c1.3-2.5 3.9-3.8 6.3-3.3c-2.8 1-4.8 3.5-4.5 6.2c.2 2.5 2.1 4.4 4.7 5.1c-1.4 .6-3 .5-4.3-0.2c-2.7-1.3-3.7-4.8-2.2-7.8Z" fill="#8b8c90" fill-rule="evenodd" opacity=".3"/></g><title>i178_astronaut</title><desc>Created with Sketch.</desc><path d="M122.8 127.9c13.6 0 25.6 7.7 31.4 19.2c-16.1 17.8-39.3 28.9-65.2 28.9c-25.2 0-47.8-10.6-63.9-27.5c5.6-12.3 17.9-20.6 32.1-20.6h65.6Z" stroke="#3f4047" stroke-width="1.5" fill="#fff" fill-rule="evenodd"/><path d="M89.6 160.5c31.9 0 48.2-10.5 48.8-31.4h-48.8h-48.9c.6 20.9 16.9 31.4 48.9 31.4Z" fill="#ebebec" fill-rule="evenodd"/><path d="M49.9 132.9c1.5 0 2.6 1.1 2.6 2.6v33.6c-3.6-1.7-7.1-3.6-10.5-5.7v-19.4c0-2.8-0.9-5.5-2.7-7.7c-0.7-1-0.5-2.3 .4-3c.4-0.3 .8-0.4 1.3-0.4h8.9Z" fill-opacity=".4" fill="#d2d2d3" fill-rule="evenodd"/><path d="M132.4 130.6c4 1.3 7.7 3.2 11 5.7l-0.1 .1c-0.3 1.2-0.5 2.5-0.5 3.7v18.6c-3.4 2.5-6.9 4.9-10.6 7v-34c0-0.4 .1-0.8 .2-1.1Z" fill-opacity=".4" fill="#d2d2d3" fill-rule="evenodd"/><path d="M141.5 127.9c.5 0 1 .1 1.3 .4c.9 .7 1.1 2 .4 3c-1.7 2.2-2.6 4.9-2.6 7.7v20.3c-3.4 2.4-6.9 4.6-10.6 6.6v-35.4c0-1.5 1.2-2.6 2.6-2.6h8.9Z" fill="#ebebec" fill-rule="evenodd" stroke="#3f4047" stroke-width="1.5"/><path d="M140.6 151.9v7.4c-3.4 2.4-6.9 4.6-10.6 6.6v-14h10.6Z" fill="#65666c" fill-rule="evenodd" stroke="#3f4047" stroke-width="1.5"/><path d="M46.5 128c.5 0 1 .2 1.3 .4c.9 .8 1.1 2.1 .4 3c-1.7 2.2-2.6 4.9-2.6 7.7v20.4c-3.4 2.4-6.9 4.6-10.6 6.5v-35.4c0-1.4 1.2-2.6 2.6-2.6h8.9Z" fill="#ebebec" fill-rule="evenodd" stroke="#3f4047" stroke-width="1.5" transform="translate(41.8,147) scale(-1,1) translate(-41.8,-147)"/><path d="M48.6 152v7.5c-3.4 2.4-6.9 4.6-10.6 6.5v-14h10.6Z" fill="#65666c" fill-rule="evenodd" stroke="#3f4047" stroke-width="1.5" transform="translate(43.3,159) scale(-1,1) translate(-43.3,-159)"/><ellipse cx="89.6" cy="125.3" stroke="#3f4047" stroke-width="1.5" fill="#fff" rx="46.2" ry="30.8" fill-rule="evenodd"/><path d="M134.9 119.3h-0.1c.6 2 .9 4 .9 6c0 17.1-20.6 30.8-46.1 30.8c-25.5 0-46.2-13.7-46.2-30.8c0-2 .3-4 .9-6c-0.3 1.3-0.4 2.7-0.4 4c0 17.1 20.4 30.8 45.7 30.8c25.2 0 45.6-13.7 45.6-30.8c0-1.1-0.1-2.3-0.2-3.4l-0.2-0.6Z" fill-opacity=".3" fill="#3f4047" fill-rule="evenodd"/><ellipse cx="89.6" cy="120.1" stroke="#3f4047" stroke-width=".8" fill-opacity=".7" fill="#3f4047" rx="46.2" ry="30.8" fill-rule="evenodd"/><g transform="translate(30.2,33.3)"><path d="M4.3 52.5v-0.5l.1 .8c.3 4.5 1.3 11.8 3 21.8c.8 3.1 2.2 6.2 4.2 9.4c9.8 15.3 28.6 25.5 46.8 25.5c18.1 0 35.5-7.5 45.4-22.5c1.9-3 4.1-7.2 6.4-12.4l.4-2.7c1.1-9 1.8-15.6 2-19.7c0 .4 0 .9 0 1.4v.7c0 4.2-0.8 12.3-2.4 24.3l-0.6 1.3c-2.1 4.6-4 8.3-5.8 11.1c-9.9 15-27.3 22.5-45.4 22.5c-18.2 0-37-10.2-46.8-25.5c-2-3.2-3.4-6.3-4.2-9.4l-0.4-2.5c-1.8-10.8-2.7-18.1-2.7-21.8c0-0.6 0-1.2 0-1.8Z" fill-opacity=".2" fill="#3f4047" fill-rule="evenodd"/><path d="M61.9 .8l1.2 .7c9.1 .7 17.5 3.6 24.8 8.1c1.9 0 3.7 1 4.6 2.5l.2 .3l.5 1c12.1 9.8 19.9 24.6 20.1 41.3v.6c0 4.2-0.8 12.3-2.4 24.3l-0.6 1.3c-2.1 4.6-4 8.3-5.8 11.1c-9.9 15-27.3 22.5-45.4 22.5c-18.2 0-37-10.2-46.8-25.5c-2-3.2-3.4-6.3-4.2-9.4l-0.4-2.5c-1.8-10.8-2.7-18.1-2.7-21.8c0-16.9 7.8-32 20-41.9l.6-1c1-1.8 2.8-2.8 4.7-2.8c7.3-4.5 15.8-7.4 24.9-8.1l1.2-0.7c1.7-1 3.8-1 5.5 0Z" stroke="#3f4047" stroke-width="1.5" fill="#ebebec" fill-rule="evenodd"/><g transform="translate(58.5,57.2) translate(-54.2,-57.2)" style="animation: 4s linear infinite both spjf5kwwynx65ovj9yp00qjc_t;"><g transform="translate(55.2,56.8) translate(-62.5,-11.5)" style="animation: 4s linear infinite both gwlf8q862834uuknnqtgjo97_t;"><path d="M147.3 86.7h3c0 0 0 0 0 0c.3 0 .6 1.8 .6 4v.5c-0.1 2-0.3 3.5-0.6 3.5c0 0 0 0 0 0h-2.9c0 0-0.1 0-0.1 0c-0.6 0-1-1.8-1-4c0-2.2 .4-3.9 1-4Z" stroke="#3f4047" stroke-width="1.5" fill="#ebebec" stroke-linejoin="round" fill-rule="evenodd" transform="translate(119.2,11.5) scale(-1,1) translate(-149.1,-90.7)"/><path fill="#fff" fill-rule="evenodd" stroke="#3f4047" stroke-width="1.5" d="M4 7.5h3c0 0 .1 0 .1 0c.3 0 .5 1.8 .5 4v.5c0 2-0.2 3.5-0.5 3.5c0 0-0.1 0-0.1 0h-2.8c-0.1 0-0.1 0-0.2 0c-0.5 0-1-1.8-1-4c0-2.1 .4-3.9 1-4Z"/><path d="M144.4 102.2c0 0 .1 0 .1 0c.1 0 .2 0 .3 0h110.5c.1 0 .2 0 .2 0c.1 0 .1 0 .2 0c.7 0 1.3-5.1 1.3-11.5c0-6.4-0.6-11.5-1.3-11.5c-0.1 0-0.1 0-0.2 0c0 0-0.1 0-0.2 0h-110.5c-0.1 0-0.2 0-0.3 0c0 0-0.1 0-0.1 0c-0.8 0-1.4 5.1-1.4 11.5c0 6.4 .6 11.5 1.4 11.5Z" stroke="#3f4047" stroke-width="1.5" fill="#ebebec" fill-rule="evenodd" transform="translate(118.7,11.5) scale(-1,1) translate(-143.9,-90.7)"/></g><path d="M54.1 109.1c29.9 0 54.2-24.1 54.2-53.8c0-29.8-24.3-50.7-54.2-50.7c-29.9 0-54.1 20.9-54.1 50.7c0 29.7 24.2 53.8 54.1 53.8Z" stroke="#3f4047" stroke-width="1.5" fill="#fff" fill-rule="evenodd"/><path d="M54 8.4c27.1 0 47.5 21.8 50 45.9c-0.1 1-0.3 2-0.5 3c-3.9-22.8-23.5-42.8-49.5-42.8c-26 0-45.6 20-49.6 42.8c-0.2-1-0.3-2-0.4-3c2.4-24.1 22.8-45.9 50-45.9Z" fill="#ebebec" fill-rule="evenodd"/></g><g style="animation: 4s linear infinite both a5_t;"><g transform="translate(56.2,59.2) scale(.98,1) translate(-48,-43.9)" style="animation: 4s linear infinite both dyo411bw65e2jbdh9udpmcer_t;"><path d="M48 0c25.1 0 45.8 19.3 48 44c-2.2 24.6-22.9 43.9-48 43.9c-25.1 0-45.7-19.3-48-43.9c2.3-24.7 22.9-44 48-44Z" stroke="#3f4047" stroke-width="1.5" fill="#ebebec" fill-rule="evenodd"/><path d="M48.1 2.7c20.6 0 38 13.7 43.6 32.6v17.9c-5.6 18.9-23 32.6-43.6 32.6c-20.1 0-37.2-13.1-43.2-31.3v-20.5c6-18.2 23.1-31.3 43.2-31.3Z" stroke="#fff" stroke-width="2" fill="#3f4047" fill-rule="evenodd"/><path d="M127.8 85.9v17.3c-4 12.7-14.1 22.7-26.9 26.6c13.3-12.1 21.7-28.9 23.4-47.1l.3-4.1c1.3 2.3 2.4 4.7 3.2 7.3Z" fill="#fff" opacity=".4" fill-rule="evenodd" transform="translate(86.5,53.9) scale(.9,1) translate(-127.8,-104.2)" style="animation: 4s linear infinite both pm5fpchovqnr2zqmlq2xwjo7_t;"/></g></g><path d="M121.5 76.4c-5-7.6-12.9-13.4-22.3-16c-0.9-0.2-1.8 .3-2 1.1c-0.3 .9 .2 1.8 1.1 2c8.6 2.4 16 7.7 20.5 14.6c.5 .8 1.5 1 2.3 .5c.7-0.5 .9-1.5 .4-2.2Z" fill="#fff" transform="translate(66.8,63.7) scale(.98,1) translate(-99.5,-98.5)" style="animation: 4s linear infinite both a396jdskn0o38rceiyvzlzjs_t;"/><path d="M62 80.5l-1.1 .6c-0.5 .2-1 .1-1.2-0.4c-0.1-0.2-0.2-0.4-0.1-0.6l.2-1.2c.1-0.4-0.1-0.7-0.3-0.9l-0.9-0.9c-0.4-0.4-0.4-0.9 0-1.3c.1-0.1 .3-0.2 .5-0.3l1.3-0.1c.3-0.1 .6-0.3 .7-0.6l.6-1.2c.2-0.4 .8-0.6 1.2-0.4c.2 .1 .3 .3 .4 .4l.6 1.2c.1 .3 .4 .5 .7 .6l1.3 .1c.5 .1 .9 .6 .8 1.1c0 .2-0.1 .3-0.3 .5l-0.9 .9c-0.2 .2-0.4 .5-0.3 .9l.2 1.2c.1 .5-0.2 1-0.7 1.1c-0.2 0-0.4 0-0.6-0.1l-1.1-0.6c-0.3-0.2-0.7-0.2-1 0Z" fill="#fff" transform="translate(29.8,42.2) rotate(-10.2) skewX(-0.4) scale(.981,.999) translate(-62.5,-77.2)" style="animation: 4s linear infinite both hzt8jk2auh2ftr9bp5vmi53w_t;"/></g></svg>
