<svg height="175" viewBox="0 0 200 175" width="200" xmlns="http://www.w3.org/2000/svg" xmlns:xlink="http://www.w3.org/1999/xlink"><linearGradient id="a" x1="50%" x2="50%" y1="0%" y2="100%"><stop offset="0" stop-color="#ffcb00"/><stop offset="1" stop-color="#ff9b00"/></linearGradient><linearGradient id="b" x1="50%" x2="50%" y1="0%" y2="100%"><stop offset="0" stop-color="#8bcdff"/><stop offset="1" stop-color="#539eff"/></linearGradient><linearGradient id="c" x1="50%" x2="50%" y1="0%" y2="100%"><stop offset="0" stop-color="#00e5cb"/><stop offset="1" stop-color="#00c79b"/></linearGradient><g fill="none" fill-rule="evenodd" transform="translate(16 13)"><path d="m15 0h137c8.284271 0 15 6.71572875 15 15v120c0 8.284271-6.715729 15-15 15h-137c-8.28427125 0-15-6.715729-15-15v-120c0-8.28427125 6.71572875-15 15-15z" fill="#fff"/><g fill-rule="nonzero"><path d="m48.729 143.07c.434 0 .805-.14 1.078-.406.28-.28.448-.714.448-1.288v-3.276h-.56v3.283c0 .777-.406 1.176-.959 1.176-.511 0-.819-.245-1.12-.7l-.399.343c.308.504.777.868 1.512.868zm2.982-.07.581-1.295h2.667l.574 1.295h.595l-2.233-4.935h-.518l-2.233 4.935zm3.031-1.792h-2.233l1.12-2.499zm2.891 1.792v-4.018l3.164 4.018h.441v-4.9h-.539v3.927l-3.087-3.927h-.518v4.9z" fill="#a5abcd"/><path d="m8.799 118v-4.935h-.406l-1.197.413.133.448.924-.287v4.361zm3.206.084c1.26 0 2.072-1.162 2.072-2.534v-.014c0-1.372-.798-2.52-2.058-2.52s-2.079 1.162-2.079 2.534v.014c0 1.372.798 2.52 2.065 2.52zm.014-.504c-.917 0-1.505-.959-1.505-2.03v-.014c0-1.078.574-2.016 1.491-2.016.91 0 1.498.959 1.498 2.03v.014c0 1.071-.567 2.016-1.484 2.016z" fill="#a5abcd"/><path d="m9.759 88v-.504h-2.597l1.309-1.162c.861-.749 1.239-1.19 1.239-1.904v-.014c0-.798-.637-1.386-1.519-1.386-.861 0-1.323.385-1.764 1.043l.406.294c.392-.546.756-.84 1.316-.84.532 0 .987.364.987.938 0 .49-.273.868-1.022 1.54l-1.778 1.568v.427zm2.933.084c1.26 0 2.072-1.162 2.072-2.534v-.014c0-1.372-.798-2.52-2.058-2.52s-2.079 1.162-2.079 2.534v.014c0 1.372.798 2.52 2.065 2.52zm.014-.504c-.917 0-1.505-.959-1.505-2.03v-.014c0-1.078.574-2.016 1.491-2.016.91 0 1.498.959 1.498 2.03v.014c0 1.071-.567 2.016-1.484 2.016z" fill="#a5abcd"/><path d="m8.177 58.084c.91 0 1.638-.602 1.638-1.477v-.014c0-.896-.763-1.309-1.617-1.379l1.54-1.708v-.406h-3.129v.497h2.394l-1.547 1.743.112.329h.315c.805 0 1.372.336 1.372.945v.014c0 .574-.476.952-1.071.952-.602 0-1.057-.266-1.435-.728l-.399.357c.399.518 1.008.875 1.827.875zm4.613 0c1.26 0 2.072-1.162 2.072-2.534v-.014c0-1.372-.798-2.52-2.058-2.52s-2.079 1.162-2.079 2.534v.014c0 1.372.798 2.52 2.065 2.52zm.014-.504c-.917 0-1.505-.959-1.505-2.03v-.014c0-1.078.574-2.016 1.491-2.016.91 0 1.498.959 1.498 2.03v.014c0 1.071-.567 2.016-1.484 2.016z" fill="#a5abcd"/><path d="m9.556 28v-1.162h.763v-.462h-.763v-3.311h-.483l-2.772 3.374.14.399h2.583v1.162zm-.532-1.624h-2.058l2.058-2.527zm4.172 1.708c1.26 0 2.072-1.162 2.072-2.534v-.014c0-1.372-.798-2.52-2.058-2.52s-2.079 1.162-2.079 2.534v.014c0 1.372.798 2.52 2.065 2.52zm.014-.504c-.917 0-1.505-.959-1.505-2.03v-.014c0-1.078.574-2.016 1.491-2.016.91 0 1.498.959 1.498 2.03v.014c0 1.071-.567 2.016-1.484 2.016z" fill="#a5abcd"/><path d="m115.246 143v-2.135h2.653v-.504h-2.653v-1.75h2.968v-.511h-3.521v4.9zm7.616 0v-.504h-3.024v-1.715h2.674v-.504h-2.674v-1.673h2.989v-.504h-3.542v4.9zm3.29 0c1.071 0 1.778-.497 1.778-1.337v-.014c0-.672-.469-1.008-1.05-1.183.385-.168.777-.497.777-1.134v-.014c0-.315-.112-.574-.315-.784-.28-.273-.721-.434-1.281-.434h-2.086v4.9zm-.182-2.716h-1.449v-1.687h1.491c.7 0 1.085.315 1.085.798v.014c0 .574-.462.875-1.127.875zm.196 2.219h-1.645v-1.729h1.547c.854 0 1.302.308 1.302.84v.014c0 .546-.462.875-1.204.875z" fill="#a5abcd"/><path d="m30 130c-5.5228475 0-10-4.477153-10-10v-101c0-5.4292399 4.3266708-9.84793172 9.7200952-9.9961582l.2799048-.0038418h115c5.42924 0 9.847932 4.3266708 9.996158 9.7200952l.003842.2799048v101c0 5.522847-4.477153 10-10 10zm57-30h-66v20c0 4.881803 3.8868137 8.855791 8.7346377 8.996163l.2653623.003837h57zm67 0h-66v29h57c4.881803 0 8.855791-3.886814 8.996163-8.734638l.003837-.265362zm-67-30h-66v29h66zm67 0h-66v29h66zm-67-30h-66v29h66zm67 0h-66v29h66zm-67-30h-57l-.2653623.0038371c-4.7596818.1378193-8.5929813 3.9711188-8.7308006 8.7308006l-.0038371.2653623v20h66zm58 0h-57v29h66v-20l-.003837-.2653623c-.140372-4.847824-4.11436-8.7346377-8.996163-8.7346377z" fill="#f0f6ff"/></g><path d="m35 50h6c1.1045695 0 2 .8954305 2 2v78h-10v-78c0-1.1045695.8954305-2 2-2z" fill="url(#a)"/><path d="m102 73h6c1.104569 0 2 .8954305 2 2v55h-10v-55c0-1.1045695.895431-2 2-2z" fill="url(#a)"/><path d="m51 22h6c1.1045695 0 2 .8954305 2 2v106h-10v-106c0-1.1045695.8954305-2 2-2z" fill="url(#b)"/><path d="m118 83h6c1.104569 0 2 .8954305 2 2v45h-10v-45c0-1.1045695.895431-2 2-2z" fill="url(#b)"/><path d="m67 66h6c1.1045695 0 2 .8954305 2 2v62h-10v-62c0-1.1045695.8954305-2 2-2z" fill="url(#c)"/><path d="m134 73h6c1.104569 0 2 .8954305 2 2v55h-10v-55c0-1.1045695.895431-2 2-2z" fill="url(#c)"/></g></svg>