<svg height="24" viewBox="0 0 24 24" width="24" xmlns="http://www.w3.org/2000/svg"><path d="m15.8 13.5c-.8824 0-1.6-.7176-1.6-1.6s.7176-1.6 1.6-1.6 1.6.7176 1.6 1.6-.7176 1.6-1.6 1.6m-9.6 4.9c-.8824 0-1.6-.7176-1.6-1.6s.7176-1.6 1.6-1.6c2.1144 0 2.1152 3.2 0 3.2m0-9.6c-.8824 0-1.6-.7176-1.6-1.6s.7176-1.6 1.6-1.6c2.1144 0 2.1152 3.2 0 3.2m9.6-.1c-.9768 0-1.84.4472-2.4272 1.1368l-4.0056-2.3128c.2024-1.9888-1.352-3.524-3.1672-3.524-1.7672 0-3.2 1.4328-3.2 3.2s1.4328 3.2 3.2 3.2c1.0776 0 2.0256-.5368 2.6056-1.3528l3.8576 2.2272c-.0864.4352-.084.8544.0072 1.2888l-3.9576 2.2776c-.5856-.7504-1.488-1.2408-2.5128-1.2408-1.7672 0-3.2 1.4328-3.2 3.2s1.4328 3.2 3.2 3.2c1.8896 0 3.4592-1.6576 3.1512-3.6808l4.0448-2.3272c.5864.6736 1.4408 1.108 2.404 1.108 1.7672 0 3.2-1.4328 3.2-3.2s-1.4328-3.2-3.2-3.2" fill="#fff" fill-rule="evenodd" transform="matrix(-1 0 0 1 22 0)"/></svg>