<svg height="24" viewBox="0 0 24 24" width="24" xmlns="http://www.w3.org/2000/svg"><path d="m18.4 17.6c0 .4416-.3584.8-.8.8h-2.4c-.4416 0-.8-.3584-.8-.8v-2.4c0-.4416.3584-.8.8-.8h2.4c.4416 0 .8.3584.8.8zm0-4.8h-4c-.884 0-1.6.716-1.6 1.6v4c0 .884.716 1.6 1.6 1.6h4c.884 0 1.6-.716 1.6-1.6v-4c0-.884-.716-1.6-1.6-1.6zm0-4c0 .4416-.3584.8-.8.8h-2.4c-.4416 0-.8-.3584-.8-.8v-2.4c0-.4416.3584-.8.8-.8h2.4c.4416 0 .8.3584.8.8zm0-4.8h-4c-.884 0-1.6.716-1.6 1.6v4c0 .884.716 1.6 1.6 1.6h4c.884 0 1.6-.716 1.6-1.6v-4c0-.884-.716-1.6-1.6-1.6zm-8.8 13.6c0 .4416-.3584.8-.8.8h-2.4c-.4416 0-.8-.3584-.8-.8v-11.2c0-.4416.3584-.8.8-.8h2.4c.4416 0 .8.3584.8.8zm0-13.6h-4c-.884 0-1.6.716-1.6 1.6v12.8c0 .884.716 1.6 1.6 1.6h4c.884 0 1.6-.716 1.6-1.6v-12.8c0-.884-.716-1.6-1.6-1.6z" fill="#fff" fill-rule="evenodd"/></svg>