<svg height="24" viewBox="0 0 24 24" width="24" xmlns="http://www.w3.org/2000/svg"><path d="m17.0343079 12.404c-.996 1.012-1.451 2.468-1.215 3.897l.437 2.656-2.29-1.254c-.604-.331-1.284-.506-1.966-.506-.683 0-1.363.175-1.967.506l-2.29000004 1.254.438-2.656c.235-1.429-.22-2.885-1.216-3.897l-1.852-1.881 2.56-.388c1.377-.208 2.56600004-1.108 3.18200004-2.408l1.145-2.417 1.145 2.417c.615 1.3 1.805 2.2 3.181 2.408l2.561.388zm4.417-.971c1.074-1.091.482-2.992-1.003-3.217l-3.774-.571c-.59-.089-1.1-.475-1.363-1.032l-1.688-3.562c-.332-.701-.978-1.051-1.623-1.051-.646 0-1.292.35-1.624 1.051l-1.68700004 3.562c-.264.557-.774.943-1.363 1.032l-3.774.571c-1.485.225-2.078 2.126-1.004 3.217l2.731 2.773c.427.433.622 1.057.521 1.669l-.645 3.916c-.201 1.219.729 2.209 1.784 2.209.278 0 .566-.069.843-.221l3.37500004-1.849c.264-.144.553-.217.843-.217.289 0 .578.073.842.217l3.376 1.849c.277.152.564.221.842.221 1.055 0 1.985-.99 1.784-2.209l-.644-3.916c-.101-.612.093-1.236.52-1.669z" fill="#fff" fill-rule="evenodd"/></svg>