<svg height="24" viewBox="0 0 24 24" width="24" xmlns="http://www.w3.org/2000/svg"><path d="m20 5c0-.552-.448-1-1-1h-14c-.552 0-1 .448-1 1v14c0 .552.448 1 1 1h14c.552 0 1-.448 1-1zm2-1v16c0 1.105-.895 2-2 2h-16c-1.105 0-2-.895-2-2v-16c0-1.105.895-2 2-2h16c1.105 0 2 .895 2 2zm-5.979 5.015c.391.39.391 1.024 0 1.414l-3.888 3.888c-.587.586-1.537.586-2.124 0l-1.767-1.767c-.39-.39-.39-1.023 0-1.414.391-.39 1.024-.39 1.414 0l.706.706c.391.391 1.026.391 1.418 0l2.827-2.827c.39-.391 1.024-.391 1.414 0z" fill="#fff" fill-rule="evenodd"/></svg>