<svg height="24" viewBox="0 0 24 24" width="24" xmlns="http://www.w3.org/2000/svg"><path d="m11.4592424 2.15882152-6.99999999 4.5c-.28622255.18400021-.45924241.50091472-.45924241.84117848v4.4760709c0 4.6243522 3.1513228 8.6868255 7.7268767 9.9859081.1836424.0521395.3783719.0506245.5611809-.0043659l.3013402-.0906455c4.4189919-1.4046233 7.4106022-5.3874367 7.4106022-9.8908967v-4.4760709c0-.34026376-.1730199-.65717827-.4592424-.84117848l-7-4.5c-.3294076-.21176203-.7521076-.21176203-1.0815152 0zm.5407576 2.02917848 6 3.858v3.9300709l-.0045144.2708566c-.1141159 3.4206262-2.3823022 6.4400975-5.7305374 7.6201097l-.2639482.0879628-.2518838-.0830263c-3.43802106-1.2054013-5.7491162-4.3534003-5.7491162-7.8959028v-3.9310709z" fill="#fff" fill-rule="evenodd"/></svg>