<svg height="24" viewBox="0 0 24 24" width="24" xmlns="http://www.w3.org/2000/svg"><path d="m12 3c4.9705627 0 9 4.02943725 9 9 0 4.9705627-4.0294373 9-9 9-4.97056275 0-9-4.0294373-9-9 0-4.97056275 4.02943725-9 9-9zm0 2c-3.86599325 0-7 3.13400675-7 7 0 3.5264691 2.60770164 6.4438768 5.9999918 6.92911l.0000082-5.92911c0-.5522847.4477153-1 1-1s1 .4477153 1 1l.0010101 5.9289666c3.3918017-.4856642 5.9989899-3.4028447 5.9989899-6.9289666 0-3.86599325-3.1340068-7-7-7zm0 4c.5522847 0 1 .44771525 1 1 0 .5522847-.4477153 1-1 1s-1-.4477153-1-1c0-.55228475.4477153-1 1-1z" fill="#fff"/></svg>