<svg height="200" viewBox="0 0 240 200" width="240" xmlns="http://www.w3.org/2000/svg"><g fill="none" fill-rule="evenodd" transform="translate(15 15)"><path d="m15 0h180c8.284271 0 15 6.71572875 15 15v141c0 8.284271-6.715729 15-15 15h-180c-8.28427125 0-15-6.715729-15-15v-141c0-8.28427125 6.71572875-15 15-15z" fill="#fff"/><path d="m30.616 38c3.52 0 5.952-2.448 5.952-5.6v-.032c0-3.152-2.432-5.568-5.952-5.568h-4.176v11.2zm0-1.792h-2.208v-7.616h2.208c2.352 0 3.888 1.616 3.888 3.808v.032c0 2.192-1.536 3.776-3.888 3.776zm11.984 1.984c1.552 0 2.656-.624 3.456-1.584l-1.136-1.008c-.672.656-1.344 1.008-2.288 1.008-1.248 0-2.224-.768-2.432-2.144h6.208c.016-.192.032-.368.032-.544 0-2.432-1.36-4.544-4.048-4.544-2.416 0-4.128 1.984-4.128 4.4v.032c0 2.608 1.888 4.384 4.336 4.384zm1.92-5.008h-4.336c.176-1.312 1.008-2.224 2.192-2.224 1.28 0 2.016.976 2.144 2.224zm6.768 4.976c1.76 0 3.136-.88 3.136-2.656v-.032c0-1.52-1.392-2.08-2.624-2.464-.992-.32-1.904-.576-1.904-1.2v-.032c0-.464.432-.832 1.184-.832.704 0 1.568.304 2.384.8l.768-1.376c-.896-.592-2.048-.96-3.104-.96-1.68 0-3.008.976-3.008 2.592v.032c0 1.6 1.392 2.112 2.64 2.464.992.304 1.888.528 1.888 1.184v.032c0 .56-.48.912-1.312.912-.864 0-1.84-.352-2.768-1.04l-.864 1.312c1.056.848 2.384 1.264 3.584 1.264zm7.232-9.904v-1.84h-2.08v1.84zm-.064 9.744v-8.448h-1.952v8.448zm6.288 2.592c1.52 0 2.704-.368 3.472-1.136.704-.704 1.072-1.76 1.072-3.184v-6.72h-1.936v1.264c-.656-.784-1.536-1.44-2.96-1.44-1.968 0-3.84 1.472-3.84 3.968v.032c0 2.48 1.84 3.952 3.84 3.952 1.392 0 2.272-.64 2.976-1.536v.64c0 1.696-.944 2.576-2.672 2.576-1.152 0-2.096-.32-3.008-.88l-.72 1.456c1.088.656 2.384 1.008 3.776 1.008zm.16-4.912c-1.328 0-2.4-.944-2.4-2.32v-.032c0-1.392 1.056-2.304 2.4-2.304s2.48.928 2.48 2.304v.032c0 1.376-1.136 2.32-2.48 2.32zm8.752 2.32v-4.768c0-1.312.784-2.096 1.904-2.096 1.152 0 1.808.752 1.808 2.064v4.8h1.936v-5.392c0-1.952-1.104-3.232-3.008-3.232-1.312 0-2.096.688-2.64 1.472v-1.296h-1.952v8.448zm15.616.144c.736 0 1.264-.16 1.744-.432v-1.584c-.384.192-.768.288-1.2.288-.656 0-1.04-.304-1.04-1.056v-4.144h2.272v-1.664h-2.272v-2.32h-1.936v2.32h-1.072v1.664h1.072v4.448c0 1.856 1.008 2.48 2.432 2.48zm7.616.048c1.552 0 2.656-.624 3.456-1.584l-1.136-1.008c-.672.656-1.344 1.008-2.288 1.008-1.248 0-2.224-.768-2.432-2.144h6.208c.016-.192.032-.368.032-.544 0-2.432-1.36-4.544-4.048-4.544-2.416 0-4.128 1.984-4.128 4.4v.032c0 2.608 1.888 4.384 4.336 4.384zm1.92-5.008h-4.336c.176-1.312 1.008-2.224 2.192-2.224 1.28 0 2.016.976 2.144 2.224zm6.304 4.992c1.296 0 2.176-.544 2.752-1.232v1.056h1.888v-5.008c0-1.104-.288-2-.912-2.608-.592-.608-1.536-.944-2.8-.944-1.344 0-2.256.272-3.2.688l.528 1.52c.768-.32 1.472-.528 2.416-.528 1.36 0 2.096.64 2.096 1.84v.208c-.656-.208-1.328-.352-2.272-.352-2.064 0-3.504.896-3.504 2.72v.032c0 1.696 1.424 2.608 3.008 2.608zm.544-1.408c-.928 0-1.648-.464-1.648-1.28v-.032c0-.88.736-1.408 1.984-1.408.768 0 1.424.144 1.92.336v.576c0 1.072-.976 1.808-2.256 1.808zm8.352 1.232v-4.768c0-1.296.736-2.096 1.808-2.096s1.712.736 1.712 2.048v4.816h1.936v-4.768c0-1.36.752-2.096 1.808-2.096 1.088 0 1.712.72 1.712 2.064v4.8h1.936v-5.392c0-2.064-1.12-3.232-2.96-3.232-1.28 0-2.176.592-2.848 1.488-.448-.896-1.312-1.488-2.528-1.488-1.296 0-2.032.704-2.576 1.456v-1.28h-1.952v8.448z" fill="#30344f" fill-rule="nonzero"/><g fill="#9ca0b1"><g opacity=".5" transform="matrix(0 1 -1 0 180 67)"><circle cx="1" cy="1" r="1"/><circle cx="1" cy="5" r="1"/><circle cx="1" cy="9" r="1"/></g><g opacity=".5" transform="matrix(0 1 -1 0 180 99)"><circle cx="1" cy="1" r="1"/><circle cx="1" cy="5" r="1"/><circle cx="1" cy="9" r="1"/></g><g opacity=".5" transform="matrix(0 1 -1 0 180 129)"><circle cx="1" cy="1" r="1"/><circle cx="1" cy="5" r="1"/><circle cx="1" cy="9" r="1"/></g></g><g transform="translate(25 59)"><path d="m37.864 12v-.876h-4.728v-7.524h-.948v8.4zm2.652 0v-2.964h2.04c1.788 0 3.3-.936 3.3-2.748v-.024c0-1.656-1.248-2.664-3.144-2.664h-3.144v8.4zm2.076-3.828h-2.076v-3.696h2.124c1.356 0 2.256.624 2.256 1.824v.024c0 1.104-.912 1.848-2.304 1.848zm11.724 3.828v-7.524h2.832v-.876h-6.612v.876h2.832v7.524zm7.116.144c1.176 0 1.932-.468 2.556-1.164l-.576-.516c-.504.528-1.104.876-1.956.876-1.104 0-2.052-.756-2.184-2.1h4.92c.012-.108.012-.18.012-.3 0-1.812-1.056-3.276-2.892-3.276-1.716 0-2.976 1.44-2.976 3.228v.024c0 1.92 1.392 3.228 3.096 3.228zm1.836-3.588h-3.996c.12-1.212.936-2.112 2.016-2.112 1.236 0 1.884.984 1.98 2.112zm5.352 3.588c1.164 0 1.908-.504 2.532-1.2l-.588-.552c-.492.528-1.104.924-1.896.924-1.296 0-2.28-1.068-2.28-2.412v-.024c0-1.332.96-2.4 2.22-2.4.84 0 1.392.42 1.884.936l.612-.648c-.576-.612-1.308-1.104-2.484-1.104-1.812 0-3.18 1.488-3.18 3.24v.024c0 1.74 1.368 3.216 3.18 3.216zm4.98-.144v-3.552c0-1.164.792-1.944 1.86-1.944 1.092 0 1.716.72 1.716 1.872v3.624h.924v-3.852c0-1.476-.876-2.484-2.376-2.484-1.068 0-1.716.54-2.124 1.212v-3.636h-.924v8.76z" fill="#30344f" fill-rule="nonzero"/><path d="m0 24h155v1h-155z" fill="#d8d8d8" opacity=".219982"/><g fill="#ff9b00"><path d="m2.5 3h5.87683241l1.65910029 2h4.4640673c1.3807119 0 2.5 1.11928813 2.5 2.5v7c0 1.3807119-1.1192881 2.5-2.5 2.5h-12c-1.38071187 0-2.5-1.1192881-2.5-2.5v-9c0-1.38071187 1.11928813-2.5 2.5-2.5z" opacity=".3"/><path d="m4.5 0h5.40709297c.29756253 0 .57966833.13251622.76965133.3615356l1.0592765 1.2769288c.1899831.22901938.4720889.3615356.7696514.3615356h3.9943278c1.3807119 0 2.5 1.11928813 2.5 2.5v7c0 1.3807119-1.1192881 2.5-2.5 2.5h-12c-1.38071187 0-2.5-1.1192881-2.5-2.5v-9c0-1.38071187 1.11928813-2.5 2.5-2.5z"/></g></g><g transform="translate(25 90)"><path d="m33.112 12v-6.792l3.06 4.488h.048l3.06-4.5v6.804h.948v-8.4h-.96l-3.06 4.584-3.06-4.584h-.96v8.4zm12.168.144c1.872 0 3.252-1.488 3.252-3.24v-.024c0-1.752-1.368-3.216-3.228-3.216-1.872 0-3.24 1.488-3.24 3.24v.024c0 1.752 1.356 3.216 3.216 3.216zm.024-.828c-1.308 0-2.292-1.08-2.292-2.412v-.024c0-1.308.924-2.4 2.268-2.4 1.308 0 2.304 1.092 2.304 2.424v.024c0 1.308-.936 2.388-2.28 2.388zm8.196.816c1.5 0 2.964-1.2 2.964-3.228v-.024c0-2.04-1.476-3.216-2.964-3.216-1.14 0-1.872.636-2.376 1.38v-3.804h-.924v8.76h.924v-1.188c.48.696 1.224 1.32 2.376 1.32zm-.168-.828c-1.152 0-2.244-.96-2.244-2.4v-.024c0-1.416 1.092-2.388 2.244-2.388 1.176 0 2.184.936 2.184 2.4v.024c0 1.5-.984 2.388-2.184 2.388zm5.916-6.864v-1.02h-1.056v1.02zm-.072 7.56v-6.204h-.924v6.204zm3.156 0v-8.76h-.924v8.76zm4.86.144c1.176 0 1.932-.468 2.556-1.164l-.576-.516c-.504.528-1.104.876-1.956.876-1.104 0-2.052-.756-2.184-2.1h4.92c.012-.108.012-.18.012-.3 0-1.812-1.056-3.276-2.892-3.276-1.716 0-2.976 1.44-2.976 3.228v.024c0 1.92 1.392 3.228 3.096 3.228zm1.836-3.588h-3.996c.12-1.212.936-2.112 2.016-2.112 1.236 0 1.884.984 1.98 2.112z" fill="#30344f" fill-rule="nonzero"/><path d="m0 24h155v1h-155z" fill="#d8d8d8" opacity=".219982"/><g fill="#ff9b00"><path d="m2.5 3h5.87683241l1.65910029 2h4.4640673c1.3807119 0 2.5 1.11928813 2.5 2.5v7c0 1.3807119-1.1192881 2.5-2.5 2.5h-12c-1.38071187 0-2.5-1.1192881-2.5-2.5v-9c0-1.38071187 1.11928813-2.5 2.5-2.5z" opacity=".3"/><path d="m4.5 0h5.40709297c.29756253 0 .57966833.13251622.76965133.3615356l1.0592765 1.2769288c.1899831.22901938.4720889.3615356.7696514.3615356h3.9943278c1.3807119 0 2.5 1.11928813 2.5 2.5v7c0 1.3807119-1.1192881 2.5-2.5 2.5h-12c-1.38071187 0-2.5-1.1192881-2.5-2.5v-9c0-1.38071187 1.11928813-2.5 2.5-2.5z"/></g></g><g transform="translate(25 121)"><path d="m33.136 12v-3.66h4.548v-.864h-4.548v-3h5.088v-.876h-6.036v8.4zm9.6.144c1.872 0 3.252-1.488 3.252-3.24v-.024c0-1.752-1.368-3.216-3.228-3.216-1.872 0-3.24 1.488-3.24 3.24v.024c0 1.752 1.356 3.216 3.216 3.216zm.024-.828c-1.308 0-2.292-1.08-2.292-2.412v-.024c0-1.308.924-2.4 2.268-2.4 1.308 0 2.304 1.092 2.304 2.424v.024c0 1.308-.936 2.388-2.28 2.388zm5.82.684v-2.472c0-1.872 1.104-2.844 2.46-2.844h.072v-.996c-1.176-.048-2.076.696-2.532 1.728v-1.62h-.924v6.204zm10.608 0c2.64 0 4.464-1.836 4.464-4.2v-.024c0-2.364-1.824-4.176-4.464-4.176h-2.916v8.4zm0-.876h-1.968v-6.648h1.968c2.124 0 3.48 1.464 3.48 3.324v.024c0 1.86-1.356 3.3-3.48 3.3zm9.024 1.02c1.176 0 1.932-.468 2.556-1.164l-.576-.516c-.504.528-1.104.876-1.956.876-1.104 0-2.052-.756-2.184-2.1h4.92c.012-.108.012-.18.012-.3 0-1.812-1.056-3.276-2.892-3.276-1.716 0-2.976 1.44-2.976 3.228v.024c0 1.92 1.392 3.228 3.096 3.228zm1.836-3.588h-3.996c.12-1.212.936-2.112 2.016-2.112 1.236 0 1.884.984 1.98 2.112zm5.448 3.492 2.7-6.252h-.996l-2.1 5.148-2.088-5.148h-1.02l2.688 6.252z" fill="#30344f" fill-rule="nonzero"/><path d="m0 24h155v1h-155z" fill="#d8d8d8" opacity=".219982"/><g fill="#ff9b00"><path d="m2.5 3h5.87683241l1.65910029 2h4.4640673c1.3807119 0 2.5 1.11928813 2.5 2.5v7c0 1.3807119-1.1192881 2.5-2.5 2.5h-12c-1.38071187 0-2.5-1.1192881-2.5-2.5v-9c0-1.38071187 1.11928813-2.5 2.5-2.5z" opacity=".3"/><path d="m4.5 0h5.40709297c.29756253 0 .57966833.13251622.76965133.3615356l1.0592765 1.2769288c.1899831.22901938.4720889.3615356.7696514.3615356h3.9943278c1.3807119 0 2.5 1.11928813 2.5 2.5v7c0 1.3807119-1.1192881 2.5-2.5 2.5h-12c-1.38071187 0-2.5-1.1192881-2.5-2.5v-9c0-1.38071187 1.11928813-2.5 2.5-2.5z"/></g></g><g transform="translate(165 123)"><circle cx="17" cy="17" fill="#ff9b00" r="17"/><g fill="#fff"><rect height="12" rx=".5" width="1" x="17" y="11"/><rect height="12" rx=".5" transform="matrix(0 1 -1 0 34.5 -.5)" width="1" x="17" y="11"/></g></g></g></svg>