<?xml version="1.0" encoding="UTF-8"?>
<svg width="2560px" height="390px" viewBox="0 0 2560 390" version="1.1" xmlns="http://www.w3.org/2000/svg" xmlns:xlink="http://www.w3.org/1999/xlink">
    <!-- Generator: Sketch 63.1 (92452) - https://sketch.com -->
    <title>i2560_verticals_stars</title>
    <desc>Created with Sketch.</desc>
    <g id="WWD" stroke="none" stroke-width="1" fill="none" fill-rule="evenodd">
        <g id="WWD_1920-Copy" transform="translate(0.000000, -1059.000000)" fill="#FFFFFF">
            <g id="3.-Cutting-edge" transform="translate(0.000000, 915.000000)">
                <g id="Bg">
                    <g id="Group-18" transform="translate(0.000000, 144.000000)">
                        <g id="Stars" transform="translate(620.000000, 40.000000)">
                            <path d="M1091.06109,26.9467636 L1087.05025,28.2684324 C1085.67167,28.7227089 1084.18584,27.9734109 1083.73157,26.5948285 C1083.55553,26.060597 1083.55553,25.4839789 1083.73157,24.9497475 L1085.05324,20.9389102 C1085.25418,20.3290979 1085.25418,19.6709021 1085.05324,19.0610898 L1083.73157,15.0502525 C1083.27729,13.67167 1084.02659,12.1858442 1085.40517,11.7315676 C1085.9394,11.5555253 1086.51602,11.5555253 1087.05025,11.7315676 L1091.06109,13.0532364 C1091.6709,13.2541844 1092.3291,13.2541844 1092.93891,13.0532364 L1096.94975,11.7315676 C1098.32833,11.2772911 1099.81416,12.0265891 1100.26843,13.4051715 C1100.44447,13.939403 1100.44447,14.5160211 1100.26843,15.0502525 L1098.94676,19.0610898 C1098.74582,19.6709021 1098.74582,20.3290979 1098.94676,20.9389102 L1100.26843,24.9497475 C1100.72271,26.32833 1099.97341,27.8141558 1098.59483,28.2684324 C1098.0606,28.4444747 1097.48398,28.4444747 1096.94975,28.2684324 L1092.93891,26.9467636 C1092.3291,26.7458156 1091.6709,26.7458156 1091.06109,26.9467636 Z" id="Star" transform="translate(1092.000000, 20.000000) rotate(-45.000000) translate(-1092.000000, -20.000000) "></path>
                            <path d="M12.0610898,283.576274 L9.81801948,284.315421 C8.93178789,284.607456 7.97661413,284.125764 7.68457919,283.239533 C7.57140915,282.896098 7.57140915,282.525415 7.68457919,282.181981 L8.42372559,279.93891 C8.62467364,279.329098 8.62467364,278.670902 8.42372559,278.06109 L7.68457919,275.818019 C7.39254426,274.931788 7.87423583,273.976614 8.76046742,273.684579 C9.10390192,273.571409 9.47458499,273.571409 9.81801948,273.684579 L12.0610898,274.423726 C12.6709021,274.624674 13.3290979,274.624674 13.9389102,274.423726 L16.1819805,273.684579 C17.0682121,273.392544 18.0233859,273.874236 18.3154208,274.760467 C18.4285909,275.103902 18.4285909,275.474585 18.3154208,275.818019 L17.5762744,278.06109 C17.3753264,278.670902 17.3753264,279.329098 17.5762744,279.93891 L18.3154208,282.181981 C18.6074557,283.068212 18.1257642,284.023386 17.2395326,284.315421 C16.8960981,284.428591 16.525415,284.428591 16.1819805,284.315421 L13.9389102,283.576274 C13.3290979,283.375326 12.6709021,283.375326 12.0610898,283.576274 Z" id="Star-Copy-4" transform="translate(13.000000, 279.000000) rotate(-45.000000) translate(-13.000000, -279.000000) "></path>
                            <path d="M196.06109,48.2057852 L195.585786,48.3624092 C195.191906,48.4922026 194.767384,48.2781174 194.637591,47.8842367 C194.587293,47.7315991 194.587293,47.5668511 194.637591,47.4142136 L194.794215,46.9389102 C194.995163,46.3290979 194.995163,45.6709021 194.794215,45.0610898 L194.637591,44.5857864 C194.507797,44.1919057 194.721883,43.7673841 195.115763,43.6375908 C195.268401,43.587293 195.433149,43.587293 195.585786,43.6375908 L196.06109,43.7942148 C196.670902,43.9951629 197.329098,43.9951629 197.93891,43.7942148 L198.414214,43.6375908 C198.808094,43.5077974 199.232616,43.7218826 199.362409,44.1157633 C199.412707,44.2684009 199.412707,44.4331489 199.362409,44.5857864 L199.205785,45.0610898 C199.004837,45.6709021 199.004837,46.3290979 199.205785,46.9389102 L199.362409,47.4142136 C199.492203,47.8080943 199.278117,48.2326159 198.884237,48.3624092 C198.731599,48.412707 198.566851,48.412707 198.414214,48.3624092 L197.93891,48.2057852 C197.329098,48.0048371 196.670902,48.0048371 196.06109,48.2057852 Z" id="Star-Copy-5" transform="translate(197.000000, 46.000000) rotate(-45.000000) translate(-197.000000, -46.000000) "></path>
                        </g>
                    </g>
                </g>
            </g>
        </g>
    </g>
</svg>