<?xml version="1.0" encoding="UTF-8"?>
<svg width="280px" height="445px" viewBox="0 0 280 445" version="1.1" xmlns="http://www.w3.org/2000/svg" xmlns:xlink="http://www.w3.org/1999/xlink">
    <title>i280_Health</title>
    <defs>
        <linearGradient x1="70.3947014%" y1="2.9667197%" x2="28.2572971%" y2="106.5432%" id="linearGradient-1">
            <stop stop-color="#F958B9" offset="0%"></stop>
            <stop stop-color="#F23745" offset="100%"></stop>
        </linearGradient>
        <rect id="path-2" x="0" y="0" width="280" height="445"></rect>
    </defs>
    <g id="Final" stroke="none" stroke-width="1" fill="none" fill-rule="evenodd">
        <g id="2-copy">
            <g id="Плашка">
                <mask id="mask-3" fill="white">
                    <use xlink:href="#path-2"></use>
                </mask>
                <use id="Mask" fill="url(#linearGradient-1)" xlink:href="#path-2"></use>
                <g id="Кляксы" mask="url(#mask-3)" opacity="0.200000003">
                    <g transform="translate(164.500000, -59.000000)">
                        <path d="M141.4784,32.2175442 C177.096266,30.5575175 207.766066,-9.6406358 241.4104,2.16826153 C275.020666,13.9651375 297.672666,52.5317309 300.517,88.0385309 C303.232066,121.931131 266.413,144.560731 255.394066,176.726664 C244.669133,208.033464 263.820666,251.819398 237.5268,271.912664 C211.3566,291.911664 174.397066,262.698331 141.4784,263.780064 C106.713133,264.922464 68.6774663,299.090398 40.7319729,278.378798 C12.7158263,257.614464 32.5329196,211.597398 25.1011596,177.526531 C18.7536529,148.426131 -3.58401439,123.409064 0.493672279,93.9045309 C4.95847295,61.5995309 18.2142329,24.2507042 48.0918663,11.1779242 C78.0583996,-1.9338318 108.804266,33.7403242 141.4784,32.2175442 Z" id="Path" fill="#EC3A5A"></path>
                        <path d="M143.146456,52.7385564 C172.052099,51.3873799 196.942144,18.6681464 224.246169,28.2799827 C251.522546,37.8820342 269.905754,69.2732616 272.21407,98.1739743 C274.417479,125.760811 244.537003,144.180144 235.594599,170.361563 C226.89079,195.843691 242.433198,231.483193 221.094437,247.838081 C199.856038,264.11624 169.861566,240.338087 143.146456,241.218562 C114.932739,242.148417 84.0649329,269.959361 61.3857963,253.101182 C38.649321,236.20008 54.7318629,198.74455 48.7006256,171.012613 C43.5493131,147.326381 25.421202,126.963773 28.7304444,102.948597 C32.3538488,76.6539854 43.1115473,46.2539575 67.3587102,35.6133856 C91.6780197,24.9410892 116.629796,53.9780211 143.146456,52.7385564 Z" id="Path-Copy-8" fill="#E73252"></path>
                        <path d="M145.030613,75.9566355 C166.354448,74.9549012 184.715957,50.6975384 204.85827,57.823555 C224.980188,64.9423174 238.541571,88.2151239 240.244426,109.641514 C241.869893,130.093824 219.826918,143.749537 213.230063,163.159899 C206.80922,182.051821 218.274931,208.474211 202.533222,220.599386 C186.865551,232.667677 164.738481,215.039046 145.030613,215.691812 C124.217216,216.381187 101.445883,236.999646 84.7153724,224.50134 C67.9425628,211.971213 79.806733,184.202458 75.3574596,163.642574 C71.557311,146.082092 58.1841143,130.985675 60.6253587,113.181321 C63.298362,93.6870398 71.2343691,71.1490881 89.1216203,63.2603882 C107.062095,55.3481685 125.469143,76.875549 145.030613,75.9566355 Z" id="Path-Copy-9" fill="#E22A4B"></path>
                    </g>
                </g>
            </g>
        </g>
    </g>
</svg>