<?xml version="1.0" encoding="UTF-8"?>
<svg width="280px" height="445px" viewBox="0 0 280 445" version="1.1" xmlns="http://www.w3.org/2000/svg" xmlns:xlink="http://www.w3.org/1999/xlink">
    <title>i280_Fitness</title>
    <defs>
        <linearGradient x1="70.3947014%" y1="2.9667197%" x2="28.2572971%" y2="106.5432%" id="linearGradient-1">
            <stop stop-color="#6236FF" offset="0%"></stop>
            <stop stop-color="#B620E0" offset="100%"></stop>
        </linearGradient>
        <rect id="path-2" x="0" y="0" width="280" height="445"></rect>
    </defs>
    <g id="Final" stroke="none" stroke-width="1" fill="none" fill-rule="evenodd">
        <g id="3-copy-2">
            <g id="Плашка">
                <mask id="mask-3" fill="white">
                    <use xlink:href="#path-2"></use>
                </mask>
                <use id="Mask" fill="url(#linearGradient-1)" xlink:href="#path-2"></use>
                <g id="Vector-(2)" mask="url(#mask-3)" opacity="0.5">
                    <g transform="translate(191.000000, -110.000000)">
                        <path d="M151.433748,0.533917229 C199.679948,-2.74196455 251.90671,8.60832144 281.237902,47.0547812 C310.04677,84.8172348 301.044727,136.002145 290.03027,182.203781 C279.196134,227.646394 263.084247,274.815331 221.748933,296.581451 C178.946826,319.119642 127.054612,312.656529 83.938459,290.724998 C42.0242556,269.405252 10.3551416,230.962054 1.82706614,184.717085 C-6.30679256,140.609402 13.7208435,98.1124886 41.9988616,63.2989964 C69.8935008,28.9576454 107.292518,3.53106649 151.433748,0.533917229 Z" id="Path" fill="#712DF2"></path>
                        <path d="M151.15615,37.7281083 C187.753978,35.2393891 227.371316,43.8623115 249.620901,73.0704601 C271.47427,101.758962 264.645644,140.644635 256.290475,175.744467 C248.072089,210.267661 235.850193,246.10236 204.494714,262.638293 C172.026579,279.760775 132.663016,274.850685 99.9566569,258.189088 C68.1620533,241.99227 44.1390052,212.7866 37.6699146,177.653848 C31.4998627,144.144813 46.6921053,111.859496 68.1427903,85.411348 C89.3026579,59.3218904 117.672204,40.0050717 151.15615,37.7281083 Z" id="Path-Copy-10" fill="#6E2FE4"></path>
                        <path d="M150.949581,65.631859 C178.879502,63.7336833 209.113786,70.3104886 226.093733,92.58789 C242.771304,114.468951 237.559984,144.127515 231.18367,170.898573 C224.911745,197.229823 215.584508,224.561373 191.655327,237.173525 C166.877013,250.233045 136.8364,246.488062 111.876283,233.780064 C87.6119805,221.426559 69.2786017,199.151047 64.3416641,172.354881 C59.6329403,146.797142 71.2270202,122.172748 87.5972798,102.000432 C103.7456,82.1016928 125.396043,67.3685259 150.949581,65.631859 Z" id="Path-Copy-11" fill="#6C2DE3"></path>
                    </g>
                </g>
            </g>
        </g>
    </g>
</svg>