<svg xmlns="http://www.w3.org/2000/svg" height="520" viewBox="0 0 302 520" width="302"><defs><linearGradient id="it1zpszafaju6cpo5syo4lgq" x1="300.3" y1="2" x2="300.3" y2="95.5" gradientUnits="userSpaceOnUse"><stop offset="0" stop-color="#00ff8e" stop-opacity=".3"/><stop offset="1" stop-color="#00ff8e" stop-opacity="0"/></linearGradient><clipPath id="ClipPath-1"><path d="M58.5-183.6h126c20.7 0 28.2 2.1 35.7 6.2c7.6 4 13.5 9.9 17.5 17.5c4.1 7.5 6.2 15 6.2 35.7v167.6c0 22.5-2.3 30.6-6.7 38.8c-4.4 8.2-10.9 14.7-19.1 19.1c-8.2 4.4-16.3 6.7-38.8 6.7h-115.6c-22.5 0-30.6-2.3-38.8-6.7c-8.2-4.4-14.7-10.9-19.1-19.1c-4.4-8.2-6.7-16.3-6.7-38.8v-167.6c0-20.7 2.1-28.2 6.2-35.7c4-7.6 9.9-13.5 17.5-17.5c7.5-4.1 15-6.2 35.7-6.2Z" fill="none"/></clipPath></defs><style>
@keyframes ed856qz7rpzzazw9qa8a4zrt_t { 0% { transform: translate(217px,220.9px) scale(1,1) translate(-31.5px,-31.5px); animation-timing-function: cubic-bezier(.4,0,.6,1); } 50% { transform: translate(217px,220.9px) scale(1.2,1.2) translate(-31.5px,-31.5px); animation-timing-function: cubic-bezier(.4,0,.6,1); } 100% { transform: translate(217px,220.9px) scale(1,1) translate(-31.5px,-31.5px); } }
@keyframes d66guaprvifcfwbb3ft1k4iw_o { 0% { opacity: .7; } 1.667% { opacity: 0; } 48.333% { opacity: 0; } 50% { opacity: .7; } 100% { opacity: .7; } }
@keyframes r6l1i9rnx4j1hky0r99jzchh_o { 0% { opacity: 1; } .167% { opacity: 0; } 89.833% { opacity: 0; } 90% { opacity: 1; } 100% { opacity: 1; } }
@keyframes ujfddm1m2uxmudna5ksmwtv4_o { 0% { opacity: 0; } .167% { opacity: 1; } 10% { opacity: 1; } 10.167% { opacity: 0; } 100% { opacity: 0; } }
@keyframes lssfc3h9gwt46bmnduvcrifp_o { 0% { opacity: 0; } 10% { opacity: 0; } 10.167% { opacity: 1; } 20% { opacity: 1; } 20.167% { opacity: 0; } 100% { opacity: 0; } }
@keyframes la0exdput12jcgfexwr7bc97_o { 0% { opacity: 0; } 20% { opacity: 0; } 20.167% { opacity: 1; } 30% { opacity: 1; } 30.167% { opacity: 0; } 100% { opacity: 0; } }
@keyframes xvs96wnl22dj7vaczt3yj4yj_o { 0% { opacity: 0; } 30% { opacity: 0; } 30.167% { opacity: 1; } 40% { opacity: 1; } 40.167% { opacity: 0; } 100% { opacity: 0; } }
@keyframes t3kn9tvdz1v09lsqrpp57jon_o { 0% { opacity: 0; } 40% { opacity: 0; } 40.167% { opacity: 1; } 50% { opacity: 1; } 50.167% { opacity: 0; } 100% { opacity: 0; } }
@keyframes j1sqp5ol6vi1qtryik0fvt43_o { 0% { opacity: 0; } 50% { opacity: 0; } 50.167% { opacity: 1; } 60% { opacity: 1; } 60.167% { opacity: 0; } 100% { opacity: 0; } }
@keyframes to1efg9jjwjc1kg8anxqc2ys_o { 0% { opacity: 0; } 60% { opacity: 0; } 60.167% { opacity: 1; } 70% { opacity: 1; } 70.167% { opacity: 0; } 100% { opacity: 0; } }
@keyframes srkg22nayzhz7vthvjklouix_o { 0% { opacity: 0; } 70% { opacity: 0; } 70.167% { opacity: 1; } 80% { opacity: 1; } 80.167% { opacity: 0; } 100% { opacity: 0; } }
@keyframes y2maswqygod4q1jlffixa9sh_o { 0% { opacity: 0; } 80% { opacity: 0; } 80.167% { opacity: 1; } 90% { opacity: 1; } 90.167% { opacity: 0; } 100% { opacity: 0; } }
@keyframes hi7l2x4frkyowd69kljz218h_t { 0% { transform: translate(-1.6px,22.2px); } 100% { transform: translate(-301.6px,22.2px); } }
@keyframes jc0k0x2b2gnv8r0ziypwgmme_t { 0% { transform: translate(40.5px,291.8px); animation-timing-function: cubic-bezier(.4,0,.6,1); } 9.836% { transform: translate(40.5px,284.8px); animation-timing-function: cubic-bezier(.4,0,.6,1); } 28.962% { transform: translate(40.5px,294.8px); animation-timing-function: cubic-bezier(.4,0,.6,1); } 46.721% { transform: translate(40.5px,261px); animation-timing-function: cubic-bezier(.4,0,.6,1); } 58.743% { transform: translate(40.5px,294px); animation-timing-function: cubic-bezier(.4,0,.6,1); } 70.492% { transform: translate(40.5px,271.3px); animation-timing-function: cubic-bezier(.4,0,.6,1); } 91.803% { transform: translate(40.5px,295.1px); animation-timing-function: cubic-bezier(.4,0,.6,1); } 100% { transform: translate(40.5px,291.8px); } }
@keyframes zwmstz8x3p8qfti28fbcl3oy_o { 0% { opacity: 0; } 79.833% { opacity: 0; } 80% { opacity: 1; } 89.833% { opacity: 1; } 90% { opacity: 0; } 100% { opacity: 0; } }
@keyframes yimxo5ucc23w2zw6obqewxzw_o { 0% { opacity: 1; } .167% { opacity: 0; } 89.833% { opacity: 0; } 90% { opacity: 1; } 100% { opacity: 1; } }
@keyframes y9tc06msxn70eza4gtivyg4x_o { 0% { opacity: 0; } .167% { opacity: 1; } 10% { opacity: 1; } 10.167% { opacity: 0; } 100% { opacity: 0; } }
@keyframes z8insfleh24bs2x0i42gdzol_o { 0% { opacity: 0; } 10% { opacity: 0; } 10.167% { opacity: 1; } 20% { opacity: 1; } 20.167% { opacity: 0; } 100% { opacity: 0; } }
@keyframes s2yuhbh4ou6w2h9578bbgdqf_o { 0% { opacity: 0; } 20% { opacity: 0; } 20.167% { opacity: 1; } 30% { opacity: 1; } 30.167% { opacity: 0; } 100% { opacity: 0; } }
@keyframes g2qpivjhey4he0s9to8egvqx_o { 0% { opacity: 0; } 30% { opacity: 0; } 30.167% { opacity: 1; } 40% { opacity: 1; } 40.167% { opacity: 0; } 100% { opacity: 0; } }
@keyframes q603subvs53o1bq810ho9w73_o { 0% { opacity: 0; } 40% { opacity: 0; } 40.167% { opacity: 1; } 50% { opacity: 1; } 50.167% { opacity: 0; } 100% { opacity: 0; } }
@keyframes njmifiz3jfcmn4t6fuwgh8u8_o { 0% { opacity: 0; } 50% { opacity: 0; } 50.167% { opacity: 1; } 60% { opacity: 1; } 60.167% { opacity: 0; } 100% { opacity: 0; } }
@keyframes zex2lfwjtf1x26jhu56cxa4t_o { 0% { opacity: 0; } 60% { opacity: 0; } 60.167% { opacity: 1; } 70% { opacity: 1; } 70.167% { opacity: 0; } 100% { opacity: 0; } }
@keyframes xlb3ipm0la8ypihigchawyff_o { 0% { opacity: 0; } 70% { opacity: 0; } 70.167% { opacity: 1; } 80% { opacity: 1; } 80.167% { opacity: 0; } 100% { opacity: 0; } }
</style><path d="M81.1 120.2h126c20.7 0 28.2 2.1 35.7 6.2c7.6 4 13.5 9.9 17.5 17.5c4.1 7.5 6.2 15 6.2 35.7v167.6c0 22.5-2.3 30.6-6.7 38.8c-4.4 8.2-10.9 14.7-19.1 19.1c-8.2 4.4-16.3 6.7-38.8 6.7h-115.6c-22.5 0-30.6-2.3-38.8-6.7c-8.2-4.4-14.7-10.9-19.1-19.1c-4.4-8.2-6.7-16.3-6.7-38.8v-167.6c0-20.7 2.1-28.2 6.2-35.7c4-7.6 9.9-13.5 17.5-17.5c7.5-4.1 15-6.2 35.7-6.2Z" fill="#010102" fill-rule="evenodd"/><rect height="63" opacity=".2" rx="31.5" width="63" fill="#00ff8e" fill-rule="evenodd" transform="translate(217,220.9) translate(-31.5,-31.5)" style="animation: 2s linear infinite both ed856qz7rpzzazw9qa8a4zrt_t;"/><path d="M220.2 223.8c-0.7 .3-1.5 0-1.7-0.7c-0.3-0.7 0-1.4 .6-1.7l4-1.7c-0.2-0.3-0.3-0.7-0.5-1.1l-4.4 1.9c-0.7 .3-1.4 0-1.7-0.7c-0.3-0.6 0-1.4 .7-1.7l4.3-1.9c-0.5-1.2-0.9-2.2-0.9-2.2c0 0-3.1 1.2-3.8 1.4c-0.9 .2-1.8 .1-2.6-0.3c-2.1-1-2.7-2.2-3-4.8c0 0-3.6 3.6-4.3 4.5c-0.6 .7-0.5 2.2 .5 3.4c.6 .7 12.3 13 12.3 13c.3 .3 .9 .6 1.3 .6c0 0 6.4 0 7.9 0c.8 0 1.6-1.1 1.2-2.1c-0.2-0.3-4.2-4.4-4.2-4.5c-0.4-0.3-0.9-1-1.1-1.5c0 0-0.5-1.2-0.7-1.6Zm-14.8-3.9c-1.7-2.1-2-5-0.5-6.8c.7-0.9 5.1-5.3 5.6-5.7c.4-0.2 .7-0.4 1.1-0.5c.8-0.2 1.6 .1 1.9 1c.1 .4 .3 1.6 .4 2.1c.2 1.7 .4 2.2 1.4 2.7c.3 .1 .6 .2 1 .1c.5-0.1 3.3-1.3 3.9-1.4c1.1-0.3 2.1 .1 2.6 1.2c.4 .9 4.4 10 4.4 10.1c.1 .1 .3 .5 .4 .5c0 .1 4.4 5 4.8 5.6c1.4 2.6-0.9 5.6-3.5 5.6c-1.5 0-7.9 0-7.9 0c-1.1 0-2.4-0.6-3.2-1.3c0-0.1-11.8-12.5-12.4-13.2Zm-1.5 13.2c0-0.7 .6-1.3 1.3-1.3h7.9c.7 0 1.3 .6 1.3 1.3c0 .7-0.6 1.3-1.3 1.3h-7.9c-0.7 0-1.3-0.6-1.3-1.3Zm0-5.3c0-0.7 .6-1.3 1.3-1.3h2.6c.8 0 1.4 .6 1.4 1.3c0 .8-0.6 1.4-1.4 1.4h-2.6c-0.7 0-1.3-0.6-1.3-1.4Z" fill="#00ff8e" fill-rule="evenodd"/><path d="M40.2 202.4c.2 1.9 1.7 3.2 4 3.2c2.5 0 4.1-1.3 4.1-3.2c0-1.5-0.9-2.4-2.9-2.9l-1.4-0.4c-1.5-0.4-2.1-0.9-2.1-1.7c0-1 1-1.7 2.4-1.7c1.4 0 2.3 .7 2.5 1.8h1.3c-0.1-1.8-1.6-3.1-3.8-3.1c-2.2 0-3.8 1.3-3.8 3.1c0 1.5 .9 2.3 2.9 2.8l1.4 .4c1.4 .4 2.1 .9 2.1 1.8c0 1.1-1.1 1.9-2.5 1.9c-1.6 0-2.7-0.8-2.8-2Zm10.5-6.6v1.8h-1.2v1.1h1.2v4.7c0 1.5 .5 2.1 2 2.1c.3 0 .6-0.1 .8-0.1v-1.1h-0.2c-0.1 0-0.3 0-0.4 0c-0.6 0-0.9-0.3-0.9-1v-4.6h1.5v-1.1h-1.5v-1.8Zm7.7 2.8c1.2 0 2 .9 2.1 2.2l-4.2 .1c0-1.3 .9-2.3 2.1-2.3Zm2 4.6c-0.2 .7-0.9 1.2-1.9 1.2c-1.4 0-2.3-1-2.3-2.5h5.6v-0.5c0-2.4-1.3-3.9-3.4-3.9c-2.1 0-3.5 1.6-3.5 4c0 2.5 1.4 4 3.6 4c1.7 0 3-1 3.2-2.3Zm7.1-5.7c-1.1 0-2 .6-2.5 1.4v-1.3h-1.2v10.4h1.3v-3.9c.5 .9 1.4 1.4 2.5 1.4c1.9 0 3.3-1.5 3.3-4c0-2.4-1.4-4-3.4-4Zm-0.2 6.9c-1.3 0-2.2-1.2-2.2-2.9c0-1.7 .9-2.9 2.2-2.9c1.4 0 2.2 1.2 2.2 2.9c0 1.8-0.8 2.9-2.2 2.9Zm5.4-4.6c0 1 .6 1.7 2 2.1l1.4 .3c.9 .3 1.2 .6 1.2 1.1c0 .7-0.7 1.2-1.7 1.2c-1.1 0-1.7-0.5-1.8-1.3h-1.3c.1 1.4 1.3 2.3 3 2.3c1.8 0 3.1-0.9 3.1-2.3c0-1.1-0.6-1.7-2.2-2.1l-1.2-0.3c-0.8-0.2-1.3-0.6-1.3-1.1c0-0.7 .7-1.1 1.6-1.1c1 0 1.6 .4 1.7 1.2h1.2c0-1.3-1.2-2.3-2.8-2.3c-1.7 0-2.9 .9-2.9 2.3Zm11.7 5.6h1.3v-7.8h-1.3Zm.7-9.1c.4 0 .8-0.3 .8-0.8c0-0.4-0.4-0.8-0.8-0.8c-0.5 0-0.9 .4-0.9 .8c0 .5 .4 .8 .9 .8Zm3 9.1h1.3v-4.6c0-1.3 .8-2.2 2-2.2c1.2 0 1.8 .7 1.8 2v4.8h1.3v-5c0-1.8-1-2.9-2.7-2.9c-1.2 0-2 .5-2.4 1.4h-0.1v-1.3h-1.2Zm12.9-9.6v1.8h-1.2v1.1h1.2v4.7c0 1.5 .5 2.1 2 2.1c.3 0 .6-0.1 .8-0.1v-1.1c-0.1 0-0.4 0-0.5 0c-0.7 0-1-0.3-1-1v-4.6h1.5v-1.1h-1.5v-1.8Zm7.8 9.7c2.2 0 3.6-1.5 3.6-4c0-2.5-1.4-4-3.6-4c-2.1 0-3.6 1.5-3.6 4c0 2.5 1.5 4 3.6 4Zm0-1.1c-1.4 0-2.3-1.1-2.3-2.9c0-1.8 .9-2.9 2.3-2.9c1.4 0 2.3 1.1 2.3 2.9c0 1.8-0.9 2.9-2.3 2.9Zm6-8.6v1.8h-1.2v1.1h1.2v4.7c0 1.5 .5 2.1 1.9 2.1c.4 0 .7-0.1 .9-0.1v-1.1c-0.1 0-0.4 0-0.6 0c-0.6 0-0.9-0.3-0.9-1v-4.6h1.5v-1.1h-1.5v-1.8Zm7.2 8.6c-0.9 0-1.5-0.5-1.5-1.2c0-0.7 .6-1.2 1.6-1.3l2.1-0.1v.6c0 1.2-1 2-2.2 2Zm-0.3 1.1c1.1 0 2.1-0.5 2.5-1.4v1.3h1.3v-5.4c0-1.5-1.2-2.5-3-2.5c-1.8 0-3 1-3.1 2.4h1.3c.1-0.8 .8-1.3 1.8-1.3c1.1 0 1.7 .6 1.7 1.6v.6l-2.2 .1c-1.8 .1-2.9 1-2.9 2.3c0 1.4 1.1 2.3 2.6 2.3Zm6.1-0.1v-10.8h1.3v10.8Z" fill="#fff" opacity=".6"/><path d="M29.2 141.5h229.7v25h-229.7Z" fill="none"/><path d="M194.5 150.5v-1.3c1.3-0.1 2.1-0.4 2.6-0.6c.5-0.3 .9-1 1.2-2.1h1.4v14h-1.9v-10Zm14.6-4.1c1.9 0 3.2 .8 4 2.3c.6 1.1 .9 2.7 .9 4.7c0 1.9-0.3 3.5-0.8 4.8c-0.9 1.8-2.2 2.6-4.1 2.6c-1.7 0-2.9-0.7-3.7-2.1c-0.7-1.3-1.1-2.9-1.1-5c0-1.6 .2-2.9 .7-4.1c.7-2.1 2.1-3.2 4.1-3.2Zm0 12.8c.9 0 1.7-0.4 2.2-1.2c.6-0.8 .8-2.3 .8-4.5c0-1.6-0.2-2.9-0.6-3.9c-0.4-1.1-1.1-1.6-2.2-1.6c-1.1 0-1.8 .5-2.3 1.5c-0.5 1-0.7 2.4-0.7 4.3c0 1.4 .1 2.6 .4 3.4c.5 1.4 1.3 2 2.4 2Zm16.8-12.8c1.8 0 3.1 .8 3.9 2.3c.6 1.1 .9 2.7 .9 4.7c0 1.9-0.2 3.5-0.8 4.8c-0.8 1.8-2.2 2.6-4 2.6c-1.7 0-3-0.7-3.8-2.1c-0.7-1.3-1-2.9-1-5c0-1.6 .2-2.9 .6-4.1c.8-2.1 2.2-3.2 4.2-3.2Zm0 12.8c.9 0 1.6-0.4 2.1-1.2c.6-0.8 .8-2.3 .8-4.5c0-1.6-0.1-2.9-0.5-3.9c-0.4-1.1-1.2-1.6-2.3-1.6c-1.1 0-1.8 .5-2.3 1.5c-0.5 1-0.7 2.4-0.7 4.3c0 1.4 .1 2.6 .4 3.4c.5 1.4 1.3 2 2.5 2Zm11-12.8c2.1 0 3.5 .9 4.2 2.8c.5 1 .7 2.3 .7 3.8c0 1.7-0.3 3.2-0.8 4.5c-0.8 2.3-2.3 3.4-4.3 3.4c-1.4 0-2.4-0.4-3.2-1.1c-0.7-0.7-1-1.6-1-2.7h1.8c0 .9 .4 1.6 1.1 2c.3 .2 .8 .3 1.2 .3c.8 0 1.6-0.4 2.2-1.1c.6-0.7 1-2.1 1.2-4.2c-0.4 .6-0.9 1-1.4 1.3c-0.6 .2-1.2 .3-1.9 .3c-1.3 0-2.4-0.4-3.2-1.2c-0.8-0.9-1.2-1.9-1.2-3.3c0-1.2 .4-2.4 1.2-3.3c.8-1 1.9-1.5 3.4-1.5Zm.1 1.6c-0.9 0-1.6 .3-2.1 .9c-0.5 .6-0.8 1.3-0.8 2.3c0 .9 .3 1.6 .7 2.2c.5 .5 1.2 .8 2.1 .8c.7 0 1.4-0.2 2-0.7c.5-0.5 .8-1.3 .8-2.4c0-1-0.2-1.8-0.8-2.3c-0.5-0.5-1.1-0.8-1.9-0.8Z" opacity=".66" fill="#fff"/><path d="M187.8 8.7h2.1v2.1h-2.1Zm0 8.2h2.1v2.1h-2.1Z" opacity=".66" fill="#fff" transform="translate(29.2,141.4)" style="animation: 1s linear infinite both d66guaprvifcfwbb3ft1k4iw_o;"/><path d="M50.7 146.8c.5-0.4 .5-1.2 0-1.7c-0.5-0.5-1.3-0.5-1.8 0l-7.5 7.5c-0.5 .5-0.5 1.3 0 1.8l7.5 7.5c.5 .5 1.3 .5 1.8 0c.5-0.5 .5-1.3 0-1.8l-6.7-6.6Z" fill="#fff"/><path fill="#fff" d="M48.9 244c5.5 0 8.8-3.4 8.8-8v-0.1c0-4.6-3.2-6.3-6.6-6.9l6.2-5.9v-4h-16.5v4.6h9.6l-5.8 5.9l.8 3.4h2.2c3 0 4.8 1.1 4.8 3.1v.1c0 1.8-1.4 2.9-3.4 2.9c-2.5 0-4.3-1-5.9-2.9l-3.8 3.5c2.1 2.5 5.2 4.3 9.6 4.3Zm12.2 5.2c4.2 0 6.5-1.9 6.5-6.5v-4.7h-5.7v5.6h2.2c.2 2-1 3.2-3.4 3.4Zm22.6-5.6h5.1v-5.3h3.3v-4.4h-3.3v-15h-4.5l-13.5 15.6l.9 3.8h12Zm-6.5-9.7l6.5-7.6v7.6Zm28.5 10.1c5.4 0 9.4-3.5 9.4-8.5v-0.1c0-5.1-3.8-7.8-8.6-7.8c-2.3 0-3.8 .7-5.1 1.6c.2-2.1 1.3-5.7 4.9-5.7c2.1 0 3.4 .8 5 2l2.9-4.2c-2.2-1.7-4.4-2.7-7.7-2.7c-7.3 0-10.7 5.8-10.7 13.4v.1c0 4.8 1.1 7.5 2.9 9.3c1.7 1.7 3.8 2.6 7 2.6Zm-0.2-4.6c-2.6 0-4.2-1.6-4.2-3.7v-0.1c0-2 1.5-3.5 4.2-3.5c2.6 0 4.2 1.5 4.2 3.6v.1c0 2.1-1.5 3.6-4.2 3.6Z"/><path fill="#fff" d="M12.7 .4c6.6 0 11-5.5 11-12.7c0-7.1-4.4-12.6-10.9-12.6c-6.5 0-10.9 5.5-10.9 12.6v.1c0 7.1 4.3 12.6 10.8 12.6Zm.1-4.8c-3.2 0-5.4-3.4-5.4-7.9c0-4.5 2.1-7.8 5.3-7.8c3.3 0 5.4 3.4 5.4 7.9c0 4.5-2 7.8-5.3 7.8Z" transform="translate(117,243.6)" style="animation: 10s linear infinite both r6l1i9rnx4j1hky0r99jzchh_o;"/><path fill="#fff" opacity="0" d="M6.2 0h5.4l-0.1-24.7h-3.6l-7.1 2.1l1.2 4.4l4.2-1Z" transform="translate(117,243.6)" style="animation: 10s linear infinite both ujfddm1m2uxmudna5ksmwtv4_o;"/><path fill="#fff" opacity="0" d="M1.7 0h18.1v-4.7h-10.6l4-3c4.3-3.4 6.4-5.4 6.4-9.5v-0.1c0-4.6-3.4-7.6-8.4-7.6c-4.4 0-6.8 1.8-9.2 5.1l3.8 3.1c1.8-2.3 3.1-3.3 5-3.3c1.9 0 3.3 1.1 3.3 3.2c0 2-1.2 3.3-4.2 5.8l-8.2 6.7Z" transform="translate(117,243.6)" style="animation: 10s linear infinite both lssfc3h9gwt46bmnduvcrifp_o;"/><path fill="#fff" opacity="0" d="M10.9 .4c5.4 0 8.8-3.4 8.8-8v-0.1c0-4.5-3.3-6.3-6.6-6.8l6.2-5.9v-4.1h-16.5v4.6h9.6l-5.9 5.9l.9 3.4h2.2c3 0 4.8 1.1 4.8 3.1v.1c0 1.8-1.4 3-3.4 3c-2.5 0-4.3-1.1-6-3l-3.7 3.6c2.1 2.5 5.2 4.2 9.6 4.2Z" transform="translate(117,243.6)" style="animation: 10s linear infinite both la0exdput12jcgfexwr7bc97_o;"/><path fill="#fff" opacity="0" d="M13.9 0h5.2v-5.3h3.3v-4.4h-3.3v-15h-4.6l-13.4 15.6l.9 3.8h11.9Zm-6.5-9.7l6.5-7.6v7.6Z" transform="translate(117,243.6)" style="animation: 10s linear infinite both xvs96wnl22dj7vaczt3yj4yj_o;"/><path fill="#fff" opacity="0" d="M10.7 .4c5.6 0 9.3-3.3 9.3-8.5c0-5.6-3.8-7.9-8.6-7.9c-1.4 0-2.2 .2-3.2 .5l.3-4.3h10.4v-4.7h-15l-0.7 12.1l3.1 2c1.1-0.5 2.5-0.9 4.1-0.9c2.5 0 4.3 1.3 4.3 3.4c0 2.2-1.6 3.4-4.1 3.4c-2.2 0-4-1-5.8-2.6l-3.3 3.8c2.4 2.3 5.3 3.7 9.2 3.7Z" transform="translate(117,243.6)" style="animation: 10s linear infinite both t3kn9tvdz1v09lsqrpp57jon_o;"/><path fill="#fff" opacity="0" d="M11.9 .4c5.3 0 9.3-3.4 9.3-8.5c0-5.1-3.7-7.8-8.6-7.8c-2.2 0-3.8 .7-5.1 1.5c.2-2.1 1.3-5.6 5-5.6c2.1 0 3.4 .7 5 1.9l2.8-4.1c-2.2-1.7-4.3-2.7-7.7-2.7c-7.3 0-10.7 5.8-10.7 13.4c0 4.9 1.1 7.5 2.9 9.3c1.7 1.7 3.9 2.6 7.1 2.6Zm-0.2-4.6c-2.7 0-4.3-1.6-4.3-3.6v-0.1c0-2.1 1.5-3.5 4.2-3.5c2.6 0 4.3 1.5 4.3 3.5v.1c0 2.1-1.6 3.6-4.2 3.6Z" transform="translate(117,243.6)" style="animation: 10s linear infinite both j1sqp5ol6vi1qtryik0fvt43_o;"/><path fill="#fff" opacity="0" d="M2.9 0h6.1l11-20.4v-4.1h-17.6v4.7h11.5Z" transform="translate(117,243.6)" style="animation: 10s linear infinite both to1efg9jjwjc1kg8anxqc2ys_o;"/><path fill="#fff" opacity="0" d="M11 .3c5.4 0 9.5-2.6 9.5-7.2c0-2.9-1.5-4.5-4-5.8c1.9-1.2 3.1-2.7 3.1-5.4c0-3.8-3.4-6.8-8.6-6.8c-5.2 .1-8.6 3-8.6 6.8c0 2.7 1.2 4.2 3.1 5.4c-2.6 1.2-3.9 2.9-3.9 5.9v.1c0 4.3 4 7.1 9.4 7.1Zm0-14.8c-2.1 0-3.5-1.3-3.5-3v-0.1c0-1.5 1.3-2.8 3.5-2.8c2.2 0 3.5 1.4 3.5 2.9c0 1.8-1.3 3-3.5 3Zm0 10.4c-2.6 0-4.2-1.4-4.2-3v-0.1c0-1.9 1.8-3 4.2-3c2.5 0 4.3 1.1 4.3 3v.1c0 1.7-1.6 3-4.3 3Z" transform="translate(117,243.6)" style="animation: 10s linear infinite both srkg22nayzhz7vthvjklouix_o;"/><path fill="#fff" opacity="0" d="M10.7-4.5c-2.1 0-3.6-0.6-5.3-2.1l-2.9 4.1c2.1 1.7 4.5 2.9 8.1 2.9c6.9 0 10.7-5.4 10.7-13.4c0-4.9-1.2-7.5-2.9-9.3c-1.9-1.8-3.8-2.6-7.1-2.6c-5.5 0-9.3 3.6-9.3 8.6c0 5 3.4 7.9 8.7 7.9c2.1 0 3.7-0.6 5-1.6c-0.2 2.1-1.3 5.5-5 5.5Zm.9-8.3c-2.7 0-4.3-1.6-4.3-3.7v-0.1c0-2.2 1.5-3.7 4.2-3.7c2.7 0 4.3 1.6 4.3 3.7v.1c0 2.1-1.6 3.7-4.2 3.7Z" transform="translate(117,243.6)" style="animation: 10s linear infinite both y2maswqygod4q1jlffixa9sh_o;"/><g clip-path="url(#ClipPath-1)" transform="translate(22.6,303.8)"><path d="M.3 95.5h600v-58.8c-29.1 0-39.8-21.6-59.2-24.9c-18.4-3.2-25.7 24.9-40 24.9c-13.7 0-13.4-34.7-36.1-34.7c-22.7 0-33.2 34.7-54.2 34.7c-20.9 0-34.1-10.4-55.5-10.4c-14.3 0-30.7 10.4-55 10.4c-29.1 0-39.7-21.6-59-24.9c-18.5-3.2-25.8 24.9-40 24.9c-13.8 0-13.4-34.7-36.1-34.7c-22.8 0-33.2 34.7-54.2 34.7c-21 0-34.1-10.4-55.6-10.4c-14.3 0-30.8 10.4-55.1 10.4c0 0 0 58.8 0 58.8Z" stroke="#00ff8e" stroke-width="2.6" fill="url(#it1zpszafaju6cpo5syo4lgq)" fill-rule="evenodd" stroke-linejoin="round" transform="translate(298.7,41.6) translate(-300.3,-19.4)" style="animation: 6.1s linear infinite both hi7l2x4frkyowd69kljz218h_t;"/></g><g transform="translate(65,328.4) translate(-24.6,-36.5)" style="animation: 6.1s linear infinite both jc0k0x2b2gnv8r0ziypwgmme_t;"><ellipse cx="6.3" cy="66.8" fill="#00ff8e" rx="6.3" ry="6.3" fill-rule="evenodd"/><path d="M3.5 12.3c1.6 0 2.6-1.4 2.6-3.6c0-2.3-1-3.7-2.6-3.7c-1.7 0-2.7 1.4-2.7 3.7c0 2.2 1 3.6 2.7 3.6Zm0-0.9c-1 0-1.6-1.1-1.6-2.7c0-1.7 .6-2.7 1.6-2.7c.9 0 1.5 1 1.5 2.7c0 1.6-0.5 2.7-1.5 2.7Zm4.8 .8h1.1l3-6.1v-0.9h-4.7v.9h3.7Zm5.8 0c.3 0 .6-0.3 .6-0.6c0-0.4-0.3-0.7-0.6-0.7c-0.4 0-0.6 .3-0.6 .7c0 .3 .2 .6 .6 .6Zm5.3 .1c1.7 0 2.7-1.4 2.7-3.6c0-2.3-1-3.7-2.7-3.7c-1.7 0-2.7 1.4-2.7 3.7c0 2.2 1 3.6 2.7 3.6Zm0-0.9c-1 0-1.6-1.1-1.6-2.7c0-1.7 .6-2.7 1.6-2.7c1 0 1.6 1 1.6 2.7c0 1.6-0.6 2.7-1.6 2.7Zm6.3 .8h1.1v-7h-1.1l-1.8 1.3v1l1.8-1.3Zm4.3 0c.4 0 .6-0.3 .6-0.6c0-0.4-0.2-0.7-0.6-0.7c-0.3 0-0.6 .3-0.6 .7c0 .3 .3 .6 .6 .6Zm4 0h1.1v-7h-1.1l-1.8 1.3v1l1.8-1.3Zm6.1 .1c1.8 0 2.8-1.4 2.8-3.7c0-0.9-0.1-1.5-0.4-2.1c-0.5-0.9-1.3-1.5-2.3-1.5c-1.5 0-2.6 1.1-2.6 2.5c0 1.3 1 2.3 2.3 2.3c.9 0 1.7-0.5 2-1.2c0 1.8-0.7 2.8-1.8 2.8c-0.6 0-1.1-0.4-1.3-1h-1.1c.2 1.1 1.2 1.9 2.4 1.9Zm.1-3.4c-0.9 0-1.5-0.6-1.5-1.5c0-0.8 .7-1.4 1.5-1.4c.8 0 1.5 .6 1.5 1.4c0 .9-0.7 1.5-1.5 1.5Z" fill="#fff"/><path fill="#00ff8e" d="M3.8 30.5h2.3v-13.4h-1.6l-3.6 1.1l.5 1.9l2.4-0.6Zm5 2.8c1.9-0.2 3-1.1 3-3.2v-2.2h-2.6v2.6h1c.1 1-0.5 1.6-1.6 1.8Zm5.2-2.8h9.6v-2.1h-6.3l2.7-2.2c2.4-2 3.5-3.1 3.5-5.2c0-2.4-1.8-4-4.4-4c-2.4 0-3.7 1-4.9 2.8l1.6 1.3c1-1.3 1.9-2 3.1-2c1.2 0 2.1 .8 2.1 2.1c0 1.2-0.6 2-2.4 3.6l-4.6 3.9Zm16.7 .2c2.9 0 5-1.5 5-3.9c0-1.6-0.9-2.5-2.4-3.2c1.2-0.6 2-1.5 2-3c0-2.1-2-3.6-4.6-3.6c-2.7 0-4.7 1.6-4.7 3.6c0 1.5 .9 2.4 2 3c-1.5 .6-2.4 1.6-2.4 3.2v.1c0 2.3 2.2 3.8 5.1 3.8Zm0-7.9c-1.4 0-2.4-0.8-2.4-1.9v-0.1c0-1 .9-1.8 2.4-1.8c1.4 0 2.3 .8 2.3 1.8v.1c0 1.1-1 1.9-2.3 1.9Zm0 5.9c-1.8 0-2.8-0.9-2.8-2c0-1.2 1.2-2 2.8-2c1.5 0 2.7 .8 2.7 2c0 1.1-1 2-2.7 2Z"/><path fill="#00ff8e" d="M6.9 .2c3.5 0 5.8-3 5.8-6.8v-0.1c0-3.8-2.3-6.8-5.8-6.8c-3.5 0-5.8 3-5.8 6.9c0 3.8 2.3 6.8 5.8 6.8Zm0-2.1c-2.1 0-3.4-2.1-3.4-4.7v-0.1c0-2.6 1.3-4.7 3.4-4.7c2 0 3.4 2.1 3.4 4.8c0 2.6-1.3 4.7-3.4 4.7Z" opacity="0" transform="translate(36.4,30.5)" style="animation: 10s linear infinite both zwmstz8x3p8qfti28fbcl3oy_o;"/><path fill="#00ff8e" d="M3.4 0h2.3v-13.4h-1.6l-3.6 1.1l.5 1.9l2.4-0.6Z" transform="translate(36.4,30.5)" style="animation: 10s linear infinite both yimxo5ucc23w2zw6obqewxzw_o;"/><path fill="#00ff8e" d="M.9 0h9.6v-2.1h-6.3l2.8-2.2c2.3-2 3.4-3.1 3.4-5.2c0-2.4-1.8-4-4.4-4c-2.4 0-3.6 1-4.9 2.8l1.7 1.3c1-1.3 1.8-2 3.1-2c1.2 0 2.1 .8 2.1 2.1c0 1.2-0.7 2-2.5 3.6l-4.6 3.9Z" opacity="0" transform="translate(36.4,30.5)" style="animation: 10s linear infinite both y9tc06msxn70eza4gtivyg4x_o;"/><path fill="#00ff8e" d="M5.9 .2c2.8 0 4.7-1.7 4.7-4.2c0-2.5-1.9-3.5-4-3.8l3.8-3.8v-1.7h-8.8v2h5.7l-3.6 3.9l.4 1.4h1.1c1.8 0 3 .8 3 2.1c0 1.2-1 2-2.3 2c-1.4 0-2.5-0.6-3.4-1.7l-1.7 1.5c1.1 1.4 2.8 2.3 5.1 2.3Z" opacity="0" transform="translate(36.4,30.5)" style="animation: 10s linear infinite both z8insfleh24bs2x0i42gdzol_o;"/><path fill="#00ff8e" d="M7.8 0h2.3v-3h1.9v-1.9h-1.9v-8.5h-2l-7.4 8.7l.4 1.7h6.7Zm-4.3-4.9l4.3-5.3v5.3Z" opacity="0" transform="translate(36.4,30.5)" style="animation: 10s linear infinite both s2yuhbh4ou6w2h9578bbgdqf_o;"/><path fill="#00ff8e" d="M5.8 .2c2.9 0 4.9-1.8 4.9-4.5c0-2.8-2-4.2-4.6-4.2c-0.9 0-1.5 .2-2.1 .4l.2-3.1h5.9v-2.1h-7.9l-0.4 6.5l1.4 .9c.7-0.3 1.5-0.5 2.4-0.5c1.7 0 2.8 .8 2.8 2.2c0 1.4-1 2.3-2.6 2.3c-1.3 0-2.4-0.6-3.5-1.6l-1.4 1.7c1.2 1.2 2.8 2 4.9 2Z" opacity="0" transform="translate(36.4,30.5)" style="animation: 10s linear infinite both g2qpivjhey4he0s9to8egvqx_o;"/><path fill="#00ff8e" d="M6.4 .2c2.8 0 4.9-1.9 4.9-4.5c0-2.7-2-4.2-4.6-4.2c-1.4 0-2.4 .5-3.2 1.3c.1-1.8 .9-4.2 3.2-4.2c1.2 0 2 .4 2.9 1.2l1.2-1.8c-1.1-1-2.3-1.5-4-1.5c-3.8 0-5.7 3.1-5.7 7.2c0 2.7 .6 4.1 1.6 5.1c.9 .9 2.1 1.4 3.7 1.4Zm-0.1-2c-1.6 0-2.7-1-2.7-2.4c0-1.3 1-2.4 2.7-2.4c1.6 0 2.7 1 2.7 2.4c0 1.4-1 2.4-2.7 2.4Z" opacity="0" transform="translate(36.4,30.5)" style="animation: 10s linear infinite both q603subvs53o1bq810ho9w73_o;"/><path fill="#00ff8e" d="M2 0h2.7l5.9-11.5v-1.8h-9.3v2.1h6.7Z" opacity="0" transform="translate(36.4,30.5)" style="animation: 10s linear infinite both njmifiz3jfcmn4t6fuwgh8u8_o;"/><path fill="#00ff8e" d="M6 .2c2.9 0 5.1-1.5 5.1-3.9c0-1.6-1-2.5-2.4-3.2c1.1-0.6 1.9-1.5 1.9-3c0-2.1-2-3.6-4.6-3.6c-2.7 0-4.6 1.6-4.6 3.6c0 1.5 .8 2.4 1.9 3c-1.5 .6-2.4 1.6-2.4 3.2v.1c0 2.3 2.2 3.8 5.1 3.8Zm0-7.9c-1.4 0-2.4-0.8-2.4-1.9v-0.1c0-1 1-1.8 2.4-1.8c1.4 0 2.4 .8 2.4 1.8v.1c0 1.1-1 1.9-2.4 1.9Zm0 5.9c-1.8 0-2.8-0.9-2.8-2c0-1.2 1.2-2 2.8-2c1.6 0 2.8 .8 2.8 2c0 1.1-1.1 2-2.8 2Z" opacity="0" transform="translate(36.4,30.5)" style="animation: 10s linear infinite both zex2lfwjtf1x26jhu56cxa4t_o;"/><path fill="#00ff8e" d="M5.7-1.9c-1.1 0-2-0.4-3-1.3l-1.3 1.8c1.1 1 2.4 1.6 4.3 1.6c3.6 0 5.7-2.9 5.7-7.2c0-2.7-0.6-4.1-1.6-5.1c-1-1-2-1.4-3.7-1.4c-3 0-5 2-5 4.6c0 2.6 1.9 4.2 4.7 4.2c1.4 0 2.4-0.5 3.2-1.4c-0.1 1.8-0.9 4.2-3.3 4.2Zm.5-4.7c-1.7 0-2.7-1-2.7-2.4c0-1.4 .9-2.5 2.6-2.5c1.7 0 2.8 1 2.8 2.4v.1c0 1.3-1 2.4-2.7 2.4Z" opacity="0" transform="translate(36.4,30.5)" style="animation: 10s linear infinite both xlb3ipm0la8ypihigchawyff_o;"/></g><g transform="translate(41.3,376.8)"><path d="M6.9 7.1v-7h-1l-2.4 5.8h-0.1l-2.4-5.8h-1v7h.8v-5.4l2.3 5.3h.7l2.2-5.3h.1v5.4Zm5.5-7.1c-2 0-3.2 1.4-3.2 3.6c0 2.2 1.2 3.6 3.2 3.6c2 0 3.2-1.4 3.2-3.6c0-2.2-1.2-3.6-3.2-3.6Zm0 .8c1.4 0 2.3 1.1 2.3 2.8c0 1.7-0.9 2.8-2.3 2.8c-1.4 0-2.3-1.1-2.3-2.8c0-1.7 .9-2.8 2.3-2.8Z" fill="#fff" opacity=".3"/><path d="M36.9 7.1v-6.2h2.2v-0.8h-5.3v.8h2.2v6.2Zm5.2-7v4.5c0 1 .7 1.8 1.9 1.8c1.2 0 1.9-0.8 1.9-1.8v-4.5h.9v4.5c0 1.5-1 2.6-2.8 2.6c-1.7 0-2.7-1.1-2.7-2.6v-4.5Z" fill="#fff" opacity=".3"/><path d="M69.5 1.6h.1l1.6 5.5h.8l1.9-7h-0.9l-1.4 5.7l-1.6-5.7h-0.9l-1.5 5.7h-0.1l-1.4-5.7h-0.9l1.9 7h.8Zm10.9 4.7v.8h-4.3v-7h4.3v.8h-3.5v2.2h3.3v.8h-3.3v2.4Z" fill="#fff"/><path d="M101.7 7.1v-6.2h2.2v-0.8h-5.3v.8h2.2v6.2Zm9.9 0h-0.9v-3.2h-3.8v3.2h-0.9v-7h.9v3h3.8v-3h.9Z" fill="#fff" opacity=".3"/><path d="M131.7 4.1v3h-0.8v-7h4.2v.8h-3.4v2.4h3.1v.8Zm6.5 3v-2.8h1.7l1.5 2.8h1l-1.6-2.9c.8-0.3 1.4-1 1.4-2c0-1.3-0.9-2.1-2.3-2.1h-2.6v7Zm1.6-6.2h-1.6v2.7h1.7c.9 0 1.4-0.5 1.4-1.4c0-0.8-0.6-1.3-1.5-1.3Z" fill="#fff" fill-rule="evenodd" opacity=".3"/><path d="M161.1 5.2c.1 1.2 1.1 2 2.6 2c1.6 0 2.6-0.8 2.6-2.1c0-0.9-0.5-1.5-1.8-1.8l-1-0.3c-0.9-0.2-1.3-0.5-1.3-1.1c0-0.6 .6-1.1 1.5-1.1c.9 0 1.5 .4 1.6 1.2h.9c-0.1-1.2-1.1-2-2.4-2c-1.5 0-2.5 .8-2.5 2c0 .9 .6 1.5 1.8 1.8l.9 .2c1 .3 1.4 .7 1.4 1.2c0 .7-0.7 1.2-1.6 1.2c-1 0-1.8-0.5-1.8-1.2Zm12 1.9h.9l-2.6-7h-0.8l-2.6 7h.9l.7-2h2.8Zm-2.1-5.9l1.1 3.2h-2.2Z" fill="#fff" opacity=".3"/><path d="M192.3 5.2c0 1.2 1.1 2 2.6 2c1.6 0 2.6-0.8 2.6-2.1c0-0.9-0.6-1.5-1.9-1.8l-0.9-0.3c-0.9-0.2-1.3-0.5-1.3-1.1c0-0.6 .6-1.1 1.5-1.1c.9 0 1.5 .4 1.6 1.2h.9c-0.1-1.2-1.1-2-2.5-2c-1.4 0-2.4 .8-2.4 2c0 .9 .5 1.5 1.8 1.8l.9 .2c1 .3 1.4 .7 1.4 1.2c0 .7-0.7 1.2-1.7 1.2c-1 0-1.7-0.5-1.8-1.2Zm8.3-5.1v4.5c0 1 .7 1.8 1.9 1.8c1.2 0 1.9-0.8 1.9-1.8v-4.5h.9v4.5c0 1.5-1.1 2.6-2.8 2.6c-1.7 0-2.8-1.1-2.8-2.6v-4.5Z" fill="#fff" opacity=".3"/></g></svg>