<?xml version="1.0" encoding="UTF-8"?>
<svg width="300px" height="440px" viewBox="0 0 300 440" version="1.1" xmlns="http://www.w3.org/2000/svg" xmlns:xlink="http://www.w3.org/1999/xlink">
    <!-- Generator: Sketch 63.1 (92452) - https://sketch.com -->
    <title>i320_card_sa </title>
    <desc>Created with Sketch.</desc>
    <defs>
        <linearGradient x1="73.9474054%" y1="2.9667197%" x2="24.4697747%" y2="106.5432%" id="linearGradient-1">
            <stop stop-color="#586DF9" offset="0%"></stop>
            <stop stop-color="#374EF2" offset="100%"></stop>
        </linearGradient>
        <rect id="path-2" x="0.5" y="0" width="300" height="440"></rect>
    </defs>
    <g id="i320_card_sa-" stroke="none" stroke-width="1" fill="none" fill-rule="evenodd">
        <g id="1" transform="translate(-1.000000, 0.000000)">
            <g id="Плашка">
                <mask id="mask-3" fill="white">
                    <use xlink:href="#path-2"></use>
                </mask>
                <use id="Mask" fill="url(#linearGradient-1)" xlink:href="#path-2"></use>
                <g id="Кляксы" mask="url(#mask-3)">
                    <g transform="translate(-233.000000, -170.000000)">
                        <path d="M203.182839,0.0431396865 C258.959848,-0.992784705 313.829712,16.582749 351.340573,57.6874033 C392.073957,102.322191 418.407069,162.347809 404.954834,221.144753 C391.49684,279.968644 340.300479,319.691024 285.500883,345.458226 C231.319296,370.933595 169.860394,381.586316 115.063101,357.451424 C58.1721762,332.394022 13.6533211,281.815956 2.62603688,220.868975 C-7.89260127,162.733096 22.0027375,106.883138 61.7990267,63.0647915 C98.2328332,22.9489826 148.865325,1.05196443 203.182839,0.0431396865 Z" id="Path" fill="#4359F3"></path>
                        <path d="M203.466932,40.0338373 C247.213606,39.2212929 290.248794,53.0069541 319.669077,85.2480711 C351.616829,120.258106 372.27025,167.340195 361.719478,213.458553 C351.164188,259.598047 311.01018,290.754954 268.030104,310.965886 C225.534742,330.947914 177.331682,339.303553 134.353413,320.37295 C89.7330794,300.718761 54.8163303,261.047017 46.1674799,213.242242 C37.9175676,167.642402 61.3648921,123.835561 92.577668,89.4659146 C121.153203,58.000415 160.86496,40.8251257 203.466932,40.0338373 Z" id="Path-Copy-6" fill="#3D53EA"></path>
                        <path d="M203.770396,83.0238373 C234.666484,82.4514262 265.060086,92.1629745 285.838161,114.875789 C308.401261,139.539216 322.987739,172.707011 315.536256,205.195888 C308.081583,237.699655 279.722815,259.648679 249.368136,273.886621 C219.355787,287.963307 185.312375,293.849582 154.958973,280.51359 C123.445862,266.667856 98.7859082,238.720407 92.6776577,205.043504 C86.8511571,172.919905 103.41083,142.059416 125.454853,117.847122 C145.636324,95.6807047 173.682753,83.5812741 203.770396,83.0238373 Z" id="Path-Copy-7" fill="#364CE8"></path>
                    </g>
                </g>
            </g>
        </g>
    </g>
</svg>