<?xml version="1.0" encoding="UTF-8"?>
<svg width="300px" height="440px" viewBox="0 0 300 440" version="1.1" xmlns="http://www.w3.org/2000/svg" xmlns:xlink="http://www.w3.org/1999/xlink">
    <title>i300_other</title>
    <defs>
        <linearGradient x1="73.9474054%" y1="2.9667197%" x2="24.4697747%" y2="106.5432%" id="linearGradient-1">
            <stop stop-color="#FF843B" offset="0%"></stop>
            <stop stop-color="#FF2D4C" offset="100%"></stop>
        </linearGradient>
        <rect id="path-2" x="0" y="0" width="300" height="440"></rect>
    </defs>
    <g id="Final" stroke="none" stroke-width="1" fill="none" fill-rule="evenodd">
        <g id="Плашка-Copy-2">
            <mask id="mask-3" fill="white">
                <use xlink:href="#path-2"></use>
            </mask>
            <use id="Mask" fill="url(#linearGradient-1)" xlink:href="#path-2"></use>
            <g id="Vector-(2)" mask="url(#mask-3)">
                <g transform="translate(-81.000000, -212.000000)">
                    <path d="M156.689687,0.553433543 C206.610408,-2.84219178 260.649847,8.92298202 290.999062,48.7747779 C320.807824,87.9175651 311.493339,140.973441 300.096594,188.863889 C288.886429,235.967569 272.215333,284.860675 229.445359,307.422414 C185.157684,330.784445 131.464403,324.085085 86.8517816,301.351889 C43.4828267,279.252841 10.7145462,239.404426 1.89047965,191.469061 C-6.52568771,145.749107 14.1970643,101.698801 43.4565514,65.6127691 C72.3193532,30.0161363 111.016409,3.66013781 156.689687,0.553433543 Z" id="Path" fill="#FF7549"></path>
                    <path d="M156.40661,39.419372 C194.449089,36.8462895 235.63027,45.7615143 258.758127,75.9597696 C281.474129,105.620764 274.375953,145.824595 265.690974,182.114251 C257.148179,217.807723 244.443839,254.857157 211.850643,271.953631 C178.100871,289.656536 137.183484,284.580002 103.186084,267.353606 C70.1364306,250.607743 45.1651044,220.412049 38.4406549,184.088357 C32.0270483,149.443423 47.8189847,116.063688 70.1164073,88.7189927 C92.1115328,61.7451468 121.600929,41.7735206 156.40661,39.419372 Z" id="Path-Copy-10" fill="#FE8255"></path>
                    <path d="M156.688565,68.3196852 C185.581587,66.358237 216.858433,73.1542691 234.423894,96.1742506 C251.676554,118.78468 246.285534,149.431863 239.689347,177.09529 C233.201148,204.304248 223.552283,232.54685 198.797957,245.579407 C173.165219,259.074244 142.088722,255.204428 116.267912,242.07283 C91.1669093,229.307542 72.2013451,206.289513 67.0941683,178.600141 C62.2230746,152.190478 74.2169504,126.74527 91.1517018,105.900544 C107.85686,85.3385135 130.25387,70.1142411 156.688565,68.3196852 Z" id="Path-Copy-11" fill="#FF8A60"></path>
                </g>
            </g>
        </g>
    </g>
</svg>