<svg height="100" viewBox="0 0 310 100" width="310" xmlns="http://www.w3.org/2000/svg"><g fill="#fff"><path d="m48.4345477 16.8265857c0 3.1781376-2.6484481 5.8265856-5.8265857 5.8265856s-5.8265857-2.648448-5.8265857-5.8265856c0-3.1781377 2.6484481-5.8265857 5.8265857-5.8265857s5.8265857 2.648448 5.8265857 5.8265857zm-5.8265857 10.5937921c-3.4429824 0-6.0914305 2.648448-6.0914305 6.0914304 0 3.4429825 2.6484481 6.0914305 6.0914305 6.0914305s6.0914305-2.648448 6.0914305-6.0914305c0-3.4429824-2.6484481-6.0914304-6.0914305-6.0914304zm0 16.4203778c-3.4429824 0-6.3562753 2.9132928-6.3562753 6.3562752 0 3.4429825 2.9132929 6.3562753 6.3562753 6.3562753s6.3562753-2.9132928 6.3562753-6.3562753c0-3.4429824-2.9132929-6.3562752-6.3562753-6.3562752zm0 16.6852225c-3.4429824 0-6.0914305 2.6484481-6.0914305 6.0914305s2.6484481 6.0914305 6.0914305 6.0914305 6.0914305-2.6484481 6.0914305-6.0914305c0-3.1781376-2.6484481-6.0914305-6.0914305-6.0914305zm0 16.9500674c-3.1781376 0-5.8265857 2.6484481-5.8265857 5.8265857s2.6484481 5.8265857 5.8265857 5.8265857 5.8265857-2.6484481 5.8265857-5.8265857-2.6484481-5.8265857-5.8265857-5.8265857zm16.155533-50.8502021c-3.7078273 0-6.8859649 3.1781376-6.8859649 6.8859648 0 3.7078273 3.1781376 6.8859649 6.8859649 6.8859649 3.7078272 0 6.8859649-3.1781376 6.8859649-6.8859649 0-3.7078272-3.1781377-6.8859648-6.8859649-6.8859648zm0 16.4203778c-3.9726721 0-7.1508097 3.1781376-7.1508097 7.1508096 0 3.9726721 3.1781376 7.1508097 7.1508097 7.1508097 3.972672 0 7.1508097-3.1781376 7.1508097-7.1508097 0-3.972672-3.1781377-7.1508096-7.1508097-7.1508096zm0 16.6852225c-3.7078273 0-6.8859649 3.1781377-6.8859649 6.8859649s3.1781376 6.8859649 6.8859649 6.8859649c3.7078272 0 6.8859649-3.1781377 6.8859649-6.8859649s-3.1781377-6.8859649-6.8859649-6.8859649zm16.6852226-17.479757c-4.2375169 0-7.9453441 3.4429825-7.9453441 7.9453441 0 4.2375169 3.4429824 7.9453441 7.9453441 7.9453441 4.5023616 0 7.9453441-3.4429824 7.9453441-7.9453441-.2648448-4.5023616-3.7078273-7.9453441-7.9453441-7.9453441zm-49.2611334-14.0367745c-2.9132928 0-5.296896 2.3836032-5.296896 5.296896 0 2.9132929 2.3836032 5.2968961 5.296896 5.2968961 2.9132929 0 5.2968961-2.3836032 5.2968961-5.2968961 0-2.9132928-2.3836032-5.296896-5.2968961-5.296896zm0 16.4203778c-3.1781376 0-5.5617408 2.3836032-5.5617408 5.5617408 0 3.1781377 2.3836032 5.5617409 5.5617408 5.5617409 3.1781377 0 5.5617409-2.3836032 5.5617409-5.5617409 0-3.1781376-2.3836032-5.5617408-5.5617409-5.5617408zm0 16.6852226c-2.9132928 0-5.296896 2.3836032-5.296896 5.296896s2.3836032 5.2968961 5.296896 5.2968961c2.9132929 0 5.2968961-2.3836033 5.2968961-5.2968961s-2.3836032-5.296896-5.2968961-5.296896zm-16.42037775-15.8906882c-2.64844803 0-4.76720645 2.1187584-4.76720645 4.7672064 0 2.6484481 2.11875842 4.7672065 4.76720645 4.7672065 2.64844805 0 4.76720645-2.1187584 4.76720645-4.7672065 0-2.648448-2.1187584-4.7672064-4.76720645-4.7672064z"/><path d="m143.872807 39.3063427c-.52969 0-1.059379.5296896-1.059379 1.0593792v41.580634c0 .5296896.529689 1.0593792 1.059379 1.0593792h5.032051c.52969 0 1.059379-.5296896 1.059379-1.0593792v-41.580634c0-.5296896-.529689-1.0593792-1.059379-1.0593792zm2.648448-17.479757c-2.648448 0-4.767207 2.1187584-4.767207 4.7672064s2.118759 4.7672065 4.767207 4.7672065 4.767206-2.1187585 4.767206-4.7672065-2.118758-4.7672064-4.767206-4.7672064zm104.084007 17.479757c-.529689 0-1.059379.5296896-1.059379 1.0593792v41.580634c0 .5296896.52969 1.0593792 1.059379 1.0593792h5.032052c.529689 0 1.059379-.5296896 1.059379-1.0593792v-41.580634c0-.5296896-.52969-1.0593792-1.059379-1.0593792zm2.383604-17.479757c-2.648448 0-4.767207 2.1187584-4.767207 4.7672064s2.118759 4.7672065 4.767207 4.7672065 4.767206-2.1187585 4.767206-4.7672065-2.118758-4.7672064-4.767206-4.7672064zm50.320512 57.2064774c.264845-.2648448.264845-.5296896.264845-.7945344v-.2648448s0-.2648448-.264845-.2648448c0 0-.264845-.2648448-.529689-.2648448h-1.853914v3.7078272h.52969v-1.324224h.794534l1.059379 1.324224h.52969l-1.324224-1.5890688c.529689 0 .794534-.2648448.794534-.5296896zm-1.853913.2648448v-1.324224h1.059379c.264845 0 .529689 0 .794534.2648448.264845 0 .264845.2648448.264845.5296896s0 .5296896-.264845.5296896l-.794534.2648448h-1.059379zm.794534-3.4429824c-1.853914 0-3.442982 1.5890688-3.442982 3.4429824s1.589068 3.4429824 3.442982 3.4429824 3.442982-1.5890688 3.442982-3.4429824-1.589068-3.4429824-3.442982-3.4429824zm0 6.62112c-1.853914 0-3.178138-1.324224-3.178138-3.1781376s1.324224-3.1781376 3.178138-3.1781376 3.178138 1.324224 3.178138 3.1781376-1.589069 3.1781376-3.178138 3.1781376zm-117.061403-36.283738c.52969 0 1.059379-.5296896 1.059379-1.0593792v-5.0320512c0-.5296896-.529689-1.0593792-1.059379-1.0593792h-10.593792v-15.8906882c0-.5296896-.52969-1.0593792-1.059379-1.0593792h-5.032052c-.529689 0-1.059379.5296896-1.059379 1.0593792v15.8906882h-5.296896c-.529689 0-1.059379.5296896-1.059379 1.0593792v5.0320512c0 .5296896.52969 1.0593792 1.059379 1.0593792h5.296896v24.1008771c0 7.4156545 5.032052 12.1828609 12.182861 12.1828609h5.296896c.52969 0 1.059379-.5296896 1.059379-1.0593792v-5.0320512c0-.5296896-.529689-1.0593793-1.059379-1.0593793h-4.502361c-3.442983 0-5.826586-2.3836032-5.826586-6.0914304v-23.3063427h10.593792zm105.408232 0c.529689 0 1.059379-.5296896 1.059379-1.0593792v-5.0320512c0-.5296896-.52969-1.0593792-1.059379-1.0593792h-10.593792v-15.8906882c0-.5296896-.52969-1.0593792-1.05938-1.0593792h-5.032051c-.52969 0-1.059379.5296896-1.059379 1.0593792v15.8906882h-5.296896c-.52969 0-1.059379.5296896-1.059379 1.0593792v5.0320512c0 .5296896.529689 1.0593792 1.059379 1.0593792h5.296896v24.1008771c0 7.4156545 5.032051 12.1828609 12.182861 12.1828609h5.296896c.529689 0 1.059379-.5296896 1.059379-1.0593792v-5.0320512c0-.5296896-.52969-1.0593793-1.059379-1.0593793h-4.767207c-3.442982 0-5.826585-2.3836032-5.826585-6.0914304v-23.3063427h10.858637zm-178.240553 0v35.4892036c0 .5296896.52969 1.0593792 1.059379 1.0593792h5.032052c.529689 0 1.059379-.5296896 1.059379-1.0593792v-35.4892036h11.653171c.52969 0 1.059379-.5296896 1.059379-1.0593792v-5.0320512c0-.5296896-.529689-1.0593792-1.059379-1.0593792h-11.653171v-9.2695681c0-3.7078273 2.648448-6.3562753 5.826586-6.3562753h5.826585c.52969 0 1.059379-.5296896 1.059379-1.0593792v-5.0320513c0-.5296896-.529689-1.0593792-1.059379-1.0593792h-5.561741c-7.415654 0-13.24224 6.0914305-13.24224 13.2422401v9.534413h-5.296896c-.529689 0-1.059379.5296896-1.059379 1.0593792v5.0320512c0 .5296896.52969 1.0593792 1.059379 1.0593792zm121.29892-1.8539136c-3.972672-4.2375168-9.534413-6.6211201-15.360999-6.6211201-5.56174 0-11.123481 2.3836033-14.566464 5.8265857v-26.4844803c0-.5296896-.529689-1.0593792-1.059379-1.0593792h-5.032051c-.52969 0-1.059379.5296896-1.059379 1.0593792v43.6993925c0 16.155533 10.858637 23.3063426 21.452429 23.3063426s21.452429-7.1508096 21.452429-23.3063426c.264844-6.3562753-1.853914-12.1828609-5.826586-16.4203778zm-15.360999 33.1056004c-10.593792 0-14.566464-8.4750337-14.566464-16.4203778 0-9.7992577 5.826586-16.155533 14.566464-16.155533 8.739879 0 14.566465 6.6211201 14.566465 16.155533-.264845 7.9453441-3.972672 16.4203778-14.566465 16.4203778z"/></g></svg>