<svg height="230" viewBox="0 0 310 230" width="310" xmlns="http://www.w3.org/2000/svg"><g fill="#e6f4ff" fill-rule="evenodd"><circle cx="17.5" cy="18.5" r="4.5"/><circle cx="17.5" cy="57.5" r="4.5"/><circle cx="56.5" cy="18.5" r="4.5"/><circle cx="56.5" cy="57.5" r="4.5"/><circle cx="95.5" cy="18.5" r="4.5"/><circle cx="95.5" cy="57.5" r="4.5"/><circle cx="134.5" cy="18.5" r="4.5"/><circle cx="134.5" cy="57.5" r="4.5"/><circle cx="173.5" cy="18.5" r="4.5"/><circle cx="173.5" cy="57.5" r="4.5"/><circle cx="212.5" cy="57.5" r="4.5"/><circle cx="212.5" cy="18.5" r="4.5"/><circle cx="251.5" cy="18.5" r="4.5"/><circle cx="251.5" cy="57.5" r="4.5"/><circle cx="290.5" cy="18.5" r="4.5"/><circle cx="290.5" cy="57.5" r="4.5"/><circle cx="17.5" cy="96.5" r="4.5"/><circle cx="17.5" cy="135.5" r="4.5"/><circle cx="56.5" cy="96.5" r="4.5"/><circle cx="56.5" cy="135.5" r="4.5"/><circle cx="95.5" cy="96.5" r="4.5"/><circle cx="95.5" cy="135.5" r="4.5"/><circle cx="134.5" cy="96.5" r="4.5"/><circle cx="134.5" cy="135.5" r="4.5"/><circle cx="17.5" cy="174.5" r="4.5"/><circle cx="17.5" cy="213.5" r="4.5"/><circle cx="56.5" cy="174.5" r="4.5"/><circle cx="56.5" cy="213.5" r="4.5"/><circle cx="95.5" cy="174.5" r="4.5"/><circle cx="95.5" cy="213.5" r="4.5"/><circle cx="134.5" cy="174.5" r="4.5"/><circle cx="134.5" cy="213.5" r="4.5"/></g></svg>