<svg height="245" viewBox="0 0 320 245" width="320" xmlns="http://www.w3.org/2000/svg"><g fill="#e6f4ff" fill-rule="evenodd"><circle cx="23.5" cy="25.5" r="4.5"/><circle cx="23.5" cy="64.5" r="4.5"/><circle cx="62.5" cy="25.5" r="4.5"/><circle cx="62.5" cy="64.5" r="4.5"/><circle cx="101.5" cy="25.5" r="4.5"/><circle cx="101.5" cy="64.5" r="4.5"/><circle cx="140.5" cy="25.5" r="4.5"/><circle cx="140.5" cy="64.5" r="4.5"/><circle cx="179.5" cy="25.5" r="4.5"/><circle cx="179.5" cy="64.5" r="4.5"/><circle cx="218.5" cy="64.5" r="4.5"/><circle cx="218.5" cy="25.5" r="4.5"/><circle cx="257.5" cy="25.5" r="4.5"/><circle cx="257.5" cy="64.5" r="4.5"/><circle cx="296.5" cy="25.5" r="4.5"/><circle cx="296.5" cy="64.5" r="4.5"/><circle cx="23.5" cy="103.5" r="4.5"/><circle cx="23.5" cy="142.5" r="4.5"/><circle cx="62.5" cy="103.5" r="4.5"/><circle cx="62.5" cy="142.5" r="4.5"/><circle cx="101.5" cy="103.5" r="4.5"/><circle cx="101.5" cy="142.5" r="4.5"/><circle cx="23.5" cy="181.5" r="4.5"/><circle cx="23.5" cy="220.5" r="4.5"/><circle cx="62.5" cy="181.5" r="4.5"/><circle cx="62.5" cy="220.5" r="4.5"/><circle cx="101.5" cy="181.5" r="4.5"/><circle cx="101.5" cy="220.5" r="4.5"/></g></svg>