<?xml version="1.0" encoding="UTF-8"?>
<svg width="375px" height="510px" viewBox="0 0 375 510" version="1.1" xmlns="http://www.w3.org/2000/svg" xmlns:xlink="http://www.w3.org/1999/xlink">
    <title>i375_other</title>
    <defs>
        <linearGradient x1="77.8511732%" y1="2.9667197%" x2="20.3079848%" y2="106.5432%" id="linearGradient-1">
            <stop stop-color="#FF843B" offset="0%"></stop>
            <stop stop-color="#FF2D4C" offset="100%"></stop>
        </linearGradient>
        <rect id="path-2" x="0" y="0" width="375" height="510"></rect>
    </defs>
    <g id="Final" stroke="none" stroke-width="1" fill="none" fill-rule="evenodd">
        <g id="Плашка-Copy">
            <mask id="mask-3" fill="white">
                <use xlink:href="#path-2"></use>
            </mask>
            <use id="Mask" fill="url(#linearGradient-1)" xlink:href="#path-2"></use>
            <g id="Vector-(2)" mask="url(#mask-3)">
                <g transform="translate(-81.000000, -212.000000)">
                    <path d="M178.858003,0.632495478 C235.841462,-3.24821917 297.526353,10.1976937 332.169347,55.7426034 C366.195426,100.477217 355.563136,161.112504 342.55399,215.844444 C329.75782,269.677222 310.728113,325.555057 261.907082,351.339902 C211.353626,378.039365 150.063869,370.382954 99.1394934,344.402159 C49.6347379,319.146104 12.2304306,273.605058 2.15794301,218.821784 C-7.44893613,166.570408 16.2056522,116.227202 49.6047451,74.9860218 C82.5510302,34.3041558 126.722911,4.18301464 178.858003,0.632495478 Z" id="Path" fill="#FF7549"></path>
                    <path d="M179.032847,44.4795278 C222.37238,41.5373556 269.287649,51.7314037 295.635841,86.2613759 C321.514831,120.177021 313.428301,166.147795 303.534021,207.642935 C293.801723,248.456372 279.328424,290.820274 242.196936,310.36911 C203.747828,330.611367 157.133083,324.806642 118.401868,305.109246 C80.750364,285.961313 52.3020176,251.43427 44.6412524,209.900211 C37.334612,170.285717 55.3254256,132.117906 80.7275526,100.850815 C105.785291,70.0077703 139.380806,47.1713616 179.032847,44.4795278 Z" id="Path-Copy-10" fill="#FE8255"></path>
                    <path d="M178.788024,77.3660911 C211.854482,75.1199166 247.649095,82.9024695 267.75179,109.264061 C287.496501,135.15665 281.326778,170.252618 273.777808,201.931703 C266.352425,233.090348 255.309835,265.432682 226.979884,280.357063 C197.644639,295.810828 162.079315,291.379264 132.528833,276.341467 C103.80213,261.723153 82.0970949,235.363797 76.2522148,203.655 C70.6775188,173.411677 84.4038433,144.27281 103.784725,120.402235 C122.902851,96.8553945 148.534985,79.4211471 178.788024,77.3660911 Z" id="Path-Copy-11" fill="#FF8A60"></path>
                </g>
            </g>
        </g>
    </g>
</svg>