<?xml version="1.0" encoding="UTF-8"?>
<svg width="375px" height="510px" viewBox="0 0 375 510" version="1.1" xmlns="http://www.w3.org/2000/svg" xmlns:xlink="http://www.w3.org/1999/xlink">
    <!-- Generator: Sketch 63.1 (92452) - https://sketch.com -->
    <title>i375_card_health</title>
    <desc>Created with Sketch.</desc>
    <defs>
        <linearGradient x1="77.8511732%" y1="2.9667197%" x2="20.3079848%" y2="106.5432%" id="linearGradient-1">
            <stop stop-color="#F958B9" offset="0%"></stop>
            <stop stop-color="#F23745" offset="100%"></stop>
        </linearGradient>
        <rect id="path-2" x="0" y="0" width="375" height="510"></rect>
    </defs>
    <g id="i375_card_health" stroke="none" stroke-width="1" fill="none" fill-rule="evenodd">
        <g id="Плашка-Copy">
            <g id="Плашка">
                <mask id="mask-3" fill="white">
                    <use xlink:href="#path-2"></use>
                </mask>
                <use id="Mask" fill="url(#linearGradient-1)" xlink:href="#path-2"></use>
                <g id="Group-2" mask="url(#mask-3)">
                    <g transform="translate(163.563830, 112.000000)"></g>
                </g>
                <g id="Кляксы" mask="url(#mask-3)" opacity="0.200000003">
                    <g transform="translate(202.958777, -95.300000)">
                        <path d="M174.142836,39.861205 C217.858588,37.8227922 255.501309,-11.5381205 296.794836,2.96249464 C338.046552,17.4483483 365.848588,64.8058034 369.339594,108.406017 C372.671943,150.024089 327.481892,177.811876 313.957754,217.309706 C300.794457,255.752572 324.30018,309.519062 292.028282,334.192384 C259.908166,358.749952 214.545713,322.877738 174.142836,324.206041 C131.473525,325.608839 84.7902747,367.565005 50.4912448,342.132407 C16.1054982,316.635055 40.4280989,260.128867 31.3066941,218.291894 C23.5160525,182.558354 -3.90018635,151.838902 1.10458116,115.609111 C6.58447482,75.940516 22.8539929,30.078405 59.5244438,14.0258181 C96.3040065,-2.07462905 134.040088,41.7310872 174.142836,39.861205 Z" id="Path" fill="#EC3A5A"></path>
                        <path d="M176.198152,65.401092 C211.643356,63.7470656 242.164481,23.6942108 275.64572,35.4604242 C309.093056,47.2146597 331.635248,85.6418519 334.465793,121.020311 C337.167698,154.790404 300.527116,177.338208 289.561599,209.387876 C278.888656,240.581515 297.94735,284.209182 271.780946,304.22982 C245.737609,324.156533 208.957241,295.048793 176.198152,296.126616 C141.601414,297.264887 103.750129,331.309318 75.940105,310.672581 C48.0597699,289.983302 67.7807976,244.132567 60.3850639,210.184851 C54.0683275,181.189636 31.8389446,156.262995 35.8968643,126.865108 C40.3400213,94.6768758 53.5315224,57.4630486 83.2643204,44.437521 C113.085587,31.3731581 143.68241,66.9183679 176.198152,65.401092 Z" id="Path-Copy-8" fill="#E73252"></path>
                        <path d="M178.488361,93.262787 C204.717813,92.0280913 227.303445,62.1294813 252.079561,70.912711 C276.830591,79.6869995 293.511812,108.372087 295.606416,134.781359 C297.605826,159.99002 270.491795,176.821479 262.377312,200.745879 C254.479334,224.031272 268.582768,256.598403 249.219629,271.543387 C229.947559,286.418257 202.730087,264.689944 178.488361,265.494516 C152.886775,266.344211 124.876824,291.75766 104.297406,276.352772 C83.6659585,260.908662 98.2595189,226.682057 92.786676,201.340804 C88.1122911,179.696489 71.6625478,161.089278 74.6654083,139.144376 C77.9533445,115.116541 87.7150553,87.3372053 109.717326,77.6139241 C131.785063,67.8616533 154.426712,94.3954014 178.488361,93.262787 Z" id="Path-Copy-9" fill="#E22A4B"></path>
                    </g>
                </g>
            </g>
        </g>
    </g>
</svg>