<?xml version="1.0" encoding="UTF-8"?>
<svg width="380px" height="220px" viewBox="0 0 380 220" version="1.1" xmlns="http://www.w3.org/2000/svg" xmlns:xlink="http://www.w3.org/1999/xlink">
    <!-- Generator: Sketch 58 (84663) - https://sketch.com -->
    <title>i380_220_Quote</title>
    <desc>Created with Sketch.</desc>
    <g id="Grant's" stroke="none" stroke-width="1" fill="none" fill-rule="evenodd">
        <g id="Case-Grants" transform="translate(-755.000000, -2704.000000)" fill="#FFFFFF" fill-rule="nonzero">
            <g id="Group-13-+-Group-13-Copy-+-Group-13-Mask" transform="translate(-347.000000, 2304.000000)">
                <g id="Group-98" transform="translate(795.000000, 198.000000)">
                    <g id="Group-69" transform="translate(307.000000, 202.000000)">
                        <path d="M185.992484,26.400907 L185.999018,26.9387826 L185.999018,26.9387826 C185.999018,38.5405204 176.593951,47.9455871 164.992213,47.9455871 L148.982153,47.9455871 C128.538303,47.9455871 111.965289,64.5186019 111.965289,84.9624517 L111.965289,101.963084 L123.661421,102.113319 C153.225516,102.493064 176.884106,126.767342 176.50436,156.331437 C176.491119,157.362293 176.448104,158.392551 176.375367,159.420923 C174.120963,191.294429 147.606229,216.000023 115.653096,216.000023 L102.651412,216.000023 C64.1839994,216.000023 33,184.816024 33,146.348611 C33,143.912032 33.1278563,141.477131 33.383041,139.053951 C37.2845541,102.006101 47.1378586,72.6369706 62.9429544,50.9465592 C84.9993264,20.6770949 118.646717,5.36181313 163.885125,5 C175.880032,4.90495663 185.703377,14.453714 185.992484,26.400907 L185.992484,26.400907 Z M346.992484,26.400907 L346.999018,26.9387826 L346.999018,26.9387826 C346.999018,38.5405204 337.593951,47.9455871 325.992213,47.9455871 L309.982153,47.9455871 C289.538303,47.9455871 272.965289,64.5186019 272.965289,84.9624517 L272.965289,101.963084 L284.661421,102.113319 C314.225516,102.493064 337.884106,126.767342 337.50436,156.331437 C337.491119,157.362293 337.448104,158.392551 337.375367,159.420923 C335.120963,191.294429 308.606229,216.000023 276.653096,216.000023 L263.651412,216.000023 C225.183999,216.000023 194,184.816024 194,146.348611 C194,143.912032 194.127856,141.477131 194.383041,139.053951 C198.284554,102.006101 208.137859,72.6369706 223.942954,50.9465592 C245.999326,20.6770949 279.646717,5.36181313 324.885125,5 C336.880032,4.90495663 346.703377,14.453714 346.992484,26.400907 L346.992484,26.400907 Z" id="Shape"></path>
                    </g>
                </g>
            </g>
        </g>
    </g>
</svg>