<?xml version="1.0" encoding="UTF-8"?>
<svg width="48px" height="48px" viewBox="0 0 48 48" version="1.1" xmlns="http://www.w3.org/2000/svg" xmlns:xlink="http://www.w3.org/1999/xlink">
    <!-- Generator: Sketch 58 (84663) - https://sketch.com -->
    <title>i48_my-gifts</title>
    <desc>Created with Sketch.</desc>
    <g id="Thnks" stroke="none" stroke-width="1" fill="none" fill-rule="evenodd">
        <g id="Case-Study-Thnks_1920" transform="translate(-1236.000000, -3628.000000)">
            <g id="Group-11" transform="translate(530.000000, 3525.000000)">
                <g id="Group-18-Copy-4" transform="translate(599.000000, 103.000000)">
                    <g id="Bars/Tab_Bar/iOS/Icons/Send_Gift_Active-Copy-5" transform="translate(107.000000, 0.000000)">
                        <path d="M14.6375298,27.2 L28.9450217,43.3331838 L36.4474519,43.3057613 C36.4204828,34.9629551 36.4204828,29.8773588 36.4474519,28.0489724 C36.4743217,26.220586 29.2043477,25.9375952 14.6375298,27.2 Z" id="Path-7-Copy-2" fill="#02B8C7"></path>
                        <polygon id="Path-7-Copy" fill="#02B8C7" points="33.5639205 25.7855114 38.1053534 26.2473398 44.5966553 33.447423 44.2868389 12.8236936 33.2578677 12.8236936"></polygon>
                        <path d="M32,6.4 C32.8836556,6.4 33.6,7.1163444 33.6,8 L33.6,12.799 L44.8,12.8 C45.6345636,12.8 46.3198898,13.4389615 46.3934613,14.2543674 L46.4,14.4 L46.4,44.8 C46.4,45.6345636 45.7610385,46.3198898 44.9456326,46.3934613 L44.8,46.4 L1.6,46.4 C0.7163444,46.4 -7.35411732e-13,45.6836556 -7.35411732e-13,44.8 C-7.35411732e-13,43.9654364 0.638961518,43.2801102 1.45436739,43.2065387 L1.6,43.2 L4.8,43.199 L4.8,27.2 C4.8,26.3163444 5.5163444,25.6 6.4,25.6 L12.8,25.599 L12.8,8 C12.8,7.1163444 13.5163444,6.4 14.4,6.4 L32,6.4 Z M33.6,25.599 L36.8,25.6 C37.6836556,25.6 38.4,26.3163444 38.4,27.2 L38.4,43.199 L43.2,43.2 L43.2,16 L33.6,15.999 L33.6,25.599 Z M35.2,28.8 L8,28.8 L8,43.2 L35.2,43.2 L35.2,28.8 Z M30.4,9.6 L16,9.6 L16,25.6 L30.4,25.6 L30.4,9.6 Z" id="Shape" fill="#00418E" fill-rule="nonzero"></path>
                    </g>
                </g>
            </g>
        </g>
    </g>
</svg>