<?xml version="1.0" encoding="UTF-8"?>
<svg width="48px" height="48px" viewBox="0 0 48 48" version="1.1" xmlns="http://www.w3.org/2000/svg" xmlns:xlink="http://www.w3.org/1999/xlink">
    <!-- Generator: Sketch 58 (84663) - https://sketch.com -->
    <title>i48_send-gift</title>
    <desc>Created with Sketch.</desc>
    <g id="Thnks" stroke="none" stroke-width="1" fill="none" fill-rule="evenodd">
        <g id="Case-Study-Thnks_1920" transform="translate(-634.000000, -3628.000000)">
            <g id="Group-11" transform="translate(530.000000, 3525.000000)">
                <g id="Group-18-Copy-2" transform="translate(0.000000, 103.000000)">
                    <g id="Gift" transform="translate(106.000000, 0.000000)"></g>
                    <path d="M124.138258,37.7584109 C124.736238,38.3364291 124.786644,39.2676863 124.278488,39.9049442 L124.176661,40.0208267 L120.540152,43.7829211 C119.926008,44.4182746 118.91309,44.4354681 118.277736,43.8213238 C117.679756,43.2433057 117.629351,42.3120485 118.137506,41.6747906 L118.239333,41.558908 L121.875842,37.7968136 C122.489987,37.1614601 123.502905,37.1442667 124.138258,37.7584109 Z M114.9341,37.4803159 C115.524809,38.0657624 115.563572,38.9975768 115.047492,39.6284341 L114.944224,39.7430349 L110.926164,43.7972121 C110.304127,44.4248404 109.291073,44.4293731 108.663445,43.8073361 C108.072736,43.2218896 108.033974,42.2900752 108.550053,41.6592179 L108.653321,41.5446171 L112.671381,37.4904399 C113.293418,36.8628116 114.306472,36.8582789 114.9341,37.4803159 Z M141.031624,40.4747052 L131.005279,30.8048283 L143.906437,10.0184531 L141.031624,40.4747052 Z M114.157523,28.4014084 C114.764903,28.9695413 114.830575,29.8998465 114.33294,30.545353 L114.233027,30.66289 L110.958235,34.1639037 C110.354594,34.8092443 109.342094,34.8430484 108.696754,34.2394072 C108.089374,33.6712743 108.023702,32.740969 108.521337,32.0954625 L108.62125,31.9779255 L111.896042,28.4769119 C112.499683,27.8315712 113.512183,27.7977672 114.157523,28.4014084 Z M141.996673,8.95638962 L119.105071,33.1834066 L119.755855,21.9449192 L141.996673,8.95638962 Z" id="Shape" fill="#02B8C7" fill-rule="nonzero" transform="translate(126.048087, 26.613653) rotate(3.000000) translate(-126.048087, -26.613653) "></path>
                    <path d="M147.52083,5.12293007 L143.105792,42.1317612 C142.947622,43.4576136 141.330836,44.0178562 140.386222,43.0741363 L130.149346,32.8478186 L118.974287,35.8124197 C117.932213,36.0888389 116.935186,35.2790238 116.964349,34.2260139 L116.97341,34.093182 L118.217346,22.6328186 L107.994336,12.4961805 C107.071988,11.5816485 107.566184,10.0072296 108.845712,9.78384583 L145.656925,3.35723871 C146.712815,3.17289848 147.6478,4.05861675 147.52083,5.12293007 Z M143.45879,12.1587417 L132.399524,30.5716525 L140.318385,38.4830206 L143.45879,12.1587417 Z M140.920619,10.1697002 L121.385346,23.1008186 L120.406271,32.1219077 L129.124346,29.8088186 L140.920619,10.1697002 Z M138.66283,7.82668862 L112.445937,12.403709 L120.173767,20.0660557 L138.66283,7.82668862 Z" id="Shape" fill="#00418E" fill-rule="nonzero" transform="translate(127.525886, 23.438510) rotate(3.000000) translate(-127.525886, -23.438510) "></path>
                </g>
            </g>
        </g>
    </g>
</svg>