<?xml version="1.0" encoding="UTF-8"?>
<svg width="48px" height="48px" viewBox="0 0 48 48" version="1.1" xmlns="http://www.w3.org/2000/svg" xmlns:xlink="http://www.w3.org/1999/xlink">
    <!-- Generator: Sketch 58 (84663) - https://sketch.com -->
    <title>i48_reach-out</title>
    <desc>Created with Sketch.</desc>
    <g id="Thnks" stroke="none" stroke-width="1" fill="none" fill-rule="evenodd">
        <g id="Case-Study-Thnks_1920" transform="translate(-936.000000, -3628.000000)">
            <g id="Group-11" transform="translate(530.000000, 3525.000000)">
                <g id="Group-18-Copy-3" transform="translate(299.000000, 102.000000)">
                    <g id="Bars/Tab_Bar/iOS/Icons/Send_Gift_Active-Copy-3" transform="translate(106.000000, 0.000000)">
                        <g id="Group-37" transform="translate(0.800000, 0.400000)">
                            <path d="M5.01529754,46.922501 L43.4020757,46.922501 L41.8,40.6 L32.2,34.2 C26.8666667,40.0275129 24.2,42.6941796 24.2,42.2 C24.2,42.3727119 21.5333333,39.7060453 16.2,34.2 L7.76738281,39.8148438 L5.01529754,46.922501 Z" id="Path-8" fill="#02B8C7"></path>
                            <path d="M31.0704842,33.2840627 L31.9984529,33.5107946 C39.7134601,35.3958125 45.0065975,39.9493369 45.0065975,45.4 C45.0065975,46.2836556 44.2902531,47.0000132 43.4065975,47.0000132 C42.5229419,47.0000132 41.8065975,46.2836556 41.8065975,45.4 C41.8065975,41.984881 38.2218226,38.6715506 32.5065388,36.9630048 L32.1539738,36.8604179 L23.4840554,46.4716931 C22.8921756,47.1278376 21.8804521,47.1799344 21.2243076,46.5880547 C20.6067598,46.0309914 20.5242854,45.1020249 21.0101734,44.4476304 L21.107946,44.3283069 L22.079,43.251 L16.2575804,36.8590152 L15.9048439,36.9615748 C10.186776,38.6697014 6.6,41.983928 6.6,45.4 C6.6,46.2836556 5.8836556,47.0000132 5,47.0000132 C4.1163444,47.0000132 3.4,46.2836556 3.4,45.4 C3.4,40.0401813 8.51816983,35.5478458 16.0244258,33.607261 L16.4081447,33.5107946 L17.3311154,33.2852839 L24.233,40.863 L31.0704842,33.2840627 Z M24.2,5.4 C31.2692448,5.4 37,11.1307552 37,18.2 C37,25.7869913 30.967918,34.2 24.2,34.2 C17.432082,34.2 11.4,25.7869913 11.4,18.2 C11.4,11.1307552 17.1307552,5.4 24.2,5.4 Z M26.8522777,17.2504902 L24.666599,19.4754973 L14.6704616,19.4752502 C15.2841488,25.1265604 19.8043239,31 24.2,31 C28.5956761,31 33.1158512,25.1265604 33.7295384,19.4752502 L29.1663908,19.4754973 L26.8522777,17.2504902 Z M24.2,8.6 C19.5571623,8.6 15.6841189,11.8958813 14.7929329,16.2755808 L23.3243706,16.2754973 L26.7880341,12.7495098 L30.4552287,16.2754973 L33.6070671,16.2755808 C32.7340686,11.9852629 28.9996792,8.73497717 24.4832747,8.60409933 L24.2,8.6 Z" id="Shape" fill="#00418E" fill-rule="nonzero"></path>
                        </g>
                    </g>
                </g>
            </g>
        </g>
    </g>
</svg>