<?xml version="1.0" encoding="UTF-8"?>
<svg width="48px" height="48px" viewBox="0 0 48 48" version="1.1" xmlns="http://www.w3.org/2000/svg" xmlns:xlink="http://www.w3.org/1999/xlink">
    <!-- Generator: Sketch 60 (88103) - https://sketch.com -->
    <title>i48_gps</title>
    <desc>Created with Sketch.</desc>
    <g id="Actual" stroke="none" stroke-width="1" fill="none" fill-rule="evenodd">
        <g id="Case_Greenlinks_2560" transform="translate(-805.000000, -5315.000000)" fill="#00C5B8">
            <g id="Features" transform="translate(699.000000, 5197.000000)">
                <g id="Group-18" transform="translate(0.000000, 27.000000)">
                    <g id="Satellite" transform="translate(106.000000, 0.000000)">
                        <path d="M15.2236263,115.004164 L18.1518601,112.076009 L16.6898251,110.614013 L13.7614131,113.542346 C12.9563515,114.347386 11.6511972,114.347495 10.8452749,113.541594 L0.603850404,103.300445 C-0.201626623,102.494989 -0.200689565,101.188151 0.603098177,100.384385 L9.38399218,91.6037266 C10.1890538,90.7986867 11.494208,90.7985782 12.3001303,91.6044789 L22.5415548,101.845628 C23.3470319,102.651084 23.3460948,103.957922 22.5423071,104.761688 L19.613895,107.690021 L21.07593,109.152017 L26.9204539,103.30765 C27.7303631,102.497763 29.0434721,102.499388 29.8543757,103.31027 L35.6900442,109.145782 C36.4989734,109.954689 36.5021206,111.27019 35.6926638,112.079625 L29.8481399,117.923991 L31.3101749,119.385987 L34.2385869,116.457654 C35.0436485,115.652614 36.3488028,115.652505 37.1547251,116.458406 L47.3961496,126.699555 C48.2016266,127.505011 48.2006896,128.811849 47.3969018,129.615615 L38.6160078,138.396273 C37.8109462,139.201313 36.505792,139.201422 35.6998697,138.395521 L25.4584452,128.154372 C24.6529681,127.348916 24.6539052,126.042078 25.4576929,125.238312 L28.386105,122.309979 L26.92407,120.847983 L23.9958362,123.776138 C22.9842818,124.787665 21.7099045,125.376065 20.3922415,125.54152 C20.7132252,128.108937 19.9009841,130.794871 18.1518601,132.543949 C16.8086581,133.887114 14.0011835,132.648875 11.4119527,130.511701 L10.1091421,131.814476 C9.30252499,132.621072 7.99968674,132.626018 7.18659766,131.812951 C6.37913803,131.005513 6.3812069,129.694328 7.18507211,128.890485 L8.48788268,127.587709 C6.35065114,124.998548 5.11237818,122.191149 6.45558016,120.847983 C8.36875198,118.934862 10.9860374,118.154965 13.473283,118.508291 C13.6549208,117.225883 14.2380034,115.98976 15.2236263,115.004164 Z M29.8481399,126.695966 L35.6962799,120.847983 L37.8893324,123.040976 L32.0411924,128.888959 L29.8481399,126.695966 Z M37.1583149,134.005944 L43.0064548,128.157961 L40.8134023,125.964968 L34.9652624,131.812951 L37.1583149,134.005944 Z M4.99354518,101.842039 L10.8416851,95.9940557 L13.0347376,98.1870493 L7.18659766,104.035032 L4.99354518,101.842039 Z M12.3037201,109.152017 L18.1518601,103.304034 L15.9588076,101.111041 L10.1106676,106.959024 L12.3037201,109.152017 Z M10.3654022,123.050183 C10.3654022,123.050183 11.3578323,124.746748 12.8054112,126.194288 C14.2833749,127.672212 15.9741114,128.620234 15.9741114,128.620234 C15.9741114,128.620234 16.8427093,125.38685 15.2277901,123.771974 C13.6128708,122.157098 10.3654022,123.050183 10.3654022,123.050183 Z M18.1518601,120.847983 C18.9601037,121.656205 20.2670284,121.656863 21.0717662,120.852147 L31.3101749,110.614013 L28.386105,107.690021 L18.1476962,117.928155 C17.3453663,118.730463 17.3464986,120.042643 18.1518601,120.847983 Z" id="Combined-Shape"></path>
                    </g>
                </g>
            </g>
        </g>
    </g>
</svg>