<svg xmlns="http://www.w3.org/2000/svg" width="580" height="580" viewBox="0 0 580 580" style="background: rgba(0,56,255,0.00);"><defs><linearGradient id="n5o5vhwwzdi76pfqoed5lp5i" x1="18.3" y1="7.3" x2="65.5" y2="7.7" gradientUnits="userSpaceOnUse"><stop offset="0" stop-color="#003e9c" stop-opacity="0"/><stop offset=".4" stop-color="#003e9c" stop-opacity=".1"/><stop offset="1" stop-color="#003e9c" stop-opacity="0"/></linearGradient><linearGradient id="ty18grf0djwcubs7mgh4vcxt" x1="13" y1="12.5" x2="86" y2="11.6" gradientUnits="userSpaceOnUse"><stop offset="0" stop-color="#003e9c" stop-opacity="0"/><stop offset=".4" stop-color="#003e9c" stop-opacity=".1"/><stop offset="1" stop-color="#003e9c" stop-opacity="0"/></linearGradient><linearGradient id="rlk1924on1az92hggfpq2l5o" x1="-0.3" y1="12.3" x2="96.7" y2="11.9" gradientUnits="userSpaceOnUse"><stop offset="0" stop-color="#003e9c" stop-opacity="0"/><stop offset=".4" stop-color="#003e9c" stop-opacity=".1"/><stop offset="1" stop-color="#003e9c" stop-opacity="0"/></linearGradient><linearGradient id="ez63t8kc3hc5ae4uhn3yt6tc" x1="0" y1="1.3" x2="1" y2="1.3"><stop offset="0" stop-color="#0056e6" stop-opacity="0"/><stop offset=".5" stop-color="#0056e6" stop-opacity=".1"/><stop offset="1" stop-color="#0056e6" stop-opacity="0"/></linearGradient><linearGradient id="sapay0capiwfzdtiqrt919yh" x1=".5" y1="1.3" x2=".5" y2="-0.2"><stop offset="0" stop-color="#0056e6"/><stop offset="1" stop-color="#f5f5f7"/></linearGradient><linearGradient id="uststl7an3wg4ae6zpg6sokj" x1="21.7" y1="94.1" x2="-6.3" y2="-19.2" gradientUnits="userSpaceOnUse"><stop offset="0" stop-color="#0056e6"/><stop offset="1" stop-color="#fff"/></linearGradient><linearGradient id="gvyopdjedoy4qvhy79zd9exr" x1="6.2" y1="118.8" x2="4.7" y2="-23.7" gradientUnits="userSpaceOnUse"><stop offset="0" stop-color="#0056e6"/><stop offset="1" stop-color="#fff"/></linearGradient></defs><style>
@keyframes bcrdwbcy70r2wk5v6jhqt99j_t { 0% { transform: translate(82px,212.6px); animation-timing-function: cubic-bezier(.1,0,.7,1); } 42.619% { transform: translate(82px,260.6px); animation-timing-function: cubic-bezier(.4,0,.4,1); } 100% { transform: translate(82px,212.6px); } }
@keyframes kwf1ma1np93sj2k7ex0so1mf_t { 0% { transform: translate(219.7px,138.7px) scale(1.1,1.1) translate(-67.4px,-38.9px); animation-timing-function: cubic-bezier(.4,0,.6,1); } 70.714% { transform: translate(219.7px,138.7px) scale(.9,.9) translate(-67.4px,-38.9px); animation-timing-function: cubic-bezier(.4,0,.6,1); } 100% { transform: translate(219.7px,138.7px) scale(1.1,1.1) translate(-67.4px,-38.9px); } }
@keyframes kwf1ma1np93sj2k7ex0so1mf_o { 0% { opacity: .5; animation-timing-function: cubic-bezier(.4,0,.6,1); } 70.714% { opacity: 1; animation-timing-function: cubic-bezier(.4,0,.6,1); } 100% { opacity: .5; } }
@keyframes b530b0dae8bzlgcxtthnzznl_t { 0% { transform: translate(200.9px,207px); animation-timing-function: cubic-bezier(.4,0,.6,1); } 50% { transform: translate(200.9px,260.7px); animation-timing-function: cubic-bezier(.4,0,.6,.8); } 100% { transform: translate(200.9px,207px); } }
@keyframes uqf6lpqtvz86z17y5s002dml_t { 0% { transform: translate(472px,91px); animation-timing-function: cubic-bezier(.4,0,.6,1); } 50% { transform: translate(472px,84px); animation-timing-function: cubic-bezier(.4,0,.6,1); } 100% { transform: translate(472px,91px); } }
@keyframes mm4zcfnbak99qvwedfmxxqg2_o { 0% { opacity: 1; animation-timing-function: cubic-bezier(.4,0,.6,1); } 50% { opacity: .5; animation-timing-function: cubic-bezier(.4,0,.6,1); } 100% { opacity: 1; } }
@keyframes dlyrscfp1i9vmcy1olul9pjs_t { 0% { transform: translate(26px,17.2px) rotate(0deg) translate(-21px,-17.2px); animation-timing-function: cubic-bezier(.4,0,.6,1); } 50% { transform: translate(26px,9.6px) rotate(-16deg) translate(-21px,-17.2px); animation-timing-function: cubic-bezier(.4,0,.6,1); } 100% { transform: translate(26px,17.2px) rotate(0deg) translate(-21px,-17.2px); } }
@keyframes ckvqly9xqcplvpx8626qis7s_t { 0% { transform: translate(45.5px,461.1px); animation-timing-function: cubic-bezier(.4,0,.6,1); } 47.595% { transform: translate(45.5px,453.1px); animation-timing-function: cubic-bezier(.4,0,.6,1); } 100% { transform: translate(45.5px,461.1px); } }
@keyframes g48zyp9kh074jm0zl4rgu1q2_o { 0% { opacity: 1; animation-timing-function: cubic-bezier(.4,0,.6,1); } 47.595% { opacity: .5; animation-timing-function: cubic-bezier(.4,0,.6,1); } 100% { opacity: 1; } }
@keyframes jwwsus7hf0q9fqtyo48qkpz6_t { 0% { transform: translate(23px,10.9px); animation-timing-function: cubic-bezier(.4,0,.6,1); } 47.595% { transform: translate(23px,5.9px); animation-timing-function: cubic-bezier(.4,0,.6,1); } 100% { transform: translate(23px,10.9px); } }
@keyframes axgg8qfq2k09b2fasmautjj1_t { 0% { transform: translate(19.5px,13.5px); animation-timing-function: cubic-bezier(.4,0,.6,1); } 47.595% { transform: translate(19.5px,10.5px); animation-timing-function: cubic-bezier(.4,0,.6,1); } 100% { transform: translate(19.5px,13.5px); } }
@keyframes hq74p98bqfr68z9u0r0bvgfk_t { 0% { transform: translate(19.5px,12.5px); animation-timing-function: cubic-bezier(.4,0,.6,1); } 47.595% { transform: translate(19.5px,9.5px); animation-timing-function: cubic-bezier(.4,0,.6,1); } 100% { transform: translate(19.5px,12.5px); } }
</style><title>i580_teaser_ar</title><desc>Created with Sketch.</desc><g transform="translate(278,338.5) translate(-196,-125.8)" style="animation: 7s linear infinite both bcrdwbcy70r2wk5v6jhqt99j_t;"><path d="M363 149.9v-0.6h29.1v24.2l-0.1 .1c-0.3 2.9-1.9 5.7-4.6 7.4l-0.2 .1l-112.5 66.5c-9.2 5.3-20.4 5.5-29.6 .3l-0.5-0.2l-239.6-139.1c-1.5-0.9-2.8-2.2-3.6-3.7c-0.8-1.4-1.3-2.9-1.3-4.5h-0.1v-24l15.3 9l347.7 64.5Z" stroke="#fff" stroke-width="2" fill="#729fff" fill-rule="evenodd"/><ellipse stroke="#fff" stroke-width="1.5" rx="3" ry="4.5" fill="none" transform="translate(292.2,225.4) rotate(18)"/><ellipse stroke="#fff" stroke-width="1.5" rx="2" ry="3" fill="none" transform="translate(303.2,218.9) rotate(18)"/><ellipse stroke="#fff" stroke-width="1.5" rx="1.5" ry="2.5" fill="none" transform="translate(359.7,186.8) rotate(18)"/><ellipse stroke="#fff" stroke-width="1.5" rx="1.5" ry="2.5" fill="none" transform="translate(364.7,183.8) rotate(18)"/><ellipse stroke="#fff" stroke-width="1.5" rx="1.5" ry="2.5" fill="none" transform="translate(369.7,180.8) rotate(18)"/><ellipse stroke="#fff" stroke-width="1.5" rx="1.5" ry="2.5" fill="none" transform="translate(374.7,177.8) rotate(18)"/><ellipse stroke="#fff" stroke-width="1.5" rx="1.5" ry="2.5" fill="none" transform="translate(379.7,174.8) rotate(18)"/><ellipse stroke="#fff" stroke-width="1.5" rx="1.5" ry="2.5" fill="none" transform="translate(384.7,171.8) rotate(18)"/><path d="M118.6 3.8l-114 65.3c-4.3 2.5-5.8 8-3.4 12.3c.8 1.4 2 2.5 3.4 3.3l240.8 139.1c9 5.2 20.2 5.2 29.2-0.1l113-66.4c4.3-2.6 5.8-8.1 3.2-12.4c-0.7-1.3-1.9-2.4-3.2-3.2l-240.2-137.9c-8.9-5.1-19.9-5.1-28.8 0Z" stroke="#fff" stroke-width="2" fill="#4780fb" fill-rule="evenodd"/><path d="M24 107.4c0 1.9 1 3.6 2.6 4.5l13 8c.7 .4 1.7 .2 2.2-0.6c.1-0.2 .2-0.5 .2-0.8c0-1.8-0.9-3.5-2.4-4.4l-13.1-8.1c-0.7-0.5-1.8-0.3-2.2 .5c-0.2 .3-0.3 .6-0.3 .9Z" stroke="#fff" stroke-width="1.5" fill="none"/><path d="M54 124.4c0 1.9 1 3.6 2.6 4.5l13 8c.7 .4 1.7 .2 2.2-0.6c.1-0.2 .2-0.5 .2-0.8c0-1.8-0.9-3.5-2.4-4.4l-13.1-8.1c-0.7-0.5-1.8-0.3-2.2 .5c-0.2 .3-0.3 .6-0.3 .9Z" stroke="#fff" stroke-width="1.5" fill="none"/><path d="M76 138.4c0 1.9 1 3.6 2.6 4.5l13 8c.7 .4 1.7 .2 2.2-0.6c.1-0.2 .2-0.5 .2-0.8c0-1.8-0.9-3.5-2.4-4.4l-13.1-8.1c-0.7-0.5-1.8-0.3-2.2 .5c-0.2 .3-0.3 .6-0.3 .9Z" stroke="#fff" stroke-width="1.5" fill="none"/><path d="M515 457v.7c0 1.4 .7 2.7 1.9 3.5l13.7 8.3c.7 .4 1.7 .2 2.2-0.6c.1-0.2 .2-0.5 .2-0.8v-0.7c0-1.4-0.7-2.6-1.9-3.4l-13.6-8.4c-0.7-0.5-1.8-0.3-2.2 .5c-0.2 .3-0.3 .6-0.3 .9Z" stroke="#fff" stroke-width="1.5" fill="none" transform="translate(334,200.9) scale(-1,1) translate(-524,-462.5)"/><ellipse cx="314.5" cy="175.9" stroke="#fff" stroke-width="1.5" rx="13.5" ry="8.5" fill="none"/><path d="M73.6 47.9l17.9-10.1c1.6-0.9 3.5-0.9 5 .1c.9 .4 1.1 1.5 .6 2.3c-0.1 .3-0.3 .5-0.6 .6l-17.9 10.2c-1.6 .9-3.5 .9-5.1-0.1c-0.8-0.5-1-1.5-0.5-2.3c.1-0.3 .3-0.5 .6-0.7Z" stroke="#fff" stroke-width="1.5" fill="none"/><path d="M260 231.5v14" stroke="#fff" stroke-width="2" stroke-linecap="round" fill="none"/><g opacity=".5" transform="translate(219.7,138.7) scale(1.1,1.1) translate(-67.4,-38.9)" style="animation: 7s linear infinite both kwf1ma1np93sj2k7ex0so1mf_t, 7s linear infinite both kwf1ma1np93sj2k7ex0so1mf_o;"><rect width="96.8" height="15.9" fill="url(#n5o5vhwwzdi76pfqoed5lp5i)" rx="8" transform="translate(69.7,37.6) rotate(-30) skewX(30) translate(-51,-7.9)"/><rect width="104.6" height="25" fill="url(#ty18grf0djwcubs7mgh4vcxt)" rx="8" transform="translate(69.7,37.6) rotate(-30) skewX(30) translate(-54.9,-12.5)"/><rect width="114.6" height="35.6" fill="url(#rlk1924on1az92hggfpq2l5o)" rx="8" transform="translate(69.7,37.6) rotate(-30) skewX(30) translate(-59.9,-17.8)"/></g></g><g transform="translate(273.4,275.5) translate(-72.5,-68.5)" style="animation: 7s linear infinite both b530b0dae8bzlgcxtthnzznl_t;"><path d="M116.1 .9l26.2 15l-24 42.5v14.8c0 5.7-3.1 11-8 13.8l-8.2 4.8v30l1-0.4v14.4l-14.2-8l6.2-2.8v-25.5l-21 37.3l-27.2-15.6c-0.8-0.4-1.6-1.1-2.1-2c-0.5-0.7-0.7-1.6-0.7-2.5v-67.7c0-5.6 3-10.9 7.9-13.8l58.7-34.5c1.8-1 3.8-0.9 5.4 .2Z" fill="#729fff" fill-rule="evenodd"/><path d="M144.3 17.8c.4 .8 .7 1.6 .7 2.5v68.2c0 5.7-3.1 11-8 13.9l-22.5 13l-11.4 20.4v-13.8l-24.8 14.4c-2.4 1.4-5.4 .6-6.8-1.8c-0.5-0.8-0.7-1.7-0.7-2.5v-67.7c0-5.7 3-11 7.9-13.8l58.7-34.6c2.4-1.4 5.5-0.6 6.9 1.8Z" fill="#fff" fill-rule="evenodd"/><path stroke="#ed4159" stroke-width="2" stroke-linecap="round" stroke-linejoin="round" d="M87.6 89.3l14.5-9l7-18l4 24l7-13l10.5-5.5" fill="none"/></g><ellipse fill="#fff" rx="35" ry="35" fill-rule="evenodd" transform="translate(472,91)" style="animation: 4s linear infinite both uqf6lpqtvz86z17y5s002dml_t;"/><g transform="translate(472.4,93.8) scale(.7,.7) translate(-25.4,-21.8)"><g transform="translate(0,14)" style="animation: 4s linear infinite both mm4zcfnbak99qvwedfmxxqg2_o;"><ellipse fill="url(#ez63t8kc3hc5ae4uhn3yt6tc)" rx="25.4" ry="14.8" fill-rule="evenodd" transform="translate(25.4,14.8)"/><ellipse fill="url(#ez63t8kc3hc5ae4uhn3yt6tc)" rx="20.1" ry="10.6" fill-rule="evenodd" transform="translate(25.7,15.2)"/><ellipse fill="url(#ez63t8kc3hc5ae4uhn3yt6tc)" rx="15.7" ry="6.9" fill-rule="evenodd" transform="translate(25.3,15.2)"/></g><g transform="translate(26,17.2) translate(-21,-17.2)" style="animation: 4s linear infinite both dlyrscfp1i9vmcy1olul9pjs_t;"><path d="M0 11.2l42 .8c0 0-0.4 7.6-0.6 11.1c0 .9-0.6 2.8-0.9 3.3c-3.2 4.3-10.7 8.1-19.5 8.1c-9.7 0-17.8-4.5-20.2-9.4c-0.3-0.4-0.6-2-0.6-2.8c-0.1-3.4-0.2-11.1-0.2-11.1Z" fill="url(#sapay0capiwfzdtiqrt919yh)" fill-rule="evenodd"/><path d="M42 11.6c0 .1 0 .3 0 .4c0 6.6-9.4 12-21 12c-11.6 0-21-5.4-21-12c0-0.1 0-0.3 0-0.4c.4 6.1 9.6 10.9 21 10.9c11.3 0 20.6-4.8 21-10.8Z" fill="#d8e4fd" fill-rule="evenodd"/><ellipse fill="url(#uststl7an3wg4ae6zpg6sokj)" rx="21" ry="11.2" fill-rule="evenodd" transform="translate(21,11.2)"/><g transform="translate(6.5,5.9)"><path d="M2.9 11.2l26.6-7.3c.8-0.2 1.2-1 1-1.8c-0.2-0.8-1-1.3-1.8-1l-26.6 7.2c-0.8 .2-1.3 1.1-1 1.9c.2 .8 1 1.2 1.8 1Z" fill="#fff" opacity=".7"/><path d="M1.9 10.2l26.6-7.3c.8-0.2 1.2-1 1-1.8c-0.2-0.8-1-1.3-1.8-1l-26.6 7.2c-0.8 .2-1.3 1.1-1 1.9c.2 .8 1 1.2 1.8 1Z" fill="#85acf0"/></g></g></g><g transform="translate(88,493) translate(-42.5,-31.9)" style="animation: 6.58s linear infinite both ckvqly9xqcplvpx8626qis7s_t;"><path d="M67.5 0c9.6 0 17.5 7.9 17.5 17.6v17.9c0 9.6-7.9 17.5-17.5 17.5h-3.8h-46.2c-9.6 0-17.5-7.9-17.5-17.5v-17.9c0-9.7 7.9-17.6 17.6-17.6h49.9Z" fill="#fff" fill-rule="evenodd"/><g transform="translate(24,25.5)" style="animation: 6.58s linear infinite both g48zyp9kh074jm0zl4rgu1q2_o;"><ellipse fill="url(#ez63t8kc3hc5ae4uhn3yt6tc)" rx="18.8" ry="10" fill-rule="evenodd" transform="translate(18.8,10)"/><ellipse fill="url(#ez63t8kc3hc5ae4uhn3yt6tc)" rx="15.8" ry="7" fill-rule="evenodd" transform="translate(18.8,11)"/><ellipse fill="url(#ez63t8kc3hc5ae4uhn3yt6tc)" rx="12.8" ry="5" fill-rule="evenodd" transform="translate(18.8,11)"/></g><g transform="translate(42.8,24.9) translate(-19.8,-14)" style="animation: 6.58s linear infinite both jwwsus7hf0q9fqtyo48qkpz6_t;"><path d="M39.7 13.2c0 .2 0 .5 0 .8c0 7.7-8.9 13.9-19.9 13.9c-10.9 0-19.8-6.2-19.8-13.9c0-0.3 0-0.6 0-0.8c.6 6.6 9.3 11.8 19.8 11.8c10.6 0 19.3-5.2 19.9-11.8Z" fill="url(#sapay0capiwfzdtiqrt919yh)" fill-rule="evenodd"/><ellipse fill="url(#gvyopdjedoy4qvhy79zd9exr)" rx="19.8" ry="12.5" fill-rule="evenodd" transform="translate(19.8,12.5)"/><ellipse stroke="#fff" stroke-width="1.5" opacity=".7" rx="5.1" ry="2.9" fill="none" transform="translate(19.5,13.5)" style="animation: 6.58s linear infinite both axgg8qfq2k09b2fasmautjj1_t;"/><ellipse stroke="#6195ed" stroke-width="1.5" opacity=".7" rx="5.1" ry="2.9" fill="none" transform="translate(19.5,12.5)" style="animation: 6.58s linear infinite both hq74p98bqfr68z9u0r0bvgfk_t;"/></g></g></svg>