<svg xmlns="http://www.w3.org/2000/svg" width="580" height="580" viewBox="0 0 580 580" style="background: rgba(0,81,255,0.00);"><defs><linearGradient id="yljm968h6kdb6ofzijbph22h" x1="8.2" y1="9.8" x2="44.5" y2="7.8" gradientUnits="userSpaceOnUse"><stop offset="0" stop-color="#0056e6" stop-opacity="0"/><stop offset=".6" stop-color="#0056e6" stop-opacity=".1"/><stop offset="1" stop-color="#0056e6" stop-opacity="0"/></linearGradient><linearGradient id="qj7ycvh554hnsb23crv2sjzb" x1="9.9" y1="11.1" x2="43" y2="9.1" gradientUnits="userSpaceOnUse"><stop offset="0" stop-color="#0056e6" stop-opacity="0"/><stop offset=".6" stop-color="#0056e6" stop-opacity=".12"/><stop offset="1" stop-color="#0056e6" stop-opacity="0"/></linearGradient><linearGradient id="k9vzcrmsc3he1ivpq7qkt2ma" x1="13.6" y1="10.3" x2="35.7" y2="11.1" gradientUnits="userSpaceOnUse"><stop offset="0" stop-color="#0056e6" stop-opacity="0"/><stop offset=".6" stop-color="#0056e6" stop-opacity=".15"/><stop offset="1" stop-color="#0056e6" stop-opacity="0"/></linearGradient><linearGradient id="rh8nfno7z19mvm67ckgmza2n" x1=".8" y1=".8" x2=".5" y2=".2"><stop offset="0" stop-color="#0056e6"/><stop offset="1" stop-color="#f5f5f7"/></linearGradient><linearGradient id="crovux5o9hulampfl8nqzfh8" x1="31.5" y1="46.2" x2="14.8" y2=".5" gradientUnits="userSpaceOnUse"><stop offset="0" stop-color="#0056e6"/><stop offset="1" stop-color="#fff"/></linearGradient><linearGradient id="d69zomsy0hq0s86pljk2c0n7" x1="193.4" y1="-18" x2="-18" y2="193.4" gradientUnits="userSpaceOnUse"><stop offset="0" stop-color="#020062" stop-opacity="0"/><stop offset=".5" stop-color="#020062" stop-opacity=".05"/><stop offset="1" stop-color="#020062" stop-opacity="0"/></linearGradient><linearGradient id="s96wwew1501y75l4a4pkj7cv" x1="180" y1="-5.3" x2="-4.9" y2="179.6" gradientUnits="userSpaceOnUse"><stop offset="0" stop-color="#020062" stop-opacity="0"/><stop offset=".5" stop-color="#020062" stop-opacity=".06"/><stop offset="1" stop-color="#020062" stop-opacity="0"/></linearGradient><linearGradient id="resu251rh9e1xr9ldpw0ix9h" x1="167.6" y1="7.8" x2="7.5" y2="168" gradientUnits="userSpaceOnUse"><stop offset="0" stop-color="#020062" stop-opacity="0"/><stop offset=".5" stop-color="#020062" stop-opacity=".08"/><stop offset="1" stop-color="#020062" stop-opacity="0"/></linearGradient><linearGradient id="a93acrvotduapb4c7tmgth2b" x1="18.5" y1="19.9" x2="18.5" y2="2.4" gradientUnits="userSpaceOnUse"><stop offset="0" stop-color="#fff" stop-opacity=".7"/><stop offset="1" stop-color="#fff" stop-opacity="0"/></linearGradient></defs><style>
@keyframes ihb0qr6jdhk0ca3i34g899ur_t { 0% { transform: translate(431px,64px); animation-timing-function: cubic-bezier(.4,0,.6,1); } 50% { transform: translate(431px,54px); animation-timing-function: cubic-bezier(.4,0,.6,1); } 100% { transform: translate(431px,64px); } }
@keyframes mwsv5bj73y5kg64b03tkmmr3_o { 0% { opacity: 1; animation-timing-function: cubic-bezier(.4,0,.6,1); } 50% { opacity: .3; animation-timing-function: cubic-bezier(.4,0,.6,1); } 100% { opacity: 1; } }
@keyframes v6gb6x80ttx8x36uygeovv2f_t { 0% { transform: translate(7px,13px); animation-timing-function: cubic-bezier(.4,0,.6,1); } 50% { transform: translate(7px,9px); animation-timing-function: cubic-bezier(.4,0,.6,1); } 100% { transform: translate(7px,13px); } }
@keyframes p796as3yog4p5rqdq4nc99bd_t { 0% { transform: translate(311px,433px) scale(1,1) translate(-153px,-204px); animation-timing-function: cubic-bezier(.4,0,.6,1); } 48.936% { transform: translate(311px,433px) scale(1.3,1.3) translate(-153px,-204px); animation-timing-function: cubic-bezier(.4,0,.6,1); } 100% { transform: translate(311px,433px) scale(1,1) translate(-153px,-204px); } }
@keyframes p796as3yog4p5rqdq4nc99bd_o { 0% { opacity: 1; animation-timing-function: cubic-bezier(.4,0,.6,1); } 48.936% { opacity: .5; animation-timing-function: cubic-bezier(.4,0,.6,1); } 100% { opacity: 1; } }
@keyframes uaca4g2o2wlh2lkrn7tljxwk_t { 0% { transform: translate(197px,172px); animation-timing-function: cubic-bezier(.4,0,.6,1); } 48.936% { transform: translate(197px,141px); animation-timing-function: cubic-bezier(.4,0,.6,1); } 100% { transform: translate(197px,172px); } }
@keyframes lv47v7qjgjzvqja55s3zqj5z_o { 0% { opacity: 0; } 8.333% { opacity: 0; } 9.722% { opacity: 1; } 15.278% { opacity: 1; } 16.667% { opacity: 0; } 25.198% { opacity: 0; } 26.587% { opacity: 1; } 32.143% { opacity: 1; } 33.532% { opacity: 0; } 42.262% { opacity: 0; } 43.651% { opacity: 1; } 49.206% { opacity: 1; } 50.595% { opacity: 0; } 59.325% { opacity: 0; } 60.714% { opacity: 1; } 66.27% { opacity: 1; } 67.659% { opacity: 0; } 76.389% { opacity: 0; } 77.778% { opacity: 1; } 83.333% { opacity: 1; } 84.722% { opacity: 0; } 84.921% { opacity: 0; } 87.103% { opacity: 0; } 88.492% { opacity: 1; } 90.675% { opacity: 1; } 92.262% { opacity: 0; } 94.643% { opacity: 0; } 96.032% { opacity: 1; } 98.413% { opacity: 1; } 100% { opacity: 0; } }
@keyframes kstuz2dsh7jr8zzrfw7vhvod_o { 0% { opacity: 0; } 8.333% { opacity: 0; } 9.722% { opacity: 1; } 15.278% { opacity: 1; } 16.667% { opacity: 0; } 25.198% { opacity: 0; } 26.587% { opacity: 1; } 32.143% { opacity: 1; } 33.532% { opacity: 0; } 42.262% { opacity: 0; } 43.651% { opacity: 1; } 49.206% { opacity: 1; } 50.595% { opacity: 0; } 50.794% { opacity: 0; } 52.183% { opacity: 1; } 57.738% { opacity: 1; } 59.127% { opacity: 0; } 67.857% { opacity: 0; } 69.246% { opacity: 1; } 74.802% { opacity: 1; } 76.19% { opacity: 0; } 76.389% { opacity: 0; } 77.778% { opacity: 1; } 83.333% { opacity: 1; } 84.722% { opacity: 0; } 84.921% { opacity: 0; } 87.103% { opacity: 0; } 88.492% { opacity: 1; } 90.675% { opacity: 1; } 92.262% { opacity: 0; } 94.643% { opacity: 0; } 96.032% { opacity: 1; } 98.413% { opacity: 1; } 100% { opacity: 0; } }
@keyframes xh49xo3z5xz3h36p5ppp6n7x_o { 0% { opacity: 0; } 1.389% { opacity: 1; } 6.944% { opacity: 1; } 8.333% { opacity: 0; } 16.667% { opacity: 0; } 18.056% { opacity: 1; } 23.611% { opacity: 1; } 25% { opacity: 0; } 42.262% { opacity: 0; } 43.651% { opacity: 1; } 49.206% { opacity: 1; } 50.595% { opacity: 0; } 59.325% { opacity: 0; } 60.714% { opacity: 1; } 66.27% { opacity: 1; } 67.659% { opacity: 0; } 69.048% { opacity: 1; } 74.603% { opacity: 1; } 75.992% { opacity: 0; } 76.389% { opacity: 0; } 77.778% { opacity: 1; } 83.333% { opacity: 1; } 84.722% { opacity: 0; } 84.921% { opacity: 0; } 87.103% { opacity: 0; } 88.492% { opacity: 1; } 90.675% { opacity: 1; } 92.262% { opacity: 0; } 94.643% { opacity: 0; } 96.032% { opacity: 1; } 98.413% { opacity: 1; } 100% { opacity: 0; } }
@keyframes o5mwjs82cha3lctszo42stye_o { 0% { opacity: 0; } 33.73% { opacity: 0; } 35.119% { opacity: 1; } 40.675% { opacity: 1; } 42.262% { opacity: 0; } 50.794% { opacity: 0; } 52.183% { opacity: 1; } 57.738% { opacity: 1; } 59.325% { opacity: 0; animation-timing-function: cubic-bezier(0,0,1,1); } 60.714% { opacity: 1; } 66.27% { opacity: 1; } 67.857% { opacity: 0; animation-timing-function: cubic-bezier(0,0,1,1); } 69.246% { opacity: 1; } 74.802% { opacity: 1; } 76.389% { opacity: 0; } 77.778% { opacity: 1; } 83.333% { opacity: 1; } 84.921% { opacity: 0; } 87.103% { opacity: 0; } 88.492% { opacity: 1; } 90.675% { opacity: 1; } 92.262% { opacity: 0; } 94.643% { opacity: 0; } 96.032% { opacity: 1; } 98.413% { opacity: 1; } 100% { opacity: 0; } }
@keyframes zl3ucw0fyf7fpqmn61ij4lnv_o { 0% { opacity: 0; } 16.667% { opacity: 0; } 18.056% { opacity: 1; } 23.611% { opacity: 1; } 25.198% { opacity: 0; } 42.262% { opacity: 0; } 43.651% { opacity: 1; } 49.206% { opacity: 1; } 50.794% { opacity: 0; } 59.325% { opacity: 0; } 60.714% { opacity: 1; } 66.27% { opacity: 1; } 67.857% { opacity: 0; } 76.389% { opacity: 0; } 77.778% { opacity: 1; } 83.333% { opacity: 1; } 84.921% { opacity: 0; } 87.103% { opacity: 0; } 88.492% { opacity: 1; } 90.675% { opacity: 1; } 92.262% { opacity: 0; } 94.643% { opacity: 0; } 96.032% { opacity: 1; } 98.413% { opacity: 1; } 100% { opacity: 0; } }
@keyframes e0eg04ofa6ti1a6db75uso46_o { 0% { opacity: 0; } 1.389% { opacity: 1; } 6.944% { opacity: 1; } 8.333% { opacity: 0; } 25.198% { opacity: 0; } 26.587% { opacity: 1; } 32.143% { opacity: 1; } 33.532% { opacity: 0; } 33.73% { opacity: 0; } 35.119% { opacity: 1; } 40.675% { opacity: 1; } 42.262% { opacity: 0; } 50.794% { opacity: 0; } 52.183% { opacity: 1; } 57.738% { opacity: 1; } 59.325% { opacity: 0; animation-timing-function: cubic-bezier(0,0,1,1); } 60.714% { opacity: 1; } 66.27% { opacity: 1; } 67.857% { opacity: 0; animation-timing-function: cubic-bezier(0,0,1,1); } 69.246% { opacity: 1; } 74.802% { opacity: 1; } 76.389% { opacity: 0; } 77.778% { opacity: 1; } 83.333% { opacity: 1; } 84.921% { opacity: 0; } 87.103% { opacity: 0; } 88.492% { opacity: 1; } 90.675% { opacity: 1; } 92.262% { opacity: 0; } 94.643% { opacity: 0; } 96.032% { opacity: 1; } 98.413% { opacity: 1; } 100% { opacity: 0; } }
@keyframes gp9abpmiurtimyo7q3g86wgj_t { 0% { transform: translate(42px,236px); animation-timing-function: cubic-bezier(.4,0,.6,1); } 50.151% { transform: translate(42px,254.5px); animation-timing-function: cubic-bezier(.4,0,.6,1); } 100% { transform: translate(42px,236px); } }
@keyframes f9ndgq96u9fzhu92qb1e25c3_t { 0% { transform: translate(17px,27px) scale(1,1) translateY(-19.9px); animation-timing-function: cubic-bezier(.4,0,.6,1); } 54.545% { transform: translate(17px,27px) scale(1,.8) translateY(-19.9px); animation-timing-function: cubic-bezier(.4,0,.6,1); } 100% { transform: translate(17px,27px) scale(1,1) translateY(-19.9px); } }
@keyframes a3i5qmbum1zxksyerfzr7jjc_t { 0% { transform: translate(24px,27px) scale(1,1.1) translateY(-19.9px); animation-timing-function: cubic-bezier(.4,0,.6,1); } 53.932% { transform: translate(24px,27px) scale(1,.8) translateY(-19.9px); animation-timing-function: cubic-bezier(.4,0,.6,1); } 100% { transform: translate(24px,27px) scale(1,1.1) translateY(-19.9px); } }
@keyframes vgodg1lgngd1ltclggvg1vum_t { 0% { transform: translate(31px,27px) scale(1,1) translateY(-19.9px); animation-timing-function: cubic-bezier(.4,0,.6,1); } 56% { transform: translate(31px,27px) scale(1,.8) translateY(-19.9px); animation-timing-function: cubic-bezier(.4,0,.6,1); } 100% { transform: translate(31px,27px) scale(1,1) translateY(-19.9px); } }
@keyframes wpt9y2eh4lurrqyyhe1tvnc7_t { 0% { transform: translate(38px,27px) scale(1,1) translateY(-19.9px); animation-timing-function: cubic-bezier(.4,0,.6,1); } 53.164% { transform: translate(38px,27px) scale(1,1.2) translateY(-19.9px); animation-timing-function: cubic-bezier(.4,0,.6,1); } 100% { transform: translate(38px,27px) scale(1,1) translateY(-19.9px); } }
</style><title>i580_teaser_big_data</title><desc>Created with Sketch.</desc><g fill="none" fill-rule="evenodd" transform="translate(459,92) translate(-28,-28)" style="animation: 4s linear infinite both ihb0qr6jdhk0ca3i34g899ur_t;"><rect y="-2" fill="#fff" width="56" height="56" rx="11.4"/><g transform="translate(9.1,24.3)" style="animation: 4s linear infinite both mwsv5bj73y5kg64b03tkmmr3_o;"><path d="M9.3 18.3c-2.2-1.2-2.9-4-1.7-6.2c.4-0.7 1-1.3 1.7-1.7l20-11.5c4.2-2.4 9.4-2.4 13.6 0c2.2 1.3 3 4 1.7 6.2c-0.4 .7-0.9 1.3-1.6 1.7l-19.8 11.4c-4.3 2.5-9.6 2.6-13.9 .1Z" fill="url(#yljm968h6kdb6ofzijbph22h)" transform="translate(-7,2.9)"/><path d="M11.9 17.3c-1.8-1.1-2.5-3.4-1.4-5.3c.3-0.6 .8-1.1 1.4-1.4l17.7-10.2c3.6-2 8-2 11.6 0c1.8 1.1 2.4 3.5 1.4 5.3c-0.4 .6-0.8 1.1-1.4 1.4l-17.5 10.1c-3.6 2.1-8.1 2.2-11.8 .1Z" fill="url(#qj7ycvh554hnsb23crv2sjzb)" transform="translate(-7.3,2.4)"/><path d="M14 16.5c-1.4-0.8-1.8-2.5-1.1-3.9c.3-0.5 .7-0.8 1.1-1.1l17.7-9.5c2.6-1.5 5.9-1.5 8.5 0c1.4 .8 1.9 2.5 1.1 3.9c-0.2 .4-0.6 .8-1 1.1l-17.6 9.4c-2.6 1.6-6 1.7-8.7 .1Z" fill="url(#k9vzcrmsc3he1ivpq7qkt2ma)" transform="translate(-7.9,2)"/></g><g transform="translate(27.6,27.6) translate(-20.6,-14.6)" style="animation: 4s linear infinite both v6gb6x80ttx8x36uygeovv2f_t;"><path d="M33.4 8.7h.1c.9-0.4 2.1-0.7 3.6-0.9c.2 4 0 6.5-0.7 7.6c-0.4 .6-1 1.4-1.7 1.8l-14 7.9c-4.4 2.6-9.8 2.6-14.2 .1c-0.9-0.5-1.6-1.7-2-2.9c-0.4-0.9-0.5-3.2-0.3-6.7l3.3 1.1l13.1-7.4c4-2.2 8.7-2.4 12.8-0.6Z" fill="url(#rh8nfno7z19mvm67ckgmza2n)"/><path d="M7 19.9c-2.2-1.3-3-4.1-1.8-6.3c.4-0.7 1-1.3 1.7-1.7l13.8-8c4.2-2.4 9.4-2.4 13.6 0c2.2 1.3 3 4.1 1.7 6.2c-0.4 .7-0.9 1.3-1.6 1.7l-13.6 8c-4.3 2.5-9.5 2.5-13.8 .1Z" stroke="#f5f8ff" fill="url(#crovux5o9hulampfl8nqzfh8)"/><path d="M15.7 9.6l7.8 4.5" stroke="#fff" stroke-width="1.2" stroke-linecap="round"/><path d="M16.7 9.6l7.8 4.5" stroke="#85acf0" stroke-width="1.2" stroke-linecap="round"/></g></g><g transform="translate(311,433) translate(-153,-204)" style="animation: 4.7s linear infinite both p796as3yog4p5rqdq4nc99bd_t, 4.7s linear infinite both p796as3yog4p5rqdq4nc99bd_o;"><path fill="url(#d69zomsy0hq0s86pljk2c0n7)" d="M37.6 26.2l147.6-47.4c6.3 0 11.4 5.1 11.4 11.4l-40.3 154.7c0 6.3-5.1 11.4-11.4 11.4l-154.7 40.3c-6.3 0-11.4-5.1-11.4-11.4l47.4-147.6c0-6.3 5.1-11.4 11.4-11.4Z" transform="translate(154,194) rotate(45) translate(-116,-116)"/><path fill="url(#s96wwew1501y75l4a4pkj7cv)" d="M43.2 33.6l130.1-41.1c5.4 0 9.7 4.3 9.7 9.6l-35.2 136.1c0 5.3-4.3 9.6-9.6 9.6l-136.1 35.2c-5.3 0-9.6-4.3-9.6-9.7l41.1-130.1c0-5.3 4.3-9.6 9.6-9.6Z" transform="translate(154,194) rotate(45) translate(-116,-116)"/><path fill="url(#resu251rh9e1xr9ldpw0ix9h)" d="M48.2 40.1l114.6-35.5c4.4 0 8 3.6 8 8l-30.5 119.7c0 4.4-3.6 8-8 8l-119.7 30.5c-4.4 0-8-3.6-8-8l35.5-114.6c0-4.5 3.6-8.1 8.1-8.1Z" transform="translate(154,194) rotate(45) translate(-116,-116)"/></g><g fill="none" fill-rule="evenodd" transform="translate(312.2,303.9) translate(-115.2,-131.9)" style="animation: 4.7s linear infinite both uaca4g2o2wlh2lkrn7tljxwk_t;"><g fill="#ed4159" transform="translate(8.6,5)"><path d="M105.4 0v22.7l88.9 49.2l16.5-10.5Z" opacity="0" style="animation: 8.4s linear infinite both lv47v7qjgjzvqja55s3zqj5z_o;"/><path d="M105.4 0v22.7l-88.9 49.2l-16.5-10.5Z" opacity="0" style="animation: 8.4s linear infinite both kstuz2dsh7jr8zzrfw7vhvod_o;"/><path d="M.4 77l16 9v92l-16 11.4Z" opacity="0" style="animation: 8.4s linear infinite both xh49xo3z5xz3h36p5ppp6n7x_o;"/><path d="M105.4 178v22.7l-88.9 49.2l-16.5-10.5Z" opacity="0" transform="translate(52.7,213.9) scale(1,-1) translate(-52.7,-213.9)" style="animation: 8.4s linear infinite both o5mwjs82cha3lctszo42stye_o;"/><path d="M106.4 178v22.7l88.9 49.2l16.5-10.5Z" opacity="0" transform="translate(159.1,213.9) scale(1,-1) translate(-159.1,-213.9)" style="animation: 8.4s linear infinite both zl3ucw0fyf7fpqmn61ij4lnv_o;"/><path d="M199.4 80l16 9v92l-16 11.4Z" opacity="0" transform="translate(207.4,136.2) scale(-1,1) translate(-207.4,-136.2)" style="animation: 8.4s linear infinite both e0eg04ofa6ti1a6db75uso46_o;"/></g><g><path stroke="#fff" stroke-width="2" fill="#729fff" d="M115 123.9l-89.9-51.8l89.3-51.1l89.7 51.5Z"/><path d="M110.5 236.7v-100.2l-89.5-52.3v102.3l89.5 50.2Z" stroke="#fff" stroke-width="2" fill="#4780fb"/><path d="M209.5 236.7v-100.2l-89.5-52.3v102.3l89.5 50.2Z" stroke="#fff" stroke-width="2" fill="#003e9c" transform="translate(164.8,160.4) scale(-1,1) translate(-164.8,-160.4)"/><path d="M0 66.4l115.5 66.5l-0.5 131l-115-65.2v-132.3Zm12 21v104.7l91.5 51.3v-102.5l-91.5-53.5Z" stroke="#fff" stroke-width="2" fill="#4780fb" stroke-linejoin="round"/><path d="M230.5 66.4l-115.5 66.5l.5 131l115-65.2v-132.3Zm-12 21v104.7l-91.5 51.3v-102.5l91.5-53.5Z" stroke="#fff" stroke-width="2" fill="#003e9c" stroke-linejoin="round"/><path d="M114.4 0l115.6 66.4l-115 66.5l-115-66.5l114.4-66.4Zm0 10l-97.4 56.4l98 56.5l98-56.5l-98.6-56.4Z" stroke="#fff" stroke-width="2" fill="#729fff" stroke-linejoin="round"/><path d="M21.4 186c.3 .4 .2 1-0.2 1.3h-0.1l-8 5c-0.5 .3-1.1 .2-1.4-0.3c-0.3-0.4-0.1-1 .2-1.3l.1-0.1l8-5c.5-0.3 1.1-0.1 1.4 .4Zm188.7-0.4l8 5c.5 .3 .6 .9 .3 1.4c-0.3 .5-0.9 .6-1.4 .3l-8-5c-0.4-0.3-0.6-0.9-0.3-1.3c.3-0.5 .9-0.7 1.4-0.4Zm-95.1-175.6v12h-2v-12h2Z" fill="#fff" fill-rule="nonzero"/></g></g><g transform="translate(69.6,256.7) translate(-27.6,-20.7)" style="animation: 5.52s linear infinite both gp9abpmiurtimyo7q3g86wgj_t;"><path d="M43.8 0c6.3 0 11.5 5.1 11.5 11.4v11.6c0 6.3-5.2 11.5-11.5 11.5h-2.4v6c0 .1 0 .3-0.1 .4v.1c-0.4 .5-1 .6-1.4 .3l-10.1-6.8h-18.4c-6.3 0-11.4-5.2-11.4-11.5v-11.6c0-6.3 5.1-11.4 11.4-11.4h32.4Z" fill="#fff" fill-rule="evenodd"/><path d="M0 2v16" stroke="#4780fb" fill="none" stroke-width="4" stroke-linecap="round" transform="translate(17,27) translate(0,-19.9)" style="animation: 1.65s linear infinite both f9ndgq96u9fzhu92qb1e25c3_t;"/><path d="M0 9v9" stroke="#4780fb" fill="none" stroke-width="4" stroke-linecap="round" transform="translate(24,27) scale(1,1.1) translate(0,-19.9)" style="animation: 1.48s linear infinite both a3i5qmbum1zxksyerfzr7jjc_t;"/><path d="M0 5v13" stroke="#4780fb" fill="none" stroke-width="4" stroke-linecap="round" transform="translate(31,27) translate(0,-19.9)" style="animation: 1.67s linear infinite both vgodg1lgngd1ltclggvg1vum_t;"/><path d="M0 14v4" stroke="#4780fb" fill="none" stroke-width="4" stroke-linecap="round" transform="translate(38,27) translate(0,-19.9)" style="animation: 1.32s linear infinite both wpt9y2eh4lurrqyyhe1tvnc7_t;"/><rect width="35" height="19.9" fill="url(#a93acrvotduapb4c7tmgth2b)" transform="translate(10,9.1)"/></g></svg>