<svg xmlns="http://www.w3.org/2000/svg" width="580" height="580" viewBox="0 0 580 580" style="background: rgba(0,83,255,0.00);"><defs><linearGradient id="rdbkfb463ay9zdandjww4q9r" x1="3.4" y1="-5.9" x2="11.4" y2="16.1" gradientUnits="userSpaceOnUse"><stop offset="0" stop-color="#fff"/><stop offset="1" stop-color="#ed4159"/></linearGradient><linearGradient id="qo0r22v5jlasnwqaejzjusdo" x1="59.5" y1="5.5" x2="59.5" y2="51.5" gradientUnits="userSpaceOnUse"><stop offset="0" stop-color="#0056e6"/><stop offset="1" stop-color="#f5f5f7"/></linearGradient><linearGradient id="ypri8bqg5h3w4jbi0ukyfl70" x1="13.5" y1="30" x2="44" y2="30" gradientUnits="userSpaceOnUse"><stop offset="0" stop-color="#fff"/><stop offset="1" stop-color="#fff" stop-opacity="0"/></linearGradient><mask id="Mask-1"><rect x="-4" width="114" height="60" fill="#fff" rx="22"/></mask></defs><style>
@keyframes jpnnswlx1upxfpuh40gt7714_t { 0% { transform: translate(117px,176px); animation-timing-function: cubic-bezier(.4,0,.6,1); } 51.724% { transform: translate(117px,156px); animation-timing-function: cubic-bezier(.4,0,.6,1); } 100% { transform: translate(117px,176px); } }
@keyframes a2_t { 0% { transform: translate(27.6px,16px); animation-timing-function: cubic-bezier(.4,0,.6,1); } 51.724% { transform: translate(27.6px,20px); animation-timing-function: cubic-bezier(.4,0,.6,1); } 100% { transform: translate(27.6px,16px); } }
@keyframes h9t7i26l07xr3q6f3ltydz46_t { 0% { transform: scale(1,1) translate(-10px,-8px); animation-timing-function: cubic-bezier(.4,0,.6,1); } 58.333% { transform: scale(1,1) translate(-10px,-8px); animation-timing-function: cubic-bezier(.4,0,.6,1); } 68.333% { transform: scale(1.2,1.2) translate(-10px,-8px); animation-timing-function: cubic-bezier(.4,0,.6,1); } 78.333% { transform: scale(1,1) translate(-10px,-8px); animation-timing-function: cubic-bezier(.4,0,.6,1); } 90% { transform: scale(1.2,1.2) translate(-10px,-8px); animation-timing-function: cubic-bezier(.4,0,.6,1); } 100% { transform: scale(1,1) translate(-10px,-8px); } }
@keyframes qdlipq8fk1vom44vtr8gzm7t_t { 0% { transform: translate(302px,437px); animation-timing-function: cubic-bezier(.4,0,.6,1); } 56% { transform: translate(302px,437px); animation-timing-function: cubic-bezier(.4,0,.6,1); } 60% { transform: translate(302px,442px); animation-timing-function: cubic-bezier(.4,0,.6,1); } 69% { transform: translate(302px,428px); animation-timing-function: cubic-bezier(.4,0,.6,1); } 77% { transform: translate(302px,439px); animation-timing-function: cubic-bezier(.4,0,.6,1); } 81% { transform: translate(302px,437px); animation-timing-function: cubic-bezier(.4,0,.6,1); } 100% { transform: translate(302px,437px); } }
@keyframes ooivpxzlofc3jyvm5m0cfqhn_t { 0% { transform: translate(2px,2px) scale(1,1); animation-timing-function: cubic-bezier(.4,0,.6,1); } 65% { transform: translate(2px,2px) scale(1,1); animation-timing-function: cubic-bezier(.4,0,.6,1); } 76% { transform: translate(2px,2px) scale(1.4,1.4); animation-timing-function: cubic-bezier(.4,0,.6,1); } 88% { transform: translate(2px,2px) scale(1,1); } 100% { transform: translate(2px,2px) scale(1,1); } }
@keyframes u81r5jtwisvacjqbcdc6fspn_t { 0% { transform: translate(16px,2px) scale(1,1); animation-timing-function: cubic-bezier(.4,0,.6,1); } 71% { transform: translate(16px,2px) scale(1,1); animation-timing-function: cubic-bezier(.4,0,.6,1); } 82% { transform: translate(16px,2px) scale(1.4,1.4); animation-timing-function: cubic-bezier(.4,0,.6,1); } 94% { transform: translate(16px,2px) scale(1,1); } 100% { transform: translate(16px,2px) scale(1,1); } }
@keyframes dzxmor1xm4hnwce6bdn20akb_t { 0% { transform: translate(30px,2px) scale(1,1); animation-timing-function: cubic-bezier(.4,0,.6,1); } 77% { transform: translate(30px,2px) scale(1,1); animation-timing-function: cubic-bezier(.4,0,.6,1); } 88% { transform: translate(30px,2px) scale(1.4,1.4); animation-timing-function: cubic-bezier(.4,0,.6,1); } 100% { transform: translate(30px,2px) scale(1,1); } }
@keyframes hed9joku4km4hc1ps67rlbt7_t { 0% { transform: translate(227px,160px); animation-timing-function: cubic-bezier(.4,0,.6,1); } 54% { transform: translate(227px,160px); animation-timing-function: cubic-bezier(.4,0,.6,1); } 59% { transform: translate(227px,164px); animation-timing-function: cubic-bezier(.4,0,.6,1); } 67% { transform: translate(227px,154px); animation-timing-function: cubic-bezier(.4,0,.6,1); } 73% { transform: translate(227px,160px); animation-timing-function: cubic-bezier(.4,0,.6,1); } 100% { transform: translate(227px,160px); } }
@keyframes ytcfz78uftu158x0zziazqwm_t { 0% { transform: translate(457px,83px); animation-timing-function: cubic-bezier(.4,0,.6,1); } 50.769% { transform: translate(457px,103px); animation-timing-function: cubic-bezier(.4,0,.6,1); } 100% { transform: translate(457px,83px); } }
@keyframes z9ldta059m6ms0n32ddhgqa9_t { 0% { transform: translate(24px,27.5px) scale(.5,.5) translate(-53px,-30px); } 50.769% { transform: translate(24px,19.5px) scale(.5,.5) translate(-53px,-30px); animation-timing-function: cubic-bezier(.4,0,.6,1); } 100% { transform: translate(24px,27.5px) scale(.5,.5) translate(-53px,-30px); } }
@keyframes rltfd5zqdglevmckc426jlm4_t { 0% { transform: translate(.1px,2.2px); } 100% { transform: translate(-160.9px,2.2px); } }
@keyframes omu4atyo631n2tjs91ovlghy_t { 0% { transform: translate(.1px,-0.8px); } 100% { transform: translate(-160.9px,-0.8px); } }
@keyframes lrylbk770zeexn3dbo83ynq3_t { 0% { transform: translate(.1px,-0.8px); } 100% { transform: translate(-160.9px,-0.8px); } }
</style><title>i580_teaser_chat</title><desc>Created with Sketch.</desc><g transform="translate(144.6,196.7) translate(-27.6,-20.7)" style="animation: 5.8s linear infinite both jpnnswlx1upxfpuh40gt7714_t;"><path d="M43.8 0c6.3 0 11.5 5.1 11.5 11.4v11.6c0 6.3-5.2 11.5-11.5 11.5h-2.4v6c0 .1 0 .3-0.1 .4v.1c-0.4 .5-1 .6-1.4 .3l-10.1-6.8h-18.4c-6.3 0-11.4-5.2-11.4-11.5v-11.6c0-6.3 5.1-11.4 11.4-11.4h32.4Z" fill="#fff"/><g style="animation: 5.8s linear infinite both a2_t;"><path d="M13.3 14.9c-1.9 1.6-4.7 1.6-6.6 0c-3.6-3-6.5-5.1-6.7-9.4c-0.2-5.3 6-7.5 9.6-3.2c.2 .3 .6 .3 .8 0c3.5-4.4 9.8-2.1 9.5 3.3c-0.2 4.1-3 6.2-6.6 9.3Z" fill="url(#rdbkfb463ay9zdandjww4q9r)" fill-rule="evenodd" transform="translate(27.6,16) translate(-10,-8)" style="animation: 1s linear infinite both h9t7i26l07xr3q6f3ltydz46_t;"/></g></g><path fill="#003e9c" fill-rule="evenodd" d="M464.1 227h-67.6c-2.9 0-5.2 2.3-5.2 5.2v15.6c0 2.9 2.3 5.2 5.2 5.2h5.2v5.7c-14 2.4-24.7 14.7-24.7 29.4v121.7c0 7.1 4.8 13.3 11.7 15.1c13.9 3.6 27.7 5.2 41.6 4.9c13.6-0.3 26.9-2.1 40-5.2c7-1.7 12-7.9 12-15.2v-121.3c0-14.3-10-26.2-23.4-29.2v-5.9h5.2c2.9 0 5.2-2.3 5.2-5.2v-15.6c0-2.9-2.3-5.2-5.2-5.2Z"/><path d="M414.4 226.9l67.6-0.8c3.4-0.1 6.3 2.7 6.3 6.1c0 0 0 0 0 .1v15.5c0 3.4-2.8 6.2-6.2 6.2h-67.6c-3.4 0-6.2-2.8-6.2-6.2v-14.7c0-3.4 2.7-6.1 6.1-6.2Z" stroke="#fff" stroke-width="2" fill="#4780fb" fill-rule="evenodd"/><path d="M475.9 254h-55.2v5.5l-0.8 .1c-13.7 2.4-23.9 14.4-23.9 28.5v121.7c0 6.6 4.5 12.4 10.9 14.1c13.8 3.6 27.6 5.2 41.4 4.9c13.5-0.3 26.8-2.1 39.8-5.2c6.6-1.5 11.2-7.4 11.2-14.2v-121.3c0-13.6-9.5-25.3-22.6-28.2l-0.8-0.2v-5.7Z" stroke="#fff" stroke-width="2" fill="#4780fb" fill-rule="evenodd"/><path d="M475.9 254h-55.2v5.5l-0.8 .1c-13.7 2.4-23.9 14.4-23.9 28.5v121.7c0 6.6 4.5 12.4 10.9 14.1c13.8 3.6 27.6 5.2 41.4 4.9c13.5-0.3 26.8-2.1 39.8-5.2c6.6-1.5 11.2-7.4 11.2-14.2v-121.3c0-13.6-9.5-25.3-22.6-28.2l-0.8-0.2v-5.7Z" stroke="#fff" stroke-width="2" fill="#4780fb" fill-rule="evenodd"/><path d="M414.2 227.5h17.8c-1 3.7-1.5 7.8-1.5 12.5c0 4.7 .5 9 1.5 13h-17.8c-2.9 0-5.2-2.3-5.2-5.2v-15.1c0-2.9 2.3-5.2 5.2-5.2Z" fill="#729fff" fill-rule="evenodd"/><path d="M436 253v7c-4.7 0-8.8 1.2-12.5 3.5c-5.5 3.5-12.4 14.1-12.5 24.1v.4v124.9v.4c.2 5 2.9 9.4 6.8 12l-9.6-1.2c-7.5-0.9-13.2-7.3-13.2-14.9v-119.2c0-15.6 11.2-28.6 26-31.4v-5.6h15Z" fill="#729fff" fill-rule="evenodd"/><path d="M451.6 323.2c1.7 0 3.1 1.4 3.1 3.1v8.7h8.7c1.7 0 3.1 1.4 3.1 3.1v7.9c0 1.7-1.4 3.1-3.1 3.1h-8.7v8.7c0 1.7-1.4 3.1-3.1 3.1h-7.9c-1.7 0-3.1-1.4-3.1-3.1v-8.7h-8.7c-1.7 0-3.1-1.4-3.1-3.1v-7.9c0-1.7 1.4-3.1 3.1-3.1h8.7v-8.7c0-1.7 1.4-3.1 3.1-3.1h7.9Z" stroke="#fff" stroke-width="2" fill="none"/><path d="M414.4 226.9l67.6-0.8c3.4-0.1 6.3 2.7 6.3 6.1c0 0 0 0 0 .1v15.5c0 3.4-2.8 6.2-6.2 6.2h-67.6c-3.4 0-6.2-2.8-6.2-6.2v-14.7c0-3.4 2.7-6.1 6.1-6.2Z" stroke="#fff" stroke-width="2" fill="none"/><path d="M475.9 254h-55.2v5.5l-0.8 .1c-13.7 2.4-23.9 14.4-23.9 28.5v121.7c0 6.6 4.5 12.4 10.9 14.1c13.8 3.6 27.6 5.2 41.4 4.9c13.5-0.3 26.8-2.1 39.8-5.2c6.6-1.5 11.2-7.4 11.2-14.2v-121.3c0-13.6-9.5-25.3-22.6-28.2l-0.8-0.2v-5.7Z" stroke="#fff" stroke-width="2" fill="none"/><path d="M61 349h192c8.3 0 15 6.7 15 15v69c0 8.3-6.7 15-15 15h-177c-8.3 0-15-6.7-15-15v-84Z" stroke="#fff" stroke-width="2" fill="#4780fb" fill-rule="evenodd"/><path fill="#003e9c" d="M62 311h172v38l-172 18.5Z" fill-rule="evenodd"/><rect x="42" y="310" stroke="#fff" stroke-width="2" fill="#729fff" width="207" height="38" rx="4" fill-rule="evenodd"/><rect x="81" y="422" fill="#fff" width="207" height="2" fill-rule="evenodd"/><rect x="81" y="386" fill="#fff" width="88" height="2" rx="1" fill-rule="evenodd"/><rect x="81" y="404" fill="#fff" width="56" height="2" rx="1" fill-rule="evenodd"/><rect x="223" y="156" stroke="#fff" stroke-width="2" fill="#729fff" width="163" height="329" rx="22" fill-rule="evenodd"/><rect x="227" y="160" fill="#fff" width="155" height="321" rx="18.9" fill-rule="evenodd"/><path d="M253.1 375h52.9c7.2 0 13 5.8 13 13c0 7.2-5.8 13-13 13h-67v-11.9c0-7.8 6.3-14.1 14.1-14.1Z" fill="#ed4159" fill-rule="evenodd"/><path d="M252 341h84c7.2 0 13 5.8 13 13c0 7.2-5.8 13-13 13h-84c-7.2 0-13-5.8-13-13c0-7.2 5.8-13 13-13Z" fill="#ed4159" fill-rule="evenodd"/><g transform="translate(318,439) translate(-16,-2)" style="animation: 1.67s linear infinite both qdlipq8fk1vom44vtr8gzm7t_t;"><ellipse rx="2" ry="2" fill="#4780fb" fill-rule="evenodd" transform="translate(2,2)" style="animation: 1.67s linear infinite both ooivpxzlofc3jyvm5m0cfqhn_t;"/><ellipse rx="2" ry="2" fill="#4780fb" fill-rule="evenodd" transform="translate(16,2)" style="animation: 1.67s linear infinite both u81r5jtwisvacjqbcdc6fspn_t;"/><ellipse rx="2" ry="2" fill="#4780fb" fill-rule="evenodd" transform="translate(30,2)" style="animation: 1.67s linear infinite both dzxmor1xm4hnwce6bdn20akb_t;"/></g><path d="M52 264h78c8.3 0 15 6.7 15 15v15h-93c-8.3 0-15-6.7-15-15c0-8.3 6.7-15 15-15Zm0 2c-7.2 0-13 5.8-13 13c0 7.2 5.8 13 13 13h91v-13c0-7.2-5.8-13-13-13h-78Z" fill="#4780fb" transform="translate(318,439) translate(-91,-279)" style="animation: 1.67s linear infinite both hed9joku4km4hc1ps67rlbt7_t;"/><path d="M266 160h78v5.4c0 4.2-3.4 7.6-7.6 7.6h-62.8c-4.2 0-7.6-3.4-7.6-7.6v-5.4Z" fill="#729fff" fill-rule="evenodd"/><rect x="295" y="166" stroke="#fff" stroke-width="2" width="18.2" height="1" rx=".5" fill="none"/><g transform="translate(480,110.6) translate(-23,-27.6)" style="animation: 6.5s linear infinite both ytcfz78uftu158x0zziazqwm_t;"><path d="M6.4 0c-6.3 0-11.4 5.1-11.4 11.4v25.2c0 6.3 5.1 11.4 11.4 11.4h.6v6.3c0 .1 0 .3 .1 .4l.1 .1c.3 .5 .8 .6 1.3 .4l.1-0.1l10.4-7.1h22.6c6.3 0 11.4-5.1 11.4-11.4v-25.2c0-6.3-5.1-11.4-11.4-11.4h-35.2Z" fill="#fff" fill-rule="evenodd"/><g mask="url(#Mask-1)" transform="translate(24,27.5) scale(.5,.5) translate(-53,-30)" style="animation: 6.5s linear infinite both z9ldta059m6ms0n32ddhgqa9_t;"><path d="M62.7 45.5c.5 1.7 2.6 2 3.6 .6l7.7-11.8h54.5c.8 0 1.5-0.5 1.8-1.1l6.7-7.4l6.7 16.7c.4 1.7 2.6 2 3.6 .6l7.7-8.8h53.5c.8 0 1.5-0.5 1.8-1.1l6.3-12.7l7.1 25c.4 1.7 2.6 2 3.6 .6l7.7-11.8h46v-4h-47.1c-0.7 0-1.3 .3-1.7 .9l-5.9 9l-7.2-25.7c-0.5-1.8-2.9-2-3.7-0.4l-8.1 16.2h-53.4c-0.7 0-1.3 .3-1.7 .9l-5.9 7l-7.2-16.7c-0.5-1.8-2.9-2-3.7-0.4l-8.1 9.2h-54.4c-0.7 0-1.3 .3-1.7 .9l-5.9 9l-7.2-25.7c-0.5-1.8-2.9-2-3.7-0.4l-8.1 16.2h-46.3v4h47.5c.8 0 1.5-0.5 1.8-1.1l6.4-12.7Z" fill="url(#qo0r22v5jlasnwqaejzjusdo)" fill-rule="evenodd" opacity=".4" transform="translate(140.7,32.2) translate(-140.5,-30)" style="animation: 2s linear infinite both rltfd5zqdglevmckc426jlm4_t;"/><path d="M62.7 45.5c.5 1.7 2.6 2 3.6 .6l7.7-11.8h54.5c.8 0 1.5-0.5 1.8-1.1l6.7-7.4l6.7 16.7c.4 1.7 2.6 2 3.6 .6l7.7-8.8h53.5c.8 0 1.5-0.5 1.8-1.1l6.3-12.7l7.1 25c.4 1.7 2.6 2 3.6 .6l7.7-11.8h46v-4h-47.1c-0.7 0-1.3 .3-1.7 .9l-5.9 9l-7.2-25.7c-0.5-1.8-2.9-2-3.7-0.4l-8.1 16.2h-53.4c-0.7 0-1.3 .3-1.7 .9l-5.9 7l-7.2-16.7c-0.5-1.8-2.9-2-3.7-0.4l-8.1 9.2h-54.4c-0.7 0-1.3 .3-1.7 .9l-5.9 9l-7.2-25.7c-0.5-1.8-2.9-2-3.7-0.4l-8.1 16.2h-46.3v4h47.5c.8 0 1.5-0.5 1.8-1.1l6.4-12.7Z" fill="url(#qo0r22v5jlasnwqaejzjusdo)" fill-rule="evenodd" transform="translate(140.7,29.2) translate(-140.5,-30)" style="animation: 2s linear infinite both omu4atyo631n2tjs91ovlghy_t;"/><path d="M66.3 44.3c-1 1.4-3.1 1.1-3.6-0.6l-7-25l-6.4 12.7c-0.3 .6-1 1.1-1.8 1.1h-47.5v1.8h47.5c.8 0 1.5-0.5 1.8-1.1l6.4-12.7l7 25c.5 1.7 2.6 2 3.6 .6l7.7-11.8h54.5c.8 0 1.5-0.5 1.8-1.1l6.7-7.4l6.7 16.7c.4 1.7 2.6 2 3.6 .6l7.7-8.8h53.5c.8 0 1.5-0.5 1.8-1.1l6.3-12.7l7.1 25c.4 1.7 2.6 2 3.6 .6l7.7-11.8h46v-1.8h-46l-7.7 11.8c-1 1.4-3.2 1.1-3.6-0.6l-7.1-25l-6.3 12.7c-0.3 .6-1 1.1-1.8 1.1h-53.5l-7.7 8.8c-1 1.4-3.2 1.1-3.6-0.6l-6.7-16.8l-6.7 7.5c-0.3 .6-1 1.1-1.8 1.1h-54.5Z" fill="#0056e6" fill-rule="evenodd" opacity=".2" transform="translate(140.7,29.2) translate(-140.5,-30)" style="animation: 2s linear infinite both lrylbk770zeexn3dbo83ynq3_t;"/><path fill="url(#ypri8bqg5h3w4jbi0ukyfl70)" d="M-1 0h45v60h-45Z" transform="translate(-4,0)"/><path fill="url(#ypri8bqg5h3w4jbi0ukyfl70)" d="M-1 0h45v60h-45Z" transform="translate(95.5,30) rotate(180) translate(-14.5,-30)"/></g></g></svg>