<svg xmlns="http://www.w3.org/2000/svg" width="580" height="580" viewBox="0 0 580 580" style="background: rgba(0,84,255,0.00);"><defs><linearGradient id="d9ws59d1zb2916sj56rz942d" x1="3.4" y1="-5.9" x2="11.4" y2="16.1" gradientUnits="userSpaceOnUse"><stop offset="0" stop-color="#fff"/><stop offset="1" stop-color="#ed4159"/></linearGradient><linearGradient id="r6kjaga0dk3qlkq5znlwd28k" x1="8.2" y1="9.8" x2="44.5" y2="7.8" gradientUnits="userSpaceOnUse"><stop offset="0" stop-color="#0056e6" stop-opacity="0"/><stop offset=".6" stop-color="#0056e6" stop-opacity=".1"/><stop offset="1" stop-color="#0056e6" stop-opacity="0"/></linearGradient><linearGradient id="nm2g4zs4peaza5iyxnjihjyj" x1="9.9" y1="11.1" x2="43" y2="9.1" gradientUnits="userSpaceOnUse"><stop offset="0" stop-color="#0056e6" stop-opacity="0"/><stop offset=".6" stop-color="#0056e6" stop-opacity=".12"/><stop offset="1" stop-color="#0056e6" stop-opacity="0"/></linearGradient><linearGradient id="iz8bhpzcwlx4bti5yv5raneb" x1="13.6" y1="10.3" x2="35.7" y2="11.1" gradientUnits="userSpaceOnUse"><stop offset="0" stop-color="#0056e6" stop-opacity="0"/><stop offset=".6" stop-color="#0056e6" stop-opacity=".15"/><stop offset="1" stop-color="#0056e6" stop-opacity="0"/></linearGradient><linearGradient id="gxmtibz70yyqy7hs2y2efyzm" x1=".8" y1=".8" x2=".5" y2=".2"><stop offset="0" stop-color="#0056e6"/><stop offset="1" stop-color="#f5f5f7"/></linearGradient><linearGradient id="uyjn3dwvtca7lde1i7peum3c" x1="31.5" y1="46.2" x2="14.8" y2=".5" gradientUnits="userSpaceOnUse"><stop offset="0" stop-color="#0056e6"/><stop offset="1" stop-color="#fff"/></linearGradient></defs><style>
@keyframes ewx8dqn9vjwzyhp7n2t6s81v_t { 0% { transform: translate(72.6px,59.4px); } 100% { transform: translate(-67.4px,59.4px); } }
@keyframes wc5726hhuku5g1u685tm9bpk_t { 0% { transform: translate(87.1px,60.1px); } 100% { transform: translate(-62.9px,60.1px); } }
@keyframes xw0zhd0lumh22b8qv1i368t7_t { 0% { transform: translate(67px,23px) scale(1,1) translateY(-18px); animation-timing-function: cubic-bezier(.4,0,.6,1); } 38.182% { transform: translate(67px,23px) scale(1,1.3) translateY(-18px); animation-timing-function: cubic-bezier(.4,0,.6,1); } 100% { transform: translate(67px,23px) scale(1,1) translateY(-18px); } }
@keyframes fd9gbx585m89ll8xwgy5tn4m_t { 0% { transform: translate(63px,23px) scale(1,1) translateY(-18px); animation-timing-function: cubic-bezier(.4,0,.6,1); } 64.706% { transform: translate(63px,23px) scale(1,.6) translateY(-18px); animation-timing-function: cubic-bezier(.4,0,.6,1); } 100% { transform: translate(63px,23px) scale(1,1) translateY(-18px); } }
@keyframes t59onmaompg0e72atvm8gbjt_t { 0% { transform: translate(59px,23px) scale(1,1) translateY(-18px); animation-timing-function: cubic-bezier(.4,0,.6,1); } 46.667% { transform: translate(59px,23px) scale(1,1.4) translateY(-18px); animation-timing-function: cubic-bezier(.4,0,.6,1); } 100% { transform: translate(59px,23px) scale(1,1) translateY(-18px); } }
@keyframes ynn1bd7qfkpfop4ivj6yp8cy_t { 0% { transform: translate(55px,23px) scale(1,1) translateY(-18px); animation-timing-function: cubic-bezier(.4,0,.6,1); } 53.333% { transform: translate(55px,23px) scale(1,1.4) translateY(-18px); animation-timing-function: cubic-bezier(.4,0,.6,1); } 100% { transform: translate(55px,23px) scale(1,1) translateY(-18px); } }
@keyframes t8m4v28m4pptdsrzdey93x63_t { 0% { transform: translate(39px,23px) scale(1,1) translateY(-18px); animation-timing-function: cubic-bezier(.4,0,.6,1); } 54.717% { transform: translate(39px,23px) scale(1,1.4) translateY(-18px); animation-timing-function: cubic-bezier(.4,0,.6,1); } 100% { transform: translate(39px,23px) scale(1,1) translateY(-18px); } }
@keyframes hp47a9dm6h7ha2vhoyfw6rly_t { 0% { transform: translate(47px,23px) scale(1,1) translateY(-18px); animation-timing-function: cubic-bezier(.4,0,.6,1); } 54.545% { transform: translate(47px,23px) scale(1,.6) translateY(-18px); animation-timing-function: cubic-bezier(.4,0,.6,1); } 100% { transform: translate(47px,23px) scale(1,1) translateY(-18px); } }
@keyframes w5g4xwncbbws9ldu3phkmqe4_t { 0% { transform: translate(51px,23px) scale(1,1) translateY(-18px); animation-timing-function: cubic-bezier(.4,0,.6,1); } 57.895% { transform: translate(51px,23px) scale(1,1.4) translateY(-18px); animation-timing-function: cubic-bezier(.4,0,.6,1); } 100% { transform: translate(51px,23px) scale(1,1) translateY(-18px); } }
@keyframes vfd0ayf5dxm7wmrg47ftr583_t { 0% { transform: translate(43px,23px) scale(1,1) translateY(-18px); animation-timing-function: cubic-bezier(.4,0,.6,1); } 32.609% { transform: translate(43px,23px) scale(1,1.4) translateY(-18px); animation-timing-function: cubic-bezier(.4,0,.6,1); } 100% { transform: translate(43px,23px) scale(1,1) translateY(-18px); } }
@keyframes e0jatx3y7derp7dbfkdcz8z8_t { 0% { transform: translate(7px,23px) scale(1,1) translateY(-18px); animation-timing-function: cubic-bezier(.4,0,.6,1); } 55.769% { transform: translate(7px,23px) scale(1,.6) translateY(-18px); animation-timing-function: cubic-bezier(.4,0,.6,1); } 100% { transform: translate(7px,23px) scale(1,1) translateY(-18px); } }
@keyframes pmdc1h1jm1w06z1ceomv27vp_t { 0% { transform: translate(11px,23px) scale(1,1) translateY(-18px); animation-timing-function: cubic-bezier(.4,0,.6,1); } 66.038% { transform: translate(11px,23px) scale(1,1.4) translateY(-18px); animation-timing-function: cubic-bezier(.4,0,.6,1); } 100% { transform: translate(11px,23px) scale(1,1) translateY(-18px); } }
@keyframes mtb206ctcw1dhs1i85d22lcp_t { 0% { transform: translate(3px,23px) scale(1,1) translateY(-18px); animation-timing-function: cubic-bezier(.4,0,.6,1); } 62.5% { transform: translate(3px,23px) scale(1,1.4) translateY(-18px); animation-timing-function: cubic-bezier(.4,0,.6,1); } 100% { transform: translate(3px,23px) scale(1,1) translateY(-18px); } }
@keyframes zjyacn7e78ychp2rl2np3t7k_t { 0% { transform: translate(35px,23px) scale(1,1) translateY(-18px); animation-timing-function: cubic-bezier(.4,0,.6,1); } 53.333% { transform: translate(35px,23px) scale(1,1.4) translateY(-18px); animation-timing-function: cubic-bezier(.4,0,.6,1); } 100% { transform: translate(35px,23px) scale(1,1) translateY(-18px); } }
@keyframes jfrkdxnp5sxuich9d4queoa2_t { 0% { transform: translateY(23px) scale(1,1) translateY(-18px); animation-timing-function: cubic-bezier(.4,0,.6,1); } 44.231% { transform: translateY(23px) scale(1,1.4) translateY(-18px); animation-timing-function: cubic-bezier(.4,0,.6,1); } 100% { transform: translateY(23px) scale(1,1) translateY(-18px); } }
@keyframes uxc1vsnsy405isyppx36suqq_t { 0% { transform: translate(31px,23px) scale(1,1) translateY(-18px); animation-timing-function: cubic-bezier(.4,0,.6,1); } 42.553% { transform: translate(31px,23px) scale(1,1.4) translateY(-18px); animation-timing-function: cubic-bezier(.4,0,.6,1); } 100% { transform: translate(31px,23px) scale(1,1) translateY(-18px); } }
@keyframes b9o6yufpc34pad0qu69jg09b_t { 0% { transform: translate(15px,23px) scale(1,1) translateY(-18px); animation-timing-function: cubic-bezier(.4,0,.6,1); } 61.111% { transform: translate(15px,23px) scale(1,1.4) translateY(-18px); animation-timing-function: cubic-bezier(.4,0,.6,1); } 100% { transform: translate(15px,23px) scale(1,1) translateY(-18px); } }
@keyframes vfw6uxf1qxi2x50fep4nsgoi_t { 0% { transform: translate(23px,23px) scale(1,1) translateY(-18px); animation-timing-function: cubic-bezier(.4,0,.6,1); } 54% { transform: translate(23px,23px) scale(1,.6) translateY(-18px); animation-timing-function: cubic-bezier(.4,0,.6,1); } 100% { transform: translate(23px,23px) scale(1,1) translateY(-18px); } }
@keyframes hinwco7w88z60y6fcoq0q8z8_t { 0% { transform: translate(27px,23px) scale(1,1) translateY(-18px); animation-timing-function: cubic-bezier(.4,0,.6,1); } 55% { transform: translate(27px,23px) scale(1,1.4) translateY(-18px); animation-timing-function: cubic-bezier(.4,0,.6,1); } 100% { transform: translate(27px,23px) scale(1,1) translateY(-18px); } }
@keyframes xglwjm3qlijzc7xs8nchniad_t { 0% { transform: translate(19px,23px) scale(1,1) translateY(-18px); animation-timing-function: cubic-bezier(.4,0,.6,1); } 46.875% { transform: translate(19px,23px) scale(1,1.4) translateY(-18px); animation-timing-function: cubic-bezier(.4,0,.6,1); } 100% { transform: translate(19px,23px) scale(1,1) translateY(-18px); } }
@keyframes y5gm9ow7xum3mmbni9j025mc_t { 0% { transform: translate(63px,23px) scale(1,1) translateY(-18px); animation-timing-function: cubic-bezier(.4,0,.6,1); } 31.481% { transform: translate(63px,23px) scale(1,.6) translateY(-18px); animation-timing-function: cubic-bezier(.4,0,.6,1); } 100% { transform: translate(63px,23px) scale(1,1) translateY(-18px); } }
@keyframes rlzm46mt9iwzu0fb4r2o4p2j_t { 0% { transform: translate(59px,23px) scale(1,1) translateY(-18px); animation-timing-function: cubic-bezier(.4,0,.6,1); } 50.769% { transform: translate(59px,23px) scale(1,1.4) translateY(-18px); animation-timing-function: cubic-bezier(.4,0,.6,1); } 100% { transform: translate(59px,23px) scale(1,1) translateY(-18px); } }
@keyframes bq3usmntzek7de7q4dxb0ib9_t { 0% { transform: translate(55px,23px) scale(1,1) translateY(-18px); animation-timing-function: cubic-bezier(.4,0,.6,1); } 48.98% { transform: translate(55px,23px) scale(1,1.4) translateY(-18px); animation-timing-function: cubic-bezier(.4,0,.6,1); } 100% { transform: translate(55px,23px) scale(1,1) translateY(-18px); } }
@keyframes t26i11xjm3ywsklum0cnetwh_t { 0% { transform: translate(39px,23px) scale(1,1) translateY(-18px); animation-timing-function: cubic-bezier(.4,0,.6,1); } 54.545% { transform: translate(39px,23px) scale(1,1.4) translateY(-18px); animation-timing-function: cubic-bezier(.4,0,.6,1); } 100% { transform: translate(39px,23px) scale(1,1) translateY(-18px); } }
@keyframes tfukkxg7rr4pjatwzslokns1_t { 0% { transform: translate(47px,23px) scale(1,1) translateY(-18px); animation-timing-function: cubic-bezier(.4,0,.6,1); } 52.857% { transform: translate(47px,23px) scale(1,.6) translateY(-18px); animation-timing-function: cubic-bezier(.4,0,.6,1); } 100% { transform: translate(47px,23px) scale(1,1) translateY(-18px); } }
@keyframes r93eio1wshmpps6ghoh9877o_t { 0% { transform: translate(51px,23px) scale(1,1) translateY(-18px); animation-timing-function: cubic-bezier(.4,0,.6,1); } 48% { transform: translate(51px,23px) scale(1,1.4) translateY(-18px); animation-timing-function: cubic-bezier(.4,0,.6,1); } 100% { transform: translate(51px,23px) scale(1,1) translateY(-18px); } }
@keyframes v6k41u217cpds4axmw5ct8d2_t { 0% { transform: translate(43px,23px) scale(1,1) translateY(-18px); animation-timing-function: cubic-bezier(.4,0,.6,1); } 47.826% { transform: translate(43px,23px) scale(1,1.4) translateY(-18px); animation-timing-function: cubic-bezier(.4,0,.6,1); } 100% { transform: translate(43px,23px) scale(1,1) translateY(-18px); } }
@keyframes cu97spc8w6o32ovyfk1y0ojt_t { 0% { transform: translate(7px,23px) scale(1,1) translateY(-18px); animation-timing-function: cubic-bezier(.4,0,.6,1); } 46.939% { transform: translate(7px,23px) scale(1,.6) translateY(-18px); animation-timing-function: cubic-bezier(.4,0,.6,1); } 100% { transform: translate(7px,23px) scale(1,1) translateY(-18px); } }
@keyframes nae6d0sexh44fmks35dw0kgs_t { 0% { transform: translate(11px,23px) scale(1,1) translateY(-18px); animation-timing-function: cubic-bezier(.4,0,.6,1); } 38.636% { transform: translate(11px,23px) scale(1,1.4) translateY(-18px); animation-timing-function: cubic-bezier(.4,0,.6,1); } 100% { transform: translate(11px,23px) scale(1,1) translateY(-18px); } }
@keyframes ow9nag7dgwfp17qzzkanfvuc_t { 0% { transform: translate(3px,23px) scale(1,1) translateY(-18px); animation-timing-function: cubic-bezier(.4,0,.6,1); } 62.162% { transform: translate(3px,23px) scale(1,1.4) translateY(-18px); animation-timing-function: cubic-bezier(.4,0,.6,1); } 100% { transform: translate(3px,23px) scale(1,1) translateY(-18px); } }
@keyframes r8nqs94pdl76r410iydznzq3_t { 0% { transform: translate(35px,23px) scale(1,1) translateY(-18px); animation-timing-function: cubic-bezier(.4,0,.6,1); } 45.652% { transform: translate(35px,23px) scale(1,1.4) translateY(-18px); animation-timing-function: cubic-bezier(.4,0,.6,1); } 100% { transform: translate(35px,23px) scale(1,1) translateY(-18px); } }
@keyframes ye3xe0lk80yphrlu6q1lms3t_t { 0% { transform: translateY(23px) scale(1,1) translateY(-18px); animation-timing-function: cubic-bezier(.4,0,.6,1); } 51.852% { transform: translateY(23px) scale(1,1.4) translateY(-18px); animation-timing-function: cubic-bezier(.4,0,.6,1); } 100% { transform: translateY(23px) scale(1,1) translateY(-18px); } }
@keyframes nfkyezdo3pqhvjwym6rymqdz_t { 0% { transform: translate(31px,23px) scale(1,1) translateY(-18px); animation-timing-function: cubic-bezier(.4,0,.6,1); } 57.143% { transform: translate(31px,23px) scale(1,1.4) translateY(-18px); animation-timing-function: cubic-bezier(.4,0,.6,1); } 100% { transform: translate(31px,23px) scale(1,1) translateY(-18px); } }
@keyframes qe4en3oas4wr3m8zzo4i1d0o_t { 0% { transform: translate(15px,23px) scale(1,1) translateY(-18px); animation-timing-function: cubic-bezier(.4,0,.6,1); } 44% { transform: translate(15px,23px) scale(1,1.4) translateY(-18px); animation-timing-function: cubic-bezier(.4,0,.6,1); } 100% { transform: translate(15px,23px) scale(1,1) translateY(-18px); } }
@keyframes kqtplorrvf00bfkqva56ahcd_t { 0% { transform: translate(23px,23px) scale(1,1) translateY(-18px); animation-timing-function: cubic-bezier(.4,0,.6,1); } 43.902% { transform: translate(23px,23px) scale(1,.6) translateY(-18px); animation-timing-function: cubic-bezier(.4,0,.6,1); } 100% { transform: translate(23px,23px) scale(1,1) translateY(-18px); } }
@keyframes czxmtf25gjm799yvo1aubusm_t { 0% { transform: translate(27px,23px) scale(1,1) translateY(-18px); animation-timing-function: cubic-bezier(.4,0,.6,1); } 56.522% { transform: translate(27px,23px) scale(1,1.4) translateY(-18px); animation-timing-function: cubic-bezier(.4,0,.6,1); } 100% { transform: translate(27px,23px) scale(1,1) translateY(-18px); } }
@keyframes g9b4sulckztdo4vqsitp1fm1_t { 0% { transform: translate(19px,23px) scale(1,1) translateY(-18px); animation-timing-function: cubic-bezier(.4,0,.6,1); } 52.857% { transform: translate(19px,23px) scale(1,1.4) translateY(-18px); animation-timing-function: cubic-bezier(.4,0,.6,1); } 100% { transform: translate(19px,23px) scale(1,1) translateY(-18px); } }
@keyframes btjgdbhltqfyyalais8emjb2_t { 0% { transform: translate(121.1px,230px); animation-timing-function: cubic-bezier(.4,0,.6,1); } 51.724% { transform: translate(121.1px,210px); animation-timing-function: cubic-bezier(.4,0,.6,1); } 100% { transform: translate(121.1px,230px); } }
@keyframes a39_t { 0% { transform: translate(27.6px,16px); animation-timing-function: cubic-bezier(.4,0,.6,1); } 51.724% { transform: translate(27.6px,20px); animation-timing-function: cubic-bezier(.4,0,.6,1); } 100% { transform: translate(27.6px,16px); } }
@keyframes ufa6zr04dlv761v9e3uw4caf_t { 0% { transform: scale(1,1) translate(-10px,-8px); animation-timing-function: cubic-bezier(.4,0,.6,1); } 58.333% { transform: scale(1,1) translate(-10px,-8px); animation-timing-function: cubic-bezier(.4,0,.6,1); } 68.333% { transform: scale(1.2,1.2) translate(-10px,-8px); animation-timing-function: cubic-bezier(.4,0,.6,1); } 78.333% { transform: scale(1,1) translate(-10px,-8px); animation-timing-function: cubic-bezier(.4,0,.6,1); } 90% { transform: scale(1.2,1.2) translate(-10px,-8px); animation-timing-function: cubic-bezier(.4,0,.6,1); } 100% { transform: scale(1,1) translate(-10px,-8px); } }
@keyframes uf1nujyhwi524z7kvxzuhv4o_t { 0% { transform: translate(474px,65px); animation-timing-function: cubic-bezier(.4,0,.6,1); } 50% { transform: translate(474px,55px); animation-timing-function: cubic-bezier(.4,0,.6,1); } 100% { transform: translate(474px,65px); } }
@keyframes cqca2fmgk1eylkk7e1s39ga5_o { 0% { opacity: 1; animation-timing-function: cubic-bezier(.4,0,.6,1); } 50% { opacity: .3; animation-timing-function: cubic-bezier(.4,0,.6,1); } 100% { opacity: 1; } }
@keyframes wkcs0zawoi4tgl137ly2m2sm_t { 0% { transform: translate(7px,13px); animation-timing-function: cubic-bezier(.4,0,.6,1); } 50% { transform: translate(7px,9px); animation-timing-function: cubic-bezier(.4,0,.6,1); } 100% { transform: translate(7px,13px); } }
</style><title>i580_teaser_analysis</title><desc>Created with Sketch.</desc><ellipse cx="383" cy="168" stroke="#fff" stroke-width="1.5" rx="3" ry="3" fill="none"/><path d="M161 161h443c10.5 0 19 8.5 19 19v259h-481v-259c0-10.5 8.5-19 19-19Z" stroke="#fff" stroke-width="2" fill="none"/><g transform="translate(155,175)"><rect x="125" y="36" width="209.4" height="188" fill="#fff" rx="1"/><path d="M84.2 60.3v34.3c5.6 0 11.8 3.4 17.9 6.8c6 3.3 11.9 6.6 17.2 6.6c4.3 0 8.5-5.7 13-11.8c1.6-2.1 3.2-4.2 4.9-6.2c6.6-7.8 14.5-3 20 .3c.6 .4 1.3 .8 1.8 1.2c12.4 7.1 23.8 13.6 32.4 13.6c3.8 0 8.8-2.3 14.1-4.7c6.1-2.8 12.8-5.8 18.7-5.8c5.6 0 11.8 3.4 17.9 6.8c6 3.3 11.9 6.6 17.2 6.6c4.3 0 8.5-5.7 13-11.8c1.6-2.1 3.2-4.2 4.9-6.2c6.6-7.8 14.5-3 20 .3c.6 .4 1.3 .8 1.8 1.2c12.4 7.1 23.8 13.6 32.4 13.6c3.8 0 8.8-2.3 14.1-4.7c6.1-2.8 12.8-5.8 18.7-5.8v-34.3c-7.1-1-13.9-7.3-19.9-12.8c-4.9-4.7-9.5-7.1-12.9-8.7c-8.8-4.3-16.1 1.6-24.3 8.2c-3.1 2.5-6.3 5.1-9.8 7.3c-1.2 .8-2.5 1.9-3.9 3c-5.5 4.4-12 9.7-18.2 1.7c-2-2.6-3.8-5.6-5.5-8.4c-3.5-5.8-6.6-10.9-10.4-10.9c-4.6 0-9.1 4.4-13.9 9.1c-5.6 5.6-11.7 11.7-19.2 11.7c-0.7 0-1.4-0.1-2-0.2c-7.1-1-13.9-7.3-19.9-12.8c-4.9-4.7-9.5-7.1-12.9-8.7c-8.8-4.3-16.1 1.6-24.3 8.2c-3.1 2.5-6.3 5.1-9.8 7.3c-1.2 .8-2.5 1.9-3.9 3c-5.5 4.4-12 9.7-18.2 1.7c-2-2.6-3.8-5.6-5.5-8.4c-3.5-5.8-6.6-10.9-10.4-10.9c-4.6 0-9.1 4.4-13.9 9.1c-5.6 5.6-11.7 11.7-19.2 11.7c-0.7 0-1.4-0.1-2-0.2Z" fill="#4780fb" opacity=".1" fill-rule="evenodd" transform="translate(336.7,132) translate(-264.2,-72.6)" style="animation: 5.15s linear infinite both ewx8dqn9vjwzyhp7n2t6s81v_t;"/><path d="M62.9 66.1v18.9c6.9 0 14.9 4.2 22 8c5.8 3 11 5.8 14.7 5.8c11 0 16.9-5.5 23.4-11.5c.8-0.7 1.6-1.6 2.4-2.5c4.6-5.1 11.2-12.5 21.9-5.1c9.2 6.5 20.5 11.8 29.8 11.8c8.4 0 14.6-1.8 20.4-3.5c5-1.4 9.7-2.8 15.4-3c6.9 0 14.9 4.2 22 8c5.8 3 11 5.8 14.7 5.8c11 0 16.9-5.5 23.4-11.5c.8-0.7 1.6-1.6 2.4-2.5c4.6-5.1 11.2-12.5 21.9-5.1c9.2 6.5 20.5 11.8 29.8 11.8c8.4 0 14.6-1.8 20.4-3.5c5-1.4 9.7-2.8 15.4-3v-18.9c-8.4 0-12.7-2.7-16.9-5.4l-0.3-0.2c-4.2-2.7-8.5-5.4-17.1-5.3c-12.3 .1-19.8 5.8-25.9 10.4c-9.4 7.1-15.5 11.8-31-10.1c-5.9-5.6-11.1-10.6-19.9-10.6c-3.8 0-9.3 4.2-15.4 8.9c-7.6 5.8-16.1 12.3-23.5 12.3c-8.4 0-12.7-2.7-16.9-5.4l-0.3-0.2c-4.2-2.7-8.5-5.4-17.1-5.3c-12.3 .1-19.8 5.8-25.9 10.4c-9.4 7.1-15.5 11.8-31-10.1c-5.9-5.6-11.1-10.6-19.9-10.6c-3.8 0-9.3 4.2-15.4 8.9c-7.6 5.8-16.1 12.3-23.5 12.3Z" fill="#729fff" opacity=".15" fill-rule="evenodd" transform="translate(300,132) translate(-212.9,-71.9)" style="animation: 9.02s linear infinite both wc5726hhuku5g1u685tm9bpk_t;"/><g transform="translate(161,110)"><path d="M0-0.3v36.6" fill="none" stroke="#ed4159" stroke-linecap="square" stroke-width="2" transform="translate(67,23) translate(0,-18)" style="animation: .92s linear infinite both xw0zhd0lumh22b8qv1i368t7_t;"/><path d="M0 0v36" fill="none" stroke="#ed4159" stroke-linecap="square" stroke-width="2" transform="translate(63,23) translate(0,-18)" style="animation: .85s linear infinite both fd9gbx585m89ll8xwgy5tn4m_t;"/><path d="M0 4.4v27.2" fill="none" stroke="#ed4159" stroke-linecap="square" stroke-width="2" transform="translate(59,23) translate(0,-18)" style="animation: .75s linear infinite both t59onmaompg0e72atvm8gbjt_t;"/><path d="M0 7v22" fill="none" stroke="#ed4159" stroke-linecap="square" stroke-width="2" transform="translate(55,23) translate(0,-18)" style="animation: .75s linear infinite both ynn1bd7qfkpfop4ivj6yp8cy_t;"/><path d="M0 12.7v10.6" fill="none" stroke="#ed4159" stroke-linecap="square" stroke-width="2" transform="translate(39,23) translate(0,-18)" style="animation: .88s linear infinite both t8m4v28m4pptdsrzdey93x63_t;"/><path d="M0 3v30" fill="none" stroke="#ed4159" stroke-linecap="square" stroke-width="2" transform="translate(47,23) translate(0,-18)" style="animation: 1.1s linear infinite both hp47a9dm6h7ha2vhoyfw6rly_t;"/><path d="M0 14v8" fill="none" stroke="#ed4159" stroke-linecap="square" stroke-width="2" transform="translate(51,23) translate(0,-18)" style="animation: .63s linear infinite both w5g4xwncbbws9ldu3phkmqe4_t;"/><path d="M0 7.4v21.2" fill="none" stroke="#ed4159" stroke-linecap="square" stroke-width="2" transform="translate(43,23) translate(0,-18)" style="animation: .77s linear infinite both vfd0ayf5dxm7wmrg47ftr583_t;"/><path d="M0 3v30" fill="none" stroke="#ed4159" stroke-linecap="square" stroke-width="2" transform="translate(7,23) translate(0,-18)" style="animation: .87s linear infinite both e0jatx3y7derp7dbfkdcz8z8_t;"/><path d="M0 14v8" fill="none" stroke="#ed4159" stroke-linecap="square" stroke-width="2" transform="translate(11,23) translate(0,-18)" style="animation: .88s linear infinite both pmdc1h1jm1w06z1ceomv27vp_t;"/><path d="M0 7.4v21.2" fill="none" stroke="#ed4159" stroke-linecap="square" stroke-width="2" transform="translate(3,23) translate(0,-18)" style="animation: .8s linear infinite both mtb206ctcw1dhs1i85d22lcp_t;"/><path d="M0 15.4v6.1" fill="none" stroke="#ed4159" stroke-linecap="square" stroke-width="2" transform="translate(35,23) translate(0,-18)" style="animation: 1s linear infinite both zjyacn7e78ychp2rl2np3t7k_t;"/><path d="M0 15.4v6.1" fill="none" stroke="#ed4159" stroke-linecap="square" stroke-width="2" transform="translate(0,23) translate(0,-18)" style="animation: .87s linear infinite both jfrkdxnp5sxuich9d4queoa2_t;"/><path d="M0 11.7v12.6" fill="none" stroke="#ed4159" stroke-linecap="square" stroke-width="2" transform="translate(31,23) translate(0,-18)" style="animation: .78s linear infinite both uxc1vsnsy405isyppx36suqq_t;"/><path d="M0 12.7v10.6" fill="none" stroke="#ed4159" stroke-linecap="square" stroke-width="2" transform="translate(15,23) translate(0,-18)" style="animation: .9s linear infinite both b9o6yufpc34pad0qu69jg09b_t;"/><path d="M0 13.4v9.2" fill="none" stroke="#ed4159" stroke-linecap="square" stroke-width="2" transform="translate(23,23) translate(0,-18)" style="animation: .83s linear infinite both vfw6uxf1qxi2x50fep4nsgoi_t;"/><path d="M0 9.3v17.4" fill="none" stroke="#ed4159" stroke-linecap="square" stroke-width="2" transform="translate(27,23) translate(0,-18)" style="animation: .67s linear infinite both hinwco7w88z60y6fcoq0q8z8_t;"/><path d="M0 3.3v28.6" fill="none" stroke="#ed4159" stroke-linecap="square" stroke-width="2" transform="translate(19,23) translate(0,-18)" style="animation: 1.07s linear infinite both xglwjm3qlijzc7xs8nchniad_t;"/></g><g transform="translate(261.5,133) scale(-1,1) translate(-33.5,-23)"><path d="M0 0v36" fill="none" stroke="#ed4159" stroke-linecap="square" stroke-width="2" transform="translate(63,23) translate(0,-18)" style="animation: .9s linear infinite both y5gm9ow7xum3mmbni9j025mc_t;"/><path d="M0 4.4v27.2" fill="none" stroke="#ed4159" stroke-linecap="square" stroke-width="2" transform="translate(59,23) translate(0,-18)" style="animation: 1.08s linear infinite both rlzm46mt9iwzu0fb4r2o4p2j_t;"/><path d="M0 7v22" fill="none" stroke="#ed4159" stroke-linecap="square" stroke-width="2" transform="translate(55,23) translate(0,-18)" style="animation: .82s linear infinite both bq3usmntzek7de7q4dxb0ib9_t;"/><path d="M0 12.7v10.6" fill="none" stroke="#ed4159" stroke-linecap="square" stroke-width="2" transform="translate(39,23) translate(0,-18)" style="animation: .92s linear infinite both t26i11xjm3ywsklum0cnetwh_t;"/><path d="M0 3v30" fill="none" stroke="#ed4159" stroke-linecap="square" stroke-width="2" transform="translate(47,23) translate(0,-18)" style="animation: 1.17s linear infinite both tfukkxg7rr4pjatwzslokns1_t;"/><path d="M0 14v8" fill="none" stroke="#ed4159" stroke-linecap="square" stroke-width="2" transform="translate(51,23) translate(0,-18)" style="animation: .83s linear infinite both r93eio1wshmpps6ghoh9877o_t;"/><path d="M0 7.4v21.2" fill="none" stroke="#ed4159" stroke-linecap="square" stroke-width="2" transform="translate(43,23) translate(0,-18)" style="animation: 1.15s linear infinite both v6k41u217cpds4axmw5ct8d2_t;"/><path d="M0 3v30" fill="none" stroke="#ed4159" stroke-linecap="square" stroke-width="2" transform="translate(7,23) translate(0,-18)" style="animation: .82s linear infinite both cu97spc8w6o32ovyfk1y0ojt_t;"/><path d="M0 14v8" fill="none" stroke="#ed4159" stroke-linecap="square" stroke-width="2" transform="translate(11,23) translate(0,-18)" style="animation: .73s linear infinite both nae6d0sexh44fmks35dw0kgs_t;"/><path d="M0 7.4v21.2" fill="none" stroke="#ed4159" stroke-linecap="square" stroke-width="2" transform="translate(3,23) translate(0,-18)" style="animation: 1.23s linear infinite both ow9nag7dgwfp17qzzkanfvuc_t;"/><path d="M0 15.4v6.1" fill="none" stroke="#ed4159" stroke-linecap="square" stroke-width="2" transform="translate(35,23) translate(0,-18)" style="animation: .77s linear infinite both r8nqs94pdl76r410iydznzq3_t;"/><path d="M0 15.4v6.1" fill="none" stroke="#ed4159" stroke-linecap="square" stroke-width="2" transform="translate(0,23) translate(0,-18)" style="animation: 1.35s linear infinite both ye3xe0lk80yphrlu6q1lms3t_t;"/><path d="M0 11.7v12.6" fill="none" stroke="#ed4159" stroke-linecap="square" stroke-width="2" transform="translate(31,23) translate(0,-18)" style="animation: 1.17s linear infinite both nfkyezdo3pqhvjwym6rymqdz_t;"/><path d="M0 12.7v10.6" fill="none" stroke="#ed4159" stroke-linecap="square" stroke-width="2" transform="translate(15,23) translate(0,-18)" style="animation: .83s linear infinite both qe4en3oas4wr3m8zzo4i1d0o_t;"/><path d="M0 13.4v9.2" fill="none" stroke="#ed4159" stroke-linecap="square" stroke-width="2" transform="translate(23,23) translate(0,-18)" style="animation: .68s linear infinite both kqtplorrvf00bfkqva56ahcd_t;"/><path d="M0 9.3v17.4" fill="none" stroke="#ed4159" stroke-linecap="square" stroke-width="2" transform="translate(27,23) translate(0,-18)" style="animation: .77s linear infinite both czxmtf25gjm799yvo1aubusm_t;"/><path d="M0 3.3v28.6" fill="none" stroke="#ed4159" stroke-linecap="square" stroke-width="2" transform="translate(19,23) translate(0,-18)" style="animation: 1.17s linear infinite both g9b4sulckztdo4vqsitp1fm1_t;"/></g><path d="M448 0h-441c-3.9 0-7 3.1-7 7v257h455v-257c0-3.9-3.1-7-7-7Zm-220.3 200.5c37.4 0 67.8-30.4 67.8-67.8c0-37.4-30.4-67.7-67.8-67.7c-37.4 0-67.7 30.3-67.7 67.7c0 37.4 30.3 67.8 67.7 67.8Z" stroke="#fff" stroke-width="2" fill="#729fff" stroke-linejoin="round" fill-rule="evenodd"/></g><g transform="translate(148.8,250.8) translate(-27.6,-20.7)" style="animation: 5.8s linear infinite both btjgdbhltqfyyalais8emjb2_t;"><path d="M43.8 0c6.3 0 11.5 5.1 11.5 11.4v11.6c0 6.3-5.2 11.5-11.5 11.5h-2.4v6c0 .1 0 .3-0.1 .4v.1c-0.4 .5-1 .6-1.4 .3l-10.1-6.8h-18.4c-6.3 0-11.4-5.2-11.4-11.5v-11.6c0-6.3 5.1-11.4 11.4-11.4h32.4Z" fill="#fff"/><g style="animation: 5.8s linear infinite both a39_t;"><path d="M13.3 14.9c-1.9 1.6-4.7 1.6-6.6 0c-3.6-3-6.5-5.1-6.7-9.4c-0.2-5.3 6-7.5 9.6-3.2c.2 .3 .6 .3 .8 0c3.5-4.4 9.8-2.1 9.5 3.3c-0.2 4.1-3 6.2-6.6 9.3Z" fill="url(#d9ws59d1zb2916sj56rz942d)" fill-rule="evenodd" transform="translate(27.6,16) translate(-10,-8)" style="animation: 1s linear infinite both ufa6zr04dlv761v9e3uw4caf_t;"/></g></g><path d="M98 439h569c0 8.8-7.2 16-16 16h-537c-8.8 0-16-7.2-16-16Z" stroke="#fff" stroke-width="2" fill="none"/><path d="M343 440h79c0 3.9-3.1 7-7 7h-65c-3.9 0-7-3.1-7-7Z" fill="#fff" fill-rule="evenodd"/><rect x="112" y="457" fill="#003e9c" width="542" height="2" rx="1" fill-rule="evenodd"/><g fill="none" fill-rule="evenodd" transform="translate(502,93) translate(-28,-28)" style="animation: 4s linear infinite both uf1nujyhwi524z7kvxzuhv4o_t;"><rect y="-2" fill="#fff" width="56" height="56" rx="11.4"/><g transform="translate(9.1,24.3)" style="animation: 4s linear infinite both cqca2fmgk1eylkk7e1s39ga5_o;"><path d="M9.3 18.3c-2.2-1.2-2.9-4-1.7-6.2c.4-0.7 1-1.3 1.7-1.7l20-11.5c4.2-2.4 9.4-2.4 13.6 0c2.2 1.3 3 4 1.7 6.2c-0.4 .7-0.9 1.3-1.6 1.7l-19.8 11.4c-4.3 2.5-9.6 2.6-13.9 .1Z" fill="url(#r6kjaga0dk3qlkq5znlwd28k)" transform="translate(-7,2.9)"/><path d="M11.9 17.3c-1.8-1.1-2.5-3.4-1.4-5.3c.3-0.6 .8-1.1 1.4-1.4l17.7-10.2c3.6-2 8-2 11.6 0c1.8 1.1 2.4 3.5 1.4 5.3c-0.4 .6-0.8 1.1-1.4 1.4l-17.5 10.1c-3.6 2.1-8.1 2.2-11.8 .1Z" fill="url(#nm2g4zs4peaza5iyxnjihjyj)" transform="translate(-7.3,2.4)"/><path d="M14 16.5c-1.4-0.8-1.8-2.5-1.1-3.9c.3-0.5 .7-0.8 1.1-1.1l17.7-9.5c2.6-1.5 5.9-1.5 8.5 0c1.4 .8 1.9 2.5 1.1 3.9c-0.2 .4-0.6 .8-1 1.1l-17.6 9.4c-2.6 1.6-6 1.7-8.7 .1Z" fill="url(#iz8bhpzcwlx4bti5yv5raneb)" transform="translate(-7.9,2)"/></g><g transform="translate(27.6,27.6) translate(-20.6,-14.6)" style="animation: 4s linear infinite both wkcs0zawoi4tgl137ly2m2sm_t;"><path d="M33.4 8.7h.1c.9-0.4 2.1-0.7 3.6-0.9c.2 4 0 6.5-0.7 7.6c-0.4 .6-1 1.4-1.7 1.8l-14 7.9c-4.4 2.6-9.8 2.6-14.2 .1c-0.9-0.5-1.6-1.7-2-2.9c-0.4-0.9-0.5-3.2-0.3-6.7l3.3 1.1l13.1-7.4c4-2.2 8.7-2.4 12.8-0.6Z" fill="url(#gxmtibz70yyqy7hs2y2efyzm)"/><path d="M7 19.9c-2.2-1.3-3-4.1-1.8-6.3c.4-0.7 1-1.3 1.7-1.7l13.8-8c4.2-2.4 9.4-2.4 13.6 0c2.2 1.3 3 4.1 1.7 6.2c-0.4 .7-0.9 1.3-1.6 1.7l-13.6 8c-4.3 2.5-9.5 2.5-13.8 .1Z" stroke="#f5f8ff" fill="url(#uyjn3dwvtca7lde1i7peum3c)"/><path d="M15.7 9.6l7.8 4.5" stroke="#fff" stroke-width="1.2" stroke-linecap="round"/><path d="M16.7 9.6l7.8 4.5" stroke="#85acf0" stroke-width="1.2" stroke-linecap="round"/></g></g></svg>