<?xml version="1.0" encoding="UTF-8"?>
<svg width="64px" height="64px" viewBox="0 0 64 64" version="1.1" xmlns="http://www.w3.org/2000/svg" xmlns:xlink="http://www.w3.org/1999/xlink">
    <!-- Generator: Sketch 59.1 (86144) - https://sketch.com -->
    <title>i64_yoga</title>
    <desc>Created with Sketch.</desc>
    <g id="Page-1" stroke="none" stroke-width="1" fill="none" fill-rule="evenodd">
        <g id="Landing-Fitness-Wellness_1920" transform="translate(-1528.000000, -10136.000000)" fill="#ED4159">
            <g id="Group-48" transform="translate(0.000000, 9962.000000)">
                <g id="Group-15" transform="translate(230.000000, 0.000000)">
                    <g id="Group-14" transform="translate(0.000000, 104.000000)">
                        <g id="Group-18" transform="translate(1200.000000, 0.000000)">
                            <g id="Group-2" transform="translate(70.000000, 42.000000)">
                                <g id="Group" transform="translate(28.000000, 28.000000)">
                                    <path d="M38.9314311,0.901928819 L39.2304465,1.47562764 C41.6036691,6.02895477 39.8363452,11.6440328 35.283018,14.0172554 C34.202845,14.5802483 33.0229133,14.9253134 31.7888438,15.0349063 C32.197901,16.0651939 32.5155361,17.1528159 32.7418057,18.2955578 C35.1066388,17.0601362 37.7387607,16.4133808 40.4133808,16.4133808 C49.4413937,16.4133808 56.8065215,23.6339764 56.9965959,32.6658763 L57,33 L57,35 C57,48.6531565 46.0459843,59.775614 32.3965493,59.996853 L32,60 C18.1928813,60 7,48.8071187 7,35 L7,33 C7,23.8394632 14.4260823,16.4133808 23.5866192,16.4133808 C26.0248725,16.4133808 28.4278073,16.9508747 30.6262772,17.981368 C30.1447002,15.9768078 29.3390207,14.1869886 28.209582,12.6057743 C26.6824034,10.4677244 24.450511,8.55322734 21.5035981,6.86809282 C21.0241637,6.59393762 20.857752,5.98303252 21.1319072,5.50359809 C21.4060624,5.02416367 22.0169675,4.85775198 22.4964019,5.13190718 C25.436776,6.81330263 27.7514275,8.73444158 29.4322396,10.8998993 L29.4128969,10.6281393 C29.1960662,5.60393431 33.0138074,1.32189373 38.0323094,0.954248444 L38.9314311,0.901928819 Z M40.4133808,18.4133808 C37.8981286,18.4133808 35.4256142,19.0637833 33.235929,20.3014314 L32.8560728,20.5169409 C32.7023306,20.7711492 32.437377,20.9545537 32.1195617,20.9928268 L32.0610226,20.9981665 L32.0610226,20.9981665 L32,21 L31.8887579,20.9940199 C31.5772437,20.9594292 31.302471,20.7796538 31.1436541,20.51688 L30.764071,20.3014314 C28.5743858,19.0637833 26.1018714,18.4133808 23.5866192,18.4133808 C15.5306518,18.4133808 9,24.9440327 9,33 L9,35 C9,47.7025492 19.2974508,58 32,58 L32.3803471,57.9969187 C44.9074685,57.7938105 55,47.5755238 55,35 L55,33 L54.9967065,32.6869139 C54.8301154,24.7755068 48.3647252,18.4133808 40.4133808,18.4133808 Z M17.3979701,46.2015265 C17.8389548,45.8690345 18.4659816,45.9569853 18.7984735,46.3979701 C20.1019507,48.1267744 21.7851675,49.5366978 23.7120998,50.5088091 C25.6468598,51.4848694 27.7858017,52 30,52 C30.5522847,52 31,52.4477153 31,53 C31,53.5522847 30.5522847,54 30,54 C27.4710071,54 25.0237592,53.4106187 22.8112694,52.2944476 C20.6100326,51.1839533 18.6889137,49.5747546 17.2015265,47.6020299 C16.8690345,47.1610452 16.9569853,46.5340184 17.3979701,46.2015265 Z M37.7338161,2.99402644 L37.4930386,3.02999908 C33.9019525,3.62773019 31.2506857,6.82639142 31.4110369,10.5419052 C31.4478309,11.3944627 31.633831,12.2329087 31.9529033,13.0055414 C32.7919121,12.8933718 33.6061147,12.6359134 34.358629,12.2436982 C37.6616885,10.5221229 39.0968505,6.62702037 37.8247549,3.22517481 L37.7338161,2.99402644 Z" id="Shape" fill-rule="nonzero"></path>
                                    <g id="Group-42" transform="translate(8.000000, 17.000000)" fill-opacity="0.4">
                                        <path d="M32.77918,0.20669042 C30.154569,0.20669042 27.5745539,0.896744371 25.2896651,2.20984517 L24,2.95100168 L22.7103349,2.20984517 C20.4254461,0.896744371 17.845431,0.20669042 15.22082,0.20669042 C6.81459323,0.20669042 0,7.13548059 0,15.6825764 L0,17.8045055 C0,31.2814601 10.745166,42.2066904 24,42.2066904 L24.3968839,42.2034212 C37.4686628,41.9879306 48,31.1466906 48,17.8045055 L48,15.6825764 L47.9965633,15.3504031 C47.8227291,6.95668064 41.076235,0.20669042 32.77918,0.20669042 Z" id="Path"></path>
                                    </g>
                                </g>
                            </g>
                        </g>
                    </g>
                </g>
            </g>
        </g>
    </g>
</svg>