<svg height="72" viewBox="0 0 72 72" width="72" xmlns="http://www.w3.org/2000/svg"><g fill="none" fill-rule="evenodd" transform="translate(-14 -14)"><rect fill="#2fd058" height="72" rx="15.652174" width="72" x="14" y="14"/><path d="m49.1888636 35.2382323-10.5 6.75c-.4293338.2760003-.6888636.7513721-.6888636 1.2617677v6.7141064c0 6.9365282 4.7269842 13.0302382 11.5903151 14.9788622.2754636.0782091.5675578.0759366.8417712-.006549l.4520103-.1359682c6.6284879-2.106935 11.1159034-8.0811551 11.1159034-14.836345v-6.7141064c0-.5103956-.2595298-.9857674-.6888636-1.2617677l-10.5-6.75c-.4941114-.3176431-1.1281614-.3176431-1.6222728 0zm.8111364 3.0437677 9 5.787v5.8951064l-.0067715.4062849c-.1711739 5.1309392-3.5734533 9.6601462-8.5958062 11.4301645l-.3959223.1319442-.3778257-.1245394c-5.1570316-1.8081021-8.6236743-6.5301005-8.6236743-11.8438542v-5.8966064z" fill="#fff"/></g></svg>