<svg height="72" viewBox="0 0 72 72" width="72" xmlns="http://www.w3.org/2000/svg"><g fill="none" fill-rule="evenodd" transform="translate(-14 -14)"><rect fill="#f15a23" height="72" rx="15.652174" width="72" x="14" y="14"/><path d="m62 39.5c0-.828-.672-1.5-1.5-1.5h-21c-.828 0-1.5.672-1.5 1.5v21c0 .828.672 1.5 1.5 1.5h21c.828 0 1.5-.672 1.5-1.5zm3-1.5v24c0 1.6575-1.3425 3-3 3h-24c-1.6575 0-3-1.3425-3-3v-24c0-1.6575 1.3425-3 3-3h24c1.6575 0 3 1.3425 3 3zm-8.9685 7.5225c.5865.585.5865 1.536 0 2.121l-5.832 5.832c-.8805.879-2.3055.879-3.186 0l-2.6505-2.6505c-.585-.585-.585-1.5345 0-2.121.5865-.585 1.536-.585 2.121 0l1.059 1.059c.5865.5865 1.539.5865 2.127 0l4.2405-4.2405c.585-.5865 1.536-.5865 2.121 0z" fill="#fff"/></g></svg>