<?xml version="1.0" encoding="UTF-8"?>
<svg width="740px" height="440px" viewBox="0 0 740 440" version="1.1" xmlns="http://www.w3.org/2000/svg" xmlns:xlink="http://www.w3.org/1999/xlink">
    <!-- Generator: Sketch 63.1 (92452) - https://sketch.com -->
    <title>i740_verticals_plusbg</title>
    <desc>Created with Sketch.</desc>
    <g id="WWD" stroke="none" stroke-width="1" fill="none" fill-rule="evenodd" opacity="0.1">
        <g id="WWD_1920-Copy" transform="translate(-1662.000000, -915.000000)" fill="#989CB4" fill-rule="nonzero">
            <g id="3.-Cutting-edge" transform="translate(0.000000, 915.000000)">
                <g id="Bg">
                    <g id="Group-11" transform="translate(1662.000000, -80.000000)">
                        <g id="Плюсы" transform="translate(27.000000, 0.000000)">
                            <g id="Group" transform="translate(0.720000, 0.640000)">
                                <path d="M6.06,92.92 C6.666,92.92 7.07,93.324 7.07,93.93 L7.07,97.97 L11.11,97.97 C11.716,97.97 12.12,98.374 12.12,98.98 C12.12,99.586 11.716,99.99 11.11,99.99 L7.07,99.99 L7.07,104.03 C7.07,104.636 6.666,105.04 6.06,105.04 C5.454,105.04 5.05,104.636 5.05,104.03 L5.05,99.99 L1.01,99.99 C0.404,99.99 0,99.586 0,98.98 C0,98.374 0.404,97.97 1.01,97.97 L5.05,97.97 L5.05,93.93 C5.05,93.324 5.454,92.92 6.06,92.92 Z" id="Path"></path>
                                <path d="M191.9,92.92 C192.506,92.92 192.91,93.324 192.91,93.93 L192.91,97.97 L196.95,97.97 C197.556,97.97 197.96,98.374 197.96,98.98 C197.96,99.586 197.556,99.99 196.95,99.99 L192.91,99.99 L192.91,104.03 C192.91,104.636 192.506,105.04 191.9,105.04 C191.294,105.04 190.89,104.636 190.89,104.03 L190.89,99.99 L186.85,99.99 C186.244,99.99 185.84,99.586 185.84,98.98 C185.84,98.374 186.244,97.97 186.85,97.97 L190.89,97.97 L190.89,93.93 C190.89,93.324 191.294,92.92 191.9,92.92 Z" id="Path"></path>
                                <path d="M377.74,92.92 C378.346,92.92 378.75,93.324 378.75,93.93 L378.75,97.97 L382.79,97.97 C383.396,97.97 383.8,98.374 383.8,98.98 C383.8,99.586 383.396,99.99 382.79,99.99 L378.75,99.99 L378.75,104.03 C378.75,104.636 378.346,105.04 377.74,105.04 C377.134,105.04 376.73,104.636 376.73,104.03 L376.73,99.99 L372.69,99.99 C372.084,99.99 371.68,99.586 371.68,98.98 C371.68,98.374 372.084,97.97 372.69,97.97 L376.73,97.97 L376.73,93.93 C376.73,93.324 377.134,92.92 377.74,92.92 Z" id="Path"></path>
                                <path d="M563.58,92.92 C564.186,92.92 564.59,93.324 564.59,93.93 L564.59,97.97 L568.63,97.97 C569.236,97.97 569.64,98.374 569.64,98.98 C569.64,99.586 569.236,99.99 568.63,99.99 L564.59,99.99 L564.59,104.03 C564.59,104.636 564.186,105.04 563.58,105.04 C562.974,105.04 562.57,104.636 562.57,104.03 L562.57,99.99 L558.53,99.99 C557.924,99.99 557.52,99.586 557.52,98.98 C557.52,98.374 557.924,97.97 558.53,97.97 L562.57,97.97 L562.57,93.93 C562.57,93.324 562.974,92.92 563.58,92.92 Z" id="Path"></path>
                                <path d="M98.98,185.84 C99.586,185.84 99.99,186.244 99.99,186.85 L99.99,190.89 L104.03,190.89 C104.636,190.89 105.04,191.294 105.04,191.9 C105.04,192.506 104.636,192.91 104.03,192.91 L99.99,192.91 L99.99,196.95 C99.99,197.556 99.586,197.96 98.98,197.96 C98.374,197.96 97.97,197.556 97.97,196.95 L97.97,192.91 L93.93,192.91 C93.324,192.91 92.92,192.506 92.92,191.9 C92.92,191.294 93.324,190.89 93.93,190.89 L97.97,190.89 L97.97,186.85 C97.97,186.244 98.374,185.84 98.98,185.84 Z" id="Path"></path>
                                <path d="M284.82,185.84 C285.426,185.84 285.83,186.244 285.83,186.85 L285.83,190.89 L289.87,190.89 C290.476,190.89 290.88,191.294 290.88,191.9 C290.88,192.506 290.476,192.91 289.87,192.91 L285.83,192.91 L285.83,196.95 C285.83,197.556 285.426,197.96 284.82,197.96 C284.214,197.96 283.81,197.556 283.81,196.95 L283.81,192.91 L279.77,192.91 C279.164,192.91 278.76,192.506 278.76,191.9 C278.76,191.294 279.164,190.89 279.77,190.89 L283.81,190.89 L283.81,186.85 C283.81,186.244 284.214,185.84 284.82,185.84 Z" id="Path"></path>
                                <path d="M470.66,185.84 C471.266,185.84 471.67,186.244 471.67,186.85 L471.67,190.89 L475.71,190.89 C476.316,190.89 476.72,191.294 476.72,191.9 C476.72,192.506 476.316,192.91 475.71,192.91 L471.67,192.91 L471.67,196.95 C471.67,197.556 471.266,197.96 470.66,197.96 C470.054,197.96 469.65,197.556 469.65,196.95 L469.65,192.91 L465.61,192.91 C465.004,192.91 464.6,192.506 464.6,191.9 C464.6,191.294 465.004,190.89 465.61,190.89 L469.65,190.89 L469.65,186.85 C469.65,186.244 470.054,185.84 470.66,185.84 Z" id="Path"></path>
                                <path d="M656.5,185.84 C657.106,185.84 657.51,186.244 657.51,186.85 L657.51,190.89 L661.55,190.89 C662.156,190.89 662.56,191.294 662.56,191.9 C662.56,192.506 662.156,192.91 661.55,192.91 L657.51,192.91 L657.51,196.95 C657.51,197.556 657.106,197.96 656.5,197.96 C655.894,197.96 655.49,197.556 655.49,196.95 L655.49,192.91 L651.45,192.91 C650.844,192.91 650.44,192.506 650.44,191.9 C650.44,191.294 650.844,190.89 651.45,190.89 L655.49,190.89 L655.49,186.85 C655.49,186.244 655.894,185.84 656.5,185.84 Z" id="Path"></path>
                                <path d="M6.06,278.76 C6.666,278.76 7.07,279.164 7.07,279.77 L7.07,283.81 L11.11,283.81 C11.716,283.81 12.12,284.214 12.12,284.82 C12.12,285.426 11.716,285.83 11.11,285.83 L7.07,285.83 L7.07,289.87 C7.07,290.476 6.666,290.88 6.06,290.88 C5.454,290.88 5.05,290.476 5.05,289.87 L5.05,285.83 L1.01,285.83 C0.404,285.83 0,285.426 0,284.82 C0,284.214 0.404,283.81 1.01,283.81 L5.05,283.81 L5.05,279.77 C5.05,279.164 5.454,278.76 6.06,278.76 Z" id="Path"></path>
                                <path d="M191.9,278.76 C192.506,278.76 192.91,279.164 192.91,279.77 L192.91,283.81 L196.95,283.81 C197.556,283.81 197.96,284.214 197.96,284.82 C197.96,285.426 197.556,285.83 196.95,285.83 L192.91,285.83 L192.91,289.87 C192.91,290.476 192.506,290.88 191.9,290.88 C191.294,290.88 190.89,290.476 190.89,289.87 L190.89,285.83 L186.85,285.83 C186.244,285.83 185.84,285.426 185.84,284.82 C185.84,284.214 186.244,283.81 186.85,283.81 L190.89,283.81 L190.89,279.77 C190.89,279.164 191.294,278.76 191.9,278.76 Z" id="Path"></path>
                                <path d="M377.74,278.76 C378.346,278.76 378.75,279.164 378.75,279.77 L378.75,283.81 L382.79,283.81 C383.396,283.81 383.8,284.214 383.8,284.82 C383.8,285.426 383.396,285.83 382.79,285.83 L378.75,285.83 L378.75,289.87 C378.75,290.476 378.346,290.88 377.74,290.88 C377.134,290.88 376.73,290.476 376.73,289.87 L376.73,285.83 L372.69,285.83 C372.084,285.83 371.68,285.426 371.68,284.82 C371.68,284.214 372.084,283.81 372.69,283.81 L376.73,283.81 L376.73,279.77 C376.73,279.164 377.134,278.76 377.74,278.76 Z" id="Path"></path>
                                <path d="M563.58,278.76 C564.186,278.76 564.59,279.164 564.59,279.77 L564.59,283.81 L568.63,283.81 C569.236,283.81 569.64,284.214 569.64,284.82 C569.64,285.426 569.236,285.83 568.63,285.83 L564.59,285.83 L564.59,289.87 C564.59,290.476 564.186,290.88 563.58,290.88 C562.974,290.88 562.57,290.476 562.57,289.87 L562.57,285.83 L558.53,285.83 C557.924,285.83 557.52,285.426 557.52,284.82 C557.52,284.214 557.924,283.81 558.53,283.81 L562.57,283.81 L562.57,279.77 C562.57,279.164 562.974,278.76 563.58,278.76 Z" id="Path"></path>
                                <path d="M98.98,371.68 C99.586,371.68 99.99,372.084 99.99,372.69 L99.99,376.73 L104.03,376.73 C104.636,376.73 105.04,377.134 105.04,377.74 C105.04,378.346 104.636,378.75 104.03,378.75 L99.99,378.75 L99.99,382.79 C99.99,383.396 99.586,383.8 98.98,383.8 C98.374,383.8 97.97,383.396 97.97,382.79 L97.97,378.75 L93.93,378.75 C93.324,378.75 92.92,378.346 92.92,377.74 C92.92,377.134 93.324,376.73 93.93,376.73 L97.97,376.73 L97.97,372.69 C97.97,372.084 98.374,371.68 98.98,371.68 Z" id="Path"></path>
                                <path d="M284.82,371.68 C285.426,371.68 285.83,372.084 285.83,372.69 L285.83,376.73 L289.87,376.73 C290.476,376.73 290.88,377.134 290.88,377.74 C290.88,378.346 290.476,378.75 289.87,378.75 L285.83,378.75 L285.83,382.79 C285.83,383.396 285.426,383.8 284.82,383.8 C284.214,383.8 283.81,383.396 283.81,382.79 L283.81,378.75 L279.77,378.75 C279.164,378.75 278.76,378.346 278.76,377.74 C278.76,377.134 279.164,376.73 279.77,376.73 L283.81,376.73 L283.81,372.69 C283.81,372.084 284.214,371.68 284.82,371.68 Z" id="Path"></path>
                                <path d="M470.66,371.68 C471.266,371.68 471.67,372.084 471.67,372.69 L471.67,376.73 L475.71,376.73 C476.316,376.73 476.72,377.134 476.72,377.74 C476.72,378.346 476.316,378.75 475.71,378.75 L471.67,378.75 L471.67,382.79 C471.67,383.396 471.266,383.8 470.66,383.8 C470.054,383.8 469.65,383.396 469.65,382.79 L469.65,378.75 L465.61,378.75 C465.004,378.75 464.6,378.346 464.6,377.74 C464.6,377.134 465.004,376.73 465.61,376.73 L469.65,376.73 L469.65,372.69 C469.65,372.084 470.054,371.68 470.66,371.68 Z" id="Path"></path>
                                <path d="M656.5,371.68 C657.106,371.68 657.51,372.084 657.51,372.69 L657.51,376.73 L661.55,376.73 C662.156,376.73 662.56,377.134 662.56,377.74 C662.56,378.346 662.156,378.75 661.55,378.75 L657.51,378.75 L657.51,382.79 C657.51,383.396 657.106,383.8 656.5,383.8 C655.894,383.8 655.49,383.396 655.49,382.79 L655.49,378.75 L651.45,378.75 C650.844,378.75 650.44,378.346 650.44,377.74 C650.44,377.134 650.844,376.73 651.45,376.73 L655.49,376.73 L655.49,372.69 C655.49,372.084 655.894,371.68 656.5,371.68 Z" id="Path"></path>
                                <path d="M6.06,464.6 C6.666,464.6 7.07,465.004 7.07,465.61 L7.07,469.65 L11.11,469.65 C11.716,469.65 12.12,470.054 12.12,470.66 C12.12,471.266 11.716,471.67 11.11,471.67 L7.07,471.67 L7.07,475.71 C7.07,476.316 6.666,476.72 6.06,476.72 C5.454,476.72 5.05,476.316 5.05,475.71 L5.05,471.67 L1.01,471.67 C0.404,471.67 0,471.266 0,470.66 C0,470.054 0.404,469.65 1.01,469.65 L5.05,469.65 L5.05,465.61 C5.05,465.004 5.454,464.6 6.06,464.6 Z" id="Path"></path>
                                <path d="M191.9,464.6 C192.506,464.6 192.91,465.004 192.91,465.61 L192.91,469.65 L196.95,469.65 C197.556,469.65 197.96,470.054 197.96,470.66 C197.96,471.266 197.556,471.67 196.95,471.67 L192.91,471.67 L192.91,475.71 C192.91,476.316 192.506,476.72 191.9,476.72 C191.294,476.72 190.89,476.316 190.89,475.71 L190.89,471.67 L186.85,471.67 C186.244,471.67 185.84,471.266 185.84,470.66 C185.84,470.054 186.244,469.65 186.85,469.65 L190.89,469.65 L190.89,465.61 C190.89,465.004 191.294,464.6 191.9,464.6 Z" id="Path"></path>
                                <path d="M377.74,464.6 C378.346,464.6 378.75,465.004 378.75,465.61 L378.75,469.65 L382.79,469.65 C383.396,469.65 383.8,470.054 383.8,470.66 C383.8,471.266 383.396,471.67 382.79,471.67 L378.75,471.67 L378.75,475.71 C378.75,476.316 378.346,476.72 377.74,476.72 C377.134,476.72 376.73,476.316 376.73,475.71 L376.73,471.67 L372.69,471.67 C372.084,471.67 371.68,471.266 371.68,470.66 C371.68,470.054 372.084,469.65 372.69,469.65 L376.73,469.65 L376.73,465.61 C376.73,465.004 377.134,464.6 377.74,464.6 Z" id="Path"></path>
                                <path d="M563.58,464.6 C564.186,464.6 564.59,465.004 564.59,465.61 L564.59,469.65 L568.63,469.65 C569.236,469.65 569.64,470.054 569.64,470.66 C569.64,471.266 569.236,471.67 568.63,471.67 L564.59,471.67 L564.59,475.71 C564.59,476.316 564.186,476.72 563.58,476.72 C562.974,476.72 562.57,476.316 562.57,475.71 L562.57,471.67 L558.53,471.67 C557.924,471.67 557.52,471.266 557.52,470.66 C557.52,470.054 557.924,469.65 558.53,469.65 L562.57,469.65 L562.57,465.61 C562.57,465.004 562.974,464.6 563.58,464.6 Z" id="Path"></path>
                            </g>
                            <g id="Group" transform="translate(4.000000, 3.000000)">
                                <path d="M98,92 C98.6,92 99,92.4 99,93 L99,97 L103,97 C103.6,97 104,97.4 104,98 C104,98.6 103.6,99 103,99 L99,99 L99,103 C99,103.6 98.6,104 98,104 C97.4,104 97,103.6 97,103 L97,99 L93,99 C92.4,99 92,98.6 92,98 C92,97.4 92.4,97 93,97 L97,97 L97,93 C97,92.4 97.4,92 98,92 Z" id="Path"></path>
                                <path d="M282,92 C282.6,92 283,92.4 283,93 L283,97 L287,97 C287.6,97 288,97.4 288,98 C288,98.6 287.6,99 287,99 L283,99 L283,103 C283,103.6 282.6,104 282,104 C281.4,104 281,103.6 281,103 L281,99 L277,99 C276.4,99 276,98.6 276,98 C276,97.4 276.4,97 277,97 L281,97 L281,93 C281,92.4 281.4,92 282,92 Z" id="Path"></path>
                                <path d="M466,92 C466.6,92 467,92.4 467,93 L467,97 L471,97 C471.6,97 472,97.4 472,98 C472,98.6 471.6,99 471,99 L467,99 L467,103 C467,103.6 466.6,104 466,104 C465.4,104 465,103.6 465,103 L465,99 L461,99 C460.4,99 460,98.6 460,98 C460,97.4 460.4,97 461,97 L465,97 L465,93 C465,92.4 465.4,92 466,92 Z" id="Path"></path>
                                <path d="M650,92 C650.6,92 651,92.4 651,93 L651,97 L655,97 C655.6,97 656,97.4 656,98 C656,98.6 655.6,99 655,99 L651,99 L651,103 C651,103.6 650.6,104 650,104 C649.4,104 649,103.6 649,103 L649,99 L645,99 C644.4,99 644,98.6 644,98 C644,97.4 644.4,97 645,97 L649,97 L649,93 C649,92.4 649.4,92 650,92 Z" id="Path"></path>
                                <path d="M6,184 C6.6,184 7,184.4 7,185 L7,189 L11,189 C11.6,189 12,189.4 12,190 C12,190.6 11.6,191 11,191 L7,191 L7,195 C7,195.6 6.6,196 6,196 C5.4,196 5,195.6 5,195 L5,191 L1,191 C0.4,191 0,190.6 0,190 C0,189.4 0.4,189 1,189 L5,189 L5,185 C5,184.4 5.4,184 6,184 Z" id="Path"></path>
                                <path d="M190,184 C190.6,184 191,184.4 191,185 L191,189 L195,189 C195.6,189 196,189.4 196,190 C196,190.6 195.6,191 195,191 L191,191 L191,195 C191,195.6 190.6,196 190,196 C189.4,196 189,195.6 189,195 L189,191 L185,191 C184.4,191 184,190.6 184,190 C184,189.4 184.4,189 185,189 L189,189 L189,185 C189,184.4 189.4,184 190,184 Z" id="Path"></path>
                                <path d="M374,184 C374.6,184 375,184.4 375,185 L375,189 L379,189 C379.6,189 380,189.4 380,190 C380,190.6 379.6,191 379,191 L375,191 L375,195 C375,195.6 374.6,196 374,196 C373.4,196 373,195.6 373,195 L373,191 L369,191 C368.4,191 368,190.6 368,190 C368,189.4 368.4,189 369,189 L373,189 L373,185 C373,184.4 373.4,184 374,184 Z" id="Path"></path>
                                <path d="M558,184 C558.6,184 559,184.4 559,185 L559,189 L563,189 C563.6,189 564,189.4 564,190 C564,190.6 563.6,191 563,191 L559,191 L559,195 C559,195.6 558.6,196 558,196 C557.4,196 557,195.6 557,195 L557,191 L553,191 C552.4,191 552,190.6 552,190 C552,189.4 552.4,189 553,189 L557,189 L557,185 C557,184.4 557.4,184 558,184 Z" id="Path"></path>
                                <path d="M98,276 C98.6,276 99,276.4 99,277 L99,281 L103,281 C103.6,281 104,281.4 104,282 C104,282.6 103.6,283 103,283 L99,283 L99,287 C99,287.6 98.6,288 98,288 C97.4,288 97,287.6 97,287 L97,283 L93,283 C92.4,283 92,282.6 92,282 C92,281.4 92.4,281 93,281 L97,281 L97,277 C97,276.4 97.4,276 98,276 Z" id="Path"></path>
                                <path d="M282,276 C282.6,276 283,276.4 283,277 L283,281 L287,281 C287.6,281 288,281.4 288,282 C288,282.6 287.6,283 287,283 L283,283 L283,287 C283,287.6 282.6,288 282,288 C281.4,288 281,287.6 281,287 L281,283 L277,283 C276.4,283 276,282.6 276,282 C276,281.4 276.4,281 277,281 L281,281 L281,277 C281,276.4 281.4,276 282,276 Z" id="Path"></path>
                                <path d="M466,276 C466.6,276 467,276.4 467,277 L467,281 L471,281 C471.6,281 472,281.4 472,282 C472,282.6 471.6,283 471,283 L467,283 L467,287 C467,287.6 466.6,288 466,288 C465.4,288 465,287.6 465,287 L465,283 L461,283 C460.4,283 460,282.6 460,282 C460,281.4 460.4,281 461,281 L465,281 L465,277 C465,276.4 465.4,276 466,276 Z" id="Path"></path>
                                <path d="M650,276 C650.6,276 651,276.4 651,277 L651,281 L655,281 C655.6,281 656,281.4 656,282 C656,282.6 655.6,283 655,283 L651,283 L651,287 C651,287.6 650.6,288 650,288 C649.4,288 649,287.6 649,287 L649,283 L645,283 C644.4,283 644,282.6 644,282 C644,281.4 644.4,281 645,281 L649,281 L649,277 C649,276.4 649.4,276 650,276 Z" id="Path"></path>
                                <path d="M6,368 C6.6,368 7,368.4 7,369 L7,373 L11,373 C11.6,373 12,373.4 12,374 C12,374.6 11.6,375 11,375 L7,375 L7,379 C7,379.6 6.6,380 6,380 C5.4,380 5,379.6 5,379 L5,375 L1,375 C0.4,375 0,374.6 0,374 C0,373.4 0.4,373 1,373 L5,373 L5,369 C5,368.4 5.4,368 6,368 Z" id="Path"></path>
                                <path d="M190,368 C190.6,368 191,368.4 191,369 L191,373 L195,373 C195.6,373 196,373.4 196,374 C196,374.6 195.6,375 195,375 L191,375 L191,379 C191,379.6 190.6,380 190,380 C189.4,380 189,379.6 189,379 L189,375 L185,375 C184.4,375 184,374.6 184,374 C184,373.4 184.4,373 185,373 L189,373 L189,369 C189,368.4 189.4,368 190,368 Z" id="Path"></path>
                                <path d="M374,368 C374.6,368 375,368.4 375,369 L375,373 L379,373 C379.6,373 380,373.4 380,374 C380,374.6 379.6,375 379,375 L375,375 L375,379 C375,379.6 374.6,380 374,380 C373.4,380 373,379.6 373,379 L373,375 L369,375 C368.4,375 368,374.6 368,374 C368,373.4 368.4,373 369,373 L373,373 L373,369 C373,368.4 373.4,368 374,368 Z" id="Path"></path>
                                <path d="M558,368 C558.6,368 559,368.4 559,369 L559,373 L563,373 C563.6,373 564,373.4 564,374 C564,374.6 563.6,375 563,375 L559,375 L559,379 C559,379.6 558.6,380 558,380 C557.4,380 557,379.6 557,379 L557,375 L553,375 C552.4,375 552,374.6 552,374 C552,373.4 552.4,373 553,373 L557,373 L557,369 C557,368.4 557.4,368 558,368 Z" id="Path"></path>
                                <path d="M98,460 C98.6,460 99,460.4 99,461 L99,465 L103,465 C103.6,465 104,465.4 104,466 C104,466.6 103.6,467 103,467 L99,467 L99,471 C99,471.6 98.6,472 98,472 C97.4,472 97,471.6 97,471 L97,467 L93,467 C92.4,467 92,466.6 92,466 C92,465.4 92.4,465 93,465 L97,465 L97,461 C97,460.4 97.4,460 98,460 Z" id="Path"></path>
                                <path d="M282,460 C282.6,460 283,460.4 283,461 L283,465 L287,465 C287.6,465 288,465.4 288,466 C288,466.6 287.6,467 287,467 L283,467 L283,471 C283,471.6 282.6,472 282,472 C281.4,472 281,471.6 281,471 L281,467 L277,467 C276.4,467 276,466.6 276,466 C276,465.4 276.4,465 277,465 L281,465 L281,461 C281,460.4 281.4,460 282,460 Z" id="Path"></path>
                                <path d="M466,460 C466.6,460 467,460.4 467,461 L467,465 L471,465 C471.6,465 472,465.4 472,466 C472,466.6 471.6,467 471,467 L467,467 L467,471 C467,471.6 466.6,472 466,472 C465.4,472 465,471.6 465,471 L465,467 L461,467 C460.4,467 460,466.6 460,466 C460,465.4 460.4,465 461,465 L465,465 L465,461 C465,460.4 465.4,460 466,460 Z" id="Path"></path>
                                <path d="M650,460 C650.6,460 651,460.4 651,461 L651,465 L655,465 C655.6,465 656,465.4 656,466 C656,466.6 655.6,467 655,467 L651,467 L651,471 C651,471.6 650.6,472 650,472 C649.4,472 649,471.6 649,471 L649,467 L645,467 C644.4,467 644,466.6 644,466 C644,465.4 644.4,465 645,465 L649,465 L649,461 C649,460.4 649.4,460 650,460 Z" id="Path"></path>
                            </g>
                        </g>
                    </g>
                </g>
            </g>
        </g>
    </g>
</svg>