<svg height="820" viewBox="0 0 740 820" width="740" xmlns="http://www.w3.org/2000/svg"><g fill="none" fill-rule="evenodd" stroke="#e1f5ff" transform="translate(49 -581)"><path d="m9.59234938.60627264c121.67938762 101.86837636 194.96780962 273.46671336 219.86526862 514.79501036 37.346187 361.992445-207.5393186 725.288307-229.13241858 903.204987"/><path d="m39.5923494.60627264c121.6793876 101.86837636 194.9678096 273.46671336 219.8652686 514.79501036 37.346187 361.992445-207.5393186 725.288307-229.1324186 903.204987"/><path d="m69.5923494.60627264c121.6793876 101.86837636 194.9678096 273.46671336 219.8652686 514.79501036 37.346187 361.992445-207.5393186 725.288307-229.1324186 903.204987"/><path d="m99.5923494.60627264c121.6793876 101.86837636 194.9678096 273.46671336 219.8652686 514.79501036 37.346187 361.992445-207.539319 725.288307-229.1324186 903.204987"/><path d="m129.592349.60627264c121.679388 101.86837636 194.96781 273.46671336 219.865269 514.79501036 37.346187 361.992445-207.539319 725.288307-229.132419 903.204987"/><path d="m159.592349.60627264c121.679388 101.86837636 194.96781 273.46671336 219.865269 514.79501036 37.346187 361.992445-207.539319 725.288307-229.132419 903.204987"/><path d="m189.592349.60627264c121.679388 101.86837636 194.96781 273.46671336 219.865269 514.79501036 37.346187 361.992445-207.539319 725.288307-229.132419 903.204987"/><path d="m219.592349.60627264c121.679388 101.86837636 194.96781 273.46671336 219.865269 514.79501036 37.346187 361.992445-207.539319 725.288307-229.132419 903.204987"/><path d="m249.592349.60627264c121.679388 101.86837636 194.96781 273.46671336 219.865269 514.79501036 37.346187 361.992445-207.539319 725.288307-229.132419 903.204987"/><path d="m279.592349.60627264c121.679388 101.86837636 194.96781 273.46671336 219.865269 514.79501036 37.346187 361.992445-207.539319 725.288307-229.132419 903.204987"/><path d="m309.592349.60627264c121.679388 101.86837636 194.96781 273.46671336 219.865269 514.79501036 37.346187 361.992445-207.539319 725.288307-229.132419 903.204987"/><path d="m339.592349.60627264c121.679388 101.86837636 194.96781 273.46671336 219.865269 514.79501036 37.346187 361.992445-207.539319 725.288307-229.132419 903.204987"/><path d="m369.592349.60627264c121.679388 101.86837636 194.96781 273.46671336 219.865269 514.79501036 37.346187 361.992445-207.539319 725.288307-229.132419 903.204987"/><path d="m399.592349.60627264c121.679388 101.86837636 194.96781 273.46671336 219.865269 514.79501036 37.346187 361.992445-207.539319 725.288307-229.132419 903.204987"/><path d="m429.592349.60627264c121.679388 101.86837636 194.96781 273.46671336 219.865269 514.79501036 37.346187 361.992445-207.539319 725.288307-229.132419 903.204987"/></g></svg>