<svg height="810" viewBox="0 0 767 810" width="767" xmlns="http://www.w3.org/2000/svg" xmlns:xlink="http://www.w3.org/1999/xlink"><defs><linearGradient id="a" x1="71.303917%" x2="71.303917%" y1="0%" y2="100%"><stop offset="0" stop-color="#00d8ff"/><stop offset="1" stop-color="#0089ff"/></linearGradient><path id="b" d="m0 1031h768c0-495.333333 0-743 0-743-158.704989 21.067842-329.2211 34.004189-533 .5-83.276874-13.691918-161.590822-35.840432-235-67.5z"/><linearGradient id="c" x1="-5.584179%" x2="40.428876%" y1="4.349678%" y2="61.468575%"><stop offset="0" stop-color="#b6e6ff"/><stop offset="1" stop-color="#00a8ff"/></linearGradient><mask id="d" fill="#fff"><use fill="#fff" fill-rule="evenodd" xlink:href="#b"/></mask></defs><g fill="none" fill-rule="evenodd" transform="translate(0 -221)"><path d="m0 0h767v1031h-767z" fill="#f2f4f7"/><use fill="url(#a)" xlink:href="#b"/><g mask="url(#d)"><path d="m76.0704674 437.821561 2092.9315626-294.142349 51.28529 364.913783c-332.81158 60.089796-583.95604 134.095906-753.43338 222.018327-254.21603 131.883633-424.31365 613.018908-769.289171 641.700818-229.983679 19.12127-400.797622-33.37873-512.441831-157.5z" fill="#fff" opacity=".1" transform="matrix(.99026807 -.1391731 -.1391731 -.99026807 -883.897171 1926.647674)"/><path d="m135.071106 638.499147c889.345634-176.927869 1425.575784-252.290103 1608.690474-226.086702 274.67204 39.3051 122.81862 391.270836-18.58747 431.789017s-303.57606 6.31104-426.67706 96.824257c-138.51187 101.844451-158.11632 189.853181-370.146085 269.133571-141.353174 52.85359-378.780212 54.41222-712.281114 4.67587z" fill="url(#c)" opacity=".5" transform="matrix(.99026807 -.1391731 -.1391731 -.99026807 -610.894696 2046.083581)"/></g><g fill="#fff" mask="url(#d)" opacity=".1"><path d="m99.6849933 805.077308 3592.6952167-205.769473c-209.09994 262.993858-441.47031 456.213965-697.11111 579.660325-440.10905 212.52422-559.44251 301.79642-869.78985 331.78022s-451.91287-.10693-667.73239 159.98737c-60.02236 44.52441-241.5318 179.2641-546.103368 188.33577-182.352072 5.43136-453.004905-345.90004-811.9584987-1053.994212z" transform="matrix(-.99026807 .1391731 .1391731 .99026807 2828.538693 -1359.355416)"/><path d="m115.15573 680.908539 3576.67687-440.712202c-175.26484 434.285252-345.46956 674.645674-510.61415 721.081267-860.0454 241.828796-1328.59458 342.908246-1478.06335 433.424716-286.63171 173.5807-347.17441 709.21942-739.055606 741.06869-261.254132 21.23286-544.235387 6.44536-848.943764-44.36247z" transform="matrix(-.99026807 .1391731 .1391731 .99026807 2848.475068 -1287.662553)"/></g></g></svg>