<svg height="84" viewBox="0 0 84 84" width="84" xmlns="http://www.w3.org/2000/svg" xmlns:xlink="http://www.w3.org/1999/xlink"><linearGradient id="a" x1="0%" x2="100%" y1="94.797796%" y2="0%"><stop offset="0" stop-color="#00bbc4"/><stop offset="1" stop-color="#0ce5ae"/></linearGradient><g fill="none" fill-rule="evenodd"><rect fill="url(#a)" height="64" rx="22" width="64" x="10" y="10"/><path d="m16 0c7.5580481 0 13.6819654 6.81978159 13.9881557 15.3474718l.0090548.3374948.0017108 1.4853581c1.1657558.4115316 2.0010787 1.5230534 2.0010787 2.8296753v3c0 1.6568542-1.3431458 3-3 3s-3-1.3431458-3-3v-3c0-1.3055124.8339049-2.4162559 1.9981098-2.8286255l-.0007404-1.4674181c-.1358066-7.6349963-5.4981634-13.7039564-11.9973694-13.7039564-6.49889852 0-11.84527465 6.06177083-11.99670195 13.6683208l-.00329805.3316792-.00008893 1.1706743c1.16523883.4118113 2.00008893 1.5230736 2.00008893 2.8293257v3c0 1.6568542-1.34314575 3-3 3s-3-1.3431458-3-3v-3c0-1.3058822.83437743-2.4168852 1.99909928-2.8289758l.00090072-1.1710242c0-8.80729004 6.23368196-16 14-16z" fill="#fff" fill-rule="nonzero" transform="translate(26 28)"/></g></svg>