<svg height="84" viewBox="0 0 84 84" width="84" xmlns="http://www.w3.org/2000/svg" xmlns:xlink="http://www.w3.org/1999/xlink"><linearGradient id="a" x1="0%" x2="100%" y1="94.797796%" y2="0%"><stop offset="0" stop-color="#00bbc4"/><stop offset="1" stop-color="#0ce5ae"/></linearGradient><g fill="none" fill-rule="evenodd"><rect fill="url(#a)" height="64" rx="22" width="64" x="10" y="10"/><path d="m18.0119794 25.7101689c-1.2123417-.0851689-9.46528255-6.3780519-9.60807776-10.2905885-.14999497-4.1404514 4.43385126-5.65394784 7.24415696-2.2518453.568781.6873054 1.4231523 1.081408 2.3447214 1.081408.9299688 0 1.7903399-.3988508 2.3603208-1.0944656 2.7491078-3.34749798 7.2347174-1.9248599 7.2405571 2.3859826.0056176 4.1468399-8.3941007 10.0843399-9.5816785 10.1695088zm.4523848-13.966901c-.1175961.1436338-.2951901.2160442-.4715842.2160442-.1727942 0-.3443885-.0700363-.4595846-.2089219-4.2514574-5.14588781-11.75840557-2.58303387-11.5280133 3.7487229.18359384 5.0390528 8.4192999 12.5008869 12.0067973 12.5008869 3.5874973 0 11.7344063-7.4499635 11.9779982-12.3513178.3239891-6.47301648-7.2849557-9.07266915-11.5256134-3.9054143z" fill="#fff" transform="translate(24 24)"/></g></svg>