<svg height="84" viewBox="0 0 84 84" width="84" xmlns="http://www.w3.org/2000/svg" xmlns:xlink="http://www.w3.org/1999/xlink"><linearGradient id="a" x1="0%" x2="100%" y1="94.797796%" y2="0%"><stop offset="0" stop-color="#00bbc4"/><stop offset="1" stop-color="#0ce5ae"/></linearGradient><g fill="none" fill-rule="evenodd"><rect fill="url(#a)" height="64" rx="22" width="64" x="10" y="10"/><path d="m27.9200003 9c1.6850399 0 3.0620361 1.3188914 3.1549978 2.9806832l.0050023.1793168.0004029.0840005c1.6110197.0805447 2.904239 1.3675809 2.9945569 2.9760078l.0050402.1799918v5.4c0 1.6248599-1.2263672 2.9632863-2.8039907 3.1401686l-.1960097.0148313.0000004.0850002c0 1.6850398-1.3188914 3.0620361-2.9806833 3.1549977l-.1793168.0050023c-1.6850398 0-3.062036-1.3188914-3.1549977-2.9806832l-.0050023-.1793168-.0000003-3.3200002h-14.2l.0000001 3.3200002c0 1.6850398-1.31889141 3.0620361-2.98068325 3.1549977l-.17931678.0050023c-1.68503983 0-3.06203607-1.3188914-3.15499771-2.9806832l-.00500232-.1793168.00048262-.4439564c-1.61142079-.0801167-2.90509106-1.3673135-2.9954407-2.9760204l-.00504192-.1800233v-4.68c0-1.7452198 1.41478021-3.16 3.16000003-3.16l-.16000003.0039999v-.444c0-1.6850398 1.31889142-3.06203604 2.98068325-3.15499768l.17931678-.00500232c1.68503983 0 3.06203603 1.3188914 3.15499773 2.9806832l.0050023.1793168-.0000001 2.24h14.2l.0000003-2.24c0-1.6850398 1.3188914-3.06203604 2.9806833-3.15499768zm-1.16 15.0400002c0 .6406503.5193497 1.16 1.16 1.16.5979403 0 1.0902143-.4524113 1.1531933-1.0336052l.0068068-.1263948v-11.8800002c0-.6406503-.5193497-1.16-1.1600001-1.16-.5979403 0-1.0902142.4524113-1.1531933 1.0336052l-.0068067.1263948zm-19.36000023-13.0400002c-.5979403 0-1.09021429.4524113-1.1531933 1.0336052l-.00680673.1263948v11.8800002c0 .6406503.51934971 1.16 1.16000003 1.16.59794031 0 1.09021429-.4524113 1.15319331-1.0336052l.00680672-.1263948v-11.8800002c0-.6406503-.5193497-1.16-1.16000003-1.16zm23.67999993 3.252v7.695l.0888476-.013755c.4408998-.0963723.7880253-.4434978.8843976-.8843976l.0199484-.1224525.0068064-.1263948v-5.4c0-.5125203-.3323835-.9474082-.7933499-1.1008625l-.1178025-.0323824zm-26.83999998.359-.08884719.0157552c-.48098165.1051335-.85036407.5086839-.90434609 1.0068502l-.00680672.1263947v4.68c0 .5125202.33238383.9474081.79335032 1.1008624l.11780249.0323825.08884719.014755zm20.51999998 1.789-14.2-.001v2.32l14.2.001z" fill="#fff" fill-rule="nonzero" transform="translate(24 24)"/></g></svg>