<svg height="84" viewBox="0 0 84 84" width="84" xmlns="http://www.w3.org/2000/svg" xmlns:xlink="http://www.w3.org/1999/xlink"><linearGradient id="a" x1="0%" x2="100%" y1="94.797796%" y2="0%"><stop offset="0" stop-color="#00bbc4"/><stop offset="1" stop-color="#0ce5ae"/></linearGradient><g fill="none" fill-rule="evenodd"><rect fill="url(#a)" height="64" rx="22" width="64" x="10" y="10"/><path d="m20.5 0c3.1326033 0 5.5 3.41957308 5.5 7.5 0 2.7375793-1.0655976 5.1776992-2.7129578 6.4872719l.627395 18.4801791c.0620028 1.8228835-1.3158237 3.3607152-3.1264822 3.5195416l-.1888122.0114663-.0991428.0015411c-1.8239377 0-3.3140428-1.4293072-3.4113565-3.2289628l-.0047627-.2304702.629077-18.5532951c-1.6473602-1.3095727-2.7129578-3.7496926-2.7129578-6.4872719 0-4.08042692 2.3673967-7.5 5.5-7.5zm-10.5 0c.5128358 0 .9355072.38604019.9932723.88337888l.0067277.11662112v9c0 1.7613854-1.13847786 3.2568651-2.71971648 3.7907219l.63415365 18.6767291c.06200284 1.8228835-1.31582371 3.3607152-3.12648217 3.5195416l-.1888122.0114663-.0991428.0015411c-1.82393769 0-3.3140428-1.4293072-3.41135655-3.2289628l-.00476262-.2304702.63602326-18.7497818c-1.52123794-.5135148-2.63272267-1.9170449-2.71500878-3.5911449l-.00489531-.1996403v-9c0-.55228475.44771525-1 1-1 .51283584 0 .93550716.38604019.99327227.88337888l.00672773.11662112v9c0 1.0543618.81587779 1.9181651 1.85073766 1.9945143l.14926234.0054857h.5v-11c0-.55228475.44771525-1 1-1 .51283584 0 .93550716.38604019.99327227.88337888l.00672773.11662112v11h.5c1.0543618 0 1.91816512-.8158778 1.99451426-1.8507377l.00548574-.1492623v-9c0-.55228475.44771525-1 1-1zm11.319 15h-1.639l-.5955931 17.5354388.0056618.1845594c.0642928.6733731.5992629 1.2093002 1.2593489 1.2736607l.133583.0064856.0651488-.0009631c.7358217-.025028 1.3214226-.6070089 1.3656006-1.3271911l.0018431-.1365515zm-15 0h-1.639l-.59559309 17.5354388.00566184.1845594c.0642928.6733731.59926289 1.2093002 1.25934881 1.2736607l.13358301.0064856.06514885-.0009631c.73582163-.025028 1.32142255-.6070089 1.3656006-1.3271911l.00184307-.1365515zm14.181-13c-1.8379595 0-3.5 2.40072517-3.5 5.5 0 3.0992748 1.6620405 5.5 3.5 5.5s3.5-2.4007252 3.5-5.5c0-3.09927483-1.6620405-5.5-3.5-5.5z" fill="#fff" fill-rule="nonzero" transform="translate(29 24)"/></g></svg>