<svg height="84" viewBox="0 0 84 84" width="84" xmlns="http://www.w3.org/2000/svg" xmlns:xlink="http://www.w3.org/1999/xlink"><linearGradient id="a" x1="0%" x2="100%" y1="94.797796%" y2="0%"><stop offset="0" stop-color="#00bbc4"/><stop offset="1" stop-color="#0ce5ae"/></linearGradient><g fill="none" fill-rule="evenodd"><rect fill="url(#a)" height="64" rx="22" transform="translate(10 10)" width="64"/><path d="m10.3158931.73858224c.7287703-.20914687 1.4891024.21209111 1.6982492.94086137.0917123.31957063.0643362.66156537-.0768209.96200039l-.074178.1615304-.1790795.42675667c-.6888622 1.71729457-1.0474657 3.55584962-1.0474657 5.44532251 0 6.74056942 4.6075805 12.57977682 11.10291 14.33060892l.326327.0841199.3197013.0751965c.7537761.1688874 1.2279222.9168539 1.0590349 1.6706301-.0623278.2781808-.2078749.5295209-.4144582.720598l-.1082754.0903618-.3601153.260692c-2.3930951 1.6758298-5.2549121 2.5927392-8.2543109 2.5927392-7.89928766 0-14.3074116-6.337154-14.3074116-14.160032 0-6.11390234 3.94965806-11.46846335 9.69425813-13.40728145l.31510897-.10235024zm-.7208931 2.36441776-.14369195.05933388c-4.45436972 1.88833007-7.45130805 6.24767277-7.45130805 11.17763412 0 6.7132919 5.50773825 12.160032 12.3074116 12.160032 2.0514534 0 4.0251387-.4965336 5.7817519-1.4220884l.3483871-.1908112.2014494-.1191004-.0736702-.0219682c-6.7888038-2.1235641-11.60953616-8.2344368-11.91348684-15.3556041l-.01142175-.35688649-.00382298-.35848763c0-1.69076611.25321375-3.34747855.74371894-4.92927215l.15425438-.47224965zm9.6437613 2.03327503c.5319902-.97270526 1.7517869-1.32997543 2.7244921-.79798526.2887098.15790061.53342.38392385.7134538.65739274l.0845315.14059252.3217142.58823097c.2408891.44044815.5878694.81237338 1.0080687 1.0829034l.1844724.10963772.588231.32171421c.9727052.53199017 1.3299754 1.75178683.7979852 2.72449209-.1579006.28870978-.3839238.53341998-.6573927.71345378l-.1405925.0845315-.588231.3217142c-.4404482.2408891-.8123734.5878694-1.0829034 1.0080687l-.1096377.1844724-.3217142.588231c-.5319902.9727052-1.7517869 1.3299754-2.7244921.7979852-.2887098-.1579006-.53342-.3839238-.7134538-.6573927l-.0845315-.1405925-.3217142-.588231c-.2408891-.4404482-.5878694-.8123734-1.0080687-1.0829034l-.1844724-.1096377-.588231-.3217142c-.9727052-.5319902-1.3299754-1.75178686-.7979852-2.72449212.1579006-.28870975.3839238-.53342.6573927-.71345379l.1405925-.08453146.588231-.32171421c.4404482-.24088909.8123734-.58786943 1.0829034-1.00806874l.1096377-.18447238zm1.7595169.95648228-.0048065.0032007-.3217142.58823098c-.4129527.75505396-1.0129725 1.38928385-1.7404406 1.84307099l-.2471279.14449754-.588231.3217142-.0032007.00825006.0032007.0048065.588231.3217142c.755054.41295273 1.3892838 1.01297252 1.843071 1.74044062l.1444975.2471279.3217142.588231h.0130566l.3217142-.588231c.4129527-.755054 1.0129725-1.38928384 1.7404406-1.84307098l.2471279-.14449754.588231-.3217142v-.01305656l-.588231-.3217142c-.755054-.41295273-1.3892838-1.01297249-1.843071-1.74044063l-.1444975-.2471279-.3217142-.58823098z" fill="#fff" fill-rule="nonzero" transform="translate(28 27)"/></g></svg>