<svg height="84" viewBox="0 0 84 84" width="84" xmlns="http://www.w3.org/2000/svg" xmlns:xlink="http://www.w3.org/1999/xlink"><linearGradient id="a" x1="0%" x2="100%" y1="94.797796%" y2="0%"><stop offset="0" stop-color="#00bbc4"/><stop offset="1" stop-color="#0ce5ae"/></linearGradient><g fill="none" fill-rule="evenodd"><rect fill="url(#a)" height="64" rx="22" width="64" x="10" y="10"/><path d="m42.5 30c3.5898509 0 6.5 2.9101491 6.5 6.5 0 2.1320593-1.0265048 4.0243655-2.6122522 5.2096566 3.7852004 1.4360879 6.4918776 4.9114929 6.6083418 9.0144863l.0039104.2758571h-2c0-4.4058256-3.7938508-8-8.5-8-4.6189983 0-8.3591741 3.4622894-8.4961152 7.7560846l-.0038848.2439154h-2c0-4.2225806 2.7425021-7.8221429 6.6124079-9.2919585-1.5859031-1.183676-2.6124079-3.0759822-2.6124079-5.2080415 0-3.5898509 2.9101491-6.5 6.5-6.5zm0 2c-2.4852814 0-4.5 2.0147186-4.5 4.5s2.0147186 4.5 4.5 4.5 4.5-2.0147186 4.5-4.5-2.0147186-4.5-4.5-4.5z" fill="#fff" fill-rule="nonzero"/></g></svg>