<svg height="890" viewBox="0 0 890 890" width="890" xmlns="http://www.w3.org/2000/svg"><path d="m525.9295 8.26835929c-26.369334-4.82355138-53.258125-7.26835929-80.4295-7.26835929-245.490571 0-444.5 199.009429-444.5 444.5s199.009429 444.5 444.5 444.5 444.5-199.009429 444.5-444.5c0-85.5908-24.291271-167.735862-69.307978-238.441991-17.265223-27.117866-53.244825-35.105011-80.362691-17.839789-27.117866 17.265223-35.105012 53.244825-17.839789 80.362691 33.207625 52.158027 51.093791 112.643138 51.093791 175.919089 0 181.195422-146.887911 328.083333-328.083333 328.083333s-328.083333-146.887911-328.083333-328.083333 146.887911-328.083333 328.083333-328.083333c20.13749 0 40.015286 1.807347 59.481821 5.36822 31.622866 5.784541 61.947561-15.161559 67.732103-46.7844245 5.784542-31.6228658-15.161558-61.9475613-46.784424-67.73210321z" fill="#fff" opacity=".8"/></svg>