<?xml version="1.0" encoding="UTF-8"?>
<svg width="92px" height="92px" viewBox="0 0 92 92" version="1.1" xmlns="http://www.w3.org/2000/svg" xmlns:xlink="http://www.w3.org/1999/xlink">
    <title>i92_ava_4</title>
    <defs>
        <linearGradient x1="0%" y1="100%" x2="114.218434%" y2="0%" id="linearGradient-1">
            <stop stop-color="#ED4159" offset="0%"></stop>
            <stop stop-color="#FF6C80" offset="100%"></stop>
        </linearGradient>
    </defs>
    <g id="v2" stroke="none" stroke-width="1" fill="none" fill-rule="evenodd">
        <g id="Artboard" transform="translate(-1209.000000, -362.000000)">
            <g id="Group-24-Copy-3" transform="translate(1209.000000, 362.000000)">
                <circle id="Oval" fill="url(#linearGradient-1)" cx="46" cy="46" r="32"></circle>
                <path d="M39.2958984,53.1953125 C40.6891276,53.1953125 41.8105469,52.7949219 42.6601562,51.9941406 C43.5097656,51.1933594 43.9345703,50.1126302 43.9345703,48.7519531 L43.9345703,48.7519531 L43.9345703,38.78125 L41.4736328,38.78125 L41.4736328,48.7421875 C41.4736328,49.5169271 41.2766927,50.1240234 40.8828125,50.5634766 C40.4889323,51.0029297 39.9599609,51.2226562 39.2958984,51.2226562 C38.586263,51.2226562 38.0442708,51.0322266 37.6699219,50.6513672 C37.2955729,50.2705078 37.1083984,49.702474 37.1083984,48.9472656 L37.1083984,48.9472656 L34.6474609,48.9472656 C34.6474609,50.281901 35.0511068,51.3235677 35.8583984,52.0722656 C36.6656901,52.8209635 37.8115234,53.1953125 39.2958984,53.1953125 Z M49.2275391,53 L49.2275391,47.5214844 L51.9814453,47.5214844 L54.8330078,53 L57.4794922,53 L57.4794922,52.8730469 L54.2861328,46.9453125 C55.1064453,46.6002604 55.7460938,46.1070964 56.2050781,45.4658203 C56.6640625,44.8245443 56.8935547,44.0286458 56.8935547,43.078125 C56.8935547,41.6848958 56.4475911,40.6204427 55.5556641,39.8847656 C54.663737,39.1490885 53.3974609,38.78125 51.7568359,38.78125 L51.7568359,38.78125 L46.7568359,38.78125 L46.7568359,53 L49.2275391,53 Z M51.7666016,45.5390625 L49.2275391,45.5390625 L49.2275391,40.7734375 L51.8349609,40.7734375 C52.6943359,40.7864583 53.3404948,41.0013021 53.7734375,41.4179688 C54.2063802,41.8346354 54.4228516,42.4238281 54.4228516,43.1855469 C54.4228516,43.9147135 54.1884766,44.4892578 53.7197266,44.9091797 C53.2509766,45.3291016 52.5999349,45.5390625 51.7666016,45.5390625 L51.7666016,45.5390625 Z" id="JR" fill="#FFFFFF" fill-rule="nonzero"></path>
            </g>
        </g>
    </g>
</svg>