<?xml version="1.0" encoding="UTF-8"?>
<svg width="92px" height="92px" viewBox="0 0 92 92" version="1.1" xmlns="http://www.w3.org/2000/svg" xmlns:xlink="http://www.w3.org/1999/xlink">
    <title>i92_ava_1</title>
    <defs>
        <linearGradient x1="0%" y1="100%" x2="114.218434%" y2="0%" id="linearGradient-1">
            <stop stop-color="#8211C6" offset="0%"></stop>
            <stop stop-color="#DA2082" offset="100%"></stop>
        </linearGradient>
    </defs>
    <g id="v2" stroke="none" stroke-width="1" fill="none" fill-rule="evenodd">
        <g id="Artboard" transform="translate(-713.000000, -362.000000)">
            <g id="Group-24" transform="translate(501.000000, 253.000000)">
                <circle id="Oval" fill="url(#linearGradient-1)" cx="258" cy="155" r="32"></circle>
                <path d="M248.996094,162 L248.996094,156.716797 L251.935547,156.716797 C253.582682,156.716797 254.863607,156.329427 255.77832,155.554688 C256.693034,154.779948 257.150391,153.695964 257.150391,152.302734 C257.150391,150.942057 256.683268,149.848307 255.749023,149.021484 C254.814779,148.194661 253.553385,147.78125 251.964844,147.78125 L251.964844,147.78125 L246.525391,147.78125 L246.525391,162 L248.996094,162 Z M251.964844,154.734375 L248.996094,154.734375 L248.996094,149.773438 L252.033203,149.773438 C252.853516,149.786458 253.498047,150.022461 253.966797,150.481445 C254.435547,150.94043 254.669922,151.554036 254.669922,152.322266 C254.669922,153.103516 254.438802,153.700846 253.976562,154.114258 C253.514323,154.527669 252.84375,154.734375 251.964844,154.734375 L251.964844,154.734375 Z M264.582031,162.195312 C266.203125,162.195312 267.501953,161.770508 268.478516,160.920898 C269.455078,160.071289 270.014974,158.888021 270.158203,157.371094 L270.158203,157.371094 L267.697266,157.371094 C267.567057,158.386719 267.257812,159.11263 266.769531,159.548828 C266.28125,159.985026 265.552083,160.203125 264.582031,160.203125 C263.520833,160.203125 262.715169,159.799479 262.165039,158.992188 C261.614909,158.184896 261.339844,157.013021 261.339844,155.476562 L261.339844,155.476562 L261.339844,154.216797 C261.352865,152.69987 261.647461,151.549154 262.223633,150.764648 C262.799805,149.980143 263.625,149.587891 264.699219,149.587891 C265.623698,149.587891 266.325195,149.814128 266.803711,150.266602 C267.282227,150.719076 267.580078,151.45638 267.697266,152.478516 L267.697266,152.478516 L270.158203,152.478516 C270.001953,150.922526 269.445312,149.718099 268.488281,148.865234 C267.53125,148.01237 266.268229,147.585938 264.699219,147.585938 C263.533854,147.585938 262.506836,147.86263 261.618164,148.416016 C260.729492,148.969401 260.047526,149.757161 259.572266,150.779297 C259.097005,151.801432 258.859375,152.983073 258.859375,154.324219 L258.859375,154.324219 L258.859375,155.652344 C258.878906,156.960938 259.123047,158.110026 259.591797,159.099609 C260.060547,160.089193 260.726237,160.852539 261.588867,161.389648 C262.451497,161.926758 263.449219,162.195312 264.582031,162.195312 Z" id="PC" fill="#FFFFFF" fill-rule="nonzero"></path>
            </g>
        </g>
    </g>
</svg>