<?xml version="1.0" encoding="UTF-8"?>
<svg width="92px" height="92px" viewBox="0 0 92 92" version="1.1" xmlns="http://www.w3.org/2000/svg" xmlns:xlink="http://www.w3.org/1999/xlink">
    <title>i92_ava_5</title>
    <defs>
        <linearGradient x1="0%" y1="100%" x2="114.218434%" y2="0%" id="linearGradient-1">
            <stop stop-color="#14A7CC" offset="0%"></stop>
            <stop stop-color="#6ADFFD" offset="100%"></stop>
        </linearGradient>
    </defs>
    <g id="v2" stroke="none" stroke-width="1" fill="none" fill-rule="evenodd">
        <g id="Artboard" transform="translate(-1468.000000, -362.000000)">
            <g id="Group-24-Copy-4" transform="translate(1468.000000, 362.000000)">
                <circle id="Oval" fill="url(#linearGradient-1)" cx="46" cy="46" r="32"></circle>
                <path d="M37.5380859,53.1953125 C38.6969401,53.1953125 39.7320964,53.0227865 40.6435547,52.6777344 C41.555013,52.3326823 42.2679036,51.8248698 42.7822266,51.1542969 L42.7822266,51.1542969 L42.7822266,45.7050781 L37.3916016,45.7050781 L37.3916016,47.5800781 L40.3212891,47.5800781 L40.3212891,50.3632812 C39.7874349,50.9361979 38.8889974,51.2226562 37.6259766,51.2226562 C36.4736328,51.2226562 35.5735677,50.7978516 34.9257812,49.9482422 C34.2779948,49.0986328 33.9541016,47.905599 33.9541016,46.3691406 L33.9541016,46.3691406 L33.9541016,45.2753906 C33.9736328,43.7324219 34.2714844,42.5621745 34.8476562,41.7646484 C35.4238281,40.9671224 36.2652995,40.5683594 37.3720703,40.5683594 C39.0843099,40.5683594 40.0771484,41.4244792 40.3505859,43.1367188 L40.3505859,43.1367188 L42.7724609,43.1367188 C42.5836589,41.6653646 42.023763,40.5390625 41.0927734,39.7578125 C40.1617839,38.9765625 38.9052734,38.5859375 37.3232422,38.5859375 C35.4807943,38.5859375 34.0452474,39.1897786 33.0166016,40.3974609 C31.9879557,41.6051432 31.4736328,43.2832031 31.4736328,45.4316406 L31.4736328,45.4316406 L31.4736328,46.5449219 C31.4931641,47.8860677 31.7519531,49.0595703 32.25,50.0654297 C32.7480469,51.0712891 33.4560547,51.844401 34.3740234,52.3847656 C35.2919922,52.9251302 36.3466797,53.1953125 37.5380859,53.1953125 Z M47.9580078,53 L47.9580078,48.3125 L47.7138672,42.0527344 L51.9033203,53 L53.6708984,53 L57.8701172,42.0429688 L57.6259766,48.3125 L57.6259766,53 L60.0869141,53 L60.0869141,38.78125 L56.8935547,38.78125 L52.8017578,49.6796875 L48.7001953,38.78125 L45.4970703,38.78125 L45.4970703,53 L47.9580078,53 Z" id="GM" fill="#FFFFFF" fill-rule="nonzero"></path>
            </g>
        </g>
    </g>
</svg>