<?xml version="1.0" encoding="UTF-8"?>
<svg width="92px" height="92px" viewBox="0 0 92 92" version="1.1" xmlns="http://www.w3.org/2000/svg" xmlns:xlink="http://www.w3.org/1999/xlink">
    <title>i92_ava_3</title>
    <defs>
        <linearGradient x1="0%" y1="100%" x2="114.218434%" y2="0%" id="linearGradient-1">
            <stop stop-color="#80BD18" offset="0%"></stop>
            <stop stop-color="#B6F647" offset="100%"></stop>
        </linearGradient>
    </defs>
    <g id="v2" stroke="none" stroke-width="1" fill="none" fill-rule="evenodd">
        <g id="Artboard" transform="translate(-1022.000000, -362.000000)">
            <g id="Group-24-Copy-2" transform="translate(1022.000000, 362.000000)">
                <circle id="Oval" fill="url(#linearGradient-1)" cx="46" cy="46" r="32"></circle>
                <path d="M38.4316406,53.1953125 C39.8248698,53.1953125 40.9462891,52.7949219 41.7958984,51.9941406 C42.6455078,51.1933594 43.0703125,50.1126302 43.0703125,48.7519531 L43.0703125,48.7519531 L43.0703125,38.78125 L40.609375,38.78125 L40.609375,48.7421875 C40.609375,49.5169271 40.4124349,50.1240234 40.0185547,50.5634766 C39.6246745,51.0029297 39.0957031,51.2226562 38.4316406,51.2226562 C37.7220052,51.2226562 37.180013,51.0322266 36.8056641,50.6513672 C36.4313151,50.2705078 36.2441406,49.702474 36.2441406,48.9472656 L36.2441406,48.9472656 L33.7832031,48.9472656 C33.7832031,50.281901 34.186849,51.3235677 34.9941406,52.0722656 C35.8014323,52.8209635 36.9472656,53.1953125 38.4316406,53.1953125 Z M48.3632812,53 L48.3632812,46.6816406 L54.7207031,46.6816406 L54.7207031,53 L57.1816406,53 L57.1816406,38.78125 L54.7207031,38.78125 L54.7207031,44.6992188 L48.3632812,44.6992188 L48.3632812,38.78125 L45.8925781,38.78125 L45.8925781,53 L48.3632812,53 Z" id="JH" fill="#FFFFFF" fill-rule="nonzero"></path>
            </g>
        </g>
    </g>
</svg>