<svg height="95" viewBox="0 0 95 95" width="95" xmlns="http://www.w3.org/2000/svg"><g fill="#fff" fill-rule="evenodd" transform="translate(11 20)"><path d="m24.2178842 0-17.5736727 17.4566137h-6.6442115v1.2194884h71.8579475v-1.2194884h-25.4181097l-8.400097-8.28748329-8.2415487 8.28748329h-4.7164419l17.5114388-17.4566137z"/><path d="m0 36.1321231v1.2165248h25.2343715l8.2074682 8.1970959 8.3556442-8.1970959h4.4838056l-17.3958615 17.3143648h9.1869115 9.1883933l9.146904-9.0535532 8.3245273-8.2608116h7.1257834v-1.2165248z"/><path d="m13.9125403 25.056264c.34525 0 .6682737.0474163.969071.1452124.3007972.0963144.6030763.2133735.9038735.3556224l.672719-1.7306956c-.8016321-.382294-1.6432717-.5749228-2.5219554-.5749228-.8060774 0-1.5084316.1704024-2.1026173.5156524-.5971492.3422866-1.0520495.8327491-1.3691462 1.4728694-.3185783.6386385-.4756449 1.3795185-.4756449 2.2211581 0 1.3469198.3259872 2.3782247.9824068 3.0909512.6534562.7112448 1.5973372 1.0698307 2.8242344 1.0698307.857939 0 1.6269724-.1511395 2.3071002-.4519368v-1.8596087c-.3437683.1407672-.6816095.2622715-1.0209325.3600677-.3363595.1022414-.6860549.1526212-1.0461225.1526212-1.1928168 0-1.7884843-.783851-1.7884843-2.3500712 0-.7542158.148176-1.345438.4415645-1.7736666.2919067-.4282286.7008724-.6430838 1.2239337-.6430838"/><path d="m23.6626688 29.8330134c-.3793306 0-.7942234-.0607521-1.2476419-.1807747-.450455-.1200225-.889056-.2874614-1.308394-.5037983v1.9603683c.3971116.1881835.7794057.3215419 1.1468822.3971117.3674764.0785333.8223767.1140955 1.3647009.1140955.6490108 0 1.2150431-.1081685 1.6980968-.3259872.4830538-.2163369.852012-.5200977 1.1083565-.9127641.2563444-.3911846.3837758-.8371943.3837758-1.3439562 0-.549733-.1363219-1.006115-.4089658-1.3676645-.2726438-.3615494-.7601428-.7008724-1.4610152-1.0164873-.7319894-.3333959-1.1809627-.561587-1.3454381-.6890183-.1644753-.1274314-.2474539-.2696803-.2474539-.4282286 0-.1496578.0651975-.2741256.1941106-.3734035.1303949-.1007597.339323-.1511396.6238209-.1511396.5526965 0 1.2105979.1748477 1.9707407.5245431l.6742008-1.6995787c-.8757201-.3897028-1.7351409-.5838134-2.5782623-.5838134-.9542534 0-1.7040239.2089282-2.2493116.6282662-.5452876.4208198-.8179314 1.0046332-.8179314 1.7544038 0 .4000751.0637156.7482887.191147 1.0401954.1289131.2933885.3259872.5541782.5912222.7808875.2667168.2252275.6638285.4593456 1.1942985.7008725.5867769.2637532.9468446.4386009 1.0831665.524543.1348402.0844603.2341181.1689206.2948702.2533809.0607522.0829786.0918692.1807747.0918692.2919067 0 .1778112-.0755698.3245055-.2281911.4356374-.1526212.1140956-.3926664.1704024-.7186535.1704024"/><path d="m34.0422489 29.8330134c-.3793306 0-.7942234-.0607521-1.2476419-.1807747-.4519368-.1200225-.889056-.2874614-1.308394-.5037983v1.9603683c.3971116.1881835.7794057.3215419 1.1468822.3971117.3674764.0785333.8223767.1140955 1.3647009.1140955.6490108 0 1.2150431-.1081685 1.6980968-.3259872.4830538-.2163369.852012-.5200977 1.1083565-.9127641.2563444-.3911846.3837758-.8371943.3837758-1.3439562 0-.549733-.1363219-1.006115-.4089658-1.3676645-.2726438-.3615494-.7601428-.7008724-1.4610153-1.0164873-.7319894-.3333959-1.1824444-.561587-1.345438-.6890183-.1644753-.1274314-.2474539-.2696803-.2474539-.4282286 0-.1496578.0651975-.2741256.1941106-.3734035.1303949-.1007597.3378412-.1511396.6238209-.1511396.5526965 0 1.2105979.1748477 1.9722225.5245431l.672719-1.6995787c-.8757201-.3897028-1.7351409-.5838134-2.5782623-.5838134-.9542534 0-1.7055057.2089282-2.2493116.6282662-.5452876.4208198-.8179314 1.0046332-.8179314 1.7544038 0 .4000751.0622339.7482887.191147 1.0401954.1289131.2933885.3259872.5541782.5912222.7808875.265235.2252275.6638284.4593456 1.1928167.7008725.5882587.2637532.9483264.4386009 1.0846483.524543.1348402.0844603.2341181.1689206.2948702.2533809.0607522.0829786.0918691.1807747.0918691.2919067 0 .1778112-.0755697.3245055-.228191.4356374-.1526213.1140956-.3926664.1704024-.7186535.1704024"/><path d="m46.4041274 29.1239913c-.3141331.3882211-.8016321.5823317-1.4699059.5823317h-.4904625v-4.5623388h.6386385c.6030763 0 1.0505678.1822564 1.3469198.5408423.2948702.3615494.4400827.9142459.4400827 1.6595711 0 .7986686-.154103 1.3898909-.4652726 1.7795937m2.7486646-1.8566452c0-1.2624594-.3556223-2.2270851-1.0639036-2.8953589-.7127265-.6682737-1.7203233-1.0031514-3.0272355-1.0031514h-2.8183074v8.1393072h2.6345692c1.3558103 0 2.4063781-.3674764 3.1546668-1.1009476.7482888-.7349529 1.1202105-1.7810754 1.1202105-3.1398493"/><path d="m57.4696141 25.6134057c.0977962-.4341557.1644754-.7482888.1985559-.9364723.0355622.2044829.1126137.5408424.2296728 1.0150056.117059.4697179.2178187.8549755.2978337 1.1498457l.3526589 1.3365474h-1.7321774c.3363595-1.2757953.5571417-2.1307707.6534561-2.5649264zm1.5336216 4.36971.4030387 1.5262127h2.4048963l-2.690876-8.1733877h-2.9324029l-2.6567955 8.1733877h2.4167504l.4104475-1.5262127z"/></g></svg>