<svg height="95" viewBox="0 0 95 95" width="95" xmlns="http://www.w3.org/2000/svg"><path d="m21.8151824 23.0032793c.5914673 2.5181423.3058718 4.7841052-.8567865 6.7978884-.96228 1.6667178-2.3745621 2.8995013-4.2368466 3.6983505-3.2097328 6.5343246-4.0020381 13.2000098-2.3863353 20.0238482 1.2587756 5.3163745 4.5093477 10.8726668 9.5795548 16.6985729.315594.3626323 1.8951405 2.0633577 2.0966641 2.2846547 1.0495355 1.1525161-.0936656 2.1086482-1.1135997.9886379-.1863747-.2046618-1.784813-1.9257282-2.1197337-2.3105679-5.2192896-5.9972087-8.5901137-11.7590512-9.9130173-17.3462673-1.6873859-7.1265879-.8700087-14.1033277 2.4427511-20.9038721-.3063925-2.1186972.0431403-4.0487979 1.0485982-5.7903022 1.1626584-2.0137833 2.982242-3.3940977 5.4587509-4.1409431zm51.3696352 0c2.4765089.7468454 4.2960925 2.1271598 5.4587509 4.1409431 1.0054579 1.7415043 1.3549907 3.671605 1.0485982 5.7903022 3.3127598 6.8005444 4.130137 13.7772842 2.4427511 20.9038721-1.3229036 5.5872161-4.6937277 11.3490586-9.9130173 17.3462673-.3349207.3848397-1.933359 2.1059061-2.1197337 2.3105679-1.0199341 1.1200103-2.1631352.1638782-1.1135997-.9886379.2015236-.221297 1.7810701-1.9220224 2.0966641-2.2846547 5.0702071-5.8259061 8.3207792-11.3821984 9.5795548-16.6985729 1.6157028-6.8238384.8233975-13.4895236-2.3863353-20.0238482-1.8622845-.7988492-3.2745666-2.0316327-4.2368466-3.6983505-1.1626583-2.0137832-1.4482538-4.2797461-.8567865-6.7978884zm-55.2411248 45.0740708c1.7238388.5683601 3.0200011 1.9092814 3.8884867 4.0227639-1.9264094 1.1919886-3.7515336 1.5038029-5.4753724.9354427-1.7238389-.5683601-3.0200011-1.9092814-3.8884867-4.0227639 1.9264094-1.1919886 3.7515335-1.5038029 5.4753724-.9354427zm59.1126144 0c1.7238389-.5683602 3.548963-.2565459 5.4753724.9354427-.8684856 2.1134825-2.1646478 3.4544038-3.8884867 4.0227639-1.7238388.5683602-3.548963.2565459-5.4753724-.9354427.8684856-2.1134825 2.1646479-3.4544038 3.8884867-4.0227639zm-52.0981171-7.8831244c1.723797 1.5250795 2.5625107 3.180698 2.516141 4.9668556-.0463698 1.7861575-.9690432 3.3646633-2.7680204 4.7355174-1.7237971-1.5250794-2.5625107-3.180698-2.516141-4.9668555.0463697-1.7861576.9690432-3.3646634 2.7680204-4.7355175zm45.0836198 0c1.7989772 1.3708541 2.7216507 2.9493599 2.7680204 4.7355175.0463697 1.7861575-.7923439 3.4417761-2.516141 4.9668555-1.7989772-1.3708541-2.7216506-2.9493599-2.7680204-4.7355174-.0463697-1.7861576.792344-3.4417761 2.516141-4.9668556zm-56.7615802.3895813c1.6177434.8265448 2.6896512 2.3476916 3.2157236 4.5634404-2.0968079.8756549-3.9540835.90021-5.5718269.0736653-1.61774338-.8265448-2.68965126-2.3476916-3.21572363-4.5634404 2.09680788-.875655 3.95408353-.9002101 5.57182693-.0736653zm68.4395406 0c1.6177434-.8265448 3.475019-.8019897 5.5718269.0736653-.5260723 2.2157488-1.5979802 3.7368956-3.2157236 4.5634404-1.6177434.8265447-3.475019.8019896-5.5718269-.0736653.5260724-2.2157488 1.5979802-3.7368956 3.2157236-4.5634404zm-60.2442871-6.6773587c1.466397 1.7686962 2.0353885 3.5289414 1.7069744 5.2807356s-1.4920519 3.1634531-3.4909134 4.2349766c-1.4663971-1.7686962-2.0353885-3.5289414-1.7069744-5.2807356.3284141-1.7517943 1.4920519-3.1634531 3.4909134-4.2349766zm52.0490336 0c1.9988615 1.0715235 3.1624993 2.4831823 3.4909134 4.2349766.3284141 1.7517942-.2405773 3.5120394-1.7069744 5.2807356-1.9988615-1.0715235-3.1624993-2.4831824-3.4909134-4.2349766s.2405774-3.5120394 1.7069744-5.2807356zm-24.8447265-14.8992776 3.3662951 10.3667373 3.0421334-10.3157951h5.0120393l-5.8349115 17.9571249h-4.2141027l-3.5159082-10.264853-3.4909727 10.264853h-4.2141028l-5.8349115-17.9571249h5.1117815l3.0421333 10.3157951 3.3662951-10.3667373zm15.3104088 12.9138472v4.9668644h-4.9372328v-4.9668644zm-53.5755193-.6568184c1.3330408 1.2315166 1.9450358 2.9782954 1.8359851 5.2403364-2.27033669.2653584-4.07202542-.2177207-5.40506616-1.4492372s-1.94503578-2.9782953-1.83598512-5.2403364c2.27033673-.2653584 4.07202546.2177207 5.40506618 1.4492372zm74.1706404 0c1.3330407-1.2315165 3.1347295-1.7145956 5.4050662-1.4492372.1090506 2.2620411-.5029444 4.0088199-1.8359851 5.2403364-1.3330408 1.2315165-3.1347295 1.7145956-5.4050662 1.4492372-.1090507-2.262041.5029443-4.0088198 1.8359851-5.2403364zm-64.3901466-4.1492784c.924242 2.0910636.9835983 3.9292868.1780688 5.5146694-.8055295 1.5853827-2.3234259 2.6177487-4.5536892 3.0970982-.924242-2.0910636-.9835983-3.9292867-.1780688-5.5146694.8055295-1.5853826 2.3234259-2.6177487 4.5536892-3.0970982zm54.6096528 0c2.2302633.4793495 3.7481597 1.5117156 4.5536892 3.0970982.8055295 1.5853827.7461732 3.4236058-.1780688 5.5146694-2.2302633-.4793495-3.7481597-1.5117155-4.5536892-3.0970982-.8055295-1.5853826-.7461732-3.4236058.1780688-5.5146694zm-53.550359-6.709471c.2310571 2.2593119-.2864214 4.015154-1.5524357 5.2675261-1.2660142 1.2523721-3.0408572 1.7641504-5.324529 1.5353348-.2310571-2.259312.2864215-4.015154 1.5524357-5.2675261s3.0408572-1.7641504 5.324529-1.5353348zm52.4910652 0c2.2836718-.2288156 4.0585148.2829627 5.324529 1.5353348s1.7834928 3.0082141 1.5524357 5.2675261c-2.2836718.2288156-4.0585148-.2829627-5.324529-1.5353348-1.2660143-1.2523721-1.7834928-3.0082142-1.5524357-5.2675261zm-67.86414673-2.0909259c2.25516209.4433571 3.82810499 1.4509214 4.71882863 3.0226928.8907237 1.5717714.9305788 3.410151.1195651 5.5151388-2.25516209-.443357-3.82810498-1.4509213-4.71882867-3.0226927s-.93057871-3.410151-.11956506-5.5151389zm83.23722823 0c.8110137 2.1049879.7711587 3.9433675-.119565 5.5151389s-2.4636666 2.5793357-4.7188287 3.0226927c-.8110137-2.1049878-.7711586-3.9433674.1195651-5.5151388.8907236-1.5717714 2.4636665-2.5793357 4.7188286-3.0226928zm-65.1604675-4.0227621c-.3273372 2.2373489-1.2612064 3.8092628-2.8016075 4.7157415-1.5404011.9064788-3.3956749.9758899-5.5658213.2082333.3273372-2.237349 1.2612063-3.8092628 2.8016075-4.7157416 1.5404011-.9064787 3.3956748-.9758898 5.5658213-.2082332zm47.0837068 0c2.1701465-.7676566 4.0254202-.6982455 5.5658213.2082332 1.5404012.9064788 2.4742703 2.4783926 2.8016075 4.7157416-2.1701464.7676566-4.0254202.6982455-5.5658213-.2082333-1.5404011-.9064787-2.4742703-2.4783926-2.8016075-4.7157415zm-61.557903-5.6994308c2.089884.9680356 3.3767543 2.3176711 3.8606108 4.0489064.4838566 1.7312353.0730861 3.5162787-1.2323114 5.3551301-2.089884-.9680355-3.37675427-2.317671-3.86061083-4.0489063s-.07308608-3.5162787 1.23231143-5.3551302zm76.0320992 0c1.3053975 1.8388515 1.716168 3.6238949 1.2323114 5.3551302-.4838565 1.7312353-1.7707268 3.0808708-3.8606108 4.0489063-1.3053975-1.8388514-1.716168-3.6238948-1.2323114-5.3551301.4838565-1.7312353 1.7707268-3.0808708 3.8606108-4.0489064z" fill="#fff"/></svg>