<svg height="148" viewBox="0 0 148 148" width="148" xmlns="http://www.w3.org/2000/svg"><g fill="none"><path d="m73.99 147.2c-40.311 0-72.99-32.952-72.99-73.6s32.679-73.6 72.99-73.6c40.31 0 72.99 32.952 72.99 73.6s-32.68 73.6-72.99 73.6zm0-9.6c34.99 0 63.39-28.636 63.39-64s-28.4-64-63.39-64c-34.992 0-63.39 28.636-63.39 64s28.398 64 63.39 64zm2.505-80.511c-1.35-4.219-2.7-4.219-4.051 0l-14.651 39.261c-.651 1.727-1.845 2.676-3.581 2.849h-6.078c-2.122-.173-2.797-1.616-2.025-4.33l20.547-52.99c1.326-2.368 3.93-3.528 7.813-3.478 3.859.024 6.367 1.282 7.525 3.774l21.125 52.99c.724 2.517.049 3.8-2.025 3.849l-6.078.185c-1.76-.173-2.978-1.135-3.653-2.886z" fill="#fff"/><path d="m74.868 86.404c4.088 0 6.132 2.145 6.132 6.437 0 4.29-2.133 6.41-6.4 6.358-4.267-.078-6.4-2.25-6.4-6.515 0-4.292 2.223-6.385 6.668-6.28z" fill="#ed4159"/></g></svg>