<svg height="168" width="168" xmlns="http://www.w3.org/2000/svg" xmlns:xlink="http://www.w3.org/1999/xlink"><linearGradient id="a" x1="18.0755%" x2="81.9245%" y1="27.0154%" y2="73.6889%"><stop offset="0" stop-color="#ed4180"/><stop offset="1" stop-color="#ed4159"/></linearGradient><linearGradient id="b" x1="0%" x2="100%" y1="68.5891%" y2="21.1457%"><stop offset="0" stop-color="#ed4159" stop-opacity=".36"/><stop offset="1" stop-color="#ed4159"/></linearGradient><g fill="none" fill-rule="evenodd"><path d="m118.2756 31.9863c-29.2577-16.892-67.022-24.6514-78.5134 7.3169-5.3605 14.9124 5.2474 36.4956 8.1729 50.6502l.5113 2.55c3.5106 17.2213 11.315 47.7278 26.5322 56.5135 29.2578 16.892 47.2637-7.8885 64.2847-37.3698s8.2701-62.7688-20.9877-79.6608z" fill="url(#a)" opacity=".12"/><path d="m129.0027 99.208.8286-1.6413c13.337-26.6743 16.8845-46.7396-7.2385-61.9839-24.6153-15.5554-93.5798 24.178-101.1696 39.0742-14.0092 27.4947 14.0527 48.8837 41.47 62.8535s52.1003-10.8077 66.1095-38.3023z" fill="url(#b)"/><path d="m70.3612 104.3706c-.6307 1.0447-1.7791 1.6293-2.9583 1.6294a3.5087 3.5087 0 0 1 -1.699-.436c-1.628-.8988-2.1877-2.8967-1.2479-4.4535l.6706-1.1105h7.8734zm-6.8546-7.3706c-1.9335 0-3.5066-1.5682-3.5066-3.4959 0-1.9276 1.573-3.4958 3.5066-3.4958h6.898l9.4615-16.3375-2.5642-4.4277c-.9667-1.6694-.391-3.8116 1.2835-4.7755h.0001c1.6745-.9638 3.8234-.3896 4.79 1.2796l.5398.932.5398-.9318c.9671-1.6695 3.116-2.2434 4.79-1.2797.8112.467 1.3915 1.2208 1.6339 2.1227.2425.902.118 1.8442-.3504 2.6528l-12.0257 20.765h7.5854l4.0492 6.9918zm41.0333-.3055h-2.8112l2.2786 4.0188c.954 1.6824.3859 3.8415-1.2663 4.813-.5332.3135-1.125.4737-1.7246.4737a3.416 3.416 0 0 1 -.9012-.1216c-.8928-.2437-1.639-.8268-2.1011-1.642l-12.0141-21.1894 3.9953-7.047 7.7381 13.6476h6.8065c1.9079 0 3.4601 1.5806 3.4601 3.5235 0 1.9428-1.5522 3.5234-3.4601 3.5234z" fill="#f2bdc6"/><path d="m113.4567 122.2838c28.1902-12.5511 44.3996-25.9003 35.0592-53.48-9.3403-27.5798-87.9407-40.1018-103.2136-33.3018-28.1902 12.551-19.8425 46.8334-7.3268 74.9442 12.5158 28.1108 47.291 24.3886 75.4812 11.8376z" stroke="#ed4159"/></g></svg>