<svg width="168" height="168" xmlns="http://www.w3.org/2000/svg"><defs><linearGradient x1="0%" y1="29.4434%" x2="100%" y2="71.1865%" id="a"><stop stop-color="#ED4180" offset="0%"/><stop stop-color="#ED4159" offset="100%"/></linearGradient><linearGradient x1="21.453%" y1="86.3947%" x2="91.5887%" y2="12.7503%" id="b"><stop stop-color="#ED4159" stop-opacity=".36" offset="0%"/><stop stop-color="#ED4159" offset="100%"/></linearGradient></defs><g fill="none" fill-rule="evenodd"><path d="M95.2999 148.397c32.4592-5.7234 65.4972-23.8988 53.8962-55.8-5.4095-14.8755-26.9149-24.6734-38.0271-33.6738l-1.5848-1.3015c-13.3736-10.9392-38.7797-29.8029-55.8379-26.795-32.4592 5.7234-30.247 36.2667-24.3356 69.7916 5.9113 33.5249 33.43 53.5022 65.8892 47.7788z" fill="url(#a)" opacity=".12"/><path d="M133.6653 94.2258c9.022-29.5096 9.5816-50.501-17.361-61.5456C89.3619 21.6355 28.345 72.7409 23.457 88.7286c-9.022 29.5097 22.3278 45.7008 51.7544 54.6974 29.4266 8.9966 49.432-19.6906 58.454-49.2002z" fill="url(#b)"/><path d="M97.743 81.2849c0-2.7414 2.2553-4.9702 5.0293-4.9702s5.0294 2.2288 5.0294 4.9702c0 2.7056-2.2071 4.9106-4.9329 4.9702h-.193c-2.7378-.0477-4.9329-2.2527-4.9329-4.9702zm-20.1901-2.4792c0-3.7544 3.0876-6.8057 6.8868-6.8057s6.8868 3.0513 6.8868 6.8057c0 3.6234-2.8826 6.5912-6.4888 6.7938h-.796c-3.6062-.2026-6.4888-3.1704-6.4888-6.7938zM61.1983 81.285c0-2.7414 2.2554-4.9702 5.0294-4.9702s5.0294 2.2288 5.0294 4.9702c0 2.7056-2.2072 4.9106-4.933 4.9702H66.1313c-2.7258-.0477-4.933-2.2527-4.933-4.9702zm7.9843 15.9714H56c.5427-5.0775 4.8847-9.0584 10.1553-9.0942H66.3c2.5087.012 4.8003.9297 6.5733 2.4195-1.7368 1.8594-3.0273 4.1478-3.6907 6.6747zM70.618 102v-.8105c0-7.4017 5.9822-13.4565 13.4238-13.671.1327.0119.2774.0119.41.0119.1327 0 .2775 0 .4101-.012 7.4416.2146 13.4239 6.2694 13.4239 13.6711V102H70.6179zm29.103-4.7437c-.6633-2.515-1.9297-4.7676-3.6545-6.627 1.785-1.5256 4.1008-2.4434 6.6336-2.4672h.1447c5.2706.0358 9.6126 4.0167 10.1553 9.0942H99.721z" fill="#F2BDC6"/><path d="M88.5203 133.2443c30.689 3.2255 51.4013-.2305 57.1022-28.7855 5.7009-28.5549-56.1081-78.6994-72.7348-80.447-30.689-3.2255-40.6008 30.6377-43.8173 61.2403-3.2164 30.6025 28.761 44.7666 59.4499 47.9922z" stroke="#ED4159"/></g></svg>