<svg height="168" width="168" xmlns="http://www.w3.org/2000/svg" xmlns:xlink="http://www.w3.org/1999/xlink"><linearGradient id="a" x1="0%" x2="100%" y1="32.7884%" y2="67.739%"><stop offset="0" stop-color="#ed4180"/><stop offset="1" stop-color="#ed4159"/></linearGradient><linearGradient id="b" x1="71.4073%" x2="14.7941%" y1="90.0227%" y2="9.2692%"><stop offset="0" stop-color="#ed4159" stop-opacity=".36"/><stop offset="1" stop-color="#ed4159"/></linearGradient><g fill="none" fill-rule="evenodd"><path d="m29.9038 66.1828c-11.5548 31.7465-12.6386 70.2845 20.8395 76.05 15.6185 2.69 35.0346-11.5084 48.4663-16.846l2.4176-.9443c16.35-6.4478 45.038-19.431 51.0477-35.9427 11.5548-31.7465-15.9759-45.1758-47.9649-56.8188s-63.2513 2.7553-74.806 34.5019z" fill="url(#a)" opacity=".12"/><path d="m97.708 34.4973-1.6413-.8286c-26.6743-13.337-46.7396-16.8845-61.9839 7.2385-15.5554 24.6153 24.178 93.5797 39.0741 101.1696 27.4947 14.0092 48.8837-14.0527 62.8535-41.47s-10.8077-52.1003-38.3023-66.1095z" fill="url(#b)"/><path d="m84 86v16h-16v-16zm19 0v16h-16v-16zm-19-19v16h-16v-16zm19 0v16h-16v-16z" fill="#f2bdc6"/><path d="m42.696 55.2124-1.0752 1.4916c-17.3455 24.2595-23.9883 43.5228-2.547 62.353 21.8788 19.2147 96.2098-9.2412 106.0365-22.7666 18.1379-24.9646-6.2326-50.4801-31.127-68.567-24.8943-18.0867-53.1494 2.5245-71.2873 27.4891z" stroke="#ed4159"/></g></svg>