<svg height="132" viewBox="0 0 131 132" width="131" xmlns="http://www.w3.org/2000/svg"><path d="m11 78.818 3.818-3.818-2.182-2.182-3.818 3.818-3.818-3.818-2.182 2.182 3.818 3.818-3.818 3.818 2.182 2.182 3.818-3.818 3.818 3.818 2.182-2.182zm116.778-.454 2.475-2.475-1.414-1.414-2.475 2.475-2.475-2.475-1.414 1.414 2.475 2.475-2.475 2.475 1.414 1.414 2.475-2.475 2.475 2.475 1.414-1.414zm-58.657-74 2.475-2.475-1.414-1.414-2.475 2.475-2.475-2.475-1.414 1.414 2.475 2.475-2.475 2.475 1.414 1.414 2.475-2.475 2.475 2.475 1.414-1.414zm-52.121 21.636c3.3137085 0 6 2.6862915 6 6s-2.6862915 6-6 6-6-2.6862915-6-6 2.6862915-6 6-6zm0 2c-2.209139 0-4 1.790861-4 4s1.790861 4 4 4 4-1.790861 4-4-1.790861-4-4-4zm103 4c2.209139 0 4 1.790861 4 4s-1.790861 4-4 4-4-1.790861-4-4 1.790861-4 4-4zm0 1.5c-1.380712 0-2.5 1.1192881-2.5 2.5s1.119288 2.5 2.5 2.5 2.5-1.1192881 2.5-2.5-1.119288-2.5-2.5-2.5zm-66 92.772h24c8 0 12-3 12-3h-48s4 3 12 3zm6 5h12c2.98 0 8-3 8-3h-28s5 3 8 3zm41-31.272c.608-1.328.363-1.045 1-2 3.844 0 25.502-6.386 29-9 0 9.552-11.244 10.573-30 11zm-2 5 1-2s20.182-.999 25-3c-3.121 9.583-26 5-26 5zm-2 5 1-2s13.916.962 19.454 0c-5.151 8.878-20.454 2-20.454 2zm-67-10c-.608-1.328-.363-1.045-1-2-3.844 0-25.502-6.386-29-9 0 9.552 11.244 10.573 30 11zm2 5-1-2s-20.182-.999-25-3c3.121 9.583 26 5 26 5zm1 3 1 2s-15.303 6.878-20.454-2c5.538.962 19.454 0 19.454 0zm32-82c14.3594035 0 26 11.6405965 26 26s-11.6405965 26-26 26-26-11.6405965-26-26 11.6405965-26 26-26zm0 2c-13.254834 0-24 10.745166-24 24s10.745166 24 24 24 24-10.745166 24-24-10.745166-24-24-24zm0 1c12.7025492 0 23 10.2974508 23 23s-10.2974508 23-23 23-23-10.2974508-23-23 10.2974508-23 23-23zm0 40c-.5128358 0-.9355072.3860402-.9932723.8833789l-.0067277.1166211v2c0 .5522847.4477153 1 1 1 .5128358 0 .9355072-.3860402.9932723-.8833789l.0067277-.1166211v-2c0-.5522847-.4477153-1-1-1zm11.3868566-29.6161324-12.106241 12.5530205-8.1214882-6.6288628c-.5568666-.4545145-1.3755902-.3772487-1.8375942.17342-.4767823.5682832-.4584374 1.401953.0428816 1.948713l8.9196696 9.7281754c.3790534.413412.8960607.6248645 1.4159261.6285004l.0231896.0032639c.5093591.0503811 1.0379379-.0935517 1.4650053-.4437401.1271518-.1042625.2409604-.2238077.338849-.3559292l11.8724982-16.0244638c.3982549-.5375298.2957028-1.2944982-.2312176-1.7066876-.5380771-.4209168-1.3072276-.3671251-1.7814784.1245903zm8.6131434 11.6161324h-2c-.5522847 0-1 .4477153-1 1 0 .5128358.3860402.9355072.8833789.9932723l.1166211.0067277h2c.5522847 0 1-.4477153 1-1 0-.5128358-.3860402-.9355072-.8833789-.9932723zm-38 0h-2c-.5522847 0-1 .4477153-1 1 0 .5128358.3860402.9355072.8833789.9932723l.1166211.0067277h2c.5522847 0 1-.4477153 1-1 0-.5128358-.3860402-.9355072-.8833789-.9932723zm18-20c-.5128358 0-.9355072.3860402-.9932723.8833789l-.0067277.1166211v2c0 .5522847.4477153 1 1 1 .5128358 0 .9355072-.3860402.9932723-.8833789l.0067277-.1166211v-2c0-.5522847-.4477153-1-1-1z" fill="#fff" opacity=".3"/></svg>