<svg height="120" viewBox="0 0 120 120" width="120" xmlns="http://www.w3.org/2000/svg" xmlns:xlink="http://www.w3.org/1999/xlink"><defs><linearGradient id="a"><stop offset="0" stop-color="#c0c8ff"/><stop offset="1" stop-color="#4185ff"/></linearGradient><linearGradient id="b" x1="97.131472%" x2="4.253308%" xlink:href="#a" y1="2.96672%" y2="100%"/><linearGradient id="c" x1="60.530634%" x2="34.432465%" y1="-25.276951%" y2="133.44568%"><stop offset="0" stop-color="#ff843b"/><stop offset="1" stop-color="#ff2d4c"/></linearGradient><linearGradient id="d" x1="95.794477%" x2="5.55102%" xlink:href="#a" y1="2.96672%" y2="100%"/><path id="e" d="m15.6717372 89.5815025c-7.94373827-11.8272558-1.3976889-14.2095853 4.5779954-35.8035476 5.9756843-21.5939624-13.72359273-37.55391 9.4632089-48.54991467 23.1868015-10.99600465 59.9175057 13.29340777 72.3299565 36.38339627 12.412451 23.0899886 13.051689 39.1811341-5.2598748 54.6811839-20.9426226 17.7271426-27.175627 10.1934656-42.7778086 5.7965776-11.9275331-3.3613259-30.3897392-.68044-38.3334774-12.5076955z"/><linearGradient id="f" x1="101.51353%" x2="0%" xlink:href="#a" y1="15.348884%" y2="86.836806%"/><linearGradient id="g"><stop offset="0" stop-color="#fff"/><stop offset="1" stop-color="#b4beff"/></linearGradient><linearGradient id="h" x1="25.477792%" x2="36.185823%" xlink:href="#g" y1="74.519612%" y2="32.928379%"/><rect id="i" height="39.015606" rx="2.329026" width="55.714286" x="6.734694" y="6.602641"/><filter id="j" height="151.3%" width="135.9%" x="-17.9%" y="-20.5%"><feMorphology in="SourceAlpha" operator="erode" radius="1" result="shadowSpreadOuter1"/><feOffset dx="0" dy="2" in="shadowSpreadOuter1" result="shadowOffsetOuter1"/><feGaussianBlur in="shadowOffsetOuter1" result="shadowBlurOuter1" stdDeviation="4"/><feColorMatrix in="shadowBlurOuter1" type="matrix" values="0 0 0 0 0.0880934423   0 0 0 0 0.147539331   0 0 0 0 0.563660553  0 0 0 1 0"/></filter><linearGradient id="k" x1="25.477792%" x2="134.427628%" xlink:href="#g" y1="53.328147%" y2="38.367897%"/><path id="l" d="m36.4936448 7.42912745 24.7757791 12.78187915c1.1431254.5897409 1.5917322 1.9945067 1.0019913 3.1376321-.3996025.7745701-1.1982378 1.2612052-2.0698117 1.2612052h-25.3099801-25.30040396c-1.28628536 0-2.32902568-1.0427403-2.32902568-2.3290256 0-.87145.48649815-1.6699934 1.26089904-2.0696537l24.7666315-12.78180012c1.0049814-.51866044 2.1988623-.51874877 3.2039205-.00023703z"/><filter id="m" height="208.6%" width="107.1%" x="-3.5%" y="-42%"><feMorphology in="SourceAlpha" operator="erode" radius="1" result="shadowSpreadOuter1"/><feOffset dx="0" dy="2" in="shadowSpreadOuter1" result="shadowOffsetOuter1"/><feGaussianBlur in="shadowOffsetOuter1" result="shadowBlurOuter1" stdDeviation="4"/><feColorMatrix in="shadowBlurOuter1" type="matrix" values="0 0 0 0 0.623529412   0 0 0 0 0.670588235   0 0 0 0 1  0 0 0 1 0"/></filter><linearGradient id="n" x1="9.387049%" x2="57.300406%" y1="-4.398174%" y2="128.224124%"><stop offset="0" stop-color="#ed4159"/><stop offset="1" stop-color="#f5f5f7"/></linearGradient><linearGradient id="o" x1="99.473594%" x2="-2.743585%" y1="2.96672%" y2="106.5432%"><stop offset="0" stop-color="#586df9"/><stop offset="1" stop-color="#374ef2"/></linearGradient><ellipse id="p" cx="34.561225" cy="18.937575" rx="1.5" ry="1.530612"/><filter id="q" height="459.3%" width="466.7%" x="-183.3%" y="-114.3%"><feOffset dx="0" dy="2" in="SourceAlpha" result="shadowOffsetOuter1"/><feGaussianBlur in="shadowOffsetOuter1" result="shadowBlurOuter1" stdDeviation="1.5"/><feColorMatrix in="shadowBlurOuter1" type="matrix" values="0 0 0 0 0.623170732   0 0 0 0 0.670543554   0 0 0 0 1  0 0 0 1 0"/></filter><path id="r" d="m43.6554622 0c.9116345 0 1.6506602.73902577 1.6506602 1.65066026l-.0005354.04050607c.0003563.01446595.0005354.02897582.0005354.04352755v4.86794718h-3.4693877l-.0009388-3.30164106h-13.877l.0003878 3.30164106h-3.4693878v-4.86794718l.0005029-.04288331c-.0003346-.01367617-.0005029-.02739358-.0005029-.04115031 0-.91163449.7390258-1.65066026 1.6506603-1.65066026z"/><filter id="s" height="145.4%" width="114.4%" x="-7.2%" y="-22.7%"><feGaussianBlur in="SourceAlpha" result="shadowBlurInner1" stdDeviation="1.5"/><feOffset dx="0" dy="0" in="shadowBlurInner1" result="shadowOffsetInner1"/><feComposite in="shadowOffsetInner1" in2="SourceAlpha" k2="-1" k3="1" operator="arithmetic" result="shadowInnerInner1"/><feColorMatrix in="shadowInnerInner1" type="matrix" values="0 0 0 0 0.623529412   0 0 0 0 0.670588235   0 0 0 0 1  0 0 0 1 0"/></filter></defs><g fill="none" fill-rule="evenodd"><g><path d="m.83028996 62.1549322c4.63333649-16.6234423 14.45600494-12.913706 33.78950214-25.7313007 19.3334973-12.8175947 18.5338569-42.66509358 44.2789835-35.25935487 25.7451264 7.4057387 35.8287874 39.96546127 29.9969684 66.67569327-2.813968 12.888217-10.1890755 51.6950921-59.8211141 46.7227521-40.5282691-4.060287-50.64199964-43.8054883-48.24433994-52.4077898z" fill="url(#b)" opacity=".401576"/><g opacity=".499023"><use fill="url(#c)" xlink:href="#e"/><use fill="url(#d)" xlink:href="#e"/></g><path d="m52.0078848 118.879711c-19.4439794-3.705827-23.8224124-27.0515996-36.2995476-45.504626-12.47713512-18.4530264-20.11887508-20.0636509-12.93393949-37.8497668 7.1849356-17.7861159 38.65606109-22.0058983 64.57231009-17.1622848 25.9162489 4.8436135 41.1300022 7.8054733 47.9150392 27.7942785 7.076046 20.8461256 6.906878 37.3121005-5.173144 50.4660075-11.3567612 12.3663506-38.6367387 25.9622186-58.0807182 22.2563916z" fill="url(#f)" opacity=".256999"/></g><g transform="translate(25 38)"><use fill="#000" filter="url(#j)" xlink:href="#i"/><use fill="url(#h)" fill-rule="evenodd" xlink:href="#i"/><g transform="matrix(1 0 0 -1 0 31.212484)"><use fill="#000" filter="url(#m)" xlink:href="#l"/><g fill-rule="evenodd"><use fill="#ededed" xlink:href="#l"/><use fill="url(#k)" xlink:href="#l"/></g></g><use fill="#000" filter="url(#q)" xlink:href="#p"/><g fill-rule="evenodd"><use fill="url(#n)" xlink:href="#p"/><use fill="url(#o)" fill-opacity=".9" xlink:href="#p"/><use fill="#f0f2ff" xlink:href="#r"/></g><use fill="#000" filter="url(#s)" xlink:href="#r"/></g></g></svg>