<svg xmlns="http://www.w3.org/2000/svg" width="48" height="48" viewBox="0 0 48 48">
    <path fill="#5d93f5" fill-rule="evenodd" d="M41.025 22.14C41.657 23.977 42 25.95 42 28c0 3.628-1.074 7.09-3.048 10-.55.025-29.927-.01-29.927-.01A17.895 17.895 0 0 1 6 28c0-2.051.343-4.023.975-5.86l2.759 1.593c.955.552 2.174.23 2.73-.733a1.994 1.994 0 0 0-.73-2.731l-3.036-1.753C11.541 13.94 16.381 10.731 22 10.11v3.892c0 1.103.888 1.998 2 1.998 1.105 0 2-.887 2-1.998V10.11c5.62.621 10.459 3.829 13.302 8.406l-3.036 1.753a1.994 1.994 0 0 0-.73 2.731 1.994 1.994 0 0 0 2.73.733l2.759-1.593zM6.399 41.201A2 2 0 0 0 8 42H40a2 2 0 0 0 1.6-.799A21.908 21.908 0 0 0 46 28c0-12.15-9.85-22-22-22S2 15.85 2 28c0 4.826 1.56 9.422 4.4 13.201zm15.773-10.354a4 4 0 1 0 5.656-5.657c-2.874-2.874-9.52-5.063-9.52-5.063-1.046-.39-1.582.149-1.208 1.177 0 0 2.197 6.669 5.072 9.543z"/>
</svg>
