<svg height="120" viewBox="0 0 120 120" width="120" xmlns="http://www.w3.org/2000/svg" xmlns:xlink="http://www.w3.org/1999/xlink"><defs><linearGradient id="a" x1="86.722876%" x2="2.874059%" y1="14.287351%" y2="106.030195%"><stop offset="0" stop-color="#ff843b"/><stop offset="1" stop-color="#ff2d4c" stop-opacity=".615658"/></linearGradient><linearGradient id="b"><stop offset="0" stop-color="#c0c8ff"/><stop offset="1" stop-color="#4185ff"/></linearGradient><linearGradient id="c" x1="100.613748%" x2=".873346%" xlink:href="#b" y1="2.96672%" y2="100%"/><path id="d" d="m1.33929787 63.6144545c4.75970021-16.4788906 14.85025963-12.8014129 34.71103403-25.5075502 19.8607745-12.7061374 19.0393257-42.29409279 45.4865922-34.95275182 26.4472669 7.34134102 36.8059359 39.61793562 30.8150679 66.09590472-2.890713 12.7761454-10.46696 51.2455698-61.4525994 46.3164678-41.63358559-4.024981-52.02314515-43.4245715-49.56009473-51.9520705z"/><linearGradient id="e"><stop offset="0" stop-color="#ff843b"/><stop offset="1" stop-color="#ff2d4c"/></linearGradient><linearGradient id="f" x1="60.549534%" x2="34.327709%" xlink:href="#e" y1="-25.288549%" y2="133.443698%"/><linearGradient id="g" x1="96.811666%" x2="4.563717%" xlink:href="#b" y1="2.96672%" y2="100%"/><path id="h" d="m17.8118268 91.1017504c-8.22062009-12.1350463-1.481118-14.5559031 4.6155852-36.6528198s-14.2509344-38.4980753 9.6137774-49.69215555c23.8647119-11.1940802 61.7886781 13.78625925 74.6469616 37.46821815 12.858283 23.681959 13.563131 40.1625614-5.264298 55.9832297-21.5326099 18.0938281-33.7436849 8.5906241-44.0699706 5.8129611-12.3459404-3.320928-31.3214356-.784387-39.5420556-12.9194336z"/><linearGradient id="i" x1="15.732843%" x2="84.375462%" xlink:href="#e" y1="-17.549293%" y2="127.0358%"/><linearGradient id="j" x1="101.51353%" x2="0%" xlink:href="#b" y1="4.676877%" y2="98.181971%"/><path id="k" d="m39.0021985 115.044009c-17.1831762-9.178081-14.672179-32.50318-21.1424501-53.5730352s-13.17978502-24.8225658-1.4010504-39.5204256c11.7787346-14.69785976 42.4866611-9.4918034 65.4167008 2.650929 22.9300392 12.1427325 36.3572002 19.3828383 37.0544452 40.2406471.72715 21.7524007-4.098412 37.2525127-19.1545939 46.1463977-14.1547321 8.361387-43.5898754 13.233567-60.7730516 4.055487z"/><linearGradient id="l"><stop offset="0" stop-color="#fff"/><stop offset="1" stop-color="#b4beff"/></linearGradient><linearGradient id="m" x1="25.477792%" x2="36.185823%" xlink:href="#l" y1="76.09605%" y2="31.830794%"/><rect id="n" height="45.85428" rx="2.661335" width="63.471315" x=".040608" y=".062381"/><filter id="o" height="150.2%" width="136.2%" x="-18.1%" y="-20.7%"><feMorphology in="SourceAlpha" operator="erode" radius="1" result="shadowSpreadOuter1"/><feOffset dx="0" dy="2" in="shadowSpreadOuter1" result="shadowOffsetOuter1"/><feGaussianBlur in="shadowOffsetOuter1" result="shadowBlurOuter1" stdDeviation="4.5"/><feColorMatrix in="shadowBlurOuter1" type="matrix" values="0 0 0 0 0.0880934423   0 0 0 0 0.147539331   0 0 0 0 0.563660553  0 0 0 1 0"/></filter><linearGradient id="p"><stop offset="0" stop-color="#586df9"/><stop offset="1" stop-color="#374ef2"/></linearGradient><linearGradient id="q" x1="101.51353%" x2="-4.918351%" xlink:href="#p" y1="38.696806%" y2="63.588649%"/><linearGradient id="r" x1="25.477792%" x2="134.427628%" xlink:href="#l" y1="51.198288%" y2="45.8119%"/><path id="s" d="m2.66133544 0h58.14864356c1.469815 0 2.6613355 1.19152046 2.6613355 2.66133544v7.16458168h-63.4713145v-7.16458168c0-1.46981498 1.19152046-2.66133544 2.66133544-2.66133544z"/><filter id="t" height="334.1%" width="136.2%" x="-18.1%" y="-96.7%"><feMorphology in="SourceAlpha" operator="erode" radius="1" result="shadowSpreadOuter1"/><feOffset dx="0" dy="2" in="shadowSpreadOuter1" result="shadowOffsetOuter1"/><feGaussianBlur in="shadowOffsetOuter1" result="shadowBlurOuter1" stdDeviation="4.5"/><feColorMatrix in="shadowBlurOuter1" type="matrix" values="0 0 0 0 0.623529412   0 0 0 0 0.670588235   0 0 0 0 1  0 0 0 1 0"/></filter><linearGradient id="u" x1="101.51353%" x2="-4.918351%" xlink:href="#p" y1="2.96672%" y2="106.5432%"/></defs><g fill="none" fill-rule="evenodd"><g><g opacity=".401646"><use fill="url(#a)" xlink:href="#d"/><use fill="url(#c)" xlink:href="#d"/></g><g opacity=".499023"><use fill="url(#f)" xlink:href="#h"/><use fill="url(#g)" xlink:href="#h"/></g><g opacity=".256999"><use fill="url(#i)" xlink:href="#k"/><use fill="url(#j)" xlink:href="#k"/></g></g><g transform="translate(28 37)"><use fill="#000" filter="url(#o)" xlink:href="#n"/><use fill="url(#m)" fill-rule="evenodd" xlink:href="#n"/><path d="m10.062394 36.0907439 14.537027-10.2872973 13.9504824 3.8761336 11.5996366-13.2406705" stroke="url(#q)" stroke-linecap="round" stroke-linejoin="round" stroke-width="3.340596"/><use fill="#000" filter="url(#t)" xlink:href="#s"/><use fill="url(#r)" fill-rule="evenodd" xlink:href="#s"/><g fill="url(#u)"><circle cx="5.305347" cy="5.717848" r="1.703704"/><circle cx="11.986539" cy="5.717848" r="1.703704"/><circle cx="18.66773" cy="5.717848" r="1.703704"/></g></g></g></svg>