<svg xmlns="http://www.w3.org/2000/svg" width="90" height="90" viewBox="0 0 90 90"><style>
@keyframes gjqu4wi6d8xn56ql7jzvsda5_t { 0% { transform: translate(45.1px,45.1px) rotate(0deg) translate(-40.1px,-40.1px); animation-timing-function: cubic-bezier(.4,0,.6,1); } 6.978% { transform: translate(45.1px,45.1px) rotate(15deg) translate(-40.1px,-40.1px); animation-timing-function: cubic-bezier(.4,0,.6,1); } 10.467% { transform: translate(45.1px,45.1px) rotate(12deg) translate(-40.1px,-40.1px); animation-timing-function: cubic-bezier(.4,0,.6,1); } 13.957% { transform: translate(45.1px,45.1px) rotate(15deg) translate(-40.1px,-40.1px); animation-timing-function: cubic-bezier(.4,0,.6,1); } 17.446% { transform: translate(45.1px,45.1px) rotate(12deg) translate(-40.1px,-40.1px); animation-timing-function: cubic-bezier(.4,0,.6,1); } 20.935% { transform: translate(45.1px,45.1px) rotate(15deg) translate(-40.1px,-40.1px); animation-timing-function: cubic-bezier(.4,0,.6,1); } 34.892% { transform: translate(45.1px,45.1px) rotate(-3deg) translate(-40.1px,-40.1px); animation-timing-function: cubic-bezier(.4,0,.6,1); } 38.381% { transform: translate(45.1px,45.1px) rotate(1.5deg) translate(-40.1px,-40.1px); animation-timing-function: cubic-bezier(.4,0,.6,1); } 40.707% { transform: translate(45.1px,45.1px) rotate(0deg) translate(-40.1px,-40.1px); } 100% { transform: translate(45.1px,45.1px) rotate(0deg) translate(-40.1px,-40.1px); } }
</style><g fill="none" fill-rule="evenodd" transform="translate(45.1,45.1) translate(-40.1,-40.1)" style="animation: 2.87s linear infinite both gjqu4wi6d8xn56ql7jzvsda5_t;"><path fill="#0c2340" fill-rule="nonzero" stroke="#0c2340" stroke-width="2" d="M40.1 0c-22.1 0-40.1 18-40.1 40.1c0 22.1 18 40.1 40.1 40.1c22.1 0 40.1-18 40.1-40.1c0-22.1-18-40.1-40.1-40.1Zm0 4c15.8 0 29.3 10.3 34.1 24.6c-8.9-2.9-21-4.6-34.1-4.6c-13.1 0-25.3 1.7-34.2 4.6c4.9-14.3 18.3-24.6 34.2-24.6Zm-35.5 42.6l5.5-2.1c.7-0.2 1.3-0.3 2-0.4c.7 0 1.4 0 2.1 .2c.7 .1 1.4 .4 2 .7c.6 .3 1.2 .8 1.7 1.2c.5 .5 .9 1.1 1.2 1.7c.4 .6 .6 1.3 .8 2c.1 .7 .2 1.4 .1 2.1c0 .7-0.2 1.4-0.4 2l-4.5 12.1c-5.3-5.2-9.1-11.9-10.5-19.5Zm35.5 29.5c-4 0-7.8-0.6-11.3-1.8l4.6-9.9c.3-0.6 .6-1.2 1.1-1.7c.5-0.6 1-1 1.6-1.4c.6-0.4 1.2-0.7 1.9-0.9c.7-0.2 1.4-0.3 2.1-0.3c.7 0 1.4 .1 2.1 .3c.6 .2 1.3 .5 1.9 .9c.6 .4 1.1 .8 1.5 1.4c.5 .5 .9 1.1 1.2 1.7l4.6 9.9c-0.9 .3-1.9 .6-2.8 .8c-0.9 .2-1.9 .4-2.8 .6c-1 .1-1.9 .3-2.9 .3c-0.9 .1-1.9 .1-2.8 .1Zm24.9-10l-4.4-12.1c-0.3-0.6-0.4-1.3-0.5-2c0-0.7 0-1.4 .2-2.1c.1-0.7 .4-1.4 .7-2c.4-0.6 .8-1.2 1.3-1.6c.5-0.5 1-1 1.7-1.3c.6-0.3 1.2-0.6 1.9-0.7c.7-0.2 1.4-0.2 2.1-0.2c.7 .1 1.4 .2 2.1 .4l5.4 2.1c-1.4 7.6-5.1 14.3-10.5 19.5Zm6.5-25.3c-1.1-0.4-2.1-0.6-3.2-0.7c-1.1-0.1-2.2 0-3.2 .2c-1.1 .3-2.1 .7-3.1 1.2c-0.9 .5-1.8 1.2-2.6 1.9c-0.7 .8-1.4 1.7-1.9 2.6c-0.5 1-0.9 2-1.1 3c-0.3 1.1-0.3 2.2-0.3 3.3c.1 1 .3 2.1 .7 3.1l5 13.4c-0.6 .4-1.1 .8-1.6 1.2c-0.6 .3-1.1 .7-1.7 1c-0.5 .3-1.1 .7-1.7 1c-0.5 .3-1.1 .6-1.7 .8l-4.7-10.1c-0.4-1-1-1.9-1.7-2.7c-0.7-0.8-1.6-1.5-2.5-2.1c-0.9-0.6-1.9-1-2.9-1.3c-1.1-0.3-2.1-0.5-3.2-0.5c-1.1 0-2.2 .2-3.2 .5c-1.1 .3-2 .7-3 1.3c-0.9 .6-1.7 1.3-2.4 2.1c-0.7 .8-1.3 1.7-1.8 2.7l-4.6 10.1c-0.6-0.2-1.2-0.5-1.8-0.8c-0.6-0.3-1.1-0.7-1.7-1c-0.5-0.3-1.1-0.7-1.6-1c-0.6-0.4-1.1-0.8-1.6-1.2l4.9-13.4c.4-1 .6-2.1 .7-3.1c.1-1.1 0-2.2-0.2-3.3c-0.3-1-0.6-2-1.2-3c-0.5-0.9-1.1-1.8-1.9-2.6c-0.8-0.7-1.6-1.4-2.6-1.9c-0.9-0.5-1.9-0.9-3-1.2c-1.1-0.2-2.2-0.3-3.2-0.2c-1.1 .1-2.2 .3-3.2 .7l-4.6 1.7c0-0.8-0.1-1.6-0.1-2.4c0-2.4 .2-4.6 .7-6.8c8.5-3.3 21.5-5.2 35.4-5.2c13.8 0 26.9 1.9 35.4 5.2c.1 .5 .2 1.1 .3 1.7c.1 .5 .1 1.1 .2 1.7c0 .5 .1 1.1 .1 1.7c0 .5 0 1.1 0 1.7c0 .8 0 1.6-0.1 2.4l-4.5-1.7Z"/><ellipse cx="39.9" cy="40.2" fill="#0072ce" rx="7" ry="7"/></g></svg>