<svg xmlns="http://www.w3.org/2000/svg" width="48" height="48" viewBox="0 0 48 48">
    <path fill="#5d93f5" fill-rule="evenodd" d="M17.333 41.455h-6.662C6.99 41.455 4 38.52 4 34.909c0-2.397 1.322-4.534 3.343-5.675l-.01-8.51c0-7.54 5.194-13.886 12.261-15.783a4.325 4.325 0 0 1-.038-.577C19.556 1.954 21.546 0 24 0c2.455 0 4.444 1.954 4.444 4.364 0 .195-.013.388-.038.577 7.069 1.896 12.26 8.244 12.26 15.795v8.517C42.69 30.4 44 32.527 44 34.909c0 3.617-2.984 6.546-6.671 6.546h-6.662C30.663 45.07 27.672 48 24 48c-3.682 0-6.667-2.928-6.667-6.54v-.005zm4.445 0v.004c0 1.202.994 2.177 2.222 2.177 1.22 0 2.218-.978 2.222-2.181h-4.444zm15.274-8.87a1.1 1.1 0 0 1-.83-1.067V20.736c0-6.64-5.468-12.009-12.222-12.009-6.751 0-12.222 5.37-12.222 11.997v10.794a1.1 1.1 0 0 1-.83 1.067l-.838.211a2.189 2.189 0 0 0-1.666 2.113c0 1.202 1 2.182 2.227 2.182H37.33c1.232 0 2.227-.976 2.227-2.182 0-.997-.695-1.866-1.668-2.112l-.836-.213z"/>
</svg>
