<?xml version="1.0" encoding="UTF-8" standalone="no"?>
<!-- Created with Keyshape -->
<svg xmlns="http://www.w3.org/2000/svg" width="110" height="110" viewBox="0 0 110 110">
    <style>
@keyframes x53thrgzaozirb91zokyo7ng_t { 0% { transform: translate(55px,55px) scale(0.95,0.95) translate(-55px,-55px); animation-timing-function: cubic-bezier(0.42,0,0.58,1); } 6.8376% { transform: translate(55px,55px) scale(0.9,0.9) translate(-55px,-55px); animation-timing-function: cubic-bezier(0.42,0,0.58,1); } 11.9658% { transform: translate(55px,55px) scale(1,1) translate(-55px,-55px); animation-timing-function: cubic-bezier(0.42,0,0.58,1); } 15.3846% { transform: translate(55px,55px) scale(0.95,0.95) translate(-55px,-55px); animation-timing-function: cubic-bezier(0.42,0,0.58,1); } 100% { transform: translate(55px,55px) scale(0.95,0.95) translate(-55px,-55px); } }
@keyframes mcyotjsgzqcd8427ru1l9kc4_t { 0% { transform: translate(55px,55px) scale(0.95,0.95) translate(-42.594px,-42.594px); animation-timing-function: cubic-bezier(0.42,0,0.58,1); } 3.4188% { transform: translate(55px,55px) scale(0.9,0.9) translate(-42.594px,-42.594px); animation-timing-function: cubic-bezier(0.42,0,0.58,1); } 8.547% { transform: translate(55px,55px) scale(1,1) translate(-42.594px,-42.594px); animation-timing-function: cubic-bezier(0.42,0,0.58,1); } 11.9658% { transform: translate(55px,55px) scale(0.95,0.95) translate(-42.594px,-42.594px); animation-timing-function: cubic-bezier(0.42,0,0.58,1); } 96.5811% { transform: translate(55px,55px) scale(0.95,0.95) translate(-42.594px,-42.594px); animation-timing-function: cubic-bezier(0.42,0,0.58,1); } 100% { transform: translate(55px,55px) scale(0.925,0.925) translate(-42.594px,-42.594px); } }
@keyframes gi7tkwibi6ykr1glho9kkd9m_t { 0% { transform: translate(55px,55px) scale(0.9,0.9) translate(-30.188px,-30.188px); animation-timing-function: cubic-bezier(0.42,0,0.58,1); } 5.1282% { transform: translate(55px,55px) scale(1,1) translate(-30.188px,-30.188px); animation-timing-function: cubic-bezier(0.42,0,0.58,1); } 8.547% { transform: translate(55px,55px) scale(0.95,0.95) translate(-30.188px,-30.188px); animation-timing-function: cubic-bezier(0.42,0,0.58,1); } 93.1623% { transform: translate(55px,55px) scale(0.95,0.95) translate(-30.188px,-30.188px); animation-timing-function: cubic-bezier(0.42,0,0.58,1); } 100% { transform: translate(55px,55px) scale(0.9,0.9) translate(-30.188px,-30.188px); } }
@keyframes pokrrtn7tgbicfw8vohtfys9_t { 0% { transform: translate(13.081px,-6.489px); animation-timing-function: cubic-bezier(0.42,0,0.58,1); } 63.2478% { transform: translate(15.74px,-6.489px); animation-timing-function: cubic-bezier(0.42,0,0.58,1); } 100% { transform: translate(13.081px,-6.489px); } }
@keyframes hioqor9ey3hb112szp0y4ktt_t { 0% { transform: translate(0px,0px); animation-timing-function: cubic-bezier(0.42,0,0.58,1); } 40.1709% { transform: translate(2.757px,0px); animation-timing-function: cubic-bezier(0.42,0,0.58,1); } 100% { transform: translate(0px,0px); } }
@keyframes qxcnpt5hggzxicvdxq3hi1b2_t { 0% { transform: translate(0px,0px); animation-timing-function: cubic-bezier(0.42,0,0.58,1); } 40.1709% { transform: translate(2.757px,0px); animation-timing-function: cubic-bezier(0.42,0,0.58,1); } 100% { transform: translate(0px,0px); } }
    </style>
    <rect width="110" height="110" fill="#FF3850" opacity="0.15" rx="55" fill-rule="evenodd" transform="translate(55,55) scale(0.95,0.95) translate(-55,-55)" style="animation: 1.95s linear infinite both x53thrgzaozirb91zokyo7ng_t;"/>
    <rect width="85.188" height="85.188" fill="#FF3850" opacity="0.3" rx="42.594" fill-rule="evenodd" transform="translate(55,55) scale(0.95,0.95) translate(-42.594,-42.594)" style="animation: 1.95s linear infinite both mcyotjsgzqcd8427ru1l9kc4_t;"/>
    <rect width="60.376" height="60.376" fill="#FF3850" rx="30.188" fill-rule="evenodd" transform="translate(55,55) scale(0.9,0.9) translate(-30.188,-30.188)" style="animation: 1.95s linear infinite both gi7tkwibi6ykr1glho9kkd9m_t;"/>
    <path d="M39.07,47.379C39.417,46.335,40.589,45.489,41.695,45.489L54.245,45.489C55.347,45.489,56.523,46.335,56.871,47.379L59.549,55.414L59.549,66.637C59.549,66.9001,59.4973,67.1607,59.397,67.4039C59.2966,67.6471,59.1494,67.8682,58.9638,68.0548C58.7782,68.2413,58.5578,68.3895,58.3151,68.4911C58.0724,68.5927,57.8121,68.6457,57.549,68.647L58.241,68.647C57.136,68.647,56.241,67.743,56.241,66.646L56.241,65.338L39.699,65.338L39.699,66.646C39.699,67.751,38.795,68.646,37.699,68.646L38.392,68.646C37.287,68.646,36.391,67.758,36.391,66.636L36.391,55.415L39.069,47.38ZM40.526,59.549C40.9647,59.549,41.3854,59.3747,41.6956,59.0646C42.0057,58.7544,42.18,58.3337,42.18,57.895C42.18,57.4563,42.0057,57.0356,41.6956,56.7254C41.3854,56.4153,40.9647,56.241,40.526,56.241C40.0873,56.241,39.6666,56.4153,39.3564,56.7254C39.0463,57.0356,38.872,57.4563,38.872,57.895C38.872,58.3337,39.0463,58.7544,39.3564,59.0646C39.6666,59.3747,40.0873,59.549,40.526,59.549ZM43.835,61.203C43.835,62.123,44.575,62.857,45.488,62.857L50.451,62.857C51.371,62.857,52.105,62.117,52.105,61.203C52.105,60.283,51.365,59.549,50.451,59.549L45.488,59.549C44.568,59.549,43.835,60.289,43.835,61.203ZM41.715,49.753L40.845,52.803C40.693,53.336,41.017,53.759,41.566,53.759L54.374,53.759C54.924,53.759,55.245,53.331,55.094,52.803L54.224,49.753C54.072,49.22,53.504,48.797,52.952,48.797L42.988,48.797C42.443,48.797,41.866,49.225,41.716,49.754ZM55.414,59.549C55.8527,59.549,56.2734,59.3747,56.5836,59.0646C56.8937,58.7544,57.068,58.3337,57.068,57.895C57.068,57.4563,56.8937,57.0356,56.5836,56.7254C56.2734,56.4153,55.8527,56.241,55.414,56.241C54.9753,56.241,54.5546,56.4153,54.2444,56.7254C53.9343,57.0356,53.76,57.4563,53.76,57.895C53.76,58.3337,53.9343,58.7544,54.2444,59.0646C54.5546,59.3747,54.9753,59.549,55.414,59.549Z" fill="#FFF" fill-rule="evenodd" transform="translate(61.051,50.579) translate(-47.97,-57.068)" style="animation: 1.95s linear infinite both pokrrtn7tgbicfw8vohtfys9_t;"/>
    <path d="M39.07,47.379C39.417,46.335,40.589,45.489,41.695,45.489L54.245,45.489C55.347,45.489,56.523,46.335,56.871,47.379L59.549,55.414L59.549,66.637C59.549,66.9001,59.4973,67.1607,59.397,67.4039C59.2966,67.6471,59.1494,67.8682,58.9638,68.0548C58.7782,68.2413,58.5578,68.3895,58.3151,68.4911C58.0724,68.5927,57.8121,68.6457,57.549,68.647L58.241,68.647C57.136,68.647,56.241,67.743,56.241,66.646L56.241,65.338L39.699,65.338L39.699,66.646C39.699,67.751,38.795,68.646,37.699,68.646L38.392,68.646C37.287,68.646,36.391,67.758,36.391,66.636L36.391,55.415L39.069,47.38ZM40.526,59.549C40.9647,59.549,41.3854,59.3747,41.6956,59.0646C42.0057,58.7544,42.18,58.3337,42.18,57.895C42.18,57.4563,42.0057,57.0356,41.6956,56.7254C41.3854,56.4153,40.9647,56.241,40.526,56.241C40.0873,56.241,39.6666,56.4153,39.3564,56.7254C39.0463,57.0356,38.872,57.4563,38.872,57.895C38.872,58.3337,39.0463,58.7544,39.3564,59.0646C39.6666,59.3747,40.0873,59.549,40.526,59.549ZM43.835,61.203C43.835,62.123,44.575,62.857,45.488,62.857L50.451,62.857C51.371,62.857,52.105,62.117,52.105,61.203C52.105,60.283,51.365,59.549,50.451,59.549L45.488,59.549C44.568,59.549,43.835,60.289,43.835,61.203ZM41.715,49.753L40.845,52.803C40.693,53.336,41.017,53.759,41.566,53.759L54.374,53.759C54.924,53.759,55.245,53.331,55.094,52.803L54.224,49.753C54.072,49.22,53.504,48.797,52.952,48.797L42.988,48.797C42.443,48.797,41.866,49.225,41.716,49.754Z" fill="#ff3850" fill-rule="evenodd" stroke="#ff3850" stroke-linejoin="round" stroke-linecap="round" stroke-width="6" transform="translate(47.97,57.068) translate(-47.97,-57.068)" style="animation: 1.95s linear infinite both hioqor9ey3hb112szp0y4ktt_t;"/>
    <path d="M39.07,47.379C39.417,46.335,40.589,45.489,41.695,45.489L54.245,45.489C55.347,45.489,56.523,46.335,56.871,47.379L59.549,55.414L59.549,66.637C59.549,66.9001,59.4973,67.1607,59.397,67.4039C59.2966,67.6471,59.1494,67.8682,58.9638,68.0548C58.7782,68.2413,58.5578,68.3895,58.3151,68.4911C58.0724,68.5927,57.8121,68.6457,57.549,68.647L58.241,68.647C57.136,68.647,56.241,67.743,56.241,66.646L56.241,65.338L39.699,65.338L39.699,66.646C39.699,67.751,38.795,68.646,37.699,68.646L38.392,68.646C37.287,68.646,36.391,67.758,36.391,66.636L36.391,55.415L39.069,47.38ZM40.526,59.549C40.9647,59.549,41.3854,59.3747,41.6956,59.0646C42.0057,58.7544,42.18,58.3337,42.18,57.895C42.18,57.4563,42.0057,57.0356,41.6956,56.7254C41.3854,56.4153,40.9647,56.241,40.526,56.241C40.0873,56.241,39.6666,56.4153,39.3564,56.7254C39.0463,57.0356,38.872,57.4563,38.872,57.895C38.872,58.3337,39.0463,58.7544,39.3564,59.0646C39.6666,59.3747,40.0873,59.549,40.526,59.549ZM43.835,61.203C43.835,62.123,44.575,62.857,45.488,62.857L50.451,62.857C51.371,62.857,52.105,62.117,52.105,61.203C52.105,60.283,51.365,59.549,50.451,59.549L45.488,59.549C44.568,59.549,43.835,60.289,43.835,61.203ZM41.715,49.753L40.845,52.803C40.693,53.336,41.017,53.759,41.566,53.759L54.374,53.759C54.924,53.759,55.245,53.331,55.094,52.803L54.224,49.753C54.072,49.22,53.504,48.797,52.952,48.797L42.988,48.797C42.443,48.797,41.866,49.225,41.716,49.754ZM55.414,59.549C55.8527,59.549,56.2734,59.3747,56.5836,59.0646C56.8937,58.7544,57.068,58.3337,57.068,57.895C57.068,57.4563,56.8937,57.0356,56.5836,56.7254C56.2734,56.4153,55.8527,56.241,55.414,56.241C54.9753,56.241,54.5546,56.4153,54.2444,56.7254C53.9343,57.0356,53.76,57.4563,53.76,57.895C53.76,58.3337,53.9343,58.7544,54.2444,59.0646C54.5546,59.3747,54.9753,59.549,55.414,59.549Z" fill="#FFF" fill-rule="evenodd" stroke="none" stroke-linejoin="round" stroke-linecap="round" transform="translate(47.97,57.068) translate(-47.97,-57.068)" style="animation: 1.95s linear infinite both qxcnpt5hggzxicvdxq3hi1b2_t;"/>
</svg>
