<svg width="13" height="13" viewBox="0 0 13 13" xmlns="http://www.w3.org/2000/svg">
	<g fill="none" fill-rule="evenodd">
		<path d="M12 8.862c0 .848-.336 1.616-.882 2.181-.57.59-1.37.957-2.255.957H4.137A3.137 3.137 0 0 1 1 8.863V4.137c0-.892.374-1.697.972-2.268A3.132 3.132 0 0 1 4.14 1m4.146 0H12v3.714" stroke="#FFF" stroke-width="2" stroke-linecap="round" stroke-linejoin="round" />
		<path d="M11.996 1.168L6.845 6.319" stroke="#FFF" stroke-width="2" stroke-linecap="round" />
		<path fill-opacity=".596" fill="#000" d="M-6385 1h1024v70h-1024z" />
		<g font-family="Cuprum-Regular, Cuprum" fill="#FFF">
			<text font-size="18" transform="translate(-5930 17)">
				<tspan x="0" y="16">
					+1 305 767 2434
				</tspan>
			</text>
			<text font-size="18" transform="translate(-5930 17)">
				<tspan x="159" y="16">
					+1 305 767 2434 ext 102
				</tspan>
			</text>
			<text font-size="14" fill-opacity=".5" transform="translate(-5930 17)">
				<tspan x="0" y="34">
					Aventura, FL
				</tspan>
			</text>
			<text font-size="14" fill-opacity=".5" transform="translate(-5930 17)">
				<tspan x="159" y="34">
					Atlanta, GA
				</tspan>
			</text>
		</g>
		<text opacity=".8" font-family="Cuprum-Regular, Cuprum" font-size="16" letter-spacing="1" text-decoration="underline" fill="#FF6E6E" transform="translate(-6385 1)">
			<tspan x="853.56" y="39">
				CUSTOMER LOGIN
			</tspan>
		</text>
		<g fill="#FFF">
			<text opacity=".8" font-family="Cuprum-Bold, Cuprum" font-size="18" font-weight="bold" transform="translate(-6333 18)">
				<tspan x="0" y="16">
					© 1999-2015 BEAUTIFIER CORPORATE LIMITED
				</tspan>
			</text>
			<text opacity=".5" font-family="Cuprum-Regular, Cuprum" font-size="14" text-decoration="underline" transform="translate(-6333 18)">
				<tspan x="132" y="34">
					Sitemap
				</tspan>
			</text>
			<text opacity=".5" font-family="Cuprum-Regular, Cuprum" font-size="14" text-decoration="underline" transform="translate(-6333 18)">
				<tspan x="1" y="34">
					info@mercdev.com
				</tspan>
			</text>
		</g>
	</g>
</svg>
