<svg xmlns="http://www.w3.org/2000/svg" width="240" height="110" viewBox="0 0 240 110"><style>
@keyframes p26ja6eq8gtih9l9gy2khyw8_t { 0% { transform: translate(112px,60px) scale(1,1) translate(-16.3px,-16px); } 27.034% { transform: translate(112px,60px) scale(1,1) translate(-16.3px,-16px); animation-timing-function: cubic-bezier(.4,0,.6,1); } 31.089% { transform: translate(112px,60px) scale(1.1,1.1) translate(-16.3px,-16px); animation-timing-function: cubic-bezier(.4,0,.6,1); } 33.793% { transform: translate(112px,60px) scale(1,1) translate(-16.3px,-16px); animation-timing-function: cubic-bezier(.4,0,.6,1); } 74.344% { transform: translate(112px,60px) scale(1,1) translate(-16.3px,-16px); animation-timing-function: cubic-bezier(.4,0,.6,1); } 78.4% { transform: translate(112px,60px) scale(1.1,1.1) translate(-16.3px,-16px); animation-timing-function: cubic-bezier(.4,0,.6,1); } 81.103% { transform: translate(112px,60px) scale(1,1) translate(-16.3px,-16px); } 100% { transform: translate(112px,60px) scale(1,1) translate(-16.3px,-16px); } }
@keyframes cluqnfvn7miuu1wzgmuld7pu_t { 0% { transform: translate(76px,60px) scale(1,1); } 16.896% { transform: translate(76px,60px) scale(1,1); animation-timing-function: cubic-bezier(.4,0,.6,1); } 23.655% { transform: translate(76px,60px) scale(1.2,1.2); animation-timing-function: cubic-bezier(.4,0,.6,1); } 29.738% { transform: translate(76px,60px) scale(1,1); animation-timing-function: cubic-bezier(.4,0,.6,1); } 77.724% { transform: translate(76px,60px) scale(1,1); animation-timing-function: cubic-bezier(.4,0,.6,1); } 84.482% { transform: translate(76px,60px) scale(1.2,1.2); animation-timing-function: cubic-bezier(.4,0,.6,1); } 91.241% { transform: translate(76px,60px) scale(1,1); } 100% { transform: translate(76px,60px) scale(1,1); } }
@keyframes cluqnfvn7miuu1wzgmuld7pu_o { 0% { opacity: .7; } 16.896% { opacity: .7; animation-timing-function: cubic-bezier(.4,0,.6,1); } 23.655% { opacity: 1; animation-timing-function: cubic-bezier(.4,0,.6,1); } 29.738% { opacity: .7; animation-timing-function: cubic-bezier(.4,0,.6,1); } 77.724% { opacity: .7; animation-timing-function: cubic-bezier(.4,0,.6,1); } 84.482% { opacity: 1; animation-timing-function: cubic-bezier(.4,0,.6,1); } 91.241% { opacity: .7; } 100% { opacity: .7; } }
@keyframes e62upjhno4px9364dbwys7mz_t { 0% { transform: translate(88px,60px) scale(1,1); } 20.276% { transform: translate(88px,60px) scale(1,1); animation-timing-function: cubic-bezier(.4,0,.6,1); } 27.034% { transform: translate(88px,60px) scale(1.2,1.2); animation-timing-function: cubic-bezier(.4,0,.6,1); } 33.793% { transform: translate(88px,60px) scale(1,1); animation-timing-function: cubic-bezier(.4,0,.6,1); } 74.344% { transform: translate(88px,60px) scale(1,1); animation-timing-function: cubic-bezier(.4,0,.6,1); } 81.103% { transform: translate(88px,60px) scale(1.2,1.2); animation-timing-function: cubic-bezier(.4,0,.6,1); } 87.862% { transform: translate(88px,60px) scale(1,1); } 100% { transform: translate(88px,60px) scale(1,1); } }
@keyframes e62upjhno4px9364dbwys7mz_o { 0% { opacity: .7; } 20.276% { opacity: .7; animation-timing-function: cubic-bezier(.4,0,.6,1); } 27.034% { opacity: 1; animation-timing-function: cubic-bezier(.4,0,.6,1); } 33.793% { opacity: .7; animation-timing-function: cubic-bezier(.4,0,.6,1); } 74.344% { opacity: .7; animation-timing-function: cubic-bezier(.4,0,.6,1); } 81.103% { opacity: 1; animation-timing-function: cubic-bezier(.4,0,.6,1); } 87.862% { opacity: .7; } 100% { opacity: .7; } }
@keyframes gz5sf2fueqlh878vmcl8uh2o_t { 0% { transform: translate(136px,60px) scale(1,1); } 23.655% { transform: translate(136px,60px) scale(1,1); animation-timing-function: cubic-bezier(.4,0,.6,1); } 30.414% { transform: translate(136px,60px) scale(1.2,1.2); animation-timing-function: cubic-bezier(.4,0,.6,1); } 37.172% { transform: translate(136px,60px) scale(1,1); animation-timing-function: cubic-bezier(.4,0,.6,1); } 70.965% { transform: translate(136px,60px) scale(1,1); animation-timing-function: cubic-bezier(.4,0,.6,1); } 77.724% { transform: translate(136px,60px) scale(1.2,1.2); animation-timing-function: cubic-bezier(.4,0,.6,1); } 84.482% { transform: translate(136px,60px) scale(1,1); } 100% { transform: translate(136px,60px) scale(1,1); } }
@keyframes gz5sf2fueqlh878vmcl8uh2o_o { 0% { opacity: .7; } 23.655% { opacity: .7; animation-timing-function: cubic-bezier(.4,0,.6,1); } 30.414% { opacity: 1; animation-timing-function: cubic-bezier(.4,0,.6,1); } 37.172% { opacity: .7; animation-timing-function: cubic-bezier(.4,0,.6,1); } 70.965% { opacity: .7; animation-timing-function: cubic-bezier(.4,0,.6,1); } 77.724% { opacity: 1; animation-timing-function: cubic-bezier(.4,0,.6,1); } 84.482% { opacity: .7; } 100% { opacity: .7; } }
@keyframes suew04hoxfd2rilshhleau6s_t { 0% { transform: translate(148px,60px) scale(1,1); } 27.034% { transform: translate(148px,60px) scale(1,1); animation-timing-function: cubic-bezier(.4,0,.6,1); } 33.793% { transform: translate(148px,60px) scale(1.2,1.2); animation-timing-function: cubic-bezier(.4,0,.6,1); } 40.551% { transform: translate(148px,60px) scale(1,1); animation-timing-function: cubic-bezier(.4,0,.6,1); } 67.586% { transform: translate(148px,60px) scale(1,1); animation-timing-function: cubic-bezier(.4,0,.6,1); } 74.344% { transform: translate(148px,60px) scale(1.2,1.2); animation-timing-function: cubic-bezier(.4,0,.6,1); } 81.103% { transform: translate(148px,60px) scale(1,1); } 100% { transform: translate(148px,60px) scale(1,1); } }
@keyframes suew04hoxfd2rilshhleau6s_o { 0% { opacity: .7; } 27.034% { opacity: .7; animation-timing-function: cubic-bezier(.4,0,.6,1); } 33.793% { opacity: 1; animation-timing-function: cubic-bezier(.4,0,.6,1); } 40.552% { opacity: .7; animation-timing-function: cubic-bezier(.4,0,.6,1); } 67.586% { opacity: .7; animation-timing-function: cubic-bezier(.4,0,.6,1); } 74.344% { opacity: 1; animation-timing-function: cubic-bezier(.4,0,.6,1); } 81.103% { opacity: .7; } 100% { opacity: .7; } }
</style><ellipse cx="112" cy="60" fill="#00b255" rx="16" ry="16" fill-rule="evenodd"/><path fill="#fff" d="M22.6 9.6c0 0 .1 0 .1-0.1c.1 0 .2 0 .2 0c.1 0 .1 0 .2 0c0 .1 .1 .1 .1 .1l1.3 1.3c0 0 0 .1 .1 .1c0 .1 0 .2 0 .2c0 .1 0 .1 0 .2c-0.1 0-0.1 .1-0.1 .1l-10.7 10.9c-0.1 0-0.1 0-0.2 .1c0 0-0.1 0-0.1 0c-0.1 0-0.1 0-0.2 0c-0.1-0.1-0.1-0.1-0.1-0.1l-5-5.1c-0.1 0-0.1-0.1-0.1-0.1c-0.1-0.1-0.1-0.1-0.1-0.2c0-0.1 0-0.1 .1-0.2c0 0 0-0.1 .1-0.1l1.2-1.3c.1 0 .1-0.1 .2-0.1c0 0 .1 0 .1 0c.1 0 .1 0 .2 0c0 0 .1 .1 .1 .1l3.5 3.5l9.1-9.3Z" transform="translate(112,60) translate(-16.3,-16)" style="animation: 2.47s linear infinite both p26ja6eq8gtih9l9gy2khyw8_t;"/><path fill="#001a49" d="M7 25h54.3c.9 0 1.8 .2 2.7 .5c.8 .4 1.6 .9 2.2 1.6c.7 .6 1.2 1.4 1.6 2.2c.3 .9 .5 1.8 .5 2.7v54c0 .9-0.2 1.8-0.5 2.7c-0.4 .8-0.9 1.6-1.6 2.2c-0.6 .7-1.4 1.2-2.2 1.6c-0.9 .3-1.8 .5-2.7 .5h-54.3c-0.9 0-1.8-0.2-2.7-0.5c-0.8-0.4-1.6-0.9-2.2-1.6c-0.7-0.6-1.2-1.4-1.6-2.2c-0.3-0.9-0.5-1.8-0.5-2.7v-54c0-0.9 .2-1.8 .5-2.7c.4-0.8 .9-1.6 1.6-2.2c.6-0.7 1.4-1.2 2.2-1.6c.9-0.3 1.8-0.5 2.7-0.5Zm32.7 26.7l4.3 4.1v-6.8Zm-21.2-6.7l11.5 10.8v-10.8Zm12.5 0v31.8l12.5-19.9l-12.5-11.9Zm14 4v4h4l-4-4Z"/><ellipse rx="3" ry="3" fill="#0072ce" opacity=".7" transform="translate(76,60)" style="animation: 2.47s linear infinite both cluqnfvn7miuu1wzgmuld7pu_t, 2.47s linear infinite both cluqnfvn7miuu1wzgmuld7pu_o;"/><ellipse rx="3" ry="3" fill="#0072ce" opacity=".7" transform="translate(88,60)" style="animation: 2.47s linear infinite both e62upjhno4px9364dbwys7mz_t, 2.47s linear infinite both e62upjhno4px9364dbwys7mz_o;"/><ellipse rx="3" ry="3" fill="#0072ce" opacity=".7" transform="translate(136,60)" style="animation: 2.47s linear infinite both gz5sf2fueqlh878vmcl8uh2o_t, 2.47s linear infinite both gz5sf2fueqlh878vmcl8uh2o_o;"/><ellipse rx="3" ry="3" fill="#0072ce" opacity=".7" transform="translate(148,60)" style="animation: 2.47s linear infinite both suew04hoxfd2rilshhleau6s_t, 2.47s linear infinite both suew04hoxfd2rilshhleau6s_o;"/><path fill="#001a49" d="M162 11h54c3.3 0 6 2.7 6 6v14h12c3.3 0 6 2.7 6 6v60c0 3.3-2.7 6-6 6h-28c-3.3 0-6-2.7-6-6v-2h-38c-3.3 0-6-2.7-6-6v-72c0-3.3 2.7-6 6-6Zm53 5c1.1 0 2 .9 2 2v13h-10.5c-1.6 0-2.9 .4-4 1.1c-0.5 .4-1 .9-1.4 1.4c-0.7 1.1-1.1 2.4-1.1 4v52.5h-37c-1.1 0-2-0.9-2-2v-70c0-1.1 .9-2 2-2Zm-9 19h28c1.1 0 2 .9 2 2v56c0 1.1-0.9 2-2 2h-28c-1.1 0-2-0.9-2-2v-56c0-1.1 .9-2 2-2Z" fill-rule="evenodd"/></svg>