<svg height="120" viewBox="0 0 120 120" width="120" xmlns="http://www.w3.org/2000/svg" xmlns:xlink="http://www.w3.org/1999/xlink"><defs><linearGradient id="a"><stop offset="0" stop-color="#c0c8ff"/><stop offset="1" stop-color="#4185ff"/></linearGradient><linearGradient id="b" x1="97.526939%" x2="3.86946%" xlink:href="#a" y1="2.96672%" y2="100%"/><linearGradient id="c" x1="60.530634%" x2="34.432465%" y1="-25.276951%" y2="133.44568%"><stop offset="0" stop-color="#ff843b"/><stop offset="1" stop-color="#ff2d4c"/></linearGradient><linearGradient id="d" x1="95.794477%" x2="5.55102%" xlink:href="#a" y1="2.96672%" y2="100%"/><path id="e" d="m17.7165009 90.0815025c-7.94373828-11.8272558-1.3976889-14.2095853 4.5779954-35.8035476 5.9756843-21.5939624-13.72359274-37.55391 9.4632088-48.54991467 23.1868016-10.99600465 59.9175058 13.29340777 72.3299569 36.38339627 12.41245 23.0899886 13.051689 39.1811341-5.2598751 54.6811839-20.9426226 17.7271426-27.175627 10.1934656-42.7778086 5.7965776-11.9275331-3.3613259-30.3897392-.68044-38.3334774-12.5076955z"/><linearGradient id="f" x1="101.51353%" x2="0%" xlink:href="#a" y1="8.002182%" y2="94.646915%"/><linearGradient id="g" x1="25.477792%" x2="134.427628%" y1="100%" y2="-124.753463%"><stop offset="0" stop-color="#fff"/><stop offset="1" stop-color="#b4beff"/></linearGradient><circle id="h" cx="37" cy="25" r="25"/><filter id="i" height="140%" width="140%" x="-20%" y="-16%"><feMorphology in="SourceAlpha" operator="erode" radius="1" result="shadowSpreadOuter1"/><feOffset dx="0" dy="2" in="shadowSpreadOuter1" result="shadowOffsetOuter1"/><feGaussianBlur in="shadowOffsetOuter1" result="shadowBlurOuter1" stdDeviation="4"/><feColorMatrix in="shadowBlurOuter1" type="matrix" values="0 0 0 0 0.0880934423   0 0 0 0 0.147539331   0 0 0 0 0.563660553  0 0 0 1 0"/></filter><linearGradient id="j" x1="68.544871%" x2="30.229394%" y1="2.96672%" y2="106.5432%"><stop offset="0" stop-color="#586df9"/><stop offset="1" stop-color="#374ef2"/></linearGradient><path id="k" d="m38.3913043 35v-2.3130841c2.7391305-.3037383 4.6086957-1.9859813 4.6086957-4.6028038v-.0467289c0-2.6168225-1.4130435-4.0420561-4.7173913-5v-3.5514019c.8913043.2570094 1.826087.7476636 2.6956522 1.3785047l1.4565217-2.7336449c-1.1956522-.8878504-2.5-1.4953271-4.0434783-1.7056075v-1.4252336h-2.2608695v1.3551402c-2.7391305.3037383-4.5652174 2.0093458-4.5652174 4.5794392v.046729c0 2.7803738 1.5434783 4.0420561 4.673913 4.953271v3.7149533c-1.2826087-.2803738-2.3695652-.9345794-3.5434782-1.8925234l-1.6956522 2.6635514c1.4347826 1.1682243 3.2608696 1.9626169 5.1304348 2.2196262v2.3598131zm-2.1521739-12.546729c-1.1956521-.4672897-1.5-.9345794-1.5-1.682243v-.0467289c0-.7476636.4347826-1.3084112 1.5-1.4485982zm2.0434783 7.3130841v-3.271028c1.173913.4672897 1.5434783.9579439 1.5434783 1.728972v.0467289c0 .8411215-.5217392 1.3317757-1.5434783 1.4953271z"/></defs><g fill="none" fill-rule="evenodd"><path d="m2.32878864 66.1358536c4.61227588-16.4788906 14.39029586-12.8014129 33.63591356-25.5075502 19.2456177-12.7061374 18.449612-42.2940928 44.0777154-34.95275182 25.6281034 7.34134102 35.6659294 39.61793552 29.8606184 66.09590472-2.801177 12.7761454-10.1427615 51.2455697-59.5491999 46.3164677-40.3440497-4.024981-50.41180871-43.4245715-48.02504746-51.9520704z" fill="url(#b)" opacity=".401576" transform="matrix(-1 0 0 1 113.5 0)"/><g opacity=".499023" transform="matrix(-1 0 0 1 127.089528 0)"><use fill="url(#c)" xlink:href="#e"/><use fill="url(#d)" xlink:href="#e"/></g><path d="m50.1135829 118.985678c-17.6616147-3.705827-21.6386913-27.0515992-32.972089-45.5046256-11.33339781-18.4530264-18.27464494-20.0636509-11.74832845-37.8497669 6.52631655-17.7861159 35.11258885-22.0058983 58.65318165-17.1622848s37.3597529 7.8054734 43.5228269 27.7942786c6.427409 20.8461255 6.273748 37.3121005-4.698938 50.4660074-10.3157255 12.3663513-35.0950384 25.9622183-52.7566531 22.2563913z" fill="url(#f)" opacity=".256999" transform="matrix(-1 0 0 1 114.746176 0)"/><g transform="translate(22 37)"><g><use fill="#000" filter="url(#i)" xlink:href="#h"/><g fill-rule="evenodd"><use fill="#d8d8d8" xlink:href="#h"/><use fill="url(#g)" xlink:href="#h"/></g></g><g fill-rule="nonzero"><use fill="#ed4159" xlink:href="#k"/><use fill="#fff" xlink:href="#k"/><use fill="url(#j)" xlink:href="#k"/></g></g></g></svg>