<svg height="120" viewBox="0 0 120 120" width="120" xmlns="http://www.w3.org/2000/svg" xmlns:xlink="http://www.w3.org/1999/xlink"><defs><linearGradient id="a" x1=".480172%" x2="125.470808%" y1="30.247256%" y2="73.542637%"><stop offset="0" stop-color="#ff843b"/><stop offset="1" stop-color="#ff2d4c" stop-opacity=".615658"/></linearGradient><linearGradient id="b"><stop offset="0" stop-color="#c0c8ff"/><stop offset="1" stop-color="#4185ff"/></linearGradient><linearGradient id="c" x1="-26.219168%" x2="127.902136%" xlink:href="#b" y1="51.426047%" y2="51.047291%"/><path id="d" d="m77.2740722 117.98714c-17.3259615 0-21.6508224-10.885564-38.2740722-27.4577282-16.6232498-16.572164-39.7976669-10.2634255-37.91282155-37.5076883 1.88484534-27.2442629 31.73302375-44.18793589 59.16823315-44.02049381 13.2380329.08079412 52.8686364-.77091736 58.3673174 49.78328271 4.490084 41.2812826-28.8367351 59.2026276-41.3486568 59.2026276z"/><linearGradient id="e"><stop offset="0" stop-color="#ff843b"/><stop offset="1" stop-color="#ff2d4c"/></linearGradient><linearGradient id="f" x1="60.567702%" x2="34.370153%" xlink:href="#e" y1="-25.278088%" y2="133.445485%"/><linearGradient id="g" x1="13.287856%" x2="84.863435%" xlink:href="#b" y1="-7.245996%" y2="109.817626%"/><path id="h" d="m8.88656847 96.5999303c-8.38180869-12.4752812-1.51015949-14.9640125 4.70608693-37.6804689 6.2162464-22.7164564-14.53036452-39.5774607 9.8022829-51.08539359 24.3326473-11.50793292 63.0002207 14.17278989 76.1106271 38.51872899 13.1104066 24.3459391 13.8290756 41.2886145-5.3675196 57.5528532-21.9548175 18.601131-34.4053254 8.831483-44.9340873 5.975941-12.5880176-3.414039-31.9355813-.806379-40.31739003-13.2816607z"/><linearGradient id="i" x1="12.848851%" x2="93.949544%" xlink:href="#e" y1="110.263409%" y2="-15.127368%"/><linearGradient id="j" x1="53.37731%" x2="48.943379%" xlink:href="#b" y1="114.963449%" y2="-16.385976%"/><path id="k" d="m118.992339 55.9047024c.47285 19.2072201-21.0467544 28.0071693-36.186225 43.5277934-15.1394705 15.5206242-15.1017572 23.0999642-33.6787304 19.8102752-18.5769731-3.289688-29.1583733-32.3464825-29.8806162-57.9281266s-1.0323966-40.6225261 16.7630826-51.0412954c18.5587277-10.86563047 34.4123034-13.97806389 49.5545279-5.11755095 14.2356233 8.33001285 32.9551121 31.54168425 33.4279611 50.74890435z"/><linearGradient id="l"><stop offset="0" stop-color="#fff"/><stop offset="1" stop-color="#b4beff"/></linearGradient><linearGradient id="m" x1="36.206258%" x2="97.490541%" xlink:href="#l" y1="100%" y2="-124.753463%"/><rect id="n" height="13.142857" rx="3.355623" width="9.857143" y="32.857143"/><filter id="o" height="252.2%" width="302.9%" x="-101.4%" y="-60.9%"><feMorphology in="SourceAlpha" operator="erode" radius="1" result="shadowSpreadOuter1"/><feOffset dx="0" dy="2" in="shadowSpreadOuter1" result="shadowOffsetOuter1"/><feGaussianBlur in="shadowOffsetOuter1" result="shadowBlurOuter1" stdDeviation="4"/><feColorMatrix in="shadowBlurOuter1" type="matrix" values="0 0 0 0 0.0880934423   0 0 0 0 0.147539331   0 0 0 0 0.563660553  0 0 0 1 0"/></filter><linearGradient id="p" x1="46.551565%" x2="61.872635%" xlink:href="#l" y1="100%" y2="-124.753463%"/><rect id="q" height="26.285714" rx="3.355623" width="9.857143" x="16.428571" y="19.714286"/><filter id="r" height="176.1%" width="302.9%" x="-101.4%" y="-30.4%"><feMorphology in="SourceAlpha" operator="erode" radius="1" result="shadowSpreadOuter1"/><feOffset dx="0" dy="2" in="shadowSpreadOuter1" result="shadowOffsetOuter1"/><feGaussianBlur in="shadowOffsetOuter1" result="shadowBlurOuter1" stdDeviation="4"/><feColorMatrix in="shadowBlurOuter1" type="matrix" values="0 0 0 0 0.0880934423   0 0 0 0 0.147539331   0 0 0 0 0.563660553  0 0 0 1 0"/></filter><linearGradient id="s" x1="48.87398%" x2="53.876779%" xlink:href="#l" y1="100%" y2="-124.753463%"/><rect id="t" height="46" rx="3.355623" width="9.857143" x="32.857143"/><filter id="u" height="143.5%" width="302.9%" x="-101.4%" y="-17.4%"><feMorphology in="SourceAlpha" operator="erode" radius="1" result="shadowSpreadOuter1"/><feOffset dx="0" dy="2" in="shadowSpreadOuter1" result="shadowOffsetOuter1"/><feGaussianBlur in="shadowOffsetOuter1" result="shadowBlurOuter1" stdDeviation="4"/><feColorMatrix in="shadowBlurOuter1" type="matrix" values="0 0 0 0 0.0880934423   0 0 0 0 0.147539331   0 0 0 0 0.563660553  0 0 0 1 0"/></filter></defs><g fill="none" fill-rule="evenodd"><g><g opacity=".603841"><use fill="url(#a)" xlink:href="#d"/><use fill="url(#c)" xlink:href="#d"/></g><g opacity=".499023"><use fill="url(#f)" xlink:href="#h"/><use fill="url(#g)" xlink:href="#h"/></g><g opacity=".256999"><use fill="url(#i)" xlink:href="#k"/><use fill="url(#j)" xlink:href="#k"/></g></g><g transform="translate(39 37)"><use fill="#000" filter="url(#o)" xlink:href="#n"/><use fill="url(#m)" fill-rule="evenodd" xlink:href="#n"/></g><g transform="translate(39 37)"><use fill="#000" filter="url(#r)" xlink:href="#q"/><use fill="url(#p)" fill-rule="evenodd" xlink:href="#q"/></g><g transform="translate(39 37)"><use fill="#000" filter="url(#u)" xlink:href="#t"/><use fill="url(#s)" fill-rule="evenodd" xlink:href="#t"/></g></g></svg>