<svg xmlns="http://www.w3.org/2000/svg" width="454" height="454" viewBox="0 0 454 454"><style>
@keyframes fevl73hv89n24xfsyyrhf45k_t { 0% { transform: translate(-17.1px,-16.9px); animation-timing-function: cubic-bezier(.4,0,.6,1); } 50% { transform: translate(-22.8px,-16.9px); animation-timing-function: cubic-bezier(.4,0,.6,1); } 100% { transform: translate(-17.1px,-16.9px); } }
@keyframes b6eao7hsob4vrfwx97xm1ikw_t { 0% { transform: translate(68.8px,157.3px); animation-timing-function: cubic-bezier(.4,0,.6,1); } 50% { transform: translate(78.8px,157.3px); animation-timing-function: cubic-bezier(.4,0,.6,1); } 100% { transform: translate(68.8px,157.3px); } }
@keyframes h9lgj04igsdjtn2weg4d71ok_t { 0% { transform: translate(0px,0px); animation-timing-function: cubic-bezier(.4,0,.6,1); } 25% { transform: translate(0px,2px); animation-timing-function: cubic-bezier(.4,0,.6,1); } 50% { transform: translate(0px,0px); animation-timing-function: cubic-bezier(.4,0,.6,1); } 75.833% { transform: translate(0px,2px); animation-timing-function: cubic-bezier(.4,0,.6,1); } 100% { transform: translate(0px,0px); } }
@keyframes ypumt6b7d3rd95xikoqavvlw_t { 0% { transform: translate(79.6px,161px) rotate(40deg) translate(-84.6px,-163px); animation-timing-function: cubic-bezier(.4,0,.6,1); } 5% { transform: translate(79.6px,161px) rotate(47deg) translate(-84.6px,-163px); animation-timing-function: cubic-bezier(.4,0,.6,1); } 10.833% { transform: translate(79.6px,161px) rotate(40deg) translate(-84.6px,-163px); animation-timing-function: cubic-bezier(.4,0,.6,1); } 16.667% { transform: translate(79.6px,161px) rotate(47deg) translate(-84.6px,-163px); animation-timing-function: cubic-bezier(.4,0,.6,1); } 22.5% { transform: translate(79.6px,161px) rotate(40deg) translate(-84.6px,-163px); animation-timing-function: cubic-bezier(.4,0,.6,1); } 28.333% { transform: translate(79.6px,161px) rotate(47deg) translate(-84.6px,-163px); animation-timing-function: cubic-bezier(.4,0,.6,1); } 34.167% { transform: translate(79.6px,161px) rotate(40deg) translate(-84.6px,-163px); animation-timing-function: cubic-bezier(.4,0,.6,1); } 39.167% { transform: translate(79.6px,161px) rotate(47deg) translate(-84.6px,-163px); animation-timing-function: cubic-bezier(.4,0,.6,1); } 45% { transform: translate(79.6px,161px) rotate(40deg) translate(-84.6px,-163px); animation-timing-function: cubic-bezier(.4,0,.6,1); } 50.833% { transform: translate(79.6px,161px) rotate(47deg) translate(-84.6px,-163px); animation-timing-function: cubic-bezier(.4,0,.6,1); } 56.667% { transform: translate(79.6px,161px) rotate(40deg) translate(-84.6px,-163px); animation-timing-function: cubic-bezier(.4,0,.6,1); } 62.5% { transform: translate(79.6px,161px) rotate(47deg) translate(-84.6px,-163px); animation-timing-function: cubic-bezier(.4,0,.6,1); } 68.333% { transform: translate(79.6px,161px) rotate(40deg) translate(-84.6px,-163px); animation-timing-function: cubic-bezier(.4,0,.6,1); } 74.167% { transform: translate(79.6px,161px) rotate(47deg) translate(-84.6px,-163px); animation-timing-function: cubic-bezier(.4,0,.6,1); } 80% { transform: translate(79.6px,161px) rotate(40deg) translate(-84.6px,-163px); animation-timing-function: cubic-bezier(.4,0,.6,1); } 85% { transform: translate(79.6px,161px) rotate(47deg) translate(-84.6px,-163px); animation-timing-function: cubic-bezier(.4,0,.6,1); } 90.833% { transform: translate(79.6px,161px) rotate(40deg) translate(-84.6px,-163px); animation-timing-function: cubic-bezier(.4,0,.6,1); } 95.833% { transform: translate(79.6px,161px) rotate(47deg) translate(-84.6px,-163px); animation-timing-function: cubic-bezier(.4,0,.6,1); } 100% { transform: translate(79.6px,161px) rotate(40deg) translate(-84.6px,-163px); } }
@keyframes kaok2pt31dyfkebe0d35hq8f_o { 0% { opacity: .3; } 25% { opacity: .3; } 50% { opacity: 1; } 75% { opacity: .3; } 100% { opacity: .3; } }
@keyframes u8v4iyleklny9zb1yxbkdxav_o { 0% { opacity: .3; } 12.5% { opacity: .3; } 37.5% { opacity: 1; } 62.5% { opacity: .3; } 100% { opacity: .3; } }
@keyframes j8w0wm7az3sls3y12rpbms1m_o { 0% { opacity: .3; } 25% { opacity: 1; } 50% { opacity: .3; } 100% { opacity: .3; } }
</style><path d="M188.9 6l235.7 115c25.2 12.3 35.7 42.7 23.4 67.9l-115 235.7c-12.3 25.2-42.7 35.7-67.9 23.4l-235.7-115c-25.2-12.3-35.7-42.7-23.4-67.9l115-235.7c12.3-25.2 42.7-35.7 67.9-23.4Z" fill="#e6f1ff"/><path d="M379.4 180.3h12.4c4.4 0 8 3.6 8 8.1c0 4.4-3.6 8-8 8h-154.8c-4.4 0-8-3.6-8-8c0-4.5 3.6-8.1 8-8.1h11.3c-1-2.6-1.5-5.4-1.5-8.4c0-13.5 10.9-24.5 24.5-24.5c5.2 0 10.1 1.6 14.1 4.4c2.9-15 16.1-26.4 32-26.4c.2 0 .4 0 .6 0c.2 0 .4 0 .6 0c18.7 0 33.9 15.1 33.9 33.8c0 1.5-0.1 3-0.3 4.5c2.7-1.8 6-2.8 9.6-2.8c9.8 0 17.7 8 17.7 17.8c0 .5 0 1.1-0.1 1.6Z" stroke="#b9d2ff" stroke-width="2" fill="#fff" transform="translate(297.3,144) translate(-314.4,-160.9)" style="animation: 2s linear infinite both fevl73hv89n24xfsyyrhf45k_t;"/><path d="M198.4 343.7h157.3" stroke="#b9d2ff" stroke-width="2" stroke-linecap="round" stroke-linejoin="round" fill="none"/><path d="M211.6 350.4h71.9" stroke="#b9d2ff" stroke-width="2" stroke-linecap="round" stroke-linejoin="round" fill="none"/><g fill="none" fill-rule="evenodd" transform="translate(210,250.3) translate(-141.1,-93)" style="animation: 2s linear infinite both b6eao7hsob4vrfwx97xm1ikw_t;"><path d="M264.3 186h-22.2c-4.8 0-8.6-3.9-8.6-8.6v-33.8c13.1-1.4 26.5-3.2 39.4-5.6v39.4c0 4.7-3.9 8.6-8.6 8.6Z" stroke="#3959a4" stroke-width="2" fill="#b0ceff"/><g transform="translate(141.1,84) translate(-141.1,-84)" style="animation: 2s linear infinite both h9lgj04igsdjtn2weg4d71ok_t;"><path fill="#d3e3ff" fill-rule="nonzero" d="M118.7 10.3l107.8 2.6l30.8 39.5l-24.1 15.6l-136.6 2.3l8.4-60Z"/><path d="M273.1 41.4h-8.2c-4.7 0-9.2 2-12.4 5.4c-9.4 9.7-22.2 15.2-35.7 15.2h-75.7h-75.6c-13.5 0-26.4-5.5-35.7-15.2c-3.2-3.4-7.7-5.4-12.4-5.4h-8.2c-5.1 0-9.2 4.2-9.2 9.2c0 3.5 1.9 6.6 4.9 8.2l11.3 5.9l7.8-10.3l-8 10.6c-7.1 9.4-10.9 20.8-10.9 32.6v37.1l3.4 1.5v6.1l-3.4 2.1v5.8c0 4 2.8 7.3 6.7 8.1c59.9 11 129.3 9.7 129.3 9.7c0 0 69.5 1.3 129.4-9.7c3.9-0.8 6.7-4.1 6.7-8.1v-5.7l-3.6-2.2v-6.1l3.6-1.6v-37c0-11.8-6.1-26.2-13.2-35.6l2.1 2.7l11.2-5.9c3.1-1.6 5-4.7 5-8.2c0-5-4.1-9.2-9.2-9.2" fill="#f4f9ff" fill-rule="nonzero"/><path d="M29.8 46.8c9.3 9.7 22.2 15.2 35.7 15.2h75.6h75.7c13.5 0 26.3-5.5 35.7-15.2" stroke="#3959a4" stroke-width="2"/><path d="M266.1 64.7l11.2-5.9c3.1-1.6 5-4.7 5-8.2c0-5-4.1-9.2-9.2-9.2h-8.2c-4.7 0-9.2 2-12.4 5.4" stroke="#3959a4" stroke-width="2"/><path d="M101.9 131.5c-11.4 0-20.6-9.3-20.6-20.7v-3.1h119.7v3.1c0 11.4-9.2 20.7-20.6 20.7h-78.5Z" fill="#d3e3ff" fill-rule="nonzero"/><path d="M180.4 131.5h-78.5c-11.4 0-20.6-9.3-20.6-20.7v-3.1h119.7v3.1c0 11.4-9.2 20.7-20.6 20.7Z" stroke="#3959a4" stroke-width="2" stroke-linecap="round" stroke-linejoin="round"/><path d="M267.4 146.3c0 2.6-1.9 4.9-4.5 5.3c-13.3 2.5-56.1 9.3-121.8 9.3c-65.6 0-108.4-6.8-121.7-9.3c-2.6-0.4-4.5-2.7-4.5-5.3" stroke="#3959a4" stroke-width="2" stroke-linecap="round" stroke-linejoin="round"/><path d="M140.3 122.2l-2.2-6.2c1.4-2.2 4.7-2.2 6 0l-2.2 6.2c-0.1 .5-0.6 .7-1 .5c-0.3-0.1-0.5-0.2-0.6-0.5Z" fill="#fefefe" fill-rule="nonzero"/><path d="M144.1 116l-2.2 6.2c-0.1 .5-0.6 .7-1 .5c-0.3-0.1-0.5-0.2-0.6-0.5l-2.2-6.2c1.4-2.2 4.7-2.2 6 0Z" stroke="#3959a4" stroke-width="2" fill="#f4fbff" fill-rule="nonzero"/><path d="M18.7 83.4c0 0 35.8 12.2 63.4 12.9c27.6 .7 56 0 56 0" stroke="#3959a4" stroke-width="2"/><path d="M257.6 83.4c0 0-35.9 12.2-63.4 12.9c-27.6 .7-56.1 0-56.1 0" stroke="#3959a4" stroke-width="2" stroke-linecap="round" stroke-linejoin="round"/><path d="M259.3 55.8l4.7 6.2c7.1 9.4 13.2 23.8 13.2 35.6v37l-3.6 1.6v6.1l3.6 2.2v5.7c0 4-2.8 7.3-6.7 8.1c-59.9 11-129.4 9.7-129.4 9.7c0 0-69.4 1.3-129.3-9.7c-3.9-0.8-6.7-4.1-6.7-8.1v-5.8l3.4-2.1v-6.1l-3.4-1.5v-37.1c0-11.8 3.8-23.2 10.9-32.6l8-10.6" stroke="#3959a4" stroke-width="2" stroke-linecap="round" stroke-linejoin="round"/><path d="M29.8 46.8l26.4-34.9c5.7-7.5 14.6-11.9 24-11.9h60.9h61c9.4 0 18.3 4.4 24 11.9l24.3 32.2l2.1 2.7" stroke="#3959a4" stroke-width="2"/><path d="M227 13.1l-0.9-1.2c-5.7-7.5-14.6-11.9-24-11.9h-61h-60.9c-9.4 0-18.3 4.4-24 11.9l-0.9 1.2c6.1-0.3 57-2.3 171.7 0Z" stroke="#3959a4" stroke-width="2" fill="#f4f9ff"/><path d="M264.9 95.6l1.8 7.4c2.6 8.2-2.9 15.3-9.8 16l-35.3 1c-3.6 .4-7-1.6-8.3-4.9c-1.8-4.5 1-9.5 5.9-10.4l45.7-9.1Z" fill="#fefefe" fill-rule="nonzero"/><path d="M264.9 95.6l1.8 7.4c2.6 8.2-2.9 15.3-9.8 16l-35.3 1c-3.6 .4-7-1.6-8.3-4.9c-1.8-4.5 1-9.5 5.9-10.4l45.7-9.1Z" stroke="#3959a4" stroke-width="2" stroke-linecap="round" stroke-linejoin="round"/><path d="M242.7 107.3c1.3-5.4 5-9.2 8.2-8.4c3.2 .7 4.7 5.8 3.4 11.2c-1.4 5.5-5 9.3-8.2 8.5c-3.2-0.8-4.7-5.8-3.4-11.3Zm-16.8 2.4c1.2-4.7 4.3-8 7.1-7.3c2.7 .6 4.1 5 2.9 9.7c-1.1 4.7-4.3 8-7 7.4c-2.8-0.7-4.1-5.1-3-9.8Z" stroke="#3959a4" stroke-width="2" fill="#f4f9ff" fill-rule="nonzero"/></g></g><g fill="none" transform="translate(37.4,74)"><path d="M154.1 67.7c2 0 3.6 1.6 3.6 3.6v32.4c0 2-1.6 3.6-3.6 3.6v-39.6Z" stroke="#3959a4" stroke-width="2" fill="#b0ceff"/><path d="M3.6 42.3v11.6c-2 0-3.6-1.6-3.6-3.6v-4.4c0-2 1.6-3.6 3.6-3.6Z" stroke="#3959a4" stroke-width="2" fill="#b0ceff"/><path d="M3.6 65v20.1c-2 0-3.6-1.6-3.6-3.6v-12.9c0-2 1.6-3.6 3.6-3.6Z" stroke="#3959a4" stroke-width="2" fill="#b0ceff"/><path d="M3.6 89.9v20.1c-2 0-3.6-1.7-3.6-3.7v-12.8c0-2 1.6-3.6 3.6-3.6Z" stroke="#3959a4" stroke-width="2" fill="#b0ceff"/><path d="M87.6 306.1c0-0.9-0.7-1.6-1.6-1.6h-13.7c-0.9 0-1.6 .7-1.6 1.6h-43.3c-13.1 0-23.8-10.7-23.8-23.8v-258.5c0-13.2 10.7-23.8 23.8-23.8h102.9c13.2 0 23.8 10.6 23.8 23.8v258.5c0 13.1-10.6 23.8-23.8 23.8h-42.7Z" stroke="#3959a4" stroke-width="2" fill="#b0ceff"/><path d="M41.6 7.9v.6c0 5.8 4.8 10.5 10.6 10.5h54.4c5.8 0 10.6-4.7 10.6-10.5v-0.6h15.3c7.3 0 13.2 5.9 13.2 13.2v262.8c0 7.3-5.9 13.2-13.2 13.2h-106.7c-7.3 0-13.2-5.9-13.2-13.2v-262.8c0-7.3 5.9-13.2 13.2-13.2h15.8Z" stroke="#3959a4" stroke-width="2" fill="#fff"/><rect x="69.1" y="9" stroke="#3959a4" stroke-width="2" fill="#a8d4f2" width="20.6" height="2.9" rx="1.1"/><path d="M102.7 125.7c.2 0 .4 .1 .6 .2c.2 .1 .3 .3 .4 .5c11.7 7.8 19.4 21.2 19.4 36.3c0 9.5-3 18.5-8.5 26c-0.3 .4-1 .5-1.4 .2c-0.5-0.3-0.6-1-0.2-1.4c.9-1.2 1.7-2.5 2.5-3.8l-7.5-4.3c-0.5-0.2-0.6-0.8-0.3-1.3c.2-0.5 .8-0.7 1.3-0.4l7.4 4.3c2.9-5.6 4.5-11.8 4.7-18.3h-8.5c-0.5 0-1-0.4-1-1c0-0.5 .5-1 1-1h8.5c-0.2-6.9-2-13.4-5.2-19.2l-7.7 4.5c-0.5 .3-1.1 .1-1.4-0.4c-0.3-0.5-0.1-1.1 .4-1.3l7.7-4.5c-3.1-5-7.2-9.2-12-12.5l-4.8 6.7c-0.3 .5-0.9 .6-1.3 .3c-0.5-0.3-0.6-1-0.3-1.4l4.7-6.7c-6.1-3.8-13.3-6.1-21.1-6.3v8.4c0 .6-0.4 1-1 1c-0.5 0-1-0.4-1-1v-8.4c-7.5 .2-14.5 2.3-20.5 5.9l5 7.1c.3 .4 .2 1.1-0.3 1.4c-0.4 .3-1.1 .2-1.4-0.3l-5-7.1c-5.3 3.5-9.8 8.3-13 13.8l7.6 4.4c.5 .3 .6 .9 .3 1.4c-0.2 .5-0.8 .6-1.3 .3l-7.6-4.3c-2.9 5.5-4.5 11.7-4.7 18.2h8.5c.5 0 1 .5 1 1c0 .6-0.5 1-1 1h-8.5c.2 6.5 1.8 12.7 4.7 18.3l7.4-4.3c.4-0.3 1.1-0.1 1.3 .4c.3 .5 .1 1.1-0.3 1.3l-7.5 4.3c.6 1 1.3 2.1 2 3c.3 .5 .2 1.1-0.3 1.4c-0.4 .3-1.1 .2-1.4-0.2c-5.1-7.3-7.9-16-7.9-25.2c0-24.2 19.7-43.8 43.9-43.8c0 0 0 0 0 0c.1 0 .1 0 .1 0c8.6 0 16.7 2.5 23.5 6.8Z" fill="#3959a4"/><path stroke="#3959a4" stroke-width="2" fill="#ecf3ff" stroke-linecap="round" stroke-linejoin="round" d="M56.9 192h43v-9.4h-43Z"/><path d="M84.8 142.8l4.3 19.3c.5 2.3-1 4.6-3.3 5.2c-0.3 0-0.7 .1-1 .1c-0.3 0-0.6-0.1-0.9-0.2c-2.4-0.5-3.9-2.9-3.4-5.2l4.3-19.2Z" stroke="#3959a4" stroke-width="2" fill="#b0ceff" stroke-linecap="round" stroke-linejoin="round" transform="translate(79.6,161) rotate(40) translate(-84.6,-163)" style="animation: 2s linear infinite both ypumt6b7d3rd95xikoqavvlw_t;"/></g><g stroke="#0072ce" stroke-linecap="round" stroke-linejoin="round" stroke-width="2" fill="none" fill-rule="evenodd" transform="translate(181.5,50.1)"><path d="M.8 0c19.1 0 34.6 15.4 34.6 34.3" opacity=".3" stroke="#3959a4" style="animation: 2s linear infinite both kaok2pt31dyfkebe0d35hq8f_o;"/><path d="M0 8.2c14.3 0 25.8 11.5 25.8 25.6" opacity=".3" stroke="#3959a4" style="animation: 2s linear infinite both u8v4iyleklny9zb1yxbkdxav_o;"/><path d="M0 16.8c9.6 0 17.4 7.8 17.4 17.3" opacity=".3" stroke="#3959a4" style="animation: 2s linear infinite both j8w0wm7az3sls3y12rpbms1m_o;"/></g></svg>