<svg xmlns="http://www.w3.org/2000/svg" xmlns:xlink="http://www.w3.org/1999/xlink" width="410px" height="367px" viewBox="0 0 410 367"><style>
@keyframes a0_t { 0% { transform: translate(156px,346px) rotate(45deg) scale(1,1) translate(-213.6px,-266.5px); animation-timing-function: cubic-bezier(.4,0,.6,1); } 50% { transform: translate(156px,346px) rotate(45deg) scale(.9,.9) translate(-213.6px,-266.5px); animation-timing-function: cubic-bezier(.4,0,.6,1); } 100% { transform: translate(156px,346px) rotate(45deg) scale(1,1) translate(-213.6px,-266.5px); } }
@keyframes a1_t { 0% { transform: translate(2px,1px); animation-timing-function: cubic-bezier(.4,0,.6,1); } 50% { transform: translate(-4px,1px); animation-timing-function: cubic-bezier(.4,0,.6,1); } 100% { transform: translate(2px,1px); } }
@keyframes a2_t { 0% { transform: translate(2px,1px); animation-timing-function: cubic-bezier(.4,0,.6,1); } 50% { transform: translate(7px,1px); animation-timing-function: cubic-bezier(.4,0,.6,1); } 100% { transform: translate(2px,1px); } }
@keyframes a3_t { 0% { transform: translate(136.7px,102.6px) rotate(0deg) translate(-57.3px,-70.6px); animation-timing-function: cubic-bezier(.4,0,.6,1); } 50% { transform: translate(136.7px,102.6px) rotate(2deg) translate(-57.3px,-70.6px); animation-timing-function: cubic-bezier(.4,0,.6,1); } 100% { transform: translate(136.7px,102.6px) rotate(0deg) translate(-57.3px,-70.6px); animation-timing-function: cubic-bezier(0,0,.6,1); } }
@keyframes a4_t { 0% { transform: translate(137.7px,166.1px) rotate(0deg) translate(-136.4px,-134.3px); animation-timing-function: cubic-bezier(.4,0,.6,1); } 50% { transform: translate(137.7px,166.1px) rotate(2deg) translate(-136.4px,-134.3px); animation-timing-function: cubic-bezier(.4,0,.6,1); } 100% { transform: translate(137.7px,166.1px) rotate(0deg) translate(-136.4px,-134.3px); animation-timing-function: cubic-bezier(0,0,.6,1); } }
@keyframes a5_t { 0% { transform: translate(137.7px,166.1px) rotate(0deg) translate(-33.3px,-165.1px); animation-timing-function: cubic-bezier(.4,0,.6,1); } 50% { transform: translate(137.7px,166.1px) rotate(2deg) translate(-33.3px,-165.1px); animation-timing-function: cubic-bezier(.4,0,.6,1); } 100% { transform: translate(137.7px,166.1px) rotate(0deg) translate(-33.3px,-165.1px); animation-timing-function: cubic-bezier(0,0,.6,1); } }
@keyframes a6_t { 0% { transform: translate(137.9px,165.9px) rotate(0deg) translate(74.4px,-84.2px); animation-timing-function: cubic-bezier(.4,0,.6,1); } 50% { transform: translate(137.9px,165.9px) rotate(2deg) translate(74.4px,-84.2px); animation-timing-function: cubic-bezier(.4,0,.6,1); } 100% { transform: translate(137.9px,165.9px) rotate(0deg) translate(74.4px,-84.2px); animation-timing-function: cubic-bezier(0,0,.6,1); } }
@keyframes a7_t { 0% { transform: translate(364.4px,94.4px) rotate(0deg) translate(-15.2px,-15.2px); } 100% { transform: translate(364.4px,94.4px) rotate(360deg) translate(-15.2px,-15.2px); } }
</style><title>Illustration_Golf_1</title><desc>Created with Sketch.</desc><defs><path id="path-2" d="M26.1 6.4l7.3 13.5c-5.6-1-10.5-2.3-14.6-4c-4.1-1.7-10.3-7-18.8-15.9l26.1 6.4Z"/><rect id="path-4" x="-38.1" y="14.5" width="7" height="14" rx="3.5"/><filter id="filter-5" x="-153.6%" y="-76.8%" width="407.1%" height="253.6%"><feOffset dx="20" dy="0" in="SourceAlpha" result="shadowOffsetInner1"/><feComposite in="shadowOffsetInner1" in2="SourceAlpha" operator="arithmetic" k2="-1" k3="1" result="shadowInnerInner1"/><feColorMatrix values="0 0 0 0 1   0 0 0 0 1   0 0 0 0 1  0 0 0 0.1 0" in="shadowInnerInner1"/></filter><linearGradient id="Gradient-0" x1="-0.2" y1=".3" x2="1.2" y2=".8"><stop offset="0" stop-color="#cff6f0"/><stop offset="1" stop-color="#dffdec"/></linearGradient><mask id="Mask-1" fill="#fff"><use xlink:href="#path-2"/></mask></defs><rect fill="url(#Gradient-0)" width="267.8" height="267.8" rx="45.4" fill-rule="evenodd" transform="translate(156,346) rotate(45) translate(-213.6,-266.5)" style="animation: 2s linear infinite both a0_t;"/><path fill="#00c5b8" d="M170.9 127.6l41.2 13.4l2.3 6.3l-42-9.8Z" fill-rule="evenodd"/><path d="M256.3 75l1.6 3.4v.2c-0.5 3.5-1.6 6.9-3.2 10.3c-1.7 3.4-4.1 7.1-7.2 11.3l-0.2 .2h-3.3l-0.7 1.2c-3.9 7.7-4.9 9.5-6.2 11.8c-2.6 4.6-6.7 8.5-13.6 11.6c-1.6 .7-5.6 2.3-6.2 2.6c-1.3 .6-2.1 1.2-2.8 2.3c-0.7 .9-1.4 2.3-2.7 5c-0.3 .7-1.8 3.9-2.1 4.6c-0.5 1.1-0.8 1.8-1 2.3c-0.3 1-0.3 .8-0.5 3.9l-0.1 .9l-32.6-8.7l.8-0.9c1.9-2.2 3.3-4.4 4.4-6.9c.5-1 .9-2 1.3-3.2c.1-0.3 .8-2.2 1-2.8c0 0 0 0 0 0c1.3-3.5 1.2-8.7-0.5-11.8c-1.8-3.1-2.6-7.1-3.2-13.5c-0.5-4.6 .4-15.2 1.6-21.6c-8.5-1.3-9.5-8-3.2-19.5c.7-1.2 1.4-2.5 2.1-3.7c3.7-6.3 7.6-11.6 12.1-16.9c-0.2 .2 6.6-7.6 7.3-8.7l.2-0.3c1-1.8 2.9-1.5 6.6 .3c1 .4 5.2 2.6 5.4 2.7c2.7 1.3 5 2.4 7.4 3.4c5.4 2.2 10.9 4 16.9 5.3c2.3 .5 4.2 .3 7.9-0.5c4.3-0.9 5.8-1 7.8-0.3c2.7 .8 4.8 3.2 6.4 7.7c3.2 8.6 2.7 18-1.5 28.3Z" fill="#fff" stroke="#00c5b8" stroke-width="1.5" fill-rule="evenodd"/><path d="M292.4 220c12.1 0 22.5 7.6 26.3 18.3c2.7-1.4 5.7-2.1 8.9-2.1c10.9 0 19.8 8.7 19.8 19.5c0 10.8-8.9 19.5-19.8 19.5h-35.2c-5.9 0-22.9 0-27.5 0c-8.8 0-15.9-7-15.9-15.7c0-8.5 6.8-15.4 15.3-15.7h.4c1.9-13.4 13.6-23.8 27.7-23.8Z" stroke="#00c5b8" stroke-width="1.5" fill="#fff" fill-rule="evenodd" transform="translate(2,1)" style="animation: 2s linear infinite both a1_t;"/><path d="M31.2 185c5.9 0 10.9 3.7 12.8 8.9c1.3-0.6 2.8-1 4.4-1c5.3 0 9.6 4.3 9.6 9.6c0 5.2-4.3 9.5-9.6 9.5h-17.2c-2.9 0-11.2 0-13.4 0c-4.3 0-7.8-3.4-7.8-7.7c0-4.1 3.3-7.5 7.5-7.7h.2c.9-6.5 6.6-11.6 13.5-11.6Z" stroke="#00c5b8" stroke-width="1.5" fill="#fff" fill-rule="evenodd" transform="translate(2,1)" style="animation: 2s linear infinite both a2_t;"/><path d="M183.8 51.8c10.4-30.7 28.2-41.9 53.3-33.3c25.1 8.5 31.5 27.6 19.1 56.8l-0.1 .3l-0.3 .1c-13.1 5.6-25.5 6.5-37.1 2.8c-11.6-3.8-23.2-12.5-34.8-26l-0.2-0.3l.1-0.4Z" fill="#fff" stroke="#00c5b8" stroke-width="1.5" fill-rule="evenodd"/><path d="M216 56.6l18.8 5.8c1.6 .4 3.3-0.4 3.8-2c.1-0.3 .1-0.6 .1-1c-0.1-6.8-3.2-11.1-9.3-13c-6.1-1.9-11.1 0-15 5.6c-0.9 1.4-0.6 3.2 .8 4.2c.3 .2 .5 .3 .8 .4Z" fill="#cdf3f1" stroke="#00c5b8" stroke-width="1.5" fill-rule="evenodd"/><path d="M185.7 53.4l70.7 21.1l-0.2 .7c-3.2 11.1-9.5 20.8-18.8 29.3c-11.7 10.6-24 12-36.4 8.1c-8.7-2.8-16.6-12.8-18.3-24.5c-1.2-8.3-0.2-19.6 2.8-33.9l.2-0.8Z" fill="#cdf3f1" stroke="#00c5b8" stroke-width="1.5" fill-rule="evenodd"/><g transform="translate(136.7,102.6) translate(-57.3,-70.6)" style="animation: 2s linear infinite both a3_t;"><path d="M99.8 8.2c2.8 .3 4.7 1 5.8 2.1c1 .9 1.6 2.2 1.8 3.7c2.8-0.6 5.2 .7 6.8 3.7c.8 1.5 0 3.1-1.9 4.9c-1 .9-2.2 1.9-3.8 2.9c-0.6 .4-2.1 1.4-3.4 2.2c3.2 .4 5.9 2.4 7.6 5.3c.8 1.4 1.3 2.9 1.1 3.9c-0.2 1.4-1.4 1.9-2.9 1.2c-2.4-1.2-10.3-1.7-17.8-0.6c-1.5 .2-2.5 .1-6-0.5c-4.9-0.9-7.6-0.9-10.6 .6c-0.3 .1-0.6 .3-0.9 .5c-3 1.7-12.5 10.1-22.4 19.6c-4.8 4.6-9.1 8.9-12.2 12.2c-1.6 1.7-2.9 3.1-3.7 4.2c-0.4 .5-1 2-0.2 2.8c3.3 3.1 14.3 8.5 25.9 13.1c6.7 2.7 17.2 6.1 31.5 10.1l1.1 .3l-30.5 40.7l-0.6-0.4c-43.2-33.3-64.5-53.6-64.5-61.6c0-8.1 21.1-26.3 63.6-55.1c3.2-5.3 6.9-9.9 11.1-13.7c4.2-3.9 9.2-7.3 15.1-10.1l.4-0.2l.4 .3c2.6 2 4.4 3.4 5.3 4.2c.8 .8 2.2 2 3.9 3.7Z" stroke="#00c5b8" stroke-width="1.5" fill="#fff" fill-rule="evenodd"/><path d="M90.1 .9l1.1 .8l1.8 4.9l-1.1 1c-4.5 4.1-7.6 7.7-10.6 9.8c-2.2-1.4-7.9-3.3-15.3 9.1c-7.9 8.8-54.1 38.8-56.2 52.4c-1 9.4 30.5 15.1 54.3 26.2c0 0-3.6 .4-13.2 .3h-2.9l-12.8 10.9l-2-1.7c-21.6-18.2-32.5-30.1-32.5-35.5c0-7.7 21.2-25.9 63.5-54.6c3.2-5.3 6.9-9.8 11-13.7c4.1-3.8 9.1-7.1 14.9-9.9Z" fill="#cdf3f1" fill-rule="evenodd"/></g><path d="M86.5 121.5c-5.1 9.8-9.1 17.4-12 22.9c-2.9 5.4-6.7 14.7-11.4 27.9c12.6-4.1 21.1-10.4 25.6-18.9c4.5-8.5 3.8-19.2-2.2-31.9Z" fill="#00c5b8" fill-rule="evenodd"/><g transform="translate(137.7,166.1) translate(-136.4,-134.3)" style="animation: 2s linear infinite both a4_t;"><path d="M116.5 18.2c-21.4 16.9-35.8 28.9-43.3 36c-15.1 14.2-28.8 28.8-28.3 30.8c.2 .9 4.1 2.4 11.2 4.2c3 .8 6.5 1.6 11.7 2.8c.9 .2 1.9 .5 3.3 .8c-0.3-0.1 2.6 .6 3.4 .8c2.8 .6 5 1.1 7.1 1.6c12.7 2.9 26.7 7 41.8 12.1l1.3 .5l-43.2 36.1l-0.4-0.1c-18.5-7.5-33.8-14.9-46.1-22.3c-24.3-14.7-34.9-22.4-34.9-27.4c0-5.9 38.3-45.8 58.1-60.1c13.8-9.9 30-21.1 48.5-33.6l.7-0.4l9.6 17.8l-0.5 .4Z" stroke="#00c5b8" stroke-width="1.5" fill="#fff" fill-rule="evenodd"/><path d="M107.1 1.1v1.1l-5 3.7c-18.4 13.8-39 30.9-52.8 43.9c-13.8 13-34.5 35.2-37.6 42.4c-3.1 7.3 18.9 16.8 31.1 22.7l.3 .1c8 3.9 23.4 7.9 46.1 12l-15.5 13c-14.7-6.3-27.2-12.4-37.5-18.6l-0.9-0.5c-18.3-11.1-34.5-21.5-34.5-26.7c0-5.2 37.1-44.6 57.8-59.5l1.9-1.4c12.7-9.2 27.4-19.3 44-30.5l2.6-1.7Z" fill="#cdf3f1" fill-rule="evenodd"/></g><path d="M172.7 142.6c29 2.2 46.1 5.3 51.7 9.4c11.9 8.9 20.4 18.9 23 30.9c1.3 5.9 1.7 8.3 2 11.4c.8 10.1-2.6 19.4-13.1 34c-1.1 1.5-17.2 21.3-23 29.3c-6.4 9-11.7 17.7-15.9 26.7c-1.1 2.4-3 8.6-5.2 17.7c-0.4 1.6-0.8 3.2-1.3 5c-1.2 5.1-2.4 10.5-3.7 16.1c-0.7 3-1.8 8-1.8 7.9c-0.1 .4-0.1 1.1 0 3.1c0 .5 0 .9 0 1.2c.1 2.1 0 3.4-0.3 4.3c-0.3 .9-0.7 1.4-1.3 2c-0.1 .1-0.1 .2-0.3 .3c-0.5 .5-0.7 .9-0.9 1.5c-0.1 .5-0.1 1.2 .1 2.2c0 .2 .1 .5 .2 .9c.4 2 .5 2.4 .2 3.1c-0.1 .6-0.5 1.1-0.9 1.6c-0.2 .2-0.7 .7-0.7 .7c-0.1 .1-0.1 .2-0.1 .1c-0.3 1.6-0.7 2.7-1.1 3.4l-0.3 .5l-25.9-11l-72-71.7v-0.3c-0.9-24.3-1-41.3-0.3-51c.2-3.6 .6-7.4 1.3-14.2c.1-0.4 .1-0.4 .1-0.9c1.8-17 2.2-23.1 1.1-24.7c-1.3-2.1-7.3-5.2-17.7-9.3l-1.6-0.6l1.5-0.8c6.5-3.1 12.4-9.9 17.8-20.4c5.4-10.4 6.5-19.6 3.6-27.8l-0.4-1.2l1.2 .2c21.2 3 38 6.3 50.5 9.9c12.3 3.6 23.5 7.1 33.5 10.5Z" stroke="#00c5b8" stroke-width="1.5" fill="#fff" fill-rule="evenodd"/><path d="M182.7 340.7h.5l-0.3 .2c-0.3 .4-0.7 .9-0.9 1.7c-0.2 1 0 2.3 .3 3.5v.4l-2.8-0.5c-7.6-1.4-11.5-2.4-11.8-3c-0.2-0.6 4.8-1.4 15-2.3Zm-37.6-5.9l-7.9-7.8l2.9-0.2c24-1.4 25.8 1.2 5 8Zm49.5-45l-0.3 1.3c-1.3 4.3-2.6 9.7-3.9 15.1l-2.1 .7c-14.2 4.8-21.6 5.9-22.2 3.2c-0.6-2.8 8.7-9.4 27.8-19.9l.7-0.4Zm-117.2-126.5l3.2 1.4c7.1 3.6 11 11.1 10.6 18.6c1.1 14.2 1.8 29.8 1.8 46.7v3.6c0 28.6 10.4 48.5 15.9 53.8c5.5 5.2 19.5 8.5 20.8 12.1c.6 1.8-2.9 4.8-10.8 9.2l-36-35.9l-0.2-5.3c-0.6-21.9-0.9-36.1-0.2-46c.8-9.9 2.1-19.4 2.8-27.9c.1-0.4 .2-1.7 .2-3.9c.2-3.4 .2-6.9-0.5-8c-1.5-2.3-7.5-5.4-18.2-9.6c3.6-1.7 7.3-4.9 10.6-8.8Z" fill="#cdf3f1" fill-rule="evenodd"/><use x="154.5" y="345.4" stroke="#00c5b8" stroke-width="1.5" fill="#fff" xlink:href="#path-2" fill-rule="evenodd"/><g fill="none" fill-rule="evenodd" mask="url(#Mask-1)" transform="translate(154.5,345.4)"><use xlink:href="#path-4" fill="#fff"/><use xlink:href="#path-4" fill="#000" filter="url(#filter-5)"/><use xlink:href="#path-4" stroke="#00c5b8" stroke-width="1.5"/></g><g transform="translate(137.7,166.1) translate(-33.3,-165.1)" style="animation: 2s linear infinite both a5_t;"><path d="M53.1 50.9c.1 1.4 .4 2.3 1.1 2.8c.6 .5 1.9 .8 3.9 1l-0.8 2.2c-0.3 2.6 0 4.1 .8 4.7c1.3 .9 3.3 .9 5.6 .9c1.5-0.1 3-0.4 4.4-1.1c-0.5 1.7-0.3 2.7 .5 3.1c1.1 .5 2.9 .4 6 0c3-0.4 3.2-1.7 5.9-1.4c1.8 .2 4.4 1.2 7.9 3v-4.5l-24.7-21.7l-10.6 11Z" fill="#00c5b8" opacity=".2" fill-rule="evenodd"/><path d="M111.2 80.3c-0.6-1.8-1.3-2.9-2.2-3.6c-23.1-16.5-57.8-42-104.1-76.6c-1.1-0.3-2 .1-3.1 1.2c-1.1 1-1.1 2.4-1.2 3.6c44.8 35.6 79.1 61.8 103 78.6c.4 .3 1.8 .7 4.1 1.2l3.5-4.4Z" stroke="#00c5b8" stroke-width="1.5" fill="#fff" fill-rule="evenodd"/><path d="M81.3 45.1l-12 10.8c-1.6 2.2-1.6 4 0 5.5c1.6 1.4 3.9 1.4 6.7 0c8.8-6 13.3-9.4 13.5-10.3c.2-1.4 0-3.3-2.4-5c-1.7-1.2-3.6-1.6-5.8-1Z" stroke="#00c5b8" stroke-width="1.5" fill="#fff" fill-rule="evenodd"/><path d="M32.6 35c4.8-0.5 8.4-1.7 10.9-3.7c1.4-1.1 2.8-0.9 4.3 .6c3-3.6 3.1-4.5 2.9-6.9c0-4.5-2.9-7.5-5-10c-7.1-7-19-10.5-25-7c-9.5 5.5-15.4 11-20.7 25.7l13.7 15.3c7.3-1.6 16.3-3.5 20-5c9-5 9.1-3.2 10.6-4.5c-2.9-4.5-4.5-4.1-5.7-4.6c-1.2-0.4-3.2-0.4-6 .1Z" stroke="#00c5b8" stroke-width="1.5" fill="#fff" stroke-linecap="round" stroke-linejoin="round" fill-rule="evenodd"/><path d="M25.1 13.4c4.7-4.2 7.6-4.4 11.9-4.4" stroke="#00c5b8" stroke-width="1.5" stroke-linecap="round" stroke-linejoin="round" fill="none"/><path d="M32.1 17.7c4.5-4.2 7.5-4.2 11.7-4.2" stroke="#00c5b8" stroke-width="1.5" stroke-linecap="round" stroke-linejoin="round" fill="none"/><path d="M39.7 21c2-2.5 8.5-3.5 10 0" stroke="#00c5b8" stroke-width="1.5" stroke-linecap="round" stroke-linejoin="round" fill="none"/><path d="M74.4 40.1l-14.1 12.9c-1.6 2.1-1.6 3.9 0 5.4c1.6 1.5 3.9 1.5 6.7 0l14.9-13.2c.5-1.6-0.1-3-1.7-4.2c-1.7-1.2-3.6-1.5-5.8-0.9Z" stroke="#00c5b8" stroke-width="1.5" fill="#fff" fill-rule="evenodd"/><path d="M68.4 35.1l-13.1 11.2c-1.7 2.1-1.7 3.9 0 5.4c1.6 1.5 3.8 1.5 6.6 0l14-11.5c0-1.4-0.8-2.7-2.4-3.9c-1.7-1.2-3.4-1.6-5.1-1.2Z" stroke="#00c5b8" stroke-width="1.5" fill="#fff" fill-rule="evenodd"/><path d="M61.4 30.1l-10.1 8.8c-1.6 2.1-1.6 3.9 0 5.4c1.6 1.5 3.8 1.5 6.7 0l11-9.1c0-1.4-0.8-2.7-2.5-3.9c-1.6-1.2-3.3-1.6-5.1-1.2Z" stroke="#00c5b8" stroke-width="1.5" fill="#fff" fill-rule="evenodd"/></g><g transform="translate(137.9,165.9) translate(74.4,-84.2)" style="animation: 2s linear infinite both a6_t;"><path d="M0 4.1l185.9 138.3l2.1-3.4l-184.8-139c0 0-3.2 4.1-3.2 4.1Z" stroke="#00c5b8" stroke-width="1.5" fill="#fff" fill-rule="evenodd"/><path d="M175.9 134.9l2.3-3.3c7 3.5 11.8 8.4 14.4 14.8c1.9 4.8 3.6 11 3.6 20.2c0 4.5-1.7 11.7-9.8 10.9c-8.2-0.8-10.3-7.3-9.8-16.5c.5-9.3 5.7-11.1 4.1-17.4c-1.1-4.2-2.7-7.1-4.8-8.7Z" stroke="#00c5b8" stroke-width="1.5" fill="#fff" fill-rule="evenodd"/><path d="M187 171.7c2.2 0 4-4.3 4-9.5c0-5.3-1.8-9.5-4-9.5c-2.3 0-4 4.2-4 9.5c0 5.2 1.7 9.5 4 9.5Z" fill="#00c5b8" opacity=".2" fill-rule="evenodd"/></g><g fill="none" fill-rule="evenodd" transform="translate(350,80)"><ellipse cx="14.4" cy="14.4" rx="15.2" ry="15.2" fill="#cdf3f1" stroke="#00c5b8" stroke-width="1.5"/><path d="M14.4 0c8 0 14.4 6.4 14.4 14.4c0 2.7-0.7 5.2-2 7.4c-2.2 1.3-4.7 2-7.4 2c-8 0-14.4-6.4-14.4-14.4c0-2.7 .7-5.2 2-7.4c2.2-1.3 4.7-2 7.4-2Z" fill="#fff"/></g><g transform="translate(364.4,94.4) translate(-15.2,-15.2)" style="animation: 4.65s linear infinite both a7_t;"><ellipse cx="15.2" cy="15.2" rx="15.2" ry="15.2" fill="none"/><ellipse cx="11.9" cy="7.2" rx="3.3" ry="3.3" fill="none" stroke="#8aded7"/><ellipse cx="11.9" cy="7.2" rx="3.3" ry="3.3" fill="none" stroke="#8aded7"/><ellipse rx="3.3" ry="3.3" fill="none" stroke="#8aded7" transform="translate(11.9,7.2)"/><ellipse cx="23.9" cy="17.2" rx="3.3" ry="3.3" fill="none" stroke="#8aded7"/><ellipse cx="5.8" cy="14.4" rx="3.3" ry="3.3" fill="none" stroke="#8aded7"/><ellipse cx="17.6" cy="24.9" rx="3.3" ry="3.3" fill="none" stroke="#8aded7"/><ellipse cx="14.8" cy="16.1" rx="3.3" ry="3.3" fill="none" stroke="#8aded7"/><ellipse cx="8.6" cy="23.2" rx="3.3" ry="3.3" fill="none" stroke="#8aded7"/><ellipse cx="20.9" cy="8.2" rx="3.3" ry="3.3" fill="none" stroke="#8aded7"/></g><path d="M164 140l2.1-8.7c.1-0.7 .5-1.4 1.1-1.9c1.5-1.4 3.9-1.2 5.3 .3c2.3 2.6 4.8 4.3 7.4 5.3c1.6 .5 7.5 2.7 9 3.3c4.5 1.6 8.5 2.8 12.9 3.8c5.7 1.4 9.2 1.3 10.2 .1l.3-0.4l.5 .2c3.5 1 6 2.9 7.3 5.5c1.2 2.4-0.6 5.4-4.4 7.3c-4.2 2.2-10.6 3.1-18.5 2c-11.5-1.5-22.4-7-32.9-16.5l-0.3-0.3Z" stroke="#00c5b8" stroke-width="1.5" fill="#fff" fill-rule="evenodd"/><path d="M236.3 20.9c2.1 .7 4.1 .5 4.5-0.5c.3-1.1-1-2.5-3.1-3.3c-2.1-0.7-4.1-0.5-4.5 .5c-0.3 1.1 1 2.5 3.1 3.3Z" stroke="#00c5b8" stroke-width="1.5" fill="#cdf3f1" fill-rule="evenodd"/></svg>