<svg xmlns="http://www.w3.org/2000/svg" width="454" height="454" viewBox="0 0 454 454"><style>
@keyframes hg95jcozse3yib60ac6qff71_t { 0% { transform: translate(223.5px,227px) scale(-1,1) translate(-208.5px,-208.5px); animation-timing-function: cubic-bezier(.4,0,.6,1); } 50% { transform: translate(223.5px,227px) scale(-1,1) translate(-208.5px,-208.5px); animation-timing-function: cubic-bezier(.4,0,.6,1); } 100% { transform: translate(223.5px,227px) scale(-1,1) translate(-208.5px,-208.5px); } }
@keyframes bpd5hnb5a2pfubis6fyvfp81_t { 0% { transform: translate(15px,18.5px); animation-timing-function: cubic-bezier(.4,0,.6,1); } 50% { transform: translate(8px,18.5px); animation-timing-function: cubic-bezier(.4,0,.6,1); } 100% { transform: translate(15px,18.5px); } }
@keyframes g93tltqrseboke0cp4vnh54w_t { 0% { transform: translate(198px,52.5px) scaleX(-1) translate(-183px,-34px); animation-timing-function: cubic-bezier(.4,0,.6,1); } 50% { transform: translate(194px,52.5px) scaleX(-1) translate(-183px,-34px); animation-timing-function: cubic-bezier(.4,0,.6,1); } 100% { transform: translate(198px,52.5px) scaleX(-1) translate(-183px,-34px); } }
@keyframes i2qbdu916rorfxhyhyh8uay0_t { 0% { transform: translate(383.5px,321.5px) scaleX(-1) translate(-368.5px,-303px); animation-timing-function: cubic-bezier(.4,0,.6,1); } 50% { transform: translate(379.5px,321.5px) scaleX(-1) translate(-368.5px,-303px); animation-timing-function: cubic-bezier(.4,0,.6,1); } 100% { transform: translate(383.5px,321.5px) scaleX(-1) translate(-368.5px,-303px); } }
@keyframes w7ia6so8hyvzbxxa8lpv7c9g_t { 0% { transform: translate(341.4px,136.3px) scaleX(-1) translate(-326.4px,-117.8px); animation-timing-function: cubic-bezier(.4,0,.6,1); } 50% { transform: translate(332.2px,136.3px) scaleX(-1) translate(-326.4px,-117.8px); animation-timing-function: cubic-bezier(.4,0,.6,1); } 100% { transform: translate(341.4px,136.3px) scaleX(-1) translate(-326.4px,-117.8px); } }
@keyframes taxpcpryaijbddvx9rsl2f9g_t { 0% { transform: translate(89.4px,91.6px); animation-timing-function: cubic-bezier(.4,0,.6,1); } 50% { transform: translate(91.4px,81.5px); animation-timing-function: cubic-bezier(.4,0,.6,1); } 100% { transform: translate(89.4px,91.6px); } }
@keyframes dnabedxepgfx57pg3xk37vua_t { 0% { transform: translate(261.6px,127px) scale(1,1) translate(-46px,-65px); animation-timing-function: cubic-bezier(.4,0,.6,1); } 50% { transform: translate(261.6px,127px) scale(.9,1) translate(-46px,-65px); animation-timing-function: cubic-bezier(.4,0,.6,1); } 100% { transform: translate(261.6px,127px) scale(1,1) translate(-46px,-65px); } }
@keyframes uqv1uh5oaevldn4an3n8olh0_t { 0% { transform: translate(46.5px,0px) scale(1.1,1) translate(-336.5px,-135px); } 50% { transform: translate(46.5px,0px) scale(1,1) translate(-336.5px,-135px); animation-timing-function: cubic-bezier(.4,0,.6,1); } 100% { transform: translate(46.5px,0px) scale(1.1,1) translate(-336.5px,-135px); } }
@keyframes fpxpuabmdjas0l1khs2odm4l_t { 0% { transform: translate(260.6px,127.5px) scale(1,1) translate(-260.6px,-127.5px); animation-timing-function: cubic-bezier(.4,0,.6,1); } 50% { transform: translate(260.6px,127.5px) scale(1,.9) translate(-260.6px,-127.5px); animation-timing-function: cubic-bezier(.4,0,.6,1); } 100% { transform: translate(260.6px,127.5px) scale(1,1) translate(-260.6px,-127.5px); } }
@keyframes md3ftvy506wploi7tn76tmlg_t { 0% { transform: translate(129.6px,0px) scale(1,1) translate(-204px,-73px); animation-timing-function: cubic-bezier(.4,0,.6,1); } 50% { transform: translate(129.6px,0px) scale(1.1,1) translate(-204px,-73px); animation-timing-function: cubic-bezier(.4,0,.6,1); } 100% { transform: translate(129.6px,0px) scale(1,1) translate(-204px,-73px); } }
</style><path d="M10.5 180.2c-18.7 79.8 2.9 188.7 65.4 230.1c63.8 42.2 115.9-126.9 264.2-171.8c83-25.1 115.1-159.1-12.4-220.6c-61.6-29.8-268.1-47.8-317.2 162.3Z" fill="#e6f1ff" transform="translate(223.5,227) scale(-1,1) translate(-208.5,-208.5)" style="animation: 2s linear infinite both hg95jcozse3yib60ac6qff71_t;"/><path d="M16.2 206c-0.8-2.1-1.2-4.3-1.2-6.7c0-10.6 8.9-19.3 19.8-19.3c3.5 0 6.8 .9 9.7 2.4c2.6-11.7 13.2-20.4 26-20.4c14 0 25.4 10.5 26.5 23.8c2.4-1.2 5.1-1.8 8-1.8c10 0 18 7.9 18 17.6c0 1.5-0.2 3-0.6 4.4h11c3.5 0 6.4 2.9 6.4 6.4c0 3.5-2.9 6.4-6.4 6.4h-25.1c-1.1 .2-2.2 .3-3.3 .3c-1.1 0-2.2-0.1-3.2-0.3h-95.4c-3.5 0-6.4-2.9-6.4-6.4c0-3.5 2.9-6.4 6.4-6.4h9.8Z" stroke="#b9d2ff" stroke-width="2" fill="#fff" transform="translate(84.9,209.1) translate(-69.9,-190.6)" style="animation: 2s linear infinite both bpd5hnb5a2pfubis6fyvfp81_t;"/><path d="M150.7 43.2c-0.4-1.2-0.7-2.6-0.7-4c0-6.3 5.3-11.5 11.9-11.5c2.1 0 4.1 .5 5.8 1.5c1.6-7 8-12.2 15.7-12.2c8.8 0 16 6.9 16 15.5c0 .6-0.1 1.3-0.2 2c.9-0.3 1.9-0.5 2.9-0.5c4.8 0 8.8 3.8 8.8 8.5c0 .2 0 .5 0 .7h10.3c2.1 0 3.8 1.7 3.8 3.8c0 2.1-1.7 3.8-3.8 3.8h-17.4c-0.5 .1-1.1 .2-1.7 .2c-0.6 0-1.2-0.1-1.8-0.2h-55.5c-2.1 0-3.8-1.7-3.8-3.8c0-2.1 1.7-3.8 3.8-3.8h5.9Z" stroke="#b9d2ff" stroke-width="2" fill="#fff" transform="translate(198,52.5) scale(-1,1) translate(-183,-34)" style="animation: 2s linear infinite both g93tltqrseboke0cp4vnh54w_t;"/><path d="M410.8 315.6h8c2.9 0 5.2 2.3 5.2 5.2c0 2.9-2.3 5.2-5.2 5.2h-100.6c-2.9 0-5.2-2.3-5.2-5.2c0-2.9 2.3-5.2 5.2-5.2h7.3c-0.6-1.7-1-3.6-1-5.5c0-8.8 7.2-15.9 16-15.9c3.4 0 6.5 1.1 9.1 2.9c1.9-9.7 10.5-17.1 20.8-17.1c.2 0 .3 0 .4 0c.2 0 .3 0 .4 0c12.2 0 22 9.8 22 21.9c0 1 0 2-0.2 2.9c1.8-1.1 4-1.8 6.3-1.8c6.3 0 11.5 5.1 11.5 11.5c0 .4 0 .7 0 1.1Z" stroke="#b9d2ff" stroke-width="2" fill="#fff" transform="translate(383.5,321.5) scale(-1,1) translate(-368.5,-303)" style="animation: 2s linear infinite both i2qbdu916rorfxhyhyh8uay0_t;"/><path d="M400.7 139.4h14.4c4.9 0 8.9 4 8.9 9c0 4.9-4 8.9-8.9 8.9h-177.3c-5 0-9-4-9-8.9c0-5 4-9 9-9h13c-1.1-2.9-1.7-6.1-1.7-9.4c0-15 12.6-27.3 28-27.3c6 0 11.6 1.9 16.2 5c3.2-16.8 18.3-29.4 36.5-29.4c.2 0 .5 0 .7 0c.3 0 .5 0 .7 0c21.4 0 38.7 16.8 38.7 37.6c0 1.7-0.1 3.4-0.3 5c3.1-2 6.9-3.1 10.9-3.1c11.2 0 20.3 8.8 20.3 19.8c0 .6 0 1.2-0.1 1.8Z" stroke="#b9d2ff" stroke-width="2" fill="#fff" transform="translate(341.4,136.3) scale(-1,1) translate(-326.4,-117.8)" style="animation: 2s linear infinite both w7ia6so8hyvzbxxa8lpv7c9g_t;"/><g transform="translate(242.1,257.2) translate(-152.7,-165.6)" style="animation: 2s linear infinite both taxpcpryaijbddvx9rsl2f9g_t;"><g transform="translate(261.6,127) translate(-46,-65)" style="animation: 2s linear infinite both dnabedxepgfx57pg3xk37vua_t;"><path stroke="#3959a4" stroke-width="2" fill="#b0ceff" stroke-linejoin="round" d="M336.5 135l-10 42.6h53.3Z" transform="translate(46.5,0) scale(1.05,1) translate(-336.5,-135)" style="animation: 2s linear infinite both uqv1uh5oaevldn4an3n8olh0_t;"/><path stroke="#3959a4" stroke-width="2" fill="#d3e3ff" stroke-linejoin="round" d="M290 135v64.6l68.5-28Z" transform="translate(23.1,32.3) scale(-1,1) translate(-313.1,-167.3)"/></g><g transform="translate(260.6,127.5) translate(-260.6,-127.5)" style="animation: 2s linear infinite both fpxpuabmdjas0l1khs2odm4l_t;"><path stroke="#3959a4" stroke-width="2" fill="#b0ceff" stroke-linejoin="round" d="M74.4 73h129.7l10 119.6Z" transform="translate(129.6,0) translate(-204,-73)" style="animation: 2s linear infinite both md3ftvy506wploi7tn76tmlg_t;"/><path stroke="#3959a4" stroke-width="2" fill="#fff" stroke-linecap="round" stroke-linejoin="round" d="M129.7 .2l131.9 126.9l-131.9 204.2Z" fill-rule="evenodd"/></g></g></svg>