<?xml version="1.0" encoding="UTF-8" standalone="no"?>
<!-- Created with Keyshape -->
<svg xmlns="http://www.w3.org/2000/svg" width="390" height="400" viewBox="0 0 390 400">
    <defs>
        <linearGradient id="Gradient-0" x1="-0.22688" y1="0.324393" x2="1.2461" y2="0.809641">
            <stop offset="0" stop-color="#cff6f0"/>
            <stop offset="1" stop-color="#dffdec"/>
        </linearGradient>
    </defs>
    <style>
@keyframes Oval_t { 0% { transform: translate(180px,202.4px) scale(1,1); animation-timing-function: cubic-bezier(0.42,0,0.58,1); } 50.5555% { transform: translate(180px,202.4px) scale(0.93,0.917719); animation-timing-function: cubic-bezier(0.42,0,0.58,1); } 100% { transform: translate(180px,202.4px) scale(1,1); } }
@keyframes Path_t { 0% { transform: translate(1px,0px); animation-timing-function: cubic-bezier(0.42,0,0.58,1); } 50.5555% { transform: translate(1px,10px); animation-timing-function: cubic-bezier(0.42,0,0.58,1); } 100% { transform: translate(1px,0px); } }
@keyframes Path-3_t { 0% { transform: translate(-1px,0px); animation-timing-function: cubic-bezier(0.42,0,0.58,1); } 50.5555% { transform: translate(-1px,10px); animation-timing-function: cubic-bezier(0.42,0,0.58,1); } 100% { transform: translate(-1px,0px); } }
@keyframes Path-8_t { 0% { transform: translate(8.937002px,0px); animation-timing-function: cubic-bezier(0.42,0,0.58,1); } 50.5555% { transform: translate(8.937002px,10px); animation-timing-function: cubic-bezier(0.42,0,0.58,1); } 100% { transform: translate(8.937px,0px); } }
@keyframes a0_t { 0% { transform: translate(113.01017px,307.965192px); animation-timing-function: cubic-bezier(0.301454,0,1,1); } 25% { transform: translate(165.359161px,313.96521px); animation-timing-function: cubic-bezier(0.416848,0.631796,1,1); } 50% { transform: translate(217.708163px,307.965204px); animation-timing-function: cubic-bezier(0,0,0.598649,0); } 75% { transform: translate(165.359085px,304.225342px); animation-timing-function: cubic-bezier(0,0,0.684346,1); } 100% { transform: translate(113.01px,307.965px); } }
@keyframes ball-3_t { 0% { transform: scale(1,1) translate(-15.105849px,-16.035788px); animation-timing-function: cubic-bezier(0.362305,0.995927,0.668358,0.920973); } 25% { transform: scale(1.2,1.2) translate(-15.105849px,-16.035788px); animation-timing-function: cubic-bezier(0.32693,0.045361,0.647199,0.035791); } 50% { transform: scale(1,1) translate(-15.105849px,-16.035788px); animation-timing-function: cubic-bezier(0,0,0.439837,1.046489); } 75% { transform: scale(0.7,0.7) translate(-15.105849px,-16.035788px); animation-timing-function: cubic-bezier(0.109487,-0.001528,0.864578,0.263933); } 100% { transform: scale(1,1) translate(-15.105849px,-16.035788px); } }
@keyframes Shape-3_t { 0% { transform: translate(15.065px,15.175px) rotate(0deg) translate(-103.315px,-309.225px); animation-timing-function: cubic-bezier(0.165937,0.140002,0.80707,0.744602); } 50% { transform: translate(15.065px,15.175px) rotate(900deg) translate(-103.315px,-309.225px); animation-timing-function: cubic-bezier(0,0,0.575937,0.6387); } 100% { transform: translate(15.065px,15.175px) rotate(0deg) translate(-103.315px,-309.225px); } }
@keyframes flag_o { 0% { opacity: 0; } 50% { opacity: 0; } 50.4167% { opacity: 1; } 100% { opacity: 1; } }
    </style>
    <title>Illustration_Golf_2</title>
    <desc>Created with Sketch.</desc>
    <ellipse id="Oval" fill="url(#Gradient-0)" rx="175" ry="175" stroke="none" stroke-width="1" fill-rule="evenodd" transform="translate(180,202.4)" style="animation: 3s linear infinite both Oval_t;"/>
    <path id="Path" d="M106.706,153.2C115.282,153.2,122.584,158.659,125.33,166.294C127.218,165.343,129.353,164.807,131.612,164.807C139.337,164.807,145.6,171.073,145.6,178.803C145.6,186.534,139.337,192.8,131.612,192.8L106.706,192.8C102.518,192.8,90.4796,192.8,87.2588,192.8C81.0407,192.8,76,187.756,76,181.534C76,175.459,80.8063,170.507,86.8219,170.277L87.1041,170.27C88.4331,160.627,96.7027,153.2,106.706,153.2Z" stroke="#00C5B8" stroke-width="1.5" fill="#FFFFFF" fill-rule="evenodd" transform="translate(111.8,173) translate(-110.8,-173)" style="animation: 3s linear infinite both Path_t;"/>
    <path id="Path-3" d="M212.5,140C207.806,140,204,136.194,204,131.5C204,126.806,207.806,123,212.5,123L225.162,123.001C223.771,119.781,223,116.231,223,112.5C223,97.8645,234.864,86,249.5,86C255.561,86,261.147,88.035,265.612,91.459C268.673,75.2552,282.905,63,300,63C300.247,63,300.494,63.0026,300.74,63.0077L300.896,63.0049L301.5,63C321.658,63,338,79.3416,338,99.5C338,101.116,337.895,102.707,337.691,104.267C340.785,102.203,344.502,101,348.5,101C359.27,101,368,109.73,368,120.5C368,121.347,367.946,122.182,367.841,123L380.5,123C385.194,123,389,126.806,389,131.5C389,136.194,385.194,140,380.5,140L212.5,140Z" stroke="#00C5B8" stroke-width="1.5" fill="#FFFFFF" fill-rule="evenodd" transform="translate(295.5,101.5) translate(-296.5,-101.5)" style="animation: 3s linear infinite both Path-3_t;"/>
    <g id="ground" transform="translate(178.8,351.669) translate(-174.4,-47.3306)">
        <path id="Path-21" d="M3.4,310.4L352.2,309.2C272.318,369.733,211.176,400,168.776,400C139.176,400,84.051,370.133,3.4,310.4Z" stroke="#00C5B8" stroke-width="1.5" fill="#FFFFFF" stroke-linejoin="round" fill-rule="evenodd" transform="translate(-3.4,-305.339)"/>
        <ellipse id="Oval-2" fill="#00C5B8" opacity="0.4" rx="2" ry="5" stroke="none" stroke-width="1" fill-rule="evenodd" transform="translate(77.6,47.6612) rotate(-15)"/>
        <ellipse id="Oval-4" fill="#00C5B8" opacity="0.4" rx="4" ry="8" stroke="none" stroke-width="1" fill-rule="evenodd" transform="translate(134.6,70.6612) rotate(-15)"/>
        <ellipse id="Oval-6" fill="#00C5B8" opacity="0.4" rx="4" ry="8" stroke="none" stroke-width="1" fill-rule="evenodd" transform="translate(188.6,62.6612) rotate(-15)"/>
        <ellipse id="Oval-7" fill="#00C5B8" opacity="0.4" rx="3" ry="7" stroke="none" stroke-width="1" fill-rule="evenodd" transform="translate(235.375,58.9541) rotate(-15)"/>
        <ellipse id="Oval-8" fill="#00C5B8" opacity="0.4" rx="1.5" ry="3" stroke="none" stroke-width="1" fill-rule="evenodd" transform="translate(293.891,35.4786) rotate(-15)"/>
        <path id="Path-23" d="M3.4,310.4L352.2,309.2C288.805,336.995,225.108,352.492,161.108,355.692C129.108,355.692,76.5385,340.595,3.4,310.4Z" stroke="#00C5B8" stroke-width="1.5" fill="#FFFFFF" stroke-linejoin="round" fill-rule="evenodd" transform="translate(-3.4,-305.339)"/>
        <path id="Path-5" d="M171.257,400C160.345,378.337,156.384,360.56,159.374,346.669C160.171,342.966,205.367,331.702,237.8,323.6C259.422,318.199,297.48,313.399,351.972,309.2C317.148,337.462,286.225,358.5,259.203,372.316C221.99,390.426,192.674,399.654,171.257,400Z" fill="#00C5B8" opacity="0.2" stroke="none" stroke-width="1" fill-rule="evenodd" transform="translate(-3.4,-305.339)"/>
        <path id="Path-22" d="M3.4,310.4C59.2294,307.238,117.363,305.558,177.8,305.359C238.237,305.16,296.371,306.44,352.2,309.2C270.333,334.179,205.8,346.669,158.6,346.669C136.2,346.669,84.4667,334.579,3.4,310.4Z" stroke="#00C5B8" stroke-width="1.5" fill="#FFFFFF" stroke-linejoin="round" fill-rule="evenodd" transform="translate(-3.4,-305.339)"/>
    </g>
    <g id="flag-2" transform="translate(192.783,164.501) translate(-53.5834,-159.099)">
        <ellipse id="Oval-5" stroke="#00C5B8" stroke-width="1.5" fill="#CCF3F1" rx="28.2" ry="3.6" fill-rule="evenodd" transform="translate(-138.2,-5.40231) translate(166.4,320)"/>
        <path id="Mask-5" d="M177.8,8C190.6,12.8,199.8,15.2,205.4,15.2C221.129,15.2,225.53,12.0291,234.217,12.0291C245.46,12.0291,245.367,9.2,245.367,27.2C245.367,45.2,245.367,50.5043,245.367,59.6C245.367,68.6957,230.065,54.562,209.716,59.6C200.561,61.8667,190.322,60.6666,179,55.9997C180.891,43.431,181.836,34.88,181.836,30.3467C181.836,25.8133,180.491,18.3644,177.8,8Z" stroke="#00C5B8" stroke-width="1.5" fill="#FFFFFF" fill-rule="evenodd" transform="translate(-138.2,-5.40231)"/>
        <path id="Shape-5" d="M212.368,22.4C220.18,22.4,226.536,28.7737,226.536,36.6079C226.536,44.4421,220.18,50.8159,212.368,50.8159C204.556,50.8159,198.2,44.4421,198.2,36.6079C198.2,28.7737,204.556,22.4,212.368,22.4ZM212.368,24.5243C205.724,24.5243,200.318,29.945,200.318,36.6079C200.318,43.2709,205.724,48.6916,212.368,48.6916C219.012,48.6916,224.418,43.2709,224.418,36.6079C224.418,29.945,219.012,24.5243,212.368,24.5243ZM206.575,30.3467L206.575,40.745L220.28,40.7436L220.28,41.0186C220.28,41.9905,219.529,42.7898,218.578,42.8637L218.434,42.8693L206.302,42.8693C205.333,42.8693,204.536,42.1163,204.462,41.163L204.456,41.0186L204.456,32.1973C204.456,31.2255,205.207,30.4262,206.158,30.3522L206.302,30.3467L206.575,30.3467ZM218.434,35.5458C219.403,35.5458,220.201,36.2989,220.274,37.2521L220.28,37.3965L220.28,39.3309L218.161,39.3309L218.161,37.6701L210.596,37.6701L210.596,35.5458L218.434,35.5458ZM220.27,30.3467L220.27,32.471L207.983,32.471L207.983,30.3467L220.27,30.3467Z" fill="#00C5B8" stroke="none" stroke-width="1" fill-rule="evenodd" transform="translate(-138.2,-5.40231)"/>
        <path id="Rectangle-2" stroke="#00C5B8" stroke-width="1.5" fill="#FFFFFF" d="M171,5.40231L177.759,5.40231L177.9,323.205L171,323.402Z" fill-rule="evenodd" transform="translate(-138.2,-5.40231)"/>
    </g>
    <rect id="Rectangle" stroke="#00C5B8" stroke-width="1.5" fill="#FFFFFF" width="12.2" height="5" rx="1.2" fill-rule="evenodd" transform="translate(175.1,3.3) translate(-6.1,-2.5)"/>
    <path id="Path-8" d="M43.6118,59.6C55.7368,59.6,66.0603,67.2097,69.9429,77.8521C72.6123,76.5263,75.6295,75.7793,78.8235,75.7793C89.7458,75.7793,98.6,84.5144,98.6,95.2897C98.6,106.065,89.7458,114.8,78.8235,114.8L43.6118,114.8C37.6914,114.8,20.6712,114.8,16.1176,114.8C7.32657,114.8,0.2,107.769,0.2,99.0966C0.2,90.6278,6.99515,83.7249,15.4999,83.4047L15.899,83.3952C17.7778,69.9526,29.4693,59.6,43.6118,59.6Z" stroke="#00C5B8" stroke-width="1.5" fill="#FFFFFF" fill-rule="evenodd" transform="translate(58.337,87.2) translate(-49.4,-87.2)" style="animation: 3s linear infinite both Path-8_t;"/>
    <g id="ball-3" style="animation: 4s linear infinite both a0_t;">
        <g opacity="1" transform="translate(113.01,307.965) translate(-15.1058,-16.0358)" style="animation: 4s linear infinite both ball-3_t;">
            <ellipse id="Oval-3" fill="#00C5B8" opacity="0.2" rx="17.4" ry="1.8" stroke="none" stroke-width="1" fill-rule="evenodd" transform="translate(19.95,29.95)"/>
            <ellipse id="Mask-3" stroke="#00C5B8" stroke-width="1.5" fill="#CDF3F1" rx="15.15" ry="15.15" fill-rule="evenodd" transform="translate(15.065,15.175) translate(0.085,-0.025)"/>
            <path id="Path-4" d="M103.4,294.8C106.247,294.8,108.901,295.626,111.135,297.052C112.813,299.406,113.8,302.288,113.8,305.4C113.8,313.353,107.353,319.8,99.4,319.8C96.5533,319.8,93.8995,318.974,91.6652,317.548C89.9873,315.194,89,312.312,89,309.2C89,301.247,95.4471,294.8,103.4,294.8Z" fill="#FFFFFF" stroke="none" stroke-width="1" fill-rule="evenodd" transform="translate(13.15,13.25) translate(-101.4,-307.3)"/>
            <path id="Shape-3" d="M108,319.5C109.394,319.5,110.64,320.134,111.466,321.13C112.083,321.923,111.093,322.322,110.609,321.668C109.969,320.951,109.037,320.5,108,320.5C106.218,320.5,104.747,321.832,104.528,323.555C104.571,324.689,103.362,324.496,103.518,323.599C103.721,321.301,105.65,319.5,108,319.5ZM95,313.5C97.4853,313.5,99.5,315.515,99.5,318C99.5,319.795,98.4488,321.345,96.9283,322.067C95.8754,323.094,94.8206,321.962,95.7703,321.415C97.333,321.064,98.5,319.668,98.5,318C98.5,316.067,96.933,314.5,95,314.5C93.2754,314.5,91.8422,315.747,91.5532,317.389C91.2703,318.604,90.1125,317.936,90.8484,316.263C91.5273,314.64,93.1305,313.5,95,313.5ZM117,311.5C117.207,311.5,117.41,311.514,117.61,311.541C118.824,311.722,118.605,312.88,117.414,312.525C117.278,312.508,117.14,312.5,117,312.5C115.067,312.5,113.5,314.067,113.5,316C113.5,316.936,113.867,317.786,114.465,318.414C115.274,319.158,114.476,319.852,113.799,319.161C112.995,318.349,112.5,317.232,112.5,316C112.5,313.515,114.515,311.5,117,311.5ZM94,299.5C96.4853,299.5,98.5,301.515,98.5,304C98.5,306.485,96.4853,308.5,94,308.5C91.8659,308.5,90.0787,307.014,89.6163,305.021C89.2218,302.446,90.1943,300.63,92.5425,299.741C92.9996,299.585,93.4899,299.5,94,299.5ZM113.13,298.584C114.342,298.332,115.255,299.544,114.044,299.501L114,299.5L114,299.5C112.067,299.5,110.5,301.067,110.5,303C110.5,304.933,112.067,306.5,114,306.5C115.327,306.5,116.481,305.762,117.075,304.674C117.632,303.699,118.65,304.905,117.425,305.919C116.599,306.887,115.371,307.5,114,307.5C111.515,307.5,109.5,305.485,109.5,303C109.5,300.87,110.98,299.085,112.968,298.619L113.13,298.584ZM94,300.5C92.067,300.5,90.5,302.067,90.5,304C90.5,305.933,92.067,307.5,94,307.5C95.933,307.5,97.5,305.933,97.5,304C97.5,302.067,95.933,300.5,94,300.5ZM100.5,297C100.5,298.933,102.067,300.5,104,300.5C105.933,300.5,107.5,298.933,107.5,297C107.5,296.368,107.332,295.775,107.039,295.263C106.278,294.287,107.593,293.957,108.294,295.653C108.428,296.078,108.5,296.531,108.5,297C108.5,299.485,106.485,301.5,104,301.5C101.515,301.5,99.5,299.485,99.5,297C99.5,296.375,99.6272,295.781,99.8572,295.24C100.262,294.15,101.515,294.468,101.144,294.976C100.739,295.547,100.5,296.246,100.5,297Z" fill="#00C5B8" stroke="none" stroke-width="1" fill-rule="evenodd" opacity="0.2" transform="translate(15.065,15.175) translate(-103.315,-309.225)" style="animation: 4s linear infinite both Shape-3_t;"/>
        </g>
    </g>
    <g id="bag" transform="translate(280.57,210.33) translate(-42.97,-107.136)">
        <path id="Oval-9" d="M271.938,317.466C286.373,317.466,309.837,315.566,309.837,313.583C309.837,311.6,298.435,311.6,282.829,311.6C267.223,311.6,248.87,312.616,248.87,313.583C248.87,314.55,256.332,317.466,271.938,317.466Z" fill="#00C5B8" opacity="0.2" stroke="none" stroke-width="1" fill-rule="evenodd" transform="translate(42.7534,211.339) translate(-279.353,-314.533)"/>
        <path id="Path-29" d="M249.761,300.942L252.47,313.583C257.817,315.36,264.699,316.249,273.116,316.249C281.533,316.249,288.396,315.547,293.706,314.143L295.295,298.722L249.761,300.942Z" stroke="#00C5B8" stroke-width="1.5" fill="#FFFFFF" fill-rule="evenodd" transform="translate(35.9283,204.291) translate(-272.528,-307.486)"/>
        <path id="Path-29-2" d="M250.4,301.131C251.203,302.417,253.141,303.237,256.214,303.592C260.824,304.125,274.862,306.745,280.555,308.768C286.249,310.791,283.389,316.078,286.544,315.567C288.647,315.226,291.034,314.752,293.706,314.143L295.295,298.722L250.4,301.131Z" fill="#00C5B8" opacity="0.2" stroke="none" stroke-width="1" fill-rule="evenodd" transform="translate(36.2475,203.968) translate(-272.848,-307.162)"/>
        <rect id="Rectangle-3" stroke="#00C5B8" stroke-width="1.5" fill="#FFFFFF" width="3.0814" height="31.2" fill-rule="evenodd" transform="translate(18.4649,63.6058) translate(-1.5407,-15.6)"/>
        <rect id="Rectangle-4" stroke="#00C5B8" stroke-width="1.5" fill="#FFFFFF" width="3.0814" height="63" fill-rule="evenodd" transform="translate(26.9407,53.5058) translate(-1.5407,-31.5)"/>
        <path id="Path-24" d="M253.524,151.2L256.606,151.2C257.143,139.517,256.881,131.783,255.819,127.998C254.227,122.32,247.355,121.321,244.382,121C241.41,120.679,238.672,123.486,237.527,126.37C236.382,129.253,236.062,131.759,237.944,134.385C239.827,137.012,247.631,135.655,250.413,138.633C252.269,140.618,253.306,144.807,253.524,151.2Z" stroke="#00C5B8" stroke-width="1.5" fill="#FFFFFF" fill-rule="evenodd" transform="translate(10.1382,32.8932) translate(-246.738,-136.087)"/>
        <path id="Mask" d="M241.249,127.123C243.343,122.703,246.173,124.429,248.205,125.397C250.238,126.366,253.907,128.7,252.035,132C250.162,135.3,248.632,133.634,245.041,133.144C241.45,132.655,239.154,131.543,241.249,127.123Z" fill="#9DE8E4" stroke="none" stroke-width="1" fill-rule="evenodd" transform="translate(9.90088,25.9254) translate(-246.501,-129.12)"/>
        <path id="Path-30" d="M248,194.232C248.378,190.935,248.802,188.544,249.272,187.058C249.701,185.704,250.522,183.986,251.735,181.905C251.959,181.522,252.362,181.279,252.805,181.262L266.125,180.744C266.983,180.711,267.768,180.256,268.223,179.528C268.738,178.703,269.168,177.91,269.513,177.147C269.964,176.152,270.51,174.679,271.152,172.73L271.152,172.73C271.299,172.282,271.679,171.949,272.143,171.862C275.19,171.287,277.527,171,279.152,171C280.75,171,283.022,171.278,285.968,171.833L285.968,171.833C286.508,171.935,286.925,172.366,287.009,172.908C287.52,176.208,287.889,179.002,288.115,181.29C288.362,183.783,288.62,187.506,288.89,192.457L248,194.232Z" stroke="#00C5B8" stroke-width="1.5" fill="#FFFFFF" fill-rule="evenodd" transform="translate(31.8452,79.4216) scale(-1,1) translate(-268.445,-182.616)"/>
        <path id="Path-33" d="M292.855,198.016C293.875,198.068,294.673,198.395,295.248,198.997C296.11,199.901,315.298,278.687,316.272,283.895C317.246,289.104,316.252,292.607,313.731,294.07C312.05,295.044,307.419,294.111,299.836,291.269L298.804,295.204C307.863,298.934,313.686,300.107,316.272,298.722C320.151,296.646,323.575,291.046,322.249,284.724C320.923,278.402,299.185,198.018,298.104,196.426C297.384,195.365,295.634,194.835,292.855,194.835L292.855,198.016Z" stroke="#00C5B8" stroke-width="1.5" fill="#FFFFFF" fill-rule="evenodd" transform="translate(71.0977,143.865) translate(-307.698,-247.059)"/>
        <path id="Mask-2" d="M244.685,190.939C251.424,188.871,257.798,187.722,263.806,187.493C269.936,187.259,278.989,187.69,290.965,188.787L290.965,188.787C292.132,188.894,293.051,189.828,293.139,190.997C294.838,213.565,295.822,230.894,296.09,242.983C296.361,255.152,296.113,273.183,295.348,297.077L295.348,297.077C295.316,298.076,294.668,298.95,293.722,299.272C286.08,301.871,278.874,303.255,272.104,303.424C265.228,303.596,256.381,302.436,245.563,299.944L245.563,299.944C244.551,299.711,243.803,298.853,243.711,297.819C241.573,273.847,240.504,255.569,240.504,242.983C240.504,230.42,241.335,213.773,242.997,193.042L242.997,193.042C243.075,192.061,243.744,191.228,244.685,190.939Z" stroke="#00C5B8" stroke-width="1.5" fill="#FFFFFF" fill-rule="evenodd" transform="translate(31.7501,142.242) translate(-268.35,-245.436)"/>
        <path id="Path-6" d="M249.575,198.565C248.146,216.77,247.431,231.32,247.431,242.215C247.431,253.111,248.437,269.63,250.448,291.773" stroke="#00C5B8" stroke-width="2" stroke-linecap="round" stroke-linejoin="round" fill="none" fill-rule="evenodd" transform="translate(12.3396,141.975) translate(-248.94,-245.169)"/>
        <path id="Path-2" d="M263.393,188.278C267.452,210.998,269.481,229.306,269.481,243.2C269.481,257.094,267.452,276.802,263.393,302.323C266.053,302.651,269.755,302.731,274.498,302.561C279.241,302.391,286.173,301.797,295.295,300.779C295.863,273.084,295.863,252.493,295.295,239.005C294.928,230.291,293.968,214.379,292.415,191.267C292.396,190.625,292.258,190.191,292.001,189.965C291.744,189.739,291.382,189.596,290.913,189.538C284.925,188.908,279.734,188.527,275.339,188.396C270.945,188.265,266.963,188.226,263.393,188.278Z" fill="#CDF3F1" stroke="none" stroke-width="1" fill-rule="evenodd" transform="translate(42.9573,142.258) translate(-279.557,-245.452)"/>
        <path id="Mask-4" d="M279.695,237.897C278.616,247.449,277.829,255.9,277.736,267.126C277.674,274.61,278.712,286.436,280.85,302.605C288.404,305.145,293.219,306.133,295.295,305.569C296.866,305.142,298.989,301.57,301.664,294.851L298.369,241.347C295.084,230.449,292.472,224.945,290.534,224.836C287.628,224.673,280.774,228.345,279.695,237.897Z" stroke="#00C5B8" stroke-width="1.5" fill="#FFFFFF" fill-rule="evenodd" transform="translate(53.0989,162.083) translate(-289.699,-265.277)"/>
        <path id="Path-32" d="M284.565,239.838C282.858,256.219,283.05,269.631,285.141,280.074C287.894,297.011,292.02,304.8,297.52,303.441L301.836,294.975L298.369,241.347C296.086,240.101,294.175,239.353,292.636,239.101C291.098,238.849,288.407,239.095,284.565,239.838Z" stroke="#00C5B8" stroke-width="1.5" fill="#FFFFFF" fill-rule="evenodd" transform="translate(56.0254,168.105) translate(-292.625,-271.299)"/>
        <path id="Path-7" d="M278.538,280.294C280.157,285.87,281.567,289.248,282.767,290.429C285.961,293.571,287.572,293.818,289.733,293.89C292.283,293.974,295.952,289.442,300.74,280.294L302,296C297,308.5,293,306.5,281,303L278.538,280.294Z" fill="#00C5B8" opacity="0.2" stroke="none" stroke-width="1" fill-rule="evenodd" transform="translate(53.669,189.779) translate(-290.269,-292.974)"/>
        <path id="Path-34" d="M280.555,234.18C284.549,244.142,288.372,248.904,292.024,248.468C295.675,248.032,297.812,245.815,298.435,241.816C298.164,234.869,297.6,230.502,296.742,228.717C295.455,226.039,295.301,225.353,292.625,224.831C289.95,224.31,287.103,225.134,284.742,226.996C283.168,228.238,281.772,230.632,280.555,234.18Z" stroke="#00C5B8" stroke-width="1.5" fill="#FFFFFF" fill-rule="evenodd" transform="translate(52.895,133.392) translate(-289.495,-236.587)"/>
        <ellipse id="Mask-6" stroke="#00C5B8" stroke-width="1.5" rx="1.2" ry="2.4" fill="none" fill-rule="evenodd" transform="translate(56.4,137.606)"/>
        <path id="Path-31" d="M262,125.2L261.401,118.562C261.276,117.177,260.216,116.06,258.84,115.862C250.5,114.663,245.73,113.86,244.529,113.454C242.566,112.79,242.869,111.493,242.869,108.355C242.869,105.218,243.059,103.194,244.529,103.194C246,103.194,261.224,106.313,263.305,108.042C264.693,109.194,265.285,114.914,265.081,125.2L262,125.2Z" stroke="#00C5B8" stroke-width="1.5" fill="#FFFFFF" fill-rule="evenodd" transform="translate(17.3864,11.0029) translate(-253.986,-114.197)"/>
        <path id="Rectangle-5" d="M247.926,106.147L257.756,108.374C258.635,108.574,259.273,109.337,259.312,110.237L259.352,111.155C259.4,112.237,258.561,113.152,257.48,113.2C257.336,113.206,257.193,113.196,257.051,113.171L247.124,111.41C246.163,111.24,245.465,110.401,245.473,109.425L245.484,108.082C245.493,106.977,246.395,106.089,247.5,106.098C247.643,106.099,247.786,106.116,247.926,106.147Z" fill="#9DE8E4" stroke="none" stroke-width="1" fill-rule="evenodd" transform="translate(15.8137,6.45546) translate(-252.414,-109.65)"/>
        <path id="Rectangle-6" d="M261.893,122L264.893,122C265.17,122,265.393,122.224,265.393,122.5L265.393,125.842C265.393,125.947,265.377,126.051,265.345,126.15L264.746,127.998L264.746,127.998L262.15,127.998L261.458,126.171C261.415,126.058,261.393,125.938,261.393,125.817L261.393,122.5C261.393,122.224,261.617,122,261.893,122Z" stroke="#00C5B8" stroke-width="1.5" fill="#FFFFFF" fill-rule="evenodd" transform="translate(26.7934,21.8046) translate(-263.393,-124.999)"/>
        <path id="Rectangle-7" d="M282.5,113L287.5,113C290.538,113,293,115.462,293,118.5C293,121.538,290.538,124,287.5,124L272,124L272,124L272,123.5C272,117.701,276.701,113,282.5,113Z" stroke="#00C5B8" stroke-width="1.5" fill="#FFFFFF" fill-rule="evenodd" transform="translate(45.9,15.3058) translate(-282.5,-118.5)"/>
        <path id="Rectangle-8" d="M282.97,116.5L286.418,116.5C287.522,116.5,288.418,117.395,288.418,118.5C288.418,119.605,287.522,120.5,286.418,120.5L277.26,120.5L277.26,120.5C278.133,118.099,280.415,116.5,282.97,116.5Z" fill="#9DE8E4" stroke="none" stroke-width="1" fill-rule="evenodd" transform="translate(46.2389,15.3058) translate(-282.839,-118.5)"/>
        <rect id="Rectangle-9" stroke="#00C5B8" stroke-width="1.5" fill="#FFFFFF" width="3" height="56" fill-rule="evenodd" transform="translate(36.9,49.8058) translate(-1.5,-28)"/>
        <path id="Rectangle-10" d="M272,124L278,124L278,125C276.767,126.216,276.054,127.05,275.86,127.503C275.468,128.417,275.181,129.916,275,132L272,132L272,124Z" stroke="#00C5B8" stroke-width="1.5" fill="#FFFFFF" fill-rule="evenodd" transform="translate(38.4,24.8058) translate(-275,-128)"/>
    </g>
    <g id="flag" opacity="0" transform="translate(192.783,164.501) translate(-53.5834,-159.099)" style="animation: 4s linear infinite both flag_o;">
        <ellipse id="Oval-10" stroke="#00C5B8" stroke-width="1.5" fill="#CCF3F1" rx="28.2" ry="3.6" fill-rule="evenodd" transform="translate(-138.2,-5.40231) translate(166.4,320)"/>
        <path id="Mask-7" d="M177.8,8C190.6,12.8,199.8,15.2,205.4,15.2C221.129,15.2,225.53,12.0291,234.217,12.0291C245.46,12.0291,245.367,9.2,245.367,27.2C245.367,45.2,245.367,50.5043,245.367,59.6C245.367,68.6957,230.065,54.562,209.716,59.6C200.561,61.8667,190.322,60.6666,179,55.9997C180.891,43.431,181.836,34.88,181.836,30.3467C181.836,25.8133,180.491,18.3644,177.8,8Z" stroke="#00C5B8" stroke-width="1.5" fill="#FFFFFF" fill-rule="evenodd" transform="translate(-138.2,-5.40231)"/>
        <path id="Shape" d="M212.368,22.4C220.18,22.4,226.536,28.7737,226.536,36.6079C226.536,44.4421,220.18,50.8159,212.368,50.8159C204.556,50.8159,198.2,44.4421,198.2,36.6079C198.2,28.7737,204.556,22.4,212.368,22.4ZM212.368,24.5243C205.724,24.5243,200.318,29.945,200.318,36.6079C200.318,43.2709,205.724,48.6916,212.368,48.6916C219.012,48.6916,224.418,43.2709,224.418,36.6079C224.418,29.945,219.012,24.5243,212.368,24.5243ZM206.575,30.3467L206.575,40.745L220.28,40.7436L220.28,41.0186C220.28,41.9905,219.529,42.7898,218.578,42.8637L218.434,42.8693L206.302,42.8693C205.333,42.8693,204.536,42.1163,204.462,41.163L204.456,41.0186L204.456,32.1973C204.456,31.2255,205.207,30.4262,206.158,30.3522L206.302,30.3467L206.575,30.3467ZM218.434,35.5458C219.403,35.5458,220.201,36.2989,220.274,37.2521L220.28,37.3965L220.28,39.3309L218.161,39.3309L218.161,37.6701L210.596,37.6701L210.596,35.5458L218.434,35.5458ZM220.27,30.3467L220.27,32.471L207.983,32.471L207.983,30.3467L220.27,30.3467Z" fill="#00C5B8" stroke="none" stroke-width="1" fill-rule="evenodd" transform="translate(-138.2,-5.40231)"/>
        <path id="Rectangle-11" stroke="#00C5B8" stroke-width="1.5" fill="#FFFFFF" d="M171,5.40231L177.759,5.40231L177.9,323.205L171,323.402Z" fill-rule="evenodd" transform="translate(-138.2,-5.40231)"/>
    </g>
</svg>
