<svg xmlns="http://www.w3.org/2000/svg" width="454" height="454" viewBox="0 0 454 454"><defs><clipPath id="ClipPath-1"><ellipse cx="313.7" cy="227" rx="225" ry="225"/></clipPath></defs><style>
@keyframes crjqdmb8xpkftacpjfintasz_t { 0% { transform: translate(379.5px,76px) scaleX(-1) translate(-386.7px,-60.1px); animation-timing-function: cubic-bezier(.4,0,.6,1); } 50% { transform: translate(369.5px,76px) scaleX(-1) translate(-386.7px,-60.1px); animation-timing-function: cubic-bezier(.4,0,.6,1); } 100% { transform: translate(379.5px,76px) scaleX(-1) translate(-386.7px,-60.1px); } }
@keyframes yqpg1owc3sa50ydwyb0glqgi_t { 0% { transform: translate(24.8px,125.8px); animation-timing-function: cubic-bezier(.4,0,.6,1); } 54.167% { transform: translate(34.8px,125.8px); animation-timing-function: cubic-bezier(.4,0,.6,1); } 100% { transform: translate(24.8px,125.8px); } }
@keyframes hmer3y2lcawndk9p1uaewe60_t { 0% { transform: translate(321.5px,0px); animation-timing-function: cubic-bezier(.6,0,.8,0); } 50% { transform: translate(492.4px,79.7px); } 100% { transform: translate(492.4px,79.7px); } }
@keyframes kx4g8c6ws6znkj71qsh53iyd_t { 0% { transform: translate(321.5px,0px); } 8.333% { transform: translate(321.5px,0px); animation-timing-function: cubic-bezier(.6,0,.8,0); } 58.333% { transform: translate(492.4px,79.7px); } 100% { transform: translate(492.4px,79.7px); } }
@keyframes z165k1go25r7a7yw2lq2tcn6_t { 0% { transform: translate(321.5px,0px); } 16.667% { transform: translate(321.5px,0px); animation-timing-function: cubic-bezier(.6,0,.8,0); } 66.667% { transform: translate(492.4px,79.7px); } 100% { transform: translate(492.4px,79.7px); } }
@keyframes hoduoket91ohj7wlyu0h3wko_t { 0% { transform: translate(321.5px,0px); } 25% { transform: translate(321.5px,0px); animation-timing-function: cubic-bezier(.6,0,.8,0); } 75% { transform: translate(492.4px,79.7px); } 100% { transform: translate(492.4px,79.7px); } }
@keyframes zj6ydxymsdwapheq3isprjg2_t { 0% { transform: translate(321.5px,0px); } 33.333% { transform: translate(321.5px,0px); animation-timing-function: cubic-bezier(.6,0,.8,0); } 83.333% { transform: translate(492.4px,79.7px); } 100% { transform: translate(492.4px,79.7px); } }
@keyframes cihvqd4oam8kdxvzim5t69c2_t { 0% { transform: translate(321.5px,0px); } 41.667% { transform: translate(321.5px,0px); animation-timing-function: cubic-bezier(.6,0,.8,0); } 91.667% { transform: translate(492.4px,79.7px); } 100% { transform: translate(492.4px,79.7px); } }
@keyframes wvejmwwaik5kdxxea4u977er_t { 0% { transform: translate(321.5px,0px); } 50% { transform: translate(321.5px,0px); animation-timing-function: cubic-bezier(.6,0,.8,0); } 100% { transform: translate(492.4px,79.7px); } }
@keyframes oxnof8tiyhph87x7epawrwet_t { 0% { transform: translate(387.1px,30.6px); animation-timing-function: cubic-bezier(.4,.2,.7,.6); } 8.333% { transform: translate(492.4px,79.7px); } 9.167% { transform: translate(321.5px,0px); animation-timing-function: cubic-bezier(.5,0,.8,.1); } 58.333% { transform: translate(321.5px,0px); animation-timing-function: cubic-bezier(.5,0,.8,.1); } 100% { transform: translate(387.1px,30.6px); } }
@keyframes i2quzez5lyn07glqy8vauyjn_t { 0% { transform: translate(347px,11.9px); animation-timing-function: cubic-bezier(.5,.2,.8,.4); } 16.667% { transform: translate(492.4px,79.7px); } 17.5% { transform: translate(321.5px,0px); animation-timing-function: cubic-bezier(.4,0,.8,.1); } 66.667% { transform: translate(321.5px,0px); animation-timing-function: cubic-bezier(.4,0,.8,.1); } 100% { transform: translate(347px,11.9px); } }
@keyframes kgvn0gev08unvo8yowdyhdjp_t { 0% { transform: translate(330.6px,4.2px); animation-timing-function: cubic-bezier(.5,.1,.8,.3); } 25% { transform: translate(492.4px,79.7px); } 25.833% { transform: translate(321.5px,0px); animation-timing-function: cubic-bezier(.4,0,.7,.1); } 75% { transform: translate(321.5px,0px); animation-timing-function: cubic-bezier(.4,0,.7,.1); } 100% { transform: translate(330.6px,4.2px); } }
@keyframes mcilhhxxoayeeq665fqws0uy_t { 0% { transform: translate(324.1px,1.2px); animation-timing-function: cubic-bezier(.5,0,.8,.2); } 33.333% { transform: translate(492.4px,79.7px); } 34.167% { transform: translate(321.5px,0px); animation-timing-function: cubic-bezier(.4,0,.7,.1); } 83.333% { transform: translate(321.5px,0px); animation-timing-function: cubic-bezier(.4,0,.7,.1); } 100% { transform: translate(324.1px,1.2px); } }
@keyframes gmp08xtf9qs8vn4ox7z3t7oh_t { 0% { transform: translate(321.9px,.2px); animation-timing-function: cubic-bezier(.6,0,.8,.1); } 41.667% { transform: translate(492.4px,79.7px); } 42.5% { transform: translate(321.5px,0px); animation-timing-function: cubic-bezier(.4,0,.7,.2); } 91.667% { transform: translate(321.5px,0px); animation-timing-function: cubic-bezier(.4,0,.7,.2); } 100% { transform: translate(321.9px,.2px); } }
@keyframes vach3yywp41y1edic0g2lut7_t { 0% { transform: translate(19.2px,103.4px); animation-timing-function: cubic-bezier(.4,0,.6,1); } 8.333% { transform: translate(19.2px,103.4px); animation-timing-function: cubic-bezier(.4,0,.6,1); } 25.833% { transform: translate(19.2px,102.4px); animation-timing-function: cubic-bezier(.4,0,.6,1); } 45.833% { transform: translate(19.2px,103.4px); animation-timing-function: cubic-bezier(.4,0,.6,1); } 62.5% { transform: translate(19.2px,103.4px); animation-timing-function: cubic-bezier(.4,0,.6,1); } 78.333% { transform: translate(19.2px,102.4px); animation-timing-function: cubic-bezier(.4,0,.6,1); } 100% { transform: translate(19.2px,103.4px); } }
@keyframes itoadp6y3jji2e81rzo4q0mv_t { 0% { transform: translate(302.3px,43.3px) rotate(0deg) translate(-2.4px,-11.9px); animation-timing-function: cubic-bezier(.4,0,.6,1); } 5.833% { transform: translate(302.3px,43.3px) rotate(3deg) translate(-2.4px,-11.9px); animation-timing-function: cubic-bezier(.4,0,.6,1); } 12.5% { transform: translate(302.3px,43.3px) rotate(0deg) translate(-2.4px,-11.9px); animation-timing-function: cubic-bezier(.4,0,.6,1); } 21.667% { transform: translate(302.3px,43.3px) rotate(4deg) translate(-2.4px,-11.9px); animation-timing-function: cubic-bezier(.4,0,.6,1); } 28.333% { transform: translate(302.3px,43.3px) rotate(0deg) translate(-2.4px,-11.9px); animation-timing-function: cubic-bezier(.4,0,.6,1); } 33.333% { transform: translate(302.3px,43.3px) rotate(3deg) translate(-2.4px,-11.9px); animation-timing-function: cubic-bezier(.4,0,.6,1); } 40% { transform: translate(302.3px,43.3px) rotate(0deg) translate(-2.4px,-11.9px); animation-timing-function: cubic-bezier(.4,0,.6,1); } 49.167% { transform: translate(302.3px,43.3px) rotate(2deg) translate(-2.4px,-11.9px); animation-timing-function: cubic-bezier(.4,0,.6,1); } 55.833% { transform: translate(302.3px,43.3px) rotate(0deg) translate(-2.4px,-11.9px); animation-timing-function: cubic-bezier(.4,0,.6,1); } 63.333% { transform: translate(302.3px,43.3px) rotate(3deg) translate(-2.4px,-11.9px); animation-timing-function: cubic-bezier(.4,0,.6,1); } 70% { transform: translate(302.3px,43.3px) rotate(0deg) translate(-2.4px,-11.9px); animation-timing-function: cubic-bezier(.4,0,.6,1); } 79.167% { transform: translate(302.3px,43.3px) rotate(3deg) translate(-2.4px,-11.9px); animation-timing-function: cubic-bezier(.4,0,.6,1); } 100% { transform: translate(302.3px,43.3px) rotate(0deg) translate(-2.4px,-11.9px); } }
@keyframes sdl2zltdza7ramxj2we6o2ra_t { 0% { transform: translate(251.8px,49.3px) rotate(0deg) translate(-1.9px,-7.2px); animation-timing-function: cubic-bezier(.4,0,.6,1); } 5.833% { transform: translate(251.8px,49.3px) rotate(3deg) translate(-1.9px,-7.2px); animation-timing-function: cubic-bezier(.4,0,.6,1); } 12.5% { transform: translate(251.8px,49.3px) rotate(0deg) translate(-1.9px,-7.2px); animation-timing-function: cubic-bezier(.4,0,.6,1); } 21.667% { transform: translate(251.8px,49.3px) rotate(4deg) translate(-1.9px,-7.2px); animation-timing-function: cubic-bezier(.4,0,.6,1); } 28.333% { transform: translate(251.8px,49.3px) rotate(0deg) translate(-1.9px,-7.2px); animation-timing-function: cubic-bezier(.4,0,.6,1); } 33.333% { transform: translate(251.8px,49.3px) rotate(3deg) translate(-1.9px,-7.2px); animation-timing-function: cubic-bezier(.4,0,.6,1); } 40% { transform: translate(251.8px,49.3px) rotate(0deg) translate(-1.9px,-7.2px); animation-timing-function: cubic-bezier(.4,0,.6,1); } 49.167% { transform: translate(251.8px,49.3px) rotate(2deg) translate(-1.9px,-7.2px); animation-timing-function: cubic-bezier(.4,0,.6,1); } 55.833% { transform: translate(251.8px,49.3px) rotate(0deg) translate(-1.9px,-7.2px); animation-timing-function: cubic-bezier(.4,0,.6,1); } 63.333% { transform: translate(251.8px,49.3px) rotate(3deg) translate(-1.9px,-7.2px); animation-timing-function: cubic-bezier(.4,0,.6,1); } 70% { transform: translate(251.8px,49.3px) rotate(0deg) translate(-1.9px,-7.2px); animation-timing-function: cubic-bezier(.4,0,.6,1); } 79.167% { transform: translate(251.8px,49.3px) rotate(3deg) translate(-1.9px,-7.2px); animation-timing-function: cubic-bezier(.4,0,.6,1); } 100% { transform: translate(251.8px,49.3px) rotate(0deg) translate(-1.9px,-7.2px); } }
@keyframes tsyjqm8036hxrlh58de6nmwz_t { 0% { transform: translate(296px,153.6px) rotate(0deg) translate(-115.8px,-117.3px); animation-timing-function: cubic-bezier(.4,0,.6,1); } 45% { transform: translate(296px,153.6px) rotate(-3deg) translate(-115.8px,-117.3px); animation-timing-function: cubic-bezier(.4,0,.6,1); } 100% { transform: translate(296px,153.6px) rotate(0deg) translate(-115.8px,-117.3px); } }
@keyframes nveemcz5iala2umsa3plruj1_t { 0% { transform: translate(66.3px,.8px); animation-timing-function: cubic-bezier(.4,0,.6,1); } 45% { transform: translate(73.7px,.8px); animation-timing-function: cubic-bezier(.4,0,.6,1); } 100% { transform: translate(66.3px,.8px); } }
@keyframes l709nwhjpr96ha0kazkxmj2q_t { 0% { transform: translate(121.3px,93.2px) scale(1,1); } 25.833% { transform: translate(121.3px,93.2px) scale(1,1); animation-timing-function: cubic-bezier(.4,0,.6,1); } 32.5% { transform: translate(121.3px,93.2px) scale(1.2,1.2); animation-timing-function: cubic-bezier(.4,0,.6,1); } 39.167% { transform: translate(121.3px,93.2px) scale(1,1); } 100% { transform: translate(121.3px,93.2px) scale(1,1); } }
@keyframes l709nwhjpr96ha0kazkxmj2q_o { 0% { opacity: 0; } 20.833% { opacity: 0; animation-timing-function: cubic-bezier(.4,0,.6,1); } 25.833% { opacity: .3; animation-timing-function: cubic-bezier(.4,0,.6,1); } 39.167% { opacity: .3; animation-timing-function: cubic-bezier(.4,0,.6,1); } 44.167% { opacity: 0; } 100% { opacity: 0; } }
@keyframes rs3ipjvajo62s86wmpb47nrn_t { 0% { transform: translate(121.2px,93.1px) scale(1,1); } 20.833% { transform: translate(121.2px,93.1px) scale(1,1); animation-timing-function: cubic-bezier(.4,0,.6,1); } 30.833% { transform: translate(121.2px,93.1px) scale(1.2,1.2); animation-timing-function: cubic-bezier(.4,0,.6,1); } 34.167% { transform: translate(121.2px,93.1px) scale(1.2,1.2); animation-timing-function: cubic-bezier(.4,0,.6,1); } 44.167% { transform: translate(121.2px,93.1px) scale(1,1); } 100% { transform: translate(121.2px,93.1px) scale(1,1); } }
@keyframes rs3ipjvajo62s86wmpb47nrn_o { 0% { opacity: 0; } 16.667% { opacity: 0; animation-timing-function: cubic-bezier(.4,0,.6,1); } 20.833% { opacity: 1; animation-timing-function: cubic-bezier(.4,0,.6,1); } 44.167% { opacity: 1; animation-timing-function: cubic-bezier(.4,0,.6,1); } 49.167% { opacity: 0; } 100% { opacity: 0; } }
@keyframes qvqkvnoxuxsw4l1tji7xdk1n_t { 0% { transform: translate(62.7px,107.3px) rotate(3deg) translate(-0.6px,-25.4px); animation-timing-function: cubic-bezier(.4,0,.6,1); } 10% { transform: translate(62.7px,107.3px) rotate(-1deg) translate(-0.6px,-25.4px); animation-timing-function: cubic-bezier(.4,0,.6,1); } 17.5% { transform: translate(62.7px,107.3px) rotate(3deg) translate(-0.6px,-25.4px); } 100% { transform: translate(62.7px,107.3px) rotate(3deg) translate(-0.6px,-25.4px); } }
</style><g clip-path="url(#ClipPath-1)" transform="translate(-86.7,0)"><rect x="86.7" fill="#e6f1ff" width="454" height="454" fill-rule="evenodd"/><path d="M351.3 70.3c-0.6-1.4-0.8-2.9-0.8-4.4c0-7 5.8-12.6 13-12.6c2.3 0 4.5 .6 6.4 1.6c1.7-7.7 8.7-13.4 17.2-13.4c9.7 0 17.5 7.6 17.5 17c0 .6 0 1.3-0.1 1.9c.7-0.1 1.4-0.2 2.1-0.2c4.8 0 8.7 3.7 8.7 8.3c0 .6-0.1 1.2-0.2 1.8h13.5c2.3 0 4.2 1.8 4.2 4.2c0 2.3-1.9 4.1-4.2 4.1h-83.9c-2.3 0-4.1-1.8-4.1-4.1c0-2.4 1.8-4.2 4.1-4.2h6.6Z" stroke="#b9d2ff" stroke-width="2.1" fill="#fff" transform="translate(379.5,76) scale(-1,1) translate(-386.7,-60.1)" style="animation: 2s linear infinite both crjqdmb8xpkftacpjfintasz_t;"/><g fill="none" fill-rule="evenodd" transform="translate(303.7,220.8) translate(-278.8,-95)" style="animation: 2s linear infinite both yqpg1owc3sa50ydwyb0glqgi_t;"><path fill="#ecf3ff" fill-rule="nonzero" d="M0 106.2l79.5-105.6h267.8l210.4 99.1l-8.8 15.1l-291.2 74.8l-178.2-29.9l-69.3-21.9l9.4-31.6Z" stroke="#b9d2ff"/><path d="M346.6 .5l207.2 96.6l-207.2-96.6Z" stroke="#b9d2ff" stroke-width="2.1" stroke-linecap="round" stroke-linejoin="round"/><path d="M54.7 .5h479.6" stroke="#b9d2ff" stroke-width="2.1" stroke-linecap="round" stroke-linejoin="round"/><path d="M25.2 .5h150" stroke="#b9d2ff" stroke-width="1.5" stroke-linecap="round" stroke-linejoin="round" transform="translate(346.7,.5) translate(-25.2,-0.5)" style="animation: 2s linear infinite both hmer3y2lcawndk9p1uaewe60_t;"/><path d="M25.2 .5h150" stroke="#b9d2ff" stroke-width="1.5" stroke-linecap="round" stroke-linejoin="round" transform="translate(346.7,.5) translate(-25.2,-0.5)" style="animation: 2s linear infinite both kx4g8c6ws6znkj71qsh53iyd_t;"/><path d="M25.2 .5h150" stroke="#b9d2ff" stroke-width="1.5" stroke-linecap="round" stroke-linejoin="round" transform="translate(346.7,.5) translate(-25.2,-0.5)" style="animation: 2s linear infinite both z165k1go25r7a7yw2lq2tcn6_t;"/><path d="M25.2 .5h150" stroke="#b9d2ff" stroke-width="1.5" stroke-linecap="round" stroke-linejoin="round" transform="translate(346.7,.5) translate(-25.2,-0.5)" style="animation: 2s linear infinite both hoduoket91ohj7wlyu0h3wko_t;"/><path d="M25.2 .5h150" stroke="#b9d2ff" stroke-width="1.5" stroke-linecap="round" stroke-linejoin="round" transform="translate(346.7,.5) translate(-25.2,-0.5)" style="animation: 2s linear infinite both zj6ydxymsdwapheq3isprjg2_t;"/><path d="M25.2 .5h150" stroke="#b9d2ff" stroke-width="1.5" stroke-linecap="round" stroke-linejoin="round" transform="translate(346.7,.5) translate(-25.2,-0.5)" style="animation: 2s linear infinite both cihvqd4oam8kdxvzim5t69c2_t;"/><path d="M25.2 .5h150" stroke="#b9d2ff" stroke-width="1.5" stroke-linecap="round" stroke-linejoin="round" transform="translate(346.7,.5) translate(-25.2,-0.5)" style="animation: 2s linear infinite both wvejmwwaik5kdxxea4u977er_t;"/><path d="M25.2 .5h150" stroke="#b9d2ff" stroke-width="1.5" stroke-linecap="round" stroke-linejoin="round" transform="translate(412.2,31.1) translate(-25.2,-0.5)" style="animation: 2s linear infinite both oxnof8tiyhph87x7epawrwet_t;"/><path d="M25.2 .5h150" stroke="#b9d2ff" stroke-width="1.5" stroke-linecap="round" stroke-linejoin="round" transform="translate(372.1,12.4) translate(-25.2,-0.5)" style="animation: 2s linear infinite both i2quzez5lyn07glqy8vauyjn_t;"/><path d="M25.2 .5h150" stroke="#b9d2ff" stroke-width="1.5" stroke-linecap="round" stroke-linejoin="round" transform="translate(355.7,4.7) translate(-25.2,-0.5)" style="animation: 2s linear infinite both kgvn0gev08unvo8yowdyhdjp_t;"/><path d="M25.2 .5h150" stroke="#b9d2ff" stroke-width="1.5" stroke-linecap="round" stroke-linejoin="round" transform="translate(349.2,1.7) translate(-25.2,-0.5)" style="animation: 2s linear infinite both mcilhhxxoayeeq665fqws0uy_t;"/><path d="M25.2 .5h150" stroke="#b9d2ff" stroke-width="1.5" stroke-linecap="round" stroke-linejoin="round" transform="translate(347.1,.7) translate(-25.2,-0.5)" style="animation: 2s linear infinite both gmp08xtf9qs8vn4ox7z3t7oh_t;"/></g><g transform="translate(294.5,305.7) translate(-275.3,-202.2)" style="animation: 2s linear infinite both vach3yywp41y1edic0g2lut7_t;"><g fill="none" fill-rule="evenodd" transform="translate(-6.3,48.7)"><path d="M.3 102l141.9-43.2c11.6-3.4 22.4-8.7 32-16c33-24.9 128.8-81.1 242.2-2c11.5 8 25.1 12.4 39.1 12.6l95.5 1.5l-24.9 245.7l-266.4 55.1l-176.9-150.7l-82.5-103Z" stroke="#3959a4" stroke-width="2.1" fill="#d3e3ff" fill-rule="nonzero"/><path d="M277.5 42.7c0-13.6 11-24.7 24.6-24.7c13.7 0 24.7 11.1 24.7 24.7c0 13.6-11 24.7-24.7 24.7c-13.6 0-24.6-11.1-24.6-24.7Zm-44.5 6.5c0-10.6 8.6-19.1 19.1-19.1c10.6 0 19.2 8.5 19.2 19.1c0 10.6-8.6 19.1-19.2 19.1c-10.5 0-19.1-8.5-19.1-19.1Zm99.9 0c0-10.6 8.5-19.1 19.1-19.1c10.6 0 19.1 8.5 19.1 19.1c0 10.6-8.5 19.1-19.1 19.1c-10.6 0-19.1-8.5-19.1-19.1Z" stroke="#3959a4" stroke-width="2.1" fill="#ecf3ff" fill-rule="nonzero"/><g transform="translate(302.3,43.3) translate(-2.4,-11.9)" style="animation: 2s linear infinite both itoadp6y3jji2e81rzo4q0mv_t;"><ellipse cx="2.1" cy="11.7" fill="#3959a4" fill-rule="nonzero" rx="2.1" ry="2.1"/><path d="M3.3 10.7l10.5-10.7" stroke="#3959a4" stroke-width="2.1" stroke-linecap="round" stroke-linejoin="round"/></g><g transform="translate(251.8,49.3) translate(-1.9,-7.2)" style="animation: 2s linear infinite both sdl2zltdza7ramxj2we6o2ra_t;"><ellipse cx="2.1" cy="7.1" fill="#3959a4" fill-rule="nonzero" rx="2.1" ry="2.1"/><path d="M2.8 6.6l6.6-6.6" stroke="#3959a4" stroke-width="2.1" stroke-linecap="round" stroke-linejoin="round"/></g></g><g stroke="#0072ce" stroke-width="2.1" fill="none" fill-rule="evenodd" transform="translate(296,153.6) translate(-115.8,-117.3)" style="animation: 2s linear infinite both tsyjqm8036hxrlh58de6nmwz_t;"><path d="M115.8 133.7c-9.5 0-17.2-7.6-17.2-17c0-9.4 7.7-17 17.2-17c9.5 0 17.3 7.6 17.3 17c0 9.4-7.8 17-17.3 17Zm50.7-38.8c0 0-34.2-8.8-50.7-8.4c-16.4-0.4-50.6 8.4-50.6 8.4c-9 25.7 0 36.4 0 36.4c34.3-3.3 38.4 28.5 38.4 28.5c1.5 1.3 12.2 2 12.2 2c0 0 10.8-0.7 12.3-2c0 0 4.1-31.8 38.4-28.5c0 0 8.9-10.7 0-36.4Z" fill="#ecf3ff" fill-rule="nonzero" stroke="#3959a4"/><path d="M156.3 204c-23.1 .8-21.7-32.4-22.9-39c-1.2-6.9-5.5-5.6-5.5-5.6c-4.4 1.6-12.1 1.6-12.1 1.6c0 0-7.8 0-12.1-1.6c0 0-4.3-1.3-5.6 5.6c-1.2 6.6 .2 39.8-22.9 39c-23.9-11.1-42.5-31.6-51-56.9c.5-0.8 1.4-1.8 2.7-2.9c4.7-3.9 23-6.9 30.2-7.3c7.3-0.4 8.6-6 8.6-6c-9.4-13.4 0-36.4 0-36.4c0 0 .3-0.8-4.7-2.5c-6.6-2.1-13.4 2.5-13.4 2.5c-23.7 10.7-30.2-3-20.3-9.7c10.6-7.2 11.8-22.2 11.9-27.5c17.7-22.9 45.4-37.7 76.6-37.7c30.9 0 58.4 14.5 76 37.1c0 4.6 .8 20.6 11.7 28.1c9.8 6.7 3.4 20.4-19.9 9.7c0 0-6.7-4.6-13.1-2.5c-5 1.7-4.7 2.5-4.7 2.5c0 0 9.3 23 0 36.4c0 0 1.3 5.6 8.4 6c7.2 .4 25.1 3.4 29.7 7.3c1.7 1.4 2.7 2.7 3.2 3.8c-8.6 24.8-27.1 45.1-50.8 56Zm-40.5-203.1c-63.8 0-115.5 51.6-115.5 115.4c0 63.7 51.7 115.4 115.5 115.4c63.7 0 115.4-51.7 115.4-115.4c0-63.8-51.7-115.4-115.4-115.4Z" fill="#b0ceff" fill-rule="nonzero" stroke="#3959a4"/><path d="M311.2 202.3c0 0-13.3-14.9-28.7-35.6c-24.1-32.4-55.1-74.9-55-76.6c.3-10.2 2.1-41.6 1.8-43.1c-0.3-1.4 1.5-4.2-3.9-7.4c-5.5-3.3-0.1-6.4-3.2-9.4c-3.1-3-6.1-2-6.1-2c0 0-0.5-8.3-5.7-8.8c-5.1-0.6-7.2 .9-8.5-1.3c-1.4-2.1-1.7-8-17.8-8.9c-16.1-1-14.8 5-14.8 5c0 0 7.3 3.3 8.8 5.6c1.5 2.3 3.1 11.9-8.8 11.5c-11.9-0.4-8.9-0.8-15.6-3.6l-9.7-3.8c-0.8 1.2-1.4 3.8-1.5 5.1c-0.5 4.7 4.8 9.8 6.3 12.2c1.9 3.1 6.5 18.3 22.3 30.1c15 11.3 19.1 20.8 21.8 26.4c2.7 5.5 69.1 155.6 69.1 155.6c16.6 49.4 25.9 73.6 27.8 72.6c9.3-4.6 24.2-18.5 27.6-45.7c1.5-13-0.5-38.9-6.2-77.9Z" fill="#fff" stroke-linecap="round" stroke-linejoin="round" stroke="#3959a4"/></g><g fill="none" fill-rule="evenodd" transform="translate(154.3,147.4) translate(-88,-146.6)" style="animation: 2s linear infinite both nveemcz5iala2umsa3plruj1_t;"><path d="M91.8 132h39.3c0 0-3.5 23.5-33.7 39.7c-30.3 16.2-37.3 121.2-37.3 121.2l-59.7-6.4l39.1-153.1c0 0 12.8-44.2 43.2-59.6l.1 20.2" stroke="#3959a4" stroke-width="2.1" fill="#fff"/><g transform="translate(79.3,.2)"><path d="M83.7 61.1c0 0 2-2.1 4.9-1.2c4.6 1.4 5.2 6.3 2.4 9.8c-2.7 3.4-7.3 6.9-7.3 6.9" stroke="#3959a4" stroke-width="2.3" fill="#fff"/><path d="M83.7 76.2c0 0 6.1-3.8 9-2.9c4.6 1.3 4.6 8.4 1.4 11.5c-4.2 4-10.4 7-10.4 7" stroke="#3959a4" stroke-width="2.3" fill="#fff"/><path d="M83.7 92.1c0 0 4.3-3.4 6.4-2.6c3.3 1.2 3.2 7.5 1 10.3c-3 3.6-7.4 6.3-7.4 6.3" stroke="#3959a4" stroke-width="2.3" fill="#fff"/><path d="M46.7 169.7c0-0.2-0.1-0.5-0.3-0.6c-0.1-0.2-0.4-0.3-0.6-0.3h-7.6c-0.3 0-0.5 .1-0.6 .3c-0.2 .1-0.3 .4-0.3 .6h-24.1c-7.3 0-13.2-5.9-13.2-13.2v-143.3c0-7.3 5.9-13.2 13.2-13.2h57.3c7.3 0 13.2 5.9 13.2 13.2v143.3c0 7.3-5.9 13.2-13.2 13.2h-23.8Z" stroke="#3959a4" stroke-width="2.1" fill="#b0ceff" fill-rule="nonzero" stroke-linecap="round" stroke-linejoin="round"/><path d="M21.1 4.4v.3c0 3.2 2.7 5.9 5.9 5.9l30.3-0.1c3.2 0 5.8-2.6 5.8-5.8v-0.3h8.5c4.1 0 7.4 3.3 7.4 7.3v145.7c0 4-3.3 7.3-7.4 7.3h-59.3c-4 0-7.3-3.3-7.3-7.3v-145.7c0-4 3.3-7.3 7.3-7.3h8.8Z" stroke="#3959a4" stroke-width="2.1" fill="#fff" stroke-linecap="round" stroke-linejoin="round"/><path d="M47.1 5c.5 0 .8 .5 .8 1c0 .6-0.3 1.1-0.8 1.1h-9.9c-0.4 0-0.8-0.5-0.8-1.1c0-0.5 .4-1 .8-1h9.9Z" fill="#3959a4" fill-rule="nonzero"/></g><ellipse fill="#ff9da9" opacity="0" rx="20.8" ry="20.8" transform="translate(121.3,93.2)" style="animation: 2s linear infinite both l709nwhjpr96ha0kazkxmj2q_t, 2s linear infinite both l709nwhjpr96ha0kazkxmj2q_o;"/><ellipse fill="#ff9da9" rx="13.3" ry="13.3" opacity="0" transform="translate(121.2,93.1)" style="animation: 2s linear infinite both rs3ipjvajo62s86wmpb47nrn_t, 2s linear infinite both rs3ipjvajo62s86wmpb47nrn_o;"/><g transform="translate(62.7,107.3) rotate(3) translate(-0.6,-25.4)" style="animation: 2s linear infinite both qvqkvnoxuxsw4l1tji7xdk1n_t;"><path d="M0 24.9l36.2-22.8c0 0 5.4-3.2 11.3-1.7c5.9 1.5 21.6 .7 21.6 .7c0 0 2 10.4-8 14.3c-8.4 3.3-13.3 2-13.3 2l-12.3 8.9c-1.9 1.8-3.2 4.3-3.4 6.9l-1.4 12.9c0 0-1.3 13.6-15.4 27.8" fill="#fff" fill-rule="nonzero"/><path d="M0 24.9l36.2-22.8c0 0 5.4-3.2 11.3-1.7c5.9 1.5 21.6 .7 21.6 .7c0 0 2 10.4-8 14.3c-8.4 3.3-13.3 2-13.3 2l-12.3 8.9c-1.9 1.8-3.2 4.3-3.4 6.9l-1.4 12.9c0 0-1.3 13.6-15.4 27.8" stroke="#3959a4" stroke-width="2.1" stroke-linecap="round" stroke-linejoin="round"/><path d="M55.4 1.2c0 0-1.7 6.2 2.8 6.3c5.3 .1 9.8 0 9.8 0c.9-4.2 .9-6.3 0-6.3h-12.6Z" stroke="#3959a4" stroke-width="2.1" fill="#fff" fill-rule="nonzero"/></g></g></g></g></svg>