<?xml version="1.0" encoding="UTF-8"?>
<svg width="136px" height="116px" viewBox="0 0 136 116" version="1.1" xmlns="http://www.w3.org/2000/svg" xmlns:xlink="http://www.w3.org/1999/xlink">
    <!-- Generator: Sketch 53.2 (72643) - https://sketchapp.com -->
    <defs>
        <linearGradient x1="43.8020064%" y1="36.4421802%" x2="34.7935952%" y2="85.6873408%" id="linearGradient-1">
            <stop stop-color="#FFFFFF" stop-opacity="0.46204144" offset="0%"></stop>
            <stop stop-color="#FFFFFF" stop-opacity="0.0935235507" offset="100%"></stop>
        </linearGradient>
        <path d="M43.5497967,4.04039604 L80.0021596,24.4673622 C81.0029132,25.0281588 81.6226415,26.0858374 81.6226415,27.233008 L81.6226415,67.9248867 C81.6226415,69.0720574 81.0029132,70.1297359 80.0021596,70.6905325 L43.5497967,91.1174987 C42.5870287,91.6570091 41.4129713,91.6570091 40.4502033,91.1174987 L3.99784038,70.6905325 C2.99708679,70.1297359 2.37735849,69.0720574 2.37735849,67.9248867 L2.37735849,27.233008 C2.37735849,26.0858374 2.99708679,25.0281588 3.99784038,24.4673622 L40.4502033,4.04039604 C41.4129713,3.50088559 42.5870287,3.50088559 43.5497967,4.04039604 Z" id="path-2"></path>
        <path d="M77.6603774,36.477193 L77.6603774,28.1591771 C77.6603774,27.5893003 77.3552374,27.0632824 76.8611667,26.7814517 L42.7819658,7.34179058 C42.2971494,7.06523869 41.7028506,7.06523869 41.2180342,7.34179058 L7.13883331,26.7814517 C6.64476262,27.0632824 6.33962264,27.5893003 6.33962264,28.1591771 L6.33962264,36.477193 L77.6603774,36.477193 L77.6603774,36.477193 Z M77.6603774,58.6807018 L77.6603774,66.9987177 C77.6603774,67.5685944 77.3552374,68.0946123 76.8611667,68.3764431 L42.7819658,87.8161042 C42.2971494,88.092656 41.7028506,88.092656 41.2180342,87.8161042 L7.13883331,68.3764431 C6.64476262,68.0946123 6.33962264,67.5685944 6.33962264,66.9987177 L6.33962264,58.6807018 L77.6603774,58.6807018 L77.6603774,58.6807018 Z" id="path-3"></path>
        <filter x="-4.9%" y="-3.1%" width="109.8%" height="108.7%" filterUnits="objectBoundingBox" id="filter-4">
            <feOffset dx="0" dy="1" in="SourceAlpha" result="shadowOffsetOuter1"></feOffset>
            <feGaussianBlur stdDeviation="1" in="shadowOffsetOuter1" result="shadowBlurOuter1"></feGaussianBlur>
            <feComposite in="shadowBlurOuter1" in2="SourceAlpha" operator="out" result="shadowBlurOuter1"></feComposite>
            <feColorMatrix values="0 0 0 0 0.11372549   0 0 0 0 0.121568627   0 0 0 0 0.149019608  0 0 0 0.2 0" type="matrix" in="shadowBlurOuter1"></feColorMatrix>
        </filter>
        <path d="M24.7997892,53.1428673 C26.928216,53.1428673 28.189506,52.4812359 29.3246669,51.268245 L27.7795867,49.6141664 C26.9124499,50.4018229 26.1399098,50.905923 24.8786198,50.905923 C22.9866849,50.905923 21.6780966,49.3306101 21.6780966,47.4402346 C21.6780966,45.5183529 23.0182172,43.9745462 24.8786198,43.9745462 C26.1399098,43.9745462 26.8651515,44.431387 27.7165222,45.2032903 L29.1670057,43.5334586 C28.1422076,42.5252583 26.9755144,41.7376019 24.894386,41.7376019 C21.5046692,41.7376019 19.1397506,44.3053619 19.1397506,47.4402346 C19.1397506,50.6381198 21.5519676,53.1428673 24.7997892,53.1428673 Z M29.7603853,52.9538298 L32.1568362,52.9538298 L32.1568362,41.4540456 L29.7603853,41.4540456 L29.7603853,52.9538298 Z M36.5727843,53.1113611 C37.7867759,53.1113611 38.4962515,52.4654828 39.0480659,51.756592 L39.0480659,52.9538298 L41.4445168,52.9538298 L41.4445168,44.5101526 L39.0480659,44.5101526 L39.0480659,49.2203382 C39.0480659,50.3545635 38.4647193,50.9374293 37.5502841,50.9374293 C36.6358488,50.9374293 36.0998006,50.3545635 36.0998006,49.2203382 L36.0998006,44.5101526 L33.7033497,44.5101526 L33.7033497,49.9764884 C33.7033497,51.9141233 34.75968,53.1113611 36.5727843,53.1113611 Z M43.337885,52.9108667 L43.337885,46.5580594 L42.1328319,46.5580594 L42.1328319,44.5101526 L43.337885,44.5101526 L43.337885,42.3519739 L45.7343359,42.3519739 L45.7343359,44.5101526 L47.0090032,44.5101526 L47.0090032,46.5580594 L45.7343359,46.5580594 L45.7343359,52.9108667 L43.337885,52.9108667 Z M51.8773913,53.1428673 C49.3390453,53.1428673 47.4786426,51.1894793 47.4786426,48.7477443 C47.4786426,46.3375156 49.3232792,44.3526213 51.9089236,44.3526213 C53.5013021,44.3526213 54.4788019,44.9512402 55.2671081,45.8334154 L53.863923,47.2511971 C53.3436409,46.7628501 52.8391249,46.4162812 51.8931575,46.4162812 C50.694932,46.4162812 49.8435613,47.4717409 49.8435613,48.7477443 C49.8435613,50.0395009 50.6791659,51.0792074 51.9877542,51.0792074 C52.7918266,51.0792074 53.3436409,50.7326386 53.9269875,50.1812791 L55.3301726,51.5990607 C54.5103341,52.4969891 53.5643666,53.1428673 51.8773913,53.1428673 Z M56.2460411,52.9538298 L58.642492,52.9538298 L58.642492,48.2436442 C58.642492,47.1094189 59.2258386,46.5265531 60.1402738,46.5265531 C61.054709,46.5265531 61.5907573,47.1094189 61.5907573,48.2436442 L61.5907573,52.9538298 L63.9872082,52.9538298 L63.9872082,47.487494 C63.9872082,45.5498591 62.9308779,44.3526213 61.1177735,44.3526213 C59.903782,44.3526213 59.1943064,44.9984996 58.642492,45.7073904 L58.642492,41.4540456 L56.2460411,41.4540456 L56.2460411,52.9538298 Z" id="path-5"></path>
        <filter x="-1.1%" y="-4.3%" width="102.2%" height="117.1%" filterUnits="objectBoundingBox" id="filter-6">
            <feOffset dx="0" dy="1" in="SourceAlpha" result="shadowOffsetOuter1"></feOffset>
            <feColorMatrix values="0 0 0 0 0   0 0 0 0 0   0 0 0 0 0  0 0 0 0.5 0" type="matrix" in="shadowOffsetOuter1"></feColorMatrix>
        </filter>
        <ellipse id="path-7" cx="52.1705371" cy="48.6145588" rx="1.42372881" ry="1.43210264"></ellipse>
        <filter x="-17.6%" y="-17.5%" width="135.1%" height="169.8%" filterUnits="objectBoundingBox" id="filter-8">
            <feOffset dx="0" dy="1" in="SourceAlpha" result="shadowOffsetOuter1"></feOffset>
            <feColorMatrix values="0 0 0 0 0   0 0 0 0 0   0 0 0 0 0  0 0 0 1 0" type="matrix" in="shadowOffsetOuter1"></feColorMatrix>
        </filter>
        <path d="M33.8448814,74.085534 L35.9406102,70.1100171 C36.0469158,69.9114312 36.1076609,69.7376711 36.1228475,69.5887317 C36.138034,69.4397923 36.1456271,69.2545755 36.1456271,69.0330759 C36.1456271,68.9337829 36.1418305,68.8287631 36.1342373,68.7180133 C36.126644,68.6072635 36.1057629,68.5098815 36.0715932,68.4258644 C36.0374236,68.3418473 35.9823733,68.2711976 35.9064407,68.2139132 C35.8305081,68.1566288 35.7204075,68.127987 35.5761356,68.127987 C35.4014907,68.127987 35.2629158,68.1776327 35.1604068,68.2769257 C35.0578978,68.3762186 35.0066441,68.5213369 35.0066441,68.7122849 L35.0066441,69.3767805 L33.8448814,69.3767805 L33.8448814,68.7351985 C33.8448814,68.4907851 33.8904402,68.261651 33.9815593,68.0477893 C34.0726784,67.8339275 34.196067,67.6468013 34.3517288,67.486405 C34.5073906,67.3260087 34.6915244,67.1980755 34.9041356,67.1026015 C35.1167468,67.0071275 35.3445412,66.9593913 35.5875254,66.9593913 C35.8912558,66.9593913 36.151321,67.0147653 36.3677288,67.1255152 C36.5841367,67.236265 36.7625756,67.3871116 36.9030508,67.5780596 C37.0435261,67.7690076 37.1460336,67.986685 37.2105763,68.2310984 C37.275119,68.4755118 37.3073898,68.7351972 37.3073898,69.0101622 C37.3073898,69.2087481 37.3035933,69.3748704 37.296,69.508534 C37.2884067,69.6421975 37.2732205,69.7701308 37.2504407,69.8923375 C37.2276609,70.0145442 37.1896952,70.136749 37.1365424,70.2589557 C37.0833896,70.3811625 37.0112547,70.5300996 36.9201356,70.7057718 L35.211661,74.0167931 L37.3073898,74.0167931 L37.3073898,75.1853888 L33.8448814,75.1853888 L33.8448814,74.085534 Z M38.0818983,68.7122849 C38.0818983,68.4373198 38.1293555,68.1929101 38.2242712,67.9790483 C38.3191869,67.7651866 38.4463721,67.5818793 38.6058305,67.4291209 C38.7652889,67.2763625 38.9494227,67.159886 39.1582373,67.0796879 C39.3670519,66.9994897 39.5853548,66.9593913 39.8131525,66.9593913 C40.0409503,66.9593913 40.2592532,66.9994897 40.4680678,67.0796879 C40.6768824,67.159886 40.8610162,67.2763625 41.0204746,67.4291209 C41.179933,67.5818793 41.3071182,67.7651866 41.4020339,67.9790483 C41.4969496,68.1929101 41.5444068,68.4373198 41.5444068,68.7122849 L41.5444068,73.5012361 C41.5444068,73.7762012 41.4969496,74.020611 41.4020339,74.2344727 C41.3071182,74.4483344 41.179933,74.6316417 41.0204746,74.7844001 C40.8610162,74.9371585 40.6768824,75.053635 40.4680678,75.1338332 C40.2592532,75.2140313 40.0409503,75.2541298 39.8131525,75.2541298 C39.5853548,75.2541298 39.3670519,75.2140313 39.1582373,75.1338332 C38.9494227,75.053635 38.7652889,74.9371585 38.6058305,74.7844001 C38.4463721,74.6316417 38.3191869,74.4483344 38.2242712,74.2344727 C38.1293555,74.020611 38.0818983,73.7762012 38.0818983,73.5012361 L38.0818983,68.7122849 Z M39.243661,73.5012361 C39.243661,73.6692704 39.296813,73.8086603 39.4031186,73.9194101 C39.5094243,74.0301599 39.6461009,74.085534 39.8131525,74.085534 C39.9802042,74.085534 40.1168808,74.0301599 40.2231864,73.9194101 C40.3294921,73.8086603 40.3826441,73.6692704 40.3826441,73.5012361 L40.3826441,68.7122849 C40.3826441,68.5442507 40.3294921,68.4048607 40.2231864,68.2941109 C40.1168808,68.1833611 39.9802042,68.127987 39.8131525,68.127987 C39.6461009,68.127987 39.5094243,68.1833611 39.4031186,68.2941109 C39.296813,68.4048607 39.243661,68.5442507 39.243661,68.7122849 L39.243661,73.5012361 Z M43.6970847,68.2654689 L42.535322,69.1247305 L42.535322,67.8873938 L43.6970847,67.0281322 L44.8588475,67.0281322 L44.8588475,75.1853888 L43.6970847,75.1853888 L43.6970847,68.2654689 Z M48.856678,68.127987 L47.5810169,68.127987 L47.5810169,69.0674463 L46.5559322,69.0674463 L46.5559322,67.0281322 L50.0184407,67.0281322 L50.0184407,68.1967279 L48.048,75.1853888 L46.8178983,75.1853888 L48.856678,68.127987 Z" id="path-9"></path>
        <filter x="-3.1%" y="-6.0%" width="106.2%" height="124.1%" filterUnits="objectBoundingBox" id="filter-10">
            <feOffset dx="0" dy="1" in="SourceAlpha" result="shadowOffsetOuter1"></feOffset>
            <feColorMatrix values="0 0 0 0 1   0 0 0 0 1   0 0 0 0 1  0 0 0 0.5 0" type="matrix" in="shadowOffsetOuter1"></feColorMatrix>
        </filter>
        <path d="M18.3975934,28.6707229 L19.9513208,28.6707229 L19.9513208,31.2929812 C19.5110379,31.4817847 19.0429547,31.5761851 18.5470571,31.5761851 C17.956151,31.5761851 17.501392,31.3500904 17.1827662,30.8978943 C16.8641404,30.4456981 16.7048298,29.7942192 16.7048298,28.9434378 C16.7048298,28.1229582 16.8873128,27.4808027 17.2522842,27.016952 C17.6172555,26.5531014 18.1276285,26.3211795 18.7834183,26.3211795 C19.188942,26.3211795 19.5759218,26.4260688 19.944369,26.6358505 L19.6454416,27.412039 C19.3580991,27.2442136 19.0892988,27.1603022 18.8390327,27.1603022 C18.4798545,27.1603022 18.1954129,27.3217151 17.9856992,27.6445459 C17.7759854,27.9673766 17.6711302,28.4073289 17.6711302,28.9644158 C17.6711302,29.5378192 17.7470199,29.9771887 17.8988016,30.2825377 C18.0505834,30.5878866 18.2713009,30.7405588 18.5609607,30.7405588 C18.7139011,30.7405588 18.8691564,30.7207464 19.0267313,30.6811209 L19.0267313,29.5098456 L18.3975934,29.5098456 L18.3975934,28.6707229 Z M21.0823788,31.5062582 L21.0823788,26.3946027 L22.0278238,26.3946027 L22.0278238,30.6741282 L23.3382382,30.6741282 L23.3382382,31.5062582 L21.0823788,31.5062582 Z M27.7957329,28.9434378 C27.7957329,29.7895573 27.6381603,30.4398709 27.3230105,30.8943979 C27.0078606,31.348925 26.5571567,31.5761851 25.9708852,31.5761851 C25.3822964,31.5761851 24.9304339,31.3495077 24.615284,30.8961461 C24.3001341,30.4427845 24.1425616,29.7895574 24.1425616,28.9364451 C24.1425616,28.0903255 24.3001341,27.4417601 24.615284,26.9907295 C24.9304339,26.5396988 25.3846137,26.3141868 25.977837,26.3141868 C26.5641085,26.3141868 27.0136538,26.5408642 27.3264864,26.9942258 C27.639319,27.4475874 27.7957329,28.0973182 27.7957329,28.9434378 Z M25.1088619,28.9434378 C25.1088619,29.5261647 25.1818551,29.970196 25.3278436,30.275545 C25.4738322,30.5808939 25.6881772,30.7335661 25.9708852,30.7335661 C26.5409357,30.7335661 26.8259567,30.1368626 26.8259567,28.9434378 C26.8259567,27.7500129 26.543253,27.1533095 25.977837,27.1533095 C25.6904945,27.1533095 25.4738322,27.3053989 25.3278436,27.6095824 C25.1818551,27.9137659 25.1088619,28.3583799 25.1088619,28.9434378 Z M28.8920319,26.3946027 L30.1885428,26.3946027 C30.7168823,26.3946027 31.1015447,26.4977439 31.3425417,26.7040292 C31.5835387,26.9103146 31.7040354,27.2383849 31.7040354,27.6882502 C31.7040354,27.9842755 31.6403112,28.2319307 31.5128608,28.4312233 C31.3854105,28.630516 31.2116172,28.7511386 30.9914758,28.793095 L30.9914758,28.8280584 C31.2788183,28.9003166 31.4862116,29.0355072 31.6136619,29.2336344 C31.7411123,29.4317615 31.8048365,29.6951502 31.8048365,30.0238082 C31.8048365,30.4876588 31.6814432,30.8506923 31.4346531,31.1129194 C31.1878629,31.3751466 30.8501246,31.5062582 30.4214281,31.5062582 L28.8920319,31.5062582 L28.8920319,26.3946027 Z M29.7818624,28.4504532 L30.21635,28.4504532 C30.4156359,28.4504532 30.5558292,28.3968431 30.6369339,28.2896214 C30.7180387,28.1823996 30.7585904,28.0227348 30.7585904,27.8106222 C30.7585904,27.5985096 30.7122456,27.4464201 30.6195544,27.3543493 C30.5268633,27.2622784 30.3808769,27.2162437 30.181591,27.2162437 L29.7818624,27.2162437 L29.7818624,28.4504532 Z M29.7818624,29.2441234 L29.7818624,30.6741282 L30.2580608,30.6741282 C30.4550295,30.6741282 30.6015951,30.6135255 30.6977622,30.4923183 C30.7939292,30.3711111 30.842012,30.1834758 30.842012,29.9294069 C30.842012,29.4725489 30.6427291,29.2441234 30.2441572,29.2441234 L29.7818624,29.2441234 Z M35.2612718,31.5062582 L34.9692962,30.2161071 L33.6449782,30.2161071 L33.3530025,31.5062582 L32.4075576,31.5062582 L33.6658336,26.3736247 L34.9484408,26.3736247 L36.2101927,31.5062582 L35.2612718,31.5062582 Z M34.7920253,29.3734881 L34.5209051,28.1847311 C34.5046841,28.1124729 34.4681875,27.9312475 34.4114142,27.6410495 C34.3546409,27.3508515 34.3204615,27.1568063 34.3088751,27.0589082 C34.2787505,27.2593663 34.240516,27.4802165 34.1941704,27.7214654 C34.1478248,27.9627144 34.0273282,28.5133831 33.8326768,29.3734881 L34.7920253,29.3734881 Z M37.014516,31.5062582 L37.014516,26.3946027 L37.9599609,26.3946027 L37.9599609,30.6741282 L39.2703754,30.6741282 L39.2703754,31.5062582 L37.014516,31.5062582 Z M42.3458521,31.5062582 L42.3458521,26.3946027 L43.291297,26.3946027 L43.291297,30.6741282 L44.6017115,30.6741282 L44.6017115,31.5062582 L42.3458521,31.5062582 Z M47.8530687,31.5062582 L45.5624503,31.5062582 L45.5624503,26.3946027 L47.8530687,26.3946027 L47.8530687,27.2162437 L46.5078953,27.2162437 L46.5078953,28.4329715 L47.7557435,28.4329715 L47.7557435,29.2581088 L46.5078953,29.2581088 L46.5078953,30.6741282 L47.8530687,30.6741282 L47.8530687,31.5062582 Z M51.3546908,31.5062582 L51.0627152,30.2161071 L49.7383971,30.2161071 L49.4464215,31.5062582 L48.5009766,31.5062582 L49.7592525,26.3736247 L51.0418598,26.3736247 L52.3036116,31.5062582 L51.3546908,31.5062582 Z M50.8854443,29.3734881 L50.614324,28.1847311 C50.5981031,28.1124729 50.5616065,27.9312475 50.5048332,27.6410495 C50.4480598,27.3508515 50.4138805,27.1568063 50.4022941,27.0589082 C50.3721695,27.2593663 50.333935,27.4802165 50.2875894,27.7214654 C50.2412438,27.9627144 50.1207471,28.5133831 49.9260957,29.3734881 L50.8854443,29.3734881 Z M56.3405224,28.9014816 C56.3405224,29.7452703 56.1696256,30.3903394 55.8278271,30.8367082 C55.4860285,31.2830771 54.9941935,31.5062582 54.3523073,31.5062582 L53.107935,31.5062582 L53.107935,26.3946027 L54.467012,26.3946027 C55.0579181,26.3946027 55.517891,26.6142875 55.8469445,27.0536637 C56.1759981,27.4930398 56.3405224,28.108973 56.3405224,28.9014816 Z M55.3707462,28.9294524 C55.3707462,27.7873075 55.0579183,27.2162437 54.432253,27.2162437 L54.0533799,27.2162437 L54.0533799,30.6741282 L54.3592591,30.6741282 C54.7045336,30.6741282 54.9594305,30.5290314 55.1239572,30.2388334 C55.288484,29.9486353 55.3707462,29.5121794 55.3707462,28.9294524 Z M59.7274398,31.5062582 L57.4368214,31.5062582 L57.4368214,26.3946027 L59.7274398,26.3946027 L59.7274398,27.2162437 L58.3822663,27.2162437 L58.3822663,28.4329715 L59.6301145,28.4329715 L59.6301145,29.2581088 L58.3822663,29.2581088 L58.3822663,30.6741282 L59.7274398,30.6741282 L59.7274398,31.5062582 Z M61.7691837,29.5168382 L61.7691837,31.5062582 L60.8237387,31.5062582 L60.8237387,26.3946027 L62.0611593,26.3946027 C62.5848642,26.3946027 62.9712646,26.5193044 63.2203721,26.7687116 C63.4694795,27.0181187 63.5940314,27.3992165 63.5940314,27.9120162 C63.5940314,28.5576777 63.3773691,29.0087016 62.944038,29.2651015 L63.920766,31.5062582 L62.909279,31.5062582 L62.106346,29.5168382 L61.7691837,29.5168382 Z M61.7691837,28.6986937 L62.0124967,28.6986937 C62.2349554,28.6986937 62.3948452,28.6351774 62.4921709,28.5081429 C62.5894966,28.3811084 62.6381588,28.191725 62.6381588,27.9399869 C62.6381588,27.6789253 62.5866001,27.4930381 62.4834812,27.38232 C62.3803623,27.2716019 62.2210518,27.2162437 62.0055449,27.2162437 L61.7691837,27.2162437 L61.7691837,28.6986937 Z M67.0539427,30.0972314 C67.0539427,30.5750675 66.9340253,30.9410146 66.694187,31.1950835 C66.4543486,31.4491525 66.1085,31.5761851 65.6566307,31.5761851 C65.2140305,31.5761851 64.8374784,31.4887773 64.5269631,31.3139592 L64.5269631,30.3734426 C64.9069967,30.6228498 65.2557419,30.7475515 65.5732091,30.7475515 C65.7539568,30.7475515 65.8900949,30.6974377 65.9816274,30.5972087 C66.0731599,30.4969796 66.1189255,30.3606235 66.1189255,30.1881364 C66.1189255,30.0179801 66.0644702,29.8623943 65.9555581,29.7213744 C65.846646,29.5803545 65.6670596,29.4236033 65.4167936,29.2511161 C65.1989694,29.0996071 65.0338658,28.9545102 64.9214778,28.8158212 C64.8090897,28.6771322 64.7221931,28.5215464 64.6607852,28.3490592 C64.5993773,28.1765721 64.5686739,27.976117 64.5686739,27.747688 C64.5686739,27.3094773 64.6897498,26.9621773 64.9319055,26.7057774 C65.1740611,26.4493775 65.4990545,26.3211795 65.9068955,26.3211795 C66.2961983,26.3211795 66.6704332,26.4307305 67.0296114,26.6498359 L66.7167803,27.412039 C66.605551,27.3467735 66.4891095,27.2885017 66.3674523,27.2372217 C66.2457952,27.1859418 66.1154502,27.1603022 65.9764135,27.1603022 C65.8234731,27.1603022 65.705873,27.2109986 65.6236096,27.3123931 C65.5413463,27.4137876 65.5002152,27.5518919 65.5002152,27.7267099 C65.5002152,27.8991971 65.5494566,28.0495384 65.6479409,28.1777384 C65.7464253,28.3059383 65.9184806,28.4516179 66.1641122,28.6147814 C66.495483,28.8385486 66.7266281,29.0669741 66.8575543,29.3000649 C66.9884805,29.5331557 67.0539427,29.7988752 67.0539427,30.0972314 Z" id="path-11"></path>
        <filter x="-1.0%" y="-9.5%" width="102.0%" height="138.0%" filterUnits="objectBoundingBox" id="filter-12">
            <feOffset dx="0" dy="1" in="SourceAlpha" result="shadowOffsetOuter1"></feOffset>
            <feColorMatrix values="0 0 0 0 1   0 0 0 0 1   0 0 0 0 1  0 0 0 0.5 0" type="matrix" in="shadowOffsetOuter1"></feColorMatrix>
        </filter>
        <path d="M43.5497967,4.04039604 L80.0021596,24.4673622 C81.0029132,25.0281588 81.6226415,26.0858374 81.6226415,27.233008 L81.6226415,67.9248867 C81.6226415,69.0720574 81.0029132,70.1297359 80.0021596,70.6905325 L43.5497967,91.1174987 C42.5870287,91.6570091 41.4129713,91.6570091 40.4502033,91.1174987 L3.99784038,70.6905325 C2.99708679,70.1297359 2.37735849,69.0720574 2.37735849,67.9248867 L2.37735849,27.233008 C2.37735849,26.0858374 2.99708679,25.0281588 3.99784038,24.4673622 L40.4502033,4.04039604 C41.4129713,3.50088559 42.5870287,3.50088559 43.5497967,4.04039604 Z" id="path-13"></path>
        <path d="M77.6603774,36.477193 L77.6603774,28.1591771 C77.6603774,27.5893003 77.3552374,27.0632824 76.8611667,26.7814517 L42.7819658,7.34179058 C42.2971494,7.06523869 41.7028506,7.06523869 41.2180342,7.34179058 L7.13883331,26.7814517 C6.64476262,27.0632824 6.33962264,27.5893003 6.33962264,28.1591771 L6.33962264,36.477193 L77.6603774,36.477193 L77.6603774,36.477193 Z M77.6603774,58.6807018 L77.6603774,66.9987177 C77.6603774,67.5685944 77.3552374,68.0946123 76.8611667,68.3764431 L42.7819658,87.8161042 C42.2971494,88.092656 41.7028506,88.092656 41.2180342,87.8161042 L7.13883331,68.3764431 C6.64476262,68.0946123 6.33962264,67.5685944 6.33962264,66.9987177 L6.33962264,58.6807018 L77.6603774,58.6807018 L77.6603774,58.6807018 Z" id="path-14"></path>
        <filter x="-4.9%" y="-3.1%" width="109.8%" height="108.7%" filterUnits="objectBoundingBox" id="filter-15">
            <feOffset dx="0" dy="1" in="SourceAlpha" result="shadowOffsetOuter1"></feOffset>
            <feGaussianBlur stdDeviation="1" in="shadowOffsetOuter1" result="shadowBlurOuter1"></feGaussianBlur>
            <feComposite in="shadowBlurOuter1" in2="SourceAlpha" operator="out" result="shadowBlurOuter1"></feComposite>
            <feColorMatrix values="0 0 0 0 0.11372549   0 0 0 0 0.121568627   0 0 0 0 0.149019608  0 0 0 0.2 0" type="matrix" in="shadowBlurOuter1"></feColorMatrix>
        </filter>
        <path d="M24.7997892,53.1428673 C26.928216,53.1428673 28.189506,52.4812359 29.3246669,51.268245 L27.7795867,49.6141664 C26.9124499,50.4018229 26.1399098,50.905923 24.8786198,50.905923 C22.9866849,50.905923 21.6780966,49.3306101 21.6780966,47.4402346 C21.6780966,45.5183529 23.0182172,43.9745462 24.8786198,43.9745462 C26.1399098,43.9745462 26.8651515,44.431387 27.7165222,45.2032903 L29.1670057,43.5334586 C28.1422076,42.5252583 26.9755144,41.7376019 24.894386,41.7376019 C21.5046692,41.7376019 19.1397506,44.3053619 19.1397506,47.4402346 C19.1397506,50.6381198 21.5519676,53.1428673 24.7997892,53.1428673 Z M29.7603853,52.9538298 L32.1568362,52.9538298 L32.1568362,41.4540456 L29.7603853,41.4540456 L29.7603853,52.9538298 Z M36.5727843,53.1113611 C37.7867759,53.1113611 38.4962515,52.4654828 39.0480659,51.756592 L39.0480659,52.9538298 L41.4445168,52.9538298 L41.4445168,44.5101526 L39.0480659,44.5101526 L39.0480659,49.2203382 C39.0480659,50.3545635 38.4647193,50.9374293 37.5502841,50.9374293 C36.6358488,50.9374293 36.0998006,50.3545635 36.0998006,49.2203382 L36.0998006,44.5101526 L33.7033497,44.5101526 L33.7033497,49.9764884 C33.7033497,51.9141233 34.75968,53.1113611 36.5727843,53.1113611 Z M43.337885,52.9108667 L43.337885,46.5580594 L42.1328319,46.5580594 L42.1328319,44.5101526 L43.337885,44.5101526 L43.337885,42.3519739 L45.7343359,42.3519739 L45.7343359,44.5101526 L47.0090032,44.5101526 L47.0090032,46.5580594 L45.7343359,46.5580594 L45.7343359,52.9108667 L43.337885,52.9108667 Z M51.8773913,53.1428673 C49.3390453,53.1428673 47.4786426,51.1894793 47.4786426,48.7477443 C47.4786426,46.3375156 49.3232792,44.3526213 51.9089236,44.3526213 C53.5013021,44.3526213 54.4788019,44.9512402 55.2671081,45.8334154 L53.863923,47.2511971 C53.3436409,46.7628501 52.8391249,46.4162812 51.8931575,46.4162812 C50.694932,46.4162812 49.8435613,47.4717409 49.8435613,48.7477443 C49.8435613,50.0395009 50.6791659,51.0792074 51.9877542,51.0792074 C52.7918266,51.0792074 53.3436409,50.7326386 53.9269875,50.1812791 L55.3301726,51.5990607 C54.5103341,52.4969891 53.5643666,53.1428673 51.8773913,53.1428673 Z M56.2460411,52.9538298 L58.642492,52.9538298 L58.642492,48.2436442 C58.642492,47.1094189 59.2258386,46.5265531 60.1402738,46.5265531 C61.054709,46.5265531 61.5907573,47.1094189 61.5907573,48.2436442 L61.5907573,52.9538298 L63.9872082,52.9538298 L63.9872082,47.487494 C63.9872082,45.5498591 62.9308779,44.3526213 61.1177735,44.3526213 C59.903782,44.3526213 59.1943064,44.9984996 58.642492,45.7073904 L58.642492,41.4540456 L56.2460411,41.4540456 L56.2460411,52.9538298 Z" id="path-16"></path>
        <filter x="-1.1%" y="-4.3%" width="102.2%" height="117.1%" filterUnits="objectBoundingBox" id="filter-17">
            <feOffset dx="0" dy="1" in="SourceAlpha" result="shadowOffsetOuter1"></feOffset>
            <feColorMatrix values="0 0 0 0 0   0 0 0 0 0   0 0 0 0 0  0 0 0 0.5 0" type="matrix" in="shadowOffsetOuter1"></feColorMatrix>
        </filter>
        <ellipse id="path-18" cx="52.1705371" cy="48.6145588" rx="1.42372881" ry="1.43210264"></ellipse>
        <filter x="-17.6%" y="-17.5%" width="135.1%" height="169.8%" filterUnits="objectBoundingBox" id="filter-19">
            <feOffset dx="0" dy="1" in="SourceAlpha" result="shadowOffsetOuter1"></feOffset>
            <feColorMatrix values="0 0 0 0 0   0 0 0 0 0   0 0 0 0 0  0 0 0 1 0" type="matrix" in="shadowOffsetOuter1"></feColorMatrix>
        </filter>
        <path d="M33.8448814,74.085534 L35.9406102,70.1100171 C36.0469158,69.9114312 36.1076609,69.7376711 36.1228475,69.5887317 C36.138034,69.4397923 36.1456271,69.2545755 36.1456271,69.0330759 C36.1456271,68.9337829 36.1418305,68.8287631 36.1342373,68.7180133 C36.126644,68.6072635 36.1057629,68.5098815 36.0715932,68.4258644 C36.0374236,68.3418473 35.9823733,68.2711976 35.9064407,68.2139132 C35.8305081,68.1566288 35.7204075,68.127987 35.5761356,68.127987 C35.4014907,68.127987 35.2629158,68.1776327 35.1604068,68.2769257 C35.0578978,68.3762186 35.0066441,68.5213369 35.0066441,68.7122849 L35.0066441,69.3767805 L33.8448814,69.3767805 L33.8448814,68.7351985 C33.8448814,68.4907851 33.8904402,68.261651 33.9815593,68.0477893 C34.0726784,67.8339275 34.196067,67.6468013 34.3517288,67.486405 C34.5073906,67.3260087 34.6915244,67.1980755 34.9041356,67.1026015 C35.1167468,67.0071275 35.3445412,66.9593913 35.5875254,66.9593913 C35.8912558,66.9593913 36.151321,67.0147653 36.3677288,67.1255152 C36.5841367,67.236265 36.7625756,67.3871116 36.9030508,67.5780596 C37.0435261,67.7690076 37.1460336,67.986685 37.2105763,68.2310984 C37.275119,68.4755118 37.3073898,68.7351972 37.3073898,69.0101622 C37.3073898,69.2087481 37.3035933,69.3748704 37.296,69.508534 C37.2884067,69.6421975 37.2732205,69.7701308 37.2504407,69.8923375 C37.2276609,70.0145442 37.1896952,70.136749 37.1365424,70.2589557 C37.0833896,70.3811625 37.0112547,70.5300996 36.9201356,70.7057718 L35.211661,74.0167931 L37.3073898,74.0167931 L37.3073898,75.1853888 L33.8448814,75.1853888 L33.8448814,74.085534 Z M38.0818983,68.7122849 C38.0818983,68.4373198 38.1293555,68.1929101 38.2242712,67.9790483 C38.3191869,67.7651866 38.4463721,67.5818793 38.6058305,67.4291209 C38.7652889,67.2763625 38.9494227,67.159886 39.1582373,67.0796879 C39.3670519,66.9994897 39.5853548,66.9593913 39.8131525,66.9593913 C40.0409503,66.9593913 40.2592532,66.9994897 40.4680678,67.0796879 C40.6768824,67.159886 40.8610162,67.2763625 41.0204746,67.4291209 C41.179933,67.5818793 41.3071182,67.7651866 41.4020339,67.9790483 C41.4969496,68.1929101 41.5444068,68.4373198 41.5444068,68.7122849 L41.5444068,73.5012361 C41.5444068,73.7762012 41.4969496,74.020611 41.4020339,74.2344727 C41.3071182,74.4483344 41.179933,74.6316417 41.0204746,74.7844001 C40.8610162,74.9371585 40.6768824,75.053635 40.4680678,75.1338332 C40.2592532,75.2140313 40.0409503,75.2541298 39.8131525,75.2541298 C39.5853548,75.2541298 39.3670519,75.2140313 39.1582373,75.1338332 C38.9494227,75.053635 38.7652889,74.9371585 38.6058305,74.7844001 C38.4463721,74.6316417 38.3191869,74.4483344 38.2242712,74.2344727 C38.1293555,74.020611 38.0818983,73.7762012 38.0818983,73.5012361 L38.0818983,68.7122849 Z M39.243661,73.5012361 C39.243661,73.6692704 39.296813,73.8086603 39.4031186,73.9194101 C39.5094243,74.0301599 39.6461009,74.085534 39.8131525,74.085534 C39.9802042,74.085534 40.1168808,74.0301599 40.2231864,73.9194101 C40.3294921,73.8086603 40.3826441,73.6692704 40.3826441,73.5012361 L40.3826441,68.7122849 C40.3826441,68.5442507 40.3294921,68.4048607 40.2231864,68.2941109 C40.1168808,68.1833611 39.9802042,68.127987 39.8131525,68.127987 C39.6461009,68.127987 39.5094243,68.1833611 39.4031186,68.2941109 C39.296813,68.4048607 39.243661,68.5442507 39.243661,68.7122849 L39.243661,73.5012361 Z M43.6970847,68.2654689 L42.535322,69.1247305 L42.535322,67.8873938 L43.6970847,67.0281322 L44.8588475,67.0281322 L44.8588475,75.1853888 L43.6970847,75.1853888 L43.6970847,68.2654689 Z M48.856678,68.127987 L47.5810169,68.127987 L47.5810169,69.0674463 L46.5559322,69.0674463 L46.5559322,67.0281322 L50.0184407,67.0281322 L50.0184407,68.1967279 L48.048,75.1853888 L46.8178983,75.1853888 L48.856678,68.127987 Z" id="path-20"></path>
        <filter x="-3.1%" y="-6.0%" width="106.2%" height="124.1%" filterUnits="objectBoundingBox" id="filter-21">
            <feOffset dx="0" dy="1" in="SourceAlpha" result="shadowOffsetOuter1"></feOffset>
            <feColorMatrix values="0 0 0 0 1   0 0 0 0 1   0 0 0 0 1  0 0 0 0.5 0" type="matrix" in="shadowOffsetOuter1"></feColorMatrix>
        </filter>
        <path d="M18.3975934,28.6707229 L19.9513208,28.6707229 L19.9513208,31.2929812 C19.5110379,31.4817847 19.0429547,31.5761851 18.5470571,31.5761851 C17.956151,31.5761851 17.501392,31.3500904 17.1827662,30.8978943 C16.8641404,30.4456981 16.7048298,29.7942192 16.7048298,28.9434378 C16.7048298,28.1229582 16.8873128,27.4808027 17.2522842,27.016952 C17.6172555,26.5531014 18.1276285,26.3211795 18.7834183,26.3211795 C19.188942,26.3211795 19.5759218,26.4260688 19.944369,26.6358505 L19.6454416,27.412039 C19.3580991,27.2442136 19.0892988,27.1603022 18.8390327,27.1603022 C18.4798545,27.1603022 18.1954129,27.3217151 17.9856992,27.6445459 C17.7759854,27.9673766 17.6711302,28.4073289 17.6711302,28.9644158 C17.6711302,29.5378192 17.7470199,29.9771887 17.8988016,30.2825377 C18.0505834,30.5878866 18.2713009,30.7405588 18.5609607,30.7405588 C18.7139011,30.7405588 18.8691564,30.7207464 19.0267313,30.6811209 L19.0267313,29.5098456 L18.3975934,29.5098456 L18.3975934,28.6707229 Z M21.0823788,31.5062582 L21.0823788,26.3946027 L22.0278238,26.3946027 L22.0278238,30.6741282 L23.3382382,30.6741282 L23.3382382,31.5062582 L21.0823788,31.5062582 Z M27.7957329,28.9434378 C27.7957329,29.7895573 27.6381603,30.4398709 27.3230105,30.8943979 C27.0078606,31.348925 26.5571567,31.5761851 25.9708852,31.5761851 C25.3822964,31.5761851 24.9304339,31.3495077 24.615284,30.8961461 C24.3001341,30.4427845 24.1425616,29.7895574 24.1425616,28.9364451 C24.1425616,28.0903255 24.3001341,27.4417601 24.615284,26.9907295 C24.9304339,26.5396988 25.3846137,26.3141868 25.977837,26.3141868 C26.5641085,26.3141868 27.0136538,26.5408642 27.3264864,26.9942258 C27.639319,27.4475874 27.7957329,28.0973182 27.7957329,28.9434378 Z M25.1088619,28.9434378 C25.1088619,29.5261647 25.1818551,29.970196 25.3278436,30.275545 C25.4738322,30.5808939 25.6881772,30.7335661 25.9708852,30.7335661 C26.5409357,30.7335661 26.8259567,30.1368626 26.8259567,28.9434378 C26.8259567,27.7500129 26.543253,27.1533095 25.977837,27.1533095 C25.6904945,27.1533095 25.4738322,27.3053989 25.3278436,27.6095824 C25.1818551,27.9137659 25.1088619,28.3583799 25.1088619,28.9434378 Z M28.8920319,26.3946027 L30.1885428,26.3946027 C30.7168823,26.3946027 31.1015447,26.4977439 31.3425417,26.7040292 C31.5835387,26.9103146 31.7040354,27.2383849 31.7040354,27.6882502 C31.7040354,27.9842755 31.6403112,28.2319307 31.5128608,28.4312233 C31.3854105,28.630516 31.2116172,28.7511386 30.9914758,28.793095 L30.9914758,28.8280584 C31.2788183,28.9003166 31.4862116,29.0355072 31.6136619,29.2336344 C31.7411123,29.4317615 31.8048365,29.6951502 31.8048365,30.0238082 C31.8048365,30.4876588 31.6814432,30.8506923 31.4346531,31.1129194 C31.1878629,31.3751466 30.8501246,31.5062582 30.4214281,31.5062582 L28.8920319,31.5062582 L28.8920319,26.3946027 Z M29.7818624,28.4504532 L30.21635,28.4504532 C30.4156359,28.4504532 30.5558292,28.3968431 30.6369339,28.2896214 C30.7180387,28.1823996 30.7585904,28.0227348 30.7585904,27.8106222 C30.7585904,27.5985096 30.7122456,27.4464201 30.6195544,27.3543493 C30.5268633,27.2622784 30.3808769,27.2162437 30.181591,27.2162437 L29.7818624,27.2162437 L29.7818624,28.4504532 Z M29.7818624,29.2441234 L29.7818624,30.6741282 L30.2580608,30.6741282 C30.4550295,30.6741282 30.6015951,30.6135255 30.6977622,30.4923183 C30.7939292,30.3711111 30.842012,30.1834758 30.842012,29.9294069 C30.842012,29.4725489 30.6427291,29.2441234 30.2441572,29.2441234 L29.7818624,29.2441234 Z M35.2612718,31.5062582 L34.9692962,30.2161071 L33.6449782,30.2161071 L33.3530025,31.5062582 L32.4075576,31.5062582 L33.6658336,26.3736247 L34.9484408,26.3736247 L36.2101927,31.5062582 L35.2612718,31.5062582 Z M34.7920253,29.3734881 L34.5209051,28.1847311 C34.5046841,28.1124729 34.4681875,27.9312475 34.4114142,27.6410495 C34.3546409,27.3508515 34.3204615,27.1568063 34.3088751,27.0589082 C34.2787505,27.2593663 34.240516,27.4802165 34.1941704,27.7214654 C34.1478248,27.9627144 34.0273282,28.5133831 33.8326768,29.3734881 L34.7920253,29.3734881 Z M37.014516,31.5062582 L37.014516,26.3946027 L37.9599609,26.3946027 L37.9599609,30.6741282 L39.2703754,30.6741282 L39.2703754,31.5062582 L37.014516,31.5062582 Z M42.3458521,31.5062582 L42.3458521,26.3946027 L43.291297,26.3946027 L43.291297,30.6741282 L44.6017115,30.6741282 L44.6017115,31.5062582 L42.3458521,31.5062582 Z M47.8530687,31.5062582 L45.5624503,31.5062582 L45.5624503,26.3946027 L47.8530687,26.3946027 L47.8530687,27.2162437 L46.5078953,27.2162437 L46.5078953,28.4329715 L47.7557435,28.4329715 L47.7557435,29.2581088 L46.5078953,29.2581088 L46.5078953,30.6741282 L47.8530687,30.6741282 L47.8530687,31.5062582 Z M51.3546908,31.5062582 L51.0627152,30.2161071 L49.7383971,30.2161071 L49.4464215,31.5062582 L48.5009766,31.5062582 L49.7592525,26.3736247 L51.0418598,26.3736247 L52.3036116,31.5062582 L51.3546908,31.5062582 Z M50.8854443,29.3734881 L50.614324,28.1847311 C50.5981031,28.1124729 50.5616065,27.9312475 50.5048332,27.6410495 C50.4480598,27.3508515 50.4138805,27.1568063 50.4022941,27.0589082 C50.3721695,27.2593663 50.333935,27.4802165 50.2875894,27.7214654 C50.2412438,27.9627144 50.1207471,28.5133831 49.9260957,29.3734881 L50.8854443,29.3734881 Z M56.3405224,28.9014816 C56.3405224,29.7452703 56.1696256,30.3903394 55.8278271,30.8367082 C55.4860285,31.2830771 54.9941935,31.5062582 54.3523073,31.5062582 L53.107935,31.5062582 L53.107935,26.3946027 L54.467012,26.3946027 C55.0579181,26.3946027 55.517891,26.6142875 55.8469445,27.0536637 C56.1759981,27.4930398 56.3405224,28.108973 56.3405224,28.9014816 Z M55.3707462,28.9294524 C55.3707462,27.7873075 55.0579183,27.2162437 54.432253,27.2162437 L54.0533799,27.2162437 L54.0533799,30.6741282 L54.3592591,30.6741282 C54.7045336,30.6741282 54.9594305,30.5290314 55.1239572,30.2388334 C55.288484,29.9486353 55.3707462,29.5121794 55.3707462,28.9294524 Z M59.7274398,31.5062582 L57.4368214,31.5062582 L57.4368214,26.3946027 L59.7274398,26.3946027 L59.7274398,27.2162437 L58.3822663,27.2162437 L58.3822663,28.4329715 L59.6301145,28.4329715 L59.6301145,29.2581088 L58.3822663,29.2581088 L58.3822663,30.6741282 L59.7274398,30.6741282 L59.7274398,31.5062582 Z M61.7691837,29.5168382 L61.7691837,31.5062582 L60.8237387,31.5062582 L60.8237387,26.3946027 L62.0611593,26.3946027 C62.5848642,26.3946027 62.9712646,26.5193044 63.2203721,26.7687116 C63.4694795,27.0181187 63.5940314,27.3992165 63.5940314,27.9120162 C63.5940314,28.5576777 63.3773691,29.0087016 62.944038,29.2651015 L63.920766,31.5062582 L62.909279,31.5062582 L62.106346,29.5168382 L61.7691837,29.5168382 Z M61.7691837,28.6986937 L62.0124967,28.6986937 C62.2349554,28.6986937 62.3948452,28.6351774 62.4921709,28.5081429 C62.5894966,28.3811084 62.6381588,28.191725 62.6381588,27.9399869 C62.6381588,27.6789253 62.5866001,27.4930381 62.4834812,27.38232 C62.3803623,27.2716019 62.2210518,27.2162437 62.0055449,27.2162437 L61.7691837,27.2162437 L61.7691837,28.6986937 Z M67.0539427,30.0972314 C67.0539427,30.5750675 66.9340253,30.9410146 66.694187,31.1950835 C66.4543486,31.4491525 66.1085,31.5761851 65.6566307,31.5761851 C65.2140305,31.5761851 64.8374784,31.4887773 64.5269631,31.3139592 L64.5269631,30.3734426 C64.9069967,30.6228498 65.2557419,30.7475515 65.5732091,30.7475515 C65.7539568,30.7475515 65.8900949,30.6974377 65.9816274,30.5972087 C66.0731599,30.4969796 66.1189255,30.3606235 66.1189255,30.1881364 C66.1189255,30.0179801 66.0644702,29.8623943 65.9555581,29.7213744 C65.846646,29.5803545 65.6670596,29.4236033 65.4167936,29.2511161 C65.1989694,29.0996071 65.0338658,28.9545102 64.9214778,28.8158212 C64.8090897,28.6771322 64.7221931,28.5215464 64.6607852,28.3490592 C64.5993773,28.1765721 64.5686739,27.976117 64.5686739,27.747688 C64.5686739,27.3094773 64.6897498,26.9621773 64.9319055,26.7057774 C65.1740611,26.4493775 65.4990545,26.3211795 65.9068955,26.3211795 C66.2961983,26.3211795 66.6704332,26.4307305 67.0296114,26.6498359 L66.7167803,27.412039 C66.605551,27.3467735 66.4891095,27.2885017 66.3674523,27.2372217 C66.2457952,27.1859418 66.1154502,27.1603022 65.9764135,27.1603022 C65.8234731,27.1603022 65.705873,27.2109986 65.6236096,27.3123931 C65.5413463,27.4137876 65.5002152,27.5518919 65.5002152,27.7267099 C65.5002152,27.8991971 65.5494566,28.0495384 65.6479409,28.1777384 C65.7464253,28.3059383 65.9184806,28.4516179 66.1641122,28.6147814 C66.495483,28.8385486 66.7266281,29.0669741 66.8575543,29.3000649 C66.9884805,29.5331557 67.0539427,29.7988752 67.0539427,30.0972314 Z" id="path-22"></path>
        <filter x="-1.0%" y="-9.5%" width="102.0%" height="138.0%" filterUnits="objectBoundingBox" id="filter-23">
            <feOffset dx="0" dy="1" in="SourceAlpha" result="shadowOffsetOuter1"></feOffset>
            <feColorMatrix values="0 0 0 0 1   0 0 0 0 1   0 0 0 0 1  0 0 0 0.5 0" type="matrix" in="shadowOffsetOuter1"></feColorMatrix>
        </filter>
        <path d="M43.5497967,4.04039604 L80.0021596,24.4673622 C81.0029132,25.0281588 81.6226415,26.0858374 81.6226415,27.233008 L81.6226415,67.9248867 C81.6226415,69.0720574 81.0029132,70.1297359 80.0021596,70.6905325 L43.5497967,91.1174987 C42.5870287,91.6570091 41.4129713,91.6570091 40.4502033,91.1174987 L3.99784038,70.6905325 C2.99708679,70.1297359 2.37735849,69.0720574 2.37735849,67.9248867 L2.37735849,27.233008 C2.37735849,26.0858374 2.99708679,25.0281588 3.99784038,24.4673622 L40.4502033,4.04039604 C41.4129713,3.50088559 42.5870287,3.50088559 43.5497967,4.04039604 Z" id="path-24"></path>
        <path d="M77.6603774,36.477193 L77.6603774,28.1591771 C77.6603774,27.5893003 77.3552374,27.0632824 76.8611667,26.7814517 L42.7819658,7.34179058 C42.2971494,7.06523869 41.7028506,7.06523869 41.2180342,7.34179058 L7.13883331,26.7814517 C6.64476262,27.0632824 6.33962264,27.5893003 6.33962264,28.1591771 L6.33962264,36.477193 L77.6603774,36.477193 L77.6603774,36.477193 Z M77.6603774,58.6807018 L77.6603774,66.9987177 C77.6603774,67.5685944 77.3552374,68.0946123 76.8611667,68.3764431 L42.7819658,87.8161042 C42.2971494,88.092656 41.7028506,88.092656 41.2180342,87.8161042 L7.13883331,68.3764431 C6.64476262,68.0946123 6.33962264,67.5685944 6.33962264,66.9987177 L6.33962264,58.6807018 L77.6603774,58.6807018 L77.6603774,58.6807018 Z" id="path-25"></path>
        <filter x="-4.9%" y="-3.1%" width="109.8%" height="108.7%" filterUnits="objectBoundingBox" id="filter-26">
            <feOffset dx="0" dy="1" in="SourceAlpha" result="shadowOffsetOuter1"></feOffset>
            <feGaussianBlur stdDeviation="1" in="shadowOffsetOuter1" result="shadowBlurOuter1"></feGaussianBlur>
            <feComposite in="shadowBlurOuter1" in2="SourceAlpha" operator="out" result="shadowBlurOuter1"></feComposite>
            <feColorMatrix values="0 0 0 0 0.11372549   0 0 0 0 0.121568627   0 0 0 0 0.149019608  0 0 0 0.2 0" type="matrix" in="shadowBlurOuter1"></feColorMatrix>
        </filter>
        <path d="M24.7997892,53.1428673 C26.928216,53.1428673 28.189506,52.4812359 29.3246669,51.268245 L27.7795867,49.6141664 C26.9124499,50.4018229 26.1399098,50.905923 24.8786198,50.905923 C22.9866849,50.905923 21.6780966,49.3306101 21.6780966,47.4402346 C21.6780966,45.5183529 23.0182172,43.9745462 24.8786198,43.9745462 C26.1399098,43.9745462 26.8651515,44.431387 27.7165222,45.2032903 L29.1670057,43.5334586 C28.1422076,42.5252583 26.9755144,41.7376019 24.894386,41.7376019 C21.5046692,41.7376019 19.1397506,44.3053619 19.1397506,47.4402346 C19.1397506,50.6381198 21.5519676,53.1428673 24.7997892,53.1428673 Z M29.7603853,52.9538298 L32.1568362,52.9538298 L32.1568362,41.4540456 L29.7603853,41.4540456 L29.7603853,52.9538298 Z M36.5727843,53.1113611 C37.7867759,53.1113611 38.4962515,52.4654828 39.0480659,51.756592 L39.0480659,52.9538298 L41.4445168,52.9538298 L41.4445168,44.5101526 L39.0480659,44.5101526 L39.0480659,49.2203382 C39.0480659,50.3545635 38.4647193,50.9374293 37.5502841,50.9374293 C36.6358488,50.9374293 36.0998006,50.3545635 36.0998006,49.2203382 L36.0998006,44.5101526 L33.7033497,44.5101526 L33.7033497,49.9764884 C33.7033497,51.9141233 34.75968,53.1113611 36.5727843,53.1113611 Z M43.337885,52.9108667 L43.337885,46.5580594 L42.1328319,46.5580594 L42.1328319,44.5101526 L43.337885,44.5101526 L43.337885,42.3519739 L45.7343359,42.3519739 L45.7343359,44.5101526 L47.0090032,44.5101526 L47.0090032,46.5580594 L45.7343359,46.5580594 L45.7343359,52.9108667 L43.337885,52.9108667 Z M51.8773913,53.1428673 C49.3390453,53.1428673 47.4786426,51.1894793 47.4786426,48.7477443 C47.4786426,46.3375156 49.3232792,44.3526213 51.9089236,44.3526213 C53.5013021,44.3526213 54.4788019,44.9512402 55.2671081,45.8334154 L53.863923,47.2511971 C53.3436409,46.7628501 52.8391249,46.4162812 51.8931575,46.4162812 C50.694932,46.4162812 49.8435613,47.4717409 49.8435613,48.7477443 C49.8435613,50.0395009 50.6791659,51.0792074 51.9877542,51.0792074 C52.7918266,51.0792074 53.3436409,50.7326386 53.9269875,50.1812791 L55.3301726,51.5990607 C54.5103341,52.4969891 53.5643666,53.1428673 51.8773913,53.1428673 Z M56.2460411,52.9538298 L58.642492,52.9538298 L58.642492,48.2436442 C58.642492,47.1094189 59.2258386,46.5265531 60.1402738,46.5265531 C61.054709,46.5265531 61.5907573,47.1094189 61.5907573,48.2436442 L61.5907573,52.9538298 L63.9872082,52.9538298 L63.9872082,47.487494 C63.9872082,45.5498591 62.9308779,44.3526213 61.1177735,44.3526213 C59.903782,44.3526213 59.1943064,44.9984996 58.642492,45.7073904 L58.642492,41.4540456 L56.2460411,41.4540456 L56.2460411,52.9538298 Z" id="path-27"></path>
        <filter x="-1.1%" y="-4.3%" width="102.2%" height="117.1%" filterUnits="objectBoundingBox" id="filter-28">
            <feOffset dx="0" dy="1" in="SourceAlpha" result="shadowOffsetOuter1"></feOffset>
            <feColorMatrix values="0 0 0 0 0   0 0 0 0 0   0 0 0 0 0  0 0 0 0.5 0" type="matrix" in="shadowOffsetOuter1"></feColorMatrix>
        </filter>
        <ellipse id="path-29" cx="52.1705371" cy="48.6145588" rx="1.42372881" ry="1.43210264"></ellipse>
        <filter x="-17.6%" y="-17.5%" width="135.1%" height="169.8%" filterUnits="objectBoundingBox" id="filter-30">
            <feOffset dx="0" dy="1" in="SourceAlpha" result="shadowOffsetOuter1"></feOffset>
            <feColorMatrix values="0 0 0 0 0   0 0 0 0 0   0 0 0 0 0  0 0 0 1 0" type="matrix" in="shadowOffsetOuter1"></feColorMatrix>
        </filter>
    </defs>
    <g id="01-index" stroke="none" stroke-width="1" fill="none" fill-rule="evenodd">
        <g id="Index-Shields" transform="translate(-258.000000, -525.000000)">
            <g id="Group-18" transform="translate(102.000000, 525.000000)">
                <g id="Group-14" transform="translate(156.000000, 0.000000)">
                    <g id="Group" opacity="0.5" transform="translate(36.000000, 10.000000)">
                        <path d="M45.1249278,1.77000921 L80.7843705,21.9680896 C82.7716607,23.0937226 84,25.2011701 84,27.485108 L84,67.6727867 C84,69.9567246 82.7716607,72.0641721 80.7843705,73.1898052 L45.1249278,93.3878855 C43.186332,94.4859372 40.813668,94.4859372 38.8750722,93.3878855 L3.21562951,73.1898052 C1.22833927,72.0641721 1.96309423e-13,69.9567246 1.9095836e-13,67.6727867 L1.70530257e-13,27.485108 C1.69236283e-13,25.2011701 1.22833927,23.0937226 3.21562951,21.9680896 L38.8750722,1.77000921 C40.813668,0.671957497 43.186332,0.671957497 45.1249278,1.77000921 Z" id="Polygon" fill="#F5F5F7"></path>
                        <g id="Polygon">
                            <use fill="#7D97AD" xlink:href="#path-2"></use>
                            <use fill="url(#linearGradient-1)" xlink:href="#path-2"></use>
                        </g>
                        <rect id="Rectangle-6" fill-opacity="0.9" fill="#1D1F26" x="2.37735849" y="33.3052632" width="79.245283" height="28.5473684"></rect>
                        <g id="Combined-Shape">
                            <use fill="black" fill-opacity="1" filter="url(#filter-4)" xlink:href="#path-3"></use>
                            <path stroke="#1D1F26" stroke-width="0.792569659" d="M77.2640925,36.0809082 L77.2640925,28.1591771 C77.2640925,27.731534 77.0351943,27.336946 76.6648146,27.1256718 L42.5856137,7.68601073 C42.222495,7.47887841 41.777505,7.47887841 41.4143863,7.68601073 L7.33518542,27.1256718 C6.96480572,27.336946 6.73590747,27.731534 6.73590747,28.1591771 L6.73590747,36.0809082 L77.2640925,36.0809082 Z M77.2640925,59.0769866 L6.73590747,59.0769866 L6.73590747,66.9987177 C6.73590747,67.4263607 6.96480572,67.8209487 7.33518542,68.0322229 L41.4143863,87.471884 C41.777505,87.6790163 42.222495,87.6790163 42.5856137,87.471884 L76.6648146,68.0322229 C77.0351943,67.8209487 77.2640925,67.4263607 77.2640925,66.9987177 L77.2640925,59.0769866 Z" stroke-linejoin="square" fill="#F5F5F7" fill-rule="evenodd"></path>
                        </g>
                        <g id="Clutch">
                            <use fill="black" fill-opacity="1" filter="url(#filter-6)" xlink:href="#path-5"></use>
                            <use fill="#F5F5F7" fill-rule="evenodd" xlink:href="#path-5"></use>
                        </g>
                        <g id="Oval-8">
                            <use fill="black" fill-opacity="1" filter="url(#filter-8)" xlink:href="#path-7"></use>
                            <use fill="#ED4159" fill-rule="evenodd" xlink:href="#path-7"></use>
                        </g>
                        <g id="2017">
                            <use fill="black" fill-opacity="1" filter="url(#filter-10)" xlink:href="#path-9"></use>
                            <use fill="#1D1F26" fill-rule="evenodd" xlink:href="#path-9"></use>
                        </g>
                        <g id="Global-Leaders">
                            <use fill="black" fill-opacity="1" filter="url(#filter-12)" xlink:href="#path-11"></use>
                            <use fill="#1D1F26" fill-rule="evenodd" xlink:href="#path-11"></use>
                        </g>
                    </g>
                    <g id="Group" opacity="0.699999988" transform="translate(26.000000, 10.000000)">
                        <path d="M45.1249278,1.77000921 L80.7843705,21.9680896 C82.7716607,23.0937226 84,25.2011701 84,27.485108 L84,67.6727867 C84,69.9567246 82.7716607,72.0641721 80.7843705,73.1898052 L45.1249278,93.3878855 C43.186332,94.4859372 40.813668,94.4859372 38.8750722,93.3878855 L3.21562951,73.1898052 C1.22833927,72.0641721 1.96309423e-13,69.9567246 1.9095836e-13,67.6727867 L1.70530257e-13,27.485108 C1.69236283e-13,25.2011701 1.22833927,23.0937226 3.21562951,21.9680896 L38.8750722,1.77000921 C40.813668,0.671957497 43.186332,0.671957497 45.1249278,1.77000921 Z" id="Polygon" fill="#F5F5F7"></path>
                        <g id="Polygon">
                            <use fill="#7D97AD" xlink:href="#path-13"></use>
                            <use fill="url(#linearGradient-1)" xlink:href="#path-13"></use>
                        </g>
                        <rect id="Rectangle-6" fill-opacity="0.9" fill="#1D1F26" x="2.37735849" y="33.3052632" width="79.245283" height="28.5473684"></rect>
                        <g id="Combined-Shape">
                            <use fill="black" fill-opacity="1" filter="url(#filter-15)" xlink:href="#path-14"></use>
                            <path stroke="#1D1F26" stroke-width="0.792569659" d="M77.2640925,36.0809082 L77.2640925,28.1591771 C77.2640925,27.731534 77.0351943,27.336946 76.6648146,27.1256718 L42.5856137,7.68601073 C42.222495,7.47887841 41.777505,7.47887841 41.4143863,7.68601073 L7.33518542,27.1256718 C6.96480572,27.336946 6.73590747,27.731534 6.73590747,28.1591771 L6.73590747,36.0809082 L77.2640925,36.0809082 Z M77.2640925,59.0769866 L6.73590747,59.0769866 L6.73590747,66.9987177 C6.73590747,67.4263607 6.96480572,67.8209487 7.33518542,68.0322229 L41.4143863,87.471884 C41.777505,87.6790163 42.222495,87.6790163 42.5856137,87.471884 L76.6648146,68.0322229 C77.0351943,67.8209487 77.2640925,67.4263607 77.2640925,66.9987177 L77.2640925,59.0769866 Z" stroke-linejoin="square" fill="#F5F5F7" fill-rule="evenodd"></path>
                        </g>
                        <g id="Clutch">
                            <use fill="black" fill-opacity="1" filter="url(#filter-17)" xlink:href="#path-16"></use>
                            <use fill="#F5F5F7" fill-rule="evenodd" xlink:href="#path-16"></use>
                        </g>
                        <g id="Oval-8">
                            <use fill="black" fill-opacity="1" filter="url(#filter-19)" xlink:href="#path-18"></use>
                            <use fill="#ED4159" fill-rule="evenodd" xlink:href="#path-18"></use>
                        </g>
                        <g id="2017">
                            <use fill="black" fill-opacity="1" filter="url(#filter-21)" xlink:href="#path-20"></use>
                            <use fill="#1D1F26" fill-rule="evenodd" xlink:href="#path-20"></use>
                        </g>
                        <g id="Global-Leaders">
                            <use fill="black" fill-opacity="1" filter="url(#filter-23)" xlink:href="#path-22"></use>
                            <use fill="#1D1F26" fill-rule="evenodd" xlink:href="#path-22"></use>
                        </g>
                    </g>
                    <g transform="translate(16.000000, 10.000000)">
                        <path d="M45.1249278,1.77000921 L80.7843705,21.9680896 C82.7716607,23.0937226 84,25.2011701 84,27.485108 L84,67.6727867 C84,69.9567246 82.7716607,72.0641721 80.7843705,73.1898052 L45.1249278,93.3878855 C43.186332,94.4859372 40.813668,94.4859372 38.8750722,93.3878855 L3.21562951,73.1898052 C1.22833927,72.0641721 1.96309423e-13,69.9567246 1.9095836e-13,67.6727867 L1.70530257e-13,27.485108 C1.69236283e-13,25.2011701 1.22833927,23.0937226 3.21562951,21.9680896 L38.8750722,1.77000921 C40.813668,0.671957497 43.186332,0.671957497 45.1249278,1.77000921 Z" id="Polygon" fill="#F5F5F7"></path>
                        <g id="Polygon">
                            <use fill="#7D97AD" xlink:href="#path-24"></use>
                            <use fill="url(#linearGradient-1)" xlink:href="#path-24"></use>
                        </g>
                        <rect id="Rectangle-6" fill-opacity="0.9" fill="#1D1F26" x="2.37735849" y="33.3052632" width="79.245283" height="28.5473684"></rect>
                        <g id="Combined-Shape">
                            <use fill="black" fill-opacity="1" filter="url(#filter-26)" xlink:href="#path-25"></use>
                            <path stroke="#1D1F26" stroke-width="0.792569659" d="M77.2640925,36.0809082 L77.2640925,28.1591771 C77.2640925,27.731534 77.0351943,27.336946 76.6648146,27.1256718 L42.5856137,7.68601073 C42.222495,7.47887841 41.777505,7.47887841 41.4143863,7.68601073 L7.33518542,27.1256718 C6.96480572,27.336946 6.73590747,27.731534 6.73590747,28.1591771 L6.73590747,36.0809082 L77.2640925,36.0809082 Z M77.2640925,59.0769866 L6.73590747,59.0769866 L6.73590747,66.9987177 C6.73590747,67.4263607 6.96480572,67.8209487 7.33518542,68.0322229 L41.4143863,87.471884 C41.777505,87.6790163 42.222495,87.6790163 42.5856137,87.471884 L76.6648146,68.0322229 C77.0351943,67.8209487 77.2640925,67.4263607 77.2640925,66.9987177 L77.2640925,59.0769866 Z" stroke-linejoin="square" fill="#F5F5F7" fill-rule="evenodd"></path>
                        </g>
                        <path d="M29.4546667,19.424 L29.4546667,24 L28.1986667,24 L28.1986667,19.424 L27.1586667,19.424 L27.1586667,18.336 L30.4946667,18.336 L30.4946667,19.424 L29.4546667,19.424 Z M35.6813335,21.152 C35.6813335,21.6000022 35.6306673,22.0093315 35.5293335,22.38 C35.4279997,22.7506685 35.2840011,23.0666654 35.0973335,23.328 C34.9106659,23.5893346 34.6826682,23.7919993 34.4133335,23.936 C34.1439988,24.0800007 33.8413352,24.152 33.5053335,24.152 C33.1693318,24.152 32.8666682,24.0800007 32.5973335,23.936 C32.3279988,23.7919993 32.1000011,23.5893346 31.9133335,23.328 C31.7266659,23.0666654 31.5826673,22.7506685 31.4813335,22.38 C31.3799997,22.0093315 31.3293335,21.6000022 31.3293335,21.152 C31.3293335,20.7039978 31.3786663,20.2973352 31.4773335,19.932 C31.5760007,19.5666648 31.7186659,19.254668 31.9053335,18.996 C32.0920011,18.737332 32.3199988,18.537334 32.5893335,18.396 C32.8586682,18.254666 33.1639985,18.184 33.5053335,18.184 C33.8413352,18.184 34.1439988,18.254666 34.4133335,18.396 C34.6826682,18.537334 34.9106659,18.737332 35.0973335,18.996 C35.2840011,19.254668 35.4279997,19.5666648 35.5293335,19.932 C35.6306673,20.2973352 35.6813335,20.7039978 35.6813335,21.152 Z M34.3693335,21.152 C34.3693335,20.9066654 34.350667,20.6786677 34.3133335,20.468 C34.276,20.2573323 34.2213339,20.0746674 34.1493335,19.92 C34.0773331,19.7653326 33.9880007,19.6440004 33.8813335,19.556 C33.7746663,19.4679996 33.6493342,19.424 33.5053335,19.424 C33.3613328,19.424 33.2346674,19.4679996 33.1253335,19.556 C33.0159996,19.6440004 32.9253339,19.7653326 32.8533335,19.92 C32.7813331,20.0746674 32.7280003,20.2573323 32.6933335,20.468 C32.6586667,20.6786677 32.6413335,20.9066654 32.6413335,21.152 C32.6413335,21.3973346 32.6586667,21.6266656 32.6933335,21.84 C32.7280003,22.0533344 32.7813331,22.2373326 32.8533335,22.392 C32.9253339,22.5466674 33.0159996,22.6693329 33.1253335,22.76 C33.2346674,22.8506671 33.3613328,22.896 33.5053335,22.896 C33.6493342,22.896 33.7746663,22.8506671 33.8813335,22.76 C33.9880007,22.6693329 34.0773331,22.5466674 34.1493335,22.392 C34.2213339,22.2373326 34.276,22.0533344 34.3133335,21.84 C34.350667,21.6266656 34.3693335,21.3973346 34.3693335,21.152 Z M40.6200002,20.112 C40.6200002,20.4266682 40.5720007,20.6986655 40.4760002,20.928 C40.3799998,21.1573345 40.252001,21.3466659 40.0920002,21.496 C39.9319994,21.6453341 39.7506679,21.7559996 39.5480002,21.828 C39.3453326,21.9000004 39.1400013,21.936 38.9320002,21.936 L38.3800002,21.936 L38.3800002,24 L37.1240002,24 L37.1240002,18.336 L38.8840002,18.336 C39.0866679,18.336 39.2906659,18.365333 39.4960002,18.424 C39.7013346,18.482667 39.8879994,18.5799993 40.0560002,18.716 C40.2240011,18.8520007 40.3599997,19.0346655 40.4640002,19.264 C40.5680008,19.4933345 40.6200002,19.7759983 40.6200002,20.112 Z M39.4200002,20.136 C39.4200002,19.8799987 39.3586675,19.6960006 39.2360002,19.584 C39.113333,19.4719994 38.9640011,19.416 38.7880002,19.416 L38.3800002,19.416 L38.3800002,20.896 L38.7880002,20.896 C38.9640011,20.896 39.113333,20.8306673 39.2360002,20.7 C39.3586675,20.5693327 39.4200002,20.3813346 39.4200002,20.136 Z M47.7933337,22.384 C47.7933337,22.6880015 47.7440009,22.9426656 47.6453337,23.148 C47.5466666,23.3533344 47.4173345,23.518666 47.2573337,23.644 C47.0973329,23.769334 46.9173347,23.8599997 46.7173337,23.916 C46.5173327,23.9720003 46.3160014,24 46.1133337,24 L44.2333337,24 L44.2333337,18.336 L45.9293337,18.336 C46.1053346,18.336 46.2919994,18.3546665 46.4893337,18.392 C46.6866681,18.4293335 46.8666663,18.4999995 47.0293337,18.604 C47.1920012,18.7080005 47.3279999,18.855999 47.4373337,19.048 C47.5466676,19.240001 47.6013337,19.4879985 47.6013337,19.792 C47.6013337,20.1280017 47.5333344,20.395999 47.3973337,20.596 C47.2613331,20.796001 47.0946681,20.9413329 46.8973337,21.032 L46.8973337,21.048 C47.0040009,21.0746668 47.1106665,21.1226663 47.2173337,21.192 C47.3240009,21.2613337 47.42,21.3506661 47.5053337,21.46 C47.5906675,21.5693339 47.6600001,21.7013326 47.7133337,21.856 C47.7666673,22.0106674 47.7933337,22.1866657 47.7933337,22.384 Z M46.4733337,20 C46.4733337,19.7813322 46.412001,19.6266671 46.2893337,19.536 C46.1666665,19.4453329 46.0226679,19.4 45.8573337,19.4 L45.4253337,19.4 L45.4253337,20.624 L45.8653337,20.624 C46.0200012,20.624 46.1599998,20.5760005 46.2853337,20.48 C46.4106677,20.3839995 46.4733337,20.2240011 46.4733337,20 Z M46.5773337,22.264 C46.5773337,22.1359994 46.5573339,22.0280004 46.5173337,21.94 C46.4773335,21.8519996 46.4240007,21.7800003 46.3573337,21.724 C46.2906667,21.6679997 46.2160008,21.6266668 46.1333337,21.6 C46.0506667,21.5733332 45.9693341,21.56 45.8893337,21.56 L45.4253337,21.56 L45.4253337,22.936 L45.9053337,22.936 C46.0920013,22.936 46.2506664,22.8800006 46.3813337,22.768 C46.5120011,22.6559994 46.5773337,22.4880011 46.5773337,22.264 Z M52.5480005,19.896 C52.5480005,20.0826676 52.5240007,20.2559992 52.4760005,20.416 C52.4280002,20.5760008 52.3640009,20.7279993 52.2840005,20.872 C52.2040001,21.0160007 52.1133343,21.154666 52.0120005,21.288 C51.9106666,21.421334 51.8066677,21.5493327 51.7000005,21.672 L50.6440005,22.896 L52.4760005,22.896 L52.4760005,24 L49.1240005,24 L49.1240005,22.864 L50.8440005,20.888 C50.9826678,20.7279992 51.0920001,20.5640008 51.1720005,20.396 C51.2520009,20.2279992 51.2920005,20.0666674 51.2920005,19.912 C51.2920005,19.7466658 51.2533342,19.6053339 51.1760005,19.488 C51.0986668,19.3706661 50.9773346,19.312 50.8120005,19.312 C50.657333,19.312 50.5293343,19.374666 50.4280005,19.5 C50.3266666,19.625334 50.2653339,19.8079988 50.2440005,20.048 L49.0440005,19.936 C49.1080008,19.3599971 49.3039988,18.9293348 49.6320005,18.644 C49.9600021,18.3586652 50.3666647,18.216 50.8520005,18.216 C51.1133351,18.216 51.3479994,18.2559996 51.5560005,18.336 C51.7640015,18.4160004 51.9413331,18.5279993 52.0880005,18.672 C52.2346679,18.8160007 52.3480001,18.991999 52.4280005,19.2 C52.5080009,19.408001 52.5480005,19.6399987 52.5480005,19.896 Z M57.6786672,22.384 C57.6786672,22.6880015 57.6293344,22.9426656 57.5306672,23.148 C57.4320001,23.3533344 57.302668,23.518666 57.1426672,23.644 C56.9826664,23.769334 56.8026682,23.8599997 56.6026672,23.916 C56.4026662,23.9720003 56.2013349,24 55.9986672,24 L54.1186672,24 L54.1186672,18.336 L55.8146672,18.336 C55.9906681,18.336 56.1773329,18.3546665 56.3746672,18.392 C56.5720015,18.4293335 56.7519997,18.4999995 56.9146672,18.604 C57.0773347,18.7080005 57.2133333,18.855999 57.3226672,19.048 C57.4320011,19.240001 57.4866672,19.4879985 57.4866672,19.792 C57.4866672,20.1280017 57.4186679,20.395999 57.2826672,20.596 C57.1466665,20.796001 56.9800015,20.9413329 56.7826672,21.032 L56.7826672,21.048 C56.8893344,21.0746668 56.996,21.1226663 57.1026672,21.192 C57.2093344,21.2613337 57.3053335,21.3506661 57.3906672,21.46 C57.476001,21.5693339 57.5453336,21.7013326 57.5986672,21.856 C57.6520008,22.0106674 57.6786672,22.1866657 57.6786672,22.384 Z M56.3586672,20 C56.3586672,19.7813322 56.2973345,19.6266671 56.1746672,19.536 C56.0519999,19.4453329 55.9080014,19.4 55.7426672,19.4 L55.3106672,19.4 L55.3106672,20.624 L55.7506672,20.624 C55.9053347,20.624 56.0453333,20.5760005 56.1706672,20.48 C56.2960012,20.3839995 56.3586672,20.2240011 56.3586672,20 Z M56.4626672,22.264 C56.4626672,22.1359994 56.4426674,22.0280004 56.4026672,21.94 C56.362667,21.8519996 56.3093342,21.7800003 56.2426672,21.724 C56.1760002,21.6679997 56.1013343,21.6266668 56.0186672,21.6 C55.9360001,21.5733332 55.8546676,21.56 55.7746672,21.56 L55.3106672,21.56 L55.3106672,22.936 L55.7906672,22.936 C55.9773348,22.936 56.1359999,22.8800006 56.2666672,22.768 C56.3973345,22.6559994 56.4626672,22.4880011 56.4626672,22.264 Z M25.12,31.384 C24.9653326,31.6026678 24.7626679,31.7853326 24.512,31.932 C24.2613321,32.0786674 23.9413353,32.152 23.552,32.152 C23.2213317,32.152 22.9213347,32.0786674 22.652,31.932 C22.3826653,31.7853326 22.152001,31.5800013 21.96,31.316 C21.767999,31.0519987 21.6186672,30.7373352 21.512,30.372 C21.4053328,30.0066648 21.352,29.6053355 21.352,29.168 C21.352,28.7253311 21.4053328,28.3200018 21.512,27.952 C21.6186672,27.5839982 21.767999,27.2693346 21.96,27.008 C22.152001,26.7466654 22.3826653,26.5440007 22.652,26.4 C22.9213347,26.2559993 23.2213317,26.184 23.552,26.184 C23.9306686,26.184 24.2466654,26.2519993 24.5,26.388 C24.7533346,26.5240007 24.9573326,26.6933323 25.112,26.896 L24.424,27.824 C24.3279995,27.6959994 24.2200006,27.594667 24.1,27.52 C23.9799994,27.445333 23.8293342,27.408 23.648,27.408 C23.4773325,27.408 23.329334,27.4533329 23.204,27.544 C23.078666,27.6346671 22.9720004,27.7586659 22.884,27.916 C22.7959996,28.0733341 22.7306669,28.2599989 22.688,28.476 C22.6453331,28.6920011 22.624,28.9226654 22.624,29.168 C22.624,29.4133346 22.6453331,29.6426656 22.688,29.856 C22.7306669,30.0693344 22.7959996,30.2559992 22.884,30.416 C22.9720004,30.5760008 23.0799994,30.7013329 23.208,30.792 C23.3360006,30.8826671 23.4853325,30.928 23.656,30.928 C23.8266675,30.928 23.9759994,30.8853338 24.104,30.8 C24.2320006,30.7146662 24.333333,30.6133339 24.408,30.496 L25.12,31.384 Z M30.3706667,29.152 C30.3706667,29.6000022 30.3200006,30.0093315 30.2186667,30.38 C30.1173329,30.7506685 29.9733343,31.0666654 29.7866667,31.328 C29.5999991,31.5893346 29.3720014,31.7919993 29.1026667,31.936 C28.8333321,32.0800007 28.5306684,32.152 28.1946667,32.152 C27.8586651,32.152 27.5560014,32.0800007 27.2866667,31.936 C27.0173321,31.7919993 26.7893343,31.5893346 26.6026667,31.328 C26.4159991,31.0666654 26.2720006,30.7506685 26.1706667,30.38 C26.0693329,30.0093315 26.0186667,29.6000022 26.0186667,29.152 C26.0186667,28.7039978 26.0679996,28.2973352 26.1666667,27.932 C26.2653339,27.5666648 26.4079991,27.254668 26.5946667,26.996 C26.7813343,26.737332 27.0093321,26.537334 27.2786667,26.396 C27.5480014,26.254666 27.8533317,26.184 28.1946667,26.184 C28.5306684,26.184 28.8333321,26.254666 29.1026667,26.396 C29.3720014,26.537334 29.5999991,26.737332 29.7866667,26.996 C29.9733343,27.254668 30.1173329,27.5666648 30.2186667,27.932 C30.3200006,28.2973352 30.3706667,28.7039978 30.3706667,29.152 Z M29.0586667,29.152 C29.0586667,28.9066654 29.0400003,28.6786677 29.0026667,28.468 C28.9653332,28.2573323 28.9106671,28.0746674 28.8386667,27.92 C28.7666664,27.7653326 28.6773339,27.6440004 28.5706667,27.556 C28.4639995,27.4679996 28.3386675,27.424 28.1946667,27.424 C28.050666,27.424 27.9240006,27.4679996 27.8146667,27.556 C27.7053329,27.6440004 27.6146671,27.7653326 27.5426667,27.92 C27.4706664,28.0746674 27.4173336,28.2573323 27.3826667,28.468 C27.3479999,28.6786677 27.3306667,28.9066654 27.3306667,29.152 C27.3306667,29.3973346 27.3479999,29.6266656 27.3826667,29.84 C27.4173336,30.0533344 27.4706664,30.2373326 27.5426667,30.392 C27.6146671,30.5466674 27.7053329,30.6693329 27.8146667,30.76 C27.9240006,30.8506671 28.050666,30.896 28.1946667,30.896 C28.3386675,30.896 28.4639995,30.8506671 28.5706667,30.76 C28.6773339,30.6693329 28.7666664,30.5466674 28.8386667,30.392 C28.9106671,30.2373326 28.9653332,30.0533344 29.0026667,29.84 C29.0400003,29.6266656 29.0586667,29.3973346 29.0586667,29.152 Z M35.7173335,32 L35.7653335,28.112 L35.7333335,28.112 L34.7813335,32 L33.8773335,32 L32.9573335,28.112 L32.9333335,28.112 L32.9733335,32 L31.8133335,32 L31.8133335,26.336 L33.4293335,26.336 L34.3413335,29.984 L34.3733335,29.984 L35.2613335,26.336 L36.9733335,26.336 L36.9733335,32 L35.7173335,32 Z M42.1440002,28.112 C42.1440002,28.4266682 42.0960007,28.6986655 42.0000002,28.928 C41.9039998,29.1573345 41.776001,29.3466659 41.6160002,29.496 C41.4559994,29.6453341 41.2746679,29.7559996 41.0720002,29.828 C40.8693326,29.9000004 40.6640013,29.936 40.4560002,29.936 L39.9040002,29.936 L39.9040002,32 L38.6480002,32 L38.6480002,26.336 L40.4080002,26.336 C40.6106679,26.336 40.8146659,26.365333 41.0200002,26.424 C41.2253346,26.482667 41.4119994,26.5799993 41.5800002,26.716 C41.7480011,26.8520007 41.8839997,27.0346655 41.9880002,27.264 C42.0920008,27.4933345 42.1440002,27.7759983 42.1440002,28.112 Z M40.9440002,28.136 C40.9440002,27.8799987 40.8826675,27.6960006 40.7600002,27.584 C40.637333,27.4719994 40.4880011,27.416 40.3120002,27.416 L39.9040002,27.416 L39.9040002,28.896 L40.3120002,28.896 C40.4880011,28.896 40.637333,28.8306673 40.7600002,28.7 C40.8826675,28.5693327 40.9440002,28.3813346 40.9440002,28.136 Z M45.666667,32 L45.434667,30.968 L44.162667,30.968 L43.930667,32 L42.650667,32 L44.026667,26.336 L45.634667,26.336 L47.002667,32 L45.666667,32 Z M44.818667,27.568 L44.786667,27.568 L44.306667,29.976 L45.274667,29.976 L44.818667,27.568 Z M50.6133337,32 L49.3013337,28.552 L49.2773337,28.552 L49.3093337,32 L48.1653337,32 L48.1653337,26.336 L49.5733337,26.336 L50.8773337,29.832 L50.9013337,29.832 L50.8773337,26.336 L51.9813337,26.336 L51.9813337,32 L50.6133337,32 Z M53.6560005,32 L53.6560005,26.336 L54.9440005,26.336 L54.9440005,32 L53.6560005,32 Z M56.6186672,32 L56.6186672,26.336 L59.3546672,26.336 L59.3546672,27.464 L57.8426672,27.464 L57.8426672,28.576 L59.2346672,28.576 L59.2346672,29.632 L57.8426672,29.632 L57.8426672,30.856 L59.4506672,30.856 L59.4506672,32 L56.6186672,32 Z M63.213334,27.696 C63.1173335,27.5839994 63.0053346,27.4973336 62.877334,27.436 C62.7493333,27.3746664 62.6160013,27.344 62.477334,27.344 C62.3333332,27.344 62.2040012,27.3893329 62.089334,27.48 C61.9746667,27.5706671 61.917334,27.719999 61.917334,27.928 C61.917334,28.1040009 61.976,28.2413328 62.093334,28.34 C62.2106679,28.4386672 62.3839995,28.5466661 62.613334,28.664 C62.7413346,28.7280003 62.8759999,28.8039996 63.017334,28.892 C63.158668,28.9800004 63.288,29.0879994 63.405334,29.216 C63.5226679,29.3440006 63.6200002,29.4973324 63.697334,29.676 C63.7746677,29.8546676 63.813334,30.0666654 63.813334,30.312 C63.813334,30.6160015 63.7653344,30.8839988 63.669334,31.116 C63.5733335,31.3480012 63.4440014,31.5399992 63.281334,31.692 C63.1186665,31.8440008 62.9306684,31.9586663 62.717334,32.036 C62.5039996,32.1133337 62.2826684,32.152 62.053334,32.152 C61.7119989,32.152 61.4013354,32.0880006 61.121334,31.96 C60.8413326,31.8319994 60.6160015,31.6826675 60.445334,31.512 L61.101334,30.552 C61.2240012,30.6800006 61.3653332,30.7826663 61.525334,30.86 C61.6853348,30.9373337 61.8479998,30.976 62.013334,30.976 C62.1680014,30.976 62.2986668,30.9253338 62.405334,30.824 C62.5120012,30.7226662 62.565334,30.5813342 62.565334,30.4 C62.565334,30.2133324 62.5013346,30.0653339 62.373334,29.956 C62.2453333,29.8466661 62.0586685,29.7306673 61.813334,29.608 C61.6586665,29.533333 61.5133346,29.4506671 61.377334,29.36 C61.2413333,29.2693329 61.1213345,29.1600006 61.017334,29.032 C60.9133334,28.9039994 60.8320009,28.7546675 60.773334,28.584 C60.714667,28.4133325 60.685334,28.2106678 60.685334,27.976 C60.685334,27.6613318 60.7373334,27.3906678 60.841334,27.164 C60.9453345,26.9373322 61.0813331,26.7520007 61.249334,26.608 C61.4173348,26.4639993 61.6039996,26.3573337 61.809334,26.288 C62.0146683,26.2186663 62.2213329,26.184 62.429334,26.184 C62.7386688,26.184 63.0159994,26.2346662 63.261334,26.336 C63.5066685,26.4373338 63.7119998,26.5759991 63.877334,26.752 L63.213334,27.696 Z" id="TOPB2BCOMPANIES" fill="#292C34" fill-rule="nonzero"></path>
                        <path d="M32.48,74 L32.48,72.848 L34.688,68.684 C34.8000006,68.475999 34.8639999,68.2940008 34.88,68.138 C34.8960001,67.9819992 34.904,67.7880012 34.904,67.556 C34.904,67.4519995 34.902,67.3420006 34.898,67.226 C34.894,67.1099994 34.8720002,67.0080004 34.832,66.92 C34.7919998,66.8319996 34.7320004,66.7580003 34.652,66.698 C34.5719996,66.6379997 34.4560008,66.608 34.304,66.608 C34.1199991,66.608 33.9740005,66.6599995 33.866,66.764 C33.7579995,66.8680005 33.704,67.019999 33.704,67.22 L33.704,67.916 L32.48,67.916 L32.48,67.244 C32.48,66.9879987 32.5279995,66.7480011 32.624,66.524 C32.7200005,66.2999989 32.8519992,66.1040008 33.02,65.936 C33.1800008,65.7679992 33.3719989,65.6340005 33.596,65.534 C33.8200011,65.4339995 34.0599987,65.384 34.316,65.384 C34.6360016,65.384 34.9099989,65.4419994 35.138,65.558 C35.3660011,65.6740006 35.5559992,65.831999 35.708,66.032 C35.8520007,66.232001 35.9579997,66.4599987 36.026,66.716 C36.0940003,66.9720013 36.128,67.2439986 36.128,67.532 C36.128,67.740001 36.124,67.9139993 36.116,68.054 C36.108,68.1940007 36.0920001,68.3279994 36.068,68.456 C36.0439999,68.5840006 36.0040003,68.7119994 35.948,68.84 C35.8919997,68.9680006 35.8160005,69.1239991 35.72,69.308 L33.92,72.776 L36.128,72.776 L36.128,74 L32.48,74 Z M37.944,67.22 C37.944,66.9319986 37.9939995,66.6760011 38.094,66.452 C38.1940005,66.2279989 38.3279992,66.0360008 38.496,65.876 C38.6640008,65.7159992 38.8579989,65.5940004 39.078,65.51 C39.2980011,65.4259996 39.5279988,65.384 39.768,65.384 C40.0080012,65.384 40.2379989,65.4259996 40.458,65.51 C40.6780011,65.5940004 40.8719992,65.7159992 41.04,65.876 C41.2080008,66.0360008 41.3419995,66.2279989 41.442,66.452 C41.5420005,66.6760011 41.592,66.9319986 41.592,67.22 L41.592,72.236 C41.592,72.5240014 41.5420005,72.7799989 41.442,73.004 C41.3419995,73.2280011 41.2080008,73.4199992 41.04,73.58 C40.8719992,73.7400008 40.6780011,73.8619996 40.458,73.946 C40.2379989,74.0300004 40.0080012,74.072 39.768,74.072 C39.5279988,74.072 39.2980011,74.0300004 39.078,73.946 C38.8579989,73.8619996 38.6640008,73.7400008 38.496,73.58 C38.3279992,73.4199992 38.1940005,73.2280011 38.094,73.004 C37.9939995,72.7799989 37.944,72.5240014 37.944,72.236 L37.944,67.22 Z M39.168,72.236 C39.168,72.4120009 39.2239994,72.5579994 39.336,72.674 C39.4480006,72.7900006 39.5919991,72.848 39.768,72.848 C39.9440009,72.848 40.0879994,72.7900006 40.2,72.674 C40.3120006,72.5579994 40.368,72.4120009 40.368,72.236 L40.368,67.22 C40.368,67.0439991 40.3120006,66.8980006 40.2,66.782 C40.0879994,66.6659994 39.9440009,66.608 39.768,66.608 C39.5919991,66.608 39.4480006,66.6659994 39.336,66.782 C39.2239994,66.8980006 39.168,67.0439991 39.168,67.22 L39.168,72.236 Z M44.86,74 L44.86,66.752 L43.636,67.652 L43.636,66.356 L44.86,65.456 L46.084,65.456 L46.084,74 L44.86,74 Z M49.316,74 L50.708,70.412 L50.684,70.388 C50.6439998,70.4200002 50.5820004,70.4459999 50.498,70.466 C50.4139996,70.4860001 50.3040007,70.496 50.168,70.496 C49.9519989,70.496 49.7520009,70.4440005 49.568,70.34 C49.3839991,70.2359995 49.2400005,70.1040008 49.136,69.944 C49.0799997,69.8639996 49.0360002,69.7780005 49.004,69.686 C48.9719998,69.5939995 48.9480001,69.4760007 48.932,69.332 C48.9079999,69.1879993 48.892,69.0060011 48.884,68.786 C48.876,68.5659989 48.872,68.2880017 48.872,67.952 C48.872,67.6719986 48.876,67.4420009 48.884,67.262 C48.892,67.0819991 48.9079999,66.9280006 48.932,66.8 C48.9480001,66.6799994 48.9739998,66.5760004 49.01,66.488 C49.0460002,66.3999996 49.0919997,66.3080005 49.148,66.212 C49.3080008,65.9479987 49.5219987,65.7440007 49.79,65.6 C50.0580013,65.4559993 50.3599983,65.384 50.696,65.384 C51.0320017,65.384 51.3319987,65.4579993 51.596,65.606 C51.8600013,65.7540007 52.0719992,65.9559987 52.232,66.212 C52.2880003,66.3080005 52.3359998,66.3999996 52.376,66.488 C52.4160002,66.5760004 52.4479999,66.6799994 52.472,66.8 C52.4880001,66.9280006 52.5,67.0819991 52.508,67.262 C52.516,67.4420009 52.52,67.6719986 52.52,67.952 C52.52,68.2160013 52.516,68.4339991 52.508,68.606 C52.5,68.7780009 52.4880001,68.9239994 52.472,69.044 C52.4479999,69.1720006 52.4220001,69.2859995 52.394,69.386 C52.3659999,69.4860005 52.3320002,69.5919994 52.292,69.704 L50.684,74 L49.316,74 Z M50.096,68.804 C50.096,68.9880009 50.1559994,69.1359994 50.276,69.248 C50.3960006,69.3600006 50.5359992,69.416 50.696,69.416 C50.8560008,69.416 50.9959994,69.3600006 51.116,69.248 C51.2360006,69.1359994 51.296,68.9880009 51.296,68.804 L51.296,67.22 C51.296,67.0359991 51.2360006,66.8880006 51.116,66.776 C50.9959994,66.6639994 50.8560008,66.608 50.696,66.608 C50.5359992,66.608 50.3960006,66.6639994 50.276,66.776 C50.1559994,66.8880006 50.096,67.0359991 50.096,67.22 L50.096,68.804 Z" id="2019" fill="#292C34" fill-rule="nonzero"></path>
                        <g id="Clutch">
                            <use fill="black" fill-opacity="1" filter="url(#filter-28)" xlink:href="#path-27"></use>
                            <use fill="#F5F5F7" fill-rule="evenodd" xlink:href="#path-27"></use>
                        </g>
                        <g id="Oval-8">
                            <use fill="black" fill-opacity="1" filter="url(#filter-30)" xlink:href="#path-29"></use>
                            <use fill="#ED4159" fill-rule="evenodd" xlink:href="#path-29"></use>
                        </g>
                    </g>
                </g>
            </g>
        </g>
    </g>
</svg>