<?xml version="1.0" encoding="UTF-8"?>
<svg width="116px" height="116px" viewBox="0 0 116 116" version="1.1" xmlns="http://www.w3.org/2000/svg" xmlns:xlink="http://www.w3.org/1999/xlink">
    <!-- Generator: Sketch 48.1 (47250) - http://www.bohemiancoding.com/sketch -->
    <defs></defs>
    <g id="Index-Shields" stroke="none" stroke-width="1" fill="none" fill-rule="evenodd" transform="translate(-102.000000, -525.000000)">
        <g id="slide">
            <g id="Group" transform="translate(100.000000, 199.000000)">
                <g id="Group-18" transform="translate(2.000000, 326.000000)">
                    <g id="Group-14">
                        <path d="M61.444542,12.7318559 L96.592615,32.5905171 C98.5489089,33.6958232 99.7586207,35.7687553 99.7586207,38.0157059 L99.7586207,77.5015354 C99.7586207,79.7484861 98.5489089,81.8214182 96.592615,82.9267242 L61.444542,102.785385 C59.5423626,103.860117 57.2162581,103.860117 55.3140787,102.785385 L20.1660057,82.9267242 C18.2097118,81.8214182 17,79.7484861 17,77.5015354 L17,38.0157059 C17,35.7687553 18.2097118,33.6958232 20.1660057,32.5905171 L55.3140787,12.7318559 C57.2162581,11.6571245 59.5423626,11.6571245 61.444542,12.7318559 Z" id="Polygon" fill="#FFFFFF"></path>
                        <path d="M22.5585045,69.1148321 C22.5428833,68.9038966 22.554281,68.6918295 22.5924205,68.4837834 C22.8396705,67.1350697 24.1334547,66.2421569 25.4821684,66.4894069 L31.0046896,67.5018109 C32.2471799,67.7295877 33.120573,68.8539794 33.0339132,70.1141994 L32.5915876,76.5465612 C32.5814963,76.6933105 32.5518879,76.8380598 32.5035447,76.9769846 C32.203116,77.8403326 31.2596886,78.296669 30.3963405,77.9962403 L24.5659257,75.967367 C23.6312479,75.6421169 22.9789991,74.7928341 22.9059088,73.8058852 L22.5585045,69.1148321 Z" id="Path-5" fill="#71D8F9"></path>
                        <path d="M9.95792151,59.2760378 L18.6470343,55.1601093 C19.8220248,54.6035304 21.2195989,54.8405732 22.1453532,55.7534597 L28.8379082,62.3529901 C29.8522342,63.3532172 29.8636636,64.9863351 28.8634365,66.000661 C28.7840755,66.0811407 28.6995104,66.1563169 28.610288,66.2257036 L21.5514785,71.7152195 C20.3304478,72.6647943 18.5958587,72.5671832 17.4890709,71.4866144 L9.26022722,63.4527057 C8.24092515,62.4575501 8.22135056,60.8245095 9.21650615,59.8052074 C9.43029538,59.5862308 9.68134773,59.4070475 9.95792151,59.2760378 Z" id="Path-4" fill="#2895F3"></path>
                        <path d="M80.1651963,28.2529765 L84.2175919,22.2487242 C85.2560962,20.710019 87.340897,20.2962517 88.8883117,21.3217335 L96.75989,26.5382793 C98.2717909,27.5402259 98.7239042,29.556576 97.7845626,31.108149 L94.0148544,37.3348262 C93.0476814,38.9323699 90.9685677,39.4433864 89.3710239,38.4762135 C89.328742,38.4506154 89.2870263,38.4240934 89.2459071,38.3966665 L81.0916415,32.9576957 C79.5380303,31.9214226 79.1186449,29.8219066 80.154918,28.2682954 C80.1583301,28.2631798 80.1617563,28.2580734 80.1651963,28.2529765 Z" id="Path-6" fill="#2895F3"></path>
                        <path d="M70.4459656,92.7845579 L74.7380754,89.3397022 C75.8074361,88.4814313 77.3700903,88.6525533 78.2283612,89.721914 C78.2310518,89.7252663 78.2337337,89.7286256 78.2364068,89.7319919 L81.8866307,94.3286873 C82.7393358,95.4024915 82.5600996,96.9642358 81.4862954,97.8169408 C81.4202233,97.8694086 81.3515196,97.9184742 81.2804518,97.9639468 L77.0558389,100.667059 C76.0594879,101.304573 74.7517377,101.150657 73.930627,100.299237 L70.2129061,96.4442848 C69.2610555,95.4572987 69.2895384,93.8855609 70.2765245,92.9337102 C70.3307143,92.8814495 70.387253,92.8316807 70.4459656,92.7845579 Z" id="Path-7" fill="#2895F3"></path>
                        <path d="M89.4631807,95.4262846 L90.4505037,92.8873098 C90.6964909,92.2547352 91.408706,91.9413442 92.0412807,92.1873314 L92.0472238,92.1896603 L94.7496167,93.2567229 C95.3809051,93.5059924 95.6905926,94.2198257 95.441323,94.8511141 C95.4259852,94.8899579 95.4086774,94.9279946 95.3894669,94.9650761 L94.2475017,97.1693825 C93.9781756,97.6892557 93.3794887,97.9469355 92.8167823,97.785176 L90.2690318,97.0527818 C89.6167294,96.8652664 89.2399451,96.1844596 89.4274605,95.5321573 C89.4377559,95.4963431 89.449675,95.4610157 89.4631807,95.4262846 Z" id="Path-7" fill="#A2E8FF"></path>
                        <path d="M31.0610873,45.7683747 C31.0525608,45.8132824 31.0419961,45.857779 31.0294261,45.9017267 C30.8004808,46.7021671 29.9659989,47.1654555 29.1655585,46.9365102 L26.039213,46.0423002 C25.3487158,45.8448013 24.8934322,45.1875961 24.9511935,44.4717359 L25.1961064,41.4364281 C25.2002264,41.3853672 25.2069465,41.3345494 25.2162405,41.2841727 C25.367287,40.4654507 26.1534398,39.9241928 26.9721618,40.0752394 L30.4769124,40.7218331 L30.4846085,40.7232736 C31.3025349,40.8785706 31.8397022,41.667524 31.6844052,42.4854505 L31.0610873,45.7683747 Z" id="Path-7" fill="#2895F3" transform="translate(28.328702, 43.522487) rotate(-19.000000) translate(-28.328702, -43.522487) "></path>
                        <path d="M71.4827586,50.4647733 C70.7593741,52.0581727 70.4124391,52.7699169 69.4807821,54.1784621 C68.1810288,56.1454442 66.3483433,58.5944863 64.0773947,58.6155177 C62.0592687,58.6343352 61.5413722,57.3104688 58.8026461,57.3254121 C56.06392,57.3403554 55.4925631,58.6387628 53.4738803,58.6204988 C51.2034886,58.5994674 49.466586,56.3878578 48.165719,54.4214292 C44.5298624,48.9217383 44.1495147,42.4673361 46.3920625,39.0364633 C47.9864043,36.5979367 50.5001516,35.1705741 52.8640988,35.1705741 C55.2709257,35.1705741 56.7839632,36.4822645 58.7742453,36.4822645 C60.7049414,36.4822645 61.8810678,35.1683603 64.6637872,35.1683603 C66.7671155,35.1683603 68.9951845,36.3062655 70.5839575,38.2738011 C65.3804893,41.1074951 66.2258301,48.4905962 71.4827586,50.4647733 Z M62.5526627,32.9711405 C61.4700918,34.3525663 59.6045504,35.42295 57.8013794,35.3670509 C57.4728214,33.58603 58.3176053,31.7540911 59.341704,30.5182242 C60.469382,29.1572762 62.4011918,28.112905 64.0528921,28 C64.3313311,29.861272 63.5633963,31.6815884 62.5526627,32.9711405 Z" id="Fill-18" fill="#292D35"></path>
                        <path d="M46.3275862,72.997306 L45.2413793,72.997306 L45.2413793,66.9358836 L43.0980603,66.9358836 L43.0980603,66 L48.466056,66 L48.466056,66.9358836 L46.3275862,66.9358836 L46.3275862,72.997306 Z M49.2225216,72.997306 L49.2225216,67.8960129 L50.221444,67.8960129 L50.221444,68.7640086 L50.2456897,68.7640086 C50.4154095,68.1675647 50.8712284,67.8135776 51.4725216,67.8135776 C51.6228448,67.8135776 51.7537716,67.8378233 51.8313578,67.8523707 L51.8313578,68.8270474 C51.7489224,68.7931034 51.5646552,68.7688578 51.3609914,68.7688578 C50.6869612,68.7688578 50.2699353,69.2198276 50.2699353,69.9423491 L50.2699353,72.997306 L49.2225216,72.997306 Z M54.6147629,68.6476293 C53.8825431,68.6476293 53.3685345,69.2052802 53.315194,69.9762931 L55.8658405,69.9762931 C55.8415948,69.1955819 55.3469828,68.6476293 54.6147629,68.6476293 Z M55.8609914,71.4989224 L56.8550647,71.4989224 C56.7095905,72.4299569 55.8270474,73.0942888 54.6584052,73.0942888 C53.1600216,73.0942888 52.2532328,72.080819 52.2532328,70.4709052 C52.2532328,68.8706897 53.174569,67.8038793 54.6147629,67.8038793 C56.0307112,67.8038793 56.9132543,68.8028017 56.9132543,70.3496767 L56.9132543,70.7085129 L53.3103448,70.7085129 L53.3103448,70.7715517 C53.3103448,71.658944 53.84375,72.2456897 54.6826509,72.2456897 C55.2790948,72.2456897 55.7203664,71.9450431 55.8609914,71.4989224 Z M57.7230603,72.997306 L57.7230603,67.8960129 L58.7219828,67.8960129 L58.7219828,68.7494612 L58.7462284,68.7494612 C59.0226293,68.1675647 59.5657328,67.8087284 60.3512931,67.8087284 C61.4762931,67.8087284 62.1212284,68.5264009 62.1212284,69.6950431 L62.1212284,72.997306 L61.0689655,72.997306 L61.0689655,69.8987069 C61.0689655,69.1325431 60.7101293,68.7106681 59.9827586,68.7106681 C59.2456897,68.7106681 58.7704741,69.234375 58.7704741,70.0247845 L58.7704741,72.997306 L57.7230603,72.997306 Z M65.0452586,73.0845905 C63.7553879,73.0845905 62.9019397,72.0565733 62.9019397,70.4466595 C62.9019397,68.8367457 63.7553879,67.8135776 65.0355603,67.8135776 C65.7677802,67.8135776 66.3496767,68.1821121 66.6357759,68.7446121 L66.6551724,68.7446121 L66.6551724,66 L67.7074353,66 L67.7074353,72.997306 L66.6891164,72.997306 L66.6891164,72.1293103 L66.6697198,72.1293103 C66.3690733,72.7112069 65.7871767,73.0845905 65.0452586,73.0845905 Z M65.3216595,68.6961207 C64.4924569,68.6961207 63.9735991,69.375 63.9735991,70.4466595 C63.9735991,71.5231681 64.4924569,72.1971983 65.3216595,72.1971983 C66.1266164,72.1971983 66.6648707,71.5134698 66.6648707,70.4466595 C66.6648707,69.3895474 66.1266164,68.6961207 65.3216595,68.6961207 Z M68.6869612,69.341056 C68.6869612,68.4294181 69.4919181,67.8038793 70.684806,67.8038793 C71.8195043,67.8038793 72.6147629,68.4391164 72.6487069,69.3459052 L71.6643319,69.3459052 C71.6158405,68.8852371 71.2424569,68.5991379 70.6557112,68.5991379 C70.0883621,68.5991379 69.7101293,68.8755388 69.7101293,69.2780172 C69.7101293,69.5932112 69.9622845,69.8065733 70.4908405,69.9375 L71.3491379,70.1363147 C72.3771552,70.3836207 72.7650862,70.7715517 72.7650862,71.5231681 C72.7650862,72.4542026 71.8970905,73.0942888 70.6460129,73.0942888 C69.4385776,73.0942888 68.6384698,72.46875 68.5560345,71.5328664 L69.59375,71.5328664 C69.6761853,72.0226293 70.0544181,72.294181 70.6945043,72.294181 C71.3248922,72.294181 71.7128233,72.0323276 71.7128233,71.6201509 C71.7128233,71.2952586 71.5188578,71.1158405 70.9854526,70.9800647 L70.0738147,70.7570043 C69.1524784,70.533944 68.6869612,70.0538793 68.6869612,69.341056 Z M37.4197198,83.0253233 C35.9601293,83.0253233 35,82.0215517 35,80.377694 C35,78.7386853 35.9649784,77.7349138 37.4197198,77.7349138 C38.8744612,77.7349138 39.8394397,78.7386853 39.8394397,80.377694 C39.8394397,82.0215517 38.8793103,83.0253233 37.4197198,83.0253233 Z M37.4197198,82.1621767 C38.2440733,82.1621767 38.7726293,81.5123922 38.7726293,80.377694 C38.7726293,79.2478448 38.2392241,78.5980603 37.4197198,78.5980603 C36.6002155,78.5980603 36.0668103,79.2478448 36.0668103,80.377694 C36.0668103,81.5123922 36.6002155,82.1621767 37.4197198,82.1621767 Z M40.9547414,82.9283405 L40.9547414,78.65625 L40.2516164,78.65625 L40.2516164,77.8367457 L40.9547414,77.8367457 L40.9547414,77.3372845 C40.9547414,76.3480603 41.4202586,75.8825431 42.4579741,75.8825431 C42.6713362,75.8825431 42.908944,75.9067888 43.0447198,75.9310345 L43.0447198,76.7068966 C42.9428879,76.6875 42.8022629,76.6778017 42.6616379,76.6778017 C42.205819,76.6778017 41.9924569,76.9057112 41.9924569,77.356681 L41.9924569,77.8367457 L43.0253233,77.8367457 L43.0253233,78.65625 L42.0070043,78.65625 L42.0070043,82.9283405 L40.9547414,82.9283405 Z M46.1675647,76.6196121 L47.2198276,76.6196121 L47.2198276,77.8270474 L48.1896552,77.8270474 L48.1896552,78.65625 L47.2198276,78.65625 L47.2198276,81.46875 C47.2198276,81.9100216 47.4137931,82.1088362 47.8405172,82.1088362 C47.9471983,82.1088362 48.1169181,82.0991379 48.184806,82.0845905 L48.184806,82.9137931 C48.0684267,82.9428879 47.8356681,82.9622845 47.6029095,82.9622845 C46.5700431,82.9622845 46.1675647,82.5695043 46.1675647,81.5851293 L46.1675647,78.65625 L45.4256466,78.65625 L45.4256466,77.8270474 L46.1675647,77.8270474 L46.1675647,76.6196121 Z M49.0867457,82.9283405 L49.0867457,75.9310345 L50.1244612,75.9310345 L50.1244612,78.6804957 L50.1487069,78.6804957 C50.4299569,78.0840517 50.9876078,77.7397629 51.7634698,77.7397629 C52.8836207,77.7397629 53.5528017,78.4865302 53.5528017,79.640625 L53.5528017,82.9283405 L52.5005388,82.9283405 L52.5005388,79.8442888 C52.5005388,79.0926724 52.122306,78.6417026 51.3852371,78.6417026 C50.609375,78.6417026 50.1341595,79.1751078 50.1341595,79.9800647 L50.1341595,82.9283405 L49.0867457,82.9283405 Z M56.6950431,78.5786638 C55.9628233,78.5786638 55.4488147,79.1363147 55.3954741,79.9073276 L57.9461207,79.9073276 C57.921875,79.1266164 57.4272629,78.5786638 56.6950431,78.5786638 Z M57.9412716,81.4299569 L58.9353448,81.4299569 C58.7898707,82.3609914 57.9073276,83.0253233 56.7386853,83.0253233 C55.2403017,83.0253233 54.3335129,82.0118534 54.3335129,80.4019397 C54.3335129,78.8017241 55.2548491,77.7349138 56.6950431,77.7349138 C58.1109914,77.7349138 58.9935345,78.7338362 58.9935345,80.2807112 L58.9935345,80.6395474 L55.390625,80.6395474 L55.390625,80.7025862 C55.390625,81.5899784 55.9240302,82.1767241 56.762931,82.1767241 C57.359375,82.1767241 57.8006466,81.8760776 57.9412716,81.4299569 Z M64.9725216,82.9283405 L63.8863147,82.9283405 L63.8863147,80.0625 L61.4229526,75.9310345 L62.6352371,75.9310345 L64.4197198,79.0199353 L64.4536638,79.0199353 L66.2381466,75.9310345 L67.4407328,75.9310345 L64.9725216,80.0625 L64.9725216,82.9283405 Z M70.2192888,78.5786638 C69.487069,78.5786638 68.9730603,79.1363147 68.9197198,79.9073276 L71.4703664,79.9073276 C71.4461207,79.1266164 70.9515086,78.5786638 70.2192888,78.5786638 Z M71.4655172,81.4299569 L72.4595905,81.4299569 C72.3141164,82.3609914 71.4315733,83.0253233 70.262931,83.0253233 C68.7645474,83.0253233 67.8577586,82.0118534 67.8577586,80.4019397 C67.8577586,78.8017241 68.7790948,77.7349138 70.2192888,77.7349138 C71.6352371,77.7349138 72.5177802,78.7338362 72.5177802,80.2807112 L72.5177802,80.6395474 L68.9148707,80.6395474 L68.9148707,80.7025862 C68.9148707,81.5899784 69.4482759,82.1767241 70.2871767,82.1767241 C70.8836207,82.1767241 71.3248922,81.8760776 71.4655172,81.4299569 Z M75.112069,82.1864224 C75.8442888,82.1864224 76.4164871,81.6821121 76.4164871,81.0177802 L76.4164871,80.6153017 L75.1605603,80.6928879 C74.5350216,80.7365302 74.1810345,81.012931 74.1810345,81.4493534 C74.1810345,81.8954741 74.549569,82.1864224 75.112069,82.1864224 Z M74.8211207,83.015625 C73.8221983,83.015625 73.1239224,82.3949353 73.1239224,81.4784483 C73.1239224,80.5862069 73.8076509,80.0382543 75.0199353,79.9703664 L76.4164871,79.887931 L76.4164871,79.4951509 C76.4164871,78.9278017 76.0334052,78.5883621 75.393319,78.5883621 C74.7871767,78.5883621 74.408944,78.8793103 74.3168103,79.3351293 L73.3275862,79.3351293 C73.3857759,78.4137931 74.1713362,77.7349138 75.4321121,77.7349138 C76.6686422,77.7349138 77.4590517,78.3895474 77.4590517,79.4127155 L77.4590517,82.9283405 L76.4552802,82.9283405 L76.4552802,82.0894397 L76.4310345,82.0894397 C76.1352371,82.6567888 75.4903017,83.015625 74.8211207,83.015625 Z M78.4725216,82.9283405 L78.4725216,77.8270474 L79.471444,77.8270474 L79.471444,78.6950431 L79.4956897,78.6950431 C79.6654095,78.0985991 80.1212284,77.7446121 80.7225216,77.7446121 C80.8728448,77.7446121 81.0037716,77.7688578 81.0813578,77.7834052 L81.0813578,78.7580819 C80.9989224,78.7241379 80.8146552,78.6998922 80.6109914,78.6998922 C79.9369612,78.6998922 79.5199353,79.1508621 79.5199353,79.8733836 L79.5199353,82.9283405 L78.4725216,82.9283405 Z" id="Trends-of-the-Year" fill="#292D35"></path>
                    </g>
                </g>
            </g>
        </g>
    </g>
</svg>