<?xml version="1.0" encoding="UTF-8"?>
<svg width="116px" height="116px" viewBox="0 0 116 116" version="1.1" xmlns="http://www.w3.org/2000/svg" xmlns:xlink="http://www.w3.org/1999/xlink">
    <!-- Generator: Sketch 53.2 (72643) - https://sketchapp.com -->
    <g id="01-index" stroke="none" stroke-width="1" fill="none" fill-rule="evenodd">
        <g id="Index-Shields" transform="translate(-590.000000, -525.000000)">
            <g id="Group-18" transform="translate(102.000000, 525.000000)">
                <g id="Group-14" transform="translate(488.000000, 0.000000)">
                    <path d="M61.1736363,11.8135064 L96.7769679,32.1582674 C98.7700098,33.2971485 100,35.4166426 100,37.7121308 L100,78.2878692 C100,80.5833574 98.7700098,82.7028515 96.7769679,83.8417326 L61.1736363,104.186494 C59.2070914,105.310233 56.7929086,105.310233 54.8263637,104.186494 L19.2230321,83.8417326 C17.2299902,82.7028515 16,80.5833574 16,78.2878692 L16,37.7121308 C16,35.4166426 17.2299902,33.2971485 19.2230321,32.1582674 L54.8263637,11.8135064 C56.7929086,10.6897665 59.2070914,10.6897665 61.1736363,11.8135064 Z" id="Polygon" fill="#F5F5F7"></path>
                    <path d="M60.9381516,14.289537 C59.1188985,13.2440192 56.8811015,13.2440192 55.0618484,14.289537 L21.4585168,33.6012437 C19.6283453,34.6530363 18.5,36.6028982 18.5,38.7137738 L18.5,77.2862262 C18.5,79.3971018 19.6283453,81.3469637 21.4585168,82.3987563 L55.0618484,101.710463 C56.8811015,102.755981 59.1188985,102.755981 60.9381516,101.710463 L94.5414832,82.3987563 C96.3716547,81.3469637 97.5,79.3971018 97.5,77.2862262 L97.5,38.7137738 C97.5,36.6028982 96.3716547,34.6530363 94.5414832,33.6012437 L60.9381516,14.289537 Z" id="Polygon" stroke="#1D1F26"></path>
                    <polygon id="Star" fill="#000000" points="58.5 26.6600402 55.1008131 29 56.3785714 25.1867427 53 22.8196601 57.188885 22.8028973 58.5 19 59.811115 22.8028973 64 22.8196601 60.6214286 25.1867427 61.8991869 29"></polygon>
                    <polygon id="Star" fill="#000000" points="47 28.3620281 44.527864 30 45.4571429 27.3307199 43 25.6737621 46.0464618 25.6620281 47 23 47.9535382 25.6620281 51 25.6737621 48.5428571 27.3307199 49.472136 30"></polygon>
                    <polygon id="Star" fill="#000000" points="70 28.3620281 67.527864 30 68.4571429 27.3307199 66 25.6737621 69.0464618 25.6620281 70 23 70.9535382 25.6620281 74 25.6737621 71.5428571 27.3307199 72.472136 30"></polygon>
                    <path d="M36.6146351,71.358025 L37.3020372,71.358025 L37.3020372,68.4637005 L36.7231723,68.4637005 L36.7231723,69.1933115 L36.0598896,69.1933115 L36.0598896,67.8004178 L39.3642434,67.8004178 L39.3642434,69.1933115 L38.7009607,69.1933115 L38.7009607,68.4637005 L38.1281257,68.4637005 L38.1281257,71.358025 L38.8094979,71.358025 L38.8094979,72.0213077 L36.6146351,72.0213077 L36.6146351,71.358025 Z M40.0898344,69.9108627 C40.0898344,69.5691699 40.1219933,69.261651 40.1863119,68.9882968 C40.2506306,68.7149426 40.349117,68.4848059 40.4817742,68.2978798 C40.6144314,68.1109538 40.7802504,67.9672439 40.9792362,67.8667461 C41.178222,67.7662482 41.4123786,67.716 41.6817129,67.716 C41.9711468,67.716 42.2163579,67.770268 42.4173537,67.8788058 C42.6183495,67.9873435 42.7821585,68.138088 42.9087859,68.331044 C43.0354132,68.5239999 43.1278699,68.7551415 43.1861586,69.0244759 C43.2444474,69.2938102 43.2735914,69.5892695 43.2735914,69.9108627 C43.2735914,70.5982682 43.1419411,71.1359238 42.8786367,71.5238456 C42.6153322,71.9117675 42.2163616,72.1057255 41.6817129,72.1057255 C41.392279,72.1057255 41.1460629,72.0514574 40.9430572,71.9429197 C40.7400514,71.834382 40.5752374,71.6836374 40.4486101,71.4906815 C40.3219827,71.2977256 40.230531,71.0665839 40.1742522,70.7972496 C40.1179734,70.5279153 40.0898344,70.2324559 40.0898344,69.9108627 Z M40.9581318,69.9108627 C40.9581318,70.1158784 40.9671764,70.3068215 40.9852661,70.4836978 C41.0033557,70.6605741 41.0375245,70.8143335 41.0877734,70.9449807 C41.1380223,71.075628 41.2103797,71.1791393 41.3048477,71.2555176 C41.3993157,71.331896 41.5249362,71.3700847 41.6817129,71.3700847 C41.8224099,71.3700847 41.9389857,71.3409407 42.0314438,71.2826519 C42.1239018,71.2243632 42.1982691,71.1349214 42.2545479,71.0143239 C42.3108268,70.8937265 42.3500203,70.741977 42.3721299,70.5590708 C42.3942394,70.3761647 42.405294,70.1600975 42.405294,69.9108627 C42.405294,69.7138869 42.3982593,69.5269636 42.3841896,69.3500874 C42.3701199,69.1732111 42.337961,69.0184467 42.2877121,68.8857895 C42.2374631,68.7531323 42.1641008,68.6476111 42.0676228,68.5692227 C41.9711449,68.4908344 41.8425095,68.4516408 41.6817129,68.4516408 C41.4003188,68.4516408 41.2093757,68.5742464 41.1088778,68.8194612 C41.00838,69.064676 40.9581318,69.4284729 40.9581318,69.9108627 Z M44.282585,67.8426267 C44.4514214,67.8104674 44.6373397,67.7853433 44.8403454,67.7672537 C45.0433512,67.749164 45.2453489,67.7401194 45.4463446,67.7401194 C45.6553802,67.7401194 45.8654176,67.7572038 46.0764632,67.791373 C46.2875087,67.8255423 46.4774469,67.8938798 46.6462833,67.9963877 C46.8151198,68.0988955 46.9527998,68.2416004 47.0593275,68.4245065 C47.1658553,68.6074127 47.2191184,68.8455891 47.2191184,69.1390429 C47.2191184,69.3963174 47.17289,69.6164045 47.080432,69.7993106 C46.9879739,69.9822168 46.8653684,70.1329613 46.7126116,70.2515488 C46.5598548,70.3701363 46.3859961,70.4565632 46.1910302,70.5108321 C45.9960643,70.5651009 45.7940666,70.5922349 45.585031,70.5922349 L45.4885535,70.5922349 C45.4443345,70.5922349 45.3981061,70.59123 45.3498671,70.58922 C45.3016282,70.5872101 45.2543949,70.5841952 45.2081658,70.5801753 C45.1619368,70.5761553 45.128773,70.5721355 45.1086734,70.5681156 L45.1086734,72.0213077 L44.282585,72.0213077 L44.282585,67.8426267 Z M45.5126729,68.4516408 C45.4322746,68.4516408 45.3558973,68.4546557 45.2835389,68.4606856 C45.2111804,68.4667154 45.1528925,68.4737502 45.1086734,68.48179 L45.1086734,69.8505643 C45.1247531,69.8545842 45.1488722,69.8586041 45.1810315,69.862624 C45.2131909,69.8666439 45.2473596,69.8696588 45.2835389,69.8716688 C45.3197181,69.8736787 45.3548918,69.8746837 45.3890611,69.8746837 L45.4644342,69.8746837 C45.5729719,69.8746837 45.680503,69.864634 45.7870307,69.8445345 C45.8935585,69.8244349 45.98903,69.7872512 46.0734483,69.7329824 C46.1578665,69.6787135 46.2251991,69.6033412 46.275448,69.5068633 C46.3256969,69.4103853 46.350821,69.2837599 46.350821,69.1269832 C46.350821,68.994326 46.3267019,68.8847849 46.2784629,68.7983568 C46.2302239,68.7119286 46.1669112,68.6425861 46.0885229,68.5903272 C46.0101345,68.5380683 45.9206928,68.5018896 45.8201949,68.48179 C45.719697,68.4616904 45.6171907,68.4516408 45.5126729,68.4516408 Z M54.1936363,71.086682 L52.9333992,71.086682 L52.6439667,72.0213077 L51.8178783,72.0213077 L53.1806227,67.8004178 L54.0067112,67.8004178 L55.3634258,72.0213077 L54.4951284,72.0213077 L54.1936363,71.086682 Z M53.1263542,70.4233994 L54.0308306,70.4233994 L53.6027117,69.0124162 L53.5484431,69.0124162 L53.1263542,70.4233994 Z M56.8668665,69.5249528 L56.8367173,69.5249528 L56.8728964,70.0254297 L56.8728964,72.0213077 L56.0890168,72.0213077 L56.0890168,67.8004178 L56.8125979,67.8004178 L58.2718199,70.3811905 L58.3019691,70.3811905 L58.2477005,69.8746837 L58.2477005,67.8004178 L59.03158,67.8004178 L59.03158,72.0213077 L58.3079989,72.0213077 L56.8668665,69.5249528 Z M60.0224841,67.8004178 C60.0586634,67.7963979 60.1219761,67.7903681 60.2124242,67.7823283 C60.3028723,67.7742884 60.4053786,67.7672537 60.5199462,67.7612238 C60.6345137,67.7551939 60.7530995,67.7501691 60.8757069,67.7461492 C60.9983143,67.7421293 61.1078553,67.7401194 61.2043333,67.7401194 C61.5781854,67.7401194 61.8877142,67.7943874 62.1329291,67.9029251 C62.3781439,68.0114628 62.5721019,68.1612024 62.7148089,68.3521484 C62.8575159,68.5430944 62.9570073,68.7682062 63.0132861,69.0274908 C63.0695649,69.2867753 63.0977039,69.5691701 63.0977039,69.8746837 C63.0977039,70.1520578 63.0695649,70.423398 63.0132861,70.6887124 C62.9570073,70.9540268 62.855506,71.1901933 62.7087791,71.3972189 C62.5620521,71.6042446 62.3590495,71.7710686 62.0997649,71.8976959 C61.8404804,72.0243232 61.5078374,72.0876359 61.101826,72.0876359 C61.0375073,72.0876359 60.9551003,72.085626 60.8546024,72.0816061 C60.7541046,72.0775862 60.6515983,72.0725614 60.5470805,72.0665315 C60.4425627,72.0605016 60.3420663,72.0544718 60.2455883,72.048442 C60.1491104,72.0424121 60.074743,72.0353773 60.0224841,72.0273375 L60.0224841,67.8004178 Z M61.2344825,68.4757602 C61.1581041,68.4757602 61.0837368,68.4787751 61.0113783,68.4848049 C60.9390199,68.4908348 60.8847518,68.4958596 60.8485726,68.4998795 L60.8485726,71.3278758 C60.8646523,71.3318957 60.8887714,71.3349106 60.9209307,71.3369205 C60.95309,71.3389305 60.9862538,71.3409404 61.0204231,71.3429504 C61.0545924,71.3449603 61.0877562,71.3469702 61.1199155,71.3489802 C61.1520748,71.3509902 61.1782039,71.3519951 61.1983035,71.3519951 C61.4314585,71.3519951 61.6173768,71.3087817 61.7560639,71.2223535 C61.894751,71.1359253 61.9982622,71.0223644 62.0666008,70.8816674 C62.1349394,70.7409704 62.1791578,70.5821861 62.1992573,70.4053098 C62.2193569,70.2284336 62.2294066,70.0515599 62.2294066,69.8746837 C62.2294066,69.7219269 62.2203619,69.5631426 62.2022723,69.3983261 C62.1841826,69.2335096 62.1419742,69.082765 62.0756456,68.9460879 C62.009317,68.8094108 61.9098256,68.6968548 61.7771684,68.6084167 C61.6445112,68.5199786 61.4636177,68.4757602 61.2344825,68.4757602 Z M64.0644886,67.8426267 C64.1569467,67.826547 64.2564381,67.8114726 64.3629659,67.7974029 C64.4694936,67.7833332 64.5760198,67.7722786 64.6825475,67.7642387 C64.7890753,67.7561989 64.8925865,67.7501691 64.9930844,67.7461492 C65.0935823,67.7421293 65.186039,67.7401194 65.2704572,67.7401194 C65.467433,67.7401194 65.661391,67.7592137 65.852337,67.7974029 C66.043283,67.8355921 66.2141268,67.9009147 66.3648736,67.9933728 C66.5156204,68.0858308 66.6362161,68.2104463 66.7266642,68.367223 C66.8171123,68.5239997 66.8623356,68.7189627 66.8623356,68.9521177 C66.8623356,69.1249741 66.8452513,69.2747137 66.811082,69.401341 C66.7769127,69.5279684 66.7296794,69.6395193 66.6693807,69.7359973 C66.6090819,69.8324753 66.5357196,69.9158872 66.4492914,69.9862358 C66.3628632,70.0565843 66.2694016,70.119897 66.1689037,70.1761758 L67.1879471,72.0213077 L66.235232,72.0213077 L65.3850242,70.3691308 L64.8905771,70.3691308 L64.8905771,72.0213077 L64.0644886,72.0213077 L64.0644886,67.8426267 Z M65.3307556,68.4757602 C65.2463374,68.4757602 65.1629254,68.4777701 65.0805171,68.48179 C64.9981089,68.4858099 64.9347962,68.4938496 64.8905771,68.5059094 L64.8905771,69.7299674 L65.2161886,69.7299674 C65.4453238,69.7299674 65.632247,69.6777093 65.776964,69.5731915 C65.9216809,69.4686737 65.9940383,69.29582 65.9940383,69.0546251 C65.9940383,68.8737289 65.9377603,68.732029 65.8252027,68.6295212 C65.7126451,68.5270133 65.547831,68.4757602 65.3307556,68.4757602 Z M67.8773591,69.9108627 C67.8773591,69.5691699 67.909518,69.261651 67.9738366,68.9882968 C68.0381552,68.7149426 68.1366417,68.4848059 68.2692989,68.2978798 C68.4019561,68.1109538 68.5677751,67.9672439 68.7667609,67.8667461 C68.9657467,67.7662482 69.1999033,67.716 69.4692376,67.716 C69.7586715,67.716 70.0038826,67.770268 70.2048784,67.8788058 C70.4058741,67.9873435 70.5696832,68.138088 70.6963106,68.331044 C70.8229379,68.5239999 70.9153946,68.7551415 70.9736833,69.0244759 C71.0319721,69.2938102 71.061116,69.5892695 71.061116,69.9108627 C71.061116,70.5982682 70.9294658,71.1359238 70.6661613,71.5238456 C70.4028569,71.9117675 70.0038863,72.1057255 69.4692376,72.1057255 C69.1798037,72.1057255 68.9335876,72.0514574 68.7305819,71.9429197 C68.5275761,71.834382 68.3627621,71.6836374 68.2361348,71.4906815 C68.1095074,71.2977256 68.0180557,71.0665839 67.9617769,70.7972496 C67.9054981,70.5279153 67.8773591,70.2324559 67.8773591,69.9108627 Z M68.7456565,69.9108627 C68.7456565,70.1158784 68.7547011,70.3068215 68.7727907,70.4836978 C68.7908804,70.6605741 68.8250491,70.8143335 68.8752981,70.9449807 C68.925547,71.075628 68.9979044,71.1791393 69.0923724,71.2555176 C69.1868404,71.331896 69.3124609,71.3700847 69.4692376,71.3700847 C69.6099346,71.3700847 69.7265104,71.3409407 69.8189685,71.2826519 C69.9114265,71.2243632 69.9857938,71.1349214 70.0420726,71.0143239 C70.0983514,70.8937265 70.137545,70.741977 70.1596546,70.5590708 C70.1817641,70.3761647 70.1928187,70.1600975 70.1928187,69.9108627 C70.1928187,69.7138869 70.185784,69.5269636 70.1717142,69.3500874 C70.1576445,69.1732111 70.1254857,69.0184467 70.0752368,68.8857895 C70.0249878,68.7531323 69.9516255,68.6476111 69.8551475,68.5692227 C69.7586695,68.4908344 69.6300342,68.4516408 69.4692376,68.4516408 C69.1878435,68.4516408 68.9969004,68.5742464 68.8964025,68.8194612 C68.7959046,69.064676 68.7456565,69.4284729 68.7456565,69.9108627 Z M71.9555427,71.2856669 L73.0228248,71.2856669 L73.0228248,68.5360586 L71.9555427,68.5360586 L71.9555427,67.8004178 L74.9222253,67.8004178 L74.9222253,68.5360586 L73.8489133,68.5360586 L73.8489133,71.2856669 L74.9222253,71.2856669 L74.9222253,72.0213077 L71.9555427,72.0213077 L71.9555427,71.2856669 Z M75.9010697,67.8004178 C75.9372489,67.7963979 76.0005616,67.7903681 76.0910097,67.7823283 C76.1814578,67.7742884 76.2839641,67.7672537 76.3985317,67.7612238 C76.5130993,67.7551939 76.631685,67.7501691 76.7542924,67.7461492 C76.8768998,67.7421293 76.9864409,67.7401194 77.0829188,67.7401194 C77.456771,67.7401194 77.7662998,67.7943874 78.0115146,67.9029251 C78.2567294,68.0114628 78.4506874,68.1612024 78.5933944,68.3521484 C78.7361014,68.5430944 78.8355928,68.7682062 78.8918716,69.0274908 C78.9481505,69.2867753 78.9762894,69.5691701 78.9762894,69.8746837 C78.9762894,70.1520578 78.9481505,70.423398 78.8918716,70.6887124 C78.8355928,70.9540268 78.7340915,71.1901933 78.5873646,71.3972189 C78.4406377,71.6042446 78.237635,71.7710686 77.9783505,71.8976959 C77.7190659,72.0243232 77.386423,72.0876359 76.9804115,72.0876359 C76.9160929,72.0876359 76.8336858,72.085626 76.733188,72.0816061 C76.6326901,72.0775862 76.5301838,72.0725614 76.425666,72.0665315 C76.3211482,72.0605016 76.2206518,72.0544718 76.1241739,72.048442 C76.0276959,72.0424121 75.9533286,72.0353773 75.9010697,72.0273375 L75.9010697,67.8004178 Z M77.1130681,68.4757602 C77.0366897,68.4757602 76.9623223,68.4787751 76.8899639,68.4848049 C76.8176054,68.4908348 76.7633374,68.4958596 76.7271581,68.4998795 L76.7271581,71.3278758 C76.7432378,71.3318957 76.7673569,71.3349106 76.7995162,71.3369205 C76.8316756,71.3389305 76.8648394,71.3409404 76.8990086,71.3429504 C76.9331779,71.3449603 76.9663417,71.3469702 76.998501,71.3489802 C77.0306604,71.3509902 77.0567894,71.3519951 77.076889,71.3519951 C77.3100441,71.3519951 77.4959624,71.3087817 77.6346494,71.2223535 C77.7733365,71.1359253 77.8768478,71.0223644 77.9451863,70.8816674 C78.0135249,70.7409704 78.0577433,70.5821861 78.0778429,70.4053098 C78.0979425,70.2284336 78.1079921,70.0515599 78.1079921,69.8746837 C78.1079921,69.7219269 78.0989474,69.5631426 78.0808578,69.3983261 C78.0627682,69.2335096 78.0205597,69.082765 77.9542311,68.9460879 C77.8879025,68.8094108 77.7884111,68.6968548 77.6557539,68.6084167 C77.5230967,68.5199786 77.3422032,68.4757602 77.1130681,68.4757602 Z M30.375758,77.1165247 L29.1155209,77.1165247 L28.8260884,78.0511503 L28,78.0511503 L29.3627444,73.8302605 L30.1888329,73.8302605 L31.5455475,78.0511503 L30.6772501,78.0511503 L30.375758,77.1165247 Z M29.3084759,76.453242 L30.2129523,76.453242 L29.7848334,75.0422588 L29.7305648,75.0422588 L29.3084759,76.453242 Z M32.3736458,73.8724694 C32.5424823,73.84031 32.7284006,73.8151859 32.9314063,73.7970963 C33.134412,73.7790067 33.3364097,73.769962 33.5374055,73.769962 C33.7464411,73.769962 33.9564785,73.7870464 34.167524,73.8212157 C34.3785696,73.855385 34.5685077,73.9237225 34.7373442,74.0262303 C34.9061806,74.1287382 35.0438606,74.271443 35.1503884,74.4543492 C35.2569161,74.6372553 35.3101792,74.8754317 35.3101792,75.1688855 C35.3101792,75.4261601 35.2639509,75.6462472 35.1714928,75.8291533 C35.0790348,76.0120594 34.9564292,76.162804 34.8036724,76.2813915 C34.6509157,76.399979 34.4770569,76.4864059 34.282091,76.5406747 C34.0871252,76.5949436 33.8851274,76.6220776 33.6760919,76.6220776 L33.5796144,76.6220776 C33.5353953,76.6220776 33.489167,76.6210726 33.440928,76.6190627 C33.392689,76.6170527 33.3454557,76.6140378 33.2992267,76.6100179 C33.2529977,76.605998 33.2198339,76.6019782 33.1997343,76.5979582 L33.1997343,78.0511503 L32.3736458,78.0511503 L32.3736458,73.8724694 Z M33.6037337,74.4814835 C33.5233354,74.4814835 33.4469582,74.4844984 33.3745997,74.4905282 C33.3022412,74.4965581 33.2439534,74.5035929 33.1997343,74.5116327 L33.1997343,75.880407 C33.2158139,75.8844269 33.2399331,75.8884467 33.2720924,75.8924667 C33.3042517,75.8964866 33.3384205,75.8995015 33.3745997,75.9015114 C33.410779,75.9035214 33.4459527,75.9045263 33.480122,75.9045263 L33.555495,75.9045263 C33.6640327,75.9045263 33.7715638,75.8944767 33.8780916,75.8743771 C33.9846193,75.8542775 34.0800909,75.8170939 34.1645091,75.762825 C34.2489273,75.7085562 34.3162599,75.6331839 34.3665088,75.5367059 C34.4167578,75.440228 34.4418819,75.3136025 34.4418819,75.1568258 C34.4418819,75.0241686 34.4177627,74.9146276 34.3695238,74.8281994 C34.3212848,74.7417712 34.2579721,74.6724287 34.1795837,74.6201698 C34.1011954,74.567911 34.0117536,74.5317323 33.9112557,74.5116327 C33.8107578,74.4915331 33.7082515,74.4814835 33.6037337,74.4814835 Z M36.3432922,73.8724694 C36.5121287,73.84031 36.698047,73.8151859 36.9010527,73.7970963 C37.1040584,73.7790067 37.3060561,73.769962 37.5070519,73.769962 C37.7160874,73.769962 37.9261249,73.7870464 38.1371704,73.8212157 C38.348216,73.855385 38.5381541,73.9237225 38.7069905,74.0262303 C38.875827,74.1287382 39.013507,74.271443 39.1200348,74.4543492 C39.2265625,74.6372553 39.2798256,74.8754317 39.2798256,75.1688855 C39.2798256,75.4261601 39.2335973,75.6462472 39.1411392,75.8291533 C39.0486812,76.0120594 38.9260756,76.162804 38.7733188,76.2813915 C38.620562,76.399979 38.4467033,76.4864059 38.2517374,76.5406747 C38.0567715,76.5949436 37.8547738,76.6220776 37.6457382,76.6220776 L37.5492608,76.6220776 C37.5050417,76.6220776 37.4588134,76.6210726 37.4105744,76.6190627 C37.3623354,76.6170527 37.3151021,76.6140378 37.2688731,76.6100179 C37.222644,76.605998 37.1894802,76.6019782 37.1693807,76.5979582 L37.1693807,78.0511503 L36.3432922,78.0511503 L36.3432922,73.8724694 Z M37.5733801,74.4814835 C37.4929818,74.4814835 37.4166046,74.4844984 37.3442461,74.4905282 C37.2718876,74.4965581 37.2135997,74.5035929 37.1693807,74.5116327 L37.1693807,75.880407 C37.1854603,75.8844269 37.2095795,75.8884467 37.2417388,75.8924667 C37.2738981,75.8964866 37.3080669,75.8995015 37.3442461,75.9015114 C37.3804253,75.9035214 37.4155991,75.9045263 37.4497684,75.9045263 L37.5251414,75.9045263 C37.6336791,75.9045263 37.7412102,75.8944767 37.847738,75.8743771 C37.9542657,75.8542775 38.0497373,75.8170939 38.1341555,75.762825 C38.2185737,75.7085562 38.2859063,75.6331839 38.3361552,75.5367059 C38.3864042,75.440228 38.4115283,75.3136025 38.4115283,75.1568258 C38.4115283,75.0241686 38.3874091,74.9146276 38.3391701,74.8281994 C38.2909312,74.7417712 38.2276184,74.6724287 38.1492301,74.6201698 C38.0708418,74.567911 37.9814,74.5317323 37.8809021,74.5116327 C37.7804042,74.4915331 37.6778979,74.4814835 37.5733801,74.4814835 Z M44.1438986,73.8302605 C44.1800778,73.8262405 44.2433906,73.8202108 44.3338387,73.8121709 C44.4242867,73.8041311 44.526793,73.7970964 44.6413606,73.7910665 C44.7559282,73.7850366 44.8745139,73.7800118 44.9971213,73.7759919 C45.1197288,73.771972 45.2292698,73.769962 45.3257478,73.769962 C45.6995999,73.769962 46.0091287,73.8242301 46.2543435,73.9327678 C46.4995584,74.0413055 46.6935164,74.1910451 46.8362234,74.3819911 C46.9789303,74.572937 47.0784218,74.7980489 47.1347006,75.0573334 C47.1909794,75.316618 47.2191184,75.5990128 47.2191184,75.9045263 C47.2191184,76.1819005 47.1909794,76.4532407 47.1347006,76.7185551 C47.0784218,76.9838695 46.9769204,77.220036 46.8301935,77.4270616 C46.6834666,77.6340872 46.4804639,77.8009112 46.2211794,77.9275385 C45.9618949,78.0541659 45.6292519,78.1174786 45.2232404,78.1174786 C45.1589218,78.1174786 45.0765148,78.1154687 44.9760169,78.1114487 C44.875519,78.1074288 44.7730127,78.102404 44.6684949,78.0963741 C44.5639771,78.0903443 44.4634808,78.0843145 44.3670028,78.0782846 C44.2705248,78.0722547 44.1961575,78.06522 44.1438986,78.0571802 L44.1438986,73.8302605 Z M45.355897,74.5056028 C45.2795186,74.5056028 45.2051513,74.5086177 45.1327928,74.5146476 C45.0604343,74.5206775 45.0061663,74.5257023 44.9699871,74.5297222 L44.9699871,77.3577184 C44.9860667,77.3617383 45.0101858,77.3647532 45.0423452,77.3667632 C45.0745045,77.3687731 45.1076683,77.3707831 45.1418376,77.372793 C45.1760069,77.374803 45.2091707,77.3768129 45.24133,77.3788229 C45.2734893,77.3808328 45.2996184,77.3818378 45.3197179,77.3818378 C45.552873,77.3818378 45.7387913,77.3386243 45.8774784,77.2521962 C46.0161655,77.165768 46.1196767,77.0522071 46.1880153,76.9115101 C46.2563538,76.770813 46.3005722,76.6120288 46.3206718,76.4351525 C46.3407714,76.2582762 46.350821,76.0814026 46.350821,75.9045263 C46.350821,75.7517696 46.3417764,75.5929853 46.3236867,75.4281688 C46.3055971,75.2633522 46.2633886,75.1126077 46.19706,74.9759306 C46.1307314,74.8392534 46.03124,74.7266975 45.8985828,74.6382594 C45.7659256,74.5498212 45.5850322,74.5056028 45.355897,74.5056028 Z M48.2341418,73.8302605 L51.0018396,73.8302605 L51.0018396,74.5659013 L49.0602303,74.5659013 L49.0602303,75.5487656 L50.8510936,75.5487656 L50.8510936,76.2844064 L49.0602303,76.2844064 L49.0602303,77.3155095 L51.0319888,77.3155095 L51.0319888,78.0511503 L48.2341418,78.0511503 L48.2341418,73.8302605 Z M53.6268311,76.9235697 L53.6569803,76.9235697 L54.4890986,73.8302605 L55.3453363,73.8302605 L54.0790693,78.0511503 L53.1384138,78.0511503 L51.8359678,73.8302605 L52.7585338,73.8302605 L53.6268311,76.9235697 Z M56.1734346,73.8302605 L58.9411324,73.8302605 L58.9411324,74.5659013 L56.9995231,74.5659013 L56.9995231,75.5487656 L58.7903863,75.5487656 L58.7903863,76.2844064 L56.9995231,76.2844064 L56.9995231,77.3155095 L58.9712816,77.3155095 L58.9712816,78.0511503 L56.1734346,78.0511503 L56.1734346,73.8302605 Z M62.2173469,76.3326452 L62.9650474,76.3326452 L62.9650474,78.0511503 L60.1913197,78.0511503 L60.1913197,73.8302605 L61.0174082,73.8302605 L61.0174082,77.3155095 L62.2173469,77.3155095 L62.2173469,76.3326452 Z M63.9077127,75.9407054 C63.9077127,75.5990126 63.9398716,75.2914937 64.0041902,75.0181395 C64.0685089,74.7447852 64.1669953,74.5146485 64.2996525,74.3277225 C64.4323097,74.1407964 64.5981287,73.9970866 64.7971145,73.8965887 C64.9961003,73.7960908 65.2302569,73.7458427 65.4995912,73.7458427 C65.7890251,73.7458427 66.0342362,73.8001107 66.235232,73.9086484 C66.4362278,74.0171861 66.6000368,74.1679307 66.7266642,74.3608866 C66.8532915,74.5538425 66.9457482,74.7849842 67.0040369,75.0543185 C67.0623257,75.3236528 67.0914697,75.6191122 67.0914697,75.9407054 C67.0914697,76.6281109 66.9598194,77.1657665 66.696515,77.5536883 C66.4332105,77.9416101 66.0342399,78.1355681 65.4995912,78.1355681 C65.2101573,78.1355681 64.9639412,78.0813001 64.7609355,77.9727624 C64.5579297,77.8642247 64.3931157,77.7134801 64.2664884,77.5205242 C64.139861,77.3275682 64.0484093,77.0964266 63.9921305,76.8270923 C63.9358517,76.5577579 63.9077127,76.2622986 63.9077127,75.9407054 Z M64.7760101,75.9407054 C64.7760101,76.1457211 64.7850547,76.3366642 64.8031444,76.5135404 C64.821234,76.6904167 64.8554028,76.8441762 64.9056517,76.9748234 C64.9559006,77.1054707 65.028258,77.2089819 65.122726,77.2853603 C65.217194,77.3617387 65.3428145,77.3999273 65.4995912,77.3999273 C65.6402882,77.3999273 65.756864,77.3707834 65.8493221,77.3124946 C65.9417801,77.2542058 66.0161474,77.1647641 66.0724262,77.0441666 C66.1287051,76.9235691 66.1678986,76.7718196 66.1900082,76.5889135 C66.2121177,76.4060073 66.2231723,76.1899401 66.2231723,75.9407054 C66.2231723,75.7437295 66.2161376,75.5568063 66.2020679,75.37993 C66.1879982,75.2030538 66.1558393,75.0482893 66.1055904,74.9156321 C66.0553414,74.7829749 65.9819791,74.6774537 65.8855011,74.5990654 C65.7890232,74.5206771 65.6603878,74.4814835 65.4995912,74.4814835 C65.2181971,74.4814835 65.027254,74.604089 64.9267561,74.8493039 C64.8262583,75.0945187 64.7760101,75.4583156 64.7760101,75.9407054 Z M68.1004633,73.8724694 C68.2692997,73.84031 68.455218,73.8151859 68.6582237,73.7970963 C68.8612295,73.7790067 69.0632272,73.769962 69.2642229,73.769962 C69.4732585,73.769962 69.6832959,73.7870464 69.8943415,73.8212157 C70.105387,73.855385 70.2953252,73.9237225 70.4641616,74.0262303 C70.6329981,74.1287382 70.7706781,74.271443 70.8772058,74.4543492 C70.9837336,74.6372553 71.0369967,74.8754317 71.0369967,75.1688855 C71.0369967,75.4261601 70.9907683,75.6462472 70.8983103,75.8291533 C70.8058522,76.0120594 70.6832467,76.162804 70.5304899,76.2813915 C70.3777331,76.399979 70.2038744,76.4864059 70.0089085,76.5406747 C69.8139426,76.5949436 69.6119449,76.6220776 69.4029093,76.6220776 L69.3064318,76.6220776 C69.2622128,76.6220776 69.2159844,76.6210726 69.1677454,76.6190627 C69.1195065,76.6170527 69.0722732,76.6140378 69.0260441,76.6100179 C68.9798151,76.605998 68.9466513,76.6019782 68.9265517,76.5979582 L68.9265517,78.0511503 L68.1004633,78.0511503 L68.1004633,73.8724694 Z M69.3305512,74.4814835 C69.2501529,74.4814835 69.1737756,74.4844984 69.1014172,74.4905282 C69.0290587,74.4965581 68.9707708,74.5035929 68.9265517,74.5116327 L68.9265517,75.880407 C68.9426314,75.8844269 68.9667505,75.8884467 68.9989098,75.8924667 C69.0310692,75.8964866 69.0652379,75.8995015 69.1014172,75.9015114 C69.1375964,75.9035214 69.1727701,75.9045263 69.2069394,75.9045263 L69.2823125,75.9045263 C69.3908502,75.9045263 69.4983813,75.8944767 69.604909,75.8743771 C69.7114368,75.8542775 69.8069083,75.8170939 69.8913266,75.762825 C69.9757448,75.7085562 70.0430774,75.6331839 70.0933263,75.5367059 C70.1435752,75.440228 70.1686993,75.3136025 70.1686993,75.1568258 C70.1686993,75.0241686 70.1445802,74.9146276 70.0963412,74.8281994 C70.0481022,74.7417712 69.9847895,74.6724287 69.9064012,74.6201698 C69.8280128,74.567911 69.7385711,74.5317323 69.6380732,74.5116327 C69.5375753,74.4915331 69.435069,74.4814835 69.3305512,74.4814835 Z M74.1805546,75.802019 L74.2107038,75.1447662 L74.1745248,75.1447662 L73.4991824,76.2482274 L73.3544662,76.2482274 L72.6489746,75.1447662 L72.6188254,75.1447662 L72.6550044,75.7356907 L72.6550044,78.0511503 L71.8711249,78.0511503 L71.8711249,73.8302605 L72.709273,73.8302605 L73.4328541,75.0000499 L73.4569735,75.0000499 L74.1745248,73.8302605 L75.0066431,73.8302605 L75.0066431,78.0511503 L74.1805546,78.0511503 L74.1805546,75.802019 Z M76.0216665,73.8302605 L78.7893643,73.8302605 L78.7893643,74.5659013 L76.847755,74.5659013 L76.847755,75.5487656 L78.6386182,75.5487656 L78.6386182,76.2844064 L76.847755,76.2844064 L76.847755,77.3155095 L78.8195135,77.3155095 L78.8195135,78.0511503 L76.0216665,78.0511503 L76.0216665,73.8302605 Z M80.6847448,75.5547955 L80.6545956,75.5547955 L80.6907747,76.0552724 L80.6907747,78.0511503 L79.9068951,78.0511503 L79.9068951,73.8302605 L80.6304762,73.8302605 L82.0896982,76.4110331 L82.1198474,76.4110331 L82.0655788,75.9045263 L82.0655788,73.8302605 L82.8494583,73.8302605 L82.8494583,78.0511503 L82.1258772,78.0511503 L80.6847448,75.5547955 Z M84.2503917,77.3878676 L84.9377938,77.3878676 L84.9377938,74.4935432 L84.3589289,74.4935432 L84.3589289,75.2231541 L83.6956462,75.2231541 L83.6956462,73.8302605 L87,73.8302605 L87,75.2231541 L86.3367173,75.2231541 L86.3367173,74.4935432 L85.7638823,74.4935432 L85.7638823,77.3878676 L86.4452545,77.3878676 L86.4452545,78.0511503 L84.2503917,78.0511503 L84.2503917,77.3878676 Z M46.5196566,82.66398 L47.1829393,82.66398 L47.1829393,83.8699485 C47.054302,83.9624065 46.8904929,84.0347639 46.6915071,84.0870228 C46.4925213,84.1392817 46.2885137,84.1654108 46.0794781,84.1654108 C45.8141637,84.1654108 45.5619178,84.1262172 45.3227329,84.0478289 C45.0835479,83.9694405 44.8735105,83.8428151 44.6926143,83.6679488 C44.5117181,83.4930825 44.3670033,83.2659606 44.2584656,82.9865765 C44.1499279,82.7071924 44.0956599,82.3685197 44.0956599,81.9705481 C44.0956599,81.5564968 44.1569627,81.2097843 44.2795701,80.9304002 C44.4021775,80.6510161 44.5599568,80.4259042 44.7529127,80.2550578 C44.9458686,80.0842114 45.1609309,79.9616058 45.3981059,79.8872374 C45.6352809,79.812869 45.8684325,79.7756853 46.0975676,79.7756853 C46.3387625,79.7756853 46.5427702,79.7957846 46.7095967,79.8359838 C46.8764231,79.8761829 47.0141032,79.9224112 47.1226409,79.9746701 L47.1226409,81.2288774 L46.4593582,81.2288774 L46.4593582,80.5414753 C46.3347408,80.5213758 46.2061055,80.5113261 46.0734483,80.5113261 C45.9166716,80.5113261 45.7709518,80.5404701 45.6362847,80.5987588 C45.5016175,80.6570476 45.3840368,80.7464894 45.2835389,80.8670868 C45.183041,80.9876843 45.1046538,81.1394338 45.048375,81.32234 C44.9920962,81.5052461 44.9639572,81.7213133 44.9639572,81.9705481 C44.9639572,82.1876235 44.9900863,82.3856013 45.0423452,82.5644876 C45.0946041,82.7433738 45.1709813,82.8971332 45.2714792,83.0257705 C45.3719771,83.1544078 45.4945826,83.2538992 45.6392996,83.3242477 C45.7840165,83.3945962 45.9488306,83.42977 46.1337467,83.42977 C46.2664039,83.42977 46.3950392,83.4177104 46.5196566,83.3935909 L46.5196566,82.66398 Z M48.0291272,81.9705481 C48.0291272,81.6288553 48.061286,81.3213364 48.1256047,81.0479821 C48.1899233,80.7746279 48.2884098,80.5444912 48.421067,80.3575651 C48.5537242,80.1706391 48.7195432,80.0269293 48.918529,79.9264314 C49.1175148,79.8259335 49.3516713,79.7756853 49.6210057,79.7756853 C49.9104396,79.7756853 50.1556507,79.8299534 50.3566465,79.9384911 C50.5576422,80.0470288 50.7214513,80.1977733 50.8480786,80.3907293 C50.974706,80.5836852 51.0671626,80.8148269 51.1254514,81.0841612 C51.1837402,81.3534955 51.2128841,81.6489548 51.2128841,81.9705481 C51.2128841,82.6579536 51.0812339,83.1956091 50.8179294,83.583531 C50.554625,83.9714528 50.1556544,84.1654108 49.6210057,84.1654108 C49.3315718,84.1654108 49.0853557,84.1111427 48.8823499,84.002605 C48.6793442,83.8940673 48.5145302,83.7433228 48.3879028,83.5503668 C48.2612755,83.3574109 48.1698238,83.1262692 48.113545,82.8569349 C48.0572662,82.5876006 48.0291272,82.2921413 48.0291272,81.9705481 Z M48.8974245,81.9705481 C48.8974245,82.1755637 48.9064692,82.3665068 48.9245588,82.5433831 C48.9426485,82.7202594 48.9768172,82.8740188 49.0270662,83.0046661 C49.0773151,83.1353133 49.1496725,83.2388246 49.2441405,83.315203 C49.3386085,83.3915814 49.464229,83.42977 49.6210057,83.42977 C49.7617027,83.42977 49.8782785,83.400626 49.9707365,83.3423373 C50.0631946,83.2840485 50.1375619,83.1946067 50.1938407,83.0740093 C50.2501195,82.9534118 50.2893131,82.8016623 50.3114226,82.6187561 C50.3335322,82.43585 50.3445868,82.2197828 50.3445868,81.9705481 C50.3445868,81.7735722 50.337552,81.586649 50.3234823,81.4097727 C50.3094126,81.2328964 50.2772538,81.078132 50.2270048,80.9454748 C50.1767559,80.8128176 50.1033936,80.7072964 50.0069156,80.6289081 C49.9104376,80.5505197 49.7818023,80.5113261 49.6210057,80.5113261 C49.3396116,80.5113261 49.1486685,80.6339317 49.0481706,80.8791465 C48.9476727,81.1243614 48.8974245,81.4881582 48.8974245,81.9705481 Z M54.3323227,81.8318617 L54.3624719,81.1746088 L54.3262928,81.1746088 L53.6509505,82.27807 L53.5062342,82.27807 L52.8007427,81.1746088 L52.7705934,81.1746088 L52.8067725,81.7655334 L52.8067725,84.080993 L52.022893,84.080993 L52.022893,79.8601031 L52.8610411,79.8601031 L53.5846222,81.0298926 L53.6087416,81.0298926 L54.3262928,79.8601031 L55.1584111,79.8601031 L55.1584111,84.080993 L54.3323227,84.080993 L54.3323227,81.8318617 Z M56.1915241,79.902312 C56.3603606,79.8701527 56.5462789,79.8450286 56.7492846,79.826939 C56.9522903,79.8088494 57.154288,79.7998047 57.3552838,79.7998047 C57.5643194,79.7998047 57.7743568,79.8168891 57.9854023,79.8510584 C58.1964479,79.8852276 58.386386,79.9535652 58.5552225,80.056073 C58.7240589,80.1585808 58.8617389,80.3012857 58.9682667,80.4841918 C59.0747944,80.667098 59.1280575,80.9052744 59.1280575,81.1987282 C59.1280575,81.4560028 59.0818292,81.6760898 58.9893711,81.858996 C58.8969131,82.0419021 58.7743075,82.1926467 58.6215507,82.3112342 C58.468794,82.4298217 58.2949352,82.5162485 58.0999693,82.5705174 C57.9050035,82.6247863 57.7030057,82.6519203 57.4939702,82.6519203 L57.3974927,82.6519203 C57.3532736,82.6519203 57.3070453,82.6509153 57.2588063,82.6489054 C57.2105673,82.6468954 57.163334,82.6438805 57.117105,82.6398606 C57.070876,82.6358407 57.0377122,82.6318208 57.0176126,82.6278009 L57.0176126,84.080993 L56.1915241,84.080993 L56.1915241,79.902312 Z M57.421612,80.5113261 C57.3412137,80.5113261 57.2648365,80.514341 57.192478,80.5203709 C57.1201196,80.5264008 57.0618317,80.5334355 57.0176126,80.5414753 L57.0176126,81.9102496 C57.0336922,81.9142695 57.0578114,81.9182894 57.0899707,81.9223093 C57.12213,81.9263292 57.1562988,81.9293441 57.192478,81.9313541 C57.2286573,81.933364 57.263831,81.934369 57.2980003,81.934369 L57.3733733,81.934369 C57.481911,81.934369 57.5894421,81.9243194 57.6959699,81.9042198 C57.8024976,81.8841202 57.8979692,81.8469366 57.9823874,81.7926677 C58.0668056,81.7383988 58.1341382,81.6630266 58.1843871,81.5665486 C58.2346361,81.4700706 58.2597602,81.3434452 58.2597602,81.1866685 C58.2597602,81.0540113 58.235641,80.9444703 58.1874021,80.8580421 C58.1391631,80.7716139 58.0758504,80.7022714 57.997462,80.6500125 C57.9190737,80.5977536 57.8296319,80.5615749 57.729134,80.5414753 C57.6286361,80.5213758 57.5261298,80.5113261 57.421612,80.5113261 Z M62.1329291,83.1463674 L60.872692,83.1463674 L60.5832595,84.080993 L59.7571711,84.080993 L61.1199155,79.8601031 L61.946004,79.8601031 L63.3027186,84.080993 L62.4344212,84.080993 L62.1329291,83.1463674 Z M61.0656469,82.4830847 L61.9701233,82.4830847 L61.5420045,81.0721015 L61.4877359,81.0721015 L61.0656469,82.4830847 Z M64.8061593,81.5846381 L64.7760101,81.5846381 L64.8121891,82.0851151 L64.8121891,84.080993 L64.0283096,84.080993 L64.0283096,79.8601031 L64.7518907,79.8601031 L66.2111126,82.4408758 L66.2412618,82.4408758 L66.1869933,81.934369 L66.1869933,79.8601031 L66.9708728,79.8601031 L66.9708728,84.080993 L66.2472917,84.080993 L64.8061593,81.5846381 Z M69.0592083,82.5252936 L67.6964638,79.8601031 L68.6793282,79.8601031 L69.4933569,81.6027277 L69.5235062,81.6027277 L70.3556244,79.8601031 L71.2420113,79.8601031 L69.8852967,82.5192637 L69.8852967,84.080993 L69.0592083,84.080993 L69.0592083,82.5252936 Z" id="TOP-ANDROID-APP-DEVE" fill="#000000"></path>
                    <path d="M51.0562216,93.8653846 L47,93.8653846 L47,92.9326923 C47.0727577,92.8685894 47.1637035,92.7836544 47.27284,92.6778846 C47.3819766,92.5721149 47.5047533,92.4519238 47.641174,92.3173077 C47.7775947,92.1826916 47.9215922,92.0352572 48.0731707,91.875 C48.2247493,91.7147428 48.373294,91.5480778 48.5188094,91.375 C48.7249562,91.131409 48.905332,90.9102574 49.0599421,90.7115385 C49.2145522,90.5128195 49.3418763,90.3253214 49.4419181,90.1490385 C49.54196,89.9727555 49.6162324,89.7996803 49.6647375,89.6298077 C49.7132426,89.459935 49.7374948,89.2852573 49.7374948,89.1057692 C49.7374948,88.9775635 49.7102111,88.8525647 49.6556428,88.7307692 C49.6010745,88.6089738 49.5252864,88.501603 49.4282761,88.4086538 C49.3312659,88.3157047 49.2145521,88.2419875 49.0781315,88.1875 C48.9417108,88.1330125 48.7916503,88.1057692 48.6279454,88.1057692 C48.4096723,88.1057692 48.2111074,88.1410253 48.0322447,88.2115385 C47.853382,88.2820516 47.6669432,88.4006402 47.4729227,88.5673077 L47,87.6826923 C47.254652,87.4903837 47.5380996,87.3285263 47.8503514,87.1971154 C48.1626032,87.0657045 48.5218389,87 48.9280694,87 C49.1887845,87 49.4388854,87.0384612 49.6783795,87.1153846 C49.9178736,87.1923081 50.1300804,87.306089 50.3150062,87.4567308 C50.499932,87.6073725 50.646961,87.7948707 50.7560976,88.0192308 C50.8652341,88.2435909 50.9198016,88.5032037 50.9198016,88.7980769 C50.9198016,89.0032062 50.9031282,89.1939094 50.8697809,89.3701923 C50.8364336,89.5464752 50.7848977,89.7227555 50.7151716,89.8990385 C50.6454454,90.0753214 50.5544997,90.2564093 50.4423315,90.4423077 C50.3301634,90.6282061 50.1952605,90.8301271 50.0376188,91.0480769 C49.916356,91.2147444 49.7844847,91.383012 49.6420008,91.5528846 C49.499517,91.7227573 49.3585511,91.8846146 49.2190988,92.0384615 C49.0796465,92.1923085 48.9417121,92.3365378 48.8052914,92.4711538 C48.6688708,92.6057699 48.546094,92.7179483 48.4369574,92.8076923 L51.0562216,92.8076923 L51.0562216,93.8653846 Z M52.5568417,90.4903846 C52.5568417,89.9070484 52.6144407,89.3958355 52.7296403,88.9567308 C52.84484,88.517626 53.0070267,88.1538476 53.216205,87.8653846 C53.4253834,87.5769216 53.6754843,87.3605776 53.9665151,87.2163462 C54.2575459,87.0721147 54.5819191,87 54.9396445,87 C55.7036003,87 56.2917163,87.283651 56.7040099,87.8509615 C57.1163036,88.4182721 57.3224473,89.298071 57.3224473,90.4903846 C57.3224473,91.0801312 57.2648483,91.5945491 57.1496486,92.0336538 C57.0344489,92.4727586 56.8722623,92.8381396 56.6630839,93.1298077 C56.4539055,93.4214758 56.2022889,93.6394224 55.9082265,93.7836538 C55.6141642,93.9278853 55.2882752,94 54.9305498,94 C54.1605308,94 53.5724149,93.7003235 53.1661844,93.1009615 C52.7599539,92.5015996 52.5568417,91.631416 52.5568417,90.4903846 Z M56.1583299,90.4903846 C56.1583299,90.38782 56.1568141,90.2900646 56.1537826,90.1971154 C56.150751,90.1041662 56.1462037,90.012821 56.1401406,89.9230769 L53.9119471,92.0673077 C54.0999045,92.6506439 54.4424669,92.9423077 54.9396445,92.9423077 C55.3276856,92.9423077 55.6278066,92.7467968 55.8400165,92.3557692 C56.0522265,91.9647416 56.1583299,91.342953 56.1583299,90.4903846 Z M53.7209591,90.4903846 C53.7209591,90.5865389 53.7224748,90.6778842 53.7255064,90.7644231 C53.728538,90.850962 53.7330853,90.9391021 53.7391484,91.0288462 L55.9582472,88.8846154 C55.776353,88.3333306 55.4337906,88.0576923 54.9305498,88.0576923 C54.5425087,88.0576923 54.2439035,88.2548057 54.0347251,88.6490385 C53.8255467,89.0432712 53.7209591,89.6570471 53.7209591,90.4903846 Z M59.0868127,92.8076923 L60.4782968,92.8076923 L60.4782968,88.6057692 L59.2778007,89.5769231 L58.7321207,88.8076923 L60.8057048,87.1346154 L61.6060356,87.1346154 L61.6060356,92.8076923 L62.9702356,92.8076923 L62.9702356,93.8653846 L59.0868127,93.8653846 L59.0868127,92.8076923 Z M64.5254237,89.2403846 C64.5254237,88.9134599 64.5784754,88.6121809 64.6845804,88.3365385 C64.7906854,88.0608961 64.9392301,87.8253215 65.1302191,87.6298077 C65.3212081,87.4342939 65.551604,87.2804493 65.8214138,87.1682692 C66.0912236,87.0560892 66.3928604,87 66.7263332,87 C67.0658691,87 67.3750847,87.0544866 67.6539893,87.1634615 C67.9328938,87.2724364 68.1723843,87.4342938 68.372468,87.6490385 C68.5725516,87.8637831 68.7271594,88.1298061 68.836296,88.4471154 C68.9454325,88.7644247 69,89.1282031 69,89.5384615 C69,90.282055 68.9090542,90.9230742 68.72716,91.4615385 C68.5452657,92.0000027 68.3012279,92.4487162 67.9950393,92.8076923 C67.6888506,93.1666685 67.3326464,93.4423067 66.9264159,93.6346154 C66.5201854,93.826924 66.0957718,93.9487177 65.6531625,94 L65.3985118,93.0192308 C65.7319846,92.9743588 66.0336214,92.8878212 66.3034312,92.7596154 C66.573241,92.6314096 66.8081842,92.4727574 67.0082679,92.2836538 C67.2083516,92.0945503 67.3720539,91.8798089 67.4993799,91.6394231 C67.6267059,91.3990373 67.7085571,91.141027 67.7449359,90.8653846 C67.6176099,91.0000007 67.4539076,91.1073714 67.2538239,91.1875 C67.0537402,91.2676286 66.8142497,91.3076923 66.5353452,91.3076923 L66.5171559,91.3076923 C66.2867565,91.3076923 66.053329,91.2660261 65.8168665,91.1826923 C65.5804039,91.0993586 65.3666814,90.9711547 65.1756924,90.7980769 C64.9847035,90.6249991 64.8285799,90.4086551 64.7073171,90.1490385 C64.5860542,89.8894218 64.5254237,89.5865402 64.5254237,89.2403846 Z M65.6713518,89.1730769 C65.6713518,89.352565 65.7031828,89.5112173 65.7668458,89.6490385 C65.8305088,89.7868597 65.9138757,89.9022431 66.0169492,89.9951923 C66.1200226,90.0881415 66.2397678,90.1586536 66.3761885,90.2067308 C66.5126092,90.2548079 66.6535751,90.2788462 66.7990905,90.2788462 C67.0476793,90.2788462 67.2629177,90.2371799 67.4448119,90.1538462 C67.6267062,90.0705124 67.7600933,89.9679493 67.8449773,89.8461538 C67.8631667,89.7115378 67.8722613,89.5833339 67.8722613,89.4615385 C67.8722613,89.2820504 67.8480091,89.1057701 67.7995039,88.9326923 C67.7509988,88.7596145 67.6782422,88.6057699 67.5812319,88.4711538 C67.4842216,88.3365378 67.3629606,88.2291671 67.2174452,88.1490385 C67.0719298,88.0689099 66.9051959,88.0288462 66.7172385,88.0288462 C66.4201446,88.0288462 66.1715595,88.1298067 65.9714758,88.3317308 C65.7713921,88.5336549 65.6713518,88.8141008 65.6713518,89.1730769 Z" id="2019" fill="#FF002D"></path>
                    <rect id="Rectangle" fill="#000000" x="16" y="41" width="84" height="23"></rect>
                    <polygon id="Rectangle" fill="#FF002D" points="16 45 71 45 71 60 16 60"></polygon>
                    <rect id="Rectangle" fill="#FF002D" x="98" y="45" width="2" height="15"></rect>
                    <path d="M33.7421668,33.0981538 L36.8501668,33.0981538 L36.8501668,33.9360659 L34.7011668,33.9360659 L34.7011668,35.1242527 L36.6961668,35.1242527 L36.6961668,35.9621648 L34.7011668,35.9621648 L34.7011668,37.9058462 L33.7421668,37.9058462 L33.7421668,33.0981538 Z M38.2525001,33.0981538 L41.4655001,33.0981538 L41.4655001,33.9360659 L39.2115001,33.9360659 L39.2115001,35.0555714 L41.2905001,35.0555714 L41.2905001,35.8934835 L39.2115001,35.8934835 L39.2115001,37.0679341 L41.5005001,37.0679341 L41.5005001,37.9058462 L38.2525001,37.9058462 L38.2525001,33.0981538 Z M45.1708334,36.8412857 L43.7078334,36.8412857 L43.3718334,37.9058462 L42.4128334,37.9058462 L43.9948334,33.0981538 L44.9538334,33.0981538 L46.5288334,37.9058462 L45.5208334,37.9058462 L45.1708334,36.8412857 Z M43.9318334,36.0857912 L44.9818334,36.0857912 L44.4848334,34.4786484 L44.4218334,34.4786484 L43.9318334,36.0857912 Z M47.8051667,37.1503516 L48.6031667,37.1503516 L48.6031667,33.8536484 L47.9311667,33.8536484 L47.9311667,34.6846923 L47.1611667,34.6846923 L47.1611667,33.0981538 L50.9971667,33.0981538 L50.9971667,34.6846923 L50.2271667,34.6846923 L50.2271667,33.8536484 L49.5621667,33.8536484 L49.5621667,37.1503516 L50.3531667,37.1503516 L50.3531667,37.9058462 L47.8051667,37.9058462 L47.8051667,37.1503516 Z M54.5275,33.0981538 L55.4375,33.0981538 L55.4375,36.1750769 C55.4375,36.4864338 55.3955005,36.7554329 55.3115,36.9820824 C55.2274996,37.2087319 55.1096675,37.396459 54.958,37.5452692 C54.8063326,37.6940795 54.6255011,37.8051132 54.4155,37.8783736 C54.205499,37.9516341 53.9745013,37.9882637 53.7225,37.9882637 C53.1158303,37.9882637 52.6666682,37.8440344 52.375,37.5555714 C52.0833319,37.2671084 51.9375,36.8458672 51.9375,36.2918352 L51.9375,33.0981538 L52.8965,33.0981538 L52.8965,36.1063956 C52.8965,36.4726978 52.964166,36.7382629 53.0995,36.9030989 C53.2348341,37.0679349 53.4471653,37.1503516 53.7365,37.1503516 C54.0165014,37.1503516 54.2183328,37.0622115 54.342,36.8859286 C54.4656673,36.7096456 54.5275,36.4498039 54.5275,36.1063956 L54.5275,33.0981538 Z M56.6298333,33.1462308 C56.7371672,33.1279157 56.8526661,33.1107455 56.9763333,33.0947198 C57.1000006,33.0786941 57.2236661,33.0661026 57.3473333,33.0569451 C57.4710006,33.0477875 57.5911661,33.0409194 57.7078333,33.0363407 C57.8245006,33.0317619 57.9318329,33.0294725 58.0298333,33.0294725 C58.2585012,33.0294725 58.4836656,33.0512214 58.7053333,33.0947198 C58.9270011,33.1382182 59.1253325,33.2126222 59.3003333,33.3179341 C59.4753342,33.4232459 59.6153328,33.5651859 59.7203333,33.7437582 C59.8253339,33.9223306 59.8778333,34.1443979 59.8778333,34.409967 C59.8778333,34.6068545 59.8580002,34.7774114 59.8183333,34.9216429 C59.7786665,35.0658743 59.7238337,35.1929335 59.6538333,35.3028242 C59.583833,35.4127148 59.4986672,35.507723 59.3983333,35.5878516 C59.2979995,35.6679803 59.1895006,35.7400949 59.0728333,35.8041978 L60.2558333,37.9058462 L59.1498333,37.9058462 L58.1628333,36.023978 L57.5888333,36.023978 L57.5888333,37.9058462 L56.6298333,37.9058462 L56.6298333,33.1462308 Z M58.0998333,33.8673846 C58.0018329,33.8673846 57.9050005,33.869674 57.8093333,33.8742527 C57.7136662,33.8788315 57.6401669,33.8879889 57.5888333,33.9017253 L57.5888333,35.295956 L57.9668333,35.295956 C58.2328347,35.295956 58.4498325,35.2364328 58.6178333,35.1173846 C58.7858342,34.9983364 58.8698333,34.8014519 58.8698333,34.5267253 C58.8698333,34.3206803 58.8045007,34.1592808 58.6738333,34.042522 C58.543166,33.9257632 58.3518346,33.8673846 58.0998333,33.8673846 Z M61.2941667,33.0981538 L64.5071667,33.0981538 L64.5071667,33.9360659 L62.2531667,33.9360659 L62.2531667,35.0555714 L64.3321667,35.0555714 L64.3321667,35.8934835 L62.2531667,35.8934835 L62.2531667,37.0679341 L64.5421667,37.0679341 L64.5421667,37.9058462 L61.2941667,37.9058462 L61.2941667,33.0981538 Z M65.7625,33.0981538 C65.8045002,33.0935751 65.8779994,33.086707 65.983,33.0775495 C66.0880005,33.0683919 66.2069993,33.0603792 66.34,33.053511 C66.4730006,33.0466428 66.6106659,33.0409194 66.753,33.0363407 C66.895334,33.0317619 67.0224994,33.0294725 67.1345,33.0294725 C67.5685021,33.0294725 67.9278319,33.0912851 68.2125,33.2149121 C68.497168,33.3385391 68.7223325,33.509096 68.888,33.7265879 C69.0536674,33.9440798 69.1691663,34.2004875 69.2345,34.4958187 C69.2998336,34.7911498 69.3325,35.1128041 69.3325,35.4607912 C69.3325,35.7767269 69.2998336,36.0857897 69.2345,36.387989 C69.1691663,36.6901883 69.0513341,36.9591875 68.881,37.1949945 C68.7106658,37.4308015 68.4750015,37.620818 68.174,37.7650495 C67.8729984,37.9092809 67.4868356,37.9813956 67.0155,37.9813956 C66.9408329,37.9813956 66.8451672,37.9791063 66.7285,37.9745275 C66.6118327,37.9699487 66.4928339,37.9642253 66.3715,37.9573571 C66.250166,37.950489 66.1335005,37.9436209 66.0215,37.9367527 C65.9094994,37.9298846 65.8231669,37.9218718 65.7625,37.9127143 L65.7625,33.0981538 Z M67.1695,33.8673846 C67.0808328,33.8673846 66.9945004,33.8708186 66.9105,33.8776868 C66.8264995,33.884555 66.7635002,33.8902784 66.7215,33.8948571 L66.7215,37.116011 C66.7401667,37.1205898 66.7681664,37.1240238 66.8055,37.1263132 C66.8428335,37.1286026 66.8813331,37.1308919 66.921,37.1331813 C66.9606668,37.1354707 66.9991664,37.1377601 67.0365,37.1400495 C67.0738335,37.1423388 67.1041665,37.1434835 67.1275,37.1434835 C67.398168,37.1434835 67.6139991,37.0942624 67.775,36.9958187 C67.9360008,36.897375 68.0561662,36.7680264 68.1355,36.6077692 C68.2148337,36.447512 68.2661665,36.266653 68.2895,36.0651868 C68.3128334,35.8637206 68.3245,35.6622574 68.3245,35.4607912 C68.3245,35.2867977 68.3140001,35.1059387 68.293,34.9182088 C68.2719998,34.7304789 68.2230003,34.5587773 68.146,34.4030989 C68.0689996,34.2474205 67.9535007,34.1192166 67.7995,34.0184835 C67.6454992,33.9177504 67.4355013,33.8673846 67.1695,33.8673846 Z M74.8811666,35.502 C74.8811666,35.1128039 74.9184995,34.7625327 74.9931666,34.4511758 C75.0678336,34.139819 75.1821658,33.8776879 75.3361666,33.6647747 C75.4901673,33.4518616 75.6826654,33.2881727 75.9136666,33.1737033 C76.1446677,33.0592339 76.4164983,33.002 76.7291666,33.002 C77.0651682,33.002 77.3498321,33.0638126 77.5831666,33.1874396 C77.8165011,33.3110666 78.0066658,33.4827681 78.1536666,33.7025495 C78.3006673,33.9223308 78.4079996,34.1856065 78.4756666,34.4923846 C78.5433336,34.7991627 78.5771666,35.1356978 78.5771666,35.502 C78.5771666,36.2849709 78.4243348,36.8973732 78.1186666,37.3392253 C77.8129984,37.7810773 77.3498363,38.002 76.7291666,38.002 C76.3931649,38.002 76.1073344,37.9401874 75.8716666,37.8165604 C75.6359987,37.6929334 75.4446673,37.5212319 75.2976666,37.3014505 C75.1506658,37.0816692 75.0445002,36.8183935 74.9791666,36.5116154 C74.9138329,36.2048373 74.8811666,35.8683022 74.8811666,35.502 Z M75.8891666,35.502 C75.8891666,35.7355177 75.8996665,35.9530063 75.9206666,36.1544725 C75.9416667,36.3559387 75.9813329,36.5310743 76.0396666,36.6798846 C76.0980002,36.8286949 76.1819993,36.9465966 76.2916666,37.0335934 C76.4013338,37.1205902 76.5471656,37.1640879 76.7291666,37.1640879 C76.8925007,37.1640879 77.0278327,37.1308923 77.1351666,37.0645 C77.2425004,36.9981077 77.3288329,36.8962315 77.3941666,36.7588681 C77.4595002,36.6215048 77.5049998,36.4486586 77.5306666,36.2403242 C77.5563334,36.0319898 77.5691666,35.7858842 77.5691666,35.502 C77.5691666,35.2776399 77.561,35.0647299 77.5446666,34.8632637 C77.5283331,34.6617975 77.4910002,34.4855172 77.4326666,34.3344176 C77.3743329,34.1833179 77.2891671,34.0631268 77.1771666,33.9738407 C77.065166,33.8845545 76.9158342,33.8399121 76.7291666,33.8399121 C76.4024983,33.8399121 76.1808338,33.9795627 76.0641666,34.2588681 C75.9474993,34.5381736 75.8891666,34.9525467 75.8891666,35.502 Z M80.7930328,35.0624396 L80.7622951,35.0624396 L80.7991803,35.6324945 L80.7991803,37.9058462 L80,37.9058462 L80,33.0981538 L80.7377049,33.0981538 L82.2254098,36.0377143 L82.2561475,36.0377143 L82.2008197,35.4607912 L82.2008197,33.0981538 L83,33.0981538 L83,37.9058462 L82.2622951,37.9058462 L80.7930328,35.0624396 Z" id="FEATURED-ON" fill="#000000"></path>
                    <path d="M18.4580001,48.0745856 L19.6246668,48.0745856 L21.1841906,52.7610497 L21.2080001,52.7610497 L22.7556191,48.0745856 L23.9341906,48.0745856 L23.9341906,56.9254144 L22.7199049,56.9254144 L22.7199049,51.5428177 L22.6960953,51.5428177 L21.4937144,55.3466851 L20.8865715,55.3466851 L19.6960953,51.5428177 L19.6722858,51.5428177 L19.6722858,56.9254144 L18.4580001,56.9254144 L18.4580001,48.0745856 Z M25.7000636,50.1629834 C25.7000636,49.8066281 25.7595868,49.4917141 25.878635,49.218232 C25.9976832,48.94475 26.1544277,48.7189235 26.3488731,48.5407459 C26.5433185,48.3625682 26.7615703,48.227901 27.003635,48.1367403 C27.2456997,48.0455797 27.4897449,48 27.7357779,48 C27.9818109,48 28.225856,48.0455797 28.4679207,48.1367403 C28.7099854,48.227901 28.9282372,48.3625682 29.1226826,48.5407459 C29.3171281,48.7189235 29.4738725,48.94475 29.5929207,49.218232 C29.711969,49.4917141 29.7714922,49.8066281 29.7714922,50.1629834 L29.7714922,54.8370166 C29.7714922,55.2016593 29.711969,55.5186451 29.5929207,55.7879834 C29.4738725,56.0573218 29.3171281,56.2810765 29.1226826,56.4592541 C28.9282372,56.6374318 28.7099854,56.772099 28.4679207,56.8632597 C28.225856,56.9544203 27.9818109,57 27.7357779,57 C27.4897449,57 27.2456997,56.9544203 27.003635,56.8632597 C26.7615703,56.772099 26.5433185,56.6374318 26.3488731,56.4592541 C26.1544277,56.2810765 25.9976832,56.0573218 25.878635,55.7879834 C25.7595868,55.5186451 25.7000636,55.2016593 25.7000636,54.8370166 L25.7000636,50.1629834 Z M26.9143493,54.8370166 C26.9143493,55.1436479 26.9956977,55.3694744 27.1583969,55.5145028 C27.3210961,55.6595311 27.5135545,55.7320442 27.7357779,55.7320442 C27.9580012,55.7320442 28.1504596,55.6595311 28.3131588,55.5145028 C28.4758581,55.3694744 28.5572064,55.1436479 28.5572064,54.8370166 L28.5572064,50.1629834 C28.5572064,49.8563521 28.4758581,49.6305256 28.3131588,49.4854972 C28.1504596,49.3404689 27.9580012,49.2679558 27.7357779,49.2679558 C27.5135545,49.2679558 27.3210961,49.3404689 27.1583969,49.4854972 C26.9956977,49.6305256 26.9143493,49.8563521 26.9143493,50.1629834 L26.9143493,54.8370166 Z M31.5373652,48.0745856 L33.3111747,48.0745856 C33.7000655,48.0745856 34.0314114,48.1367397 34.3052223,48.2610497 C34.5790332,48.3853597 34.8032373,48.5511039 34.9778414,48.7582873 C35.1524454,48.9654706 35.2774442,49.2037279 35.3528414,49.4730663 C35.4282386,49.7424047 35.4659366,50.022098 35.4659366,50.3121547 L35.4659366,50.6353591 C35.4659366,50.8756918 35.4480796,51.0787285 35.4123652,51.2444751 C35.3766507,51.4102218 35.3230798,51.555248 35.2516509,51.679558 C35.180222,51.803868 35.0929213,51.9136736 34.9897461,52.0089779 C34.886571,52.1042822 34.7675246,52.1933698 34.6326033,52.2762431 C34.918319,52.4171278 35.1286343,52.6263798 35.2635557,52.9040055 C35.398477,53.1816312 35.4659366,53.5524839 35.4659366,54.0165746 L35.4659366,54.5138122 C35.4659366,55.2928216 35.2853829,55.8895007 34.9242699,56.3038674 C34.563157,56.7182341 33.9857818,56.9254144 33.1921271,56.9254144 L31.5373652,56.9254144 L31.5373652,48.0745856 Z M32.7516509,55.6574586 L33.2754604,55.6574586 C33.5214934,55.6574586 33.7139518,55.6201661 33.8528414,55.5455801 C33.991731,55.4709941 34.0968886,55.367404 34.1683176,55.2348066 C34.2397465,55.1022093 34.2833968,54.9447523 34.2992699,54.7624309 C34.315143,54.5801096 34.3230795,54.3812165 34.3230795,54.1657459 C34.3230795,53.9419878 34.3111748,53.7472384 34.2873652,53.5814917 C34.2635555,53.415745 34.2139529,53.2769343 34.1385557,53.1650552 C34.0631585,53.0531762 33.9580008,52.9682323 33.8230795,52.910221 C33.6881582,52.8522097 33.5095885,52.8232044 33.2873652,52.8232044 L32.7516509,52.8232044 L32.7516509,55.6574586 Z M32.7516509,51.7044199 L33.2992699,51.7044199 C33.7040339,51.7044199 33.9758565,51.598758 34.1147461,51.3874309 C34.2536357,51.1761039 34.3230795,50.8674053 34.3230795,50.461326 C34.3230795,50.0635339 34.2456993,49.7651944 34.0909366,49.5662983 C33.9361739,49.3674023 33.6564148,49.2679558 33.2516509,49.2679558 L32.7516509,49.2679558 L32.7516509,51.7044199 Z M37,48.0745856 L38.2142857,48.0745856 L38.2142857,56.9254144 L37,56.9254144 L37,48.0745856 Z M40,48.0745856 L41.2142857,48.0745856 L41.2142857,55.6574586 L43.6190476,55.6574586 L43.6190476,56.9254144 L40,56.9254144 L40,48.0745856 Z M45,48.0745856 L48.6190476,48.0745856 L48.6190476,49.2679558 L46.2142857,49.2679558 L46.2142857,51.8660221 L48.3095238,51.8660221 L48.3095238,53.0593923 L46.2142857,53.0593923 L46.2142857,55.6574586 L48.6190476,55.6574586 L48.6190476,56.9254144 L45,56.9254144 L45,48.0745856 Z M54.878635,48.0745856 L55.8905398,48.0745856 L57.7833969,56.9254144 L56.5691112,56.9254144 L55.3845874,50.8888772 L54.2000636,56.9254144 L52.9857779,56.9254144 L54.878635,48.0745856 Z M59.0730795,48.0745856 L60.894508,48.0745856 C61.227843,48.0745856 61.5214909,48.1201653 61.7754604,48.211326 C62.0294299,48.3024866 62.2595864,48.4640872 62.4659366,48.6961326 C62.6722868,48.928178 62.8151426,49.1995841 62.894508,49.5103591 C62.9738735,49.8211342 63.0135557,50.2417101 63.0135557,50.7720994 C63.0135557,51.1616042 62.9917305,51.4951644 62.9480795,51.7727901 C62.9044284,52.0504158 62.8111754,52.3093911 62.6683176,52.5497238 C62.5016501,52.8397805 62.2794301,53.0656069 62.0016509,53.2272099 C61.7238717,53.388813 61.358796,53.4696133 60.9064128,53.4696133 L60.2873652,53.4696133 L60.2873652,56.9254144 L59.0730795,56.9254144 L59.0730795,48.0745856 Z M60.2873652,52.2762431 L60.8706985,52.2762431 C61.1167315,52.2762431 61.3072058,52.2389506 61.4421271,52.1643646 C61.5770484,52.0897786 61.6762537,51.9882603 61.7397461,51.8598066 C61.8032385,51.7313529 61.8409365,51.5759678 61.8528414,51.3936464 C61.8647462,51.2113251 61.8706985,51.0082884 61.8706985,50.7845304 C61.8706985,50.577347 61.8647462,50.3805258 61.8528414,50.1940608 C61.8409365,50.0075958 61.8052226,49.8459952 61.7456985,49.7092541 C61.6861744,49.5725131 61.5929214,49.4647794 61.4659366,49.3860497 C61.3389518,49.30732 61.156414,49.2679558 60.9183176,49.2679558 L60.2873652,49.2679558 L60.2873652,52.2762431 Z M64.612762,48.0745856 L66.4341906,48.0745856 C66.7675256,48.0745856 67.0611734,48.1201653 67.315143,48.211326 C67.5691125,48.3024866 67.7992689,48.4640872 68.0056191,48.6961326 C68.2119694,48.928178 68.3548251,49.1995841 68.4341906,49.5103591 C68.513556,49.8211342 68.5532382,50.2417101 68.5532382,50.7720994 C68.5532382,51.1616042 68.531413,51.4951644 68.487762,51.7727901 C68.444111,52.0504158 68.350858,52.3093911 68.2080001,52.5497238 C68.0413326,52.8397805 67.8191126,53.0656069 67.5413334,53.2272099 C67.2635543,53.388813 66.8984785,53.4696133 66.4460953,53.4696133 L65.8270477,53.4696133 L65.8270477,56.9254144 L64.612762,56.9254144 L64.612762,48.0745856 Z M65.8270477,52.2762431 L66.410381,52.2762431 C66.656414,52.2762431 66.8468883,52.2389506 66.9818096,52.1643646 C67.1167309,52.0897786 67.2159363,51.9882603 67.2794287,51.8598066 C67.342921,51.7313529 67.3806191,51.5759678 67.3925239,51.3936464 C67.4044287,51.2113251 67.410381,51.0082884 67.410381,50.7845304 C67.410381,50.577347 67.4044287,50.3805258 67.3925239,50.1940608 C67.3806191,50.0075958 67.3449052,49.8459952 67.285381,49.7092541 C67.2258569,49.5725131 67.1326039,49.4647794 67.0056191,49.3860497 C66.8786344,49.30732 66.6960965,49.2679558 66.4580001,49.2679558 L65.8270477,49.2679558 L65.8270477,52.2762431 Z M73.0611747,48.0745856 L74.8587937,48.0745856 C75.5492734,48.0745856 76.0770459,48.2755505 76.4421271,48.6774862 C76.8072083,49.0794219 76.9897461,49.6408804 76.9897461,50.3618785 L76.9897461,54.5013812 C76.9897461,55.3301146 76.7972877,55.9412964 76.4123652,56.3349448 C76.0274426,56.7285931 75.4738767,56.9254144 74.7516509,56.9254144 L73.0611747,56.9254144 L73.0611747,48.0745856 Z M74.2754604,55.7320442 L74.8349842,55.7320442 C75.1762558,55.7320442 75.4183168,55.6429567 75.5611747,55.464779 C75.7040325,55.2866013 75.7754604,55.006908 75.7754604,54.6256906 L75.7754604,50.3618785 C75.7754604,50.0138104 75.7080008,49.7444761 75.5730795,49.5538674 C75.4381581,49.3632587 75.1921289,49.2679558 74.8349842,49.2679558 L74.2754604,49.2679558 L74.2754604,55.7320442 Z M80.0294287,48.0745856 L81.0413334,48.0745856 L82.9341906,56.9254144 L81.7199049,56.9254144 L80.535381,50.8888772 L79.3508572,56.9254144 L78.1365715,56.9254144 L80.0294287,48.0745856 Z M84,48.0745856 L85.2142857,48.0745856 L85.2142857,56.9254144 L84,56.9254144 L84,48.0745856 Z M87,48.0745856 L88.2142857,48.0745856 L88.2142857,55.6574586 L90.6190476,55.6574586 L90.6190476,56.9254144 L87,56.9254144 L87,48.0745856 Z M92.6666667,53.1837017 L91,48.0745856 L92.2857143,48.0745856 L93.2619048,51.5925414 L93.2857143,51.5925414 L94.2619048,48.0745856 L95.5476191,48.0745856 L93.8809524,53.1837017 L93.8809524,56.9254144 L92.6666667,56.9254144 L92.6666667,53.1837017 Z" id="MOBILE-APP-DAILY" fill="#FFFFFF"></path>
                </g>
            </g>
        </g>
    </g>
</svg>