<svg xmlns="http://www.w3.org/2000/svg" width="116" height="116" viewBox="0 0 116 116">
    <g fill="none" fill-rule="evenodd">
        <path fill="#F5F5F7" d="M61.174 11.814l35.603 20.344A6.397 6.397 0 0 1 100 37.712v40.576a6.397 6.397 0 0 1-3.223 5.554l-35.603 20.344a6.397 6.397 0 0 1-6.348 0L19.223 83.842A6.397 6.397 0 0 1 16 78.288V37.712a6.397 6.397 0 0 1 3.223-5.554l35.603-20.344a6.397 6.397 0 0 1 6.348 0z"/>
        <path fill="#080808" d="M40.451 54.044h-1.16v-6.758c0-.534.032-1.184.096-1.951h-.027c-.11.454-.21.779-.297.975l-3.378 7.734h-.566l-3.385-7.678c-.092-.205-.19-.55-.297-1.031h-.027c.036.402.055 1.057.055 1.965v6.744h-1.119V43.98h1.534l3.039 7.018c.23.533.38.936.449 1.207h.048c.23-.646.39-1.057.477-1.235l3.1-6.99h1.458v10.064M42.543 54.043h1.132v-7.185h-1.132v7.185zm1.326-9.76a.716.716 0 0 1-.221.536.729.729 0 0 1-.525.214.721.721 0 0 1-.739-.75c0-.202.07-.376.21-.523a.699.699 0 0 1 .529-.221c.211 0 .389.072.532.217.142.145.214.32.214.526zM50.38 53.714c-.547.337-1.194.505-1.94.505a3.364 3.364 0 0 1-1.737-.453 3.097 3.097 0 0 1-1.198-1.28c-.286-.552-.429-1.172-.429-1.86 0-1.188.335-2.143 1.005-2.863.67-.72 1.562-1.08 2.677-1.08.617 0 1.162.12 1.637.364v1.179c-.53-.374-1.092-.561-1.685-.561-.733 0-1.328.265-1.786.796-.459.531-.687 1.217-.687 2.06 0 .837.217 1.499.652 1.986.436.486 1.02.73 1.751.73.617 0 1.198-.206 1.74-.618v1.095M55.428 48.022c-.202-.154-.49-.23-.863-.23-.502 0-.91.239-1.222.718-.314.48-.47 1.103-.47 1.87v3.664H51.74v-7.186h1.133v1.48h.028c.156-.495.398-.888.725-1.175a1.654 1.654 0 0 1 1.126-.432c.294 0 .52.033.676.099v1.192M61.388 50.465c0-.903-.197-1.596-.59-2.078-.394-.481-.957-.722-1.69-.722-.727 0-1.302.247-1.726.74-.424.494-.635 1.19-.635 2.088 0 .86.212 1.533.639 2.017.425.485 1 .727 1.723.727.737 0 1.3-.24 1.692-.716.391-.478.587-1.163.587-2.056m1.16-.042c0 1.14-.319 2.06-.956 2.754-.638.694-1.493 1.042-2.566 1.042-1.045 0-1.88-.338-2.504-1.014-.624-.676-.936-1.566-.936-2.67 0-1.188.32-2.128.96-2.818.64-.69 1.522-1.035 2.646-1.035 1.05 0 1.871.333 2.465 1 .594.667.892 1.58.892 2.74M67.81 52.12c0 .623-.236 1.128-.708 1.516-.472.389-1.1.583-1.882.583-.668 0-1.252-.145-1.754-.435v-1.235c.557.459 1.17.688 1.837.688.898 0 1.347-.335 1.347-1.004a.886.886 0 0 0-.262-.663c-.176-.17-.574-.401-1.196-.691-.626-.272-1.068-.563-1.326-.874-.258-.311-.386-.724-.386-1.239 0-.594.234-1.09.704-1.487.47-.398 1.066-.597 1.79-.597a3.35 3.35 0 0 1 1.512.337v1.158a2.62 2.62 0 0 0-1.603-.512c-.373 0-.673.093-.901.28a.893.893 0 0 0-.342.723c0 .318.087.563.262.733.175.171.537.374 1.085.607.672.29 1.144.595 1.416.913.271.318.407.718.407 1.2M74.377 50.465c0-.903-.196-1.596-.59-2.078-.394-.481-.957-.722-1.689-.722-.728 0-1.303.247-1.727.74-.423.494-.635 1.19-.635 2.088 0 .86.213 1.533.639 2.017.426.485 1 .727 1.723.727.737 0 1.3-.24 1.692-.716.392-.478.587-1.163.587-2.056m1.16-.042c0 1.14-.318 2.06-.956 2.754-.638.694-1.493 1.042-2.566 1.042-1.045 0-1.88-.338-2.504-1.014-.624-.676-.935-1.566-.935-2.67 0-1.188.32-2.128.96-2.818.64-.69 1.521-1.035 2.645-1.035 1.05 0 1.872.333 2.466 1 .594.667.89 1.58.89 2.74M80.178 44.415a1.491 1.491 0 0 0-.753-.189c-.792 0-1.188.508-1.188 1.523v1.109h1.658v.975h-1.658v6.21h-1.132v-6.21h-1.202v-.975h1.202v-1.165c0-.73.211-1.32.635-1.769.424-.449.962-.673 1.616-.673.346 0 .62.042.822.126v1.038M84.294 53.973c-.273.155-.627.232-1.064.232-1.235 0-1.851-.706-1.851-2.12v-4.252h-1.216v-.975h1.216v-1.755l1.132-.372v2.127h1.783v.975H82.51v4.056c0 .482.08.825.242 1.028.161.204.43.306.808.306.28 0 .525-.078.733-.232v.982M46.839 60.905c0-1.333-.774-2-2.321-2h-1.36v4.127h1.215c.796 0 1.406-.184 1.83-.551.424-.367.636-.892.636-1.576m1.215-.063c0 .974-.33 1.758-.99 2.355-.662.596-1.529.895-2.602.895h-1.305v3.81h-1.16V57.839h2.721c1.059 0 1.88.263 2.462.79.583.525.874 1.264.874 2.213M52.833 64.267l-1.713.245c-.586.085-.995.226-1.23.425-.235.199-.352.52-.352.965 0 .36.126.649.38.867.253.217.577.326.974.326.561 0 1.025-.201 1.391-.604.366-.402.55-.905.55-1.508v-.716m1.132 3.635h-1.132v-1.123h-.028c-.493.866-1.218 1.298-2.176 1.298-.682 0-1.227-.188-1.637-.565-.41-.376-.615-.882-.615-1.519 0-1.338.778-2.12 2.335-2.344l2.12-.302c0-1.216-.486-1.824-1.457-1.824-.852 0-1.62.293-2.307.877v-1.179c.207-.158.562-.312 1.064-.46.502-.147.948-.22 1.34-.22 1.662 0 2.493.895 2.493 2.687v4.674M59.434 61.88c-.202-.154-.49-.23-.863-.23-.502 0-.91.24-1.223.719-.313.48-.47 1.103-.47 1.87v3.663h-1.132v-7.186h1.133v1.48h.027c.157-.495.398-.887.725-1.175a1.655 1.655 0 0 1 1.127-.431c.294 0 .52.032.676.098v1.193M64.713 67.832c-.272.154-.627.231-1.064.231-1.234 0-1.851-.706-1.851-2.119v-4.253h-1.216v-.975h1.216v-1.754l1.133-.372v2.126h1.782v.975H62.93v4.057c0 .481.08.824.241 1.028.161.203.43.305.809.305.28 0 .525-.077.732-.232v.983M72.167 67.902h-1.132v-4.098c0-1.52-.549-2.281-1.644-2.281-.558 0-1.024.214-1.4.642-.375.428-.562.975-.562 1.639v4.098h-1.133v-7.186h1.133v1.193h.028c.529-.912 1.302-1.369 2.32-1.369.778 0 1.371.258 1.779.773.407.514.611 1.244.611 2.189v4.4M78.417 63.621c-.01-.664-.167-1.18-.473-1.547-.307-.367-.738-.551-1.295-.551-.525 0-.974.192-1.347.576-.373.383-.608.89-.705 1.522h3.82m1.16.976h-4.993c.018.81.228 1.428.631 1.856.403.428.962.642 1.675.642.802 0 1.531-.262 2.19-.786v1.074c-.617.463-1.437.694-2.459.694-1.008 0-1.796-.33-2.362-.993-.566-.662-.85-1.577-.85-2.747 0-.71.142-1.36.425-1.947.283-.587.674-1.042 1.17-1.365a2.98 2.98 0 0 1 1.658-.485c.917 0 1.631.303 2.145.91.513.605.77 1.453.77 2.543v.604M84.57 61.88c-.203-.154-.49-.23-.864-.23-.501 0-.91.24-1.222.719-.314.48-.47 1.103-.47 1.87v3.663h-1.133v-7.186h1.133v1.48h.028c.156-.495.398-.887.725-1.175a1.655 1.655 0 0 1 1.126-.431c.294 0 .52.032.677.098v1.193"/>
        <path fill="#777471" d="M61.124 80.303l-.218.62h-.013a6.026 6.026 0 0 0-.206-.613l-1.167-2.974h-1.14v4.729h.751v-2.907c0-.18-.003-.396-.01-.644-.005-.126-.019-.226-.022-.303h.016c.039.178.078.314.107.405l1.4 3.449h.526l1.389-3.48c.03-.08.065-.235.095-.374h.017c-.019.344-.034.66-.036.849v3.005h.803v-4.729H62.32l-1.196 2.967M64.172 82.065h.784v-3.389h-.784zM64.572 77.236a.47.47 0 0 0-.475.466c0 .13.047.239.139.326.091.086.205.13.336.13a.48.48 0 0 0 .337-.13.43.43 0 0 0 .14-.326.463.463 0 0 0-.478-.466M67.733 78.642a2.123 2.123 0 0 0-.438-.047c-.36 0-.681.078-.954.233a1.556 1.556 0 0 0-.63.657 2.12 2.12 0 0 0-.216.974c0 .32.071.613.21.873.14.259.337.462.587.603.25.14.539.211.858.211.373 0 .691-.075.947-.225l.01-.006v-.73l-.033.024a1.475 1.475 0 0 1-.384.203 1.151 1.151 0 0 1-.376.074c-.308 0-.555-.097-.734-.29-.18-.194-.271-.464-.271-.806 0-.344.095-.622.282-.827a.954.954 0 0 1 .736-.309c.258 0 .51.09.747.264l.033.025v-.77l-.01-.006a1.283 1.283 0 0 0-.364-.125M70.318 78.618a.796.796 0 0 0-.525.19 1.08 1.08 0 0 0-.301.455h-.009v-.587H68.7v3.389h.784V80.33c0-.295.066-.537.196-.72a.597.597 0 0 1 .507-.272c.071 0 .15.012.236.036a.6.6 0 0 1 .183.075l.033.024v-.804l-.013-.005a.798.798 0 0 0-.307-.047M73.073 81.203c-.148.189-.37.283-.66.283-.288 0-.515-.096-.675-.288-.161-.192-.243-.466-.243-.815 0-.359.082-.64.243-.836.16-.194.385-.293.67-.293.275 0 .494.095.65.28.159.188.239.467.239.83 0 .368-.076.65-.224.84m-.624-2.61c-.55 0-.987.164-1.298.487-.312.323-.47.77-.47 1.329 0 .53.155.957.459 1.268.303.31.717.468 1.229.468.533 0 .96-.166 1.272-.493.311-.327.469-.77.469-1.315 0-.54-.148-.97-.44-1.278-.292-.309-.703-.465-1.221-.465M75.85 80.076c-.247-.1-.406-.184-.471-.249a.351.351 0 0 1-.095-.26c0-.1.04-.178.12-.242a.536.536 0 0 1 .339-.097c.132 0 .267.021.402.063.134.042.252.097.351.166l.033.022v-.737l-.013-.005a1.701 1.701 0 0 0-.356-.101 2.154 2.154 0 0 0-.392-.041c-.374 0-.683.097-.92.289a.927.927 0 0 0-.358.751c0 .16.026.3.077.42.052.12.131.227.238.315.104.088.267.18.482.275.181.075.316.14.402.19.083.05.143.099.177.147.032.048.049.112.049.192 0 .228-.168.339-.513.339a1.39 1.39 0 0 1-.435-.081c-.16-.053-.31-.13-.444-.23l-.033-.023v.777l.012.006c.112.052.254.096.421.132.167.035.318.052.45.052.406 0 .732-.097.971-.29a.946.946 0 0 0 .362-.77.892.892 0 0 0-.195-.582c-.128-.157-.35-.3-.661-.428M79.439 81.203c-.147.189-.37.283-.66.283-.287 0-.515-.096-.675-.288-.16-.192-.243-.466-.243-.815 0-.359.082-.64.243-.836.16-.194.385-.293.67-.293.275 0 .494.095.651.28.158.188.238.467.238.83 0 .368-.076.65-.224.84m-.624-2.61c-.55 0-.986.164-1.298.487-.311.323-.469.77-.469 1.329 0 .53.154.957.458 1.268.304.31.717.468 1.229.468.533 0 .96-.166 1.272-.493.312-.327.47-.77.47-1.315 0-.54-.149-.97-.44-1.278-.293-.309-.704-.465-1.222-.465M84.66 79.326v-.65h-.795v-1.01l-.027.008-.746.232-.015.005v.765H81.9v-.426c0-.199.044-.351.13-.452a.456.456 0 0 1 .364-.151c.112 0 .228.027.345.08l.03.013v-.685l-.014-.005c-.11-.04-.258-.06-.441-.06-.232 0-.443.051-.626.153a1.078 1.078 0 0 0-.43.431 1.3 1.3 0 0 0-.152.633v.47h-.553v.65h.553v2.738h.794v-2.739h1.177v1.74c0 .717.333 1.08.99 1.08.107 0 .22-.012.336-.038a.917.917 0 0 0 .246-.079l.01-.006v-.656l-.032.022a.539.539 0 0 1-.16.07.6.6 0 0 1-.157.027c-.153 0-.267-.042-.338-.125-.071-.083-.107-.23-.107-.435v-1.6h.794"/>
        <path fill="#E34D22" d="M48.284 79.506h3.69v-3.75h-3.69z"/>
        <path fill="#6DBB29" d="M52.36 79.506h3.69v-3.75h-3.69z"/>
        <path fill="#F3BF00" d="M52.36 83.648h3.69v-3.75h-3.69z"/>
        <path fill="#4A90E2" d="M48.3 83.648h3.69v-3.75H48.3z"/>
        <path fill="#7F6D1F" d="M34.368 39.876a3.252 3.252 0 0 1-1.658.432 2.4 2.4 0 0 1-1.238-.32 2.134 2.134 0 0 1-.838-.901 2.883 2.883 0 0 1-.293-1.316c0-.772.24-1.41.722-1.912.48-.503 1.097-.755 1.847-.755.539 0 .991.09 1.357.267v.653c-.4-.26-.875-.39-1.423-.39a1.83 1.83 0 0 0-.975.265 1.802 1.802 0 0 0-.677.75 2.36 2.36 0 0 0-.244 1.076c0 .634.165 1.134.493 1.5.328.367.775.55 1.341.55.385 0 .72-.08 1.005-.239v-1.407h-1.084v-.533h1.665v2.28M38.25 38.43c0-.45-.098-.797-.295-1.038-.197-.24-.479-.361-.845-.361-.363 0-.651.123-.863.37-.212.247-.318.594-.318 1.044 0 .43.107.766.32 1.008.213.242.5.364.861.364.369 0 .65-.12.846-.358.196-.239.294-.582.294-1.028m.58-.021c0 .57-.16 1.03-.478 1.377-.319.347-.746.521-1.283.521-.523 0-.94-.17-1.252-.507-.312-.338-.468-.783-.468-1.335 0-.594.16-1.064.48-1.41.32-.344.761-.516 1.323-.516.525 0 .936.166 1.233.5.297.333.445.79.445 1.37M39.884 40.22h.567V34.9h-.567zM44.198 38.596v-.53c0-.297-.097-.544-.292-.74a.96.96 0 0 0-.71-.295.977.977 0 0 0-.81.384c-.201.256-.301.61-.301 1.065 0 .412.094.737.283.977.189.24.443.36.763.36a.972.972 0 0 0 .767-.344c.2-.23.3-.522.3-.877m.567 1.624h-.567v-.61h-.014c-.262.465-.667.698-1.215.698-.447 0-.802-.163-1.067-.49-.265-.326-.398-.761-.398-1.306 0-.595.147-1.072.44-1.432.294-.36.688-.54 1.18-.54.484 0 .837.194 1.06.582h.014V34.9h.567v5.32"/>
    </g>
</svg>
