<?xml version="1.0" encoding="UTF-8"?>
<svg width="156px" height="210px" viewBox="0 0 156 210" version="1.1" xmlns="http://www.w3.org/2000/svg" xmlns:xlink="http://www.w3.org/1999/xlink">
    <title>iPad_pro_105</title>
    <defs>
        <path d="M3.084,12 L3.084,3.54 L2.388,3.54 L0.336,4.248 L0.564,5.016 L2.148,4.524 L2.148,12 L3.084,12 Z M8.58,12.144 C10.74,12.144 12.132,10.152 12.132,7.8 L12.132,7.776 C12.132,5.424 10.764,3.456 8.604,3.456 C6.444,3.456 5.04,5.448 5.04,7.8 L5.04,7.824 C5.04,10.176 6.408,12.144 8.58,12.144 Z M8.604,11.28 C7.032,11.28 6.024,9.636 6.024,7.8 L6.024,7.776 C6.024,5.928 7.008,4.32 8.58,4.32 C10.14,4.32 11.148,5.964 11.148,7.8 L11.148,7.824 C11.148,9.66 10.176,11.28 8.604,11.28 Z M14.652,12 L14.652,10.74 L13.548,10.74 L13.548,12 L14.652,12 Z M22.008,12 L22.008,11.136 L17.556,11.136 L19.8,9.144 C21.276,7.86 21.924,7.104 21.924,5.88 L21.924,5.856 C21.924,4.488 20.832,3.48 19.32,3.48 C17.844,3.48 17.052,4.14 16.296,5.268 L16.992,5.772 C17.664,4.836 18.288,4.332 19.248,4.332 C20.16,4.332 20.94,4.956 20.94,5.94 C20.94,6.78 20.472,7.428 19.188,8.58 L16.14,11.268 L16.14,12 L22.008,12 Z" id="path-1"></path>
    </defs>
    <g id="iOS-Ad-Hoc-Builds" stroke="none" stroke-width="1" fill="none" fill-rule="evenodd">
        <g id="iPad_pro_102">
            <path d="M24,37.5 C20.9624339,37.5 18.5,39.9624339 18.5,43 L18.5,203 C18.5,206.037566 20.9624339,208.5 24,208.5 L132,208.5 C135.037566,208.5 137.5,206.037566 137.5,203 L137.5,43 C137.5,39.9624339 135.037566,37.5 132,37.5 L24,37.5 Z" id="Rectangle" stroke="#92A1AE" fill="#FFFFFF" fill-rule="nonzero"></path>
            <path d="M23,49.5 C22.7238576,49.5 22.5,49.7238576 22.5,50 L22.5,193 C22.5,193.276142 22.7238576,193.5 23,193.5 L133,193.5 C133.276142,193.5 133.5,193.276142 133.5,193 L133.5,50 C133.5,49.7238576 133.276142,49.5 133,49.5 L23,49.5 Z" id="Rectangle" stroke="#92A1AE" fill-opacity="0.15" fill="#92A1AE" fill-rule="nonzero"></path>
            <path d="M78,45 C78.5522847,45 79,44.5522847 79,44 C79,43.4477153 78.5522847,43 78,43 C77.4477153,43 77,43.4477153 77,44 C77,44.5522847 77.4477153,45 78,45 Z" id="Oval" fill="#92A1AE" fill-rule="nonzero"></path>
            <circle id="Oval" stroke="#92A1AE" cx="78" cy="201" r="3.5"></circle>
            <g id="Group-36" transform="translate(67.000000, 114.000000)" fill-rule="nonzero">
                <g id="10.2">
                    <use fill="#000000" xlink:href="#path-1"></use>
                    <use fill="#92A1AE" xlink:href="#path-1"></use>
                </g>
                <path d="M24.5,3 L26,3 L25,6 L24,6 L24.5,3 Z M26.5,3 L28,3 L27,6 L26,6 L26.5,3 Z" id="Shape" fill="#92A1AE"></path>
            </g>
        </g>
    </g>
</svg>