<?xml version="1.0" encoding="UTF-8"?>
<svg width="156px" height="210px" viewBox="0 0 156 210" version="1.1" xmlns="http://www.w3.org/2000/svg" xmlns:xlink="http://www.w3.org/1999/xlink">
    <title>iPad_pro_129</title>
    <defs>
        <path d="M3.084,12 L3.084,3.54 L2.388,3.54 L0.336,4.248 L0.564,5.016 L2.148,4.524 L2.148,12 L3.084,12 Z M10.74,12 L10.74,11.136 L6.288,11.136 L8.532,9.144 C10.008,7.86 10.656,7.104 10.656,5.88 L10.656,5.856 C10.656,4.488 9.564,3.48 8.052,3.48 C6.576,3.48 5.784,4.14 5.028,5.268 L5.724,5.772 C6.396,4.836 7.02,4.332 7.98,4.332 C8.892,4.332 9.672,4.956 9.672,5.94 C9.672,6.78 9.204,7.428 7.92,8.58 L4.872,11.268 L4.872,12 L10.74,12 Z M13.5,12 L13.5,10.74 L12.396,10.74 L12.396,12 L13.5,12 Z M17.952,12.144 C20.028,12.144 21.444,10.26 21.444,7.596 L21.444,7.572 C21.444,5.892 21.036,4.956 20.4,4.32 C19.86,3.78 19.152,3.456 18.192,3.456 C16.404,3.456 15.168,4.716 15.168,6.312 L15.168,6.336 C15.168,7.848 16.368,8.94 18.096,8.94 C19.176,8.94 19.944,8.424 20.472,7.608 L20.472,7.776 C20.472,9.588 19.596,11.28 17.976,11.28 C17.232,11.28 16.596,10.98 15.912,10.38 L15.36,11.112 C16.068,11.7 16.86,12.144 17.952,12.144 Z M18.204,8.124 C16.98,8.124 16.14,7.356 16.14,6.288 L16.14,6.264 C16.14,5.22 16.896,4.296 18.156,4.296 C19.416,4.296 20.292,5.136 20.292,6.204 L20.292,6.228 C20.292,7.188 19.488,8.124 18.204,8.124 Z" id="path-1"></path>
    </defs>
    <g id="iOS-Ad-Hoc-Builds" stroke="none" stroke-width="1" fill="none" fill-rule="evenodd">
        <g id="iPad_pro_129">
            <g id="Group" transform="translate(17.500000, 13.500000)">
                <path d="M6,0 L129,0 C132.313708,2.79460044e-16 135,2.6862915 135,6 L135,181 C135,184.313708 132.313708,187 129,187 L6,187 C2.6862915,187 4.05812251e-16,184.313708 0,181 L0,6 C-4.05812251e-16,2.6862915 2.6862915,6.08718376e-16 6,0 Z" id="Rectangle" stroke="#92A1AE" fill="#FFFFFF" fill-rule="nonzero"></path>
                <path d="M8,15 L127,15 C127.552285,15 128,15.4477153 128,16 L128,171 C128,171.552285 127.552285,172 127,172 L8,172 C7.44771525,172 7,171.552285 7,171 L7,16 C7,15.4477153 7.44771525,15 8,15 Z" id="Rectangle" stroke="#92A1AE" fill-opacity="0.15" fill="#92A1AE" fill-rule="nonzero"></path>
                <g id="Group-36" transform="translate(56.500000, 79.500000)" fill="#92A1AE" fill-rule="nonzero">
                    <g id="9.7" font-family="Gotham-Book, Gotham" font-size="12" font-weight="normal">
                        <text id="12.9">
                            <tspan x="0" y="12">12.9</tspan>
                        </text>
                    </g>
                    <path d="M23.5,3 L25,3 L24,6 L23,6 L23.5,3 Z M25.5,3 L27,3 L26,6 L25,6 L25.5,3 Z" id="Shape"></path>
                </g>
                <path d="M70.5,8.5 C71.0522847,8.5 71.5,8.05228475 71.5,7.5 C71.5,6.94771525 71.0522847,6.5 70.5,6.5 C69.9477153,6.5 69.5,6.94771525 69.5,7.5 C69.5,8.05228475 69.9477153,8.5 70.5,8.5 Z" id="Oval" fill="#92A1AE" fill-rule="nonzero"></path>
                <circle id="Oval" stroke="#92A1AE" cx="70.5" cy="179.5" r="3.5"></circle>
            </g>
            <g id="Group-2" transform="translate(2.500000, 37.500000)" fill-rule="nonzero">
                <path d="M5.5,0 C2.46243388,0 0,2.46243388 0,5.5 L0,165.5 C0,168.537566 2.46243388,171 5.5,171 L119.5,171 C122.537566,171 125,168.537566 125,165.5 L125,5.5 C125,2.46243388 122.537566,0 119.5,0 L5.5,0 Z" id="Rectangle" stroke="#92A1AE" fill="#FFFFFF"></path>
                <path d="M8.5,5 C6.56700338,5 5,6.56700338 5,8.5 L5,162.5 C5,164.432997 6.56700338,166 8.5,166 L116.5,166 C118.432997,166 120,164.432997 120,162.5 L120,8.5 C120,6.56700338 118.432997,5 116.5,5 L8.5,5 Z" id="Rectangle" stroke="#92A1AE" fill-opacity="0.15" fill="#92A1AE"></path>
                <g id="Group-36" transform="translate(50.500000, 76.500000)">
                    <g id="12.9">
                        <use fill="#000000" xlink:href="#path-1"></use>
                        <use fill="#92A1AE" xlink:href="#path-1"></use>
                    </g>
                    <path d="M25.5,3 L27,3 L26,6 L25,6 L25.5,3 Z M27.5,3 L29,3 L28,6 L27,6 L27.5,3 Z" id="Shape" fill="#92A1AE"></path>
                </g>
            </g>
        </g>
    </g>
</svg>