<?xml version="1.0" encoding="UTF-8"?>
<svg width="156px" height="210px" viewBox="0 0 156 210" version="1.1" xmlns="http://www.w3.org/2000/svg" xmlns:xlink="http://www.w3.org/1999/xlink">
    <title>iPad_pro_105</title>
    <defs>
        <path d="M3.084,12 L3.084,3.54 L2.388,3.54 L0.336,4.248 L0.564,5.016 L2.148,4.524 L2.148,12 L3.084,12 Z M8.58,12.144 C10.74,12.144 12.132,10.152 12.132,7.8 L12.132,7.776 C12.132,5.424 10.764,3.456 8.604,3.456 C6.444,3.456 5.04,5.448 5.04,7.8 L5.04,7.824 C5.04,10.176 6.408,12.144 8.58,12.144 Z M8.604,11.28 C7.032,11.28 6.024,9.636 6.024,7.8 L6.024,7.776 C6.024,5.928 7.008,4.32 8.58,4.32 C10.14,4.32 11.148,5.964 11.148,7.8 L11.148,7.824 C11.148,9.66 10.176,11.28 8.604,11.28 Z M14.652,12 L14.652,10.74 L13.548,10.74 L13.548,12 L14.652,12 Z M19.2,12.144 C20.952,12.144 22.2,11.028 22.2,9.384 L22.2,9.36 C22.2,7.764 20.928,6.792 19.296,6.792 C18.6,6.792 18.132,6.948 17.64,7.164 L17.82,4.476 L21.828,4.476 L21.828,3.6 L16.992,3.6 L16.752,7.692 L17.388,8.112 C17.88,7.848 18.444,7.632 19.152,7.632 C20.376,7.632 21.24,8.352 21.24,9.396 L21.24,9.42 C21.24,10.488 20.412,11.28 19.212,11.28 C18.36,11.28 17.556,10.836 16.824,10.128 L16.2,10.812 C16.956,11.568 18,12.144 19.2,12.144 Z" id="path-1"></path>
    </defs>
    <g id="iOS-Ad-Hoc-Builds" stroke="none" stroke-width="1" fill="none" fill-rule="evenodd">
        <g id="iPad_pro_105">
            <path d="M22,34.5 C18.9624339,34.5 16.5,36.9624339 16.5,40 L16.5,203 C16.5,206.037566 18.9624339,208.5 22,208.5 L134,208.5 C137.037566,208.5 139.5,206.037566 139.5,203 L139.5,40 C139.5,36.9624339 137.037566,34.5 134,34.5 L22,34.5 Z" id="Rectangle" stroke="#92A1AE" fill="#FFFFFF" fill-rule="nonzero"></path>
            <path d="M21,46.5 C20.7238576,46.5 20.5,46.7238576 20.5,47 L20.5,193 C20.5,193.276142 20.7238576,193.5 21,193.5 L135,193.5 C135.276142,193.5 135.5,193.276142 135.5,193 L135.5,47 C135.5,46.7238576 135.276142,46.5 135,46.5 L21,46.5 Z" id="Rectangle" stroke="#92A1AE" fill-opacity="0.15" fill="#92A1AE" fill-rule="nonzero"></path>
            <circle id="Oval" fill="#92A1AE" fill-rule="nonzero" cx="78" cy="41" r="1"></circle>
            <circle id="Oval" stroke="#92A1AE" cx="78" cy="201" r="3.5"></circle>
            <g id="Group-36" transform="translate(67.000000, 114.000000)" fill-rule="nonzero">
                <g id="10.5">
                    <use fill="#000000" xlink:href="#path-1"></use>
                    <use fill="#92A1AE" xlink:href="#path-1"></use>
                </g>
                <path d="M24.5,3 L26,3 L25,6 L24,6 L24.5,3 Z M26.5,3 L28,3 L27,6 L26,6 L26.5,3 Z" id="Shape" fill="#92A1AE"></path>
            </g>
        </g>
    </g>
</svg>