<?xml version="1.0" encoding="UTF-8"?>
<svg width="156px" height="211px" viewBox="0 0 156 211" version="1.1" xmlns="http://www.w3.org/2000/svg" xmlns:xlink="http://www.w3.org/1999/xlink">
    <title>iPad</title>
    <defs>
        <path d="M4.05200001,12.144 C6.12800001,12.144 7.54400001,10.26 7.54400001,7.596 L7.54400001,7.572 C7.54400001,5.892 7.13600001,4.956 6.50000001,4.32 C5.96000001,3.78 5.25200001,3.456 4.29200001,3.456 C2.50400001,3.456 1.26800001,4.716 1.26800001,6.312 L1.26800001,6.336 C1.26800001,7.848 2.46800001,8.94 4.19600001,8.94 C5.27600001,8.94 6.04400001,8.424 6.57200001,7.608 L6.57200001,7.776 C6.57200001,9.588 5.69600001,11.28 4.07600001,11.28 C3.33200001,11.28 2.69600001,10.98 2.01200001,10.38 L1.46000001,11.112 C2.16800001,11.7 2.96000001,12.144 4.05200001,12.144 Z M4.30400001,8.124 C3.08000001,8.124 2.24000001,7.356 2.24000001,6.288 L2.24000001,6.264 C2.24000001,5.22 2.99600001,4.296 4.25600001,4.296 C5.51600001,4.296 6.39200001,5.136 6.39200001,6.204 L6.39200001,6.228 C6.39200001,7.188 5.58800001,8.124 4.30400001,8.124 Z M10.172,12 L10.172,10.74 L9.06800001,10.74 L9.06800001,12 L10.172,12 Z" id="path-1"></path>
        <polygon id="path-2" points="13.392 12 17.208 4.308 17.208 3.6 11.508 3.6 11.508 4.464 16.128 4.464 12.336 12"></polygon>
        <path d="M2.7,12 L6.516,4.308 L6.516,3.6 L0.816,3.6 L0.816,4.464 L5.436,4.464 L1.644,12 L2.7,12 Z M7.968,12 L7.968,10.74 L6.864,10.74 L6.864,12 L7.968,12 Z M12.42,12.144 C14.496,12.144 15.912,10.26 15.912,7.596 L15.912,7.572 C15.912,5.892 15.504,4.956 14.868,4.32 C14.328,3.78 13.62,3.456 12.66,3.456 C10.872,3.456 9.636,4.716 9.636,6.312 L9.636,6.336 C9.636,7.848 10.836,8.94 12.564,8.94 C13.644,8.94 14.412,8.424 14.94,7.608 L14.94,7.776 C14.94,9.588 14.064,11.28 12.444,11.28 C11.7,11.28 11.064,10.98 10.38,10.38 L9.828,11.112 C10.536,11.7 11.328,12.144 12.42,12.144 Z M12.672,8.124 C11.448,8.124 10.608,7.356 10.608,6.288 L10.608,6.264 C10.608,5.22 11.364,4.296 12.624,4.296 C13.884,4.296 14.76,5.136 14.76,6.204 L14.76,6.228 C14.76,7.188 13.956,8.124 12.672,8.124 Z" id="path-3"></path>
    </defs>
    <g id="iOS-Ad-Hoc-Builds" stroke="none" stroke-width="1" fill="none" fill-rule="evenodd">
        <g id="iPad">
            <g id="Group-37" transform="translate(27.000000, 27.000000)">
                <path d="M6,0.5 C2.96243388,0.5 0.5,2.96243388 0.5,6 L0.5,169 C0.5,172.037566 2.96243388,174.5 6,174.5 L118,174.5 C121.037566,174.5 123.5,172.037566 123.5,169 L123.5,6 C123.5,2.96243388 121.037566,0.5 118,0.5 L6,0.5 Z" id="Rectangle" stroke="#92A1AE" fill="#FFFFFF" fill-rule="nonzero"></path>
                <path d="M8,15.5 C7.72385763,15.5 7.5,15.7238576 7.5,16 L7.5,159 C7.5,159.276142 7.72385763,159.5 8,159.5 L116,159.5 C116.276142,159.5 116.5,159.276142 116.5,159 L116.5,16 C116.5,15.7238576 116.276142,15.5 116,15.5 L8,15.5 Z" id="Rectangle" stroke="#92A1AE" fill-opacity="0.15" fill="#92A1AE" fill-rule="nonzero"></path>
                <circle id="Oval" fill="#92A1AE" fill-rule="nonzero" cx="62" cy="8" r="1"></circle>
                <circle id="Oval" stroke="#92A1AE" cx="62" cy="167" r="3.5"></circle>
                <g id="Group-36" transform="translate(90.000000, 19.000000)" fill-rule="nonzero">
                    <g id="9.7">
                        <g id="9.">
                            <use fill="#000000" xlink:href="#path-1"></use>
                            <use fill="#92A1AE" xlink:href="#path-1"></use>
                        </g>
                        <g id="7">
                            <use fill="#000000" xlink:href="#path-2"></use>
                            <use fill="#92A1AE" xlink:href="#path-2"></use>
                        </g>
                    </g>
                    <path d="M19.5,3 L21,3 L20,6 L19,6 L19.5,3 Z M21.5,3 L23,3 L22,6 L21,6 L21.5,3 Z" id="Shape" fill="#92A1AE"></path>
                </g>
            </g>
            <g id="Group-37" transform="translate(6.000000, 58.000000)">
                <path d="M6,0.5 C2.96243388,0.5 0.5,2.96243388 0.5,6 L0.5,146 C0.5,149.037566 2.96243388,151.5 6,151.5 L100,151.5 C103.037566,151.5 105.5,149.037566 105.5,146 L105.5,6 C105.5,2.96243388 103.037566,0.5 100,0.5 L6,0.5 Z" id="Rectangle" stroke="#92A1AE" fill="#FFFFFF" fill-rule="nonzero"></path>
                <path d="M8,15.5 C7.72385763,15.5 7.5,15.7238576 7.5,16 L7.5,136 C7.5,136.276142 7.72385763,136.5 8,136.5 L98,136.5 C98.2761424,136.5 98.5,136.276142 98.5,136 L98.5,16 C98.5,15.7238576 98.2761424,15.5 98,15.5 L8,15.5 Z" id="Rectangle" stroke="#92A1AE" fill-opacity="0.15" fill="#92A1AE" fill-rule="nonzero"></path>
                <circle id="Oval" fill="#92A1AE" fill-rule="nonzero" cx="53" cy="8" r="1"></circle>
                <circle id="Oval" stroke="#92A1AE" cx="53" cy="144" r="3.5"></circle>
                <g id="Group-36" transform="translate(46.000000, 67.000000)" fill-rule="nonzero">
                    <g id="7.9">
                        <use fill="#000000" xlink:href="#path-3"></use>
                        <use fill="#92A1AE" xlink:href="#path-3"></use>
                    </g>
                    <path d="M18.5,3 L20,3 L19,6 L18,6 L18.5,3 Z M20.5,3 L22,3 L21,6 L20,6 L20.5,3 Z" id="Shape" fill="#92A1AE"></path>
                </g>
            </g>
        </g>
    </g>
</svg>