<?xml version="1.0" encoding="UTF-8"?>
<svg width="156px" height="210px" viewBox="0 0 156 210" version="1.1" xmlns="http://www.w3.org/2000/svg" xmlns:xlink="http://www.w3.org/1999/xlink">
    <title>iPad_Air</title>
    <defs>
        <path d="M3.084,12 L3.084,3.54 L2.388,3.54 L0.336,4.248 L0.564,5.016 L2.148,4.524 L2.148,12 L3.084,12 Z M8.58,12.144 C10.74,12.144 12.132,10.152 12.132,7.8 L12.132,7.776 C12.132,5.424 10.764,3.456 8.604,3.456 C6.444,3.456 5.04,5.448 5.04,7.8 L5.04,7.824 C5.04,10.176 6.408,12.144 8.58,12.144 Z M8.604,11.28 C7.032,11.28 6.024,9.636 6.024,7.8 L6.024,7.776 C6.024,5.928 7.008,4.32 8.58,4.32 C10.14,4.32 11.148,5.964 11.148,7.8 L11.148,7.824 C11.148,9.66 10.176,11.28 8.604,11.28 Z M14.652,12 L14.652,10.74 L13.548,10.74 L13.548,12 L14.652,12 Z M19.104,12.144 C21.18,12.144 22.596,10.26 22.596,7.596 L22.596,7.572 C22.596,5.892 22.188,4.956 21.552,4.32 C21.012,3.78 20.304,3.456 19.344,3.456 C17.556,3.456 16.32,4.716 16.32,6.312 L16.32,6.336 C16.32,7.848 17.52,8.94 19.248,8.94 C20.328,8.94 21.096,8.424 21.624,7.608 L21.624,7.776 C21.624,9.588 20.748,11.28 19.128,11.28 C18.384,11.28 17.748,10.98 17.064,10.38 L16.512,11.112 C17.22,11.7 18.012,12.144 19.104,12.144 Z M19.356,8.124 C18.132,8.124 17.292,7.356 17.292,6.288 L17.292,6.264 C17.292,5.22 18.048,4.296 19.308,4.296 C20.568,4.296 21.444,5.136 21.444,6.204 L21.444,6.228 C21.444,7.188 20.64,8.124 19.356,8.124 Z" id="path-1"></path>
    </defs>
    <g id="iOS-Ad-Hoc-Builds" stroke="none" stroke-width="1" fill="none" fill-rule="evenodd">
        <g id="iPad_pro_110" fill-rule="nonzero">
            <path d="M22,34.5 C18.9624339,34.5 16.5,36.9624339 16.5,40 L16.5,203 C16.5,206.037566 18.9624339,208.5 22,208.5 L134,208.5 C137.037566,208.5 139.5,206.037566 139.5,203 L139.5,40 C139.5,36.9624339 137.037566,34.5 134,34.5 L22,34.5 Z" id="Rectangle" stroke="#92A1AE" fill="#FFFFFF"></path>
            <path d="M25,39.5 C23.0670034,39.5 21.5,41.0670034 21.5,43 L21.5,200 C21.5,201.932997 23.0670034,203.5 25,203.5 L131,203.5 C132.932997,203.5 134.5,201.932997 134.5,200 L134.5,43 C134.5,41.0670034 132.932997,39.5 131,39.5 L25,39.5 Z" id="Rectangle" stroke="#92A1AE" fill-opacity="0.15" fill="#92A1AE"></path>
            <g id="Group-36" transform="translate(65.000000, 114.000000)">
                <g id="10.9">
                    <use fill="#000000" xlink:href="#path-1"></use>
                    <use fill="#92A1AE" xlink:href="#path-1"></use>
                </g>
                <path d="M25.5,3 L27,3 L26,6 L25,6 L25.5,3 Z M27.5,3 L29,3 L28,6 L27,6 L27.5,3 Z" id="Shape" fill="#92A1AE"></path>
            </g>
        </g>
    </g>
</svg>