<?xml version="1.0" encoding="UTF-8"?>
<svg width="70px" height="140px" viewBox="0 0 70 140" version="1.1" xmlns="http://www.w3.org/2000/svg" xmlns:xlink="http://www.w3.org/1999/xlink">
    <title>iPhone_XR</title>
    <defs>
        <path d="M3.996,12.144 C5.7,12.144 7.008,10.968 7.008,9.348 L7.008,9.324 C7.008,7.752 5.664,6.744 4.104,6.744 C3.012,6.744 2.256,7.236 1.704,8.04 L1.704,7.92 C1.704,6.024 2.556,4.32 4.176,4.32 C4.944,4.32 5.532,4.62 6.156,5.148 L6.708,4.416 C5.976,3.816 5.232,3.456 4.224,3.456 C2.028,3.456 0.732,5.46 0.732,8.016 L0.732,8.04 C0.732,9.756 1.116,10.62 1.788,11.292 C2.316,11.82 3.072,12.144 3.996,12.144 Z M4.008,11.304 C2.772,11.304 1.884,10.488 1.884,9.42 L1.884,9.396 C1.884,8.46 2.724,7.56 3.984,7.56 C5.196,7.56 6.036,8.328 6.036,9.36 L6.036,9.384 C6.036,10.452 5.244,11.304 4.008,11.304 Z M9.78,12 L9.78,10.74 L8.676,10.74 L8.676,12 L9.78,12 Z M13.176,12 L13.176,3.54 L12.48,3.54 L10.428,4.248 L10.656,5.016 L12.24,4.524 L12.24,12 L13.176,12 Z" id="path-1"></path>
    </defs>
    <g id="iOS-Ad-Hoc-Builds" stroke="none" stroke-width="1" fill="none" fill-rule="evenodd">
        <g id="iPhone_XR_11_12" fill-rule="nonzero">
            <path d="M14,23.5 C10.9624339,23.5 8.5,25.962434 8.5,29 L8.5,133 C8.5,136.037566 10.9624339,138.5 14,138.5 L56,138.5 C59.037566,138.5 61.5,136.037566 61.5,133 L61.5,29 C61.5,25.962434 59.037566,23.5 56,23.5 L14,23.5 Z" id="Rectangle" stroke="#92A1AE" fill="#FFFFFF"></path>
            <path d="M22.5,27 C22.5,26.723858 22.2761424,26.5 22,26.5 L15,26.5 C13.0670034,26.5 11.5,28.067003 11.5,30 L11.5,132 C11.5,133.932997 13.0670034,135.5 15,135.5 L55,135.5 C56.932997,135.5 58.5,133.932997 58.5,132 L58.5,30 C58.5,28.067003 56.932997,26.5 55,26.5 L48,26.5 C47.7238576,26.5 47.5,26.723858 47.5,27 L47.5,27.5 C47.5,28.604569 46.6045695,29.5 45.5,29.5 L24.5,29.5 C23.3954305,29.5 22.5,28.604569 22.5,27.5 L22.5,27 Z" id="Path" stroke="#92A1AE" fill-opacity="0.15" fill="#92A1AE"></path>
            <path d="M31,27.5 C30.4477153,27.5 30,27.052285 30,26.5 C30,25.947715 30.4477153,25.5 31,25.5 C31.5522847,25.5 32,25.947715 32,26.5 C32,27.052285 31.5522847,27.5 31,27.5 Z M33.5,26 L40.5,26 C40.7761424,26 41,26.223858 41,26.5 C41,26.776142 40.7761424,27 40.5,27 L33.5,27 C33.2238576,27 33,26.776142 33,26.5 C33,26.223858 33.2238576,26 33.5,26 Z" id="Combined-Shape" fill="#92A1AE" transform="translate(35.500000, 26.500000) scale(-1, 1) translate(-35.500000, -26.500000) "></path>
            <g id="Group-36" transform="translate(27.000000, 73.000000)">
                <g id="6.1">
                    <use fill="#000000" xlink:href="#path-1"></use>
                    <use fill="#92A1AE" xlink:href="#path-1"></use>
                </g>
                <path d="M16.5,3 L18,3 L17,6 L16,6 L16.5,3 Z M18.5,3 L20,3 L19,6 L18,6 L18.5,3 Z" id="Shape" fill="#92A1AE"></path>
            </g>
        </g>
    </g>
</svg>