<?xml version="1.0" encoding="UTF-8"?>
<svg width="70px" height="140px" viewBox="0 0 70 140" version="1.1" xmlns="http://www.w3.org/2000/svg" xmlns:xlink="http://www.w3.org/1999/xlink">
    <title>iPhone_X</title>
    <defs>
        <path d="M3.636,12.144 C5.388,12.144 6.636,11.028 6.636,9.384 L6.636,9.36 C6.636,7.764 5.364,6.792 3.732,6.792 C3.036,6.792 2.568,6.948 2.076,7.164 L2.256,4.476 L6.264,4.476 L6.264,3.6 L1.428,3.6 L1.188,7.692 L1.824,8.112 C2.316,7.848 2.88,7.632 3.588,7.632 C4.812,7.632 5.676,8.352 5.676,9.396 L5.676,9.42 C5.676,10.488 4.848,11.28 3.648,11.28 C2.796,11.28 1.992,10.836 1.26,10.128 L0.636,10.812 C1.392,11.568 2.436,12.144 3.636,12.144 Z M9.36,12 L9.36,10.74 L8.256,10.74 L8.256,12 L9.36,12 Z M14.052,12.12 C15.84,12.12 17.208,11.16 17.208,9.732 L17.208,9.708 C17.208,8.712 16.476,8.028 15.48,7.656 C16.26,7.296 16.92,6.696 16.92,5.724 L16.92,5.7 C16.92,4.404 15.588,3.48 14.052,3.48 C12.516,3.48 11.184,4.404 11.184,5.7 L11.184,5.724 C11.184,6.696 11.844,7.296 12.624,7.656 C11.616,8.016 10.896,8.724 10.896,9.72 L10.896,9.744 C10.896,11.148 12.264,12.12 14.052,12.12 Z M14.052,7.32 C12.984,7.32 12.132,6.696 12.132,5.784 L12.132,5.76 C12.132,4.92 12.96,4.308 14.052,4.308 C15.144,4.308 15.972,4.932 15.972,5.76 L15.972,5.784 C15.972,6.696 15.12,7.32 14.052,7.32 Z M14.052,11.292 C12.672,11.292 11.856,10.572 11.856,9.72 L11.856,9.696 C11.856,8.76 12.828,8.1 14.052,8.1 C15.276,8.1 16.248,8.76 16.248,9.696 L16.248,9.72 C16.248,10.572 15.432,11.292 14.052,11.292 Z" id="path-1"></path>
    </defs>
    <g id="iOS-Ad-Hoc-Builds" stroke="none" stroke-width="1" fill="none" fill-rule="evenodd">
        <g id="iPhone_X_XS" fill-rule="nonzero">
            <path d="M15,29.5 C11.9624339,29.5 9.5,31.962434 9.5,35 L9.5,133 C9.5,136.037566 11.9624339,138.5 15,138.5 L55,138.5 C58.037566,138.5 60.5,136.037566 60.5,133 L60.5,35 C60.5,31.962434 58.037566,29.5 55,29.5 L15,29.5 Z" id="Rectangle" stroke="#92A1AE" fill="#FFFFFF"></path>
            <path d="M23,32.5 L16,32.5 C14.0670034,32.5 12.5,34.067003 12.5,36 L12.5,132 C12.5,133.932997 14.0670034,135.5 16,135.5 L54,135.5 C55.932997,135.5 57.5,133.932997 57.5,132 L57.5,36 C57.5,34.067003 55.932997,32.5 54,32.5 L47,32.5 C46.7238576,32.5 46.5,32.723858 46.5,33 L46.5,33.5 C46.5,34.604569 45.6045695,35.5 44.5,35.5 L25.5,35.5 C24.3954305,35.5 23.5,34.604569 23.5,33.5 L23.5,33 C23.5,32.723858 23.2761424,32.5 23,32.5 Z" id="Path" stroke="#92A1AE" fill-opacity="0.15" fill="#92A1AE"></path>
            <path d="M31,33.5 C30.4477153,33.5 30,33.052285 30,32.5 C30,31.947715 30.4477153,31.5 31,31.5 C31.5522847,31.5 32,31.947715 32,32.5 C32,33.052285 31.5522847,33.5 31,33.5 Z M33.5,32 L40.5,32 C40.7761424,32 41,32.223858 41,32.5 C41,32.776142 40.7761424,33 40.5,33 L33.5,33 C33.2238576,33 33,32.776142 33,32.5 C33,32.223858 33.2238576,32 33.5,32 Z" id="Combined-Shape" fill="#92A1AE" transform="translate(35.500000, 32.500000) scale(-1, 1) translate(-35.500000, -32.500000) "></path>
            <g id="Group-36" transform="translate(25.000000, 76.000000)">
                <g id="5.8">
                    <use fill="#000000" xlink:href="#path-1"></use>
                    <use fill="#92A1AE" xlink:href="#path-1"></use>
                </g>
                <path d="M19.5,3 L21,3 L20,6 L19,6 L19.5,3 Z M21.5,3 L23,3 L22,6 L21,6 L21.5,3 Z" id="Shape" fill="#92A1AE"></path>
            </g>
        </g>
    </g>
</svg>