<?xml version="1.0" encoding="UTF-8"?>
<svg width="70px" height="140px" viewBox="0 0 70 140" version="1.1" xmlns="http://www.w3.org/2000/svg" xmlns:xlink="http://www.w3.org/1999/xlink">
    <title>iPhone_12_Pro_Max</title>
    <defs>
        <path d="M3.996,12.144 C5.7,12.144 7.008,10.968 7.008,9.348 L7.008,9.324 C7.008,7.752 5.664,6.744 4.104,6.744 C3.012,6.744 2.256,7.236 1.704,8.04 L1.704,7.92 C1.704,6.024 2.556,4.32 4.176,4.32 C4.944,4.32 5.532,4.62 6.156,5.148 L6.708,4.416 C5.976,3.816 5.232,3.456 4.224,3.456 C2.028,3.456 0.732,5.46 0.732,8.016 L0.732,8.04 C0.732,9.756 1.116,10.62 1.788,11.292 C2.316,11.82 3.072,12.144 3.996,12.144 Z M4.008,11.304 C2.772,11.304 1.884,10.488 1.884,9.42 L1.884,9.396 C1.884,8.46 2.724,7.56 3.984,7.56 C5.196,7.56 6.036,8.328 6.036,9.36 L6.036,9.384 C6.036,10.452 5.244,11.304 4.008,11.304 Z M9.78,12 L9.78,10.74 L8.676,10.74 L8.676,12 L9.78,12 Z M13.152,12 L16.968,4.308 L16.968,3.6 L11.268,3.6 L11.268,4.464 L15.888,4.464 L12.096,12 L13.152,12 Z" id="path-1"></path>
    </defs>
    <g id="iOS-Ad-Hoc-Builds" stroke="none" stroke-width="1" fill="none" fill-rule="evenodd">
        <g id="iPhone_12_Pro_Max" fill-rule="nonzero">
            <path d="M10,11.5 C6.9624339,11.5 4.5,13.962434 4.5,17 L4.5,133 C4.5,136.037566 6.9624339,138.5 10,138.5 L60,138.5 C63.037566,138.5 65.5,136.037566 65.5,133 L65.5,17 C65.5,13.962434 63.037566,11.5 60,11.5 L10,11.5 Z" id="Rectangle" stroke="#92A1AE" fill="#FFFFFF"></path>
            <path d="M20,14.5 L11,14.5 C9.0670034,14.5 7.5,16.067003 7.5,18 L7.5,132 C7.5,133.932997 9.0670034,135.5 11,135.5 L59,135.5 C60.932997,135.5 62.5,133.932997 62.5,132 L62.5,18 C62.5,16.067003 60.932997,14.5 59,14.5 L50,14.5 C49.7238576,14.5 49.5,14.723858 49.5,15 L49.5,15.5 C49.5,16.604569 48.6045695,17.5 47.5,17.5 L22.5,17.5 C21.3954305,17.5 20.5,16.604569 20.5,15.5 L20.5,15 C20.5,14.723858 20.2761424,14.5 20,14.5 Z" id="Path" stroke="#92A1AE" fill-opacity="0.15" fill="#92A1AE"></path>
            <path d="M31,15.5 C30.4477153,15.5 30,15.052285 30,14.5 C30,13.947715 30.4477153,13.5 31,13.5 C31.5522847,13.5 32,13.947715 32,14.5 C32,15.052285 31.5522847,15.5 31,15.5 Z M33.5,14 L40.5,14 C40.7761424,14 41,14.223858 41,14.5 C41,14.776142 40.7761424,15 40.5,15 L33.5,15 C33.2238576,15 33,14.776142 33,14.5 C33,14.223858 33.2238576,14 33.5,14 Z" id="Combined-Shape" fill="#92A1AE" transform="translate(35.500000, 14.500000) scale(-1, 1) translate(-35.500000, -14.500000) "></path>
            <g id="Group-36" transform="translate(26.000000, 70.000000)">
                <g id="6.7">
                    <use fill="#000000" xlink:href="#path-1"></use>
                    <use fill="#92A1AE" xlink:href="#path-1"></use>
                </g>
                <path d="M19.5,3 L21,3 L20,6 L19,6 L19.5,3 Z M21.5,3 L23,3 L22,6 L21,6 L21.5,3 Z" id="Shape" fill="#92A1AE"></path>
            </g>
        </g>
    </g>
</svg>