<?xml version="1.0" encoding="UTF-8"?>
<svg width="70px" height="140px" viewBox="0 0 70 140" version="1.1" xmlns="http://www.w3.org/2000/svg" xmlns:xlink="http://www.w3.org/1999/xlink">
    <title>iPhone_XS_max</title>
    <defs>
        <path d="M3.996,12.144 C5.7,12.144 7.008,10.968 7.008,9.348 L7.008,9.324 C7.008,7.752 5.664,6.744 4.104,6.744 C3.012,6.744 2.256,7.236 1.704,8.04 L1.704,7.92 C1.704,6.024 2.556,4.32 4.176,4.32 C4.944,4.32 5.532,4.62 6.156,5.148 L6.708,4.416 C5.976,3.816 5.232,3.456 4.224,3.456 C2.028,3.456 0.732,5.46 0.732,8.016 L0.732,8.04 C0.732,9.756 1.116,10.62 1.788,11.292 C2.316,11.82 3.072,12.144 3.996,12.144 Z M4.008,11.304 C2.772,11.304 1.884,10.488 1.884,9.42 L1.884,9.396 C1.884,8.46 2.724,7.56 3.984,7.56 C5.196,7.56 6.036,8.328 6.036,9.36 L6.036,9.384 C6.036,10.452 5.244,11.304 4.008,11.304 Z M9.78,12 L9.78,10.74 L8.676,10.74 L8.676,12 L9.78,12 Z M14.328,12.144 C16.08,12.144 17.328,11.028 17.328,9.384 L17.328,9.36 C17.328,7.764 16.056,6.792 14.424,6.792 C13.728,6.792 13.26,6.948 12.768,7.164 L12.948,4.476 L16.956,4.476 L16.956,3.6 L12.12,3.6 L11.88,7.692 L12.516,8.112 C13.008,7.848 13.572,7.632 14.28,7.632 C15.504,7.632 16.368,8.352 16.368,9.396 L16.368,9.42 C16.368,10.488 15.54,11.28 14.34,11.28 C13.488,11.28 12.684,10.836 11.952,10.128 L11.328,10.812 C12.084,11.568 13.128,12.144 14.328,12.144 Z" id="path-1"></path>
    </defs>
    <g id="iOS-Ad-Hoc-Builds" stroke="none" stroke-width="1" fill="none" fill-rule="evenodd">
        <g id="iPhone_XS_max" fill-rule="nonzero">
            <path d="M12,18.5 C8.9624339,18.5 6.5,20.962434 6.5,24 L6.5,133 C6.5,136.037566 8.9624339,138.5 12,138.5 L58,138.5 C61.037566,138.5 63.5,136.037566 63.5,133 L63.5,24 C63.5,20.962434 61.037566,18.5 58,18.5 L12,18.5 Z" id="Rectangle" stroke="#92A1AE" fill="#FFFFFF"></path>
            <path d="M20,21.5 L13,21.5 C11.0670034,21.5 9.5,23.067003 9.5,25 L9.5,132 C9.5,133.932997 11.0670034,135.5 13,135.5 L57,135.5 C58.932997,135.5 60.5,133.932997 60.5,132 L60.5,25 C60.5,23.067003 58.932997,21.5 57,21.5 L50,21.5 C49.7238576,21.5 49.5,21.723858 49.5,22 L49.5,22.5 C49.5,23.604569 48.6045695,24.5 47.5,24.5 L22.5,24.5 C21.3954305,24.5 20.5,23.604569 20.5,22.5 L20.5,22 C20.5,21.723858 20.2761424,21.5 20,21.5 Z" id="Path" stroke="#92A1AE" fill-opacity="0.15" fill="#92A1AE"></path>
            <path d="M31,22.5 C30.4477153,22.5 30,22.052285 30,21.5 C30,20.947715 30.4477153,20.5 31,20.5 C31.5522847,20.5 32,20.947715 32,21.5 C32,22.052285 31.5522847,22.5 31,22.5 Z M33.5,21 L40.5,21 C40.7761424,21 41,21.223858 41,21.5 C41,21.776142 40.7761424,22 40.5,22 L33.5,22 C33.2238576,22 33,21.776142 33,21.5 C33,21.223858 33.2238576,21 33.5,21 Z" id="Combined-Shape" fill="#92A1AE" transform="translate(35.500000, 21.500000) scale(-1, 1) translate(-35.500000, -21.500000) "></path>
            <g id="Group-36" transform="translate(26.000000, 70.000000)">
                <g id="6.5">
                    <use fill="#000000" xlink:href="#path-1"></use>
                    <use fill="#92A1AE" xlink:href="#path-1"></use>
                </g>
                <path d="M19.5,3 L21,3 L20,6 L19,6 L19.5,3 Z M21.5,3 L23,3 L22,6 L21,6 L21.5,3 Z" id="Shape" fill="#92A1AE"></path>
            </g>
        </g>
    </g>
</svg>