<?xml version="1.0" encoding="UTF-8"?>
<svg width="70px" height="140px" viewBox="0 0 70 140" version="1.1" xmlns="http://www.w3.org/2000/svg" xmlns:xlink="http://www.w3.org/1999/xlink">
    <title>iPhone_5_8</title>
    <defs>
        <path d="M6.096,12 L6.096,10.008 L7.404,10.008 L7.404,9.216 L6.096,9.216 L6.096,3.54 L5.268,3.54 L0.516,9.324 L0.756,10.008 L5.184,10.008 L5.184,12 L6.096,12 Z M5.184,9.216 L1.656,9.216 L5.184,4.884 L5.184,9.216 Z M10.068,12 L10.068,10.74 L8.964,10.74 L8.964,12 L10.068,12 Z M13.44,12 L17.256,4.308 L17.256,3.6 L11.556,3.6 L11.556,4.464 L16.176,4.464 L12.384,12 L13.44,12 Z" id="path-1"></path>
    </defs>
    <g id="iOS-Ad-Hoc-Builds" stroke="none" stroke-width="1" fill="none" fill-rule="evenodd">
        <g id="iPhone_6">
            <path d="M15,29.5 C11.9624339,29.5 9.5,31.9624339 9.5,35 L9.5,133 C9.5,136.037566 11.9624339,138.5 15,138.5 L55,138.5 C58.0375661,138.5 60.5,136.037566 60.5,133 L60.5,35 C60.5,31.9624339 58.0375661,29.5 55,29.5 L15,29.5 Z" id="Rectangle" stroke="#92A1AE" fill="#FFFFFF" fill-rule="nonzero"></path>
            <path d="M13,42.5 C12.7238576,42.5 12.5,42.7238576 12.5,43 L12.5,125 C12.5,125.276142 12.7238576,125.5 13,125.5 L57,125.5 C57.2761424,125.5 57.5,125.276142 57.5,125 L57.5,43 C57.5,42.7238576 57.2761424,42.5 57,42.5 L13,42.5 Z" id="Rectangle" stroke="#92A1AE" fill-opacity="0.15" fill="#92A1AE" fill-rule="nonzero"></path>
            <path d="M30,37.5 C29.4477153,37.5 29,37.0522847 29,36.5 C29,35.9477153 29.4477153,35.5 30,35.5 C30.5522847,35.5 31,35.9477153 31,36.5 C31,37.0522847 30.5522847,37.5 30,37.5 Z M34.5,36 L41.5,36 C41.7761424,36 42,36.2238576 42,36.5 C42,36.7761424 41.7761424,37 41.5,37 L34.5,37 C34.2238576,37 34,36.7761424 34,36.5 C34,36.2238576 34.2238576,36 34.5,36 Z" id="Combined-Shape" fill="#92A1AE" fill-rule="nonzero"></path>
            <circle id="Oval" stroke="#92A1AE" cx="35" cy="132" r="3.5"></circle>
            <g id="Group-36" transform="translate(26.000000, 76.000000)" fill-rule="nonzero">
                <g id="4.7">
                    <use fill="#000000" xlink:href="#path-1"></use>
                    <use fill="#92A1AE" xlink:href="#path-1"></use>
                </g>
                <path d="M19.5,3 L21,3 L20,6 L19,6 L19.5,3 Z M21.5,3 L23,3 L22,6 L21,6 L21.5,3 Z" id="Shape" fill="#92A1AE"></path>
            </g>
        </g>
    </g>
</svg>