<?xml version="1.0" encoding="UTF-8"?>
<svg width="70px" height="140px" viewBox="0 0 70 140" version="1.1" xmlns="http://www.w3.org/2000/svg" xmlns:xlink="http://www.w3.org/1999/xlink">
    <title>iPhone_6_7_8_Plus</title>
    <defs>
        <path d="M3.636,12.144 C5.388,12.144 6.636,11.028 6.636,9.384 L6.636,9.36 C6.636,7.764 5.364,6.792 3.732,6.792 C3.036,6.792 2.568,6.948 2.076,7.164 L2.256,4.476 L6.264,4.476 L6.264,3.6 L1.428,3.6 L1.188,7.692 L1.824,8.112 C2.316,7.848 2.88,7.632 3.588,7.632 C4.812,7.632 5.676,8.352 5.676,9.396 L5.676,9.42 C5.676,10.488 4.848,11.28 3.648,11.28 C2.796,11.28 1.992,10.836 1.26,10.128 L0.636,10.812 C1.392,11.568 2.436,12.144 3.636,12.144 Z M9.36,12 L9.36,10.74 L8.256,10.74 L8.256,12 L9.36,12 Z M13.908,12.144 C15.66,12.144 16.908,11.028 16.908,9.384 L16.908,9.36 C16.908,7.764 15.636,6.792 14.004,6.792 C13.308,6.792 12.84,6.948 12.348,7.164 L12.528,4.476 L16.536,4.476 L16.536,3.6 L11.7,3.6 L11.46,7.692 L12.096,8.112 C12.588,7.848 13.152,7.632 13.86,7.632 C15.084,7.632 15.948,8.352 15.948,9.396 L15.948,9.42 C15.948,10.488 15.12,11.28 13.92,11.28 C13.068,11.28 12.264,10.836 11.532,10.128 L10.908,10.812 C11.664,11.568 12.708,12.144 13.908,12.144 Z" id="path-1"></path>
    </defs>
    <g id="iOS-Ad-Hoc-Builds" stroke="none" stroke-width="1" fill="none" fill-rule="evenodd">
        <g id="iPhone_6_Plus">
            <path d="M14,25.5 C10.9624339,25.5 8.5,27.9624339 8.5,31 L8.5,133 C8.5,136.037566 10.9624339,138.5 14,138.5 L56,138.5 C59.0375661,138.5 61.5,136.037566 61.5,133 L61.5,31 C61.5,27.9624339 59.0375661,25.5 56,25.5 L14,25.5 Z" id="Rectangle" stroke="#92A1AE" fill="#FFFFFF" fill-rule="nonzero"></path>
            <path d="M12,38.5 C11.7238576,38.5 11.5,38.7238576 11.5,39 L11.5,125 C11.5,125.276142 11.7238576,125.5 12,125.5 L58,125.5 C58.2761424,125.5 58.5,125.276142 58.5,125 L58.5,39 C58.5,38.7238576 58.2761424,38.5 58,38.5 L12,38.5 Z" id="Rectangle" stroke="#92A1AE" fill-opacity="0.15" fill="#92A1AE" fill-rule="nonzero"></path>
            <path d="M30,32.5 C29.4477153,32.5 29,32.0522847 29,31.5 C29,30.9477153 29.4477153,30.5 30,30.5 C30.5522847,30.5 31,30.9477153 31,31.5 C31,32.0522847 30.5522847,32.5 30,32.5 Z M34.5,31 L41.5,31 C41.7761424,31 42,31.2238576 42,31.5 C42,31.7761424 41.7761424,32 41.5,32 L34.5,32 C34.2238576,32 34,31.7761424 34,31.5 C34,31.2238576 34.2238576,31 34.5,31 Z" id="Combined-Shape" fill="#92A1AE" fill-rule="nonzero"></path>
            <path d="M35,135.5 C36.9329966,135.5 38.5,133.932997 38.5,132 C38.5,130.067003 36.9329966,128.5 35,128.5 C33.0670034,128.5 31.5,130.067003 31.5,132 C31.5,133.932997 33.0670034,135.5 35,135.5 Z" id="Oval" stroke="#92A1AE"></path>
            <g id="Group-36" transform="translate(27.000000, 72.000000)" fill-rule="nonzero">
                <g id="5.5">
                    <use fill="#000000" xlink:href="#path-1"></use>
                    <use fill="#92A1AE" xlink:href="#path-1"></use>
                </g>
                <path d="M18.5,3 L20,3 L19,6 L18,6 L18.5,3 Z M20.5,3 L22,3 L21,6 L20,6 L20.5,3 Z" id="Shape" fill="#92A1AE"></path>
            </g>
        </g>
    </g>
</svg>