<?xml version="1.0" encoding="UTF-8"?>
<svg width="70px" height="140px" viewBox="0 0 70 140" version="1.1" xmlns="http://www.w3.org/2000/svg" xmlns:xlink="http://www.w3.org/1999/xlink">
    <title>iPhone_12_mini</title>
    <defs>
        <path d="M3.636,12.144 C5.388,12.144 6.636,11.028 6.636,9.384 L6.636,9.36 C6.636,7.764 5.364,6.792 3.732,6.792 C3.036,6.792 2.568,6.948 2.076,7.164 L2.256,4.476 L6.264,4.476 L6.264,3.6 L1.428,3.6 L1.188,7.692 L1.824,8.112 C2.316,7.848 2.88,7.632 3.588,7.632 C4.812,7.632 5.676,8.352 5.676,9.396 L5.676,9.42 C5.676,10.488 4.848,11.28 3.648,11.28 C2.796,11.28 1.992,10.836 1.26,10.128 L0.636,10.812 C1.392,11.568 2.436,12.144 3.636,12.144 Z M9.36,12 L9.36,10.74 L8.256,10.74 L8.256,12 L9.36,12 Z M16.368,12 L16.368,10.008 L17.676,10.008 L17.676,9.216 L16.368,9.216 L16.368,3.54 L15.54,3.54 L10.788,9.324 L11.028,10.008 L15.456,10.008 L15.456,12 L16.368,12 Z M15.456,9.216 L11.928,9.216 L15.456,4.884 L15.456,9.216 Z" id="path-1"></path>
    </defs>
    <g id="iOS-Ad-Hoc-Builds" stroke="none" stroke-width="1" fill="none" fill-rule="evenodd">
        <g id="iPhone_12_mini" fill-rule="nonzero">
            <path d="M17,34.5 C13.9624339,34.5 11.5,36.962434 11.5,40 L11.5,133 C11.5,136.037566 13.9624339,138.5 17,138.5 L53,138.5 C56.037566,138.5 58.5,136.037566 58.5,133 L58.5,40 C58.5,36.962434 56.037566,34.5 53,34.5 L17,34.5 Z" id="Rectangle" stroke="#92A1AE" fill="#FFFFFF"></path>
            <path d="M23,37.5 L18,37.5 C16.0670034,37.5 14.5,39.067003 14.5,41 L14.5,132 C14.5,133.932997 16.0670034,135.5 18,135.5 L52,135.5 C53.932997,135.5 55.5,133.932997 55.5,132 L55.5,41 C55.5,39.067003 53.932997,37.5 52,37.5 L47,37.5 C46.7238576,37.5 46.5,37.723858 46.5,38 L46.5,38.5 C46.5,39.604569 45.6045695,40.5 44.5,40.5 L25.5,40.5 C24.3954305,40.5 23.5,39.604569 23.5,38.5 L23.5,38 C23.5,37.723858 23.2761424,37.5 23,37.5 Z" id="Path" stroke="#92A1AE" fill-opacity="0.15" fill="#92A1AE"></path>
            <path d="M31,38.5 C30.4477153,38.5 30,38.052285 30,37.5 C30,36.947715 30.4477153,36.5 31,36.5 C31.5522847,36.5 32,36.947715 32,37.5 C32,38.052285 31.5522847,38.5 31,38.5 Z M33.5,37 L40.5,37 C40.7761424,37 41,37.223858 41,37.5 C41,37.776142 40.7761424,38 40.5,38 L33.5,38 C33.2238576,38 33,37.776142 33,37.5 C33,37.223858 33.2238576,37 33.5,37 Z" id="Combined-Shape" fill="#92A1AE" transform="translate(35.500000, 37.500000) scale(-1, 1) translate(-35.500000, -37.500000) "></path>
            <g id="Group-36" transform="translate(25.000000, 76.000000)">
                <g id="5.4">
                    <use fill="#000000" xlink:href="#path-1"></use>
                    <use fill="#92A1AE" xlink:href="#path-1"></use>
                </g>
                <path d="M19.5,3 L21,3 L20,6 L19,6 L19.5,3 Z M21.5,3 L23,3 L22,6 L21,6 L21.5,3 Z" id="Shape" fill="#92A1AE"></path>
            </g>
        </g>
    </g>
</svg>