<svg width="256" height="256" viewBox="0 0 256 256" xmlns="http://www.w3.org/2000/svg"><path d="M45.708 136.017h3.282v12.239h.113a63.631 63.631 0 0 1 1.999-2.712l7.772-9.527h4.075l-9.206 10.768 9.923 14.61H59.78l-8.338-12.463-2.452 2.787v9.677h-3.282v-25.38zm30.32 14.46c.036-2.072-.868-5.385-4.565-5.385-3.396 0-4.83 3.087-5.094 5.385h9.658zm-9.697 2.37c.074 4.483 2.905 6.329 6.225 6.329 2.377 0 3.848-.415 5.055-.905l.604 2.335c-1.17.527-3.207 1.166-6.111 1.166-5.585 0-8.98-3.727-8.98-9.188 0-5.534 3.281-9.865 8.602-9.865 5.96 0 7.508 5.234 7.508 8.586 0 .678-.037 1.204-.113 1.58l-12.79-.037zm15.899-3.741c0-4.154 2.787-7.27 7.583-7.27 4.717 0 7.962 2.427 7.962 8.677v10.883h-3.32v-11.262c0-2.935-1.274-5.104-4.404-5.104-2.497 0-4.501 1.384-4.501 4.51v11.856h-3.32v-12.29zm43.56 0c0-4.154 2.788-7.27 7.584-7.27 4.717 0 7.962 2.427 7.962 8.677v10.883h-3.321v-11.262c0-2.935-1.273-5.104-4.404-5.104-2.496 0-4.5 1.384-4.5 4.51v11.856h-3.32v-12.29zm68.958 0c0-4.154 2.786-7.27 7.583-7.27 4.716 0 7.961 2.427 7.961 8.677v10.883h-3.321v-11.262c0-2.935-1.273-5.104-4.404-5.104-2.496 0-4.5 1.384-4.5 4.51v11.856h-3.32v-12.29zm-93.037 8.939c1.02.603 2.755 1.28 4.416 1.28 2.376 0 3.508-1.167 3.508-2.71 0-1.582-.943-2.45-3.357-3.353-3.321-1.204-4.868-2.974-4.868-5.158 0-2.937 2.415-5.348 6.301-5.348 1.85 0 3.471.49 4.453 1.13l-.794 2.374c-.717-.415-2.038-1.055-3.735-1.055-1.962 0-3.017 1.128-3.017 2.485 0 1.543 1.055 2.221 3.432 3.125 3.132 1.168 4.793 2.748 4.793 5.498 0 3.238-2.53 5.498-6.792 5.498-2 0-3.849-.527-5.132-1.281l.792-2.485zm15.854-14.873h3.32v18.224h-3.32v-18.224zm1.585-3.352c-1.246 0-2.076-.98-2.076-2.147 0-1.167.868-2.109 2.151-2.109s2.113.942 2.113 2.11c0 1.166-.83 2.146-2.15 2.146h-.038zm32.802 5.936c-2.562 0-4.733 1.787-4.733 4.583 0 3.117 1.997 4.767 4.863 4.767 2.908 0 4.254-1.926 4.254-4.538 0-2.795-1.692-4.812-4.384-4.812zm-2.562 16.958c-1.39 1.009-3.085 2.109-3.085 4.08 0 2.795 4.125 2.888 6.035 2.888 2.868 0 8.163-.551 8.163-4.263 0-2.522-1.864-2.705-3.775-2.705h-7.338zm11.636-20.454v2.568l-3.172 1.48c.867 1.419 1.305 2.474 1.305 4.215 0 4.539-2.995 7.148-7.163 7.148l-1.479-.135c-.52.274-2.17 1.741-2.17 2.29 0 .321 1.518.321 2.17.321h6.645c3.864 0 6.165 1.606 6.165 4.95 0 5.821-6.383 7.15-10.725 7.15-3.386 0-9.075-.503-9.075-5.317 0-2.017 1.303-3.894 2.91-4.95-.435-.32-.914-.917-.914-1.924 0-1.283 1.304-2.43 2.346-3.439-2.257-1.42-3.473-3.207-3.473-6.05 0-3.94 3.17-7.379 6.903-7.379 1.173 0 2.347.23 3.475.552l6.252-1.48zm7.093-5.585v6.253h4.753v2.756h-4.753v9.257c0 2.468.643 3.867 2.492 3.867.902 0 1.434-.083 1.923-.247l.15 2.756c-.64.247-1.66.494-2.942.494-1.548 0-2.792-.576-3.587-1.523-.9-1.11-1.28-2.879-1.28-5.224v-9.38h1.62v-2.756h-1.62v-5.14l3.244-1.113zm14.971 22.65c3.167 0 5.545-2.973 5.545-7.117 0-3.087-1.545-6.966-5.47-6.966-3.884 0-5.583 3.615-5.583 7.08 0 3.991 2.262 7.003 5.47 7.003h.038zm-.115 2.486c-4.903 0-8.753-3.615-8.753-9.377 0-6.1 4.037-9.678 9.058-9.678 5.242 0 8.788 3.804 8.788 9.34 0 6.778-4.715 9.715-9.054 9.715h-.039zm-60.03-61.439l-4.842-4.833s-1.806-2.773.888-5.977 1.72-2.23 3.267-3.776c1.548-1.545 3.581-2.66 5.387-.858l5.063 5.052c2.045 2.041-7.641 12.51-9.763 10.392zm10.604-6.691l.573-6.007 6.018-2.86h7.107c1.318 0 2.004 4.347-1.204 4.347-3.497 0-6.076.343-6.076.343l-6.418 4.177zm-23.327 25.226V112.5l6.706-14.587 16.908 15.503s1.432-.172 4.527-.172 2.637 5.663 0 5.663h-4.47l-10.719-7.322h-1.26v7.322h-11.692zm36.625-16.475c0 3.823-3.105 6.922-6.936 6.922-3.83 0-6.935-3.1-6.935-6.922 0-3.822 3.106-6.921 6.935-6.921 3.83 0 6.936 3.099 6.936 6.921z" fill="#FFF" fill-rule="evenodd"/></svg>