<?xml version="1.0" encoding="UTF-8"?>
<svg width="230px" height="160px" viewBox="0 0 230 160" version="1.1" xmlns="http://www.w3.org/2000/svg" xmlns:xlink="http://www.w3.org/1999/xlink">
    <!-- Generator: Sketch 47.1 (45422) - http://www.bohemiancoding.com/sketch -->
    <defs></defs>
    <g id="---Logos" stroke="none" stroke-width="1" fill="none" fill-rule="evenodd" opacity="0.3">
        <g id="Group-2" fill="#D4E1ED">
            <path d="M135.144201,94.8596836 C131.824451,94.248222 129.605016,92.3182965 129.46395,89.9202207 C129.398119,88.964812 129.539185,88.2387014 129.924765,87.4552663 C130.282132,86.7291557 131.175549,85.7450848 131.84326,85.334259 C132.125392,85.1718396 132.351097,85.0094201 132.341693,84.9807578 C132.341693,84.9520956 132.144201,84.8087843 131.909091,84.6463648 C130.724138,83.8724838 130.244514,82.0954236 130.855799,80.8056219 C131.128527,80.2228226 131.833856,79.5062661 132.285266,79.3342925 C132.473354,79.2674139 132.633229,79.1718731 132.633229,79.1241026 C132.633229,79.0763322 132.407524,78.7897096 132.125392,78.4839788 C130.949843,77.184623 130.366771,75.3215761 130.498433,73.2387852 C130.573668,72.0731866 130.752351,71.3757383 131.231975,70.3821132 C131.946708,68.9012298 133.197492,67.8120639 134.84326,67.2483728 C135.924765,66.8757634 137.786834,66.8088848 138.924765,67.0955074 C140.100313,67.4012381 140.852665,67.821618 141.661442,68.6146072 C142.047022,68.9967706 142.366771,69.3120555 142.376176,69.3120555 C142.38558,69.3120555 142.489028,69.1305279 142.592476,68.9012298 C143.203762,67.6305362 144.670846,66.7324521 146.147335,66.7324521 L146.645768,66.7324521 L146.645768,68.4999581 L146.645768,70.2674642 L146.297806,70.2674642 C145.752351,70.2674642 144.905956,70.5445327 144.548589,70.8502635 C143.984326,71.3184137 143.918495,71.5763741 143.9279,73.2865556 C143.946708,75.5031037 143.626959,76.6591482 142.648903,78.063599 C141.84953,79.1909812 140.401254,80.1368358 138.981191,80.4425666 C138.200627,80.6049861 136.244514,80.6336483 135.398119,80.480783 C134.909091,80.3947962 134.768025,80.4043503 134.523511,80.5285534 C134.15674,80.7291892 134.043887,80.9489332 134.043887,81.4935162 C134.043887,81.8565715 134.090909,81.9903287 134.30721,82.2100727 C134.786834,82.687777 135.351097,82.792872 138.003135,82.8884128 C139.329154,82.9266292 140.711599,83.012616 141.059561,83.0699405 C141.924765,83.2132518 143.137931,83.6431857 143.786834,84.0349032 C145.517241,85.104961 146.514107,87.1017651 146.316614,89.1176774 C146.015674,92.2227556 143.626959,94.3151006 139.714734,94.907454 C138.76489,95.0507653 136.037618,95.022103 135.144201,94.8596836 L135.144201,94.8596836 L135.144201,94.8596836 Z M139.517241,91.9170248 C141.07837,91.6112941 142.047022,90.9902784 142.601881,89.9393289 C142.893417,89.3947459 142.931034,89.2514346 142.931034,88.6017567 C142.931034,87.9616329 142.893417,87.8278757 142.648903,87.4074959 C142.451411,87.092211 142.197492,86.8342507 141.84953,86.6240608 C140.871473,86.0317074 140.664577,86.0030451 137.69279,85.9552747 L134.984326,85.9266124 L134.420063,86.2323432 C132.652038,87.1877519 132.191223,89.1941101 133.423197,90.5890068 C134.034483,91.2864551 135.134796,91.7641595 136.507837,91.9456871 C137.467085,92.0794443 138.774295,92.0603361 139.517241,91.9170248 L139.517241,91.9170248 L139.517241,91.9170248 Z M138.416928,77.6336651 C139.413793,77.184623 140.119122,76.2960929 140.448276,75.0636158 C141.191223,72.340701 139.573668,69.5604618 137.241379,69.5604618 C136.38558,69.5604618 135.774295,69.8279762 135.125392,70.4967623 C133.780564,71.8725508 133.470219,73.993558 134.335423,75.8757131 C135.115987,77.5572324 136.893417,78.3215593 138.416928,77.6336651 L138.416928,77.6336651 Z M63.2758621,84.8374465 C61.6959248,84.5412698 60.5015674,83.9107001 59.2884013,82.7451015 C58.1598746,81.6463815 57.2570533,80.041295 56.7774295,78.2928971 C56.4482759,77.0795281 56.3636364,74.8629799 56.5893417,73.544516 C57.031348,70.9362503 58.3949843,68.8916757 60.3887147,67.8502802 C61.4796238,67.277035 62.4294671,67.0190747 63.7460815,66.9521961 C66.1818182,66.8279929 68.2319749,67.6400903 69.5485893,69.2451769 C70.1316614,69.9617334 70.7805643,71.2897515 71.0344828,72.3120388 C71.2601881,73.219677 71.4294671,74.9394126 71.3918495,75.856605 L71.3636364,76.525391 L65.5987461,76.5540533 L59.8338558,76.5731615 L59.8996865,77.0795281 C60.1724138,79.5062661 61.8181818,81.474408 64.0376176,82.0572073 C64.799373,82.2578431 66.492163,82.2578431 67.4420063,82.0572073 C67.8369906,81.9712205 68.5705329,81.7419224 69.0595611,81.5317325 C69.5485893,81.3215426 69.9905956,81.1400149 70.0376176,81.1304609 C70.1034483,81.1113527 70.9404389,83.4521039 70.9404389,83.6527398 C70.9404389,83.7673888 69.3605016,84.3979585 68.5987461,84.5985944 C67.1504702,84.9712037 64.5830721,85.0858528 63.2758621,84.8374465 L63.2758621,84.8374465 Z M68.1191223,73.3916506 C68.1191223,72.9139462 67.8557994,71.9871998 67.5830721,71.5190496 C67.1786834,70.8216012 66.7178683,70.3821132 66.0125392,70.0190579 C63.9435737,68.9872166 61.2915361,69.9712875 60.2946708,72.1400652 C60.1347962,72.4935664 59.984326,72.9903789 59.9561129,73.2387852 L59.9090909,73.7069354 L64.0188088,73.7069354 L68.1191223,73.7069354 L68.1191223,73.3916506 L68.1191223,73.3916506 Z M94.4043887,84.8374465 C93.0031348,84.6177025 90.7836991,83.8724838 90.7836991,83.6240775 C90.7836991,83.4903203 91.5454545,81.2260017 91.6206897,81.1400149 C91.6583072,81.1017986 92.1191223,81.2451099 92.645768,81.4552998 C94.0188088,81.9998828 94.9310345,82.2196268 95.862069,82.2291808 C97.1974922,82.248289 98.2037618,81.9043419 98.8902821,81.2068936 C99.539185,80.5381075 99.7084639,79.7833346 99.3510972,79.0667781 C98.9937304,78.3693298 98.4388715,78.0540449 95.9655172,77.2037312 C93.7366771,76.4298502 92.815047,75.9521458 92.0438871,75.1878189 C91.1034483,74.2515184 90.7742947,73.4012046 90.7742947,71.9489835 C90.7836991,68.9203379 92.9467085,67.1146155 96.7648903,66.9521961 C98.1755486,66.8853175 99.200627,67.0095206 100.329154,67.3725759 C100.959248,67.5732117 102.163009,68.1177947 102.163009,68.1942274 C102.163009,68.2037814 102.059561,68.7865807 101.9279,69.4935832 C101.796238,70.2005856 101.69279,70.7833849 101.69279,70.802493 C101.69279,70.8120471 101.382445,70.6782899 101.00627,70.5063164 C99.661442,69.8757466 98.7774295,69.6655567 97.460815,69.6560026 C96.1724138,69.6560026 95.6551724,69.7802058 95.0062696,70.2579101 C93.9153605,71.0413452 93.9153605,72.3502551 94.9874608,73.0477034 C95.523511,73.3820965 96.031348,73.5827323 97.9780564,74.2037479 C100.423197,74.977629 101.54232,75.6559691 102.304075,76.8215677 C102.868339,77.6527733 103.047022,78.3311134 103.047022,79.4871579 C103.028213,81.3310967 102.285266,82.7164393 100.752351,83.7673888 C99.2758621,84.780122 96.7272727,85.2100559 94.4043887,84.8374465 L94.4043887,84.8374465 Z M164.354232,84.8374465 C161.645768,84.340634 159.61442,82.7355474 158.448276,80.1750522 C157.394984,77.8629632 157.319749,74.538141 158.269592,72.0922948 C159.181818,69.7610976 160.893417,68.0891324 163.197492,67.2961432 C164.00627,67.0190747 164.222571,66.9808583 165.501567,66.942642 C166.714734,66.9139797 167.034483,66.9330879 167.758621,67.1050615 C170.288401,67.716523 172.216301,69.5222454 173.166144,72.1591734 C174.012539,74.5094787 173.974922,77.624111 173.081505,79.9648623 C171.727273,83.5380907 168.134796,85.5348949 164.354232,84.8374465 L164.354232,84.8374465 Z M152.69279,84.7514598 C151.366771,84.4075126 150.210031,83.4234417 149.561129,82.0858695 C148.92163,80.7674056 148.902821,80.5858779 148.902821,75.1209403 L148.902821,70.2674642 L149.84326,70.2674642 L150.783699,70.2674642 L150.783699,68.4999581 L150.783699,66.7324521 L149.84326,66.7324521 L148.902821,66.7324521 L148.902821,64.2961599 L148.902821,61.8598678 L150.595611,61.8598678 L152.288401,61.8598678 L152.288401,64.2961599 L152.288401,66.7324521 L154.310345,66.7324521 L156.332288,66.7324521 L156.332288,68.4999581 L156.332288,70.2674642 L154.310345,70.2674642 L152.278997,70.2674642 L152.30721,75.2164811 C152.335423,80.0508491 152.335423,80.1654981 152.54232,80.6049861 C152.852665,81.2928803 153.445141,81.8852337 154,82.0763155 C154.460815,82.2291808 155.166144,82.2196268 155.796238,82.0667614 C155.99373,82.0094368 156.021944,82.0858695 156.322884,83.2610222 C156.501567,83.9489165 156.623824,84.5221617 156.605016,84.5412698 C156.285266,84.8087843 153.492163,84.9616497 152.69279,84.7514598 L152.69279,84.7514598 Z M40,72.894838 L40,61 L41.8338558,61 L43.6677116,61 L43.6865204,66.4649376 L43.7147335,71.9394294 L47.984326,66.4744917 L52.2633229,61 L54.5203762,61 C56.6551724,61 56.7586207,61.0095541 56.6269592,61.1719736 C55.5830721,62.3948967 47.7680251,72.1687275 47.7398119,72.2833765 C47.7115987,72.3884715 49.3573668,74.5763573 52.4514107,78.5413033 C55.0658307,81.8947878 57.2100313,84.6750271 57.2100313,84.7132434 C57.2100313,84.7514598 56.1003135,84.7896761 54.7460815,84.780122 L52.2727273,84.780122 L48.0407524,78.9616832 C45.7178683,75.7610641 43.7805643,73.1432443 43.7429467,73.1336902 C43.6959248,73.1336902 43.6677116,75.7610641 43.6677116,78.9616832 L43.6677116,84.7896761 L41.8338558,84.7896761 L40,84.7896761 L40,72.894838 L40,72.894838 Z M74.137931,77.1464067 L74.137931,69.4935832 L74.4012539,69.254731 C76.3103448,67.496779 79.0094044,66.617803 82.0376176,66.7611143 C83.4294671,66.8279929 84.1630094,66.9999665 85.2068966,67.5063331 C86.5423197,68.156011 87.4827586,69.3025014 87.9529781,70.8693717 C88.2727273,71.9489835 88.338558,73.2961097 88.338558,79.1814272 L88.338558,84.7896761 L86.645768,84.7896761 L84.9529781,84.7896761 L84.9529781,79.2291976 C84.9529781,76.1623357 84.9153605,73.3152179 84.8683386,72.894838 C84.6990596,71.3852923 84.1253918,70.4298837 83.0909091,69.913963 C82.5924765,69.6655567 82.4702194,69.6464485 81.4733542,69.6560026 C79.9780564,69.6560026 78.7366771,70.0190579 77.8338558,70.7165063 L77.523511,70.9458043 L77.523511,77.8725173 L77.523511,84.7896761 L75.830721,84.7896761 L74.137931,84.7896761 L74.137931,77.1464067 L74.137931,77.1464067 Z M106.112853,75.9521458 L106.112853,67.1146155 L107.805643,67.1146155 L109.498433,67.1146155 L109.498433,75.9521458 L109.498433,84.7896761 L107.805643,84.7896761 L106.112853,84.7896761 L106.112853,75.9521458 L106.112853,75.9521458 Z M113.260188,77.1081903 L113.260188,69.4267045 L113.664577,69.1018656 C115.705329,67.4012381 118.225705,66.617803 121.159875,66.7611143 C123.84953,66.8948715 125.702194,67.936267 126.623824,69.8279762 C127.338558,71.3088596 127.310345,70.8980339 127.338558,78.2260185 L127.376176,84.7896761 L125.673981,84.7896761 L123.981191,84.7896761 L123.981191,78.7706014 C123.981191,74.6814523 123.943574,72.5986614 123.877743,72.2547142 C123.652038,71.1655483 123.059561,70.3343428 122.213166,69.913963 C121.724138,69.6655567 121.592476,69.6464485 120.595611,69.6464485 C119.15674,69.6560026 117.943574,69.9999498 116.956113,70.6782899 L116.645768,70.8884798 L116.645768,77.843855 L116.645768,84.7896761 L114.952978,84.7896761 L113.260188,84.7896761 L113.260188,77.1081903 L113.260188,77.1081903 Z M175.893417,77.1177444 L175.893417,69.4458127 L176.579937,68.9012298 C177.416928,68.2228896 179.0721,67.38213 180.07837,67.1241696 C181.789969,66.6846816 184.216301,66.6273571 185.579937,66.9808583 C187.959248,67.601874 189.407524,69.1591901 189.868339,71.5859282 C189.971787,72.1496193 190,73.544516 190,78.5413033 L190,84.7896761 L188.30721,84.7896761 L186.623824,84.7896761 L186.595611,78.4648706 L186.567398,72.1305111 L186.351097,71.5954822 C186.068966,70.8693717 185.504702,70.2388019 184.846395,69.913963 C184.347962,69.6655567 184.225705,69.6464485 183.22884,69.6464485 C181.752351,69.6560026 180.501567,70.0190579 179.589342,70.7165063 L179.278997,70.9458043 L179.278997,77.8725173 L179.278997,84.7896761 L177.586207,84.7896761 L175.893417,84.7896761 L175.893417,77.1177444 L175.893417,77.1177444 Z M106.112853,63.4362921 L106.112853,61.8598678 L107.805643,61.8598678 L109.498433,61.8598678 L109.498433,63.4362921 L109.498433,65.0127165 L107.805643,65.0127165 L106.112853,65.0127165 L106.112853,63.4362921 L106.112853,63.4362921 Z M167.260188,81.8852337 C170.730408,80.2037144 171.416928,73.8693549 168.454545,70.8311553 C167.54232,69.8948548 166.30094,69.4553668 165.210031,69.6846649 C163.404389,70.0477202 161.984326,71.4999414 161.316614,73.659165 C161.025078,74.6050196 160.949843,76.4585124 161.166144,77.4903538 C161.420063,78.6368442 162.050157,79.8788755 162.793103,80.6909729 C163.836991,81.808801 164.739812,82.2387349 165.971787,82.1814104 C166.545455,82.1527481 166.846395,82.0858695 167.260188,81.8852337 L167.260188,81.8852337 Z" id="Combined-Shape"></path>
        </g>
    </g>
</svg>