<svg xmlns="http://www.w3.org/2000/svg" width="99.042" height="21.251" viewBox="0 0 99.042 21.251"><path fill="#FFF" d="M96.795 4.142a.99.99 0 0 1 1.002-1.01c.56 0 .996.435.996 1.01 0 .587-.436 1.017-.996 1.017a.99.99 0 0 1-1.002-1.017zm1.002 1.221c.672 0 1.245-.517 1.245-1.222 0-.699-.573-1.213-1.245-1.213-.676 0-1.252.514-1.252 1.213 0 .706.576 1.222 1.252 1.222zm-.26-1.124h.248l.375.607h.242l-.403-.618c.207-.024.368-.134.368-.386 0-.276-.168-.4-.502-.4h-.542v1.404h.215v-.607zm0-.18v-.434h.294c.148 0 .309.032.309.206 0 .215-.163.228-.344.228h-.259z"/><g fill="#FFF"><path d="M7.927 14.82L2.348 7.399v7.421H0V0h2.348v6.952L7.934 0h2.783L4.835 7.081l6.21 7.739H7.927M42.484 3.852v10.969h2.148V3.852h-2.148m0-3.299v1.936h2.148V.553h-2.148m38.363 3.15c3.003 0 5.091 2.317 5.091 5.645 0 3.306-2.088 5.597-5.091 5.597-3.008 0-5.255-2.301-5.255-5.609 0-3.325 2.247-5.633 5.255-5.633m0 9.593c1.7 0 2.939-1.858 2.939-3.948 0-2.104-1.213-3.994-2.939-3.994-1.704 0-3.132 1.669-3.132 3.994-.001 2.138 1.477 3.948 3.132 3.948zm-58.886-7.95v9.475h2.121V6.185c.662-.599 1.83-.848 2.661-.848 1.383 0 2.145.91 2.145 2.479v7.004h2.116V7.775c0-2.718-1.546-4.163-4.304-4.163-1.879 0-3.435.506-4.739 1.734m65.379 0v9.475h2.122V6.185c.658-.599 1.828-.848 2.652-.848 1.389 0 2.152.91 2.152 2.479v7.004h2.112V7.775c0-2.718-1.545-4.163-4.299-4.163-1.878 0-3.436.506-4.739 1.734m-40.26 0v9.475h2.122V6.185c.66-.599 1.825-.848 2.659-.848 1.383 0 2.15.91 2.15 2.479v7.004h2.113V7.775c0-2.718-1.547-4.163-4.303-4.163-1.882 0-3.441.506-4.741 1.734M69.991.553l-.007 3 1.241-.005-.008 2.246H70l.001 5.6c0 1.906 1.331 3.502 3.136 3.502 1.102 0 1.479-.126 1.78-.223-.045-.146-.416-1.505-.416-1.505s-.271.089-.793.104c-1.101.037-1.608-1.077-1.608-1.885l.014-5.648h2.632V3.585h-2.628V.553h-2.127"/><path d="M15.551 3.733c2.994 0 4.582 2.136 4.582 5.194 0 .214 0 .54-.015.757h-7.375v.076c0 1.895 1.498 3.552 3.645 3.552 1.174 0 1.947-.235 2.928-.723.119.289.432 1.279.532 1.563-1.29.607-2.093.797-3.92.797-3.449 0-5.346-3.047-5.346-5.88 0-3.168 1.932-5.336 4.969-5.336M12.75 7.951h5.361c0-1.532-1.036-2.614-2.517-2.614-1.712 0-2.844 1.358-2.844 2.614zm55.762-4.366l-.002 2.169c-.848.001-1.681.233-1.801 1.188.007.249.067.774.067 1.01 0 2.523-1.743 4.284-4.285 4.284-.46 0-1.033-.039-1.446-.152l-.093-.021-.113.057c-.373.106-.513.413-.464.779.081.588.656.8 2.345.826l1.047.006c2.893 0 4.534 1.541 4.534 3.509 0 2.101-1.726 4.013-5.672 4.013-3.034 0-5.143-1.478-5.143-3.398 0-1.271.882-2.289 1.759-2.732l.229-.161-.229-.092a2.048 2.048 0 0 1-1.017-1.627c-.048-.89.67-1.673 1.329-1.847l.157-.048-.138-.099c-.942-.775-1.41-1.943-1.41-3.296 0-2.534 1.752-4.247 4.325-4.247 1.41 0 2.676.676 3.214 1.547 0 0 .034.058.068.112.41-1.11 1.23-1.757 2.739-1.78m-6.021 7.01c1.273 0 2.208-1.163 2.208-2.644 0-1.497-.937-2.65-2.208-2.65-1.279 0-2.219 1.153-2.219 2.65 0 1.481.94 2.644 2.219 2.644zm.55 8.835c2.165 0 3.165-1.055 3.165-2.269 0-1.125-1.292-1.637-2.621-1.637h-1.76l-.682.004-.137.037c-.966.354-1.446.97-1.446 1.791-.001 1.565 1.618 2.074 3.481 2.074zM37.763 8.442c.834.265 2.735.962 2.735 3.092a3.05 3.05 0 0 1-1.175 2.43c-1.102.925-2.583.988-3.335.988-1.124 0-2.485-.369-3.343-.801a93.93 93.93 0 0 0 .545-1.581c.662.25 1.679.745 2.756.745 1.648 0 2.359-.899 2.359-1.534 0-.953-1-1.257-2.273-1.674l-.67-.228c-.854-.264-2.73-.995-2.73-2.985 0-2.126 1.776-3.176 4.212-3.176 1.544 0 2.681.562 3.059.794l-.296 1.59c-.668-.37-1.678-.762-2.702-.766-1.328-.01-2.133.588-2.133 1.331 0 .883.945 1.153 2.235 1.545l.756.23"/></g><path fill="none" d="M-341.875-47.119H940.459v82.982H-341.875z"/></svg>