<?xml version="1.0" encoding="UTF-8"?>
<svg width="230px" height="160px" viewBox="0 0 230 160" version="1.1" xmlns="http://www.w3.org/2000/svg" xmlns:xlink="http://www.w3.org/1999/xlink">
    <!-- Generator: Sketch 52.4 (67378) - http://www.bohemiancoding.com/sketch -->
    <g id="03-what-we-do-(SRC)" stroke="none" stroke-width="1" fill="none" fill-rule="evenodd" opacity="0.301">
        <g id="Group-2" fill="#D4E1ED">
            <path d="M77.1461809,106.410141 L75.3229773,106.410141 L77.1461809,101.398466 L78.9671826,106.410141 L77.1461809,106.410141 Z M77.1461809,96.821583 L79.4969686,96.821583 L84.7428627,111.340702 L80.7437052,111.340702 L79.7215662,108.52436 L77.1461809,108.52436 L74.5668322,108.52436 L73.5464547,111.340702 L70.2580824,111.340702 L75.5017746,96.821583 L77.1461809,96.821583 Z M104.023373,96.8216703 L108.199567,96.8216703 L110.242964,111.340353 L106.556481,111.340353 L105.356426,102.234123 L102.157892,111.340353 L99.3601116,111.340353 L96.2478942,102.275989 L95.0478387,111.340353 L91.7621086,111.340353 L93.7610268,96.8216703 L97.9816992,96.8216703 L101.002316,105.225778 L104.023373,96.8216703 Z M64.9705276,111.340659 L64.9705276,96.8219755 L68.9696851,96.8219755 L68.9696851,111.340659 L64.9705276,111.340659 Z M61.7719943,109.053613 C63.6810734,111.385446 64.1280666,111.340589 64.1280666,111.340589 L59.9069538,111.340528 C58.8870167,111.340528 57.9075953,110.109414 57.9075953,110.109414 L53.997396,104.609741 L53.997396,111.340528 L50,111.340589 L50,96.8218447 L53.997396,96.8218447 L53.997396,102.45322 L58.5307434,96.8218447 L62.6620171,96.8218447 L57.6407205,103.202006 L61.7719943,109.053613 Z M167.244104,109.272492 C168.175523,110.460868 168.755954,110.989423 169.110466,111.208781 C169.286621,111.340484 169.418297,111.340484 169.418297,111.340484 L169.110466,111.340484 L166.000891,111.340484 C164.445443,111.340484 163.735538,110.283811 163.735538,110.283811 L159.513985,103.993922 C163.289866,103.993922 162.978512,100.958221 162.978512,100.958221 C162.978512,99.0655421 160.66824,98.9329673 160.66824,98.9329673 L159.245789,98.9329673 L159.245789,111.340484 L155.203474,111.340484 L155.203474,96.8218011 L159.470387,96.8218011 L162.845956,96.8218011 C162.845956,96.8218011 166.888271,96.9561203 166.888271,100.385621 C166.888271,100.385621 167.066628,103.288747 163.911253,104.300938 L167.244104,109.272492 Z M176.751583,103.15857 C176.751583,103.15857 179.817559,104.125407 179.993714,106.939132 C179.993714,106.939132 180.437625,112.221191 173.864403,111.912867 C173.864403,111.912867 171.376215,111.824338 169.552571,110.723619 L169.110422,109.053787 L168.931625,108.482058 C168.931625,108.482058 168.976984,108.52436 169.110422,108.569715 C169.600133,108.78951 171.376215,109.580597 173.108258,109.844875 C173.108258,109.844875 176.042119,110.328511 176.129315,108.08477 C176.216952,106.410141 172.08656,105.13847 172.08656,105.13847 C170.309597,104.34433 169.464053,103.332139 169.110422,102.497005 C168.71055,101.618261 168.799068,100.912649 168.799068,100.912649 C168.799068,100.342228 168.887586,99.8136738 169.110422,99.3740837 C170.221519,96.6458342 174.306552,96.3824291 174.306552,96.3824291 C176.972217,96.205372 178.572144,97.1290344 178.572144,97.1290344 L178.572144,99.3296014 C178.572144,99.3296014 177.463249,98.3627649 175.550206,98.3627649 C175.550206,98.3627649 172.887184,98.4499851 172.887184,100.121561 C172.887184,100.121561 172.531351,101.705917 176.751583,103.15857 Z M145.918875,96.1621107 C150.4945,96.1621107 154.225021,99.6810118 154.225021,104.079965 C154.225021,108.481971 150.4945,112 145.918875,112 C142.364509,112 139.343892,109.891014 138.142956,106.895871 C137.789765,106.017127 137.612729,105.095209 137.612729,104.079965 C137.612729,103.068646 137.789765,102.146292 138.142956,101.26624 C139.343892,98.2763296 142.364509,96.1621107 145.918875,96.1621107 Z M145.918875,109.712213 C148.316784,109.712213 150.228065,107.204195 150.228065,104.079965 C150.228065,100.957916 148.316784,98.4498979 145.918875,98.4498979 C143.519205,98.4498979 141.608804,100.957916 141.608804,104.079965 C141.608804,107.204195 143.519205,109.712213 145.918875,109.712213 Z M138.67741,98.9329673 L138.14278,98.9329673 L134.457618,98.9329673 L134.457618,111.340484 L130.45802,111.340484 L130.45802,98.9329673 L126.680378,98.9329673 L126.282267,98.9329673 L126.282267,96.8218011 L126.680378,96.8218011 L138.14278,96.8218011 L138.67741,96.8218011 L138.67741,98.9329673 Z M118.729228,96.1621107 C122.459749,96.1621107 125.615565,98.4930719 126.680422,101.749004 C126.905019,102.496918 127.036695,103.288877 127.036695,104.079965 C127.036695,104.91728 126.905019,105.665193 126.680422,106.410054 C125.615565,109.669039 122.459749,112 118.729228,112 C114.109565,112 110.376842,108.481971 110.376842,104.079965 C110.376842,99.6810118 114.109565,96.1621107 118.729228,96.1621107 Z M118.729228,109.712213 C121.083979,109.712213 123.038418,107.204195 123.038418,104.079965 C123.038418,100.957916 121.083979,98.4498979 118.729228,98.4498979 C116.329557,98.4498979 114.375559,100.957916 114.375559,104.079965 C114.375559,107.204195 116.329557,109.712213 118.729228,109.712213 Z M115.321819,85.697425 C93.7573716,85.697425 76.2775169,76.8070648 76.2554975,65.8487125 C76.2775169,54.8685551 93.7573716,46 115.321819,46 L115.495772,46 C136.995042,46.0427379 154.386379,54.9130374 154.386379,65.8487125 C154.386379,76.7856959 136.995042,85.6551232 115.495772,85.697425 L115.342958,85.697425 L115.321819,85.697425 Z M115.495772,50.7386762 C95.7558494,50.7386762 79.7777155,57.5401114 79.7777155,65.9350606 C79.7777155,74.3522509 95.7558494,81.1554305 115.495772,81.1554305 C135.212795,81.1554305 151.212507,74.3522509 151.212507,65.9350606 C151.212507,57.5401114 135.212795,50.7386762 115.495772,50.7386762 Z M122.604549,75.1492695 C122.409017,75.1492695 122.257083,74.9988146 122.257083,74.8038773 L122.257083,74.7175293 L127.99533,58.1203877 C128.018671,58.0772137 128.038488,57.9926101 128.038488,57.9280671 C128.038488,57.712197 127.866737,57.539937 127.647865,57.539937 L127.126006,57.539937 C127.082848,57.539937 127.038809,57.518568 127.038809,57.475394 L127.038809,56.549551 C127.038809,56.4854441 127.082848,56.4623308 127.126006,56.4623308 L129.126685,56.4623308 L129.583367,56.4623308 L134.301237,56.4623308 C134.517907,56.4623308 134.712999,56.5055048 134.801517,56.7222471 L141.017144,74.6965964 L141.017144,74.8038773 C141.017144,74.9988146 140.865651,75.1492695 140.670119,75.1492695 L136.190498,75.1492695 C135.975149,75.1492695 135.756277,74.9770095 135.69198,74.7607033 L131.844316,63.1577933 C131.799837,63.0505124 131.757559,62.9663449 131.647463,62.9663449 C131.538687,62.9663449 131.47395,63.0505124 131.452371,63.1577933 L127.604707,74.7607033 C127.516189,74.9770095 127.300399,75.1492695 127.082848,75.1492695 L122.604549,75.1492695 Z M112.061059,57.5399806 C112.017461,57.5399806 111.973862,57.4950621 111.973862,57.4536325 L111.973862,56.5277896 C111.973862,56.4854877 112.017461,56.4623744 112.061059,56.4623744 L117.995719,56.4623744 C118.21327,56.4623744 118.388544,56.6341983 118.388544,56.8500684 L118.388544,74.7607469 C118.388544,74.9770531 118.21327,75.1493131 117.995719,75.1493131 L113.452243,75.1493131 C113.234251,75.1493131 113.062059,74.9770531 113.062059,74.7607469 L113.062059,58.4871925 L113.062059,58.0977541 L113.062059,57.9281107 C113.062059,57.7122406 112.865206,57.5399806 112.648095,57.5399806 L112.061059,57.5399806 Z M91.3424195,57.5399806 C91.3001423,57.5399806 91.2574247,57.4950621 91.2574247,57.4536325 L91.2574247,56.5277896 C91.2574247,56.4854877 91.3001423,56.4623744 91.3424195,56.4623744 L92.7129049,56.4623744 L97.1251458,56.4623744 C97.3440183,56.4623744 97.5166502,56.6341983 97.5166502,56.8500684 L97.5166502,61.5002161 L97.5166502,61.8238032 L97.5166502,62.7064721 L97.5166502,62.791948 C97.5166502,62.921034 97.6042872,63.0304954 97.7350823,63.0304954 C97.8007,63.0304954 97.8434176,63.007382 97.8865755,62.9864491 C97.9535144,62.9432751 97.9535144,62.921034 98.0389496,62.8359942 L98.7774791,61.8443 L102.386894,56.8500684 C102.540149,56.6341983 102.844016,56.4623744 103.060687,56.4623744 L108.083304,56.4623744 C108.278836,56.4623744 108.43077,56.6128293 108.43077,56.8073305 C108.43077,56.8727457 108.40787,56.9368525 108.366914,57.0009594 L102.820675,64.9894622 C102.756819,65.0749381 102.733479,65.1373005 102.733479,65.2262652 C102.733479,65.33311 102.756819,65.3758479 102.820675,65.4635043 L109.452028,74.5666819 C109.517646,74.6329693 109.540106,74.7175729 109.540106,74.8039209 C109.540106,74.9988582 109.386851,75.1493131 109.191759,75.1493131 L103.952031,75.1493131 C103.734039,75.1493131 103.431493,74.9770531 103.278238,74.7607469 L98.0389496,67.6365968 C97.9535144,67.5489405 97.9535144,67.5275715 97.8865755,67.486578 C97.8434176,67.4425318 97.8007,67.4425318 97.7350823,67.4425318 C97.6042872,67.4425318 97.5166502,67.5275715 97.5166502,67.6797708 L97.5166502,67.7643745 L97.5166502,74.7607469 L92.7129049,75.1493131 C92.4953536,75.1493131 92.321841,74.9770531 92.321841,74.7607469 L92.321841,57.9281107 C92.321841,57.7122406 92.1487687,57.5399806 91.9532368,57.5399806 L91.3424195,57.5399806 Z" id="Combined-Shape"></path>
        </g>
    </g>
</svg>