<?xml version="1.0" encoding="UTF-8"?>
<svg width="230px" height="160px" viewBox="0 0 230 160" version="1.1" xmlns="http://www.w3.org/2000/svg" xmlns:xlink="http://www.w3.org/1999/xlink">
    <!-- Generator: Sketch 52.4 (67378) - http://www.bohemiancoding.com/sketch -->
    <g id="03-what-we-do-(SRC)" stroke="none" stroke-width="1" fill="none" fill-rule="evenodd" opacity="0.301">
        <g id="Group-2" fill="#D4E1ED">
            <path d="M67.416642,112 L114.962446,65.0485448 L162.00503,112 L67.416642,112 Z M65.6092815,109.642819 L55,98.7891534 L57.7407424,96.1198618 L65.8953729,104.461653 L70.5240458,99.955137 L72.9786968,102.466329 L65.6092815,109.642819 Z M74.5955573,100.83218 L63.8715661,90.1263925 L71.3980244,82.7972552 L73.4709926,84.9172874 L68.8334433,89.4326629 L70.8067233,91.4511571 L74.6488153,87.7099238 L76.8187405,89.9301311 L72.9766484,93.6713643 L75.2790359,96.0265013 L80.0729454,91.3577966 L82.1472791,93.4798732 L74.5955573,100.83218 Z M83.7409245,91.9867872 L73.041514,81.2326156 L78.5919612,75.7734135 C81.1961445,73.4128248 83.7975966,74.818002 83.7975966,74.818002 C87.3044359,76.6559084 85.7442474,80.8012493 85.8480324,80.7835313 C86.1709948,80.7276513 92.9511573,83.0364488 92.9511573,83.0364488 L90.1421353,85.7711609 L80.7823702,83.3076712 L86.5724788,89.2302683 L83.7409245,91.9867872 Z M80.6642465,83.2095405 C80.6642465,83.2095405 80.876596,83.0902844 82.4490748,81.558355 C84.0222364,80.0271071 82.3951339,78.7445933 82.3951339,78.7445933 C81.441951,77.7687379 80.2893916,78.5190289 80.1658056,78.6396479 C79.873569,78.9238181 78.0225095,80.5068572 78.1105902,80.5968104 C78.197988,80.6860821 80.6642465,83.2095405 80.6642465,83.2095405 Z M99.3776316,76.8930576 C96.8328516,79.370858 92.1365819,80.836004 88.1893393,76.7983342 C84.5957849,73.12184 85.8944625,68.1812314 88.4392426,65.703431 C90.9833398,63.2256306 96.2654483,62.8528702 99.3114004,65.9685202 C101.793363,68.5083337 103.129595,73.2390516 99.3776316,76.8930576 Z M97.0725129,74.7600776 C98.757653,73.1197956 98.6668412,71.5006389 95.9411202,68.7127727 C93.5520177,66.268364 91.5432324,67.1297336 90.5552268,68.0919597 C89.1172588,69.4923667 88.9984523,71.5244901 90.975829,73.547073 C93.3287434,75.9546827 95.3880556,76.4003597 97.0725129,74.7600776 Z M107.804698,68.5560362 L103.303025,64.0938148 L93.7350069,61.0272301 L96.7461365,58.0955752 L102.358718,60.159046 L100.696793,54.2487152 L103.890912,51.1385169 L106.399504,61.5560456 L110.590505,65.8431309 L107.804698,68.5560362 Z M106.939595,53.1910842 L104.46446,50.6996545 L115.273801,40 L118.810001,43.5592826 L114.916699,51.2080261 L122.854883,47.6296626 L126.259303,51.0553784 L115.449962,61.7550329 L112.841682,59.1300364 L118.547124,53.4827505 L110.742085,57.0175004 L109.128639,55.3935734 L112.756333,47.6105816 L106.939595,53.1910842 Z M125.706921,72.0757939 L118.213237,64.535403 L129.022578,53.8357484 L136.538111,61.3986276 L134.353848,63.560229 L129.64597,58.8226965 L127.88504,60.5651981 L131.598084,64.3023425 L129.325056,66.5525342 L125.633862,62.837878 L123.271389,65.1766599 L127.935567,69.8698973 L125.706921,72.0757939 Z M128.138357,74.5229284 L138.969547,63.8450807 L145.534629,70.4518669 C147.542049,73.361715 144.979516,75.8545076 144.979516,75.8545076 C142.30637,78.1476314 139.870155,76.8085561 139.870155,76.8085561 C139.802558,77.0961336 137.554794,83.9986749 137.554794,83.9986749 L134.703439,81.1290332 L136.829665,71.478832 L130.923481,77.3251053 L128.138357,74.5229284 Z M137.029724,71.2805262 L138.930628,73.2819838 C140.146687,74.5052104 141.525935,73.5811462 141.525935,73.5811462 C143.219951,71.9926553 141.825682,70.9459278 141.604456,70.7237708 C141.383913,70.5009323 139.615472,68.7216317 139.615472,68.7216317 C139.325284,69.0085278 137.029724,71.2805262 137.029724,71.2805262 Z M150.41935,75.3672614 L153.204475,78.1701197 L145.025263,86.2665846 L149.601361,90.8712318 L146.971232,93.4744215 L139.610693,86.0669159 L150.41935,75.3672614 Z M148.916517,95.4315839 L159.725857,84.7319294 L162.44475,87.4680044 L151.63541,98.1676589 L148.916517,95.4315839 Z M156.564513,103.12803 L154.022464,100.569817 L164.831805,89.8701623 L168.523682,93.5848185 L165.369848,104.69267 L172.524182,97.6109034 L175,100.102333 L164.190659,110.801988 L160.963084,107.554134 L163.74138,95.8915716 L156.564513,103.12803 Z" id="Combined-Shape"></path>
        </g>
    </g>
</svg>