<svg width="32" height="32" viewBox="0 0 32 32" xmlns="http://www.w3.org/2000/svg"><path d="M0 16C0 7.163 7.163 0 16 0s16 7.163 16 16-7.163 16-16 16S0 24.837 0 16zm2 0C2 8.268 8.268 2 16 2s14 6.268 14 14-6.268 14-14 14S2 23.732 2 16zm9.608-3.145H8.153v10.213h3.455V12.855zm.228-3.16c-.022-1.001-.75-1.764-1.932-1.764s-1.955.763-1.955 1.764c0 .981.75 1.766 1.91 1.766h.022c1.205 0 1.955-.785 1.955-1.766zm12.233 7.517c0-3.137-1.705-4.597-3.978-4.597-1.835 0-2.656.991-3.115 1.687v-1.447h-3.455c.045.959 0 10.214 0 10.214h3.455v-5.704c0-.306.023-.61.114-.829.25-.61.818-1.24 1.773-1.24 1.25 0 1.75.936 1.75 2.308v5.464h3.456v-5.856z" fill="#FFF" fill-rule="evenodd"/></svg>