<?xml version="1.0" encoding="UTF-8"?>
<svg width="24px" height="24px" viewBox="0 0 24 24" version="1.1" xmlns="http://www.w3.org/2000/svg" xmlns:xlink="http://www.w3.org/1999/xlink">
    <!-- Generator: Sketch 46.2 (44496) - http://www.bohemiancoding.com/sketch -->
    <defs></defs>
    <g id="Page-1" stroke="none" stroke-width="1" fill="none" fill-rule="evenodd">
        <g id="02-03-management" transform="translate(-1121.000000, -701.000000)" fill="#ED4159">
            <g id="Group-5" transform="translate(960.000000, 354.000000)">
                <g id="Group-7" transform="translate(161.000000, 347.000000)">
                    <path d="M0,12 C0,5.37258267 5.37258267,0 12,0 C18.6274173,0 24,5.37258267 24,12 C24,18.6274173 18.6274173,24 12,24 C5.37258267,24 0,18.6274173 0,12 Z M2,12 C2,17.5228478 6.47715223,22 12,22 C17.5228478,22 22,17.5228478 22,12 C22,6.47715223 17.5228478,2 12,2 C6.47715223,2 2,6.47715223 2,12 Z M8.9921875,17 L7.09375,17 L7.09375,8.546875 L8.9921875,8.546875 L8.9921875,17 Z M6.9765625,6.3515625 C6.9765625,6.05989437 7.06900949,5.8177093 7.25390625,5.625 C7.43880301,5.4322907 7.70312328,5.3359375 8.046875,5.3359375 C8.39062672,5.3359375 8.65624906,5.4322907 8.84375,5.625 C9.03125094,5.8177093 9.125,6.05989437 9.125,6.3515625 C9.125,6.63802227 9.03125094,6.87630113 8.84375,7.06640625 C8.65624906,7.25651137 8.39062672,7.3515625 8.046875,7.3515625 C7.70312328,7.3515625 7.43880301,7.25651137 7.25390625,7.06640625 C7.06900949,6.87630113 6.9765625,6.63802227 6.9765625,6.3515625 Z M12.8203125,8.546875 L12.875,9.5234375 C13.1718765,9.1640607 13.5286438,8.88541766 13.9453125,8.6875 C14.3619812,8.48958234 14.8255183,8.390625 15.3359375,8.390625 C15.7421895,8.390625 16.1106754,8.44661402 16.4414062,8.55859375 C16.7721371,8.67057348 17.0546863,8.85156125 17.2890625,9.1015625 C17.5234387,9.35156375 17.7044264,9.67708133 17.8320312,10.078125 C17.9596361,10.4791687 18.0234375,10.966143 18.0234375,11.5390625 L18.0234375,17 L16.125,17 L16.125,11.5234375 C16.125,11.2317694 16.0924482,10.9856781 16.0273438,10.7851562 C15.9622393,10.5846344 15.8671881,10.4218756 15.7421875,10.296875 C15.6171869,10.1718744 15.4622405,10.0820315 15.2773438,10.0273438 C15.092447,9.97265598 14.8802095,9.9453125 14.640625,9.9453125 C14.249998,9.9453125 13.9101577,10.0390616 13.6210938,10.2265625 C13.3320298,10.4140634 13.1015634,10.6666651 12.9296875,10.984375 L12.9296875,17 L11.03125,17 L11.03125,8.546875 L12.8203125,8.546875 Z" id="Combined-Shape"></path>
                </g>
            </g>
        </g>
    </g>
</svg>