<svg width="230" height="160" viewBox="0 0 230 160" xmlns="http://www.w3.org/2000/svg"><g fill="none" fill-rule="evenodd"><path d="M125.06 49.984c-.651-.081-1.36.068-2.036.27-.966.29-1.89.699-2.738 1.268-1.022.687-1.942 1.469-2.751 2.405-1.305 1.509-2.254 3.18-2.603 5.147-.264 1.486-.098 2.907.857 4.152.711.927 1.677 1.427 2.83 1.592.98.14 1.931.051 2.895-.196.804-.206 1.545-.524 2.268-.9.998-.519 1.881-1.193 2.695-1.967a11.863 11.863 0 0 0 2.572-3.51 8.088 8.088 0 0 0 .693-2.092c.114-.649.281-1.285.176-1.956-.168-1.072-.435-2.105-1.233-2.901-.973-.972-2.18-1.376-3.625-1.312m15.645 3.324c-.046.855-.11 1.702-.27 2.553-.37 1.961-1.145 3.747-2.109 5.478-.825 1.482-1.838 2.83-2.961 4.086-.967 1.081-2.053 2.05-3.198 2.96-1.326 1.055-2.745 1.95-4.228 2.744-.891.477-1.832.88-2.786 1.22-1.122.4-2.28.732-3.46.895-1.611.224-3.226.356-4.869.083-1.166-.194-2.296-.468-3.34-.978-1.303-.636-2.42-1.53-3.299-2.713a9.073 9.073 0 0 1-1.59-3.429c-.244-1.074-.368-2.184-.247-3.3.098-.9.204-1.803.449-2.674.23-.816.522-1.618.836-2.407.5-1.259 1.178-2.431 1.939-3.551 1.113-1.64 2.4-3.131 3.883-4.46a28.77 28.77 0 0 1 2.248-1.842c1.346-.982 2.765-1.848 4.296-2.521.7-.308 1.388-.656 2.113-.886.992-.315 1.994-.607 3.028-.776 1.104-.18 2.214-.326 3.329-.28 1.171.05 2.33.195 3.475.522 1.528.436 2.843 1.197 4 2.242.568.513 1.01 1.14 1.418 1.789.465.737.784 1.542 1.006 2.367a9.88 9.88 0 0 1 .337 2.878zm-35.607 10.744c.002 1.143-.262 2.22-.722 3.27-.735 1.68-1.842 3.07-3.243 4.23a8.637 8.637 0 0 1-3.18 1.691c-1.155.325-2.324.389-3.475-.127-.9-.404-1.513-1.075-1.882-1.94-.49-1.148-.512-2.33-.232-3.565.583-2.566 1.984-4.59 3.988-6.24.983-.808 2.107-1.428 3.358-1.667 1.673-.318 3.29-.207 4.479 1.27.681.846.906 1.834.91 2.891v.187zM74.278 98.74H72.43c-1.32 0-2.308-.595-2.987-1.692-.306-.493-.375-1.07-.422-1.64-.017-.204.143-.264.328-.263h1.509c.21 0 .322.094.33.312.031.836.738 1.2 1.39 1.19 1.157-.017 2.314-.004 3.47-.004.636 0 1.083-.317 1.31-.906.165-.43.045-1.007-.416-1.39-.287-.238-.687-.33-1.089-.327-.968.008-1.94.059-2.904-.011-1.174-.086-2.249-.8-2.604-2.116-.237-.876-.155-1.674.376-2.419.129-.18-.014-.272-.134-.36a4.165 4.165 0 0 1-1.27-1.501 5.232 5.232 0 0 1-.518-3.214c.161-1.09.595-2.06 1.494-2.766 1.095-.858 2.314-1.187 3.697-.85a4.686 4.686 0 0 1 1.508.673c.262.175.404.104.433-.216.02-.215.108-.313.327-.31.566.004 1.132.001 1.698 0 .273 0 .403.11.4.406-.011 1.335.042 2.672-.016 4.004-.08 1.869-.876 3.34-2.596 4.253-.752.4-1.546.524-2.378.526-.468.001-.779.202-.932.589-.237.6.164 1.21.812 1.215.968.009 1.938-.037 2.904.012 1.43.074 2.584.71 3.148 2.08.595 1.447.234 2.893-.885 3.9-.577.519-1.288.826-2.098.825h-2.037zm-.737-10.858c1.3-.046 2.4-.953 2.395-2.537-.005-1.578-1.075-2.541-2.403-2.542-1.282 0-2.378.944-2.383 2.531-.004 1.612 1.106 2.5 2.39 2.548zm50.896-1.056c0-1.81.007-3.618-.007-5.427-.002-.35.089-.497.467-.475.501.03 1.006.012 1.509.005.302-.004.486.089.453.43-.012.132-.034.299.089.38.153.1.247-.07.347-.147.668-.52 1.411-.893 2.261-.931 1.132-.05 2.147.295 3.003 1.062.468.418.846.894 1.061 1.485.187.513.358 1.037.361 1.584.011 2.52 0 5.04.011 7.56.001.293-.08.402-.382.392a23.63 23.63 0 0 0-1.622 0c-.288.01-.362-.097-.36-.37.009-2.158 0-4.316.008-6.475.002-.616-.078-1.226-.326-1.78-.433-.965-1.418-1.46-2.475-1.293-.71.111-1.27.477-1.622 1.098-.179.317-.314.663-.325 1.048-.071 2.42-.014 4.84-.032 7.259-.004.473-.035.507-.515.508h-1.396c-.508 0-.508 0-.508-.523v-5.39zm-57.283.316c.034 1.014-.064 2.044-.434 3.013a4.22 4.22 0 0 1-1.92 2.21c-.8.447-1.673.719-2.596.663-1.131-.067-2.15-.445-3.029-1.202-1.198-1.031-1.532-2.405-1.622-3.866-.076-1.254-.09-2.52.213-3.753.201-.821.569-1.573 1.201-2.167.487-.456 1.02-.85 1.665-1.062.85-.28 1.7-.449 2.608-.235.67.159 1.303.374 1.861.773 1.028.733 1.645 1.714 1.877 2.962.164.879.183 1.756.176 2.664zm-2.417-.145c0-.443.014-.743-.003-1.042-.041-.71-.022-1.431-.4-2.085-.465-.802-1.717-1.27-2.599-.992-.839.263-1.445.772-1.615 1.594-.283 1.37-.205 2.773-.097 4.163.049.621.213 1.22.73 1.636.709.57 1.486.764 2.393.47.656-.213 1.404-.983 1.482-1.655.086-.743.134-1.486.109-2.09zm47.962-.248a8.067 8.067 0 0 1 .174-2.477c.208-.93.66-1.758 1.408-2.399 1.088-.932 2.344-1.368 3.773-1.178 1.681.225 2.949 1.079 3.695 2.613.386.793.52 1.655.533 2.528.017 1.145.079 2.297-.153 3.428a5.029 5.029 0 0 1-.848 1.902c-.557.783-1.334 1.289-2.225 1.586-.793.265-1.612.375-2.471.183-1.055-.237-1.964-.7-2.679-1.49-.57-.63-.9-1.388-1.06-2.228-.15-.791-.174-1.584-.147-2.468zm2.407.065c0 .399-.004.798.002 1.196.006.423.018.855.15 1.253.293.879.914 1.43 1.845 1.585 1.108.184 2.338-.417 2.595-1.602.312-1.432.227-2.897.09-4.35-.052-.543-.233-1.048-.658-1.43-.71-.64-1.512-.827-2.44-.53-.773.247-1.36 1.001-1.492 1.717-.132.713-.091 1.439-.092 2.16zm48.101.06c-.008.967.063 1.941-.243 2.881-.275.849-.723 1.596-1.437 2.152-1.265.983-2.662 1.36-4.262.953-1.666-.422-2.73-1.47-3.315-3.02-.283-.75-.298-1.554-.282-2.353.016-.797-.054-1.602.03-2.392.157-1.484.754-2.748 2.064-3.613 1.29-.852 2.683-1.07 4.134-.604 1.326.425 2.313 1.273 2.884 2.592.48 1.109.41 2.255.427 3.404zm-7.107-.078c0 .598-.002 1.196 0 1.794.002.433.158.832.356 1.198.331.613.909.933 1.58 1.057 1.09.2 2.163-.365 2.568-1.383a3.887 3.887 0 0 0 .257-1.572c-.028-.771-.015-1.544-.005-2.317.006-.493-.068-.998-.278-1.414-.635-1.256-1.91-1.72-3.2-1.109-.842.4-1.227 1.155-1.273 2.064-.028.56-.005 1.121-.005 1.682zm20.301-4.082c-.377-.068-.843.03-1.277.234-.485.228-.852.669-.787 1.417.063.722.53 1.112 1.258 1.208 1.14.15 2.297.156 3.42.439 1.19.299 2.2 1.546 2.215 2.783.006.591.036 1.17-.203 1.755a3.344 3.344 0 0 1-1.701 1.817c-1.544.743-3.163.788-4.833.498-1.09-.19-2.035-.615-2.87-1.32-.252-.213-.203-.38.007-.578.366-.345.72-.702 1.08-1.052.177-.171.33-.122.515.017 1.384 1.04 2.929 1.302 4.56.765.985-.323 1.425-1.317.88-2.132-.276-.41-.691-.618-1.163-.676-1.126-.14-2.277-.136-3.37-.467-1.015-.308-1.98-1.084-2.116-2.45-.068-.677-.065-1.33.195-1.975a3.255 3.255 0 0 1 1.537-1.695c1.334-.71 2.758-.756 4.225-.515.758.124 1.46.362 2.135.718.193.101.32.269.503.378.145.087.118.235.002.352-.386.39-.772.782-1.161 1.17-.14.14-.307.118-.446.014-.743-.553-1.59-.722-2.605-.705zm-72.153 4.157c-.007.698-.033 1.4.085 2.09.118.686.549 1.47 1.618 1.817.93.303 2.215-.164 2.718-1.057.375-.666.375-.639 1.071-.318.346.16.676.356 1.051.46.219.062.383.164.21.487-.693 1.3-1.737 2.103-3.167 2.503-1.333.372-2.562.132-3.7-.515-1.018-.579-1.698-1.475-2.02-2.632-.416-1.484-.263-2.985-.232-4.488.014-.71.19-1.382.5-1.993a4.493 4.493 0 0 1 1.867-1.94 4.749 4.749 0 0 1 1.897-.597c1.745-.154 3.177.47 4.3 1.795.23.27.423.558.576.885.105.225.058.325-.129.406-.576.247-1.154.49-1.736.725-.18.073-.309-.06-.355-.198-.198-.588-.603-.991-1.139-1.262-1.126-.567-2.63-.113-3.126 1.077-.372.894-.258 1.83-.289 2.755zm-19.168-.029c.024-.758-.083-1.522.074-2.274.24-1.155.738-2.158 1.712-2.888 1.114-.837 2.352-1.2 3.739-.955 1.42.25 2.558.948 3.344 2.169.02.03.063.045.081.075.397.632.367.66-.346.964-.398.17-.81.312-1.191.508-.311.16-.405-.005-.506-.222-.417-.898-1.136-1.386-2.119-1.419-1.114-.036-2.157.691-2.381 2.083-.122.758-.053 1.518-.064 2.277-.01.72.008 1.428.195 2.147.273 1.056 1.664 1.788 2.653 1.529.81-.213 1.433-.63 1.748-1.434.082-.21.2-.298.462-.172.488.234 1.003.411 1.507.612.321.127.353.268.188.573-.491.913-1.184 1.621-2.129 2.07-.954.451-1.948.673-3.01.473-.972-.183-1.835-.585-2.548-1.272-.895-.863-1.316-1.947-1.402-3.16-.04-.558-.007-1.122-.007-1.684zm52.226-.423c0-1.073-.013-2.147.008-3.22.006-.313-.108-.388-.39-.373-.327.017-.655 0-.982.005-.213.004-.321-.066-.313-.302a16.83 16.83 0 0 0 0-1.272c-.01-.254.1-.332.332-.328.339.006.68-.014 1.018.006.273.016.337-.091.333-.346-.015-.823.001-1.647-.01-2.47-.003-.25.061-.36.339-.35.59.019 1.182.016 1.773 0 .237-.006.32.045.315.3-.019.811.003 1.623-.012 2.434-.006.323.11.444.438.433.553-.02 1.107 0 1.66-.008.285-.005.413.104.401.397-.015.374-.019.75.001 1.123.016.307-.133.388-.407.384-.553-.007-1.107.006-1.66-.005-.299-.005-.433.102-.431.414.006 2.158-.005 4.317.008 6.476.003.692.445 1.1 1.213 1.164.3.025.604.011.906.006.257-.004.386.077.372.367-.022.473-.008.948-.004 1.422.001.22-.072.357-.32.363-.893.02-1.769-.019-2.599-.425-1.285-.628-1.92-1.668-1.98-3.051-.045-1.046-.009-2.096-.009-3.144zm-83.282-3.572c0 2.22.016 4.44-.007 6.66-.01.976.456 1.356 1.386 1.378 1.112.026 1.115.014 1.11 1.1-.004 1.205.139 1.064-1.064 1.048-1.352-.019-2.51-.477-3.293-1.631a3.223 3.223 0 0 1-.546-1.825c-.007-4.528-.002-9.055-.01-13.583 0-.279.11-.382.372-.38.528.003 1.057.017 1.584-.005.355-.015.479.096.476.465-.016 2.258-.008 4.516-.008 6.773zm113.762.045c0 2.245.009 4.49-.004 6.735-.005.868.464 1.18 1.228 1.257.286.028.578.006.867.004.268-.001.419.088.405.394-.02.435-.014.873-.003 1.31.007.309-.107.446-.44.452-1.025.017-2.012-.073-2.908-.65-.974-.627-1.534-1.53-1.544-2.64-.042-4.603-.016-9.205-.023-13.807 0-.206.077-.315.261-.318.64-.013 1.282-.02 1.922-.006.279.005.238.238.238.422l.001 6.51v.337zM144.93 86.83c0-1.834.007-3.668-.007-5.501-.003-.316.096-.415.404-.405.528.019 1.056.011 1.584.003.269-.005.393.09.363.372-.016.155-.053.344.132.434.171.083.265-.068.383-.158.658-.504 1.388-.865 2.226-.916 1.088-.066 2.055.3 2.917.942.214.16.262.363.04.579-.417.405-.863.78-1.236 1.23-.115.139-.301.164-.464.013-.717-.664-1.563-.798-2.45-.468-.657.243-1.106.737-1.335 1.423-.243.728-.217 1.473-.217 2.22 0 1.92-.006 3.841.007 5.762.002.3-.088.393-.383.382a21.801 21.801 0 0 0-1.584 0c-.29.012-.39-.066-.388-.374.015-1.846.008-3.692.008-5.538zm-62.038.042v5.389c0 .461-.015.476-.495.477-.503 0-1.007-.013-1.509.005-.29.01-.404-.089-.403-.382.005-3.68.005-7.36 0-11.04 0-.286.1-.404.397-.395.527.015 1.056.01 1.584 0 .318-.005.435.115.433.445-.014 1.834-.007 3.667-.007 5.501zm14.678 15.102c.465.06.798.25 1.041.584.358.492.34 1.048.253 1.602-.15.965-1.006 1.372-1.798 1.388-.828.018-1.657-.003-2.486.01-.217.002-.3-.03-.299-.278.012-2.168.011-4.336 0-6.505 0-.236.067-.287.293-.282.853.018 1.71-.028 2.56.034.705.053 1.391.45 1.483 1.244.081.706.11 1.376-.508 1.899-.15.127-.359.108-.54.304zm-2.3-1.542c0 .324.007.648-.004.97-.005.164.049.217.213.21.451-.016.903-.028 1.354-.023a.684.684 0 0 0 .441-.16c.434-.323.433-.784.38-1.238-.018-.153-.007-.33-.141-.484-.597-.691-1.398-.408-2.127-.47-.256.338-.047.725-.116 1.083-.006.036 0 .074 0 .112zm0 3.11c0 .336.007.672-.004 1.007-.005.176.019.27.238.26.4-.02.804.02 1.202-.013.45-.036.88-.144 1.125-.594.148-.273.061-.56.076-.84.022-.402-.225-.645-.553-.822-.62-.335-1.296-.167-1.95-.207-.164-.01-.133.108-.134.203v1.006zm57.267-.592c0-.76.006-1.522-.003-2.282-.002-.192.022-.326.255-.276.246.053.681-.211.624.372-.01.104.128.07.208.028.415-.22.837-.416 1.323-.43.445-.011.914-.125 1.17.419.069.148.227.03.326-.028a2.916 2.916 0 0 1 1.893-.379c.415.052.594.3.734.625.08.184.1.384.1.584.002 1.222-.006 2.444.007 3.666.002.247-.065.314-.313.31-.648-.01-.648.002-.648-.637v-3.254c0-.395-.136-.519-.54-.535-.427-.018-.79.187-1.176.312-.206.066-.234.221-.233.414.007 1.097-.008 2.195.01 3.291.006.308-.043.437-.397.412-.53-.037-.532-.01-.532-.529v-3.367c0-.384-.153-.53-.543-.531-.408 0-.765.193-1.146.294-.213.057-.263.218-.261.432.01 1.122-.004 2.245.01 3.367.004.255-.052.369-.322.327a1.035 1.035 0 0 0-.301 0c-.204.029-.252-.056-.25-.248.01-.786.005-1.572.005-2.357zm-40.313.475c0 .611-.009 1.223.006 1.834.005.22-.04.303-.286.3-.6-.006-.6.009-.6-.573v-3.106c0-.648-.283-.876-.919-.72-.264.064-.521.161-.778.254-.232.084-.337.227-.332.503.02 1.098 0 2.196.015 3.293.004.27-.05.4-.344.345a.81.81 0 0 0-.263 0c-.219.032-.268-.06-.266-.268.01-1.148.005-2.295.004-3.443-.001-.628-.252-.821-.87-.667-.252.063-.509.118-.753.207-.243.088-.4.223-.392.543.026 1.097-.003 2.196.018 3.293.005.293-.085.376-.355.335a1.202 1.202 0 0 0-.302 0c-.158.016-.218-.034-.217-.204.006-1.584.005-3.169 0-4.753 0-.16.046-.225.214-.21.15.013.302.01.452 0 .14-.008.216.03.199.184-.043.386.167.255.352.165.589-.286 1.19-.473 1.866-.364.244.04.39.135.495.333.084.159.2.168.34.077.61-.4 1.277-.516 1.993-.398.306.05.513.204.604.51.219.736.078 1.488.119 2.23.005.1 0 .2 0 .3zm-24.278-4.927h.075c.59 0 .689.109.835.692.163.651.37 1.292.564 1.936.29.96.636 1.903.882 2.878.096.38.24.75.376 1.12.14.38.117.427-.276.428-.712.003-.725-.021-.875-.769-.065-.322-.209-.628-.281-.95-.062-.272-.203-.347-.472-.336-.514.021-1.03.007-1.545.007-.505 0-.647.099-.706.588-.054.448-.346.817-.384 1.266-.012.146-.107.214-.261.196-.075-.01-.151-.002-.227-.002-.59 0-.57.007-.396-.552.335-1.072.615-2.163.98-3.224.216-.626.387-1.265.62-1.884.125-.333.251-.682.305-1.016.063-.386.238-.4.522-.38.087.007.175.002.264.002zm-.036.805c.015.458-.216.857-.342 1.274-.189.621-.333 1.257-.581 1.862-.08.195-.044.348.254.334.55-.025 1.103-.007 1.702-.007l-1.033-3.463zm73.82 1.561c.658-.395 1.27-.607 1.977-.487.516.087 1 .466 1.15.95a5.18 5.18 0 0 1-.007 3.144c-.226.727-1.159 1.297-1.99 1.195-.357-.043-.71-.117-1.1-.183 0 .646-.009 1.29.006 1.934.005.231-.04.32-.3.314-.606-.015-.606 0-.606-.61l-.001-6.323c0-.225-.053-.483.322-.407.25.051.722-.214.548.473zm.03 2.276v.673c0 1.088.079 1.136 1.204 1.092.477-.018.823-.23.965-.615.321-.868.36-1.764.02-2.652-.1-.26-.293-.443-.548-.492-.532-.102-1.02.077-1.49.314-.144.072-.153.168-.152.298.004.46.002.922.002 1.382zm-28.755-1.297v-3.33c0-.39.088-.427.635-.456.39-.022.266.233.268.411.008.71.009 1.422 0 2.133-.002.24.053.288.274.162a3.14 3.14 0 0 1 2.118-.378c.366.06.685.416.694.917.023 1.36.01 2.72.014 4.079 0 .127-.038.162-.17.176-.739.079-.738.084-.738-.657v-3.218c-.001-.373-.16-.52-.541-.55-.48-.037-.905.162-1.348.278-.225.06-.311.223-.307.479.017 1.122 0 2.245.014 3.368.004.252-.074.306-.313.301-.6-.011-.6 0-.6-.61v-3.105zm7.85.182c-.018-.824.113-1.601.461-2.372.497-1.1 1.843-1.405 2.827-1.251.38.059.772.076 1.136.233.16.07.225.142.155.305-.015.034-.038.066-.045.1-.118.594-.118.596-.722.378-.608-.22-1.205-.3-1.823-.003-.46.222-.676.61-.772 1.056-.212.981-.245 1.967-.016 2.96.224.974.607 1.264 1.473 1.368.507.062.979-.108 1.45-.274.178-.062.394-.284.522.092.18.528.153.578-.191.73-.862.382-1.752.39-2.637.191-.562-.127-1-.49-1.296-1.01-.448-.783-.545-1.629-.522-2.503zm36.074-1.606c.922-.091.948-.066 1.203.786.183.61.386 1.215.59 1.818.18.533.401 1.053.533 1.623.08-.385.22-.754.3-1.13.084-.396.21-.78.312-1.169.154-.58.357-1.15.465-1.744.029-.157.113-.235.286-.215.111.013.228.017.338 0 .337-.052.325.17.259.36-.098.28-.158.57-.249.848-.42 1.295-.703 2.629-1.13 3.923-.191.581-.355 1.156-.708 1.667-.36.523-.865.663-1.462.593-.087-.01-.17-.042-.257-.054-.586-.076-.616-.123-.434-.662.028-.08.036-.167.058-.27.27.114.537.184.827.195.335.013.588-.042.713-.385.1-.275.222-.543.312-.82.026-.083.032-.171-.121-.25-.195-.1-.238-.376-.314-.588-.23-.644-.444-1.295-.661-1.943-.287-.858-.572-1.716-.86-2.583zm-5.18 2.551c0-.748.01-1.496-.005-2.243-.006-.25.045-.38.325-.339.111.016.227.012.339 0 .21-.022.331.016.302.272-.03.248.09.182.243.1.602-.319 1.232-.502 1.929-.386.592.098.902.413.907 1.027.012 1.308 0 2.618.008 3.926.001.182-.056.224-.233.23-.72.025-.72.032-.72-.683 0-1.022.003-2.044-.002-3.066-.003-.594-.102-.684-.709-.673-.418.008-.796.184-1.19.292-.187.05-.248.182-.245.39.013 1.146-.002 2.293.013 3.44.003.25-.073.305-.312.301-.65-.01-.65.001-.65-.643v-1.945zm-25.159-.092c-.07-.475.045-1.02.297-1.525.44-.887 1.247-1.037 2.146-1.013.851.023 1.455.427 1.74 1.188.32.86.37 1.756.088 2.66-.15.476-.364.882-.799 1.151-.573.354-1.195.373-1.835.267-1.15-.19-1.543-1.083-1.634-2.072-.017-.185-.003-.374-.003-.656zm.907.071c0 .2-.016.339.003.473.066.473.122.95.53 1.29.339.283.73.182 1.108.168.317-.012.69-.308.77-.598.165-.607.233-1.233.138-1.849-.128-.835-.245-1.313-1.152-1.343-.464-.015-.933.002-1.186.651a2.987 2.987 0 0 0-.211 1.208zm-24.454.125c-.041-.681.082-1.318.442-1.914.44-.728 1.127-.853 1.888-.815 1.19.059 1.619.903 1.642 1.944.019.85.012.853-.823.883-.64.023-1.28.051-1.918.053-.22 0-.257.067-.261.27-.011.53.053 1.02.591 1.285.362.177.75.117 1.132.049.256-.047.504-.135.752-.202.252-.068.304.02.31.192.005.187.29.425-.117.56-.774.258-1.56.401-2.351.163-.69-.209-1.034-.76-1.218-1.43-.095-.346-.052-.692-.069-1.038zm2.159-.512c.216 0 .467.005.717-.003.077-.002.169.037.218-.085.254-.628-.299-1.472-.98-1.489-.713-.018-1.354.857-1.133 1.533.043.13.127.098.205.095.313-.013.625-.032.973-.051zm-25.063.73c.047-.737.05-1.276.27-1.794.386-.904 1.042-1.18 1.96-1.162.711.015 1.287.26 1.558.958.221.569.2 1.168.123 1.761-.022.174-.207.107-.317.111-.777.029-1.556.069-2.333.054-.327-.006-.363.129-.31.365.097.434.079.92.58 1.17.397.197.8.14 1.204.068.256-.045.493-.16.757-.197.147-.02.192-.01.24.123.179.504.061.697-.577.793-.576.087-1.147.188-1.743.024-.558-.153-1.222-.709-1.29-1.284-.047-.392-.154-.783-.122-.99zm3.128-1.074c-.024-.147-.041-.295-.073-.44-.109-.489-.36-.725-.827-.787-.45-.06-.874.15-1.066.56-.13.278-.16.588-.204.892-.03.205.115.177.237.173.525-.016 1.05-.052 1.575-.047.272.002.412-.055.358-.351zm65.947 3.002c-.443.137-.807.329-1.214.4-.624.11-1.274.01-1.6-.531-.485-.804-.042-1.889.862-2.099.526-.122 1.054-.228 1.596-.204.223.01.32-.043.304-.286-.021-.323-.014-.649-.003-.973.009-.272-.127-.389-.383-.391-.313-.003-.625-.014-.934.07-.346.095-.7.164-1.046.243-.02-.024-.05-.044-.049-.06.016-.25-.263-.513-.105-.696.124-.144.438-.123.665-.185.688-.187 1.386-.196 2.087-.12.3.034.638.447.646.887.027 1.371.015 2.744.016 4.116 0 .046-.02.13-.036.131-.173.018-.35.007-.52.034-.263.042-.277-.131-.286-.336zm-.057-1.192c0-.099-.015-.2.002-.297.059-.33-.09-.418-.386-.336-.32.088-.646.048-.97.063-.475.02-.66.201-.66.751 0 .446.1.718.594.756.228.017.443-.022.664-.07.754-.16.756-.154.756-.867zm-51.774-.766c0 .685.002 1.37-.002 2.055 0 .098.05.27-.137.228-.205-.045-.498.18-.606-.13-.071-.206-.088-.192-.287-.117-.586.223-1.171.469-1.838.32-.522-.115-.79-.446-.879-.918-.112-.598-.044-1.242.652-1.614.286-.153.618-.17.932-.22.346-.057.694-.118 1.048-.084.23.022.307-.07.291-.3-.02-.285.003-.573-.01-.86-.012-.31-.14-.482-.502-.497-.601-.025-1.154.187-1.728.287-.192.034-.24.01-.259-.176-.058-.539-.064-.535.464-.691.717-.213 1.449-.235 2.187-.158.352.037.67.427.673.819.004.685.001 1.37 0 2.056zm-.83.732c0-.161-.003-.323 0-.484.002-.105-.022-.165-.149-.14-.479.096-.97.06-1.452.116-.287.033-.438.245-.429.514.011.318-.162.714.306.89.32.12.622.074.948 0 .771-.176.775-.158.775-.896zm5.248.502c.032.048.04.058.045.068.26.699.266.72-.435.935-.362.112-.737.227-1.137.145-.516-.107-.776-.394-.777-.917-.004-1.06-.011-2.121.006-3.181.004-.272-.053-.4-.343-.341-.375.076-.343-.164-.35-.412-.007-.267-.002-.476.36-.403.256.051.375-.044.327-.313-.01-.06-.001-.125-.001-.187 0-.701 0-.695.713-.71.139-.004.216-.002.194.158a.515.515 0 0 0 0 .112c.024.307-.141.727.065.89.194.153.6.037.911.054.154.008.39-.089.445.066.07.2.032.443.014.666-.01.123-.139.075-.217.077-.302.005-.605.014-.905-.003-.228-.012-.327.028-.321.294.018.96.005 1.921.008 2.881.001.487.138.592.594.423.266-.098.557-.127.804-.302zm9.604-3.149c-.383-.192-.77-.23-1.173-.215-.526.02-.966.42-.998.947-.037.61-.081 1.226.01 1.828.125.83.646 1.113 1.569.924.06-.012.116-.048.173-.073.545-.235.672-.133.67.458 0 .301-.256.286-.382.306-.548.085-1.087.205-1.665.056-.486-.125-.76-.439-1.038-.78-.089-.11-.132-.266-.164-.408-.269-1.207-.372-2.418.39-3.49.376-.53 1.025-.603 1.644-.554.345.027.7 0 1.04.11.127.041.154.07.11.2-.077.221-.123.451-.186.691zm-49.82-21.689c-.306-.044-.774.164-1.021-.086-.232-.233-.066-.69-.072-1.047-.013-.751-.004-.751.747-.751.464 0 .929.006 1.393-.004.194-.004.269.056.264.255-.012.461-.014.922 0 1.383.007.21-.09.254-.269.251-.326-.004-.652 0-1.041 0z" opacity=".301" fill="#D4E1ED"/></g></svg>