<?xml version="1.0" encoding="UTF-8"?>
<svg width="256px" height="74px" viewBox="0 0 256 74" version="1.1" xmlns="http://www.w3.org/2000/svg" xmlns:xlink="http://www.w3.org/1999/xlink">
    <!-- Generator: Sketch 61.2 (89653) - https://sketch.com -->
    <title>logo_google_glass_medical_library</title>
    <desc>Created with Sketch.</desc>
    <g id="03-what-we-do-(SRC)" stroke="none" stroke-width="1" fill="none" fill-rule="evenodd">
        <g id="Group" fill="#FFFFFF" fill-rule="nonzero">
            <path d="M181.680593,56.7386808 L184.753615,64.8290384 L187.619001,56.7386808 L190.235223,56.7386808 L185.874853,67.9248385 C185.002779,70.1744533 184.026887,71 182.261975,71 C181.223792,71 180.434773,70.752336 179.666517,70.318924 L179.666517,70.318924 L180.517827,68.4820826 C180.974628,68.7297466 181.472956,68.8948559 181.992048,68.8948559 C182.698012,68.8948559 183.134049,68.5852759 183.549323,67.6565359 L183.549323,67.6565359 L178.981316,56.7386808 L181.680593,56.7386808 Z M86.87369,56.5116554 C88.929293,56.5116554 90.2166403,57.2752861 91.2548236,58.3897742 L91.2548236,58.3897742 L89.676785,60.0615062 C88.9085293,59.2772369 88.0987463,58.6993542 86.8529263,58.6993542 C85.0257236,58.6993542 83.6760853,60.2678929 83.6760853,62.1666503 L83.6760853,62.1666503 L83.6760853,62.2079277 C83.6760853,64.1479624 85.0257236,65.6958625 86.9567446,65.6958625 C88.1402736,65.6958625 88.991584,65.1592571 89.801367,64.3543491 L89.801367,64.3543491 L91.3171146,65.8403331 C90.237404,67.0373758 88.9708203,67.8835612 86.8321626,67.8835612 C83.5722669,67.8835612 81.1636816,65.3450051 81.1636816,62.249205 L81.1636816,62.249205 L81.1636816,62.2079277 C81.1636816,59.1121275 83.5722669,56.5116554 86.87369,56.5116554 Z M54.1086238,56.5116554 C57.5969198,56.5116554 59.3618315,59.2359595 59.3618315,62.373037 C59.3618315,62.6000623 59.3410678,62.8270877 59.3203041,63.0747517 L59.3203041,63.0747517 L51.2640014,63.0747517 C51.5339291,64.8496771 52.8005127,65.8403331 54.4200788,65.8403331 C55.6451351,65.8403331 56.5172091,65.3862824 57.3892831,64.5400971 L57.3892831,64.5400971 L58.8635035,65.8403331 C57.8253201,67.0786532 56.3926271,67.8835612 54.3785514,67.8835612 C51.2017104,67.8835612 48.7515977,65.5926691 48.7515977,62.2285663 L48.7515977,62.2285663 L48.7515977,62.187289 C48.7515977,59.0708502 50.9733101,56.5116554 54.1086238,56.5116554 Z M97.9822517,56.5942101 C99.6225814,56.5942101 100.847638,57.0276221 101.615893,57.8118915 C102.425676,58.5961609 102.799422,59.7519262 102.799422,61.1759943 L102.799422,61.1759943 L102.799422,67.6358972 L100.34931,67.6358972 L100.34931,66.2737451 C99.6018177,67.1612079 98.459816,67.8629225 96.777959,67.8629225 C94.722356,67.8629225 92.8743897,66.6865185 92.8743897,64.4988197 L92.8743897,64.4988197 L92.8743897,64.4575424 C92.8743897,62.1047343 94.7431197,60.9489689 97.4216327,60.9489689 C98.646689,60.9489689 99.518763,61.134717 100.370073,61.4030196 L100.370073,61.4030196 L100.370073,61.134717 C100.370073,59.5868169 99.4149447,58.7612702 97.650033,58.7612702 C96.4249767,58.7612702 95.5113753,59.0295729 94.5147193,59.4423462 L94.5147193,59.4423462 L93.8295183,57.4816728 C95.0545747,56.9450675 96.2381037,56.5942101 97.9822517,56.5942101 Z M139.260421,52.56967 L139.260421,58.5548835 C140.070204,57.4197568 141.212206,56.5116554 142.997881,56.5116554 C145.572576,56.5116554 148.08498,58.5342448 148.08498,62.1666503 L148.08498,62.1666503 L148.08498,62.2079277 C148.08498,65.8196945 145.59334,67.8629225 142.997881,67.8629225 C141.170679,67.8629225 140.028677,66.9548212 139.260421,65.9435265 L139.260421,65.9435265 L139.260421,67.6358972 L136.727254,67.6358972 L136.727254,52.56967 L139.260421,52.56967 Z M72.6713419,52.56967 L72.6713419,67.6358972 L70.1589382,67.6358972 L70.1589382,65.8196945 C69.3491552,66.9548212 68.2071535,67.8629225 66.4214782,67.8629225 C63.8467835,67.8629225 61.3343798,65.8196945 61.3343798,62.2079277 L61.3343798,62.2079277 L61.3343798,62.1666503 C61.3343798,58.5548835 63.8052561,56.5116554 66.4214782,56.5116554 C68.2279172,56.5116554 69.3699188,57.3991181 70.1589382,58.4310515 L70.1589382,58.4310515 L70.1589382,52.56967 L72.6713419,52.56967 Z M163.616202,56.5942101 C165.256532,56.5942101 166.481588,57.0276221 167.249844,57.8118915 C168.059627,58.5961609 168.433373,59.7519262 168.433373,61.1759943 L168.433373,61.1759943 L168.433373,67.6358972 L165.98326,67.6358972 L165.98326,66.2737451 C165.235768,67.1612079 164.093767,67.8629225 162.41191,67.8629225 C160.356307,67.8629225 158.50834,66.6865185 158.50834,64.4988197 L158.50834,64.4988197 L158.50834,64.4575424 C158.50834,62.1047343 160.37707,60.9489689 163.055583,60.9489689 C164.28064,60.9489689 165.152714,61.134717 166.004024,61.4030196 L166.004024,61.4030196 L166.004024,61.134717 C166.004024,59.5868169 165.048895,58.7612702 163.283984,58.7612702 C162.058927,58.7612702 161.145326,59.0295729 160.14867,59.4423462 L160.14867,59.4423462 L159.463469,57.4816728 C160.688525,56.9450675 161.872054,56.5942101 163.616202,56.5942101 Z M133.467358,56.7386808 L133.467358,67.6358972 L130.934191,67.6358972 L130.934191,56.7386808 L133.467358,56.7386808 Z M78.4851686,56.7386808 L78.4851686,67.6358972 L75.9520012,67.6358972 L75.9520012,56.7386808 L78.4851686,56.7386808 Z M156.847109,56.5280898 L157.075647,56.5322941 L157.075647,59.1740435 L156.930302,59.1740435 C154.729353,59.1740435 153.192842,60.5981116 153.192842,63.487525 L153.192842,63.487525 L153.192842,67.6358972 L150.659674,67.6358972 L150.659674,56.7386808 L153.192842,56.7386808 L153.192842,59.1946822 C153.878043,57.5642275 155.144626,56.4497394 157.075647,56.5322941 Z M120.822285,53.18883 L120.822285,65.3243664 L128.463315,65.3243664 L128.463315,67.6358972 L118.268354,67.6358972 L118.268354,53.18883 L120.822285,53.18883 Z M108.467903,52.56967 L108.467903,67.6358972 L105.934736,67.6358972 L105.934736,52.56967 L108.467903,52.56967 Z M177.610776,56.5280898 L177.839314,56.5322941 L177.839314,59.1740435 L177.693969,59.1740435 C175.49302,59.1740435 173.956508,60.5981116 173.956508,63.487525 L173.956508,63.487525 L173.956508,67.6358972 L171.423341,67.6358972 L171.423341,56.7386808 L173.956508,56.7386808 L173.956508,59.1946822 C174.641709,57.5642275 175.908293,56.4497394 177.839314,56.5322941 Z M34.341613,53.18883 L38.764274,60.0202289 L43.186935,53.18883 L45.9069754,53.18883 L45.9069754,67.6358972 L43.3530444,67.6358972 L43.3530444,57.2752861 L38.764274,64.0860464 L38.6812193,64.0860464 L34.1339763,57.3165635 L34.1339763,67.6358972 L31.6215726,67.6358972 L31.6215726,53.18883 L34.341613,53.18883 Z M97.9199607,62.5381463 C96.3003947,62.5381463 95.345266,63.2192224 95.345266,64.3543491 L95.345266,64.3543491 L95.345266,64.3956264 C95.345266,65.4481985 96.279631,66.0467198 97.4839237,66.0467198 C99.145017,66.0467198 100.411601,65.0973411 100.411601,63.7145504 L100.411601,63.7145504 L100.411601,62.9715584 C99.767927,62.7238943 98.9166167,62.5381463 97.9199607,62.5381463 Z M163.553911,62.5381463 C161.934345,62.5381463 160.979217,63.2192224 160.979217,64.3543491 L160.979217,64.3543491 L160.979217,64.3956264 C160.979217,65.4481985 161.913582,66.0467198 163.117874,66.0467198 C164.778968,66.0467198 166.045551,65.0973411 166.045551,63.7145504 L166.045551,63.7145504 L166.045551,62.9715584 C165.401878,62.7238943 164.550567,62.5381463 163.553911,62.5381463 Z M142.395735,58.6787155 C140.693114,58.6787155 139.19813,60.0821449 139.19813,62.1666503 L139.19813,62.1666503 L139.19813,62.2079277 C139.19813,64.2924331 140.693114,65.6958625 142.395735,65.6958625 C144.119119,65.6958625 145.531049,64.3543491 145.531049,62.2079277 L145.531049,62.2079277 L145.531049,62.1666503 C145.531049,60.0615062 144.077592,58.6787155 142.395735,58.6787155 Z M67.0236245,58.6787155 C65.3002402,58.6787155 63.8675471,60.0202289 63.8675471,62.1666503 L63.8675471,62.1666503 L63.8675471,62.2079277 C63.8675471,64.3130717 65.3210038,65.6958625 67.0236245,65.6958625 C68.7054815,65.6958625 70.2004655,64.2924331 70.2004655,62.2079277 L70.2004655,62.2079277 L70.2004655,62.1666503 C70.2004655,60.0615062 68.7054815,58.6787155 67.0236245,58.6787155 Z M54.0878601,58.5548835 C52.5513487,58.5548835 51.4716381,59.7312876 51.2432377,61.4236583 L51.2432377,61.4236583 L56.8701914,61.4236583 C56.7040821,59.8138422 55.7489534,58.5548835 54.0878601,58.5548835 Z M78.5682232,52.693502 L78.5682232,55.0669487 L75.8689466,55.0669487 L75.8689466,52.693502 L78.5682232,52.693502 Z M133.550413,52.693502 L133.550413,55.0669487 L130.851136,55.0669487 L130.851136,52.693502 L133.550413,52.693502 Z M50.1299124,4.00057585 C56.0791982,4.04373336 59.9962602,6.15920052 63.9794464,11.0249023 L64.1578491,11.2446098 L62.2282698,12.7802494 C58.6209281,8.30192211 55.3498153,6.4954919 50.1118732,6.45749464 C40.6614201,6.38894204 32.9388174,13.2341386 32.492397,22.2862905 C32.0390079,31.4797471 39.169372,39.2978482 48.4185102,39.7485079 C56.7942046,40.1566095 62.7872114,34.2425612 63.775049,25.3471062 L63.7894609,25.206787 L54.3082765,25.2069115 L54.3082765,22.7499273 L66.4214986,22.7499273 L66.3579474,24.0385674 C65.8175837,34.9956307 58.5776499,42.7034414 48.2974857,42.2025455 C37.6848114,41.6854482 29.5032673,32.7147788 30.0234964,22.1659945 C30.5363945,11.7658612 39.3849549,3.92263305 50.1299124,4.00057585 Z M227.991492,10.3608705 L228.086413,10.5323547 L225.909758,11.6967504 C223.947333,8.07233955 219.269619,6.13743525 214.647933,6.78655446 C212.171553,7.08859539 210.43496,7.67493751 209.175703,8.78416769 L209.051358,8.8968425 L209.00003,8.94209071 C206.806169,10.7704978 205.854863,13.7806043 206.880719,16.0273013 L206.928899,16.1282303 L206.988884,16.2313817 C208.325392,18.4779623 210.77135,19.7584793 214.857099,20.7626383 L215.360561,20.8830823 L216.004714,21.0432717 L218.408471,21.6139746 L218.97636,21.7533646 C222.875604,22.72861 225.247055,23.718525 227.324204,25.5561424 L227.475683,25.6921271 C229.975672,27.9128039 230.60794,31.7125549 229.420546,35.1120939 C227.970969,39.0904418 223.822947,41.7767308 219.402425,41.9049869 L219.301573,41.9069088 L219.177189,41.9273298 C213.327789,42.8364218 207.398353,40.6842347 204.388779,36.0896612 L204.277295,35.916221 L206.371667,34.6112185 C208.773739,38.4199786 213.770166,40.2705242 218.765952,39.5043756 L219.078564,39.4533286 L219.175332,39.4522007 C222.683082,39.4113137 225.993042,37.3036133 227.090899,34.2908798 C227.969797,31.7743229 227.511301,29.0188907 225.817175,27.5139142 C224.026685,25.8832361 221.887241,24.9975487 218.093269,24.066762 L215.370999,23.4185985 L214.96623,23.3184341 C214.901177,23.3020916 214.836747,23.2857811 214.772068,23.2692872 L214.236118,23.141116 C209.566744,21.994102 206.609546,20.4412082 204.853279,17.4689426 L204.755146,17.2991784 L204.724233,17.2409011 C203.080159,13.9292427 204.323719,9.73147505 207.272385,7.17783372 L207.394104,7.07375207 L207.519181,6.96028174 C209.172925,5.49267606 211.270798,4.75342431 214.053035,4.38528663 L214.324429,4.35080694 C219.815793,3.57929331 225.452519,5.87284892 227.991492,10.3608705 Z M190.936594,10.3608705 L191.031515,10.5323547 L188.85486,11.6967504 C186.921724,8.12643523 182.353749,6.19556996 177.800004,6.75921335 L177.593035,6.78655446 C175.116655,7.08859539 173.380061,7.67493751 172.120804,8.78416769 L171.99646,8.8968425 L171.945131,8.94209071 C169.75127,10.7704978 168.799964,13.7806043 169.825821,16.0273013 L169.872987,16.1257144 L169.933985,16.2313817 C171.270493,18.4779623 173.716451,19.7584793 177.802201,20.7626383 L178.305662,20.8830823 L178.949816,21.0432717 L179.898802,21.2697135 L181.353572,21.6139746 L181.921461,21.7533646 C185.915809,22.7523965 188.306928,23.7668223 190.420784,25.6921271 C192.920774,27.9128039 193.553041,31.7125549 192.365648,35.1120939 C190.916071,39.0904418 186.768048,41.7767308 182.347527,41.9049869 L182.247144,41.9068498 L182.122291,41.9273298 C176.272891,42.8364218 170.343454,40.6842347 167.333881,36.0896612 L167.222396,35.916221 L169.316768,34.6112185 C171.71884,38.4199786 176.715268,40.2705242 181.711053,39.5043756 L182.023665,39.4533286 L182.120434,39.4522007 C185.628184,39.4113137 188.938143,37.3036133 190.036,34.2908798 C190.914898,31.7743229 190.456403,29.0188907 188.762276,27.5139142 C187.013426,25.9211588 184.931662,25.0391464 181.300398,24.1316374 L178.316101,23.4185985 L177.71717,23.2692872 L177.181219,23.141116 L176.66942,23.0119482 C172.294441,21.8771259 169.489601,20.3311243 167.79838,17.4689426 L167.700248,17.2991784 L167.669334,17.2409011 C166.02526,13.9292427 167.26882,9.73147505 170.217487,7.17783372 L170.339675,7.07369311 L170.464283,6.96028174 C172.118027,5.49267606 174.215899,4.75342431 176.998137,4.38528663 L177.26953,4.35080694 C182.760895,3.57929331 188.39762,5.87284892 190.936594,10.3608705 Z M81.2379364,5.3812978 L81.2378623,39.2469777 L107.443602,39.2472774 L107.443167,40.143202 L106.511768,41.7038784 L80.0020039,41.7042616 L78.7660713,40.4757695 L78.7660713,5.3812978 L81.2379364,5.3812978 Z M152.026345,4.8599266 L152.026769,41.344451 L149.554904,41.344451 L149.554775,7.70421422 L118.655178,41.6915943 L115.584133,41.6915943 L115.440764,41.5631919 L148.808966,4.8599266 L152.026345,4.8599266 Z" id="Combined-Shape"></path>
        </g>
    </g>
</svg>