<?xml version="1.0" encoding="UTF-8"?>
<svg width="256px" height="116px" viewBox="0 0 256 116" version="1.1" xmlns="http://www.w3.org/2000/svg" xmlns:xlink="http://www.w3.org/1999/xlink">
    <!-- Generator: Sketch 61.2 (89653) - https://sketch.com -->
    <title>bladepad</title>
    <desc>Created with Sketch.</desc>
    <g id="03-what-we-do-(SRC)" stroke="none" stroke-width="1" fill="none" fill-rule="evenodd">
        <g id="Group" fill="#FFFFFF" fill-rule="nonzero">
            <path d="M128.925301,44.5543049 C125.27889,44.5543049 122.323471,41.5449563 122.323471,37.8320072 C122.323471,34.1190581 125.27889,31.1097094 128.925301,31.1097094 C132.571713,31.1097094 135.527133,34.1190581 135.527133,37.8320072 C135.527133,41.5449563 132.571713,44.5543049 128.925301,44.5543049 L128.925301,44.5543049 Z M152.032811,21.4172782 C149.93783,18.3619932 152.776617,15.184587 154.675744,13.3807715 C151.603692,10.0252246 137.846576,10.3669416 134.254079,9.65997905 C130.661583,8.9541386 130.045412,5.17396592 130.154342,2.00216175 C125.295394,1.82850227 115.804162,12.1696364 112.80473,14.3028458 C109.804198,16.4360551 107.789539,14.7521193 104.912241,11.611687 C101.616827,14.7397961 101.95242,28.747943 101.258128,32.4059932 C100.564935,36.065164 98.0441368,36.7340321 93.7375412,36.5805405 C93.5669948,41.5281504 103.722812,51.1925732 105.817793,54.2467376 C107.912774,57.3020212 106.685933,58.9489845 103.174859,62.2832443 C106.246911,65.6387912 120.004028,65.2970742 123.596523,66.0040353 C127.18902,66.7098771 127.869008,68.6234906 127.69626,73.6629733 C132.555208,73.8355121 142.04644,63.4943779 145.045873,61.3611686 C148.046404,59.2279592 150.548499,61.4429567 152.938361,64.0523287 C156.233775,60.9242196 155.898182,46.9160727 156.592475,43.2580225 C157.285667,39.5999724 159.990217,38.9367049 164.114161,39.0834752 C164.283609,34.1358639 154.127792,24.4714411 152.032811,21.4172782 Z M46.148844,99.8849544 L57.9789475,99.8849544 C60.1016681,99.8849544 60.9928925,100.365287 60.6032571,101.214933 C60.2550537,101.972811 59.2853719,103.171179 58.5589939,103.73209 C57.9339905,104.232565 57.3535039,104.475194 56.2480679,104.733042 L55.6834489,104.677086 C56.686188,104.858833 57.4672213,105.24874 57.1890992,105.85531 C56.6667941,106.992799 55.2131547,108.600322 54.12006,109.206893 C53.0516478,109.813463 51.6561886,109.999687 49.8296633,109.999687 L38,109.999687 L46.148844,99.8849544 Z M45.0923329,104.267484 L53.9463986,104.267484 C55.0818073,104.267484 56.0285676,103.979194 56.6491627,103.433504 C57.2177483,102.948248 57.935753,102.083829 58.1376233,101.643785 C58.3879768,101.098097 57.9811516,100.855468 56.7963791,100.855468 L47.8435803,100.855468 L45.0923329,104.267484 Z M41.2766385,109.029175 L49.8345117,109.029175 C51.4142098,109.029175 52.2631217,108.847427 52.9617325,108.34695 C53.5060758,107.967787 54.5775726,106.708985 54.8354189,106.148075 C55.1488025,105.465405 54.660877,105.237996 52.8832765,105.237996 L44.3258435,105.237996 L41.2766385,109.029175 Z M69.9270456,99.8847757 L72.4133954,99.8847757 L65.4960448,108.581789 L77.329676,108.581789 L76.1219833,109.999956 L61.7782016,109.999956 L69.9270456,99.8847757 Z M96.8865932,107.861559 L85.3209469,107.861559 L81.6313126,110 L79.5116781,110 L95.9543783,99.88482 L98.6412749,99.88482 L99.667373,110 L97.1069754,110 L96.8865932,107.861559 Z M96.3902929,100.870554 L96.1681482,100.870554 L87.4873023,106.443393 L96.7182219,106.443393 L96.3902929,100.870554 Z M113.009563,99.8846856 L125.08341,99.8846856 C127.787938,99.8846856 128.588806,101.813178 127.949698,103.449799 C127.31015,105.08642 125.789955,107.128616 123.343274,108.581699 C121.481047,109.687851 117.83681,109.999866 114.948925,109.999866 L104.860278,109.999866 L113.009563,99.8846856 Z M108.578563,108.581699 L116.233311,108.581699 C117.887057,108.581699 118.568478,108.581699 121.447989,107.307678 C123.26526,106.504139 124.525844,104.776197 125.068865,103.593496 C125.542245,102.562103 124.626778,101.302852 122.824935,101.302852 L114.7043,101.302852 L108.578563,108.581699 Z M137.626935,99.8847757 L153.124197,99.8847757 L152.357708,101.302942 L139.321673,101.302942 L137.011188,104.267303 L144.828578,104.267303 L144.037406,105.238265 L136.2447,105.238265 L133.6367,108.581789 L146.182605,108.581789 L145.391434,109.999956 L129.918415,109.999956 L137.626935,99.8847757 Z M159.934309,99.8846856 L172.624785,99.8846856 C174.401945,99.8846856 175.078518,100.400383 174.618801,101.401337 C173.999086,102.751012 172.481977,104.388976 171.171586,105.147302 C170.007968,105.799084 168.754435,106.056934 166.779373,106.056934 L157.439144,106.056934 L154.270933,109.999866 L152.225787,109.999866 L159.934309,99.8846856 Z M158.670639,104.638767 L166.421032,104.638767 C167.753901,104.638767 168.951457,104.4418 169.713978,103.910882 C170.398485,103.440846 170.746249,102.895604 171.073736,102.182492 C171.386678,101.500267 171.498633,101.302852 170.06703,101.302852 L161.188282,101.302852 L158.670639,104.638767 Z M186.802442,107.861559 L175.236796,107.861559 L171.54716,110 L169.427527,110 L185.870226,99.88482 L188.557124,99.88482 L189.583222,110 L187.022824,110 L186.802442,107.861559 Z M186.306142,100.870554 L186.083997,100.870554 L177.40315,106.443393 L186.634069,106.443393 L186.306142,100.870554 Z M202.851936,99.8846856 L214.925783,99.8846856 C217.630311,99.8846856 218.431179,101.813178 217.792071,103.449799 C217.152522,105.08642 215.632328,107.128616 213.185646,108.581699 C211.323419,109.687851 207.679182,109.999866 204.791297,109.999866 L194.702651,109.999866 L202.851936,99.8846856 Z M198.420936,108.581699 L206.075683,108.581699 C207.729429,108.581699 208.41085,108.581699 211.290362,107.307678 C213.107632,106.504139 214.368216,104.776197 214.911237,103.593496 C215.384619,102.562103 214.469152,101.302852 212.667309,101.302852 L204.546673,101.302852 L198.420936,108.581699 Z" id="Bladepad"></path>
        </g>
    </g>
</svg>