<svg width="256" height="100" viewBox="0 0 256 100" fill="none" xmlns="http://www.w3.org/2000/svg">
<path d="M172.15 28.2232C172.235 29.5644 173.387 30.5832 174.725 30.4987C176.063 30.4142 177.079 29.2584 176.995 27.9172L175.942 11.1623C175.635 6.26877 171.744 2.36858 166.863 2.06033L150.15 1.0049C148.812 0.920412 147.659 1.93918 147.575 3.28038C147.491 4.62158 148.507 5.77732 149.845 5.86181L166.558 6.91724C168.999 7.07137 170.944 9.02146 171.097 11.4682L172.15 28.2232Z" fill="white"/>
<path d="M108.425 3.28038C108.509 4.62158 107.493 5.77733 106.155 5.86181L89.4421 6.91724C87.0015 7.07137 85.0562 9.02146 84.9025 11.4682L83.8497 28.2232C83.7654 29.5644 82.6126 30.5832 81.2747 30.4987C79.9368 30.4142 78.9206 29.2584 79.0049 27.9172L80.0577 11.1623C80.3652 6.26877 84.2556 2.36858 89.137 2.06033L105.85 1.0049C107.188 0.920414 108.341 1.93918 108.425 3.28038Z" fill="white"/>
<path fill-rule="evenodd" clip-rule="evenodd" d="M122.561 15.7767C130.839 15.6067 139.126 15.8273 147.382 16.4443C151.295 16.7914 154.905 18.8968 157.502 21.7867C159.767 24.3042 161.342 27.5327 161.544 30.9433C162.41 42.8512 162.465 54.817 161.702 66.7321C161.674 67.0866 161.652 67.4425 161.63 67.7988C161.545 69.1806 161.459 70.5677 161.053 71.8985C160.012 75.5067 157.611 78.6545 154.559 80.8117C152.754 82.0759 150.695 83.0026 148.519 83.3871C147.806 83.5173 147.084 83.564 146.363 83.6107C146.096 83.6279 145.829 83.6452 145.562 83.6667C133.244 84.497 120.866 84.4548 108.554 83.5377C104.386 83.1665 100.565 80.8202 97.9337 77.6302C95.8208 75.0837 94.4395 71.8769 94.343 68.5459C93.4499 56.0342 93.4668 43.4586 94.3768 30.9469C94.5624 27.7292 95.9823 24.6681 98.0422 22.2205C100.303 19.5367 103.388 17.4783 106.834 16.707C107.784 16.4832 108.756 16.4203 109.728 16.3575C109.98 16.3412 110.233 16.3249 110.485 16.3057C114.506 16.037 118.533 15.861 122.561 15.7767ZM110.546 36.3471C109.782 36.4905 109.061 36.8677 108.513 37.4197C107.279 38.6055 107.027 40.641 107.921 42.0968C108.802 43.6273 110.796 44.3757 112.466 43.7912C114.307 43.2308 115.494 41.1508 115.022 39.2804C114.615 37.3172 112.512 35.9361 110.546 36.3471ZM143.936 36.3555C143.15 36.5134 142.414 36.9183 141.868 37.5064C140.655 38.7537 140.485 40.8447 141.477 42.2739C142.436 43.7707 144.494 44.3998 146.129 43.7044C147.933 43.0187 148.972 40.8567 148.368 39.0201C147.849 37.1738 145.813 35.9434 143.936 36.3555ZM112.446 58.5601C111.891 58.5722 111.351 58.8747 111.057 59.3459C110.652 59.9629 110.767 60.8438 111.308 61.344C113.652 63.6072 116.472 65.3752 119.531 66.4995C124.323 68.2675 129.674 68.4651 134.59 67.0828C138.339 66.0344 141.822 64.0459 144.617 61.3368C145.199 60.8005 145.269 59.8243 144.767 59.2121C144.216 58.4782 143.055 58.3444 142.345 58.9241C142.181 59.0644 142.022 59.211 141.863 59.3577C141.642 59.5613 141.422 59.765 141.187 59.952C137.624 62.9697 132.987 64.6605 128.324 64.7147C123.024 64.8401 117.694 62.8347 113.854 59.1699C113.495 58.7795 112.981 58.5384 112.446 58.5601Z" fill="white"/>
<path d="M108.425 96.7196C108.509 95.3784 107.493 94.2227 106.155 94.1382L89.4421 93.0828C87.0015 92.9286 85.0562 90.9785 84.9025 88.5318L83.8497 71.7768C83.7654 70.4356 82.6126 69.4168 81.2747 69.5013C79.9368 69.5858 78.9206 70.7416 79.0049 72.0828L80.0577 88.8377C80.3652 93.7312 84.2556 97.6314 89.137 97.9397L105.85 98.9951C107.188 99.0796 108.341 98.0608 108.425 96.7196Z" fill="white"/>
<path d="M172.15 71.7768C172.235 70.4356 173.387 69.4168 174.725 69.5013C176.063 69.5858 177.079 70.7416 176.995 72.0828L175.942 88.8377C175.635 93.7312 171.744 97.6314 166.863 97.9397L150.15 98.9951C148.812 99.0796 147.659 98.0608 147.575 96.7196C147.491 95.3784 148.507 94.2227 149.845 94.1382L166.558 93.0828C168.999 92.9286 170.944 90.9785 171.097 88.5318L172.15 71.7768Z" fill="white"/>
</svg>
