<svg xmlns="http://www.w3.org/2000/svg" viewBox="0 0 256 52" width="256" height="52">
	<style>
		tspan { white-space:pre }
		.shp0 { fill: #ffffff } 
	</style>
	<path fill-rule="evenodd" class="shp0" d="M74.13 0C78.88 0.05 82.02 1.39 83.82 3.4C85.32 5.07 85.87 7.38 85.5 10.48L84.94 14.81L84.88 15.25L84.87 15.25C83.83 21.46 79.41 24.85 71.12 24.93L69.93 24.93C65.14 24.88 61.99 23.44 60.19 21.43C58.73 19.81 58.19 17.57 58.55 14.59L59.11 10.26C60.04 3.58 64.47 0.09 72.94 0L74.13 0ZM78.03 14.4L78.55 10.45C78.82 8.36 78.58 6.83 77.78 5.8C76.83 4.55 75.13 4.34 73.84 4.34L72.62 4.34C70.75 4.34 69.19 4.84 68.11 5.89C66.99 6.97 66.31 8.53 66.02 10.65L65.5 14.59C65.27 16.37 65.39 17.7 65.85 18.64C66.53 19.9 68.13 20.66 70.35 20.66L71.66 20.66C73.89 20.66 75.5 19.83 76.55 18.51C77.31 17.51 77.79 16.16 78.03 14.4ZM142.37 0C147.12 0.05 150.26 1.39 152.06 3.4C153.56 5.07 154.11 7.38 153.74 10.48L153.18 14.81L153.13 15.25L153.11 15.25C152.07 21.46 147.65 24.85 139.37 24.93L138.17 24.93C133.38 24.88 130.23 23.44 128.43 21.43C126.97 19.81 126.43 17.57 126.79 14.59L127.35 10.26C128.28 3.58 132.7 0.09 141.18 0L142.37 0ZM146.27 14.4L146.79 10.45C147.06 8.36 146.81 6.83 146.02 5.8C145.07 4.55 143.37 4.34 142.08 4.34L140.87 4.34C138.99 4.34 137.43 4.84 136.35 5.89C135.23 6.97 134.54 8.53 134.27 10.65L133.74 14.59C133.51 16.37 133.63 17.7 134.09 18.64C134.77 19.9 136.37 20.66 138.6 20.66L139.9 20.66C142.13 20.66 143.74 19.83 144.79 18.51C145.55 17.51 146.03 16.16 146.27 14.4L146.27 14.4ZM215.38 3.4C216.88 5.07 217.43 7.38 217.06 10.48L216.5 14.81L216.44 15.25L216.43 15.25C215.39 21.46 210.97 24.85 202.68 24.93L201.5 24.93C196.7 24.88 193.55 23.44 191.75 21.43C190.29 19.81 189.75 17.57 190.11 14.59L190.67 10.26C191.6 3.58 196.03 0.09 204.5 0L205.69 0C210.44 0.05 213.58 1.39 215.38 3.4L215.38 3.4ZM209.59 14.4L210.11 10.45C210.38 8.36 210.13 6.83 209.34 5.8C208.39 4.55 206.69 4.34 205.4 4.34L204.19 4.34C202.31 4.34 200.75 4.84 199.67 5.89C198.55 6.97 197.87 8.53 197.59 10.65L197.06 14.59C196.83 16.37 196.94 17.7 197.41 18.64C198.09 19.9 199.69 20.66 201.91 20.66L203.21 20.66C205.45 20.66 207.05 19.83 208.11 18.51C208.87 17.51 209.35 16.16 209.59 14.4ZM164.41 7.41C165.22 7.56 165.73 7.95 166.05 8.29C166.64 8.94 166.91 9.88 166.8 10.87L165.91 18.11L165.91 18.12L165.67 19.98L165.66 20.11L165.7 20.11L165.69 20.12L169.74 20.12C169.99 20.12 170.34 20.1 170.76 20.05C172.57 19.86 175.56 19.12 176.42 16.79C176.44 16.72 176.46 16.66 176.49 16.59C176.68 15.96 176.83 15.3 176.92 14.6L177.26 12.07L177.26 12.06L177.43 10.88C177.56 9.92 177.58 9.01 177.48 8.19C177.2 5.86 174.4 5.12 172.63 4.92C172.23 4.88 171.88 4.86 171.63 4.86L167.59 4.86L167.59 4.87L164.42 4.87L164.41 4.85C163.46 4.79 162.83 4.63 162.47 4.37C161.61 3.75 161.17 2.74 161.13 1.27L161.11 0.54L161.89 0.54L170.72 0.54L170.85 0.54L171.89 0.55C177.25 0.59 180.8 1.66 182.75 3.83C184.21 5.46 184.76 7.66 184.41 10.54L184.21 12.07L183.93 14.44C183.89 14.75 183.83 15.32 183.78 15.62C183.52 17.15 183.08 18.47 182.44 19.55C182.27 19.85 182.08 20.14 181.87 20.41C181.66 20.69 181.44 20.95 181.19 21.2C180.95 21.45 180.7 21.68 180.43 21.9C180.16 22.12 179.88 22.32 179.59 22.5C179.48 22.56 179.38 22.62 179.28 22.68C179.18 22.74 179.07 22.8 178.97 22.85C178.86 22.91 178.76 22.96 178.65 23.01C178.54 23.06 178.43 23.11 178.33 23.16C177.39 23.59 176.32 23.93 175.13 24.17C174.77 24.23 174.19 24.3 173.47 24.35C172.63 24.42 171.61 24.45 170.58 24.47L163.28 24.47L162.3 24.47C160.49 24.42 159.42 24.11 158.84 23.46C158.82 23.43 158.79 23.4 158.77 23.37C158.74 23.34 158.72 23.31 158.7 23.27C158.67 23.24 158.65 23.21 158.63 23.17C158.61 23.14 158.59 23.1 158.58 23.07C158.38 22.69 158.31 22.23 158.38 21.67L159.27 14.98L160.21 7.35L163.74 7.35C163.98 7.35 164.2 7.38 164.41 7.41ZM54.25 20.11C54.08 21.04 53.71 21.89 53.71 21.89C53.63 22.09 53.54 22.26 53.44 22.44C53.05 23.15 52.55 23.71 51.91 24.1C51.49 24.37 50.52 24.42 49.54 24.48L42.24 24.49C38.09 24.29 35.3 23.03 33.67 21.22C32.26 19.65 31.75 17.5 32.09 14.62L32.63 10.44C33.4 4.94 36.63 1.69 42.64 0.81C43.67 0.65 44.77 0.56 45.97 0.55L46.63 0.55L56.76 0.55L56.54 1.3C56.37 1.91 56.13 2.43 55.86 2.89C55.81 2.97 55.77 3.07 55.72 3.15C55.36 3.68 54.94 4.09 54.42 4.4C53.99 4.67 53.32 4.83 52.34 4.89L52.33 4.91L46.99 4.91C45.41 4.91 44.17 5.08 43.21 5.42C42.24 5.77 41.47 6.26 40.93 6.89C40.79 7.05 40.66 7.23 40.54 7.41C40.41 7.62 40.29 7.83 40.18 8.06C40.15 8.13 40.13 8.19 40.1 8.26C40.07 8.34 40.03 8.42 40 8.5C39.98 8.57 39.95 8.65 39.92 8.73C39.89 8.81 39.87 8.89 39.84 8.97C39.82 9.05 39.8 9.13 39.77 9.21C39.73 9.38 39.7 9.5 39.67 9.61C39.58 9.99 39.49 10.39 39.44 10.82L38.95 14.47C38.93 14.64 38.91 14.82 38.89 14.99C38.88 15.16 38.86 15.34 38.86 15.51C38.85 15.68 38.85 15.86 38.85 16.03C38.85 16.2 38.86 16.38 38.87 16.55C38.87 16.61 38.87 16.67 38.88 16.73C38.88 16.79 38.89 16.85 38.9 16.91C38.91 16.97 38.91 17.03 38.92 17.09C38.93 17.15 38.94 17.2 38.96 17.26C38.96 17.28 38.96 17.29 38.96 17.3C38.96 17.31 38.96 17.33 38.97 17.34C38.97 17.35 38.97 17.36 38.97 17.37C38.97 17.39 38.98 17.4 38.98 17.41C39.09 17.93 39.3 18.36 39.6 18.72C40.01 19.2 40.62 19.55 41.43 19.78C42.24 20 43.28 20.11 44.6 20.12L44.6 20.11L54.25 20.11ZM97.63 20.66L97.59 20.95C97.56 21.2 97.5 21.45 97.43 21.68C97.35 21.92 97.25 22.15 97.13 22.37C97.01 22.59 96.87 22.8 96.72 22.99C96.56 23.19 96.39 23.37 96.2 23.53C96.02 23.68 95.84 23.82 95.64 23.94C95.44 24.05 95.23 24.15 95.01 24.23C94.8 24.31 94.57 24.37 94.35 24.41C94.12 24.45 93.89 24.47 93.66 24.47L90.06 24.47L90.39 21.74L90.52 20.66L93 0.53L95.95 0.53C97.83 0.53 99.1 1.02 99.73 1.97L106.27 12.32L115.57 1.87C116.38 0.98 117.71 0.53 119.54 0.53L122.61 0.53L120.09 20.66L120.05 20.95C120.02 21.2 119.96 21.44 119.88 21.68C119.8 21.92 119.71 22.15 119.59 22.37C119.47 22.59 119.33 22.79 119.17 22.99C119.02 23.18 118.84 23.37 118.65 23.53C118.48 23.68 118.29 23.81 118.09 23.93C117.9 24.05 117.69 24.15 117.47 24.23C117.25 24.31 117.03 24.37 116.8 24.41C116.58 24.45 116.35 24.46 116.12 24.46L112.64 24.46L114.39 10.5L107.07 19.64C106.86 19.89 106.18 20.64 105.36 20.64L105.3 20.64C104.53 20.64 103.94 19.88 103.73 19.53L98.9 10.46L97.63 20.66L97.63 20.66ZM42.76 45.46C42.73 46.56 42.25 47.45 41.34 48.13C40.42 48.8 39.24 49.14 37.78 49.14C35.96 49.14 34.54 48.55 33.5 47.37C32.47 46.19 31.95 44.56 31.95 42.49C31.95 40.38 32.47 38.72 33.5 37.52C34.54 36.32 35.96 35.72 37.78 35.72C39.3 35.72 40.51 36.05 41.41 36.71C42.31 37.38 42.76 38.27 42.76 39.39L40.93 39.39C40.93 38.74 40.66 38.21 40.11 37.81C39.56 37.41 38.85 37.21 37.96 37.21C36.63 37.21 35.6 37.65 34.87 38.54C34.14 39.42 33.78 40.67 33.78 42.28C33.78 44 34.14 45.32 34.85 46.26C35.57 47.21 36.58 47.68 37.88 47.68C38.74 47.68 39.44 47.48 39.99 47.09C40.53 46.7 40.84 46.15 40.93 45.46L42.76 45.46ZM44.89 39.89L46.57 39.89L46.57 40.8C47.22 40.02 48.07 39.63 49.11 39.63L49.56 39.65L49.56 41.2L49.22 41.18C48.29 41.18 47.61 41.43 47.19 41.93C46.77 42.42 46.57 43.22 46.57 44.31L46.57 48.88L44.89 48.88L44.89 39.89ZM55.68 49.14C54.34 49.14 53.29 48.73 52.54 47.92C51.78 47.1 51.4 45.97 51.4 44.53C51.4 43 51.78 41.81 52.54 40.94C53.3 40.07 54.35 39.63 55.68 39.63C56.97 39.63 57.95 40.01 58.62 40.77C59.3 41.52 59.64 42.61 59.64 44.05L59.63 44.66L53.14 44.66C53.19 45.68 53.39 46.46 53.74 46.99C54.14 47.59 54.77 47.9 55.63 47.9C56.24 47.9 56.74 47.73 57.13 47.39C57.52 47.06 57.76 46.59 57.83 46L59.56 46C59.43 47.02 59.04 47.8 58.37 48.34C57.71 48.87 56.81 49.14 55.68 49.14L55.68 49.14ZM57.41 41.61C57.04 41.12 56.42 40.88 55.54 40.88C54.78 40.88 54.18 41.16 53.76 41.73C53.44 42.16 53.24 42.72 53.17 43.42L57.92 43.42C57.87 42.6 57.7 42 57.41 41.61ZM62.31 48.39C61.72 47.9 61.43 47.21 61.43 46.33C61.43 45.38 61.83 44.64 62.64 44.09C63.44 43.55 64.56 43.29 65.97 43.29L67.49 43.29L67.49 42.53C67.49 41.95 67.32 41.53 66.99 41.27C66.66 41.01 66.12 40.88 65.38 40.88C64.87 40.88 64.47 41 64.16 41.24C63.85 41.48 63.68 41.81 63.64 42.24L61.89 42.24C61.96 41.34 62.28 40.68 62.87 40.26C63.45 39.84 64.34 39.63 65.52 39.63C66.61 39.63 67.49 39.9 68.16 40.43C68.83 40.96 69.16 41.66 69.16 42.53L69.16 45.66C69.16 46.51 69.18 47.22 69.23 47.8C69.27 48.37 69.33 48.73 69.41 48.88L67.82 48.88C67.75 48.81 67.7 48.6 67.66 48.28C67.66 48.22 67.65 48.15 67.64 48.09C67.63 48.03 67.63 47.96 67.62 47.9C67.61 47.83 67.61 47.77 67.61 47.71C67.6 47.64 67.6 47.58 67.6 47.51C67.49 47.71 67.36 47.89 67.22 48.07C66.62 48.78 65.8 49.14 64.75 49.14C63.71 49.14 62.9 48.89 62.31 48.39ZM65.95 44.51C65.01 44.51 64.3 44.66 63.83 44.97C63.36 45.27 63.12 45.73 63.12 46.34C63.12 46.84 63.29 47.22 63.62 47.49C63.95 47.76 64.42 47.9 65.03 47.9C65.85 47.9 66.46 47.67 66.87 47.21C67.28 46.75 67.48 46.08 67.49 45.19L67.49 44.51L65.95 44.51ZM76.47 49.01C76.33 49.04 76.2 49.06 76.06 49.07C75.92 49.09 75.79 49.1 75.65 49.11C75.51 49.12 75.38 49.13 75.24 49.14C75.1 49.14 74.96 49.14 74.83 49.14C74.2 49.14 73.66 48.97 73.23 48.63C72.79 48.28 72.57 47.87 72.57 47.38L72.57 41.09L70.69 41.09L70.69 39.89L72.57 39.89L72.57 38.27L74.24 37.58L74.24 39.89L76.47 39.89L76.47 41.09L74.24 41.09L74.24 46.99C74.24 47.31 74.32 47.54 74.48 47.68C74.64 47.83 74.9 47.9 75.25 47.9C75.69 47.89 76.1 47.85 76.47 47.78L76.47 49.02L76.47 49.01ZM78.63 39.89L80.3 39.89L80.3 48.88L78.63 48.88L78.63 39.89ZM80.38 35.97L80.38 37.67L78.54 37.67L78.54 35.97L80.38 35.97ZM85.07 39.89L85.07 41.13C85.15 41.01 85.25 40.89 85.35 40.78C86.04 40.02 86.98 39.63 88.14 39.63C89.34 39.63 90.21 39.95 90.78 40.58C91.34 41.2 91.62 42.19 91.62 43.52L91.62 48.88L89.95 48.88L89.95 43.55C89.95 42.63 89.77 41.96 89.42 41.55C89.07 41.13 88.51 40.92 87.74 40.92C86.85 40.92 86.2 41.15 85.79 41.6C85.39 42.06 85.19 42.79 85.19 43.8L85.19 48.88L83.51 48.88L83.51 39.89L85.07 39.89ZM100.16 50.6C100.54 50.16 100.73 49.41 100.73 48.35L100.73 47.15L100.45 47.54C99.78 48.35 98.88 48.76 97.78 48.76C96.6 48.76 95.67 48.35 95 47.53C94.32 46.71 93.99 45.58 93.99 44.14C93.99 42.83 94.36 41.75 95.11 40.9C95.86 40.06 96.81 39.63 97.99 39.63C99.09 39.63 99.96 40.04 100.59 40.85L100.73 41.02L100.73 39.89L102.4 39.89L102.4 48.35C102.4 49.79 102.07 50.85 101.39 51.51C100.72 52.17 99.65 52.5 98.19 52.5C96.91 52.5 95.98 52.27 95.38 51.8C94.79 51.33 94.49 50.59 94.49 49.58L96.24 49.58C96.24 50.16 96.4 50.58 96.72 50.85C97.04 51.12 97.54 51.25 98.23 51.25C99.13 51.25 99.78 51.03 100.16 50.6ZM98.24 40.86C97.45 40.86 96.85 41.15 96.41 41.73C95.98 42.3 95.76 43.11 95.76 44.16C95.76 45.3 95.97 46.14 96.37 46.7C96.78 47.25 97.41 47.53 98.24 47.53C99.03 47.53 99.64 47.24 100.08 46.66C100.51 46.07 100.73 45.25 100.73 44.19C100.73 43.13 100.51 42.31 100.08 41.73C99.64 41.15 99.03 40.86 98.24 40.86L98.24 40.86ZM110.56 37.44L110.56 35.97L121.08 35.97L121.08 37.44L116.71 37.44L116.71 48.88L114.93 48.88L114.93 37.44L110.56 37.44ZM123.14 39.89L124.82 39.89L124.82 40.8C125.47 40.02 126.32 39.63 127.36 39.63L127.81 39.65L127.81 41.2L127.47 41.18C126.54 41.18 125.86 41.43 125.45 41.93C125.03 42.42 124.82 43.22 124.82 44.31L124.82 48.88L123.14 48.88L123.14 39.89ZM132.2 47.28C132.55 47.69 133.11 47.9 133.88 47.9C134.81 47.9 135.48 47.67 135.88 47.2C136.28 46.74 136.47 46 136.42 44.98L136.42 39.89L138.09 39.89L138.09 48.88L136.54 48.88L136.54 47.71L136.35 47.95C135.65 48.75 134.72 49.14 133.56 49.14C132.33 49.14 131.44 48.82 130.86 48.18C130.28 47.53 129.99 46.53 129.99 45.16L129.99 39.89L131.67 39.89L131.67 45.27C131.67 46.19 131.84 46.86 132.2 47.28ZM145.7 41.26C145.38 41.01 144.93 40.88 144.35 40.88C143.77 40.88 143.31 40.99 142.98 41.2C142.9 41.24 142.83 41.3 142.77 41.37C142.71 41.43 142.66 41.5 142.61 41.58C142.57 41.66 142.54 41.74 142.52 41.83C142.5 41.92 142.49 42.01 142.49 42.09C142.49 42.38 142.58 42.61 142.76 42.79C142.93 42.97 143.2 43.11 143.57 43.21L145.42 43.71C146.36 43.96 147.04 44.29 147.45 44.68C147.86 45.07 148.06 45.59 148.06 46.24C148.06 47.14 147.73 47.85 147.06 48.37C146.39 48.88 145.47 49.14 144.29 49.14C143.06 49.14 142.12 48.89 141.48 48.39C140.84 47.88 140.51 47.15 140.51 46.19L142.24 46.19C142.24 46.72 142.42 47.14 142.79 47.44C143.15 47.75 143.65 47.9 144.29 47.9C144.96 47.9 145.48 47.76 145.85 47.5C146.22 47.24 146.41 46.87 146.41 46.39C146.41 46.11 146.29 45.87 146.06 45.67C145.83 45.48 145.48 45.31 145.01 45.19L143.16 44.69C142.33 44.47 141.72 44.17 141.35 43.79C140.99 43.41 140.81 42.9 140.81 42.25C140.81 41.43 141.12 40.79 141.75 40.33C142.38 39.87 143.25 39.63 144.35 39.63C145.46 39.63 146.33 39.87 146.97 40.35C147.6 40.82 147.91 41.48 147.91 42.31L146.18 42.31C146.18 41.87 146.02 41.51 145.7 41.26ZM155.71 49.02L155.71 49.01C155.71 49.01 155.71 49.01 155.71 49.01L155.71 49.02ZM155.31 49.07C155.17 49.09 155.03 49.1 154.89 49.11C154.76 49.12 154.62 49.13 154.48 49.14C154.34 49.14 154.21 49.14 154.07 49.14C153.44 49.14 152.91 48.97 152.47 48.63C152.03 48.28 151.81 47.87 151.81 47.38L151.81 41.09L149.93 41.09L149.93 39.89L151.81 39.89L151.81 38.27L153.48 37.58L153.48 39.89L155.71 39.89L155.71 41.09L153.48 41.09L153.48 46.99C153.48 47.31 153.56 47.54 153.73 47.68C153.88 47.83 154.14 47.9 154.49 47.9C154.94 47.89 155.34 47.85 155.71 47.78L155.71 49.01C155.58 49.04 155.44 49.06 155.31 49.07ZM165.19 47.34C164.16 46.13 163.64 44.47 163.64 42.35C163.64 40.28 164.16 38.66 165.19 37.48C166.23 36.31 167.66 35.72 169.48 35.72C171.31 35.72 172.74 36.31 173.77 37.48C174.81 38.66 175.32 40.28 175.32 42.35C175.32 44.47 174.81 46.13 173.77 47.34C172.74 48.54 171.31 49.14 169.48 49.14C167.66 49.14 166.23 48.54 165.2 47.34L165.19 47.34ZM172.48 46.29C173.19 45.37 173.54 44.06 173.54 42.37C173.54 40.72 173.19 39.45 172.48 38.54C171.77 37.63 170.77 37.18 169.48 37.18C168.19 37.18 167.19 37.63 166.48 38.54C165.77 39.45 165.42 40.72 165.42 42.37C165.42 44.06 165.77 45.37 166.48 46.29C167.19 47.22 168.19 47.68 169.48 47.68C170.77 47.68 171.77 47.22 172.48 46.29ZM177.62 39.89L179.17 39.89L179.17 41.13C179.25 41.01 179.35 40.89 179.45 40.78C180.15 40.02 181.07 39.63 182.24 39.63C183.44 39.63 184.31 39.95 184.88 40.58C185.44 41.2 185.72 42.19 185.72 43.52L185.72 48.88L184.05 48.88L184.05 43.55C184.05 42.63 183.87 41.96 183.52 41.55C183.17 41.13 182.61 40.92 181.84 40.92C180.95 40.92 180.29 41.15 179.89 41.6C179.49 42.06 179.29 42.79 179.29 43.8L179.29 48.88L177.62 48.88L177.62 39.89ZM188.54 35.97L190.21 35.97L190.21 48.88L188.54 48.88L188.54 35.97ZM193.53 39.89L195.2 39.89L195.2 48.88L193.53 48.88L193.53 39.89ZM193.44 35.97L195.28 35.97L195.28 37.67L193.44 37.67L193.44 35.97ZM199.97 39.89L199.97 41.13C200.05 41.01 200.15 40.89 200.26 40.78C200.94 40.02 201.88 39.63 203.05 39.63C204.24 39.63 205.12 39.95 205.68 40.58C206.24 41.2 206.52 42.19 206.52 43.52L206.52 48.88L204.85 48.88L204.85 43.55C204.85 42.63 204.67 41.96 204.32 41.55C203.97 41.13 203.41 40.92 202.64 40.92C201.75 40.92 201.1 41.15 200.69 41.6C200.29 42.06 200.09 42.79 200.09 43.8L200.09 48.88L198.42 48.88L198.42 39.89L199.97 39.89ZM213.18 49.14C211.84 49.14 210.79 48.73 210.04 47.92C209.28 47.1 208.9 45.97 208.9 44.53C208.9 43 209.28 41.81 210.04 40.94C210.8 40.07 211.84 39.63 213.18 39.63C214.46 39.63 215.45 40.01 216.12 40.77C216.8 41.52 217.14 42.61 217.14 44.05L217.12 44.66L210.64 44.66C210.68 45.68 210.88 46.46 211.24 46.99C211.63 47.59 212.27 47.9 213.13 47.9C213.74 47.9 214.24 47.73 214.63 47.39C215.02 47.06 215.25 46.59 215.33 46L217.05 46C216.93 47.02 216.53 47.8 215.87 48.34C215.21 48.87 214.31 49.14 213.18 49.14L213.18 49.14ZM214.9 41.61C214.54 41.12 213.92 40.88 213.03 40.88C212.27 40.88 211.67 41.16 211.25 41.73C210.93 42.16 210.73 42.72 210.66 43.42L215.42 43.42C215.36 42.6 215.19 42 214.9 41.61ZM221.49 37.43C222.93 37.43 224.05 38.54 224.05 39.93C224.05 41.34 222.93 42.43 221.47 42.43C220.03 42.43 218.88 41.34 218.88 39.93C218.88 38.54 220.03 37.43 221.47 37.43L221.49 37.43ZM221.46 37.93C220.35 37.93 219.53 38.83 219.53 39.93C219.53 41.04 220.35 41.92 221.49 41.92C222.59 41.93 223.41 41.04 223.41 39.93C223.41 38.83 222.59 37.93 221.47 37.93L221.46 37.93ZM220.49 41.22L220.49 38.74C220.72 38.69 221.04 38.65 221.46 38.65C221.93 38.65 222.15 38.72 222.33 38.85C222.47 38.95 222.58 39.15 222.58 39.38C222.58 39.67 222.37 39.88 222.06 39.97L222.06 40C222.3 40.08 222.44 40.27 222.52 40.61C222.59 40.99 222.64 41.14 222.7 41.22L222.07 41.22C222 41.13 221.95 40.91 221.87 40.63C221.82 40.35 221.67 40.23 221.35 40.23L221.08 40.23L221.08 41.22L220.49 41.22ZM221.37 39.82C221.69 39.82 221.95 39.71 221.95 39.45C221.95 39.23 221.78 39.07 221.41 39.07C221.26 39.07 221.15 39.09 221.09 39.1L221.09 39.82L221.37 39.82Z" />
</svg>