<?xml version="1.0" encoding="UTF-8"?>
<svg width="256px" height="62px" viewBox="0 0 256 62" version="1.1" xmlns="http://www.w3.org/2000/svg" xmlns:xlink="http://www.w3.org/1999/xlink">
    <!-- Generator: Sketch 61.2 (89653) - https://sketch.com -->
    <title>logo_practice_admin</title>
    <desc>Created with Sketch.</desc>
    <g id="03-what-we-do-(SRC)" stroke="none" stroke-width="1" fill="none" fill-rule="evenodd">
        <g id="Group" fill="#FFFFFF">
            <path d="M145.440241,42.8461538 C145.69609,42.8461538 145.92795,42.8730302 146.135828,42.9267836 C146.343705,42.980537 146.50201,43.0327087 146.610746,43.0833001 L146.188596,43.984456 C146.105445,43.9465124 145.995112,43.9101503 145.857593,43.8753687 C145.720074,43.840587 145.558572,43.8231965 145.373081,43.8231965 C145.181194,43.8231965 145.018093,43.8500728 144.883772,43.9038262 C144.749451,43.9575796 144.634321,44.0318847 144.538377,44.1267437 C144.442434,44.2216027 144.364081,44.3370127 144.303317,44.4729773 C144.262807,44.5636203 144.227273,44.659181 144.196714,44.7596606 L144.068257,45.2460741 L145.747259,45.2460741 L145.516996,46.1946592 L143.837993,46.1946592 L143.118421,49.1637306 L142.997293,49.6475091 C142.958116,49.7992823 142.920139,49.9415697 142.883361,50.0743723 C142.809804,50.3399774 142.725055,50.5834452 142.629112,50.8047828 C142.533168,51.0261204 142.419637,51.2332261 142.288514,51.426106 C142.157392,51.618986 141.992691,51.810282 141.794408,52 L140.787007,51.8482264 C140.908535,51.696452 141.022066,51.543099 141.127604,51.3881626 C141.233142,51.2332263 141.329084,51.0688065 141.415433,50.8948984 C141.501782,50.7209902 141.581734,50.5312751 141.655291,50.3257473 C141.704328,50.1887288 141.749812,50.0411719 141.791743,49.8830746 L142.993695,44.8950976 C143.07045,44.5725771 143.174387,44.2832615 143.30551,44.0271423 C143.436633,43.771023 143.599734,43.5560126 143.794819,43.3821044 C143.989904,43.2081963 144.223363,43.0753957 144.495203,42.9836987 C144.767043,42.8920017 145.082052,42.8461538 145.440241,42.8461538 Z M117.683936,43.4817059 C118.054918,43.4817059 118.397111,43.5402014 118.710526,43.6571941 C119.023942,43.7741868 119.292579,43.9433495 119.516447,44.1646871 C119.740315,44.3860248 119.91461,44.6611117 120.039337,44.9899562 C120.164063,45.3188006 120.226425,45.695069 120.226425,46.1187724 C120.226425,46.624687 120.143276,47.130594 119.976974,47.6365086 C119.810672,48.1424231 119.567619,48.5961585 119.247807,48.9977282 C118.927995,49.3992979 118.529836,49.7249755 118.053317,49.9747708 C117.576798,50.2245661 117.031527,50.3494619 116.417489,50.3494619 C116.046508,50.3494619 115.705913,50.2909664 115.395696,50.1739737 C115.085479,50.0569809 114.816841,49.8878183 114.589775,49.6664807 C114.362709,49.445143 114.186815,49.1700561 114.062089,48.8412116 C113.937362,48.5123672 113.875,48.1360988 113.875,47.7123954 C113.875,47.2064808 113.95815,46.7005738 114.124452,46.1946592 C114.290754,45.6887446 114.535406,45.2350093 114.858416,44.8334396 C115.181425,44.4318699 115.579585,44.1061923 116.052906,43.856397 C116.526227,43.6066016 117.069898,43.4817059 117.683936,43.4817059 Z M229.083333,45.1227581 C229.403145,45.1227581 229.689372,45.1559582 229.942023,45.2223595 C230.194674,45.2887608 230.384959,45.356742 230.512884,45.4263053 L230.100329,46.3179753 C229.991593,46.254736 229.834888,46.1930786 229.630208,46.1330012 C229.425529,46.0729238 229.211258,46.0428856 228.98739,46.0428856 C228.878654,46.0428856 228.771519,46.0523714 228.665981,46.0713432 C228.560444,46.090315 228.466101,46.1219341 228.38295,46.1662017 C228.299799,46.2104692 228.23104,46.2721266 228.176672,46.3511758 C228.122304,46.4302249 228.095121,46.5266634 228.095121,46.6404942 C228.095121,46.7859447 228.154285,46.9045166 228.272615,46.9962136 C228.361363,47.0649864 228.479792,47.1364263 228.627904,47.2105344 L228.78591,47.2855321 C228.996986,47.3803911 229.176077,47.4720867 229.323191,47.5606218 C229.470304,47.6491568 229.591831,47.7487573 229.687774,47.8594261 C229.783718,47.9700949 229.854075,48.0934097 229.898849,48.2293743 C229.943622,48.3653388 229.966009,48.5281776 229.966009,48.7178956 C229.966009,48.9518811 229.918038,49.1684725 229.822094,49.3676764 C229.726151,49.5668802 229.587035,49.7376238 229.404742,49.8799123 C229.22245,50.0222008 228.996986,50.1344489 228.728344,50.21666 C228.459703,50.2988711 228.152688,50.3399761 227.807292,50.3399761 C227.570631,50.3399761 227.35796,50.3241665 227.169271,50.2925468 C226.980582,50.2609272 226.815882,50.2245651 226.675164,50.1834595 C226.534447,50.142354 226.416119,50.0996681 226.320175,50.0554006 C226.224232,50.011133 226.150676,49.97319 226.099507,49.9415703 L226.512061,49.0404145 L226.708745,49.1400159 L226.708745,49.1400159 C226.795094,49.1811215 226.894234,49.2206455 227.006168,49.2585891 C227.118102,49.2965327 227.242826,49.3297328 227.380345,49.3581905 C227.517864,49.3866482 227.663376,49.4008768 227.816886,49.4008768 C228.123905,49.4008768 228.366958,49.3518671 228.546053,49.2538462 C228.725147,49.1558252 228.814693,49.0056341 228.814693,48.8032682 C228.814693,48.638846 228.757128,48.5076264 228.641996,48.4096054 C228.54989,48.3311887 228.402523,48.2416429 228.199891,48.1409663 L228.037555,48.0633719 C227.884045,47.9938086 227.741731,47.9210845 227.610609,47.8451973 C227.479486,47.7693101 227.365954,47.6807764 227.270011,47.5795935 C227.174068,47.4784105 227.097314,47.3598386 227.039748,47.2238741 C226.982182,47.0879095 226.953399,46.9250707 226.953399,46.7353527 C226.953399,46.242086 227.135689,45.8500081 227.500274,45.5591072 C227.864859,45.2682063 228.39254,45.1227581 229.083333,45.1227581 Z M184.844024,45.1227581 C185.438874,45.1227581 185.892999,45.2950826 186.206414,45.6397369 C186.51983,45.9843913 186.676535,46.4412885 186.676535,47.0104424 C186.676535,47.3835544 186.620569,47.7661466 186.508635,48.1582304 C186.396701,48.5503142 186.224005,48.907611 185.990543,49.2301315 C185.75708,49.5526521 185.45966,49.8182532 185.098273,50.026943 C184.736886,50.2356328 184.309944,50.3399761 183.817434,50.3399761 C183.222585,50.3399761 182.768459,50.1660706 182.455044,49.8182543 C182.141629,49.470438 181.984923,49.0119598 181.984923,48.4428059 C181.984923,48.0760178 182.042488,47.6965876 182.157621,47.3045038 C182.272753,46.91242 182.448646,46.5551232 182.685307,46.2326026 C182.921968,45.9100821 183.219388,45.6444809 183.577577,45.4357912 C183.935766,45.2271014 184.357911,45.1227581 184.844024,45.1227581 Z M134.79057,45.1227581 C135.110382,45.1227581 135.396609,45.1559582 135.64926,45.2223595 C135.901911,45.2887608 136.092196,45.356742 136.220121,45.4263053 L135.807566,46.3179753 C135.69883,46.254736 135.542125,46.1930786 135.337445,46.1330012 C135.132766,46.0729238 134.918495,46.0428856 134.694627,46.0428856 C134.585891,46.0428856 134.478756,46.0523714 134.373218,46.0713432 C134.26768,46.090315 134.173337,46.1219341 134.090186,46.1662017 C134.007035,46.2104692 133.938277,46.2721266 133.883909,46.3511758 C133.829541,46.4302249 133.802357,46.5266634 133.802357,46.6404942 C133.802357,46.7859447 133.861522,46.9045166 133.979852,46.9962136 C134.0686,47.0649864 134.187028,47.1364263 134.33514,47.2105344 L134.493147,47.2855321 C134.704223,47.3803911 134.883314,47.4720867 135.030428,47.5606218 C135.177541,47.6491568 135.299068,47.7487573 135.395011,47.8594261 C135.490954,47.9700949 135.561312,48.0934097 135.606086,48.2293743 C135.650859,48.3653388 135.673246,48.5281776 135.673246,48.7178956 C135.673246,48.9518811 135.625275,49.1684725 135.529331,49.3676764 C135.433388,49.5668802 135.294272,49.7376238 135.111979,49.8799123 C134.929687,50.0222008 134.704223,50.1344489 134.435581,50.21666 C134.166939,50.2988711 133.859925,50.3399761 133.514529,50.3399761 C133.277868,50.3399761 133.065196,50.3241665 132.876508,50.2925468 C132.687819,50.2609272 132.523118,50.2245651 132.382401,50.1834595 C132.241684,50.142354 132.123356,50.0996681 132.027412,50.0554006 C131.931469,50.011133 131.857913,49.97319 131.806743,49.9415703 L132.219298,49.0404145 L132.415981,49.1400159 L132.415981,49.1400159 C132.50233,49.1811215 132.601471,49.2206455 132.713405,49.2585891 C132.825339,49.2965327 132.950063,49.3297328 133.087582,49.3581905 C133.225101,49.3866482 133.370613,49.4008768 133.524123,49.4008768 C133.831142,49.4008768 134.074195,49.3518671 134.253289,49.2538462 C134.432384,49.1558252 134.52193,49.0056341 134.52193,48.8032682 C134.52193,48.638846 134.464365,48.5076264 134.349232,48.4096054 C134.257127,48.3311887 134.10976,48.2416429 133.907128,48.1409663 L133.744792,48.0633719 C133.591282,47.9938086 133.448968,47.9210845 133.317845,47.8451973 C133.186723,47.7693101 133.073191,47.6807764 132.977248,47.5795935 C132.881304,47.4784105 132.804551,47.3598386 132.746985,47.2238741 C132.689419,47.0879095 132.660636,46.9250707 132.660636,46.7353527 C132.660636,46.242086 132.842926,45.8500081 133.207511,45.5591072 C133.572096,45.2682063 134.099777,45.1227581 134.79057,45.1227581 Z M215.977522,45.1227581 C216.226975,45.1227581 216.455637,45.1433105 216.663514,45.1844161 C216.871392,45.2255217 217.068073,45.2871791 217.253564,45.3693902 L216.841009,46.2895177 C216.725877,46.2389263 216.597954,46.1946594 216.457237,46.1567158 C216.31652,46.1187722 216.143824,46.0998007 215.939145,46.0998007 C215.664107,46.0998007 215.416257,46.1551343 215.195587,46.2658031 C214.974917,46.3764719 214.78783,46.5266631 214.63432,46.716381 C214.480811,46.906099 214.362482,47.1305952 214.279331,47.3898764 C214.19618,47.6491577 214.154605,47.9242446 214.154605,48.2151455 C214.154605,48.3795677 214.172195,48.5297589 214.207374,48.6657234 C214.242553,48.8016879 214.300118,48.9218408 214.380071,49.0261857 C214.460024,49.1305306 214.570357,49.2111595 214.711075,49.2680749 C214.851792,49.3249903 215.027685,49.3534476 215.238761,49.3534476 C215.456233,49.3534476 215.665706,49.3249903 215.867187,49.2680749 C216.068669,49.2111595 216.223775,49.154245 216.332511,49.0973296 L216.428454,50.0364289 C216.281341,50.1059921 216.086259,50.1739734 215.843202,50.2403747 C215.600145,50.3067759 215.325111,50.3399761 215.018092,50.3399761 C214.666299,50.3399761 214.362483,50.2878044 214.106634,50.1834595 C213.850785,50.0791147 213.638113,49.9368283 213.468613,49.7565963 C213.299113,49.5763642 213.174388,49.3645156 213.094435,49.1210442 C213.014482,48.8775728 212.974507,48.6135526 212.974507,48.3289757 C212.974507,47.8989483 213.043265,47.4894798 213.180784,47.100558 C213.318303,46.7116362 213.514984,46.3701489 213.770833,46.0760861 C214.026683,45.7820232 214.340093,45.5496222 214.711075,45.378876 C215.082056,45.2081299 215.504201,45.1227581 215.977522,45.1227581 Z M139.36705,45.1227581 C139.9619,45.1227581 140.416025,45.2950826 140.729441,45.6397369 C141.042856,45.9843913 141.199561,46.4412885 141.199561,47.0104424 C141.199561,47.3835544 141.143595,47.7661466 141.031661,48.1582304 C140.919727,48.5503142 140.747032,48.907611 140.513569,49.2301315 C140.280107,49.5526521 139.982686,49.8182532 139.621299,50.026943 C139.259912,50.2356328 138.83297,50.3399761 138.340461,50.3399761 C137.745611,50.3399761 137.291485,50.1660706 136.97807,49.8182543 C136.664655,49.470438 136.50795,49.0119598 136.50795,48.4428059 C136.50795,48.0760178 136.565515,47.6965876 136.680647,47.3045038 C136.795779,46.91242 136.971673,46.5551232 137.208333,46.2326026 C137.444994,45.9100821 137.742414,45.6444809 138.100603,45.4357912 C138.458792,45.2271014 138.880937,45.1227581 139.36705,45.1227581 Z M169.406798,45.1227581 C169.892912,45.1227581 170.270284,45.2460729 170.538925,45.4927063 C170.807567,45.7393396 170.941886,46.0555315 170.941886,46.4412914 C170.941886,46.8396991 170.842746,47.1622148 170.644463,47.4088481 C170.44618,47.6554815 170.188735,47.8483585 169.872122,47.9874851 C169.555508,48.1266116 169.197325,48.2214691 168.79756,48.2720606 C168.397796,48.322652 167.99324,48.3542712 167.583882,48.3669191 C167.577485,48.379567 167.574287,48.3922146 167.574287,48.4048625 L167.574287,48.499721 C167.574287,49.0751988 167.942065,49.3629334 168.677632,49.3629334 C169.112575,49.3629334 169.547512,49.2743997 169.982456,49.0973296 L170.078399,50.026943 C169.92489,50.0965063 169.707421,50.1660685 169.425987,50.2356317 C169.144553,50.305195 168.824746,50.3399761 168.466557,50.3399761 C168.108368,50.3399761 167.801354,50.2893854 167.545504,50.1882025 C167.289655,50.0870196 167.080182,49.9478951 166.917078,49.770825 C166.753974,49.5937549 166.634046,49.3898112 166.557292,49.1589876 C166.480537,48.9281641 166.44216,48.6799535 166.44216,48.4143483 C166.44216,47.9906449 166.510919,47.5811764 166.648437,47.1859306 C166.785956,46.7906849 166.984237,46.4397119 167.243284,46.1330012 C167.502331,45.8262905 167.814143,45.5812418 168.178728,45.3978477 C168.543313,45.2144537 168.952666,45.1227581 169.406798,45.1227581 Z M211.573739,45.1227581 C211.823192,45.1227581 212.051854,45.1433105 212.259731,45.1844161 C212.467609,45.2255217 212.66429,45.2871791 212.849781,45.3693902 L212.437226,46.2895177 C212.322094,46.2389263 212.194171,46.1946594 212.053454,46.1567158 C211.912737,46.1187722 211.740041,46.0998007 211.535362,46.0998007 C211.260324,46.0998007 211.012474,46.1551343 210.791804,46.2658031 C210.571134,46.3764719 210.384047,46.5266631 210.230537,46.716381 C210.077028,46.906099 209.958699,47.1305952 209.875548,47.3898764 C209.792397,47.6491577 209.750822,47.9242446 209.750822,48.2151455 C209.750822,48.3795677 209.768412,48.5297589 209.803591,48.6657234 C209.83877,48.8016879 209.896335,48.9218408 209.976288,49.0261857 C210.056241,49.1305306 210.166575,49.2111595 210.307292,49.2680749 C210.448009,49.3249903 210.623902,49.3534476 210.834978,49.3534476 C211.05245,49.3534476 211.261923,49.3249903 211.463405,49.2680749 C211.664886,49.2111595 211.819992,49.154245 211.928728,49.0973296 L212.024671,50.0364289 C211.877558,50.1059921 211.682476,50.1739734 211.439419,50.2403747 C211.196362,50.3067759 210.921328,50.3399761 210.614309,50.3399761 C210.262517,50.3399761 209.9587,50.2878044 209.702851,50.1834595 C209.447002,50.0791147 209.23433,49.9368283 209.06483,49.7565963 C208.89533,49.5763642 208.770605,49.3645156 208.690652,49.1210442 C208.6107,48.8775728 208.570724,48.6135526 208.570724,48.3289757 C208.570724,47.8989483 208.639482,47.4894798 208.777001,47.100558 C208.91452,46.7116362 209.111201,46.3701489 209.36705,46.0760861 C209.6229,45.7820232 209.93631,45.5496222 210.307292,45.378876 C210.678273,45.2081299 211.100418,45.1227581 211.573739,45.1227581 Z M201.413377,45.1227581 C201.733189,45.1227581 202.019416,45.1559582 202.272067,45.2223595 C202.524718,45.2887608 202.715003,45.356742 202.842928,45.4263053 L202.430373,46.3179753 C202.321637,46.254736 202.164932,46.1930786 201.960252,46.1330012 C201.755573,46.0729238 201.541302,46.0428856 201.317434,46.0428856 C201.208698,46.0428856 201.101563,46.0523714 200.996025,46.0713432 C200.890487,46.090315 200.796144,46.1219341 200.712993,46.1662017 C200.629842,46.2104692 200.561084,46.2721266 200.506716,46.3511758 C200.452348,46.4302249 200.425164,46.5266634 200.425164,46.6404942 C200.425164,46.7859447 200.484329,46.9045166 200.602659,46.9962136 C200.691407,47.0649864 200.809835,47.1364263 200.957947,47.2105344 L201.115954,47.2855321 C201.32703,47.3803911 201.506121,47.4720867 201.653235,47.5606218 C201.800348,47.6491568 201.921875,47.7487573 202.017818,47.8594261 C202.113761,47.9700949 202.184119,48.0934097 202.228893,48.2293743 C202.273666,48.3653388 202.296053,48.5281776 202.296053,48.7178956 C202.296053,48.9518811 202.248082,49.1684725 202.152138,49.3676764 C202.056195,49.5668802 201.917079,49.7376238 201.734786,49.8799123 C201.552494,50.0222008 201.32703,50.1344489 201.058388,50.21666 C200.789746,50.2988711 200.482732,50.3399761 200.137336,50.3399761 C199.900675,50.3399761 199.688004,50.3241665 199.499315,50.2925468 C199.310626,50.2609272 199.145925,50.2245651 199.005208,50.1834595 C198.864491,50.142354 198.746163,50.0996681 198.650219,50.0554006 C198.554276,50.011133 198.48072,49.97319 198.42955,49.9415703 L198.842105,49.0404145 L199.038788,49.1400159 L199.038788,49.1400159 C199.125137,49.1811215 199.224278,49.2206455 199.336212,49.2585891 C199.448146,49.2965327 199.57287,49.3297328 199.710389,49.3581905 C199.847908,49.3866482 199.99342,49.4008768 200.14693,49.4008768 C200.453949,49.4008768 200.697002,49.3518671 200.876096,49.2538462 C201.055191,49.1558252 201.144737,49.0056341 201.144737,48.8032682 C201.144737,48.638846 201.087172,48.5076264 200.972039,48.4096054 C200.879934,48.3311887 200.732567,48.2416429 200.529935,48.1409663 L200.367599,48.0633719 C200.214089,47.9938086 200.071775,47.9210845 199.940652,47.8451973 C199.80953,47.7693101 199.695998,47.6807764 199.600055,47.5795935 C199.504111,47.4784105 199.427358,47.3598386 199.369792,47.2238741 C199.312226,47.0879095 199.283443,46.9250707 199.283443,46.7353527 C199.283443,46.242086 199.465733,45.8500081 199.830318,45.5591072 C200.194903,45.2682063 200.722584,45.1227581 201.413377,45.1227581 Z M160.589638,45.1512156 C160.839091,45.1512156 161.090139,45.1717681 161.342791,45.2128737 C161.595442,45.2539792 161.849688,45.3314462 162.105537,45.445277 L161.414748,48.2815464 C161.395559,48.3511097 161.376371,48.4649388 161.357182,48.6230371 C161.337993,48.7811354 161.328399,48.9297456 161.328399,49.0688721 C161.328399,49.2522661 161.344389,49.4309145 161.376371,49.6048226 C161.408352,49.7787308 161.459521,49.9542173 161.529879,50.1312874 L160.493695,50.283061 C160.41694,50.1312866 160.356177,49.9700288 160.311404,49.7992826 C160.151498,49.9384091 159.954817,50.0633049 159.721354,50.1739737 C159.487892,50.2846425 159.224051,50.3399761 158.929825,50.3399761 C158.629202,50.3399761 158.371757,50.2909663 158.157484,50.1929454 C157.94321,50.0949244 157.768915,49.9589619 157.634594,49.7850538 C157.500273,49.6111457 157.401133,49.4072019 157.337171,49.1732164 C157.273209,48.9392309 157.241228,48.6862774 157.241228,48.4143483 C157.241228,47.9527013 157.324378,47.5226803 157.49068,47.1242726 C157.656982,46.7258649 157.888842,46.3812157 158.186266,46.0903149 C158.483691,45.799414 158.837078,45.5701749 159.246436,45.4025907 C159.655795,45.2350065 160.103525,45.1512156 160.589638,45.1512156 Z M224.881031,45.1227581 C225.200842,45.1227581 225.487069,45.1559582 225.73972,45.2223595 C225.992372,45.2887608 226.182657,45.356742 226.310581,45.4263053 L225.898026,46.3179753 C225.78929,46.254736 225.632585,46.1930786 225.427906,46.1330012 C225.223226,46.0729238 225.008956,46.0428856 224.785088,46.0428856 C224.676352,46.0428856 224.569217,46.0523714 224.463679,46.0713432 C224.358141,46.090315 224.263798,46.1219341 224.180647,46.1662017 C224.097496,46.2104692 224.028737,46.2721266 223.97437,46.3511758 C223.920002,46.4302249 223.892818,46.5266634 223.892818,46.6404942 C223.892818,46.7859447 223.951982,46.9045166 224.070312,46.9962136 C224.15906,47.0649864 224.277489,47.1364263 224.425601,47.2105344 L224.583607,47.2855321 C224.794683,47.3803911 224.973775,47.4720867 225.120888,47.5606218 C225.268001,47.6491568 225.389528,47.7487573 225.485471,47.8594261 C225.581415,47.9700949 225.651772,48.0934097 225.696546,48.2293743 C225.74132,48.3653388 225.763706,48.5281776 225.763706,48.7178956 C225.763706,48.9518811 225.715735,49.1684725 225.619792,49.3676764 C225.523848,49.5668802 225.384732,49.7376238 225.20244,49.8799123 C225.020147,50.0222008 224.794683,50.1344489 224.526042,50.21666 C224.2574,50.2988711 223.950385,50.3399761 223.604989,50.3399761 C223.368328,50.3399761 223.155657,50.3241665 222.966968,50.2925468 C222.778279,50.2609272 222.613579,50.2245651 222.472862,50.1834595 C222.332145,50.142354 222.213816,50.0996681 222.117873,50.0554006 L221.955836,49.9752978 C221.933804,49.9633527 221.914261,49.9521102 221.897204,49.9415703 L222.309759,49.0404145 L222.506442,49.1400159 L222.506442,49.1400159 C222.592791,49.1811215 222.691931,49.2206455 222.803865,49.2585891 C222.915799,49.2965327 223.040524,49.3297328 223.178043,49.3581905 C223.315562,49.3866482 223.461074,49.4008768 223.614583,49.4008768 C223.921602,49.4008768 224.164656,49.3518671 224.34375,49.2538462 C224.522844,49.1558252 224.61239,49.0056341 224.61239,48.8032682 C224.61239,48.638846 224.554825,48.5076264 224.439693,48.4096054 C224.347587,48.3311887 224.20022,48.2416429 223.997588,48.1409663 L223.835252,48.0633719 C223.681743,47.9938086 223.539429,47.9210845 223.408306,47.8451973 C223.277183,47.7693101 223.163652,47.6807764 223.067708,47.5795935 C222.971765,47.4784105 222.895011,47.3598386 222.837445,47.2238741 C222.779879,47.0879095 222.751096,46.9250707 222.751096,46.7353527 C222.751096,46.242086 222.933386,45.8500081 223.297971,45.5591072 C223.662557,45.2682063 224.190238,45.1227581 224.881031,45.1227581 Z M220.342928,45.1227581 C220.829041,45.1227581 221.206413,45.2460729 221.475055,45.4927063 C221.743697,45.7393396 221.878015,46.0555315 221.878015,46.4412914 C221.878015,46.8396991 221.778875,47.1622148 221.580592,47.4088481 C221.382309,47.6554815 221.124865,47.8483585 220.808251,47.9874851 C220.491638,48.1266116 220.133454,48.2214691 219.73369,48.2720606 C219.333925,48.322652 218.92937,48.3542712 218.520011,48.3669191 C218.513615,48.379567 218.510417,48.3922146 218.510417,48.4048625 L218.510417,48.499721 C218.510417,49.0751988 218.878194,49.3629334 219.613761,49.3629334 C220.048705,49.3629334 220.483642,49.2743997 220.918586,49.0973296 L221.014529,50.026943 C220.861019,50.0965063 220.64355,50.1660685 220.362116,50.2356317 C220.080682,50.305195 219.760875,50.3399761 219.402686,50.3399761 C219.044497,50.3399761 218.737483,50.2893854 218.481634,50.1882025 C218.225785,50.0870196 218.016311,49.9478951 217.853207,49.770825 C217.690103,49.5937549 217.570176,49.3898112 217.493421,49.1589876 C217.416666,48.9281641 217.378289,48.6799535 217.378289,48.4143483 C217.378289,47.9906449 217.447048,47.5811764 217.584567,47.1859306 C217.722086,46.7906849 217.920366,46.4397119 218.179413,46.1330012 C218.438461,45.8262905 218.750272,45.5812418 219.114857,45.3978477 C219.479443,45.2144537 219.888795,45.1227581 220.342928,45.1227581 Z M148.001919,43.7473097 L147.637336,45.2460741 L149.277961,45.2460741 L149.047697,46.1946592 L147.407072,46.1946592 L146.927357,48.1582304 C146.895376,48.2973569 146.87299,48.4127669 146.860197,48.5044639 C146.847405,48.5961609 146.841009,48.6799518 146.841009,48.755839 C146.841009,48.8317262 146.849004,48.9060313 146.864995,48.9787565 C146.880985,49.0514817 146.912966,49.1147201 146.960938,49.1684735 C147.008909,49.2222269 147.079267,49.2664938 147.172012,49.3012754 C147.264757,49.336057 147.391081,49.3534476 147.550987,49.3534476 C147.723685,49.3534476 147.889985,49.3313142 148.04989,49.2870466 C148.209796,49.2427791 148.350511,49.1953503 148.472039,49.1447589 L148.558388,50.0648864 C148.411275,50.1281257 148.225787,50.1882022 148.001919,50.2451176 C147.778051,50.302033 147.515809,50.3304902 147.215186,50.3304902 C146.665111,50.3304902 146.271748,50.2119183 146.035088,49.9747708 C145.798427,49.7376234 145.680099,49.4135267 145.680099,49.0024711 C145.680099,48.8506967 145.691292,48.6941818 145.713679,48.5329215 C145.736066,48.3716612 145.769645,48.1993366 145.814419,48.0159426 L146.793037,43.9370267 L148.001919,43.7473097 Z M231.309211,48.8222399 C231.51389,48.8222399 231.680189,48.8791545 231.808114,48.9929853 C231.936039,49.106816 232,49.2743977 232,49.4957354 C232,49.622214 231.976014,49.737624 231.928043,49.8419689 C231.880071,49.9463138 231.817709,50.0348475 231.740954,50.1075727 C231.664199,50.180298 231.576252,50.2356315 231.477111,50.2735751 C231.377969,50.3115187 231.27723,50.3304902 231.17489,50.3304902 C230.970211,50.3304902 230.80551,50.2751567 230.680784,50.1644878 C230.556057,50.053819 230.493695,49.8878183 230.493695,49.6664807 C230.493695,49.4008755 230.576845,49.1937698 230.743147,49.0451574 C230.909449,48.896545 231.098135,48.8222399 231.309211,48.8222399 Z M171.968476,48.8222399 C172.173155,48.8222399 172.339455,48.8791545 172.467379,48.9929853 C172.595304,49.106816 172.659265,49.2743977 172.659265,49.4957354 C172.659265,49.622214 172.63528,49.737624 172.587308,49.8419689 C172.539336,49.9463138 172.476974,50.0348475 172.400219,50.1075727 C172.323465,50.180298 172.235518,50.2356315 172.136376,50.2735751 C172.037235,50.3115187 171.936495,50.3304902 171.834156,50.3304902 C171.629476,50.3304902 171.464776,50.2751567 171.340049,50.1644878 C171.215323,50.053819 171.152961,49.8878183 171.152961,49.6664807 C171.152961,49.4008755 171.23611,49.1937698 171.402412,49.0451574 C171.568714,48.896545 171.7574,48.8222399 171.968476,48.8222399 Z M188.230811,45.2460741 L189.391721,45.2460741 L188.768092,47.8262256 C188.684941,48.1550701 188.643366,48.4238332 188.643366,48.6325229 C188.643366,48.7337058 188.65296,48.8285634 188.672149,48.9170984 C188.691338,49.0056335 188.724918,49.0831005 188.772889,49.1495018 C188.820861,49.2159031 188.88802,49.2680747 188.97437,49.3060183 C189.060719,49.3439619 189.167854,49.3629334 189.295779,49.3629334 C189.506854,49.3629334 189.69554,49.3202475 189.861842,49.2348745 C190.028144,49.1495014 190.181651,49.0340913 190.322368,48.8886409 C190.341557,48.6167118 190.38633,48.338463 190.456689,48.053886 L191.128289,45.2460741 L192.2892,45.2460741 L191.579221,48.1961738 C191.54724,48.3416242 191.523255,48.4870725 191.507264,48.6325229 C191.491274,48.7779734 191.483279,48.9234216 191.483279,49.0688721 C191.483279,49.2522661 191.49767,49.4324955 191.526453,49.6095656 C191.555236,49.7866357 191.604806,49.9605412 191.675164,50.1312874 L190.63898,50.283061 C190.600603,50.2134977 190.567023,50.1360307 190.53824,50.0506576 L190.456689,49.7897967 L190.456689,49.7897967 C190.296783,49.9162754 190.098503,50.0380092 189.861842,50.155002 C189.625182,50.2719947 189.350148,50.3304902 189.036732,50.3304902 C188.755298,50.3304902 188.515443,50.2893853 188.31716,50.2071742 C188.118877,50.1249631 187.957375,50.0127149 187.832648,49.8704265 C187.707922,49.728138 187.618376,49.5605563 187.564008,49.3676764 C187.50964,49.1747964 187.482456,48.9708527 187.482456,48.755839 C187.482456,48.477586 187.520833,48.1772037 187.597588,47.8546831 L188.230811,45.2460741 Z M121.608004,45.2460741 L122.768914,45.2460741 L122.145285,47.8262256 C122.062134,48.1550701 122.020559,48.4238332 122.020559,48.6325229 C122.020559,48.7337058 122.030153,48.8285634 122.049342,48.9170984 C122.068531,49.0056335 122.102111,49.0831005 122.150082,49.1495018 C122.198054,49.2159031 122.265213,49.2680747 122.351563,49.3060183 C122.437912,49.3439619 122.545047,49.3629334 122.672971,49.3629334 C122.884047,49.3629334 123.072733,49.3202475 123.239035,49.2348745 C123.405337,49.1495014 123.558844,49.0340913 123.699561,48.8886409 C123.71875,48.6167118 123.763523,48.338463 123.833882,48.053886 L124.505482,45.2460741 L125.666393,45.2460741 L124.956414,48.1961738 C124.924433,48.3416242 124.900448,48.4870725 124.884457,48.6325229 C124.868467,48.7779734 124.860471,48.9234216 124.860471,49.0688721 C124.860471,49.2522661 124.874863,49.4324955 124.903646,49.6095656 C124.932429,49.7866357 124.981999,49.9605412 125.052357,50.1312874 L124.016173,50.283061 C123.977796,50.2134977 123.944216,50.1360307 123.915433,50.0506576 L123.833882,49.7897967 L123.833882,49.7897967 C123.673976,49.9162754 123.475696,50.0380092 123.239035,50.155002 C123.002375,50.2719947 122.727341,50.3304902 122.413925,50.3304902 C122.132491,50.3304902 121.892636,50.2893853 121.694353,50.2071742 C121.49607,50.1249631 121.334568,50.0127149 121.209841,49.8704265 C121.085115,49.728138 120.995569,49.5605563 120.941201,49.3676764 C120.886833,49.1747964 120.859649,48.9708527 120.859649,48.755839 C120.859649,48.477586 120.898026,48.1772037 120.974781,47.8546831 L121.608004,45.2460741 Z M203.975055,45.2460741 L205.135965,45.2460741 L204.512336,47.8262256 C204.429185,48.1550701 204.38761,48.4238332 204.38761,48.6325229 C204.38761,48.7337058 204.397204,48.8285634 204.416393,48.9170984 C204.435581,49.0056335 204.469161,49.0831005 204.517133,49.1495018 C204.565104,49.2159031 204.632264,49.2680747 204.718613,49.3060183 C204.804962,49.3439619 204.912097,49.3629334 205.040022,49.3629334 C205.251098,49.3629334 205.439784,49.3202475 205.606086,49.2348745 C205.772388,49.1495014 205.925895,49.0340913 206.066612,48.8886409 C206.085801,48.6167118 206.130573,48.338463 206.200932,48.053886 L206.872533,45.2460741 L208.033443,45.2460741 L207.323465,48.1961738 C207.291484,48.3416242 207.267498,48.4870725 207.251508,48.6325229 C207.235517,48.7779734 207.227522,48.9234216 207.227522,49.0688721 C207.227522,49.2522661 207.241913,49.4324955 207.270696,49.6095656 C207.299479,49.7866357 207.349049,49.9605412 207.419408,50.1312874 L206.383224,50.283061 C206.344846,50.2134977 206.311267,50.1360307 206.282484,50.0506576 L206.200932,49.7897967 L206.200932,49.7897967 C206.041026,49.9162754 205.842746,50.0380092 205.606086,50.155002 C205.369425,50.2719947 205.094391,50.3304902 204.780976,50.3304902 C204.499542,50.3304902 204.259687,50.2893853 204.061404,50.2071742 C203.86312,50.1249631 203.701618,50.0127149 203.576891,49.8704265 C203.452165,49.728138 203.362619,49.5605563 203.308251,49.3676764 C203.253883,49.1747964 203.2267,48.9708527 203.2267,48.755839 C203.2267,48.477586 203.265076,48.1772037 203.341831,47.8546831 L203.975055,45.2460741 Z M149.911184,45.2460741 L151.0625,45.2460741 L151.066764,45.804685 C151.068185,45.902354 151.069962,46.0023067 151.072094,46.1045436 C151.078491,46.4112544 151.089684,46.7242843 151.105674,47.0436429 C151.121665,47.3630015 151.140853,47.6776124 151.16324,47.9874851 C151.185627,48.2973577 151.216009,48.5882543 151.254386,48.8601833 C151.43348,48.5882543 151.610973,48.2989387 151.78687,47.992228 C151.962766,47.6855173 152.130664,47.3756492 152.29057,47.0626146 C152.450476,46.7495799 152.599186,46.438131 152.736705,46.1282583 C152.874224,45.8183856 152.994152,45.5243272 153.096491,45.2460741 L154.094298,45.2460741 L154.098562,45.7857133 C154.099984,45.8791663 154.10176,45.9743762 154.103893,46.0713432 C154.110289,46.362244 154.121482,46.6626263 154.137473,46.972499 C154.153463,47.2823717 154.172652,47.5969826 154.195038,47.9163412 C154.217425,48.2356998 154.247807,48.5503107 154.286184,48.8601833 C154.452486,48.6198739 154.621984,48.344787 154.794682,48.0349143 C154.96738,47.7250416 155.13368,47.4072688 155.293586,47.0815863 C155.453491,46.7559038 155.599003,46.4333881 155.730126,46.1140295 C155.861249,45.7946709 155.968384,45.5053554 156.051535,45.2460741 L157.260417,45.2460741 C157.126096,45.6255101 156.961395,46.0286547 156.76631,46.4555201 C156.571225,46.8823856 156.352158,47.3139875 156.109101,47.7503388 C155.866044,48.1866901 155.605402,48.6151301 155.327166,49.0356716 C155.04893,49.4562131 154.759504,49.84671 154.458882,50.2071742 L153.499452,50.2071742 C153.429093,49.6759639 153.369929,49.1526663 153.321957,48.6372658 C153.273986,48.1218654 153.243604,47.5985678 153.230811,47.0673575 C153.109283,47.3392866 152.971766,47.6191164 152.818257,47.9068553 C152.664747,48.1945942 152.504844,48.476005 152.338542,48.7510961 C152.17224,49.0261871 152.00594,49.2886264 151.839638,49.5384217 L151.524092,50.0021742 C151.474344,50.0734936 151.426018,50.1418269 151.379112,50.2071742 L150.419682,50.2071742 C150.362116,49.9162733 150.30615,49.5842718 150.251782,49.2111598 C150.197414,48.8380478 150.147844,48.4396461 150.10307,48.0159426 C150.058297,47.5922391 150.018321,47.1464086 149.983141,46.6784376 C149.947962,46.2104666 149.923977,45.7330169 149.911184,45.2460741 Z M165.425164,45.1417298 C165.501919,45.1417298 165.588267,45.1464727 165.684211,45.1559585 L165.967242,45.189159 L165.967242,45.189159 C166.059988,45.2018069 166.146335,45.2176165 166.226288,45.2365883 C166.306241,45.2555601 166.375,45.2776935 166.432566,45.3029892 L166.096765,46.2610602 C165.968841,46.2167927 165.831324,46.1820116 165.684211,46.1567158 C165.537097,46.1314201 165.364402,46.1187724 165.166118,46.1187724 C165.057382,46.1187724 164.942252,46.1266772 164.820724,46.142487 C164.699195,46.1582969 164.596857,46.1788493 164.513706,46.2041451 L163.544682,50.2071742 L162.383772,50.2071742 L163.535088,45.4737346 C163.803729,45.3851995 164.094754,45.3077325 164.408169,45.2413312 C164.721584,45.1749299 165.060579,45.1417298 165.425164,45.1417298 Z M195.63761,45.1417298 C195.714364,45.1417298 195.800712,45.1464727 195.896656,45.1559585 L196.179688,45.189159 L196.179688,45.189159 C196.272433,45.2018069 196.358781,45.2176165 196.438734,45.2365883 C196.518686,45.2555601 196.587445,45.2776935 196.645011,45.3029892 L196.309211,46.2610602 C196.181286,46.2167927 196.043769,46.1820116 195.896656,46.1567158 C195.749542,46.1314201 195.576847,46.1187724 195.378564,46.1187724 C195.269828,46.1187724 195.154697,46.1266772 195.033169,46.142487 C194.91164,46.1582969 194.809302,46.1788493 194.726151,46.2041451 L193.757127,50.2071742 L192.596217,50.2071742 L193.747533,45.4737346 C194.016175,45.3851995 194.307199,45.3077325 194.620614,45.2413312 C194.934029,45.1749299 195.273024,45.1417298 195.63761,45.1417298 Z M178.175987,43.6334795 C178.284723,44.1204223 178.409447,44.6073577 178.550164,45.0943005 C178.690882,45.5812433 178.844389,46.0618549 179.010691,46.5361499 C179.407257,46.0618549 179.792624,45.5859862 180.166804,45.1085293 C180.540983,44.6310724 180.891172,44.1393941 181.217379,43.6334795 L182.57977,43.6334795 C182.330317,43.9812957 182.080867,44.319621 181.831414,44.6484655 C181.581961,44.97731 181.327715,45.3045686 181.068668,45.6302511 C180.80962,45.9559336 180.542582,46.2800303 180.267544,46.6025508 L179.704679,47.2560202 C179.608736,47.3663369 179.511727,47.4773565 179.413651,47.5890793 L178.780428,50.2071742 L177.571546,50.2071742 L178.20477,47.5890793 C177.942524,46.9250664 177.704268,46.2658064 177.489995,45.6112794 C177.275721,44.9567524 177.075842,44.2974924 176.890351,43.6334795 L178.175987,43.6334795 Z M129.014803,45.1417298 C129.091557,45.1417298 129.177905,45.1464727 129.273849,45.1559585 L129.55688,45.189159 L129.55688,45.189159 C129.649626,45.2018069 129.735974,45.2176165 129.815927,45.2365883 C129.895879,45.2555601 129.964638,45.2776935 130.022204,45.3029892 L129.686404,46.2610602 C129.558479,46.2167927 129.420962,46.1820116 129.273849,46.1567158 C129.126735,46.1314201 128.95404,46.1187724 128.755757,46.1187724 C128.647021,46.1187724 128.53189,46.1266772 128.410362,46.142487 C128.288833,46.1582969 128.186495,46.1788493 128.103344,46.2041451 L127.13432,50.2071742 L125.97341,50.2071742 L127.124726,45.4737346 C127.393368,45.3851995 127.684392,45.3077325 127.997807,45.2413312 C128.311222,45.1749299 128.650217,45.1417298 129.014803,45.1417298 Z M160.368969,46.0998007 C160.081139,46.0998007 159.815699,46.1614581 159.572643,46.2847748 C159.329586,46.4080915 159.120112,46.5725113 158.944216,46.7780391 C158.76832,46.9835669 158.632402,47.2191298 158.536458,47.484735 C158.440515,47.7503401 158.392544,48.028589 158.392544,48.3194898 C158.392544,48.4649403 158.405336,48.6009028 158.430921,48.7273814 C158.456506,48.8538601 158.49968,48.9645272 158.560444,49.0593862 C158.621208,49.1542452 158.702759,49.2301312 158.805099,49.2870466 C158.907438,49.343962 159.038559,49.3724193 159.198465,49.3724193 C159.403144,49.3724193 159.583835,49.3297334 159.740543,49.2443603 C159.89725,49.1589872 160.042762,49.0435772 160.177083,48.8981267 C160.18348,48.7337045 160.197871,48.5787705 160.220258,48.43332 C160.242644,48.2878696 160.273026,48.1424213 160.311404,47.9969709 L160.781524,46.1377441 C160.659996,46.1124484 160.522479,46.0998007 160.368969,46.0998007 Z M184.70011,46.0903149 C184.450657,46.0903149 184.228391,46.161458 184.033306,46.3037465 C183.838221,46.446035 183.675119,46.6278453 183.543997,46.8491829 C183.412874,47.0705206 183.312135,47.3124073 183.241776,47.5748505 C183.171418,47.8372937 183.136239,48.0918282 183.136239,48.3384615 C183.136239,48.6546582 183.197002,48.9044497 183.318531,49.0878438 C183.440059,49.2712378 183.65433,49.3629334 183.961349,49.3629334 C184.210802,49.3629334 184.433067,49.2917903 184.628152,49.1495018 C184.823237,49.0072133 184.986339,48.826984 185.117462,48.6088083 C185.248584,48.3906326 185.349323,48.1487458 185.419682,47.8831407 C185.490041,47.6175355 185.525219,47.364582 185.525219,47.1242726 C185.525219,46.808076 185.464456,46.5567035 185.342928,46.3701475 C185.221399,46.1835915 185.007129,46.0903149 184.70011,46.0903149 Z M139.223136,46.0903149 C138.973683,46.0903149 138.751417,46.161458 138.556332,46.3037465 C138.361247,46.446035 138.198146,46.6278453 138.067023,46.8491829 C137.9359,47.0705206 137.835161,47.3124073 137.764803,47.5748505 C137.694444,47.8372937 137.659265,48.0918282 137.659265,48.3384615 C137.659265,48.6546582 137.720029,48.9044497 137.841557,49.0878438 C137.963085,49.2712378 138.177356,49.3629334 138.484375,49.3629334 C138.733828,49.3629334 138.956094,49.2917903 139.151179,49.1495018 C139.346264,49.0072133 139.509365,48.826984 139.640488,48.6088083 C139.771611,48.3906326 139.87235,48.1487458 139.942708,47.8831407 C140.013067,47.6175355 140.048246,47.364582 140.048246,47.1242726 C140.048246,46.808076 139.987482,46.5567035 139.865954,46.3701475 C139.744426,46.1835915 139.530155,46.0903149 139.223136,46.0903149 Z M117.559211,44.5156636 C117.194625,44.5156636 116.863625,44.6057783 116.566201,44.7860104 C116.268776,44.9662424 116.01453,45.2018054 115.803454,45.4927063 C115.592378,45.7836071 115.427678,46.1140276 115.309348,46.4839777 C115.191017,46.8539277 115.131853,47.2286151 115.131853,47.608051 C115.131853,48.1266135 115.243785,48.5408248 115.467654,48.8506975 C115.691522,49.1605702 116.049705,49.3155042 116.542215,49.3155042 C116.9068,49.3155042 117.239399,49.2253895 117.540022,49.0451574 C117.840645,48.8649254 118.09649,48.6293624 118.307566,48.3384615 C118.518641,48.0475607 118.683342,47.7171402 118.801672,47.3471901 C118.920002,46.9772401 118.979167,46.6025527 118.979167,46.2231168 C118.979167,45.7045543 118.865635,45.290343 118.638569,44.9804703 C118.411503,44.6705976 118.05172,44.5156636 117.559211,44.5156636 Z M220.17023,46.0618573 C219.978343,46.0618573 219.796053,46.0998003 219.623355,46.1756875 C219.450657,46.2515747 219.29715,46.355918 219.162829,46.4887206 C219.028508,46.6215232 218.911779,46.7780382 218.812637,46.9582702 C218.713495,47.1385023 218.641539,47.3329603 218.596765,47.5416501 C219.364313,47.5163543 219.922376,47.4246587 220.27097,47.2665604 C220.619565,47.1084621 220.79386,46.8713182 220.79386,46.5551216 C220.79386,46.4286429 220.747488,46.3148138 220.654742,46.2136309 C220.561997,46.112448 220.400495,46.0618573 220.17023,46.0618573 Z M169.234101,46.0618573 C169.042214,46.0618573 168.859924,46.0998003 168.687226,46.1756875 C168.514528,46.2515747 168.36102,46.355918 168.2267,46.4887206 C168.092379,46.6215232 167.975649,46.7780382 167.876508,46.9582702 C167.777366,47.1385023 167.70541,47.3329603 167.660636,47.5416501 C168.428184,47.5163543 168.986246,47.4246587 169.334841,47.2665604 C169.683436,47.1084621 169.85773,46.8713182 169.85773,46.5551216 C169.85773,46.4286429 169.811358,46.3148138 169.718613,46.2136309 C169.625868,46.112448 169.464365,46.0618573 169.234101,46.0618573 Z M178.670814,20.6153846 L178.670814,38.6281879 L173.838246,38.6281879 L173.838246,36.6991224 C173.161768,37.5182626 172.544491,38.0711739 171.986397,38.357873 C171.242271,38.7346775 170.413597,38.9230769 169.500352,38.9230769 C167.665404,38.9230769 166.263847,38.2472964 165.295638,36.895715 C164.327428,35.5441337 163.843331,33.9017822 163.843331,31.9686113 C163.843331,29.8060811 164.378163,28.1514427 165.447845,27.0046464 C166.517526,25.8578501 167.876804,25.2844605 169.525719,25.2844605 C170.329037,25.2844605 171.058354,25.415521 171.713693,25.6776458 C172.369031,25.9397707 172.950371,26.3329521 173.457729,26.8572019 L173.457729,20.6153846 L178.670814,20.6153846 Z M82.1889937,25.2844605 C83.3365885,25.2844605 84.2689954,25.415521 84.9862421,25.6776458 C85.7034889,25.9397707 86.2308683,26.2694697 86.5683962,26.6667527 C86.9059241,27.0640357 87.1421901,27.5657516 87.2772013,28.1719153 C87.353145,28.5487198 87.3911164,29.228596 87.3911164,30.2115643 L87.3929134,33.8178137 C87.4024973,35.4961375 87.4504174,36.5773872 87.5366745,37.0615901 C87.6337138,37.6063183 87.8256799,38.1285124 88.1125786,38.6281879 L85.7330189,38.6281879 C85.4967493,38.1694694 85.3448641,37.6329406 85.2773585,37.0185854 C84.4335388,37.7148546 83.6213744,38.2063314 82.8408412,38.4930305 C82.0603079,38.7797295 81.2228294,38.9230769 80.3283805,38.9230769 C78.851696,38.9230769 77.7167755,38.5728997 76.9235849,37.8725348 C76.1303944,37.17217 75.733805,36.2772727 75.733805,35.1878162 C75.733805,34.5488868 75.8835808,33.9652582 76.1831368,33.4369128 C76.4826928,32.9085673 76.8750631,32.4846686 77.3602594,32.1652039 C77.8454558,31.8457392 78.3918209,31.6040965 78.9993711,31.4402685 C79.3472123,31.3510732 79.8328713,31.2643566 80.4563576,31.180117 L81.734461,31.0211436 C83.2165794,30.8270991 84.3342503,30.6022935 85.0875,30.3467217 L85.1001572,29.7692308 L85.1001572,29.7692308 C85.1001572,28.8681765 84.8849864,28.2333524 84.4546384,27.8647393 C83.8724027,27.3650638 83.0075005,27.1152297 81.8599057,27.1152297 C80.7882546,27.1152297 79.9971855,27.2974857 79.4866745,27.6620031 C78.9761636,28.0265205 78.5985599,28.6715837 78.3538522,29.5972122 L76.1261792,29.3023232 C76.328696,28.3766947 76.6619998,27.6292405 77.1261006,27.059938 C77.5902015,26.4906356 78.2610281,26.0524022 79.1386006,25.7452246 C80.0161732,25.438047 81.0329607,25.2844605 82.1889937,25.2844605 Z M33.4650735,16.3742204 C39.7970588,16.3742204 44.9301471,21.4219538 44.9301471,27.6486486 C44.9301471,33.8753434 39.7970588,38.9230769 33.4650735,38.9230769 C27.1330883,38.9230769 22,33.8753434 22,27.6486486 C22,21.4219538 27.1330883,16.3742204 33.4650735,16.3742204 Z M135.324057,25.2844605 C137.121393,25.2844605 138.589617,25.8783283 139.728774,27.0660816 C140.86793,28.2538349 141.4375,29.9248559 141.4375,32.0791946 L141.429399,32.5195618 C141.428049,32.5667441 141.42653,32.6165477 141.424843,32.6689726 L131.400314,32.6689726 C131.484696,34.102468 131.902381,35.2000994 132.653381,35.9618998 C133.40438,36.7237002 134.341006,37.1045947 135.463286,37.1045947 C136.298668,37.1045947 137.011685,36.8916215 137.602358,36.4656686 C138.193032,36.0397156 138.661345,35.3598395 139.007311,34.4260196 L141.361557,34.7086216 C140.990276,36.0438201 140.302573,37.080017 139.298428,37.8172432 C138.294282,38.5544694 137.011695,38.9230769 135.450629,38.9230769 C133.484529,38.9230769 131.925595,38.3353526 130.773781,37.1598864 C129.621968,35.9844202 129.046069,34.3359253 129.046069,32.2143521 C129.046069,30.0190563 129.628296,28.3152702 130.792767,27.1029427 C131.957239,25.8906152 133.467653,25.2844605 135.324057,25.2844605 Z M96.3524371,25.2844605 C97.8122452,25.2844605 99.0062323,25.642829 99.934434,26.3595767 C100.862636,27.0763244 101.45752,28.0940908 101.719104,29.4129066 L99.5040881,29.7446567 C99.2931331,28.8681767 98.9197485,28.2087787 98.383923,27.766443 C97.8480974,27.3241072 97.2004755,27.1029427 96.4410377,27.1029427 C95.2934429,27.1029427 94.3610361,27.5022676 93.6437893,28.3009293 C92.9265425,29.099591 92.5679245,30.3630958 92.5679245,32.0914817 C92.5679245,33.8444417 92.9138854,35.1181857 93.6058176,35.9127517 C94.2977498,36.7073177 95.2006234,37.1045947 96.3144654,37.1045947 C97.2089143,37.1045947 97.9556836,36.8383782 98.5547956,36.305937 C99.1539076,35.7734959 99.5336208,34.9543679 99.6939465,33.8485287 L101.934277,34.1311306 C101.689569,35.6301572 101.063042,36.803558 100.054678,37.6513681 C99.0463131,38.4991782 97.8080262,38.9230769 96.3397799,38.9230769 C94.5002529,38.9230769 93.021481,38.3394483 91.9034198,37.1721735 C90.7853587,36.0048987 90.2263365,34.3318299 90.2263365,32.1529169 C90.2263365,30.7439957 90.4668215,29.5112082 90.9477987,28.4545173 C91.428776,27.3978264 92.1607786,26.6053201 93.1438286,26.0769747 C94.1268786,25.5486293 95.1964041,25.2844605 96.3524371,25.2844605 Z M122.27445,25.2844605 C123.734258,25.2844605 124.928245,25.642829 125.856447,26.3595767 C126.784648,27.0763244 127.379532,28.0940908 127.641116,29.4129066 L125.426101,29.7446567 C125.215146,28.8681767 124.841761,28.2087787 124.305936,27.766443 C123.77011,27.3241072 123.122488,27.1029427 122.36305,27.1029427 C121.215455,27.1029427 120.283049,27.5022676 119.565802,28.3009293 C118.848555,29.099591 118.489937,30.3630958 118.489937,32.0914817 C118.489937,33.8444417 118.835898,35.1181857 119.52783,35.9127517 C120.219762,36.7073177 121.122636,37.1045947 122.236478,37.1045947 C123.130927,37.1045947 123.877696,36.8383782 124.476808,36.305937 C125.07592,35.7734959 125.455633,34.9543679 125.615959,33.8485287 L127.856289,34.1311306 C127.611582,35.6301572 126.985055,36.803558 125.97669,37.6513681 C124.968326,38.4991782 123.730039,38.9230769 122.261792,38.9230769 C120.422265,38.9230769 118.943494,38.3394483 117.825432,37.1721735 C116.707371,36.0048987 116.148349,34.3318299 116.148349,32.1529169 C116.148349,30.7439957 116.388834,29.5112082 116.869811,28.4545173 C117.350789,27.3978264 118.082791,26.6053201 119.065841,26.0769747 C120.048891,25.5486293 121.118417,25.2844605 122.27445,25.2844605 Z M106.566824,21.020857 L106.566824,25.5793495 L108.857783,25.5793495 L108.857783,27.2995354 L106.566824,27.2995354 L106.566824,34.9297883 L106.572762,35.3169072 C106.586617,35.7296106 106.624719,36.0060415 106.687068,36.1462055 C106.76723,36.3264163 106.898021,36.4697637 107.079442,36.5762519 C107.260863,36.6827402 107.520334,36.7359835 107.857862,36.7359835 C108.111008,36.7359835 108.444311,36.707314 108.857783,36.6499742 L109.186871,38.6036138 C108.545568,38.7346763 107.971779,38.8002065 107.465487,38.8002065 C106.638544,38.8002065 105.997251,38.6732417 105.541588,38.4193082 C105.085925,38.1653747 104.765279,37.8315801 104.579638,37.4179143 C104.407258,37.033796 104.314913,36.2559271 104.3026,35.0842865 L104.301179,27.2995354 L102.630425,27.2995354 L102.630425,25.5793495 L104.301179,25.5793495 L104.301179,22.3478575 L106.566824,21.020857 Z M226.121295,25.2844605 C227.550355,25.2844605 228.668641,25.6960723 229.476187,26.5193082 C230.283733,27.3425441 230.6875,28.6142402 230.6875,30.3344347 L230.6875,38.6281879 L225.499784,38.6281879 L225.499784,31.4525555 C225.499784,30.6334153 225.34335,30.0538823 225.030479,29.7139391 C224.717608,29.3739959 224.277904,29.2040268 223.711353,29.2040268 C223.085611,29.2040268 222.57826,29.4333827 222.189285,29.8921012 C221.80031,30.3508197 221.605825,31.1740433 221.605825,32.3617966 L221.605825,38.6281879 L216.443477,38.6281879 L216.443477,25.5793495 L221.250676,25.5793495 L221.250676,27.7050077 C221.969434,26.8367191 222.696637,26.2162297 223.432307,25.8435209 C224.167977,25.4708121 225.064298,25.2844605 226.121295,25.2844605 Z M113.376415,25.5793495 L113.376415,38.6281879 L111.098113,38.6281879 L111.098113,25.5793495 L113.376415,25.5793495 Z M72.8099843,25.2844605 C73.5778602,25.2844605 74.3583818,25.5220076 75.1515723,25.9971089 L74.3668239,28.0490449 C73.8099029,27.7295802 73.2529902,27.5698503 72.6960692,27.5698503 C72.1982155,27.5698503 71.7509978,27.7152455 71.3544025,28.0060403 C70.9578072,28.296835 70.6751319,28.7002556 70.5063679,29.2163139 C70.253222,30.0026885 70.1266509,30.8627728 70.1266509,31.7965927 L70.1266509,38.6281879 L67.8483491,38.6281879 L67.8483491,25.5793495 L69.8988208,25.5793495 L69.8988208,27.5575632 C70.421989,26.6319348 70.9050685,26.0216845 71.3480739,25.726794 C71.7910793,25.4319035 72.2783778,25.2844605 72.8099843,25.2844605 Z M156.004679,20.6153846 L162.993509,38.6281879 L156.981339,38.6281879 L156.068098,35.6547238 L149.523204,35.6547238 L148.622647,38.6281879 L142.75,38.6281879 L149.738831,20.6153846 L156.004679,20.6153846 Z M50.875,20.6153846 L57.8744497,20.6153846 C59.1064265,20.6153846 60.0472714,20.6727236 60.6970126,20.7874032 C61.6083379,20.9348484 62.3719833,21.2153998 62.9879717,21.6290656 C63.6039601,22.0427314 64.0996968,22.6222644 64.4751965,23.367682 C64.8506963,24.1130996 65.0384434,24.9322275 65.0384434,25.8250903 C65.0384434,27.3568826 64.5363782,28.6531525 63.5322327,29.7139391 C62.5280872,30.7747257 60.713902,31.305111 58.0896226,31.305111 L53.3305031,31.305111 L53.3305031,38.6281879 L50.875,38.6281879 L50.875,20.6153846 Z M213.145662,25.5793495 L213.145662,38.6281879 L207.983314,38.6281879 L207.983314,25.5793495 L213.145662,25.5793495 Z M200.10661,25.2844605 C201.552582,25.2844605 202.681438,25.7001679 203.493212,26.5315953 C204.304986,27.3630226 204.710867,28.6633882 204.710867,30.432731 L204.710867,38.6281879 L199.535834,38.6281879 L199.535834,31.1945276 C199.535834,30.6047467 199.417452,30.1665132 199.180685,29.8798141 C198.83399,29.429287 198.402741,29.2040268 197.886927,29.2040268 C197.278096,29.2040268 196.787657,29.4170001 196.415594,29.842953 C196.043531,30.2689059 195.857502,30.9528778 195.857502,31.894889 L195.857502,38.6281879 L190.68247,38.6281879 L190.68247,31.4402685 L190.676128,31.0447782 C190.663444,30.6838462 190.631734,30.4265883 190.580998,30.2729995 C190.471071,29.9453434 190.280814,29.6811746 190.010223,29.4804853 C189.739632,29.2797959 189.422537,29.1794528 189.05893,29.1794528 C188.467012,29.1794528 187.9808,29.3965217 187.600281,29.830666 C187.219762,30.2648103 187.029506,30.9774516 187.029506,31.9686113 L187.029506,38.6281879 L181.854473,38.6281879 L181.854473,25.5793495 L186.674356,25.5793495 L186.674356,27.483841 C187.367747,26.689275 188.067468,26.1240767 188.773542,25.7882292 C189.479616,25.4523817 190.331543,25.2844605 191.329349,25.2844605 C192.403258,25.2844605 193.253071,25.4687643 193.878813,25.8373774 C194.504556,26.2059905 195.016135,26.7548062 195.413566,27.483841 C196.225339,26.6319352 196.965226,26.0524022 197.633249,25.7452246 C198.301271,25.438047 199.125716,25.2844605 200.10661,25.2844605 Z M85.0875,32.0791946 C84.3241677,32.3816464 83.208544,32.6422167 81.7405997,32.860912 L81.3662736,32.9147135 C80.4296337,33.0457759 79.7672451,33.1932189 79.3790881,33.357047 C78.990931,33.520875 78.6913795,33.7604699 78.4804245,34.0758389 C78.2694696,34.3912079 78.1639937,34.7413851 78.1639937,35.126381 C78.1639937,35.716162 78.3939311,36.2076387 78.8538129,36.600826 C79.3136946,36.9940133 79.9866308,37.190604 80.8726415,37.190604 C81.750214,37.190604 82.5307356,37.0042524 83.2142296,36.6315436 C83.8977235,36.2588348 84.3997888,35.7489277 84.7204403,35.1018069 C84.965148,34.6021314 85.0875,33.8649162 85.0875,32.8901394 L85.0875,32.0791946 Z M171.123891,29.0197212 C170.523517,29.0197212 170.020394,29.261364 169.614507,29.7446567 C169.20862,30.2279494 169.005679,31.0388861 169.005679,32.177491 C169.005679,33.2423732 169.214962,34.0225926 169.633533,34.5181724 C170.052103,35.0137523 170.570024,35.2615385 171.187311,35.2615385 C171.846877,35.2615385 172.396507,35.0117044 172.836218,34.5120289 C173.275929,34.0123534 173.495781,33.1973211 173.495781,32.0669076 C173.495781,31.0429823 173.271701,30.2791455 172.823534,29.7753743 C172.375367,29.2716031 171.808825,29.0197212 171.123891,29.0197212 Z M152.808335,25.2844605 L150.766227,31.7597315 L154.863127,31.7597315 L152.808335,25.2844605 Z M135.349371,27.1029427 C134.303035,27.1029427 133.423366,27.4428808 132.710338,28.1227672 C131.99731,28.8026535 131.602831,29.7118855 131.526887,30.8504904 L139.032626,30.8504904 C138.931367,29.7528426 138.644473,28.929619 138.171934,28.380795 C137.446249,27.5288892 136.505404,27.1029427 135.349371,27.1029427 Z M58.0769654,22.7410428 L53.3305031,22.7410428 L53.3305031,29.1794528 L58.1275943,29.1794528 C59.7139754,29.1794528 60.8404579,28.892758 61.5070755,28.3193598 C62.1736931,27.7459617 62.5069969,26.9391207 62.5069969,25.8988126 C62.5069969,25.1452036 62.3108117,24.5001404 61.9184355,23.9636035 C61.5260594,23.4270667 61.0092275,23.0727938 60.3679245,22.9007744 C59.9544529,22.7942862 59.1908075,22.7410428 58.0769654,22.7410428 Z M213.145662,20.6153846 L213.145662,24.0188952 L207.983314,24.0188952 L207.983314,20.6153846 L213.145662,20.6153846 Z M113.376415,20.6153846 L113.376415,23.1588023 L111.098113,23.1588023 L111.098113,20.6153846 L113.376415,20.6153846 Z M44.4090074,5.0997921 C47.575,5.0997921 50.1415441,7.62365884 50.1415441,10.7370062 C50.1415441,13.8503536 47.575,16.3742204 44.4090074,16.3742204 C41.2430147,16.3742204 38.6764706,13.8503536 38.6764706,10.7370062 C38.6764706,7.62365884 41.2430147,5.0997921 44.4090074,5.0997921 Z M54.3106618,1 C56.0375668,1 57.4375,2.37665458 57.4375,4.07484407 C57.4375,5.77303357 56.0375668,7.14968815 54.3106618,7.14968815 C52.5837567,7.14968815 51.1838235,5.77303357 51.1838235,4.07484407 C51.1838235,2.37665458 52.5837567,1 54.3106618,1 Z" id="Shape"></path>
        </g>
    </g>
</svg>