<svg height="140" viewBox="0 0 256 140" width="256" xmlns="http://www.w3.org/2000/svg"><path d="m131.13125 5c5.76644 0 11.359551.76415336 16.690258 2.18945508l-.379561.63719371c-12.817611-2.7164574-31.189013 1.3438559-39.302634 5.17500301-20.1897649 8.5909363-34.4975353 29.42749-34.4975353 53.6664026 0 13.0784408 4.1671482 25.1643606 11.1733816 34.8731806v10.524875l6.747843-2.742009c9.8035907 9.438132 22.8482977 15.210405 37.1360067 15.210405 22.589104 0 42.071104-14.424693 50.543422-34.9570222l4.397891 2.4854483c2.460419 1.3954763 5.06858 2.8810589 7.359678 4.1883174-9.980131 23.3366205-33.078795 39.7487505-59.86875 39.7487505-35.872943 0-65.13125-29.423498-65.13125-65.5 0-36.0765025 29.258307-65.5 65.13125-65.5zm42.774054 82.5964342c-8.335099 17.3431668-24.768572 29.3005308-43.215405 29.3005308-8.869533 0-17.085869-2.764367-24.024696-7.560887-1.882559-1.512337-1.331273-2.86258.437338-3.516542 19.175595-7.6341956 39.495178-14.5082338 61.704493-20.1288956l1.628455-.4090239c2.626435-.6675363 4.634979-.2299647 3.469815 2.3148177zm-9.741802 5.4856151c-1.730895 5.348275-6.725374 11.1061747-15.404726 17.3479577l.540148-.219812.55558-.23213c6.243796-2.645541 13.772325-7.115925 17.619927-16.9327462.813689-2.7308302-2.270948-3.5860112-3.310929.0367305zm-59.92412-22.3832257c3.058958-4.2104291 9.788344.0503048 7.340857 4.1090211l-6.729386 12.1753505 6.729386 7.609594c2.871071 3.1311843-3.340985 10.4257918-7.223917 6.6610948l-8.6823434-8.7922602-.1524664 10.3492072c.1675526 2.061671-.3592555 3.410774-1.9711207 4.045869l-.1706313.063152-7.3408572 3.043838v-31.8077836l9.3293403-4.2607339-.0329006 11.1093685zm19.649712-7.6415336-.239934 28.6210167c-.051357 2.3275936-1.01992 4.0770816-3.594998 5.2476655-2.077555.8735463-4.155111 1.747891-6.231864 2.6230343l.119566-28.8589663c.023271-2.1662989 1.038376-3.6770389 3.235498-4.8891442zm29.84089-7.988876.119612 29.3356638c.013595 3.3201146-5.997594 5.0903633-7.790279 2.8617823l-.12023-.1574417c-1.602864-2.0436371-10.066132-11.1715112-10.066132-11.1715112l-.358697 12.2831464c-.180552 3.4877972-2.817419 4.6208522-8.6296 6.0820859l-.239131-31.6017738 5.272931-1.9083872c2.005334-.8392112 3.599812.2355541 4.313997 1.4316897l8.988297 9.7782884-.119566-10.97123c-.119565-2.2261856 2.076754-3.8159759 4.793866-4.7701695zm25.286957-4.4124467c6.881356 1.0229115 4.483749 8.6697362-1.262841 7.6650604l-.175158-.0331086c-7.690727-1.4756065-12.84329 2.3499512-13.182728 9.3015908.319377 7.0362794 5.113242 9.9379861 10.066796 5.8433378l.119566-3.1005303-.37489.0832202c-2.841163.6028434-4.904894.3780264-4.901225-1.9553995l.003184-.1551826s.3595-3.6970011.119566-3.8159759l13.182728-3.219505v12.9977935c-1.318433 5.0089174-5.392496 7.7118005-12.583295 8.8248933-9.188108.8743448-14.780416-4.2934719-14.620727-14.0717603 1.797499-13.9120627 9.667174-20.0340729 23.609024-18.3644338zm-88.2275052-.9214555c4.2152955-1.376594 6.9685181 6.342393 2.6665576 10.7867792 4.4228485-.4515452 4.4731082 7.9104638-.6804586 10.858178l-.179773.0994777-11.4414016 5.3929904-.018344-15.0066072c-.0118148-4.3583867-.0312391-8.1058756-.0631741-8.6475873l-.005147-.0585143zm-4.2802942 14.0334329-.2912912 6.1699195.3270634-.1243264c2.1816981-.8488843 4.3525478-2.1204905 4.3303847-5.12813.0345056-1.612148-1.919472-2.1551201-4.3661569-.9174631zm20.4545744-18.5704438c.171726-2.7963062 5.592308-3.8231622 5.677368-.9414178l-.08506 15.1521151c-.230304 4.3940815-2.867974 7.3333171-7.657024 8.3034805-3.521344.7011012-7.5396292-.7451863-7.654792-4.3388625l.0836301-14.8368355c-.0283987-3.2685512 5.4584419-3.7375549 5.5903179-1.0004169l.00199.1444374v12.4987383c-.057777 3.0246739 3.842154 2.8817445 4.215296-.685103zm19.012563 5.1366756 4.043571 4.5370109c1.978051 2.5112459-2.151382 5.9639095-4.387824 3.9381446l-5.41978-5.0512374-.25839 5.0512374c-.171726 2.5256186-1.978052 3.6954041-5.419781 4.3653358l-.25839-21.6581982 8.517256-2.6533768c5.305832-1.6265208 9.091011 5.5926124 3.183338 11.4710837zm-39.4888037 4.7086859-.2696249 5.7594965.3261554-.1252027c2.0123184-.7923513 4.0076359-1.9814758 3.987842-4.7783143.0312958-1.5051506-1.7774375-2.0113922-4.0443725-.8559795zm58.9218537-20.9970499c4.452041.6808164 2.920315 5.7605938-.783935 5.128307l-.14932-.0283619c-4.991269-.9861331-8.335901 1.5706266-8.555774 6.2162319.207836 4.7014995 3.318151 6.6410277 6.533588 3.9054066l.077035-2.0728758-.329791.0742449c-1.784855.3765509-3.075497.2123891-3.093744-1.2883465l.001868-.1401347s.232712-2.4705229.077838-2.5503718l8.555774-2.1519261v8.6867548c-.855417 3.3472632-3.500308 5.1534439-8.167386 5.8976351-5.963042.5836949-9.592545-2.8697672-9.489029-9.4045959 1.16677-9.2975985 6.274395-13.3882543 15.322876-12.2719676zm3.763513-2.1471352 12.413977-2.5248202-.000505.3762513c-.039016 3.540263-1.102024 4.3071504-6.158886 5.3243796l-.817151.1602737v3.5165427l6.432478-1.1721809.029873.466658c.155427 2.9467667-.548307 3.7213326-5.914241 4.6270347l-.276881.0461769v4.5074667l6.795991-1.6233268.024422.4856731c.093766 2.3552462-.24421 4.4076844-3.467756 5.1955716l-2.632375.5309226c-1.439252.2937459-2.761833.568157-4.239975.8683479l-2.007616.4037162zm25.542139 7.1967756 4.143074 4.9115019c2.025396 2.6837193-2.249281 5.4760331-4.543499 3.2258929l-5.559407-5.587023-.292896 4.8420334c-.190985 2.4154273-2.0591 3.3081373-5.609962 3.5037669l-.149257-20.9435511 8.7933-1.4444655c5.475952-.8743447 9.33897 6.5923199 3.218647 11.4918445zm-54.761125 10.8961721c5.36441-2.568737 4.70399-8.6468304.086665-6.4206449zm14.30135-38.7338717c10.277842 0 19.680206 3.7129708 27.231306 9.9994697 1.591268 1.4795989 1.311212 2.5942886-.265612 2.7771425-22.585093 4.5649579-45.169382 10.9145373-67.7544747 18.3213153-2.4563144.689894-1.3216432-4.1936608-.3169697-5.7850481 8.8197814-15.1624954 24.1089544-25.3128794 41.1057504-25.3128794zm34.254391 26.7174204c5.541754-1.7766366 4.894975-7.7309643.123578-6.1874863zm-56.568253-18.5520785-1.953221 1.2179836-.736967.4729828c-3.750661 2.4522459-7.559087 5.7396515-10.986853 14.6397175-.5841872 2.2261855 1.95157 2.877752 2.479586.9358284 1.373-6.5268439 5.493606-12.1010911 11.197455-17.2665123zm22.223987-5.6141716.696768.1032286.668035.1050612c10.790903 1.7476944 15.667619 5.0530694 12.055453 10.5944592 10.293088-3.0270694 6.974135-9.5906437-13.420256-10.802749z" fill="#fff"/></svg>