<?xml version="1.0" encoding="UTF-8"?>
<svg width="256px" height="64px" viewBox="0 0 256 64" version="1.1" xmlns="http://www.w3.org/2000/svg" xmlns:xlink="http://www.w3.org/1999/xlink">
    <!-- Generator: Sketch 61.2 (89653) - https://sketch.com -->
    <title>logo_grants</title>
    <desc>Created with Sketch.</desc>
    <g id="03-what-we-do-(SRC)" stroke="none" stroke-width="1" fill="none" fill-rule="evenodd">
        <g id="Group" fill="#FFFFFF">
            <path d="M37.3078641,10.2618463 C42.1232006,10.2618463 46.6977703,11.3660212 50.7306147,14.1878016 L52.7771327,11.5500504 L53.6800083,11.5500504 L54.0411585,24.1867191 L52.7771327,24.1867191 L52.5432081,23.5577893 C50.1172325,17.1860379 46.212415,11.5500504 38.7524651,11.5500504 C32.612911,11.5500504 22.7414711,17.4389833 22.7414711,32.8974324 C22.7414711,48.4791253 31.16831,52.7112382 37.1874807,52.7112382 C43.4474182,52.7112382 47.2996874,49.1538989 47.2996874,42.8969076 L47.2996874,38.3569641 C47.2996874,35.4738406 46.3968118,34.9217532 42.1232006,34.6150379 L42.1232006,33.3268338 L57.7730443,33.3268338 L57.7730443,34.6150379 C54.1931426,34.9140853 53.4170082,35.6796466 53.3804389,37.8214239 L53.3790498,48.7852829 C48.2627547,51.7303071 42.7251177,54 36.7661388,54 C26.8345072,54 16,47.6203226 16,32.8974324 C16,17.5616694 26.9548906,10.2618463 37.3078641,10.2618463 Z M228.517605,10.1589624 C231.88834,10.1589624 235.679871,11.3244804 238.20847,13.6555164 L240.013674,12.060597 L240.856358,12.060597 L240.856358,24.6364804 L239.773454,24.6364804 C238.93077,21.5693278 238.027347,17.2134134 235.921185,14.8210344 C234.175078,12.7972713 232.008177,11.4471665 229.29955,11.4471665 C223.64153,11.4471665 220.512108,15.3117788 220.512108,20.8945542 C220.512108,26.1320219 224.338461,27.4699466 228.464343,28.7361849 L228.69818,28.8078079 C235.259076,30.8315709 242,33.5925659 242,41.8125349 C242,50.5226906 235.379459,53.8971162 227.674921,53.8971162 C224.003227,53.8971162 220.451369,52.7929412 217.381592,50.7686205 L215.094307,53.0377558 L214.372007,53.0377558 L214.372007,40.2170579 L215.575841,40.2170579 C216.35888,46.7194214 219.548493,52.6089121 227.073004,52.6089121 C235.078501,52.6089121 236.763869,46.7813221 236.763869,43.7141695 C236.763869,37.5185213 231.226232,36.781847 226.711854,35.0647992 L225.756765,34.737575 C219.409071,32.5193559 215.63658,30.2066386 215.63658,22.4889159 C215.63658,15.0056212 221.414436,10.1589624 228.517605,10.1589624 Z M108.012381,9.64863881 L122.4313,47.0803214 C123.476988,49.7558596 124.28984,51.1717403 126.731573,51.7284661 L127.134305,51.6813318 C129.108557,51.4331666 130.480375,50.9617481 130.742067,48.6541128 L130.764517,48.4171688 C130.764517,48.4171688 130.764517,48.3558258 130.824709,48.2336973 L130.824709,15.6599791 L130.054794,14.8173277 C128.71877,13.3737971 127.408228,12.1536102 125.588031,12.1020821 L125.588031,10.813878 L134.556595,10.813878 L164.352037,44.1231552 L164.352037,16.0280374 C164.352037,12.8995417 162.726313,12.4701404 159.054619,12.1020821 L159.054619,10.813878 L170.928,10.813 L171.145875,9.83250066 L171.993575,10.0756009 C173.414768,10.4731948 174.87776,10.8139895 176.382553,10.8139895 L206.35857,10.8139895 C208.163774,10.8139895 209.909334,10.3232451 211.594701,9.83250066 L213.821795,21.3036514 L212.979111,21.7330528 C211.474318,19.4020168 210.270484,16.8256086 208.464733,14.6786018 L207.85045,13.9408834 C206.846105,12.7514485 206.122071,12.1021936 204.251313,12.1021936 L194.440065,12.1021936 L194.440065,48.4172804 C194.440065,51.0550316 195.644446,51.6684621 200.037894,51.8524913 L200.037894,53.1406954 L182.883257,53.1406954 L182.883257,51.8524913 L183.432213,51.824585 C187.154133,51.6085132 188.360703,50.9351338 188.360703,48.4172804 L188.360703,12.1021936 L178.489263,12.1021936 C176.26217,12.1021936 175.660253,13.0223394 174.275843,14.6786018 C172.470092,16.8256086 171.266258,19.4020168 169.400315,21.6717097 L168.617823,21.2423083 L170.607318,12.2542376 C167.118633,12.9476475 165.977213,14.0868918 165.977213,15.9666943 L165.977213,53.6318859 L165.07379,53.6318859 L132.449885,17.4389276 L132.449885,48.4171688 C132.449885,50.5033903 133.954678,51.7302513 137.987522,51.8523797 L137.987522,53.1405838 L111.684075,53.1408627 L111.684075,51.8526586 L112.461207,51.8470702 C114.288908,51.8101869 116.740178,51.5298738 116.740178,49.3994942 C116.740178,47.619988 113.369442,39.7680773 112.587497,37.0689831 L98.2011324,37.0689831 L98.1017437,37.4069344 C97.2890539,40.0218145 94.1080963,47.6924843 94.1080963,49.2149073 C94.1080963,51.6072864 97.2982568,51.6072864 98.9836245,51.8526586 L98.9836245,53.1408627 L85.0400516,53.1405838 L83.7874411,50.9606612 C81.1217589,46.3516167 77.1655601,39.7605817 74.085161,36.5166168 C72.2192181,34.492296 69.5105913,34.1242377 66.9223479,34.0015516 L66.9223479,48.4171688 C66.9223479,51.5462222 68.3669488,51.8523797 72.0386429,51.8523797 L72.0386429,53.1405838 L56.3887992,53.1405838 L56.3887992,51.8523797 L57.063657,51.8470544 C59.9283317,51.7959197 61.0104152,51.3279161 60.8424383,48.4171688 L60.8424383,15.537293 C60.8424383,12.4087973 59.3983846,12.1020821 56.6295661,12.1020821 L56.6295661,10.813878 C61.986628,10.813878 67.524265,10.5685058 73.0613548,10.5685058 C80.2849067,10.5685058 88.4107871,13.3902861 88.4107871,22.1009995 C88.4107871,28.54202 84.5585179,31.4251434 78.9606892,33.326778 C82.7527667,37.4367625 86.8458028,43.3256955 89.253471,48.4171688 C89.6709108,49.3155022 90.2134438,50.031547 90.8810702,50.5724159 C91.3436193,50.1111919 91.709371,49.5460892 91.9411949,48.9081921 L104.220303,16.2736884 L103.136852,14.4333969 C105.123179,13.2678789 106.56778,11.4275873 108.012381,9.64863881 Z M105.123179,18.0526369 L98.8632411,35.4127206 L111.924841,35.4127206 L105.123179,18.0526369 Z M71.4969176,11.8567098 L71.0481809,11.8606665 C68.2804233,11.912532 66.9223479,12.5069462 66.9223479,15.537293 L66.9223479,32.7133475 C68.7280991,32.7133475 70.5338503,32.5906614 72.3396015,32.4679753 C78.5393473,31.9772309 81.8498911,28.2966478 81.8498911,22.0396565 C81.8498911,15.7213221 77.8170468,11.8567098 71.4969176,11.8567098 Z M215.145574,3 C218.155707,3 219.57842,6.06771026 219.57842,8.74449799 C219.57842,12.7039132 216.842433,15.5485578 213.777581,17.611915 L213.230384,16.5523532 C214.817256,15.3807009 217.225471,13.094278 217.225471,10.9751544 C217.225471,10.2501911 217.006045,9.74829338 216.349408,9.3021621 C214.324778,8.35413311 212.135989,8.74449799 212.135989,5.84464462 C212.135989,4.17109463 213.558702,3 215.145574,3 Z" id="Shape"></path>
        </g>
    </g>
</svg>