<?xml version="1.0" encoding="UTF-8"?>
<svg width="256px" height="60px" viewBox="0 0 256 60" version="1.1" xmlns="http://www.w3.org/2000/svg" xmlns:xlink="http://www.w3.org/1999/xlink">
    <!-- Generator: Sketch 61.2 (89653) - https://sketch.com -->
    <title>logo_openedge</title>
    <desc>Created with Sketch.</desc>
    <g id="03-what-we-do-(SRC)" stroke="none" stroke-width="1" fill="none" fill-rule="evenodd">
        <g id="Group" fill="#FFFFFF" fill-rule="nonzero">
            <path d="M157.546293,45.05 L157.546293,46.0069444 L157.251199,46.0069444 C157.029878,46.0069444 156.882331,46.0805556 156.661011,46.1541667 C156.882331,46.4486111 156.956105,46.7430556 156.956105,47.1111111 C156.956105,47.6509259 156.832124,48.0670332 156.470515,48.4161322 L156.365917,48.5097222 C155.997049,48.8777778 155.406861,49.025 154.742899,49.025 C154.521579,49.025 154.226485,48.9513889 154.005164,48.9513889 C153.783844,49.0986111 153.636297,49.2458333 153.636297,49.3930556 C153.636297,49.5402778 153.71007,49.6138889 153.857617,49.6875 C154.005164,49.7611111 154.521579,49.8347222 155.333087,49.8347222 L155.720412,49.8757586 C156.27812,49.9399679 156.728078,50.022096 157.029878,50.2027778 C157.398746,50.4236111 157.546293,50.7916667 157.546293,51.3069444 C157.546293,52.4111111 156.587237,53 154.742899,53 C152.972335,53 152.087053,52.5583333 152.087053,51.6013889 C152.087053,51.0125 152.382147,50.6444444 153.046108,50.4972222 C152.603467,50.2763889 152.382147,49.9819444 152.382147,49.6138889 C152.382147,49.1722222 152.677241,48.8777778 153.119882,48.7305556 C152.603467,48.3625 152.308373,47.8472222 152.308373,47.1847222 C152.308373,46.6449074 152.494344,46.1669464 152.809461,45.8642377 L152.898561,45.7861111 C153.267429,45.4180556 153.857617,45.2708333 154.595352,45.2708333 C155.259314,45.2708333 155.775729,45.4180556 156.144596,45.6388889 C156.538055,45.3117284 156.931514,45.1590535 157.273159,45.0774653 L157.398746,45.05 L157.546293,45.05 Z M194.506824,45.4180556 L196.129841,49.7611111 L197.752859,45.4180556 L198.564367,45.4180556 L196.351162,51.0861111 C196.129841,51.7486111 195.908521,52.1902778 195.760974,52.3375 C195.613427,52.5583333 195.392106,52.6319444 195.170786,52.7791667 C194.97713,52.9079861 194.670509,52.9240885 194.39919,52.9261013 L194.140968,52.924672 C194.005465,52.9203798 193.832323,52.9053571 193.621542,52.8527778 L193.842862,52.1902778 C193.990409,52.2638889 194.137956,52.2638889 194.359277,52.2638889 C194.654371,52.2638889 194.949465,52.1902778 195.170786,52.1166667 C195.318333,51.9694444 195.539653,51.5277778 195.760974,50.7916667 L193.695315,45.4180556 L194.506824,45.4180556 Z M183.29325,45.4180556 L183.29325,46.2277778 C183.883438,45.7125 184.547399,45.4180556 185.137588,45.4180556 C185.801549,45.4180556 186.317964,45.6388889 186.760605,46.1541667 C187.203246,46.6694444 187.424567,47.3319444 187.424567,48.1416667 C187.424567,48.9513889 187.203246,49.6138889 186.760605,50.1291667 C186.317964,50.6444444 185.801549,50.8652778 185.137588,50.8652778 C184.473626,50.8652778 183.883438,50.5708333 183.29325,50.0555556 L183.29325,52.7791667 L182.555515,52.7791667 L182.555515,45.4180556 L183.29325,45.4180556 Z M153.857617,50.7916667 C153.48875,50.9388889 153.341203,51.0861111 153.341203,51.3805556 C153.341203,51.8222222 153.857617,52.0430556 154.890446,52.0430556 C155.775729,52.0430556 156.292143,51.8222222 156.365917,51.4541667 C156.365917,51.3069444 156.292143,51.1597222 156.144596,51.0861111 C156.02164,51.0247685 155.847453,50.9634259 155.664727,50.9446824 L155.554408,50.9388889 L153.857617,50.7916667 Z M25,34.4875 C28.2460347,38.0208333 32.5986721,39.7875 38.0579122,39.7875 C41.3777204,39.7875 44.328661,39.125 46.8369605,37.8 C46.5418665,39.3458333 46.3943194,40.8916667 46.3943194,42.5847222 C46.3943194,48.3263889 47.7960162,52.8902778 50.7469568,56.2027778 C50.9928686,56.5094907 51.2387803,56.8162037 51.527385,57.0803176 L51.7060125,57.2333333 L33.7052748,57.2333333 C25.4814281,57.2333333 25.0266244,50.5981979 25.0014724,49.8643117 L25,34.4875 Z M222.024345,43.5777778 L222.024345,45.4916667 L223.352269,45.4916667 L223.352269,46.1541667 L222.024345,46.1541667 L222.024345,49.4666667 C222.024345,50.0555556 222.319439,50.35 222.835854,50.35 L222.931781,50.3482831 C223.036096,50.3439909 223.194182,50.3289683 223.352269,50.2763889 L223.352269,50.9388889 C223.057174,50.9388889 222.835854,51.0125 222.688307,51.0125 C222.171892,51.0125 221.803025,50.9388889 221.581704,50.7180556 C221.360384,50.4972222 221.28661,50.1291667 221.28661,49.6875 L221.28661,46.2277778 L220.327554,46.2277778 L220.327554,45.5652778 L221.28661,45.5652778 L221.28661,43.5777778 L222.024345,43.5777778 Z M105.535965,43.3569444 L105.535965,49.2458333 C105.535965,49.9819444 105.609738,50.5708333 105.757285,50.9388889 L105.01955,50.9388889 C104.872003,50.5708333 104.872003,50.2763889 104.872003,50.0555556 C104.208041,50.6444444 103.617853,50.9388889 102.953892,50.9388889 C102.28993,50.9388889 101.773515,50.7180556 101.330874,50.2027778 C100.888233,49.6875 100.666913,49.025 100.666913,48.2152778 C100.666913,47.4055556 100.888233,46.7430556 101.330874,46.2277778 C101.773515,45.7125 102.28993,45.4180556 102.953892,45.4180556 C103.54408,45.4180556 104.208041,45.7125 104.798229,46.2277778 L104.798229,43.3569444 L105.535965,43.3569444 Z M190.744375,45.3444444 C191.260789,45.3444444 191.70343,45.4916667 192.072298,45.7861111 C192.441166,46.0805556 192.588713,46.5958333 192.588713,47.2583333 L192.588713,49.5402778 C192.588713,49.9819444 192.662486,50.4236111 192.73626,50.7916667 L191.998525,50.7916667 C191.998525,50.4972222 191.924751,50.2027778 191.924751,49.9083333 C191.260789,50.5708333 190.596828,50.9388889 189.859093,50.9388889 C189.416451,50.9388889 189.047584,50.7916667 188.75249,50.4972222 C188.457396,50.2027778 188.309849,49.9083333 188.309849,49.4666667 C188.309849,49.025 188.457396,48.6569444 188.826263,48.2888889 C189.195131,47.9208333 190.22796,47.6263889 191.850977,47.2583333 L191.850977,47.1111111 C191.850977,46.6694444 191.777204,46.375 191.555883,46.2277778 C191.334563,46.0069444 191.113242,45.9333333 190.818148,45.9333333 C190.154187,45.9333333 189.563999,46.2277778 188.97381,46.8166667 L188.457396,46.375 C189.121357,45.7125 189.859093,45.3444444 190.744375,45.3444444 Z M211.253412,45.4180556 C211.8436,45.4180556 212.360015,45.6388889 212.802656,46.0805556 C213.245297,46.5222222 213.466617,47.2583333 213.540391,48.2152778 L209.777942,48.2152778 C209.777942,48.8777778 209.999262,49.3930556 210.220583,49.7611111 C210.515677,50.1291667 210.884544,50.35 211.253412,50.35 C211.8436,50.2763889 212.433788,49.9083333 212.876429,49.1722222 L213.466617,49.6138889 C212.802656,50.4972222 212.064921,50.9388889 211.253412,50.9388889 C210.58945,50.9388889 210.073036,50.7180556 209.630395,50.2027778 C209.187754,49.6875 208.966433,49.025 208.966433,48.1416667 C208.966433,47.3319444 209.187754,46.6694444 209.630395,46.1541667 C210.073036,45.6388889 210.58945,45.4180556 211.253412,45.4180556 Z M142.496496,45.3444444 C143.160457,45.3444444 143.750646,45.6388889 144.193287,46.1541667 C144.635928,46.6694444 144.857248,47.3319444 144.857248,48.2152778 C144.857248,49.025 144.635928,49.6875 144.193287,50.2027778 C143.750646,50.7180556 143.160457,50.9388889 142.570269,50.9388889 C141.832534,50.9388889 141.242346,50.7180556 140.799705,50.1291667 C140.28329,49.6138889 140.06197,48.9513889 140.06197,48.1416667 C140.06197,47.3319444 140.28329,46.5958333 140.725931,46.0805556 C141.168572,45.5652778 141.758761,45.3444444 142.496496,45.3444444 Z M168.759867,43.0625 L168.759867,46.0069444 C169.202508,45.4916667 169.718923,45.2708333 170.235338,45.2708333 C170.783369,45.2708333 171.26779,45.5247166 171.629533,46.032483 L171.710808,46.1541667 C172.079675,46.6694444 172.300996,47.3319444 172.300996,48.1416667 C172.300996,49.025 172.079675,49.6875 171.710808,50.2027778 C171.34194,50.6444444 170.825526,50.9388889 170.235338,50.9388889 C169.761957,50.9388889 169.350568,50.6914738 168.887519,50.3100421 L168.759867,50.2027778 L168.759867,50.7916667 L167.35817,50.7916667 L167.35817,43.0625 L168.759867,43.0625 Z M127.225378,45.3444444 C127.88934,45.3444444 128.479528,45.6388889 128.922169,46.1541667 C129.36481,46.6694444 129.586131,47.3319444 129.586131,48.2152778 C129.586131,49.025 129.36481,49.6875 128.922169,50.2027778 C128.479528,50.7180556 127.88934,50.9388889 127.299152,50.9388889 C126.561416,50.9388889 125.971228,50.7180556 125.528587,50.1291667 C125.012173,49.6138889 124.790852,48.9513889 124.790852,48.1416667 C124.790852,47.3319444 125.012173,46.5958333 125.454814,46.0805556 C125.897455,45.5652778 126.487643,45.3444444 127.225378,45.3444444 Z M118.888971,45.1972222 C119.70048,45.1972222 120.364441,45.4916667 120.807082,46.0069444 L120.216894,46.5222222 C119.848027,46.0805556 119.331612,45.8597222 118.815197,45.8597222 C118.44633,45.8597222 118.225009,45.9333333 118.003689,46.0805556 C117.782368,46.2277778 117.708595,46.375 117.708595,46.6694444 C117.708595,47.1111111 118.077462,47.4055556 118.888971,47.5527778 C120.290668,47.8472222 120.954629,48.4361111 120.954629,49.3194444 C120.954629,49.7611111 120.807082,50.1291667 120.438215,50.4236111 C120.069347,50.7180556 119.626706,50.8652778 119.036518,50.8652778 C118.520103,50.9388889 117.782368,50.5708333 116.970859,49.9083333 L117.561048,49.4666667 C118.151236,50.0555556 118.66765,50.2763889 119.257838,50.2763889 C119.626706,50.2763889 119.9218,50.2027778 120.069347,49.9819444 C120.290668,49.8347222 120.364441,49.6138889 120.364441,49.3194444 C120.364441,48.8041667 119.848027,48.4361111 118.815197,48.2152778 C117.634821,47.9944444 117.044633,47.4791667 117.044633,46.6694444 C117.044633,46.2277778 117.19218,45.9333333 117.561048,45.6388889 C117.929915,45.3444444 118.372556,45.1972222 118.888971,45.1972222 Z M225.786795,45.1972222 C226.598303,45.1972222 227.262265,45.4916667 227.704906,46.0069444 L227.188491,46.5222222 C226.819624,46.0805556 226.303209,45.8597222 225.786795,45.8597222 C225.417927,45.8597222 225.196606,45.9333333 224.975286,46.0805556 C224.753965,46.2277778 224.680192,46.375 224.680192,46.6694444 C224.680192,47.1111111 225.049059,47.4055556 225.860568,47.5527778 C227.262265,47.8472222 227.926226,48.4361111 227.926226,49.3194444 C227.926226,49.7611111 227.778679,50.1291667 227.409812,50.4236111 C227.040944,50.7180556 226.598303,50.8652778 226.008115,50.8652778 C225.417927,50.9388889 224.680192,50.5708333 223.868683,49.9083333 L224.458871,49.4666667 C225.049059,50.0555556 225.565474,50.2763889 226.155662,50.2763889 C226.52453,50.2763889 226.819624,50.2027778 226.967171,49.9819444 C227.188491,49.8347222 227.262265,49.6138889 227.262265,49.3194444 C227.262265,48.8041667 226.74585,48.4361111 225.713021,48.2152778 C224.532645,47.9944444 223.942457,47.4791667 223.942457,46.6694444 C223.942457,46.2277778 224.090004,45.9333333 224.458871,45.6388889 C224.827739,45.3444444 225.27038,45.1972222 225.786795,45.1972222 Z M163.448174,45.2708333 C164.259683,45.2708333 164.923644,45.5652778 165.292512,46.0069444 C165.735153,46.5222222 165.956474,47.1847222 165.956474,48.0680556 C165.956474,48.9513889 165.735153,49.6138889 165.292512,50.1291667 C164.849871,50.5708333 164.259683,50.8652778 163.521948,50.8652778 C162.784212,50.8652778 162.194024,50.6444444 161.751383,50.1291667 C161.308742,49.6138889 161.087422,48.9513889 161.087422,48.0680556 C161.087422,47.1847222 161.308742,46.5222222 161.751383,46.0069444 C162.194024,45.4916667 162.784212,45.2708333 163.448174,45.2708333 Z M133.864994,45.2708333 C134.307636,45.2708333 134.676503,45.4180556 134.971597,45.7125 C135.266691,46.0069444 135.414238,46.4486111 135.414238,46.9638889 L135.414238,50.7916667 L134.676503,50.7916667 L134.676503,47.2583333 C134.676503,46.4486111 134.381409,46.0069444 133.791221,46.0069444 C133.201033,46.0069444 132.537071,46.2277778 131.799336,46.6694444 L131.799336,50.7916667 L131.061601,50.7916667 L131.061601,45.4180556 L131.799336,45.4180556 L131.799336,46.0069444 C132.610845,45.4916667 133.274806,45.2708333 133.864994,45.2708333 Z M159.833272,43.0625 L159.833272,50.7916667 L158.431575,50.7916667 L158.431575,43.0625 L159.833272,43.0625 Z M108.191811,45.4180556 L108.191811,50.7916667 L107.454076,50.7916667 L107.454076,45.4180556 L108.191811,45.4180556 Z M94.3961638,43.2833333 L96.8306898,50.7916667 L96.0191811,50.7916667 L95.281446,48.4361111 L92.2567318,48.4361111 L91.4452232,50.7916667 L90.707488,50.7916667 L93.2157875,43.2833333 L94.3961638,43.2833333 Z M175.547031,45.2708333 C176.210992,45.2708333 176.80118,45.4180556 177.170048,45.7861111 C177.505382,46.1207071 177.718777,46.5161387 177.754804,47.027711 L177.760236,47.1847222 L177.760236,49.6875 C177.760236,50.0095486 177.816719,50.3315972 177.929685,50.5550184 L177.981557,50.6444444 L176.57986,50.6444444 L176.536186,50.5484556 C176.479528,50.4118333 176.432313,50.2469444 176.432313,50.1291667 C175.915898,50.5708333 175.399484,50.7916667 174.809295,50.7916667 C174.415837,50.7916667 174.022378,50.6753429 173.732546,50.4426955 L173.628919,50.35 C173.260052,50.0555556 173.112505,49.6875 173.112505,49.2458333 C173.112505,48.7305556 173.333825,48.2152778 173.85024,47.8472222 C174.332227,47.5037037 175.071273,47.2884321 176.12736,47.1415588 L176.358539,47.1111111 L176.358539,46.9638889 C176.358539,46.7430556 176.284766,46.5222222 176.137219,46.375 C176.01075,46.2488095 175.83008,46.1767007 175.595209,46.1586735 L175.473257,46.1541667 L175.36264,46.1602157 C174.997883,46.1998584 174.637311,46.431557 174.322349,46.7726441 L174.219107,46.8902778 L173.333825,46.2277778 L173.440059,46.1129881 C173.949588,45.5914506 174.651912,45.2708333 175.547031,45.2708333 Z M148.545924,43.2833333 L148.545924,43.9458333 L148.177056,43.9458333 C147.586868,43.9458333 147.365548,44.1666667 147.365548,44.6819444 L147.365548,45.4916667 L148.47215,45.4916667 L148.47215,46.1541667 L147.365548,46.1541667 L147.365548,50.7916667 L146.627813,50.7916667 L146.627813,46.0805556 L145.594983,46.0805556 L145.594983,45.4916667 L146.627813,45.4916667 L146.627813,44.6819444 C146.627813,44.2402778 146.77536,43.9458333 147.070454,43.6513889 C147.365548,43.4305556 147.734415,43.2833333 148.177056,43.2833333 L148.545924,43.2833333 Z M115.71671,45.4180556 L115.71671,50.7916667 L114.978975,50.7916667 L114.978975,45.4180556 L115.71671,45.4180556 Z M206.163039,45.2708333 C206.531907,45.2708333 206.900775,45.4180556 207.122095,45.6388889 C207.343416,45.9333333 207.490963,46.3013889 207.490963,46.7430556 L207.490963,50.7916667 L206.753228,50.7916667 L206.753228,47.0375 C206.753228,46.7430556 206.679454,46.5222222 206.531907,46.3013889 C206.38436,46.0805556 206.163039,46.0069444 205.941719,46.0069444 C205.499078,46.0069444 204.90889,46.3013889 204.023608,46.9638889 L204.023608,50.7916667 L203.285872,50.7916667 L203.285872,47.0375 C203.285872,46.7430556 203.212099,46.5222222 203.064552,46.3013889 C202.917005,46.0805556 202.695684,46.0069444 202.474364,46.0069444 C202.031723,46.0069444 201.367761,46.3013889 200.482479,46.9638889 L200.482479,50.7916667 L199.744744,50.7916667 L199.744744,45.4180556 L200.482479,45.4180556 L200.482479,46.2277778 L200.82858,45.9964491 C201.605219,45.4962674 202.170048,45.2708333 202.621911,45.2708333 C203.285872,45.2708333 203.728513,45.5652778 203.949834,46.2277778 L204.263713,46.0246656 C204.757244,45.7145448 205.105619,45.5407407 205.351531,45.4180556 L205.643893,45.3471708 C205.835157,45.3035494 206.015492,45.2708333 206.163039,45.2708333 Z M123.315382,45.4180556 L123.315382,50.7916667 L122.577647,50.7916667 L122.577647,45.4180556 L123.315382,45.4180556 Z M180.78495,43.0625 L180.78495,50.7916667 L179.383253,50.7916667 L179.383253,43.0625 L180.78495,43.0625 Z M110.183696,45.4180556 L111.585393,49.7611111 L113.060863,45.4180556 L113.872372,45.4180556 L111.95426,50.7916667 L111.290299,50.7916667 L109.372187,45.4180556 L110.183696,45.4180556 Z M217.745481,45.2708333 C218.188122,45.2708333 218.55699,45.4180556 218.852084,45.7125 C219.147178,46.0069444 219.294725,46.4486111 219.294725,46.9638889 L219.294725,50.7916667 L218.55699,50.7916667 L218.55699,47.2583333 C218.55699,46.4486111 218.261896,46.0069444 217.671708,46.0069444 C217.007746,46.0069444 216.417558,46.2277778 215.679823,46.6694444 L215.679823,50.7916667 L214.942088,50.7916667 L214.942088,45.4180556 L215.679823,45.4180556 L215.679823,46.0069444 C216.491332,45.4916667 217.155293,45.2708333 217.745481,45.2708333 Z M103.027665,46.0069444 C102.51125,46.0069444 102.142383,46.2277778 101.847289,46.5958333 C101.552195,46.9638889 101.404648,47.4791667 101.404648,48.1416667 C101.404648,48.8041667 101.552195,49.3930556 101.847289,49.7611111 C102.142383,50.1291667 102.51125,50.35 103.027665,50.35 C103.617853,50.2763889 104.208041,49.9819444 104.798229,49.4666667 L104.798229,46.8166667 C104.208041,46.3013889 103.617853,46.0069444 103.027665,46.0069444 Z M183.29325,46.8166667 L183.29325,49.5402778 C183.883438,50.0555556 184.473626,50.35 185.063814,50.35 C185.506455,50.35 185.875323,50.1291667 186.170417,49.7611111 C186.465511,49.3930556 186.613058,48.8777778 186.613058,48.2152778 C186.613058,47.5527778 186.465511,47.0375 186.170417,46.6694444 C185.875323,46.3013889 185.506455,46.0805556 184.990041,46.0805556 C184.473626,46.0069444 183.957211,46.3013889 183.29325,46.8166667 Z M142.496496,46.0069444 C141.980081,46.0069444 141.53744,46.2277778 141.242346,46.5958333 C140.947252,46.9638889 140.799705,47.4791667 140.799705,48.1416667 C140.799705,48.8041667 140.947252,49.3194444 141.242346,49.6875 C141.53744,50.0555556 141.980081,50.2763889 142.422722,50.2763889 C142.865363,50.2763889 143.308004,50.0555556 143.603098,49.6875 C143.898193,49.3194444 144.119513,48.8041667 144.119513,48.1416667 C144.119513,47.4791667 143.971966,46.9638889 143.676872,46.5958333 C143.381778,46.2277778 143.01291,46.0069444 142.496496,46.0069444 Z M127.225378,46.0069444 C126.708963,46.0069444 126.266322,46.2277778 125.971228,46.5958333 C125.676134,46.9638889 125.528587,47.4791667 125.528587,48.1416667 C125.528587,48.8041667 125.676134,49.3194444 125.971228,49.6875 C126.266322,50.0555556 126.708963,50.2763889 127.151605,50.2763889 C127.594246,50.2763889 128.036887,50.0555556 128.331981,49.6875 C128.700848,49.3194444 128.848395,48.8041667 128.848395,48.1416667 C128.848395,47.4791667 128.700848,46.9638889 128.405754,46.5958333 C128.11066,46.2277778 127.741793,46.0069444 127.225378,46.0069444 Z M191.924751,47.7736111 L191.302549,47.9234254 L190.934898,48.0180575 C190.237916,48.2043253 189.7723,48.3754902 189.563999,48.5833333 C189.268904,48.8041667 189.047584,49.0986111 189.047584,49.4666667 C189.047584,49.6875 189.121357,49.9083333 189.342678,50.0555556 C189.490225,50.2027778 189.785319,50.2763889 190.00664,50.2763889 C190.596828,50.2763889 191.187016,50.0555556 191.924751,49.4666667 L191.924751,47.7736111 Z M176.358539,48.0680556 L176.049588,48.1319883 C175.06354,48.3576331 174.520908,48.7104798 174.587975,49.2458333 C174.587975,49.4666667 174.587975,49.6138889 174.735522,49.7611111 C174.809295,49.9083333 174.956842,49.9819444 175.178163,49.9819444 C175.44643,49.9819444 175.836637,49.7994376 176.23793,49.4897289 L176.358539,49.3930556 L176.358539,48.0680556 Z M163.595721,46.3013889 C162.857986,46.3013889 162.489118,46.8902778 162.489118,48.1416667 C162.489118,49.3194444 162.857986,49.9083333 163.595721,49.9083333 C164.333456,49.9083333 164.702324,49.2458333 164.702324,47.9944444 C164.702324,47.4791667 164.62855,47.0375 164.40723,46.7430556 C164.185909,46.4486111 163.964589,46.3013889 163.595721,46.3013889 Z M169.792696,46.4486111 C169.460716,46.4486111 169.128735,46.5678611 168.850535,46.8600236 L168.759867,46.9638889 L168.833641,46.9638889 L168.833641,49.3194444 C169.128735,49.6138889 169.423829,49.8347222 169.792696,49.8347222 C170.161564,49.8347222 170.382885,49.6875 170.604205,49.3930556 C170.825526,49.025 170.899299,48.6569444 170.899299,48.0680556 C170.899299,47.5527778 170.825526,47.1847222 170.604205,46.8902778 C170.382885,46.5958333 170.161564,46.4486111 169.792696,46.4486111 Z M75.7561785,43.6152778 C75.6086315,46.9277778 74.5758023,49.5777778 72.6576909,51.7125 C70.5182589,54.0680556 67.6410918,55.2458333 63.9524161,55.2458333 C60.2637403,55.2458333 57.3865732,54.0680556 55.2471413,51.7125 C53.4686726,49.6540179 52.4447828,47.1164063 52.1754718,43.9676601 L52.1486536,43.6152778 L75.7561785,43.6152778 Z M154.595352,46.1541667 C154.300258,46.1541667 154.078938,46.2277778 153.857617,46.4486111 C153.636297,46.6694444 153.562523,46.8902778 153.562523,47.1847222 C153.562523,47.4791667 153.636297,47.7 153.857617,47.9208333 C154.078938,48.1416667 154.300258,48.2152778 154.595352,48.2152778 C154.890446,48.2152778 155.111767,48.1416667 155.333087,47.9208333 C155.554408,47.7 155.628181,47.4791667 155.628181,47.1847222 C155.628181,46.8902778 155.554408,46.6694444 155.333087,46.4486111 C155.111767,46.2277778 154.890446,46.1541667 154.595352,46.1541667 Z M93.8059757,43.7986111 L92.4780524,47.7736111 L95.0601254,47.7736111 L93.8059757,43.7986111 Z M211.179639,45.9333333 C210.736997,45.9333333 210.441903,46.0805556 210.146809,46.4486111 C209.925489,46.7430556 209.777942,47.1111111 209.704168,47.5527778 L212.728882,47.5527778 C212.655109,47.0375 212.507562,46.6694444 212.212468,46.375 C211.917374,46.0805556 211.62228,45.9333333 211.179639,45.9333333 Z M123.315382,43.3569444 L123.315382,44.2402778 L122.577647,44.2402778 L122.577647,43.3569444 L123.315382,43.3569444 Z M115.71671,43.3569444 L115.71671,44.2402778 L114.978975,44.2402778 L114.978975,43.3569444 L115.71671,43.3569444 Z M108.191811,43.3569444 L108.191811,44.2402778 L107.454076,44.2402778 L107.454076,43.3569444 L108.191811,43.3569444 Z M118.888971,16.1208333 C122.946514,16.1208333 125.454814,19.1388889 125.454814,23.9236111 C125.454814,28.3402778 123.167835,32.3152778 118.593877,32.3152778 C115.790483,32.3152778 114.610107,30.8430556 114.241239,30.3277778 L114.241239,38.1305556 L109.519734,38.1305556 L109.519734,16.4888889 L113.946145,16.4888889 L114.093692,18.6972222 C115.495389,16.1944444 118.151236,16.1208333 118.888971,16.1208333 Z M203.064552,16.0472222 C205.351531,16.0472222 206.974548,17.1513889 208.228698,18.9180556 L208.302471,18.7708333 L208.450018,16.5625 L210.36813,16.5625 C210.294356,17.5930556 210.220583,18.8444444 210.220583,20.0958333 L210.220583,30.5415542 C210.205267,33.2910707 209.960206,36.0304739 206.900775,37.3944444 C205.646625,37.9833333 204.835116,38.1305556 203.359646,38.1305556 L203.039973,38.1263963 C200.304965,38.0550839 197.162671,37.0513889 197.162671,33.9347222 L199.154556,33.9347222 C199.375876,35.775 201.589082,36.4375 203.580966,36.4375 C206.015492,36.4375 208.228698,34.7444444 208.302471,32.0944444 L208.302471,29.15 L208.228698,29.15 C207.343416,30.9902778 205.203984,32.0944444 203.138325,32.0944444 C198.41682,32.0944444 196.424935,28.4875 196.424935,24.2180556 C196.424935,20.0222222 198.343047,16.0472222 203.064552,16.0472222 Z M98.8225747,16.1208333 C104.503135,16.1208333 107.011435,19.9486111 107.011435,24.3652778 C107.011435,28.7819444 104.429362,32.7569444 98.7488012,32.7569444 C94.2486167,32.7569444 90.707488,29.9597222 90.707488,24.5125 C90.707488,20.6847222 92.6255994,16.1208333 98.8225747,16.1208333 Z M134.82405,15.8263889 C137.037256,15.8263889 139.766876,16.7097222 141.168572,19.5805556 C142.201402,21.7152778 142.201402,23.9972222 142.127628,25.3222222 L131.578015,25.3222222 L131.578701,25.6768546 L131.58672,26.0132562 C131.640192,27.3242383 132.022132,29.6652778 134.750277,29.6652778 C135.930653,29.6652778 137.037256,29.2236111 137.479897,27.4569444 L141.684987,27.4569444 L141.653457,27.7463668 C141.559867,28.5110556 141.313169,29.6770556 140.209517,30.8430556 C139.029141,32.0208333 137.037256,32.6833333 134.676503,32.6833333 L134.394852,32.6799963 C133.008566,32.6470185 130.658306,32.3447222 129.143489,30.6958333 C127.741793,29.2236111 127.151605,27.0888889 127.151605,24.5861111 C127.151605,22.0097222 127.741793,18.9916667 130.397639,17.1513889 C131.578015,16.3416667 133.127259,15.8263889 134.82405,15.8263889 Z M192.95758,9.71666667 L192.95758,28.6347222 C192.95758,29.8125 193.031354,31.0638889 193.105127,32.1680556 L191.187016,32.1680556 L191.113242,29.8861111 L191.039469,29.7388889 C189.785319,31.5791667 187.867208,32.6097222 185.654002,32.6097222 C181.081234,32.6097222 179.29357,28.3343797 179.237093,24.480825 L179.235706,24.2916667 C179.235706,20.2430556 181.006271,16.1208333 185.654002,16.1208333 C187.719661,16.1208333 189.932866,17.1513889 191.039469,18.9180556 L191.113242,18.8444444 L191.113242,9.71666667 L192.95758,9.71666667 Z M169.792696,16.1208333 C175.030616,16.1208333 176.948727,19.9486111 176.948727,24.8069444 L164.849871,24.8069444 C164.923644,28.1194444 166.472888,30.9166667 170.235338,30.9166667 C172.448543,30.9166667 174.292881,29.2972222 174.735522,27.1625 L176.727407,27.1625 C175.768351,30.9166667 173.407599,32.6097222 169.645149,32.6097222 C164.997418,32.6097222 162.784212,28.6347222 162.784212,24.3652778 C162.784212,20.1694444 165.144965,16.1208333 169.792696,16.1208333 Z M220.843969,16.1208333 C226.081889,16.1208333 228,19.9486111 228,24.8069444 L215.901143,24.8069444 C215.974917,28.1194444 217.524161,30.9166667 221.28661,30.9166667 C223.499816,30.9166667 225.344153,29.2972222 225.786795,27.1625 L227.778679,27.1625 C226.819624,30.9166667 224.458871,32.6097222 220.696422,32.6097222 C216.048691,32.6097222 213.835485,28.6347222 213.835485,24.3652778 C213.835485,20.1694444 216.196238,16.1208333 220.843969,16.1208333 Z M154.742899,16.0472222 C157.68249,16.0472222 159.028457,17.7035932 159.473753,18.8163348 L159.603997,19.1700993 C159.905902,20.0295696 159.976369,20.8853689 159.980609,23.4409183 L159.980819,32.1680556 L155.259314,32.1680556 L155.259314,22.3777778 C155.259314,21.7152778 155.259314,21.2 155.037993,20.6847222 C154.669126,20.0222222 154.005164,19.3597222 152.824788,19.3597222 C151.791959,19.3597222 150.906677,19.8013889 150.464035,20.5375 C150.168941,20.9055556 149.873847,21.7152778 149.873847,22.8930556 L149.873847,32.0944444 L145.226116,32.0944444 L145.226116,19.2861111 L145.152342,19.2861111 L145.144845,18.3494506 C145.136276,17.7605617 145.117915,17.0041667 145.078569,16.4152778 L149.50498,16.4152778 L149.652527,18.7708333 L149.802225,18.5292623 C150.353459,17.674178 151.672516,16.0472222 154.742899,16.0472222 Z M63.9524161,29.7027778 C67.6790325,29.7027778 70.5006135,30.7447506 72.4847881,33.0311366 L72.6576909,33.2361111 C73.6216648,34.3353704 74.392844,35.5628765 74.9112477,37.0383267 L75.0184434,37.3583333 L52.8863888,37.3583333 C53.4028034,35.8125 54.2143121,34.4138889 55.2471413,33.2361111 C57.3127997,30.8805556 60.1899668,29.7027778 63.9524161,29.7027778 Z M185.949096,17.8138889 C182.473544,17.8138889 181.272119,21.0048397 181.228813,23.9068978 L181.227591,24.0708333 C181.227591,26.9416667 182.0391,30.9166667 185.654002,30.9166667 C189.640361,30.9166667 190.920827,27.6483243 190.964529,24.1830337 L190.965695,23.9972222 C191.039469,20.8319444 189.637772,17.8138889 185.949096,17.8138889 Z M203.285872,17.8138889 C199.892291,17.8138889 198.490594,21.2 198.490594,24.0708333 C198.490594,26.9416667 199.966064,30.4013889 203.359646,30.4013889 C206.974548,30.4013889 208.302471,27.0888889 208.302471,23.9972222 C208.302471,21.0527778 206.679454,17.8138889 203.285872,17.8138889 Z M98.8225747,19.1388889 C95.428993,19.1388889 95.428993,23.0402778 95.428993,24.4388889 C95.428993,27.9722222 96.6093692,29.5180556 98.8963482,29.5180556 C100.849177,29.5180556 102.234735,28.3860123 102.288319,24.387791 L102.28993,24.1444444 C102.28993,22.0833333 101.921062,19.1388889 98.8225747,19.1388889 Z M117.561048,19.0652778 C116.113416,19.0652778 114.026642,20.1281709 113.948411,24.2005889 L113.947525,24.6983809 C113.964766,25.9629115 114.197522,29.3708333 117.339727,29.3708333 C119.552932,29.3708333 120.733309,27.3097222 120.733309,24.1444444 L120.727671,23.7841346 C120.669045,21.9119575 120.120066,19.0652778 117.561048,19.0652778 Z M38.1316857,7.91388889 C41.894135,7.91388889 44.8450756,9.01805556 46.910734,11.3736111 C48.9763925,13.7291667 50.0092217,16.8208333 50.0092217,20.7222222 C50.0092217,24.4763889 48.9763925,27.5680556 46.8369605,29.9236111 C44.6975286,32.2791667 41.8203615,33.4569444 38.1316857,33.4569444 C34.3692364,33.4569444 31.4920693,32.2791667 29.4264109,29.9236111 C27.3607525,27.5680556 26.3279233,24.55 26.3279233,20.7222222 C26.3279233,16.9427517 27.2972093,13.9231866 29.2357813,11.6635267 L29.4264109,11.4472222 C31.4920693,9.09166667 34.3692364,7.91388889 38.1316857,7.91388889 Z M169.86647,17.8138889 C166.841756,17.8138889 165.218738,20.3902778 164.923644,23.1138889 L174.956842,23.1138889 C174.735522,20.0958333 173.112505,17.8138889 169.86647,17.8138889 Z M220.843969,17.8138889 C217.819255,17.8138889 216.196238,20.3902778 215.901143,23.1138889 L225.934342,23.1138889 C225.713021,20.0958333 224.090004,17.8138889 220.843969,17.8138889 Z M134.676503,19.0652778 C132.684618,19.0652778 131.799336,20.7583333 131.725563,22.5986111 L137.406123,22.5986111 L137.402517,22.3537918 C137.37202,21.382411 137.093717,19.0652778 134.676503,19.0652778 Z M67.4197713,6 C74.9643428,6 75.9702857,11.5843025 76.1044114,13.0734498 L76.1250461,13.4347222 L76.1250461,27.5680556 C72.952785,24.6972222 68.9690151,23.2986111 64.0261896,23.2986111 C60.8539284,23.2986111 58.1243084,23.9611111 55.6897824,25.2125 C55.9848764,23.8138889 56.1324235,22.3416667 56.1324235,20.7222222 C56.1324235,15.1891204 54.5857726,10.6380842 51.4924708,7.13759113 L51.2633714,6.88333333 L50.3780893,6 L67.4197713,6 Z" id="Shape"></path>
        </g>
    </g>
</svg>