<svg height="256" viewBox="0 0 256 256" width="256" xmlns="http://www.w3.org/2000/svg"><path d="m37.3078641 104.261846c4.8153365 0 9.3899062 1.104175 13.4227506 3.925956l2.046518-2.637752h.9028756l.3611502 12.636669h-1.2640258l-.2339246-.62893c-2.4259756-6.371751-6.3307931-12.007739-13.790743-12.007739-6.1395541 0-16.010994 5.888933-16.010994 21.347382 0 15.581693 8.4268389 19.813806 14.4460096 19.813806 6.2599375 0 10.1122067-3.557339 10.1122067-9.81433v-4.539944c0-2.883123-.9028756-3.435211-5.1764868-3.741926v-1.288204h15.6498437v1.288204c-3.5799017.299047-4.3560361 1.064609-4.3926054 3.206386l-.0013891 10.963859c-5.1162951 2.945024-10.6539321 5.214717-16.612911 5.214717-9.9316316 0-20.7661388-6.379677-20.7661388-21.102568 0-15.335763 10.9548906-22.635586 21.3078641-22.635586zm191.2097409-.102884c3.370735 0 7.162266 1.165518 9.690865 3.496554l1.805204-1.594919h.842684v12.575883h-1.082904c-.842684-3.067152-1.746107-7.423067-3.852269-9.815446-1.746107-2.023763-3.913008-3.373867-6.621635-3.373867-5.65802 0-8.787442 3.864612-8.787442 9.447387 0 5.237468 3.826353 6.575393 7.952235 7.841631l.233837.071623c6.560896 2.023763 13.30182 4.784758 13.30182 13.004727 0 8.710156-6.620541 12.084581-14.325079 12.084581-3.671694 0-7.223552-1.104175-10.293329-3.128495l-2.287285 2.269135h-.7223v-12.820698h1.203834c.783039 6.502363 3.972652 12.391854 11.497163 12.391854 8.005497 0 9.690865-5.82759 9.690865-8.894742 0-6.195649-5.537637-6.932323-10.052015-8.649371l-.955089-.327224c-6.347694-2.218219-10.120185-4.530936-10.120185-12.248659 0-7.483295 5.777856-12.329954 12.881025-12.329954zm-120.505224-.510323 14.418919 37.431682c1.045688 2.675539 1.85854 4.091419 4.300273 4.648145l.402732-.047134c1.974252-.248165 3.34607-.719584 3.607762-3.027219l.02245-.236944s0-.061343.060192-.183472v-32.573718l-.769915-.842651c-1.336024-1.443531-2.646566-2.663718-4.466763-2.715246v-1.288204h8.968564l29.795442 33.309277v-28.095118c0-3.128495-1.625724-3.557897-5.297418-3.925955v-1.288204l11.873381-.000878.217875-.980499.8477.2431c1.421193.397594 2.884185.738388 4.388978.738388h29.976017c1.805204 0 3.550764-.490744 5.236131-.981488l2.227094 11.47115-.842684.429402c-1.504793-2.331036-2.708627-4.907444-4.514378-7.054451l-.614283-.737719c-1.004345-1.189435-1.728379-1.838689-3.599137-1.838689h-9.811248v36.315086c0 2.637752 1.204381 3.251182 5.597829 3.435211v1.288204h-17.154637v-1.288204l.548956-.027906c3.72192-.216072 4.92849-.889451 4.92849-3.407305v-36.315086h-9.87144c-2.227093 0-2.82901.920145-4.21342 2.576408-1.805751 2.147007-3.009585 4.723415-4.875528 6.993108l-.782492-.429402 1.989495-8.98807c-3.488685.69341-4.630105 1.832654-4.630105 3.712456v37.665192h-.903423l-32.623905-36.192958v30.978241c0 2.086221 1.504793 3.313082 5.537637 3.435211v1.288204l-26.303447.000279v-1.288204l.777132-.005589c1.827701-.036883 4.278971-.317196 4.278971-2.447576 0-1.779506-3.370736-9.631417-4.152681-12.330511h-14.3863646l-.0993887.337951c-.8126898 2.614881-3.9936474 10.28555-3.9936474 11.807973 0 2.392379 3.1901605 2.392379 4.8755282 2.637752v1.288204l-13.9435729-.000279-1.2526105-2.179923c-2.6656822-4.609044-6.621881-11.200079-9.7022801-14.444044-1.8659429-2.024321-4.5745697-2.392379-7.1628131-2.515065v14.415617c0 3.129053 1.4446009 3.435211 5.116295 3.435211v1.288204h-15.6498437v-1.288204l.6748578-.005326c2.8646747-.051134 3.9467582-.519138 3.7787813-3.429885v-32.879876c0-3.128496-1.4440537-3.435211-4.2128722-3.435211v-1.288204c5.3570619 0 10.8946989-.245372 16.4317887-.245372 7.2235519 0 15.3494323 2.82178 15.3494323 11.532494 0 6.44102-3.8522692 9.324143-9.4500979 11.225778 3.7920775 4.109985 7.8851136 9.998918 10.2927818 15.090391.4174398.898333.9599728 1.614378 1.6275992 2.155247.4625491-.461224.8283008-1.026327 1.0601247-1.664224l12.2791081-32.634504-1.083451-1.840291c1.986327-1.165518 3.430928-3.00581 4.875529-4.784758zm-2.889202 8.403998-6.2599379 17.360084h13.0615999zm-33.6262614-6.195927-.4487367.003956c-2.7677576.051866-4.125833.64628-4.125833 3.676627v17.176055c1.8057512 0 3.6115024-.122687 5.4172536-.245373 6.1997458-.490744 9.5102896-4.171327 9.5102896-10.428319 0-6.318334-4.0328443-10.182946-10.3529735-10.182946zm143.6486564-8.85671c3.010133 0 4.432846 3.06771 4.432846 5.744498 0 3.959415-2.735987 6.80406-5.800839 8.867417l-.547197-1.059562c1.586872-1.171652 3.995087-3.458075 3.995087-5.577199 0-.724963-.219426-1.226861-.876063-1.672992-2.02463-.948029-4.213419-.557664-4.213419-3.4575174 0-1.67355 1.422713-2.8446446 3.009585-2.8446446z" fill="#2a2f87" fill-rule="evenodd"/></svg>