<?xml version="1.0" encoding="UTF-8"?>
<svg width="256px" height="56px" viewBox="0 0 256 56" version="1.1" xmlns="http://www.w3.org/2000/svg" xmlns:xlink="http://www.w3.org/1999/xlink">
    <!-- Generator: Sketch 61.2 (89653) - https://sketch.com -->
    <title>logo_wobble</title>
    <desc>Created with Sketch.</desc>
    <g id="03-what-we-do-(SRC)" stroke="none" stroke-width="1" fill="none" fill-rule="evenodd">
        <g id="Group" fill="#FFFFFF">
            <path d="M175.601377,23.8824168 C175.538629,21.6031129 175.419884,20.0239799 175.24514,19.1449935 C174.972491,17.7735285 174.29088,16.7547413 173.200285,16.0886011 C172.382338,15.6183846 171.822443,15.1726651 171.520582,14.7514295 C171.218721,14.3301938 171.067792,13.8159021 171.067792,13.2085391 C171.067792,12.2485136 171.525446,11.4109529 172.440767,10.6958319 C173.356088,9.98071084 174.816684,9.31947872 176.8226,8.71211566 C178.166369,8.30067616 179.909347,7.9088349 182.051588,7.53658012 C184.193828,7.16432534 185.751798,6.97820074 186.725543,6.97820074 C188.264061,6.97820074 189.033309,7.93821183 189.033309,9.8582628 C189.033309,10.4852182 188.935936,11.9252349 188.741186,14.1783559 C188.488013,17.6853878 188.341953,20.8984861 188.303003,23.8177473 L188.303003,26.4219252 C188.696983,25.6564486 189.164825,24.9157396 189.70653,24.1997963 C191.420322,21.9270829 193.601479,20.2323695 196.250067,19.1156051 C198.236508,18.2731338 200.388454,17.8519044 202.705968,17.8519044 C206.406201,17.8519044 209.551353,18.9098758 212.141516,21.0258504 C213.446335,22.0838376 214.497964,23.3377297 215.296436,24.7875641 C216.211757,26.4333221 216.66941,28.0398712 216.66941,29.6072598 C216.66941,30.880763 216.406503,31.9240403 215.88068,32.7371231 C215.354858,33.5502059 214.673246,33.9567413 213.835825,33.9567413 L200.106081,33.9567413 C199.502358,33.9567413 199.200502,34.2212341 199.200502,34.7502277 C199.200502,36.0237309 199.886982,37.2237448 201.259963,38.3503053 C202.632945,39.4768658 204.108147,40.0401376 205.685615,40.0401376 C206.620411,40.0401376 207.657434,39.8589111 208.796716,39.4964525 C209.935999,39.1339939 210.875649,38.6882744 211.615696,38.1592808 C212.277843,37.6890642 212.803658,37.4539595 213.193156,37.4539595 C213.699503,37.4539595 214.196106,37.7674325 214.682979,38.3943879 C214.913479,38.6912065 215.089415,38.9924142 215.210788,39.2980132 C215.4972,38.5314859 215.943206,37.8384344 216.548809,37.2188524 C217.834153,35.8669797 219.421335,35.1910536 221.310401,35.1910536 C223.004719,35.1910536 224.455578,35.8277956 225.663022,37.1012988 C226.870467,38.3552096 227.47418,39.8246144 227.47418,41.5095571 C227.47418,43.2532768 226.850992,44.7569677 225.604598,46.0206747 C224.358203,47.2843817 222.868395,47.9162257 221.135128,47.9162257 C219.440811,47.9162257 217.989951,47.3382599 216.782507,46.1823108 C215.648363,45.0924162 215.007123,43.7805082 214.858775,42.2465562 C214.423503,42.9850273 213.731974,43.7091756 212.784185,44.4190075 C209.687674,46.750498 206.114081,47.9162257 202.063299,47.9162257 C197.973568,47.9162257 194.546035,46.7211099 191.780597,44.3308423 C191.769543,44.3211717 191.758504,44.3114845 191.747481,44.3017808 C191.721222,44.9020695 191.493249,45.4505389 191.063558,45.9472037 C190.605898,46.4761973 189.997316,46.8484465 189.237794,47.0639625 C187.835601,47.4949943 185.469434,47.710507 182.139224,47.710507 C178.730302,47.710507 176.242523,47.4768296 174.675829,47.0094683 C176.620511,44.7399988 178.033731,41.9731028 178.895601,38.7371607 C180.114882,34.1593014 179.592229,29.9013957 177.303271,26.1489689 C176.793072,25.3163531 176.225079,24.5601494 175.601377,23.8824168 L175.601377,23.8824168 Z M188.433677,40.037209 C188.451574,40.2553642 188.471309,40.4228745 188.492883,40.5397402 C188.603082,41.1367026 188.98263,41.614874 189.631536,41.9742651 C189.199414,41.3796079 188.805704,40.7446958 188.450404,40.069526 C188.444815,40.0587565 188.439239,40.0479841 188.433677,40.037209 L188.433677,40.037209 Z M221.16434,7.41902657 C222.897607,7.41902657 224.367941,8.04597258 225.575386,9.29988342 C227.191803,10.9456414 228,13.2770969 228,16.2943199 C228,18.2927403 227.654326,20.4429692 226.962966,22.7450711 C226.271607,25.047173 225.351431,27.0994416 224.202411,28.9019385 C222.897592,30.9395436 221.845963,31.9583308 221.047491,31.9583308 C220.268495,31.9583308 219.168179,30.6554587 217.74651,28.0496752 C216.694865,26.1296242 215.862325,24.0724576 215.248865,21.8781136 C214.635406,19.6837697 214.32868,17.6755832 214.32868,15.853494 C214.32868,13.6199653 214.825283,11.7489233 215.818504,10.2403119 C217.045423,8.35944559 218.827351,7.41902657 221.16434,7.41902657 Z M155.834836,8.92611967 C158.154887,9.03429515 160.095553,9.29882024 161.656892,9.71970287 C162.653892,9.98845925 162.991767,10.6880344 162.670527,11.8184494 L159.355043,22.7904991 L159.188709,23.4150131 C159.087899,23.7935084 159.159767,24.0157134 159.404314,24.0816348 C159.535993,24.1171309 159.980259,23.9630664 160.737126,23.6194367 C163.421936,22.3959518 166.090499,22.1417098 168.742895,22.8567032 C171.37648,23.5666257 173.445103,25.1485556 174.948826,27.6025404 C176.829402,30.6854826 177.255555,34.1572275 176.227298,38.0178793 C174.760519,43.5249854 171.547627,47.3747453 166.588528,49.5672742 C163.018862,51.1607379 159.258896,51.4250239 155.308519,50.3601401 C153.352142,49.8327691 151.655392,49.1066323 150.21822,48.181708 C148.781047,47.2567837 147.292618,45.9377406 145.752888,44.2245391 C145.516083,43.9781531 145.313032,43.8321434 145.14373,43.7865055 C144.936806,43.7307259 144.30578,43.7533137 143.250633,43.8542695 C143.046058,43.8760371 142.832937,43.880918 142.611268,43.868912 C144.138386,42.7241384 145.487212,41.3470442 146.649766,39.7415496 C150.351531,34.6673647 151.373518,28.846471 149.692609,22.5354 C149.207131,20.7126448 148.5077,19.072732 147.598805,17.6265776 C147.664142,17.2406101 147.693246,16.9499446 147.686116,16.7545792 C147.666678,16.2219684 147.346757,15.7199235 146.726346,15.2484297 C145.859048,14.5683994 145.291479,13.9742432 145.023623,13.4659433 C144.755767,12.9576434 144.705007,12.3912433 144.871343,11.7667261 C145.209055,10.498767 146.884191,9.62177568 149.8968,9.13572596 C151.535459,8.88781226 153.514785,8.81794419 155.834836,8.92611967 Z M101.231287,17.822516 C104.795196,17.822516 107.920872,18.753139 110.60841,20.6144129 C112.536426,21.9466932 114.084659,23.6805908 115.253153,25.8161577 C116.460598,28.0496864 117.064311,30.3811419 117.064311,32.8105941 C117.064311,37.0621355 115.126586,40.6768712 111.251079,43.6549094 C107.550846,46.4958012 103.315116,47.9162257 98.5437627,47.9162257 C93.8892588,47.9162257 90.12092,46.5839654 87.238633,43.9194049 C84.4342457,41.3332138 83.0320731,37.963379 83.0320731,33.8097993 C83.0320731,29.1860031 84.7458397,25.4047349 88.1734241,22.4658814 C91.7568079,19.370289 96.1093853,17.822516 101.231287,17.822516 Z M61.8277524,18.0282348 C64.7684641,18.0282348 66.8911976,18.2780336 68.1960167,18.7776387 C69.5008358,19.2772438 70.1532355,20.0854164 70.1532355,21.2021807 C70.1532355,21.6528049 70.075337,22.0152581 69.9195378,22.2895511 C69.7637385,22.5638441 69.3450341,23.0536456 68.6634122,23.7589705 C68.4491882,23.9940788 68.3420778,24.2977558 68.3420778,24.6700105 C68.3420778,25.1990042 68.789994,26.3157518 69.68584,28.0202868 C70.4648364,29.5093059 71.1756601,30.2538043 71.8183321,30.2538043 C72.519429,30.2538043 73.4055242,29.3035893 74.4766443,27.4031307 C75.2556408,25.9728886 75.6451332,25.0226735 75.6451332,24.552457 C75.6451332,24.1802022 75.3335392,23.6022363 74.7103421,22.8185421 C74.2624191,22.2699561 74.038461,21.6723982 74.038461,21.0258504 C74.038461,20.0070478 74.4961145,19.3017336 75.4114354,18.9098864 C76.6967795,18.3417081 78.566343,18.0576232 81.0201819,18.0576232 C82.6755494,18.0576232 84.1458832,18.1849716 85.4312273,18.4396722 C86.171274,18.5964111 86.7749872,18.9147821 87.2423851,19.3947948 C87.7097829,19.8748076 87.9434784,20.4282833 87.9434784,21.0552388 C87.9434784,21.6821942 87.6708337,22.2111799 87.1255362,22.6422117 C87.0281616,22.7401735 86.3465499,23.0144624 85.0806807,23.4650866 C84.3601089,23.7393796 83.766133,24.1312209 83.2987352,24.6406221 C82.8313373,25.1500234 82.2665733,26.0610544 81.6044263,27.3737423 L74.301371,41.5977222 C72.1591307,45.7513019 70.2700926,47.8280606 68.6342,47.8280606 C67.9331032,47.8280606 67.1589871,47.3823411 66.3118284,46.4908889 C65.4646697,45.5994367 64.3984343,44.1153379 63.1130902,42.0385481 L60.1042314,37.189464 C59.4031345,36.092292 58.9503496,35.4359579 58.7458631,35.220442 C58.5413765,35.004926 58.2736005,34.8971697 57.942527,34.8971697 C57.2414301,34.8971697 56.5208692,35.5437078 55.7808226,36.8368033 L50.9023816,45.3006592 C49.9675858,46.9268248 48.9159564,47.7398954 47.7474617,47.7398954 C47.02689,47.7398954 46.3647529,47.4900966 45.7610306,46.9904915 C45.1573084,46.4908864 44.5049086,45.6435297 43.8038118,44.4483959 L35.0401454,29.7835901 C33.579527,27.4129149 32.4402617,25.865142 31.6223155,25.1402247 C31.2328172,24.826747 30.5219936,24.5230701 29.4898233,24.2291847 C29.0613752,24.0920382 28.7059634,23.8226473 28.4235772,23.421004 C28.141191,23.0193607 28,22.5736413 28,22.0838324 C28,20.5752209 29.1587399,19.5172495 31.4762544,18.9098864 C33.8132437,18.3221157 36.3644189,18.0282348 39.1298564,18.0282348 C45.3423532,18.0282348 48.448555,19.1939625 48.448555,21.525453 C48.448555,21.9564848 48.1466984,22.6128189 47.5429761,23.494475 C47.4261267,23.6708062 47.3677028,23.8569308 47.3677028,24.0528544 C47.3677028,24.4838862 47.8253564,25.5516537 48.7406772,27.2561887 C49.7533726,29.195832 50.6297305,30.1656392 51.3697771,30.1656392 C51.7982252,30.1656392 52.3435145,29.6758376 53.0056615,28.6962197 C53.6678085,27.7166019 53.9988771,26.9231233 53.9988771,26.3157603 C53.9988771,25.7083972 53.8528174,25.2234937 53.5606938,24.8610351 C53.2685701,24.4985765 52.5772211,23.9255086 51.486626,23.1418143 C50.824479,22.6715978 50.4934105,22.113224 50.4934105,21.4666762 C50.4934105,19.9384724 52.0513801,18.9392772 55.1673659,18.4690606 C57.0564324,18.1751752 59.276539,18.0282348 61.8277524,18.0282348 Z M122.262608,7.38457241 L124.844454,18.5543853 L125.010789,19.1788993 C125.111599,19.5573946 125.284275,19.7136792 125.528822,19.6477578 C125.660501,19.6122617 125.968676,19.2553653 126.453357,18.5770578 C128.170396,16.1669881 130.35508,14.60448 133.007476,13.8894866 C135.641061,13.1795641 138.218765,13.5090066 140.740664,14.8778241 C143.901522,16.6017718 145.996048,19.3940296 147.024306,23.2546814 C148.491085,28.7617876 147.621981,33.7119108 144.416967,38.1051995 C142.117502,41.2807762 138.992627,43.4009747 135.04225,44.4658585 C133.085873,44.9932295 131.255552,45.2178675 129.551234,45.1397794 C127.846917,45.0616912 125.902331,44.6680689 123.71742,43.9589007 C123.389886,43.8646409 123.141471,43.8403304 122.97217,43.8859682 C122.765245,43.9417479 122.229987,44.2787252 121.366378,44.8969103 C120.927689,45.2180007 120.379154,45.4672825 119.720758,45.6447631 C118.554456,45.9591574 117.870506,45.7378625 117.668887,44.980872 C117.603361,44.7348501 117.574782,44.4383059 117.583151,44.0912305 C117.615414,43.2072111 117.559345,42.2084345 117.414942,41.0948867 C119.009472,38.6154087 119.826742,35.841441 119.826742,32.8105941 C119.826742,29.9116577 119.105067,27.1246488 117.679904,24.4883864 C116.298804,21.9641826 114.458879,19.9036122 112.172431,18.3236513 C110.507648,17.170693 108.699438,16.3216121 106.759282,15.7765042 C106.774346,14.5987622 107.810217,13.16882 109.866915,11.486646 C111.162822,10.4476758 112.842243,9.39153728 114.90523,8.31819886 C116.968217,7.24486045 118.780353,6.49776113 120.341692,6.07687849 C121.338692,5.80812211 121.978991,6.24401573 122.262608,7.38457241 Z M158.004503,30.2456907 C157.505954,30.6792374 157.039946,31.7097602 156.606465,33.3372898 C155.421953,37.7846093 154.773537,40.8247057 154.661199,42.4576703 C154.541481,43.9669446 155.149415,44.9015838 156.485019,45.2616159 C157.858245,45.6317898 159.05851,45.3265602 160.08585,44.3459182 C161.11319,43.3652761 161.924236,41.7584181 162.519012,39.525296 C163.396056,36.2323872 163.434233,33.6667127 162.633547,31.8281956 C162.16939,30.7700341 161.453269,30.090196 160.485161,29.788661 C159.46935,29.5148337 158.642472,29.6671754 158.004503,30.2456907 Z M98.8943094,24.6112338 C98.0374133,24.6112338 97.3509329,24.9296048 96.8348478,25.5663564 C96.3187626,26.203108 96.0607239,27.0504647 96.0607239,28.108452 C96.0607239,29.2839934 96.2798134,30.8856445 96.7179989,32.9134535 C97.1561844,34.9412624 97.6771305,36.7388342 98.2808527,38.3062227 C98.884575,39.912796 99.8680433,40.7160706 101.231287,40.7160706 C102.964554,40.7160706 103.831175,39.609119 103.831175,37.3951827 C103.831175,35.7494247 103.612085,33.8783827 103.1739,31.7820005 C102.735714,29.6856183 102.205031,27.9811089 101.581834,26.6684209 C100.939162,25.3361407 100.043329,24.6504185 98.8943094,24.6112338 Z M129.301271,24.0465048 C128.28546,24.3203321 127.645077,24.8681961 127.380103,25.6901134 C127.163821,26.3163534 127.272419,27.4432213 127.7059,29.0707509 C128.890413,33.5180704 129.839805,36.477034 130.554105,37.9477306 C131.20054,39.3150204 132.191544,39.8186416 133.527148,39.4586095 C134.900374,39.0884356 135.788134,38.2203474 136.190455,36.8543188 C136.592775,35.4882902 136.496549,33.6887419 135.901773,31.4556198 C135.024729,28.1627109 133.782645,25.9215676 132.175482,24.7321225 C131.247601,24.0492058 130.289541,23.8206688 129.301271,24.0465048 Z M202.413846,23.1418143 C203.387592,23.1418143 204.176314,23.4748794 204.780036,24.1410195 C205.383758,24.8071597 205.685615,25.6692104 205.685615,26.7271977 C205.685615,27.8831468 205.062427,28.4611126 203.816033,28.4611126 L203.816033,28.4611126 L200.865598,28.4611126 C200.164502,28.4611126 199.672767,28.3435603 199.390381,28.108452 C199.107995,27.8733437 198.966804,27.4619104 198.966804,26.8741397 C198.966804,26.0512607 199.258923,25.2381901 199.843171,24.4349034 C200.466368,23.5728397 201.323251,23.1418143 202.413846,23.1418143 Z" id="Combined-Shape"></path>
        </g>
    </g>
</svg>