<svg xmlns="http://www.w3.org/2000/svg" viewBox="0 0 230 72" width="230" height="72">
	<style>
		tspan { white-space:pre }
		.shp0 { fill: #ffffff } 
	</style>
	<g id="03-what-we-do-(SRC)">
		<g id="Group-2">
			<g id="Group-7">
				<path id="Fill-1" fill-rule="evenodd" class="shp0" d="M122.46 25.52C122.46 31.22 118.63 35.89 113.92 35.89C109.2 35.89 105.37 31.22 105.37 25.52C105.37 19.8 109.2 15.14 113.92 15.14C118.63 15.14 122.46 19.8 122.46 25.52ZM112.96 22.11C112.96 18.72 111.04 18.03 110.54 18.03C110.18 18.03 109.54 18.28 109.32 18.95C109.2 19.17 108.95 19.25 108.72 19.34L108.69 19.35C108.43 19.44 108.31 19.51 108.31 19.91C108.31 20 108.31 20.09 108.33 20.2C108.37 20.71 108.4 21.75 108.4 22.99C108.4 25.84 108.24 29.83 107.8 31.14C107.78 31.17 107.77 31.22 107.77 31.3C107.77 31.34 107.77 31.37 107.8 31.39C107.84 31.43 107.91 31.41 108.01 31.36C108.39 31.12 109.63 30.1 110.01 26.92L110.01 26.86C110.02 26.69 110.04 26.49 110.27 26.39L110.32 26.37C112.03 25.79 112.96 24.27 112.96 22.11ZM119.81 31.47C119.85 31.46 119.86 31.4 119.79 31.22C118.28 26.49 118.46 20.3 118.65 18.97L118.67 18.9C118.69 18.77 118.7 18.69 118.66 18.67C118.62 18.65 118.57 18.69 118.4 18.92C117.93 19.58 116.71 22.72 116.3 24.18C116.29 24.21 116.27 24.27 116.25 24.28C116.25 24.28 116.23 24.25 116.21 24.18C116.21 24.15 115.06 20.26 114.26 19.08L114.22 19.02C114.15 18.88 114.1 18.83 114.06 18.85C114.02 18.85 114.02 18.91 114.05 19.05C114.55 21.64 113.8 27.53 112.1 30.94C112 31.09 111.96 31.17 112 31.22C112.03 31.22 112.07 31.25 112.37 31.02C113.59 30.2 114.09 28.58 114.49 27.29L114.69 26.64C114.69 26.64 114.71 26.62 114.72 26.6C114.72 26.62 114.74 26.64 114.78 26.75C114.8 26.83 114.97 27.46 115.15 28.19C115.42 29.25 115.76 30.56 115.82 30.74C115.88 30.94 115.89 30.97 115.93 30.97C115.97 30.97 115.97 30.93 116 30.86L116.02 30.74C116.04 30.67 116.12 30.27 116.24 29.72C116.51 28.55 116.89 26.78 117.04 26.33L117.04 26.3C117.04 26.3 117.07 26.33 117.08 26.46C117.11 26.73 117.96 30.25 119.62 31.36L119.63 31.37C119.71 31.44 119.76 31.5 119.81 31.47Z" />
				<path id="Fill-2" fill-rule="evenodd" class="shp0" d="M110.36 18.49C109.98 18.52 109.93 18.97 109.93 19.37C109.93 19.87 109.89 24.04 109.84 25.01C109.82 25.48 109.87 25.74 110.01 25.83C110.16 25.93 110.4 25.82 110.65 25.68C111.18 25.41 111.28 24.95 111.46 22.13C111.6 19.84 111.07 18.99 110.82 18.74C110.68 18.58 110.52 18.49 110.36 18.49Z" />
				<path id="Combined-Shape" fill-rule="evenodd" class="shp0" d="M99.58 47.83L99.12 47.96L98.49 45.81L98.94 45.67L99.58 47.83ZM99.89 45.4L100.37 45.27L101.61 46.57L101.22 45.05L101.65 44.95L102.19 47.13L101.74 47.24L100.48 45.93L100.88 47.46L100.45 47.58L99.89 45.4ZM104.26 44.41L104.35 44.78L103.68 44.93L104.04 46.74L103.59 46.83L103.21 45.01L102.55 45.14L102.48 44.77L104.26 44.41ZM106.8 44.41L105.63 44.58L105.71 45.05L106.77 44.9L106.83 45.27L105.77 45.44L105.85 46.01L107.07 45.83L107.13 46.23L105.46 46.47L105.12 44.26L106.74 44.01L106.8 44.41ZM109.16 43.81C109.24 43.84 109.32 43.88 109.39 43.93C109.43 43.99 109.48 44.05 109.52 44.12C109.55 44.18 109.58 44.27 109.58 44.35C109.59 44.45 109.58 44.57 109.53 44.68C109.49 44.78 109.4 44.87 109.3 44.93C109.39 44.95 109.48 45 109.53 45.07C109.58 45.14 109.6 45.25 109.62 45.41L109.63 45.57C109.65 45.67 109.66 45.74 109.67 45.77C109.69 45.83 109.72 45.87 109.77 45.89L109.78 45.94L109.26 46C109.24 45.94 109.23 45.91 109.22 45.89C109.2 45.83 109.19 45.76 109.17 45.69L109.15 45.48C109.14 45.34 109.1 45.25 109.05 45.21C109 45.17 108.91 45.14 108.77 45.15L108.33 45.21L108.41 46.08L107.95 46.13L107.73 43.89L108.8 43.78C108.96 43.78 109.08 43.78 109.16 43.81ZM108.23 44.22L108.28 44.84L108.79 44.78C108.89 44.78 108.96 44.75 109.01 44.73C109.09 44.68 109.13 44.58 109.12 44.47C109.1 44.32 109.05 44.24 108.96 44.2C108.91 44.18 108.84 44.18 108.74 44.18L108.23 44.22ZM110.52 43.63L111.01 43.62L111.96 45.14L111.89 43.58L112.33 43.56L112.43 45.8L111.96 45.83L110.99 44.28L111.07 45.87L110.62 45.89L110.52 43.63ZM113.98 43.54L114.51 43.55L115.29 45.8L114.78 45.8L114.63 45.34L113.81 45.32L113.66 45.78L113.16 45.78L113.98 43.54ZM113.94 44.94L114.52 44.94L114.23 44.07L113.94 44.94ZM117.54 43.66L117.52 44.05L116.86 44.01L116.75 45.87L116.29 45.84L116.38 43.99L115.71 43.95L115.72 43.56L117.54 43.66ZM118.59 46L118.12 45.96L118.32 43.72L118.79 43.77L118.59 46ZM121.23 46.1C121.04 46.26 120.78 46.32 120.47 46.27C120.15 46.23 119.9 46.12 119.76 45.91C119.56 45.67 119.5 45.35 119.55 44.96C119.61 44.54 119.75 44.25 120.01 44.08C120.2 43.92 120.45 43.88 120.77 43.91C121.08 43.95 121.32 44.08 121.46 44.27C121.66 44.5 121.74 44.82 121.68 45.23C121.63 45.63 121.48 45.93 121.23 46.1ZM120.98 45.73C121.11 45.6 121.18 45.41 121.21 45.17C121.24 44.93 121.22 44.73 121.13 44.57C121.04 44.43 120.9 44.35 120.71 44.31C120.53 44.28 120.38 44.35 120.25 44.45C120.12 44.58 120.05 44.77 120.01 45.01C119.98 45.28 120.01 45.47 120.11 45.61C120.2 45.76 120.34 45.84 120.52 45.88C120.7 45.9 120.85 45.84 120.98 45.73ZM122.74 44.27L123.23 44.35L123.82 46.04L124.09 44.52L124.52 44.59L124.12 46.8L123.66 46.71L123.06 45L122.77 46.55L122.34 46.47L122.74 44.27ZM126.16 44.97L126.67 45.08L126.92 47.46L126.43 47.33L126.38 46.86L125.58 46.66L125.33 47.08L124.85 46.96L126.16 44.97ZM125.79 46.32L126.36 46.44L126.28 45.53L125.79 46.32ZM128.26 45.5L128.71 45.63L128.19 47.4L129.27 47.72L129.16 48.11L127.63 47.66L128.26 45.5ZM99.5 43.78C99.4 43.92 99.24 44.02 99.01 44.09L98.57 44.22L98.79 45L98.34 45.13L97.71 42.98L98.63 42.7C98.84 42.65 99.03 42.65 99.19 42.72C99.34 42.79 99.46 42.95 99.53 43.18C99.6 43.44 99.6 43.63 99.5 43.78ZM98.92 43.11C98.86 43.08 98.77 43.08 98.67 43.09L98.27 43.22L98.46 43.85L98.86 43.74C98.96 43.71 99.02 43.65 99.07 43.59C99.1 43.52 99.12 43.44 99.07 43.32C99.04 43.21 99 43.13 98.92 43.11ZM101.05 44.36L100.55 42.19L101.01 42.08L101.2 42.91L102.04 42.72L101.85 41.87L102.3 41.77L102.81 43.96L102.35 44.07L102.12 43.09L101.29 43.29L101.51 44.27L101.05 44.36ZM104.45 43.65L103.99 43.72L103.57 41.52L104.04 41.43L104.45 43.65ZM105.33 41.21L105.79 41.14L106.06 42.98L107.17 42.82L107.23 43.2L105.65 43.44L105.33 41.21ZM108.76 43.05L108.28 43.09L108.06 40.86L108.53 40.81L108.76 43.05ZM111.42 41.87C111.3 41.99 111.12 42.06 110.87 42.08L110.41 42.1L110.46 42.91L109.99 42.93L109.86 40.68L110.81 40.63C111.04 40.63 111.22 40.67 111.35 40.78C111.5 40.89 111.57 41.06 111.58 41.3C111.59 41.57 111.55 41.76 111.42 41.87ZM111.01 41.09C110.95 41.05 110.87 41.03 110.77 41.03L110.35 41.06L110.39 41.72L110.8 41.69C110.91 41.69 110.99 41.64 111.04 41.59C111.09 41.53 111.12 41.44 111.12 41.33C111.11 41.21 111.07 41.13 111.01 41.09ZM115.98 40.59L116.65 40.6L116.59 42.85L116.15 42.83L116.2 41.32C116.2 41.27 116.2 41.21 116.2 41.13C116.21 41.06 116.21 41 116.21 40.96L115.73 42.83L115.27 42.82L114.9 40.91L114.9 41.29L114.86 42.81L114.42 42.79L114.49 40.54L115.16 40.56L115.52 42.33L115.98 40.59ZM119.52 42.88C119.33 43.05 119.08 43.11 118.76 43.08C118.44 43.05 118.2 42.93 118.06 42.75C117.85 42.52 117.76 42.2 117.8 41.8C117.84 41.39 117.98 41.09 118.22 40.91C118.42 40.74 118.66 40.68 118.97 40.71C119.31 40.74 119.54 40.86 119.69 41.05C119.89 41.27 119.98 41.59 119.94 41.99C119.9 42.39 119.76 42.69 119.52 42.88ZM119.26 42.52C119.38 42.39 119.45 42.2 119.47 41.94C119.5 41.7 119.46 41.5 119.36 41.36C119.26 41.21 119.13 41.14 118.95 41.11C118.76 41.1 118.6 41.15 118.5 41.27C118.36 41.4 118.29 41.59 118.27 41.83C118.24 42.09 118.28 42.29 118.38 42.43C118.47 42.58 118.62 42.67 118.81 42.67C118.99 42.69 119.14 42.63 119.26 42.52ZM122.7 41.32C122.78 41.36 122.85 41.42 122.89 41.49C122.93 41.56 122.95 41.63 122.97 41.7C122.99 41.78 122.99 41.86 122.97 41.93C122.96 42.05 122.92 42.15 122.85 42.23C122.78 42.33 122.69 42.39 122.56 42.42C122.64 42.47 122.71 42.55 122.74 42.63C122.77 42.7 122.78 42.83 122.75 42.98L122.73 43.13C122.71 43.24 122.71 43.31 122.71 43.33C122.71 43.39 122.74 43.45 122.78 43.47L122.77 43.54L122.26 43.46C122.26 43.4 122.24 43.36 122.24 43.33C122.24 43.28 122.24 43.21 122.26 43.13L122.29 42.93C122.31 42.79 122.3 42.69 122.26 42.63C122.21 42.59 122.13 42.55 122 42.53L121.55 42.46L121.41 43.33L120.96 43.26L121.3 41.05L122.36 41.2C122.51 41.23 122.63 41.26 122.7 41.32ZM121.7 41.49L121.6 42.09L122.1 42.16C122.2 42.19 122.28 42.19 122.33 42.16C122.43 42.13 122.49 42.06 122.5 41.93C122.52 41.8 122.49 41.7 122.41 41.64C122.37 41.62 122.3 41.59 122.2 41.57L121.7 41.49ZM125.79 41.9C125.87 41.96 125.93 42.02 125.97 42.1C126 42.16 126.02 42.23 126.04 42.3C126.05 42.38 126.05 42.46 126.03 42.55C126.01 42.65 125.96 42.75 125.88 42.83C125.81 42.93 125.71 42.98 125.58 42.99C125.67 43.06 125.73 43.13 125.76 43.22C125.78 43.31 125.78 43.41 125.75 43.58L125.72 43.71C125.7 43.82 125.68 43.89 125.68 43.92C125.68 43.98 125.7 44.04 125.74 44.08L125.73 44.12L125.23 44.01C125.22 43.96 125.22 43.92 125.22 43.89C125.22 43.84 125.23 43.77 125.23 43.71L125.28 43.49C125.31 43.36 125.31 43.26 125.27 43.21C125.23 43.15 125.15 43.1 125.02 43.08L124.58 42.98L124.39 43.84L123.95 43.75L124.4 41.55L125.45 41.78C125.61 41.8 125.72 41.85 125.79 41.9ZM124.78 42.03L124.65 42.62L125.14 42.72C125.23 42.75 125.32 42.75 125.37 42.73C125.47 42.7 125.53 42.63 125.55 42.52C125.58 42.38 125.56 42.28 125.48 42.22C125.44 42.18 125.38 42.16 125.28 42.13L124.78 42.03ZM127.3 44.52L126.85 44.41L127.41 42.24L127.86 42.35L127.3 44.52ZM129.01 44.28C128.98 44.38 128.99 44.45 129.02 44.52C129.06 44.62 129.17 44.71 129.35 44.77C129.46 44.8 129.55 44.81 129.62 44.81C129.76 44.8 129.84 44.73 129.88 44.62C129.91 44.54 129.89 44.48 129.84 44.43C129.79 44.36 129.7 44.31 129.58 44.24L129.36 44.13C129.16 43.99 129.02 43.89 128.95 43.81C128.83 43.66 128.81 43.48 128.87 43.28C128.93 43.08 129.05 42.93 129.22 42.85C129.41 42.78 129.64 42.78 129.91 42.85C130.14 42.92 130.31 43.05 130.44 43.22C130.56 43.38 130.59 43.58 130.52 43.81L130.09 43.68C130.13 43.55 130.09 43.44 130.01 43.35C129.95 43.29 129.86 43.25 129.76 43.22C129.64 43.18 129.54 43.18 129.46 43.21C129.38 43.24 129.32 43.28 129.29 43.36C129.28 43.45 129.29 43.51 129.34 43.58C129.38 43.61 129.46 43.66 129.6 43.75L129.95 43.95C130.09 44.04 130.21 44.13 130.27 44.22C130.37 44.35 130.37 44.52 130.32 44.71C130.27 44.91 130.14 45.05 129.95 45.14C129.76 45.23 129.52 45.23 129.25 45.14C128.98 45.05 128.77 44.93 128.65 44.73C128.52 44.57 128.5 44.36 128.57 44.14L129.01 44.28Z" />
				<path id="Fill-29" fill-rule="evenodd" class="shp0" d="M113.85 4.33C113.32 4.33 112.89 3.9 112.89 3.37C112.89 2.84 113.32 2.41 113.85 2.41C114.38 2.41 114.81 2.84 114.81 3.37C114.81 3.9 114.38 4.33 113.85 4.33ZM113.85 3.8C114.09 3.8 114.28 3.6 114.28 3.37C114.28 3.12 114.09 2.94 113.85 2.94C113.61 2.94 113.42 3.12 113.42 3.37C113.42 3.6 113.61 3.8 113.85 3.8Z" />
				<path id="Fill-30" fill-rule="evenodd" class="shp0" d="M147.82 18.08C147.95 18.24 148.01 18.4 148.01 18.56C148.01 18.61 148.01 18.67 147.99 18.72C147.92 18.98 147.7 19.18 147.35 19.31C147.23 19.35 147.12 19.37 147.01 19.38C147.13 19.7 147.26 20.13 147.26 20.53C147.26 20.76 147.22 20.97 147.13 21.17C146.83 21.8 146.66 22.29 146.61 22.68C146.57 22.98 146.41 23.56 147.06 23.74C147.72 23.9 147.31 24.31 147.18 24.36C147.03 24.44 146.23 24.93 145.65 24.98C145.33 25.01 145 24.9 144.74 24.67C144.08 24.06 143.83 22.59 143.83 21.61C143.16 20.9 142.26 19.86 142.26 18.8C142.26 18.35 142.42 17.92 142.79 17.51L142.82 17.48L142.83 17.46C142.88 17.44 142.91 17.41 142.92 17.39C142.86 17.34 142.75 17.3 142.69 17.26L142.57 17.21C142.43 17.13 141.34 16.75 140.45 17.18C139.85 17.48 139.47 18.1 139.32 19.02C139.22 19.79 139.04 21.04 140.56 22.41C140.65 22.28 140.78 22.13 140.9 21.99C141.06 21.82 141.26 21.64 141.49 21.69C141.71 21.76 141.77 22 141.81 22.18L141.84 22.3L141.9 22.51C141.98 22.75 142.1 23.18 142.17 23.35C142.22 23.44 142.28 23.52 142.36 23.55C142.43 23.58 142.52 23.55 142.63 23.48C142.83 23.35 143.03 23.33 143.19 23.41C143.45 23.54 143.49 23.87 143.5 24.04L143.5 24.05C143.52 24.18 143.72 25.06 143.81 25.4C143.91 25.8 143.99 25.91 144.14 25.86C144.43 25.76 145.29 25.44 145.6 25.97C146.07 26.76 144.6 28.71 144.24 29.02C144.12 29.13 143.75 29.7 143.6 30.04L143.58 30.11C143.41 30.48 143.13 31.13 142.73 31.62C141.26 33.38 139.54 33.06 138.6 32.74C138.89 33.11 139.22 33.47 139.56 33.74L139.7 33.82C140.07 34.11 140.86 34.7 140.76 35.43C140.74 35.67 140.73 36.77 140.73 37.13C140.73 37.25 140.81 37.69 140.88 38.06C140.95 38.42 141.03 38.77 141.04 38.95C141.06 39.18 141.04 39.73 140.97 40.24L147.99 40.24C147.99 40.24 146.18 43.38 146.05 43.61C146.17 43.85 147.84 47.12 147.84 47.12L131.6 47.12L130.67 50.28C125.57 48.42 119.47 47.36 113.95 47.36L113.92 47.36C108.39 47.36 102.31 48.42 97.2 50.28L96.26 47.12L79.77 47.12C79.77 47.12 81.45 43.85 81.56 43.61C81.43 43.38 79.62 40.24 79.62 40.24L85.75 40.24C85.76 40.2 85.77 40.16 85.79 40.13C85.79 40.13 85.79 40.11 85.8 40.1C85.7 40.08 85.56 40.08 85.45 40.08L84.91 40.05C84.67 40.02 84.52 39.94 84.41 39.78C84.32 39.65 84.3 39.51 84.3 39.37C84.3 39.17 84.34 38.97 84.38 38.78C84.42 38.64 84.46 38.47 84.46 38.35C84.47 38.19 84.52 37.99 84.56 37.79C84.66 37.3 84.8 36.64 84.73 35.43C84.66 34.51 84.72 34.06 84.93 33.82C85.09 33.64 85.32 33.64 85.47 33.62L85.6 33.61L85.77 33.59C86.31 33.55 87.31 33.45 87.9 32.51C88.11 32.16 88.25 31.82 88.35 31.3C85.95 31.29 84.99 30.36 84.6 29.56C83.96 28.28 84.44 26.45 85.92 24.54L86.29 24.05L86.43 23.87C86.74 23.49 87.13 22.78 87.02 22.37C86.99 22.29 86.94 22.19 86.75 22.12C86.5 22.03 86.17 21.89 86.13 21.57C86.08 21.23 86.42 21 86.67 20.83L86.78 20.76C87.09 20.51 87.6 20.39 88.01 20.48L88.21 20.53C88.25 20.54 88.34 20.57 88.37 20.57C88.37 20.57 88.49 20.51 88.61 19.91C88.65 19.76 88.67 19.58 88.67 19.38C88.67 18.84 88.5 18.19 88.14 17.64C87.7 17.02 86.79 16.4 86.21 16.5C85.92 16.55 85.72 16.76 85.61 17.18C85.46 17.75 85.76 18.61 86.03 18.83C86.25 18.99 86.45 19.2 86.39 19.44C86.33 19.7 86.07 19.74 85.87 19.78L85.77 19.79C85.66 19.83 85.54 19.81 85.44 19.79L85.25 19.79C85.38 20.73 84.79 21.87 84.34 22.53L84.09 22.91C83.7 23.55 83.4 24.18 83.17 24.64L83.07 24.83C82.9 25.2 82.69 25.64 82.12 25.52C81.94 25.47 81.85 25.37 81.81 25.29C81.68 25.09 81.73 24.84 81.8 24.61C81.84 24.47 81.87 24.33 81.87 24.22C81.84 23.9 81.24 22.96 80.95 22.52L80.86 22.41C80.52 21.86 80.6 21.03 80.65 20.48L80.65 20.39L80.65 20.39C80.16 20.33 79.88 20.14 79.84 19.88C79.84 19.86 79.83 19.84 79.83 19.81C79.83 19.65 79.92 19.51 80.07 19.41C80.24 19.3 81.03 18.44 81.22 18.12C81.13 18.02 80.95 17.88 80.53 17.68C80.18 17.52 79.9 17.39 79.9 17.13L79.9 17.12C79.91 16.88 80.14 16.8 80.3 16.75C80.36 16.72 81.6 16.32 82.11 16.25C82.92 16.12 83.47 15.81 84.06 15.47C84.64 15.13 85.26 14.78 86.19 14.57C87.82 14.2 89.01 15.41 89.87 16.72C91.09 18.61 90.25 21.26 90.04 21.66L89.97 21.79C89.75 22.22 89.73 22.32 89.99 22.49C90.63 22.94 90.73 23.4 90.33 24.08L89.93 24.7C89.69 25.07 89.49 25.43 89.37 25.63C88.84 26.6 88.65 26.4 88.53 26.37C88.45 26.37 88.24 26.32 88.18 26L88.08 25.64L87.98 25.18C87.97 25.11 87.97 25.06 87.95 25C87.93 25.03 87.69 25.31 87.69 25.31L87.44 25.67L87.18 26.03C86.33 27.18 85.76 28.12 86.52 29.06C86.88 29.51 87.55 29.56 88.57 29.22C88.57 29.18 88.58 29.14 88.58 29.11C88.69 26.87 90.41 25.2 90.98 24.87L91.34 24.67C91.95 24.34 92.84 23.84 93.22 23.45C93.33 23.18 93.43 22.89 93.56 22.59C93.73 22.18 93.94 21.72 94.11 21.09C94.22 20.69 94.26 20.31 94.26 19.93C94.26 18.45 93.58 17.1 93.13 16.49C93.11 16.46 93.08 16.42 93.06 16.4C93.05 16.45 93.05 16.48 93.05 16.52C93.03 16.65 93.03 16.79 92.99 16.92C92.92 17.18 92.82 17.34 92.65 17.45C92.42 17.58 92.17 17.52 91.95 17.45C90.71 17.07 90.39 16.16 90.23 15.72L90.22 15.7C90.18 15.57 90.15 15.49 90.12 15.43L90.11 15.44C90.01 15.56 89.84 15.72 89.63 15.73C89.49 15.73 89.33 15.67 89.19 15.53C88.97 15.31 88.58 14.67 88.41 14.27C88.35 14.13 88.33 13.94 88.33 13.75C88.33 13.42 88.4 13.06 88.45 12.78L88.49 12.66L88.5 12.53C88.53 12.45 88.54 12.38 88.56 12.31C88.5 12.32 88.45 12.34 88.4 12.35L88.32 12.38C87.91 12.49 87.68 12.52 87.52 12.36C87.37 12.23 87.41 12.05 87.43 11.93L87.44 11.88C87.68 10.62 87.58 10 87.1 9.8C86.64 9.6 86.35 9.28 86.39 9.01C86.41 8.85 86.53 8.74 86.68 8.72C87.8 8.58 88.96 8.04 89.84 7.23L90.04 7.03C90.19 6.88 90.36 6.69 90.53 6.55C90.56 6.52 90.59 6.49 90.63 6.48C90.46 6.34 90.27 6.2 90.04 6.02C89.46 5.52 89.16 4.91 89.22 4.37C89.27 3.98 89.52 3.64 89.89 3.45C90.53 3.14 91.3 3.27 91.84 3.41L91.7 2.95L92.98 2.55L93.26 2.45L93.38 2.88C93.74 2.45 94.27 1.93 94.95 1.82C95.38 1.75 95.76 1.88 96.03 2.16C96.41 2.58 96.51 3.24 96.32 4C96.16 4.67 95.99 5.16 95.84 5.5L95.91 5.5C95.92 5.5 95.94 5.5 95.96 5.52L96.07 5.52C96.19 5.5 96.42 5.47 96.57 5.64C96.71 5.83 96.65 6.07 96.57 6.27C96.66 6.41 96.88 6.66 97.02 6.77C97.17 6.91 97.63 7.36 98.23 7.94C98.97 8.68 99.9 9.58 100.22 9.87C100.85 10.4 100.89 11.04 100.67 11.42C100.48 11.73 100.11 12 99.7 11.89L99.47 11.79C99.46 11.79 99.45 11.77 99.42 11.77C99.43 11.82 99.45 11.86 99.47 11.93C99.5 12 99.58 12.19 99.58 12.36C99.58 12.51 99.53 12.64 99.42 12.73C99.15 12.96 98.51 13.01 98.13 12.79C98 12.72 97.76 12.51 97.38 12.19L96.96 11.83C96.64 11.59 96.04 11.37 95.64 11.32C95.62 11.3 95.58 11.29 95.55 11.29C95.56 11.3 95.58 11.32 95.59 11.32L95.84 11.63C96.19 12.1 96.72 12.82 97.83 13.45L98.54 13.81C99.9 14.5 101.96 15.37 102.93 17.68C103.24 18.4 103.33 19.24 103.2 20.2C103.74 18.65 104.5 17.19 105.46 15.95C106.24 14.93 107.11 14.08 108.06 13.41C108.62 12.16 108.5 10.52 107.83 10C107.66 10.11 107.47 10.18 107.26 10.18C106.74 10.18 106.31 9.76 106.31 9.22C106.31 9.09 106.34 8.97 106.38 8.85C106.28 8.88 106.18 8.9 106.08 8.9C105.46 8.9 104.96 8.39 104.96 7.79C104.96 7.58 105.02 7.39 105.11 7.23C105.03 7.25 104.96 7.26 104.88 7.26C104.15 7.26 103.55 6.66 103.55 5.93C103.55 5.4 103.84 4.96 104.27 4.74C103.72 4.57 103.32 4.05 103.32 3.45C103.32 2.72 103.92 2.12 104.65 2.12C104.88 2.12 105.08 2.18 105.25 2.26C105.2 2.12 105.17 1.95 105.17 1.77C105.17 0.99 105.82 0.34 106.62 0.34C107.15 0.34 107.63 0.65 107.88 1.09C108.01 0.6 108.45 0.26 108.96 0.26C109.53 0.26 110.01 0.7 110.06 1.25C110.23 1.04 110.5 0.92 110.78 0.92C111.18 0.92 111.52 1.16 111.67 1.5L111.89 1.5C112.43 1.5 112.54 1.06 112.54 0.95C112.54 0.59 112.87 0.34 113.34 0.34L114.48 0.34C114.94 0.34 115.27 0.59 115.27 0.95C115.27 1.06 115.37 1.5 115.92 1.5L116.17 1.5C116.31 1.16 116.65 0.92 117.05 0.92C117.34 0.92 117.6 1.04 117.77 1.25C117.84 0.7 118.32 0.26 118.88 0.26C119.4 0.26 119.83 0.6 119.97 1.09C120.21 0.65 120.68 0.34 121.23 0.34C122.02 0.34 122.67 0.99 122.67 1.77C122.67 1.95 122.64 2.12 122.59 2.26C122.77 2.18 122.97 2.12 123.19 2.12C123.92 2.12 124.52 2.72 124.52 3.45C124.52 4.05 124.12 4.57 123.58 4.74C124.01 4.96 124.3 5.4 124.3 5.93C124.3 6.66 123.7 7.26 122.96 7.26C122.89 7.26 122.81 7.25 122.73 7.23C122.82 7.39 122.87 7.58 122.87 7.79C122.87 8.39 122.38 8.9 121.75 8.9C121.66 8.9 121.55 8.88 121.45 8.85C121.51 8.97 121.53 9.09 121.53 9.22C121.53 9.76 121.11 10.18 120.58 10.18C120.39 10.18 120.21 10.13 120.06 10.03C119.42 10.53 119.16 12.12 119.76 13.42C120.69 14.1 121.54 14.94 122.32 15.95L122.57 16.29L122.6 16.3C122.9 16.37 123.22 16.4 123.58 16.39L123.58 16.37C123.58 14.14 125.04 14.06 127.21 13.94L128.32 13.87C130.06 13.74 131.2 12.92 131.7 11.43L131.71 11.37C131.76 11.26 131.77 11.07 131.77 10.89L131.77 10.73C131.29 10.87 130.54 11.06 130.21 11.07C129.82 11.1 129.25 11.19 128.73 11.57C128.63 11.69 128.48 11.8 128.28 11.8C128.1 11.82 127.87 11.75 127.63 11.42C127.4 11.1 127.21 10.87 127.09 10.75L126.98 10.6C126.9 10.49 126.89 10.3 126.96 10.13C127.03 9.94 127.22 9.68 127.73 9.56L128.14 9.47C128.59 9.38 128.62 9.37 128.63 9.08C128.63 9.04 128.63 8.99 128.55 8.94C128.29 8.72 127.56 8.69 127.21 8.78L127.24 8.78C127.06 8.84 126.9 8.84 126.76 8.77C126.54 8.67 126.44 8.41 126.38 8.22C126.34 8.07 126.18 7.55 126.56 7.23C126.63 7.18 126.58 7.03 126.46 6.79C126.46 6.79 126.39 6.63 126.38 6.63C126.33 6.48 126.18 6.13 126.35 5.81C126.45 5.63 126.65 5.49 126.94 5.45C127.35 5.34 127.74 5.37 128.05 5.39C128.26 5.4 128.44 5.42 128.59 5.39C128.73 5.37 128.93 5.27 129.11 5.17C129.39 5.03 129.67 4.89 129.96 4.87C130.24 4.86 130.8 4.87 131.31 4.89L131.97 4.9C132.33 4.9 133.66 4.44 134.05 4.07C134.09 4.01 134.35 3.74 134.67 3.77C134.78 3.78 134.94 3.84 135.07 4.04C135.21 4.24 135.27 4.56 135.33 4.9C135.38 5.22 135.45 5.59 135.59 5.8C135.74 6.07 136 6.32 136.24 6.56C136.42 6.73 136.6 6.91 136.76 7.09C136.92 7.31 137.07 7.66 137.25 8.08C137.44 8.54 137.66 9.05 137.87 9.27C138.41 9.77 139.08 10.3 139.65 10.03L139.64 10.03C139.77 9.96 139.94 9.98 140.04 10.1C140.11 10.18 140.14 10.31 140.14 10.46C140.14 10.62 140.08 10.83 139.94 10.99L139.64 11.27C139.49 11.39 139.21 11.63 139.18 11.75C139.21 11.98 139.26 12.1 139.32 12.21L139.34 12.22C139.38 12.29 139.47 12.45 139.47 12.65C139.47 12.85 139.4 13.1 139.14 13.37C138.91 13.61 138.84 13.71 138.84 13.81C138.84 13.85 138.85 13.91 138.88 13.98L138.89 14.01C138.94 14.14 138.99 14.31 138.99 14.5C138.99 14.68 138.93 14.86 138.71 14.99L138.62 15.03C138.44 15.13 138.35 15.18 138.15 15.23L138.1 15.24C137.8 15.31 137.62 15.41 137.62 15.72L137.62 15.76L137.63 15.96C137.63 16.07 137.65 16.19 137.65 16.27C137.65 16.59 137.56 16.78 137.16 16.91L136.97 16.96C136.67 17.02 136.48 17.06 136.45 17.64L136.44 18.03C136.41 18.8 136.39 19.58 135.68 19.67C135.54 19.68 135.4 19.67 135.27 19.64C135.89 20.94 136.74 22.95 136.86 25.06C136.97 26.96 137.42 27.39 137.72 27.68C137.81 27.78 137.9 27.85 137.96 27.96C138.12 28.19 138.44 29.04 138.52 30.03C138.67 30.53 139.21 30.99 140.14 30.99C141.21 30.99 142.02 29.87 142.02 28.91C142.02 27.86 141.06 27.51 140.55 27.46C139.93 27.39 139.47 27.72 139.47 27.72C139.38 27.79 139.26 27.81 139.16 27.76C139.02 27.71 138.91 27.53 138.88 27.25C138.88 27.21 138.86 27.07 138.86 26.9C138.86 26.4 138.98 25.52 139.72 25.2L139.75 25.2C139.72 25.18 139.71 25.17 139.7 25.14C139.17 24.43 138.16 22.74 137.89 22.22C137.2 20.94 136.84 18.84 137.69 17.22C138.11 16.39 138.81 15.77 139.72 15.4C140.36 15.16 141.28 14.95 142.28 15.33C142.65 15.49 143.05 15.66 143.35 15.69C143.67 15.73 144.08 15.61 144.44 15.53C144.78 15.43 145.08 15.36 145.33 15.38C145.61 15.43 146.05 15.6 146.41 15.75C146.61 15.83 146.83 15.91 146.92 15.93L147.1 15.93C147.4 15.91 147.83 15.9 148.01 16.22C148.06 16.3 148.08 16.4 148.08 16.49C148.08 16.72 147.96 16.95 147.85 17.12C147.76 17.29 147.7 17.51 147.7 17.69C147.7 17.83 147.73 17.98 147.82 18.08ZM146.73 20.53C146.73 20.07 146.53 19.54 146.41 19.31C146.33 19.28 146.27 19.25 146.22 19.24L146.18 19.21C146.17 19.21 146.17 19.21 146.15 19.2C146.1 19.31 146.06 19.61 146.05 19.79C145.96 20.44 145.71 21.5 145.56 21.86L145.51 22.05C145.48 22.25 145.44 22.51 145.18 22.58C144.97 22.65 144.74 22.53 144.38 22.18C144.44 22.99 144.66 23.9 145.08 24.28C145.24 24.41 145.4 24.48 145.59 24.45C145.83 24.44 146.18 24.31 146.35 24.21C146.35 24.21 146.49 24.13 146.53 24.11C146.59 24.08 146.59 24.04 146.54 23.99C146.3 23.91 146.03 23.49 146.03 23.19C146.05 22.59 146.25 21.85 146.66 20.96C146.7 20.83 146.73 20.68 146.73 20.53ZM140.28 24.81C140.28 24.87 140.3 24.9 140.31 24.93C140.32 24.93 140.33 24.94 140.33 24.94C140.36 24.97 140.38 24.98 140.41 25C140.94 25.38 140.97 25.38 140.18 25.59C140.12 25.61 139.99 25.66 139.93 25.68C139.46 25.87 139.4 26.53 139.4 26.92L139.4 27.16C139.65 27.03 140.07 26.87 140.59 26.93C141.53 27.02 142.55 27.68 142.55 28.91C142.55 30.13 141.52 31.5 140.14 31.5C139.44 31.5 138.89 31.29 138.53 30.96C138.49 31.33 138.41 31.7 138.27 32.05L138.33 32.08C139.07 32.37 140.81 33.11 142.34 31.29C142.69 30.86 142.95 30.25 143.09 29.9L143.12 29.84C143.28 29.48 143.68 28.81 143.9 28.64C144.34 28.22 145.36 26.59 145.15 26.25C145.13 26.19 144.8 26.13 144.22 26.37C143.36 26.72 143.64 26.79 143.38 25.79C143.3 25.48 143 24.31 142.99 24.11L142.98 24.08C142.98 24.05 142.96 23.97 142.95 23.91C142.94 23.91 142.92 23.91 142.9 23.94L142.69 24.02C141.87 24.37 141.98 24.28 141.7 23.55C141.61 23.35 141.49 22.95 141.4 22.66L141.34 22.46C141.34 22.46 141.32 22.36 141.31 22.32L141.3 22.33C140.85 22.83 140.7 23.18 140.6 23.49C140.56 23.67 140.53 23.79 140.47 23.98C140.41 24.17 140.28 24.6 140.28 24.81ZM137.1 31.56C135.68 29.55 136.93 30.34 137.53 31.27C137.62 31.39 137.72 31.55 137.83 31.71C138.02 31.22 138.05 30.64 138.01 30.13C137.98 30.01 137.96 29.9 137.96 29.78C137.96 29.77 137.97 29.77 137.97 29.75C137.86 29.01 137.63 28.41 137.52 28.24C137.49 28.18 137.43 28.13 137.36 28.06C137.06 27.78 136.65 27.37 136.44 26.07L136.34 25.09C136.21 22.75 135.11 20.5 134.51 19.3L134.43 19.1C134.41 19.08 134.36 18.97 134.34 18.94C134.33 18.9 134.32 18.87 134.32 18.86C134.28 18.92 134.25 18.99 134.21 19.07C133.79 19.95 133.36 20.11 133.16 20.23L133.1 20.26C132.93 20.36 132.72 20.38 132.54 20.3C132.37 20.24 132.15 20.06 132.05 19.57C131.95 19.17 131.87 18.61 131.84 18.28C131.75 18.34 131.64 18.4 131.54 18.45C131.25 18.65 129.79 19.27 129.78 19.27C129.56 19.37 129 19.42 128.71 19.15C128.63 19.07 128.53 18.94 128.55 18.72C128.32 18.74 128.06 18.75 128.06 18.75L127.92 18.77L127.87 18.77L127.85 18.8C127.55 19.25 127.1 19.93 127.62 21.71C127.66 21.67 127.7 21.64 127.72 21.61C128.03 21.3 129.03 20.97 129.62 20.74C130.06 20.63 130.06 20.73 129.8 20.84C129.21 21.13 128.31 21.78 128.09 21.99C127.8 22.29 127.07 22.65 126.59 22.79C126.05 22.96 125.63 23.08 125.32 23.35C125.18 23.48 124.99 23.65 124.85 23.78C124.54 24.06 124.23 24.34 124.13 24.65L124.11 24.7C123.99 25.09 123.9 25.36 123.95 25.44C124.02 25.56 124.09 25.61 124.19 25.59C124.86 25.41 124.86 25.47 124.69 26.37C124.64 26.56 124.79 26.64 124.89 26.69C125 26.73 125.33 26.83 125.42 26.73C125.7 26.37 125.78 26.37 125.94 26.83C125.98 26.9 126.05 26.98 126.05 26.98C126.16 27.11 126.4 27.25 126.56 27.23C126.73 27.22 126.94 26.81 126.98 26.27C127.05 25.61 127.43 25.47 127.67 25.38L127.82 25.31L128.12 25.17C128.71 24.88 128.78 24.84 129.16 24.58C129.72 24.24 130.35 23.78 130.43 23.67L130.43 23.68C130.51 23.55 130.67 23.52 130.79 23.6C130.91 23.67 130.95 23.83 130.87 23.94C130.85 23.99 130.78 24.05 130.7 24.13C130.76 24.22 130.89 24.35 131 24.37C131.15 24.43 131.54 24.35 131.68 24.18C131.77 24.02 131.86 23.83 131.93 23.64L132.09 23.31C132.26 22.99 133.26 22.72 133.54 22.68C133.78 22.65 133.84 22.69 133.6 22.81C133.42 22.89 132.66 23.44 132.53 23.58L132.41 23.84C132.34 24.04 132.23 24.28 132.1 24.48C131.83 24.86 131.21 24.98 130.87 24.9C130.64 24.83 130.43 24.64 130.29 24.45C129.91 24.72 129.48 25.01 129.45 25.03C129.41 25.06 129.34 25.1 129.28 25.13C129.58 25.38 130.21 25.63 130.98 25.8C131.79 25.97 132.54 26.34 132.93 26.63C133.37 26.93 133.74 27.43 133.96 27.75C134.46 28.44 134.62 28.87 133.68 27.94C133.46 27.72 133.13 27.43 132.81 27.19C132.81 27.23 132.82 27.28 132.82 27.32C132.82 27.75 132.72 28.18 132.54 28.51C132.36 28.82 132.06 30.07 132.06 30.74C132.06 30.86 132.07 30.96 132.09 31.03C132.23 31.55 132.87 33.21 134.01 34.08C135.35 35.1 136.33 35.24 136.52 35.26C136.96 35.28 137.7 35.4 137.99 35.5C138.33 35.61 138.75 36.17 138.79 36.75C138.81 36.85 138.81 36.93 138.81 37.02C138.81 37.94 138.38 38.39 138 38.61C137.36 38.99 136.75 39.78 136.75 40.11L136.75 40.13C136.75 40.39 136.8 40.46 136.94 40.56C136.99 40.6 137.25 40.51 137.32 40.47L137.3 40.47C137.34 40.46 137.37 40.44 137.4 40.41C137.99 40.08 138.02 40.01 137.89 40.77L137.89 40.84C137.89 40.9 137.92 40.97 137.99 41.06C138.06 41.14 138.33 41.43 138.64 41.23L138.75 41.16C139.02 40.7 139.15 40.25 139.44 41.09L139.51 41.16C139.55 41.2 139.71 41.26 139.89 41.23C139.98 41.21 140.15 41.17 140.24 41.03C140.44 40.66 140.56 39.38 140.53 39.01C140.5 38.84 140.44 38.49 140.37 38.16C140.27 37.63 140.21 37.29 140.21 37.13C140.21 37.1 140.21 35.7 140.25 35.36C140.3 34.94 139.68 34.46 139.38 34.25L139.24 34.14C138.33 33.41 137.53 32.18 137.1 31.56ZM139.97 41.74C139.65 41.79 139.32 41.72 139.14 41.53L139.14 41.53C139.04 41.59 138.91 41.69 138.91 41.69C138.4 42 137.87 41.73 137.59 41.39C137.49 41.27 137.42 41.13 137.4 41C137.17 41.09 136.84 41.14 136.64 41C136.54 40.93 136.47 40.84 136.41 40.77L131.59 40.77C131.56 40.78 131.08 41.17 130.61 41.53C131.34 41.78 132.07 42.02 132.78 42.28L132.99 42.36L131.76 46.59L146.99 46.59C146.67 45.98 145.44 43.59 145.44 43.59C145.44 43.59 146.73 41.36 147.09 40.77L140.87 40.77C140.83 40.97 140.76 41.14 140.7 41.27C140.56 41.53 140.29 41.7 139.97 41.74ZM132.36 42.69C126.72 40.64 120.03 39.47 113.95 39.47L113.92 39.47C107.84 39.47 101.16 40.64 95.52 42.67L97.54 49.62C102.6 47.85 108.51 46.83 113.92 46.83L113.95 46.83C119.34 46.83 125.27 47.85 130.32 49.61L132.36 42.69ZM96.12 46.59L94.88 42.35L95.09 42.28C95.81 42 96.54 41.76 97.28 41.53C96.78 41.16 96.28 40.78 96.24 40.77L88.77 40.77C88.56 41.52 87.87 41.55 87.24 41.56L87.13 41.56C86.95 41.57 86.49 41.56 86.25 41.5C85.98 41.46 85.79 41.35 85.69 41.16C85.63 41.06 85.6 40.94 85.6 40.83C85.6 40.81 85.61 40.78 85.62 40.77L80.53 40.77C80.88 41.36 82.16 43.59 82.16 43.59C82.16 43.59 80.93 45.98 80.63 46.59L96.12 46.59ZM85.83 39.54C86.92 39.54 86.52 39.52 86.38 40.13C86.37 40.18 86.35 40.24 86.33 40.28C86.3 40.4 86.05 40.74 86.21 40.84C86.28 40.91 86.59 41.06 87.11 41.05L87.22 41.05C88.04 41.01 88.3 40.97 88.31 40.3C88.34 39.52 88.11 39.34 87.88 39.15L87.8 39.08L87.32 38.67C87.02 38.41 86.71 38.15 86.59 38.05C86.32 37.76 86.21 36.9 86.26 36.46C86.3 36.13 86.37 35.84 86.42 35.64L86.46 35.43C86.53 35.01 87.27 34.87 87.78 34.93C88.18 34.97 88.81 35.04 89.19 34.88C89.46 34.76 89.8 34.52 89.84 34.17C89.39 33.99 89.28 34.06 89.13 34.14C88.85 34.29 88.96 34.4 88.15 34.32C88 34.32 87.64 34.18 87.64 34.04C87.66 33.89 88.18 33.92 88.33 33.94C88.74 33.98 88.65 33.81 88.88 33.69C89.26 33.47 89.59 33.49 90.2 33.75C90.65 33.95 91.56 33.48 91.89 33.08C92.07 32.86 92.24 32.44 92.44 31.92C92.64 31.41 92.89 30.79 93.23 30.17C94.1 28.52 95.43 27.6 97.17 27.46C98.11 27.39 98.94 26.86 99.63 26.27C100.05 25.91 100.95 24.77 101.31 24.05C101.42 23.88 101.5 23.71 101.58 23.54C101.54 23.49 101.48 23.48 101.44 23.46C99.3 22.81 98.6 22.6 98.38 22.56C97.94 22.49 97.21 22.26 96.98 22.02C96.88 21.92 96.88 21.75 96.98 21.64C97.07 21.55 97.24 21.55 97.33 21.64C97.42 21.75 97.98 21.96 98.46 22.05C98.81 22.11 99.83 22.41 101.59 22.96C102.62 23.29 102.41 23.85 102.37 24.24L102.34 24.79C102.3 25.57 102.39 25.99 102.21 26.34C101.98 26.75 101.85 26.99 101.36 27.18C101.07 27.28 100.89 27.22 100.75 27.18C100.65 27.15 100.61 27.13 100.51 27.18C100.11 27.3 100.12 27.33 100.15 27.85L100.17 28.22C100.18 28.38 100.2 28.58 100.31 28.64C100.42 28.71 100.58 28.68 100.66 28.64C100.77 28.59 100.97 28.52 101.31 28.41C101.82 28.24 102.5 27.99 102.8 27.84C102.93 27.76 102.97 27.65 102.97 27.46C102.97 27.37 102.96 27.28 102.95 27.16L102.93 26.87C102.93 26.55 102.81 25.93 102.87 25.1C102.9 24.57 102.96 23.94 103.08 23.4C103.14 23.06 103.2 22.76 103.24 22.53C103.25 22.44 103.26 22.36 103.26 22.29C103.26 22 103.16 21.9 102.9 21.69C102.43 21.3 101.37 20.6 100.35 19.91C98.86 18.94 97.94 18.31 97.72 18.03C97.7 18.01 97.69 17.98 97.67 17.96C97.3 18.28 96.54 18.1 95.93 17.87C95.62 17.75 95.46 17.68 95.32 17.53C95.18 17.79 94.94 17.91 94.61 17.88C94.54 17.88 94.47 17.87 94.42 17.83C94.76 18.81 94.94 20.01 94.62 21.23C94.44 21.89 94.22 22.37 94.03 22.79C93.88 23.12 93.77 23.4 93.67 23.67C93.53 24.04 93.27 24.11 93.12 24.21C92.64 24.5 92.07 24.87 91.59 25.13L91.23 25.33C90.65 25.67 89.2 27.23 89.08 29.14C88.99 31.16 88.85 31.96 88.34 32.79C87.62 33.94 86.36 34.06 85.83 34.11L85.68 34.13L85.5 34.14C85.4 34.14 85.34 34.14 85.32 34.18C85.29 34.21 85.23 34.35 85.23 34.82C85.23 34.98 85.23 35.17 85.25 35.4C85.27 35.66 85.27 35.9 85.27 36.12C85.27 36.96 85.16 37.49 85.07 37.9C85.04 38.08 85.02 38.26 85 38.41C85 38.55 84.97 38.75 84.94 38.91C84.91 39.08 84.83 39.38 84.88 39.45C84.88 39.47 84.91 39.48 84.97 39.5L85.45 39.51C85.59 39.52 85.7 39.52 85.83 39.54ZM88.44 30.77C88.47 30.48 88.5 30.17 88.53 29.78C87.93 29.97 86.79 30.23 86.13 29.4C85.03 28.06 86.07 26.66 86.75 25.73L87.01 25.37L87.25 25.07L87.47 24.68L87.71 24.28C87.8 24.11 87.94 24.06 88.06 24.08C88.27 24.13 88.41 24.28 88.54 25.1L88.63 25.48C88.63 25.48 88.65 25.57 88.69 25.67C88.7 25.74 88.86 25.47 88.88 25.41C89 25.17 89.24 24.8 89.49 24.41L89.87 23.79C89.99 23.61 90.04 23.48 90.04 23.37C90.04 23.21 89.93 23.09 89.69 22.94C89.38 22.72 89.28 22.49 89.28 22.25C89.28 22 89.4 21.76 89.51 21.56L89.57 21.43C89.72 21.13 89.99 20.21 89.99 19.2C89.99 18.45 89.89 17.66 89.43 17.02C88.3 15.41 87.36 14.84 86.3 15.07C85.45 15.27 84.87 15.6 84.31 15.93C83.68 16.29 83.09 16.66 82.19 16.79C81.89 16.82 81.24 17.04 80.8 17.18C81.42 17.46 81.65 17.72 81.78 17.94C81.81 17.98 81.84 18.12 81.81 18.19C81.73 18.52 80.88 19.45 80.5 19.78C80.56 19.79 80.64 19.81 80.74 19.84C80.88 19.88 81.11 19.97 81.26 19.98C81.5 20.01 81.64 20.01 82.05 19.76C82.54 19.42 82.75 19.21 82.97 19.38C83.07 19.45 83.1 19.54 83.1 19.63C83.1 19.74 83.04 19.86 83.01 19.94C82.97 20.03 82.96 20.2 82.96 20.26C82.96 20.29 82.95 20.3 82.95 20.33C82.95 20.61 82.99 20.96 83.07 21.19L83.11 21.31C83.12 21.39 83.15 21.5 83.19 21.59C83.26 21.53 83.4 21.39 83.61 21.03C84.03 20.3 84.06 20.04 84.06 19.88L84.06 19.83C84.17 19.02 85.19 19.25 85.5 19.28C85.54 19.28 85.62 19.3 85.65 19.3C85.65 19.3 85.71 19.28 85.75 19.27C85.73 19.25 85.72 19.25 85.7 19.24C85.36 18.97 85.02 18.25 85.02 17.56C85.02 17.36 85.07 17.21 85.12 17C85.32 16.25 85.77 16.04 86.13 15.99C87.04 15.83 88.12 16.7 88.57 17.34C89.16 18.21 89.29 19.3 89.13 20.03C89 20.6 88.85 20.89 88.63 21.01C88.41 21.14 88.2 21.09 88.05 21.04L87.92 21C87.64 20.94 87.3 21.03 87.09 21.17L86.96 21.26C86.89 21.31 86.72 21.43 86.66 21.5C86.7 21.53 86.76 21.57 86.92 21.61C87.23 21.73 87.44 21.95 87.53 22.22C87.54 22.32 87.56 22.42 87.56 22.53C87.56 23.14 87.11 23.87 86.85 24.2L86.69 24.37C86.69 24.37 86.33 24.87 86.33 24.87C85 26.57 84.53 28.25 85.07 29.34C85.53 30.27 86.77 30.76 88.44 30.77ZM84.72 19.79L84.64 19.79L84.62 19.83L84.62 19.86C84.62 20.13 84.59 20.48 84.1 21.31C83.71 21.96 83.42 22.22 83.1 22.18C82.74 22.13 82.62 21.72 82.56 21.48L82.53 21.37C82.44 21.09 82.35 20.64 82.35 20.29L82.35 20.23C81.79 20.61 81.45 20.56 81.17 20.53L81.17 20.54C81.15 20.73 81.13 20.99 81.13 21.25C81.13 21.56 81.16 21.89 81.3 22.12L81.38 22.22C81.89 23.01 82.35 23.75 82.38 24.18L82.38 24.25C82.38 24.43 82.34 24.58 82.31 24.72C82.28 24.83 82.25 24.94 82.25 25C82.37 25.03 82.41 25.01 82.6 24.61L82.69 24.4C82.92 23.94 83.26 23.29 83.64 22.64L83.9 22.22C84.31 21.63 84.87 20.53 84.72 19.79ZM94.66 17.34C94.86 17.38 94.89 17.32 94.94 17.1C95.06 16.55 94.96 16.26 95.48 16.95C95.66 17.19 95.68 17.21 96.11 17.38C96.83 17.64 97.23 17.64 97.32 17.56C97.39 17.16 97.01 16.75 97.85 17.42C97.97 17.51 98.05 17.62 98.11 17.71C98.19 17.81 98.49 18.02 98.86 18.29L99.36 18.07C99.67 17.87 99.85 17.68 99.89 17.52C99.93 17.28 99.66 16.96 99.39 16.53C98.77 15.53 97.1 15.23 96.04 15.1L95.3 15C93.99 14.74 92.37 14.11 91.41 13.25C89.95 11.95 90.53 9.57 90.69 8.88C90.8 8.54 90.83 8.85 90.8 8.99C90.69 9.63 90.52 11.75 91.75 12.87C92.63 13.65 94.09 14.22 95.32 14.45L96.1 14.58C97.25 14.72 99.05 15 99.8 16.22C100.13 16.72 100.49 17.15 100.39 17.62C100.33 17.94 100.09 18.22 99.64 18.51L99.38 18.64C99.77 18.91 100.21 19.21 100.61 19.47C101.31 19.93 102.01 20.39 102.55 20.79C102.78 19.65 102.74 18.68 102.44 17.88C101.65 15.72 99.67 14.97 98.31 14.28L97.57 13.9C96.36 13.22 95.79 12.45 95.42 11.95L95.19 11.66C94.97 11.4 94.82 11.22 94.74 11.06C94.24 10.26 94.34 9.67 94.37 9.48C94.39 9.3 94.47 9.35 94.51 9.5C94.54 9.64 94.67 10.31 95.18 10.6C95.25 10.62 95.33 10.66 95.41 10.69C95.52 10.73 95.65 10.77 95.72 10.79C96.1 10.86 96.83 11.07 97.28 11.42L97.73 11.79C97.97 11.99 98.29 12.28 98.4 12.34C98.61 12.45 98.95 12.45 99.04 12.31C99.03 12.26 99.01 12.21 98.98 12.1C98.92 11.93 98.86 11.76 98.86 11.6C98.86 11.48 98.9 11.36 98.99 11.27C99.2 11.09 99.48 11.22 99.7 11.32L99.85 11.39C99.97 11.42 100.13 11.29 100.22 11.15C100.29 11.03 100.36 10.66 99.89 10.26C99.54 9.97 98.66 9.09 97.85 8.31C97.32 7.78 96.81 7.28 96.68 7.18C96.66 7.16 95.98 6.55 96.02 6.23C96.02 6.19 96.04 6.16 96.07 6.13C96.08 6.09 96.09 6.06 96.1 6.03L95.84 6.03C95.68 5.99 95.45 5.95 95.13 5.9C95.01 5.87 94.89 5.89 94.77 5.9L94.55 5.95C94.39 5.99 94.23 6.03 94.08 6.07C94.79 6.66 93.5 6.07 93.04 5.96L93.07 5.96C92.49 5.86 92.39 5.95 92.39 5.95C92.32 6.04 92.52 6.5 92.84 6.91C93.01 7.12 92.86 7.28 92.83 7.29C92.65 7.46 92.49 7.31 92.32 7.16C92.22 7.08 92.08 6.95 92.01 6.89C91.74 6.72 91.52 6.63 91.34 6.68C91.03 6.73 90.69 7.09 90.42 7.38L90.21 7.61C89.33 8.39 88.2 8.97 87.08 9.18C87.14 9.22 87.21 9.27 87.31 9.31C87.91 9.57 88.08 10.14 88.08 10.8C88.08 11.16 88.04 11.54 87.97 11.92C88.03 11.91 88.08 11.89 88.18 11.88L88.25 11.84C88.64 11.73 88.85 11.67 89.01 11.84C89.19 12.02 89.13 12.25 89 12.66L88.99 12.75L88.97 12.88C88.93 13.12 88.85 13.48 88.85 13.77C88.85 13.88 88.88 13.99 88.9 14.08C89.04 14.42 89.4 15 89.56 15.16C89.59 15.18 89.59 15.2 89.61 15.2C89.62 15.18 89.64 15.17 89.7 15.1L89.74 15.06C89.77 15.01 89.81 14.97 89.85 14.94L89.84 14.93C90.26 14.47 90.12 13.97 90.61 15.24C90.65 15.31 90.69 15.41 90.72 15.53L90.73 15.56C90.86 15.93 91.12 16.65 92.09 16.95C92.31 17 92.38 17 92.39 16.99C92.41 16.98 92.45 16.92 92.48 16.79C92.5 16.7 92.53 16.57 92.53 16.46C92.53 16.39 92.54 16.32 92.55 16.25C92.68 15.29 92.44 14.78 93.46 16.06C93.49 16.1 93.51 16.11 93.54 16.16L93.55 16.16L93.56 16.17C93.73 16.42 93.93 16.75 94.11 17.13C94.29 17.25 94.47 17.33 94.66 17.34ZM91.11 6.2L91.23 6.16C91.36 6.13 91.49 6.13 91.63 6.16C91.64 6.18 91.66 6.16 91.68 6.15C91.44 6 91.09 5.76 90.61 5.36C90.27 5.08 90.07 4.76 90.07 4.5L90.09 4.47C90.1 4.37 90.16 4.28 90.27 4.23C90.64 4.04 91.23 4.1 92.04 4.38L92.04 4.4C92.3 4.44 92.5 4.47 92.68 4.45L92.74 4.45L93.02 5.36C93.02 5.36 93.03 5.4 93.05 5.47C93.26 5.5 93.5 5.54 93.79 5.6L93.84 5.6C93.79 5.45 93.73 5.27 93.73 5.27C93.73 5.27 93.45 4.45 93.39 4.3C93.53 4.2 93.66 4.08 93.81 3.89C94.3 3.19 94.73 2.81 95.11 2.75C95.26 2.72 95.32 2.8 95.33 2.81C95.42 2.91 95.48 3.08 95.48 3.29C95.48 3.44 95.45 3.59 95.4 3.75C95.14 4.83 94.9 5.26 94.84 5.37C94.88 5.36 94.89 5.36 94.92 5.36C95 5.36 95.09 5.36 95.18 5.37C95.23 5.39 95.27 5.39 95.32 5.4C95.42 5.19 95.62 4.7 95.84 3.87C95.88 3.67 95.91 3.48 95.91 3.29C95.91 2.96 95.82 2.69 95.66 2.51C95.5 2.35 95.28 2.28 95.03 2.32C94.55 2.39 94.05 2.8 93.56 3.5C93.49 3.61 93.38 3.72 93.28 3.83L93.18 3.89C93.18 3.89 92.97 3.22 92.92 3.1C92.82 3.14 92.44 3.25 92.34 3.27C92.38 3.41 92.6 4.08 92.6 4.08L92.48 4.08C92.3 4.08 92.17 4.05 92.09 4.03C91.21 3.71 90.58 3.68 90.12 3.89C89.89 4.01 89.75 4.2 89.73 4.43C89.69 4.8 89.92 5.24 90.38 5.63C90.63 5.84 90.88 6.03 91.11 6.2ZM95 3.65C95.03 3.51 95.05 3.38 95.05 3.29C95.05 3.27 95.04 3.25 95.04 3.22C94.86 3.31 94.57 3.54 94.16 4.14L94.16 4.14L94.15 4.15C94.07 4.25 93.97 4.35 93.89 4.44L94.22 5.46C94.33 5.37 94.42 5.29 94.45 5.2L94.46 5.17L94.47 5.16C94.47 5.16 94.72 4.77 95 3.65ZM92.34 4.96C92.21 4.94 92.07 4.91 91.92 4.89L91.91 4.89L91.89 4.87C91.2 4.63 90.83 4.6 90.64 4.64C90.69 4.73 90.77 4.84 90.93 4.97C91.38 5.34 91.71 5.57 91.92 5.7C91.95 5.69 91.95 5.67 91.96 5.64C92.07 5.49 92.22 5.42 92.45 5.42L92.5 5.42L92.34 4.96ZM108.17 39.08L108.21 39.12C108.23 39.12 108.28 39.2 108.35 39.25C109.37 39.15 110.36 39.06 111.37 39.01L111.14 39.01C108.89 38.35 106.92 36.92 105.39 34.94C104.85 35.5 103.92 36.59 104.02 38.11C104.03 38.26 104.07 38.32 104.12 38.35C104.38 38.56 105.11 38.45 105.65 38.36C105.91 38.32 106.15 38.28 106.35 38.26C107.25 38.22 107.91 38.84 108.17 39.08ZM102.46 39.62C102.6 39.8 102.84 39.95 103.03 40.07C104.55 39.75 106.08 39.52 107.61 39.34C107.27 39.09 106.76 38.77 106.38 38.79C106.21 38.79 105.98 38.84 105.74 38.88C105.02 38.99 104.22 39.12 103.79 38.77C103.6 38.61 103.5 38.39 103.5 38.13C103.37 36.33 104.5 35.1 105.08 34.51C104.77 34.08 104.48 33.62 104.22 33.15L104.2 33.17C103.51 33.81 102.53 34.75 102.09 36.44C102.5 36.69 103.08 37.99 102.96 38.68C102.93 38.92 102.82 39.09 102.66 39.2C102.53 39.28 102.39 39.31 102.26 39.31C102.32 39.44 102.38 39.54 102.46 39.62ZM94.42 29.37L94.27 29.53C94.06 29.78 93.86 30.09 93.69 30.41C93.41 30.96 93.18 31.47 93 31.95L93.07 31.98C93.6 32.2 94.09 32.44 94.84 32.3C95.56 32.18 95.77 32.4 95.85 32.61C95.93 32.86 95.58 33.17 95.48 33.21C95.42 33.28 95.3 33.26 94.69 34.08C94.5 34.31 94.43 34.51 94.47 34.68C94.53 35 94.97 35.23 95.3 35.4L95.35 35.43C95.69 35.6 96.11 35.75 96.53 35.9L97.23 36.17C97.53 36.29 97.76 36.5 97.98 36.69C98.18 36.86 98.39 37.05 98.67 37.2C99.3 37.53 99.5 37.56 99.7 37.51C99.73 37.51 99.76 37.51 99.79 37.49C100.19 37.35 100.15 36.96 100.38 37.86C100.4 37.96 100.41 38.09 100.43 38.22C100.47 38.49 100.81 38.55 101.27 38.61L101.51 38.64L101.66 38.68L101.85 38.72C102.05 38.78 102.28 38.82 102.37 38.77C102.41 38.73 102.44 38.65 102.46 38.59L102.46 38.47C102.46 37.94 102.01 37.08 101.85 36.92L101.58 36.86C101.39 36.8 101.14 36.67 100.84 36.42C100.41 36.06 99.92 35.83 99.46 35.75C98.97 35.7 98.35 35.48 97.42 35.06C97.07 34.9 96.87 34.7 96.79 34.44C96.77 34.38 96.77 34.31 96.77 34.25C96.77 33.98 96.91 33.75 96.97 33.65C97.09 33.51 98.07 32.96 98.23 32.85C98.89 32.49 99.98 31.34 99.92 30.94C99.89 30.78 99.65 30.37 99.44 30L99.19 29.55C98.95 29.14 98.52 29.13 98.2 29.21C97.37 29.4 95.4 29.61 94.42 29.37ZM101.82 24.54L101.83 24.37C101.84 24.31 101.84 24.25 101.84 24.18C101.82 24.22 101.81 24.27 101.78 24.3C101.38 25.07 100.43 26.27 99.97 26.66C99.22 27.32 98.27 27.91 97.21 27.99C96.31 28.06 95.53 28.37 94.89 28.91C95.85 29.01 97.42 28.82 98.08 28.68C98.77 28.52 99.35 28.75 99.66 29.29L99.9 29.72C100.22 30.27 100.41 30.61 100.45 30.87C100.58 31.7 99.02 33.03 98.49 33.32C97.96 33.61 97.5 33.82 97.41 33.95C97.32 34.06 97.27 34.2 97.3 34.29C97.32 34.4 97.45 34.5 97.64 34.58C98.23 34.85 98.97 35.17 99.53 35.24C100.09 35.33 100.66 35.6 101.18 36.01C101.33 36.14 101.47 36.23 101.58 36.29C102.05 34.46 103.1 33.48 103.85 32.78L103.96 32.66C103.33 31.39 102.85 29.98 102.58 28.49C102.25 28.64 101.84 28.78 101.48 28.9C101.21 28.99 100.96 29.08 100.88 29.13C100.66 29.22 100.33 29.26 100.05 29.09C99.92 28.99 99.83 28.88 99.8 28.82C99.73 28.68 99.67 28.49 99.66 28.25L99.65 27.89C99.62 27.33 99.59 26.95 100.33 26.68C100.61 26.57 100.78 26.63 100.91 26.68C101.01 26.72 101.07 26.73 101.19 26.69C101.51 26.57 101.56 26.46 101.77 26.09C101.92 25.79 101.8 24.91 101.82 24.54ZM88.84 40.2L88.84 40.24L96.42 40.24L97.89 41.35C99.34 40.91 100.84 40.53 102.35 40.2C102.23 40.1 102.05 39.96 102.05 39.96C101.88 39.75 101.75 39.5 101.65 39.21L101.42 39.17L101.21 39.14C100.74 39.06 100 38.98 99.92 38.29C99.9 38.25 99.89 38.11 99.87 38.02L99.82 38.02C99.42 38.12 99.06 37.99 98.43 37.66C98.09 37.48 97.84 37.28 97.63 37.09C97.42 36.9 97.24 36.75 97.01 36.64L96.35 36.4C95.92 36.24 95.48 36.09 95.11 35.89L95.05 35.86C94.63 35.64 94.08 35.34 93.96 34.8C93.93 34.72 93.93 34.65 93.93 34.59C93.93 34.32 94.04 34.05 94.27 33.75C94.76 33.12 94.97 32.89 95.13 32.79C95.07 32.81 95.02 32.81 94.93 32.82C94.03 32.96 93.43 32.71 92.86 32.45L92.8 32.44C92.63 32.85 92.48 33.19 92.3 33.41C91.97 33.81 91.08 34.38 90.35 34.32C90.25 34.76 89.89 35.17 89.39 35.37C88.91 35.55 88.33 35.51 87.72 35.44C87.34 35.4 87.04 35.5 86.97 35.55C86.96 35.63 86.93 35.75 86.93 35.75C86.88 35.96 86.82 36.23 86.79 36.53C86.78 36.59 86.77 36.64 86.77 36.72C86.77 37.12 86.89 37.59 86.96 37.68C87.07 37.76 87.38 38.04 87.66 38.26L88.15 38.68L88.23 38.75C88.49 38.97 88.84 39.27 88.84 40.2ZM132.08 28.25C132.13 28.17 132.17 28.06 132.19 27.96C131.44 28.15 129.72 28.47 128.4 28.02L128.26 27.96C128.06 27.86 127.92 27.82 127.79 27.86C127.64 27.92 127.49 28.13 127.34 28.47C126.9 29.51 126.92 30.54 127.4 31.23C127.6 31.52 127.83 31.76 128.05 32C128.39 32.36 128.72 32.71 128.83 33.12C128.93 33.45 128.82 33.67 128.72 33.81C128.4 34.22 127.7 34.28 127.31 34.28L126.88 34.27C126.44 34.25 125.88 34.24 125.32 34.29C125.18 34.31 124.92 34.34 124.74 34.4C124.49 34.45 124.26 34.54 124.05 34.65C123.69 34.84 123.56 35.1 123.66 35.37C123.75 35.61 123.95 35.74 124.02 35.73C124.05 35.71 124.09 35.71 124.13 35.7C124.64 35.66 124.86 35.63 124.54 36.21C124.54 36.21 124.44 36.43 124.44 36.44C124.37 36.56 124.51 36.7 124.64 36.77C124.68 36.8 124.76 36.83 124.91 36.77L124.9 36.77C125.42 36.4 125.34 36.64 125.44 37.06L125.57 37.49C125.58 37.56 125.65 37.65 125.74 37.66C125.8 37.66 125.86 37.65 125.9 37.62C125.98 37.56 126.28 37.15 126.38 37.02C126.73 36.49 127.16 35.86 127.65 35.66C128.23 35.41 129.35 35.06 129.86 35.06L129.98 35.06C130.38 35.06 131.41 35.08 131.59 34.65C131.7 34.37 131.61 34.28 131.44 34.11C131.35 34.01 131.25 33.92 131.19 33.79L131.14 33.71C130.98 33.44 130.6 32.76 130.97 32.01C130.45 31.92 129.95 31.52 129.69 31.32L129.65 31.3C128.66 30.37 129.28 30.48 129.95 31L129.99 31.03C130.3 31.25 130.93 31.69 131.36 31.5C131.43 31.43 131.51 31.36 131.61 31.27C131.61 31.23 131.59 31.2 131.59 31.16C131.4 30.5 131.82 28.75 132.08 28.25ZM120.22 39.34C121.74 39.51 123.26 39.75 124.76 40.05C124.97 39.93 125.28 39.71 125.35 39.62C125.64 39.29 125.79 38.7 125.87 38.18C125.79 38.19 125.72 38.19 125.64 38.18C125.36 38.11 125.13 37.89 125.05 37.63L125.04 37.55C125.01 37.48 124.99 37.37 124.97 37.3C124.69 37.37 124.45 37.32 124.25 37.13C124.31 37.45 124.34 37.78 124.31 38.13C124.3 38.39 124.21 38.61 124.03 38.77C123.59 39.12 122.79 38.99 122.07 38.88C121.83 38.84 121.6 38.79 121.42 38.79C121.01 38.77 120.53 39.09 120.22 39.34ZM103.37 21.43C103.7 21.75 103.8 22.02 103.74 22.6C103.7 22.84 103.64 23.17 103.57 23.51C103.46 24.02 103.4 24.64 103.37 25.13C103.33 25.94 103.43 26.56 103.43 26.87L103.44 27.09C103.49 27.42 103.55 27.96 103.08 28.26C104.15 34.32 108.59 38.89 113.89 38.89C119.49 38.89 124.13 33.79 124.85 27.22C124.82 27.22 124.78 27.21 124.75 27.19C124.25 26.99 124.15 26.69 124.15 26.49C124.15 26.46 124.15 26.43 124.16 26.4C124.16 26.39 124.16 26.37 124.16 26.36C124.16 26.26 124.13 26.12 124.09 26.12C123.89 26.09 123.67 26 123.51 25.71C123.45 25.59 123.43 25.48 123.43 25.37C123.43 25.16 123.51 24.9 123.61 24.54L123.63 24.5C123.77 24.05 124.15 23.69 124.49 23.4L124.76 23.14C124.38 20.63 123.38 18.19 121.9 16.26C119.81 13.52 116.96 12.02 113.89 12.02C110.81 12.02 107.97 13.52 105.89 16.26C104.73 17.75 103.89 19.54 103.37 21.43ZM122.4 34.93C120.87 36.9 118.89 38.35 116.64 39.01L116.47 39.01C117.46 39.06 118.46 39.14 119.46 39.25C119.51 39.2 119.58 39.12 119.63 39.08C119.89 38.84 120.55 38.22 121.45 38.26C121.66 38.28 121.9 38.32 122.16 38.36C122.7 38.45 123.44 38.56 123.69 38.35C123.73 38.32 123.78 38.26 123.79 38.11C123.89 36.57 122.93 35.47 122.4 34.93ZM136.23 40.13C136.22 39.51 137.02 38.58 137.73 38.16C138.15 37.92 138.33 37.46 138.28 36.8C138.25 36.42 137.94 36.04 137.82 36C137.63 35.93 136.95 35.82 136.46 35.77C136.17 35.75 135.1 35.59 133.69 34.5C132.75 33.78 132.12 32.6 131.8 31.8C131.79 31.83 131.76 31.87 131.73 31.89C131.71 31.9 131.69 31.92 131.68 31.92C131.08 32.55 131.39 33.09 131.59 33.44L131.67 33.56C131.68 33.61 131.74 33.67 131.8 33.74C132 33.92 132.32 34.25 132.07 34.85C131.77 35.6 130.56 35.6 129.98 35.59L129.86 35.59C129.48 35.59 128.43 35.89 127.86 36.14C127.49 36.29 127.06 36.92 126.76 37.37L126.44 37.83L126.43 37.85C126.38 38.49 126.2 39.43 125.75 39.96C125.68 40.04 125.58 40.13 125.48 40.2C127.03 40.53 128.54 40.91 130.01 41.36L131.41 40.24L136.23 40.24L136.23 40.13ZM128.34 25.64L128.05 25.79L127.87 25.87C127.64 25.96 127.55 25.99 127.52 26.32C127.44 26.98 127.09 27.71 126.62 27.76C126.25 27.79 125.86 27.56 125.64 27.32C125.64 27.32 125.62 27.28 125.58 27.23C125.52 27.28 125.44 27.28 125.37 27.29C125.15 29.22 124.62 31.05 123.82 32.63L123.97 32.78C124.26 33.06 124.61 33.39 124.96 33.81C125.65 33.71 126.36 33.72 126.89 33.75L127.31 33.75C127.79 33.75 128.17 33.65 128.31 33.49C128.33 33.45 128.36 33.39 128.33 33.26C128.24 32.96 127.97 32.69 127.67 32.36C127.44 32.12 127.19 31.86 126.97 31.53C126.38 30.68 126.34 29.47 126.86 28.26C127.06 27.78 127.3 27.49 127.59 27.37C127.94 27.25 128.25 27.37 128.48 27.48L128.58 27.52C129.91 27.98 131.75 27.55 132.29 27.39C132.29 27.19 132.27 26.98 132.21 26.8C131.86 26.62 131.38 26.41 130.87 26.32C130.29 26.19 129.26 25.91 128.81 25.4L128.8 25.4C128.28 25.67 128.76 25.44 128.34 25.64ZM123.14 34.95C123.2 34.68 123.4 34.41 123.79 34.2C123.98 34.08 124.18 34.01 124.39 33.95C124.11 33.64 123.85 33.38 123.6 33.17L123.57 33.12C123.3 33.61 123.02 34.05 122.71 34.5C122.84 34.61 122.98 34.76 123.14 34.95ZM109.56 9.21L109.53 9.18C109.09 8.85 108.37 8.14 107.46 6.89C106.76 5.93 106.59 4.96 106.98 4.23C107.28 3.68 107.84 3.32 108.57 3.22C109.93 3.05 111.27 3.74 112.05 4.23L111.69 2.22L111.68 2.21C111.55 2.58 111.2 2.84 110.78 2.84C110.32 2.84 109.92 2.49 109.85 2.03C109.64 2.31 109.32 2.49 108.96 2.49C108.57 2.49 108.24 2.29 108.04 2C107.93 2.69 107.34 3.22 106.62 3.22C106.36 3.22 106.14 3.17 105.93 3.05C105.97 3.18 106 3.32 106 3.45C106 3.98 105.7 4.43 105.26 4.64C105.81 4.8 106.22 5.31 106.22 5.93C106.22 6.2 106.12 6.46 105.98 6.68L106.08 6.68C106.7 6.68 107.2 7.18 107.2 7.79C107.2 7.96 107.15 8.14 107.07 8.28C107.14 8.28 107.2 8.27 107.26 8.27C107.78 8.27 108.22 8.69 108.22 9.22C108.22 9.3 108.21 9.37 108.19 9.44C108.24 9.48 108.3 9.57 108.36 9.65C108.76 9.48 109.15 9.34 109.56 9.21ZM107.7 9.22C107.7 8.98 107.5 8.79 107.26 8.79C107.03 8.79 106.83 8.98 106.83 9.22C106.83 9.47 107.03 9.65 107.26 9.65C107.5 9.65 107.7 9.47 107.7 9.22ZM106.67 7.79C106.67 7.46 106.4 7.19 106.08 7.19C105.75 7.19 105.49 7.46 105.49 7.79C105.49 8.11 105.75 8.38 106.08 8.38C106.4 8.38 106.67 8.11 106.67 7.79ZM105.7 5.93C105.7 5.47 105.33 5.11 104.88 5.11C104.43 5.11 104.06 5.47 104.06 5.93C104.06 6.38 104.43 6.73 104.88 6.73C105.33 6.73 105.7 6.38 105.7 5.93ZM104.65 4.27C105.11 4.27 105.47 3.91 105.47 3.45C105.47 3.01 105.11 2.65 104.65 2.65C104.21 2.65 103.85 3.01 103.85 3.45C103.85 3.91 104.21 4.27 104.65 4.27ZM105.7 1.77C105.7 2.29 106.11 2.71 106.62 2.71C107.12 2.71 107.54 2.29 107.54 1.77C107.54 1.27 107.12 0.86 106.62 0.86C106.11 0.86 105.7 1.27 105.7 1.77ZM108.36 1.38C108.36 1.7 108.63 1.96 108.96 1.96C109.27 1.96 109.55 1.7 109.55 1.38C109.55 1.04 109.27 0.77 108.96 0.77C108.63 0.77 108.36 1.04 108.36 1.38ZM110.35 1.88C110.35 2.12 110.55 2.31 110.78 2.31C111.02 2.31 111.22 2.12 111.22 1.88C111.22 1.63 111.02 1.44 110.78 1.44C110.55 1.44 110.35 1.63 110.35 1.88ZM112.17 1.93L113.39 8.53C113.56 8.51 113.73 8.51 113.91 8.51C114.09 8.51 114.26 8.51 114.44 8.53L115.67 1.93C115.03 1.82 114.74 1.32 114.74 0.95C114.74 0.82 114.58 0.8 114.48 0.8L113.34 0.8C113.23 0.8 113.07 0.82 113.07 0.95C113.07 1.32 112.78 1.81 112.17 1.93ZM114.44 8.53L114.45 8.53C114.45 8.53 114.44 8.53 114.44 8.53L114.44 8.53ZM117.69 9.03L117.7 9.01C117.98 8.85 118.82 8.17 119.92 6.66C120.53 5.83 120.7 5.01 120.36 4.4C120.15 4.01 119.73 3.74 119.17 3.67C117.74 3.48 116.24 4.47 115.65 4.86L114.97 8.55C115.89 8.62 116.8 8.78 117.69 9.03ZM110.15 9.03C111.04 8.78 111.94 8.62 112.87 8.55L112.18 4.86C111.59 4.47 110.08 3.48 108.66 3.67C108.1 3.74 107.68 4.01 107.46 4.4C107.14 5.01 107.3 5.83 107.91 6.66C109.02 8.17 109.86 8.85 110.13 9.01L110.15 9.03ZM118.9 11.73C117.33 10.97 115.64 10.59 113.89 10.59C112.16 10.59 110.49 10.97 108.94 11.7C108.94 12.1 108.89 12.52 108.79 12.92C110.34 11.99 112.07 11.5 113.89 11.5C115.71 11.5 117.46 12 119.03 12.96C118.93 12.55 118.89 12.14 118.9 11.73ZM119.29 10.15C117.59 9.41 115.78 9.04 113.91 9.04C112.06 9.04 110.28 9.39 108.59 10.13C108.75 10.42 108.85 10.77 108.9 11.15C110.48 10.43 112.15 10.07 113.89 10.07C115.65 10.07 117.36 10.44 118.95 11.17C119.01 10.8 119.12 10.44 119.29 10.15ZM115.77 4.23C116.55 3.74 117.9 3.05 119.25 3.22C119.99 3.32 120.55 3.68 120.85 4.23C121.24 4.96 121.07 5.93 120.36 6.89C119.46 8.14 118.74 8.85 118.29 9.18L118.27 9.21C118.67 9.34 119.08 9.5 119.46 9.67C119.52 9.61 119.61 9.53 119.65 9.47C119.63 9.39 119.62 9.31 119.62 9.22C119.62 8.69 120.06 8.27 120.58 8.27C120.64 8.27 120.71 8.28 120.77 8.28C120.7 8.14 120.65 7.96 120.65 7.79C120.65 7.18 121.16 6.68 121.75 6.68L121.86 6.68C121.71 6.46 121.63 6.2 121.63 5.93C121.63 5.31 122.03 4.8 122.57 4.64C122.14 4.43 121.84 3.98 121.84 3.45C121.84 3.32 121.87 3.18 121.9 3.05C121.7 3.17 121.47 3.22 121.23 3.22C120.51 3.22 119.9 2.69 119.79 2C119.6 2.29 119.26 2.49 118.88 2.49C118.52 2.49 118.2 2.31 117.99 2.03C117.92 2.49 117.52 2.84 117.05 2.84C116.64 2.84 116.29 2.56 116.15 2.21L116.14 2.22L115.77 4.23ZM116.62 1.88C116.62 2.12 116.81 2.31 117.05 2.31C117.29 2.31 117.48 2.12 117.48 1.88C117.48 1.63 117.29 1.44 117.05 1.44C116.81 1.44 116.62 1.63 116.62 1.88ZM118.29 1.38C118.29 1.7 118.56 1.96 118.88 1.96C119.2 1.96 119.48 1.7 119.48 1.38C119.48 1.04 119.2 0.77 118.88 0.77C118.56 0.77 118.29 1.04 118.29 1.38ZM120.29 1.77C120.29 2.29 120.71 2.71 121.23 2.71C121.74 2.71 122.16 2.29 122.16 1.77C122.16 1.27 121.74 0.86 121.23 0.86C120.71 0.86 120.29 1.27 120.29 1.77ZM122.37 3.45C122.37 3.91 122.74 4.27 123.19 4.27C123.63 4.27 123.99 3.91 123.99 3.45C123.99 3.01 123.63 2.65 123.19 2.65C122.74 2.65 122.37 3.01 122.37 3.45ZM122.96 5.11C122.51 5.11 122.16 5.47 122.16 5.93C122.16 6.38 122.51 6.73 122.96 6.73C123.42 6.73 123.78 6.38 123.78 5.93C123.78 5.47 123.42 5.11 122.96 5.11ZM122.36 7.79C122.36 7.46 122.09 7.19 121.75 7.19C121.44 7.19 121.17 7.46 121.17 7.79C121.17 8.11 121.44 8.38 121.75 8.38C122.09 8.38 122.36 8.11 122.36 7.79ZM121.01 9.22C121.01 8.98 120.82 8.79 120.58 8.79C120.34 8.79 120.14 8.98 120.14 9.22C120.14 9.47 120.34 9.65 120.58 9.65C120.82 9.65 121.01 9.47 121.01 9.22ZM126.86 20.3L124.56 20.16C124.85 21 125.08 21.87 125.23 22.75C125.64 22.51 126.14 22.39 126.43 22.3C126.65 22.22 126.93 22.12 127.16 21.99C126.95 21.3 126.87 20.76 126.86 20.3ZM122.99 16.91C123.52 17.75 123.99 18.67 124.36 19.63L126.89 19.78C126.96 19.33 127.1 19.01 127.24 18.77C127.05 18.72 126.86 18.65 126.7 18.51C126.52 18.35 126.42 18.12 126.38 17.85C126.04 18.21 125.64 18.45 125.2 18.45C124.39 18.44 123.78 17.68 123.62 16.91C123.39 16.92 123.19 16.92 122.99 16.91ZM124.1 16.53C124.1 17.16 124.59 17.91 125.21 17.92C125.74 17.94 126.3 17.18 126.52 16.83C126.8 16.16 127.4 15.73 127.97 15.61C128.65 15.47 131.15 15.21 132.23 15.11C133.02 15.06 134.47 14.74 135.21 13.49C135.47 13.05 136.07 11.04 135.82 9.96C135.57 8.83 135.98 9.44 136.07 9.84C136.35 11.09 135.97 13.24 135.65 13.77C134.79 15.21 133.17 15.56 132.27 15.64C131.18 15.73 128.71 16 128.07 16.12C127.59 16.23 126.88 16.72 126.9 17.68C126.9 17.89 126.96 18.03 127.05 18.12C127.24 18.29 127.61 18.26 127.87 18.24L128.03 18.22L128.53 18.21C129.58 18.11 129.28 17.96 129.1 18.6C129.09 18.61 129.09 18.62 129.09 18.64C129.08 18.71 129.08 18.75 129.08 18.77C129.08 18.86 129.47 18.84 129.58 18.8C129.9 18.65 131.06 18.15 131.25 18.02C131.36 17.95 131.55 17.83 131.55 17.83C133.06 16.62 132.32 17.36 132.34 18.07C132.38 18.55 132.46 19.07 132.55 19.45C132.6 19.7 132.69 19.79 132.74 19.83C132.78 19.84 132.82 19.83 132.86 19.81L132.96 19.76C133.13 19.64 133.36 19.56 133.74 18.85C133.85 18.65 133.91 18.49 133.98 18.37C134.46 17.48 134.35 17.23 134.68 18.25C134.69 18.29 134.77 18.62 134.82 18.72C134.87 18.83 135.18 19.2 135.62 19.15C135.86 19.11 135.89 18.77 135.91 18.01L135.93 17.62C135.98 16.65 136.5 16.52 136.86 16.45L137 16.4C137.07 16.39 137.1 16.37 137.12 16.36C137.12 16.34 137.12 16.33 137.12 16.3C137.12 16.22 137.12 16.1 137.1 15.99L137.1 15.8C137.09 15.77 137.09 15.75 137.09 15.72C137.09 15.18 137.39 14.86 137.98 14.72L138.02 14.72C138.15 14.7 138.2 14.67 138.37 14.57L138.46 14.53C138.46 14.53 138.46 14.51 138.47 14.51L138.47 14.5C138.47 14.41 138.42 14.27 138.4 14.18L138.38 14.14C138.33 14.01 138.3 13.91 138.3 13.8C138.3 13.58 138.42 13.35 138.75 13.01C138.91 12.85 138.95 12.73 138.95 12.66C138.95 12.59 138.92 12.55 138.89 12.51L138.87 12.48C138.79 12.34 138.68 12.12 138.67 11.77L138.67 11.73C138.67 11.42 138.98 11.13 139.29 10.87L139.55 10.64C139.56 10.62 139.56 10.61 139.58 10.6C138.71 10.77 137.85 9.97 137.5 9.64C137.21 9.37 136.99 8.81 136.76 8.28C136.61 7.94 136.46 7.58 136.34 7.42C136.21 7.26 136.06 7.11 135.88 6.93C135.61 6.66 135.33 6.39 135.14 6.07C134.95 5.77 134.88 5.36 134.81 5C134.76 4.73 134.71 4.44 134.62 4.31C134.62 4.31 134.62 4.3 134.61 4.3C134.57 4.3 134.49 4.35 134.43 4.43C133.92 4.94 132.41 5.42 131.97 5.42L131.29 5.4C130.83 5.39 130.25 5.39 129.98 5.39C129.81 5.4 129.58 5.53 129.35 5.64C129.12 5.74 128.89 5.87 128.67 5.9C128.48 5.93 128.25 5.93 128.02 5.92C127.73 5.89 127.4 5.87 127.04 5.95C126.93 5.97 126.84 6.02 126.81 6.07C126.8 6.09 126.8 6.12 126.8 6.15C126.8 6.23 126.85 6.38 126.89 6.45L126.93 6.56C127 6.7 127.12 6.93 127.12 7.18C127.12 7.34 127.06 7.49 126.89 7.64C126.88 7.65 126.83 7.68 126.83 7.79C126.83 7.87 126.85 7.95 126.89 8.08C126.94 8.27 126.98 8.29 126.98 8.31C127 8.31 127.02 8.31 127.06 8.28L127.09 8.28C127.47 8.17 128.42 8.17 128.88 8.53C129.06 8.68 129.16 8.87 129.16 9.08L129.16 9.09C129.13 9.8 128.68 9.9 128.24 9.98L127.87 10.06C127.53 10.14 127.44 10.27 127.44 10.34C127.46 10.37 127.49 10.4 127.49 10.4C127.6 10.53 127.82 10.77 128.06 11.12C128.15 11.25 128.22 11.29 128.26 11.29C128.29 11.29 128.33 11.25 128.34 11.22L128.37 11.19L128.4 11.16C129.12 10.62 129.91 10.57 130.18 10.56C130.51 10.53 131.58 10.26 131.91 10.13L132.23 10L132.27 10.33C132.27 10.42 132.36 11.13 132.21 11.54L132.19 11.6C131.48 13.72 129.71 14.29 128.35 14.4L127.24 14.47C124.98 14.58 124.05 14.64 124.1 16.53ZM147.18 17.68C147.18 17.42 147.25 17.15 147.39 16.88L147.4 16.86C147.54 16.63 147.57 16.52 147.57 16.49L147.56 16.49C147.49 16.45 147.23 16.45 147.12 16.46C146.99 16.46 146.9 16.46 146.81 16.45C146.67 16.42 146.47 16.33 146.21 16.23C145.88 16.1 145.48 15.95 145.26 15.9C145.13 15.89 144.84 15.96 144.58 16.03C144.17 16.14 143.71 16.26 143.29 16.2C142.92 16.16 142.48 15.99 142.08 15.81C140.97 15.46 140.24 15.77 139.82 15.93C139.06 16.26 138.51 16.76 138.15 17.45C137.43 18.85 137.7 20.79 138.35 21.96C138.56 22.37 139.29 23.6 139.81 24.4C139.85 24.21 139.91 24.02 139.97 23.84C140.02 23.67 140.07 23.51 140.08 23.41C140.11 23.21 140.18 23.03 140.28 22.84C138.48 21.29 138.69 19.71 138.81 18.95L138.81 18.94C138.99 17.82 139.47 17.07 140.24 16.7C141.33 16.17 142.63 16.65 142.82 16.75L142.92 16.8C143.15 16.91 143.45 17.06 143.48 17.34L143.48 17.39C143.48 17.56 143.37 17.72 143.18 17.87C142.91 18.17 142.79 18.48 142.79 18.81C142.79 19.67 143.59 20.59 144.43 21.48L144.62 21.67C144.8 21.86 144.92 21.96 145 22.02L145 21.96L145.08 21.66C145.2 21.37 145.44 20.36 145.52 19.72C145.54 19.6 145.56 19.45 145.58 19.34C145.71 18.44 145.36 18.34 146.32 18.71C146.35 18.71 146.37 18.72 146.39 18.74L146.43 18.75C146.6 18.83 146.84 18.94 147.18 18.81C147.38 18.74 147.47 18.65 147.49 18.6L147.49 18.56C147.49 18.51 147.45 18.45 147.42 18.41C147.27 18.22 147.18 17.96 147.18 17.68Z" />
				<path id="Fill-31" fill-rule="evenodd" class="shp0" d="M130.32 6.13C130.53 6.07 131.18 6.09 131.48 6.35C131.59 6.45 131.76 6.53 131.81 6.56C131.86 6.6 131.91 6.72 131.68 6.77C131.47 6.83 131.34 6.86 131.18 6.93C131.01 7 130.71 6.99 130.55 6.88C130.38 6.77 130.09 6.5 130.09 6.38C130.09 6.23 130.25 6.13 130.32 6.13Z" />
				<path id="Fill-32" fill-rule="evenodd" class="shp0" d="M95.16 8.1C95.29 8.15 95.45 8.31 95.82 8.46C96.19 8.62 96.24 8.45 96.35 8.1C96.46 7.73 96.24 7.73 96.11 7.73C95.96 7.73 95.59 7.75 95.33 7.78C94.79 7.84 95.05 8.05 95.16 8.1Z" />
				<path id="Combined-Shape" fill-rule="evenodd" class="shp0" d="M48.04 71.29L50.17 71.29L50.17 71.71L44.07 71.71L44.07 71.29L46.2 71.29L46.2 56.56L44.07 56.56L44.07 56.14L50.54 56.14C51.96 56.14 53.11 56.54 54 57.33C54.89 58.12 55.33 59.14 55.33 60.39C55.33 61.62 54.91 62.55 54.08 63.18C53.25 63.81 52.01 64.13 50.38 64.13L48.04 64.13L48.04 71.29ZM167.29 71.71C167.1 71.79 166.9 71.86 166.69 71.9C166.47 71.95 166.25 71.97 166 71.97C164.83 71.97 164 71.65 163.53 71C163.06 70.35 162.83 69.13 162.83 67.35C162.83 66 162.65 65.11 162.29 64.67C161.93 64.24 161.29 64.02 160.37 64.02L158.05 64.02L158.05 71.29L160.18 71.29L160.18 71.71L154.19 71.71C154.01 71.79 153.81 71.86 153.6 71.9C153.38 71.95 153.15 71.97 152.91 71.97C151.73 71.97 150.91 71.65 150.44 71C149.97 70.35 149.74 69.13 149.74 67.35C149.74 66 149.56 65.11 149.2 64.67C148.84 64.24 148.2 64.02 147.28 64.02L144.96 64.02L144.96 71.29L147.08 71.29L147.08 71.71L140.99 71.71L140.99 71.29L143.12 71.29L143.12 56.56L140.99 56.56L140.99 56.14L148 56.14C149.31 56.14 150.32 56.47 151.03 57.12C151.74 57.77 152.1 58.68 152.1 59.86C152.1 61.01 151.74 61.93 151.02 62.62C150.3 63.31 149.29 63.72 147.98 63.83C148.99 63.89 149.77 64.12 150.33 64.51C150.9 64.9 151.28 65.47 151.48 66.23C151.55 66.48 151.6 66.75 151.63 67.05C151.67 67.34 151.68 67.7 151.68 68.14L151.68 68.76C151.68 69.14 151.69 69.42 151.71 69.6C151.73 69.77 151.75 69.92 151.79 70.06C151.92 70.58 152.09 70.95 152.32 71.17C152.55 71.38 152.87 71.49 153.27 71.49C153.41 71.49 153.56 71.48 153.72 71.44C153.84 71.42 153.96 71.39 154.08 71.35L154.08 71.29L156.21 71.29L156.21 56.56L154.08 56.56L154.08 56.14L161.1 56.14C162.4 56.14 163.41 56.47 164.12 57.12C164.83 57.77 165.19 58.68 165.19 59.86C165.19 61.01 164.83 61.93 164.11 62.62C163.39 63.31 162.38 63.72 161.08 63.83C162.08 63.89 162.86 64.12 163.43 64.51C163.99 64.9 164.37 65.47 164.57 66.23C164.64 66.48 164.69 66.75 164.73 67.05C164.76 67.34 164.77 67.7 164.77 68.14L164.77 68.76C164.77 69.14 164.78 69.42 164.8 69.6C164.82 69.77 164.85 69.92 164.88 70.06C165.01 70.58 165.19 70.95 165.42 71.17C165.64 71.38 165.96 71.49 166.37 71.49C166.5 71.49 166.65 71.48 166.81 71.44C166.93 71.42 167.06 71.39 167.18 71.35L167.18 71.29L169.3 71.29L169.3 56.56L167.18 56.56L167.18 56.14L173.27 56.14L173.27 56.56L171.14 56.56L171.14 71.29L173.27 71.29L173.27 71.71L167.29 71.71ZM48.04 63.71L50.1 63.71C51.46 63.71 52.33 63.49 52.72 63.04C53.11 62.6 53.3 61.59 53.3 60.01C53.3 58.59 53.09 57.66 52.68 57.22C52.27 56.78 51.51 56.56 50.4 56.56L48.04 56.56L48.04 63.71ZM65.67 62.75L65.67 56.56L63.54 56.56L63.54 56.14L69.63 56.14L69.63 56.56L67.48 56.56L67.48 71.29L69.63 71.29L69.63 71.71L63.54 71.71L63.54 71.29L65.67 71.29L65.67 63.17L59.8 63.17L59.8 71.29L61.92 71.29L61.92 71.71L55.83 71.71L55.83 71.29L57.96 71.29L57.96 56.56L55.83 56.56L55.83 56.14L61.92 56.14L61.92 56.56L59.8 56.56L59.8 62.75L65.67 62.75ZM74.36 71.29L76.48 71.29L76.48 71.71L70.39 71.71L70.39 71.29L72.52 71.29L72.52 56.56L70.39 56.56L70.39 56.14L76.48 56.14L76.48 56.56L74.36 56.56L74.36 71.29ZM83.33 56.14L83.33 56.56L81.2 56.56L81.2 71.29L83.13 71.29C84.58 71.29 85.7 70.76 86.5 69.71C87.3 68.65 87.84 66.99 88.12 64.73L88.37 64.73L88.37 71.71L77.24 71.71L77.24 71.29L79.37 71.29L79.37 56.56L77.24 56.56L77.24 56.14L83.33 56.14ZM93.34 71.29L95.46 71.29L95.46 71.71L89.37 71.71L89.37 71.29L91.5 71.29L91.5 56.56L89.37 56.56L89.37 56.14L95.46 56.14L95.46 56.56L93.34 56.56L93.34 71.29ZM102.31 71.29L102.31 71.71L96.22 71.71L96.22 71.29L98.35 71.29L98.35 56.56L96.22 56.56L96.22 56.14L102.69 56.14C104.11 56.14 105.26 56.54 106.15 57.33C107.03 58.12 107.48 59.14 107.48 60.39C107.48 61.62 107.06 62.55 106.23 63.18C105.39 63.81 104.16 64.13 102.53 64.13L100.19 64.13L100.19 71.29L102.31 71.29ZM100.19 63.71L102.25 63.71C103.6 63.71 104.47 63.49 104.86 63.04C105.25 62.6 105.45 61.59 105.45 60.01C105.45 58.59 105.24 57.66 104.83 57.22C104.41 56.78 103.65 56.56 102.55 56.56L100.19 56.56L100.19 63.71ZM119.61 71.71L115.64 56.4L115.64 68.99C115.64 69.81 115.77 70.4 116.02 70.75C116.27 71.11 116.68 71.29 117.24 71.29L117.94 71.29L117.94 71.71L112.95 71.71L112.95 71.29L113.32 71.29C113.96 71.29 114.44 71.11 114.75 70.75C115.07 70.4 115.22 69.86 115.22 69.14L115.22 58C115.22 57.48 115.09 57.11 114.83 56.89C114.56 56.67 114.12 56.56 113.5 56.56L112.95 56.56L112.95 56.14L117.31 56.14L120.46 68.3L123.78 56.14L127.9 56.14L127.9 56.56L125.78 56.56L125.78 71.29L127.9 71.29L127.9 71.71L121.92 71.71L121.92 71.29L124.05 71.29L124.14 56.4L119.96 71.71L119.61 71.71ZM134.54 55.9C135.14 55.9 135.73 56.05 136.3 56.34C136.87 56.63 137.38 57.05 137.84 57.59C138.54 58.43 139.07 59.41 139.43 60.52C139.79 61.64 139.97 62.85 139.97 64.17C139.97 65.33 139.83 66.38 139.54 67.33C139.25 68.28 138.83 69.14 138.26 69.91C137.77 70.56 137.2 71.06 136.55 71.43C135.89 71.79 135.22 71.97 134.54 71.97C133.85 71.97 133.17 71.79 132.51 71.43C131.85 71.06 131.28 70.56 130.79 69.91C130.23 69.14 129.8 68.28 129.51 67.33C129.23 66.38 129.09 65.33 129.09 64.17C129.09 63.29 129.17 62.44 129.34 61.62C129.51 60.81 129.76 60.05 130.09 59.34C130.62 58.24 131.27 57.39 132.04 56.79C132.8 56.2 133.64 55.9 134.54 55.9ZM134.54 71.56C135.1 71.56 135.61 71.39 136.08 71.06C136.54 70.73 136.94 70.24 137.27 69.6C137.49 69.18 137.65 68.62 137.74 67.92C137.84 67.22 137.88 65.89 137.88 63.94C137.88 61.78 137.81 60.31 137.67 59.53C137.53 58.76 137.28 58.13 136.94 57.65C136.64 57.22 136.27 56.89 135.85 56.65C135.42 56.41 134.99 56.29 134.54 56.29C134.07 56.29 133.63 56.41 133.2 56.65C132.77 56.89 132.41 57.22 132.11 57.65C131.76 58.14 131.52 58.77 131.38 59.54C131.24 60.31 131.17 61.78 131.17 63.94L131.17 64.44C131.17 66.12 131.22 67.3 131.31 67.97C131.4 68.64 131.56 69.18 131.78 69.6C132.11 70.24 132.51 70.73 132.98 71.06C133.45 71.39 133.97 71.56 134.54 71.56ZM147.28 56.56L144.96 56.56L144.96 63.63L146.98 63.63C148.22 63.63 149.04 63.38 149.46 62.88C149.87 62.38 150.08 61.39 150.08 59.91C150.08 58.63 149.88 57.75 149.47 57.28C149.07 56.8 148.34 56.56 147.28 56.56ZM160.37 56.56L158.05 56.56L158.05 63.63L160.07 63.63C161.31 63.63 162.14 63.38 162.55 62.88C162.96 62.38 163.17 61.39 163.17 59.91C163.17 58.63 162.97 57.75 162.57 57.28C162.16 56.8 161.43 56.56 160.37 56.56ZM174.4 71.81L174.4 65.19L174.73 65.19C175.02 67.21 175.59 68.78 176.46 69.89C177.33 71 178.4 71.56 179.68 71.56C180.54 71.56 181.26 71.27 181.84 70.69C182.41 70.11 182.7 69.39 182.7 68.51C182.7 67.79 182.49 67.15 182.07 66.6C181.65 66.05 180.87 65.44 179.75 64.77C179.4 64.56 178.89 64.27 178.22 63.93C177.04 63.3 176.23 62.79 175.8 62.39C175.48 62.07 175.23 61.69 175.05 61.25C174.87 60.82 174.78 60.36 174.78 59.88C174.78 58.72 175.12 57.76 175.8 57.02C176.49 56.27 177.36 55.9 178.43 55.9C179.13 55.9 179.76 56.06 180.32 56.39C180.89 56.72 181.44 57.24 181.98 57.96L183.19 55.9L183.32 55.9L183.32 61.87L182.99 61.87C182.64 60.08 182.09 58.7 181.31 57.75C180.54 56.79 179.6 56.32 178.5 56.32C177.66 56.32 176.96 56.56 176.4 57.04C175.85 57.52 175.57 58.12 175.57 58.84C175.57 59.76 176.68 60.83 178.91 62.03C179.35 62.27 179.68 62.45 179.92 62.58C181.35 63.37 182.36 64.13 182.93 64.87C183.51 65.61 183.8 66.47 183.8 67.44C183.8 68.75 183.4 69.83 182.6 70.68C181.8 71.54 180.81 71.97 179.62 71.97C178.89 71.97 178.21 71.78 177.57 71.39C176.93 71 176.34 70.43 175.8 69.68L174.65 71.81L174.4 71.81Z" />
			</g>
		</g>
	</g>
</svg>