<?xml version="1.0" encoding="UTF-8"?>
<svg width="256px" height="100px" viewBox="0 0 256 100" version="1.1" xmlns="http://www.w3.org/2000/svg" xmlns:xlink="http://www.w3.org/1999/xlink">
    <!-- Generator: Sketch 61.2 (89653) - https://sketch.com -->
    <title>logo_leroy_merlin</title>
    <desc>Created with Sketch.</desc>
    <g id="03-what-we-do-(SRC)" stroke="none" stroke-width="1" fill="none" fill-rule="evenodd">
        <g id="Group" fill="#FFFFFF">
            <path d="M127.95118,35.7022668 L189.106539,97 L66.1416346,97 L127.95118,35.7022668 Z M192.781346,68.1082675 L197.580786,72.9579575 L193.480802,87.4598741 L202.781437,78.214235 L206,81.4669348 L191.947857,95.4359283 L187.752009,91.1956746 L191.363794,75.9695518 L182.033867,85.4171502 L178.729203,82.0772609 L192.781346,68.1082675 Z M53.5629652,76.2675974 L64.1639848,87.1582698 L70.1812595,81.2747622 L73.3723058,84.553263 L63.7920659,93.9225687 L50,79.7525058 L53.5629652,76.2675974 Z M71.3174318,58.8741943 L74.0122903,61.6420141 L67.9834763,67.5370877 L70.5487402,70.1723439 L75.54346,65.2879561 L78.3643626,68.18656 L73.3696429,73.0709479 L76.3627467,76.1457101 L82.594829,70.0504567 L85.2914628,72.8209455 L75.4742245,82.4197908 L61.5330359,68.4427902 L71.3174318,58.8741943 Z M186.143615,61.4000189 L189.678176,64.9721168 L175.626033,78.9411102 L172.091472,75.3690124 L186.143615,61.4000189 Z M174.045156,49.1739246 L177.665817,52.8332119 L167.032842,63.4035966 L172.981769,69.4152193 L169.562601,72.813828 L159.9939,63.142918 L174.045156,49.1739246 Z M80.6695496,49.7041787 C83.5810265,47.0537622 86.4898774,48.0395274 87.2472907,48.3674898 L87.4368755,48.4568359 C91.9957667,50.8563248 89.9675217,56.2682978 90.1024421,56.2451659 C90.3473553,56.2026091 93.4486827,57.210564 95.9906025,58.0579147 L99.3365045,59.1864748 L95.6847759,62.7567933 L83.5170813,59.5405707 L91.0442224,67.2728503 L87.3632019,70.8716388 L73.4539682,56.8314704 L80.6695496,49.7041787 Z M159.160411,34.1310776 L167.695018,42.756604 C170.304663,46.5555724 166.973371,49.8100516 166.973371,49.8100516 C163.498282,52.8038522 160.331201,51.055615 160.331201,51.055615 L159.95929,52.2551996 L159.95929,52.2551996 L157.321233,60.4427145 L153.614471,56.6962378 L156.378565,44.0973641 L148.700526,51.7299986 L145.079864,48.071601 L159.160411,34.1310776 Z M85.6136741,53.583219 C84.4172652,52.3531177 82.9792338,53.2238569 82.7368737,53.4271101 L82.1846634,53.9291752 C81.3592521,54.6672803 79.9556866,55.9110538 80.0437672,56.0013913 L83.3635205,59.4124556 C83.3635205,59.4124556 83.6395748,59.2567602 85.6837973,57.2567413 C87.7289073,55.257612 85.6136741,53.583219 85.6136741,53.583219 Z M93.4710153,36.5572571 C96.7783417,33.322351 103.645083,32.8356916 107.604821,36.9033458 C110.831372,40.2192135 112.568473,46.3954285 107.690921,51.1659363 C104.382707,54.4008424 98.2775565,56.3136719 93.1461411,51.0422697 C88.4745203,46.2424022 90.1628013,39.7921632 93.4710153,36.5572571 Z M96.2217948,39.675614 C94.3524364,41.5039231 94.197988,44.1569732 96.7685777,46.7975676 C99.8273665,49.9408357 102.504472,50.5226918 104.694267,48.3812124 C106.884949,46.2397331 106.766894,44.1258341 103.223456,40.4861199 C100.117623,37.2948086 97.5062021,38.4193744 96.2217948,39.675614 Z M162.585793,43.1115896 L160.000114,40.4976859 L160.000114,40.4976859 L156.638642,43.8384648 L159.109816,46.4514789 C160.690693,48.0484691 162.483715,46.842052 162.483715,46.842052 C164.685937,44.7681889 162.873387,43.4016279 162.585793,43.1115896 Z M146.229351,21.0633382 L155.999545,30.9370972 L153.160002,33.7591879 L147.039761,27.574076 L144.750552,29.8490086 L149.577509,34.7280583 L146.622573,37.6658085 L141.824021,32.8161185 L138.752805,35.8695282 L144.816237,41.9968104 L141.918998,44.8767309 L132.177208,35.0323316 L146.229351,21.0633382 Z M113.558186,17.5419526 L116.819355,31.1426151 L122.267656,36.7396432 L118.646107,40.2814916 L112.793932,34.4558137 L100.355509,30.4522171 L104.269977,26.6247788 L111.566334,29.3187544 L109.405831,21.6024892 L113.558186,17.5419526 Z M128.355941,3 L132.953001,7.64684113 L127.891709,17.6327008 L138.211348,12.9609484 L142.637094,17.4334106 L128.584951,31.4024041 L125.194187,27.9753254 L132.611262,20.6024798 L122.464711,25.2172921 L120.36723,23.0971653 L125.083233,12.9360371 L117.521474,20.2216932 L114.303799,16.9689934 L128.355941,3 Z" id="Shape"></path>
        </g>
    </g>
</svg>