<?xml version="1.0" encoding="UTF-8"?>
<svg width="256px" height="50px" viewBox="0 0 256 50" version="1.1" xmlns="http://www.w3.org/2000/svg" xmlns:xlink="http://www.w3.org/1999/xlink">
    <!-- Generator: Sketch 61.2 (89653) - https://sketch.com -->
    <title>logo_oddsfinder</title>
    <desc>Created with Sketch.</desc>
    <g id="03-what-we-do-(SRC)" stroke="none" stroke-width="1" fill="none" fill-rule="evenodd">
        <g id="Group" fill="#FFFFFF" fill-rule="nonzero">
            <path d="M234,41 L234,45 L23,45 L23,41 L234,41 Z M35.336,5.368 C43.0009143,5.368 48.5321233,10.9995829 48.6885935,18.0218219 L48.692,18.4 C48.692,25.564 43.04,31.432 35.264,31.432 C27.5990857,31.432 22.0678767,25.8004171 21.9114065,18.7781781 L21.908,18.4 C21.908,11.236 27.56,5.368 35.336,5.368 Z M209.54,11.344 C215.984,11.344 218.936,16.348 218.936,21.82 C218.936,22.1656 218.91296,22.55728 218.885312,22.958176 L218.864,23.26 L205.436,23.26 C205.976,25.744 207.704,27.04 210.152,27.04 C211.891368,27.04 213.178393,26.523036 214.594659,25.2748401 L214.832,25.06 L217.964,27.832 C216.164,30.064 213.572,31.432 210.08,31.432 C204.382237,31.432 200.145655,27.5007297 200.003679,21.7586102 L200,21.388 C200,15.88 203.924,11.344 209.54,11.344 Z M72.452,4.72 L72.452,31 L66.98,31 L66.98,28.228 C65.648,30.028 63.812,31.36 60.968,31.36 C56.5469474,31.36 52.3343823,27.9547036 52.1879337,21.7244621 L52.184,21.316 C52.184,14.872 56.396,11.344 60.968,11.344 C63.776,11.344 65.5491358,12.5791605 66.8338948,14.0529456 L66.98,14.224 L66.98,4.72 L72.452,4.72 Z M96.752,4.72 L96.752,31 L91.28,31 L91.28,28.228 C89.948,30.028 88.112,31.36 85.268,31.36 C80.8469474,31.36 76.6343823,27.9547036 76.4879337,21.7244621 L76.484,21.316 C76.484,14.872 80.696,11.344 85.268,11.344 C88.076,11.344 89.8491358,12.5791605 91.1338948,14.0529456 L91.28,14.224 L91.28,4.72 L96.752,4.72 Z M108.164,11.416 C110.483158,11.416 112.996177,12.1591357 115.029645,13.4311392 L115.364,13.648 L113.276,17.428 C111.368,16.312 109.46,15.628 108.056,15.628 C106.794105,15.628 106.113795,16.144964 106.045679,16.8421852 L106.04,16.96 L106.04,17.032 C106.04,17.9191429 107.278832,18.4176327 108.878555,18.9664391 L110.562225,19.5406407 C113.038643,20.4140041 115.6545,21.7192756 115.790462,24.8058104 L115.796,25.132 C115.796,29.416 112.592,31.36 108.416,31.36 C105.8285,31.36 102.943437,30.5334375 100.45788,28.6902031 L100.136,28.444 L102.476,24.844 C104.564,26.356 106.76,27.148 108.56,27.148 C110.072,27.148 110.79676,26.6231736 110.859524,25.824006 L110.864,25.708 L110.864,25.636 C110.864,24.6601429 109.600878,24.2186837 107.972525,23.7329805 L106.480206,23.2874558 C103.948428,22.5063946 101.246664,21.2390272 101.113158,17.8712313 L101.108,17.536 C101.108,13.612 104.276,11.416 108.164,11.416 Z M196.04,4.72 L196.04,31 L190.568,31 L190.568,28.228 C189.236,30.028 187.4,31.36 184.556,31.36 C180.134947,31.36 175.922382,27.9547036 175.775934,21.7244621 L175.772,21.316 C175.772,14.872 179.984,11.344 184.556,11.344 C187.364,11.344 189.137136,12.5791605 190.421895,14.0529456 L190.568,14.224 L190.568,4.72 L196.04,4.72 Z M139.484,5.8 L139.484,10.84 L125.84,10.84 L125.84,16.204 L137.864,16.204 L137.864,21.244 L125.84,21.244 L125.84,31 L120.296,31 L120.296,5.8 L139.484,5.8 Z M149.06,11.704 L149.06,31 L143.588,31 L143.588,11.704 L149.06,11.704 Z M165.332,11.344 C169.38575,11.344 171.78275,13.9671875 171.880866,18.2334626 L171.884,18.508 L171.884,31 L166.412,31 L166.412,20.236 C166.412,17.644 165.188,16.312 163.1,16.312 C161.079355,16.312 159.766722,17.5594506 159.684139,19.9890971 L159.68,20.236 L159.68,31 L154.208,31 L154.208,11.704 L159.68,11.704 L159.68,14.44 L159.955799,14.0955466 C161.177306,12.6166735 162.758,11.344 165.332,11.344 Z M234.3414,11.3360401 L234.632,11.344 L234.632,17.068 L234.344,17.068 C230.787043,17.068 228.573707,19.1695595 228.479156,23.5748957 L228.476,23.872 L228.476,31 L223.004,31 L223.004,11.704 L228.476,11.704 L228.476,15.592 C229.558182,13.0087273 231.283537,11.3055868 234.3414,11.3360401 L234.3414,11.3360401 Z M62.372,15.988 C59.8832632,15.988 57.7699584,17.9675512 57.6604554,21.0626209 L57.656,21.388 C57.656,24.592 59.816,26.716 62.372,26.716 C64.8607368,26.716 66.9399114,24.7023186 67.0476181,21.6386846 L67.052,21.316 C67.052,18.112 64.928,15.988 62.372,15.988 Z M86.672,15.988 C84.1832632,15.988 82.0699584,17.9675512 81.9604554,21.0626209 L81.956,21.388 C81.956,24.592 84.116,26.716 86.672,26.716 C89.1607368,26.716 91.2399114,24.7023186 91.3476181,21.6386846 L91.352,21.316 C91.352,18.112 89.228,15.988 86.672,15.988 Z M185.96,15.988 C183.471263,15.988 181.357958,17.9675512 181.248455,21.0626209 L181.244,21.388 C181.244,24.592 183.404,26.716 185.96,26.716 C188.448737,26.716 190.527911,24.7023186 190.635618,21.6386846 L190.64,21.316 C190.64,18.112 188.516,15.988 185.96,15.988 Z M35.264,10.48 C30.8858462,10.48 27.8235828,13.8736124 27.7074226,18.0796674 L27.704,18.4 C27.704,22.72 30.872,26.32 35.336,26.32 C39.7141538,26.32 42.7764172,22.9263876 42.8925774,18.7203326 L42.896,18.4 C42.896,14.08 39.728,10.48 35.264,10.48 Z M209.54,15.736 C207.3476,15.736 205.89528,17.2498 205.410671,19.594508 L205.364,19.84 L213.608,19.84 C213.284,17.392 211.844,15.736 209.54,15.736 Z M149.204,4.72 L149.204,9.58 L143.444,9.58 L143.444,4.72 L149.204,4.72 Z" id="Shape"></path>
        </g>
    </g>
</svg>