<svg xmlns="http://www.w3.org/2000/svg" viewBox="0 0 256 89" width="256" height="89">
	<style>
		tspan { white-space:pre }
		.shp0 { fill: #ffffff } 
	</style>
	<g >
		<g >
			<path fill-rule="evenodd" class="shp0" d="M139.42 23.87C139.37 23.09 139.48 22.49 139.8 21.85C140.09 21.26 140.82 20.45 141.37 20.11C141.6 19.98 141.79 19.85 141.78 19.82C141.78 19.8 141.62 19.68 141.43 19.55C140.45 18.92 140.06 17.46 140.56 16.4C140.79 15.93 141.36 15.34 141.73 15.2C141.89 15.14 142.02 15.07 142.02 15.03C142.02 14.99 141.83 14.75 141.6 14.5C140.64 13.44 140.16 11.91 140.27 10.21C140.33 9.25 140.48 8.68 140.87 7.87C141.46 6.65 142.48 5.76 143.83 5.3C144.72 4.99 146.25 4.94 147.18 5.17C148.15 5.42 148.76 5.77 149.43 6.42C149.74 6.73 150.01 6.99 150.01 6.99C150.02 6.99 150.11 6.84 150.19 6.65C150.69 5.61 151.9 4.88 153.11 4.88L153.52 4.88L153.52 7.77L153.23 7.77C152.79 7.77 152.09 8 151.8 8.25C151.33 8.63 151.28 8.84 151.29 10.24C151.3 12.06 151.04 13.01 150.24 14.16C149.58 15.08 148.39 15.86 147.23 16.11C146.59 16.24 144.98 16.26 144.29 16.14C143.89 16.07 143.77 16.08 143.57 16.18C143.27 16.34 143.18 16.52 143.18 16.97C143.18 17.26 143.22 17.37 143.39 17.55C143.79 17.95 144.25 18.03 146.43 18.11C147.51 18.14 148.65 18.21 148.93 18.26C149.64 18.38 150.64 18.73 151.17 19.05C152.59 19.93 153.41 21.56 153.25 23.21C153 25.76 151.04 27.47 147.83 27.96C147.05 28.07 144.81 28.05 144.08 27.92C141.36 27.42 139.54 25.83 139.42 23.87ZM150.2 23.89C150.44 23.44 150.47 23.32 150.47 22.79C150.47 22.27 150.44 22.16 150.24 21.81C150.08 21.55 149.87 21.34 149.58 21.17C148.78 20.68 148.61 20.66 146.17 20.62L143.95 20.6L143.49 20.85C142.04 21.63 141.66 23.28 142.67 24.42C143.17 24.99 144.07 25.38 145.2 25.53C145.99 25.64 147.06 25.62 147.67 25.51C148.95 25.26 149.74 24.75 150.2 23.89ZM148.43 11.7C149.04 9.47 147.72 7.19 145.8 7.19C145.1 7.19 144.6 7.41 144.07 7.96C142.96 9.09 142.71 10.82 143.42 12.37C144.06 13.74 145.52 14.37 146.77 13.81C147.58 13.44 148.16 12.71 148.43 11.7ZM81.84 17.99C80.91 17.09 80.17 15.78 79.77 14.35C79.5 13.35 79.44 11.54 79.62 10.46C79.98 8.32 81.1 6.64 82.74 5.79C83.63 5.32 84.41 5.11 85.49 5.06C87.49 4.95 89.17 5.62 90.25 6.93C90.73 7.52 91.27 8.61 91.47 9.45C91.66 10.19 91.8 11.6 91.77 12.35L91.74 12.9L87.01 12.92L82.28 12.94L82.34 13.35C82.56 15.34 83.91 16.95 85.73 17.43C86.36 17.59 87.75 17.59 88.53 17.43C88.85 17.36 89.45 17.17 89.85 17C90.25 16.83 90.62 16.68 90.66 16.67C90.71 16.65 91.4 18.57 91.4 18.74C91.4 18.83 90.1 19.35 89.48 19.51C88.29 19.82 86.18 19.91 85.11 19.71C83.81 19.46 82.83 18.95 81.84 17.99ZM88.64 8.8C88.31 8.23 87.93 7.87 87.35 7.57C85.66 6.72 83.48 7.53 82.66 9.31C82.53 9.59 82.41 10 82.38 10.21L82.34 10.59L89.08 10.59L89.08 10.33C89.08 9.94 88.87 9.18 88.64 8.8ZM107.68 18.71C107.68 18.6 108.3 16.75 108.37 16.68C108.4 16.65 108.78 16.76 109.21 16.94C110.33 17.38 111.08 17.56 111.85 17.57C112.94 17.59 113.77 17.3 114.33 16.73C114.86 16.18 115 15.57 114.71 14.98C114.42 14.41 113.96 14.15 111.93 13.45C110.1 12.82 109.35 12.43 108.71 11.8C107.94 11.03 107.67 10.34 107.67 9.15C107.68 6.67 109.45 5.19 112.59 5.06C113.75 5 114.59 5.1 115.51 5.4C116.03 5.56 117.02 6.01 117.02 6.07C117.02 6.08 116.93 6.56 116.82 7.14C116.72 7.72 116.63 8.19 116.63 8.21C116.63 8.22 116.38 8.11 116.07 7.97C114.96 7.45 114.24 7.28 113.16 7.27C112.1 7.27 111.68 7.37 111.14 7.76C110.25 8.41 110.25 9.48 111.13 10.05C111.57 10.32 111.99 10.49 113.58 11C115.59 11.63 116.51 12.19 117.13 13.14C117.6 13.82 117.74 14.38 117.74 15.32C117.73 16.83 117.12 17.97 115.86 18.83C114.65 19.66 112.56 20.01 110.65 19.71C109.5 19.53 107.68 18.92 107.68 18.71ZM163.2 15.89C162.34 13.99 162.28 11.27 163.06 9.27C163.81 7.36 165.21 5.99 167.1 5.34C167.76 5.11 167.94 5.08 168.99 5.05C169.99 5.02 170.25 5.04 170.84 5.18C172.92 5.68 174.5 7.16 175.28 9.32C175.97 11.25 175.94 13.8 175.21 15.72C174.1 18.64 171.15 20.28 168.05 19.71C165.83 19.3 164.16 17.98 163.2 15.89ZM155.91 17.45C155.39 16.37 155.37 16.22 155.37 11.75L155.37 7.77L156.91 7.77L156.91 4.88L155.37 4.88L155.37 0.88L158.15 0.88L158.15 4.88L161.47 4.88L161.47 7.77L158.14 7.77L158.16 11.83C158.19 15.79 158.19 15.88 158.36 16.24C158.61 16.8 159.1 17.29 159.55 17.44C159.93 17.57 160.51 17.56 161.03 17.44C161.19 17.39 161.21 17.45 161.46 18.42C161.61 18.98 161.71 19.45 161.69 19.46C161.43 19.68 159.14 19.81 158.48 19.64C157.39 19.35 156.44 18.55 155.91 17.45ZM66.01 0.18L69.02 0.18L69.03 4.66L69.06 9.14L72.56 4.66L76.07 0.18L77.92 0.18C79.67 0.18 79.76 0.19 79.65 0.32C78.79 1.32 72.38 9.33 72.36 9.42C72.34 9.51 73.69 11.3 76.23 14.55C78.37 17.3 80.13 19.57 80.13 19.6C80.13 19.64 79.22 19.67 78.11 19.66L76.08 19.66L72.61 14.89C70.7 12.27 69.11 10.13 69.08 10.12C69.04 10.12 69.02 12.27 69.02 14.89L69.02 19.67L66.01 19.67L66.01 0.18ZM94.02 7.14L94.24 6.94C95.8 5.5 98.02 4.78 100.5 4.9C101.64 4.95 102.25 5.09 103.1 5.51C104.2 6.04 104.97 6.98 105.36 8.26C105.62 9.15 105.67 10.25 105.67 15.07L105.67 19.67L102.9 19.67L102.9 15.11C102.9 12.6 102.86 10.27 102.83 9.92C102.69 8.69 102.22 7.9 101.37 7.48C100.96 7.28 100.86 7.26 100.04 7.27C98.81 7.27 97.79 7.57 97.05 8.14L96.8 8.33L96.8 19.67L94.02 19.67L94.02 7.14ZM120.26 5.19L123.04 5.19L123.04 19.67L120.26 19.67L120.26 5.19ZM126.12 7.08L126.45 6.82C128.13 5.42 130.2 4.78 132.61 4.9C134.81 5.01 136.33 5.86 137.09 7.41C137.68 8.62 137.65 8.29 137.68 14.29L137.71 19.67L134.92 19.67L134.92 14.74C134.92 11.39 134.89 9.68 134.84 9.4C134.65 8.51 134.16 7.83 133.47 7.48C133.07 7.28 132.96 7.26 132.14 7.26C130.96 7.27 129.97 7.55 129.16 8.11L128.9 8.28L128.9 19.67L126.12 19.67L126.12 7.08ZM177.52 7.1L178.08 6.65C178.77 6.1 180.13 5.41 180.95 5.2C182.36 4.84 184.35 4.79 185.47 5.08C187.42 5.59 188.61 6.86 188.99 8.85C189.07 9.31 189.09 10.46 189.09 14.55L189.09 19.67L186.32 19.67L186.3 14.49L186.28 9.3L186.1 8.86C185.87 8.26 185.41 7.75 184.86 7.48C184.46 7.28 184.36 7.26 183.54 7.26C182.33 7.27 181.3 7.57 180.55 8.14L180.3 8.33L180.3 19.67L177.52 19.67L177.52 7.1ZM120.26 0.88L123.04 0.88L123.04 3.47L120.26 3.47L120.26 0.88ZM171.41 8.23C170.67 7.47 169.65 7.11 168.75 7.29C167.27 7.59 166.1 8.78 165.56 10.55C165.32 11.32 165.26 12.84 165.43 13.69C165.64 14.63 166.16 15.64 166.77 16.31C167.63 17.23 168.37 17.58 169.38 17.53C169.85 17.51 170.09 17.45 170.43 17.29C173.28 15.91 173.84 10.72 171.41 8.23Z" />
			<path class="shp0" d="M107.5 42.1L147.6 42.1L147.6 44.33L107.5 44.33L107.5 42.1Z" />
			<path fill-rule="evenodd" class="shp0" d="M37.73 77.8L37.73 88.72L32.77 88.72L32.77 59.33L43.69 59.33C45.35 59.33 46.83 59.56 48.11 60.02C49.4 60.49 50.49 61.14 51.38 61.97C52.27 62.8 52.94 63.79 53.41 64.94C53.87 66.08 54.11 67.33 54.11 68.67C54.11 70.1 53.87 71.38 53.41 72.51C52.94 73.64 52.27 74.6 51.38 75.38C50.49 76.16 49.4 76.76 48.11 77.17C46.83 77.59 45.35 77.8 43.69 77.8L37.73 77.8ZM37.73 73.7L43.69 73.7C44.64 73.7 45.47 73.58 46.15 73.34C46.84 73.09 47.4 72.75 47.85 72.31C48.29 71.86 48.62 71.33 48.82 70.72C49.02 70.11 49.12 69.44 49.12 68.71C49.12 68.03 49.02 67.37 48.82 66.73C48.62 66.1 48.29 65.54 47.85 65.05C47.4 64.56 46.84 64.17 46.15 63.88C45.47 63.59 44.64 63.44 43.69 63.44L37.73 63.44L37.73 73.7ZM69.09 71.36C68.78 71.3 68.46 71.26 68.14 71.24C67.82 71.21 67.49 71.2 67.15 71.2C66 71.2 65.06 71.43 64.34 71.88C63.62 72.34 63.09 72.97 62.74 73.78L62.74 88.72L57.97 88.72L57.97 66.88L62.52 66.88L62.64 69.32C63.17 68.43 63.84 67.73 64.63 67.23C65.42 66.72 66.35 66.47 67.42 66.47C67.7 66.47 68.01 66.5 68.35 66.56C68.7 66.62 68.95 66.69 69.11 66.75L69.09 71.36ZM81.45 89.13C79.88 89.13 78.47 88.86 77.21 88.32C75.95 87.78 74.89 87.04 74.01 86.1C73.14 85.15 72.46 84.04 71.99 82.75C71.52 81.45 71.29 80.06 71.29 78.57L71.29 77.76C71.29 76.04 71.54 74.48 72.03 73.08C72.53 71.69 73.21 70.51 74.07 69.53C74.93 68.56 75.95 67.8 77.12 67.27C78.29 66.74 79.55 66.47 80.9 66.47C82.44 66.47 83.78 66.74 84.92 67.27C86.06 67.8 87 68.55 87.74 69.5C88.49 70.46 89.04 71.59 89.41 72.91C89.78 74.23 89.96 75.68 89.96 77.25L89.96 79.35L76.09 79.35C76.16 80.2 76.33 80.98 76.61 81.7C76.89 82.41 77.28 83.02 77.76 83.54C78.24 84.06 78.82 84.47 79.48 84.76C80.14 85.06 80.88 85.21 81.72 85.21C82.9 85.21 83.92 84.97 84.79 84.48C85.66 84 86.42 83.33 87.06 82.48L89.63 85.01C89.29 85.53 88.86 86.04 88.36 86.53C87.86 87.02 87.27 87.46 86.6 87.84C85.92 88.23 85.16 88.54 84.31 88.77C83.46 89.01 82.51 89.13 81.45 89.13ZM80.88 70.41C79.57 70.41 78.51 70.88 77.71 71.82C76.91 72.76 76.39 74.08 76.17 75.76L85.25 75.76L85.25 75.4C85.21 74.75 85.11 74.13 84.95 73.53C84.78 72.93 84.53 72.4 84.19 71.93C83.85 71.47 83.41 71.1 82.87 70.82C82.33 70.55 81.66 70.41 80.88 70.41ZM105.55 82.79C105.55 82.44 105.5 82.11 105.38 81.81C105.27 81.5 105.05 81.22 104.73 80.96C104.4 80.7 103.94 80.45 103.35 80.22C102.75 79.99 101.98 79.78 101.02 79.58C99.88 79.33 98.85 79.03 97.91 78.67C96.98 78.3 96.18 77.86 95.51 77.34C94.84 76.83 94.32 76.22 93.95 75.52C93.58 74.82 93.39 74.01 93.39 73.09C93.39 72.21 93.58 71.36 93.96 70.56C94.34 69.76 94.89 69.06 95.6 68.45C96.31 67.85 97.17 67.36 98.19 67.01C99.2 66.65 100.33 66.47 101.59 66.47C102.91 66.47 104.1 66.65 105.15 67.01C106.2 67.36 107.09 67.86 107.83 68.48C108.56 69.11 109.12 69.84 109.5 70.69C109.89 71.54 110.08 72.46 110.08 73.44L105.32 73.44C105.32 73.02 105.24 72.61 105.08 72.22C104.92 71.82 104.69 71.47 104.37 71.16C104.06 70.85 103.67 70.6 103.21 70.42C102.74 70.24 102.2 70.15 101.59 70.15C100.99 70.15 100.47 70.22 100.02 70.38C99.58 70.53 99.21 70.74 98.91 70.98C98.62 71.23 98.4 71.52 98.26 71.85C98.11 72.18 98.04 72.53 98.04 72.89C98.04 73.26 98.11 73.58 98.24 73.86C98.37 74.14 98.6 74.4 98.93 74.63C99.27 74.86 99.71 75.07 100.28 75.26C100.84 75.46 101.54 75.65 102.39 75.84C103.62 76.11 104.72 76.43 105.7 76.79C106.67 77.15 107.5 77.6 108.17 78.12C108.84 78.65 109.36 79.27 109.71 79.98C110.06 80.69 110.24 81.54 110.24 82.52C110.24 83.49 110.04 84.38 109.63 85.19C109.23 86 108.65 86.69 107.9 87.28C107.14 87.86 106.24 88.32 105.18 88.64C104.12 88.96 102.94 89.13 101.65 89.13C100.2 89.13 98.91 88.91 97.79 88.49C96.68 88.07 95.74 87.51 94.98 86.82C94.22 86.14 93.65 85.36 93.26 84.49C92.88 83.62 92.69 82.74 92.69 81.84L97.31 81.84C97.35 82.51 97.5 83.07 97.77 83.53C98.03 83.99 98.36 84.36 98.77 84.64C99.17 84.93 99.63 85.13 100.14 85.26C100.65 85.39 101.17 85.45 101.71 85.45C102.96 85.45 103.92 85.2 104.57 84.71C105.22 84.22 105.55 83.58 105.55 82.79ZM123.73 89.13C122.16 89.13 120.75 88.86 119.5 88.32C118.24 87.78 117.18 87.04 116.3 86.1C115.42 85.15 114.75 84.04 114.28 82.75C113.81 81.45 113.57 80.06 113.57 78.57L113.57 77.76C113.57 76.04 113.82 74.48 114.32 73.08C114.82 71.69 115.5 70.51 116.36 69.53C117.22 68.56 118.24 67.8 119.41 67.27C120.58 66.74 121.84 66.47 123.18 66.47C124.73 66.47 126.07 66.74 127.21 67.27C128.34 67.8 129.28 68.55 130.03 69.5C130.77 70.46 131.33 71.59 131.7 72.91C132.06 74.23 132.25 75.68 132.25 77.25L132.25 79.35L118.38 79.35C118.44 80.2 118.62 80.98 118.9 81.7C119.18 82.41 119.56 83.02 120.05 83.54C120.53 84.06 121.1 84.47 121.76 84.76C122.42 85.06 123.17 85.21 124.01 85.21C125.18 85.21 126.21 84.97 127.08 84.48C127.95 84 128.7 83.33 129.34 82.48L131.91 85.01C131.57 85.53 131.15 86.04 130.65 86.53C130.14 87.02 129.56 87.46 128.88 87.84C128.21 88.23 127.45 88.54 126.6 88.77C125.75 89.01 124.79 89.13 123.73 89.13ZM123.16 70.41C121.86 70.41 120.8 70.88 120 71.82C119.19 72.76 118.68 74.08 118.46 75.76L127.54 75.76L127.54 75.4C127.5 74.75 127.4 74.13 127.23 73.53C127.07 72.93 126.82 72.4 126.48 71.93C126.14 71.47 125.7 71.1 125.16 70.82C124.61 70.55 123.95 70.41 123.16 70.41ZM140.37 66.88L140.5 69.4C141.25 68.47 142.14 67.75 143.19 67.24C144.24 66.73 145.4 66.47 146.68 66.47C147.7 66.47 148.63 66.62 149.46 66.91C150.29 67.2 151 67.66 151.58 68.31C152.17 68.96 152.63 69.8 152.95 70.83C153.27 71.87 153.43 73.13 153.43 74.61L153.43 88.72L148.66 88.72L148.66 74.57C148.66 73.81 148.58 73.18 148.42 72.66C148.25 72.14 148.02 71.72 147.7 71.4C147.39 71.08 147 70.84 146.53 70.7C146.07 70.56 145.54 70.49 144.94 70.49C143.96 70.49 143.1 70.73 142.38 71.22C141.65 71.7 141.07 72.35 140.64 73.18L140.64 88.72L135.87 88.72L135.87 66.88L140.37 66.88ZM164.26 61.57L164.26 66.88L168 66.88L168 70.51L164.26 70.51L164.26 82.7C164.26 83.2 164.31 83.61 164.41 83.92C164.52 84.23 164.67 84.46 164.86 84.63C165.06 84.8 165.29 84.92 165.56 84.98C165.83 85.04 166.13 85.07 166.45 85.07C166.78 85.07 167.1 85.04 167.4 85C167.71 84.95 167.95 84.91 168.12 84.86L168.12 88.66C167.74 88.77 167.3 88.87 166.8 88.97C166.29 89.07 165.69 89.13 164.98 89.13C164.2 89.13 163.47 89.02 162.79 88.8C162.12 88.59 161.54 88.24 161.05 87.75C160.56 87.27 160.18 86.63 159.9 85.85C159.63 85.07 159.49 84.12 159.49 82.99L159.49 70.51L156 70.51L156 66.88L159.49 66.88L159.49 61.57L164.26 61.57ZM188.09 81.88L177.02 81.88L174.71 88.72L169.55 88.72L180.34 59.33L184.79 59.33L195.6 88.72L190.42 88.72L188.09 81.88ZM178.42 77.76L186.69 77.76L182.55 65.56L178.42 77.76ZM203.44 88.72L198.68 88.72L198.68 66.88L203.44 66.88L203.44 88.72ZM198.38 61.2C198.38 60.45 198.61 59.82 199.08 59.33C199.54 58.83 200.21 58.58 201.07 58.58C201.93 58.58 202.6 58.83 203.07 59.33C203.54 59.82 203.78 60.45 203.78 61.2C203.78 61.94 203.54 62.56 203.07 63.05C202.6 63.54 201.93 63.79 201.07 63.79C200.21 63.79 199.54 63.54 199.08 63.05C198.61 62.56 198.38 61.94 198.38 61.2ZM219.74 71.36C219.43 71.3 219.11 71.26 218.79 71.24C218.47 71.21 218.14 71.2 217.8 71.2C216.65 71.2 215.71 71.43 215 71.88C214.28 72.34 213.74 72.97 213.39 73.78L213.39 88.72L208.62 88.72L208.62 66.88L213.17 66.88L213.29 69.32C213.83 68.43 214.49 67.73 215.28 67.23C216.07 66.72 217 66.47 218.07 66.47C218.35 66.47 218.66 66.5 219.01 66.56C219.35 66.62 219.6 66.69 219.76 66.75L219.74 71.36ZM239.92 62.7L237.49 70.23L236.28 70.23L233.84 62.72L233.84 70.23L231.67 70.23L231.67 59.33L234.35 59.33L236.88 67.02L239.49 59.33L242.1 59.33L242.1 70.23L239.92 70.23L239.92 62.7ZM230.22 61.24L227.51 61.24L227.51 70.19L225.21 70.19L225.21 61.24L222.45 61.24L222.45 59.33L230.22 59.33L230.22 61.24Z" />
		</g>
	</g>
</svg>