<?xml version="1.0" encoding="UTF-8"?>
<svg width="256px" height="56px" viewBox="0 0 256 56" version="1.1" xmlns="http://www.w3.org/2000/svg" xmlns:xlink="http://www.w3.org/1999/xlink">
    <!-- Generator: Sketch 61.2 (89653) - https://sketch.com -->
    <title>logo_hex3</title>
    <desc>Created with Sketch.</desc>
    <g id="03-what-we-do-(SRC)" stroke="none" stroke-width="1" fill="none" fill-rule="evenodd">
        <g id="Group" fill="#FFFFFF">
            <path d="M101.711111,24 L112.833333,24 L112.833333,11 L121.933333,11 L121.933333,45 L112.833333,45 L112.833333,32 L101.711111,32 L101.711111,45 L92.6111111,45 L92.6111111,11 L101.711111,11 L101.711111,24 Z M62.2777778,53 C48.3172466,53 37,41.8071187 37,28 C37,14.1928813 48.3172466,3 62.2777778,3 C76.238309,3 87.5555556,14.1928813 87.5555556,28 C87.5555556,41.8071187 76.238309,53 62.2777778,53 Z M43.0666667,28 L52.6722222,44 L71.8833333,44 L81.4888889,28 L71.8833333,12 L52.6722222,12 L43.0666667,28 Z M179.430669,28 L190.688889,45 L179.353801,45 L171.983333,33.8705357 L164.612865,45 L153.277778,45 L164.535997,28 L153.277778,11 L164.612865,11 L171.983333,22.1294643 L179.353801,11 L190.688889,11 L179.430669,28 Z M134.066667,37 L155.3,37 L150.244444,45 L131.033333,45 L124.966667,38 L124.966667,18 L131.033333,11 L150.244444,11 L155.3,19 L134.066667,19 L134.066667,24 L149.233333,24 L149.233333,32 L134.066667,32 L134.066667,37 Z M209.9,37 L209.9,32 L194.733333,32 L194.733333,24 L209.9,24 L209.9,19 L188.666667,19 L193.722222,11 L212.933333,11 L219,18 L219,38 L212.933333,45 L193.722222,45 L188.666667,37 L209.9,37 Z M62.2777778,32 C60.0440928,32 58.2333333,30.209139 58.2333333,28 C58.2333333,25.790861 60.0440928,24 62.2777778,24 C64.5114628,24 66.3222222,25.790861 66.3222222,28 C66.3222222,30.209139 64.5114628,32 62.2777778,32 Z M68.3444444,41 C66.1107595,41 64.3,39.209139 64.3,37 C64.3,34.790861 66.1107595,33 68.3444444,33 C70.5781294,33 72.3888889,34.790861 72.3888889,37 C72.3888889,39.209139 70.5781294,41 68.3444444,41 Z M56.2111111,23 C53.9774261,23 52.1666667,21.209139 52.1666667,19 C52.1666667,16.790861 53.9774261,15 56.2111111,15 C58.4447961,15 60.2555556,16.790861 60.2555556,19 C60.2555556,21.209139 58.4447961,23 56.2111111,23 Z" id="Combined-Shape"></path>
        </g>
    </g>
</svg>