<?xml version="1.0" encoding="UTF-8"?>
<svg width="256px" height="86px" viewBox="0 0 256 86" version="1.1" xmlns="http://www.w3.org/2000/svg" xmlns:xlink="http://www.w3.org/1999/xlink">
    <!-- Generator: Sketch 61.2 (89653) - https://sketch.com -->
    <title>logo_dow</title>
    <desc>Created with Sketch.</desc>
    <g id="03-what-we-do-(SRC)" stroke="none" stroke-width="1" fill="none" fill-rule="evenodd">
        <g id="Group" fill="#FFFFFF">
            <path d="M127.226348,4 L243,42.9833327 L127.226348,83 L13,42.7185586 L127.226348,4 Z M127.470357,31.5121744 C117.32676,31.5121744 110.777272,37.8853582 110.777272,45.6954781 C110.777272,54.3772057 117.389915,59.873057 127.470357,59.873057 C137.549363,59.873057 144.164878,54.3772057 144.164878,45.6954781 C144.164878,37.8610276 137.549363,31.5121744 127.470357,31.5121744 Z M194.280017,33.1466176 L181.673365,33.19671 L181.673365,35.100221 L181.928834,35.1008393 C181.997179,35.1012515 182.05689,35.1019385 182.075262,35.1030834 C183.629743,35.1302765 183.834998,35.5896953 183.834998,36.1521613 L178.908887,49.0287692 L173.335434,33.9981883 L169.170057,34.0139317 L164.802297,34.0139317 L159.64366,48.4405413 L155.451011,36.0963441 L155.50986,36.0963441 C155.50986,35.1302765 156.132801,35.0515598 157.087307,35.0515598 L157.087307,33.2081597 L144.79356,33.2081597 L144.79356,35.0515598 C146.729843,35.0515598 146.606403,35.4938041 146.945145,36.0963441 C146.952322,36.1063625 146.923615,36.1206747 146.920744,36.136418 L154.410384,55.4577702 C154.489329,55.6438277 154.486458,55.8370412 154.486458,56.0560165 C154.486458,57.1222689 153.553482,57.31262 152.458313,57.3383818 L152.458313,59.1445705 L165.900337,59.1960941 L165.900337,57.3941991 L165.884548,57.3941991 C164.476473,57.3941991 163.945394,57.136581 163.945394,56.1161274 C163.945394,55.9629878 163.969795,55.8184355 164.093235,55.6839016 L169.170057,44.6335193 C169.170057,44.6335193 173.509111,55.7125258 173.509111,56.0946592 C173.509111,57.0607268 173.176111,57.3970615 171.977596,57.3970615 L171.977596,59.2003877 L184.436408,59.1002029 L184.436408,57.3484003 C182.54175,57.3484003 182.527396,56.9419363 182.544621,56.1189898 C182.544621,56.1189898 191.549988,36.0305084 191.571518,36.0033153 C191.837057,35.628338 192.313592,35.2805536 193.021218,35.147451 C193.253744,35.100221 194.280017,35.1045147 194.280017,35.1045147 L194.280017,33.1466176 Z M92.7607963,27.0868691 L69.101972,27.0868691 L69.101972,28.6282836 C69.1077134,28.6282836 69.1163255,28.6268524 69.1249376,28.6268524 C70.8803669,28.6268524 72.2740889,29.0748216 72.4448952,29.6344252 L72.4448952,29.6344252 L72.4750374,29.6344252 L72.4750374,29.6816551 C72.4793435,29.7045545 72.5123565,29.7231603 72.5123565,29.7431972 C72.5123565,29.761803 72.4793435,29.7789775 72.4750374,29.8018769 L72.4750374,29.8018769 L72.4750374,55.8284539 L72.3846106,55.8284539 C72.3846106,56.4324251 70.9191213,56.9190369 69.101972,56.9362115 L69.101972,56.9362115 L69.101972,58.6379217 L92.7607963,58.6379217 C97.851972,58.6379217 105.736333,52.3935469 105.736333,43.1178666 C105.736333,34.5391862 98.7648527,27.0868691 92.7607963,27.0868691 L92.7607963,27.0868691 Z M127.493323,38.1258017 C133.187344,38.1258017 136.889104,41.6766368 136.889104,46.067593 C136.889104,50.4585492 133.187344,54.0122468 127.493323,54.0122468 C121.79643,54.0122468 118.0918,50.4585492 118.0918,46.067593 C118.0918,41.6766368 121.79643,38.1258017 127.493323,38.1258017 Z M92.1005367,33.7462952 C94.5234024,33.7462952 99.0131677,36.9865575 99.0246505,42.9833327 C99.0375686,48.7468205 95.1693085,51.7137215 92.1005367,51.7137215 L92.1005367,51.7137215 L79.716363,51.7137215 L79.716363,33.7462952 Z" id="Fill-2"></path>
        </g>
    </g>
</svg>