<?xml version="1.0" encoding="UTF-8"?>
<svg width="256px" height="256px" viewBox="0 0 256 256" version="1.1" xmlns="http://www.w3.org/2000/svg" xmlns:xlink="http://www.w3.org/1999/xlink">
    <!-- Generator: Sketch 46.2 (44496) - http://www.bohemiancoding.com/sketch -->
    <defs></defs>
    <g id="---Logos" stroke="none" stroke-width="1" fill="none" fill-rule="evenodd">
        <g id="Group-2">
            <path d="M144.080567,109.916308 C141.35647,109.415421 139.535262,107.834496 139.419507,105.87008 C139.365488,105.087444 139.481243,104.49264 139.797639,103.850879 C140.090885,103.256075 140.823998,102.44996 141.371904,102.113427 C141.603414,101.980379 141.788622,101.847331 141.780905,101.823851 C141.780905,101.800372 141.618848,101.682977 141.425923,101.549929 C140.453583,100.915994 140.060017,99.4602907 140.561621,98.4037321 C140.785413,97.9263241 141.364187,97.3393471 141.734603,97.1984726 C141.888942,97.1436881 142.020131,97.0654245 142.020131,97.0262927 C142.020131,96.9871609 141.834924,96.7523701 141.603414,96.5019266 C140.638791,95.4375416 140.160337,93.9114014 140.268375,92.2052549 C140.330111,91.2504389 140.476734,90.6791146 140.8703,89.8651732 C141.456791,88.6520873 142.48315,87.7598823 143.833623,87.298127 C144.721077,86.992899 146.24904,86.9381145 147.182795,87.1729053 C148.147419,87.4233488 148.764778,87.7677087 149.428438,88.4172965 C149.744835,88.7303509 150.007212,88.9886208 150.014929,88.9886208 C150.022646,88.9886208 150.107533,88.83992 150.19242,88.6520873 C150.694024,87.6111814 151.897874,86.8755036 153.109441,86.8755036 L153.518441,86.8755036 L153.518441,88.3233802 L153.518441,89.7712569 L153.232913,89.7712569 C152.785328,89.7712569 152.090799,89.9982213 151.797553,90.2486648 C151.334534,90.6321565 151.280515,90.8434682 151.288232,92.2443867 C151.303666,94.0601022 151.041289,95.0070918 150.238722,96.1575667 C149.582778,97.0810772 148.394362,97.8558869 147.229097,98.1063304 C146.588587,98.2393785 144.983454,98.2628576 144.288925,98.1376359 C143.887642,98.0671986 143.771887,98.075025 143.571246,98.1767677 C143.270283,98.3411212 143.177679,98.5211275 143.177679,98.96723 C143.177679,99.2646317 143.216264,99.3742008 143.393755,99.554207 C143.787321,99.9455251 144.25034,100.031615 146.426531,100.109879 C147.514626,100.141184 148.649023,100.211621 148.934551,100.258579 C149.644514,100.375975 150.640005,100.728161 151.172477,101.049042 C152.592403,101.925594 153.410404,103.561303 153.248347,105.212665 C153.001403,107.756232 151.041289,109.470205 147.831022,109.95544 C147.051607,110.072835 144.81368,110.049356 144.080567,109.916308 L144.080567,109.916308 L144.080567,109.916308 Z M147.668966,107.505789 C148.949985,107.255345 149.744835,106.746632 150.200137,105.885732 C150.439364,105.43963 150.470232,105.322234 150.470232,104.790042 C150.470232,104.265676 150.439364,104.156107 150.238722,103.811747 C150.076665,103.553477 149.868307,103.342165 149.582778,103.169985 C148.780212,102.684751 148.610438,102.661272 146.17187,102.62214 L143.949378,102.598661 L143.486359,102.849105 C142.035565,103.631741 141.657433,105.275276 142.668358,106.417925 C143.169962,106.989249 144.07285,107.380567 145.19953,107.529268 C145.986662,107.638837 147.059324,107.623184 147.668966,107.505789 L147.668966,107.505789 L147.668966,107.505789 Z M146.766078,95.8053805 C147.584079,95.4375416 148.162853,94.7096901 148.432947,93.7000896 C149.042589,91.469577 147.715267,89.1921062 145.801455,89.1921062 C145.099209,89.1921062 144.597605,89.4112443 144.065133,89.9590895 C142.961604,91.0860854 142.706943,92.8235373 143.416906,94.3653303 C144.057416,95.7427696 145.515926,96.3688785 146.766078,95.8053805 L146.766078,95.8053805 Z M85.1073545,101.706456 C83.8109008,101.463839 82.8308435,100.947299 81.8353522,99.9924832 C80.9093138,99.0924518 80.1684831,97.7776233 79.7749167,96.3453994 C79.5048222,95.3514516 79.4353693,93.5357361 79.620577,92.4556984 C79.9832754,90.3191021 81.1022384,88.644261 82.7382396,87.7911877 C83.6334101,87.3216061 84.4128257,87.1102944 85.4932039,87.0555099 C87.4919034,86.9537672 89.1742065,87.6190078 90.2545846,88.9338363 C90.7330378,89.5208133 91.2655099,90.6086774 91.4738685,91.4460979 C91.6590762,92.1896021 91.797982,93.598347 91.767114,94.3496775 L91.7439631,94.8975228 L87.0134502,94.9210018 L82.2829374,94.9366546 L82.3369563,95.3514516 C82.5607489,97.3393471 83.9112216,98.9515773 85.7324304,99.4289853 C86.3575064,99.5933388 87.746564,99.5933388 88.5259796,99.4289853 C88.8500931,99.358548 89.452018,99.1707154 89.8533013,98.9985355 C90.2545846,98.8263556 90.617283,98.6776547 90.6558679,98.6698283 C90.7098869,98.6541756 91.3966987,100.571634 91.3966987,100.735987 C91.3966987,100.829904 90.1002449,101.346444 89.475169,101.510797 C88.286753,101.816025 86.1800157,101.909941 85.1073545,101.706456 L85.1073545,101.706456 Z M89.0816027,92.3304766 C89.0816027,91.9391586 88.865527,91.1800017 88.6417344,90.79651 C88.309904,90.2251857 87.9317716,89.8651732 87.3529976,89.5677715 C85.6552606,88.7225246 83.4790703,89.5286397 82.6610697,91.3052234 C82.529881,91.5947988 82.4064092,92.0017695 82.3832582,92.2052549 L82.3446733,92.5887465 L85.7169965,92.5887465 L89.0816027,92.5887465 L89.0816027,92.3304766 L89.0816027,92.3304766 Z M110.65058,101.706456 C109.500749,101.52645 107.679541,100.915994 107.679541,100.712508 C107.679541,100.602939 108.304616,98.7480919 108.366352,98.6776547 C108.39722,98.6463493 108.775353,98.7637447 109.207504,98.9359246 C110.334184,99.3820271 111.082732,99.5620334 111.846713,99.5698598 C112.942525,99.5855125 113.768243,99.3037635 114.331583,98.7324392 C114.864055,98.184594 115.002961,97.5663116 114.709715,96.9793346 C114.41647,96.4080103 113.961168,96.1497404 111.9316,95.4531943 C110.102674,94.8192592 109.34641,94.4279411 108.713617,93.8018323 C107.941918,93.034849 107.671824,92.338303 107.671824,91.1486962 C107.679541,88.6677401 109.454447,87.188558 112.587544,87.0555099 C113.745092,87.0007254 114.586244,87.102468 115.512282,87.3998697 C116.02932,87.5642233 117.017094,88.0103258 117.017094,88.0729367 C117.017094,88.0807631 116.932208,88.558171 116.82417,89.1373217 C116.716132,89.7164723 116.631245,90.1938803 116.631245,90.209533 C116.631245,90.2173594 116.376585,90.1077903 116.067905,89.9669159 C114.964376,89.4503761 114.238979,89.2781962 113.158601,89.2703698 C112.101374,89.2703698 111.67694,89.3721125 111.144468,89.7634305 C110.249297,90.405192 110.249297,91.4774034 111.129034,92.0487277 C111.568902,92.3226503 111.985619,92.4870038 113.583035,92.9957172 C115.589452,93.6296524 116.507773,94.185324 117.132849,95.1401399 C117.595868,95.8210333 117.742491,96.3767048 117.742491,97.3236944 C117.727057,98.8341819 117.117415,99.9690041 115.859546,100.829904 C114.64798,101.659498 112.556676,102.011684 110.65058,101.706456 L110.65058,101.706456 Z M168.049527,101.706456 C165.827035,101.299485 164.160166,99.9846569 163.20326,97.8871923 C162.338957,95.9932132 162.277221,93.2696398 163.056637,91.2660916 C163.805185,89.3564598 165.209676,87.9868467 167.100338,87.3372588 C167.763999,87.1102944 167.94149,87.078989 168.991,87.0476835 C169.986491,87.0242044 170.248869,87.0398572 170.843077,87.1807316 C172.918946,87.6816187 174.500928,89.1608008 175.280344,91.3208762 C175.974873,93.2461608 175.944005,95.7975542 175.210891,97.7150124 C174.099645,100.642071 171.151756,102.27778 168.049527,101.706456 L168.049527,101.706456 Z M158.480464,101.636019 C157.392369,101.35427 156.443179,100.548155 155.910707,99.4524644 C155.385952,98.3724267 155.370518,98.2237258 155.370518,93.7470478 L155.370518,89.7712569 L156.142217,89.7712569 L156.913916,89.7712569 L156.913916,88.3233802 L156.913916,86.8755036 L156.142217,86.8755036 L155.370518,86.8755036 L155.370518,84.8797818 L155.370518,82.8840599 L156.759576,82.8840599 L158.148633,82.8840599 L158.148633,84.8797818 L158.148633,86.8755036 L159.807786,86.8755036 L161.466938,86.8755036 L161.466938,88.3233802 L161.466938,89.7712569 L159.807786,89.7712569 L158.140916,89.7712569 L158.164067,93.8253114 C158.187218,97.7854496 158.187218,97.879366 158.356992,98.2393785 C158.611653,98.8028765 159.097823,99.2881108 159.553125,99.444638 C159.931257,99.5698598 160.510031,99.5620334 161.027069,99.4368116 C161.189126,99.3898535 161.212277,99.4524644 161.459221,100.415107 C161.605843,100.978605 161.706164,101.448186 161.69073,101.463839 C161.428353,101.682977 159.136408,101.808199 158.480464,101.636019 L158.480464,101.636019 Z M66.0078125,91.9235059 L66.0078125,82.1796875 L67.5126249,82.1796875 L69.0174373,82.1796875 L69.0328713,86.6563655 L69.0560222,91.1408699 L72.5595342,86.6641919 L76.0707631,82.1796875 L77.9228399,82.1796875 C79.6745959,82.1796875 79.7594828,82.1875139 79.6514449,82.320562 C78.7948594,83.3223361 72.3820435,91.3287025 72.3588925,91.4226188 C72.3357416,91.5087088 73.6862142,93.3009453 76.2251029,96.5488847 C78.3704252,99.2959372 80.1298981,101.573408 80.1298981,101.604713 C80.1298981,101.636019 79.2192937,101.667324 78.1080476,101.659498 L76.0784801,101.659498 L72.6058361,96.8932446 C70.6997404,94.2714139 69.1100411,92.1269913 69.0791732,92.1191649 C69.0405883,92.1191649 69.0174373,94.2714139 69.0174373,96.8932446 L69.0174373,101.667324 L67.5126249,101.667324 L66.0078125,101.667324 L66.0078125,91.9235059 L66.0078125,91.9235059 Z M94.0204741,95.4062362 L94.0204741,89.1373217 L94.2365498,88.9416627 C95.8030981,87.5016124 98.0178732,86.7815873 100.502743,86.8989827 C101.644857,86.9537672 102.246782,87.0946417 103.103367,87.5094388 C104.19918,88.0416313 104.970878,88.9807945 105.356728,90.2643175 C105.619105,91.1486962 105.673124,92.252213 105.673124,97.0732509 L105.673124,101.667324 L104.284066,101.667324 L102.895009,101.667324 L102.895009,97.1123827 C102.895009,94.6001211 102.864141,92.2678657 102.825556,91.9235059 C102.68665,90.686941 102.215914,89.904305 101.367045,89.4816815 C100.958045,89.2781962 100.857724,89.2625434 100.039724,89.2703698 C98.8127229,89.2703698 97.7940806,89.5677715 97.0532499,90.1390958 L96.7985893,90.3269284 L96.7985893,96.0010395 L96.7985893,101.667324 L95.4095317,101.667324 L94.0204741,101.667324 L94.0204741,95.4062362 L94.0204741,95.4062362 Z M120.258229,94.4279411 L120.258229,87.188558 L121.647286,87.188558 L123.036344,87.188558 L123.036344,94.4279411 L123.036344,101.667324 L121.647286,101.667324 L120.258229,101.667324 L120.258229,94.4279411 L120.258229,94.4279411 Z M126.123139,95.3749307 L126.123139,89.0825372 L126.454969,88.8164409 C128.129555,87.4233488 130.197708,86.7815873 132.605408,86.8989827 C134.812466,87.0085517 136.332712,87.861625 137.088977,89.4112443 C137.675468,90.6243301 137.652317,90.2877966 137.675468,96.2906149 L137.706336,101.667324 L136.309561,101.667324 L134.920504,101.667324 L134.920504,96.7367174 C134.920504,93.3870352 134.889636,91.6808887 134.835617,91.3991398 C134.650409,90.5069347 134.164239,89.8260414 133.46971,89.4816815 C133.068427,89.2781962 132.960389,89.2625434 132.142388,89.2625434 C130.961689,89.2703698 129.966198,89.5521188 129.155914,90.1077903 L128.901254,90.2799703 L128.901254,95.9775605 L128.901254,101.667324 L127.512196,101.667324 L126.123139,101.667324 L126.123139,95.3749307 L126.123139,95.3749307 Z M177.51827,95.3827571 L177.51827,89.0981899 L178.08161,88.6520873 C178.768422,88.0964158 180.126611,87.4076961 180.952329,87.1963844 C182.356821,86.8363718 184.347803,86.7894136 185.466766,87.078989 C187.419164,87.5877024 188.60758,88.8633991 188.985712,90.8512946 C189.070599,91.3130498 189.09375,92.4556984 189.09375,96.5488847 L189.09375,101.667324 L187.704692,101.667324 L186.323352,101.667324 L186.300201,96.4862739 L186.27705,91.2973971 L186.099559,90.8591209 C185.86805,90.2643175 185.40503,89.7477778 184.864841,89.4816815 C184.455841,89.2781962 184.35552,89.2625434 183.53752,89.2625434 C182.325953,89.2703698 181.299593,89.5677715 180.551046,90.1390958 L180.296385,90.3269284 L180.296385,96.0010395 L180.296385,101.667324 L178.907328,101.667324 L177.51827,101.667324 L177.51827,95.3827571 L177.51827,95.3827571 Z M120.258229,84.1754093 L120.258229,82.8840599 L121.647286,82.8840599 L123.036344,82.8840599 L123.036344,84.1754093 L123.036344,85.4667588 L121.647286,85.4667588 L120.258229,85.4667588 L120.258229,84.1754093 L120.258229,84.1754093 Z M170.434076,99.2881108 C173.281644,97.9106714 173.844984,92.7217946 171.414134,90.2330121 C170.665586,89.4660288 169.646944,89.1060162 168.751773,89.2938489 C167.270112,89.5912506 166.104847,90.7808573 165.556941,92.5496147 C165.317714,93.3244244 165.255978,94.8427382 165.433469,95.6879851 C165.641827,96.6271483 166.158866,97.6445752 166.768508,98.3098158 C167.625093,99.2254999 168.365924,99.5776861 169.376849,99.530728 C169.847585,99.5072489 170.094529,99.4524644 170.434076,99.2881108 L170.434076,99.2881108 Z" id="Combined-Shape" fill="#1F1F1F"></path>
            <rect id="Rectangle-47" fill="#1F1F1F" x="107.497656" y="124.099466" width="40.10625" height="2.22637195"></rect>
            <path d="M37.7278654,159.798631 L37.7278654,170.721208 L32.765625,170.721208 L32.765625,141.32514 L43.6903994,141.32514 C45.3510257,141.32514 46.8252998,141.557319 48.1132659,142.021682 C49.401232,142.486045 50.4897758,143.135471 51.37893,143.969979 C52.2680843,144.804487 52.9447467,145.793768 53.4089375,146.937851 C53.8731283,148.081935 54.1052202,149.326948 54.1052202,150.672928 C54.1052202,152.099668 53.8731283,153.37833 53.4089375,154.508954 C52.9447467,155.639577 52.2680843,156.595209 51.37893,157.375878 C50.4897758,158.156547 49.401232,158.755499 48.1132659,159.172753 C46.8252998,159.590007 45.3510257,159.798631 43.6903994,159.798631 L37.7278654,159.798631 Z M37.7278654,155.70014 L43.6903994,155.70014 C44.6449326,155.70014 45.4654266,155.579004 46.151906,155.336728 C46.8383854,155.094451 47.4039052,154.751231 47.8484823,154.307058 C48.2930594,153.862884 48.6166806,153.334595 48.8193554,152.722173 C49.0220303,152.109752 49.1233662,151.440137 49.1233662,150.713308 C49.1233662,150.026858 49.0220303,149.367337 48.8193554,148.734726 C48.6166806,148.102115 48.2930594,147.540177 47.8484823,147.048894 C47.4039052,146.557611 46.8383854,146.167283 46.151906,145.877897 C45.4654266,145.588511 44.6449326,145.44382 43.6903994,145.44382 L37.7278654,145.44382 L37.7278654,155.70014 Z M69.0900095,153.358146 C68.7761904,153.304307 68.4591071,153.263928 68.13875,153.237008 C67.818393,153.210089 67.488234,153.196629 67.1482633,153.196629 C65.9975931,153.196629 65.0626876,153.425442 64.3435187,153.883076 C63.6243498,154.340709 63.0882501,154.973311 62.7352036,155.780899 L62.7352036,170.721208 L57.9690992,170.721208 L57.9690992,148.876053 L62.519454,148.876053 L62.6371356,151.318996 C63.1732433,150.430649 63.8368301,149.734114 64.6279159,149.229371 C65.4190016,148.724629 66.3506383,148.472261 67.4228537,148.472261 C67.6974454,148.472261 68.007991,148.502545 68.3544996,148.563114 C68.7010082,148.623684 68.9527136,148.687617 69.1096231,148.754916 L69.0900095,153.358146 Z M81.4465766,171.125 C79.8774809,171.125 78.4653159,170.855808 77.2100394,170.317416 C75.9547628,169.779024 74.8891012,169.038745 74.0130228,168.096559 C73.1369443,167.154373 72.4635509,166.037226 71.9928221,164.745084 C71.5220934,163.452943 71.2867326,162.059874 71.2867326,160.565836 L71.2867326,159.758251 C71.2867326,158.035396 71.535169,156.477447 72.0320493,155.084357 C72.5289296,153.691268 73.2088609,152.506823 74.0718636,151.530987 C74.9348662,150.555151 75.9514943,149.801413 77.1217782,149.269751 C78.2920621,148.738088 79.5505887,148.472261 80.8973959,148.472261 C82.44034,148.472261 83.7805892,148.738088 84.9181836,149.269751 C86.055778,149.801413 86.9972213,150.545056 87.7425418,151.500702 C88.4878623,152.456348 89.0435753,153.593685 89.4096977,154.912746 C89.77582,156.231807 89.9588784,157.678714 89.9588784,159.253511 L89.9588784,161.35323 L76.0920642,161.35323 C76.1574432,162.201198 76.3306949,162.981855 76.6118246,163.695225 C76.8929542,164.408594 77.2754156,165.024371 77.7592201,165.542574 C78.2430246,166.060776 78.8150822,166.467929 79.47541,166.764045 C80.1357378,167.060161 80.884316,167.208216 81.721167,167.208216 C82.8979888,167.208216 83.9211546,166.965943 84.7906952,166.48139 C85.6602357,165.996837 86.4153517,165.330587 87.0560658,164.482619 L89.6254472,167.00632 C89.2854765,167.531253 88.8637884,168.039353 88.3603701,168.530636 C87.8569519,169.021918 87.2685499,169.459356 86.5951463,169.84296 C85.9217427,170.226564 85.1600889,170.536135 84.310162,170.771682 C83.4602352,171.007228 82.5057163,171.125 81.4465766,171.125 Z M80.8777823,152.409235 C79.5702025,152.409235 78.5143477,152.880321 77.7101861,153.822507 C76.9060246,154.764693 76.3928072,156.077005 76.1705186,157.75948 L85.2516148,157.75948 L85.2516148,157.396067 C85.2123874,156.749997 85.1110515,156.12749 84.947604,155.528529 C84.7841565,154.929567 84.5324512,154.397913 84.1924804,153.93355 C83.8525097,153.469187 83.4112081,153.099047 82.8685625,152.823121 C82.3259169,152.547195 81.6623301,152.409235 80.8777823,152.409235 Z M105.551689,164.785463 C105.551689,164.435509 105.496118,164.109113 105.384974,163.806268 C105.273829,163.503422 105.054813,163.22077 104.727918,162.958304 C104.401023,162.695838 103.940108,162.4502 103.345159,162.221383 C102.750211,161.992567 101.975481,161.777213 101.020948,161.575316 C99.8833536,161.33304 98.8471122,161.030198 97.9121926,160.666784 C96.9772731,160.303369 96.1763925,159.862567 95.5095268,159.344364 C94.8426611,158.826162 94.322906,158.217115 93.9502457,157.517205 C93.5775855,156.817295 93.3912582,156.009719 93.3912582,155.094452 C93.3912582,154.206105 93.5808544,153.361515 93.9600525,152.560657 C94.3392507,151.759798 94.885157,151.056534 95.597788,150.450843 C96.310419,149.845151 97.1734087,149.363971 98.186783,149.007286 C99.2001573,148.650601 100.334466,148.472261 101.589742,148.472261 C102.910398,148.472261 104.097009,148.650601 105.149611,149.007286 C106.202212,149.363971 107.094622,149.855246 107.826867,150.481127 C108.559111,151.107008 109.118093,151.843921 109.503829,152.691889 C109.889565,153.539857 110.082431,154.45511 110.082431,155.437676 L105.316326,155.437676 C105.316326,155.020422 105.237872,154.613269 105.080963,154.216204 C104.924053,153.81914 104.688693,153.465826 104.374873,153.15625 C104.061054,152.846674 103.672055,152.601037 103.207864,152.419329 C102.743673,152.237622 102.204305,152.14677 101.589742,152.14677 C100.988256,152.14677 100.465232,152.224162 100.020654,152.37895 C99.5760774,152.533738 99.2066916,152.735632 98.9124862,152.984638 C98.6182807,153.233645 98.3992644,153.523026 98.2554306,153.852791 C98.1115968,154.182557 98.039681,154.529141 98.039681,154.892556 C98.039681,155.255971 98.105059,155.579001 98.235817,155.861657 C98.366575,156.144313 98.5986669,156.400046 98.9320998,156.628862 C99.2655326,156.857679 99.713372,157.069668 100.275631,157.264835 C100.837891,157.460002 101.543973,157.651801 102.3939,157.840239 C103.623025,158.109435 104.724644,158.425736 105.698791,158.78915 C106.672938,159.152565 107.496701,159.596732 108.170105,160.121664 C108.843508,160.646597 109.356726,161.265738 109.709772,161.979108 C110.062819,162.692478 110.239339,163.540433 110.239339,164.522999 C110.239339,165.492105 110.036668,166.380438 109.631318,167.188027 C109.225968,167.995615 108.647373,168.692149 107.895514,169.277651 C107.143656,169.863153 106.238171,170.317414 105.179031,170.640449 C104.119891,170.963485 102.943087,171.125 101.648583,171.125 C100.19717,171.125 98.9124918,170.913011 97.794511,170.489027 C96.6765303,170.065044 95.7383559,169.509835 94.9799597,168.823385 C94.2215634,168.136935 93.6495058,167.359643 93.2637698,166.491485 C92.8780337,165.623328 92.6851686,164.738359 92.6851686,163.836552 L97.3139779,163.836552 C97.3532053,164.509542 97.5035747,165.074846 97.7650906,165.532479 C98.0266066,165.990112 98.3600344,166.360251 98.7653842,166.642907 C99.1707339,166.925563 99.62838,167.130822 100.138336,167.25869 C100.648292,167.386558 101.171316,167.450492 101.707424,167.450492 C102.962701,167.450492 103.917219,167.204854 104.571009,166.713571 C105.224799,166.222288 105.551689,165.579592 105.551689,164.785463 Z M123.733495,171.125 C122.164399,171.125 120.752234,170.855808 119.496958,170.317416 C118.241681,169.779024 117.17602,169.038745 116.299941,168.096559 C115.423863,167.154373 114.750469,166.037226 114.279741,164.745084 C113.809012,163.452943 113.573651,162.059874 113.573651,160.565836 L113.573651,159.758251 C113.573651,158.035396 113.822088,156.477447 114.318968,155.084357 C114.815848,153.691268 115.495779,152.506823 116.358782,151.530987 C117.221785,150.555151 118.238413,149.801413 119.408697,149.269751 C120.578981,148.738088 121.837507,148.472261 123.184314,148.472261 C124.727259,148.472261 126.067508,148.738088 127.205102,149.269751 C128.342697,149.801413 129.28414,150.545056 130.02946,151.500702 C130.774781,152.456348 131.330494,153.593685 131.696616,154.912746 C132.062739,156.231807 132.245797,157.678714 132.245797,159.253511 L132.245797,161.35323 L118.378983,161.35323 C118.444362,162.201198 118.617613,162.981855 118.898743,163.695225 C119.179873,164.408594 119.562334,165.024371 120.046139,165.542574 C120.529943,166.060776 121.102001,166.467929 121.762328,166.764045 C122.422656,167.060161 123.171234,167.208216 124.008086,167.208216 C125.184907,167.208216 126.208073,166.965943 127.077614,166.48139 C127.947154,165.996837 128.70227,165.330587 129.342984,164.482619 L131.912366,167.00632 C131.572395,167.531253 131.150707,168.039353 130.647289,168.530636 C130.14387,169.021918 129.555468,169.459356 128.882065,169.84296 C128.208661,170.226564 127.447007,170.536135 126.597081,170.771682 C125.747154,171.007228 124.792635,171.125 123.733495,171.125 Z M123.164701,152.409235 C121.857121,152.409235 120.801266,152.880321 119.997105,153.822507 C119.192943,154.764693 118.679726,156.077005 118.457437,157.75948 L127.538533,157.75948 L127.538533,157.396067 C127.499306,156.749997 127.39797,156.12749 127.234522,155.528529 C127.071075,154.929567 126.81937,154.397913 126.479399,153.93355 C126.139428,153.469187 125.698127,153.099047 125.155481,152.823121 C124.612835,152.547195 123.949249,152.409235 123.164701,152.409235 Z M140.365827,148.876053 L140.503122,151.399754 C141.248442,150.471028 142.144121,149.750939 143.190185,149.239466 C144.236249,148.727994 145.399977,148.472261 146.681405,148.472261 C147.701318,148.472261 148.626417,148.616952 149.45673,148.906338 C150.287043,149.195724 150.996394,149.663445 151.584805,150.309515 C152.173216,150.955586 152.627593,151.796811 152.94795,152.833216 C153.268307,153.869621 153.428483,155.128094 153.428483,156.608673 L153.428483,170.721208 L148.662379,170.721208 L148.662379,156.568294 C148.662379,155.814544 148.580656,155.178578 148.417209,154.660376 C148.253761,154.142173 148.015132,153.721561 147.701313,153.398525 C147.387493,153.07549 146.998494,152.843312 146.534303,152.701984 C146.070113,152.560656 145.537282,152.489993 144.935795,152.489993 C143.95511,152.489993 143.101927,152.732266 142.376221,153.216819 C141.650514,153.701372 141.071918,154.354163 140.640417,155.175211 L140.640417,170.721208 L135.874313,170.721208 L135.874313,148.876053 L140.365827,148.876053 Z M164.25519,143.566187 L164.25519,148.876053 L168.001387,148.876053 L168.001387,152.510183 L164.25519,152.510183 L164.25519,164.704705 C164.25519,165.202718 164.307492,165.606506 164.412099,165.916081 C164.516705,166.225657 164.667074,166.464565 164.863211,166.632812 C165.059348,166.80106 165.29144,166.915467 165.559494,166.976036 C165.827548,167.036605 166.125018,167.066889 166.451913,167.066889 C166.778808,167.066889 167.095891,167.043335 167.403172,166.996225 C167.710454,166.949116 167.949083,166.905372 168.119069,166.864993 L168.119069,170.660639 C167.739871,170.768317 167.298569,170.872629 166.795151,170.973578 C166.291733,171.074526 165.686986,171.125 164.980893,171.125 C164.196345,171.125 163.46738,171.017323 162.793977,170.801966 C162.120573,170.586609 161.538709,170.23666 161.048366,169.752107 C160.558024,169.267554 160.175563,168.634952 159.900971,167.854284 C159.626379,167.073615 159.489085,166.117983 159.489085,164.98736 L159.489085,152.510183 L155.997865,152.510183 L155.997865,148.876053 L159.489085,148.876053 L159.489085,143.566187 L164.25519,143.566187 Z M188.085712,163.876931 L177.023642,163.876931 L174.709238,170.721208 L169.550861,170.721208 L180.338341,141.32514 L184.790627,141.32514 L195.59772,170.721208 L190.41973,170.721208 L188.085712,163.876931 Z M178.416208,159.758251 L186.693147,159.758251 L182.554677,147.563729 L178.416208,159.758251 Z M203.44316,170.721208 L198.677055,170.721208 L198.677055,148.876053 L203.44316,148.876053 L203.44316,170.721208 Z M198.382851,143.202774 C198.382851,142.449025 198.614943,141.823153 199.079134,141.32514 C199.543325,140.827128 200.206912,140.578125 201.069914,140.578125 C201.932917,140.578125 202.599773,140.827128 203.070501,141.32514 C203.54123,141.823153 203.776591,142.449025 203.776591,143.202774 C203.776591,143.943063 203.54123,144.55884 203.070501,145.050123 C202.599773,145.541406 201.932917,145.787044 201.069914,145.787044 C200.206912,145.787044 199.543325,145.541406 199.079134,145.050123 C198.614943,144.55884 198.382851,143.943063 198.382851,143.202774 Z M219.74206,153.358146 C219.428241,153.304307 219.111158,153.263928 218.790801,153.237008 C218.470444,153.210089 218.140285,153.196629 217.800314,153.196629 C216.649644,153.196629 215.714738,153.425442 214.995569,153.883076 C214.2764,154.340709 213.740301,154.973311 213.387254,155.780899 L213.387254,170.721208 L208.62115,170.721208 L208.62115,148.876053 L213.171505,148.876053 L213.289186,151.318996 C213.825294,150.430649 214.488881,149.734114 215.279966,149.229371 C216.071052,148.724629 217.002689,148.472261 218.074904,148.472261 C218.349496,148.472261 218.660042,148.502545 219.00655,148.563114 C219.353059,148.623684 219.604764,148.687617 219.761674,148.754916 L219.74206,153.358146 Z M239.924453,144.696805 L237.492367,152.227528 L236.276324,152.227528 L233.844238,144.716994 L233.844238,152.227528 L231.667128,152.227528 L231.667128,141.32514 L234.354191,141.32514 L236.884345,149.017381 L239.492954,141.32514 L242.101562,141.32514 L242.101562,152.227528 L239.924453,152.227528 L239.924453,144.696805 Z M230.215722,143.243153 L227.509045,143.243153 L227.509045,152.187149 L225.214254,152.187149 L225.214254,143.243153 L222.448737,143.243153 L222.448737,141.32514 L230.215722,141.32514 L230.215722,143.243153 Z" id="PresentAir™" fill="#2598C5"></path>
        </g>
    </g>
</svg>