<svg height="48" viewBox="0 0 256 48" width="256" xmlns="http://www.w3.org/2000/svg" xmlns:xlink="http://www.w3.org/1999/xlink"><filter id="a" height="162.9%" width="123.6%" x="-11.8%" y="-31.4%"><feOffset dx="0" dy="0" in="SourceAlpha" result="shadowOffsetOuter1"/><feGaussianBlur in="shadowOffsetOuter1" result="shadowBlurOuter1" stdDeviation="17"/><feColorMatrix in="shadowBlurOuter1" result="shadowMatrixOuter1" type="matrix" values="0 0 0 0 0   0 0 0 0 0   0 0 0 0 0  0 0 0 0.17 0"/><feMerge><feMergeNode in="shadowMatrixOuter1"/><feMergeNode in="SourceGraphic"/></feMerge></filter><g fill="#fff" filter="url(#a)" transform="translate(-153 -60)"><path d="m113.638579.44619078c6.835987-1.83169722 13.859811 2.14096017 15.838834 8.89690674l.061774.21799308c4.334958-3.13662171 10.281697-3.63237396 15.215352-.7839268 6.696097 3.8659932 8.990349 12.4282589 5.124356 19.1243556-2.95926 5.1255879-8.670195 7.6720137-14.189527 6.8506284-.209001 5.546088-3.985043 10.5465975-9.627475 12.0584826-6.835987 1.8316973-13.859811-2.1409601-15.838834-8.8969067l-.082849-.2954814-5.694019-21.2503682c-1.858244-6.93505934 2.257329-14.06343977 9.192388-15.92168332zm10.593128 24.07927782-12.557165 3.3641651 2.329371 8.6933324c1.263504 4.7154593 6.046421 7.5480562 10.765391 6.4289355l.257313-.0649745c4.272492-1.1448107 6.999256-5.1788698 6.641422-9.4367767-.308021-.1493124-.612644-.310576-.9135-.4842753-3.232448-1.8662548-5.439116-4.8269018-6.422194-8.1437054zm4.035821-6.7918987c-1.479844 4.4162311.297247 9.4092423 4.487011 11.8282036s9.402384 1.4614618 12.48703-2.028236zm2.000656-3.4648329 16.97369 9.7997647c1.479261-4.4159929-.297877-9.4084516-4.487335-11.8272363-4.189458-2.41878465-9.401623-1.4616016-12.486355 2.0274716zm-15.337016-10.02381736-.257313.06497444c-4.715459 1.26350351-7.548056 6.04642122-6.428935 10.76539052l.064974.2573133 2.329371 8.6933325 13.118033-3.5149432c.060842-2.2519624.667365-4.5214445 1.872885-6.6094678.205506-.3559463.424282-.6994544.655343-1.0302601l-.588967-2.1974042c-1.263504-4.71545929-6.046421-7.54805623-10.765391-6.42893546z" transform="translate(153 60)"/></g></svg>