<?xml version="1.0" encoding="UTF-8"?>
<svg width="256px" height="66px" viewBox="0 0 256 66" version="1.1" xmlns="http://www.w3.org/2000/svg" xmlns:xlink="http://www.w3.org/1999/xlink">
    <!-- Generator: Sketch 61.2 (89653) - https://sketch.com -->
    <title>logo_boiron</title>
    <desc>Created with Sketch.</desc>
    <g id="03-what-we-do-(SRC)" stroke="none" stroke-width="1" fill="none" fill-rule="evenodd">
        <g id="Group" fill="#FFFFFF">
            <path d="M213.304581,43.0635619 L213.304581,59 L43,59 L43,43.0635619 L213.304581,43.0635619 Z M88.4447188,5 C91.528036,5 94.3017229,5.70171001 96.7787643,7.11007863 C99.2488139,8.51250893 101.137558,10.4780887 102.432012,12.9880134 C103.73146,15.5038764 104.377688,18.3592126 104.377688,21.5490735 C104.377688,24.7765437 103.695503,27.6714686 102.332131,30.220982 C100.962767,32.7695057 99.0280776,34.7014351 96.5280637,36.0147908 C94.022057,37.3291362 91.3172877,37.9853192 88.4217462,37.9853192 C85.2804983,37.9853192 82.4718531,37.2558971 79.9998058,35.8089295 C77.5227645,34.3619618 75.6529978,32.3805465 74.3765225,29.8755705 C73.1000472,27.3656458 72.4648059,24.7161709 72.4648059,21.9162589 C72.4648059,16.6232474 73.9510307,12.4812778 76.9234803,9.49232969 C79.9009239,6.49744323 83.7413367,5 88.4447188,5 Z M167.698055,5 C170.781372,5 173.555059,5.70171001 176.032101,7.11007863 C178.503149,8.51250893 180.390894,10.4780887 181.685348,12.9880134 C182.984796,15.5038764 183.632023,18.3592126 183.632023,21.5490735 C183.632023,24.7765437 182.949838,27.6714686 181.586466,30.220982 C180.216103,32.7695057 178.281414,34.7014351 175.7814,36.0147908 C173.275393,37.3291362 170.571623,37.9853192 167.675083,37.9853192 C164.533835,37.9853192 161.725189,37.2558971 159.254141,35.8089295 C156.7771,34.3619618 154.906334,32.3805465 153.629859,29.8755705 C152.353383,27.3656458 151.718142,24.7161709 151.718142,21.9162589 C151.718142,16.6232474 153.204367,12.4812778 156.176817,9.49232969 C159.155259,6.49744323 162.995672,5 167.698055,5 Z M194.297284,6.11739154 L208.606193,29.2302744 L208.606193,6.11739154 L213.303582,6.11739154 L213.303582,37.2855886 L207.760203,37.2855886 L193.908748,14.0430527 L193.908748,37.2855886 L189.092501,37.2855886 L189.092501,6.11739154 L194.297284,6.11739154 Z M55.4491302,5.54929345 C57.903199,5.54929345 59.8698499,5.86600319 61.349083,6.49645351 C62.829315,7.12888327 64.3634825,8.10177599 65.2024804,9.40919338 C66.0444747,10.7195799 66.2771967,12.091329 66.2771967,13.5234508 C66.2771967,14.8566009 66.089421,16.1145324 65.3483062,17.2893275 C64.6051938,18.4661022 64.2226507,19.4112828 62.7214438,20.1357563 C64.6601282,20.6909881 65.4092334,21.6341893 66.4519879,22.9653599 C67.4927448,24.2945511 67.6425658,25.8721614 67.6425658,27.684335 C67.6425658,29.1421895 67.7014954,30.8672678 67.0632578,32.1251993 C66.4290153,33.3762028 65.3642871,34.4371804 64.4294038,35.1181063 C63.4985157,35.7970528 62.4208029,36.3097267 61.0094887,36.6581074 C59.6031684,37.0054984 57.6904531,36.7184802 55.6498904,36.7184802 L43.4115085,36.7184802 L43.4115085,5.54929345 L55.4491302,5.54929345 Z M141.979774,6.280695 C145.132009,7.46538736 147.623034,10.8254797 147.455234,14.0559191 C147.261465,17.8099192 145.335766,21.5757959 141.737064,22.5407709 L148.022556,36.7184802 L142.224482,36.7184802 L136.887856,23.0257327 L128.109342,23.3325452 L128.109342,36.7184802 L123.175235,36.7184802 L123.175235,5.77692858 L135.660005,5.77601322 C138.231029,5.77160373 140.625029,5.7705404 141.979774,6.280695 Z M115.282662,5.54929345 L115.282662,36.7174905 L110.109841,36.7174905 L110.109841,5.54929345 L115.282662,5.54929345 Z M88.4656938,9.19838346 C85.4982382,9.19838346 82.9492828,10.1485127 80.8108371,12.05273 C78.6713925,13.9519987 77.6046666,17.1309727 77.6046666,21.5807445 C77.6046666,25.1427393 78.632439,27.9446308 80.6839886,29.9992852 C82.7335405,32.0480013 85.3044697,33.0703799 88.3987737,33.0703799 C91.5490109,33.0703799 94.1469079,32.0381041 96.1814777,29.9686039 C98.2210415,27.898114 99.237827,24.9616209 99.237827,21.1571452 C99.237827,18.7471821 98.8003496,16.6519492 97.9333851,14.8556112 C97.0604278,13.0592731 95.7889465,11.6706989 94.1089532,10.6799912 C92.4339539,9.69423214 90.5492051,9.19838346 88.4656938,9.19838346 Z M167.71903,9.19838346 C164.751575,9.19838346 162.203618,10.1485127 160.064173,12.05273 C157.925728,13.9519987 156.859002,17.1309727 156.859002,21.5807445 C156.859002,25.1427393 157.886774,27.9446308 159.937325,29.9992852 C161.987876,32.0480013 164.557806,33.0703799 167.653109,33.0703799 C170.803346,33.0703799 173.401243,32.0381041 175.434814,29.9686039 C177.474378,27.898114 178.491163,24.9616209 178.491163,21.1571452 C178.491163,18.7471821 178.054685,16.6519492 177.186721,14.8556112 C176.313764,13.0592731 175.042283,11.6706989 173.362289,10.6799912 C171.68729,9.69423214 169.802541,9.19838346 167.71903,9.19838346 Z M55.0785728,22.0459119 L48.4984324,22.0459119 L48.4984324,32.6695442 L55.6498904,32.6695442 C57.018256,32.6695442 57.9811059,32.6190686 58.5364426,32.5230659 C59.5162722,32.3528344 60.3302999,32.4419091 60.9905113,32.0430527 C61.6467275,31.6481553 62.1840857,31.0691703 62.6105763,30.3070875 C63.0300752,29.550943 63.2438199,28.6750426 63.2438199,27.684335 C63.2438199,26.519437 62.9361873,25.5119041 62.3249175,24.6528289 C61.7156452,23.7977127 60.8616652,22.9168637 59.7749632,22.568483 C58.6872624,22.221092 57.1241295,22.0459119 55.0785728,22.0459119 Z M136.352496,10.5938857 L127.772744,10.5938857 L127.772744,18.6492 L135.48653,18.6492 C137.124573,18.6492 138.40804,18.4967834 139.330938,18.1899709 C140.254835,17.8881069 140.959992,17.3991862 141.438421,16.7321163 C141.921843,16.0610876 142.162556,15.3336449 142.162556,14.5468192 C142.162556,13.3957772 141.694115,12.4476274 140.766224,11.7073184 C139.833338,10.9640402 138.365092,10.5938857 136.352496,10.5938857 Z M54.0697778,9.78330676 L48.4984324,9.78330676 L48.4984324,17.6327597 L54.5971479,17.6327597 C56.479899,17.6327597 57.8292872,17.5080552 58.648309,17.2685435 C59.7230253,16.9538132 60.5410482,16.4391598 61.0863968,15.7176555 C61.5693494,15.0775408 61.6230568,15.0916161 61.6290094,14.3525095 L61.6295847,13.6084367 C61.625671,12.8687625 61.5806636,12.5112522 61.14233,11.8359817 C60.6339372,11.0511354 59.9038093,10.5117392 58.9509475,10.2187826 C58.0050773,9.92879529 56.3780207,9.78330676 54.0697778,9.78330676 Z M219.455234,5.32858635 C221.407902,5.32858635 223,6.90718645 223,8.84109529 C223,10.7759938 221.407902,12.3536042 219.455234,12.3536042 C217.502566,12.3536042 215.910468,10.7759938 215.910468,8.84109529 C215.910468,6.90718645 217.502566,5.32858635 219.455234,5.32858635 Z M219.544128,9.40721394 L218.385512,9.44779238 L218.385512,11.2144389 L217.94096,11.2155157 C218.379609,11.4917105 218.899242,11.6518942 219.455234,11.6518942 C220.011582,11.6518942 220.531317,11.4917105 220.96995,11.2155157 L220.248287,11.2144389 L219.544128,9.40721394 Z M219.455234,6.03128608 C217.894099,6.03128608 216.619621,7.29416616 216.619621,8.84109529 C216.619621,9.74837047 217.057459,10.5577225 217.734229,11.0722534 L217.73429,7.13185242 L219.279444,7.13185242 C219.655994,7.13185242 220.018561,7.12393468 220.215326,7.19816352 C220.631829,7.35453896 220.959437,7.79793259 220.938462,8.2235113 C220.912493,8.71935998 220.657798,9.21619838 220.183364,9.343872 L221.003506,11.1940583 C221.777787,10.6912764 222.290847,9.82360416 222.290847,8.84109529 C222.290847,7.29416616 221.017368,6.03128608 219.455234,6.03128608 Z M219.473213,7.76725133 L218.340565,7.76725133 L218.340565,8.83020839 L219.35835,8.83020839 C219.575091,8.83020839 219.743889,8.80942431 219.865744,8.7698356 C219.987598,8.73024688 220.081486,8.6649255 220.144411,8.5768406 C220.207336,8.48776599 220.239298,8.39275307 220.239298,8.28883268 C220.239298,8.13641612 220.177371,8.01171166 220.055517,7.91372959 C219.932664,7.81574751 219.738895,7.76725133 219.473213,7.76725133 Z" id="Combined-Shape"></path>
        </g>
    </g>
</svg>