<svg xmlns="http://www.w3.org/2000/svg" viewBox="0 0 256 125" width="256" height="125">
	<style>
		tspan { white-space:pre }
		.shp0 { fill: #ffffff } 
	</style>
	<g id="03-what-we-do-(SRC)">
		<g id="Group-9">
			<path id="Combined-Shape" fill-rule="evenodd" class="shp0" d="M133.28 116.34L138.88 123.12L138.88 116.64L139.57 116.64L139.57 125L133.97 118.22L133.97 124.69L133.28 124.69L133.28 116.34ZM160.13 116.34L165.73 123.12L165.73 116.64L166.42 116.64L166.42 125L160.83 118.22L160.83 124.69L160.13 124.69L160.13 116.34ZM98.29 116.51C99.21 116.51 99.9 116.9 100.34 117.67L100.42 117.81L99.88 118.14L99.84 118.16L99.81 118.12C99.49 117.46 99.01 117.15 98.29 117.15C97.45 117.15 96.84 117.69 96.84 118.43C96.84 119.25 97.35 119.58 98.27 120L98.56 120.13C99.92 120.73 100.81 121.24 100.81 122.65C100.81 123.97 99.85 124.83 98.35 124.83C97.06 124.83 96.09 124.2 95.6 123.05L95.54 122.89L96.08 122.59L96.13 122.57L96.15 122.62C96.56 123.64 97.32 124.18 98.35 124.18C99.65 124.18 100.12 123.39 100.12 122.65C100.12 121.7 99.57 121.31 98.4 120.79L97.96 120.6C96.88 120.11 96.14 119.62 96.14 118.45C96.14 117.32 97.05 116.51 98.29 116.51ZM126.96 116.51C129.3 116.51 131.13 118.34 131.13 120.67C131.13 123 129.3 124.83 126.96 124.83C124.58 124.83 122.79 123.04 122.79 120.67C122.79 118.3 124.58 116.51 126.96 116.51ZM118.24 123.83C118.48 123.83 118.7 124.04 118.7 124.29C118.7 124.56 118.46 124.75 118.24 124.75C117.98 124.75 117.77 124.54 117.77 124.29C117.77 124.04 117.99 123.83 118.24 123.83ZM177.61 123.83C177.86 123.83 178.08 124.04 178.08 124.29C178.08 124.56 177.84 124.75 177.61 124.75C177.36 124.75 177.15 124.54 177.15 124.29C177.15 124.04 177.36 123.83 177.61 123.83ZM154.84 116.35L158.36 124.69L157.68 124.69L156.72 122.5L152.91 122.53L152.05 124.66L151.39 124.69L151.32 124.69L154.84 116.35ZM112.51 116.35L116.03 124.69L115.35 124.69L114.39 122.5L110.59 122.53L109.72 124.66L109.06 124.69L108.99 124.69L112.51 116.35ZM107.35 116.64L107.35 117.29L103.59 117.29L103.59 120.11L107.13 120.11L107.13 120.77L103.59 120.77L103.59 124.04L107.43 124.04L107.43 124.69L102.89 124.69L102.89 116.64L107.35 116.64ZM81.6 116.35L85.12 124.69L84.44 124.69L83.48 122.5L79.67 122.53L78.81 124.66L78.15 124.69L78.08 124.69L81.6 116.35ZM90.7 116.64L90.7 117.29L88.37 117.29L88.37 124.69L87.67 124.69L87.67 117.29L85.36 117.29L85.36 116.64L90.7 116.64ZM171.52 116.64C174.05 116.64 175.69 118.23 175.69 120.67C175.69 123.06 174.13 124.62 171.7 124.69L171.53 124.69L169.05 124.69L169.05 116.64L171.52 116.64ZM146.42 116.64L146.42 124.04L149.85 124.04L149.85 124.69L145.72 124.69L145.72 116.64L146.42 116.64ZM126.96 117.17C124.97 117.17 123.47 118.67 123.47 120.67C123.47 122.67 124.97 124.17 126.96 124.17C128.93 124.17 130.42 122.67 130.42 120.67C130.42 118.67 128.93 117.17 126.96 117.17ZM171.47 117.29L169.75 117.29L169.75 124.04L171.48 124.04C173.67 124.04 174.98 122.78 174.98 120.67C174.98 118.61 173.74 117.36 171.65 117.29L171.47 117.29ZM81.6 118.02L79.99 121.88L83.21 121.88L81.6 118.02ZM154.84 118.02L153.23 121.88L156.45 121.88L154.84 118.02ZM112.51 118.02L110.9 121.88L114.12 121.88L112.51 118.02ZM147.03 79.74L152.95 94.74L157.64 80.34L159.91 80.34L153.17 101.21L146.98 85.57L140.57 101.15L133.98 80.34L136.25 80.34L140.85 94.79L147.03 79.74ZM54.22 82.47L66.14 95.87L66.14 83.23L68.24 83.23L68.24 101.12L56.32 87.72L56.32 100.36L54.22 100.36L54.22 82.47ZM38.72 79.4C44.83 79.4 49.44 83.98 49.44 90.05C49.44 96.12 44.83 100.7 38.72 100.7C32.61 100.7 28 96.12 28 90.05C28 83.98 32.61 79.4 38.72 79.4ZM95.63 79.72C97.95 79.72 99.73 80.71 100.94 82.67L101.06 82.87L101.11 82.96L99.31 83.98L99.26 83.89C98.43 82.39 97.27 81.7 95.6 81.7C93.63 81.7 92.09 83.05 92.09 84.79C92.09 86.81 93.84 87.68 95.94 88.61L96.78 88.98C100.3 90.57 101.98 91.97 101.98 95.19C101.98 98.54 99.49 100.7 95.63 100.7C92.44 100.7 89.95 99.06 88.76 96.21L88.68 96.01L88.65 95.92L90.51 95.07L90.54 95.16C91.45 97.42 93.31 98.72 95.66 98.72C98.22 98.72 99.81 97.38 99.81 95.22C99.81 92.82 98.17 91.96 95.27 90.65C92.14 89.24 89.92 87.99 89.92 84.84C89.92 81.87 92.32 79.72 95.63 79.72ZM170.39 82.92C175.49 82.92 179.34 86.74 179.34 91.81C179.34 96.87 175.49 100.7 170.39 100.7C165.29 100.7 161.44 96.87 161.44 91.81C161.44 86.74 165.29 82.92 170.39 82.92ZM219.12 83.23C224.52 83.23 228 86.6 228 91.81C228 96.92 224.63 100.26 219.39 100.35L219.15 100.36L213.57 100.36L213.57 83.23L219.12 83.23ZM202.47 83.23L202.47 98.41L209.46 98.41L209.46 100.36L200.37 100.36L200.37 83.23L202.47 83.23ZM190.01 83.23C192.93 83.23 195.21 85.5 195.21 88.38C195.21 90.49 194.03 92.33 192.19 93.17L192.01 93.24L196.13 100.36L193.74 100.36L189.91 93.65L186.21 93.65L186.21 100.36L184.11 100.36L184.11 83.23L190.01 83.23ZM83.84 83.23L83.84 85.18L76.14 85.18L76.14 90.35L83.38 90.35L83.38 92.29L76.14 92.29L76.14 98.41L84.01 98.41L84.01 100.36L74.04 100.36L74.04 83.23L83.84 83.23ZM112.17 83.23C115.14 83.23 117.46 85.54 117.46 88.48C117.46 91.36 115.23 93.64 112.34 93.72L112.17 93.73L108.73 93.73L108.73 100.36L106.64 100.36L106.64 83.23L112.17 83.23ZM126.52 82.48L134.37 100.36L132.09 100.36L130.25 96.18L122.73 96.18L120.9 100.36L118.69 100.36L126.52 82.48ZM170.39 84.86C166.47 84.86 163.51 87.85 163.51 91.81C163.51 95.77 166.47 98.75 170.39 98.75C174.29 98.75 177.24 95.77 177.24 91.81C177.24 87.85 174.29 84.86 170.39 84.86ZM38.72 81.41C33.84 81.41 30.16 85.12 30.16 90.05C30.16 94.98 33.84 98.69 38.72 98.69C43.58 98.69 47.24 94.98 47.24 90.05C47.24 85.12 43.58 81.41 38.72 81.41ZM218.98 85.18L215.66 85.18L215.66 98.41L219 98.41C223.39 98.41 225.9 96 225.9 91.81C225.9 87.67 223.46 85.26 219.2 85.18L218.98 85.18ZM126.49 87.4L123.57 94.23L129.42 94.23L126.49 87.4ZM112.1 85.18L108.73 85.18L108.73 91.78L112.1 91.78C113.96 91.78 115.36 90.36 115.36 88.48C115.36 86.65 114.04 85.26 112.25 85.18L112.1 85.18ZM189.94 85.18L186.21 85.18L186.21 91.71L189.82 91.71C191.73 91.71 193.11 90.31 193.11 88.38C193.11 86.61 191.83 85.26 190.1 85.18L189.94 85.18ZM116.31 56.76L116.58 56.87C120.19 58.43 124.02 59.21 127.98 59.21C131.53 59.21 134.98 58.58 138.25 57.33L138.83 57.1L139.65 56.76L140.24 58.12L139.96 58.24C136.17 59.87 132.14 60.7 127.98 60.7C124.24 60.7 120.6 60.03 117.14 58.71L116.54 58.47L115.72 58.12L116.31 56.76ZM128.79 31.54L128.8 31.84C129.11 38.06 131.39 43.93 135.29 48.68L135.4 48.81L135.53 48.67C139.08 44.33 141.29 39.06 141.88 33.44L141.93 32.9L141.98 32.35L142.02 31.54L143.5 31.62L143.49 31.91C143.17 38.5 140.73 44.72 136.57 49.73L136.4 49.94L136.64 50.2C138.21 51.85 139.97 53.32 141.89 54.57L142.42 54.91L142.81 55.14L143.06 54.99C150.82 50.24 155.84 42.23 156.71 33.23L156.75 32.76L156.79 32.29L156.83 31.54L158.31 31.62L158.3 31.91C157.81 41.9 152.48 50.9 143.99 56.16L143.58 56.41L142.81 56.86L142.44 56.65C139.9 55.18 137.6 53.37 135.61 51.27L135.4 51.06L135.17 51.31C133.63 52.92 131.92 54.36 130.05 55.6L129.49 55.97L128.91 56.32L128.37 56.65L128 56.86L127.63 56.65C125.09 55.18 122.79 53.37 120.8 51.27L120.59 51.06L120.39 51.27C118.84 52.9 117.1 54.36 115.21 55.62L114.64 55.99L114.11 56.32L113.56 56.65L113.19 56.86L112.82 56.65C104.14 51.63 98.56 42.79 97.76 32.85L97.73 32.38L97.68 31.62L99.17 31.54L99.19 31.84C99.66 41.4 104.78 50 112.94 54.99L113.19 55.14L113.58 54.91C115.53 53.7 117.33 52.27 118.93 50.65L119.36 50.2L119.6 49.94L119.42 49.73C115.61 45.14 113.25 39.53 112.63 33.55L112.58 32.98L112.54 32.44L112.49 31.62L113.98 31.54L113.99 31.84C114.3 38.06 116.58 43.93 120.48 48.68L120.59 48.81L120.72 48.67C124.27 44.33 126.48 39.06 127.07 33.44L127.12 32.9L127.17 32.35L127.21 31.54L127.98 31.58L128.79 31.54ZM128 36.98L127.97 37.11C126.93 41.75 124.81 46.06 121.78 49.71L121.59 49.94L121.83 50.2C123.54 52 125.48 53.59 127.62 54.91L128 55.14L128.39 54.91C130.52 53.58 132.46 52 134.17 50.2L134.41 49.94L134.23 49.73C131.2 46.07 129.07 41.76 128.03 37.11L128 36.98ZM142.81 3.94L143.18 4.16C151.86 9.17 157.44 18.01 158.24 27.95L158.27 28.42L158.32 29.19L156.83 29.26L156.81 28.96C156.34 19.4 151.22 10.8 143.06 5.81L142.81 5.66L142.42 5.89C140.47 7.11 138.67 8.53 137.07 10.15L136.64 10.6L136.4 10.86L136.58 11.07C140.39 15.66 142.75 21.27 143.37 27.25L143.42 27.82L143.46 28.36L143.51 29.19L142.02 29.26L142.01 28.96C141.7 22.74 139.42 16.87 135.52 12.12L135.41 11.99L135.28 12.14C131.61 16.6 129.37 22.08 128.87 27.9L128.83 28.45L128.79 29.26L128.01 29.22L127.21 29.26L127.2 28.96C126.89 22.74 124.61 16.87 120.71 12.12L120.59 11.99L120.47 12.13C116.92 16.47 114.71 21.74 114.12 27.36L114.07 27.9L114.02 28.45L113.98 29.26L112.49 29.19L112.51 28.89C112.83 22.3 115.27 16.08 119.43 11.07L119.6 10.86L119.36 10.6C117.79 8.95 116.03 7.48 114.11 6.23L113.58 5.89L113.19 5.66L112.94 5.81C105.18 10.56 100.16 18.57 99.29 27.57L99.25 28.04L99.21 28.51L99.17 29.26L97.69 29.19L97.7 28.89C98.19 18.9 103.52 9.9 112.01 4.64L112.42 4.39L113.19 3.94L113.56 4.16C116.1 5.62 118.4 7.43 120.39 9.53L120.59 9.74L120.8 9.53C122.35 7.9 124.09 6.44 125.98 5.18L126.55 4.81L127.09 4.48L127.63 4.16L128 3.94L128.37 4.16C130.91 5.62 133.21 7.43 135.2 9.53L135.4 9.74L135.61 9.53C137.16 7.9 138.89 6.44 140.79 5.18L141.36 4.81L141.89 4.48L142.44 4.16L142.81 3.94ZM128 5.66L127.62 5.89C125.48 7.22 123.54 8.8 121.83 10.6L121.59 10.86L121.77 11.07C124.8 14.73 126.93 19.04 127.97 23.69L128 23.82L128.03 23.69C128.99 19.42 130.87 15.42 133.52 11.96L133.88 11.51L134.23 11.07L134.41 10.86L134.17 10.6C132.46 8.8 130.52 7.22 128.39 5.89L128 5.66ZM127.98 0.1C131.72 0.1 135.36 0.77 138.81 2.09L139.42 2.33L140.24 2.68L139.65 4.04L139.38 3.93C135.77 2.37 131.93 1.59 127.98 1.59C124.43 1.59 120.98 2.22 117.71 3.47L117.13 3.7L116.31 4.04L115.72 2.68L116 2.56C119.79 0.93 123.82 0.1 127.98 0.1Z" />
		</g>
	</g>
</svg>