<svg height="48" viewBox="0 0 256 48" width="256" xmlns="http://www.w3.org/2000/svg" xmlns:xlink="http://www.w3.org/1999/xlink"><filter id="a" height="162.9%" width="123.6%" x="-11.8%" y="-31.4%"><feOffset dx="0" dy="0" in="SourceAlpha" result="shadowOffsetOuter1"/><feGaussianBlur in="shadowOffsetOuter1" result="shadowBlurOuter1" stdDeviation="17"/><feColorMatrix in="shadowBlurOuter1" result="shadowMatrixOuter1" type="matrix" values="0 0 0 0 0   0 0 0 0 0   0 0 0 0 0  0 0 0 0.17 0"/><feMerge><feMergeNode in="shadowMatrixOuter1"/><feMergeNode in="SourceGraphic"/></feMerge></filter><g fill="#fff" filter="url(#a)" transform="translate(-152 -60)"><path d="m130.173005 3.40606213 13 8.41176467c1.139164.737106 1.826995 2.001439 1.826995 3.3582807v6.6236178c0 8.1726306-3.759226 15.7136253-9.915675 20.6440528-1.082924.8672662-2.848631 1.924264-5.297121 3.1709934l-.000001-.0000015c-1.126909.5738027-2.458786.5809237-3.591766.0192036-2.057174-1.0199264-3.590927-1.9081579-4.60126-2.6646945-6.557631-4.9103509-10.594177-12.7008363-10.594177-21.1695538v-6.6236178c0-1.3568417.687831-2.6211747 1.826995-3.3582807l13-8.41176467c1.322331-.85562583 3.023679-.85562583 4.34601 0zm-2.173005 3.35793787-13 8.412v6.6237253c0 8.6267304 4.93507 16.424256 12.581474 20.1615823l.418526.1986924.026005-.0114868c7.752668-3.6048002 12.813996-11.3360226 12.97027-19.9385006l.003725-.4102873v-6.6237253z" transform="translate(152 60)"/></g></svg>