<svg xmlns="http://www.w3.org/2000/svg" viewBox="0 0 256 41" width="256" height="41">
	<style>
		tspan { white-space:pre }
		.shp0 { fill: #ffffff } 
	</style>
	<path fill-rule="evenodd" class="shp0" d="M201.76 0.75L200.54 8.2L194.59 8.2L194.98 5.78L190.51 5.78L189.95 9.27L195.19 9.27L194.25 15.01L189.03 15.01L188.32 19.26L193.06 19.26L193.54 16.25L199.65 16.25L198.29 24.57L179.28 24.57L180.15 19.26L181.96 19.26L184.18 5.78L182.4 5.78L183.23 0.75L201.76 0.75ZM149.67 5.78L147.9 5.78L148.72 0.75L158.7 0.75L157.88 5.78L156.1 5.78L153.02 24.57L147.65 24.57L140.85 11.23L139.55 19.26L141.33 19.26L140.47 24.57L130.41 24.57L131.27 19.26L133.04 19.26L135.26 5.78L133.48 5.78L134.29 0.75L142.33 0.75L148.56 12.58L149.67 5.78ZM107.6 24.57L108.46 19.26L110.24 19.26L109.99 17.29L103.77 17.29L102.87 19.26L104.68 19.26L103.79 24.57L93.74 24.57L94.62 19.26L96.38 19.26L103.33 5.78L101.54 5.78L102.36 0.75L113.84 0.75L117.01 19.26L118.8 19.26L117.93 24.57L107.6 24.57ZM109.4 12.27L108.9 6.67L106.46 12.27L109.4 12.27ZM88.78 14.99L91.29 19.26L93.52 19.26L92.64 24.57L86.66 24.57L81.88 16.08L81.36 19.26L82.72 19.26L81.84 24.57L72.11 24.57L72.97 19.26L74.77 19.26L76.97 5.78L75.2 5.78L76.01 0.75L87.94 0.75C90.69 0.94 93.66 2.51 94.51 5.3C95.38 8.29 94.17 11.17 91.97 13.16C91.01 14 89.97 14.71 88.78 14.99ZM88.41 7.6C87.75 5.58 85.3 6.12 83.51 6.08L82.66 11.3C84.23 11.23 86.03 11.64 87.19 10.58C88.16 9.84 88.57 8.75 88.41 7.6ZM129.35 24.56L119.01 24.57L119.87 19.25L121.66 19.25L123.86 5.78L122.08 5.78L122.91 0.74L133.23 0.74L132.42 5.78L130.64 5.78L128.42 19.25L130.21 19.25L129.35 24.56ZM68.58 2.06L68.8 0.75L73.75 0.75L72.44 8.82L66.8 8.82C66.49 7.52 65.15 6.3 63.83 6.02C61.42 5.49 59.04 6.23 57.51 8.16C55.82 10.49 55.26 14.25 56.85 16.79C57.95 18.5 59.83 19.25 61.8 18.94C63.33 18.66 64.83 17.44 65.49 16.02L59.22 16.01L60 11.18L73.22 11.18L71.03 24.57L65.93 24.57L66.27 22.57C64.15 24.28 61.27 24.59 58.61 24.49C54.98 23.87 51.16 21.11 49.97 17.48C48.56 12.85 49.85 7.85 52.85 4.31C56.32 0.42 61.86 -1.04 66.74 0.76C67.24 0.95 67.74 1.2 68.18 1.57L68.58 2.06ZM68.58 2.08L68.59 2.07L68.58 2.06L68.58 2.08ZM175.77 2.07L175.98 0.75L180.94 0.75L179.62 8.82L173.99 8.82C173.68 7.52 172.33 6.29 171.02 6.02C168.61 5.49 166.23 6.23 164.7 8.16C163.01 10.49 162.45 14.25 164.04 16.79C165.14 18.5 167.01 19.25 168.98 18.94C170.52 18.66 172.02 17.44 172.68 16.02L166.4 16.01L167.19 11.18L180.41 11.18L178.21 24.57L173.12 24.57L173.46 22.57C171.33 24.28 168.45 24.59 165.79 24.49C162.16 23.87 158.35 21.11 157.16 17.48C155.75 12.85 157.04 7.85 160.04 4.31C163.51 0.42 169.05 -1.04 173.93 0.76C174.43 0.95 174.93 1.2 175.37 1.57L175.77 2.07ZM175.77 2.08L175.77 2.07L175.77 2.07L175.77 2.08ZM216.04 14.99C216.04 14.99 216.04 14.99 216.04 14.99L216.04 14.99L216.04 14.99ZM216.04 14.99L218.54 19.26L220.78 19.26L219.9 24.57L213.91 24.57L209.13 16.08L208.62 19.26L209.97 19.26L209.09 24.57L199.36 24.57L200.23 19.26L202.02 19.26L204.23 5.78L202.45 5.78L203.26 0.75L215.19 0.75C217.95 0.94 220.92 2.5 221.76 5.3C222.64 8.28 221.42 11.17 219.23 13.16C218.26 13.99 217.23 14.71 216.04 14.99ZM214.44 10.58C215.41 9.83 215.82 8.75 215.67 7.6C215.01 5.58 212.55 6.12 210.77 6.08L209.91 11.29C211.48 11.22 213.29 11.63 214.44 10.58L214.44 10.58ZM83.73 29.88L219.03 29.88L217.29 40.5L82 40.5L83.73 29.88L83.73 29.88ZM93.62 32.86L89.97 32.86L89.19 37.51L90.37 37.51L90.69 35.63L92.95 35.63L93.11 34.73L90.84 34.73L91 33.75L93.47 33.75L93.62 32.86L93.62 32.86ZM98.06 36.76C98.19 36.62 98.31 36.47 98.42 36.3C98.52 36.13 98.61 35.96 98.68 35.77C98.75 35.59 98.81 35.4 98.84 35.21C98.9 34.89 99.06 33.34 97.69 32.85C97.63 32.83 97.56 32.81 97.49 32.79C97.42 32.77 97.35 32.76 97.28 32.75C97.21 32.73 97.14 32.73 97.06 32.72C96.99 32.72 96.92 32.71 96.85 32.71C95.32 32.71 94.31 33.9 94.09 35.16C93.87 36.5 94.53 37.64 96.04 37.64C96.53 37.64 97.09 37.53 97.61 37.15C97.77 37.04 97.92 36.91 98.06 36.76ZM97.64 35.29C97.44 36.26 96.77 36.66 96.2 36.66C95.64 36.66 95.08 36.25 95.27 35.14C95.41 34.3 95.97 33.68 96.69 33.68C97.02 33.68 97.3 33.81 97.47 34.02C97.69 34.31 97.74 34.8 97.64 35.29L97.64 35.29ZM100.72 37.51L101 35.85L101.75 35.85L102.41 37.51L103.72 37.51L102.94 35.65C103.28 35.53 103.97 35.3 104.13 34.37C104.2 33.94 104.11 33.58 103.93 33.33C103.57 32.87 102.95 32.87 102.46 32.86L100.32 32.86L99.53 37.51L100.72 37.51ZM102.37 33.73C102.62 33.73 103.05 33.75 102.95 34.35C102.85 34.97 102.3 34.98 102.13 34.98L101.15 34.98L101.36 33.73L102.37 33.73ZM107.02 33.77L108.25 33.77L107.62 37.51L108.81 37.51L109.44 33.77L110.67 33.77L110.83 32.85L107.17 32.85L107.02 33.77ZM114.63 32.86L114.35 34.54L112.61 34.54L112.9 32.86L111.7 32.86L110.91 37.51L112.11 37.51L112.44 35.53L114.18 35.53L113.85 37.51L115.04 37.51L115.82 32.86L114.63 32.86ZM117.36 32.86L116.58 37.51L120.11 37.51L120.26 36.59L117.91 36.59L118.1 35.49L120.27 35.49L120.42 34.6L118.25 34.6L118.39 33.76L120.72 33.76L120.87 32.86L117.36 32.86L117.36 32.86ZM129.86 32.86L129.07 37.51L130.21 37.51L130.67 34.58C130.71 34.71 130.76 34.83 130.8 34.95C130.85 35.08 130.89 35.2 130.94 35.32C130.99 35.44 131.04 35.56 131.1 35.68C131.15 35.8 131.2 35.92 131.26 36.04L131.9 37.51L133.06 37.51L133.85 32.86L132.71 32.86L132.26 35.84C132.11 35.43 132.03 35.22 131.76 34.57L131.02 32.86L129.86 32.86L129.86 32.86ZM135.39 32.86L134.6 37.51L138.14 37.51L138.29 36.59L135.94 36.59L136.13 35.49L138.3 35.49L138.45 34.6L136.28 34.6L136.42 33.76L138.75 33.76L138.9 32.86L135.39 32.86L135.39 32.86ZM140.31 36.11L139.31 36.67C139.55 37.01 139.98 37.61 141.32 37.61C141.98 37.61 142.69 37.47 143.21 36.99C143.28 36.92 143.34 36.85 143.4 36.77C143.46 36.7 143.51 36.62 143.56 36.54C143.6 36.45 143.64 36.36 143.67 36.27C143.71 36.18 143.73 36.09 143.75 36C143.84 35.47 143.64 35.06 143.12 34.86C142.87 34.77 142.21 34.64 141.72 34.58C141.52 34.56 141.12 34.5 141.18 34.15C141.22 33.92 141.5 33.66 141.97 33.66C142.04 33.66 142.1 33.67 142.17 33.68C142.23 33.69 142.29 33.7 142.36 33.72C142.42 33.73 142.48 33.75 142.54 33.78C142.6 33.8 142.65 33.83 142.71 33.87C142.75 33.89 142.79 33.92 142.82 33.95C142.86 33.98 142.9 34 142.93 34.04C142.96 34.07 143 34.1 143.03 34.13C143.06 34.17 143.09 34.2 143.12 34.24L144.1 33.63C143.75 33.27 143.25 32.75 142.15 32.75C141.33 32.75 140.18 33.1 139.98 34.3C139.81 35.3 140.76 35.51 141.04 35.56C141.29 35.62 141.54 35.65 141.8 35.68C142.14 35.73 142.61 35.79 142.55 36.16C142.49 36.48 142.05 36.7 141.58 36.7C141.31 36.7 140.99 36.64 140.71 36.47C140.49 36.35 140.41 36.24 140.31 36.11L140.31 36.11ZM149.77 32.86L149.14 34.29C148.73 35.21 148.66 35.39 148.32 36.31C148.36 35.31 148.34 35.06 148.2 32.86L147.02 32.86L147.44 37.51L148.66 37.51L149.38 35.94C149.8 35.05 149.82 35.01 150.04 34.43C150.07 35.08 150.08 35.12 150.19 35.97C150.26 36.48 150.32 36.99 150.38 37.51L151.6 37.51L153.59 32.86L152.41 32.86C152.24 33.33 152.05 33.8 151.87 34.27C151.49 35.22 151.43 35.38 151.13 36.3C151.14 35.4 151.11 35.25 151 34.36C150.93 33.86 150.88 33.36 150.82 32.86L149.77 32.86ZM158.52 32.86L157.33 32.86L157.05 34.54L155.31 34.54L155.6 32.86L154.4 32.86L153.61 37.51L154.81 37.51L155.14 35.53L156.88 35.53L156.55 37.51L157.74 37.51L158.52 32.86ZM163.32 36.76C163.45 36.62 163.57 36.47 163.68 36.3C163.78 36.13 163.87 35.96 163.94 35.77C164.02 35.59 164.07 35.4 164.1 35.21C164.16 34.89 164.32 33.34 162.95 32.85C162.89 32.83 162.82 32.81 162.75 32.79C162.68 32.77 162.61 32.76 162.54 32.75C162.47 32.73 162.4 32.73 162.33 32.72C162.25 32.72 162.18 32.71 162.11 32.71C160.59 32.71 159.57 33.9 159.36 35.16C159.13 36.5 159.79 37.64 161.3 37.64C161.79 37.64 162.35 37.53 162.88 37.15C163.03 37.04 163.18 36.91 163.32 36.76ZM161.47 36.66C160.91 36.66 160.34 36.25 160.53 35.14C160.67 34.3 161.23 33.68 161.95 33.68C162.28 33.68 162.56 33.81 162.73 34.02C162.95 34.31 163 34.8 162.9 35.29C162.7 36.26 162.03 36.66 161.47 36.66ZM170.31 37.51L171.24 37.51L171.67 34.93L169.61 34.93L169.46 35.81L170.52 35.81C170.45 36.05 170.36 36.3 170.02 36.5C169.81 36.62 169.55 36.68 169.34 36.68C168.98 36.68 168.68 36.53 168.53 36.34C168.34 36.11 168.26 35.68 168.35 35.16C168.48 34.38 168.95 33.65 169.85 33.65C170.51 33.65 170.72 34.06 170.84 34.31L171.83 33.77C171.66 33.49 171.18 32.7 169.92 32.7C168.57 32.7 167.41 33.69 167.16 35.19C166.93 36.56 167.57 37.61 168.89 37.61C169.69 37.61 170.16 37.25 170.38 37.07L170.31 37.51ZM173.41 32.86L172.62 37.51L176.16 37.51L176.31 36.59L173.96 36.59L174.15 35.49L176.32 35.49L176.47 34.6L174.3 34.6L174.44 33.76L176.77 33.76L176.92 32.86L173.41 32.86L173.41 32.86ZM177.52 33.77L178.76 33.77L178.13 37.51L179.32 37.51L179.95 33.77L181.19 33.77L181.34 32.85L177.68 32.85L177.52 33.77ZM185.54 32.86L184.36 32.86L183.57 37.51L184.76 37.51L185.54 32.86L185.54 32.86ZM186.24 33.77L187.48 33.77L186.85 37.51L188.04 37.51L188.67 33.77L189.9 33.77L190.06 32.85L186.4 32.85L186.24 33.77ZM192.29 37.51L194.16 37.51C194.66 37.5 195.99 37.47 196.67 36.04C196.7 35.97 196.73 35.89 196.76 35.82C196.79 35.75 196.81 35.67 196.84 35.6C196.86 35.52 196.88 35.45 196.9 35.37C196.91 35.3 196.93 35.22 196.94 35.14C197.05 34.49 196.97 33.84 196.56 33.4C196.04 32.88 195.17 32.86 194.59 32.86L193.08 32.86L192.29 37.51ZM201.86 36.76C202 36.62 202.12 36.47 202.22 36.3C202.33 36.13 202.42 35.96 202.49 35.77C202.56 35.59 202.61 35.4 202.65 35.21C202.7 34.89 202.87 33.34 201.5 32.85C201.43 32.83 201.36 32.81 201.29 32.79C201.22 32.77 201.15 32.76 201.08 32.75C201.01 32.73 200.94 32.73 200.87 32.72C200.8 32.72 200.73 32.71 200.66 32.71C199.13 32.71 198.11 33.9 197.9 35.16C197.67 36.5 198.34 37.64 199.84 37.64C200.33 37.64 200.89 37.53 201.42 37.15C201.58 37.04 201.73 36.91 201.86 36.76ZM200.01 36.66C199.45 36.66 198.89 36.25 199.07 35.14C199.22 34.3 199.78 33.68 200.5 33.68C200.82 33.68 201.11 33.81 201.27 34.02C201.5 34.31 201.55 34.8 201.44 35.29C201.25 36.26 200.57 36.66 200.01 36.66ZM204.12 32.86L203.34 37.51L204.47 37.51L204.93 34.58C205.15 35.2 205.21 35.35 205.52 36.04L206.16 37.51L207.32 37.51L208.11 32.86L206.97 32.86L206.52 35.84C206.37 35.43 206.29 35.22 206.02 34.57L205.28 32.86L204.12 32.86L204.12 32.86ZM209.65 32.86L208.87 37.51L212.4 37.51L212.55 36.59L210.2 36.59L210.39 35.49L212.56 35.49L212.71 34.6L210.54 34.6L210.68 33.76L213.01 33.76L213.16 32.86L209.65 32.86L209.65 32.86ZM127.6 36.76C127.73 36.62 127.86 36.47 127.96 36.3C128.07 36.13 128.15 35.96 128.23 35.77C128.3 35.59 128.35 35.4 128.39 35.21C128.44 34.89 128.61 33.34 127.24 32.85C127.17 32.83 127.1 32.81 127.03 32.79C126.96 32.77 126.89 32.76 126.82 32.75C126.75 32.73 126.68 32.73 126.61 32.72C126.54 32.72 126.46 32.71 126.39 32.71C124.87 32.71 123.85 33.9 123.64 35.16C123.41 36.5 124.07 37.64 125.58 37.64C126.07 37.64 126.63 37.53 127.16 37.15C127.32 37.04 127.46 36.91 127.6 36.76ZM125.75 36.66C125.19 36.66 124.63 36.25 124.81 35.14C124.95 34.3 125.52 33.68 126.24 33.68C126.56 33.68 126.85 33.81 127.01 34.02C127.23 34.31 127.29 34.8 127.18 35.29C126.98 36.26 126.31 36.66 125.75 36.66ZM194.59 33.84C194.95 33.84 195.41 33.83 195.66 34.25C195.82 34.54 195.8 34.87 195.75 35.19C195.52 36.53 194.64 36.56 194.01 36.57L193.65 36.57L194.11 33.84L194.59 33.84ZM58.95 29.88L57.21 40.5L54.81 40.5L56.54 29.88L58.95 29.88L58.95 29.88ZM66.73 29.88L65 40.5L61.62 40.5L63.35 29.88L66.74 29.88L66.73 29.88ZM51.16 29.88L49.42 40.5L48 40.5L49.73 29.88L51.16 29.88L51.16 29.88ZM82.32 29.88L80.58 40.5L75.23 40.5L76.97 29.88L82.32 29.88L82.32 29.88ZM74.53 29.88L72.79 40.5L68.42 40.5L70.16 29.88L74.53 29.88L74.53 29.88ZM227.33 22.01C227.32 23.42 226.2 24.54 224.75 24.54C223.42 24.54 222.2 23.5 222.2 22C222.2 20.53 223.38 19.46 224.76 19.46C226.24 19.46 227.33 20.62 227.33 22.01L227.33 22.01ZM226.93 21.11C226.81 20.83 226.64 20.57 226.42 20.36C226.21 20.14 225.95 19.97 225.67 19.85C225.38 19.74 225.08 19.68 224.77 19.69C223.45 19.69 222.43 20.73 222.43 22C222.43 22.3 222.49 22.6 222.61 22.89C222.73 23.17 222.9 23.42 223.11 23.64C223.33 23.85 223.59 24.02 223.87 24.14C224.15 24.25 224.46 24.31 224.76 24.31C226.08 24.31 227.09 23.29 227.1 22C227.1 21.7 227.04 21.4 226.93 21.11ZM223.73 20.4L224.72 20.4C225.09 20.4 225.27 20.4 225.46 20.47C225.79 20.6 225.95 20.89 225.95 21.19C225.95 21.63 225.63 21.89 225.24 21.95C225.58 22.08 225.69 22.27 225.75 22.65C225.82 23.12 225.85 23.29 225.99 23.57L225.45 23.57C225.38 23.43 225.35 23.29 225.32 23.14C225.31 23.07 225.26 22.71 225.24 22.63C225.15 22.16 224.89 22.11 224.43 22.1L224.2 22.1L224.2 23.57L223.73 23.57L223.73 20.4ZM224.21 20.76L224.21 21.73L224.75 21.73C224.95 21.73 225.48 21.73 225.48 21.23C225.48 21.08 225.42 20.96 225.33 20.88C225.19 20.76 225.03 20.76 224.64 20.76L224.21 20.76Z" />
</svg>