<svg height="48" viewBox="0 0 256 48" width="256" xmlns="http://www.w3.org/2000/svg" xmlns:xlink="http://www.w3.org/1999/xlink"><filter id="a" height="162.9%" width="123.6%" x="-11.8%" y="-31.4%"><feOffset dx="0" dy="0" in="SourceAlpha" result="shadowOffsetOuter1"/><feGaussianBlur in="shadowOffsetOuter1" result="shadowBlurOuter1" stdDeviation="17"/><feColorMatrix in="shadowBlurOuter1" result="shadowMatrixOuter1" type="matrix" values="0 0 0 0 0   0 0 0 0 0   0 0 0 0 0  0 0 0 0.17 0"/><feMerge><feMergeNode in="shadowMatrixOuter1"/><feMergeNode in="SourceGraphic"/></feMerge></filter><g fill="#fff" filter="url(#a)" transform="translate(-152 -59)"><path d="m138 3c3.313708 0 6 2.6862915 6 6v30c0 3.3137085-2.686292 6-6 6h-18c-3.313708 0-6-2.6862915-6-6v-30c0-3.3137085 2.686292-6 6-6zm0 4h-18c-1.104569 0-2 .8954305-2 2v30c0 1.1045695.895431 2 2 2h18c1.104569 0 2-.8954305 2-2v-30c0-1.1045695-.895431-2-2-2zm-9 27c1.380712 0 2.5 1.1192881 2.5 2.5s-1.119288 2.5-2.5 2.5-2.5-1.1192881-2.5-2.5 1.119288-2.5 2.5-2.5z" transform="translate(152 59)"/></g></svg>