<?xml version="1.0" encoding="UTF-8"?>
<svg width="256px" height="104px" viewBox="0 0 256 104" version="1.1" xmlns="http://www.w3.org/2000/svg" xmlns:xlink="http://www.w3.org/1999/xlink">
    <!-- Generator: Sketch 61.2 (89653) - https://sketch.com -->
    <title>logo_jaja</title>
    <desc>Created with Sketch.</desc>
    <g id="03-what-we-do-(SRC)" stroke="none" stroke-width="1" fill="none" fill-rule="evenodd">
        <g id="Group" fill="#FFFFFF" fill-rule="nonzero">
            <path d="M56.1895732,84.6206897 L56.6299487,84.6283845 C66.5451326,84.8782764 208,91.1422542 208,92.8103448 C208,94.5124782 60.7125496,101 56.1895732,101 C51.6665968,101 48,97.3333665 48,92.8103448 C48,88.2873232 51.6665968,84.6206897 56.1895732,84.6206897 Z M89.8168227,15.3862069 L78.7134856,56.8655172 C75.8583418,67.4137931 69.8308159,70.8241379 62.4550277,70.8241379 C59.9171221,70.8241379 57.941244,70.6133755 56.196789,70.2579722 L55.872335,70.1896552 L58.4102406,60.7517241 C59.3619552,60.9896552 60.1550507,61.1482759 61.344694,61.1482759 C63.8964788,61.1482759 65.9959017,59.1126272 66.9813836,55.629406 L77.761771,15.3862069 L89.8168227,15.3862069 Z M160.402323,15.3862069 L149.298986,56.8655172 C146.443842,67.4137931 140.416316,70.8241379 133.040528,70.8241379 C130.502622,70.8241379 128.526744,70.6133755 126.782289,70.2579722 L126.457835,70.1896552 L128.995741,60.7517241 C129.947455,60.9896552 130.740551,61.1482759 131.930194,61.1482759 C134.481979,61.1482759 136.581402,59.1126272 137.566884,55.629406 L148.347271,15.3862069 L160.402323,15.3862069 Z M116.068284,14.9103448 C127.488859,14.9103448 133.278457,19.6689655 133.278457,27.9965517 C133.278457,30.0464191 132.94057,31.9611304 132.451933,33.9278248 L132.326742,34.4206897 L126.061287,57.8965517 L114.402783,57.8965517 C110.120068,58.4252874 106.313209,58.6896552 102.982208,58.6896552 C95.6064199,58.6896552 90.6099182,53.9310345 90.6099182,47.2689655 C90.6099182,42.9862069 92.1167997,39.5758621 94.6547053,37.037931 C97.9857065,33.7068966 103.061518,31.962069 108.930424,31.962069 C113.33038,31.962069 117.004706,32.6877061 120.439259,33.7225279 L120.906167,33.8655172 L121.064786,33.3103448 C121.302714,32.3586207 121.540643,31.4068966 121.540643,30.137931 C121.540643,27.2034483 119.478595,25.1413793 113.530378,25.1413793 C109.571246,25.1413793 105.612113,26.0915807 102.565164,27.2902963 L102.189113,27.4413793 L100.285683,17.9241379 C104.647709,16.1 110.040758,14.9103448 116.068284,14.9103448 Z M186.653784,14.9103448 C198.07436,14.9103448 203.863957,19.6689655 203.863957,27.9965517 C203.863957,30.0464191 203.52607,31.9611304 203.037434,33.9278248 L202.912242,34.4206897 L196.646788,57.8965517 L184.988284,57.8965517 C180.705568,58.4252874 176.89871,58.6896552 173.567708,58.6896552 C166.19192,58.6896552 161.195418,53.9310345 161.195418,47.2689655 C161.195418,42.9862069 162.7023,39.5758621 165.240206,37.037931 C168.571207,33.7068966 173.647018,31.962069 179.515925,31.962069 C183.915881,31.962069 187.590207,32.6877061 191.024759,33.7225279 L191.491667,33.8655172 L191.650286,33.3103448 C191.888215,32.3586207 192.126143,31.4068966 192.126143,30.137931 C192.126143,27.2034483 190.064095,25.1413793 184.115879,25.1413793 C180.156746,25.1413793 176.197613,26.0915807 173.150664,27.2902963 L172.774613,27.4413793 L170.871184,17.9241379 C175.233209,16.1 180.626258,14.9103448 186.653784,14.9103448 Z M111.230401,39.2586207 C108.295948,39.2586207 105.837352,40.1310345 104.330471,41.637931 C103.220137,42.7482759 102.58566,44.1758621 102.58566,45.9206897 C102.58566,48.537931 104.727018,50.4413793 108.137329,50.4413793 C111.408848,50.4413793 114.247378,50.169121 116.652919,49.6246043 L119.161357,40.7655172 C117.099308,39.9724138 114.164855,39.2586207 111.230401,39.2586207 Z M181.919349,39.2586207 C178.984896,39.2586207 176.526299,40.1310345 175.019418,41.637931 C173.909084,42.7482759 173.274608,44.1758621 173.274608,45.9206897 C173.274608,48.537931 175.415966,50.4413793 178.826276,50.4413793 C182.097795,50.4413793 184.936325,50.169121 187.341867,49.6246043 L189.850304,40.7655172 C187.788256,39.9724138 184.853802,39.2586207 181.919349,39.2586207 Z M94.2581576,0 L91.4030137,10.7068966 L78.7134856,10.7068966 L81.5686294,0 L94.2581576,0 Z M164.843658,0 L161.988514,10.7068966 L149.298986,10.7068966 L152.15413,0 L164.843658,0 Z" id="Shape"></path>
        </g>
    </g>
</svg>