<?xml version="1.0" encoding="UTF-8"?>
<svg width="256px" height="126px" viewBox="0 0 256 126" version="1.1" xmlns="http://www.w3.org/2000/svg" xmlns:xlink="http://www.w3.org/1999/xlink">
    <!-- Generator: Sketch 61.2 (89653) - https://sketch.com -->
    <title>logo_mercedes</title>
    <desc>Created with Sketch.</desc>
    <g id="03-what-we-do-(SRC)" stroke="none" stroke-width="1" fill="none" fill-rule="evenodd">
        <g id="Group" fill="#FFFFFF">
            <path d="M165.647157,111.124314 L162.185079,111.124314 L162.185079,102.845074 L165.647157,102.845074 C166.659692,102.845074 167.504362,103.263512 168.094027,104.099858 C168.770832,104.852516 169.107096,105.855707 169.107096,107.026273 C169.107096,108.113682 168.770832,109.116873 168.094027,109.953218 C167.504362,110.706936 166.659692,111.124314 165.647157,111.124314 Z M165.983421,121.745746 L163.283685,121.745746 C162.691346,121.745746 162.269546,121.327838 162.185079,120.574121 L162.185079,112.128565 L165.983421,112.128565 C167.082027,112.128565 168.010095,112.63016 168.770832,113.550194 C169.529431,114.470227 169.951232,115.640793 169.951232,116.978734 C169.951232,118.317205 169.612829,119.403554 168.854765,120.323588 C168.094027,121.243621 167.165959,121.745746 165.983421,121.745746 Z M157.29027,122.498404 L167.165959,122.498404 C168.431962,122.498404 169.550427,121.98353 170.450435,121.024047 L170.627502,120.826243 C171.640037,119.738834 172.146305,118.484581 172.146305,116.978734 C172.146305,115.652375 171.778404,114.470434 171.043037,113.503105 L170.879834,113.299131 C170.119097,112.294881 169.107096,111.710127 167.926162,111.459065 C168.854765,111.208532 169.6989,110.622719 170.289634,109.785843 C170.963767,108.950557 171.302169,108.030524 171.302169,106.943115 C171.302169,105.69437 170.861154,104.590966 170.047364,103.701374 L169.867299,103.514045 C169.022629,102.594012 167.926162,102.092946 166.659692,102.092946 L157.29027,102.092946 L157.29027,102.67717 L158.557275,102.67717 C159.315339,102.761387 159.737674,103.263512 159.737674,103.932483 L159.737674,120.574121 C159.737674,121.327838 159.315339,121.745746 158.557275,121.912592 L157.29027,121.912592 L157.29027,122.498404 Z M151.259967,114.83199 L157.591785,114.83199 L157.591785,113.828799 L151.259967,113.828799 L151.259967,114.83199 Z M198.650232,120.490963 L198.650232,112.462785 C198.650232,111.459065 198.227897,110.539561 197.467694,109.534781 C196.709095,108.532119 195.613163,108.030524 194.26169,108.030524 C193.333623,108.030524 192.488953,108.281057 191.644817,108.783182 C190.800682,109.284778 190.29388,109.870061 190.209947,110.539561 L190.209947,107.862619 L186.663937,108.364215 L186.663937,108.86634 C187.930942,108.86634 188.521142,109.368465 188.521142,110.288498 L188.521142,120.490963 C188.521142,120.992558 188.26881,121.410996 187.846475,121.662059 C187.42414,121.912592 186.918407,121.996809 186.326069,121.996809 L186.326069,122.498404 L192.656817,122.498404 L192.656817,121.996809 C192.151085,121.996809 191.644817,121.912592 191.222482,121.662059 C190.716215,121.410996 190.462279,120.992558 190.462279,120.490963 L190.462279,112.713318 C190.462279,112.044348 190.800682,111.291689 191.306415,110.539561 C191.898753,109.870061 192.741284,109.452153 193.753819,109.452153 C194.768492,109.452153 195.527092,109.785843 196.033359,110.372186 C196.539092,111.041157 196.793562,111.793285 196.793562,112.713318 L196.793562,120.490963 C196.793562,120.992558 196.539092,121.410996 196.11943,121.662059 C195.697095,121.912592 195.190827,121.996809 194.597955,121.996809 L194.597955,122.498404 L200.84584,122.498404 L200.84584,121.996809 C200.339572,121.996809 199.83277,121.912592 199.327038,121.662059 C198.904703,121.410996 198.650232,120.992558 198.650232,120.490963 Z M204.643647,121.495213 L213,108.030524 L203.040913,108.030524 L202.532507,112.128565 L203.040913,112.128565 C203.040913,111.710127 203.29271,111.124314 203.798977,110.288498 C204.221312,109.452153 204.812047,109.033715 205.57225,108.86634 L209.96293,108.86634 L201.689975,122.498404 L212.325333,122.498404 L213,118.484581 L212.4098,118.484581 C212.4098,118.650896 212.4098,118.901959 212.239262,119.237239 C212.15533,119.487772 211.987465,119.821992 211.73353,120.156742 L211.430167,120.552824 C211.278306,120.745627 211.126329,120.926456 210.97493,121.076776 C210.636528,121.410996 210.29866,121.495213 209.876325,121.495213 L204.643647,121.495213 Z M149.608584,118.901959 C149.608584,118.066673 149.440719,117.397172 149.186249,116.894517 C148.933917,116.476609 148.42765,116.059231 147.751379,115.808168 L143.024969,113.633352 C142.687101,113.465447 142.350837,113.214914 142.180299,112.964381 C141.928502,112.713318 141.842431,112.294881 141.842431,111.710127 C141.842431,111.041157 142.096367,110.372186 142.687101,109.870061 C143.192834,109.284778 143.869639,108.950557 144.543771,108.950557 C145.569137,108.950557 146.445944,109.314601 147.038584,109.97508 L147.161179,110.121123 C147.835846,110.873781 148.173714,111.626969 148.258181,112.462785 L148.763914,112.462785 L148.763914,108.113682 L147.329044,109.452153 C147.161179,109.116873 146.822777,108.86634 146.400976,108.532119 C145.894709,108.281057 145.387907,108.113682 144.714309,108.113682 C143.447304,108.113682 142.434769,108.532119 141.506167,109.20162 C140.662031,109.870061 140.239696,110.873781 140.239696,112.128565 C140.239696,113.048068 140.407561,113.633352 140.745964,114.134947 C141.083832,114.553385 141.506167,114.803918 142.012434,115.05551 L146.317044,116.978734 C146.822777,117.229797 147.245112,117.48033 147.499582,117.731393 C147.751379,118.066673 147.921917,118.567738 147.921917,119.237239 C147.921917,119.989367 147.583514,120.658338 146.99278,121.243621 C146.317044,121.828904 145.556306,122.079967 144.628238,122.079967 C143.362837,122.079967 142.350837,121.662059 141.674032,120.742025 C140.913829,119.821992 140.493632,119.069334 140.493632,118.400363 L139.987365,118.400363 L139.987365,122.749467 L141.168299,121.410996 C141.674032,122.079967 142.180299,122.498404 142.771033,122.66578 C143.362837,122.916842 143.953571,123 144.628238,123 C146.064712,123 147.245112,122.66578 148.173714,121.912592 C149.102316,121.160463 149.608584,120.156742 149.608584,118.901959 Z M183.372397,114.553385 L176.112512,114.553385 C176.112512,112.797006 176.534847,111.459065 177.211117,110.455344 C177.969716,109.452153 178.897784,108.950557 179.996924,108.950557 C181.263395,108.950557 182.105392,109.534781 182.611659,110.539561 C183.118461,111.626969 183.372397,112.964381 183.372397,114.553385 Z M185.145669,117.81561 L184.638867,117.81561 C184.384932,119.153022 183.878664,120.072525 183.118461,120.574121 C182.443795,121.160463 181.515727,121.410996 180.418725,121.410996 C179.147254,121.410996 178.176019,120.966676 177.431924,120.007824 L177.29505,119.821992 C176.534847,118.818801 176.112512,117.312955 176.112512,115.389731 L185.145669,115.389731 C185.145669,113.214914 184.807267,111.459065 184.046529,110.121123 C183.288465,108.783182 182.02146,108.113682 180.164789,108.113682 C178.405332,108.113682 176.949594,108.714563 175.868939,109.915424 L175.692315,110.121123 C174.593709,111.375907 174.00351,113.299131 174.00351,115.891326 C174.00351,117.81561 174.593709,119.571459 175.692315,120.909401 C176.788782,122.331029 178.392051,123 180.333189,123 C181.347327,123 182.359862,122.581562 183.372397,121.662059 C184.468864,120.658338 185.061202,119.403554 185.145669,117.81561 Z M136.441354,114.553385 L129.265401,114.553385 C129.265401,112.90678 129.562825,111.627942 130.226832,110.647479 L130.364541,110.455344 C131.038674,109.452153 131.967276,108.950557 133.065882,108.950557 C134.330214,108.950557 135.258816,109.534781 135.765084,110.539561 C136.271351,111.626969 136.441354,112.964381 136.441354,114.553385 Z M108.923288,114.553385 L101.665006,114.553385 C101.665006,112.797006 102.086272,111.459065 102.761473,110.455344 C103.522211,109.452153 104.450279,108.950557 105.547281,108.950557 C106.813751,108.950557 107.657887,109.534781 108.164689,110.539561 C108.670956,111.626969 108.923288,112.964381 108.923288,114.553385 Z M110.696026,117.81561 L110.189758,117.81561 C109.936357,119.153022 109.430624,120.072525 108.670956,120.574121 C107.99522,121.160463 107.067152,121.410996 105.969081,121.410996 C104.618678,121.410996 103.606144,120.909401 102.845406,119.821992 C102.086272,118.818801 101.665006,117.312955 101.665006,115.389731 L110.696026,115.389731 C110.696026,113.214914 110.27476,111.459065 109.599024,110.121123 C108.838821,108.783182 107.572885,108.113682 105.716215,108.113682 C103.859545,108.113682 102.339673,108.783182 101.242671,110.121123 C100.060133,111.375907 99.5538658,113.299131 99.5538658,115.891326 C99.5538658,117.81561 100.060133,119.571459 101.242671,120.909401 C102.339673,122.331029 103.944546,123 105.885149,123 C106.897684,123 107.910218,122.581562 108.923288,121.662059 C110.021359,120.658338 110.612093,119.403554 110.696026,117.81561 Z M54.0582275,118.735643 L47.8114115,102.092946 L43,102.092946 L43,102.594012 C43.6016046,102.594012 44.1343579,102.726259 44.5419397,102.990381 L44.6888054,103.095607 C45.1950729,103.430887 45.4484739,103.932483 45.4484739,104.601453 L45.4484739,120.2399 C45.4484739,120.848537 45.2390516,121.318409 44.8206086,121.650313 L44.6888054,121.745746 C44.2664704,122.079967 43.6768052,122.247342 43,122.247342 L43,122.749467 L48.993415,122.749467 L48.993415,122.247342 C48.3187482,122.247342 47.7274791,122.079967 47.2206771,121.745746 C46.7978075,121.410996 46.5460103,120.909401 46.5460103,120.2399 L46.5460103,105.187266 L53.2130229,122.749467 L53.5514255,122.749467 L60.3039743,105.187266 L60.3039743,120.2399 C60.3039743,120.853609 60.1620228,121.326231 59.7484094,121.658582 L59.6287729,121.745746 C59.2064379,122.079967 58.616238,122.247342 57.940502,122.247342 L57.940502,122.749467 L65.1159204,122.749467 L65.1159204,122.247342 C64.4401844,122.247342 63.8489154,122.079967 63.3431826,121.745746 C62.9208476,121.410996 62.6685158,120.909401 62.6685158,120.2399 L62.6685158,104.601453 C62.6685158,103.932483 62.9208476,103.430887 63.3431826,103.095607 C63.8489154,102.761387 64.4401844,102.594012 65.1159204,102.594012 L65.1159204,102.092946 L60.6413077,102.092946 L54.0582275,118.735643 Z M82.7566935,120.909401 L82.7566935,111.96119 C82.8411605,111.375907 83.1790285,110.873781 83.769763,110.455344 C84.2760304,109.953218 84.7817632,109.702686 85.2890998,109.702686 C85.6264332,109.702686 85.8809034,109.870061 86.1332352,110.121123 C86.4705686,110.455344 86.5550356,110.790624 86.5550356,111.291689 L87.3997057,111.291689 L86.8929036,108.030524 C85.4585684,108.030524 84.4449644,108.281057 83.8536954,108.783182 L83.3817018,109.256921 C83.0940863,109.554202 82.8689598,109.814445 82.7566935,110.037965 L82.7566935,108.030524 L78.8738844,108.615277 L78.8738844,109.20162 C80.2248219,109.20162 80.9000233,109.702686 80.9000233,110.873781 L80.9000233,120.909401 C80.9000233,121.243621 80.6460877,121.578901 80.2248219,121.828904 C79.8874884,122.164184 79.2962194,122.247342 78.621018,122.247342 L78.621018,122.749467 L85.0362334,122.749467 L85.0362334,122.247342 C84.2760304,122.247342 83.769763,122.164184 83.3474279,121.828904 C82.9250929,121.578901 82.7566935,121.243621 82.7566935,120.909401 Z M96.5162613,109.452153 C96.2623257,109.116873 95.8399907,108.783182 95.3337233,108.448961 C94.9113883,108.197899 94.3211885,108.030524 93.730454,108.030524 C92.1261156,108.030524 90.7751781,108.783182 89.6787109,110.121123 C88.5811745,111.459065 87.9899055,113.382289 87.9899055,115.808168 C87.9899055,117.731393 88.4956383,119.487772 89.5947785,120.909401 C90.6912457,122.331029 92.0416486,123 93.730454,123 C95.0808569,123 96.1783933,122.581562 96.9385963,121.662059 C97.6966609,120.658338 98.1195306,119.487772 98.1195306,118.066673 L97.3598621,118.066673 C97.3598621,119.237239 97.0225287,120.156742 96.2623257,120.909401 C95.5026573,121.662059 94.7435235,121.996809 93.9827858,121.996809 C93.3086536,121.996809 92.7173846,121.745746 92.210048,121.327838 C91.7037806,120.826243 91.2814456,120.2399 91.0296484,119.571459 C90.6912457,118.901959 90.4378447,118.149301 90.3528431,117.229797 C90.1849783,116.393451 90.1849783,115.557635 90.1849783,114.637072 C90.1849783,113.131226 90.5228463,111.877502 91.1135808,110.622719 C91.7887822,109.452153 92.632383,108.86634 93.730454,108.86634 C94.8274559,108.86634 95.6715913,109.284778 96.1783933,109.953218 C96.6846607,110.706936 97.0225287,111.542222 97.3598621,112.545943 L97.8661295,112.545943 L97.8661295,108.030524 L96.5162613,109.452153 Z M75.4134103,114.553385 L68.2395957,114.553385 C68.2395957,112.797006 68.5763945,111.459065 69.2515959,110.455344 C70.0112644,109.452153 70.9398668,108.950557 72.0374032,108.950557 C73.3033391,108.950557 74.1464053,109.534781 74.6537419,110.539561 C75.1600093,111.626969 75.4134103,112.964381 75.4134103,114.553385 Z M77.1861482,117.81561 L76.7638132,117.81561 C76.4254105,119.153022 75.9191431,120.072525 75.1600093,120.574121 C74.4848079,121.160463 73.5562055,121.410996 72.5436706,121.410996 C71.1927332,121.410996 70.096266,120.909401 69.3360629,119.821992 C68.5763945,118.818801 68.2395957,117.312955 68.2395957,115.389731 L77.1861482,115.389731 C77.1861482,113.214914 76.8477456,111.459065 76.0896809,110.121123 C75.3294779,108.783182 74.0619383,108.113682 72.2902696,108.113682 C70.3480632,108.113682 68.9137279,108.783182 67.7322591,110.121123 C66.6347227,111.375907 66.0439883,113.299131 66.0439883,115.891326 C66.0439883,117.81561 66.6347227,119.571459 67.7322591,120.909401 C68.9137279,122.331029 70.4325302,123 72.4592036,123 C73.4722731,123 74.4848079,122.581562 75.4973427,121.662059 C76.5109467,120.658338 77.1022158,119.403554 77.1861482,117.81561 Z M122.007654,117.564018 C122.007654,119.069334 121.669786,120.2399 120.994585,120.992558 C120.234916,121.745746 119.390781,122.079967 118.461644,122.079967 C117.195173,122.079967 116.183173,121.410996 115.507437,120.156742 C114.831701,118.818801 114.580439,117.397172 114.580439,115.808168 C114.580439,113.883885 114.915634,112.211723 115.760838,110.873781 C116.604974,109.534781 117.533576,108.86634 118.546111,108.86634 C119.728649,108.86634 120.57225,109.368465 121.163519,110.455344 C121.753719,111.459065 122.007654,112.545943 122.007654,113.800727 L122.007654,117.564018 Z M122.007654,104.601453 L122.007654,110.288498 C121.753719,109.785843 121.247451,109.284778 120.741184,108.783182 C120.150449,108.281057 119.390781,108.030524 118.461644,108.030524 C116.85784,108.030524 115.507437,108.783182 114.409901,110.204281 C113.312899,111.626969 112.722165,113.465447 112.722165,115.640793 C112.722165,117.81561 113.228967,119.571459 114.242036,120.992558 C115.254036,122.331029 116.604974,123 118.377712,123 C119.390781,123 120.150449,122.749467 120.741184,122.331029 C121.331384,121.828904 121.753719,121.243621 122.007654,120.574121 C122.007654,121.243621 122.176054,121.828904 122.598389,122.331029 C122.935187,122.749467 123.272521,123 123.610923,123 L126.057794,122.581562 L126.057794,121.996809 C125.721529,121.996809 125.299194,121.912592 124.961326,121.745746 C124.538991,121.578901 124.371126,121.243621 124.371126,120.826243 L124.371126,102.427166 L123.610923,102.427166 L120.150449,102.67717 L120.150449,103.095607 C120.657251,103.095607 121.079586,103.263512 121.501921,103.598262 C121.838186,103.849325 122.007654,104.183545 122.007654,104.601453 Z M133.317679,108.113682 C135.090951,108.113682 136.357422,108.783182 137.116021,110.121123 C137.828711,111.375443 138.244447,112.997065 138.29363,114.986862 L138.298559,115.389731 L129.265401,115.389731 C129.265401,117.312955 129.603804,118.818801 130.364541,119.821992 C131.122606,120.909401 132.221212,121.410996 133.572149,121.410996 C134.668616,121.410996 135.513286,121.160463 136.271351,120.574121 C136.899317,120.108353 137.381159,119.282247 137.716877,118.095802 L137.791757,117.81561 L138.298559,117.81561 C138.128021,119.403554 137.538356,120.658338 136.525287,121.662059 C135.513286,122.581562 134.500217,123 133.486078,123 C131.461009,123 129.942206,122.331029 128.759668,120.909401 C127.662667,119.571459 127.071398,117.81561 127.071398,115.891326 C127.071398,113.299131 127.662667,111.375907 128.759668,110.121123 C129.942206,108.783182 131.376542,108.113682 133.317679,108.113682 Z M128.172676,2 C150.759502,2 169.069674,20.1412053 169.069674,42.5195999 C169.069674,64.8979945 150.759502,83.0391998 128.172676,83.0391998 C105.586203,83.0391998 87.2756782,64.897815 87.2756782,42.5195999 C87.2756782,20.1413848 105.586203,2 128.172676,2 Z M128.172676,5.17800784 C107.357709,5.17800784 90.4832858,21.8965568 90.4832858,42.5195999 C90.4832858,49.6110764 92.4785334,56.2408819 95.9431558,61.8880156 L128.001069,43.5826435 L127.923552,50.7712972 L95.9486863,61.8970272 C102.560828,72.6675793 114.518989,79.861192 128.172676,79.861192 C141.720822,79.861192 153.599315,72.7786759 160.242127,62.1467637 L129.158481,50.522883 L129.158481,43.7738537 L160.282513,62.0819782 C160.433557,61.8391245 160.581873,61.5944277 160.727419,61.3479297 L132.804996,41.4221279 L135.101109,40.0455208 L160.734518,61.3359023 C163.994104,55.8106997 165.862067,49.3812844 165.862067,42.5195999 C165.862067,22.3394868 149.705321,5.898241 129.50882,5.20103532 L134.98617,39.166272 L129.081498,42.4163146 L129.48381,5.20018006 C129.274644,5.19309523 129.065047,5.18769905 128.85503,5.18400482 L125.067712,40.4660772 L122.597854,39.0518637 L128.816975,5.18335414 C128.602639,5.17979465 128.387868,5.17800784 128.172676,5.17800784 Z M122.057907,39.8924468 L124.469493,41.3267876 L95.5053303,61.1533192 L122.057907,39.8924468 Z M131.319339,42.3400425 L153.704164,57.3285867 L129.775945,43.4867736 L131.319339,42.3400425 Z M126.071159,42.1101666 L127.459518,43.3342292 L119.509462,47.5397929 L126.071159,42.1101666 Z M128.579508,15.401659 L128.078052,42.2632406 L126.534658,41.6514741 L128.579508,15.401659 Z" id="Shape"></path>
        </g>
    </g>
</svg>