<svg height="134" viewBox="0 0 228 134" width="228" xmlns="http://www.w3.org/2000/svg"><g fill="#a09696" transform="translate(1 1)"><path d="m56.7759966 131.703992h.088l.744-.032.9839999-2.432 4.3119998-.031999 1.0879999 2.503999h.7759999l-3.9919995-9.503999zm2.1759999-3.2 1.8239999-4.391999 1.8239999 4.391999z"/><path d="m65.0399961 123.279993h2.6239999v8.423999h.7919999v-8.423999h2.6319999v-.736h-6.0479997z"/><path d="m80.0079952 126.503992c-1.2479999-.544-1.9519999-.903999-1.9519999-1.935999 0-.84.688-1.448 1.6399999-1.448.808 0 1.36.352 1.7279999 1.096l.024.056.048-.024.608-.376c-.496-.984-1.3039999-1.488-2.4159998-1.488-1.408 0-2.4319999.928-2.4319999 2.216 0 1.439999.9839999 1.983999 2.3679999 2.583999 1.4479999.64 2.1359998 1.064 2.1359998 2.192 0 .848-.5279999 1.744-2.0079999 1.744-1.1679999 0-2.0319998-.616-2.4959998-1.784l-.024-.056-.056.024-.616.344c.536 1.424 1.6639999 2.208 3.1839998 2.208 1.6959999 0 2.7999999-.976 2.7999999-2.488.0160003-1.6-.992-2.168-2.5359999-2.864z"/><path d="m85.7119949 127.239992h4.0079998v-.752h-4.0079998v-3.207999h4.2559997v-.736h-5.0479997v9.159999h5.1359997v-.736h-4.3439997z"/><path d="m91.8319945 131.703992h.088l.744-.032.9839999-2.432 4.3119998-.031999 1.0879999 2.503999h.776l-3.9919996-9.503999zm2.1679999-3.2 1.8239999-4.391999 1.8239999 4.391999z"/><path d="m102.319994 130.719992c-.288 0-.528.24-.528.528s.232.528.528.528c.256 0 .528-.208.528-.528-.008-.28-.256-.528-.528-.528z"/><path d="m112.207993 122.383993c-2.696 0-4.727999 2.04-4.727999 4.743999 0 2.696 2.031999 4.728 4.727999 4.728 2.656 0 4.728-2.08 4.728-4.728 0-2.655999-2.08-4.743999-4.728-4.743999zm0 8.727999c-2.256 0-3.951999-1.712-3.951999-3.984 0-2.279999 1.703999-3.991999 3.951999-3.991999 2.24 0 3.928 1.72 3.928 3.991999 0 2.272-1.688 3.984-3.928 3.984z"/><path d="m125.719993 129.911992-6.352-7.719999v9.511999h.792v-7.375999l6.343999 7.727999v-9.511999h-.783999z"/><path d="m134.263992 122.543993h-.784v9.159999h4.68v-.736h-3.896z"/><path d="m139.823992 131.703992h.088l.744-.032.984-2.432 4.311999-.031999 1.088 2.503999h.776l-3.991999-9.503999zm2.168-3.2 1.823999-4.391999 1.824 4.391999z"/><path d="m156.167991 129.911992-6.352-7.719999v9.511999h.792v-7.375999l6.344 7.727999v-9.511999h-.784z"/><path d="m162.72799 122.543993h-2.8v9.167999h2.808c2.864 0 4.720026-1.8 4.720026-4.576.007974-2.791999-1.856026-4.591999-4.728026-4.591999zm-.04 8.423999h-1.968v-7.687999h1.952c2.496 0 3.976032 1.44 3.976032 3.847999.007968 2.4-1.472032 3.84-3.960032 3.84z"/><path d="m169.63999 130.719992c-.28 0-.528.24-.528.528s.232.528.528.528c.256 0 .528-.208.528-.528 0-.28-.248-.528-.528-.528z"/><path d="m43.2399974 98.8959941-13.5119992-15.2639991v20.367999h2.3759999v-14.3839993l13.5199992 15.2559993v-20.359999h-2.3839999z"/><path d="m63.5119962 101.783994h-8.9359995v-6.9599997h8.2159996v-2.2159998h-8.2159996v-5.8879997h8.7359995v-2.2079998h-11.1119993v19.487999h11.3119993z"/><path d="m95.4399943 84.511995h-6.2719996v19.487999h2.3759998v-7.5439997h3.8959998c3.3679998 0 5.9999997-2.6239999 5.9999997-5.9759997s-2.6399999-5.9679996-5.9999997-5.9679996zm-.088 9.7279994h-3.8159998v-7.5199996h3.8159998c2.1119999 0 3.7039998 1.6159999 3.7039998 3.7599998s-1.5919999 3.7599998-3.7039998 3.7599998z"/><path d="m111.703993 83.647995-8.879999 20.351999h2.512l2.072-4.7519999h8.535999l2.072 4.7519999h2.592zm-3.335999 13.3839992 3.311999-7.7839995 3.312 7.7839995z"/><path d="m161.44799 84.151995c-5.783999 0-10.143999 4.3519997-10.143999 10.1199994 0 5.7679996 4.36 10.1199996 10.143999 10.1199996 5.784 0 10.144-4.352 10.144-10.1199996 0-5.7759997-4.36-10.1199994-10.144-10.1199994zm0 18.023999c-4.439999 0-7.791999-3.3999999-7.791999-7.9039996 0-4.5039998 3.352-7.9039995 7.791999-7.9039995 4.424 0 7.768 3.3999997 7.768 7.9039995 0 4.5039997-3.344 7.9039996-7.768 7.9039996z"/><path d="m189.591989 90.3679946c0-3.2879998-2.584-5.8639996-5.888-5.8639996h-6.688v19.495999h2.376v-7.6319997h4.192l4.344 7.6319997h2.72l-4.672-8.0959997c2.2-.912 3.616-3.0639998 3.616-5.5359997zm-6.112 3.7919998h-4.088v-7.4319996h4.224c2.048 0 3.59203 1.5679999 3.59203 3.6479998.00797 2.1839999-1.56803 3.7839998-3.72803 3.7839998z"/><path d="m197.815988 84.511995h-2.376v19.487999h10.312v-2.216h-7.936z"/><path d="m216.703987 84.511995h-6.304v19.487999h6.328c6.096 0 10.039999-3.816 10.039999-9.7279996 0-5.9359997-3.943999-9.7599994-10.063999-9.7599994zm-.136 17.271999h-3.784v-15.0639992h3.76c4.992 0 7.848 2.7519999 7.848 7.5439996 0 4.7839997-2.848 7.5199996-7.824 7.5199996z"/><path d="m12.1519993 80.1439952c-6.92799961 0-12.1519993 5.2159997-12.1519993 12.1199993s5.22399969 12.1199995 12.1519993 12.1199995c6.9279996 0 12.1519993-5.2079999 12.1519993-12.1199995s-5.2239997-12.1199993-12.1519993-12.1199993zm0 21.9599988c-5.52799969 0-9.69599945-4.2319998-9.69599945-9.8399995s4.16799976-9.8399994 9.69599945-9.8399994c5.5119996 0 9.6639994 4.2319997 9.6639994 9.8399994s-4.1519998 9.8399995-9.6639994 9.8399995z"/><path d="m141.671992 97.5999942-6.704-17.063999-7.008 17.127999-5.215999-16.447999h-2.584l7.479999 23.6879988 7.264-17.7359992 7.024 17.7999992 7.639999-23.7519988h-2.576z"/><path d="m77.4479954 90.8159946c-2.5679999-1.1279999-4.7839997-2.1039999-4.7839997-4.5359997 0-1.9759999 1.7519999-3.5199998 3.9839997-3.5199998 1.8959999 0 3.2159998.7919999 4.1519998 2.4959998l.056.096 2.0399999-1.1599999-.056-.096c-1.368-2.3839999-3.4399998-3.5919998-6.1599997-3.5919998-3.7439997 0-6.4639996 2.4559999-6.4639996 5.8399997 0 3.5839997 2.5119999 4.9999997 6.0639997 6.6079996 3.2879998 1.4879999 5.1439996 2.4719998 5.1439996 5.1999996 0 2.4559999-1.8079998 3.9839999-4.7119997 3.9839999-2.6559998 0-4.7679997-1.472-5.7999996-4.0479998l-.04-.112-2.1039999.9759999.04.096c1.2959999 3.3919999 4.1679998 5.3359999 7.8719995 5.3359999 4.3759998 0 7.1999996-2.464 7.1999996-6.2719998 0-3.8159998-2.0719999-5.3919997-6.4319996-7.2959996z"/><path d="m103.583994 48.2559971-.296.696c3.192 1.3759999 6.583999 2.0719999 10.079999 2.0719999s6.888-.696 10.08-2.0719999l-.296-.696c-3.096 1.3359999-6.392 2.0079999-9.784 2.0079999-3.392.008-6.687999-.672-9.783999-2.0079999z"/><path d="m113.367993.75199996c3.392 0 6.688.67999995 9.784 2.00799988l.296-.69599996c-3.184-1.36799992-6.584-2.06399988-10.08-2.06399988s-6.887999.69599996-10.079999 2.07199988l.296.69599996c3.096-1.33599993 6.391999-2.01599988 9.783999-2.01599988z"/><path d="m100.615994 47.6079972.192.112.192-.112c2.312-1.336 4.36-2.9999999 6.104-4.9039997 1.744 1.9119998 3.792001 3.5679997 6.103999 4.9039997l.192.112.192-.112c2.312-1.336 4.36-2.9999999 6.104-4.9039997 1.744 1.9119998 3.792 3.5679997 6.104 4.9039997l.191999.112.192-.112c7.536-4.3599998 12.296-12.1439993 12.72-20.8239988l-.752-.04c-.408 8.3519995-4.952 15.8479991-12.16 20.0959988-2.191999-1.2959999-4.135999-2.8879998-5.791999-4.7119997 3.64-4.2319998 5.831999-9.5919994 6.111999-15.3519991l-.751999-.04c-.272 5.5519997-2.376 10.7199994-5.864 14.8159991-3.488-4.0959997-5.592-9.2639994-5.864-14.8159991l-.432.024-.432-.024c-.272 5.5519997-2.376 10.7199994-5.863999 14.8159991-3.488-4.0959997-5.592-9.2639994-5.864-14.8159991l-.752.04c.28 5.7599997 2.472 11.1199993 6.112 15.3519991-1.656 1.8239999-3.6 3.4159998-5.792 4.7119997-7.2079996-4.2479997-11.7439993-11.7519993-12.1599993-20.0959988l-.7519999.04c.4239999 8.6799995 5.1759997 16.463999 12.7199992 20.8239988zm12.767999-17.831999c.776 4.6159998 2.784 8.8719995 5.792 12.3599993-1.656 1.8239999-3.6 3.4159998-5.792 4.7119997-2.192-1.2959999-4.136-2.8879998-5.791999-4.7119997 3.007999-3.4879998 5.023999-7.7519995 5.791999-12.3599993z"/><path d="m100.799994 4.17599975c2.192 1.29599992 4.136 2.88799983 5.792 4.71199972-3.64 4.23199973-5.832 9.59199943-6.112 15.35199913l.752.04c.272-5.5519997 2.376-10.7199994 5.864-14.81599916 3.487999 4.09599976 5.591999 9.26399946 5.863999 14.81599916l.432-.024.432.024c.272-5.5519997 2.376-10.7199994 5.864-14.81599916 3.488 4.09599976 5.592 9.26399946 5.864 14.81599916l.751999-.04c-.28-5.7599997-2.471999-11.1199994-6.111999-15.35199913 1.656-1.82399989 3.6-3.4159998 5.791999-4.71199972 7.208 4.24799975 11.744 11.75199935 12.16 20.09599885l.752-.04c-.424-8.6799995-5.184-16.46399906-12.72-20.8239988l-.192-.112-.191999.112c-2.312 1.33599992-4.36 2.99999982-6.104 4.9039997-1.744-1.91199988-3.792-3.56799978-6.104-4.9039997l-.192-.112-.192.112c-2.311998 1.33599992-4.359999 2.99999982-6.103999 4.9039997-1.744-1.91199988-3.792-3.56799978-6.104-4.9039997l-.192-.104-.192.112c-7.5359995 4.35999974-12.2959993 12.1439993-12.7199992 20.8239988l.7519999.04c.416-8.3519995 4.9519997-15.8479991 12.1599993-20.10399885zm12.583999 0c2.192 1.29599992 4.136 2.88799983 5.792 4.71199972-3 3.48799983-5.016 7.75199953-5.792 12.35999923-.776-4.6159997-2.784-8.8719994-5.791999-12.35999923 1.663999-1.82399989 3.599999-3.4159998 5.791999-4.71199972z"/></g></svg>