<svg height="48" viewBox="0 0 256 48" width="256" xmlns="http://www.w3.org/2000/svg" xmlns:xlink="http://www.w3.org/1999/xlink"><filter id="a" height="162.9%" width="123.6%" x="-11.8%" y="-31.4%"><feOffset dx="0" dy="0" in="SourceAlpha" result="shadowOffsetOuter1"/><feGaussianBlur in="shadowOffsetOuter1" result="shadowBlurOuter1" stdDeviation="17"/><feColorMatrix in="shadowBlurOuter1" result="shadowMatrixOuter1" type="matrix" values="0 0 0 0 0   0 0 0 0 0   0 0 0 0 0  0 0 0 0.17 0"/><feMerge><feMergeNode in="shadowMatrixOuter1"/><feMergeNode in="SourceGraphic"/></feMerge></filter><g fill="#fff" filter="url(#a)" transform="translate(-152 -38)"><path d="m137.286999 1.46895369.127215.11683275 7 7c.73994.73994076.778885 1.91542496.116832 2.70121236l-.116832.1272148-7 7c-.781049.7810485-2.047379.7810485-2.828428 0-.73994-.7399408-.778885-1.915425-.116832-2.7012124l.116832-.1272148 3.585214-3.5857864h-19.171c-2.761424 0-5 2.2385763-5 5 0 2.6887547 2.122307 4.8818181 4.78311 4.9953805l.21689.0046195h18c4.970563 0 9 4.0294373 9 9 0 4.8818027-3.886814 8.8557914-8.734638 8.9961629l-.265362.0038371h-19.172l3.586214 3.5857864c.73994.7399408.778885 1.915425.116832 2.7012124l-.116832.1272148c-.739941.7399407-1.915425.778885-2.701213.1168327l-.127215-.1168327-7-7c-.73994-.7399408-.778885-1.915425-.116832-2.7012124l.116832-.1272148 7-7c.781049-.7810485 2.047379-.7810485 2.828428 0 .73994.7399408.778885 1.915425.116832 2.7012124l-.116832.1272148-3.586214 3.5857864h19.172c2.761424 0 5-2.2385763 5-5 0-2.6887547-2.122307-4.8818181-4.78311-4.9953805l-.21689-.0046195h-18c-4.970563 0-9-4.0294373-9-9 0-4.8818027 3.886814-8.85579142 8.734638-8.99616289l.265362-.00383711h19.171l-3.585214-3.58578644c-.73994-.73994076-.778885-1.91542492-.116832-2.70121235l.116832-.12721477c.739941-.73994077 1.915425-.77888502 2.701213-.11683275z" transform="translate(152 38)"/></g></svg>