<svg height="240" viewBox="0 0 346 240" width="346" xmlns="http://www.w3.org/2000/svg"><path d="m101.203 88.435c5.602 1.29 9.652 5.816 10.256 11.47.07.679.11 1.345.11 2.024.014 13.576.055 27.166-.013 40.756-.028 5.15-2.43 9.078-6.948 11.66-1.963 1.114-4.12 1.63-6.37 1.63-14.006.014-28.01.055-42.002-.013-6.673-.04-11.822-4.892-12.92-10.777-.096-.53-.206-1.046-.316-1.563v-43.201c.069-.34.151-.68.206-1.033.728-5.245 4.888-9.744 10.092-10.926.741-.177 1.483-.313 2.238-.462h43.566c.7.15 1.414.272 2.1.435zm-20.637 45.755c.838 0 6.865-.013 7.675-.176 4.367-.843 7.14-3.507 8.582-7.583.137-.381.26-.761.384-1.142.124-.367.248-.747.357-1.128.124-.394.234-.775.33-1.155.11-.38.22-.761.316-1.155 1.565-6.061 3.103-12.136 4.627-18.197.22-.842.425-1.698.535-2.568.083-.788-.274-1.128-1.07-1.115-.605 0-1.236.028-1.827.15-1.977.38-3.583 1.237-4.119 3.384l-.577 2.283-.576 2.283c-.192.76-.398 1.522-.59 2.283-.207.761-.413 1.522-.605 2.27-.96 3.587-1.936 7.148-2.98 10.708-.548 1.862-1.73 3.234-3.693 3.819-1.592.475-3.226.421-4.86.285-1.099-.081-2.21-.57-2.32-1.902 0-.231-.207-.286-.413-.286-1.565-.027-3.13-.013-4.695-.013-.385 0-.605.095-.66.557-.096.924-.562 1.44-1.496 1.549-.989.122-1.991.15-2.98.15-3.158.013-4.984-1.346-5.89-4.35-1.236-4.13-2.43-8.275-3.68-12.393-.055-.177-.11-.34-.164-.503-.069-.15-.138-.312-.22-.475-.069-.15-.151-.3-.233-.449-.097-.15-.193-.299-.289-.435-1.153-1.576-2.883-1.916-4.696-2.011-1.551-.082-1.894.326-1.469 1.835.426 1.549.838 3.098 1.263 4.634.44 1.549.865 3.098 1.291 4.647.426 1.55.865 3.085 1.29 4.634.426 1.55.866 3.099 1.305 4.635 1.263 4.484 5.3 6.563 8.733 6.808 2.32.177 4.668.136 6.988.109 2.074 0 3.076-1.577 3.076-1.577s.879 1.59 3.35 1.59zm-14.224-24.244c-.097 1.55 1.016 2.854 2.704 2.895 1.47.027 2.72-1.25 2.733-2.704.014-1.455-1.25-2.718-2.705-2.732-1.442-.027-2.636 1.155-2.732 2.541zm17.039 9.445c0 1.536 1.222 2.772 2.732 2.759.357 0 .714-.068 1.03-.204.33-.136.632-.34.879-.598.26-.245.453-.544.59-.87s.206-.68.206-1.033-.069-.706-.206-1.032c-.123-.327-.33-.625-.576-.884-.248-.244-.55-.448-.88-.598-.329-.136-.672-.217-1.029-.217-1.483-.027-2.732 1.21-2.746 2.677zm-8.376-8.235c.124.326.33.625.577.883.247.245.55.449.879.584.33.136.673.218 1.03.218 1.469.027 2.732-1.196 2.746-2.677.013-1.522-1.222-2.773-2.733-2.759-.357 0-.714.068-1.043.217-.33.136-.618.34-.879.585-.247.258-.44.557-.577.883s-.206.68-.192 1.033c-.014.353.055.707.192 1.033zm13.813-1.02c0-.353-.069-.706-.192-1.032-.137-.326-.33-.625-.59-.884-.248-.244-.536-.448-.866-.598-.329-.135-.686-.217-1.043-.217-1.483-.027-2.732 1.196-2.746 2.677 0 1.522 1.208 2.772 2.719 2.759 1.496 0 2.704-1.223 2.718-2.704zm-26.692 30.59c0-2.975-2.334-5.353-5.286-5.367-2.938-.014-5.396 2.337-5.382 5.3.014 3.33 2.705 5.327 5.341 5.314 2.966 0 5.327-2.324 5.327-5.246zm35.878-5.394c-2.966 0-5.383 2.378-5.314 5.327.055 2.84 2.142 5.246 5.341 5.246 3.392.013 5.369-2.678 5.355-5.314 0-2.949-2.375-5.26-5.382-5.26zm-17.767-15.887c0-.353-.069-.706-.206-1.032-.124-.327-.33-.625-.577-.884-.247-.244-.55-.448-.879-.584-.315-.15-.672-.217-1.03-.231-1.469-.027-2.732 1.196-2.732 2.677-.014 1.55 1.181 2.772 2.705 2.759.357 0 .714-.068 1.044-.204s.631-.34.878-.598c.247-.245.453-.544.59-.87.138-.326.207-.68.207-1.033zm-13.868-.013c-.014 1.55 1.195 2.759 2.719 2.718 1.483-.027 2.718-1.278 2.69-2.732-.013-1.467-1.29-2.718-2.745-2.704-1.497.014-2.664 1.21-2.664 2.718zm235.022-23.741c0-1.332.495-1.78 1.84-1.699.494.027.755.258.769.761v38.744c0 1.468-.59 1.957-2.046 1.712-.508-.081-.549-.475-.563-.87-.013-.964 0-1.929 0-2.894v-.802c-.247.218-.384.313-.494.435-5.437 6.632-16.586 6.877-21.831-1.834-3.872-6.415-2.293-15.411 4.668-19.76 4.806-2.99 12.275-2.595 16.641 2.175.289.312.536.652.81.978l.206-.04zm-21.227 27.383c.028 1.998 1.208 4.879 3.68 7.23 3.158 3.003 7.675 3.642 11.341 1.44 3.776-2.242 7.181-6.455 6.096-12.42-1.112-6.13-6.865-9.717-12.686-8.467-4.888 1.06-8.43 5.707-8.43 12.217zm-40.243 7.583c2.238-7.026 4.49-14.038 6.714-21.064.37-1.155 1.14-1.862 2.348-2.066.933-.163 1.249.204.974 1.074-2.512 7.855-5.011 15.71-7.538 23.564-.178.544-.411 1.088-.686 1.604-1.002 1.807-3.488 2.011-4.71.34-.508-.666-.837-1.482-1.125-2.283-1.84-5.001-3.653-10.016-5.465-15.017-.083-.217-.192-.421-.385-.842-.494 1.386-.92 2.554-1.345 3.723-1.51 4.28-3.02 8.562-4.545 12.842-.343.952-.769 1.89-1.757 2.392-1.552.775-3.282.122-4.037-1.604-.508-1.168-.865-2.405-1.263-3.628-2.293-6.999-4.586-13.997-6.88-21.01-.288-.91.07-1.318 1.058-1.168 1.236.19 2.032.856 2.417 2.065 1.757 5.545 3.528 11.09 5.286 16.634.563 1.753 1.112 3.506 1.675 5.26.082.257.206.489.37.91.207-.38.358-.625.454-.87 2.251-6.333 4.517-12.652 6.769-18.985.027-.081.055-.176.096-.258.33-.856.879-1.264 1.716-1.264.838-.013 1.305.313 1.648 1.223 1.675 4.485 3.35 8.97 5.025 13.468l2.183 5.87c.083.245.206.476.398.91.248-.733.426-1.276.605-1.82zm-98.31-7.338c-.81 0-.851.054-.672.856 1.18 5.082 5.41 8.412 10.695 8.452 1.95.014 3.872-.135 5.589-1.114.878-.503 1.702-1.182 2.43-1.902 1.085-1.088 2.403-1.278 3.817-1.17.522.055.33.422.165.707-1.003 1.78-2.32 3.276-4.037 4.404-2.54 1.671-5.355 2.46-8.375 2.296-7.278-.38-12.124-5.205-13.456-10.967-1.813-7.814 3.46-15.71 11.437-16.946 8.156-1.277 14.692 4.688 15.845 10.994.178.992.151 2.011.178 3.017.028.68-.37 1.1-1.03 1.223-.095.027-.192.04-.274.054-.096.028-.192.041-.288.041-.096.014-.192.027-.289.027-.096.014-.192.014-.288.014-3.542.014-7.085.014-10.627.014zm-.851-3.031c.302.014.535.04.783.04 4.586 0 9.158 0 13.744-.013 2.032 0 4.078-.013 6.123-.013.454 0 .728-.082.632-.653-.755-4.511-5.121-8.548-9.707-8.874-4.421-.299-7.772 1.536-10.092 5.232-.206.326-.385.653-.55 1.006-.164.34-.315.693-.439 1.046-.123.367-.233.734-.315 1.101-.083.38-.138.748-.179 1.128zm46.12-12.475c5.588-1.21 12.028 1.535 14.802 6.468.329.585.205.802-.495.816-.15.013-.316-.014-.467.013-1.579.218-2.718-.394-3.844-1.508-4.572-4.485-11.863-3.656-15.749 1.699-5.066 7.012-.33 15.655 6.206 17.068 3.392.734 6.632.435 9.323-2.079.261-.245.522-.503.742-.788.727-1.006 1.743-1.373 2.938-1.373.069 0 .137-.013.206 0 .48.082.947.163 1.414.245-.192.408-.316.87-.577 1.237-2.389 3.492-5.67 5.598-9.927 6.142-7.977 1.02-14.265-5.001-15.323-11.646-.123-.761-.15-1.563-.206-2.338-.068-7.392 5.479-12.76 10.957-13.956zm75.27 14.147c0-4.159-.014-8.317 0-12.476 0-.992.247-1.236 1.25-1.168 1.523.095 1.784.366 1.784 1.888v24.475c0 1.196-.274 1.36-1.469 1.264-1.304-.108-1.593-.693-1.579-1.848.028-4.05.014-8.1.014-12.135zm1.565-18.346c-1.538 0-2.361-.802-2.389-2.297-.041-1.672.92-2.42 2.334-2.433 1.25 0 2.39.585 2.362 2.351.014 1.522-.81 2.365-2.307 2.379z" fill="#fff" fill-rule="evenodd"/></svg>