<svg xmlns="http://www.w3.org/2000/svg" viewBox="0 0 256 41" width="256" height="41">
	<style>
		tspan { white-space:pre }
		.shp0 { fill: #ffffff } 
	</style>
	<path fill-rule="evenodd" class="shp0" d="M141.32 19.63C143.63 14.83 155.4 10.72 158.7 0C158.57 6.77 153.86 12.16 150.12 16.09C149.07 17.2 146.48 19.02 147.81 20.2C149.14 21.37 151.41 20.53 152.86 19.89C155.83 18.59 159.38 16.25 162.88 12.85C161.74 15.31 159 18.67 157.79 20.49C157.59 20.79 157.4 21.1 157.27 21.43C156.61 23.07 155.36 25.18 157.39 26.21C159.56 27.3 161.16 22.18 161.33 21.84C162.77 23.7 163.28 25.42 163.28 29.22C163.28 34.57 157.38 40.96 150.51 40.96C143.64 40.96 141.34 38.2 139.17 36.05C131.01 44.16 117.06 41.64 111.37 32.15C110.19 30.19 109.39 28.03 109.01 25.78C108.62 23.53 108.67 21.22 109.14 18.99C109.61 16.75 110.5 14.63 111.76 12.72C113.02 10.81 114.62 9.16 116.49 7.85C124.24 2.37 134.64 3.75 141.09 11.23L136.15 14.76C135.21 14.04 134.33 13.28 133.37 12.65C128.31 9.36 121.9 10.3 118.07 14.86C113.96 19.75 114.17 26.6 118.57 31.21C122.78 35.64 129 36.14 133.94 32.53C134.68 31.98 135.8 30.65 135.8 30.65C135.8 30.65 135.67 29.56 135.55 28.73C134.51 21.97 139.01 14.16 147.45 11.93C142.04 15.37 141.39 17.95 141.32 19.63ZM57.01 20.73L57.01 39.69L51.3 39.69C51.21 39.09 51.04 38.5 51.04 37.9C51.02 30.58 50.95 23.26 51.05 15.94C51.16 7.43 56.92 0 66.29 0C66.29 4.36 65.95 5.28 62.81 6.57C59.04 8.11 57.07 11.15 57.29 15.35L64.7 15.35L64.7 20.73L57.01 20.73ZM59.66 22.15L65.22 22.15L65.22 38.96L59.66 38.96L59.66 22.15ZM107.2 24.97C108.74 31 104.3 37.9 97.81 39.79C90.42 41.94 82.93 37.91 80.55 30.51C78.23 23.32 82.09 15.57 89.16 13.21C96.16 10.89 103.68 14.56 106.44 21.86L89.17 32.42C92.88 36.08 98.82 34.19 100.71 30.44C101.1 29.68 101.63 28.27 101.63 28.27C101.63 28.27 105.34 26.1 107.2 24.97L107.2 24.97ZM89.68 19.58C86.83 21.31 85.51 24.25 86.2 27.81L98.5 20.31C95.39 18.03 92.48 17.87 89.68 19.58L89.68 19.58ZM178 13.48C178 13.48 177.93 17.6 177.93 19.52C173.54 19.52 171.94 22 171.91 25.71C171.88 30.05 171.91 34.79 171.91 39.26L165.54 39.26L165.54 14.5L171.38 14.45C171.38 14.45 171.37 17.06 171.46 17.27C172.87 13.52 178 13.48 178 13.48ZM79.82 13.48C79.82 13.48 79.75 17.6 79.75 19.52C75.37 19.52 73.76 22 73.74 25.71C73.71 30.05 73.73 34.79 73.73 39.26L67.36 39.26L67.36 14.5L73.21 14.45C73.21 14.45 73.19 17.06 73.29 17.27C74.69 13.52 79.82 13.48 79.82 13.48ZM204.41 24.97C205.95 31 201.51 37.9 195.03 39.79C187.64 41.94 180.14 37.91 177.76 30.51C175.44 23.32 179.31 15.57 186.38 13.21C193.37 10.89 200.89 14.56 203.66 21.86L186.38 32.42C190.09 36.08 196.04 34.19 197.93 30.44C198.31 29.68 198.84 28.27 198.84 28.27C198.84 28.27 202.56 26.1 204.41 24.97ZM186.9 19.58C184.04 21.31 182.72 24.25 183.41 27.81L195.71 20.31C192.6 18.03 189.69 17.87 186.9 19.58Z" />
</svg>