<svg height="140" viewBox="0 0 256 140" width="256" xmlns="http://www.w3.org/2000/svg"><path d="m137.579426 3c8.718438 0 15.786129 7.0580992 15.786129 15.7647059v102.4705881c0 8.706607-7.067691 15.764706-15.786129 15.764706-8.718439 0-15.78613-7.058099-15.78613-15.764706v-52.633158l-.055684-3.3025337c-.137984-8.1836282-6.776021-14.7695262-14.971496-14.8539009-3.941495-.0405789-7.103767-3.2643509-7.0635203-7.2004964.0169266-1.6021408.5735413-3.1519857 1.5804073-4.3994232l22.763678-28.2027792c2.761962-4.57977305 7.789139-7.6430026 13.532745-7.6430026zm31.655868 63.0588235c8.706607 0 15.764706 7.0580993 15.764706 15.7647059 0 8.7066067-7.058099 15.7647059-15.764706 15.7647059h-7.914488v-31.5294118zm-67.503038-7.8823529c6.702704 0 12.13632 5.4336154 12.13632 12.1363196l-.00036.0934804-.209377 27.1819647h-26.984557c-8.6579859 0-15.6766702-7.0186843-15.6766702-15.6766701 0-3.2893087 1.0345446-6.4916621 2.9516773-9.1560163l.2442274-.3302095 11.5360175-14.2488688z" fill="#fff" fill-rule="evenodd"/></svg>