<svg height="48" viewBox="0 0 256 48" width="256" xmlns="http://www.w3.org/2000/svg" xmlns:xlink="http://www.w3.org/1999/xlink"><filter id="a" height="162.9%" width="123.6%" x="-11.8%" y="-31.4%"><feOffset dx="0" dy="0" in="SourceAlpha" result="shadowOffsetOuter1"/><feGaussianBlur in="shadowOffsetOuter1" result="shadowBlurOuter1" stdDeviation="17"/><feColorMatrix in="shadowBlurOuter1" result="shadowMatrixOuter1" type="matrix" values="0 0 0 0 0   0 0 0 0 0   0 0 0 0 0  0 0 0 0.17 0"/><feMerge><feMergeNode in="shadowMatrixOuter1"/><feMergeNode in="SourceGraphic"/></feMerge></filter><g fill="#fff" filter="url(#a)" transform="translate(-152 -60)"><path d="m139.329329 34.6135379c-.574526 1.327614-1.254579 2.5496751-2.042503 3.6732221-1.074015 1.5316797-1.953393 2.5918954-2.631101 3.1806438-1.050564.9663901-2.176169 1.461313-3.381504 1.489461-.865308 0-1.908838-.2462899-3.123552-.745902-1.218702-.4972723-2.338679-.743559-3.362744-.743559-1.074015 0-2.225884.2462867-3.457952.743559-1.233945.4996121-2.227994.759976-2.988012.7857777-1.155855.0492574-2.307958-.4597395-3.457951-1.5293367-.733988-.6403519-1.652059-1.7380972-2.751869-3.2932357-1.180008-1.660688-2.150139-3.586432-2.910156-5.7819209-.813953-2.3714098-1.221985-4.6677599-1.221985-6.8909262 0-2.5466263.550139-4.7430536 1.652059-6.5836524.866012-1.4784358 2.018116-2.6446724 3.460061-3.5008198 1.441947-.8561461 2.999972-1.2924291 4.677827-1.3203424.91807 0 2.121999.2840531 3.618115.842308 1.491895.5601312 2.449832.8441843 2.869822.8441843.313997 0 1.378163-.3321387 3.182179-.9943029 1.705995-.6140802 3.14583-.868345 4.32537-.7681877 3.196249.2580171 5.597539 1.5183126 7.194491 3.7888609-2.858567 1.7324663-4.272608 4.1589973-4.244468 7.2718533.025795 2.4246545.905173 4.442346 2.633445 6.0443973.783233.7435565 1.657922 1.3182305 2.631099 1.7263668-.211048.6122033-.433824 1.1986055-.670671 1.7615515zm-7.330499-28.85332154c0 1.90043386-.694124 3.67486357-2.077679 5.31725734-1.669648 1.9524848-3.689169 3.0807217-5.879174 2.9026904-.027906-.2279934-.044086-.4679486-.044086-.7201012 0-1.8244145.79402-3.77689841 2.204075-5.37331924.703971-.80829582 1.599296-1.48038286 2.685035-2.01651944 1.083395-.52813709 2.108164-.82020828 3.071962-.87022422.028142.25405832.039867.50813263.039867.76019171z" transform="translate(152 60)"/></g></svg>