<svg height="256" viewBox="0 0 256 256" width="256" xmlns="http://www.w3.org/2000/svg"><g fill="none" transform="translate(38 85.483519)"><g fill="#fff"><path d="m37.5355383 16.5862743c-.4812249-.5833093-.9877774-1.1666186-1.4943298-1.6992054-4.0777474-4.0831654-9.0672893-6.13742877-14.8673151-6.13742877-5.724043 0-10.7135848 2.07962457-14.79133224 6.13742877-4.07774741 4.0831654-6.15461255 9.0793367-6.15461255 14.8870688 0 5.7316483 2.07686514 10.7278197 6.15461255 14.8109851 4.07774744 4.0831654 9.06728924 6.16279 14.79133224 6.16279 5.8000258 0 10.7895677-2.0796246 14.8673151-6.1881513.5318801-.5325868 1.0131049-1.1158961 1.4943298-1.6992055v6.8221832h4.1284026v-37.6361332h-4.1284026zm-16.3616449 29.8248603c-4.5842999 0-8.5354092-1.6484829-11.77734502-4.8693649-3.24193583-3.2208821-4.88823137-7.2026023-4.88823137-11.767632 0-4.5903909 1.64629554-8.5721112 4.88823137-11.8183545 3.24193582-3.2462433 7.19304512-4.8947262 11.77734502-4.8947262s8.5354091 1.6484829 11.8026726 4.9200875c2.4314519 2.4346825 3.9764369 5.3005066 4.5589723 8.4453048v6.619293c-.607863 3.1955207-2.1528481 6.0613449-4.5589723 8.4706661-3.2419358 3.2462433-7.2183727 4.8947262-11.8026726 4.8947262z"/><path d="m62.2806266 42.2518854-13.0183986-30.2052794h-4.7362656l16.5389382 37.433243.0759829.2028902h2.2541585l16.8175421-37.6361332h-4.7615932z"/><path d="m118.7359 44.5851228c4.077747-4.0831654 6.129285-9.0793368 6.129285-14.8109851 0-5.8077321-2.051538-10.8039034-6.129285-14.8870688-4.077748-4.0831654-9.06729-6.13742877-14.81666-6.13742877-5.7746983 0-10.7389126 2.07962457-14.81666 6.13742877-.5318801.5325868-1.0384325 1.0905348-1.4943298 1.6484829v-16.35802287h-4.1284026v49.53057157h4.1284026v-6.7714607c.4558973.5579481.9624497 1.1158962 1.4943298 1.648483 4.0777474 4.1085266 9.0672893 6.1881512 14.81666 6.1881512 5.774698-.0253612 10.76424-2.1049858 14.81666-6.1881512zm-31.1276498-11.2857677v-6.9997122c.607863-3.1447981 2.1275204-5.9598998 4.5336447-8.3438597 3.2672634-3.2462433 7.2183727-4.9200875 11.8026721-4.9200875 4.5843 0 8.53541 1.648483 11.777345 4.8947263 3.241936 3.2716045 4.888232 7.2279635 4.888232 11.8183544 0 4.590391-1.646296 8.54675-4.888232 11.767632-3.267263 3.2462433-7.218372 4.8947262-11.802672 4.8947262s-8.5354093-1.6484829-11.8026728-4.9200875c-2.3807966-2.3585986-3.900454-5.148339-4.508317-8.191692z"/></g><path d="m135.24951 75.9062983c-.886466 0-1.747606-.2282515-2.532762-.6847544-1.49433-.8876447-2.431452-2.5107663-2.431452-4.2606944v-61.60253875c0-1.74992803.937122-3.39841095 2.45678-4.2860556.759828-.45650296 1.646295-.68475445 2.507434-.68475445.835812 0 1.671623.20289021 2.431452.6340319l55.670117 31.270453c1.570313.8876446 2.532762 2.5614888 2.532762 4.3621394s-1.013105 3.4491335-2.583417 4.3114169l-55.670117 30.3320858c-.759829.4057804-1.570313.6086706-2.380797.6086706z" fill="#ef3e33"/><g fill="#fff"><g transform="translate(4.05242 54.27313)"><path d="m2.12752039 20.6694397h-2.00088227v-19.98468525h2.00088227z"/><path d="m21.7311011 17.6007254h.0506552v-16.94133223h2.0008823v19.98468533h-2.5074347l-11.7520174-17.0934999h-.05065525v17.1188611h-2.00088227v-19.98468525h2.50743474z"/><path d="m46.2229132 3.95635902c-.8611392-1.29342507-2.152848-1.95281824-3.8244712-1.95281824-.5318801 0-1.0384326.07608383-1.544985.20289021-.5065525.12680638-.9624497.35505786-1.3423641.65939317-.405242.30433531-.7091735.65939317-.9624497 1.14125741-.2532762.45650296-.3545867 1.01445103-.3545867 1.62312165 0 .91300592.2532762 1.59776037.7598287 2.10498588.5065525.50722552 1.1144154.91300593 1.8742441 1.21734124.7345011.32969658 1.5449851.60867062 2.4314519.86228337.8864668.25361279 1.6969508.58330939 2.4314519 1.01445099.7345011.4311417 1.3676917.9890898 1.8742441 1.6738442.5065525.6847545.7598287 1.648483.7598287 2.8404629 0 .913006-.202621 1.7245668-.5825353 2.4346825-.3799144.735477-.8864668 1.3441476-1.4943298 1.8260119-.6331906.4818642-1.3170364.8622833-2.1021928 1.1412574-.7598287.2536127-1.544985.4057804-2.3301413.4057804-1.215726 0-2.355469-.2282515-3.4445569-.6847545-1.0890878-.4565029-2.0008822-1.2173412-2.7607109-2.2825148l1.8489165-1.3187863c.4305696.735477 1.0131049 1.3187863 1.7729336 1.7752893.7598288.4311417 1.6462956.6593931 2.6847282.6593931.5065524 0 .9877773-.0760838 1.4943297-.2282514.5065525-.1521677.9371221-.4057805 1.3423641-.7101158s.7345011-.6847544.9877773-1.1412574c.2532763-.4565029.3799144-.9637284.3799144-1.5470378 0-.6847544-.1519658-1.2680638-.4305696-1.7245667-.2786039-.456503-.6585182-.8369221-1.1397431-1.1666187-.4812248-.3043353-1.0131049-.5579481-1.6209679-.7861996-.607863-.2028902-1.2157259-.4057804-1.8742442-.6340319-.6331905-.2028902-1.2663811-.4311417-1.8742441-.7101157-.607863-.2536127-1.1397431-.6086706-1.6209679-1.01445102-.4812249-.40578041-.8611392-.91300592-1.1397431-1.52167654-.2786038-.60867062-.4305696-1.36950889-.4305696-2.30787609 0-.96372848.1772934-1.80065058.5318801-2.5107663s.8358116-1.31878634 1.4436746-1.77528931c.6078629-.48186423 1.2917088-.81156082 2.0515375-1.0398123s1.544985-.32969659 2.3301414-.32969659c1.1144154 0 2.1275203.17752894 3.0393148.5325868.9117944.35505786 1.747606.98908975 2.5327624 1.90209568z"/><path d="m58.7094316 20.6694397h-2.0008822v-18.13331213h-6.6105098v-1.85137312h15.2219018v1.85137312h-6.6105098z"/><path d="m87.6082502 10.6517358c0 1.5216766-.2532762 2.9165467-.7851563 4.2099718-.5318801 1.2680638-1.2410536 2.3839599-2.152848 3.3223271-.9117945.9383672-2.0008823 1.6738442-3.2672635 2.1810697-1.2663811.5325868-2.6087452.7861996-4.0777474.7861996-1.4690021 0-2.8366938-.2536128-4.0777474-.7861996-1.2663812-.5325868-2.3301414-1.2680638-3.2672634-2.1810697-.9371221-.9130059-1.6462956-2.0289021-2.152848-3.3223271-.5318801-1.2680638-.7851564-2.6882952-.7851564-4.2099718 0-1.52167653.2532763-2.9165467.7851564-4.20997176.5318801-1.26806379 1.2410535-2.38395992 2.152848-3.32232712.9117944-.93836721 2.0008822-1.6738442 3.2672634-2.18106972 1.2663812-.53258679 2.6087453-.78619955 4.0777474-.78619955 1.4690022 0 2.8366939.25361276 4.0777474.78619955 1.2663812.53258679 2.3301414 1.26806379 3.2672635 2.18106972.9371221.91300592 1.6462955 2.02890206 2.152848 3.32232712.5318801 1.29342506.7851563 2.68829523.7851563 4.20997176zm-2.152848 0c0-1.1412574-.1772933-2.25715353-.5572077-3.29696583-.3799144-1.03981231-.9117945-1.95281824-1.5956403-2.76437906s-1.544985-1.42023144-2.55809-1.90209568c-1.0131049-.48186424-2.1275204-.71011572-3.3939016-.71011572-1.2663811 0-2.4061242.22825148-3.3939015.71011572-1.013105.48186424-1.8489165 1.09053486-2.55809 1.90209568-.7091735.78619955-1.2410536 1.69920547-1.5956403 2.76437906-.3799144 1.0398123-.5572077 2.13034716-.5572077 3.29696583 0 1.1412574.1772933 2.2571536.5572077 3.2969659s.9117945 1.9528182 1.5956403 2.764379c.7091735.7861996 1.544985 1.4202315 2.55809 1.9020957 1.0131049.4818642 2.1275204.7101157 3.3939015.7101157 1.2663812 0 2.4061243-.2282515 3.3939016-.7101157 1.013105-.4818642 1.8489165-1.0905349 2.55809-1.9020957s1.2410536-1.6992055 1.5956403-2.764379c.3545867-1.0398123.5572077-2.1303472.5572077-3.2969659z"/><path d="m93.6362247 20.6694397h-2.0008823v-19.98468525h6.0786297c2.0008822 0 3.5965229.43114168 4.7615929 1.31878633 1.165071.88764465 1.747606 2.23179227 1.747606 4.00708157 0 1.39487017-.430569 2.56148885-1.291708 3.52521733-.86114.96372852-2.102193 1.49631522-3.7484888 1.64848292l5.6733878 9.4851171h-2.45678l-5.3947834-9.2822269h-3.3432463v9.2822269zm0-11.1589613h3.5711949c.8864668 0 1.6462955-.1014451 2.2794861-.27897403.6331903-.17752893 1.1144153-.43114169 1.4943303-.76083827.379914-.30433531.63319-.68475445.810483-1.09053486.177294-.43114169.253277-.88764465.253277-1.36950889s-.075983-.91300593-.253277-1.34414761c-.177293-.43114169-.430569-.78619955-.810483-1.11589614-.379915-.32969658-.86114-.55794806-1.4943303-.76083827-.6331906-.17752893-1.3676917-.27897403-2.2794861-.27897403h-3.5711949z"/><path d="m110.175163 18.7927053h10.561619v1.8513732h-12.587829v-19.98468533h12.233242v1.85137313h-10.207032v6.7968219h9.548514v1.8513731h-9.548514z"/></g><g transform="translate(133.983129 31.194369)"><path d="m2.00088227 18.48837h-1.89957177l6.99042412-18.08258959h1.59564029l6.99042409 18.08258959h-1.8995717l-1.7729337-4.7425585h-8.20615005zm2.38079662-6.441764h6.96509651l-3.46988444-9.51047843z"/><path d="m17.6026984.40578041h5.318801c.9877773 0 2.0008823.17752893 3.0139872.55794807 1.013105.38041913 1.8995718.9383672 2.7100558 1.69920547.8104839.76083828 1.4690021 1.69920548 1.950227 2.84046289.5065525 1.14125741.7598287 2.46004374.7598287 3.95635901 0 1.52167655-.2532762 2.84046285-.7598287 3.95635905-.5065525 1.1158961-1.1650707 2.0542633-1.950227 2.8151016-.810484.7608382-1.7222785 1.3187863-2.7100558 1.6992055-1.0131049.3804191-2.0008822.557948-3.0139872.557948h-5.318801zm1.620968 16.40874539h3.1659529c1.2157259 0 2.2794861-.2028902 3.1912806-.6340319.8864668-.4057804 1.6462955-.9637285 2.2541585-1.6484829s1.0384326-1.470954 1.3170364-2.3585986c.2786039-.8876447.4305696-1.7752893.4305696-2.71365655 0-.9383672-.1519657-1.85137313-.4305696-2.7136565-.2786038-.88764465-.7345011-1.64848293-1.3170364-2.35859865s-1.3423641-1.24270251-2.2541585-1.64848292c-.9117945-.40578041-1.950227-.63403189-3.1912806-.63403189h-3.1659529z"/><path d="m42.2211486 3.39841095c-.7091734-1.16661868-1.747606-1.74992803-3.1152977-1.74992803-.4305696 0-.8358116.07608383-1.2410535.20289021-.405242.12680638-.7851564.32969658-1.0890878.58330934-.3292592.25361276-.5825354.60867062-.7851564 1.01445103s-.3039315.91300593-.3039315 1.47095399c0 .81156083.202621 1.44559272.607863 1.90209569.405242.45650296.9117945.81156082 1.5196574 1.11589613.607863.27897403 1.2663812.55794806 1.9755547.78619955.7091734.22825148 1.3676916.53258679 1.9755546.91300592.607863.38041912 1.1144155.88764462 1.5196574 1.52167652.405242.6340319.607863 1.4963153.607863 2.5868502 0 .8115608-.1519657 1.5470378-.4558972 2.2064309-.3039315.6593932-.7091735 1.2173413-1.215726 1.648483-.5065524.4311417-1.0637602.7861995-1.6969507 1.014451-.6331906.2282515-1.2663812.3550579-1.8995718.3550579-.9877773 0-1.9248994-.2028902-2.8113662-.6340319-.8864669-.4057804-1.6462956-1.0905349-2.2541586-2.0542634l1.4943298-1.1919799c.3545868.6593931.8358116 1.1919799 1.4436746 1.5977603.607863.4057805 1.342364.6086707 2.2035032.6086707.405242 0 .810484-.0760839 1.215726-.2282515.405242-.1521677.7598287-.3550579 1.0890878-.6340319.3292591-.2789741.5825353-.6340319.810484-1.0398123.2026209-.4057804.3039314-.8876447.3039314-1.3948702 0-.6340319-.1266381-1.1412574-.3545867-1.5723991-.2279486-.4057804-.5318801-.7608383-.9371221-1.0398123-.4052419-.278974-.8358115-.5072255-1.3170364-.7101157-.4812248-.1775289-.9877773-.3804191-1.5196574-.5579481-.5318801-.17752891-1.0384326-.40578039-1.5196574-.63403187-.4812249-.22825148-.9371221-.53258679-1.3170365-.91300593-.3799143-.35505786-.6838458-.8369221-.937122-1.36950889-.2279487-.55794806-.3545868-1.24270251-.3545868-2.07962461 0-.86228337.1519658-1.62312165.4305696-2.28251482.3039315-.65939317.6838459-1.19197996 1.1903983-1.59776037.4812249-.43114169 1.0384326-.73547699 1.6716232-.9383672.607863-.20289021 1.2663812-.30433531 1.8995718-.30433531.9117944 0 1.7222784.15216765 2.4821071.48186424.7345011.32969658 1.4183469.88764465 2.0515375 1.69920547z"/></g></g></g></svg>