<?xml version="1.0" encoding="UTF-8"?>
<svg width="256px" height="56px" viewBox="0 0 256 56" version="1.1" xmlns="http://www.w3.org/2000/svg" xmlns:xlink="http://www.w3.org/1999/xlink">
    <!-- Generator: Sketch 64 (93537) - https://sketch.com -->
    <title>logo_fitbit_portfolio</title>
    <desc>Created with Sketch.</desc>
    <g id="03-what-we-do-(SRC)" stroke="none" stroke-width="1" fill="none" fill-rule="evenodd">
        <g id="Group-2" fill="#FFFFFF" fill-rule="nonzero">
            <path d="M62.3103113,45.0242289 C64.3280669,45.0242289 65.9632904,46.6597903 65.9632904,48.6775459 C65.9632904,50.6949636 64.3280669,52.330863 62.3103113,52.330863 C60.2928936,52.330863 58.6573322,50.6949636 58.6573322,48.6775459 C58.6573322,46.6597903 60.2928936,45.0242289 62.3103113,45.0242289 Z M161.525326,7.32234159 C161.861643,7.32234159 162.139416,7.58410007 162.165108,7.91407865 L162.167047,7.9640629 L162.167047,24.3592145 C164.214202,22.167427 167.761073,20.6633187 171.151145,20.6633187 C174.922399,20.6633187 178.339168,22.1093037 180.771558,24.7346501 C183.228618,27.3863548 184.527267,30.9859416 184.527267,35.1437821 C184.527267,45.1957263 177.808962,49.6948719 171.151145,49.6948719 C164.559573,49.6948719 157.909377,45.2852593 157.777033,35.4436756 L157.775024,35.1437821 L157.775024,7.9640629 C157.775024,7.62774616 158.036782,7.34997259 158.366469,7.32428059 L158.416407,7.32234159 L161.525326,7.32234159 Z M128.094923,21.5947777 C128.430918,21.5947777 128.708983,21.8565362 128.734704,22.1865148 L128.736645,22.236499 L128.736645,48.0357908 C128.736645,48.3721076 128.47458,48.6498812 128.144864,48.6755732 L128.094923,48.6775122 L124.991412,48.6775122 C124.655417,48.6775122 124.377352,48.4157537 124.351632,48.0857751 L124.34969,48.0357908 L124.34969,22.236499 C124.34969,21.9001823 124.611755,21.6224087 124.941471,21.5967167 L124.991412,21.5947777 L128.094923,21.5947777 Z M194.3454,21.5947777 C194.681395,21.5947777 194.959153,21.8565362 194.984845,22.1865148 L194.986784,22.236499 L194.986784,48.0357908 C194.986784,48.3721076 194.725025,48.6498812 194.395338,48.6755732 L194.3454,48.6775122 L191.241551,48.6775122 C190.905556,48.6775122 190.627797,48.4157537 190.602106,48.0857751 L190.600167,48.0357908 L190.600167,22.236499 C190.600167,21.9001823 190.861926,21.6224087 191.191612,21.5967167 L191.241551,21.5947777 L194.3454,21.5947777 Z M117.062656,7.32210504 C117.398973,7.32210504 117.676746,7.58417004 117.702438,7.91388589 L117.704377,7.96382635 L117.704377,11.067 C117.704377,11.4033168 117.442619,11.6813968 117.11264,11.707118 L117.062656,11.7090593 L113.409001,11.7090593 C111.364077,11.7090593 109.814006,13.3408935 109.765312,15.5220234 L109.764132,15.6279861 L109.764132,21.5947439 L117.062656,21.5947439 C117.398973,21.5947439 117.676746,21.8568089 117.702438,22.1865248 L117.704377,22.2364652 L117.704377,25.3399768 C117.704377,25.6762936 117.442619,25.9540671 117.11264,25.9797591 L117.062656,25.9816981 L109.764132,25.9816981 L109.764132,48.035757 C109.764132,48.3720738 109.502067,48.6498474 109.172351,48.6755394 L109.122411,48.6774784 L106.018899,48.6774784 C105.682904,48.6774784 105.40484,48.4157199 105.379119,48.0857413 L105.377178,48.035757 L105.377178,25.9816981 L102.047932,25.9816981 C101.711937,25.9816981 101.433872,25.7199397 101.408152,25.3899611 L101.406211,25.3399768 L101.406211,22.2364652 C101.406211,21.9004703 101.668276,21.6224056 101.997991,21.5966851 L102.047932,21.5947439 L105.377178,21.5947439 L105.377178,15.6279861 C105.377178,11.0938753 109.028671,7.39670986 113.545255,7.32321996 L113.682383,7.32210504 L117.062656,7.32210504 Z M143.33349,11.0120871 C143.669485,11.0120871 143.947856,11.2738455 143.973606,11.6038241 L143.975549,11.6538084 L143.975549,21.5949129 L150.591125,21.5949129 C150.927441,21.5949129 151.205215,21.8566714 151.230907,22.18665 L151.232846,22.2366342 L151.232846,25.3398079 C151.232846,25.6761246 150.971087,25.9538982 150.641109,25.9795902 L150.591125,25.9815292 L143.975549,25.9815292 L143.975549,40.5434327 C143.975549,42.7137323 145.426723,44.239284 147.518375,44.2871674 L147.62008,44.2883276 L150.591125,44.2883276 C150.927441,44.2883276 151.205215,44.5503926 151.230907,44.8804004 L151.232846,44.9303869 L151.232846,48.0335605 C151.232846,48.3695554 150.971087,48.6476202 150.641109,48.6733407 L150.591125,48.6752818 L147.231803,48.6752818 C142.705387,48.6752818 139.649173,45.664663 139.588501,41.168438 L139.587581,41.0317356 L139.587581,25.9815292 L136.259011,25.9815292 C135.923016,25.9815292 135.644951,25.7197707 135.619231,25.3897921 L135.617289,25.3398079 L135.617289,22.2366342 C135.617289,21.9003175 135.879354,21.6225439 136.20907,21.5968519 L136.259011,21.5949129 L139.587581,21.5949129 L139.587581,11.6538084 C139.587581,11.3174916 139.849646,11.0397181 140.179654,11.0140261 L140.22964,11.0120871 L143.33349,11.0120871 Z M208.923119,11.0120871 C209.259113,11.0120871 209.537178,11.2738455 209.562899,11.6038241 L209.56484,11.6538084 L209.56484,21.5949129 L216.180753,21.5949129 C216.51707,21.5949129 216.794844,21.8566714 216.820536,22.18665 L216.822475,22.2366342 L216.822475,25.3398079 C216.822475,25.6761246 216.560716,25.9538982 216.230738,25.9795902 L216.180753,25.9815292 L209.56484,25.9815292 L209.56484,40.5434327 C209.56484,42.7137323 211.016341,44.239284 213.107681,44.2871674 L213.209371,44.2883276 L216.180753,44.2883276 C216.51707,44.2883276 216.794844,44.5503926 216.820536,44.8804004 L216.822475,44.9303869 L216.822475,48.0335605 C216.822475,48.3695554 216.560716,48.6476202 216.230738,48.6733407 L216.180753,48.6752818 L212.821094,48.6752818 C208.294678,48.6752818 205.239126,45.664663 205.178468,41.168438 L205.177548,41.0317356 L205.177548,25.9815292 L201.84864,25.9815292 C201.512645,25.9815292 201.23458,25.7197707 201.208859,25.3897921 L201.206918,25.3398079 L201.206918,22.2366342 C201.206918,21.9003175 201.468983,21.6225439 201.798699,21.5968519 L201.84864,21.5949129 L205.177548,21.5949129 L205.177548,11.6538084 C205.177548,11.3174916 205.439306,11.0397181 205.769285,11.0140261 L205.819269,11.0120871 L208.923119,11.0120871 Z M171.151145,25.054666 C165.77711,25.054666 162.166033,29.1091011 162.166033,35.1437821 C162.166033,40.0555352 164.526446,45.3035247 171.151145,45.3035247 C177.775845,45.3035247 180.13592,40.0555352 180.13592,35.1437821 C180.13592,29.1091011 176.525181,25.054666 171.151145,25.054666 Z M72.3703657,34.0531262 C74.7375368,34.0531262 76.656618,35.9718695 76.656618,38.3393785 C76.656618,40.7065495 74.7375368,42.6256308 72.3703657,42.6256308 C70.0031947,42.6256308 68.0841135,40.7065495 68.0841135,38.3393785 C68.0841135,35.9718695 70.0031947,34.0531262 72.3703657,34.0531262 Z M62.3103113,34.5400774 C64.4084933,34.5400774 66.1096123,36.2408585 66.1096123,38.3393785 C66.1096123,40.4375605 64.4084933,42.1383416 62.3103113,42.1383416 C60.2121293,42.1383416 58.5110102,40.4375605 58.5110102,38.3393785 C58.5110102,36.2408585 60.2121293,34.5400774 62.3103113,34.5400774 Z M52.1194795,35.0270287 C53.9486725,35.0270287 55.4314914,36.5101855 55.4314914,38.3393785 C55.4314914,40.1685714 53.9486725,41.6513903 52.1194795,41.6513903 C50.2902865,41.6513903 48.8071297,40.1685714 48.8071297,38.3393785 C48.8071297,36.5101855 50.2902865,35.0270287 52.1194795,35.0270287 Z M82.6980575,23.0806718 C85.4149819,23.0806718 87.617583,25.2832729 87.617583,28.0001972 C87.617583,30.7174595 85.4149819,32.9197227 82.6980575,32.9197227 C79.9811332,32.9197227 77.7785321,30.7174595 77.7785321,28.0001972 C77.7785321,25.2832729 79.9811332,23.0806718 82.6980575,23.0806718 Z M72.3703657,23.5679609 C74.8183011,23.5679609 76.802602,25.5522619 76.802602,28.0001972 C76.802602,30.4484705 74.8183011,32.4327714 72.3703657,32.4327714 C69.9224304,32.4327714 67.9377915,30.4484705 67.9377915,28.0001972 C67.9377915,25.5522619 69.9224304,23.5679609 72.3703657,23.5679609 Z M62.3103113,24.0549122 C64.4892576,24.0549122 66.2555963,25.8212509 66.2555963,28.0001972 C66.2555963,30.1794814 64.4892576,31.9454823 62.3103113,31.9454823 C60.131365,31.9454823 58.3650263,30.1794814 58.3650263,28.0001972 C58.3650263,25.8212509 60.131365,24.0549122 62.3103113,24.0549122 Z M52.1194795,24.5422013 C54.0294368,24.5422013 55.5778133,26.0905779 55.5778133,28.0001972 C55.5778133,29.9104924 54.0294368,31.458531 52.1194795,31.458531 C50.2095223,31.458531 48.6611457,29.9104924 48.6611457,28.0001972 C48.6611457,26.0905779 50.2095223,24.5422013 52.1194795,24.5422013 Z M41.927634,25.0291526 C43.5686022,25.0291526 44.8986786,26.3595669 44.8986786,28.0001972 C44.8986786,29.6411654 43.5686022,30.9712418 41.927634,30.9712418 C40.2870036,30.9712418 38.9565893,29.6411654 38.9565893,28.0001972 C38.9565893,26.3595669 40.2870036,25.0291526 41.927634,25.0291526 Z M72.3703657,13.3744257 C74.7375368,13.3744257 76.656618,15.293507 76.656618,17.660678 C76.656618,20.0278491 74.7375368,21.9469303 72.3703657,21.9469303 C70.0031947,21.9469303 68.0841135,20.0278491 68.0841135,17.660678 C68.0841135,15.293507 70.0031947,13.3744257 72.3703657,13.3744257 Z M62.3103113,13.861377 C64.4084933,13.861377 66.1096123,15.562496 66.1096123,17.660678 C66.1096123,19.75886 64.4084933,21.4599791 62.3103113,21.4599791 C60.2121293,21.4599791 58.5110102,19.75886 58.5110102,17.660678 C58.5110102,15.562496 60.2121293,13.861377 62.3103113,13.861377 Z M52.1194795,14.3486661 C53.9486725,14.3486661 55.4314914,15.8314851 55.4314914,17.660678 C55.4314914,19.489871 53.9486725,20.9730278 52.1194795,20.9730278 C50.2902865,20.9730278 48.8071297,19.489871 48.8071297,17.660678 C48.8071297,15.8314851 50.2902865,14.3486661 52.1194795,14.3486661 Z M126.542424,10.7545875 C128.180689,10.7545875 129.513807,12.0873673 129.513807,13.7256321 C129.513807,15.363559 128.180689,16.6963388 126.542424,16.6963388 C124.904835,16.6963388 123.572393,15.363559 123.572393,13.7256321 C123.572393,12.0873673 124.904835,10.7545875 126.542424,10.7545875 Z M192.792597,10.7550606 C194.419034,10.7550606 195.743028,12.0875025 195.743028,13.7254294 C195.743028,15.3633563 194.419034,16.6957982 192.792597,16.6957982 C191.166497,16.6957982 189.801277,15.3633563 189.801277,13.7254294 C189.801277,12.0875025 191.166497,10.7550606 192.792597,10.7550606 Z M62.3103113,3.66953142 C64.3280669,3.66953142 65.9632904,5.30509285 65.9632904,7.32251055 C65.9632904,9.34026618 64.3280669,10.9758276 62.3103113,10.9758276 C60.2928936,10.9758276 58.6573322,9.34026618 58.6573322,7.32251055 C58.6573322,5.30509285 60.2928936,3.66953142 62.3103113,3.66953142 Z" id="Shape"></path>
        </g>
    </g>
</svg>