<svg height="240" viewBox="0 0 346 240" width="346" xmlns="http://www.w3.org/2000/svg"><g fill="#fff" fill-rule="evenodd"><g stroke="#fff" transform="translate(122.525 49)"><path d="m29.163 75.554c-15.741 0-28.463-12.754-28.463-28.538s12.72-28.539 28.462-28.539c15.74 0 28.461 12.755 28.461 28.539s-12.72 28.538-28.461 28.538z" fill-opacity=".525" stroke-width="1.17"/><path d="m13.519 23.162c-7.715 5.106-12.819 13.88-12.819 23.854 0 15.762 12.742 28.538 28.462 28.538.593 0 1.176-.021 1.758-.054-12.622-6.664-21.23-19.949-21.23-35.246 0-6.112 1.38-11.91 3.83-17.092z" fill-opacity=".75" stroke-width="1.17"/><path d="m83.097 45.512c-9.947 0-17.974-8.06-17.974-18.023 0-9.974 8.027-18.023 17.974-18.023 9.937 0 17.975 8.049 17.975 18.023 0 9.964-8.038 18.023-17.975 18.023z" fill-rule="nonzero" opacity=".51" stroke-width="1.502"/><g stroke-width="1.17"><path d="m74.11 75.554c-14.09 0-25.473-11.413-25.473-25.542 0-14.117 11.382-25.53 25.473-25.53 14.08 0 25.462 11.413 25.462 25.53 0 14.129-11.383 25.542-25.462 25.542z" fill-opacity=".61"/><path d="m49.392 80.055c-21.956 0-39.703-17.786-39.703-39.8 0-22.017 17.747-39.812 39.703-39.812 21.945 0 39.693 17.795 39.693 39.81s-17.748 39.8-39.693 39.8z" fill-opacity=".75"/><path d="m76.149 10.85c2.136-.897 4.488-1.384 6.948-1.384 9.926 0 17.975 8.06 17.975 18.023 0 7.93-5.114 14.67-12.214 17.071.151-1.406.227-2.845.227-4.306 0-11.64-4.985-22.123-12.936-29.403z" fill-opacity=".75"/><path d="m68.78 74.992c1.715.367 3.496.562 5.33.562 14.058 0 25.462-11.435 25.462-25.542 0-9.292-4.952-17.428-12.364-21.896 1.219 3.83 1.877 7.909 1.877 12.138 0 14.919-8.189 27.922-20.305 34.738z" fill-opacity=".75"/></g></g><path d="m.895 135.022v-20.003l-.431-4.176h4.736l.486 3.03c1.575-2.402 3.927-3.755 6.948-3.755 3.02 0 5.319 1.158 6.668 3.852 1.435-2.5 3.98-3.852 6.99-3.852 4.845 0 7.629 2.835 7.629 8.514v16.39h-5.708v-15.243c0-2.834-.474-5.236-3.646-5.236-2.633 0-4.305 2.207-4.305 4.706v15.773h-5.708v-15.243c0-2.596-.334-5.236-3.646-5.236-2.687 0-4.316 2.304-4.316 4.9v15.579zm39.014 0v-24.179h5.707v24.179zm2.826-34.326c1.975 0 3.313 1.45 3.313 3.223 0 1.829-1.392 3.17-3.313 3.17-2.006 0-3.301-1.341-3.301-3.17 0-1.774 1.338-3.223 3.301-3.223zm9.398 34.326v-20.284l-.335-3.614h3.118l.432 3.419c1.683-2.64 4.412-4.09 7.336-4.09 3.161 0 5.557 1.299 6.851 4.469 1.532-2.975 4.413-4.468 7.434-4.468 4.941 0 7.67 2.985 7.67 8.46v16.108h-3.689v-15.092c0-3.418-.723-6.49-4.941-6.49-3.313 0-5.75 2.78-5.75 5.711v15.87h-3.69v-15.047c0-3.073-.486-6.535-4.942-6.535-3.399 0-5.805 2.932-5.805 5.961v15.622h-3.69zm49.327-24.568c4.467 0 7.002 2.401 7.002 5.96 0 7.119-8.534 8.266-13.184 8.266-.475 0-.863-.044-1.24-.044.183 3.938 2.103 8.07 7.185 8.07 3.215 0 5.221-1.536 6.139-2.206l1.435 2.455c-1.198 1.007-3.982 2.737-7.812 2.737-7.477 0-10.638-5.095-10.638-12.257 0-7.118 3.83-12.981 11.113-12.981zm3.506 6.393c0-2.26-1.532-3.602-3.69-3.602-5.135 0-7.099 4.857-7.239 8.654.28 0 .572.044.96.044 3.259 0 9.97-.769 9.97-5.096zm18.406-6.393c1.92 0 3.399.335 4.942.865v-9.704h3.69v29.08l.377 4.327h-3.301l-.335-2.889-.194-.043c-1.877 2.64-4.51 3.602-7.045 3.602-7.002 0-9.354-5.528-9.354-11.921 0-8.07 4.024-13.317 11.22-13.317zm4.942 17.211v-13.175c-1.111-.574-2.88-1.147-5.082-1.147-5.232 0-7.39 4.37-7.39 9.996 0 4.955 1.348 9.466 6.236 9.466 3.927 0 6.236-2.737 6.236-5.139zm10.778 7.357v-23.898h3.744v23.898zm1.877-33.223c1.381 0 2.493 1.114 2.493 2.5 0 1.492-1.112 2.552-2.547 2.552s-2.449-1.06-2.449-2.553c0-1.385 1.058-2.499 2.503-2.499zm27.458 10.19v18.846l.389 4.187h-3.356l-.29-2.835-.141-.054c-1.198 1.731-3.258 3.56-7.002 3.56-6.657 0-9.484-4.62-9.484-11.587 0-8.503 4.068-13.652 12.03-13.652 1.489 0 4.79.39 7.854 1.536zm-3.69 15.438v-13.22c-.863-.389-2.772-.822-4.79-.822-5.75 0-7.714 4.717-7.714 10.862 0 4.186 1.24 8.654 6.28 8.654 4.024 0 6.225-2.79 6.225-5.474z" transform="translate(88 49)"/></g></svg>