<svg xmlns="http://www.w3.org/2000/svg" viewBox="0 0 256 125" width="256" height="125">
	<style>
		tspan { white-space:pre }
		.shp0 { opacity: 0.525;fill: #ffffff;stroke: #ffffff;stroke-width: 1.388 } 
		.shp1 { opacity: 0.749;fill: #ffffff;stroke: #ffffff;stroke-width: 1.388 } 
		.shp2 { opacity: 0.51;fill: #ffffff;stroke: #ffffff;stroke-width: 1.388 } 
		.shp3 { opacity: 0.612;fill: #ffffff;stroke: #ffffff;stroke-width: 1.388 } 
		.shp4 { fill: #ffffff } 
	</style>
	<g >
		<g >
			<g >
				<g >
					<path class="shp0" d="M110.03 69.84C95.44 69.84 83.65 58.05 83.65 43.46C83.65 28.87 95.44 17.08 110.03 17.08C124.62 17.08 136.41 28.87 136.41 43.46C136.41 58.05 124.62 69.84 110.03 69.84Z" />
					<path fill-rule="evenodd" class="shp1" d="M95.53 21.41C88.38 26.13 83.65 34.24 83.65 43.46C83.65 58.03 95.46 69.84 110.03 69.84C110.58 69.84 111.12 69.82 111.66 69.79C99.96 63.63 91.98 51.35 91.98 37.21C91.98 31.56 93.26 26.2 95.53 21.41L95.53 21.41Z" />
					<path class="shp2" d="M160.02 42.07C150.8 42.07 143.36 34.62 143.36 25.41C143.36 16.19 150.8 8.75 160.02 8.75C169.23 8.75 176.68 16.19 176.68 25.41C176.68 34.62 169.23 42.07 160.02 42.07Z" />
					<path class="shp3" d="M151.69 69.84C138.63 69.84 128.08 59.29 128.08 46.23C128.08 33.18 138.63 22.63 151.69 22.63C164.74 22.63 175.29 33.18 175.29 46.23C175.29 59.29 164.74 69.84 151.69 69.84Z" />
					<path class="shp1" d="M128.78 74C108.43 74 91.98 57.56 91.98 37.21C91.98 16.86 108.43 0.41 128.78 0.41C149.12 0.41 165.57 16.86 165.57 37.21C165.57 57.56 149.12 74 128.78 74Z" />
					<path fill-rule="evenodd" class="shp1" d="M153.58 10.03C155.56 9.2 157.74 8.75 160.02 8.75C169.22 8.75 176.68 16.2 176.68 25.41C176.68 32.74 171.94 38.97 165.36 41.19C165.5 39.89 165.57 38.56 165.57 37.21C165.57 26.45 160.95 16.76 153.58 10.03Z" />
					<path fill-rule="evenodd" class="shp1" d="M146.75 69.32C148.34 69.66 149.99 69.84 151.69 69.84C164.72 69.84 175.29 59.27 175.29 46.23C175.29 37.64 170.7 30.12 163.83 25.99C164.96 29.53 165.57 33.3 165.57 37.21C165.57 51 157.98 63.02 146.75 69.32L146.75 69.32Z" />
				</g>
				<path fill-rule="evenodd" class="shp4" d="M51.83 124.81L51.83 106.32L51.43 102.46L55.82 102.46L56.27 105.26C57.73 103.04 59.91 101.79 62.71 101.79C65.51 101.79 67.64 102.86 68.89 105.35C70.22 103.04 72.58 101.79 75.37 101.79C79.86 101.79 82.44 104.41 82.44 109.66L82.44 124.81L77.15 124.81L77.15 110.72C77.15 108.1 76.71 105.88 73.77 105.88C71.33 105.88 69.78 107.92 69.78 110.23L69.78 124.81L64.49 124.81L64.49 110.72C64.49 108.32 64.18 105.88 61.11 105.88C58.62 105.88 57.11 108.01 57.11 110.41L57.11 124.81L51.83 124.81ZM87.99 124.81L87.99 102.46L93.28 102.46L93.28 124.81L87.99 124.81ZM90.61 93.08C92.44 93.08 93.68 94.42 93.68 96.06C93.68 97.75 92.39 98.99 90.61 98.99C88.75 98.99 87.55 97.75 87.55 96.06C87.55 94.42 88.79 93.08 90.61 93.08ZM99.32 124.81L99.32 106.06L99.01 102.72L101.9 102.72L102.3 105.88C103.86 103.44 106.39 102.1 109.1 102.1C112.03 102.1 114.25 103.3 115.45 106.23C116.87 103.48 119.54 102.1 122.34 102.1C126.92 102.1 129.45 104.86 129.45 109.92L129.45 124.81L126.03 124.81L126.03 110.86C126.03 107.7 125.36 104.86 121.45 104.86C118.38 104.86 116.12 107.43 116.12 110.14L116.12 124.81L112.7 124.81L112.7 110.9C112.7 108.06 112.25 104.86 108.12 104.86C104.97 104.86 102.74 107.57 102.74 110.37L102.74 124.81L99.32 124.81ZM145.04 102.1C149.18 102.1 151.53 104.32 151.53 107.61C151.53 114.19 143.62 115.25 139.31 115.25C138.87 115.25 138.51 115.21 138.16 115.21C138.33 118.85 140.11 122.67 144.82 122.67C147.8 122.67 149.66 121.25 150.51 120.63L151.84 122.9C150.73 123.83 148.15 125.43 144.6 125.43C137.67 125.43 134.74 120.72 134.74 114.1C134.74 107.52 138.29 102.1 145.04 102.1ZM148.29 108.01C148.29 105.92 146.87 104.68 144.87 104.68C140.11 104.68 138.29 109.17 138.16 112.68C138.42 112.68 138.69 112.72 139.05 112.72C142.07 112.72 148.29 112.01 148.29 108.01ZM165.35 102.1C167.13 102.1 168.5 102.41 169.93 102.9L169.93 93.93L173.35 93.93L173.35 120.81L173.7 124.81L170.64 124.81L170.33 122.14L170.15 122.1C168.41 124.54 165.97 125.43 163.62 125.43C157.13 125.43 154.95 120.32 154.95 114.41C154.95 106.95 158.68 102.1 165.35 102.1ZM169.93 118.01L169.93 105.83C168.9 105.3 167.26 104.77 165.22 104.77C160.37 104.77 158.37 108.81 158.37 114.01C158.37 118.59 159.62 122.76 164.15 122.76C167.79 122.76 169.93 120.23 169.93 118.01ZM179.92 124.81L179.92 102.72L183.39 102.72L183.39 124.81L179.92 124.81ZM181.66 94.1C182.94 94.1 183.97 95.13 183.97 96.41C183.97 97.79 182.94 98.77 181.61 98.77C180.28 98.77 179.34 97.79 179.34 96.41C179.34 95.13 180.32 94.1 181.66 94.1ZM207.11 103.52L207.11 120.94L207.47 124.81L204.36 124.81L204.09 122.19L203.96 122.14C202.85 123.74 200.94 125.43 197.47 125.43C191.3 125.43 188.68 121.16 188.68 114.72C188.68 106.86 192.45 102.1 199.83 102.1C201.21 102.1 204.27 102.46 207.11 103.52ZM203.69 117.79L203.69 105.57C202.89 105.21 201.12 104.81 199.25 104.81C193.92 104.81 192.1 109.17 192.1 114.85C192.1 118.72 193.25 122.85 197.92 122.85C201.65 122.85 203.69 120.27 203.69 117.79Z" />
			</g>
		</g>
	</g>
</svg>