<svg height="48" viewBox="0 0 256 48" width="256" xmlns="http://www.w3.org/2000/svg" xmlns:xlink="http://www.w3.org/1999/xlink"><filter id="a" height="162.9%" width="123.6%" x="-11.8%" y="-31.4%"><feOffset dx="0" dy="0" in="SourceAlpha" result="shadowOffsetOuter1"/><feGaussianBlur in="shadowOffsetOuter1" result="shadowBlurOuter1" stdDeviation="17"/><feColorMatrix in="shadowBlurOuter1" result="shadowMatrixOuter1" type="matrix" values="0 0 0 0 0   0 0 0 0 0   0 0 0 0 0  0 0 0 0.17 0"/><feMerge><feMergeNode in="shadowMatrixOuter1"/><feMergeNode in="SourceGraphic"/></feMerge></filter><g fill="#fff" filter="url(#a)" transform="translate(-152 -59)"><path d="m140.453953 23.1352554 4.064662-6.9189939c.229371-.3878813.090683-.8805989-.298717-1.1059909-.389396-.2253885-.896146-.0943489-1.120182.2935341l-4.118005 7.0081037c-3.141846-1.4100089-6.678421-2.196257-10.481711-2.196257-3.803289 0-7.339865.7862481-10.481712 2.196257l-4.118004-7.0081037c-.229372-.387883-.730787-.5189226-1.125518-.2935341-.394733.225392-.528088.7181096-.298716 1.1059909l4.064664 6.9189939c-7.009144 3.7320662-11.756587 10.7034756-12.540714 18.8647446h49c-.784129-8.161269-5.531573-15.1326784-12.546047-18.8647446zm-23.203791 12.1029988c-1.136186 0-2.053668-.9068074-2.053668-2.0180375 0-1.1164765.922817-2.0180394 2.053668-2.0180394 1.136186 0 2.053693.9068057 2.053693 2.0180394.005333 1.1112301-.917507 2.0180375-2.053693 2.0180375zm22.49434 0c-1.136184 0-2.053671-.9068074-2.053671-2.0180375 0-1.1164765.922819-2.0180394 2.053671-2.0180394 1.136188 0 2.053691.9068057 2.053691 2.0180394.005315 1.1112301-.917503 2.0180375-2.053691 2.0180375z" transform="translate(152 59)"/></g></svg>