<svg height="48" viewBox="0 0 256 48" width="256" xmlns="http://www.w3.org/2000/svg" xmlns:xlink="http://www.w3.org/1999/xlink"><filter id="a" height="162.9%" width="123.6%" x="-11.8%" y="-31.4%"><feOffset dx="0" dy="0" in="SourceAlpha" result="shadowOffsetOuter1"/><feGaussianBlur in="shadowOffsetOuter1" result="shadowBlurOuter1" stdDeviation="17"/><feColorMatrix in="shadowBlurOuter1" result="shadowMatrixOuter1" type="matrix" values="0 0 0 0 0   0 0 0 0 0   0 0 0 0 0  0 0 0 0.17 0"/><feMerge><feMergeNode in="shadowMatrixOuter1"/><feMergeNode in="SourceGraphic"/></feMerge></filter><g fill="#fff" filter="url(#a)" transform="translate(-152 -69)"><path d="m134.071777 10.1040039v6.0512695h5.229493v3.5859375h-5.229493v16.1118164l.004789.277757c.038312 1.0880408.306491 1.9002403.804538 2.4365985.53955.5810547 1.38208.871582 2.527587.871582.747071 0 1.369629-.0415039 1.867676-.1245117v3.6606446l-.179461.038897c-.622902.1234827-1.492769.1852241-2.609601.1852241-2.423828 0-4.154541-.552002-5.192139-1.6560059s-1.556396-2.942627-1.556396-5.5158691v-16.2861329h-3.735352v-3.5859375h3.735352v-6.0512695zm13.251953 6.0512695 7.520508 22.163086h.09961l7.54541-22.163086h4.507324l-9.911133 26.8447266h-4.382812l-9.911133-26.8447266zm-33.538297-2.1347653c3.196249.2580171 5.597539 1.5183126 7.194491 3.7888609-2.858567 1.7324663-4.272608 4.1589973-4.244468 7.2718533.025795 2.4246545.905173 4.442346 2.633445 6.0443973.783233.7435565 1.657922 1.3182305 2.631099 1.7263668-.211048.6122033-.433824 1.1986055-.670671 1.7615515-.574526 1.327614-1.254579 2.5496751-2.042503 3.6732221-1.074015 1.5316797-1.953393 2.5918954-2.631101 3.1806438-1.050564.9663901-2.176169 1.461313-3.381504 1.489461-.865308 0-1.908838-.2462899-3.123552-.745902-1.218702-.4972723-2.338679-.743559-3.362744-.743559-1.074015 0-2.225884.2462867-3.457952.743559-1.233945.4996121-2.227994.759976-2.988012.7857777-1.1558553.0492574-2.3079577-.4597395-3.4579512-1.5293367-.7339873-.6403519-1.6520584-1.7380972-2.7518686-3.2932357-1.1800085-1.660688-2.150139-3.586432-2.9101567-5.7819209-.8139528-2.3714098-1.2219845-4.6677599-1.2219845-6.8909262 0-2.5466263.5501393-4.7430536 1.6520593-6.5836524.8660121-1.4784358 2.0181153-2.6446724 3.4600611-3.5008198 1.4419471-.8561461 2.9999716-1.2924291 4.6778264-1.3203424.9180702 0 2.1219992.2840531 3.6181152.842308 1.491895.5601312 2.449832.8441843 2.869822.8441843.313997 0 1.378163-.3321387 3.182179-.9943029 1.705995-.6140802 3.14583-.868345 4.32537-.7681877zm.17353-9.0205081c.028142.25405832.039867.50813263.039867.76019171 0 1.90045851-.694124 3.67488822-2.077679 5.31728199-1.669648 1.9524848-3.689169 3.0807217-5.879174 2.9026904-.027906-.2279934-.044086-.4679486-.044086-.7201012 0-1.8244145.79402-3.77689841 2.204075-5.37331924.703971-.80829582 1.599296-1.48038286 2.685035-2.01651944 1.083395-.52813709 2.108164-.82020828 3.071962-.87022422z" transform="translate(152 69)"/></g></svg>