<?xml version="1.0" encoding="UTF-8"?>
<svg width="256px" height="50px" viewBox="0 0 256 50" version="1.1" xmlns="http://www.w3.org/2000/svg" xmlns:xlink="http://www.w3.org/1999/xlink">
    <!-- Generator: Sketch 61.2 (89653) - https://sketch.com -->
    <title>logo_kompoz</title>
    <desc>Created with Sketch.</desc>
    <g id="03-what-we-do-(SRC)" stroke="none" stroke-width="1" fill="none" fill-rule="evenodd">
        <g id="Group" fill="#FFFFFF">
            <path d="M175.476203,18.3854129 C177.964552,18.3854129 180.076285,19.346065 181.811404,21.2673693 C183.546523,23.1886736 184.414082,25.8652493 184.414082,29.2970963 C184.414082,32.8216959 183.539797,35.5612109 181.791228,37.5156411 C180.042659,39.4700714 177.9242,40.4472865 175.435852,40.4472865 C174.252205,40.4472865 173.179525,40.2154049 172.217812,39.7516418 C171.299813,39.3089589 170.335856,38.5644466 169.325941,37.518105 L169.181354,37.3665744 L169.181354,48 L163.511955,48 L163.511955,18.8624263 L168.798014,18.8624263 L168.798014,21.963014 L168.897658,21.8129332 C169.57293,20.8214086 170.467802,20.0101612 171.582274,19.379191 C172.752471,18.7166722 174.050447,18.3854129 175.476203,18.3854129 Z M36.6782413,10.6635338 L38.2703887,16.5391426 C32.0151921,17.058254 27.1025641,22.2291221 27.1025641,28.531414 C27.1025641,35.1782305 32.5669861,40.5665399 39.3076923,40.5665399 C46.0483985,40.5665399 51.5128205,35.1782305 51.5128205,28.531414 C51.5128205,27.2160508 51.2988233,25.9499733 50.9032864,24.7651868 L47.5559212,12.4103381 C53.523647,15.3850737 57.6153846,21.4870613 57.6153846,28.531414 C57.6153846,38.5016387 49.4187516,46.5841028 39.3076923,46.5841028 C29.196633,46.5841028 21,38.5016387 21,28.531414 C21,19.4416066 27.8129461,11.9208839 36.6782413,10.6635338 Z M111.418044,18.3854129 C114.659623,18.3854129 117.316103,19.4222547 119.387485,21.4959383 C121.458867,23.5696219 122.494558,26.1898835 122.494558,29.356723 C122.494558,32.5500633 121.448779,35.1968256 119.357221,37.29701 C117.265663,39.3971943 114.632722,40.4472865 111.458396,40.4472865 C109.494618,40.4472865 107.621632,40.0100241 105.839436,39.1354994 C104.057241,38.2609747 102.7021,36.979001 101.774013,35.2895782 C100.845926,33.6001554 100.381883,31.5430348 100.381883,29.1182163 C100.381883,27.2631638 100.845926,25.4677381 101.774013,23.731939 C102.7021,21.9961399 104.016889,20.6711025 105.718381,19.7568266 C107.419874,18.8425508 109.319761,18.3854129 111.418044,18.3854129 Z M198.63802,18.3854129 C201.879598,18.3854129 204.536078,19.4222547 206.60746,21.4959383 C208.678842,23.5696219 209.714533,26.1898835 209.714533,29.356723 C209.714533,32.5500633 208.668754,35.1968256 206.577196,37.29701 C204.485639,39.3971943 201.852697,40.4472865 198.678371,40.4472865 C196.714594,40.4472865 194.841607,40.0100241 193.059412,39.1354994 C191.277216,38.2609747 189.922075,36.979001 188.993988,35.2895782 C188.065902,33.6001554 187.601858,31.5430348 187.601858,29.1182163 C187.601858,27.2631638 188.065902,25.4677381 188.993988,23.731939 C189.922075,21.9961399 191.236864,20.6711025 192.938357,19.7568266 C194.639849,18.8425508 196.539737,18.3854129 198.63802,18.3854129 Z M77.9463952,10.8326994 L77.9463952,23.7716901 L90.0115225,10.8326994 L98.0414902,10.8326994 L86.9044496,22.1816452 L98.6467641,39.970273 L90.9194334,39.970273 L82.7885868,26.2958865 L77.9463952,31.1653991 L77.9463952,39.970273 L71.974359,39.970273 L71.974359,10.8326994 L77.9463952,10.8326994 Z M151.00296,18.3854129 C152.576673,18.3854129 153.908275,18.7001093 154.997768,19.3295021 C156.087261,19.9588948 156.901019,20.8831085 157.43904,22.1021429 C157.816103,22.9731342 158.010919,24.3641585 158.023488,26.2752159 L158.024138,26.4747665 L158.024138,39.970273 L152.354739,39.970273 L152.354261,27.7281762 C152.343435,25.7356228 152.148561,24.4432948 151.769641,23.8511924 C151.24507,23.0561699 150.438038,22.6586587 149.348545,22.6586587 C148.554963,22.6586587 147.808459,22.8971654 147.109031,23.3741789 C146.409604,23.8511924 145.905209,24.5501496 145.595846,25.4710507 C145.30782,26.3284413 145.153874,27.6481337 145.13401,29.4301279 L145.131803,29.8337365 L145.131803,39.970273 L139.462404,39.970273 L139.462142,28.2233689 L139.460048,27.8760624 C139.443816,26.1207317 139.343723,24.9712387 139.159767,24.4275837 C138.958009,23.8313168 138.645284,23.3874293 138.221592,23.095921 C137.7979,22.8044128 137.22289,22.6586587 136.496561,22.6586587 C135.622277,22.6586587 134.835421,22.8905402 134.135993,23.3543033 C133.436565,23.8180664 132.935533,24.4872103 132.632896,25.3617351 C132.340022,26.2080493 132.188861,27.5941681 132.179413,29.5200914 L132.178941,29.7144831 L132.178941,39.970273 L126.509541,39.970273 L126.509541,18.8624263 L131.735073,18.8624263 L131.735073,21.7443828 L131.849985,21.608681 C133.695705,19.4598356 135.883464,18.3854129 138.413262,18.3854129 C139.785217,18.3854129 140.975589,18.6636707 141.984379,19.2201865 C142.993168,19.7767022 143.820376,20.618101 144.466002,21.7443828 C145.407539,20.618101 146.423054,19.7767022 147.512547,19.2201865 C148.60204,18.6636707 149.765511,18.3854129 151.00296,18.3854129 Z M230.37455,18.8624263 L230.37455,22.8176632 L222.183176,32.1194261 L219.298037,35.2001382 L220.514884,35.1312123 C221.18619,35.0951641 221.678322,35.0729986 221.99128,35.0647157 L222.140224,35.0616276 L231,35.0610092 L231,39.970273 L211.873343,39.970273 L211.873343,35.617525 L219.903311,26.5343932 L220.429177,25.9448855 C221.483948,24.7679497 222.283823,23.9110475 222.828802,23.3741789 L222.436083,23.3951414 C221.929219,23.4190542 221.323813,23.4367041 220.619867,23.4480911 L220.226124,23.4536811 L212.660199,23.4934323 L212.660199,18.8624263 L230.37455,18.8624263 Z M38.7085165,3.00771168 L40.8166058,3.2596039 C48.3842516,4.16384978 54.2164362,8.84671318 56.6284422,15.9282588 L56.7064533,16.1618712 C56.8275498,16.5329916 56.6206156,16.9306448 56.2442529,17.0500546 C55.9780379,17.1345174 55.6883215,17.0580549 55.500478,16.858511 L55.4618308,16.8138815 C52.3237172,12.8708702 48.5574291,10.2724405 44.1179201,8.97078053 L43.9859976,8.93238008 L48.3903748,25.187967 C48.6055693,25.7561396 48.7675036,26.349922 48.8701887,26.9634083 L48.8571282,26.9130873 L48.8795871,27.0034932 C48.9115189,27.1460185 48.9302458,27.2886366 48.9365305,27.4300468 C48.9783848,27.7913274 49,28.1588816 49,28.531414 C49,33.8097682 44.660606,38.0887198 39.3076923,38.0887198 C33.9547786,38.0887198 29.6153846,33.8097682 29.6153846,28.531414 C29.6153846,23.2530597 33.9547786,18.9741081 39.3076923,18.9741081 C40.0888069,18.9741081 40.8483401,19.0652224 41.5759575,19.2372606 L37.5385369,4.33602421 C37.3850165,3.76941432 37.7263801,3.18736693 38.3009936,3.03598497 C38.4337609,3.00100742 38.5720904,2.99141034 38.7085165,3.00771168 Z M173.942843,22.7977876 C172.557438,22.7977876 171.407418,23.32449 170.492781,24.3778948 C169.578145,25.4312995 169.120827,26.9915311 169.120827,29.0585896 C169.120827,31.4304066 169.598321,33.1827687 170.553309,34.3156757 C171.508297,35.4485827 172.671768,36.0150362 174.043722,36.0150362 C175.361874,36.0150362 176.458092,35.494959 177.332377,34.4548046 C178.206662,33.4146502 178.643804,31.7086645 178.643804,29.3368474 C178.643804,27.1240349 178.193211,25.4809884 177.292025,24.4077081 C176.39084,23.3344278 175.274446,22.7977876 173.942843,22.7977876 Z M111.43822,22.9369165 C109.958662,22.9369165 108.714487,23.4934323 107.705697,24.6064637 C106.696908,25.7194952 106.192513,27.3227905 106.192513,29.4163497 C106.192513,31.5099089 106.696908,33.1132042 107.705697,34.2262356 C108.714487,35.3392671 109.958662,35.8957828 111.43822,35.8957828 C112.917779,35.8957828 114.15859,35.3392671 115.160655,34.2262356 C116.16272,33.1132042 116.663752,31.4966585 116.663752,29.3765986 C116.663752,27.3095401 116.16272,25.7194952 115.160655,24.6064637 C114.15859,23.4934323 112.917779,22.9369165 111.43822,22.9369165 Z M198.658196,22.9369165 C197.178637,22.9369165 195.934463,23.4934323 194.925673,24.6064637 C193.916883,25.7194952 193.412488,27.3227905 193.412488,29.4163497 C193.412488,31.5099089 193.916883,33.1132042 194.925673,34.2262356 C195.934463,35.3392671 197.178637,35.8957828 198.658196,35.8957828 C200.137754,35.8957828 201.378566,35.3392671 202.38063,34.2262356 C203.382695,33.1132042 203.883727,31.4966585 203.883727,29.3765986 C203.883727,27.3095401 203.382695,25.7194952 202.38063,24.6064637 C201.378566,23.4934323 200.137754,22.9369165 198.658196,22.9369165 Z" id="Shape"></path>
        </g>
    </g>
</svg>