<?xml version="1.0" encoding="UTF-8"?>
<svg width="256px" height="126px" viewBox="0 0 256 126" version="1.1" xmlns="http://www.w3.org/2000/svg" xmlns:xlink="http://www.w3.org/1999/xlink">
    <!-- Generator: Sketch 61.2 (89653) - https://sketch.com -->
    <title>logo_greenlinks</title>
    <desc>Created with Sketch.</desc>
    <g id="03-what-we-do-(SRC)" stroke="none" stroke-width="1" fill="none" fill-rule="evenodd">
        <g id="Group" fill="#FFFFFF">
            <path d="M128.00038,3 C161.084335,3 188,29.9161025 188,62.9998479 C188,96.0835934 161.084335,123 128.00038,123 C94.9164251,123 68,96.0835934 68,62.9998479 C68,29.9161025 94.9164251,3 128.00038,3 Z M128.00038,11.9708682 C99.8627072,11.9708682 76.970925,34.8625053 76.970925,62.9998479 C76.970925,91.1374947 99.8627072,114.029132 128.00038,114.029132 C156.138053,114.029132 179.028923,91.1374947 179.028923,62.9998479 C179.028923,34.8625053 156.138053,11.9708682 128.00038,11.9708682 Z M102.310389,36.5585843 L103.465176,36.5585843 L103.466088,80.4704563 L152.533942,80.4704563 L152.533942,80.464525 L161.505019,80.464525 L161.505019,81.6259958 C161.505019,85.843777 158.146449,89.291921 153.963437,89.4367411 L153.689489,89.4414765 L102.310389,89.4414765 C98.09273,89.4414765 94.6445674,86.0830726 94.4997464,81.8999513 L94.495011,81.6259958 L94.495011,44.3739129 C94.495011,40.1562806 97.8534361,36.7081398 102.036441,36.5633197 L102.310389,36.5585843 Z M153.689489,58.5144442 C157.907148,58.5144442 161.355457,61.8729938 161.500284,66.0559788 L161.505019,66.3299249 L161.505019,74.4990026 L152.533942,74.4990026 L152.533942,67.4853124 L120.496032,67.4853124 L120.496032,58.5144442 L153.689489,58.5144442 Z M161.46274,36.5585843 L161.46274,45.5294525 L109.430736,45.5294525 L109.430736,36.5585843 L161.46274,36.5585843 Z" id="greenlinks_logo"></path>
        </g>
    </g>
</svg>