<svg height="36" viewBox="0 0 256 36" width="256" xmlns="http://www.w3.org/2000/svg"><path d="m24.0700762 3.41070801c.5557906-.54761068 1.458229-.54761068 2.0140195 0l22.0715186 21.73033959-11.0259032 10.8575176-11.044173-10.8752133c-.5557906-.5471324-1.458229-.5471324-2.0140195 0l-11.0456154 10.8766481-11.0259032-10.8575176zm97.4301748 2.93653238c7.202199 0 13.06252 5.79319491 13.06252 12.91309031 0 7.1198953-5.860321 12.9130902-13.06252 12.9130902s-13.06252-5.7931949-13.06252-12.9130902c0-7.1198954 5.860321-12.91309031 13.06252-12.91309031zm53.322716.51317577c.143274 0 .259625.12339175.259625.26495748v24.26991406c0 .1501744-.125486.2649574-.268279.2649574h-4.035251c-.008654-.0086087-.017789-.0086087-.026924-.0086087 0 0-.008654-.009087-.017789-.009087-.004328 0-.009135-.001913-.013463-.0043043-.004327-.0019131-.008654-.0043044-.013462-.0043044l-.005228-.0014348c-.00583-.0052609-.008234-.0076522-.012561-.0076522-.004327-.0043044-.009135-.0062174-.013462-.0086087s-.008654-.0043044-.013462-.009087l-.017789-.0176957-.017789-.0176957-.009135-.0086088-13.652446-16.9725832v16.8133218c0 .1501744-.125486.2654357-.26876.2654357h-3.999192c-.151929 0-.26828-.12387-.26828-.2654357v-24.26943577c0-.15017446.125005-.26543574.26828-.26543574h4.016981c.098561 0 .179333.06217414.224047.14156573l13.616868 16.95488748v-16.84010446c0-.15017445.125004-.26495748.268279-.26495748zm-80.4136577 0c.1432747 0 .2687603.12339175.2774144.25634876v3.95331868c0 .1506527-.1250047.2654357-.2682795.2654357h-7.7478929v20.0597684c0 .1501744-.1254856.2649574-.2682795.2649574h-3.9991917c-.1524097 0-.2687603-.12387-.2687603-.2649574v-20.0506814h-7.747893c-.1519288 0-.2682795-.12387-.2682795-.2654357v-3.95379696c0-.15017445.1254856-.26495748.2682795-.26495748zm148.5518447 0c.153852 0 .269241.12339175.269241.26495748v20.05068136h9.50998c.144236 0 .259625.12387.259625.2654357v3.953797c0 .1501744-.125005.2649574-.269241.2649574h-13.769758c-.149045 0-.269241-.12387-.269241-.2649574v-24.26991406c0-.15017445.129812-.26495748.269241-.26495748zm-33.890721-.0267827c.110581 0 .197122.06217413.240393.15926144l10.6206 24.2962185c.038463.0793916.028847.1769571 0 .2472617-.052887.0707829-.134621.1152613-.221163.1152613l-4.168429-.0267827c-.110581 0-.197123-.0616959-.245201-.1587832l-8.433016-18.910025-8.437823 18.910025c-.048079.0970873-.134621.1587832-.240394.1587832l-4.173237.0267827c-.086541 0-.177891-.0444784-.221162-.1152613-.043271-.0703046-.052887-.1678701-.019231-.2472617l10.620599-24.2962185c.043271-.09708731.13462-.15926144.240394-.15926144zm-87.561047 4.07718864c-4.652582 0-8.445997 3.7505354-8.445997 8.3495086 0 4.5989731 3.793415 8.3495085 8.445997 8.3495085 4.652101 0 8.445516-3.7414484 8.445516-8.3495085 0-4.6080602-3.793415-8.3495086-8.445516-8.3495086z" fill="#fff"/></svg>