<svg xmlns="http://www.w3.org/2000/svg" viewBox="0 0 256 84" width="256" height="84">
	<style>
		tspan { white-space:pre }
		.shp0 { fill: #ffffff } 
	</style>
	<path fill-rule="evenodd" class="shp0" d="M132.79 32.22L123.43 41.49C123.27 41.65 123.08 41.78 122.87 41.87C122.65 41.96 122.43 42 122.2 42C121.97 42 121.74 41.96 121.53 41.87C121.32 41.78 121.12 41.65 120.96 41.49L101.51 22.22C101.35 22.06 101.22 21.87 101.13 21.66C101.05 21.45 101 21.23 101 21C101 20.77 101.05 20.55 101.13 20.34C101.22 20.13 101.35 19.93 101.51 19.77L120.96 0.51C121.12 0.35 121.32 0.22 121.53 0.13C121.74 0.04 121.97 0 122.2 0C122.43 0 122.65 0.04 122.87 0.13C123.08 0.22 123.27 0.35 123.43 0.51L130.04 7.05L127.3 9.77L122.2 4.71L105.76 21L122.2 37.29L130.09 29.47L133.38 26.21L138.64 21L136.03 18.41L138.76 15.7L142.88 19.78C143.04 19.94 143.17 20.13 143.26 20.34C143.35 20.55 143.39 20.77 143.39 21C143.39 21.23 143.35 21.45 143.26 21.66C143.17 21.87 143.04 22.06 142.88 22.22L136.08 28.96L132.8 32.22L132.79 32.22ZM164.49 19.78C164.65 19.94 164.78 20.13 164.87 20.34C164.95 20.55 165 20.77 165 21C165 21.23 164.95 21.45 164.87 21.66C164.78 21.87 164.65 22.06 164.49 22.23L145.04 41.49C144.88 41.65 144.68 41.78 144.47 41.87C144.26 41.95 144.03 42 143.8 42C143.57 42 143.35 41.95 143.13 41.87C142.92 41.78 142.73 41.65 142.57 41.49L135.95 34.94L138.69 32.23L143.8 37.29L160.24 21L143.8 4.71L135.72 12.72L132.97 15.44L132.97 15.44L127.36 21L130 23.61L127.26 26.33L123.12 22.22C122.95 22.06 122.83 21.87 122.74 21.66C122.65 21.45 122.6 21.23 122.6 21C122.6 20.77 122.65 20.55 122.74 20.34C122.83 20.13 122.95 19.94 123.12 19.78L129.81 13.14L133.1 9.89L133.1 9.89L142.57 0.51C142.73 0.35 142.92 0.22 143.13 0.13C143.35 0.05 143.57 0 143.8 0C144.03 0 144.26 0.05 144.47 0.13C144.68 0.22 144.88 0.35 145.04 0.51L164.49 19.78ZM212.2 84L205.8 84L197.48 73.01L195.4 84L189.8 84L194.6 58.64L200.2 58.64L198.14 69.51L209.8 58.64L216.2 58.64L202.6 71.32L212.2 84ZM179.4 84L169.94 66.36L166.6 84L161 84L165.8 58.64L171.4 58.64L180.86 76.28L184.2 58.64L189.8 58.64L185 84L179.4 84ZM136.2 58.64L141.8 58.64L147.84 69.47L156.2 58.64L161.8 58.64L150.2 73.7L148.2 84L142.6 84L144.6 73.7L136.2 58.64ZM115.4 84L120.2 58.64L125.8 58.64L121.9 79.25L137 79.25L136.2 84L115.4 84ZM107.4 63.4L88.2 79.25L104.2 79.25L103.4 84L79.4 84L80.2 79.25L99.4 63.4L83.4 63.4L84.2 58.64L108.2 58.64L107.4 63.4ZM78.6 63.4L54.6 63.4L55.4 58.64L79.4 58.64L78.6 63.4ZM76.6 73.7L52.6 73.7L53.4 68.94L77.4 68.94L76.6 73.7ZM74.6 84L50.6 84L51.4 79.25L75.4 79.25L74.6 84Z" />
</svg>