<svg preserveAspectRatio="none" viewBox="0 0 160 120" xmlns="http://www.w3.org/2000/svg"><path d="M68.37 65.614C28.67 37.283.05 9.339 4.444 3.2 8.84-2.938 44.587 15.055 84.287 43.382c1.262.903.022.002 1.262.903-32.92-22.06-57.308-33.64-60.598-29.046-3.601 5.034 71.52 66.247 89.701 78.656a14.299 14.299 0 0 1 9.874-7.718 14.317 14.317 0 0 1 3.014-.322c3.902 0 7.568 1.606 10.218 4.297a14.274 14.274 0 0 0-8.002-2.468c-.988 0-1.992.104-2.998.32a14.225 14.225 0 0 0-9.706 7.443 14.162 14.162 0 0 0-1.242 9.466 14.143 14.143 0 0 0 4.276 7.463c-3.242-1.97-5.704-5.205-6.564-9.202a14.239 14.239 0 0 1 .88-8.74c.538.23-22.25-11.849-46.033-28.82zm6.535-6.355a48.052 48.052 0 0 1 12.071-13.73l.122.08-.116-.084a47.701 47.701 0 0 1 29.284-9.983c17.016 0 31.92 8.89 40.408 22.246-8.67-9.055-20.862-14.72-34.4-14.72-16.91 0-31.763 8.8-40.214 22.06a1269.455 1269.455 0 0 1-7.155-5.87zm-4.718 11.087a47.71 47.71 0 0 0-1.787 12.98c0 13.65 5.766 25.935 14.966 34.642-5.474-7.74-8.718-17.162-8.718-27.359 0-5.362.89-10.516 2.53-15.325a1345.677 1345.677 0 0 1-6.991-4.938z" fill="#FFF" fill-rule="evenodd"/></svg>