<?xml version="1.0" encoding="UTF-8"?>
<svg width="256px" height="96px" viewBox="0 0 256 96" version="1.1" xmlns="http://www.w3.org/2000/svg" xmlns:xlink="http://www.w3.org/1999/xlink">
    <!-- Generator: Sketch 61.2 (89653) - https://sketch.com -->
    <title>logo_stada</title>
    <desc>Created with Sketch.</desc>
    <g id="03-what-we-do-(SRC)" stroke="none" stroke-width="1" fill="none" fill-rule="evenodd">
        <g id="Group" fill="#FFFFFF">
            <path d="M79.1870469,41.54873 C75.8345354,39.86352 72.4207473,39.02057 68.9440515,39.02057 C66.6327781,39.02057 64.8627434,39.28829 63.6348794,39.82258 C62.4060834,40.35687 61.7921514,41.09724 61.7921514,42.04208 C61.7921514,43.02878 62.4477888,43.74799 63.7597627,44.20063 C64.6966206,44.52907 66.2266743,44.75493 68.3503898,44.87867 C71.4736378,45.08429 73.5346786,45.24851 74.5337451,45.37133 C77.3650551,45.74186 79.4575497,46.43094 80.810996,47.43696 C82.1642093,48.44459 82.841049,49.87312 82.841049,51.72209 C82.841049,54.0858 81.7793078,55.91568 79.6553593,57.21012 C77.5321098,58.50479 74.4817881,59.15224 70.505093,59.15224 C64.7378601,59.15224 60.2511471,57.8992 57.0451872,55.39036 L59.106228,52.70902 C62.6455984,54.84687 66.4557047,55.91568 70.5365469,55.91568 C73.1800658,55.91568 75.231088,55.55619 76.6886814,54.83675 C78.0833672,54.13778 78.7811761,53.18213 78.7811761,51.96865 C78.7811761,50.55116 77.8645884,49.60632 76.032811,49.13298 C75.0747509,48.88619 72.4932076,48.62951 68.2877151,48.36179 C64.5607867,48.11523 61.9484885,47.62257 60.4494227,46.88243 C58.7003572,46.01947 57.825708,44.57024 57.825708,42.53543 C57.825708,40.43898 58.8198817,38.78482 60.8082293,37.57203 C62.7965768,36.35947 65.6022577,35.75319 69.224806,35.75319 C74.0966535,35.75319 78.1770297,36.85282 81.4670994,39.05139 L79.1870469,41.54873 Z M111.135043,39.63789 L100.329607,39.63789 L100.329607,58.62853 L96.5817093,58.62853 L96.5817093,39.63789 L85.776506,39.63789 L85.776506,36.30772 L111.135043,36.30772 L111.135043,39.63789 Z M128.999416,50.3046 L123.240105,39.49069 L117.409964,50.3046 L128.999416,50.3046 Z M137.523868,58.62853 L133.425318,58.62853 L130.819311,53.63362 L115.590302,53.63362 L112.984761,58.62853 L108.886211,58.62853 L120.847284,36.30772 L125.563028,36.30772 L137.523868,58.62853 Z M157.261257,55.29859 C159.50939,55.29859 161.356312,54.5826 162.803188,53.14786 C164.250297,51.71381 164.973502,49.8722 164.973502,47.62257 C164.973502,45.23011 164.198573,43.30064 162.647317,41.83462 C161.096294,40.37044 159.060416,39.63789 156.542712,39.63789 L145.67367,39.63789 L145.67367,55.29859 L157.261257,55.29859 Z M156.230038,36.30772 C160.165261,36.30772 163.282917,37.34065 165.583706,39.40605 C167.883796,41.47168 169.034074,44.24157 169.034074,47.71457 C169.034074,50.90099 167.816694,53.55174 165.380304,55.66797 C163.110736,57.6416 160.29993,58.62853 156.947651,58.62853 L141.926471,58.62853 L141.926471,36.30772 L156.230038,36.30772 Z M190.801982,50.3046 L185.042904,39.49069 L179.212763,50.3046 L190.801982,50.3046 Z M199.325968,58.62853 L195.227418,58.62853 L192.621411,53.63362 L177.393101,53.63362 L174.787094,58.62853 L170.688778,58.62853 L182.650317,36.30772 L187.365827,36.30772 L199.325968,58.62853 Z M48,17.14849 C48,17.14849 82.8704059,2 128.378028,2 C173.88402,2 208,17.20622 208,17.20622 C208,17.20622 174.677821,5.71565 128.36335,5.71565 C82.0491116,5.71565 48,17.14849 48,17.14849 Z M48,78.85151 C48,78.85151 82.0491116,90.28343 128.36335,90.28343 C174.677821,90.28343 208,78.79286 208,78.79286 C208,78.79286 173.88402,94 128.378028,94 C82.8704059,94 48,78.85151 48,78.85151 Z" id="Shape"></path>
        </g>
    </g>
</svg>