<?xml version="1.0" encoding="UTF-8"?>
<svg width="256px" height="56px" viewBox="0 0 256 56" version="1.1" xmlns="http://www.w3.org/2000/svg" xmlns:xlink="http://www.w3.org/1999/xlink">
    <!-- Generator: Sketch 61.2 (89653) - https://sketch.com -->
    <title>logo_novartis_pharma</title>
    <desc>Created with Sketch.</desc>
    <g id="03-what-we-do-(SRC)" stroke="none" stroke-width="1" fill="none" fill-rule="evenodd">
        <g id="Group" fill="#FFFFFF">
            <path d="M26.7543357,9.51825077 C37.1361261,13.5826983 31.7337739,21.795699 29.9615158,25.1951263 C26.4677493,31.9020516 28.6977495,40.0456163 38.2625697,41.7981404 C38.472534,41.8421491 38.4566126,42.0172059 38.2625697,41.9986245 C24.3840276,40.9561074 20.1648393,33.1118018 24.8139071,24.2836573 C27.3175575,19.5297402 31.1436846,14.4120178 26.584175,9.68450584 C26.4607837,9.52998642 26.5632781,9.43218932 26.7543357,9.51825077 Z M46.3967468,20.1657147 C46.2106646,20.0229309 46.3290805,19.8674336 46.5808387,19.985768 C56.0172921,24.0228324 63.4755034,39.3251451 41.7735513,41.99305 C41.5675674,42.0106535 41.5486606,41.8473324 41.7715611,41.792566 C55.4142666,37.5481717 49.8248372,22.8160162 46.3967468,20.1657147 Z M141.003386,21.7887554 C141.329776,21.7887554 141.528795,21.836676 141.528795,22.006843 C141.528795,22.1809218 141.37555,22.2288424 141.126778,22.2288424 C140.87701,22.2288424 140.352596,22.2288424 139.900825,22.5222337 C139.57543,22.7452111 139.20227,23.1637827 138.525608,24.7353821 C137.551414,27.0473056 136.876741,28.3734343 135.528392,31.4002547 C133.92331,34.9884304 132.750097,37.667093 132.200806,38.8954246 C131.549021,40.3222843 131.396772,40.7144507 131.05048,40.7144507 C130.72409,40.7144507 130.572836,40.3702049 130.098178,39.2152211 L123.794273,24.1935862 C123.220105,22.8420302 122.794206,22.5740662 121.893648,22.3266395 C121.518498,22.2288424 121.118471,22.2288424 120.918458,22.2288424 C120.693567,22.2288424 120.61993,22.1545166 120.61993,22.006843 C120.61993,21.8112488 120.893581,21.7887554 121.267735,21.7887554 C122.593197,21.7887554 124.020158,21.8591693 124.895839,21.8591693 C125.521752,21.8591693 126.719842,21.7887554 127.971667,21.7887554 C128.272185,21.7887554 128.54683,21.836676 128.54683,22.006843 C128.54683,22.1809218 128.397566,22.2288424 128.17168,22.2288424 C127.774639,22.2288424 127.398494,22.2542696 127.195496,22.4009653 C127.021355,22.5222337 126.947718,22.6953346 126.947718,22.917334 C126.947718,23.2371305 127.171613,23.9256221 127.519895,24.8097079 L131.824662,35.9732472 L131.923176,35.9732472 C132.99887,33.2662234 136.250829,25.3505259 136.849874,23.7290499 C136.975256,23.4072975 137.07576,23.0395804 137.07576,22.8195369 C137.07576,22.6239427 136.975256,22.4244366 136.750365,22.3501108 C136.449847,22.2542696 136.075693,22.2288424 135.748308,22.2288424 C135.528392,22.2288424 135.324399,22.2043931 135.324399,22.0322702 C135.324399,21.836676 135.549289,21.7887554 136.026933,21.7887554 C137.274778,21.7887554 138.327585,21.8591693 138.65298,21.8591693 C139.077884,21.8591693 140.254082,21.7887554 141.003386,21.7887554 Z M108.40747,21.4416735 C114.634753,21.4416735 118.512625,25.0073559 118.512625,30.6365571 C118.512625,36.2647804 114.511362,40.7135706 108.156707,40.7135706 C100.979112,40.7135706 98.0774245,35.4295931 98.0774245,31.0766441 C98.0774245,26.8752805 100.90448,21.4416735 108.40747,21.4416735 Z M228.845493,21.4418691 C230.471472,21.4418691 231.521294,21.6873398 232.172084,21.8594627 C232.39996,21.9112952 232.525341,21.9836651 232.525341,22.15481 C232.525341,22.4746065 232.424837,23.1885254 232.424837,25.1043706 C232.424837,25.6451886 232.34921,25.8427387 232.148202,25.8427387 C231.973065,25.8427387 231.897439,25.6950651 231.897439,25.3997179 C231.897439,25.1786964 231.774047,24.416857 231.249634,23.7772639 C230.873489,23.3117497 230.146077,22.5733816 228.520098,22.5733816 C226.670223,22.5733816 225.545769,23.6315462 225.545769,25.1043706 C225.545769,26.2339271 226.120932,27.0945416 228.196693,28.6465817 L228.895247,29.1609944 C231.897439,31.4445568 233,33.0934159 233,35.4297887 C233,36.8527365 232.448719,38.5524502 230.645613,39.705478 C229.393788,40.4956786 227.997675,40.7137661 226.670223,40.7137661 C225.218384,40.7137661 224.094926,40.5426212 223.017241,40.0741731 C222.6202,39.9030282 222.543578,39.7817598 222.543578,39.2419198 C222.543578,37.8893858 222.645077,36.4126496 222.667964,36.0185273 C222.695827,35.6508101 222.767473,35.3799122 222.968482,35.3799122 C223.193373,35.3799122 223.22024,35.6038675 223.22024,35.7955499 C223.22024,36.1173023 223.317759,36.6326931 223.443141,37.0522426 C223.993426,38.8712687 225.470142,39.5353111 227.02149,39.5353111 C229.271392,39.5353111 230.372958,38.0370594 230.372958,36.7324461 C230.372958,35.5275858 229.996814,34.371624 227.920058,32.8010026 L226.768737,31.9139829 C224.019299,29.7986315 223.067991,28.0803364 223.067991,26.0872315 C223.067991,23.3860755 225.368643,21.4418691 228.845493,21.4418691 Z M75.1396683,21.3693037 C75.4143135,21.3693037 75.6401993,21.6871442 76.0641083,22.1321211 C76.364626,22.4499616 80.167866,26.4567089 83.8188569,30.0214133 C85.5194684,31.6937438 88.8978043,35.2339989 89.3217133,35.6261653 L89.4460998,35.6261653 L89.1963318,24.5897622 C89.1714545,23.0915106 88.9455687,22.6240405 88.3465236,22.3766138 C87.9713741,22.2289402 87.3693437,22.2289402 87.0200665,22.2289402 C86.720544,22.2289402 86.6200397,22.1546144 86.6200397,22.0069408 C86.6200397,21.8113466 86.8956801,21.7878753 87.2698345,21.7878753 C88.5724094,21.7878753 89.7714947,21.8592671 90.295908,21.8592671 C90.5715483,21.8592671 91.5208657,21.7878753 92.7478136,21.7878753 C93.0732085,21.7878753 93.3239716,21.8113466 93.3239716,22.0069408 C93.3239716,22.1546144 93.1737128,22.2289402 92.8731951,22.2289402 C92.6234272,22.2289402 92.4234138,22.2289402 92.1238912,22.304244 C91.4213565,22.5008161 91.2213431,23.0162069 91.1974609,24.3902562 L90.9238108,39.9028326 C90.9238108,40.4436505 90.8233065,40.66565 90.5974207,40.66565 C90.3217804,40.66565 90.0212627,40.394752 89.7456223,40.12581 C88.1713875,38.6480957 84.9691828,35.4295931 82.3700036,32.8966481 C79.6404674,30.2424348 76.865157,27.1686718 76.4163707,26.7021797 L76.3407438,26.7021797 L76.614394,37.0275978 C76.6661387,38.9453989 76.9895435,39.583036 77.4900745,39.7551589 C77.9159737,39.9028326 78.3926226,39.9282598 78.7916543,39.9282598 C79.0653045,39.9282598 79.2155633,39.9761804 79.2155633,40.12581 C79.2155633,40.3223821 78.9916677,40.3703027 78.6413955,40.3703027 C77.0144208,40.3703027 76.0133587,40.2979329 75.5396951,40.2979329 C75.3138093,40.2979329 74.137611,40.3703027 72.8390165,40.3703027 C72.5136216,40.3703027 72.2857456,40.3458534 72.2857456,40.12581 C72.2857456,39.9761804 72.4379946,39.9282598 72.6887577,39.9282598 C73.0121625,39.9282598 73.462939,39.9028326 73.8142063,39.8069914 C74.4640011,39.6104192 74.5645053,38.8955224 74.5883875,36.7576778 L74.8142733,22.2044909 C74.8142733,21.7155054 74.8879101,21.3693037 75.1396683,21.3693037 Z M150.416355,21.2445146 C150.639256,21.2445146 150.787525,21.466514 151.039283,22.0317812 C151.641313,23.3862711 155.641581,33.4173199 157.241689,37.1502353 C158.194986,39.3584939 158.918418,39.7056736 159.444821,39.828898 C159.818976,39.9032238 160.19512,39.927673 160.495638,39.927673 C160.694656,39.927673 160.821033,39.9531003 160.821033,40.1262012 C160.821033,40.3096685 160.622528,40.3636438 159.846074,40.3700251 L158.890638,40.3700697 C157.900415,40.3680409 156.4726,40.3594185 154.940042,40.3227733 C154.491255,40.2973461 154.190738,40.2973461 154.190738,40.1262012 C154.190738,39.9755936 154.293232,39.927673 154.542005,39.9032238 C154.719131,39.8533472 154.891282,39.6333038 154.765901,39.3379565 L152.763776,34.1292828 C152.716012,34.0060585 152.642375,33.954226 152.517989,33.954226 L146.935525,33.954226 C146.812134,33.954226 146.761384,34.0060585 146.714615,34.1517762 L145.362285,37.667582 C145.110527,38.2788139 144.986141,38.8704864 144.986141,39.1668116 C144.986141,39.6098325 145.214017,39.927673 145.988198,39.927673 L146.362352,39.927673 C146.66088,39.927673 146.738497,39.9755936 146.738497,40.1262012 C146.738497,40.3227733 146.586248,40.3706939 146.313593,40.3706939 C145.511549,40.3706939 144.435855,40.2973461 143.660679,40.2973461 C143.388024,40.2973461 142.011812,40.3706939 140.711227,40.3706939 C140.383842,40.3706939 140.233583,40.3227733 140.233583,40.1262012 C140.233583,39.9755936 140.334088,39.927673 140.533106,39.927673 C140.761977,39.927673 141.109264,39.9032238 141.309277,39.8807304 C142.461593,39.7301229 142.936252,38.8959136 143.433798,37.667582 L149.713821,22.2293314 C150.013343,21.5163905 150.165592,21.2445146 150.416355,21.2445146 Z M171.693304,21.7879731 C173.266544,21.7879731 174.945263,21.9336907 176.293612,22.8422258 C176.996147,23.3116519 177.994224,24.5634548 177.994224,26.212314 C177.994224,28.0303621 177.218052,29.7036705 174.69251,31.714379 C176.919525,34.4742132 178.645014,36.6599784 180.122725,38.1826793 C181.522818,39.6095391 182.545773,39.781662 182.921917,39.8540318 C183.198553,39.9029304 183.423443,39.9283576 183.623457,39.9283576 C183.820485,39.9283576 183.921984,40.0026834 183.921984,40.1259078 C183.921984,40.3224799 183.744858,40.3704005 183.449316,40.3704005 L181.072042,40.3704005 C179.672943,40.3704005 179.047031,40.2501101 178.395246,39.9029304 C177.321542,39.3376631 176.370234,38.1826793 174.96815,36.2903054 C173.968083,34.9367935 172.818752,33.266419 172.493358,32.8967459 C172.365986,32.7490723 172.217717,32.7236451 172.042581,32.7236451 L169.867311,32.6767025 C169.741929,32.6767025 169.668293,32.7236451 169.668293,32.8722967 L169.668859,34.3280156 C169.671692,36.123996 169.688692,37.6159451 169.790689,38.4790046 C169.867311,39.1929234 170.016575,39.7308075 170.766874,39.8286046 C171.143018,39.880437 171.693304,39.9283576 171.989841,39.9283576 C172.19284,39.9283576 172.293344,40.0026834 172.293344,40.1259078 C172.293344,40.2980307 172.117213,40.3704005 171.792813,40.3704005 C170.415457,40.3704005 168.674383,40.3050867 168.181222,40.2985553 L168.11396,40.2980307 C167.639301,40.2980307 166.066061,40.3704005 165.064004,40.3704005 C164.738609,40.3704005 164.564468,40.2980307 164.564468,40.1259078 C164.564468,40.0026834 164.662982,39.9283576 164.962505,39.9283576 C165.338649,39.9283576 165.639167,39.880437 165.865053,39.8286046 C166.365584,39.7308075 166.488975,39.1929234 166.589479,38.4790046 C166.695622,37.6159451 166.713313,36.123996 166.716261,34.3427304 L166.716128,26.6890958 C166.713868,24.8390945 166.704548,24.2997286 166.666101,23.7047963 C166.614357,22.870587 166.414343,22.4745087 165.587422,22.3043418 C165.389399,22.2534873 164.962505,22.229038 164.613227,22.229038 C164.337587,22.229038 164.188323,22.1811174 164.188323,22.0070386 C164.188323,21.8368716 164.36545,21.7879731 164.738609,21.7879731 C166.066061,21.7879731 167.639301,21.8593649 168.164709,21.8593649 C169.017503,21.8593649 170.916137,21.7879731 171.693304,21.7879731 Z M185.682102,21.4418691 C185.87913,21.4418691 186.131884,21.6873398 186.754811,21.7381943 C187.479238,21.8115422 188.432535,21.8594627 189.259456,21.8594627 L199.160618,21.8594627 C200.762715,21.8594627 201.36375,21.613992 201.561773,21.613992 C201.739895,21.613992 201.762782,21.7597097 201.762782,22.1313387 C201.762782,22.6467294 201.689145,24.3425312 201.689145,24.9840802 C201.664268,25.2295509 201.616504,25.3752686 201.464254,25.3752686 C201.263246,25.3752686 201.212496,25.2530222 201.187619,24.8833491 L201.163737,24.6144071 C201.113982,23.9728581 200.43931,23.2863225 198.2113,23.2374239 L195.05885,23.1640761 L195.05885,33.2420675 C195.05885,35.5021585 195.05885,37.443431 195.187217,38.5025737 C195.263839,39.1930212 195.411112,39.7299273 196.161412,39.8287024 C196.511684,39.8805348 197.061969,39.9284554 197.436124,39.9284554 C197.709774,39.9284554 197.837146,40.0027812 197.837146,40.1260056 C197.837146,40.2981285 197.637132,40.3704983 197.360497,40.3704983 C195.71163,40.3704983 194.1364,40.2981285 193.434861,40.2981285 C192.859698,40.2981285 191.282478,40.3704983 190.284401,40.3704983 C189.957016,40.3704983 189.78586,40.2981285 189.78586,40.1260056 C189.78586,40.0027812 189.881389,39.9284554 190.182901,39.9284554 C190.559046,39.9284554 190.859564,39.8805348 191.084454,39.8287024 C191.582995,39.7299273 191.735244,39.1930212 191.808881,38.4791024 C191.921216,37.5585056 191.933697,35.9223722 191.935084,33.9828182 L191.935258,23.1640761 L188.204659,23.2618732 C186.754811,23.3117497 186.158751,23.4339961 185.780616,23.9728581 C185.565676,24.2897207 185.443585,24.5519766 185.381129,24.7442292 L185.354717,24.8344506 C185.303967,25.0300448 185.22834,25.1317538 185.079077,25.1317538 C184.906926,25.1317538 184.857171,25.0075515 184.857171,24.7346976 C184.857171,24.3425312 185.332825,22.1078674 185.381585,21.9112952 C185.455221,21.5914987 185.529853,21.4418691 185.682102,21.4418691 Z M214.718775,21.7879731 C215.04616,21.7879731 215.247168,21.8368716 215.247168,21.9845452 C215.247168,22.1811174 215.094919,22.229038 214.844156,22.229038 C214.594388,22.229038 214.394375,22.2534873 214.096842,22.3043418 C213.41819,22.4246322 213.219172,22.8422258 213.168422,23.7047963 C213.1269,24.3473232 213.11935,24.9250374 213.117977,27.1589598 L213.117812,34.0197572 C213.118925,36.0469717 213.12895,37.686196 213.219172,38.6276562 C213.295794,39.2877866 213.46894,39.7308075 214.218244,39.8286046 C214.568516,39.880437 215.117806,39.9283576 215.494946,39.9283576 C215.768596,39.9283576 215.895968,40.0026834 215.895968,40.1259078 C215.895968,40.2980307 215.69695,40.3704005 215.420314,40.3704005 C213.872636,40.3704005 212.389677,40.3067942 211.652801,40.2988434 L211.515575,40.2980307 C210.941407,40.2980307 209.367172,40.3704005 208.369095,40.3704005 C208.03972,40.3704005 207.866574,40.2980307 207.866574,40.1259078 C207.866574,40.0026834 207.964093,39.9283576 208.263616,39.9283576 C208.63976,39.9283576 208.944258,39.880437 209.167159,39.8286046 C209.666695,39.7308075 209.815959,39.3151698 209.891585,38.6022289 C209.99607,37.7407994 210.013484,36.2484428 210.016387,34.3951198 L210.016258,26.6890958 C210.014043,24.8390945 210.004905,24.2997286 209.967212,23.7047963 C209.916463,22.870587 209.666695,22.4500594 209.118399,22.3268351 C208.840769,22.2534873 208.513384,22.229038 208.216846,22.229038 C207.964093,22.229038 207.815824,22.1811174 207.815824,21.9845452 C207.815824,21.8368716 208.017828,21.7879731 208.41686,21.7879731 C209.367172,21.7879731 210.941407,21.8593649 211.667824,21.8593649 C212.293737,21.8593649 213.769457,21.7879731 214.718775,21.7879731 Z M107.683043,22.6240405 C104.805239,22.6240405 101.528402,24.193684 101.528402,30.3187165 C101.528402,35.4295931 104.405212,39.484261 109.208519,39.484261 C110.960875,39.484261 115.012888,38.6480957 115.012888,31.5460702 C115.012888,26.0381373 111.784811,22.6240405 107.683043,22.6240405 Z M36.9607909,6 L42.4616571,6.00586783 L40.1162263,34.5195911 C40.1003048,34.6975818 39.9361147,34.7024716 39.9221834,34.5195911 L39.9221834,34.5195911 L36.9607909,6 Z M149.789448,26.2830213 C149.713821,26.2830213 149.664066,26.4062456 149.637199,26.5079546 L147.338537,32.5537715 C147.31167,32.6515686 147.338537,32.7239385 147.438046,32.7239385 L152.04134,32.7239385 C152.165726,32.7239385 152.190604,32.6515686 152.165726,32.5791987 L149.915824,26.5079546 C149.888957,26.4062456 149.865075,26.2830213 149.789448,26.2830213 Z M171.21566,22.9439348 C170.590742,22.9439348 170.140961,22.9644722 169.890198,23.039776 C169.717052,23.0916084 169.668293,23.1884276 169.668293,23.3859777 L169.668293,30.8557204 C169.668293,31.1285743 169.717052,31.2263714 169.890198,31.2987413 C170.416601,31.4728201 171.168891,31.546168 171.792813,31.546168 C172.79089,31.546168 173.11927,31.444459 173.569051,31.1285743 C174.316365,30.5877563 175.042782,29.4581998 175.042782,27.4406456 C175.042782,23.9483111 172.695361,22.9439348 171.21566,22.9439348 Z" id="Combined-Shape"></path>
        </g>
    </g>
</svg>