<?xml version="1.0" encoding="UTF-8"?>
<svg width="256px" height="60px" viewBox="0 0 256 60" version="1.1" xmlns="http://www.w3.org/2000/svg" xmlns:xlink="http://www.w3.org/1999/xlink">
    <!-- Generator: Sketch 61.2 (89653) - https://sketch.com -->
    <title>logo_mayday</title>
    <desc>Created with Sketch.</desc>
    <g id="03-what-we-do-(SRC)" stroke="none" stroke-width="1" fill="none" fill-rule="evenodd">
        <g id="Group-2" fill="#FFFFFF" fill-rule="nonzero">
            <path d="M89.9768918,13.7829799 C89.995783,13.6135287 90.061901,13.4676146 90.1752485,13.3452331 C90.2885954,13.2228517 90.4491685,13.1616618 90.6569718,13.1616618 L95.5592157,13.1616618 C95.908703,13.1616618 96.1353941,13.3405244 96.2392957,13.6982548 L100.093083,26.5200009 L103.975207,13.6982548 C104.107446,13.3405244 104.348305,13.1616618 104.697792,13.1616618 L109.543363,13.1616618 C109.713384,13.1616618 109.866873,13.2204982 110.003834,13.3381727 C110.140795,13.4558471 110.218721,13.6041148 110.237612,13.7829799 C110.568208,17.096693 110.905883,20.3844684 111.250648,23.6464047 C111.595412,26.908341 111.933087,30.1961164 112.263684,33.5098294 L112.263684,33.5804338 C112.263684,33.9475781 112.055883,34.1311475 111.640277,34.1311475 L107.630638,34.1311475 C107.19614,34.1311475 106.969449,33.9240436 106.950558,33.5098294 L105.717913,22.5944002 L102.530037,33.5804338 C102.511146,33.6745734 102.442666,33.7875391 102.324596,33.9193346 C102.206526,34.05113 102.090819,34.1170267 101.977472,34.1170267 L98.2512,34.1170267 C98.1378525,34.1170267 98.017423,34.0534834 97.8899069,33.926395 C97.7623915,33.7993066 97.6939121,33.6839873 97.6844662,33.5804338 L94.4965908,22.6226419 L93.2639456,33.5098294 C93.2450544,33.9240436 93.0136407,34.1311475 92.569697,34.1311475 L88.5600584,34.1311475 C88.153897,34.1311475 87.9508197,33.9240436 87.9508197,33.5098294 L89.9768918,13.7829799 Z M124.662786,13.7123756 C124.672231,13.6558919 124.702929,13.594702 124.75488,13.5288043 C124.806831,13.4629067 124.870588,13.4017169 124.946153,13.3452331 C125.021717,13.2887494 125.102004,13.2440337 125.187014,13.2110849 C125.272025,13.178136 125.352311,13.1616618 125.427876,13.1616618 L129.05497,13.1616618 C129.215546,13.1616618 129.352505,13.2110844 129.465852,13.309931 C129.579199,13.4087775 129.664209,13.4958553 129.720882,13.571167 L130.07509,14.3760563 L137.513466,33.4957086 C137.589031,33.6839877 137.574863,33.8369622 137.470961,33.9546367 C137.36706,34.0723112 137.187596,34.1311475 136.932565,34.1311475 L132.866252,34.1311475 C132.649003,34.1311475 132.481346,34.0911388 132.363277,34.0111202 C132.245207,33.9311016 132.153113,33.7969547 132.086994,33.6086755 C131.898082,33.1285637 131.713895,32.6508125 131.534429,32.1754076 C131.354963,31.7000028 131.175498,31.2222516 130.996032,30.7421397 L123.472646,30.7421397 C123.29318,31.2222516 123.111354,31.7000028 122.927165,32.1754076 C122.742976,32.6508125 122.561151,33.1285637 122.381684,33.6086755 C122.258891,33.9569919 122.018032,34.1311475 121.659099,34.1311475 L117.47944,34.1311475 C117.299973,34.1311475 117.151207,34.0840785 117.033137,33.9899389 C116.915068,33.8957993 116.893815,33.7545921 116.96938,33.5663129 L124.662786,13.7123756 Z M127.241423,19.7561062 C127.061957,20.236218 126.880132,20.7539779 126.695942,21.3094014 C126.511753,21.8648249 126.329928,22.424947 126.150462,22.9897845 C125.970995,23.5546219 125.78917,24.1123905 125.60498,24.663107 C125.420791,25.2138235 125.238966,25.72923 125.0595,26.2093418 L129.409178,26.2093418 L127.241423,19.7561062 Z M147.900666,20.8998963 L151.329403,13.5994087 C151.386076,13.4864412 151.433304,13.4040703 151.471086,13.3522935 C151.508868,13.3005168 151.54665,13.2628615 151.584433,13.2393266 C151.622215,13.2157917 151.662358,13.201671 151.704864,13.196964 C151.747369,13.192257 151.796957,13.1804898 151.853631,13.1616618 L157.30844,13.1616618 C157.374559,13.1616618 157.428871,13.182843 157.471376,13.2252058 C157.513881,13.2675685 157.535134,13.3169911 157.535134,13.3734748 C157.535134,13.4770284 157.469015,13.594701 157.336777,13.7264965 L150.620986,25.5739029 L150.620986,33.4674668 C150.620986,33.9099229 150.40374,34.1311475 149.969242,34.1311475 L145.718742,34.1311475 C145.52983,34.1311475 145.383425,34.0723112 145.279523,33.9546367 C145.175622,33.8369622 145.123671,33.6745739 145.123671,33.4674668 L145.123671,25.5456611 L138.422049,13.7264965 C138.299256,13.604115 138.23786,13.4864423 138.23786,13.3734748 C138.23786,13.3169911 138.256751,13.2675685 138.294534,13.2252058 C138.332316,13.182843 138.384266,13.1616618 138.450386,13.1616618 L143.905195,13.1616618 C143.971314,13.1804898 144.023264,13.192257 144.061047,13.196964 C144.098829,13.201671 144.13661,13.2157917 144.174393,13.2393266 C144.212176,13.2628615 144.249957,13.3005168 144.28774,13.3522935 C144.325522,13.4040703 144.377472,13.4864412 144.443591,13.5994087 L147.900666,20.8998963 Z M180.999706,23.667586 C180.999706,24.6654655 180.872192,25.6139075 180.617161,26.5129405 C180.36213,27.4119734 179.998479,28.2498031 179.526199,29.0264546 C179.053919,29.803106 178.489553,30.5067889 177.833083,31.137524 C177.176614,31.7682591 176.449313,32.3048467 175.651159,32.7473027 C174.853006,33.1897587 173.991108,33.5310096 173.065438,33.7710654 C172.139769,34.0111214 171.181054,34.1311475 170.189266,34.1311475 L163.204277,34.1311475 C163.034256,34.1311475 162.883129,34.0934923 162.75089,34.0181806 C162.618651,33.942869 162.552533,33.7828341 162.552533,33.5380711 L162.552533,13.8112217 C162.552533,13.6135286 162.606845,13.4534937 162.715469,13.3311123 C162.824093,13.2087308 162.987028,13.147541 163.204277,13.147541 L170.189266,13.147541 C171.181054,13.147541 172.137407,13.2699206 173.058354,13.5146835 C173.9793,13.7594464 174.838837,14.1077576 175.636991,14.5596275 C176.435145,15.0114975 177.164807,15.552792 177.825999,16.1835271 C178.487191,16.8142623 179.051557,17.5202985 179.519115,18.301657 C179.986672,19.0830155 180.350323,19.9255521 180.610077,20.829292 C180.869831,21.7330319 180.999706,22.6791205 180.999706,23.667586 Z M168.035679,18.2169318 L168.035679,29.0758776 L169.225819,29.0758776 C169.443068,29.0758776 169.655591,29.0688172 169.863394,29.0546963 C170.071197,29.0405753 170.278998,29.0241012 170.486801,29.0052732 C171.195222,28.9487895 171.856404,28.7769873 172.470368,28.4898616 C173.084332,28.2027359 173.620363,27.8261833 174.078474,27.3601924 C174.536586,26.8942015 174.895513,26.3458467 175.155268,25.7151115 C175.415022,25.0843764 175.544897,24.3971678 175.544897,23.6534651 C175.544897,22.8626927 175.39613,22.1354753 175.098594,21.4717913 C174.801058,20.8081073 174.397264,20.2338645 173.887201,19.7490458 C173.377139,19.264227 172.779713,18.8876743 172.094907,18.6193765 C171.410101,18.3510787 170.680439,18.2169318 169.905899,18.2169318 L168.035679,18.2169318 Z M192.121245,13.7123756 C192.13069,13.6558919 192.161388,13.594702 192.213338,13.5288043 C192.265289,13.4629067 192.329047,13.4017169 192.404611,13.3452331 C192.480176,13.2887494 192.560462,13.2440337 192.645473,13.2110849 C192.730483,13.178136 192.81077,13.1616618 192.886334,13.1616618 L196.513428,13.1616618 C196.674004,13.1616618 196.810963,13.2110844 196.92431,13.309931 C197.037658,13.4087775 197.122667,13.4958553 197.17934,13.571167 L197.533549,14.3760563 L204.971925,33.4957086 C205.04749,33.6839877 205.033321,33.8369622 204.92942,33.9546367 C204.825518,34.0723112 204.646054,34.1311475 204.391023,34.1311475 L200.324711,34.1311475 C200.107462,34.1311475 199.939805,34.0911388 199.821735,34.0111202 C199.703665,33.9311016 199.611572,33.7969547 199.545452,33.6086755 C199.35654,33.1285637 199.172353,32.6508125 198.992887,32.1754076 C198.813421,31.7000028 198.633957,31.2222516 198.45449,30.7421397 L190.931104,30.7421397 C190.751638,31.2222516 190.569812,31.7000028 190.385624,32.1754076 C190.201434,32.6508125 190.019609,33.1285637 189.840142,33.6086755 C189.71735,33.9569919 189.47649,34.1311475 189.117557,34.1311475 L184.937898,34.1311475 C184.758431,34.1311475 184.609666,34.0840785 184.491595,33.9899389 C184.373526,33.8957993 184.352273,33.7545921 184.427838,33.5663129 L192.121245,13.7123756 Z M194.70979,19.7561062 C194.530323,20.236218 194.348498,20.7539779 194.164309,21.3094014 C193.980119,21.8648249 193.798294,22.424947 193.618828,22.9897845 C193.439361,23.5546219 193.257536,24.1123905 193.073347,24.663107 C192.889157,25.2138235 192.707332,25.72923 192.527866,26.2093418 L196.877545,26.2093418 L194.70979,19.7561062 Z M215.108702,20.8998963 L218.537439,13.5994087 C218.594113,13.4864412 218.64134,13.4040703 218.679123,13.3522935 C218.716905,13.3005168 218.754687,13.2628615 218.792469,13.2393266 C218.830251,13.2157917 218.870395,13.201671 218.9129,13.196964 C218.955405,13.192257 219.004994,13.1804898 219.061668,13.1616618 L224.516477,13.1616618 C224.582596,13.1616618 224.636908,13.182843 224.679412,13.2252058 C224.721918,13.2675685 224.74317,13.3169911 224.74317,13.3734748 C224.74317,13.4770284 224.677052,13.594701 224.544813,13.7264965 L217.829022,25.5739029 L217.829022,33.4674668 C217.829022,33.9099229 217.611776,34.1311475 217.177279,34.1311475 L212.926778,34.1311475 C212.737866,34.1311475 212.591461,34.0723112 212.487559,33.9546367 C212.383658,33.8369622 212.331708,33.6745739 212.331708,33.4674668 L212.331708,25.5456611 L205.630085,13.7264965 C205.507292,13.604115 205.445897,13.4864423 205.445897,13.3734748 C205.445897,13.3169911 205.464788,13.2675685 205.50257,13.2252058 C205.540353,13.182843 205.592303,13.1616618 205.658422,13.1616618 L211.113231,13.1616618 C211.17935,13.1804898 211.2313,13.192257 211.269083,13.196964 C211.306865,13.201671 211.344647,13.2157917 211.38243,13.2393266 C211.420212,13.2628615 211.457993,13.3005168 211.495776,13.3522935 C211.533559,13.4040703 211.585509,13.4864412 211.651628,13.5994087 L215.108702,20.8998963 Z M35.9906432,35.1415672 C35.9366557,34.9151332 35.8759167,34.6177132 35.808426,34.2493073 C35.8012847,34.210326 35.7976921,34.1707776 35.7976921,34.1311475 C35.7976921,33.7690018 36.0912692,33.4754247 36.4534149,33.4754247 L40.477234,33.4754098 C40.7788986,33.4754098 41.0416426,33.6812233 41.1138816,33.9741106 L41.1138925,33.9741079 C41.2171584,34.3927906 41.307795,34.7213304 41.3858026,34.9597272 C41.5966893,35.6042124 41.8593414,36.2374209 42.1744278,36.8533351 C42.792358,38.0612323 43.5988976,39.1722631 44.579869,40.1542313 L53.852459,49.4362433 L63.125049,40.1542313 C68.2479345,35.0261405 68.2479345,26.71076 63.125049,21.5826691 C62.3123814,20.7691757 61.4111251,20.0753818 60.4389401,19.509277 C59.6106506,19.0269628 58.7357418,18.6404321 57.8308066,18.3530149 C57.6220586,18.2867142 57.3366306,18.2090294 56.9745224,18.1199606 C56.6814346,18.0478688 56.475411,17.7850279 56.475411,17.483204 L56.4754098,13.4608478 C56.4754098,13.4207003 56.4790969,13.3806376 56.4864246,13.3411645 C56.5525239,12.9850979 56.8947569,12.750033 57.2508235,12.8161323 L57.2508248,12.816125 C57.6679963,12.8935676 58.0020243,12.9631746 58.2529089,13.0249458 C59.936998,13.4395915 61.5628459,14.0932551 63.0787071,14.9759433 C64.4413832,15.7694317 65.7029553,16.7405995 66.8363448,17.8751406 C74.0053714,25.0514517 74.0053714,36.6854487 66.8363448,43.8617599 L55.7081069,55.0013052 C54.6835658,56.0268873 53.0213522,56.0268873 51.9968111,55.0013052 L40.8685732,43.8617599 C39.5000016,42.4917976 38.3703399,40.9356569 37.5041736,39.2425212 C36.82864,37.9220238 36.3252505,36.5449769 35.9906432,35.1415672 Z M41.1224311,27.7315637 C41.0499096,28.0240854 40.7873361,28.2295111 40.4859587,28.2295111 L36.4613454,28.2295111 C36.4213889,28.2295111 36.3815159,28.2258562 36.342224,28.2185978 C35.9860912,28.1528088 35.750721,27.8107736 35.81651,27.4546408 L35.8165181,27.4546423 C35.8849224,27.0843521 35.9462746,26.7861152 36.0005746,26.5599317 C36.7784035,23.3199351 38.4338641,20.3123237 40.8685732,17.8751406 C43.3905032,15.3506481 46.5241512,13.6627974 49.8941615,12.9212448 C50.0430731,12.8884776 50.2306339,12.8515968 50.4568438,12.8106024 C50.4954268,12.8036102 50.5345591,12.800093 50.5737705,12.800093 C50.9359138,12.800093 51.2295082,13.0936682 51.2295082,13.4558115 L51.2295082,17.4827252 C51.2295082,17.7844933 51.023557,18.0472997 50.7305389,18.1194407 L50.730541,18.1194495 C50.3622998,18.2101105 50.072417,18.289178 49.8608928,18.3566521 C47.9000194,18.9821506 46.0888791,20.0721256 44.579869,21.5826691 C43.0915899,23.0724605 42.0117946,24.8566462 41.382676,26.7888399 C41.3085517,27.0164954 41.2218035,27.3307367 41.1224311,27.7315637 Z M53.852459,38.7213115 C49.5066118,38.7213115 45.9836066,35.1983062 45.9836066,30.852459 C45.9836066,26.5066118 49.5066118,22.9836066 53.852459,22.9836066 C58.1983062,22.9836066 61.7213115,26.5066118 61.7213115,30.852459 C61.7213115,35.1983062 58.1983062,38.7213115 53.852459,38.7213115 Z M53.852459,33.4754098 C55.3010748,33.4754098 56.4754098,32.3010748 56.4754098,30.852459 C56.4754098,29.4038433 55.3010748,28.2295082 53.852459,28.2295082 C52.4038433,28.2295082 51.2295082,29.4038433 51.2295082,30.852459 C51.2295082,32.3010748 52.4038433,33.4754098 53.852459,33.4754098 Z M30.5666555,26.9518009 C30.5370039,27.130132 30.5024993,27.3664323 30.4631419,27.6607018 C30.4195852,27.986369 30.1417372,28.2295299 29.8131702,28.2295299 L25.8466321,28.2295299 C25.8221986,28.2295299 25.7977841,28.2281426 25.773503,28.2254177 C25.4136077,28.1850296 25.1545958,27.8605358 25.1949849,27.5006405 C25.2206512,27.2719292 25.2436173,27.0829527 25.263883,26.9337109 C26.9923787,14.2046576 37.0223958,4.11391554 49.7219861,2.29343305 C49.9205443,2.26496984 50.1798454,2.23259311 50.4998894,2.19630289 C50.5244182,2.19352157 50.5490845,2.19212754 50.5737705,2.19212754 C50.9359225,2.19212754 51.2295082,2.48570977 51.2295082,2.84786525 L51.2295082,6.81429436 C51.2295082,7.14244118 50.9869369,7.42006262 50.6617562,7.46408334 L50.6617591,7.46410492 C50.2849151,7.51511941 49.986071,7.55990092 49.7652268,7.59844931 C39.9412123,9.31323436 32.2044854,17.1015547 30.5666555,26.9518009 Z M88.0404715,50.9139344 C87.9072741,50.8319668 87.8406761,50.7243859 87.8406761,50.5911885 C87.8406761,50.5092209 87.8688525,50.4170087 87.9252046,50.3145492 L88.8319672,48.6854508 C88.9139351,48.5420075 89.0292,48.4702869 89.1777666,48.4702869 C89.2494879,48.4702869 89.3340157,48.4907785 89.4313521,48.5317623 C89.9385272,48.7622963 90.4277639,48.9428784 90.899078,49.0735144 C91.3703915,49.2041502 91.8673128,49.2694672 92.3898564,49.2694672 C92.7792026,49.2694672 93.1083489,49.1939045 93.3773056,49.0427767 C93.6462616,48.8916489 93.7807377,48.6880136 93.7807377,48.4318647 C93.7807377,48.2423146 93.7051751,48.0809433 93.5540472,47.9477459 C93.4029193,47.8145485 93.1877574,47.6941604 92.9085554,47.5865778 C92.6293528,47.4789953 92.2361705,47.3509229 91.7289961,47.2023565 C90.9349344,46.9666997 90.2894492,46.7143969 89.7925207,46.4454406 C89.2955915,46.1764843 88.9152164,45.8345308 88.651383,45.4195696 C88.3875502,45.0046086 88.2556354,44.4820729 88.2556354,43.8519467 C88.2556354,43.13473 88.4451823,42.5174206 88.8242826,42 C89.203383,41.4825794 89.7079889,41.0919583 90.3381148,40.828125 C90.9682407,40.5642917 91.6521482,40.432377 92.3898564,40.432377 C92.8560472,40.432377 93.3260734,40.4861675 93.7999489,40.59375 C94.2738243,40.7013325 94.7054282,40.8370893 95.0947744,41.0010246 C95.4841207,41.1649598 95.8017403,41.3288926 96.0476433,41.4928279 C96.2013325,41.5952874 96.2781764,41.7105527 96.2781764,41.838627 C96.2781764,41.9154717 96.2448774,42.0128068 96.1782787,42.1306352 L95.2638321,43.7904713 C95.1921102,43.9236687 95.0870911,43.9902664 94.9487705,43.9902664 C94.8565567,43.9902664 94.7438531,43.9569675 94.6106557,43.8903689 C94.1803259,43.6700809 93.7845816,43.5023059 93.4234118,43.387039 C93.062242,43.2717719 92.6536905,43.2141393 92.1977456,43.2141393 C91.8749987,43.2141393 91.5958007,43.2832985 91.3601436,43.4216188 C91.1244866,43.5599392 91.0066597,43.7341178 91.0066597,43.9441598 C91.0066597,44.1695708 91.1577856,44.3629603 91.4600407,44.524334 C91.7622964,44.6857078 92.2489718,44.8637285 92.920082,45.0584016 C93.7500039,45.3043045 94.4211043,45.5514844 94.9334013,45.7999488 C95.445699,46.0484131 95.8580925,46.3865245 96.1705941,46.814293 C96.4830957,47.2420616 96.6393443,47.7966155 96.6393443,48.4779713 C96.6393443,49.200311 96.4472354,49.8317084 96.0630125,50.3721824 C95.6787889,50.9126564 95.1562531,51.3263306 94.4953895,51.6132172 C93.8345252,51.9001039 93.1045121,52.043545 92.3053279,52.043545 C91.5573731,52.043545 90.8094302,51.94621 90.0614754,51.7515369 C89.3135207,51.5568638 88.6398597,51.2776658 88.0404715,50.9139344 Z M112.009251,51.3980532 C112.034866,51.464652 112.047673,51.5235653 112.047673,51.5747951 C112.047673,51.6567627 112.018216,51.7233604 111.959302,51.7745902 C111.900388,51.8258199 111.817141,51.8514344 111.709558,51.8514344 L109.527181,51.8514344 C109.419599,51.8514344 109.320983,51.8168549 109.231331,51.7476947 C109.141679,51.6785345 109.076362,51.5901645 109.035378,51.482582 L108.528206,50.0071721 L104.632202,50.0071721 L104.132714,51.4748975 C104.101976,51.5824801 104.040502,51.67085 103.948288,51.7400102 C103.856074,51.8091704 103.751055,51.84375 103.633226,51.84375 L101.458534,51.84375 C101.350951,51.84375 101.267704,51.8194162 101.20879,51.7707479 C101.149875,51.7220797 101.120419,51.6542012 101.120419,51.5671106 C101.120419,51.5158809 101.133226,51.4569675 101.158841,51.3903689 L105.262325,40.9779713 C105.313555,40.8601429 105.386556,40.7679307 105.481331,40.7013319 C105.576106,40.6347332 105.677283,40.6014344 105.784866,40.6014344 L107.406279,40.6014344 C107.513862,40.6014344 107.615039,40.636014 107.709814,40.7051742 C107.80459,40.7743344 107.872468,40.8652658 107.913452,40.9779713 L112.009251,51.3980532 Z M107.73671,47.6864754 L106.576361,44.2822746 L105.416013,47.6864754 L107.73671,47.6864754 Z M117.312559,41.0163934 C117.312559,40.8831961 117.34842,40.7820188 117.420141,40.7128586 C117.491863,40.6436984 117.591759,40.6091188 117.719834,40.6091188 L124.681924,40.6091188 C124.815121,40.6091188 124.91758,40.6449791 124.989301,40.7167008 C125.061023,40.7884225 125.096883,40.888319 125.096883,41.0163934 L125.096883,42.8145492 C125.096883,42.9426236 125.061023,43.0425201 124.989301,43.1142418 C124.91758,43.1859635 124.815121,43.2218237 124.681924,43.2218237 L120.10969,43.2218237 L120.10969,45.7192623 L123.659895,45.7192623 C123.793093,45.7192623 123.895551,45.7551226 123.967272,45.8268443 C124.038994,45.8985659 124.074854,45.9984625 124.074854,46.1265369 L124.074854,47.5865778 C124.074854,47.7146523 124.038994,47.8145489 123.967272,47.8862705 C123.895551,47.9579921 123.793093,47.9938525 123.659895,47.9938525 L120.10969,47.9938525 L120.10969,51.428791 C120.10969,51.5568654 120.07383,51.656762 120.002108,51.7284836 C119.930387,51.8002052 119.83049,51.8360656 119.702416,51.8360656 L117.719834,51.8360656 C117.591759,51.8360656 117.491863,51.8002052 117.420141,51.7284836 C117.34842,51.656762 117.312559,51.5568654 117.312559,51.428791 L117.312559,41.0163934 Z M130.584618,41.0163934 C130.584618,40.888319 130.620478,40.7884225 130.692199,40.7167008 C130.763921,40.6449791 130.863818,40.6091188 130.991892,40.6091188 L138.222937,40.6091188 C138.351012,40.6091188 138.450908,40.6449791 138.52263,40.7167008 C138.594351,40.7884225 138.630212,40.888319 138.630212,41.0163934 L138.630212,42.7838115 C138.630212,42.9118859 138.595632,43.0117824 138.526472,43.0835041 C138.457312,43.1552258 138.356135,43.191086 138.222937,43.191086 L133.343327,43.191086 L133.343327,45.0507172 L137.04722,45.0507172 C137.18554,45.0507172 137.294402,45.0878582 137.373809,45.1621414 C137.453214,45.2364245 137.492917,45.3401633 137.492917,45.4733607 L137.492917,46.9334016 C137.492917,47.0614761 137.453214,47.1613726 137.373809,47.2330942 C137.294402,47.3048159 137.18554,47.3406762 137.04722,47.3406762 L133.343327,47.3406762 L133.343327,49.2540984 L138.222937,49.2540984 C138.397119,49.2540984 138.534156,49.3014852 138.634054,49.3962603 C138.733952,49.4910353 138.7839,49.6178271 138.7839,49.7766393 L138.7839,51.4364754 C138.7839,51.5594268 138.746759,51.656762 138.672476,51.7284836 C138.598193,51.8002052 138.497016,51.8360656 138.368942,51.8360656 L130.991892,51.8360656 C130.863818,51.8360656 130.763921,51.801486 130.692199,51.7323258 C130.620478,51.6631656 130.584618,51.5645498 130.584618,51.4364754 L130.584618,41.0163934 Z M143.948889,41.0163934 C143.948889,40.888319 143.98475,40.7884225 144.056471,40.7167008 C144.128193,40.6449791 144.228089,40.6091188 144.356164,40.6091188 L151.856164,40.6091188 C151.984238,40.6091188 152.084134,40.6449791 152.155856,40.7167008 C152.227578,40.7884225 152.263438,40.888319 152.263438,41.0163934 L152.263438,42.8683401 C152.263438,42.9964146 152.227578,43.0975919 152.155856,43.171875 C152.084134,43.2461582 151.984238,43.2832991 151.856164,43.2832991 L149.497045,43.2832991 L149.497045,51.5286885 C149.497045,51.6618859 149.461185,51.7630631 149.389463,51.8322233 C149.317741,51.9013835 149.215283,51.9359631 149.082086,51.9359631 L147.114873,51.9359631 C146.986799,51.9359631 146.886902,51.9001028 146.81518,51.8283811 C146.743458,51.7566598 146.707598,51.656763 146.707598,51.5286885 L146.707598,43.2832991 L144.356164,43.2832991 C144.228089,43.2832991 144.128193,43.2461582 144.056471,43.171875 C143.98475,43.0975919 143.948889,42.9964146 143.948889,42.8683401 L143.948889,41.0163934 Z M166.749636,40.6091188 C166.975047,40.6091188 167.087751,40.6962081 167.087751,40.8703893 C167.087751,40.931865 167.072382,41.0010242 167.041644,41.0778689 L163.376173,47.5481557 L163.376173,51.4364754 C163.376173,51.5645498 163.342874,51.6644464 163.276275,51.736168 C163.209677,51.8078897 163.112341,51.84375 162.984267,51.84375 L161.001685,51.84375 C160.873611,51.84375 160.773714,51.8078897 160.701993,51.736168 C160.630271,51.6644464 160.59441,51.5645498 160.59441,51.4364754 L160.59441,47.5327869 L156.936624,41.0778689 C156.900763,40.9856553 156.882833,40.9164961 156.882833,40.8703893 C156.882833,40.7884217 156.912289,40.7243855 156.971204,40.6782787 C157.030118,40.6321719 157.113365,40.6091188 157.220948,40.6091188 L159.53396,40.6091188 C159.631296,40.6091188 159.72479,40.6424177 159.814441,40.7090164 C159.904094,40.7756151 159.977095,40.8652658 160.033447,40.9779713 L161.985292,44.6664959 L163.937136,40.9702869 C163.993489,40.8575814 164.06649,40.7692114 164.156142,40.7051742 C164.245794,40.641137 164.341849,40.6091188 164.444308,40.6091188 L166.749636,40.6091188 Z" id="Shape"></path>
        </g>
    </g>
</svg>