<svg xmlns="http://www.w3.org/2000/svg" viewBox="0 0 256 36" width="256" height="36">
	<style>
		tspan { white-space:pre }
		.shp0 { fill: #ffffff } 
	</style>
	<path fill-rule="evenodd" class="shp0" d="M69.44 17.11C69.45 17.11 69.46 17.1 69.47 17.09C69.47 17.09 69.47 17.09 69.46 17.09L69.44 17.11ZM74.45 24.97L74.37 24.97L74.4 24.97C74.4 30.7 69.81 35.37 64.16 35.37L52.6 35.37L46.45 35.37L46.45 0.76L52.6 0.76L63.36 0.75C68.82 0.75 73.25 5.36 73.25 10.77L73.27 10.68C73.27 11.33 73.18 11.99 73.01 12.62C72.84 13.25 72.58 13.86 72.24 14.43C71.91 14.99 71.5 15.51 71.02 15.96C70.56 16.41 70.04 16.79 69.47 17.09C72.41 18.46 74.45 21.47 74.45 24.97ZM64.23 29.11C66.49 29.11 68.33 27.25 68.33 24.96C68.33 22.66 66.5 20.81 64.23 20.81L54.66 20.81L54.66 14.51L63.42 14.51L63.44 14.52C65.51 14.52 67.19 12.81 67.19 10.71C67.19 8.61 65.51 6.9 63.44 6.9L52.55 6.9L52.55 29.11L64.23 29.11L64.23 29.11ZM101.99 35.33L101.99 24.22L88.3 24.22L88.3 17.99L101.98 17.99L101.98 14.21C101.98 9.81 98.47 6.24 94.14 6.24C89.8 6.24 86.29 9.81 86.29 14.21L86.31 35.33L80.23 35.34L80.17 14.21C80.17 6.37 86.43 0.02 94.16 0.02C101.88 0.02 108.14 6.37 108.14 14.21L108.15 35.34L101.99 35.33ZM137.68 17.11C137.69 17.11 137.7 17.1 137.71 17.09C137.71 17.09 137.71 17.09 137.7 17.09L137.68 17.11ZM142.69 24.97L142.7 35.33L136.56 35.33L136.57 24.96C136.57 22.66 134.73 20.81 132.47 20.81L122.9 20.81L122.9 14.51L131.66 14.51L131.68 14.52C133.75 14.52 135.43 12.81 135.43 10.71C135.43 8.61 133.75 6.9 131.68 6.9L120.79 6.9L120.82 35.37L114.7 35.37L114.7 0.76L120.84 0.76L131.6 0.75C137.06 0.75 141.49 5.36 141.49 10.77L141.51 10.68C141.51 11.33 141.42 11.99 141.25 12.62C141.08 13.25 140.82 13.86 140.48 14.43C140.15 14.99 139.74 15.51 139.26 15.96C138.8 16.4 138.28 16.79 137.71 17.09C140.65 18.46 142.69 21.47 142.69 24.97ZM146 18.03C146 8.47 153.64 0.72 163.06 0.72L173.23 0.72L173.21 6.92L163.04 6.92C157.01 6.92 152.12 11.88 152.12 18C152.12 24.12 157.01 29.08 163.04 29.08L173.21 29.08L173.23 35.34L163.06 35.34C153.64 35.34 146 27.59 146 18.03ZM193.25 0C200.8 0 207.24 4.78 209.81 11.52L209.79 11.47C210.48 13.29 212.22 14.59 214.25 14.59L214.35 14.57L219.55 14.57L219.55 21.5L214.35 21.5L214.22 21.51C213.75 21.51 213.28 21.58 212.82 21.72C212.37 21.86 211.94 22.06 211.54 22.33C211.15 22.6 210.8 22.92 210.5 23.29C210.21 23.66 209.97 24.08 209.79 24.52L209.81 24.47C207.25 31.22 200.8 36 193.25 36C185.77 36 179.37 31.3 176.74 24.59C176.01 22.75 174.29 21.49 172.28 21.49L166.71 21.5L166.71 14.57L172.26 14.58C174.31 14.58 176.05 13.28 176.73 11.43C179.32 4.74 185.74 0 193.25 0ZM193.18 29.76C199.59 29.76 204.78 24.49 204.78 17.99C204.78 11.49 199.59 6.22 193.18 6.22C186.78 6.22 181.58 11.49 181.58 17.99C181.58 24.49 186.78 29.76 193.18 29.76ZM186.36 17.99C186.36 14.17 189.42 11.07 193.18 11.07C196.95 11.07 200.01 14.17 200.01 17.99C200.01 21.81 196.95 24.91 193.18 24.91C189.42 24.91 186.36 21.82 186.36 17.99Z" />
</svg>