<?xml version="1.0" encoding="UTF-8"?>
<svg width="256px" height="126px" viewBox="0 0 256 126" version="1.1" xmlns="http://www.w3.org/2000/svg" xmlns:xlink="http://www.w3.org/1999/xlink">
    <!-- Generator: Sketch 61.2 (89653) - https://sketch.com -->
    <title>logo_fitnessbank</title>
    <desc>Created with Sketch.</desc>
    <g id="03-what-we-do-(SRC)" stroke="none" stroke-width="1" fill="none" fill-rule="evenodd">
        <g id="Group" fill="#FFFFFF" fill-rule="nonzero">
            <path d="M129,5 C132.606549,5 136.17559,5.32450768 139.675682,5.96475411 C143.873093,6.73255606 146.65334,10.7576563 145.885538,14.955067 C145.117736,19.1524777 141.092636,21.9327251 136.895225,21.1649231 C134.311365,20.6922763 131.672918,20.4523809 129,20.4523809 C104.949314,20.4523809 85.4523809,39.9493141 85.4523809,64 C85.4523809,88.050686 104.949314,107.547619 129,107.547619 C153.050686,107.547619 172.547619,88.050686 172.547619,64 C172.547619,55.6011674 170.173527,47.5727724 165.765766,40.6496597 C163.474094,37.050213 164.534255,32.2745177 168.133702,29.9828459 C171.733149,27.6911741 176.508844,28.7513351 178.800516,32.3507818 C184.775737,41.7358473 188,52.6392415 188,64 C188,96.5848002 161.5848,123 129,123 C96.4151997,123 70,96.5848002 70,64 C70,31.4151997 96.4151997,5 129,5 Z M152.178571,33.797619 L148.803349,45.6952303 L126.236781,45.6952303 C123.999881,45.6952303 122.186515,47.4708109 122.186515,49.6611007 L122.186515,64.8000092 L127.921096,58.9147983 L147.108487,58.9147983 L147.108487,70.8124094 L122.186515,70.8124094 L122.186515,97.0119048 L110.035714,97.0119048 L110.035714,49.6611007 C110.035714,40.8999417 117.289179,33.797619 126.236781,33.797619 L152.178571,33.797619 Z M157.095238,14.1309524 C161.362295,14.1309524 164.821429,17.5900857 164.821429,21.8571428 C164.821429,26.1242001 161.362295,29.5833333 157.095238,29.5833333 C152.828181,29.5833333 149.369048,26.1242001 149.369048,21.8571428 C149.369048,17.5900857 152.828181,14.1309524 157.095238,14.1309524 Z" id="Shape"></path>
        </g>
    </g>
</svg>