<svg xmlns="http://www.w3.org/2000/svg" viewBox="0 0 256 68" width="256" height="68">
	<style>
		tspan { white-space:pre }
		.shp0 { fill: #ffffff } 
	</style>
	<path fill-rule="evenodd" class="shp0" d="M188.43 0.72L188.42 0.72C188.42 0.72 188.42 0.72 188.43 0.72L188.43 0.72ZM181.72 2.47C177.26 3.41 172.78 3.1 168.31 2.42C166.76 2.18 165.21 1.92 163.65 1.77C161.59 1.58 159.58 1.82 157.82 3.02C157.67 3.12 157.53 3.23 157.39 3.35C157.25 3.47 157.12 3.59 156.99 3.72C156.87 3.85 156.75 3.99 156.63 4.13C156.52 4.27 156.42 4.42 156.32 4.57C155.66 5.58 155.5 6.7 156.18 7.78C156.88 8.88 158.04 9.17 159.18 8.95C159.49 8.89 159.8 8.82 160.1 8.74C160.41 8.65 160.71 8.56 161.01 8.46C161.3 8.36 161.6 8.24 161.89 8.12C162.18 7.99 162.46 7.86 162.75 7.71C164 7.06 165.13 6.14 166.39 5.28C164.07 7.99 161.76 10.58 158.04 11.18C154.74 11.72 153.35 9.13 153.46 6.82C153.6 4.11 155.39 2.6 157.57 1.41C157.96 1.2 158.37 1.01 158.79 0.85C159.2 0.69 159.63 0.55 160.06 0.45C160.5 0.34 160.94 0.27 161.39 0.22C161.83 0.17 162.28 0.15 162.72 0.17C165.91 0.25 169.1 0.48 172.28 0.7C177.29 1.03 182.3 1.07 187.29 0.51C187.64 0.48 187.99 0.46 188.34 0.43L188.42 0.72C186.19 1.31 183.98 2 181.72 2.47ZM45.59 54.21C48.79 55.18 51.99 56.16 55.19 57.13C62.86 59.46 70.65 61.31 78.59 62.39C84.38 63.18 90.2 63.77 96.03 64.25C107.46 65.18 118.93 65.22 130.38 65.01C138.23 64.87 146.08 64.48 153.93 64.1C161.75 63.73 169.53 62.93 177.28 61.8C186.28 60.48 195.2 58.77 203.73 55.48C207.92 53.87 211.94 51.93 215.24 48.79C217.48 46.64 219.04 44.15 218.92 40.88C218.85 38.98 218.15 37.3 217.09 35.76C214.79 32.43 211.53 30.29 207.91 28.63C205.29 27.43 202.53 26.68 199.69 26.2C197.99 25.91 197.09 25.09 197.04 23.8C197.02 23.25 197.18 22.69 197.27 22.05C196.66 22.73 196.13 23.43 195.49 23.99C194.82 24.57 194.09 25.11 193.29 25.49C192.32 25.95 191.27 25.93 190.38 25.22C189.48 24.49 189.32 23.47 189.56 22.41C189.75 21.61 190.09 20.84 190.39 19.98C190.16 20.11 189.95 20.26 189.72 20.35C189.17 20.57 188.63 20.85 188.06 20.96C186.07 21.36 185.33 20.61 185.69 18.41C185.29 18.76 184.96 18.98 184.73 19.27C183.29 21.06 181.83 22.84 180.46 24.68C180.01 25.3 179.56 25.61 178.8 25.53C178.25 25.47 177.68 25.52 176.95 25.52C177.2 25.16 177.34 24.95 177.5 24.75C179.12 22.68 180.75 20.62 182.36 18.55C182.65 18.17 182.92 17.74 183.08 17.3C183.18 17.03 183.15 16.57 182.98 16.41C182.82 16.27 182.31 16.32 182.11 16.47C181.38 17.03 180.7 17.65 180.05 18.29C178.11 20.22 176.22 22.19 174.28 24.11C173.31 25.07 172.1 25.59 170.75 25.8C168.23 26.21 166.57 24.74 166.68 22.21C166.75 20.43 167.52 19 168.79 17.8C168.98 17.62 169.18 17.45 169.3 17.14C168.72 17.34 168.16 17.58 167.57 17.74C165.66 18.23 163.75 18.73 161.83 19.15C161.31 19.26 161.05 19.48 160.8 19.91C159.56 22.03 158.34 24.17 157 26.23C156.74 26.62 156.47 27 156.17 27.36C155.88 27.72 155.56 28.07 155.23 28.4C154.9 28.73 154.55 29.04 154.19 29.33C153.82 29.63 153.44 29.9 153.05 30.15C151.34 31.27 149.45 31.68 147.46 31.34C144.02 30.74 142.49 27.17 144.24 23.97C145.64 21.4 147.91 19.92 150.58 18.95C153.17 18.01 155.88 17.58 158.6 17.4C159.53 17.34 160.06 17.04 160.4 16.24C160.52 15.95 160.7 15.69 160.89 15.35C160.08 15.35 159.37 15.33 158.66 15.35C153.54 15.52 148.94 17.11 144.67 19.97C142.27 21.57 140.2 23.33 138.6 25.77C136.51 28.96 134.16 31.99 131.25 34.5C130.37 35.26 129.31 35.93 128.22 36.3C126.8 36.78 125.68 35.6 126.04 34.14C126.2 33.5 126.48 32.84 126.88 32.32C127.55 31.45 128.3 30.6 129.14 29.89C131.9 27.54 134.71 25.25 137.5 22.94C137.63 22.84 137.79 22.76 137.88 22.63C139.09 20.88 140.28 19.12 141.48 17.36L141.27 17.17C141.12 17.36 140.98 17.57 140.8 17.74C138.83 19.71 136.93 21.76 134.84 23.6C133.88 24.44 132.62 25.05 131.39 25.45C129.77 25.98 128.95 24.99 129.46 23.35C129.92 21.86 131.05 20.87 132.09 19.8C132.8 19.07 133.56 18.36 134.22 17.58C134.43 17.33 134.4 16.86 134.47 16.5C134.1 16.46 133.68 16.3 133.35 16.4C132.93 16.53 132.54 16.84 132.2 17.14C131.1 18.06 130.05 19.04 128.95 19.96C128.17 20.6 127.26 20.93 126.23 20.77C124.97 20.56 124.42 19.77 124.64 18.51L124.72 18.06L124.53 17.92C123.7 18.86 122.83 19.77 122.05 20.75C121.09 21.96 120.17 23.2 119.33 24.49C118.83 25.25 118.3 25.67 117.36 25.53C116.86 25.46 116.34 25.52 115.62 25.52C115.97 25.09 116.21 24.81 116.43 24.53C118.05 22.43 119.67 20.33 121.27 18.22C121.66 17.7 122.17 17.18 121.89 16.18C121.34 16.5 120.8 16.72 120.38 17.08C120.07 17.35 119.76 17.62 119.45 17.9C119.14 18.17 118.83 18.45 118.53 18.72C118.22 19 117.92 19.28 117.61 19.56C117.31 19.84 117.01 20.12 116.71 20.41C115.74 21.31 114.83 22.28 113.86 23.19C112.45 24.51 110.84 25.49 108.84 25.56C107.51 25.6 106.91 24.82 107.48 23.63C108.05 22.45 108.83 21.35 109.61 20.29C110.33 19.31 111.18 18.44 111.96 17.5C112.21 17.2 112.39 16.84 112.6 16.52L112.41 16.27C112.04 16.47 111.63 16.61 111.3 16.86C108.3 19.18 105.46 21.69 103.07 24.66C102.53 25.32 101.98 25.61 101.14 25.53C100.37 25.46 99.59 25.52 98.58 25.52C98.96 25.05 99.19 24.73 99.45 24.45C101.08 22.67 102.72 20.91 104.32 19.11C104.77 18.61 105.14 18.03 105.45 17.44C105.57 17.2 105.57 16.7 105.41 16.57C105.2 16.4 104.71 16.34 104.47 16.47C104.33 16.54 104.19 16.62 104.05 16.71C103.91 16.8 103.78 16.89 103.65 16.98C103.52 17.08 103.39 17.18 103.27 17.28C103.14 17.38 103.02 17.49 102.91 17.6C101.36 19.08 99.87 20.62 98.33 22.1C96.64 23.73 94.78 25.12 92.41 25.61C92.3 25.64 92.18 25.66 92.07 25.67C91.96 25.68 91.84 25.69 91.73 25.7C91.61 25.7 91.5 25.7 91.38 25.69C91.27 25.69 91.15 25.68 91.04 25.66C89.76 25.47 89.31 24.84 89.07 22.96C88.34 23.12 87.6 23.24 86.89 23.45C86.72 23.5 86.54 23.82 86.51 24.04C85.91 28.01 81.92 31.5 77.89 31.55C75.39 31.58 73.9 30.1 73.84 27.61C73.78 25.23 74.61 23.11 75.54 20.99C75.67 20.7 75.8 20.4 75.93 20.11C75.95 20.06 75.92 20 75.89 19.85C74.7 19.99 73.49 20.08 72.3 20.28C72.07 20.32 71.85 20.71 71.7 20.98C69.61 24.75 66.84 27.86 63.02 29.96C61.36 30.87 59.62 31.49 57.69 31.45C55.37 31.41 53.64 30.44 53 28.76C52.26 26.81 52.9 24.4 54.58 22.93C56.25 21.47 58.25 20.63 60.36 20.12C63.2 19.44 66.07 18.9 68.94 18.35C70.45 18.06 70.89 17.75 71.59 16.01C70.42 16.17 69.31 16.31 68.21 16.47C63.08 17.2 58.05 18.38 53.22 20.25C47.91 22.31 43.21 25.29 39.7 29.88C38.16 31.9 37.13 34.13 37.16 36.75C37.2 39.8 38.73 42.08 40.88 44.04C43.63 46.53 46.91 48.13 50.34 49.45C56.35 51.77 62.61 53.12 68.94 54.2C76.42 55.47 83.95 56.24 91.52 56.73C96.65 57.06 101.8 57.31 106.94 57.44C113.68 57.61 120.43 57.77 127.17 57.67C129.12 57.63 131.07 57.59 133.02 57.54C134.97 57.48 136.92 57.42 138.86 57.34C140.81 57.27 142.76 57.19 144.71 57.09C146.65 57 148.6 56.89 150.55 56.78C157.11 56.4 163.68 55.88 170.21 55.09C179.12 54 188 52.66 196.88 51.28C202.43 50.41 207.94 49.27 213.5 48.32C212.31 48.85 211.12 49.41 209.9 49.9C203.84 52.36 197.55 54.02 191.17 55.42C189.32 55.82 187.45 56.2 185.59 56.56C183.72 56.92 181.85 57.25 179.97 57.55C178.1 57.86 176.22 58.14 174.33 58.4C172.45 58.66 170.57 58.89 168.68 59.09C167.1 59.27 165.53 59.43 163.95 59.59C162.38 59.74 160.8 59.89 159.22 60.03C157.64 60.17 156.07 60.3 154.49 60.42C152.91 60.54 151.33 60.65 149.75 60.76C143.91 61.14 138.06 61.37 132.21 61.45C124.96 61.55 117.69 61.55 110.44 61.35C108.76 61.3 107.08 61.24 105.4 61.17C103.73 61.1 102.05 61.02 100.37 60.93C98.7 60.84 97.02 60.73 95.35 60.62C93.67 60.5 92 60.38 90.32 60.25C78.98 59.34 67.72 57.86 56.73 54.78C51.59 53.34 46.54 51.61 41.98 48.76C40.13 47.61 38.34 46.29 36.79 44.76C32.16 40.17 31.78 34.51 35.6 29.22C38.41 25.32 42.21 22.64 46.38 20.4C51.46 17.67 56.93 16.08 62.54 14.93C65.98 14.23 69.48 13.83 72.95 13.27C73.27 13.21 73.68 13 73.85 12.74C75.77 9.79 77.63 6.8 80.18 4.32C80.21 4.29 80.2 4.23 80.24 4.03C79.56 4.42 78.99 4.81 78.37 5.1C78.02 5.26 77.68 5.42 77.33 5.58C76.98 5.74 76.63 5.89 76.28 6.05C75.93 6.2 75.57 6.35 75.22 6.5C74.87 6.65 74.52 6.8 74.16 6.94C73.88 7.06 73.52 7.03 73.2 6.99C71.33 6.75 70.84 5.75 71.76 4.12C72.36 3.07 72.01 2.23 70.82 2.03C66.38 1.3 62.26 2.24 58.5 4.63C57.68 5.16 56.99 6.05 56.51 6.92C55.75 8.33 56.37 9.8 57.82 10.51C59.07 11.13 60.41 11.18 61.69 10.74C63.01 10.29 64.26 9.63 65.54 9.06C65.77 8.95 65.98 8.8 66.23 8.73C63.79 11.1 61.08 12.86 57.45 12.25C55.51 11.92 54.33 10.17 54.57 8.19C54.83 6.12 55.9 4.56 57.58 3.41C60.36 1.51 63.5 0.58 66.8 0.33C68.78 0.18 70.79 0.38 72.78 0.45C73.1 0.46 73.41 0.6 73.71 0.72C75 1.22 75.37 2.07 74.9 3.36C74.84 3.54 74.72 3.7 74.68 3.88C74.63 4.11 74.53 4.46 74.63 4.55C74.79 4.7 75.14 4.77 75.35 4.7C75.56 4.62 75.77 4.55 75.98 4.47C76.19 4.4 76.4 4.32 76.6 4.24C76.81 4.16 77.02 4.08 77.22 3.99C77.43 3.91 77.64 3.82 77.84 3.74C80.24 2.75 82.63 1.75 85.11 0.87C81.47 4.48 78.54 8.58 75.92 13.1C77.25 12.99 78.46 12.91 79.65 12.75C79.87 12.72 80.08 12.38 80.24 12.14C82.11 9.38 84.07 6.68 86.69 4.56C88.83 2.84 91.13 1.37 93.85 0.71C94.01 0.67 94.17 0.64 94.33 0.63C96.74 0.43 97.99 1.98 97.17 4.26C96.47 6.19 95.26 7.83 93.83 9.3C90.72 12.5 86.89 14.34 82.51 14.97C81.33 15.14 80.63 15.57 80.3 16.67C80.27 16.78 80.22 16.87 80.18 16.98C80.18 17 80.19 17.03 80.22 17.16C82.2 17.09 84.13 16.65 86.03 16.09C87.92 15.55 89.78 14.9 91.71 14.39C90.89 14.92 90.08 15.49 89.23 15.98C86.36 17.65 83.31 18.88 80.01 19.45C79.69 19.5 79.27 19.82 79.15 20.11C78.43 21.83 77.7 23.55 77.17 25.32C76.93 26.13 77.01 27.11 77.19 27.96C77.45 29.19 78.42 29.64 79.61 29.28C81.85 28.6 83.5 26.54 83.68 24.05L79.94 24.54C79.94 24.54 79.94 24.53 79.93 24.53C79.93 24.52 79.93 24.51 79.93 24.51C79.93 24.5 79.93 24.5 79.92 24.49C79.92 24.49 79.92 24.48 79.92 24.47C80.97 24.14 82.01 23.79 83.06 23.49C83.72 23.31 83.72 22.97 83.41 22.49C82.9 21.68 81.74 21.4 80.82 21.98C80.15 22.41 79.57 22.99 78.96 23.49C79.17 21.97 80.77 20.42 82.45 20.12C84.25 19.81 85.54 20.47 86.5 22.3C87.71 21.69 89.14 21.67 89.98 20.18C91.43 17.61 93.51 15.59 96.22 14.32C96.93 13.99 97.77 13.81 98.56 13.78C99.93 13.72 100.6 14.69 99.97 15.93C99.52 16.82 98.83 17.64 98.11 18.34C96.43 19.97 94.38 21.01 92.2 21.82C91.73 21.99 91.25 22.23 91.42 22.75C91.55 23.14 91.97 23.65 92.32 23.71C92.9 23.8 93.57 23.68 94.12 23.45C95.88 22.73 97.22 21.43 98.55 20.1C98.97 19.67 99.39 19.26 99.82 18.84C100.24 18.42 100.67 18.01 101.1 17.6C101.53 17.19 101.97 16.79 102.4 16.38C102.84 15.98 103.28 15.58 103.73 15.19C104.31 14.67 105.12 14.38 105.87 14.1C106.59 13.83 107.35 13.86 107.9 14.48C108.46 15.11 108.43 15.9 108.18 16.63C107.97 17.23 107.63 17.78 107.44 18.44C107.79 18.13 108.11 17.78 108.48 17.51C109.83 16.52 111.16 15.5 112.58 14.61C113.17 14.24 113.95 14.09 114.66 13.99C115.82 13.83 116.37 14.56 115.9 15.63C115.83 15.78 115.76 15.94 115.68 16.09C115.6 16.23 115.52 16.38 115.43 16.52C115.35 16.67 115.25 16.81 115.16 16.95C115.06 17.08 114.96 17.22 114.85 17.35C113.56 18.95 112.21 20.5 110.89 22.08C110.82 22.16 110.72 22.23 110.68 22.32C110.5 22.76 110.34 23.21 110.17 23.65C110.64 23.53 111.2 23.52 111.56 23.25C112.44 22.58 113.25 21.81 114.05 21.05C116.15 19.09 118.2 17.08 120.35 15.18C120.96 14.64 121.83 14.28 122.64 14.08C124.27 13.68 125.06 14.56 124.68 16.2C124.64 16.35 124.6 16.5 124.7 16.76C125.13 16.3 125.54 15.82 125.99 15.39C126.9 14.53 127.9 13.89 129.22 13.91C130.32 13.92 130.74 14.44 130.35 15.46C130.01 16.35 129.35 17 128.44 17.34C127.56 17.67 127.31 17.45 126.92 16.1C126.51 16.77 126.01 17.4 125.72 18.12C125.39 18.95 126.01 19.64 126.87 19.38C127.6 19.16 128.32 18.78 128.93 18.31C130.27 17.3 131.5 16.15 132.84 15.15C133.01 15.03 133.18 14.91 133.36 14.8C133.54 14.7 133.72 14.6 133.91 14.5C134.1 14.41 134.29 14.33 134.48 14.25C134.68 14.18 134.87 14.11 135.08 14.05C136.31 13.68 137.37 14.55 137.19 15.82C137.15 16.02 137.11 16.21 137.05 16.4C136.99 16.59 136.93 16.78 136.84 16.96C136.76 17.14 136.67 17.32 136.57 17.49C136.46 17.66 136.35 17.82 136.22 17.98C135.27 19.15 134.16 20.19 133.11 21.28C133 21.4 132.86 21.5 132.77 21.63C132.49 22.02 131.82 22.4 132.32 22.9C132.51 23.09 133.35 22.92 133.68 22.65C134.01 22.38 134.34 22.1 134.67 21.82C135 21.54 135.32 21.25 135.65 20.96C135.97 20.67 136.29 20.38 136.6 20.09C136.92 19.79 137.23 19.49 137.54 19.19C139.19 17.58 140.76 15.91 142.38 14.27C142.54 14.11 142.78 13.94 142.98 13.93C144.16 13.9 145.35 13.92 146.69 13.92L143.62 18.04L143.73 18.19C143.93 18.06 144.14 17.94 144.34 17.8C147.72 15.19 151.56 13.85 155.82 13.58C156.32 13.55 156.83 13.52 157.33 13.48C157.84 13.44 158.35 13.41 158.85 13.37C159.36 13.32 159.86 13.28 160.37 13.24C160.87 13.19 161.38 13.14 161.88 13.09C162.23 13.06 162.63 12.79 162.84 12.5C165.04 9.58 167.61 7.12 170.98 5.57C171.18 5.48 171.38 5.39 171.59 5.3C171.8 5.21 172.01 5.13 172.22 5.05C172.42 4.97 172.64 4.89 172.85 4.81C173.06 4.74 173.27 4.67 173.49 4.6C170.18 6.88 167.03 9.31 164.76 12.96L174.98 11.81L175.05 11.99C173.88 12.45 172.74 13.04 171.53 13.35C169.04 13.98 166.52 14.45 164.01 15C163.84 15.04 163.61 15.09 163.52 15.21C163.09 15.79 162.69 16.39 162.28 16.98L162.41 17.23C163.96 16.92 165.52 16.68 167.04 16.26C169.28 15.65 171.48 14.89 173.7 14.22C174.29 14.04 174.89 13.95 175.57 13.8C175.5 14.56 175.17 14.86 174.6 15.08C171.92 16.13 169.9 17.83 169.19 20.77C169.17 20.85 169.15 20.94 169.14 21.02C169.13 21.11 169.11 21.2 169.11 21.28C169.1 21.37 169.09 21.46 169.09 21.55C169.09 21.63 169.09 21.72 169.1 21.81C169.18 23.32 170.35 24.2 171.79 23.73C172.57 23.48 173.39 23.09 173.96 22.52C175.06 21.42 176 20.17 176.99 18.95C177.17 18.73 177.28 18.43 177.36 18.15C177.52 17.56 177.59 16.93 176.99 16.54C176.39 16.15 175.85 16.46 175.36 16.84C175.08 17.07 174.84 17.33 174.58 17.57L174.42 17.41L177.54 14.05C178.82 15.02 178.93 16.31 178.68 17.9C179.64 16.97 180.44 16.18 181.27 15.42C182.18 14.58 183.16 13.89 184.49 13.91C185.95 13.93 186.44 14.56 186.07 15.99C186.01 16.21 185.96 16.44 185.89 16.75C186.65 16.1 187.25 15.4 188 14.97C188.22 14.85 188.44 14.74 188.66 14.63C188.88 14.53 189.11 14.44 189.34 14.35C189.58 14.26 189.81 14.19 190.05 14.12C190.29 14.06 190.53 14 190.77 13.95C191.65 13.78 192.2 14.5 191.76 15.25C191.28 16.05 190.6 16.82 189.82 17.34C189.03 17.87 188.56 17.38 188.48 16.01C187.59 16.62 187.16 17.47 187.02 18.45C186.93 19.04 187.46 19.51 188.16 19.35C188.84 19.2 189.57 18.93 190.12 18.5C191.14 17.7 192.03 16.74 192.99 15.87C194.09 14.87 195.31 14.08 196.83 13.92C198.91 13.69 199.8 14.5 199.82 16.57C199.83 16.67 199.85 16.76 199.9 17.07C200.39 16.27 200.78 15.64 201.16 15.01C202.66 12.51 204.18 10.01 205.66 7.49C205.97 6.95 206.32 6.72 206.94 6.78C207.56 6.84 208.18 6.79 208.95 6.79C208.75 7.17 208.6 7.47 208.42 7.76C206.01 11.83 203.59 15.9 201.19 19.98C200.8 20.65 200.44 21.37 200.2 22.1C199.89 23.03 200.21 23.4 201.16 23.68C204.64 24.68 208.24 25.27 211.53 26.89C214.59 28.41 217.35 30.33 219.57 32.96C224.56 38.9 224.12 45.55 218.42 50.83C215.54 53.49 212.21 55.43 208.66 57.02C201.69 60.16 194.33 62.05 186.86 63.52C185.04 63.89 183.21 64.22 181.37 64.53C179.54 64.84 177.7 65.13 175.86 65.39C174.02 65.65 172.17 65.88 170.32 66.09C168.47 66.29 166.62 66.48 164.77 66.63C158.72 67.14 152.67 67.6 146.62 67.91C140.5 68.21 134.38 68.36 128.26 68.44C122.36 68.51 116.46 68.51 110.56 68.34C102.3 68.09 94.07 67.44 85.88 66.29C74.54 64.7 63.4 62.31 52.8 57.84C50.51 56.87 48.32 55.69 46.08 54.61C45.89 54.52 45.73 54.39 45.55 54.28L45.59 54.21L45.59 54.21ZM59.33 34.39L59.33 34.39C59.33 34.39 59.33 34.39 59.33 34.39L59.33 34.39ZM59.06 35.73C59.04 38.46 59.04 41.19 59.06 43.92C59.07 44.31 59.22 44.71 59.31 45.17L56.16 45.17C56.26 44.69 56.41 44.25 56.43 43.81C56.47 42.95 56.47 42.08 56.42 41.22C56.41 41.01 56.14 40.65 55.99 40.64C53.64 40.61 51.29 40.62 48.82 40.62C48.92 42.18 48.51 43.67 49.14 45.17L46 45.17C46.07 44.63 46.21 44.08 46.21 43.52C46.24 40.9 46.23 38.28 46.21 35.66C46.21 35.26 46.05 34.87 45.95 34.41L49.19 34.41C48.48 35.76 48.93 37.14 48.81 38.61L51.58 38.61C52.99 38.61 54.39 38.6 55.8 38.61C56.23 38.62 56.46 38.52 56.45 38.03C56.42 37.14 56.47 36.25 56.43 35.36C56.41 35.05 56.2 34.75 56.05 34.39L59.33 34.39C59.23 34.89 59.07 35.31 59.06 35.73ZM204.88 36.9C204.99 37.3 205.03 37.71 205.22 38.03C206 39.36 206.82 40.66 207.64 41.97C208.57 41.17 210.62 37.6 210.56 36.89L213.64 36.89C213.25 37.87 213.27 44.56 213.67 45.43L211.18 45.43C211.27 44.95 211.42 44.47 211.43 43.98C211.46 42.56 211.44 41.13 211.25 39.64L207.65 45.48L204.17 39.71L203.94 39.76C204.03 41.62 203.74 43.5 204.15 45.42L201.83 45.42C202.23 44.63 202.23 37.72 201.82 36.9L204.88 36.9ZM197.67 43.87L197.67 45.69C197.23 45.62 196.8 45.49 196.37 45.49C194.01 45.47 191.65 45.48 189.29 45.48L188.5 45.48L188.5 36.89C188.68 36.88 188.96 36.85 189.25 36.85C191.58 36.85 193.91 36.86 196.24 36.84C196.67 36.84 197.1 36.71 197.6 36.63L197.6 38.41C196.96 38.35 196.39 38.24 195.81 38.23C194.35 38.21 192.89 38.24 191.42 38.22C190.87 38.21 190.6 38.37 190.68 38.95C190.7 39.14 190.7 39.33 190.68 39.52C190.58 40.17 190.87 40.37 191.5 40.34C192.28 40.3 193.07 40.38 193.86 40.32C194.34 40.28 194.81 40.09 195.33 39.96L195.33 42.06C194.75 41.93 194.22 41.73 193.68 41.69C192.9 41.63 192.11 41.69 191.33 41.67C190.83 41.66 190.65 41.85 190.68 42.34C190.71 42.85 190.68 43.36 190.68 44C193.09 43.92 195.37 44.13 197.67 43.87ZM70.28 39.94C70.28 39.94 70.28 39.94 70.28 39.94L70.28 39.94L70.28 39.94ZM70.28 42.06C69.74 41.93 69.24 41.73 68.72 41.69C67.91 41.63 67.1 41.69 66.28 41.67C65.8 41.66 65.59 41.83 65.62 42.33C65.65 42.84 65.63 43.35 65.63 43.99C67.99 43.95 70.28 44.09 72.63 43.9L72.63 45.65C72.15 45.6 71.68 45.49 71.2 45.49C68.6 45.47 66.01 45.48 63.45 45.48L63.45 36.85L64.23 36.85C66.5 36.85 68.78 36.86 71.05 36.84C71.53 36.84 72.02 36.72 72.56 36.66L72.56 38.45C70.4 38.01 68.25 38.3 66.11 38.25C65.95 38.25 65.68 38.54 65.65 38.72C65.44 40.25 65.52 40.33 67.04 40.33C67.69 40.33 68.34 40.38 68.98 40.31C69.4 40.28 69.79 40.09 70.28 39.94L70.28 42.06ZM115.55 40.21L121.23 40.21L121.23 36.92L123.45 36.92C123.38 39.75 123.39 42.56 123.45 45.42L121.23 45.42L121.23 41.84L115.44 41.84C115.49 43.03 115.21 44.22 115.66 45.43L113.16 45.43C113.5 44.42 113.47 37.66 113.09 36.92L115.55 36.92L115.55 40.21ZM163.13 42.84C164.39 44.19 167.63 44.65 169.17 43.71C169.41 43.57 169.7 43.19 169.66 42.98C169.62 42.71 169.28 42.33 169.02 42.29C168.01 42.12 166.98 42.07 165.96 41.95C165.3 41.87 164.62 41.8 163.97 41.63C163.08 41.4 162.43 40.87 162.3 39.87C162.17 38.84 162.6 38.08 163.46 37.56C164.96 36.65 166.61 36.67 168.26 36.91C169.37 37.08 170.45 37.41 171.64 37.69L170.5 39.55C168.96 38.1 167.16 37.94 165.27 38.39C164.92 38.47 164.66 38.94 164.35 39.23C164.68 39.5 164.98 39.95 165.35 40.01C166.49 40.21 167.66 40.24 168.81 40.39C169.37 40.46 169.94 40.56 170.45 40.78C172.07 41.49 172.33 43.53 170.85 44.5C170.07 45.01 169.08 45.33 168.15 45.46C166.51 45.67 164.85 45.61 163.28 44.95C162.98 44.82 162.63 44.8 162.2 44.71L163.13 42.84ZM90.54 44.21C90.57 42.18 90.57 40.16 90.54 38.13C90.53 37.74 90.33 37.34 90.2 36.91L92.82 36.91C92.73 37.44 92.57 37.97 92.56 38.51C92.53 40.02 92.55 41.53 92.55 43.05C92.55 43.33 92.58 43.62 92.6 43.89C94.17 44.16 98.77 44.02 99.6 43.68L99.6 45.69C99.14 45.62 98.68 45.5 98.22 45.49C95.79 45.47 93.35 45.48 90.92 45.48L90.18 45.48C90.32 45 90.53 44.6 90.54 44.21ZM152.75 45.43C152.88 43.89 153.42 42.37 152.17 41.02C151.44 40.22 150.82 39.32 150.12 38.5C149.66 37.95 149.15 37.46 148.65 36.93L151.96 36.93C152.06 37.34 152.06 37.73 152.24 38C152.8 38.82 153.44 39.6 154.14 40.51C154.95 39.51 155.73 38.58 156.45 37.62C156.54 37.5 156.36 37.17 156.3 36.9L159.07 36.9L155.25 41.64C155.16 41.74 155.04 41.86 155.03 41.97C154.96 43.1 154.77 44.25 155.22 45.43L152.75 45.43ZM184.71 36.64L184.71 38.51L180.93 38.51C180.95 40.76 180.86 43.06 180.98 45.42L178.84 45.42C178.95 43.08 178.87 40.78 178.89 38.4C177.57 38.42 176.32 38.18 175.06 38.6L175.06 36.65C175.53 36.72 175.98 36.84 176.44 36.84C178.8 36.86 181.15 36.86 183.5 36.84C183.88 36.84 184.25 36.72 184.71 36.64ZM109.82 36.5C109.82 36.5 109.82 36.5 109.82 36.5L109.82 36.5L109.82 36.5ZM109.82 38.5L106.13 38.5C105.83 39.49 105.96 44.8 106.37 45.41L103.7 45.41C103.79 45.17 103.93 44.96 103.94 44.74C103.95 42.66 103.95 40.58 103.95 38.49L100.21 38.49L100.21 36.64C101.29 36.99 109.05 36.93 109.82 36.5L109.82 38.5ZM86.92 45.42L83.87 45.42C84.14 44.27 83.38 43.3 82.22 43.3C81.28 43.3 80.33 43.29 79.38 43.3C78.46 43.31 77.69 44.55 78.09 45.42L75.77 45.42C77.13 42.88 78.49 40.38 79.82 37.86C79.93 37.65 79.79 37.3 79.76 36.93L82.29 36.93C82.41 37.43 82.43 37.89 82.63 38.24C82.91 38.75 83.19 39.26 83.48 39.76C83.76 40.27 84.05 40.77 84.34 41.28C84.63 41.78 84.91 42.28 85.2 42.79C85.5 43.29 85.79 43.79 86.08 44.29C86.3 44.67 86.61 45.01 86.92 45.42ZM145.77 35.53L144.21 38.06C142.86 36.36 141.03 36.21 139.18 36.2C138.5 36.2 137.79 36.4 137.14 36.64C136.83 36.76 136.43 37.23 136.46 37.5C136.5 37.84 136.9 38.34 137.21 38.4C138.54 38.64 139.89 38.74 141.22 38.92C142.1 39.04 142.99 39.16 143.85 39.39C144.94 39.69 145.71 40.36 145.86 41.57C146.03 42.86 145.56 43.85 144.45 44.51C142.69 45.54 140.75 45.76 138.79 45.58C137.44 45.46 136.11 45.01 134.77 44.72C134.44 44.65 134.1 44.64 133.66 44.59L134.83 42.23C136.99 44 139.39 44.13 141.93 43.53C142.16 43.48 142.44 43.41 142.59 43.25C142.86 42.95 143.23 42.58 143.22 42.24C143.22 41.97 142.77 41.54 142.44 41.47C141.61 41.27 140.74 41.23 139.88 41.13C138.57 40.97 137.24 40.89 135.95 40.62C134.83 40.38 134.02 39.68 133.84 38.44C133.64 37.06 134.2 36.06 135.35 35.37C136.91 34.45 138.64 34.28 140.38 34.47C141.66 34.62 142.91 34.99 144.18 35.26C144.64 35.35 145.11 35.42 145.77 35.53ZM80.98 39.04L79.28 42.11L82.5 42.11L80.98 39.04L80.98 39.04ZM158.81 19.28C156.67 19.13 152.32 20.15 150 21.31C148.62 21.99 147.35 22.8 146.49 24.11C145.04 26.33 146.15 29 148.66 29.3C149.78 29.43 150.78 28.99 151.72 28.41C155.22 26.28 157.04 22.86 158.81 19.28L158.81 19.28ZM68.81 20.53C67.93 20.64 67.04 20.72 66.17 20.84C63.24 21.27 60.33 21.83 57.72 23.29C56.8 23.8 55.95 24.53 55.26 25.33C54.5 26.2 54.61 27.31 55.12 28.32C55.6 29.28 56.51 29.62 57.51 29.5C58.43 29.38 59.38 29.18 60.24 28.83C62.7 27.83 64.68 26.14 66.4 24.16C67.33 23.09 68.13 21.92 68.99 20.79L68.81 20.53ZM83.42 12.29C83.96 12.19 84.49 12.09 85.01 11.95C89.11 10.92 92.26 8.64 94.25 4.88C94.58 4.24 95.06 3.44 94.41 2.78C93.78 2.14 93.01 2.6 92.36 2.89C87.98 4.85 85.1 8.39 82.45 12.43C82.9 12.37 83.17 12.34 83.42 12.29ZM194.94 16.48C193.18 17.84 192.03 19.64 191.45 21.78C191.43 21.86 191.41 21.94 191.4 22.02C191.39 22.1 191.38 22.18 191.37 22.26C191.37 22.34 191.37 22.42 191.37 22.5C191.37 22.58 191.37 22.66 191.38 22.74C191.46 23.53 191.99 23.92 192.73 23.68C193.23 23.51 193.79 23.28 194.12 22.89C194.41 22.55 194.69 22.2 194.98 21.85C195.26 21.51 195.54 21.15 195.82 20.8C196.09 20.44 196.37 20.08 196.63 19.72C196.9 19.36 197.17 19 197.43 18.63C197.75 18.18 197.87 17.54 197.94 16.96C198.04 16.2 197.55 15.75 196.44 15.74C196.12 15.89 195.45 16.08 194.94 16.48ZM136.45 25.74L136.23 25.55C134.08 27.36 131.92 29.15 129.81 31C129.2 31.53 128.73 32.21 128.27 32.88C127.94 33.36 127.34 34.01 127.9 34.51C128.45 35.01 129.11 34.41 129.51 34.01C130.83 32.69 132.13 31.36 133.33 29.93C134.44 28.6 135.42 27.15 136.45 25.74ZM92.07 20.27C92.07 20.27 92.07 20.27 92.07 20.27C92.07 20.27 92.07 20.27 92.07 20.27L92.07 20.27ZM96.32 18.15C97.02 17.56 97.63 16.87 98.21 16.17C98.37 15.97 98.3 15.58 98.33 15.28C98.04 15.25 97.72 15.12 97.48 15.21C94.99 16.15 93.24 17.89 92.07 20.27C93.66 19.85 95.1 19.18 96.32 18.15ZM77.75 15.48C76.92 15.56 76.17 15.61 75.43 15.71C74.29 15.85 73.57 16.58 73.33 17.85C73.93 17.79 74.52 17.65 75.1 17.68C76.48 17.76 77.34 17.2 77.66 15.85L77.75 15.48L77.75 15.48Z" />
</svg>