<svg height="240" viewBox="0 0 346 240" width="346" xmlns="http://www.w3.org/2000/svg"><path d="m93.4 138.2c2.4 0 4.4 2 4.4 4.4s-2 4.4-4.4 4.4-4.4-2-4.4-4.4 2-4.4 4.4-4.4zm120.4-46c.4 0 .8.4.8.8v20c2.6-2.6 6.8-4.4 11-4.4 4.4 0 8.6 1.8 11.6 5s4.6 7.6 4.4 12.4c0 12.2-8.2 17.6-16.2 17.6s-16.2-5.4-16.2-17.6v-33c0-.4.4-.8.8-.8zm-40.6 17.6c.4 0 .8.4.8.8v31.4c0 .4-.4.8-.8.8h-3.8c-.4 0-.8-.4-.8-.8v-31.4c0-.4.4-.8.8-.8zm80.6 0c.4 0 .8.4.8.8v31.4c0 .4-.4.8-.8.8h-3.8c-.4 0-.8-.4-.8-.8v-31.4c0-.4.4-.8.8-.8zm-94-17.4c.4 0 .8.4.8.8v3.8c0 .4-.4.8-.8.8h-4.4c-2.4 0-4.4 2-4.4 4.8v7h8.8c.4 0 .8.4.8.8v3.8c0 .4-.4.8-.8.8h-8.8v26.8c0 .4-.4.8-.8.8h-3.8c-.4 0-.8-.4-.8-.8v-26.8h-4c-.4 0-.8-.4-.8-.8v-3.8c0-.4.4-.8.8-.8h4v-7.2c0-5.4 4.4-10 10-10zm32 4.4c.4 0 .8.4.8.8v12h8c.4 0 .8.4.8.8v3.8c0 .4-.4.8-.8.8v-.2h-8v17.6c0 2.8 1.8 4.6 4.4 4.6h3.4c.4 0 .8.4.8.8v3.8c0 .4-.4.8-.8.8h-4c-5.4 0-9.2-3.6-9.2-9.2v-18.2h-4c-.4 0-.8-.4-.8-.8v-3.8c0-.4.4-.8.8-.8h4v-12c0-.4.4-.8.8-.8zm79.6 0c.4 0 .8.4.8.8v12h8c.4 0 .8.4.8.8v3.8c0 .4-.4.8-.8.8v-.2h-8.2v17.6c0 2.8 1.8 4.6 4.4 4.6h3.6c.4 0 .8.4.8.8v3.8c0 .4-.4.8-.8.8h-4c-5.4 0-9.2-3.6-9.2-9.2v-18.2h-4c-.4 0-.8-.4-.8-.8v-3.8c0-.4.4-.8.8-.8h4v-12c0-.4.4-.8.8-.8zm-45.8 17.2c-6.6 0-11 4.8-11 12.2 0 6 3 12.4 11 12.4s10.8-6.4 11-12.4c0-7.2-4.4-12.2-11-12.2zm-120 10.8c2.8 0 5.2 2.4 5.2 5.2s-2.4 5.2-5.2 5.2-5.2-2.4-5.2-5.2 2.4-5.2 5.2-5.2zm-12.2.6c2.6 0 4.6 2.2 4.6 4.6 0 2.6-2 4.6-4.6 4.6s-4.6-2-4.6-4.6 2-4.6 4.6-4.6zm-12.4.6c2.2 0 4 1.8 4 4s-1.8 4-4 4-4-1.8-4-4 1.8-4 4-4zm37.2-14.4c3.2 0 5.8 2.6 6 6 0 3.4-2.6 6-6 6s-6-2.8-6-6c0-3.4 2.8-6 6-6zm-12.6.6c3 0 5.4 2.4 5.4 5.4s-2.4 5.4-5.4 5.4-5.4-2.4-5.4-5.4 2.4-5.4 5.4-5.4zm-12.2.6c2.6 0 4.8 2.2 4.8 4.8s-2.2 4.8-4.8 4.8-4.8-2.2-4.8-4.8 2.2-4.8 4.8-4.8zm-12.4.6c2.4 0 4.2 1.8 4.2 4.2s-1.8 4.2-4.2 4.2-4.2-1.8-4.2-4.2 1.8-4.2 4.2-4.2zm-12.4.6c2 0 3.6 1.6 3.6 3.6s-1.6 3.6-3.6 3.6-3.6-1.6-3.6-3.6 1.6-3.6 3.6-3.6zm37-14.2c2.8 0 5.2 2.4 5.2 5.2s-2.4 5.2-5.2 5.2-5.2-2.4-5.2-5.2 2.4-5.2 5.2-5.2zm-12.2.6c2.6 0 4.6 2 4.6 4.6s-2 4.6-4.6 4.6-4.6-2-4.6-4.6 2-4.6 4.6-4.6zm-12.4.6c2.2 0 4 1.8 4 4s-1.8 4-4 4-4-1.8-4-4 1.8-4 4-4zm90.4-4.4c2 0 3.6 1.6 3.6 3.6s-1.6 3.6-3.6 3.6-3.6-1.6-3.6-3.6 1.6-3.6 3.6-3.6zm80.4 0c2 0 3.6 1.6 3.6 3.6s-1.6 3.6-3.6 3.6-3.6-1.6-3.6-3.6 1.6-3.6 3.6-3.6zm-158.4-8.6c2.4 0 4.4 2 4.4 4.4s-2 4.4-4.4 4.4-4.4-2-4.4-4.4 2-4.4 4.4-4.4z" fill="#fff"/></svg>