<?xml version="1.0" encoding="UTF-8"?>
<svg width="256px" height="256px" viewBox="0 0 256 256" version="1.1" xmlns="http://www.w3.org/2000/svg" xmlns:xlink="http://www.w3.org/1999/xlink">
    <!-- Generator: Sketch 58 (84663) - https://sketch.com -->
    <title>logo_thnks</title>
    <desc>Created with Sketch.</desc>
    <g id="03-what-we-do-(SRC)" stroke="none" stroke-width="1" fill="none" fill-rule="evenodd">
        <g id="Group" fill="#02b8c7">
            <path d="M109.606815,124.193985 C109.682276,123.433042 109.790975,122.433303 109.903268,121.399705 C110.294946,117.82577 110.565347,115.225735 110.498869,114.311535 C110.373101,112.575802 109.13249,111.336375 107.338498,111.154604 C105.734057,110.982635 103.771178,111.738231 103.282479,113.44456 L103.282479,113.443669 C102.267351,116.986417 101.198323,122.705959 100.803052,124.890773 C98.286793,125.281936 90.9599065,126.424241 86.2489952,127.194985 L86.9820432,119.260334 C87.091641,118.07526 86.53916,116.9285 85.5411008,116.267353 C84.5385499,115.604424 83.2521225,115.538488 82.1866876,116.097166 C80.1384653,117.16997 78.9903828,119.066088 78.6777594,121.892446 C78.5816366,122.765658 78.2007392,125.368366 77.7192272,128.666972 C76.4579535,137.296628 74.5516694,150.3369 74.4339864,154.577327 L74.4169179,155.041555 C74.3702041,156.225738 74.3172018,157.566743 74.9532288,158.668951 C75.1796112,159.061897 75.4751661,159.432567 75.8560636,159.80591 C76.7553051,160.684468 78.0480208,161.101472 79.3074979,160.908118 C80.5274478,160.726347 81.554254,160.02154 82.1238036,158.975467 C82.3106589,158.634201 82.4319353,158.284025 82.4840392,157.937413 C82.8182228,155.690227 84.7837976,139.106317 85.2724962,134.975487 C87.7258713,134.510367 94.6700636,133.200549 99.3674998,132.428914 C98.9533636,136.057201 98.4637666,139.946561 97.9885431,143.723651 C97.4441472,148.05229 96.880886,152.527059 96.4344095,156.583934 C96.2421641,158.320557 97.2366299,159.90125 98.9093448,160.516954 C99.3692965,160.685359 99.8391299,160.76377 100.298183,160.756642 C101.451656,160.737039 102.535956,160.178362 103.225884,159.181295 C104.054156,157.983747 104.344321,156.517997 104.534769,155.111947 L105.304649,149.362109 C105.915523,144.784872 106.524599,140.208525 107.19117,135.604556 C107.593628,132.133091 107.593628,132.133091 109.464876,131.559265 L110.067665,131.37393 C111.715226,130.854458 112.770779,128.901313 112.42312,127.020342 C112.20662,125.856653 111.343312,124.570001 109.606815,124.193985 M218.810303,101.167904 C212.61982,95.3556943 201.941216,97.1493442 197.541131,104.229494 C189.998642,116.365367 203.531283,125.107294 206.859644,135.560005 C215.992201,164.245928 167.736801,168.914051 153.843027,152.024517 C150.692537,148.194856 145.245883,153.654216 148.369422,157.452691 C161.481638,173.391493 189.121859,173.361198 204.957852,161.783112 C214.009557,155.165409 217.559809,145.134157 214.572818,134.407899 C212.947716,128.574304 209.839449,124.296454 206.320638,119.500913 C203.698375,115.927869 201.182116,110.738492 205.351326,107.049614 C207.35014,105.281804 211.001905,104.404137 213.336698,106.596078 C216.952529,109.992697 222.436016,104.573433 218.810303,101.167904 M152.5018,111.28915 C152.584448,109.729842 152.253858,108.567935 151.488469,107.734819 C150.780575,106.963184 149.741192,106.544399 148.402661,106.491828 C146.053493,106.396487 145.26385,109.436692 145.161439,110.61642 L144.944938,113.098839 C144.093309,122.902878 143.576762,128.8033 142.018136,137.933717 C140.640976,135.836225 139.466842,133.909811 138.334031,132.035968 C136.877817,129.63196 135.373092,127.145978 133.436264,124.322293 C131.713242,121.806907 130.275893,119.859999 128.914005,118.193767 L128.804407,118.060112 C127.595237,116.572978 125.911742,114.527165 122.447731,114.969118 C119.750007,115.302364 119.034926,118.128722 118.608213,119.817229 L118.53904,120.083648 C117.677529,123.433042 116.98311,127.192312 116.353372,131.915679 C115.644579,137.232474 115.02023,142.608968 114.417442,147.809038 L113.912573,152.145697 C113.7895,153.189988 114.113802,154.243189 114.801035,155.035318 C115.460418,155.795369 116.37044,156.232866 117.364906,156.265835 C117.549066,156.272072 117.723345,156.27029 117.892233,156.26138 C120.924141,156.103667 121.419128,153.603427 121.691326,152.226781 C121.985983,150.739647 122.189008,149.106383 122.385746,147.528363 C122.465698,146.885037 122.544752,146.251512 122.6274,145.644719 C122.965177,143.172101 123.344278,140.313667 123.736854,137.356328 C124.247113,133.5035 124.77983,129.480485 125.274817,125.927935 C126.560346,127.870388 128.365117,130.712784 129.931828,133.180946 C131.939625,136.344114 134.016594,139.615988 135.433281,141.711698 C135.772855,142.215132 136.089072,142.772027 136.412475,143.336052 C137.82467,145.80154 139.57105,148.843528 143.57227,148.351678 C144.291843,148.256337 144.923378,147.923982 145.491131,147.485593 L145.492927,147.490048 C149.047671,145.528884 149.511216,140.802844 149.804076,138.801583 C150.460765,134.313449 152.006813,120.536293 152.5018,111.28915 M165.201677,145.694616 C165.528674,142.86024 165.81255,140.018735 166.08385,137.176339 C173.752107,143.499111 182.055492,146.947409 192.832915,145.770354 C198.174463,145.186728 198.234652,136.805669 192.832915,137.395533 C184.012982,138.35874 177.712003,135.870084 171.56015,130.81258 C178.613042,123.780545 184.471137,115.366519 191.126063,108.033315 C194.753572,104.037031 188.801151,98.0956215 185.156573,102.111508 C179.090062,108.794257 173.673951,116.361803 167.425076,122.976833 C167.9542,117.705481 168.562379,112.44393 169.41311,107.213564 C170.271926,101.941321 162.137429,99.6718593 161.272324,104.986872 C159.075875,118.476224 158.323064,132.131309 156.75815,145.694616 C156.141887,151.039925 164.589905,150.997155 165.201677,145.694616 M89.0338589,106.784086 C98.2230107,105.099143 107.725684,103.358064 121.793737,101.679357 C123.808721,101.439669 124.691792,100.016689 124.674966,98.7122165 C124.653164,97.0825167 123.24007,95.266591 120.911565,95.0509609 C118.781593,94.8567157 115.872758,95.2576807 113.535269,95.5820167 C112.899242,95.670229 112.299149,95.7539862 111.760143,95.8199226 C103.079454,96.8686687 95.3447193,98.162449 87.1563217,99.531967 C83.2709877,100.18153 79.3371432,100.840895 75.2371052,101.480657 C71.1415589,102.120419 65.6895145,103.210152 61.3091934,104.086929 C58.6024856,104.627786 56.2649968,105.094687 55.0351651,105.296952 C47.6588697,106.505193 42.1753833,107.585125 34.8008846,109.280762 C34.7676459,109.28789 31.4276062,110.114769 30.6164023,111.481614 C29.9417467,112.618572 29.8150803,113.986308 30.2651502,115.233755 C30.6918632,116.416156 31.6045798,117.336593 32.7670358,117.759834 C33.3258052,117.961207 33.8369624,118.022689 34.3220677,117.937149 C37.158137,117.466684 39.9663576,116.727126 42.6820488,116.011627 C44.0457337,115.650758 45.4094185,115.291672 46.7793918,114.965554 C49.6747517,114.274112 52.5799933,113.621875 55.7214992,112.915286 L58.7022017,112.243447 L57.5262706,122.802191 C56.4033417,132.842353 55.3450935,142.326511 54.3596111,151.79463 C53.9095411,156.112577 53.7774847,159.843333 53.95356,163.202528 C54.0460893,164.956973 55.917338,167.573937 57.6349701,167.745907 C57.7355845,167.756599 57.8361989,167.760163 57.9377117,167.758819 C59.7451781,167.728977 61.7673484,165.918398 62.4321223,164.576502 C63.2630897,162.896904 63.742805,156.109904 63.7068712,154.644154 C63.6655474,153.004653 65.5691365,129.73532 67.4835057,117.674295 C67.905727,115.01456 68.3405251,111.972573 68.5453473,110.520189 C70.0401902,110.203872 73.2436818,109.540052 75.9620681,109.095427 C80.5714667,108.336266 84.8736319,107.547702 89.0338589,106.784086" id="Logo_02"></path>
        </g>
    </g>
</svg>