<svg height="48" viewBox="0 0 256 48" width="256" xmlns="http://www.w3.org/2000/svg" xmlns:xlink="http://www.w3.org/1999/xlink"><filter id="a" height="162.9%" width="123.6%" x="-11.8%" y="-31.4%"><feOffset dx="0" dy="0" in="SourceAlpha" result="shadowOffsetOuter1"/><feGaussianBlur in="shadowOffsetOuter1" result="shadowBlurOuter1" stdDeviation="17"/><feColorMatrix in="shadowBlurOuter1" result="shadowMatrixOuter1" type="matrix" values="0 0 0 0 0   0 0 0 0 0   0 0 0 0 0  0 0 0 0.17 0"/><feMerge><feMergeNode in="shadowMatrixOuter1"/><feMergeNode in="SourceGraphic"/></feMerge></filter><g fill="#fff" fill-rule="evenodd" filter="url(#a)" transform="translate(-152 -60)"><path d="m124 2c9.9405 0 18 8.0595 18 18 0 4.2495638-1.472924 8.155363-3.936056 11.234682l11.078192 11.0790265-2.828428 2.8284271-11.079026-11.0781919c-3.079319 2.4631323-6.985118 3.9360563-11.234682 3.9360563-9.9405 0-18-8.0595-18-18s8.0595-18 18-18zm0 4c-7.718667 0-14 6.2813333-14 14 0 7.721 6.281333 14 14 14s14-6.279 14-14c0-7.7186667-6.281333-14-14-14z" transform="translate(152 60)"/></g></svg>