<?xml version="1.0" encoding="UTF-8"?>
<svg width="256px" height="70px" viewBox="0 0 256 70" version="1.1" xmlns="http://www.w3.org/2000/svg" xmlns:xlink="http://www.w3.org/1999/xlink">
    <!-- Generator: Sketch 61.2 (89653) - https://sketch.com -->
    <title>logo_emojme</title>
    <desc>Created with Sketch.</desc>
    <g id="03-what-we-do-(SRC)" stroke="none" stroke-width="1" fill="none" fill-rule="evenodd">
        <g id="Group" fill="#FFFFFF" fill-rule="nonzero">
            <path d="M151.330867,25.0767484 C152.317599,25.0767484 153.11932,25.4057675 153.736028,26.0638056 C154.352736,26.7218438 154.661089,27.7170249 154.661089,29.0493491 L154.661089,29.0493491 L154.661089,51.6176203 L154.659764,52.0489606 C154.65093,53.4622555 154.597924,54.6304897 154.500745,55.5536633 C154.393849,56.5691543 154.241728,57.3043698 154.044382,57.7593097 C152.926084,60.5864366 150.549703,62 146.915238,62 C144.87599,62 143.330109,61.7237865 142.277594,61.1713594 C141.225079,60.6189323 140.698821,59.8146634 140.698821,58.7585528 C140.698821,57.9786558 140.937282,57.3409274 141.414203,56.8453678 C141.891123,56.3498083 142.516054,56.1020285 143.288995,56.1020285 C143.387668,56.1020285 143.548012,56.1142144 143.770027,56.1385861 C143.992042,56.1629579 144.320953,56.1913917 144.75676,56.2238874 C145.192567,56.2563831 145.492698,56.2726309 145.657153,56.2726309 C146.561658,56.2726309 147.166032,55.923302 147.470275,55.2246443 C147.774517,54.5259865 147.926639,53.2749016 147.926639,51.4713896 L147.926639,51.4713896 L147.926639,29.0493491 L147.931421,28.7723066 C147.972871,27.5933423 148.283742,26.6945706 148.864035,26.0759915 C149.488965,25.4098294 150.311243,25.0767484 151.330867,25.0767484 Z M47.8123567,13 C51.7624839,13 55.1509524,13.8233195 57.9777621,15.4699586 C60.8045719,17.1165977 62.9215932,19.2450312 64.328826,21.8552591 C65.7360588,24.465487 66.4396752,27.1245042 66.4396752,29.8323107 C66.4396752,32.34496 65.7113705,33.9733031 64.2547611,34.71734 C62.7981517,35.4613769 60.7490233,35.8333954 58.1073757,35.8333954 L58.1073757,35.8333954 L38.3320514,35.8333954 L38.342832,36.2835581 C38.4204081,38.3676204 38.8797201,40.2179277 39.720768,41.8344801 C40.6218908,43.5665005 41.8192731,44.8716144 43.3129149,45.7498219 C44.8065568,46.6280295 46.4545005,47.0671332 48.256746,47.0671332 C49.4664725,47.0671332 50.5712737,46.926864 51.5711496,46.6463254 C52.5710255,46.3657869 53.5400411,45.9266832 54.4781963,45.3290142 C55.4163515,44.7313452 56.2804419,44.0909855 57.0704673,43.4079352 C57.8604927,42.7248849 58.885057,41.7978881 60.14416,40.6269448 C60.6626142,40.187841 61.4032631,39.9682891 62.3661066,39.9682891 C63.403015,39.9682891 64.242417,40.2488276 64.8843127,40.8099047 C65.5262083,41.3709817 65.8471562,42.1638079 65.8471562,43.1883834 C65.8471562,44.0909855 65.4891759,45.1460543 64.7732153,46.3535896 C64.0572548,47.5611249 62.9771419,48.719871 61.5328766,49.8298277 C60.0886114,50.9397844 58.2740217,51.8606826 56.0891076,52.5925222 C53.9041935,53.3243618 51.3921595,53.6902816 48.5530055,53.6902816 C42.059984,53.6902816 37.0112277,51.8606826 33.4067366,48.2014846 C29.8022455,44.5422866 28,39.5779747 28,33.3085488 C28,30.3567958 28.4443893,27.6184959 29.3331679,25.0936493 C30.2219465,22.5688027 31.518082,20.4037773 33.2215744,18.5985729 C34.9250667,16.7933686 37.0235718,15.408972 39.5170896,14.4453832 C42.0106074,13.4817944 44.7756964,13 47.8123567,13 Z M75.4511192,25.0767484 C76.3720697,25.0767484 77.140899,25.3813957 77.757607,25.9906903 C78.3743149,26.5999849 78.6826689,27.4408114 78.6826689,28.5131698 L78.6826689,28.5131698 L78.6826689,29.1468362 L78.9535825,28.8346178 C80.0430756,27.6117023 81.2026325,26.7002841 82.4322533,26.1003633 C83.7643425,25.4504491 85.2444416,25.125492 86.8725506,25.125492 C88.5664418,25.125492 90.0218726,25.458573 91.2388429,26.1247351 C92.4558133,26.7908972 93.4589916,27.7982642 94.2483778,29.1468362 C95.3831204,27.7820163 96.6000908,26.7705873 97.8992889,26.1125492 C99.198487,25.4545111 100.637472,25.125492 102.216245,25.125492 C104.058146,25.125492 105.645141,25.4829448 106.97723,26.1978504 C108.309319,26.9127561 109.304275,27.936371 109.962097,29.2686951 C110.537691,30.4710364 110.825488,32.3639116 110.825488,34.9473206 L110.825488,34.9473206 L110.825488,47.9374811 L110.821212,48.2122865 C110.781304,49.4729756 110.462041,50.4293605 109.863423,51.0814411 C109.222047,51.7800989 108.375101,52.1294278 107.322587,52.1294278 C106.302963,52.1294278 105.468351,51.7760369 104.818752,51.0692552 C104.169153,50.3624735 103.844354,49.3185488 103.844354,47.9374811 L103.844354,47.9374811 L103.844354,36.7508326 L103.842825,36.3679337 C103.832631,35.1151032 103.77147,34.0972624 103.659341,33.3144111 C103.536,32.4532748 103.202977,31.7302452 102.660274,31.1453224 C102.117571,30.5603996 101.295294,30.2679382 100.193443,30.2679382 C99.3053831,30.2679382 98.4625488,30.5279039 97.6649399,31.0478353 C96.8673309,31.5677667 96.2465116,32.2664245 95.8024818,33.1438087 C95.3091155,34.2649107 95.0624323,36.2471491 95.0624323,39.0905238 L95.0624323,39.0905238 L95.0624323,47.9374811 L95.0581565,48.2122865 C95.0182486,49.4729756 94.6989857,50.4293605 94.1003679,51.0814411 C93.4589916,51.7800989 92.612046,52.1294278 91.5595311,52.1294278 C90.5399073,52.1294278 89.7135186,51.7800989 89.0803651,51.0814411 C88.4472116,50.3827833 88.1306348,49.3347966 88.1306348,47.9374811 L88.1306348,47.9374811 L88.1306348,37.3357554 L88.1296131,36.9561901 C88.121439,35.4644639 88.0642201,34.2911572 87.9579566,33.4362701 C87.8428378,32.5101423 87.5303724,31.7505551 87.0205605,31.1575083 C86.5107486,30.5644616 85.7049169,30.2679382 84.6030653,30.2679382 C82.3993622,30.2679382 80.9480428,31.0153396 80.2491071,32.5101423 C79.5501714,34.004945 79.2007036,36.1496619 79.2007036,38.9442931 L79.2007036,38.9442931 L79.2007036,47.9374811 L79.195858,48.2282638 C79.1538631,49.4659608 78.8389016,50.4129579 78.2509733,51.0692552 C77.6178198,51.7760369 76.7832084,52.1294278 75.747139,52.1294278 C74.7275152,52.1294278 73.8929037,51.7760369 73.2433047,51.0692552 C72.5937056,50.3624735 72.2689061,49.3185488 72.2689061,47.9374811 L72.2689061,47.9374811 L72.2689061,28.9031184 L72.2740879,28.6197423 C72.3155424,27.5075814 72.6057235,26.6515406 73.1446314,26.0516197 C73.7284483,25.4017055 74.4972775,25.0767484 75.4511192,25.0767484 Z M129.12938,25.0767484 C131.168628,25.0767484 133.018751,25.4017055 134.679752,26.0516197 C136.340752,26.701534 137.763291,27.6276617 138.947371,28.830003 C140.13145,30.0323443 141.031844,31.4621556 141.648552,33.1194369 C142.265259,34.7767181 142.573613,36.6046019 142.573613,38.6030881 C142.573613,40.5853265 142.261148,42.4132102 141.636217,44.0867393 C141.011287,45.7602684 140.106782,47.1982037 138.922702,48.400545 C137.738623,49.6028863 136.324306,50.5249521 134.679752,51.1667424 C133.035197,51.8085326 131.185073,52.1294278 129.12938,52.1294278 C127.090132,52.1294278 125.256454,51.8044707 123.628345,51.1545565 C122.000236,50.5046422 120.59003,49.5744525 119.397728,48.3639873 C118.205426,47.1535221 117.300921,45.7237108 116.684213,44.0745534 C116.067505,42.4253961 115.759151,40.6015743 115.759151,38.6030881 C115.759151,36.588354 116.071617,34.7442224 116.696548,33.0706933 C117.321478,31.3971642 118.21776,29.9673529 119.385394,28.7812595 C120.553028,27.595166 121.967345,26.6812241 123.628345,26.0394338 C125.289345,25.3976436 127.123023,25.0767484 129.12938,25.0767484 Z M168.549353,15.791099 L168.857707,15.7932622 C170.064557,15.8105676 170.952616,15.9317054 171.521885,16.1566757 C172.138593,16.4003936 172.594957,16.8390857 172.890977,17.472752 C173.186997,18.1064184 173.52413,19.1381572 173.902378,20.5679685 L173.902378,20.5679685 L179.15673,40.1385104 L184.411081,20.5679685 L184.49764,20.2450784 C184.840952,18.9817836 185.149233,18.0576748 185.422482,17.472752 C185.718502,16.8390857 186.174866,16.4003936 186.791574,16.1566757 C187.408282,15.9129579 188.399126,15.791099 189.764107,15.791099 L189.764107,15.791099 L192.033592,15.791099 L192.351069,15.7959301 C193.600541,15.8345788 194.60479,16.1051201 195.363815,16.6075537 C196.186092,17.1518569 196.597231,18.2039055 196.597231,19.7636997 L196.597231,19.7636997 L196.597231,48.0349682 L196.592511,48.3222071 C196.551607,49.5442779 196.244826,50.4721465 195.672169,51.1058129 C195.055461,51.7882228 194.229072,52.1294278 193.193003,52.1294278 C192.222716,52.1294278 191.425107,51.7882228 190.800176,51.1058129 C190.175245,50.423403 189.86278,49.3997881 189.86278,48.0349682 L189.86278,48.0349682 L189.86278,23.3707236 L184.065725,46.1339691 L183.979678,46.4681798 C183.640452,47.7770455 183.36078,48.7501863 183.140663,49.3876022 C182.902203,50.078136 182.462284,50.7077404 181.820908,51.2764154 C181.179532,51.8450903 180.291472,52.1294278 179.15673,52.1294278 C178.301561,52.1294278 177.577957,51.9466394 176.985918,51.5810627 C176.393878,51.2154859 175.933403,50.7483601 175.604492,50.1796851 C175.275581,49.6110102 175.016564,48.9814058 174.82744,48.2908719 C174.638316,47.6003381 174.445081,46.8813705 174.247734,46.1339691 L174.247734,46.1339691 L168.450679,23.3707236 L168.450679,48.0349682 L168.44596,48.3222071 C168.405056,49.5442779 168.098275,50.4721465 167.525618,51.1058129 C166.90891,51.7882228 166.090744,52.1294278 165.07112,52.1294278 C164.084387,52.1294278 163.278555,51.7922848 162.653625,51.1179988 C162.028694,50.4437128 161.716229,49.4160359 161.716229,48.0349682 L161.716229,48.0349682 L161.716229,19.7636997 L161.720496,19.4937126 C161.76602,18.081892 162.175736,17.1198391 162.949644,16.6075537 C163.771922,16.0632506 164.881996,15.791099 166.279867,15.791099 L166.279867,15.791099 L168.549353,15.791099 Z M215.591836,25.0280048 C218.223123,25.0280048 220.480274,25.57637 222.363289,26.6731002 C224.246304,27.7698305 225.65651,29.1874558 226.593906,30.9259764 C227.531302,32.6644969 228,34.4355132 228,36.2390251 C228,37.9125542 227.514856,38.9970986 226.544569,39.4926582 C225.574282,39.9882178 224.209302,40.2359976 222.449628,40.2359976 L222.449628,40.2359976 L209.276746,40.2359976 L209.286939,40.6100368 C209.346611,41.967861 209.651568,43.1755054 210.201808,44.23297 C210.802071,45.3865678 211.59968,46.255828 212.594635,46.8407508 C213.589591,47.4256736 214.687331,47.718135 215.887856,47.718135 C216.693687,47.718135 217.429626,47.6247099 218.09567,47.4378595 C218.761715,47.2510092 219.407202,46.9585478 220.032133,46.5604753 C220.657064,46.1624029 221.232658,45.7358967 221.758915,45.2809567 C222.285173,44.8260168 222.967663,44.2085982 223.806386,43.4287012 C224.151742,43.1362398 224.645109,42.9900091 225.286485,42.9900091 C225.977198,42.9900091 226.536346,43.1768594 226.963931,43.5505601 C227.391515,43.9242608 227.605307,44.4523161 227.605307,45.134726 C227.605307,45.7358967 227.366846,46.4386164 226.889926,47.2428853 C226.413005,48.0471541 225.693512,48.8189272 224.731448,49.5582047 C223.769383,50.2974821 222.560636,50.9108386 221.105205,51.3982743 C219.649774,51.88571 217.97644,52.1294278 216.085202,52.1294278 C211.760024,52.1294278 208.39691,50.9108386 205.99586,48.4736603 C203.59481,46.036482 202.394286,42.7300434 202.394286,38.5543445 C202.394286,36.588354 202.690305,34.7645322 203.282345,33.0828792 C203.874385,31.4012262 204.737776,29.959229 205.872518,28.7568877 C207.007261,27.5545464 208.405132,26.6324806 210.066133,25.9906903 C211.727133,25.3489 213.569034,25.0280048 215.591836,25.0280048 Z M129.12938,29.9998486 C127.813736,29.9998486 126.654325,30.3369916 125.651147,31.0112776 C124.647969,31.6855636 123.875028,32.6807448 123.332325,33.9968211 C122.789622,35.3128974 122.518271,36.8483197 122.518271,38.6030881 C122.518271,40.3416086 122.785511,41.8607831 123.319991,43.1606116 C123.854471,44.46044 124.619189,45.4556212 125.614145,46.146155 C126.6091,46.8366889 127.780845,47.1819558 129.12938,47.1819558 C131.168628,47.1819558 132.792625,46.4223686 134.001373,44.9031941 C135.21012,43.3840196 135.814494,41.2839843 135.814494,38.6030881 C135.814494,35.8896962 135.21012,33.777475 134.001373,32.2664245 C132.792625,30.7553739 131.168628,29.9998486 129.12938,29.9998486 Z M215.369821,29.6586437 C213.692375,29.6586437 212.315061,30.2313806 211.237878,31.3768544 C210.160694,32.5223282 209.506984,34.2161671 209.276746,36.4583712 L209.276746,36.4583712 L221.487564,36.4583712 C221.323108,34.1836714 220.702289,32.4817085 219.625106,31.3524826 C218.547923,30.2232566 217.129494,29.6586437 215.369821,29.6586437 Z M44.2958522,20.395971 C42.7116716,20.395971 41.4109351,21.1728296 40.3936427,22.7265469 C39.9005946,23.4795825 39.4396972,24.8994677 39.0109505,26.9862026 C38.9811285,27.1313479 38.9661022,27.2791434 38.9661022,27.4273208 C38.9661022,28.6378162 39.9474027,29.6191167 41.1578981,29.6191014 L41.1578981,29.6191014 L48.1595527,29.6191014 C48.2521951,29.6191014 48.3446716,29.6112699 48.4359946,29.5956905 C49.3309396,29.4430159 49.9326687,28.5937524 49.7799776,27.6988101 C49.351631,25.1879373 48.8631536,23.519497 48.3145455,22.6934891 C47.2972531,21.1618104 45.9576886,20.395971 44.2958522,20.395971 Z M45.8469921,24.3932788 C46.9084744,24.3932788 47.7689758,25.2434363 47.7689758,26.2921586 C47.7689758,27.340881 46.9084744,28.1910384 45.8469921,28.1910384 C44.7855098,28.1910384 43.9250083,27.340881 43.9250083,26.2921586 C43.9250083,25.2434363 44.7855098,24.3932788 45.8469921,24.3932788 Z M151.330867,15.4742658 C152.20248,15.4742658 152.975421,15.7504794 153.649688,16.3029064 C154.323956,16.8553335 154.661089,17.6596024 154.661089,18.715713 C154.661089,19.7393279 154.332179,20.5395348 153.674357,21.1163336 C153.016535,21.6931325 152.235372,21.9815319 151.330867,21.9815319 C150.39347,21.9815319 149.59175,21.6971945 148.925705,21.1285195 C148.259661,20.5598446 147.926639,19.7555757 147.926639,18.715713 C147.926639,17.7733374 148.267884,16.9975023 148.950374,16.3882077 C149.632864,15.7789131 150.426361,15.4742658 151.330867,15.4742658 Z" id="Combined-Shape"></path>
        </g>
    </g>
</svg>