<svg xmlns="http://www.w3.org/2000/svg" viewBox="0 0 256 50" width="256" height="50">
	<style>
		tspan { white-space:pre }
		.shp0 { fill: #ffffff } 
	</style>
	<path fill-rule="evenodd" class="shp0" d="M76.39 0.32C80.47 1.27 83.42 4.6 83.86 8.76C83.91 9.26 83.94 9.75 83.94 10.25C83.95 20.24 83.98 30.24 83.93 40.24C83.91 44.03 82.16 46.92 78.87 48.82C77.44 49.64 75.87 50.02 74.23 50.02C64.03 50.03 53.83 50.06 43.64 50.01C38.78 49.98 35.03 46.41 34.23 42.08C34.16 41.69 34.08 41.31 34 40.93L34 9.14C34.05 8.89 34.11 8.64 34.15 8.38C34.68 4.52 37.71 1.21 41.5 0.34C42.04 0.21 42.58 0.11 43.13 0L74.86 0C75.37 0.11 75.89 0.2 76.39 0.32ZM61.36 33.99C61.97 33.99 66.36 33.98 66.95 33.86C70.13 33.24 72.15 31.28 73.2 28.28C73.3 28 73.39 27.72 73.48 27.44C73.57 27.17 73.66 26.89 73.74 26.61C73.83 26.32 73.91 26.04 73.98 25.76C74.06 25.48 74.14 25.2 74.21 24.91C75.35 20.45 76.47 15.98 77.58 11.52C77.74 10.9 77.89 10.27 77.97 9.63C78.03 9.05 77.77 8.8 77.19 8.81C76.75 8.81 76.29 8.83 75.86 8.92C74.42 9.2 73.25 9.83 72.86 11.41C72.72 11.97 72.58 12.53 72.44 13.09C72.3 13.65 72.16 14.21 72.02 14.77C71.88 15.33 71.73 15.89 71.59 16.45C71.44 17.01 71.29 17.57 71.15 18.12C70.45 20.76 69.74 23.38 68.98 26C68.58 27.37 67.72 28.38 66.29 28.81C65.13 29.16 63.94 29.12 62.75 29.02C61.95 28.96 61.14 28.6 61.06 27.62C61.06 27.45 60.91 27.41 60.76 27.41C59.62 27.39 58.48 27.4 57.34 27.4C57.06 27.4 56.9 27.47 56.86 27.81C56.79 28.49 56.45 28.87 55.77 28.95C55.05 29.04 54.32 29.06 53.6 29.06C51.3 29.07 49.97 28.07 49.31 25.86C48.41 22.82 47.54 19.77 46.63 16.74C46.59 16.61 46.55 16.49 46.51 16.37C46.46 16.26 46.41 16.14 46.35 16.02C46.3 15.91 46.24 15.8 46.18 15.69C46.11 15.58 46.04 15.47 45.97 15.37C45.13 14.21 43.87 13.96 42.55 13.89C41.42 13.83 41.17 14.13 41.48 15.24C41.79 16.38 42.09 17.52 42.4 18.65C42.72 19.79 43.03 20.93 43.34 22.07C43.65 23.21 43.97 24.34 44.28 25.48C44.59 26.62 44.91 27.76 45.23 28.89C46.15 32.19 49.09 33.72 51.59 33.9C53.28 34.03 54.99 34 56.68 33.98C58.19 33.98 58.92 32.82 58.92 32.82C58.92 32.82 59.56 33.99 61.36 33.99ZM51 16.15C50.93 17.29 51.74 18.25 52.97 18.28C54.04 18.3 54.95 17.36 54.96 16.29C54.97 15.22 54.05 14.29 52.99 14.28C51.94 14.26 51.07 15.13 51 16.15ZM63.41 23.1C63.41 24.23 64.3 25.14 65.4 25.13C65.66 25.13 65.92 25.08 66.15 24.98C66.39 24.88 66.61 24.73 66.79 24.54C66.98 24.36 67.12 24.14 67.22 23.9C67.32 23.66 67.37 23.4 67.37 23.14C67.37 22.88 67.32 22.62 67.22 22.38C67.13 22.14 66.98 21.92 66.8 21.73C66.62 21.55 66.4 21.4 66.16 21.29C65.92 21.19 65.67 21.13 65.41 21.13C64.33 21.11 63.42 22.02 63.41 23.1ZM57.31 17.04C57.4 17.28 57.55 17.5 57.73 17.69C57.91 17.87 58.13 18.02 58.37 18.12C58.61 18.22 58.86 18.28 59.12 18.28C60.19 18.3 61.11 17.4 61.12 16.31C61.13 15.19 60.23 14.27 59.13 14.28C58.87 14.28 58.61 14.33 58.37 14.44C58.13 14.54 57.92 14.69 57.73 14.87C57.55 15.06 57.41 15.28 57.31 15.52C57.21 15.76 57.16 16.02 57.17 16.28C57.16 16.54 57.21 16.8 57.31 17.04ZM67.37 16.29C67.37 16.03 67.32 15.77 67.23 15.53C67.13 15.29 66.99 15.07 66.8 14.88C66.62 14.7 66.41 14.55 66.17 14.44C65.93 14.34 65.67 14.28 65.41 14.28C64.33 14.26 63.42 15.16 63.41 16.25C63.41 17.37 64.29 18.29 65.39 18.28C66.48 18.28 67.36 17.38 67.37 16.29ZM47.93 38.8C47.93 36.61 46.23 34.86 44.08 34.85C41.94 34.84 40.15 36.57 40.16 38.75C40.17 41.2 42.13 42.67 44.05 42.66C46.21 42.66 47.93 40.95 47.93 38.8L47.93 38.8ZM74.06 34.83C71.9 34.83 70.14 36.58 70.19 38.75C70.23 40.84 71.75 42.61 74.08 42.61C76.55 42.62 77.99 40.64 77.98 38.7C77.98 36.53 76.25 34.83 74.06 34.83ZM61.12 23.14C61.12 22.88 61.07 22.62 60.97 22.38C60.88 22.14 60.73 21.92 60.55 21.73C60.37 21.55 60.15 21.4 59.91 21.3C59.68 21.19 59.42 21.14 59.16 21.13C58.09 21.11 57.17 22.01 57.17 23.1C57.16 24.24 58.03 25.14 59.14 25.13C59.4 25.13 59.66 25.08 59.9 24.98C60.14 24.88 60.36 24.73 60.54 24.54C60.72 24.36 60.87 24.14 60.97 23.9C61.07 23.66 61.12 23.4 61.12 23.14L61.12 23.14ZM51.02 23.13C51.01 24.27 51.89 25.16 53 25.13C54.08 25.11 54.98 24.19 54.96 23.12C54.95 22.04 54.02 21.12 52.96 21.13C51.87 21.14 51.02 22.02 51.02 23.13ZM222.19 5.66C222.19 4.68 222.55 4.35 223.53 4.41C223.89 4.43 224.08 4.6 224.09 4.97L224.09 33.48C224.09 34.56 223.66 34.92 222.6 34.74C222.23 34.68 222.2 34.39 222.19 34.1C222.18 33.39 222.19 32.68 222.19 31.97L222.19 31.38C222.01 31.54 221.91 31.61 221.83 31.7C217.87 36.58 209.75 36.76 205.93 30.35C203.11 25.63 204.26 19.01 209.33 15.81C212.83 13.61 218.27 13.9 221.45 17.41C221.66 17.64 221.84 17.89 222.04 18.13L222.19 18.1L222.19 5.66ZM206.73 25.81C206.75 27.28 207.61 29.4 209.41 31.13C211.71 33.34 215 33.81 217.67 32.19C220.42 30.54 222.9 27.44 222.11 23.05C221.3 18.54 217.11 15.9 212.87 16.82C209.31 17.6 206.73 21.02 206.73 25.81ZM177.42 31.39C179.05 26.22 180.69 21.06 182.31 15.89C182.58 15.04 183.14 14.52 184.02 14.37C184.7 14.25 184.93 14.52 184.73 15.16C182.9 20.94 181.08 26.72 179.24 32.5C179.11 32.9 178.94 33.3 178.74 33.68C178.01 35.01 176.2 35.16 175.31 33.93C174.94 33.44 174.7 32.84 174.49 32.25C173.15 28.57 171.83 24.88 170.51 21.2C170.45 21.04 170.37 20.89 170.23 20.58C169.87 21.6 169.56 22.46 169.25 23.32C168.15 26.47 167.05 29.62 165.94 32.77C165.69 33.47 165.38 34.16 164.66 34.53C163.53 35.1 162.27 34.62 161.72 33.35C161.35 32.49 161.09 31.58 160.8 30.68C159.13 25.53 157.46 20.38 155.79 15.22C155.58 14.55 155.84 14.25 156.56 14.36C157.46 14.5 158.04 14.99 158.32 15.88C159.6 19.96 160.89 24.04 162.17 28.12C162.58 29.41 162.98 30.7 163.39 31.99C163.45 32.18 163.54 32.35 163.66 32.66C163.81 32.38 163.92 32.2 163.99 32.02C165.63 27.36 167.28 22.71 168.92 18.05C168.94 17.99 168.96 17.92 168.99 17.86C169.23 17.23 169.63 16.93 170.24 16.93C170.85 16.92 171.19 17.16 171.44 17.83C172.66 21.13 173.88 24.43 175.1 27.74C175.63 29.18 176.16 30.62 176.69 32.06C176.75 32.24 176.84 32.41 176.98 32.73C177.16 32.19 177.29 31.79 177.42 31.39ZM105.82 25.99C105.23 25.99 105.2 26.03 105.33 26.62C106.19 30.36 109.27 32.81 113.12 32.84C114.54 32.85 115.94 32.74 117.19 32.02C117.83 31.65 118.43 31.15 118.96 30.62C119.75 29.82 120.71 29.68 121.74 29.76C122.12 29.8 121.98 30.07 121.86 30.28C121.13 31.59 120.17 32.69 118.92 33.52C117.07 34.75 115.02 35.33 112.82 35.21C107.52 34.93 103.99 31.38 103.02 27.14C101.7 21.39 105.54 15.58 111.35 14.67C117.29 13.73 122.05 18.12 122.89 22.76C123.02 23.49 123 24.24 123.02 24.98C123.04 25.48 122.75 25.79 122.27 25.88C122.2 25.9 122.13 25.91 122.07 25.92C122 25.94 121.93 25.95 121.86 25.95C121.79 25.96 121.72 25.97 121.65 25.97C121.58 25.98 121.51 25.98 121.44 25.98C118.86 25.99 116.28 25.99 113.7 25.99L105.82 25.99ZM105.2 23.76C105.42 23.77 105.59 23.79 105.77 23.79C109.11 23.79 112.44 23.79 115.78 23.78C117.26 23.78 118.75 23.77 120.24 23.77C120.57 23.77 120.77 23.71 120.7 23.29C120.15 19.97 116.97 17 113.63 16.76C110.41 16.54 107.97 17.89 106.28 20.61C106.13 20.85 106 21.09 105.88 21.35C105.76 21.6 105.65 21.86 105.56 22.12C105.47 22.39 105.39 22.66 105.33 22.93C105.27 23.21 105.23 23.48 105.2 23.76ZM138.79 14.58C142.86 13.69 147.55 15.71 149.57 19.34C149.81 19.77 149.72 19.93 149.21 19.94C149.1 19.95 148.98 19.93 148.87 19.95C147.72 20.11 146.89 19.66 146.07 18.84C142.74 15.54 137.43 16.15 134.6 20.09C130.91 25.25 134.36 31.61 139.12 32.65C141.59 33.19 143.95 32.97 145.91 31.12C146.1 30.94 146.29 30.75 146.45 30.54C146.98 29.8 147.72 29.53 148.59 29.53C148.64 29.53 148.69 29.52 148.74 29.53C149.09 29.59 149.43 29.65 149.77 29.71C149.63 30.01 149.54 30.35 149.35 30.62C147.61 33.19 145.22 34.74 142.12 35.14C136.31 35.89 131.73 31.46 130.96 26.57C130.87 26.01 130.85 25.42 130.81 24.85C130.76 19.41 134.8 15.46 138.79 14.58ZM193.61 24.99C193.61 21.93 193.6 18.87 193.61 15.81C193.61 15.08 193.79 14.9 194.52 14.95C195.63 15.02 195.82 15.22 195.82 16.34L195.82 34.35C195.82 35.23 195.62 35.35 194.75 35.28C193.8 35.2 193.59 34.77 193.6 33.92C193.62 30.94 193.61 27.96 193.61 24.99ZM194.75 11.49C193.63 11.49 193.03 10.9 193.01 9.8C192.98 8.57 193.68 8.02 194.71 8.01C195.62 8.01 196.45 8.44 196.43 9.74C196.44 10.86 195.84 11.48 194.75 11.49Z" />
</svg>