<?xml version="1.0" encoding="UTF-8"?>
<svg width="256px" height="116px" viewBox="0 0 256 116" version="1.1" xmlns="http://www.w3.org/2000/svg" xmlns:xlink="http://www.w3.org/1999/xlink">
    <!-- Generator: Sketch 61.2 (89653) - https://sketch.com -->
    <title>logo_ppm</title>
    <desc>Created with Sketch.</desc>
    <g id="03-what-we-do-(SRC)" stroke="none" stroke-width="1" fill="none" fill-rule="evenodd">
        <g id="Group" fill="#FFFFFF">
            <path d="M157.795228,54.6525505 C157.048074,58.2865361 155.618155,61.6295486 153.50543,64.6816883 C151.392705,67.7338279 148.805685,70.1479423 145.744294,71.9241038 C142.682904,73.7002654 139.472838,74.5883328 136.114002,74.5883328 C134.148969,74.5883328 132.447438,74.2514796 131.009359,73.5777632 L130.758221,74.4658395 L129.748797,77.3750551 L126.960491,84.602159 L132.293169,85.3371187 L131.472631,87.3276346 L113.101946,87.3276346 L113.922484,85.3371187 L117.638054,84.602159 L132.540667,47.7929264 L129.30498,47.0273434 L130.094036,45.1899441 L141.918451,45.1899441 L140.843932,49.4159625 C144.384277,46.0882116 147.776694,44.4243611 151.021284,44.4243611 C153.694643,44.4243611 155.653554,45.3430515 156.898074,47.18046 C158.142594,49.0178685 158.441643,51.5085404 157.795228,54.6525505 Z M148.50422,55.9999766 C148.944958,53.8563334 148.94385,52.1669637 148.500897,50.9318169 C148.057944,49.6966701 147.265249,49.0791059 146.122788,49.0791059 C144.56904,49.0791059 142.370605,50.4367263 139.527415,53.1520077 L132.68679,70.0867045 C133.134431,70.5766801 133.715783,70.9441563 134.430862,71.1891441 C135.145941,71.4341319 135.789086,71.556624 136.360317,71.556624 C138.005461,71.556624 139.667159,70.8369831 141.345461,69.3976798 C143.023763,67.9583765 144.502128,66.0189189 145.780603,63.5792487 C147.059077,61.1395786 147.966941,58.6131798 148.50422,55.9999766 Z M56.2174561,14.0327009 C74.1912538,-2.65612014 107.3921,3.70752413 130.373622,28.2462982 C134.164634,32.2941924 137.44075,36.5838009 140.188005,41.0001409 C138.892532,40.9949678 137.494967,40.9894593 136.36703,40.9851899 C134.382273,37.0486807 131.793024,33.3045137 128.598995,29.8940542 C111.674467,11.8227018 84.1783111,9.96421322 67.1846129,25.7430037 C50.1909146,41.5217942 50.1348415,68.9627568 67.0593701,87.0341092 C83.9838987,105.105462 111.480054,106.96395 128.473753,91.1851597 C132.270562,87.6597907 135.22187,83.5522632 137.327199,79.0971415 C143.402046,79.1473658 147.805075,77.1646485 150.657251,75.2154476 C150.584202,86.1090264 146.92015,95.950925 139.440909,102.895463 C121.467112,119.584284 88.266265,113.220639 65.284743,88.6818652 C42.3032209,64.1430912 38.2436583,30.7215219 56.2174561,14.0327009 Z M119.681621,30.3709677 C123.230665,30.3709677 125.831236,31.5905844 127.483412,34.0298543 C129.135587,36.4691241 129.532592,39.7756404 128.674438,43.9495022 C127.682545,48.7738359 125.784243,53.2118854 122.979473,57.2637837 C120.174704,61.315682 116.740281,64.5205635 112.676101,66.8785244 C108.611921,69.2364852 104.350367,70.415448 99.8913109,70.415448 C97.2826113,70.415448 95.0237273,69.9682552 93.114591,69.0738563 L92.7811909,70.2528308 L91.4411196,74.1149888 L87.7394767,83.7094024 L94.8189257,84.6851054 L93.7296125,87.3276346 L69.3414268,87.3276346 L70.43074,84.6851054 L75.3633824,83.7094024 L95.1474946,34.8429402 L90.8519253,33.8265828 L91.8994455,31.3873251 L107.597065,31.3873251 L106.170576,36.9976178 C110.870596,32.579829 115.374233,30.3709677 119.681621,30.3709677 Z M205.526937,44.4243611 C207.537669,44.4243611 209.020612,44.9908869 209.975811,46.1239554 C210.93101,47.257024 211.19873,48.8443169 210.77898,50.8858819 C210.623673,51.641261 210.152427,52.9886736 209.365228,54.9281604 L202.759644,71.2197674 L206.58428,71.9547272 L205.723172,73.9758664 L192.493537,73.9758664 L199.571996,56.5511964 C200.561589,54.182981 201.140327,52.5905842 201.308226,51.7739582 C201.715384,49.7936402 201.096399,48.8034961 199.451255,48.8034961 C198.651532,48.8034961 197.625067,49.2118029 196.371829,50.0284289 C195.118591,50.8450549 193.933444,51.8862374 192.816354,53.1520077 C191.699263,54.417778 190.911052,55.6120756 190.451698,56.7349363 L183.513836,73.9758664 L174.362767,73.9758664 L181.441227,56.5511964 C182.430819,54.182981 183.009557,52.5905842 183.177457,51.7739582 C183.584614,49.7936402 182.942781,48.8034961 181.251938,48.8034961 C180.155175,48.8034961 178.770347,49.4823062 177.09741,50.8399469 C175.424474,52.1975877 173.97736,53.8461266 172.756026,55.7856134 L165.383067,73.9758664 L156.266271,73.9758664 L166.684259,47.9766664 L163.791308,47.2110833 L164.652416,45.1899441 L175.894179,45.1899441 L174.733594,50.3346621 C176.790093,48.3339285 178.843396,46.8487122 180.893564,45.8789688 C182.943732,44.9092255 185.111245,44.4243611 187.396168,44.4243611 C189.429749,44.4243611 190.913276,44.9602638 191.846793,46.0320855 C192.78031,47.1039071 193.063306,48.5891233 192.695788,50.4877787 C196.748633,46.4454801 201.02564,44.4243611 205.526937,44.4243611 Z M113.178573,36.5504205 C111.115881,36.5504205 108.197326,38.3527429 104.422821,41.9574417 L95.3414812,64.4392667 C95.9357521,65.0897387 96.7075311,65.5775853 97.6568415,65.9028213 C98.6061518,66.2280573 99.4599656,66.3906728 100.218309,66.3906728 C102.402336,66.3906728 104.60834,65.4353065 106.836386,63.5245451 C109.064432,61.6137837 111.027051,59.0390374 112.724303,55.8002291 C114.421554,52.5614207 115.626797,49.207475 116.340068,45.7382911 C116.925173,42.8924763 116.923702,40.6497368 116.335656,39.0100054 C115.74761,37.3702739 114.695259,36.5504205 113.178573,36.5504205 Z" id="Combined-Shape"></path>
        </g>
    </g>
</svg>