<?xml version="1.0" encoding="UTF-8"?>
<svg width="256px" height="74px" viewBox="0 0 256 74" version="1.1" xmlns="http://www.w3.org/2000/svg" xmlns:xlink="http://www.w3.org/1999/xlink">
    <!-- Generator: Sketch 61.2 (89653) - https://sketch.com -->
    <title>logo_miami_childrens_hospital</title>
    <desc>Created with Sketch.</desc>
    <g id="03-what-we-do-(SRC)" stroke="none" stroke-width="1" fill="none" fill-rule="evenodd">
        <g id="Group" fill="#FFFFFF" fill-rule="nonzero">
            <path d="M106.855736,5.15013691 C107.398272,5.15013691 107.841197,5.5751054 107.867543,6.10920064 L107.868783,6.15958214 L107.868783,70.9905548 C107.868783,71.548056 107.415226,72 106.855736,72 C106.3132,72 105.870274,71.5750315 105.843929,71.0409363 L105.842689,70.9905548 L105.842689,6.15958214 C105.842689,5.60208094 106.296246,5.15013691 106.855736,5.15013691 Z M162.851812,54.2870243 C163.291722,54.2870243 163.650097,54.4362888 163.926938,54.7348177 C164.203778,55.0333467 164.342198,55.4622459 164.342198,56.0215154 L164.342198,56.0215154 L164.342198,56.3956213 L164.562272,56.1353236 C165.078266,55.5488347 165.611681,55.1084513 166.162517,54.8141735 C166.792044,54.4778561 167.505002,54.3096974 168.301391,54.3096974 C169.257059,54.3096974 170.13688,54.5553225 170.940854,55.0465727 C171.744828,55.5378229 172.380043,56.2558039 172.8465,57.2005158 C173.312957,58.1452278 173.546185,59.2637667 173.546185,60.5561326 C173.546185,61.5084022 173.411557,62.3832055 173.142302,63.1805423 C172.873046,63.9778792 172.503294,64.6467352 172.033045,65.1871104 C171.562796,65.7274857 171.00722,66.1431589 170.366316,66.4341302 C169.725412,66.7251015 169.037104,66.8705871 168.301391,66.8705871 C167.413986,66.8705871 166.668793,66.6929812 166.065812,66.3377696 C165.462832,65.9825579 164.888293,65.4610769 164.342198,64.7733266 L164.342198,64.7733266 L164.342198,69.4213093 L164.338472,69.6202656 C164.291276,70.8480132 163.795723,71.461887 162.851812,71.461887 C162.267793,71.461887 161.880975,71.2861706 161.691358,70.9347378 C161.501742,70.5833049 161.406934,70.0712711 161.406934,69.3986362 L161.406934,69.3986362 L161.406934,56.0441884 L161.411709,55.8532167 C161.437179,55.3587008 161.564526,54.9821223 161.793751,54.7234812 C162.05163,54.4325099 162.404317,54.2870243 162.851812,54.2870243 Z M85.4057665,6.10779858 C99.768943,12.2891369 100.586578,33.6010002 88.8368854,43.3214332 C78.2823247,52.0531428 62.0896799,62.3711738 58.9892637,68.6044945 C55.8888475,62.3711738 39.6962027,52.0531428 29.141642,43.3214332 C17.3919497,33.6010002 18.2095844,12.2891369 32.5727608,6.10779858 C42.0524573,2.02811528 50.8181327,3.87065908 58.8697871,11.63543 L58.9892023,11.7514847 L59.1087403,11.63543 C67.1603947,3.87065908 75.9260701,2.02811528 85.4057665,6.10779858 Z M140.200219,54.2870243 C141.140717,54.2870243 141.993991,54.4381782 142.760042,54.740486 C143.526093,55.0427938 144.182166,55.4735824 144.728262,56.0328519 C145.274357,56.5921214 145.689618,57.2571986 145.974043,58.0280835 C146.258467,58.7989684 146.40068,59.6492091 146.40068,60.5788057 C146.40068,61.5008445 146.256571,62.3510852 145.968354,63.1295279 C145.680137,63.9079705 145.26298,64.5768265 144.716885,65.136096 C144.170789,65.6953655 143.518508,66.1242647 142.760042,66.4227936 C142.001576,66.7213226 141.148301,66.8705871 140.200219,66.8705871 C139.25972,66.8705871 138.414031,66.7194332 137.663149,66.4171254 C136.912268,66.1148175 136.261883,65.6821395 135.711995,65.1190912 C135.162107,64.5560429 134.74495,63.8909657 134.460526,63.1238596 C134.176101,62.3567535 134.033888,61.5084022 134.033888,60.5788057 C134.033888,59.6416515 134.177997,58.783853 134.466214,58.0054104 C134.754431,57.2269678 135.167795,56.5618906 135.706306,56.0101788 C136.244817,55.4584671 136.897098,55.0333467 137.663149,54.7348177 C138.4292,54.4362888 139.27489,54.2870243 140.200219,54.2870243 Z M195.936107,54.2643512 C197.301347,54.2643512 198.374576,54.4249522 199.155796,54.7461543 C199.937017,55.0673563 200.488801,55.5756113 200.811149,56.2709193 C201.133497,56.9662273 201.294671,57.8882661 201.294671,59.0370358 L201.294671,59.0370358 L201.294109,59.6886418 C201.293292,60.13892 201.291583,60.5376702 201.288983,60.8848923 C201.28519,61.3912579 201.279502,61.9543062 201.271917,62.5740373 C201.271917,63.1559798 201.368622,63.7624849 201.562031,64.3935524 C201.755439,65.02462 201.852144,65.4308461 201.852144,65.6122308 C201.852144,65.929654 201.702347,66.2187359 201.402753,66.4794764 C201.103158,66.7402168 200.763745,66.8705871 200.384512,66.8705871 C200.065956,66.8705871 199.751192,66.7213226 199.440221,66.4227936 C199.12925,66.1242647 198.799317,65.6915866 198.450423,65.1247595 C197.699541,65.706702 196.97331,66.1431589 196.271729,66.4341302 C195.570148,66.7251015 194.783239,66.8705871 193.911003,66.8705871 C193.114613,66.8705871 192.414928,66.7137649 191.811947,66.4001205 C191.208967,66.0864762 190.744406,65.6613558 190.418266,65.1247595 C190.092125,64.5881631 189.929055,64.0062205 189.929055,63.3789318 C189.929055,62.5324699 190.198311,61.81071 190.736822,61.2136521 C191.275333,60.6165942 192.014837,60.2160363 192.955335,60.0119785 C193.152537,59.9666324 193.641747,59.8646035 194.422967,59.7058919 C195.204188,59.5471803 195.873534,59.4016946 196.431007,59.269435 C196.988479,59.1371753 197.593356,58.9765743 198.245637,58.7876319 C198.207714,57.9714008 198.042747,57.3724534 197.750738,56.9907898 C197.458728,56.6091262 196.853852,56.4182944 195.936107,56.4182944 C195.147303,56.4182944 194.553803,56.527881 194.155608,56.7470541 C193.757413,56.9662273 193.416104,57.294987 193.131679,57.7333334 C192.847254,58.1716797 192.64626,58.4607615 192.528698,58.6005789 C192.411136,58.7403963 192.158946,58.810305 191.772128,58.810305 C191.423234,58.810305 191.121743,58.698829 190.867657,58.4758769 C190.613571,58.2529249 190.486528,57.9676219 190.486528,57.6199679 C190.486528,57.0758139 190.679937,56.5467752 191.066754,56.0328519 C191.453572,55.5189286 192.056553,55.0956977 192.875696,54.7631591 C193.69484,54.4306205 194.714977,54.2643512 195.936107,54.2643512 Z M129.653746,49.6843878 C130.161918,49.6843878 130.573386,49.8525465 130.88815,50.1888639 C131.202913,50.5251814 131.360295,51.0372153 131.360295,51.7249655 L131.360295,51.7249655 L131.360295,64.8186728 L131.354396,65.0414848 C131.322934,65.6184822 131.165622,66.0581348 130.882461,66.3604426 C130.563905,66.7005389 130.154334,66.8705871 129.653746,66.8705871 C129.145574,66.8705871 128.739794,66.6986495 128.436408,66.3547744 C128.133021,66.0108992 127.981328,65.4988654 127.981328,64.8186728 L127.981328,64.8186728 L127.981328,59.2297571 L120.688676,59.2297571 L120.688676,64.8186728 L120.682776,65.0414848 C120.651314,65.6184822 120.494003,66.0581348 120.210842,66.3604426 C119.892286,66.7005389 119.482714,66.8705871 118.982127,66.8705871 C118.473954,66.8705871 118.068175,66.6986495 117.764788,66.3547744 C117.461402,66.0108992 117.309709,65.4988654 117.309709,64.8186728 L117.309709,64.8186728 L117.309709,51.7249655 L117.315257,51.5045328 C117.344846,50.9335069 117.492794,50.49684 117.7591,50.1945322 C118.058694,49.8544359 118.46637,49.6843878 118.982127,49.6843878 C119.490299,49.6843878 119.901767,49.8525465 120.21653,50.1888639 C120.531294,50.5251814 120.688676,51.0372153 120.688676,51.7249655 L120.688676,51.7249655 L120.688676,56.4863136 L127.981328,56.4863136 L127.981328,51.7249655 L127.987017,51.5045328 C128.017355,50.9335069 128.169048,50.49684 128.442096,50.1945322 C128.749275,49.8544359 129.153158,49.6843878 129.653746,49.6843878 Z M184.411214,50.0811668 C184.805616,50.0811668 185.162095,50.2285418 185.480651,50.523292 C185.693021,50.719792 185.827649,50.9597489 185.884534,51.2431625 C185.941419,51.526576 185.969862,51.9290233 185.969862,52.4505043 L185.969862,52.4505043 L185.969862,54.5591013 L187.107561,54.5591013 L187.289709,54.5654636 C187.641235,54.590913 187.91614,54.6927106 188.114425,54.8708562 C188.345757,55.0786929 188.461423,55.3451016 188.461423,55.6700825 C188.461423,56.0857558 188.296457,56.376727 187.966524,56.5429963 C187.636591,56.7092656 187.164446,56.7924003 186.550088,56.7924003 L186.550088,56.7924003 L185.969862,56.7924003 L185.969862,62.4833449 L185.971284,62.7159015 C185.976024,63.088013 185.992616,63.3827107 186.021058,63.5999944 C186.055189,63.8607349 186.146205,64.0723504 186.294106,64.2348408 C186.442007,64.3973313 186.68282,64.4785765 187.016545,64.4785765 C187.198577,64.4785765 187.445078,64.4464563 187.756049,64.3822159 C188.067021,64.3179755 188.30973,64.2858553 188.484177,64.2858553 C188.734471,64.2858553 188.960115,64.3859947 189.161108,64.5862737 C189.362102,64.7865526 189.462598,65.0340671 189.462598,65.3288172 C189.462598,65.8276251 189.189551,66.2092887 188.643455,66.4738081 C188.097359,66.7383274 187.312347,66.8705871 186.288417,66.8705871 C185.317581,66.8705871 184.581868,66.7080966 184.081281,66.3831157 C183.580693,66.0581348 183.252656,65.608452 183.097171,65.0340671 C182.941685,64.4596823 182.863942,63.6925762 182.863942,62.7327489 L182.863942,62.7327489 L182.863942,56.7924003 L182.454371,56.7924003 L182.269088,56.7859223 C181.911526,56.7600102 181.631977,56.6563618 181.430441,56.4749771 C181.195317,56.2633616 181.077755,55.9950634 181.077755,55.6700825 C181.077755,55.3451016 181.201005,55.0786929 181.447507,54.8708562 C181.694008,54.6630196 182.052384,54.5591013 182.522633,54.5591013 L182.522633,54.5591013 L182.863942,54.5591013 L182.863942,52.6999082 C182.863942,52.2011003 182.877216,51.8099896 182.903762,51.526576 C182.930308,51.2431625 183.004259,50.9994268 183.125613,50.795369 C183.246968,50.5837535 183.421415,50.411816 183.648955,50.2795563 C183.876495,50.1472966 184.130581,50.0811668 184.411214,50.0811668 Z M177.573641,54.2870243 C178.02872,54.2870243 178.404161,54.441957 178.699963,54.7518225 C178.995765,55.061688 179.143666,55.4924767 179.143666,56.0441884 L179.143666,56.0441884 L179.143666,64.9887209 L179.138188,65.1896996 C179.108973,65.7107141 178.962898,66.1122983 178.699963,66.3944523 C178.404161,66.7118755 178.02872,66.8705871 177.573641,66.8705871 C177.118561,66.8705871 176.748809,66.7080966 176.464384,66.3831157 C176.179959,66.0581348 176.037747,65.5933366 176.037747,64.9887209 L176.037747,64.9887209 L176.037747,56.1348808 L176.043014,55.9364213 C176.071105,55.4221248 176.211562,55.0272585 176.464384,54.7518225 C176.748809,54.441957 177.118561,54.2870243 177.573641,54.2870243 Z M153.158614,54.2870243 C153.962588,54.2870243 154.685027,54.3701589 155.325931,54.5364282 C155.966835,54.7026975 156.501553,54.9256495 156.930087,55.2052843 C157.35862,55.484919 157.684761,55.7947845 157.908508,56.1348808 C158.132256,56.4749771 158.24413,56.8075157 158.24413,57.1324966 C158.24413,57.4877083 158.124671,57.7786795 157.885754,58.0054104 C157.646837,58.2321413 157.307424,58.3455067 156.867513,58.3455067 C156.548958,58.3455067 156.277806,58.2548143 156.054058,58.0734297 C155.830311,57.892045 155.574329,57.6199679 155.286111,57.2571986 C155.050987,56.9548907 154.774147,56.7130445 154.455591,56.5316598 C154.137035,56.3502751 153.704709,56.2595828 153.158614,56.2595828 C152.597349,56.2595828 152.130892,56.3786165 151.759244,56.6166839 C151.387595,56.8547513 151.201771,57.1513908 151.201771,57.5066025 C151.201771,57.8315834 151.338295,58.0979922 151.611343,58.3058288 C151.88439,58.5136654 152.252247,58.685603 152.714911,58.8216415 C153.177575,58.95768 153.814687,59.1239493 154.626246,59.3204494 C155.589498,59.554738 156.376407,59.8343727 156.986972,60.1593536 C157.597537,60.4843345 158.060201,60.8678875 158.374965,61.3100127 C158.689728,61.7521379 158.84711,62.2566141 158.84711,62.8234412 C158.84711,63.6774608 158.638532,64.4086678 158.221376,65.0170623 C157.804219,65.6254568 157.187965,66.0864762 156.372614,66.4001205 C155.557263,66.7137649 154.565568,66.8705871 153.397531,66.8705871 C152.282585,66.8705871 151.326918,66.7005389 150.530528,66.3604426 C149.734139,66.0203464 149.146327,65.595226 148.767094,65.0850816 C148.387861,64.5749371 148.198245,64.0629033 148.198245,63.54898 C148.198245,63.2088837 148.319599,62.9179124 148.562308,62.6760661 C148.805018,62.4342199 149.112196,62.3132968 149.483845,62.3132968 C149.809985,62.3132968 150.060279,62.3926526 150.234726,62.5513642 C150.409174,62.7100758 150.576036,62.9330278 150.735314,63.2202202 C151.05387,63.771932 151.434999,64.1838264 151.878702,64.4559034 C152.322405,64.7279804 152.927281,64.864019 153.693332,64.864019 C154.315275,64.864019 154.825343,64.726091 155.223538,64.4502351 C155.621733,64.1743793 155.82083,63.8588455 155.82083,63.5036338 C155.82083,62.9594797 155.614148,62.5627007 155.200784,62.3132968 C154.78742,62.0638928 154.106696,61.8258254 153.158614,61.5990946 C152.089176,61.3345752 151.218836,61.0568299 150.547594,60.7658586 C149.876351,60.4748874 149.339736,60.0913343 148.937749,59.6151995 C148.535762,59.1390647 148.334769,58.5533433 148.334769,57.8580353 C148.334769,57.2383043 148.520593,56.6525829 148.892241,56.1008712 C149.26389,55.5491594 149.811882,55.1089236 150.536217,54.7801639 C151.260552,54.4514041 152.134684,54.2870243 153.158614,54.2870243 Z M205.981992,49.6843878 C206.452241,49.6843878 206.831474,49.84121 207.119692,50.1548543 C207.407909,50.4684987 207.552017,50.9389652 207.552017,51.5662539 L207.552017,51.5662539 L207.552017,64.9887209 L207.54661,65.1920089 C207.517769,65.7186217 207.373567,66.1213256 207.114003,66.4001205 C206.821994,66.7137649 206.444657,66.8705871 205.981992,66.8705871 C205.526913,66.8705871 205.15716,66.7080966 204.872735,66.3831157 C204.588311,66.0581348 204.446098,65.5933366 204.446098,64.9887209 L204.446098,64.9887209 L204.446098,51.5662539 L204.451225,51.3652752 C204.478567,50.8442608 204.615278,50.4426766 204.861359,50.1605226 C205.138199,49.8430994 205.511743,49.6843878 205.981992,49.6843878 Z M198.245637,60.6468249 L198.086289,60.7025979 C197.640948,60.852259 197.032302,61.0093844 196.260352,61.1739742 C195.391908,61.3591377 194.790824,61.4951762 194.457098,61.5820897 C194.123373,61.6690032 193.804817,61.8390514 193.501431,62.0922342 C193.198044,62.345417 193.046351,62.6987392 193.046351,63.152201 C193.046351,63.6207781 193.224591,64.0194465 193.58107,64.3482063 C193.937549,64.676966 194.404006,64.8413459 194.98044,64.8413459 C195.594798,64.8413459 196.161751,64.7071968 196.681301,64.4388986 C197.20085,64.1706004 197.581979,63.8248358 197.824688,63.4016049 C198.105321,62.9330278 198.245637,62.1621429 198.245637,61.0889501 L198.245637,61.0889501 L198.245637,60.6468249 Z M140.200219,56.577006 C139.593446,56.577006 139.058727,56.7338282 138.596063,57.0474725 C138.133398,57.3611169 137.776919,57.8240257 137.526625,58.436199 C137.276331,59.0483724 137.151184,59.7625746 137.151184,60.5788057 C137.151184,61.3874791 137.274435,62.0941236 137.520937,62.6987392 C137.767438,63.3033549 138.120125,63.7662637 138.578997,64.0874658 C139.037869,64.4086678 139.578276,64.5692688 140.200219,64.5692688 C141.140717,64.5692688 141.889702,64.2159466 142.447175,63.5093021 C143.004647,62.8026575 143.283384,61.8258254 143.283384,60.5788057 C143.283384,59.3166705 143.004647,58.3341701 142.447175,57.6313045 C141.889702,56.9284388 141.140717,56.577006 140.200219,56.577006 Z M167.539133,56.5996791 C166.682066,56.5996791 165.959627,56.9359965 165.371816,57.6086314 C164.784004,58.2812663 164.490099,59.2713244 164.490099,60.5788057 C164.490099,61.81071 164.782108,62.7686479 165.366127,63.4526193 C165.950146,64.1365908 166.674481,64.4785765 167.539133,64.4785765 C168.05489,64.4785765 168.532724,64.329312 168.972634,64.030783 C169.412544,63.7322541 169.765231,63.2844606 170.030694,62.6874027 C170.296157,62.0903448 170.428889,61.3685848 170.428889,60.522123 C170.428889,59.7058919 170.303742,59.0049156 170.053448,58.4191942 C169.803154,57.8334728 169.456156,57.38379 169.012453,57.0701456 C168.568751,56.7565012 168.077644,56.5996791 167.539133,56.5996791 Z M177.607772,49.8204263 C178.009759,49.8204263 178.366238,49.9489071 178.677209,50.2058688 C178.98818,50.4628304 179.143666,50.8369363 179.143666,51.3281865 C179.143666,51.8043213 178.991973,52.1765378 178.688586,52.444836 C178.3852,52.7131342 178.024928,52.8472833 177.607772,52.8472833 C177.175446,52.8472833 176.805694,52.7150236 176.498515,52.4505043 C176.191336,52.185985 176.037747,51.811879 176.037747,51.3281865 C176.037747,50.8898402 176.195128,50.5289602 176.509892,50.2455467 C176.824655,49.9621331 177.190615,49.8204263 177.607772,49.8204263 Z M74.2113094,17.4384536 C73.7947301,18.0960552 73.5115007,18.5455327 73.3616211,18.7868861 C70.5477115,18.7762067 68.4507174,18.5802817 67.0706386,18.199111 C65.0005206,17.6273549 62.055858,17.7993746 60.87364,18.7868861 C59.691422,19.7743975 58.3924662,20.0881241 55.7359383,19.4375051 C53.0794105,18.7868861 40.624571,16.2755953 39.3236366,26.100435 C38.5769596,30.8669585 40.8805534,36.0733891 41.2206265,40.4231714 C41.447342,43.3230263 41.447342,44.9759436 41.2206265,45.3819232 L50.5434245,45.3817067 C50.5434467,45.3659542 50.5440566,45.3500855 50.5452738,45.3341231 C50.7173121,43.0780047 49.3751107,41.400801 47.7197279,40.6602339 C47.300807,40.4728217 47.21516,39.9172917 47.5583087,39.6132239 C49.7240112,37.6941711 50.9813298,35.0084338 51.328092,31.5227455 C51.3612064,31.1898762 51.6482762,30.9431905 51.9790557,30.9543979 L52.0206156,30.9571545 C52.3685916,30.991526 52.6227188,31.300477 52.5882247,31.6472158 C52.2473569,35.073653 51.0726132,37.8399859 49.0623846,39.9215761 L49.0353168,39.9491758 L49.0449221,39.9553469 C49.5519455,40.2895443 50.0523477,40.7231649 50.4779183,41.2321641 L50.5620144,41.3349619 C51.454632,42.4503694 51.9198052,43.8105432 51.8114517,45.3814054 L55.146808,45.3819232 C55.5024627,42.8910054 54.7449033,41.2380881 52.8741299,40.4231714 C52.9540987,39.5343207 53.3351455,38.4725467 54.0172704,37.2378493 L58.1230105,37.2374856 C57.8240497,36.0715282 57.9664883,35.0559011 58.5764291,34.2338741 L58.6256738,34.1693674 L59.5127436,32.2391428 C59.6583699,31.9223579 60.0341447,31.7831867 60.35206,31.9282952 C60.6567288,32.0673576 60.7976946,32.4170375 60.6807418,32.7247499 L60.6640167,32.7646275 L59.7440879,34.7657738 C59.7213592,34.8152161 59.6923105,34.8615226 59.6576642,34.9035418 C59.1903889,35.4702548 59.1049355,36.2259437 59.4417735,37.2376941 L59.4747645,37.2378493 L61.5233652,45.3819232 L69.9383474,45.3818723 C69.9383685,45.3643277 69.9391197,45.3466413 69.9406276,45.3288446 C70.1433088,42.936811 69.7315033,42.0851238 68.1680088,41.5072366 L68.027051,41.4569249 C66.5106556,40.9338256 65.7218109,39.989513 65.8418859,38.7027311 L65.8453127,38.6717228 L65.8452623,36.0441852 C65.8452623,35.7096845 66.1065109,35.4359847 66.4367866,35.4146239 L66.4784167,35.4132819 C66.8141109,35.4132819 67.0887873,35.6736017 67.1102243,36.0027032 L67.1115711,36.0441852 L67.1115711,38.7037136 L67.1104721,38.7408703 L67.1071788,38.777898 C67.0304369,39.4237199 67.3899619,39.8843865 68.3632029,40.2369398 L68.441316,40.2645498 C70.7027503,41.0446595 71.4473796,42.420373 71.2069784,45.3803936 L74.7983375,45.3819232 C75.1488808,42.4166779 73.78595,40.3180209 70.7095451,39.0859522 C70.69553,37.6056297 70.69553,35.4622016 70.7095451,32.6556678 C71.8487284,31.499669 73.368876,30.6167331 75.2699881,30.0068599 C78.1216561,29.0920502 79.2504517,27.4236068 80.4212926,27.4236068 C81.5921336,27.4236068 84.7577819,27.2022977 85.9301069,25.1533408 C86.5465273,24.0759784 86.9307031,23.1670498 87.0826343,22.4265549 C87.138905,22.1525042 86.9623198,21.8847519 86.6882607,21.8285218 C86.6697649,21.8247269 86.6510714,21.8219691 86.6322677,21.8202612 L84.1752038,21.5970958 C83.6856274,21.5526295 83.2235461,21.3510764 82.8578927,21.0225039 L81.7438548,20.0214408 C81.3254709,19.6454853 80.7828509,19.4375051 80.2203675,19.4375051 L78.3002387,19.4375051 C77.9445262,19.4375051 77.605216,19.2878936 77.3653036,19.0252655 L75.752521,17.2597798 C75.1416259,16.721294 74.6278887,16.7808519 74.2113094,17.4384536 Z M135.785945,27.9813154 C136.278948,27.9813154 136.66387,28.140027 136.94071,28.4574502 C137.21755,28.7748734 137.35597,29.2434505 137.35597,29.8631815 L137.35597,29.8631815 L137.35597,34.4544815 L137.552381,34.2356232 C137.878417,33.8839805 138.197868,33.5979427 138.510735,33.3775099 C138.886176,33.1129906 139.301436,32.9146011 139.756516,32.7823414 C140.211596,32.6500817 140.700806,32.5839519 141.224148,32.5839519 C142.012953,32.5839519 142.712638,32.7502212 143.323203,33.0827598 C143.933768,33.4152984 144.413498,33.8989909 144.762393,34.5338373 C144.982348,34.9041644 145.130249,35.3179482 145.206096,35.7751888 C145.281942,36.2324293 145.319865,36.7595786 145.319865,37.3566365 L145.319865,37.3566365 L145.319865,43.2856486 L145.314598,43.4866273 C145.286507,44.0076417 145.14605,44.4092259 144.893228,44.6913799 C144.608803,45.0088031 144.231466,45.1675147 143.761217,45.1675147 C142.737288,45.1675147 142.225323,44.540226 142.225323,43.2856486 L142.225323,43.2856486 L142.225323,38.0595022 L142.220886,37.7693434 C142.194264,36.9194427 142.047842,36.2547245 141.781621,35.7751888 C141.485819,35.2423712 140.924554,34.9759625 140.097826,34.9759625 C139.544145,34.9759625 139.045454,35.1327847 138.601751,35.446429 C138.158048,35.7600734 137.826219,36.1889726 137.606264,36.7331267 C137.439402,37.1941461 137.35597,38.014156 137.35597,39.1931565 L137.35597,39.1931565 L137.35597,43.2856486 L137.350844,43.484318 C137.323501,43.9997341 137.18679,44.4001987 136.94071,44.6857116 C136.66387,45.0069137 136.278948,45.1675147 135.785945,45.1675147 C134.762016,45.1675147 134.250051,44.540226 134.250051,43.2856486 L134.250051,43.2856486 L134.250051,29.8631815 L134.255037,29.6598935 C134.281631,29.1332808 134.414596,28.7305769 134.653934,28.4517819 C134.92319,28.1381376 135.300527,27.9813154 135.785945,27.9813154 Z M225.311503,32.5839519 C226.115478,32.5839519 226.837917,32.6670865 227.478821,32.8333558 C228.119725,32.9996251 228.654443,33.2225771 229.082977,33.5022119 C229.51151,33.7818466 229.837651,34.0917121 230.061398,34.4318084 C230.285146,34.7719047 230.397019,35.1044433 230.397019,35.4294242 C230.397019,35.7846359 230.277561,36.0756072 230.038644,36.302338 C229.799727,36.5290689 229.460314,36.6424343 229.020403,36.6424343 C228.701847,36.6424343 228.430696,36.551742 228.206948,36.3703573 C227.983201,36.1889726 227.727218,35.9168956 227.439001,35.5541262 C227.203877,35.2518184 226.927036,35.0099721 226.608481,34.8285874 C226.289925,34.6472027 225.857599,34.5565104 225.311503,34.5565104 C224.750238,34.5565104 224.283782,34.6755441 223.912133,34.9136115 C223.540485,35.1516789 223.354661,35.4483184 223.354661,35.8035301 C223.354661,36.128511 223.491185,36.3949198 223.764232,36.6027564 C224.03728,36.810593 224.405136,36.9825306 224.867801,37.1185691 C225.330465,37.2546076 225.967577,37.4208769 226.779136,37.617377 C227.742388,37.8516656 228.529296,38.1313003 229.139862,38.4562812 C229.750427,38.7812621 230.213091,39.1648151 230.527855,39.6069403 C230.842618,40.0490655 231,40.5535417 231,41.1203688 C231,41.9743884 230.791422,42.7055954 230.374265,43.3139899 C229.957109,43.9223844 229.340855,44.3834038 228.525504,44.6970482 C227.710153,45.0106925 226.718458,45.1675147 225.55042,45.1675147 C224.435475,45.1675147 223.479808,44.9974666 222.683418,44.6573703 C221.887029,44.317274 221.299217,43.8921536 220.919984,43.3820092 C220.540751,42.8718647 220.351135,42.3598309 220.351135,41.8459076 C220.351135,41.5058113 220.472489,41.21484 220.715198,40.9729938 C220.957907,40.7311475 221.265086,40.6102244 221.636735,40.6102244 C221.962875,40.6102244 222.213169,40.6895802 222.387616,40.8482918 C222.562063,41.0070034 222.728926,41.2299554 222.888204,41.5171478 C223.20676,42.0688596 223.587889,42.480754 224.031592,42.752831 C224.475294,43.0249081 225.080171,43.1609466 225.846222,43.1609466 C226.468164,43.1609466 226.978233,43.0230186 227.376428,42.7471628 C227.774622,42.4713069 227.97372,42.1557731 227.97372,41.8005614 C227.97372,41.2564073 227.767038,40.8596283 227.353674,40.6102244 C226.94031,40.3608204 226.259586,40.122753 225.311503,39.8960222 C224.242066,39.6315028 223.371726,39.3537575 222.700484,39.0627863 C222.029241,38.771815 221.492626,38.3882619 221.090639,37.9121271 C220.688652,37.4359923 220.487658,36.8502709 220.487658,36.154963 C220.487658,35.5352319 220.673483,34.9495105 221.045131,34.3977988 C221.41678,33.846087 221.964771,33.4058513 222.689107,33.0770915 C223.413442,32.7483318 224.287574,32.5839519 225.311503,32.5839519 Z M206.48258,32.5839519 C207.301724,32.5839519 208.033643,32.7615577 208.67834,33.1167694 C209.323036,33.4719811 209.804662,33.9745678 210.123218,34.6245296 C210.328004,35.0024144 210.460735,35.41053 210.521413,35.8488763 C210.58209,36.2872226 210.612428,36.8464921 210.612428,37.5266847 L210.612428,37.5266847 L210.612428,43.2856486 L210.607161,43.4866273 C210.57907,44.0076417 210.438613,44.4092259 210.185791,44.6913799 C209.901366,45.0088031 209.531614,45.1675147 209.076534,45.1675147 C208.61387,45.1675147 208.238429,45.0050243 207.950212,44.6800434 C207.661995,44.3550624 207.517886,43.8902642 207.517886,43.2856486 L207.517886,43.2856486 L207.517886,38.1275215 L207.51362,37.8286335 C207.488022,36.9535657 207.347231,36.272863 207.091249,35.7865253 C206.806824,35.2461501 206.239871,34.9759625 205.390389,34.9759625 C204.836708,34.9759625 204.332328,35.1403424 203.877249,35.4691021 C203.422169,35.7978618 203.088444,36.2494341 202.876073,36.823819 C202.72438,37.2848384 202.648533,38.1464157 202.648533,39.4085508 L202.648533,39.4085508 L202.648533,43.2856486 L202.643126,43.4889366 C202.614285,44.0155493 202.470083,44.4182532 202.210519,44.6970482 C201.91851,45.0106925 201.541173,45.1675147 201.078508,45.1675147 C200.631013,45.1675147 200.263157,45.0050243 199.97494,44.6800434 C199.686723,44.3550624 199.542614,43.8902642 199.542614,43.2856486 L199.542614,43.2856486 L199.542614,34.3411161 L199.54739,34.1501443 C199.572859,33.6556284 199.700207,33.2790499 199.929432,33.0204088 C200.187311,32.7294375 200.539997,32.5839519 200.987492,32.5839519 C201.26054,32.5839519 201.507042,32.6481923 201.726997,32.7766731 C201.946952,32.9051539 202.123296,33.0978752 202.256027,33.3548368 C202.388759,33.6117985 202.455124,33.9254428 202.455124,34.2957699 L202.455124,34.2957699 L202.455124,34.6698758 L202.639053,34.4376166 C203.134584,33.8371064 203.670567,33.3873769 204.247001,33.0884281 C204.895489,32.7521106 205.640683,32.5839519 206.48258,32.5839519 Z M124.579607,27.9813154 C125.929677,27.9813154 127.131846,28.2496136 128.186114,28.78621 C129.240382,29.3228063 130.048148,29.9859941 130.609413,30.7757733 C131.170678,31.5655524 131.451311,32.3118749 131.451311,33.0147405 C131.451311,33.400183 131.314787,33.7402793 131.041739,34.0350294 C130.768691,34.3297795 130.438759,34.4771546 130.051941,34.4771546 C129.619615,34.4771546 129.295371,34.3751257 129.079208,34.1710679 C128.863045,33.9670101 128.622232,33.6155773 128.356769,33.1167694 C127.916858,32.2929806 127.399205,31.6770284 126.803809,31.2689129 C126.208413,30.8607973 125.474597,30.6567396 124.602361,30.6567396 C123.214368,30.6567396 122.108903,31.1819994 121.285968,32.2325191 C120.463032,33.2830387 120.051564,34.7756835 120.051564,36.7104536 C120.051564,38.0028195 120.233596,39.0779016 120.59766,39.9357001 C120.961723,40.7934985 121.47748,41.4340132 122.144931,41.8572441 C122.812381,42.2804751 123.593601,42.4920905 124.488591,42.4920905 C125.459428,42.4920905 126.280468,42.2521337 126.95171,41.7722201 C127.622953,41.2923064 128.129229,40.5875513 128.470539,39.6579548 C128.614647,39.2196084 128.792887,38.8625073 129.005257,38.5866514 C129.217628,38.3107956 129.558938,38.1728676 130.029187,38.1728676 C130.431174,38.1728676 130.776276,38.312685 131.064493,38.5923197 C131.35271,38.8719544 131.496819,39.2196084 131.496819,39.6352817 C131.496819,40.1643204 131.365983,40.7368158 131.104313,41.352768 C130.842642,41.9687201 130.431174,42.5733358 129.869909,43.1666148 C129.308644,43.7598939 128.591893,44.241697 127.719657,44.6120241 C126.847421,44.9823512 125.831076,45.1675147 124.670623,45.1675147 C123.790802,45.1675147 122.99062,45.0843801 122.270078,44.9181108 C121.549535,44.7518415 120.895358,44.4929904 120.307546,44.1415576 C119.719735,43.7901247 119.179328,43.3272159 118.686325,42.752831 C118.246414,42.23135 117.870974,41.6475181 117.560002,41.0013351 C117.249031,40.3551522 117.015803,39.6655125 116.860317,38.932416 C116.704832,38.1993196 116.627089,37.4208769 116.627089,36.5970881 C116.627089,35.2593761 116.822394,34.0614813 117.213004,33.003404 C117.603614,31.9453266 118.162983,31.0402926 118.891111,30.2883019 C119.619238,29.5363112 120.472513,28.9638158 121.450934,28.5708156 C122.429355,28.1778155 123.472246,27.9813154 124.579607,27.9813154 Z M181.271163,32.5839519 C181.923444,32.5839519 182.556764,32.7464423 183.171121,33.0714232 C183.785479,33.3964041 184.092658,33.8271928 184.092658,34.3637891 C184.092658,34.7416739 183.961822,35.0534289 183.700151,35.299054 C183.438481,35.5446791 183.155952,35.6674916 182.852565,35.6674916 C182.738796,35.6674916 182.463852,35.5975829 182.027733,35.4577656 C181.591615,35.3179482 181.206694,35.2480395 180.872969,35.2480395 C180.417889,35.2480395 180.046241,35.3670732 179.758023,35.6051406 C179.469806,35.843208 179.246059,36.1965303 179.086781,36.6651074 C178.927503,37.1336845 178.817525,37.6910645 178.756848,38.3372475 C178.696171,38.9834305 178.665832,39.7713202 178.665832,40.7009167 L178.665832,40.7009167 L178.665832,43.2856486 L178.660354,43.4889366 C178.631139,44.0155493 178.485064,44.4182532 178.222129,44.6970482 C177.926327,45.0106925 177.550887,45.1675147 177.095807,45.1675147 C176.648312,45.1675147 176.280456,45.0088031 175.992239,44.6913799 C175.704022,44.3739567 175.559913,43.9053796 175.559913,43.2856486 L175.559913,43.2856486 L175.559913,34.6698758 L175.563696,34.4664982 C175.611612,33.2114673 176.114731,32.5839519 177.073053,32.5839519 C177.58881,32.5839519 177.960458,32.7464423 178.187998,33.0714232 C178.415538,33.3964041 178.540685,33.8763178 178.563439,34.5111642 C178.935088,33.8763178 179.316217,33.3964041 179.706827,33.0714232 C180.097437,32.7464423 180.618883,32.5839519 181.271163,32.5839519 Z M191.294294,32.5612788 C192.50784,32.5612788 193.548835,32.816351 194.417279,33.3264955 C195.285723,33.8366399 195.936107,34.4960488 196.368433,35.3047222 C196.800759,36.1133956 197.016922,36.9371844 197.016922,37.7760886 C197.016922,38.5545312 196.793174,39.0590074 196.345679,39.2895171 C195.898184,39.5200268 195.268657,39.6352817 194.457098,39.6352817 L194.457098,39.6352817 L188.381784,39.6352817 L188.390939,39.8949594 C188.427025,40.4917811 188.566186,41.0249529 188.808421,41.4944747 C189.085261,42.0310711 189.453118,42.4354078 189.91199,42.7074849 C190.370862,42.9795619 190.877138,43.1156004 191.430818,43.1156004 C191.802467,43.1156004 192.14188,43.0721437 192.449059,42.9852302 C192.756238,42.8983167 193.053936,42.7622781 193.342153,42.5771146 C193.63037,42.3919511 193.895833,42.1935616 194.138543,41.9819461 C194.381252,41.7703306 194.696015,41.4831382 195.082833,41.1203688 C195.242111,40.9843303 195.469651,40.916311 195.765453,40.916311 C196.084008,40.916311 196.341887,41.0032245 196.539088,41.1770515 C196.736289,41.3508785 196.83489,41.5965036 196.83489,41.9139268 C196.83489,42.1935616 196.724912,42.5204319 196.504957,42.8945378 C196.285002,43.2686437 195.953173,43.6276343 195.50947,43.9715094 C195.065767,44.3153845 194.508295,44.6006875 193.837052,44.8274184 C193.16581,45.0541493 192.39407,45.1675147 191.521834,45.1675147 C189.527068,45.1675147 187.976005,44.6006875 186.868644,43.4670332 C185.761283,42.3333789 185.207603,40.7953879 185.207603,38.8530602 C185.207603,37.9385791 185.344127,37.0902278 185.617175,36.3080063 C185.890223,35.5257848 186.288417,34.8550393 186.811759,34.2957699 C187.335101,33.7365004 187.979797,33.3076012 188.745848,33.0090723 C189.511899,32.7105433 190.361381,32.5612788 191.294294,32.5612788 Z M149.927548,32.5839519 C150.382627,32.5839519 150.758068,32.7388846 151.05387,33.0487502 C151.349672,33.3586157 151.497573,33.7894043 151.497573,34.3411161 L151.497573,34.3411161 L151.497573,43.2856486 L151.492095,43.4866273 C151.46288,44.0076417 151.316805,44.4092259 151.05387,44.6913799 C150.758068,45.0088031 150.382627,45.1675147 149.927548,45.1675147 C149.472468,45.1675147 149.102716,45.0050243 148.818291,44.6800434 C148.533866,44.3550624 148.391654,43.8902642 148.391654,43.2856486 L148.391654,43.2856486 L148.391654,34.4318084 L148.396921,34.2333489 C148.425012,33.7190524 148.565469,33.3241862 148.818291,33.0487502 C149.102716,32.7388846 149.472468,32.5839519 149.927548,32.5839519 Z M156.241779,27.9813154 C156.712028,27.9813154 157.091261,28.1381376 157.379478,28.4517819 C157.667695,28.7654263 157.811804,29.2358928 157.811804,29.8631815 L157.811804,29.8631815 L157.811804,43.2856486 L157.806396,43.4889366 C157.777556,44.0155493 157.633354,44.4182532 157.37379,44.6970482 C157.08178,45.0106925 156.704443,45.1675147 156.241779,45.1675147 C155.786699,45.1675147 155.416947,45.0050243 155.132522,44.6800434 C154.848097,44.3550624 154.705885,43.8902642 154.705885,43.2856486 L154.705885,43.2856486 L154.705885,29.8631815 L154.711011,29.6622028 C154.738354,29.1411884 154.875065,28.7396042 155.121145,28.4574502 C155.397985,28.140027 155.77153,27.9813154 156.241779,27.9813154 Z M170.997739,27.9813154 C171.467988,27.9813154 171.830155,28.1305799 172.084242,28.4291088 C172.338328,28.7276378 172.465371,29.1678736 172.465371,29.7498161 L172.465371,29.7498161 L172.465371,43.399014 L172.460314,43.5900557 C172.433347,44.0849448 172.298508,44.4633894 172.055799,44.7253895 C171.782751,45.0201396 171.430064,45.1675147 170.997739,45.1675147 C170.572998,45.1675147 170.222207,45.0144714 169.945367,44.7083847 C169.668527,44.402298 169.530107,43.9658411 169.530107,43.399014 L169.530107,43.399014 L169.530107,43.0929273 L169.322002,43.3235945 C168.975952,43.695706 168.633852,44.0061488 168.295703,44.254923 C167.889923,44.553452 167.450013,44.7801828 166.975972,44.9351156 C166.50193,45.0900483 165.984277,45.1675147 165.423012,45.1675147 C164.679715,45.1675147 163.991407,45.0106925 163.358088,44.6970482 C162.724769,44.3834038 162.176777,43.9356104 161.714112,43.3536678 C161.251448,42.7717253 160.900657,42.0877538 160.661741,41.3017535 C160.422824,40.5157532 160.303365,39.6655125 160.303365,38.7510313 C160.303365,36.8162613 160.777407,35.3085011 161.725489,34.2277506 C162.673572,33.1470002 163.921249,32.606625 165.46852,32.606625 C166.36351,32.606625 167.118184,32.7596683 167.732542,33.065755 C168.346899,33.3718416 168.946088,33.8423082 169.530107,34.4771546 L169.530107,34.4771546 L169.530107,29.9085277 L169.534812,29.7026505 C169.559907,29.1689466 169.685382,28.7576587 169.911236,28.4687867 C170.165322,28.1438058 170.52749,27.9813154 170.997739,27.9813154 Z M166.355926,34.8966067 C165.787076,34.8966067 165.278904,35.0572077 164.831409,35.3784098 C164.383913,35.6996118 164.036915,36.1606312 163.790414,36.761468 C163.543912,37.3623048 163.420661,38.0595022 163.420661,38.8530602 C163.420661,39.6919644 163.551497,40.4061666 163.813168,40.9956669 C164.074838,41.5851671 164.433214,42.0291817 164.888293,42.3277107 C165.343373,42.6262396 165.840169,42.7755041 166.37868,42.7755041 C166.924775,42.7755041 167.423467,42.6337973 167.874754,42.3503837 C168.326042,42.0669702 168.686313,41.6324027 168.955568,41.0466813 C169.224824,40.4609599 169.359452,39.7297529 169.359452,38.8530602 C169.359452,38.0292714 169.224824,37.3207375 168.955568,36.7274584 C168.686313,36.1341793 168.322249,35.6807176 167.863377,35.3670732 C167.404505,35.0534289 166.902021,34.8966067 166.355926,34.8966067 Z M191.191901,34.715222 C190.418266,34.715222 189.78305,34.9816307 189.286255,35.5144483 C188.78946,36.0472658 188.487969,36.8351555 188.381784,37.8781175 L188.381784,37.8781175 L194.013396,37.8781175 C193.937549,36.8200402 193.651228,36.0283716 193.154433,35.5031117 C192.657637,34.9778519 192.00346,34.715222 191.191901,34.715222 Z M215.766206,27.9813154 C216.115101,27.9813154 216.441241,28.0814549 216.744628,28.2817338 C217.048014,28.4820127 217.283139,28.772984 217.450001,29.1546476 C217.616864,29.5363112 217.700295,30.0029989 217.700295,30.5547107 C217.700295,31.3029225 217.541017,32.0038988 217.222461,32.6576394 C216.903906,33.3113801 216.515192,33.8290822 216.05632,34.2107458 C215.597448,34.5924094 215.182187,34.7832412 214.810539,34.7832412 C214.575414,34.7832412 214.383902,34.7095537 214.236001,34.5621787 C214.0881,34.4148036 214.014149,34.2353083 214.014149,34.0236929 C214.014149,33.6835966 214.169635,33.4341926 214.480606,33.275481 C214.882593,33.0411925 215.197357,32.7842308 215.424897,32.5045961 C215.652436,32.2249614 215.781376,31.862192 215.811714,31.4162879 L215.811714,31.4162879 L215.641059,31.4162879 L215.483648,31.4082284 C215.12071,31.370617 214.788259,31.201366 214.486295,30.9004752 C214.141192,30.5566001 213.968641,30.150374 213.968641,29.6817969 C213.968641,29.1981044 214.141192,28.7937677 214.486295,28.4687867 C214.831397,28.1438058 215.258034,27.9813154 215.766206,27.9813154 Z M149.961679,28.1173539 C150.363666,28.1173539 150.720145,28.2458347 151.031116,28.5027964 C151.342087,28.759758 151.497573,29.1338639 151.497573,29.6251141 C151.497573,30.101249 151.345879,30.4734655 151.042493,30.7417636 C150.739106,31.0100618 150.378835,31.1442109 149.961679,31.1442109 C149.529353,31.1442109 149.159601,31.0119512 148.852422,30.7474319 C148.545243,30.4829126 148.391654,30.1088066 148.391654,29.6251141 C148.391654,29.1867678 148.549035,28.8258879 148.863799,28.5424743 C149.178562,28.2590607 149.544522,28.1173539 149.961679,28.1173539 Z M129.722008,6.27824301 C130.207426,6.27824301 130.590452,6.43884404 130.871084,6.76004609 C131.151717,7.08124815 131.292033,7.56305123 131.292033,8.20545534 L131.292033,8.20545534 L131.292033,21.2764895 L131.288272,21.4708737 C131.235618,22.7999195 130.630099,23.4644423 129.471714,23.4644423 C129.168328,23.4644423 128.89528,23.4209856 128.652571,23.3340721 C128.409861,23.2471586 128.182322,23.1092306 127.969951,22.9202883 C127.757581,22.7313459 127.560379,22.5102833 127.378347,22.2571005 C127.196316,22.0039177 127.014284,21.7450666 126.832252,21.4805473 L126.832252,21.4805473 L120.495267,11.7991395 L120.495267,21.53723 L120.489789,21.7431072 C120.460574,22.2768111 120.314499,22.6880991 120.051564,22.976971 C119.755762,23.3019519 119.376529,23.4644423 118.913865,23.4644423 C118.436031,23.4644423 118.053005,23.3000624 117.764788,22.9713027 C117.476571,22.6425429 117.332463,22.1645187 117.332463,21.53723 L117.332463,21.53723 L117.332463,8.71559978 L117.336178,8.48956299 C117.351037,8.05183361 117.410476,7.70016942 117.514494,7.43457041 C117.658603,7.09447411 117.89752,6.81672881 118.231245,6.60133449 C118.56497,6.38594017 118.925242,6.27824301 119.312059,6.27824301 C119.615446,6.27824301 119.875221,6.32736803 120.091383,6.42561807 C120.307546,6.52386811 120.497163,6.65612778 120.660233,6.82239708 C120.823303,6.98866638 120.990166,7.2040607 121.160821,7.46858004 C121.331476,7.73309938 121.507819,8.00895526 121.689851,8.29614768 L121.689851,8.29614768 L128.186114,18.0909209 L128.186114,8.20545534 L128.191241,7.99726882 C128.218583,7.45796661 128.355294,7.04555903 128.601374,6.76004609 C128.878214,6.43884404 129.251759,6.27824301 129.722008,6.27824301 Z M197.89295,10.8808795 C198.355615,10.8808795 198.727263,11.0339228 199.007896,11.3400095 C199.288528,11.6460962 199.428844,12.109005 199.428844,12.728736 L199.428844,12.728736 L199.428844,21.6959416 L199.423858,21.8869833 C199.397265,22.3818724 199.264299,22.760317 199.024961,23.0223171 C198.755706,23.3170673 198.408707,23.4644423 197.983966,23.4644423 C197.559225,23.4644423 197.208435,23.311399 196.931594,23.0053123 C196.654754,22.6992257 196.516334,22.2703264 196.516334,21.7186147 L196.516334,21.7186147 L196.516334,21.3218357 L196.29107,21.5939127 C195.987683,21.9445898 195.672161,22.2468976 195.344504,22.5008362 C194.934932,22.8182594 194.487437,23.0544373 194.002019,23.2093701 C193.5166,23.3643029 192.96292,23.4417692 192.340978,23.4417692 C191.590096,23.4417692 190.916957,23.2868365 190.321561,22.976971 C189.726165,22.6671055 189.265397,22.2400957 188.939257,21.6959416 C188.552439,21.0384221 188.35903,20.0937102 188.35903,18.8618058 L188.35903,18.8618058 L188.35903,12.728736 L188.364227,12.5279672 C188.391944,12.0080724 188.530528,11.6120865 188.779979,11.3400095 C189.060611,11.0339228 189.43226,10.8808795 189.894924,10.8808795 C190.365173,10.8808795 190.744406,11.0358123 191.032623,11.3456778 C191.320841,11.6555433 191.464949,12.1165627 191.464949,12.728736 L191.464949,12.728736 L191.464949,17.6828053 L191.468664,17.9834551 C191.483524,18.5706418 191.542963,19.0731514 191.646981,19.490984 C191.768336,19.9784553 191.986395,20.3601189 192.301158,20.6359748 C192.615922,20.9118307 193.042559,21.0497586 193.58107,21.0497586 C194.104412,21.0497586 194.597415,20.8948259 195.060079,20.5849604 C195.522743,20.2750949 195.860261,19.8707582 196.072631,19.3719503 C196.247079,18.9336039 196.334302,17.9737766 196.334302,16.4924683 L196.334302,16.4924683 L196.334302,12.728736 L196.33964,12.5302765 C196.368105,12.01598 196.510435,11.6211138 196.766628,11.3456778 C197.054845,11.0358123 197.430286,10.8808795 197.89295,10.8808795 Z M179.940055,10.8582064 C181.305294,10.8582064 182.378524,11.0188074 183.159744,11.3400095 C183.940964,11.6612116 184.492749,12.1694666 184.815097,12.8647745 C185.137445,13.5600825 185.298619,14.4821214 185.298619,15.6308911 L185.298619,15.6308911 L185.298057,16.282497 C185.29724,16.7327753 185.295531,17.1315255 185.29293,17.4787476 C185.289138,17.9851132 185.28345,18.5481615 185.275865,19.1678925 C185.275865,19.749835 185.372569,20.3563401 185.565978,20.9874077 C185.759387,21.6184752 185.856092,22.0247013 185.856092,22.206086 C185.856092,22.5235092 185.706295,22.8125911 185.4067,23.0733316 C185.107106,23.3340721 184.767693,23.4644423 184.38846,23.4644423 C184.069904,23.4644423 183.75514,23.3151778 183.444169,23.0166489 C183.133198,22.7181199 182.803265,22.2854418 182.454371,21.7186147 C181.703489,22.3005572 180.977258,22.7370141 180.275677,23.0279854 C179.574095,23.3189567 178.787187,23.4644423 177.91495,23.4644423 C177.118561,23.4644423 176.418876,23.3076201 175.815895,22.9939758 C175.212915,22.6803314 174.748354,22.2552111 174.422214,21.7186147 C174.096073,21.1820183 173.933003,20.6000758 173.933003,19.9727871 C173.933003,19.1263252 174.202258,18.4045653 174.740769,17.8075073 C175.27928,17.2104494 176.018785,16.8098915 176.959283,16.6058338 C177.156484,16.5604876 177.645695,16.4584587 178.426915,16.2997471 C179.208135,16.1410355 179.877482,15.9955499 180.434954,15.8632902 C180.992427,15.7310305 181.597304,15.5704295 182.249585,15.3814871 C182.211662,14.565256 182.046695,13.9663086 181.754686,13.584645 C181.462676,13.2029814 180.857799,13.0121496 179.940055,13.0121496 C179.15125,13.0121496 178.557751,13.1217362 178.159556,13.3409094 C177.761361,13.5600825 177.420051,13.8888423 177.135626,14.3271886 C176.851202,14.7655349 176.650208,15.0546168 176.532646,15.1944341 C176.415084,15.3342515 176.162894,15.4041602 175.776076,15.4041602 C175.427181,15.4041602 175.125691,15.2926842 174.871605,15.0697322 C174.617519,14.8467802 174.490476,14.5614772 174.490476,14.2138232 C174.490476,13.6696691 174.683884,13.1406304 175.070702,12.6267071 C175.45752,12.1127839 176.060501,11.6895529 176.879644,11.3570143 C177.698788,11.0244757 178.718925,10.8582064 179.940055,10.8582064 Z M136.309287,10.8808795 C136.764367,10.8808795 137.139807,11.0358123 137.435609,11.3456778 C137.731411,11.6555433 137.879312,12.0863319 137.879312,12.6380437 L137.879312,12.6380437 L137.879312,21.5825762 L137.873834,21.7835549 C137.844619,22.3045693 137.698544,22.7061535 137.435609,22.9883075 C137.139807,23.3057307 136.764367,23.4644423 136.309287,23.4644423 C135.854207,23.4644423 135.484455,23.3019519 135.20003,22.976971 C134.915605,22.6519901 134.773393,22.1871918 134.773393,21.5825762 L134.773393,21.5825762 L134.773393,12.728736 L134.77866,12.5302765 C134.806751,12.01598 134.947208,11.6211138 135.20003,11.3456778 C135.484455,11.0358123 135.854207,10.8808795 136.309287,10.8808795 Z M169.825908,6.27824301 C170.296157,6.27824301 170.675391,6.43506519 170.963608,6.74870955 C171.251825,7.06235391 171.395933,7.53282045 171.395933,8.16010916 L171.395933,8.16010916 L171.395933,21.5825762 L171.390526,21.7858642 C171.361685,22.3124769 171.217483,22.7151808 170.957919,22.9939758 C170.66591,23.3076201 170.288573,23.4644423 169.825908,23.4644423 C169.370829,23.4644423 169.001076,23.3019519 168.716652,22.976971 C168.432227,22.6519901 168.290014,22.1871918 168.290014,21.5825762 L168.290014,21.5825762 L168.290014,8.16010916 L168.295141,7.95913045 C168.322483,7.43811599 168.459194,7.03653178 168.705275,6.75437782 C168.982115,6.43695462 169.355659,6.27824301 169.825908,6.27824301 Z M156.685481,6.27824301 C157.163315,6.27824301 157.542548,6.44073346 157.823181,6.76571437 C158.103813,7.09069527 158.24413,7.57060892 158.24413,8.20545534 L158.24413,8.20545534 L158.24413,15.7102469 L161.736866,12.05988 L161.894189,11.8965629 C162.250075,11.5311956 162.527567,11.2757691 162.726665,11.1302835 C162.954205,10.9640142 163.231045,10.8808795 163.557185,10.8808795 C163.944003,10.8808795 164.266351,11.0036921 164.52423,11.2493172 C164.782108,11.4949423 164.911047,11.8029183 164.911047,12.1732454 C164.911047,12.6267071 164.490099,13.2313228 163.648201,13.9870923 L163.648201,13.9870923 L161.998537,15.4948525 L165.184095,20.4829315 L165.296127,20.6606948 C165.473629,20.9446332 165.605044,21.1669029 165.690371,21.3275039 C165.792764,21.5202252 165.843961,21.7034993 165.843961,21.8773263 C165.843961,22.3685765 165.709333,22.7559084 165.440078,23.039322 C165.170822,23.3227355 164.816239,23.4644423 164.376329,23.4644423 C163.997096,23.4644423 163.705086,23.3624134 163.5003,23.1583557 C163.295514,22.9542979 163.018674,22.5839708 162.66978,22.0473744 L162.66978,22.0473744 L159.927925,17.5581034 L158.24413,19.1452194 L158.24413,21.6052493 L158.238301,21.7991601 C158.207213,22.3026333 158.051774,22.6971263 157.771984,22.9826392 C157.457221,23.3038413 157.095053,23.4644423 156.685481,23.4644423 C156.207648,23.4644423 155.832207,23.3057307 155.559159,22.9883075 C155.286111,22.6708843 155.149587,22.2023072 155.149587,21.5825762 L155.149587,21.5825762 L155.149587,8.38684003 L155.154503,8.16367808 C155.180722,7.58481459 155.311815,7.1358315 155.547782,6.81672881 C155.813245,6.45773828 156.192478,6.27824301 156.685481,6.27824301 Z M206.835267,10.8808795 C207.639241,10.8808795 208.36168,10.9640142 209.002584,11.1302835 C209.643488,11.2965527 210.178207,11.5195048 210.60674,11.7991395 C211.035273,12.0787742 211.361414,12.3886397 211.585161,12.728736 C211.808909,13.0688323 211.920783,13.4013709 211.920783,13.7263518 C211.920783,14.0815635 211.801324,14.3725348 211.562407,14.5992656 C211.323491,14.8259965 210.984077,14.9393619 210.544167,14.9393619 C210.225611,14.9393619 209.954459,14.8486696 209.730712,14.6672849 C209.506964,14.4859002 209.250982,14.2138232 208.962764,13.8510538 C208.72764,13.548746 208.4508,13.3068997 208.132244,13.125515 C207.813688,12.9441303 207.381362,12.853438 206.835267,12.853438 C206.274002,12.853438 205.807545,12.9724717 205.435897,13.2105391 C205.064248,13.4486065 204.878424,13.7452461 204.878424,14.1004577 C204.878424,14.4254386 205.014948,14.6918474 205.287996,14.899684 C205.561044,15.1075206 205.9289,15.2794582 206.391564,15.4154967 C206.854228,15.5515353 207.49134,15.7178045 208.302899,15.9143046 C209.266151,16.1485932 210.05306,16.4282279 210.663625,16.7532088 C211.27419,17.0781897 211.736855,17.4617428 212.051618,17.9038679 C212.366382,18.3459931 212.523763,18.8504693 212.523763,19.4172964 C212.523763,20.271316 212.315185,21.002523 211.898029,21.6109175 C211.480872,22.219312 210.864618,22.6803314 210.049267,22.9939758 C209.233916,23.3076201 208.242222,23.4644423 207.074184,23.4644423 C205.959238,23.4644423 205.003571,23.2943942 204.207181,22.9542979 C203.410792,22.6142016 202.822981,22.1890812 202.443747,21.6789368 C202.064514,21.1687923 201.874898,20.6567585 201.874898,20.1428352 C201.874898,19.8027389 201.996252,19.5117676 202.238962,19.2699214 C202.481671,19.0280751 202.78885,18.907152 203.160498,18.907152 C203.486639,18.907152 203.736932,18.9865078 203.91138,19.1452194 C204.085827,19.303931 204.252689,19.526883 204.411967,19.8140754 C204.730523,20.3657872 205.111652,20.7776816 205.555355,21.0497586 C205.999058,21.3218357 206.603935,21.4578742 207.369985,21.4578742 C207.991928,21.4578742 208.501996,21.3199463 208.900191,21.0440904 C209.298386,20.7682345 209.497483,20.4527007 209.497483,20.097489 C209.497483,19.553335 209.290801,19.156556 208.877437,18.907152 C208.464073,18.6577481 207.78335,18.4196807 206.835267,18.1929498 C205.765829,17.9284305 204.895489,17.6506851 204.224247,17.3597139 C203.553004,17.0687426 203.016389,16.6851896 202.614402,16.2090547 C202.212415,15.7329199 202.011422,15.1471985 202.011422,14.4518906 C202.011422,13.8321596 202.197246,13.2464382 202.568894,12.6947264 C202.940543,12.1430146 203.488535,11.7027789 204.21287,11.3740191 C204.937205,11.0452594 205.811337,10.8808795 206.835267,10.8808795 Z M146.707859,10.8582064 C147.511833,10.8582064 148.249441,10.9753507 148.920684,11.2096393 C149.591926,11.4439278 150.160776,11.7462356 150.627233,12.1165627 C151.093689,12.4868898 151.450169,12.8817794 151.69667,13.3012315 C151.943172,13.7206835 152.066422,14.1117943 152.066422,14.4745637 C152.066422,14.8448907 151.928002,15.1585351 151.651162,15.4154967 C151.374322,15.6724584 151.038701,15.8009392 150.644298,15.8009392 C150.38642,15.8009392 150.172153,15.7348094 150.001498,15.6025497 C149.830843,15.47029 149.63933,15.2567851 149.42696,14.962035 C149.047727,14.3876502 148.651428,13.9568615 148.238064,13.6696691 C147.8247,13.3824767 147.299462,13.2388805 146.662351,13.2388805 C145.744607,13.2388805 145.005102,13.5959816 144.443837,14.3101838 C143.882572,15.024386 143.60194,16.0012181 143.60194,17.2406802 C143.60194,17.8226227 143.673994,18.3573297 143.818102,18.844801 C143.962211,19.3322724 144.170789,19.7479456 144.443837,20.0918208 C144.716885,20.4356959 145.046818,20.6964364 145.433635,20.8740422 C145.820453,21.0516481 146.245194,21.140451 146.707859,21.140451 C147.329801,21.140451 147.862623,20.9968548 148.306326,20.7096624 C148.750029,20.4224699 149.142535,19.9841236 149.483845,19.3946234 C149.673461,19.0469694 149.878247,18.7748923 150.098203,18.5783923 C150.318158,18.3818922 150.587413,18.2836421 150.905969,18.2836421 C151.285202,18.2836421 151.599966,18.4272383 151.850259,18.7144308 C152.100553,19.0016232 152.2257,19.3077099 152.2257,19.6326908 C152.2257,20.0181332 152.110034,20.4300276 151.878702,20.868374 C151.64737,21.3067203 151.294683,21.724283 150.820642,22.121062 C150.3466,22.517841 149.749308,22.8371536 149.028765,23.0789999 C148.308222,23.3208461 147.496663,23.4417692 146.594089,23.4417692 C144.675169,23.4417692 143.177198,22.8843892 142.100176,21.7696291 C141.023154,20.6548691 140.484643,19.1603348 140.484643,17.2860263 C140.484643,16.0163335 140.731145,14.8940158 141.224148,13.919073 C141.717151,12.9441303 142.430109,12.1902502 143.363023,11.6574327 C144.295936,11.1246152 145.410881,10.8582064 146.707859,10.8582064 Z M80.0099896,21.1621383 C80.56948,21.1621383 81.0230366,21.6140823 81.0230366,22.1715835 C81.0230366,22.7290847 80.56948,23.1810287 80.0099896,23.1810287 C79.4504992,23.1810287 78.9969426,22.7290847 78.9969426,22.1715835 C78.9969426,21.6140823 79.4504992,21.1621383 80.0099896,21.1621383 Z M182.249585,17.2406802 L182.090237,17.2964532 C181.644895,17.4461142 181.03625,17.6032396 180.2643,17.7678294 C179.569545,17.9159603 179.045899,18.0326511 178.693364,18.1179019 L178.461046,18.175945 C178.127321,18.2628585 177.808765,18.4329066 177.505379,18.6860894 C177.201992,18.9392722 177.050299,19.2925945 177.050299,19.7460562 C177.050299,20.2146333 177.228539,20.6133017 177.585018,20.9420615 C177.941497,21.2708212 178.407954,21.4352011 178.984388,21.4352011 C179.598745,21.4352011 180.165699,21.301052 180.685248,21.0327538 C181.204798,20.7644556 181.585927,20.4186911 181.828636,19.9954601 C182.109269,19.526883 182.249585,18.7559981 182.249585,17.6828053 L182.249585,17.6828053 L182.249585,17.2406802 Z M136.343418,6.41428153 C136.745405,6.41428153 137.101884,6.54276235 137.412855,6.79972399 C137.723826,7.05668564 137.879312,7.43079156 137.879312,7.92204176 C137.879312,8.39817657 137.727619,8.77039307 137.424232,9.03869125 C137.120846,9.30698944 136.760574,9.44113853 136.343418,9.44113853 C135.911092,9.44113853 135.54134,9.30887886 135.234161,9.04435952 C134.926982,8.77984019 134.773393,8.40573426 134.773393,7.92204176 C134.773393,7.48369543 134.930775,7.12281547 135.245538,6.8394019 C135.560302,6.55598832 135.926262,6.41428153 136.343418,6.41428153 Z" id="Combined-Shape"></path>
        </g>
    </g>
</svg>