<svg height="90" viewBox="0 0 300 90" width="300" xmlns="http://www.w3.org/2000/svg"><path d="m63.2639977 25.6159992 30.8639986 53.5199976h-82.1279963l30.8639986-53.4719976 4.7519998 8.1599996 15.9359993 27.7439988h-20.9759991l5.4240014-9.3599996-5.3280014-9.1679996-15.9359993 27.5999988h52.7039977l-21.0719991-36.5279984zm83.6159963 33.7919985v-32.3039986l10.583118.0015608c5.411926.0176883 9.550935.2358446 13.608881 2.9264391 7.2 4.7039998 9.023999 14.8319994 4.128 22.511999-4.123586 6.4507583-14.463289 6.8937611-17.549858 6.8823338l-.882141-.0183341zm120.719995-32.3039986 18.863999 32.3039986h-7.92l-3.264-5.7599997-.096-.144h-15.119999l-3.36 5.9039997h-7.92zm-43.583998 0 7.919999 10.8959996 7.92-10.8959996h8.015999l-11.903999 16.4159993 11.519999 15.8399993h-8.015999v.048l-7.536-10.3199995-7.535999 10.3199995h-8.016l11.519999-15.8399993-11.903999-16.4639993zm-100.079996 0 18.815999 32.2559986h-7.919999l-3.264-5.7599997-.096-.144h-15.12l-3.36 5.9039997h-7.583999zm71.711997 0 18.767999 32.2559986h-7.92l-3.264-5.7599997-.096-.144h-15.119999l-3.36 5.9039997h-7.583999zm-35.051509 5.904682-6.180489-.0006822v20.4479991l6.167495-.0002843c1.205171-.0094449 6.359504-.2787157 8.568504-4.3677155 2.496-4.6559998 1.536-11.1359995-2.064-14.2079994-2.094857-1.7382856-3.9-1.8624489-6.49151-1.8713177zm-36.660488 7.3433175-4.464 7.7279996h8.928zm71.711997 0-4.464 7.7279996h8.928zm71.951997 0-4.464 7.7279996h8.927999zm-214.5119908-32.3519986 4.8479997 8.4959996-4.8959997 8.5439996-4.8959998-8.4959996z" fill="#c456dd"/></svg>