<svg xmlns="http://www.w3.org/2000/svg" viewBox="0 0 256 131" width="256" height="131">
	<style>
		tspan { white-space:pre }
		.shp0 { fill: #ffffff } 
	</style>
	<g >
		<g >
			<g >
				<path fill-rule="evenodd" class="shp0" d="M169.15 34.32C198.28 51.54 198.28 79.46 169.15 96.68L123.75 123.51C94.62 140.74 71 127.24 71 93.35L71 37.65C71 3.77 94.62 -9.74 123.75 7.48L169.15 34.32ZM106.27 76.17L98.95 77.84C97.33 78.2 96.66 77.63 96.66 75.91L96.66 73.4L104.12 71.7L104.12 67.77L96.66 69.46L96.66 63.78L106.07 61.64C106.07 58.69 106.07 57.19 104.48 57.55L96.66 59.33C92.42 60.29 91.69 60.46 91.69 63.23L91.69 77.48C91.69 82.29 93.19 83.59 97.69 82.57L106.27 80.62L106.27 76.17ZM114.03 78.86L114.03 54.07C109.92 55.01 109.35 55.13 109.35 57.87L109.35 79.92L114.03 78.86ZM122.31 76.98L122.31 52.19C118.2 53.12 117.64 53.25 117.64 55.99L117.64 78.04L122.31 76.98ZM130.59 81.11L130.59 73.35C131.65 74.56 133.21 74.86 135.07 74.44C139.51 73.43 142.52 68.16 142.52 62.76C142.52 57.84 140.53 54.72 136.33 55.68C133.84 56.24 131.85 57.97 130.59 60.52L130.59 57.2C126.48 58.13 125.92 58.26 125.92 61.03L125.92 82.17L130.59 81.11ZM137.65 64.02C137.65 66.79 136.36 69.85 133.87 70.41C131.75 70.9 130.83 69.03 130.83 67.13C130.83 63.63 132.32 60.78 134.64 60.25C136.86 59.75 137.65 61.72 137.65 64.02ZM144.54 66.93C144.54 69.56 146.03 71.95 149.31 71.21C151.6 70.69 153.42 69.14 154.71 66.99L154.88 69.72C157.93 69.03 159.82 68.6 159.68 66.56L159.09 57.69C158.72 51.76 155.48 51.33 152.13 52.09C149.68 52.65 146.07 54.38 146.07 56.93L146.07 58.31C147.33 57.44 148.68 56.66 150.14 56.33C152.3 55.84 154.18 56.1 154.32 58.92L154.32 59.03L150.67 60.26C146.23 61.7 144.54 64.05 144.54 66.93ZM149.61 65.49C149.61 64.47 150.27 63.52 151.4 63.08L154.45 61.99C154.35 64.2 153.19 66.75 151.37 67.17C150.24 67.42 149.61 66.66 149.61 65.49Z" />
			</g>
		</g>
	</g>
</svg>