<svg xmlns="http://www.w3.org/2000/svg" viewBox="0 0 256 64" width="256" height="64">
	<style>
		tspan { white-space:pre }
		.shp0 { fill: #ffffff } 
	</style>
	<path fill-rule="evenodd" class="shp0" d="M57.09 4.91C57.09 3.49 56.36 1.92 52.79 1.92L52.79 0.99L66.37 0.99L66.37 1.92C62.81 1.92 62.08 3.49 62.08 4.91L62.08 29.52C62.08 30.94 62.81 32.51 66.37 32.51L66.37 33.44L52.79 33.44L52.79 32.51C56.36 32.51 57.09 30.94 57.09 29.52L57.09 17.85L42.28 17.85L42.28 29.52C42.28 30.94 43.02 32.51 46.58 32.51L46.58 33.44L33 33.44L33 32.51C36.57 32.51 37.3 30.94 37.3 29.52L37.3 4.91C37.3 3.49 36.57 1.92 33 1.92L33 0.99L46.59 0.99L46.59 1.92C43.02 1.92 42.29 3.49 42.29 4.91L42.29 15.84L57.09 15.84L57.09 4.91ZM68.64 23.59C70.16 28.15 73.58 32.27 78.76 32.27C82.72 32.27 85.4 28.83 84.28 25.01C82.28 18.15 68.94 17.85 68.94 8.49C68.94 3.64 72.8 0.3 77.59 0.3C82.77 0.3 85.11 3.93 86.29 0.3L87.31 0.3L88.38 10.75L87.17 10.75C86.04 6.19 82.81 2.31 78.27 2.31C75.34 2.31 73.14 3.93 73.14 7.02C73.14 9.86 76.22 11.87 78.32 13.15C84.96 17.17 89.46 19.28 89.46 25.16C89.46 29.57 85.79 34.13 79.15 34.13C74.07 34.13 70.55 30.55 70.06 34.13L68.99 34.13L67.52 23.59L68.64 23.59ZM96.62 4.91C96.62 3.49 95.89 1.92 91.93 1.92L91.93 0.99L105.03 0.99C112.55 0.99 118.42 3 118.42 9.28C118.42 13.39 115.68 15.5 111.92 16.33L111.92 16.43C116.12 17.21 120.08 19.81 120.08 24.52C120.08 30.4 115 33.44 107.32 33.44L91.93 33.44L91.93 32.51C95.89 32.51 96.62 30.94 96.62 29.52L96.62 4.91L96.62 4.91ZM101.6 29.03C101.6 30.75 102.05 31.63 105.61 31.63C110.69 31.63 114.46 30.11 114.46 24.37C114.46 18.54 108.64 17.46 104.05 17.46L101.6 17.46L101.6 29.03ZM105.61 15.5C110.55 15.5 113.43 13.39 113.43 9.42C113.43 5.69 111.09 3.68 107.67 3.05C103.17 2.75 101.6 2.66 101.6 4.37L101.6 15.5L105.61 15.5L105.61 15.5ZM148.23 11.08C146.82 5.69 143.25 2.01 137.68 2.01C129.62 2.01 126.15 8.53 126.15 17.36C126.15 24.22 129.71 31.62 137.73 31.62C142.52 31.62 145.79 30.05 149.16 26.72L149.99 27.7C147.01 31.38 141.98 33.83 137.29 33.83C127.76 33.83 120.48 27.7 120.48 16.96C120.48 7.21 127.37 0 137.19 0C143.88 0 146.33 4.02 147.94 0.05L148.97 0.05L149.4 11.08L148.23 11.08ZM175.8 0.08L208.66 0.08L192.23 16.56L175.8 0.08ZM192.23 16.57L208.66 33.05L175.8 33.05L192.23 16.57ZM175.8 0.08L175.8 33.05L159.36 16.57L175.8 0.08ZM225.1 16.57L208.66 33.05L208.66 0.08L225.1 16.57ZM47.83 41.26L48.26 46.46L47.83 46.46C47.4 45.16 46.85 44.19 46.17 43.53C45.19 42.58 43.94 42.11 42.4 42.11C40.31 42.11 38.71 42.94 37.62 44.6C36.71 46 36.25 47.67 36.25 49.61C36.25 51.18 36.56 52.62 37.16 53.91C37.77 55.21 38.56 56.16 39.54 56.77C40.52 57.37 41.53 57.68 42.57 57.68C43.18 57.68 43.76 57.6 44.33 57.44C44.47 57.4 44.61 57.36 44.75 57.31C44.89 57.26 45.03 57.21 45.17 57.15C45.3 57.1 45.44 57.04 45.57 56.97C45.71 56.91 45.84 56.84 45.96 56.76L45.96 51.99C45.96 51.17 45.9 50.63 45.78 50.37C45.75 50.31 45.71 50.25 45.67 50.19C45.63 50.13 45.58 50.08 45.53 50.03C45.48 49.98 45.43 49.93 45.37 49.89C45.32 49.85 45.26 49.82 45.19 49.79C44.93 49.65 44.47 49.58 43.81 49.58L43.81 49.12L50.17 49.12L50.17 49.58L49.87 49.58C49.24 49.58 48.81 49.8 48.57 50.22C48.41 50.52 48.33 51.11 48.33 51.99L48.33 57.04C47.4 57.54 46.48 57.91 45.58 58.15C44.67 58.39 43.67 58.5 42.56 58.5C39.38 58.5 36.97 57.48 35.32 55.44C34.08 53.9 33.46 52.14 33.46 50.13C33.46 48.68 33.81 47.29 34.51 45.96C35.33 44.38 36.47 43.16 37.9 42.31C39.11 41.6 40.53 41.26 42.17 41.26C42.77 41.26 43.31 41.3 43.8 41.4C44.29 41.5 44.98 41.71 45.88 42.05C46.33 42.22 46.64 42.3 46.79 42.3C46.94 42.3 47.08 42.23 47.18 42.09C47.29 41.95 47.36 41.67 47.38 41.26L47.83 41.26ZM55.12 55.61C55.12 56.31 55.17 56.77 55.27 57C55.37 57.22 55.53 57.39 55.74 57.51C55.95 57.63 56.34 57.69 56.91 57.69L56.91 58.12L51.47 58.12L51.47 57.69C51.98 57.69 52.33 57.63 52.51 57.53C52.7 57.42 52.85 57.25 52.95 57C53.05 56.76 53.11 56.3 53.11 55.61L53.11 45.49C53.11 44.23 53.08 43.46 53.02 43.17C52.97 42.88 52.87 42.68 52.75 42.58C52.72 42.55 52.68 42.53 52.64 42.51C52.61 42.49 52.57 42.47 52.53 42.46C52.48 42.44 52.44 42.43 52.4 42.43C52.36 42.42 52.31 42.42 52.27 42.42C52.06 42.42 51.79 42.48 51.47 42.62L51.26 42.19L54.57 40.83L55.12 40.83L55.12 55.61ZM67.68 48.58C68.55 49.67 68.98 50.93 68.98 52.35C68.98 53.35 68.74 54.35 68.26 55.38C67.79 56.4 67.13 57.17 66.29 57.69C65.46 58.21 64.52 58.46 63.5 58.46C61.82 58.46 60.49 57.8 59.51 56.46C59.31 56.19 59.12 55.9 58.97 55.6C58.81 55.3 58.68 54.99 58.57 54.66C58.47 54.34 58.39 54.01 58.33 53.68C58.28 53.34 58.26 53 58.26 52.66C58.26 51.64 58.51 50.63 59.02 49.62C59.52 48.61 60.19 47.86 61.01 47.38C61.21 47.26 61.41 47.16 61.62 47.07C61.83 46.97 62.05 46.9 62.27 46.84C62.49 46.78 62.72 46.73 62.94 46.7C63.17 46.67 63.4 46.65 63.63 46.65C65.31 46.65 66.66 47.3 67.68 48.58ZM61.96 47.83C61.53 48.09 61.18 48.53 60.92 49.17C60.65 49.81 60.51 50.63 60.51 51.64C60.51 53.26 60.84 54.66 61.48 55.84C62.12 57.01 62.97 57.6 64.02 57.6C64.8 57.6 65.45 57.28 65.96 56.63C66.47 55.98 66.72 54.87 66.72 53.28C66.72 51.3 66.3 49.75 65.45 48.61C64.88 47.83 64.14 47.45 63.25 47.45C62.83 47.45 62.4 47.57 61.96 47.83ZM77.14 46.65C78.28 46.65 79.27 47.14 80.12 48.12C80.97 49.1 81.39 50.43 81.39 52.13C81.39 54.11 80.74 55.7 79.43 56.91C78.31 57.95 77.05 58.46 75.67 58.46C75.5 58.46 75.33 58.45 75.17 58.44C75 58.42 74.83 58.4 74.67 58.37C74.5 58.34 74.34 58.31 74.18 58.26C74.02 58.22 73.86 58.17 73.7 58.11C73.52 58.04 73.34 57.97 73.16 57.9C72.99 57.82 72.82 57.73 72.64 57.65C72.47 57.56 72.31 57.46 72.14 57.36C71.98 57.27 71.81 57.16 71.66 57.05L71.66 45.51C71.66 44.25 71.63 43.47 71.56 43.17C71.51 42.88 71.41 42.68 71.28 42.58C71.25 42.55 71.21 42.53 71.17 42.51C71.14 42.49 71.09 42.47 71.05 42.46C71.01 42.44 70.97 42.43 70.93 42.43C70.88 42.42 70.84 42.42 70.79 42.42C70.57 42.42 70.29 42.48 69.95 42.62L69.78 42.19L73.11 40.83L73.66 40.83L73.66 48.9C74.73 47.4 75.89 46.65 77.14 46.65ZM73.66 56.35C74.07 56.75 74.49 57.06 74.94 57.26C75.38 57.47 75.83 57.58 76.29 57.58C77.02 57.58 77.71 57.17 78.34 56.36C78.98 55.55 79.29 54.37 79.29 52.82C79.29 51.39 78.98 50.3 78.34 49.53C77.71 48.77 76.99 48.38 76.18 48.38C75.75 48.38 75.32 48.49 74.9 48.71C74.57 48.87 74.16 49.2 73.66 49.68L73.66 56.35ZM89.32 56.52C88.18 57.4 87.47 57.91 87.17 58.05C87.07 58.1 86.96 58.14 86.84 58.18C86.73 58.22 86.61 58.25 86.5 58.28C86.38 58.31 86.26 58.32 86.14 58.34C86.02 58.35 85.9 58.36 85.78 58.36C85.01 58.36 84.38 58.09 83.88 57.56C83.39 57.04 83.14 56.34 83.14 55.48C83.14 54.94 83.26 54.47 83.5 54.07C83.83 53.52 84.41 53 85.23 52.52C86.05 52.03 87.41 51.44 89.32 50.74L89.32 50.3C89.32 49.19 89.15 48.43 88.8 48.01C88.44 47.6 87.93 47.4 87.26 47.4C86.75 47.4 86.35 47.53 86.05 47.81C85.74 48.09 85.59 48.4 85.59 48.76L85.61 49.46C85.61 49.84 85.52 50.12 85.33 50.33C85.14 50.53 84.89 50.63 84.58 50.63C84.52 50.63 84.45 50.63 84.38 50.61C84.31 50.6 84.24 50.58 84.18 50.55C84.12 50.53 84.06 50.49 84 50.45C83.95 50.41 83.89 50.37 83.85 50.32C83.66 50.1 83.56 49.82 83.56 49.45C83.56 48.75 83.92 48.11 84.63 47.53C85.34 46.95 86.34 46.65 87.63 46.65C88.61 46.65 89.42 46.82 90.05 47.15C90.53 47.4 90.88 47.8 91.11 48.33C91.25 48.68 91.32 49.39 91.32 50.47L91.32 54.25C91.32 55.32 91.34 55.97 91.38 56.21C91.42 56.45 91.49 56.61 91.58 56.69C91.6 56.71 91.63 56.72 91.65 56.74C91.68 56.76 91.7 56.77 91.73 56.78C91.76 56.79 91.79 56.8 91.82 56.8C91.85 56.81 91.88 56.81 91.9 56.81C92.03 56.81 92.15 56.78 92.24 56.73C92.41 56.62 92.74 56.32 93.22 55.84L93.22 56.52C92.32 57.73 91.46 58.34 90.63 58.34C90.24 58.34 89.92 58.21 89.69 57.93C89.45 57.66 89.33 57.18 89.32 56.52ZM89.32 55.73L89.32 51.48C88.1 51.97 87.32 52.32 86.96 52.52C86.32 52.87 85.86 53.25 85.59 53.64C85.31 54.03 85.18 54.45 85.18 54.92C85.18 55.5 85.35 55.98 85.7 56.37C86.04 56.75 86.45 56.95 86.9 56.95C87.51 56.95 88.32 56.54 89.32 55.73ZM97.87 55.61C97.87 56.31 97.92 56.77 98.02 57C98.12 57.22 98.28 57.39 98.49 57.51C98.7 57.63 99.09 57.69 99.66 57.69L99.66 58.12L94.22 58.12L94.22 57.69C94.73 57.69 95.08 57.63 95.26 57.53C95.45 57.42 95.6 57.25 95.7 57C95.8 56.76 95.86 56.3 95.86 55.61L95.86 45.49C95.86 44.23 95.83 43.46 95.77 43.17C95.72 42.88 95.62 42.68 95.5 42.58C95.47 42.55 95.43 42.53 95.39 42.51C95.36 42.49 95.32 42.47 95.28 42.46C95.24 42.44 95.19 42.43 95.15 42.43C95.11 42.42 95.07 42.42 95.02 42.42C94.81 42.42 94.55 42.48 94.22 42.62L94.02 42.19L97.33 40.83L97.87 40.83L97.87 55.61ZM120.49 45.5L120.02 45.5C119.93 44.82 119.81 44.33 119.66 44.04C119.41 43.57 119.07 43.22 118.66 43C118.24 42.78 117.7 42.66 117.02 42.66L114.7 42.66L114.7 55.27C114.7 56.28 114.81 56.91 115.03 57.16C115.33 57.5 115.81 57.67 116.45 57.67L117.02 57.67L117.02 58.12L110.04 58.12L110.04 57.67L110.63 57.67C111.32 57.67 111.81 57.46 112.11 57.04C112.28 56.78 112.38 56.19 112.38 55.27L112.38 42.66L110.4 42.66C109.63 42.66 109.08 42.72 108.76 42.83C108.34 42.99 107.98 43.29 107.68 43.72C107.38 44.16 107.2 44.75 107.15 45.5L106.69 45.5L106.88 41.63L120.3 41.63L120.49 45.5ZM122.01 51.18C122 52.84 122.4 54.13 123.21 55.07C124.02 56.01 124.97 56.48 126.06 56.48C126.79 56.48 127.42 56.28 127.96 55.88C128.5 55.48 128.94 54.79 129.31 53.82L129.69 54.06C129.52 55.17 129.02 56.19 128.21 57.09C127.39 58.01 126.37 58.46 125.14 58.46C123.8 58.46 122.66 57.95 121.71 56.9C120.76 55.86 120.29 54.46 120.29 52.7C120.29 50.79 120.78 49.31 121.75 48.24C122.72 47.18 123.95 46.64 125.42 46.64C126.66 46.64 127.69 47.05 128.49 47.88C129.28 48.7 129.69 49.8 129.69 51.18L122.01 51.18L122.01 51.18ZM127.15 50.47C127.11 49.76 127.03 49.26 126.9 48.97C126.7 48.51 126.4 48.16 125.99 47.9C125.59 47.64 125.17 47.5 124.74 47.5C124.07 47.5 123.47 47.77 122.94 48.29C122.41 48.81 122.1 49.54 122.01 50.47L127.15 50.47ZM140.6 53.89C140.3 55.36 139.71 56.49 138.84 57.28C137.97 58.07 137 58.46 135.94 58.46C134.68 58.46 133.58 57.93 132.65 56.87C131.71 55.81 131.24 54.38 131.24 52.57C131.24 50.81 131.76 49.39 132.8 48.3C133.84 47.2 135.08 46.65 136.53 46.65C137.63 46.65 138.53 46.94 139.23 47.53C139.93 48.1 140.28 48.7 140.28 49.33C140.28 49.64 140.19 49.89 139.99 50.08C139.79 50.27 139.51 50.36 139.16 50.36C138.68 50.36 138.32 50.21 138.07 49.9C137.94 49.73 137.85 49.41 137.8 48.93C137.76 48.45 137.59 48.09 137.31 47.83C137.03 47.59 136.64 47.47 136.14 47.47C135.33 47.47 134.68 47.77 134.18 48.37C133.53 49.16 133.2 50.22 133.2 51.52C133.2 52.85 133.53 54.02 134.18 55.04C134.83 56.06 135.71 56.57 136.82 56.57C137.61 56.57 138.32 56.3 138.95 55.75C139.39 55.38 139.82 54.7 140.25 53.72L140.6 53.89ZM145.45 40.83L145.45 48.98C146.34 47.99 147.05 47.35 147.58 47.07C148.11 46.79 148.63 46.65 149.16 46.65C149.79 46.65 150.33 46.83 150.78 47.18C151.23 47.53 151.57 48.07 151.79 48.82C151.94 49.34 152.02 50.29 152.02 51.66L152.02 55.61C152.02 56.31 152.07 56.8 152.19 57.05C152.21 57.1 152.23 57.15 152.26 57.19C152.29 57.24 152.32 57.28 152.36 57.32C152.39 57.36 152.43 57.4 152.47 57.43C152.51 57.46 152.56 57.49 152.6 57.52C152.79 57.63 153.15 57.69 153.67 57.69L153.67 58.12L148.21 58.12L148.21 57.69L148.47 57.69C148.98 57.69 149.34 57.61 149.55 57.45C149.75 57.29 149.89 57.06 149.97 56.75C149.99 56.62 150.01 56.24 150.01 55.61L150.01 51.66C150.01 50.45 149.94 49.65 149.82 49.27C149.69 48.89 149.49 48.6 149.22 48.41C148.94 48.22 148.61 48.13 148.22 48.13C147.83 48.13 147.42 48.23 146.99 48.44C146.56 48.65 146.05 49.08 145.45 49.72L145.45 55.61C145.45 56.37 145.49 56.84 145.57 57.03C145.66 57.21 145.82 57.37 146.05 57.5C146.28 57.62 146.67 57.69 147.24 57.69L147.24 58.12L141.74 58.12L141.74 57.69C142.23 57.69 142.62 57.61 142.9 57.46C143.06 57.37 143.19 57.22 143.29 57C143.39 56.77 143.43 56.31 143.43 55.61L143.43 45.52C143.43 44.25 143.41 43.47 143.34 43.17C143.29 42.88 143.19 42.68 143.07 42.58C142.94 42.47 142.77 42.42 142.56 42.42C142.39 42.42 142.12 42.48 141.74 42.62L141.57 42.19L144.89 40.83L145.45 40.83L145.45 40.83ZM157.84 49.02C159.14 47.44 160.38 46.65 161.56 46.65C162.17 46.65 162.69 46.81 163.12 47.11C163.56 47.41 163.91 47.92 164.17 48.61C164.35 49.1 164.43 49.85 164.43 50.85L164.43 55.61C164.43 56.31 164.49 56.79 164.61 57.04C164.63 57.09 164.65 57.14 164.68 57.18C164.71 57.23 164.75 57.27 164.78 57.31C164.82 57.35 164.86 57.39 164.9 57.43C164.94 57.46 164.99 57.49 165.04 57.52C165.23 57.63 165.6 57.69 166.13 57.69L166.13 58.12L160.64 58.12L160.64 57.69L160.87 57.69C161.39 57.69 161.75 57.61 161.95 57.45C162.16 57.29 162.3 57.06 162.38 56.75C162.42 56.63 162.43 56.25 162.43 55.61L162.43 51.05C162.43 50.03 162.3 49.3 162.04 48.84C161.78 48.38 161.33 48.15 160.71 48.15C159.75 48.15 158.79 48.68 157.84 49.73L157.84 55.61C157.84 56.36 157.88 56.82 157.97 57C158.08 57.24 158.24 57.41 158.44 57.52C158.64 57.63 159.04 57.69 159.64 57.69L159.64 58.12L154.15 58.12L154.15 57.69L154.4 57.69C154.96 57.69 155.34 57.54 155.54 57.26C155.74 56.97 155.84 56.42 155.84 55.61L155.84 51.47C155.84 50.13 155.81 49.32 155.75 49.03C155.69 48.73 155.59 48.53 155.47 48.43C155.34 48.33 155.17 48.27 154.96 48.27C154.74 48.27 154.47 48.33 154.15 48.45L153.97 48.01L157.32 46.65L157.84 46.65L157.84 49.02ZM176.5 48.58C177.37 49.67 177.8 50.93 177.8 52.35C177.8 53.35 177.56 54.35 177.08 55.38C176.6 56.4 175.95 57.17 175.11 57.69C174.27 58.21 173.34 58.46 172.32 58.46C170.64 58.46 169.31 57.8 168.33 56.46C168.12 56.19 167.94 55.9 167.78 55.6C167.63 55.3 167.5 54.99 167.39 54.66C167.28 54.34 167.2 54.01 167.15 53.68C167.1 53.34 167.07 53 167.08 52.66C167.08 51.64 167.33 50.63 167.83 49.62C168.34 48.61 169 47.86 169.83 47.38C170.03 47.26 170.23 47.16 170.44 47.07C170.65 46.97 170.87 46.9 171.09 46.84C171.31 46.78 171.54 46.73 171.76 46.7C171.99 46.67 172.22 46.65 172.45 46.65C174.13 46.65 175.48 47.3 176.5 48.58ZM172.07 47.45C171.65 47.45 171.22 47.57 170.78 47.83C170.35 48.09 170 48.53 169.73 49.17C169.46 49.81 169.33 50.63 169.33 51.64C169.33 53.26 169.66 54.66 170.3 55.84C170.94 57.01 171.79 57.6 172.84 57.6C173.62 57.6 174.27 57.28 174.78 56.63C175.29 55.98 175.54 54.87 175.54 53.28C175.54 51.3 175.12 49.75 174.27 48.61C173.69 47.83 172.96 47.45 172.07 47.45ZM183.25 40.83L183.25 55.61C183.25 56.31 183.3 56.77 183.4 57C183.5 57.22 183.66 57.39 183.87 57.51C184.08 57.63 184.47 57.69 185.05 57.69L185.05 58.12L179.6 58.12L179.6 57.69C180.11 57.69 180.46 57.63 180.64 57.53C180.83 57.42 180.98 57.25 181.08 57C181.18 56.76 181.24 56.3 181.24 55.61L181.24 45.49C181.24 44.23 181.21 43.46 181.16 43.17C181.1 42.88 181.01 42.68 180.88 42.58C180.85 42.55 180.81 42.53 180.78 42.51C180.74 42.49 180.7 42.47 180.66 42.46C180.62 42.44 180.57 42.43 180.53 42.43C180.49 42.42 180.45 42.42 180.4 42.42C180.19 42.42 179.93 42.48 179.6 42.62L179.4 42.19L182.71 40.83L183.25 40.83ZM191.76 46.65C193.44 46.65 194.79 47.3 195.81 48.58C196.68 49.67 197.11 50.93 197.11 52.35C197.11 53.35 196.87 54.35 196.39 55.38C195.92 56.4 195.26 57.17 194.42 57.69C193.59 58.21 192.66 58.46 191.63 58.46C189.95 58.46 188.63 57.8 187.64 56.46C187.44 56.19 187.26 55.9 187.1 55.6C186.94 55.3 186.81 54.99 186.7 54.66C186.6 54.34 186.52 54.01 186.47 53.68C186.41 53.34 186.39 53 186.39 52.66C186.39 51.64 186.64 50.63 187.15 49.62C187.65 48.61 188.32 47.86 189.14 47.38C189.34 47.26 189.55 47.16 189.76 47.07C189.97 46.97 190.18 46.9 190.4 46.84C190.63 46.78 190.85 46.73 191.08 46.7C191.31 46.67 191.53 46.65 191.76 46.65L191.76 46.65ZM190.09 47.83C189.66 48.09 189.31 48.53 189.05 49.17C188.78 49.81 188.65 50.63 188.65 51.64C188.65 53.26 188.97 54.66 189.61 55.84C190.25 57.01 191.1 57.6 192.15 57.6C192.93 57.6 193.58 57.28 194.09 56.63C194.6 55.98 194.85 54.87 194.85 53.28C194.85 51.3 194.43 49.75 193.58 48.61C193.01 47.83 192.28 47.45 191.39 47.45C190.96 47.45 190.53 47.57 190.09 47.83ZM201.72 54.06C201.04 53.73 200.52 53.27 200.15 52.67C200.06 52.52 199.98 52.37 199.91 52.21C199.85 52.05 199.79 51.89 199.74 51.72C199.7 51.55 199.66 51.38 199.64 51.21C199.62 51.04 199.61 50.87 199.61 50.69C199.61 49.59 200.02 48.64 200.85 47.84C201.68 47.05 202.74 46.65 204.03 46.65C205.09 46.65 206.01 46.91 206.79 47.43L209.14 47.43C209.48 47.43 209.69 47.44 209.75 47.46C209.8 47.48 209.84 47.52 209.87 47.57C209.91 47.64 209.94 47.77 209.94 47.96C209.94 48.17 209.92 48.31 209.88 48.39C209.87 48.4 209.86 48.41 209.85 48.42C209.84 48.43 209.83 48.44 209.82 48.45C209.81 48.46 209.8 48.47 209.79 48.48C209.77 48.48 209.76 48.49 209.75 48.49C209.69 48.52 209.48 48.53 209.14 48.53L207.7 48.53C208.15 49.11 208.38 49.86 208.38 50.77C208.38 51.81 207.98 52.69 207.19 53.43C206.39 54.17 205.33 54.54 204 54.54C203.45 54.54 202.89 54.45 202.31 54.29C201.96 54.6 201.72 54.87 201.59 55.1C201.46 55.33 201.4 55.53 201.4 55.69C201.4 55.83 201.47 55.96 201.6 56.09C201.74 56.22 202 56.31 202.38 56.37C202.61 56.41 203.18 56.43 204.08 56.46C205.75 56.5 206.83 56.55 207.32 56.63C208.07 56.73 208.67 57.01 209.12 57.47C209.57 57.92 209.79 58.48 209.79 59.14C209.79 60.06 209.36 60.92 208.51 61.72C207.24 62.91 205.6 63.5 203.57 63.5C202.01 63.5 200.69 63.15 199.62 62.44C199.01 62.03 198.71 61.61 198.71 61.17C198.71 60.98 198.75 60.79 198.84 60.59C198.98 60.29 199.27 59.88 199.69 59.34C199.75 59.27 200.16 58.83 200.93 58.03C200.51 57.78 200.21 57.55 200.04 57.35C200 57.31 199.96 57.26 199.93 57.2C199.9 57.15 199.87 57.1 199.85 57.04C199.82 56.98 199.81 56.92 199.8 56.86C199.79 56.8 199.78 56.74 199.78 56.68C199.78 56.39 199.89 56.06 200.12 55.68C200.35 55.3 200.88 54.76 201.72 54.06L201.72 54.06ZM203.83 47.24C203.23 47.24 202.73 47.48 202.32 47.96C201.92 48.43 201.72 49.17 201.72 50.16C201.72 51.44 201.99 52.43 202.54 53.14C202.96 53.67 203.5 53.94 204.14 53.94C204.76 53.94 205.26 53.71 205.66 53.25C206.05 52.79 206.25 52.06 206.25 51.07C206.25 49.78 205.98 48.77 205.42 48.04C205 47.5 204.47 47.24 203.83 47.24L203.83 47.24ZM201.6 58.12C201.6 58.12 201.6 58.12 201.6 58.12C201.6 58.12 201.6 58.12 201.6 58.12L201.6 58.12ZM200.74 59.28C200.54 59.64 200.45 59.96 200.45 60.27C200.45 60.65 200.68 60.99 201.15 61.29C201.96 61.79 203.12 62.04 204.65 62.04C206.11 62.04 207.18 61.78 207.87 61.27C208.56 60.75 208.91 60.2 208.91 59.62C208.91 59.2 208.7 58.9 208.29 58.72C207.87 58.54 207.03 58.44 205.79 58.4C203.97 58.36 202.57 58.26 201.6 58.12C201.22 58.54 200.93 58.92 200.74 59.28ZM215.71 46.98L215.71 47.43L215.46 47.43C215.09 47.43 214.82 47.51 214.64 47.67C214.59 47.71 214.55 47.75 214.52 47.79C214.49 47.83 214.46 47.88 214.43 47.93C214.41 47.98 214.39 48.04 214.38 48.09C214.37 48.15 214.36 48.2 214.36 48.26C214.36 48.58 214.5 49.02 214.77 49.57L217.47 55.19L219.96 49.04C220.09 48.7 220.16 48.38 220.16 48.05C220.16 48.02 220.16 47.99 220.16 47.97C220.15 47.94 220.15 47.91 220.14 47.88C220.14 47.85 220.13 47.83 220.11 47.8C220.1 47.77 220.09 47.75 220.08 47.72C220.06 47.7 220.03 47.68 220.01 47.66C219.99 47.63 219.96 47.62 219.94 47.6C219.91 47.58 219.89 47.56 219.86 47.55C219.83 47.53 219.8 47.52 219.77 47.51C219.63 47.46 219.39 47.43 219.04 47.43L219.04 46.98L222.66 46.98L222.66 47.43C222.36 47.47 222.13 47.53 221.97 47.63C221.81 47.72 221.63 47.91 221.43 48.18C221.36 48.29 221.22 48.6 221.02 49.11L216.5 60.23C216.06 61.31 215.49 62.12 214.78 62.67C214.07 63.23 213.4 63.5 212.74 63.5C212.26 63.5 211.87 63.36 211.56 63.09C211.26 62.81 211.1 62.5 211.1 62.14C211.1 61.8 211.21 61.52 211.43 61.32C211.66 61.11 211.96 61.01 212.35 61.01C212.62 61.01 212.98 61.1 213.44 61.28C213.76 61.4 213.97 61.46 214.05 61.46C214.29 61.46 214.55 61.33 214.84 61.08C215.13 60.83 215.42 60.34 215.71 59.62L216.5 57.69L212.51 49.28C212.47 49.2 212.42 49.12 212.38 49.04C212.33 48.96 212.29 48.88 212.24 48.8C212.19 48.72 212.14 48.65 212.09 48.57C212.03 48.5 211.98 48.42 211.93 48.35C211.72 48.06 211.56 47.87 211.43 47.77C211.24 47.65 210.94 47.53 210.53 47.43L210.53 46.98L215.71 46.98Z" />
</svg>