<?xml version="1.0" encoding="UTF-8"?>
<svg width="256px" height="116px" viewBox="0 0 256 116" version="1.1" xmlns="http://www.w3.org/2000/svg" xmlns:xlink="http://www.w3.org/1999/xlink">
    <!-- Generator: Sketch 61.2 (89653) - https://sketch.com -->
    <title>sns</title>
    <desc>Created with Sketch.</desc>
    <g id="03-what-we-do-(SRC)" stroke="none" stroke-width="1" fill="none" fill-rule="evenodd">
        <g id="Group" fill="#FFFFFF">
            <path d="M156.001101,35.6024781 C155.172531,21.8198063 143.142195,12.5846174 129.904718,14.1785439 C120.574377,14.5921128 113.470817,20.9873436 112.840461,21.5730849 L112.788676,21.5997095 C112.752962,21.2731144 112.683319,20.1974802 112.502962,19.1395958 C111.947606,15.9180183 110.11368,14.040096 106.697615,14.107545 C103.469049,14.171444 101.702981,15.9836923 101.23691,19.0668219 C101.054767,20.2738041 101.001196,21.5127358 100.99941,22.7356928 C100.992268,31.6567113 100.98691,40.5759548 100.98691,49.4969733 C100.98691,58.4197668 100.994053,67.3407853 101.010125,76.2635788 C101.01191,77.8486304 101.140482,79.4691815 101.495838,81.0080838 C102.10298,83.6314952 104.026191,84.8881766 106.647615,84.9556257 C109.426182,85.0266246 111.499392,83.8072176 112.185105,81.0222836 C112.56189,79.4922562 112.654747,77.8646052 112.663676,76.2795535 C112.681533,73.1733493 112.683319,70.0635952 112.681533,66.955616 C112.681533,63.8494118 112.67439,60.7449825 112.676176,57.6405533 C112.679747,51.4299198 112.708319,45.2192864 112.854747,39.0122029 C113.058318,30.4905535 119.058308,24.759163 127.765436,23.9976992 C135.718993,23.3019095 142.643981,28.2469866 144.433264,36.1935444 C144.992192,38.6785078 144.945763,41.3214438 144.956477,43.8933809 C144.970763,46.7510888 144.974335,49.6087967 144.974335,52.4665046 L144.968977,61.0414032 C144.965406,66.7656938 144.968977,72.4899844 145.029692,78.2107251 C145.07612,82.6552596 147.210045,84.930776 150.740396,84.9804753 C154.226104,85.0283996 156.592172,82.8434068 156.585029,78.760967 C156.5761,73.3632715 156.6136,67.9602512 156.617172,62.5590058 C156.624314,53.5616634 156.542172,44.567871 156.001101,35.6024781 L156.001101,35.6024781 Z M81.0190877,50.1732384 C77.2226657,47.7184495 72.8048162,46.2061718 68.669109,44.2732253 C64.4173306,42.2870296 60.0941238,40.4392818 55.9298453,38.2915635 C53.6584206,37.1165308 52.3459229,35.2315086 52.2869944,32.7092708 C52.2812557,32.3446353 52.2991498,31.980011 52.3405657,31.6176619 C52.6905651,28.6073063 54.3227052,26.6921095 57.0780576,25.5632261 C64.7423301,22.4161975 71.5548183,24.0651482 77.9494501,28.9356764 C81.4030156,31.5661876 84.6637243,31.5058385 86.6012209,29.1894977 C87.3146364,28.3307723 87.6756059,27.2359915 87.6119335,26.1241179 C87.553005,24.2355457 86.4512212,22.1517264 84.4405104,20.4442016 C75.3512403,12.7230654 58.713769,11.8764029 48.8048576,18.5219049 C44.226294,21.5926097 40.5334433,27.4571232 40.5798717,33.4316851 C40.5977289,38.0856665 42.8780821,42.8088719 48.7691433,46.3392949 C53.1977071,48.9928808 58.095913,50.8690281 62.720905,53.2119936 C66.7905408,55.2745132 71.006605,57.1648603 74.7423128,59.7296975 C76.8690949,61.190501 77.9869501,63.1908965 78.0887356,65.2480912 C78.1762355,67.292861 77.263737,69.3926551 75.3423118,71.0771052 C73.3928598,72.7562682 71.0634282,73.9413857 68.5530378,74.5312043 C61.9101921,76.0186324 55.8030598,74.2205839 50.1852123,70.551713 C48.3280727,69.3376309 46.5245043,67.8466528 44.467365,67.1881376 C43.0566532,66.7372942 40.7423715,66.9627159 39.7566589,67.8732775 C38.7638034,68.789164 37.8780907,70.8108592 38.0138047,72.1225648 C38.0316619,72.3284618 38.0673761,72.518384 38.1352331,72.6852315 C39.1138028,75.0406218 40.8227285,77.4510363 42.8852249,78.9473392 C48.9905715,83.3670241 56.1584163,84.795878 62.7155478,85 C69.8208927,85 75.6798112,83.7220188 80.8994451,80.2235454 C86.5780067,76.4126766 89.4565731,70.7416352 89.4833588,65.1043183 C89.5262159,59.4687763 86.7208636,53.861634 81.017302,50.1732384 L81.0190877,50.1732384 Z M127.751639,100.362069 C129.315629,100.362069 130.492827,101.172414 130.930071,102.586207 C131.115059,103.155172 131.199145,103.724138 131.199145,104.672414 C131.199145,105.637931 131.115059,106.206897 130.930071,106.775862 C130.492827,108.172414 129.315629,109 127.751639,109 C126.187648,109 125.010451,108.172414 124.573207,106.775862 C124.388219,106.206897 124.304133,105.637931 124.304133,104.672414 C124.304133,103.724138 124.388219,103.155172 124.573207,102.586207 C125.010451,101.172414 126.187648,100.362069 127.751639,100.362069 Z M164.177482,100.362069 C165.741473,100.362069 166.91867,101.172414 167.355914,102.586207 C167.540903,103.155172 167.624988,103.724138 167.624988,104.672414 C167.624988,105.637931 167.540903,106.206897 167.355914,106.775862 C166.91867,108.172414 165.741473,109 164.177482,109 C162.613492,109 161.436295,108.172414 160.99905,106.775862 C160.814062,106.206897 160.729976,105.637931 160.729976,104.672414 C160.729976,103.724138 160.814062,103.155172 160.99905,102.586207 C161.436295,101.172414 162.613492,100.362069 164.177482,100.362069 Z M79.3688361,100.362069 C80.9328266,100.362069 82.1100238,101.172414 82.5472684,102.586207 C82.7322565,103.155172 82.816342,103.724138 82.816342,104.672414 C82.816342,105.637931 82.7322565,106.206897 82.5472684,106.775862 C82.1100238,108.172414 80.9328266,109 79.3688361,109 C77.8048456,109 76.6276485,108.172414 76.1904038,106.775862 C76.0054157,106.206897 75.9213302,105.637931 75.9213302,104.672414 C75.9213302,103.724138 76.0054157,103.155172 76.1904038,102.586207 C76.6276485,101.172414 77.8048456,100.362069 79.3688361,100.362069 Z M196.129976,100.362069 C197.693967,100.362069 198.871164,101.172414 199.308409,102.586207 C199.493397,103.155172 199.577482,103.724138 199.577482,104.672414 C199.577482,105.637931 199.493397,106.206897 199.308409,106.775862 C198.871164,108.172414 197.693967,109 196.129976,109 C194.565986,109 193.388789,108.172414 192.951544,106.775862 C192.766556,106.206897 192.68247,105.637931 192.68247,104.672414 C192.68247,103.724138 192.766556,103.155172 192.951544,102.586207 C193.388789,101.172414 194.565986,100.362069 196.129976,100.362069 Z M180.187363,100.465517 C180.590974,100.465517 180.893682,100.758621 180.893682,101.241379 L180.893682,101.241379 L180.893682,108.12069 C180.893682,108.603448 180.590974,108.896552 180.187363,108.896552 C179.783753,108.896552 179.481045,108.603448 179.481045,108.12069 L179.481045,108.12069 L179.481045,107.87931 L179.464228,107.87931 C179.077435,108.517241 178.337482,109 177.244371,109 C175.495392,109 174.469549,107.775862 174.469549,105.896552 L174.469549,105.896552 L174.469549,101.241379 C174.469549,100.758621 174.772257,100.465517 175.175867,100.465517 C175.579477,100.465517 175.882185,100.758621 175.882185,101.241379 L175.882185,101.241379 L175.882185,105.551724 C175.882185,106.87931 176.453967,107.655172 177.664798,107.655172 C178.75791,107.655172 179.481045,106.862069 179.481045,105.637931 L179.481045,105.637931 L179.481045,101.241379 C179.481045,100.758621 179.783753,100.465517 180.187363,100.465517 Z M68.7740618,97 C69.1776722,97 69.48038,97.2931034 69.48038,97.7758621 L69.48038,108.12069 C69.48038,108.603448 69.1776722,108.896552 68.7740618,108.896552 C68.3704513,108.896552 68.0677435,108.603448 68.0677435,108.12069 L68.0677435,107.896552 L68.0509264,107.896552 C67.664133,108.551724 66.9578147,109 65.7638005,109 C64.4016152,109 63.4094062,108.224138 62.9889786,106.931034 C62.7871734,106.275862 62.7030879,105.62069 62.7030879,104.672414 C62.7030879,103.741379 62.7871734,103.086207 62.9889786,102.431034 C63.4094062,101.137931 64.4016152,100.362069 65.7638005,100.362069 C66.9746318,100.362069 67.6809501,100.827586 68.0509264,101.465517 L68.0677435,101.465517 L68.0677435,97.7758621 C68.0677435,97.2931034 68.3704513,97 68.7740618,97 Z M101.214252,100.362069 C102.795059,100.362069 103.938622,101.155172 104.375867,102.568966 C104.560855,103.12069 104.644941,103.758621 104.644941,104.568966 C104.644941,104.896552 104.426318,105.12069 104.089976,105.12069 L99.3643705,105.12069 C99.2971021,105.12069 99.2634679,105.155172 99.2634679,105.224138 C99.2634679,105.62069 99.2971021,105.896552 99.3980048,106.224138 C99.7007126,107.172414 100.440665,107.655172 101.432874,107.655172 C102.223278,107.655172 102.761425,107.413793 103.366841,106.948276 C103.535012,106.810345 103.686366,106.741379 103.854537,106.741379 C104.190879,106.741379 104.443135,107 104.443135,107.344828 C104.443135,107.551724 104.35905,107.724138 104.224513,107.862069 C103.535012,108.517241 102.576437,109 101.331971,109 C99.6670784,109 98.5403325,108.206897 98.0862708,106.758621 C97.9180998,106.241379 97.8171971,105.655172 97.8171971,104.672414 C97.8171971,103.689655 97.9012827,103.103448 98.0694537,102.586207 C98.5235154,101.155172 99.6838955,100.362069 101.214252,100.362069 Z M155.735297,100.362069 C156.677055,100.362069 157.51791,100.603448 158.140143,100.965517 C158.426033,101.12069 158.56057,101.310345 158.56057,101.568966 C158.56057,101.913793 158.291496,102.189655 157.955154,102.189655 C157.820618,102.189655 157.669264,102.155172 157.450641,102.051724 C156.912494,101.793103 156.307078,101.62069 155.668029,101.62069 C154.659002,101.62069 154.137672,102.086207 154.137672,102.758621 C154.137672,103.413793 154.507648,103.758621 155.71848,103.87931 L155.71848,103.87931 L156.559335,103.965517 C158.241045,104.155172 158.980998,104.965517 158.980998,106.310345 C158.980998,107.931034 157.837435,109 155.701663,109 C154.474014,109 153.448171,108.568966 152.775487,108.086207 C152.556865,107.931034 152.439145,107.724138 152.439145,107.482759 C152.439145,107.137931 152.708219,106.827586 153.095012,106.827586 C153.229549,106.827586 153.364086,106.862069 153.565891,106.982759 C154.221758,107.37931 154.911259,107.706897 155.819382,107.706897 C156.979762,107.706897 157.585178,107.189655 157.585178,106.465517 C157.585178,105.775862 157.28247,105.431034 156.004371,105.293103 L156.004371,105.293103 L155.163515,105.206897 C153.582708,105.034483 152.75867,104.206897 152.75867,102.87931 C152.75867,101.310345 153.851781,100.362069 155.735297,100.362069 Z M43.296152,100.362069 C44.2379097,100.362069 45.0787648,100.603448 45.7009976,100.965517 C45.9868884,101.12069 46.1214252,101.310345 46.1214252,101.568966 C46.1214252,101.913793 45.8523515,102.189655 45.5160095,102.189655 C45.3814727,102.189655 45.2301188,102.155172 45.0114964,102.051724 C44.4733492,101.793103 43.8679335,101.62069 43.2288836,101.62069 C42.2198575,101.62069 41.6985273,102.086207 41.6985273,102.758621 C41.6985273,103.413793 42.0685036,103.758621 43.2793349,103.87931 L43.2793349,103.87931 L44.12019,103.965517 C45.8019002,104.155172 46.5418527,104.965517 46.5418527,106.310345 C46.5418527,107.931034 45.3982898,109 43.2625178,109 C42.0348694,109 41.0090261,108.568966 40.336342,108.086207 C40.1177197,107.931034 40,107.724138 40,107.482759 C40,107.137931 40.2690736,106.827586 40.655867,106.827586 C40.7904038,106.827586 40.9249406,106.862069 41.1267458,106.982759 C41.7826128,107.37931 42.472114,107.706897 43.3802375,107.706897 C44.5406176,107.706897 45.1460333,107.189655 45.1460333,106.465517 C45.1460333,105.775862 44.8433254,105.431034 43.5652257,105.293103 L43.5652257,105.293103 L42.7243705,105.206897 C41.1435629,105.034483 40.3195249,104.206897 40.3195249,102.87931 C40.3195249,101.310345 41.4126366,100.362069 43.296152,100.362069 Z M59.7264608,100.465517 C60.1300713,100.465517 60.4327791,100.758621 60.4327791,101.241379 L60.4327791,101.241379 L60.4327791,108.12069 C60.4327791,108.603448 60.1300713,108.896552 59.7264608,108.896552 C59.3228504,108.896552 59.0201425,108.603448 59.0201425,108.12069 L59.0201425,108.12069 L59.0201425,107.87931 L59.0033254,107.87931 C58.6165321,108.517241 57.8765796,109 56.7834679,109 C55.0344893,109 54.0086461,107.775862 54.0086461,105.896552 L54.0086461,105.896552 L54.0086461,101.241379 C54.0086461,100.758621 54.3113539,100.465517 54.7149644,100.465517 C55.1185748,100.465517 55.4212827,100.758621 55.4212827,101.241379 L55.4212827,101.241379 L55.4212827,105.551724 C55.4212827,106.87931 55.9930641,107.655172 57.2038955,107.655172 C58.2970071,107.655172 59.0201425,106.862069 59.0201425,105.637931 L59.0201425,105.637931 L59.0201425,101.241379 C59.0201425,100.758621 59.3228504,100.465517 59.7264608,100.465517 Z M213.754299,100.362069 C214.696057,100.362069 215.536912,100.603448 216.159145,100.965517 C216.445036,101.12069 216.579572,101.310345 216.579572,101.568966 C216.579572,101.913793 216.310499,102.189655 215.974157,102.189655 C215.83962,102.189655 215.688266,102.155172 215.469644,102.051724 C214.931496,101.793103 214.326081,101.62069 213.687031,101.62069 C212.678005,101.62069 212.156675,102.086207 212.156675,102.758621 C212.156675,103.413793 212.526651,103.758621 213.737482,103.87931 L213.737482,103.87931 L214.578337,103.965517 C216.260048,104.155172 217,104.965517 217,106.310345 C217,107.931034 215.856437,109 213.720665,109 C212.493017,109 211.467173,108.568966 210.794489,108.086207 C210.575867,107.931034 210.458147,107.724138 210.458147,107.482759 C210.458147,107.137931 210.727221,106.827586 211.114014,106.827586 C211.248551,106.827586 211.383088,106.862069 211.584893,106.982759 C212.24076,107.37931 212.930261,107.706897 213.838385,107.706897 C214.998765,107.706897 215.604181,107.189655 215.604181,106.465517 C215.604181,105.775862 215.301473,105.431034 214.023373,105.293103 L214.023373,105.293103 L213.182518,105.206897 C211.60171,105.034483 210.777672,104.206897 210.777672,102.87931 C210.777672,101.310345 211.870784,100.362069 213.754299,100.362069 Z M107.789739,97.862069 C108.193349,97.862069 108.496057,98.1551724 108.496057,98.637931 L108.496057,98.637931 L108.496057,100.448276 C108.496057,100.517241 108.529691,100.551724 108.59696,100.551724 L108.59696,100.551724 L109.656437,100.551724 C110.04323,100.551724 110.261853,100.793103 110.261853,101.137931 C110.261853,101.482759 110.04323,101.724138 109.656437,101.724138 L109.656437,101.724138 L108.59696,101.724138 C108.529691,101.724138 108.496057,101.758621 108.496057,101.827586 L108.496057,101.827586 L108.496057,106.413793 C108.496057,107.293103 108.714679,107.551724 109.572352,107.551724 C110.009596,107.551724 110.261853,107.827586 110.261853,108.224138 C110.261853,108.62069 110.009596,108.896552 109.505083,108.896552 L109.505083,108.896552 L109.336912,108.896552 C107.688836,108.896552 107.08342,108.189655 107.08342,106.465517 L107.08342,106.465517 L107.08342,101.827586 C107.08342,101.758621 107.049786,101.724138 106.982518,101.724138 L106.982518,101.724138 L106.528456,101.724138 C106.141663,101.724138 105.92304,101.482759 105.92304,101.137931 C105.92304,100.793103 106.141663,100.551724 106.528456,100.551724 L106.528456,100.551724 L106.982518,100.551724 C107.049786,100.551724 107.08342,100.517241 107.08342,100.448276 L107.08342,100.448276 L107.08342,98.637931 C107.08342,98.1551724 107.386128,97.862069 107.789739,97.862069 Z M49.6530166,97.862069 C50.0566271,97.862069 50.3593349,98.1551724 50.3593349,98.637931 L50.3593349,98.637931 L50.3593349,100.448276 C50.3593349,100.517241 50.3929691,100.551724 50.4602375,100.551724 L50.4602375,100.551724 L51.519715,100.551724 C51.9065083,100.551724 52.1251306,100.793103 52.1251306,101.137931 C52.1251306,101.482759 51.9065083,101.724138 51.519715,101.724138 L51.519715,101.724138 L50.4602375,101.724138 C50.3929691,101.724138 50.3593349,101.758621 50.3593349,101.827586 L50.3593349,101.827586 L50.3593349,106.413793 C50.3593349,107.293103 50.5779572,107.551724 51.4356295,107.551724 C51.8728741,107.551724 52.1251306,107.827586 52.1251306,108.224138 C52.1251306,108.62069 51.8728741,108.896552 51.368361,108.896552 L51.368361,108.896552 L51.20019,108.896552 C49.552114,108.896552 48.9466983,108.189655 48.9466983,106.465517 L48.9466983,106.465517 L48.9466983,101.827586 C48.9466983,101.758621 48.9130641,101.724138 48.8457957,101.724138 L48.8457957,101.724138 L48.391734,101.724138 C48.0049406,101.724138 47.7863183,101.482759 47.7863183,101.137931 C47.7863183,100.793103 48.0049406,100.551724 48.391734,100.551724 L48.391734,100.551724 L48.8457957,100.551724 C48.9130641,100.551724 48.9466983,100.517241 48.9466983,100.448276 L48.9466983,100.448276 L48.9466983,98.637931 C48.9466983,98.1551724 49.2494062,97.862069 49.6530166,97.862069 Z M141.020333,97 C141.423943,97 141.726651,97.2931034 141.726651,97.7758621 L141.726651,97.7758621 L141.726651,104.534483 L145.022803,100.724138 C145.174157,100.551724 145.342328,100.465517 145.56095,100.465517 C145.880475,100.465517 146.149549,100.706897 146.149549,101.068966 C146.149549,101.258621 146.08228,101.396552 145.947743,101.551724 L145.947743,101.551724 L144.081045,103.637931 L146.620428,107.810345 C146.704513,107.948276 146.738147,108.086207 146.738147,108.241379 C146.738147,108.603448 146.452257,108.896552 146.065463,108.896552 C145.79639,108.896552 145.577767,108.758621 145.409596,108.482759 L145.409596,108.482759 L143.139287,104.672414 L141.726651,106.293103 L141.726651,108.12069 C141.726651,108.603448 141.423943,108.896552 141.020333,108.896552 C140.616722,108.896552 140.314014,108.603448 140.314014,108.12069 L140.314014,108.12069 L140.314014,97.7758621 C140.314014,97.2931034 140.616722,97 141.020333,97 Z M205.530736,100.362069 C207.279715,100.362069 208.322375,101.586207 208.322375,103.465517 L208.322375,103.465517 L208.322375,108.12069 C208.322375,108.603448 208.019667,108.896552 207.616057,108.896552 C207.212447,108.896552 206.909739,108.603448 206.909739,108.12069 L206.909739,108.12069 L206.909739,103.810345 C206.909739,102.482759 206.32114,101.706897 205.110309,101.706897 C204.017197,101.706897 203.260428,102.5 203.260428,103.724138 L203.260428,103.724138 L203.260428,108.12069 C203.260428,108.603448 202.95772,108.896552 202.554109,108.896552 C202.150499,108.896552 201.847791,108.603448 201.847791,108.12069 L201.847791,108.12069 L201.847791,101.241379 C201.847791,100.758621 202.150499,100.465517 202.554109,100.465517 C202.95772,100.465517 203.260428,100.758621 203.260428,101.241379 L203.260428,101.241379 L203.260428,101.482759 L203.277245,101.482759 C203.664038,100.844828 204.437625,100.362069 205.530736,100.362069 Z M136.967411,100.362069 C137.522375,100.362069 137.892352,100.5 138.161425,100.655172 C138.447316,100.810345 138.565036,101.034483 138.565036,101.275862 C138.565036,101.689655 138.279145,102 137.858717,102 C137.757815,102 137.623278,101.965517 137.505558,101.913793 C137.20285,101.793103 136.91696,101.706897 136.580618,101.706897 C135.369786,101.706897 134.88209,102.741379 134.88209,104.12069 L134.88209,104.12069 L134.88209,108.12069 C134.88209,108.603448 134.579382,108.896552 134.175772,108.896552 C133.772162,108.896552 133.469454,108.603448 133.469454,108.12069 L133.469454,108.12069 L133.469454,101.241379 C133.469454,100.758621 133.772162,100.465517 134.175772,100.465517 C134.579382,100.465517 134.88209,100.758621 134.88209,101.241379 L134.88209,101.241379 L134.88209,101.62069 L134.898907,101.62069 C135.235249,100.87931 135.975202,100.362069 136.967411,100.362069 Z M92.8393349,100.362069 C94.5883135,100.362069 95.6309739,101.586207 95.6309739,103.465517 L95.6309739,103.465517 L95.6309739,108.12069 C95.6309739,108.603448 95.328266,108.896552 94.9246556,108.896552 C94.5210451,108.896552 94.2183373,108.603448 94.2183373,108.12069 L94.2183373,108.12069 L94.2183373,103.810345 C94.2183373,102.482759 93.6297387,101.706897 92.4189074,101.706897 C91.3257957,101.706897 90.5690261,102.5 90.5690261,103.724138 L90.5690261,103.724138 L90.5690261,108.12069 C90.5690261,108.603448 90.2663183,108.896552 89.8627078,108.896552 C89.4590974,108.896552 89.1563895,108.603448 89.1563895,108.12069 L89.1563895,108.12069 L89.1563895,101.241379 C89.1563895,100.758621 89.4590974,100.465517 89.8627078,100.465517 C90.2663183,100.465517 90.5690261,100.758621 90.5690261,101.241379 L90.5690261,101.241379 L90.5690261,101.482759 L90.5858432,101.482759 C90.9726366,100.844828 91.7462233,100.362069 92.8393349,100.362069 Z M184.526176,97.862069 C184.929786,97.862069 185.232494,98.1551724 185.232494,98.637931 L185.232494,98.637931 L185.232494,100.448276 C185.232494,100.517241 185.266128,100.551724 185.333397,100.551724 L185.333397,100.551724 L186.392874,100.551724 C186.779667,100.551724 186.99829,100.793103 186.99829,101.137931 C186.99829,101.482759 186.779667,101.724138 186.392874,101.724138 L186.392874,101.724138 L185.333397,101.724138 C185.266128,101.724138 185.232494,101.758621 185.232494,101.827586 L185.232494,101.827586 L185.232494,106.413793 C185.232494,107.293103 185.451116,107.551724 186.308789,107.551724 C186.746033,107.551724 186.99829,107.827586 186.99829,108.224138 C186.99829,108.62069 186.746033,108.896552 186.24152,108.896552 L186.24152,108.896552 L186.073349,108.896552 C184.425273,108.896552 183.819857,108.189655 183.819857,106.465517 L183.819857,106.465517 L183.819857,101.827586 C183.819857,101.758621 183.786223,101.724138 183.718955,101.724138 L183.718955,101.724138 L183.264893,101.724138 C182.8781,101.724138 182.659477,101.482759 182.659477,101.137931 C182.659477,100.793103 182.8781,100.551724 183.264893,100.551724 L183.264893,100.551724 L183.718955,100.551724 C183.786223,100.551724 183.819857,100.517241 183.819857,100.448276 L183.819857,100.448276 L183.819857,98.637931 C183.819857,98.1551724 184.122565,97.862069 184.526176,97.862069 Z M189.705843,100.465517 C190.109454,100.465517 190.412162,100.758621 190.412162,101.241379 L190.412162,101.241379 L190.412162,108.12069 C190.412162,108.603448 190.109454,108.896552 189.705843,108.896552 C189.302233,108.896552 188.999525,108.603448 188.999525,108.12069 L188.999525,108.12069 L188.999525,101.241379 C188.999525,100.758621 189.302233,100.465517 189.705843,100.465517 Z M122.033824,100.465517 C122.437435,100.465517 122.706508,100.758621 122.706508,101.155172 C122.706508,101.241379 122.689691,101.362069 122.656057,101.465517 L122.656057,101.465517 L120.520285,108.155172 C120.352114,108.672414 120.08304,108.896552 119.696247,108.896552 C119.275819,108.896552 118.989929,108.672414 118.838575,108.155172 L118.838575,108.155172 L117.173682,102.724138 L117.140048,102.724138 L115.458337,108.155172 C115.290166,108.672414 115.021093,108.896552 114.617482,108.896552 C114.213872,108.896552 113.944798,108.672414 113.776627,108.155172 L113.776627,108.155172 L111.640855,101.465517 C111.607221,101.362069 111.590404,101.241379 111.590404,101.155172 C111.590404,100.758621 111.859477,100.465517 112.279905,100.465517 C112.633064,100.465517 112.851686,100.672414 112.969406,101.086207 L112.969406,101.086207 L114.667933,106.689655 L114.701568,106.689655 L116.383278,101.172414 C116.534632,100.672414 116.770071,100.465517 117.156865,100.465517 C117.543658,100.465517 117.779097,100.672414 117.930451,101.172414 L117.930451,101.172414 L119.645796,106.689655 L119.67943,106.689655 L121.344323,101.086207 C121.462043,100.672414 121.680665,100.465517 122.033824,100.465517 Z M170.567981,97 C170.971591,97 171.274299,97.2931034 171.274299,97.7758621 L171.274299,97.7758621 L171.274299,106.603448 C171.274299,107.293103 171.492922,107.551724 172.047886,107.551724 C172.451496,107.551724 172.703753,107.827586 172.703753,108.224138 C172.703753,108.62069 172.451496,108.896552 171.980618,108.896552 L171.980618,108.896552 L171.829264,108.896552 C170.382993,108.896552 169.861663,108.172414 169.861663,106.689655 L169.861663,106.689655 L169.861663,97.7758621 C169.861663,97.2931034 170.164371,97 170.567981,97 Z M72.9447031,100.465517 C73.3483135,100.465517 73.6510214,100.758621 73.6510214,101.241379 L73.6510214,101.241379 L73.6510214,108.12069 C73.6510214,108.603448 73.3483135,108.896552 72.9447031,108.896552 C72.5410926,108.896552 72.2383848,108.603448 72.2383848,108.12069 L72.2383848,108.12069 L72.2383848,101.241379 C72.2383848,100.758621 72.5410926,100.465517 72.9447031,100.465517 Z M66.1001425,101.706897 C65.2088361,101.706897 64.6034204,102.172414 64.3343468,103 C64.1829929,103.448276 64.1493587,103.965517 64.1493587,104.672414 C64.1493587,105.396552 64.1829929,105.913793 64.3343468,106.362069 C64.6034204,107.189655 65.2088361,107.655172 66.1001425,107.655172 C67.008266,107.655172 67.6136817,107.189655 67.8827553,106.362069 C68.0341093,105.913793 68.0677435,105.396552 68.0677435,104.672414 C68.0677435,103.965517 68.0341093,103.448276 67.8827553,103 C67.6136817,102.172414 67.008266,101.706897 66.1001425,101.706897 Z M164.177482,101.706897 C163.286176,101.706897 162.630309,102.172414 162.361235,103 C162.226698,103.448276 162.176247,103.87931 162.176247,104.672414 C162.176247,105.465517 162.226698,105.913793 162.361235,106.362069 C162.630309,107.189655 163.286176,107.655172 164.177482,107.655172 C165.068789,107.655172 165.724656,107.189655 165.993729,106.362069 C166.128266,105.913793 166.178717,105.465517 166.178717,104.672414 C166.178717,103.87931 166.128266,103.448276 165.993729,103 C165.724656,102.172414 165.068789,101.706897 164.177482,101.706897 Z M196.129976,101.706897 C195.23867,101.706897 194.582803,102.172414 194.313729,103 C194.179192,103.448276 194.128741,103.87931 194.128741,104.672414 C194.128741,105.465517 194.179192,105.913793 194.313729,106.362069 C194.582803,107.189655 195.23867,107.655172 196.129976,107.655172 C197.021283,107.655172 197.67715,107.189655 197.946223,106.362069 C198.08076,105.913793 198.131211,105.465517 198.131211,104.672414 C198.131211,103.87931 198.08076,103.448276 197.946223,103 C197.67715,102.172414 197.021283,101.706897 196.129976,101.706897 Z M127.751639,101.706897 C126.860333,101.706897 126.204466,102.172414 125.935392,103 C125.800855,103.448276 125.750404,103.87931 125.750404,104.672414 C125.750404,105.465517 125.800855,105.913793 125.935392,106.362069 C126.204466,107.189655 126.860333,107.655172 127.751639,107.655172 C128.642945,107.655172 129.298812,107.189655 129.567886,106.362069 C129.702423,105.913793 129.752874,105.465517 129.752874,104.672414 C129.752874,103.87931 129.702423,103.448276 129.567886,103 C129.298812,102.172414 128.642945,101.706897 127.751639,101.706897 Z M79.3688361,101.706897 C78.4775297,101.706897 77.8216627,102.172414 77.5525891,103 C77.4180523,103.448276 77.367601,103.87931 77.367601,104.672414 C77.367601,105.465517 77.4180523,105.913793 77.5525891,106.362069 C77.8216627,107.189655 78.4775297,107.655172 79.3688361,107.655172 C80.2601425,107.655172 80.9160095,107.189655 81.1850831,106.362069 C81.31962,105.913793 81.3700713,105.465517 81.3700713,104.672414 C81.3700713,103.87931 81.31962,103.448276 81.1850831,103 C80.9160095,102.172414 80.2601425,101.706897 79.3688361,101.706897 Z M101.231069,101.637931 C100.322945,101.637931 99.6502613,102.103448 99.3811876,102.931034 C99.2971021,103.189655 99.2634679,103.482759 99.2634679,103.862069 C99.2634679,103.931034 99.2971021,103.965517 99.3643705,103.965517 L103.097767,103.965517 C103.165036,103.965517 103.19867,103.931034 103.19867,103.862069 C103.19867,103.482759 103.165036,103.189655 103.08095,102.931034 C102.811876,102.103448 102.139192,101.637931 101.231069,101.637931 Z M72.9447031,97 C73.4492162,97 73.8696437,97.4137931 73.8696437,97.9482759 C73.8696437,98.4655172 73.4492162,98.8965517 72.9447031,98.8965517 C72.44019,98.8965517 72.0197625,98.4655172 72.0197625,97.9482759 C72.0197625,97.4137931 72.44019,97 72.9447031,97 Z M189.705843,97 C190.210356,97 190.630784,97.4137931 190.630784,97.9482759 C190.630784,98.4655172 190.210356,98.8965517 189.705843,98.8965517 C189.20133,98.8965517 188.780903,98.4655172 188.780903,97.9482759 C188.780903,97.4137931 189.20133,97 189.705843,97 Z M177.322493,18.5219049 C187.231404,11.8764029 203.86709,12.7230654 212.95636,20.4442016 C216.149212,23.1563616 217.059924,26.8181326 215.117071,29.1415734 C213.18136,31.4596892 209.918865,31.5164884 206.467086,28.8859771 C200.072454,24.0172239 193.259966,22.3682732 185.595693,25.5135269 C182.840341,26.6459602 181.208201,28.559382 180.858201,31.5697376 C180.499273,34.6706169 181.843914,36.9479083 184.445695,38.2915635 C188.609974,40.4392818 192.93318,42.2870296 197.184959,44.2732253 C201.320666,46.2061718 205.738515,47.7184495 209.533152,50.1732384 L209.533152,50.1732384 C220.927775,57.5411548 220.756347,72.5663083 209.413509,80.1738461 C204.195661,83.6723196 198.334957,84.9503007 191.231398,84.9503007 C184.67248,84.7461787 177.504636,83.3173248 171.40286,78.89764 C169.338578,77.401337 167.631438,74.9909225 166.652869,72.6355323 C166.143941,71.4090253 167.140368,68.920512 168.274294,67.8732775 C169.260007,66.9627159 171.574289,66.7372942 172.983215,67.1881376 C175.04214,67.8466528 176.845708,69.3376309 178.702848,70.551713 C184.320695,74.2205839 190.427828,76.0186324 197.070673,74.5312043 C199.581064,73.9413857 201.910495,72.7562682 203.859947,71.0771052 C207.727798,67.6851302 207.517084,62.6051551 203.259948,59.6799982 C199.52424,57.115161 195.308176,55.2248139 191.23854,53.1622943 C186.613548,50.8193288 181.715343,48.9431815 177.286779,46.2895956 C163.851088,38.2383143 169.19215,23.9763995 177.322493,18.5219049 Z" id="Combined-Shape"></path>
        </g>
    </g>
</svg>