<?xml version="1.0" encoding="UTF-8"?>
<svg width="294px" height="84px" viewBox="0 0 294 84" version="1.1" xmlns="http://www.w3.org/2000/svg" xmlns:xlink="http://www.w3.org/1999/xlink">
    <!-- Generator: Sketch 61.2 (89653) - https://sketch.com -->
    <title>logo_fitbit_fitness</title>
    <desc>Created with Sketch.</desc>
    <g id="03-what-we-do-(SRC)" stroke="none" stroke-width="1" fill="none" fill-rule="evenodd">
        <g id="Group-2">
            <path d="M192.287989,10.9835124 C192.792464,10.9835124 193.209124,11.3761501 193.247662,11.871118 L193.250571,11.9460943 L193.250571,36.5388217 C196.321303,33.2511405 201.641609,30.9949781 206.726718,30.9949781 C212.383598,30.9949781 217.508751,33.1639556 221.157337,37.1019752 C224.842926,41.0795322 226.7909,46.4789124 226.7909,52.7156731 C226.7909,67.7935894 216.713443,74.5423079 206.726718,74.5423079 C196.839359,74.5423079 186.864066,67.9278889 186.665549,53.1655134 L186.662536,52.7156731 L186.662536,11.9460943 C186.662536,11.4416192 187.055174,11.0249589 187.549704,10.9864209 L187.624611,10.9835124 L192.287989,10.9835124 Z M142.142385,32.3921666 C142.646377,32.3921666 143.063475,32.7848043 143.102055,33.2797722 L143.104967,33.3547486 L143.104967,72.0536863 C143.104967,72.5581614 142.71187,72.9748217 142.217296,73.0133597 L142.142385,73.0162682 L137.487118,73.0162682 C136.983125,73.0162682 136.566028,72.6236305 136.527448,72.1286626 L136.524536,72.0536863 L136.524536,33.3547486 C136.524536,32.8502734 136.917633,32.4336131 137.412207,32.3950751 L137.487118,32.3921666 L142.142385,32.3921666 Z M241.5181,32.3921666 C242.022093,32.3921666 242.43873,32.7848043 242.477267,33.2797722 L242.480175,33.3547486 L242.480175,72.0536863 C242.480175,72.5581614 242.087538,72.9748217 241.593008,73.0133597 L241.5181,73.0162682 L236.862326,73.0162682 C236.358334,73.0162682 235.941696,72.6236305 235.903159,72.1286626 L235.900251,72.0536863 L235.900251,33.3547486 C235.900251,32.8502734 236.292889,32.4336131 236.787419,32.3950751 L236.862326,32.3921666 L241.5181,32.3921666 Z M125.593984,10.9831576 C126.098459,10.9831576 126.51512,11.3762551 126.553658,11.8708288 L126.556566,11.9457395 L126.556566,16.6005 C126.556566,17.1049751 126.163928,17.5220953 125.66896,17.560677 L125.593984,17.5635889 L120.113502,17.5635889 C117.046116,17.5635889 114.721009,20.0113403 114.647969,23.2830351 L114.646198,23.4419791 L114.646198,32.3921159 L125.593984,32.3921159 C126.098459,32.3921159 126.51512,32.7852134 126.553658,33.2797872 L126.556566,33.3546979 L126.556566,38.0099653 C126.556566,38.5144404 126.163928,38.9311007 125.66896,38.9696387 L125.593984,38.9725472 L114.646198,38.9725472 L114.646198,72.0536356 C114.646198,72.5581107 114.253101,72.974771 113.758527,73.013309 L113.683616,73.0162175 L109.028349,73.0162175 C108.524357,73.0162175 108.107259,72.6235798 108.068679,72.1286119 L108.065767,72.0536356 L108.065767,38.9725472 L103.071898,38.9725472 C102.567905,38.9725472 102.150808,38.5799095 102.112228,38.0849416 L102.109316,38.0099653 L102.109316,33.3546979 C102.109316,32.8507055 102.502413,32.4336084 102.996987,32.3950277 L103.071898,32.3921159 L108.065767,32.3921159 L108.065767,23.4419791 C108.065767,16.6408129 113.543007,11.0950648 120.317883,10.9848299 L120.523575,10.9831576 L125.593984,10.9831576 Z M165.000235,16.5181306 C165.504227,16.5181306 165.921784,16.9107683 165.960408,17.4057362 L165.963323,17.4807125 L165.963323,32.3923693 L175.886687,32.3923693 C176.391162,32.3923693 176.807822,32.7850071 176.84636,33.2799749 L176.849269,33.3549513 L176.849269,38.0097118 C176.849269,38.5141869 176.456631,38.9308473 175.961663,38.9693853 L175.886687,38.9722938 L165.963323,38.9722938 L165.963323,60.815149 C165.963323,64.0705985 168.140084,66.358926 171.277562,66.4307511 L171.43012,66.4324914 L175.886687,66.4324914 C176.391162,66.4324914 176.807822,66.8255889 176.84636,67.3206006 L176.849269,67.3955803 L176.849269,72.0503408 C176.849269,72.5543332 176.456631,72.9714303 175.961663,73.010011 L175.886687,73.0129228 L170.847705,73.0129228 C164.05808,73.0129228 159.473759,68.4969946 159.382752,61.752657 L159.381371,61.5476034 L159.381371,38.9722938 L154.388516,38.9722938 C153.884524,38.9722938 153.467427,38.579656 153.428846,38.0846882 L153.425934,38.0097118 L153.425934,33.3549513 C153.425934,32.8504762 153.819032,32.4338158 154.313605,32.3952778 L154.388516,32.3923693 L159.381371,32.3923693 L159.381371,17.4807125 C159.381371,16.9762374 159.774469,16.5595771 160.269481,16.5210391 L160.34446,16.5181306 L165.000235,16.5181306 Z M263.384678,16.5181306 C263.88867,16.5181306 264.305767,16.9107683 264.344348,17.4057362 L264.34726,17.4807125 L264.34726,32.3923693 L274.27113,32.3923693 C274.775605,32.3923693 275.192266,32.7850071 275.230804,33.2799749 L275.233712,33.3549513 L275.233712,38.0097118 C275.233712,38.5141869 274.841074,38.9308473 274.346106,38.9693853 L274.27113,38.9722938 L264.34726,38.9722938 L264.34726,60.815149 C264.34726,64.0705985 266.524512,66.358926 269.661522,66.4307511 L269.814056,66.4324914 L274.27113,66.4324914 C274.775605,66.4324914 275.192266,66.8255889 275.230804,67.3206006 L275.233712,67.3955803 L275.233712,72.0503408 C275.233712,72.5543332 274.841074,72.9714303 274.346106,73.010011 L274.27113,73.0129228 L269.231641,73.0129228 C262.442017,73.0129228 257.858689,68.4969946 257.767701,61.752657 L257.766322,61.5476034 L257.766322,38.9722938 L252.772959,38.9722938 C252.268967,38.9722938 251.85187,38.579656 251.813289,38.0846882 L251.810377,38.0097118 L251.810377,33.3549513 C251.810377,32.8504762 252.203475,32.4338158 252.698049,32.3952778 L252.772959,32.3923693 L257.766322,32.3923693 L257.766322,17.4807125 C257.766322,16.9762374 258.158959,16.5595771 258.653927,16.5210391 L258.728904,16.5181306 L263.384678,16.5181306 Z M206.726718,37.581999 C198.665664,37.581999 193.24905,43.6636516 193.24905,52.7156731 C193.24905,60.0833028 196.789669,67.955287 206.726718,67.955287 C216.663768,67.955287 220.203879,60.0833028 220.203879,52.7156731 C220.203879,43.6636516 214.787772,37.581999 206.726718,37.581999 Z M139.813636,16.1318813 C142.271033,16.1318813 144.27071,18.131051 144.27071,20.5884482 C144.27071,23.0453386 142.271033,25.0445083 139.813636,25.0445083 C137.357253,25.0445083 135.35859,23.0453386 135.35859,20.5884482 C135.35859,18.131051 137.357253,16.1318813 139.813636,16.1318813 Z M239.188895,16.1325909 C241.628551,16.1325909 243.614542,18.1312537 243.614542,20.5881441 C243.614542,23.0450344 241.628551,25.0436973 239.188895,25.0436973 C236.749746,25.0436973 234.701915,23.0450344 234.701915,20.5881441 C234.701915,18.1312537 236.749746,16.1325909 239.188895,16.1325909 Z" id="Shape" fill="#FFFFFF" fill-rule="nonzero"></path>
            <path d="M43.4654669,67.5363433 C46.4921004,67.5363433 48.9449356,69.9896855 48.9449356,73.0163189 C48.9449356,76.0424455 46.4921004,78.4962945 43.4654669,78.4962945 C40.4393404,78.4962945 37.9859983,76.0424455 37.9859983,73.0163189 C37.9859983,69.9896855 40.4393404,67.5363433 43.4654669,67.5363433 Z M58.5555486,51.0796893 C62.1063052,51.0796893 64.9849271,53.9578043 64.9849271,57.5090677 C64.9849271,61.0598242 62.1063052,63.9384461 58.5555486,63.9384461 C55.0047921,63.9384461 52.1261702,61.0598242 52.1261702,57.5090677 C52.1261702,53.9578043 55.0047921,51.0796893 58.5555486,51.0796893 Z M43.4654669,51.8101161 C46.6127399,51.8101161 49.1644185,54.3612878 49.1644185,57.5090677 C49.1644185,60.6563407 46.6127399,63.2075124 43.4654669,63.2075124 C40.3181939,63.2075124 37.7665154,60.6563407 37.7665154,57.5090677 C37.7665154,54.3612878 40.3181939,51.8101161 43.4654669,51.8101161 Z M28.1792193,52.540543 C30.9230087,52.540543 33.1472371,54.7652782 33.1472371,57.5090677 C33.1472371,60.2528572 30.9230087,62.4770855 28.1792193,62.4770855 C25.4354298,62.4770855 23.2106946,60.2528572 23.2106946,57.5090677 C23.2106946,54.7652782 25.4354298,52.540543 28.1792193,52.540543 Z M74.0470863,34.6210076 C78.1224728,34.6210076 81.4263745,37.9249093 81.4263745,42.0002958 C81.4263745,46.0761892 78.1224728,49.379584 74.0470863,49.379584 C69.9716998,49.379584 66.6677981,46.0761892 66.6677981,42.0002958 C66.6677981,37.9249093 69.9716998,34.6210076 74.0470863,34.6210076 Z M58.5555486,35.3519414 C62.2274516,35.3519414 65.203903,38.3283928 65.203903,42.0002958 C65.203903,45.6727057 62.2274516,48.6491571 58.5555486,48.6491571 C54.8836456,48.6491571 51.9066873,45.6727057 51.9066873,42.0002958 C51.9066873,38.3283928 54.8836456,35.3519414 58.5555486,35.3519414 Z M43.4654669,36.0823683 C46.7338864,36.0823683 49.3833945,38.7318764 49.3833945,42.0002958 C49.3833945,45.2692221 46.7338864,47.9182234 43.4654669,47.9182234 C40.1970475,47.9182234 37.5475394,45.2692221 37.5475394,42.0002958 C37.5475394,38.7318764 40.1970475,36.0823683 43.4654669,36.0823683 Z M28.1792193,36.813302 C31.0441552,36.813302 33.36672,39.1358668 33.36672,42.0002958 C33.36672,44.8657386 31.0441552,47.1877965 28.1792193,47.1877965 C25.3142834,47.1877965 22.9917186,44.8657386 22.9917186,42.0002958 C22.9917186,39.1358668 25.3142834,36.813302 28.1792193,36.813302 Z M12.8914509,37.5437289 C15.3529033,37.5437289 17.3480179,39.5393504 17.3480179,42.0002958 C17.3480179,44.4617482 15.3529033,46.4568628 12.8914509,46.4568628 C10.4305055,46.4568628 8.43488399,44.4617482 8.43488399,42.0002958 C8.43488399,39.5393504 10.4305055,37.5437289 12.8914509,37.5437289 Z M58.5555486,20.0616386 C62.1063052,20.0616386 64.9849271,22.9402605 64.9849271,26.491017 C64.9849271,30.0417736 62.1063052,32.9203955 58.5555486,32.9203955 C55.0047921,32.9203955 52.1261702,30.0417736 52.1261702,26.491017 C52.1261702,22.9402605 55.0047921,20.0616386 58.5555486,20.0616386 Z M43.4654669,20.7920655 C46.6127399,20.7920655 49.1644185,23.343744 49.1644185,26.491017 C49.1644185,29.63829 46.6127399,32.1899686 43.4654669,32.1899686 C40.3181939,32.1899686 37.7665154,29.63829 37.7665154,26.491017 C37.7665154,23.343744 40.3181939,20.7920655 43.4654669,20.7920655 Z M28.1792193,21.5229992 C30.9230087,21.5229992 33.1472371,23.7472276 33.1472371,26.491017 C33.1472371,29.2348065 30.9230087,31.4595418 28.1792193,31.4595418 C25.4354298,31.4595418 23.2106946,29.2348065 23.2106946,26.491017 C23.2106946,23.7472276 25.4354298,21.5229992 28.1792193,21.5229992 Z M43.4654669,5.50429714 C46.4921004,5.50429714 48.9449356,7.95763927 48.9449356,10.9837658 C48.9449356,14.0103993 46.4921004,16.4637414 43.4654669,16.4637414 C40.4393404,16.4637414 37.9859983,14.0103993 37.9859983,10.9837658 C37.9859983,7.95763927 40.4393404,5.50429714 43.4654669,5.50429714 Z" id="Combined-Shape" fill="#00B2BC"></path>
        </g>
    </g>
</svg>