<?xml version="1.0" encoding="UTF-8"?>
<svg width="256px" height="256px" viewBox="0 0 256 256" version="1.1" xmlns="http://www.w3.org/2000/svg" xmlns:xlink="http://www.w3.org/1999/xlink">
    <!-- Generator: Sketch 46.2 (44496) - http://www.bohemiancoding.com/sketch -->
    <defs></defs>
    <g id="---Logos" stroke="none" stroke-width="1" fill="none" fill-rule="evenodd">
        <g id="Group">
            <path d="M197.792422,166.400534 C194.06998,166.400534 191.052344,163.385272 191.052344,159.665758 C191.052344,155.946245 194.06998,152.930983 197.792422,152.930983 C201.514864,152.930983 204.5325,155.946245 204.5325,159.665758 C204.5325,163.385272 201.514864,166.400534 197.792422,166.400534 Z M210.659844,163.951524 C208.629421,163.951524 206.983438,162.306836 206.983438,160.278011 C206.983438,158.249185 208.629421,156.604497 210.659844,156.604497 C212.690267,156.604497 214.33625,158.249185 214.33625,160.278011 C214.33625,162.306836 212.690267,163.951524 210.659844,163.951524 Z M230.267344,162.72702 C228.913728,162.72702 227.816406,161.630561 227.816406,160.278011 C227.816406,158.92546 228.913728,157.829002 230.267344,157.829002 C231.620959,157.829002 232.718281,158.92546 232.718281,160.278011 C232.718281,161.630561 231.620959,162.72702 230.267344,162.72702 Z M238.232891,162.114768 C237.217679,162.114768 236.394688,161.292423 236.394688,160.278011 C236.394688,159.263598 237.217679,158.441254 238.232891,158.441254 C239.248102,158.441254 240.071094,159.263598 240.071094,160.278011 C240.071094,161.292423 239.248102,162.114768 238.232891,162.114768 Z M220.463594,163.339272 C218.771574,163.339272 217.399922,161.968699 217.399922,160.278011 C217.399922,158.587323 218.771574,157.216749 220.463594,157.216749 C222.155613,157.216749 223.527266,158.587323 223.527266,160.278011 C223.527266,161.968699 222.155613,163.339272 220.463594,163.339272 Z M228.636997,149.709807 C227.38642,150.227814 225.95303,149.634745 225.435431,148.385151 C224.917833,147.135557 225.512029,145.702635 226.762607,145.184628 C228.013185,144.666622 229.446575,145.259691 229.964173,146.509285 C230.481772,147.758878 229.887575,149.191801 228.636997,149.709807 Z M235.761904,146.098276 C234.823971,146.48678 233.748929,146.041979 233.36073,145.104783 C232.972531,144.167588 233.418178,143.092896 234.356111,142.704391 C235.294045,142.315887 236.369087,142.760688 236.757286,143.697884 C237.145485,144.635079 236.699837,145.709771 235.761904,146.098276 Z M219.813812,154.024236 C218.25059,154.671743 216.458853,153.930407 215.811854,152.368415 C215.164856,150.806423 215.907602,149.01527 217.470824,148.367762 C219.034046,147.720254 220.825784,148.46159 221.472782,150.023582 C222.11978,151.585574 221.377034,153.376728 219.813812,154.024236 Z M228.636997,170.846214 C229.887575,171.36422 230.481772,172.797143 229.964173,174.046737 C229.446575,175.29633 228.013185,175.889399 226.762607,175.371393 C225.512029,174.853387 224.917833,173.420464 225.435431,172.17087 C225.95303,170.921277 227.38642,170.328208 228.636997,170.846214 Z M235.761904,174.457746 C236.699837,174.84625 237.145485,175.920943 236.757286,176.858138 C236.369087,177.795333 235.294045,178.240135 234.356111,177.85163 C233.418178,177.463125 232.972531,176.388433 233.36073,175.451238 C233.748929,174.514043 234.823971,174.069241 235.761904,174.457746 Z M219.813812,166.531786 C221.377034,167.179293 222.11978,168.970447 221.472782,170.532439 C220.825784,172.094431 219.034046,172.835767 217.470824,172.188259 C215.907602,171.540752 215.164856,169.749598 215.811854,168.187606 C216.458853,166.625614 218.25059,165.884278 219.813812,166.531786 Z M209.673378,153.599491 C208.237652,155.035217 205.910796,155.036133 204.4762,153.601536 C203.041604,152.16694 203.042519,149.840084 204.478245,148.404358 C205.913971,146.968632 208.240827,146.967717 209.675424,148.402313 C211.11002,149.836909 211.109104,152.163765 209.673378,153.599491 Z M222.672119,138.879948 C221.714968,139.837098 220.163731,139.837709 219.207334,138.881311 C218.250936,137.924914 218.251546,136.373677 219.208697,135.416526 C220.165848,134.459375 221.717085,134.458765 222.673483,135.415162 C223.62988,136.37156 223.62927,137.922797 222.672119,138.879948 Z M227.871684,132.818959 C227.153821,133.536822 225.990393,133.53728 225.273094,132.819982 C224.555796,132.102684 224.556254,130.939256 225.274117,130.221393 C225.99198,129.50353 227.155408,129.503072 227.872706,130.22037 C228.590004,130.937669 228.589546,132.101096 227.871684,132.818959 Z M216.172749,146.23972 C214.97631,147.436158 213.037264,147.436921 211.841767,146.241424 C210.64627,145.045927 210.647033,143.10688 211.843471,141.910442 C213.03991,140.714004 214.978956,140.713241 216.174453,141.908738 C217.36995,143.104235 217.369187,145.043281 216.172749,146.23972 Z M204.478245,172.151663 C203.042519,170.715937 203.041604,168.389081 204.4762,166.954485 C205.910796,165.519889 208.237652,165.520804 209.673378,166.95653 C211.109104,168.392256 211.11002,170.719112 209.675424,172.153708 C208.240827,173.588305 205.913971,173.587389 204.478245,172.151663 Z M219.208697,185.139495 C218.251546,184.182345 218.250936,182.631107 219.207334,181.67471 C220.163731,180.718312 221.714968,180.718923 222.672119,181.676073 C223.62927,182.633224 223.62988,184.184461 222.673483,185.140859 C221.717085,186.097257 220.165848,186.096646 219.208697,185.139495 Z M225.274117,190.334628 C224.556254,189.616765 224.555796,188.453337 225.273094,187.736039 C225.990393,187.018741 227.153821,187.019199 227.871684,187.737062 C228.589546,188.454925 228.590004,189.618353 227.872706,190.335651 C227.155408,191.052949 225.99198,191.052491 225.274117,190.334628 Z M211.843471,178.645579 C210.647033,177.449141 210.64627,175.510094 211.841767,174.314597 C213.037264,173.1191 214.97631,173.119864 216.172749,174.316302 C217.369187,175.51274 217.36995,177.451787 216.174453,178.647284 C214.978956,179.842781 213.03991,179.842018 211.843471,178.645579 Z" id="Combined-Shape" fill="#FAA21E"></path>
            <path d="M144.286689,109.515494 C141.574523,109.025011 139.76129,107.476924 139.646043,105.55331 C139.59226,104.78693 139.707508,104.204482 140.022519,103.57605 C140.31448,102.993602 141.044383,102.20423 141.58989,101.874687 C141.820385,101.744402 142.004782,101.614118 141.997099,101.591127 C141.997099,101.568135 141.835752,101.453178 141.643672,101.322894 C140.67559,100.702126 140.283747,99.2766594 140.783155,98.2420466 C141.005967,97.7745549 141.582206,97.19977 141.950999,97.0618216 C142.104663,97.008175 142.235277,96.9315371 142.235277,96.8932181 C142.235277,96.8548991 142.050881,96.6249851 141.820385,96.3797436 C140.859987,95.337467 140.383629,93.8430263 140.491193,92.1723182 C140.552659,91.2373348 140.69864,90.6778775 141.090482,89.8808425 C141.674405,88.6929537 142.696269,87.8192807 144.040827,87.3671166 C144.924394,87.0682284 146.445665,87.0145818 147.375331,87.2444958 C148.33573,87.4897373 148.950385,87.8269445 149.61114,88.4630398 C149.92615,88.7695917 150.187379,89.022497 150.195062,89.022497 C150.202745,89.022497 150.28726,88.8768849 150.371775,88.6929537 C150.871183,87.6736685 152.06976,86.9532715 153.276021,86.9532715 L153.68323,86.9532715 L153.68323,88.3710742 L153.68323,89.7888769 L153.398952,89.7888769 C152.953327,89.7888769 152.26184,90.011127 151.969879,90.2563686 C151.508887,90.6318947 151.455105,90.8388173 151.462788,92.2106372 C151.478155,93.9886384 151.216926,94.9159581 150.417874,96.0425364 C149.764803,96.9468647 148.581592,97.7055807 147.42143,97.9508223 C146.783726,98.0811068 145.185622,98.1040982 144.494135,97.9814774 C144.094609,97.9125033 143.979362,97.9201671 143.779599,98.0197964 C143.479954,98.1807362 143.387756,98.3570036 143.387756,98.7938401 C143.387756,99.0850644 143.426172,99.1923576 143.602885,99.368625 C143.994728,99.7518149 144.455719,99.8361167 146.622379,99.9127547 C147.705709,99.9434099 148.835137,100.012384 149.119415,100.058367 C149.826269,100.173324 150.8174,100.518195 151.34754,100.83241 C152.761247,101.690756 153.575665,103.29249 153.414318,104.909551 C153.168456,107.400286 151.216926,109.078658 148.020719,109.553813 C147.244717,109.66877 145.016592,109.645779 144.286689,109.515494 L144.286689,109.515494 L144.286689,109.515494 Z M147.859372,107.155044 C149.134782,106.909803 149.92615,106.411656 150.379459,105.568638 C150.617637,105.131801 150.64837,105.016844 150.64837,104.495706 C150.64837,103.982232 150.617637,103.874938 150.417874,103.537731 C150.256527,103.284826 150.049081,103.077903 149.764803,102.9093 C148.965752,102.434144 148.796721,102.411153 146.368834,102.372834 L144.156075,102.349843 L143.695084,102.595084 C142.250644,103.361464 141.874168,104.970862 142.880665,106.089776 C143.380073,106.649234 144.279006,107.032423 145.400752,107.178036 C146.184437,107.285329 147.2524,107.270001 147.859372,107.155044 L147.859372,107.155044 L147.859372,107.155044 Z M146.960439,95.6976655 C147.774857,95.337467 148.351096,94.6247337 148.620008,93.6361037 C149.22698,91.4519212 147.905471,89.2217558 146.00004,89.2217558 C145.30087,89.2217558 144.801463,89.4363422 144.271323,89.9728081 C143.172627,91.076395 142.919081,92.7777583 143.625935,94.2875266 C144.26364,95.6363551 145.715762,96.249459 146.960439,95.6976655 L146.960439,95.6976655 Z M85.5717538,101.47617 C84.2809779,101.238592 83.3052128,100.732781 82.3140814,99.7977977 C81.3920986,98.9164609 80.6545124,97.6289427 80.2626697,96.2264676 C79.9937581,95.2531652 79.9246094,93.475164 80.1090059,92.4175598 C80.4701158,90.3253428 81.5841783,88.6852899 83.2130145,87.8499359 C84.1042645,87.390108 84.8802667,87.1831854 85.9559133,87.1295388 C87.9458594,87.0299094 89.6207947,87.6813323 90.6964413,88.9688505 C91.172799,89.5436353 91.7029391,90.6089033 91.9103852,91.4289298 C92.0947818,92.1569906 92.2330792,93.5364743 92.2023464,94.272199 L92.1792969,94.8086649 L87.4695016,94.8316563 L82.7597064,94.8469839 L82.8134887,95.2531652 C83.0363012,97.19977 84.3808594,98.7785125 86.1940921,99.2460042 C86.8164305,99.406944 88.1994046,99.406944 88.9754068,99.2460042 C89.2981008,99.17703 89.8973895,98.9930988 90.2969154,98.8244953 C90.6964413,98.6558917 91.0575512,98.5102795 91.0959671,98.5026157 C91.1497495,98.4872881 91.8335533,100.364919 91.8335533,100.525859 C91.8335533,100.617824 90.5427775,101.123635 89.9204391,101.284575 C88.7372279,101.583463 86.6397171,101.675428 85.5717538,101.47617 L85.5717538,101.47617 Z M89.5285964,92.294939 C89.5285964,91.9117491 89.3134671,91.1683606 89.0906546,90.7928345 C88.7602775,90.2333772 88.3838012,89.8808425 87.807562,89.5896181 C86.1172602,88.7619279 83.9506008,89.5512991 83.1361827,91.2909814 C83.0055684,91.5745419 82.8826374,91.9730595 82.8595878,92.1723182 L82.8211719,92.5478443 L86.1787258,92.5478443 L89.5285964,92.5478443 L89.5285964,92.294939 L89.5285964,92.294939 Z M111.003112,101.47617 C109.858316,101.299902 108.045084,100.702126 108.045084,100.502867 C108.045084,100.395574 108.667422,98.5792537 108.728887,98.5102795 C108.75962,98.4796243 109.136096,98.5945813 109.566355,98.7631849 C110.688101,99.2000214 111.43337,99.3762888 112.194006,99.3839526 C113.285019,99.3992802 114.10712,99.1233834 114.667993,98.5639261 C115.198133,98.0274602 115.33643,97.4220202 115.044469,96.8472353 C114.752508,96.287778 114.2992,96.0348726 112.278521,95.3527946 C110.457605,94.7320269 109.704652,94.348837 109.074631,93.7357331 C108.306312,92.9846808 108.0374,92.3026028 108.0374,91.1377054 C108.045084,88.7082813 109.812217,87.2598234 112.931592,87.1295388 C114.084071,87.0758922 114.921538,87.1755216 115.843521,87.466746 C116.358295,87.6276857 117.341743,88.0645222 117.341743,88.1258326 C117.341743,88.1334964 117.257228,88.6009881 117.149663,89.1681092 C117.042099,89.7352303 116.957584,90.202722 116.957584,90.2180496 C116.957584,90.2257134 116.704038,90.1184202 116.396711,89.9804719 C115.298015,89.4746612 114.575795,89.3060576 113.500148,89.2983938 C112.447551,89.2983938 112.024976,89.3980232 111.494836,89.7812131 C110.603586,90.4096446 110.603586,91.459585 111.479469,92.0190422 C111.917411,92.2872752 112.332303,92.448215 113.922724,92.9463619 C115.920353,93.5671295 116.834652,94.1112592 117.456991,95.0462426 C117.917982,95.7129931 118.063963,96.2571228 118.063963,97.1844424 C118.048596,98.6635555 117.441624,99.7748063 116.189265,100.617824 C114.983004,101.430187 112.900859,101.775058 111.003112,101.47617 L111.003112,101.47617 Z M168.150676,101.47617 C165.937918,101.077652 164.278349,99.7901339 163.325633,97.7362359 C162.465116,95.8815967 162.40365,93.2145948 163.179652,91.2526624 C163.924922,89.3826956 165.323262,88.0415308 167.205644,87.4054356 C167.866398,87.1831854 168.043112,87.1525302 169.088025,87.121875 C170.079157,87.0988836 170.340385,87.1142112 170.931991,87.2521596 C172.998769,87.7426427 174.573823,89.1911006 175.349825,91.306309 C176.041312,93.1916034 176.010579,95.6900017 175.280676,97.5676323 C174.174297,100.433893 171.239318,102.035627 168.150676,101.47617 L168.150676,101.47617 Z M158.623521,101.407195 C157.540191,101.131299 156.595159,100.341927 156.065019,99.2689956 C155.542562,98.2113914 155.527196,98.0657792 155.527196,93.6820865 L155.527196,89.7888769 L156.295515,89.7888769 L157.063834,89.7888769 L157.063834,88.3710742 L157.063834,86.9532715 L156.295515,86.9532715 L155.527196,86.9532715 L155.527196,84.9990028 L155.527196,83.0447342 L156.91017,83.0447342 L158.293144,83.0447342 L158.293144,84.9990028 L158.293144,86.9532715 L159.94503,86.9532715 L161.596915,86.9532715 L161.596915,88.3710742 L161.596915,89.7888769 L159.94503,89.7888769 L158.285461,89.7888769 L158.30851,93.7587245 C158.33156,97.6366065 158.33156,97.7285721 158.50059,98.0811068 C158.754135,98.6329003 159.238176,99.1080558 159.691484,99.2613318 C160.067961,99.3839526 160.6442,99.3762888 161.158974,99.253668 C161.320321,99.2076852 161.34337,99.2689956 161.589232,100.211643 C161.735213,100.763436 161.835094,101.223264 161.819728,101.238592 C161.558499,101.453178 159.276592,101.575799 158.623521,101.407195 L158.623521,101.407195 Z M66.5558594,91.8964215 L66.5558594,82.3549924 L68.0540814,82.3549924 L69.5523033,82.3549924 L69.5676697,86.7386851 L69.5907193,91.1300416 L73.0788874,86.7463489 L76.5747387,82.3549924 L78.4187042,82.3549924 C80.1627883,82.3549924 80.2473033,82.3626562 80.1397387,82.4929408 C79.2869046,83.473907 72.902174,91.3139728 72.8791245,91.4059384 C72.8560749,91.4902401 74.2006331,93.24525 76.7284025,96.4257264 C78.8643292,99.1157196 80.6160964,101.345885 80.6160964,101.37654 C80.6160964,101.407195 79.7094801,101.437851 78.6031008,101.430187 L76.5824219,101.430187 L73.1249865,96.7629335 C71.2272387,94.195561 69.6445016,92.0956802 69.6137689,92.0880164 C69.5753529,92.0880164 69.5523033,94.195561 69.5523033,96.7629335 L69.5523033,101.437851 L68.0540814,101.437851 L66.5558594,101.437851 L66.5558594,91.8964215 L66.5558594,91.8964215 Z M94.4458378,95.3068118 L94.4458378,89.1681092 L94.6609671,88.9765143 C96.2206546,87.5663753 98.4257301,86.8613059 100.899717,86.9762629 C102.036829,87.0299094 102.636118,87.1678578 103.488952,87.5740391 C104.579965,88.0951774 105.348284,89.0148332 105.732443,90.2716962 C105.993672,91.1377054 106.047454,92.218301 106.047454,96.9392009 L106.047454,101.437851 L104.66448,101.437851 L103.281506,101.437851 L103.281506,96.9775198 C103.281506,94.5174405 103.250773,92.2336286 103.212357,91.8964215 C103.07406,90.6855413 102.605385,89.9191615 101.760234,89.5053163 C101.353025,89.3060576 101.253144,89.29073 100.438726,89.2983938 C99.2170986,89.2983938 98.2029176,89.5896181 97.4653314,90.1490754 L97.2117861,90.3330066 L97.2117861,95.8892605 L97.2117861,101.437851 L95.828812,101.437851 L94.4458378,101.437851 L94.4458378,95.3068118 L94.4458378,95.3068118 Z M120.568683,94.348837 L120.568683,87.2598234 L121.951657,87.2598234 L123.334631,87.2598234 L123.334631,94.348837 L123.334631,101.437851 L121.951657,101.437851 L120.568683,101.437851 L120.568683,94.348837 L120.568683,94.348837 Z M126.407907,95.2761566 L126.407907,89.1144626 L126.738284,88.8538935 C128.405536,87.4897373 130.464631,86.8613059 132.861786,86.9762629 C135.059178,87.083556 136.572767,87.9189101 137.325719,89.4363422 C137.909642,90.6242309 137.886592,90.2946876 137.909642,96.172821 L137.940374,101.437851 L136.549717,101.437851 L135.166743,101.437851 L135.166743,96.6096575 C135.166743,93.3295518 135.13601,91.6588437 135.082228,91.382947 C134.897831,90.5092739 134.41379,89.8425235 133.722303,89.5053163 C133.322777,89.3060576 133.215213,89.29073 132.400795,89.29073 C131.225267,89.2983938 130.234135,89.5742905 129.4274,90.1184202 L129.173855,90.2870238 L129.173855,95.8662691 L129.173855,101.437851 L127.790881,101.437851 L126.407907,101.437851 L126.407907,95.2761566 L126.407907,95.2761566 Z M177.57795,95.2838204 L177.57795,89.1297902 L178.138823,88.6929537 C178.822627,88.148824 180.174868,87.4744098 180.996969,87.2674872 C182.39531,86.9149525 184.377573,86.8689697 185.491635,87.1525302 C187.435482,87.6506771 188.618693,88.8998763 188.99517,90.8464811 C189.079685,91.2986452 189.102734,92.4175598 189.102734,96.4257264 L189.102734,101.437851 L187.71976,101.437851 L186.344469,101.437851 L186.32142,96.364416 L186.29837,91.2833176 L186.121657,90.8541449 C185.891161,90.2716962 185.43017,89.7658855 184.892346,89.5053163 C184.485137,89.3060576 184.385256,89.29073 183.570838,89.29073 C182.364577,89.2983938 181.342713,89.5896181 180.597443,90.1490754 L180.343898,90.3330066 L180.343898,95.8892605 L180.343898,101.437851 L178.960924,101.437851 L177.57795,101.437851 L177.57795,95.2838204 L177.57795,95.2838204 Z M120.568683,84.309261 L120.568683,83.0447342 L121.951657,83.0447342 L123.334631,83.0447342 L123.334631,84.309261 L123.334631,85.5737877 L121.951657,85.5737877 L120.568683,85.5737877 L120.568683,84.309261 L120.568683,84.309261 Z M170.524782,99.1080558 C170.186721,99.2689956 169.940859,99.3226422 169.472185,99.3456336 C168.465687,99.3916164 167.728101,99.0467454 166.875267,98.150081 C166.268295,97.4986581 165.753521,96.5023643 165.546075,95.5827085 C165.369362,94.7550183 165.430827,93.2682414 165.669006,92.5095253 C166.214512,90.7775069 167.374674,89.6126095 168.849846,89.3213852 C169.741096,89.137454 170.755277,89.4899887 171.500547,90.241041 C173.920752,92.6781289 173.359879,97.7592273 170.524782,99.1080558 Z M107.497656,124.099466 L147.603906,124.099466 L147.603906,126.325838 L107.497656,126.325838 L107.497656,124.099466 Z M40.8895305,161.773131 L40.8895305,167.625038 L38.6175114,167.625038 L38.6175114,151.810562 L43.3711047,151.810562 C44.378445,151.810562 45.2552592,151.928113 46.0015734,152.163219 C46.7478876,152.398325 47.3655176,152.730775 47.8544821,153.160578 C48.3434466,153.590381 48.7092453,154.108341 48.9518894,154.714474 C49.1945334,155.320607 49.3158536,155.99469 49.3158536,156.736743 C49.3158536,157.478797 49.1871807,158.156553 48.9298309,158.770033 C48.6724812,159.383513 48.2938152,159.914331 47.7938214,160.362501 C47.2938277,160.810672 46.6743594,161.157816 45.935398,161.403943 C45.1964367,161.650069 44.3416808,161.773131 43.3711047,161.773131 L40.8895305,161.773131 Z M40.8895305,159.965762 L43.3711047,159.965762 C43.9666855,159.965762 44.4942445,159.886782 44.9537976,159.72882 C45.4133507,159.570858 45.7975313,159.35045 46.1063509,159.067588 C46.4151706,158.784726 46.6486201,158.444929 46.8067063,158.048188 C46.9647926,157.651446 47.0438345,157.214303 47.0438345,156.736743 C47.0438345,156.24449 46.968469,155.80551 46.8177355,155.419789 C46.6670021,155.034068 46.4390672,154.705292 46.133924,154.43345 C45.8287807,154.161609 45.4464383,153.954058 44.9868852,153.81079 C44.5273322,153.667522 43.988744,153.595889 43.3711047,153.595889 L40.8895305,153.595889 L40.8895305,159.965762 Z M66.946672,161.100878 L66.946672,167.625038 L64.674653,167.625038 L64.674653,151.810562 L69.2076619,151.810562 C70.2223551,151.810562 71.097331,151.913419 71.8326159,152.119137 C72.5679009,152.324854 73.17634,152.620569 73.6579516,153.00629 C74.1395633,153.392011 74.4943329,153.856706 74.7222713,154.400389 C74.9502096,154.944071 75.064177,155.550195 75.064177,156.218778 C75.064177,156.777155 74.9777823,157.298789 74.8049904,157.783695 C74.6321984,158.268601 74.3822053,158.703908 74.0550035,159.089629 C73.7278017,159.47535 73.3270775,159.8078 72.8528187,160.086988 C72.3785599,160.366176 71.8399718,160.575565 71.2370381,160.715159 C71.5237992,160.884141 71.770116,161.122917 71.9759958,161.431494 L76.4869463,167.625038 L74.45757,167.625038 C74.0458104,167.625038 73.7443481,167.463405 73.5531741,167.140134 L69.5826553,161.596802 C69.4576569,161.420473 69.3216312,161.293738 69.1745742,161.216593 C69.0275172,161.139449 68.8069351,161.100878 68.5128211,161.100878 L66.946672,161.100878 Z M66.946672,159.436776 L69.1304573,159.436776 C69.7407438,159.436776 70.2774938,159.363306 70.7407233,159.216365 C71.2039528,159.069424 71.5899716,158.860036 71.8987913,158.588194 C72.2076109,158.316353 72.4410604,157.994924 72.5991466,157.623897 C72.7572329,157.25287 72.8362748,156.839604 72.8362748,156.384086 C72.8362748,155.465703 72.5348125,154.771416 71.9318789,154.301204 C71.3289453,153.830992 70.420882,153.595889 69.2076619,153.595889 L66.946672,153.595889 L66.946672,159.436776 Z M124.564535,159.491879 L119.369773,151.810562 L121.641792,151.810562 C121.803555,151.810562 121.923037,151.836276 122.000242,151.887705 C122.077447,151.939135 122.14546,152.016278 122.204283,152.119137 L126.240977,158.367784 C126.277741,158.279619 126.312666,158.193292 126.345754,158.108801 C126.378842,158.02431 126.424797,157.934309 126.483619,157.838798 L130.277671,152.152198 C130.417375,151.924439 130.590164,151.810562 130.796044,151.810562 L132.979829,151.810562 L127.75198,159.403714 L133.145268,167.625038 L130.884278,167.625038 C130.715162,167.625038 130.582813,167.580956 130.487226,167.492792 C130.391639,167.404627 130.314435,167.305443 130.255612,167.195237 L126.108626,160.660056 C126.086567,160.740874 126.057156,160.82169 126.020392,160.902508 C125.983628,160.983326 125.946864,161.056795 125.9101,161.122919 L121.873406,167.195237 C121.799877,167.298096 121.717159,167.395443 121.625249,167.487281 C121.533338,167.57912 121.413856,167.625038 121.266799,167.625038 L119.149189,167.625038 L124.564535,159.491879 Z M147.906038,167.625038 L145.62299,167.625038 L145.62299,151.810562 L147.906038,151.810562 L147.906038,167.625038 Z M168.753712,161.76211 C168.937533,162.129463 169.110323,162.526199 169.272085,162.952329 C169.352967,162.739264 169.435685,162.531712 169.520243,162.329668 C169.604801,162.127624 169.698548,161.931093 169.801488,161.740069 L175.051396,152.19628 C175.146983,152.012604 175.25176,151.9024 175.365729,151.865664 C175.479698,151.828929 175.635944,151.810562 175.83447,151.810562 L177.521941,151.810562 L177.521941,167.625038 L175.525652,167.625038 L175.525652,156.25184 C175.525652,156.090204 175.529329,155.917551 175.536682,155.733874 C175.544034,155.550198 175.555064,155.36285 175.569769,155.171827 L170.253686,164.891944 C170.172804,165.060926 170.060675,165.189498 169.917295,165.277663 C169.773914,165.365828 169.613992,165.409909 169.437524,165.409909 L169.117676,165.409909 C168.742681,165.409909 168.466953,165.237256 168.290485,164.891944 L162.864109,155.127744 C162.878815,155.326115 162.89352,155.520809 162.908226,155.711833 C162.922932,155.902857 162.930285,156.082857 162.930285,156.25184 L162.930285,167.625038 L160.933996,167.625038 L160.933996,151.810562 L162.621466,151.810562 C162.819993,151.810562 162.976239,151.828929 163.090208,151.865664 C163.204177,151.9024 163.308954,152.012604 163.404541,152.19628 L168.753712,161.76211 Z M97.3039844,167.625038 C92.9047343,167.625038 89.3384375,164.061547 89.3384375,159.665758 C89.3384375,155.26997 92.9047343,151.706479 97.3039844,151.706479 C101.703234,151.706479 105.269531,155.26997 105.269531,159.665758 C105.269531,164.061547 101.703234,167.625038 97.3039844,167.625038 Z M97.3039248,165.54362 C100.552602,165.54362 103.186175,162.912119 103.186175,159.665998 C103.186175,156.419877 100.552602,153.788376 97.3039248,153.788376 C94.0552477,153.788376 91.4216745,156.419877 91.4216745,159.665998 C91.4216745,162.912119 94.0552477,165.54362 97.3039248,165.54362 Z M97.3039844,161.502515 C96.2887728,161.502515 95.4657812,160.680171 95.4657812,159.665758 C95.4657812,158.651346 96.2887728,157.829002 97.3039844,157.829002 C98.3191959,157.829002 99.1421875,158.651346 99.1421875,159.665758 C99.1421875,160.680171 98.3191959,161.502515 97.3039844,161.502515 Z M197.792422,167.625038 C193.393172,167.625038 189.826875,164.061547 189.826875,159.665758 C189.826875,155.26997 193.393172,151.706479 197.792422,151.706479 C202.191672,151.706479 205.757969,155.26997 205.757969,159.665758 C205.757969,164.061547 202.191672,167.625038 197.792422,167.625038 Z M197.792362,165.54362 C201.041039,165.54362 203.674613,162.912119 203.674613,159.665998 C203.674613,156.419877 201.041039,153.788376 197.792362,153.788376 C194.543685,153.788376 191.910112,156.419877 191.910112,159.665998 C191.910112,162.912119 194.543685,165.54362 197.792362,165.54362 Z M197.792422,161.502515 C196.77721,161.502515 195.954219,160.680171 195.954219,159.665758 C195.954219,158.651346 196.77721,157.829002 197.792422,157.829002 C198.807633,157.829002 199.630625,158.651346 199.630625,159.665758 C199.630625,160.680171 198.807633,161.502515 197.792422,161.502515 Z" id="Combined-Shape" fill="#1F1F1F"></path>
        </g>
    </g>
</svg>