<?xml version="1.0" encoding="UTF-8"?>
<svg width="256px" height="136px" viewBox="0 0 256 136" version="1.1" xmlns="http://www.w3.org/2000/svg" xmlns:xlink="http://www.w3.org/1999/xlink">
    <!-- Generator: Sketch 61.2 (89653) - https://sketch.com -->
    <title>logo_origo</title>
    <desc>Created with Sketch.</desc>
    <g id="03-what-we-do-(SRC)" stroke="none" stroke-width="1" fill="none" fill-rule="evenodd">
        <g id="Group-Copy-3" fill="#FFFFFF">
            <path d="M155.820896,20.5625 L155.820896,34.8838241 L146.039905,25.3958534 L155.820896,20.5625 Z M88,5 L121.114428,5 L121.114428,33.0125 L88,5 Z M122.706468,5 L155.820896,36.8166667 L122.706468,88 L122.706468,5 Z M157.253731,21.2009615 L168,31.975 L157.253731,31.975 L157.253731,21.2009615 Z" id="Shape"></path>
            <path d="M87.395112,110 C93.99389,110 98.7291242,114.892265 98.7291242,120.939227 L98.7291242,121 C98.7291242,127.046961 93.9327902,132 87.3340122,132 C80.7352342,132 76,127.107735 76,121.060773 L76,121 C76,114.953039 80.796334,110 87.395112,110 Z M145.531568,110 C149.380855,110 151.702648,111.033149 153.93279,112.917127 L150.96945,116.472376 C149.319756,115.104972 147.85336,114.314917 145.378819,114.314917 C141.95723,114.314917 139.238289,117.323204 139.238289,120.939227 L139.238289,121 C139.238289,124.889503 141.92668,127.745856 145.714868,127.745856 C147.425662,127.745856 148.953157,127.320442 150.144603,126.469613 L150.144603,123.430939 L145.409369,123.430939 L145.409369,119.389503 L154.696538,119.389503 L154.696538,128.627072 C152.496945,130.480663 149.472505,132 145.562118,132 C138.90224,132 134.319756,127.350829 134.319756,121.060773 L134.319756,121 C134.319756,114.953039 139.05499,110 145.531568,110 Z M169.665988,110 C176.264766,110 181,114.892265 181,120.939227 L181,121 C181,127.046961 176.203666,132 169.604888,132 C163.00611,132 158.270876,127.107735 158.270876,121.060773 L158.270876,121 C158.270876,114.953039 163.06721,110 169.665988,110 Z M112.690428,110.364641 C115.409369,110.364641 117.517312,111.124309 118.922607,112.522099 C120.114053,113.707182 120.755601,115.378453 120.755601,117.383978 L120.755601,117.444751 C120.755601,120.878453 118.892057,123.035912 116.173116,124.038674 L121.397149,131.635359 L115.898167,131.635359 L111.315682,124.828729 L107.619145,124.828729 L107.619145,131.635359 L102.91446,131.635359 L102.91446,110.364641 L112.690428,110.364641 Z M129.92057,110.364641 L129.92057,131.635359 L125.215886,131.635359 L125.215886,110.364641 L129.92057,110.364641 Z M87.3340122,114.314917 C83.5458248,114.314917 80.9185336,117.292818 80.9185336,120.939227 L80.9185336,121 C80.9185336,124.646409 83.6069246,127.685083 87.395112,127.685083 C91.1832994,127.685083 93.8105906,124.707182 93.8105906,121.060773 L93.8105906,121 C93.8105906,117.353591 91.1221996,114.314917 87.3340122,114.314917 Z M169.604888,114.314917 C165.816701,114.314917 163.189409,117.292818 163.189409,120.939227 L163.189409,121 C163.189409,124.646409 165.8778,127.685083 169.665988,127.685083 C173.454175,127.685083 176.081466,124.707182 176.081466,121.060773 L176.081466,121 C176.081466,117.353591 173.393075,114.314917 169.604888,114.314917 Z M112.293279,114.588398 L107.619145,114.588398 L107.619145,120.696133 L112.384929,120.696133 C114.676171,120.696133 115.989817,119.480663 115.989817,117.687845 L115.989817,117.627072 C115.989817,115.621547 114.584521,114.588398 112.293279,114.588398 Z" id="Combined-Shape"></path>
        </g>
    </g>
</svg>