<svg xmlns="http://www.w3.org/2000/svg" viewBox="0 0 256 98" width="256" height="98">
	<style>
		tspan { white-space:pre }
		.shp0 { fill: #ffffff } 
	</style>
	<path id="Layer" fill-rule="evenodd" class="shp0" d="M206.37 84.02L129.59 84.02L130.41 85.79L127.56 86.92C127.26 86.07 126.96 85.27 126.71 84.46C126.6 84.12 126.45 83.99 126.09 84.01C125.52 84.04 124.95 84.01 124.38 84.01L58.16 84.01C57.23 84.01 57.21 84 57.4 82.99L126.22 82.99C126.15 82.71 126.1 82.5 126.04 82.3C124.87 78.25 124.22 74.14 124.4 69.91C124.53 66.66 125.15 63.49 126 60.36C126.82 57.35 127.73 54.37 128.49 51.35C129.48 47.43 129.68 43.43 129.45 39.4C129.4 38.54 129.34 37.68 129.25 36.83C129.16 35.97 129.05 35.12 128.93 34.27C128.8 33.41 128.66 32.57 128.49 31.72C128.33 30.88 128.15 30.03 127.95 29.2C127.94 29.17 127.93 29.14 127.93 29.11C127.93 29.07 127.92 29.04 127.92 29.01C127.93 28.98 127.93 28.95 127.94 28.92C127.94 28.88 127.95 28.85 127.96 28.82C128.1 29.11 128.25 29.38 128.38 29.67C129.82 32.86 130.95 36.13 131.44 39.61C131.85 42.57 131.77 45.52 131.33 48.46C130.6 53.38 129.16 58.13 128.02 62.95C126.46 69.54 126.78 76.03 128.97 82.44C129.12 82.88 129.34 83 129.79 83C155.37 82.99 180.95 82.99 206.53 82.99L207.22 82.99C207.28 84.02 207.28 84.02 206.37 84.02ZM97.66 23.37C97.29 24.33 96.98 25.18 96.64 26.02C96.18 27.18 95.72 28.33 95.25 29.48C94.79 30.64 94.33 31.79 93.86 32.95C93.4 34.1 92.93 35.25 92.47 36.41C92 37.56 91.54 38.71 91.07 39.87C90.93 40.21 90.82 40.71 90.33 40.68C89.83 40.65 89.8 40.13 89.68 39.78C88.1 35.1 86.54 30.41 84.97 25.73C84.78 25.17 84.59 24.6 84.4 24.04C84.21 23.48 84.02 22.91 83.83 22.35C83.64 21.79 83.45 21.23 83.26 20.66C83.08 20.1 82.89 19.54 82.7 18.97C82.6 18.7 82.47 18.43 82.36 18.16C82.03 17.4 81.45 17.02 80.62 17.03C80.56 17.03 80.5 17.05 80.46 17.03C80.3 16.94 80.14 16.85 79.98 16.75C80.13 16.65 80.29 16.47 80.45 16.46C81.01 16.43 81.58 16.47 82.15 16.47C83.84 16.46 85.54 16.45 87.23 16.44C87.5 16.44 87.78 16.42 88.05 16.47C88.2 16.5 88.33 16.66 88.47 16.75C88.33 16.84 88.18 16.94 88.03 17.02C88 17.04 87.96 17.03 87.93 17.03C86.82 17.11 86.61 17.37 86.9 18.47C87.37 20.27 87.85 22.07 88.39 23.85C89.37 27.15 90.39 30.43 91.4 33.72C91.44 33.84 91.49 33.95 91.57 34.15C91.65 33.96 91.72 33.85 91.76 33.74L97.67 17.97C97.78 17.68 97.87 17.37 98.03 17.11C98.15 16.91 98.36 16.63 98.55 16.63C98.72 16.62 98.97 16.89 99.06 17.1C99.56 18.23 100.03 19.38 100.5 20.53L105.88 33.46C105.93 33.58 106 33.7 106.1 33.92C106.18 33.72 106.23 33.6 106.27 33.48C107.59 29.06 108.92 24.64 110.23 20.22C110.42 19.58 110.57 18.92 110.66 18.26C110.77 17.52 110.42 17.13 109.66 17.05C109.46 17.03 109.24 17.06 109.05 17.01C108.9 16.97 108.79 16.84 108.66 16.75C108.78 16.65 108.89 16.54 109.03 16.47C109.13 16.43 109.27 16.44 109.39 16.44C111.32 16.44 113.25 16.44 115.19 16.44C115.29 16.44 115.41 16.42 115.49 16.46C115.62 16.53 115.72 16.64 115.82 16.73C115.72 16.82 115.62 16.92 115.5 17.01C115.47 17.03 115.4 17.03 115.35 17.03C114.14 16.92 113.57 17.63 113.21 18.65C112.36 21.05 111.48 23.44 110.66 25.86C109.11 30.46 107.59 35.07 106.05 39.67C105.96 39.93 105.86 40.19 105.72 40.42C105.46 40.82 105.09 40.82 104.86 40.41C104.57 39.86 104.33 39.29 104.09 38.72C102.04 33.81 100 28.89 97.95 23.98C97.88 23.81 97.79 23.65 97.66 23.37L97.66 23.37ZM139.92 25.89C140 29.28 140.09 32.67 140.2 36.06C140.22 36.71 140.28 37.36 140.4 38C140.62 39.23 140.92 39.5 142.15 39.67C142.45 39.71 142.77 39.68 143.07 39.72C143.21 39.75 143.32 39.89 143.45 39.98C143.33 40.06 143.23 40.22 143.11 40.22C142.39 40.25 141.66 40.25 140.94 40.25C139.2 40.26 137.46 40.27 135.71 40.28C135.49 40.28 135.26 40.29 135.05 40.23C134.93 40.2 134.84 40.06 134.73 39.96C134.85 39.88 134.96 39.75 135.09 39.73C135.45 39.67 135.81 39.69 136.17 39.64C137.02 39.52 137.33 39.25 137.44 38.4C137.55 37.58 137.61 36.75 137.63 35.93C137.69 31.94 137.73 27.94 137.78 23.95C137.82 21.61 137.85 19.26 137.91 16.92C137.92 16.6 138.12 16.27 138.23 15.95C138.52 16.11 138.86 16.22 139.08 16.45C142.59 20.05 146.1 23.66 149.6 27.28C151.71 29.46 153.81 31.64 155.91 33.82C156.03 33.94 156.16 34.06 156.35 34.24C156.38 34.03 156.41 33.91 156.41 33.78C156.31 29 156.2 24.22 156.09 19.43L156.09 19.38C155.99 17.55 155.47 17.06 153.63 17.02C153.38 17.02 153.13 16.85 152.88 16.76C153.12 16.65 153.36 16.46 153.61 16.46C155.92 16.44 158.23 16.44 160.54 16.45C160.8 16.46 161.06 16.62 161.31 16.71C161.06 16.82 160.8 17.01 160.54 17.02C159.26 17.07 158.72 17.6 158.68 19.04C158.61 21.11 158.59 23.17 158.55 25.24C158.46 30.11 158.38 34.98 158.28 39.86C158.27 40.11 158.14 40.55 158.03 40.56C157.76 40.59 157.4 40.49 157.2 40.31C156.92 40.04 156.63 39.77 156.35 39.5C156.06 39.23 155.78 38.96 155.5 38.68C155.22 38.41 154.94 38.14 154.66 37.86C154.38 37.59 154.1 37.31 153.82 37.04C151.45 34.68 149.06 32.34 146.72 29.94C144.57 27.74 142.48 25.47 140.36 23.23L139.92 22.75C139.92 23.87 139.9 24.88 139.92 25.89ZM114.3 58.67C115.81 60.48 117.32 62.3 118.9 64.05C119.99 65.25 121.34 66.07 123.05 66.13C123.2 66.13 123.35 66.29 123.5 66.37C123.36 66.47 123.22 66.65 123.08 66.65C121.47 66.65 119.86 66.67 118.26 66.58C116.75 66.5 115.57 65.66 114.67 64.54C114.27 64.03 113.86 63.51 113.46 62.99C113.06 62.48 112.66 61.96 112.27 61.43C111.88 60.91 111.49 60.38 111.11 59.85C110.72 59.32 110.34 58.79 109.97 58.25C109.29 57.28 108.6 56.63 107.34 56.82C106.86 56.9 106.37 56.83 105.89 56.81C105.6 56.8 105.47 56.93 105.48 57.21C105.54 59.65 105.57 62.1 105.69 64.54C105.74 65.61 106.15 65.92 107.23 66.05C107.63 66.09 108.03 66.09 108.42 66.15C108.55 66.16 108.66 66.29 108.77 66.37C108.65 66.46 108.54 66.62 108.41 66.64C108.1 66.69 107.79 66.67 107.48 66.67C104.98 66.67 102.48 66.68 99.97 66.66C99.66 66.66 99.26 66.84 99.08 66.38C99.37 66.29 99.65 66.14 99.95 66.11C101.1 66.01 101.45 65.73 101.55 64.51C101.68 62.99 101.76 61.45 101.77 59.92C101.79 55.39 101.76 50.86 101.75 46.34C101.75 45.87 101.72 45.41 101.67 44.94C101.57 44.07 101.16 43.65 100.3 43.51C99.87 43.44 99.43 43.46 99.01 43.39C98.86 43.37 98.73 43.22 98.59 43.13C98.72 43.05 98.86 42.9 99 42.9C100.26 42.89 101.52 42.93 102.78 42.93C104.48 42.92 106.19 42.89 107.9 42.88C109.44 42.87 110.96 42.97 112.44 43.48C115.12 44.42 116.34 47.04 115.93 49.63C115.6 51.74 114.37 53.3 112.87 54.7C112.56 54.99 112.23 55.27 111.86 55.6C112.69 56.66 113.47 57.69 114.3 58.67ZM112.44 50.17L112.31 50.13C112.29 49.81 112.29 49.48 112.26 49.15C111.91 45.9 109.66 43.9 106.12 44.38C105.67 44.44 105.44 44.62 105.47 45.11C105.51 45.64 105.48 46.18 105.48 46.71C105.48 49.25 105.48 51.78 105.47 54.31C105.47 54.8 105.61 55.11 106.14 55.16C106.86 55.23 107.57 55.35 108.3 55.39C110.02 55.47 111.18 54.62 111.75 53.05C112.08 52.13 112.21 51.13 112.44 50.17ZM197.81 58.94C199.23 60.64 200.66 62.34 202.15 64C203.26 65.24 204.63 66.07 206.37 66.14C206.51 66.14 206.64 66.29 206.77 66.37C206.64 66.47 206.5 66.65 206.37 66.65C204.68 66.64 202.98 66.67 201.3 66.53C199.62 66.39 198.48 65.27 197.52 64.03C195.86 61.89 194.28 59.7 192.69 57.51C192.34 57.03 191.95 56.81 191.34 56.84C190.66 56.88 189.96 56.84 189.27 56.81C188.93 56.8 188.75 56.9 188.76 57.27C188.82 59.61 188.83 61.95 188.94 64.29C189 65.62 189.42 65.96 190.73 66.07C191.06 66.09 191.39 66.09 191.71 66.14C191.84 66.16 191.94 66.29 192.05 66.38C191.94 66.47 191.85 66.59 191.72 66.65C191.62 66.69 191.48 66.67 191.36 66.67C188.6 66.67 185.84 66.68 183.08 66.66C182.82 66.66 182.57 66.56 182.31 66.51L182.32 66.3C182.45 66.25 182.57 66.17 182.71 66.14C182.86 66.11 183.02 66.13 183.17 66.12C184.34 66.05 184.64 65.83 184.81 64.68C184.95 63.74 185.01 62.79 185.02 61.85C185.03 56.44 185.02 51.03 185.01 45.62C185.01 45.54 185 45.45 185 45.37C184.92 44.02 184.48 43.56 183.14 43.43C182.88 43.41 182.62 43.44 182.37 43.4C182.2 43.36 182.05 43.23 181.89 43.14C182.03 43.05 182.17 42.91 182.33 42.89C182.72 42.86 183.12 42.89 183.51 42.89C186.38 42.89 189.24 42.83 192.11 42.92C193.3 42.95 194.52 43.16 195.66 43.49C198.42 44.31 199.57 47.02 199.25 49.46C198.96 51.63 197.73 53.22 196.2 54.65C195.87 54.97 195.52 55.27 195.14 55.6C196.05 56.74 196.9 57.86 197.81 58.94ZM188.78 49.7C188.78 51.27 188.78 52.84 188.77 54.41C188.76 54.85 188.93 55.1 189.37 55.14C190.3 55.22 191.22 55.32 192.15 55.35C193.19 55.38 193.95 54.83 194.53 54.01C195.52 52.61 195.67 51.01 195.56 49.37C195.34 45.97 193.01 44.02 189.62 44.35C188.84 44.43 188.77 44.51 188.76 45.31C188.76 46.78 188.76 48.24 188.76 49.7L188.78 49.7ZM163.16 66.12C164.36 66.03 164.66 65.82 164.81 64.63C164.84 64.35 164.87 64.06 164.9 63.78C164.93 63.5 164.95 63.22 164.97 62.93C164.99 62.65 165 62.37 165.01 62.08C165.02 61.8 165.03 61.52 165.03 61.23C165.04 55.98 165.01 50.72 165 45.47C165 45.33 164.99 45.19 164.97 45.06C164.86 44.07 164.48 43.65 163.49 43.49C163.1 43.43 162.7 43.45 162.31 43.39C162.15 43.37 162.02 43.22 161.88 43.13C162.01 43.05 162.15 42.9 162.28 42.9C163.42 42.89 164.56 42.92 165.7 42.92C168.79 42.92 171.88 42.94 174.97 42.91C175.63 42.91 176.29 42.74 177.02 42.63C177.02 42.8 177.03 42.95 177.02 43.1C176.91 44.28 176.8 45.46 176.68 46.64C176.67 46.76 176.68 46.9 176.62 46.99C176.54 47.12 176.41 47.22 176.31 47.33C176.23 47.22 176.15 47.1 176.08 46.99C176.07 46.96 176.08 46.92 176.07 46.88C175.9 45.23 175.43 44.75 173.75 44.65C172.34 44.57 170.93 44.58 169.51 44.53C169.13 44.51 169 44.66 169 45.04C169.01 47.59 169.01 50.13 169.01 52.68C169.01 52.99 169.08 53.17 169.44 53.17C171.2 53.12 172.96 53.1 174.72 53.05C175.22 53.04 175.66 52.87 176 52.47C176.09 52.36 176.28 52.33 176.42 52.26C176.45 52.42 176.51 52.58 176.5 52.73C176.4 54.12 176.28 55.51 176.16 56.9C176.15 57.02 176.17 57.16 176.12 57.25C176.07 57.34 175.94 57.44 175.85 57.43C175.77 57.43 175.66 57.29 175.64 57.2C175.59 56.97 175.59 56.72 175.56 56.48C175.48 55.57 175 54.96 174.08 54.9C172.52 54.78 170.95 54.78 169.38 54.73C168.99 54.72 169 54.99 169 55.26C169 56.6 169 57.95 169 59.29C169 60.45 168.99 61.6 169.02 62.75C169.06 64.3 169.67 64.95 171.24 65.02C171.5 65.04 171.76 65.05 172.02 65.05C172.29 65.06 172.55 65.06 172.81 65.06C173.08 65.06 173.34 65.06 173.6 65.05C173.86 65.04 174.13 65.03 174.39 65.02C176.04 64.95 176.79 64.3 177.17 62.7C177.2 62.55 177.2 62.38 177.26 62.25C177.32 62.13 177.45 62.03 177.54 61.93C177.63 62.05 177.8 62.19 177.79 62.3C177.76 62.62 177.73 62.93 177.7 63.25C177.66 63.56 177.63 63.88 177.59 64.19C177.55 64.51 177.51 64.83 177.47 65.14C177.43 65.46 177.39 65.77 177.35 66.08C177.27 66.63 176.82 66.76 176.33 66.75C174.58 66.74 172.84 66.7 171.1 66.69C168.51 66.68 165.92 66.68 163.33 66.66C162.98 66.66 162.54 66.81 162.24 66.23C162.6 66.18 162.88 66.13 163.16 66.12ZM149.34 58.25C151.05 53.95 152.77 49.65 154.47 45.34C154.6 45.02 154.67 44.68 154.73 44.34C154.81 43.89 154.6 43.6 154.15 43.52C153.76 43.46 153.36 43.46 152.97 43.4C152.83 43.37 152.7 43.24 152.57 43.16C152.7 43.07 152.83 42.91 152.96 42.91C153.94 42.9 154.92 42.93 155.91 42.92C157.13 42.92 158.36 42.88 159.58 42.89C159.83 42.89 160.08 43.05 160.33 43.14C160.1 43.23 159.87 43.39 159.64 43.4C158.69 43.44 157.96 43.85 157.54 44.69C157.39 45 157.24 45.31 157.09 45.63C156.94 45.94 156.79 46.26 156.64 46.57C156.49 46.89 156.35 47.21 156.21 47.52C156.06 47.84 155.92 48.16 155.78 48.48C153.21 54.27 150.65 60.07 148.08 65.86C148.04 65.95 148 66.04 147.96 66.12C147.92 66.21 147.87 66.29 147.83 66.37C147.78 66.46 147.74 66.54 147.69 66.62C147.64 66.7 147.59 66.78 147.53 66.86C147.28 67.21 146.93 67.2 146.68 66.84C146.64 66.77 146.6 66.71 146.56 66.64C146.52 66.57 146.48 66.51 146.45 66.44C146.41 66.37 146.38 66.3 146.35 66.23C146.32 66.16 146.29 66.09 146.26 66.01C143.87 60.27 141.5 54.53 139.12 48.78C138.64 47.64 138.15 46.5 137.67 45.36C137.12 44.06 136.09 43.51 134.74 43.42C134.62 43.41 134.49 43.44 134.38 43.4C134.23 43.34 134.09 43.24 133.95 43.15C134.09 43.06 134.22 42.91 134.35 42.91C135.07 42.88 135.8 42.9 136.52 42.9C138.68 42.89 140.84 42.88 143 42.88C143.19 42.88 143.38 42.86 143.56 42.91C143.69 42.94 143.8 43.06 143.91 43.14C143.78 43.23 143.67 43.35 143.52 43.4C143.4 43.44 143.25 43.41 143.11 43.41C142.07 43.46 141.71 43.9 142.02 44.88C142.41 46.09 142.86 47.29 143.31 48.48C144.81 52.44 146.32 56.4 147.83 60.36C147.91 60.58 148 60.8 148.09 61.02L148.24 61.02C148.6 60.1 148.97 59.18 149.34 58.25ZM70.13 18.97C70.13 24.41 70.13 29.86 70.15 35.3C70.16 36.28 70.25 37.26 70.35 38.23C70.44 39.15 70.87 39.53 71.79 39.61C72.25 39.65 72.72 39.66 73.18 39.72C73.34 39.74 73.47 39.89 73.62 39.98C73.49 40.07 73.37 40.23 73.24 40.24C72.86 40.28 72.48 40.26 72.11 40.26L64.24 40.29C64.18 40.29 64.13 40.3 64.08 40.29C63.88 40.19 63.68 40.09 63.48 40C63.69 39.9 63.89 39.77 64.11 39.72C64.37 39.65 64.65 39.64 64.92 39.61C65.41 39.56 65.73 39.27 65.82 38.81C65.95 38.08 66.1 37.35 66.1 36.61C66.14 30.55 66.14 24.49 66.16 18.43C66.16 18.38 66.13 18.33 66.11 18.26C65.74 18.26 65.37 18.24 64.99 18.26C63.32 18.32 61.65 18.38 59.98 18.46C58.89 18.52 58.26 19.16 57.92 20.15C57.88 20.26 57.87 20.4 57.8 20.48C57.71 20.59 57.57 20.69 57.45 20.7C57.38 20.7 57.26 20.52 57.24 20.41C57.23 20.36 57.22 20.32 57.22 20.28C57.22 20.23 57.21 20.19 57.22 20.15C57.22 20.11 57.22 20.06 57.22 20.02C57.23 19.98 57.23 19.93 57.24 19.89C57.46 18.78 57.67 17.66 57.9 16.55C58.02 15.98 58.13 16.02 58.7 16.13C59.71 16.33 60.74 16.51 61.76 16.52C66.47 16.56 71.19 16.55 75.9 16.52C76.62 16.52 77.34 16.38 78.06 16.27C78.44 16.21 78.62 16.31 78.61 16.7C78.58 17.99 78.56 19.28 78.5 20.57C78.5 20.73 78.31 20.89 78.21 21.04C78.11 20.92 77.93 20.79 77.93 20.67C77.92 19.09 76.85 18.58 75.57 18.46C73.79 18.3 71.99 18.27 70.13 18.17L70.13 18.97ZM124.1 52.53C124.37 50.44 124.57 48.35 124.7 46.26C125.02 41.09 124.09 36.09 122.58 31.17C121.61 27.99 120.7 24.8 120.13 21.52C119.63 18.69 119.45 15.84 119.66 12.98C119.97 8.79 120.97 4.74 122.41 0.79C122.75 -0.14 122.77 -0.14 123.74 0.24C124.31 0.46 124.88 0.68 125.47 0.91C125.15 1.57 124.85 2.24 124.57 2.92C124.3 3.59 124.05 4.28 123.82 4.98C123.59 5.67 123.39 6.37 123.21 7.08C123.03 7.79 122.87 8.51 122.74 9.23C121.95 13.46 121.85 17.71 122.76 21.93C123.47 25.21 124.32 28.46 125.11 31.71C125.91 34.99 126.56 38.3 126.75 41.68C127.01 46.19 126.11 50.5 124.44 54.68C124.06 55.65 123.64 56.6 123.18 57.68C123.51 55.87 123.88 54.2 124.1 52.53ZM195.18 80.44C193.6 80.43 191.86 79.87 190.6 78.27C187.99 74.95 189.74 70.11 193.87 69.19C194.22 69.11 194.58 69.05 194.94 69.01C195.3 68.97 195.66 68.96 196.02 68.97C196.39 68.98 196.75 69.01 197.11 69.07C197.46 69.13 197.82 69.21 198.17 69.31C200.96 70.12 202.31 72.42 201.93 75.26C201.5 78.51 199.11 80.42 195.18 80.44L195.18 80.44ZM199.71 75.06C199.71 74.83 199.73 74.61 199.71 74.39C199.55 72.76 198.99 71.34 197.55 70.4C195.24 68.9 192.45 69.97 191.81 72.61C191.73 72.94 191.67 73.29 191.64 73.63C191.61 73.97 191.6 74.32 191.62 74.66C191.64 75.01 191.69 75.35 191.76 75.69C191.84 76.02 191.94 76.35 192.06 76.68C192.53 77.92 193.34 78.86 194.61 79.37C196.84 80.25 198.88 79.25 199.49 76.95C199.65 76.34 199.69 75.7 199.79 75.07L199.71 75.06ZM184.65 77.35C184.65 77.35 184.65 77.35 184.65 77.35C184.65 77.35 184.65 77.35 184.65 77.36L184.65 77.35ZM184.64 74.89C184.62 73.6 184.59 72.31 184.56 71.02C184.56 70.95 184.55 70.88 184.55 70.81C184.54 70.74 184.54 70.67 184.53 70.61C184.53 70.54 184.52 70.47 184.51 70.4C184.5 70.33 184.49 70.27 184.48 70.2C184.42 69.75 184.14 69.54 183.71 69.5C183.49 69.48 183.26 69.45 183.03 69.43C183.04 69.37 183.04 69.32 183.05 69.27L187.1 69.27L187.12 69.39C187 69.42 186.88 69.47 186.76 69.48C186.1 69.57 185.92 69.72 185.88 70.4C185.83 71.41 185.82 72.43 185.81 73.44C185.77 75.56 185.74 77.68 185.69 79.8C185.68 80 185.56 80.2 185.5 80.4C185.28 80.31 185.01 80.29 184.85 80.14C184.59 79.9 184.32 79.66 184.06 79.42C183.8 79.17 183.54 78.93 183.28 78.68C183.02 78.44 182.76 78.19 182.5 77.94C182.24 77.7 181.99 77.45 181.73 77.2C180.22 75.71 178.73 74.2 177.23 72.7C177.13 72.6 177.01 72.51 176.83 72.35C176.83 73.25 176.81 74.07 176.83 74.88C176.86 76.07 176.9 77.26 176.94 78.44C176.95 78.67 176.99 78.89 177.01 79.11C177.07 79.65 177.38 79.9 177.9 79.94C178.09 79.95 178.27 79.99 178.46 80.02L178.44 80.18L174.27 80.18L174.25 80.04C174.41 80 174.57 79.96 174.74 79.94C175.37 79.87 175.54 79.73 175.56 79.05C175.61 77.71 175.64 76.37 175.66 75.03C175.7 73.22 175.72 71.41 175.77 69.6C175.77 69.39 175.87 69.19 175.92 68.98C176.12 69.08 176.37 69.14 176.52 69.29C179.07 71.81 181.61 74.35 184.15 76.88C184.29 77.02 184.43 77.15 184.65 77.35C184.65 76.46 184.66 75.67 184.64 74.89ZM94.15 97.67L91.29 97.67C91.22 96.92 91.18 96.25 91.1 95.59C90.94 94.33 90.76 93.07 90.58 91.81C90.57 91.73 90.54 91.66 90.48 91.44L87.35 97.88C86.1 95.81 85.24 93.74 84.11 91.75C84.06 92.06 84.01 92.37 83.97 92.67C83.8 93.97 83.63 95.26 83.48 96.56C83.39 97.39 83.42 97.41 84.26 97.53C84.32 97.54 84.37 97.57 84.42 97.68L81.56 97.68C81.58 97.63 81.58 97.57 81.59 97.57C82.32 97.58 82.49 97.09 82.58 96.5C82.96 93.93 83.35 91.36 83.75 88.79C83.78 88.59 83.86 88.39 83.91 88.19L84.11 88.16L87.7 95.51L91.23 88.16L91.44 88.19C91.49 88.43 91.56 88.67 91.6 88.91C91.96 91.36 92.32 93.81 92.69 96.26C92.81 97.08 92.9 97.5 93.98 97.53C94.04 97.54 94.1 97.58 94.16 97.6L94.15 97.67ZM152.54 80.18C152.54 79.82 152.62 79.51 152.53 79.25C152.27 78.48 151.93 77.74 151.65 76.99C151.54 76.7 151.4 76.58 151.08 76.59C150.83 76.59 150.58 76.59 150.33 76.59C150.08 76.6 149.83 76.6 149.58 76.6C149.33 76.6 149.08 76.6 148.83 76.59C148.58 76.59 148.33 76.59 148.08 76.59C147.8 76.58 147.63 76.67 147.53 76.94C147.28 77.58 147 78.21 146.76 78.86C146.46 79.66 146.57 79.82 147.41 79.96C147.49 79.97 147.56 80.02 147.62 80.16L143.77 80.16L143.74 80.06C143.84 80.02 143.95 79.95 144.06 79.95C144.73 79.94 145.15 79.59 145.4 79C146.23 77.09 147.06 75.18 147.89 73.26C148.45 71.97 149 70.67 149.57 69.38C149.66 69.18 149.87 69.04 150.03 68.87C150.18 69.04 150.39 69.19 150.47 69.38C151.78 72.38 153.06 75.39 154.36 78.39C154.48 78.68 154.64 78.94 154.79 79.21C155.05 79.67 155.43 79.93 155.97 79.94C156.09 79.94 156.22 80 156.34 80.03L156.33 80.18L152.54 80.18ZM149.53 71.93L148.03 75.71L151.11 75.71L149.66 71.95L149.53 71.93ZM142.77 72.27C142.74 72.21 142.69 72.16 142.69 72.1C142.6 70.68 141.65 70.08 140.41 69.91C140.2 69.88 139.98 69.86 139.76 69.84C139.54 69.83 139.32 69.82 139.1 69.82C138.88 69.82 138.67 69.83 138.45 69.84C138.23 69.86 138.01 69.88 137.79 69.91C136.58 70.08 135.7 70.84 135.29 71.99C134.58 73.99 134.62 75.96 135.98 77.72C137.32 79.46 139.41 79.84 141.39 79.34C142.1 79.16 142.51 78.63 142.76 77.97C142.82 77.82 142.87 77.66 142.92 77.51L143.07 77.51C143.11 77.63 143.2 77.76 143.18 77.88C143.09 78.48 143 79.07 142.86 79.66C142.81 79.84 142.61 80.08 142.43 80.12C139.84 80.67 137.26 80.73 134.95 79.2C132.91 77.85 132.27 75.82 132.7 73.5C133.14 71.19 134.65 69.81 136.91 69.24C138.67 68.79 140.44 68.96 142.2 69.27C143.13 69.43 143.13 69.42 143.08 70.36C143.06 70.85 143.05 71.33 143.02 71.81C143.01 71.97 142.95 72.12 142.92 72.28L142.77 72.27ZM157.92 77.82C158.07 78.7 158.55 79.3 159.42 79.54C160.34 79.79 161.25 79.82 162 79.12C162.75 78.42 162.76 77.18 161.98 76.49C161.52 76.06 160.93 75.77 160.42 75.4C159.77 74.92 159.04 74.5 158.51 73.92C157.15 72.41 157.7 70.19 159.58 69.39C160.91 68.82 162.28 68.91 163.65 69.2C163.77 69.23 163.97 69.38 163.97 69.47C163.97 70.14 163.93 70.81 163.89 71.48C163.89 71.53 163.81 71.57 163.72 71.67C163.66 71.52 163.61 71.42 163.59 71.31C163.44 70.44 162.9 69.93 162.05 69.78C161.15 69.63 160.28 69.73 159.67 70.53C159.29 71.02 159.33 71.83 159.8 72.29C160.18 72.66 160.64 72.94 161.08 73.24C161.74 73.68 162.45 74.05 163.07 74.54C164.14 75.41 164.51 76.59 164.17 77.93C163.84 79.25 162.91 80.05 161.59 80.32C161.29 80.37 161 80.41 160.7 80.44C160.4 80.46 160.11 80.47 159.81 80.46C159.51 80.45 159.21 80.42 158.92 80.37C158.62 80.33 158.33 80.27 158.04 80.19C157.62 80.08 157.4 79.85 157.45 79.38C157.51 78.82 157.5 78.25 157.54 77.68C157.55 77.54 157.6 77.41 157.64 77.27L157.82 77.28C157.85 77.46 157.89 77.64 157.92 77.82ZM121.19 89.88L121.21 89.96C121.11 89.99 121.01 90.03 120.91 90.05C120.55 90.09 120.34 90.3 120.34 90.66C120.34 92.71 120.35 94.76 120.36 96.81C120.36 97.31 120.62 97.57 121.14 97.52C121.24 97.52 121.34 97.55 121.43 97.67L118.02 97.67C118.03 97.63 118.04 97.58 118.05 97.58C118.81 97.39 118.85 97.35 118.87 96.55C118.89 95.81 118.88 95.07 118.91 94.33C118.92 93.99 118.81 93.83 118.44 93.84C118.16 93.84 117.88 93.85 117.6 93.85C117.32 93.85 117.04 93.85 116.76 93.85C116.48 93.85 116.2 93.85 115.92 93.85C115.63 93.85 115.35 93.84 115.07 93.84C114.73 93.84 114.62 93.97 114.63 94.3C114.65 95.07 114.63 95.85 114.66 96.62C114.69 97.4 114.77 97.46 115.53 97.52C115.61 97.53 115.68 97.56 115.75 97.68L112.35 97.68C112.36 97.62 112.36 97.57 112.37 97.56C113.12 97.4 113.16 97.37 113.17 96.59C113.18 94.66 113.17 92.73 113.19 90.8C113.2 90.08 112.69 90.05 112.18 89.91L115.48 89.91L115.49 89.96C115.39 89.99 115.3 90.03 115.2 90.04C114.83 90.09 114.65 90.31 114.64 90.67C114.63 91.43 114.62 92.19 114.65 92.94C114.65 93.05 114.86 93.25 114.98 93.25C116.16 93.27 117.33 93.26 118.5 93.27C118.79 93.27 118.91 93.16 118.9 92.87C118.89 92.13 118.91 91.39 118.85 90.66C118.83 90.45 118.57 90.24 118.37 90.09C118.25 90 118.05 90.02 117.88 89.99L117.89 89.88L121.19 89.88ZM176.74 89.75C178.06 89.71 179.29 90 180.2 91.02C181.28 92.24 181.37 93.67 180.86 95.14C180.34 96.64 179.19 97.46 177.67 97.77C176.69 97.98 175.71 97.93 174.77 97.58C172.96 96.91 171.92 95.16 172.18 93.24C172.44 91.35 173.95 89.93 175.91 89.75C176.18 89.73 176.46 89.75 176.74 89.75ZM178.66 91.29C177.49 89.86 175.19 89.87 174.23 91.32C173.28 92.75 173.68 95.51 174.99 96.61C176.51 97.89 178.64 97.45 179.27 95.71C179.45 95.18 179.5 94.6 179.6 94.05C179.54 93.03 179.3 92.09 178.66 91.29ZM150.14 90.48C151.95 91.73 152.24 94.59 150.74 96.36C149.23 98.15 145.87 98.41 144.1 96.89C142.9 95.85 142.41 94.09 142.9 92.56C143.4 90.98 144.78 89.9 146.51 89.75C146.77 89.73 147.03 89.75 147.29 89.75C148.31 89.7 149.29 89.89 150.14 90.48ZM148.66 90.77C147.37 89.8 145.43 90.14 144.72 91.46C143.96 92.88 144.19 95.11 145.26 96.32C146.03 97.19 147.04 97.49 148.17 97.26C149.22 97.03 149.74 96.26 149.96 95.27C150.05 94.89 150.08 94.49 150.13 94.1C150.11 92.77 149.76 91.61 148.66 90.77ZM73.04 89.75C74.2 89.69 75.27 89.95 76.18 90.7C77.71 91.97 77.87 94.58 76.55 96.28C75.07 98.18 71.46 98.45 69.74 96.77C68.48 95.54 68.14 94.05 68.71 92.41C69.28 90.76 70.57 89.96 72.26 89.75C72.52 89.72 72.78 89.75 73.04 89.75L73.04 89.75ZM75.89 94.08C75.84 93.67 75.81 93.28 75.73 92.89C75.42 91.36 74.24 90.29 72.84 90.24C71.45 90.19 70.55 90.85 70.19 92.2C69.7 94.03 70.32 96.01 71.66 96.87C73.34 97.94 75.22 97.22 75.7 95.29C75.8 94.89 75.83 94.48 75.89 94.08L75.89 94.08ZM171.55 69.25L171.58 69.38C171.43 69.41 171.27 69.47 171.12 69.49C170.64 69.54 170.35 69.75 170.35 70.28C170.36 73.24 170.36 76.2 170.37 79.16C170.37 79.64 170.64 79.88 171.11 79.91C171.38 79.94 171.66 79.97 171.93 80L171.92 80.18L167.01 80.18L166.98 80.05C167.11 80.02 167.23 79.96 167.36 79.94C168.03 79.86 168.15 79.75 168.2 79.07C168.23 78.54 168.26 78.01 168.26 77.48C168.27 75.31 168.27 73.14 168.27 70.97C168.27 70.76 168.23 70.55 168.23 70.35C168.24 69.79 167.92 69.54 167.4 69.49C167.26 69.47 167.12 69.45 166.98 69.42L166.98 69.25L171.55 69.25ZM164.54 90.96C164.5 90.88 164.43 90.79 164.42 90.71C164.33 89.81 163.79 89.27 162.97 89.1C162.22 88.95 161.43 88.87 160.67 88.93C159.71 89 158.98 89.55 158.49 90.4C157.42 92.24 157.93 95.05 159.58 96.37C160.69 97.26 161.96 97.4 163.3 97.06C163.87 96.91 164.24 96.51 164.47 95.97C164.53 95.82 164.58 95.68 164.64 95.53L164.83 95.58C164.72 96.18 164.62 96.79 164.48 97.39C164.45 97.5 164.26 97.63 164.13 97.66C161.99 98.07 159.88 98.15 158.03 96.77C156.36 95.53 155.96 93.77 156.39 91.83C156.83 89.9 158.15 88.8 160.06 88.42C161.54 88.13 163.01 88.29 164.47 88.61C164.58 88.64 164.75 88.76 164.75 88.83C164.73 89.54 164.69 90.24 164.65 90.95L164.54 90.96L164.54 90.96ZM101.91 91C101.93 92.08 101.89 93.17 101.87 94.25C101.87 94.59 101.85 94.94 101.8 95.28C101.51 96.93 100.4 97.86 98.71 97.88C97.87 97.89 97.05 97.83 96.33 97.35C95.49 96.79 95.17 95.95 95.14 95C95.1 93.83 95.16 92.65 95.12 91.48C95.07 90.35 95.38 90.27 94.09 89.89L97.41 89.89C96.42 89.98 96.57 90.73 96.56 91.36C96.56 92.56 96.54 93.77 96.59 94.97C96.65 96.24 97.14 96.93 98.08 97.21C99.43 97.61 100.71 96.87 100.81 95.49C100.92 93.89 100.86 92.29 100.87 90.69C100.87 90.28 100.63 90.1 100.26 90.05C100.13 90.03 100.01 90 99.9 89.89L102.72 89.89L102.81 90.02C102.04 89.98 101.9 90.39 101.91 91ZM66.71 90.42C66.68 90.34 66.65 90.27 66.63 90.2C66.39 89.11 65.41 88.56 64.35 88.92C63.54 89.19 63.19 90.12 63.7 90.8C63.99 91.2 64.39 91.52 64.76 91.85C65.32 92.36 65.95 92.8 66.45 93.36C67.23 94.25 67.41 95.32 66.9 96.4C66.4 97.45 65.45 97.89 64.32 97.88C63.69 97.87 63.05 97.76 62.43 97.66C62.28 97.63 62.05 97.44 62.05 97.31C62.03 96.65 62.07 96 62.09 95.34L62.27 95.33C62.31 95.5 62.34 95.67 62.37 95.84C62.63 97.27 63.99 97.58 65 97.18C65.91 96.82 66.18 95.73 65.56 94.88C65.27 94.49 64.87 94.17 64.51 93.83C64 93.36 63.44 92.95 62.98 92.44C62.3 91.69 62.07 90.77 62.43 89.8C62.77 88.86 63.59 88.43 64.52 88.34C65.18 88.27 65.86 88.39 66.53 88.43C66.82 88.45 66.94 88.62 66.91 88.92C66.87 89.42 66.87 89.91 66.85 90.41L66.71 90.42ZM139.63 88.87C138.92 88.71 138.2 88.96 137.89 89.47C137.57 90.02 137.67 90.63 138.26 91.19C138.75 91.67 139.32 92.07 139.85 92.51C140.61 93.15 141.29 93.85 141.39 94.92C141.51 96.33 140.81 97.39 139.45 97.76C138.55 98 137.64 97.96 136.74 97.69C136.41 97.6 136.26 97.41 136.28 97.06C136.3 96.49 136.28 95.91 136.28 95.34L136.52 95.33C136.55 95.48 136.57 95.63 136.6 95.78C136.85 97.1 138.26 97.77 139.38 97.12C140.19 96.66 140.41 95.7 139.82 94.9C139.51 94.47 139.08 94.14 138.69 93.78C138.18 93.29 137.59 92.87 137.16 92.33C135.81 90.64 136.67 88.57 138.81 88.33C139.45 88.26 140.11 88.37 140.76 88.42C141.07 88.45 141.19 88.62 141.16 88.95C141.12 89.44 141.15 89.92 141.15 90.41L140.94 90.41C140.81 89.63 140.46 89.05 139.63 88.87ZM109.88 97.79C108.53 97.96 107.18 97.95 105.92 97.38C104.13 96.56 103.26 94.88 103.59 92.99C103.91 91.17 105.42 89.84 107.43 89.76C108.53 89.72 109.63 89.88 110.73 89.97C110.84 89.98 111.02 90.1 111.02 90.17C111.02 90.77 110.97 91.37 110.94 92.02C110.83 91.95 110.78 91.94 110.78 91.92C110.64 90.77 109.82 90.37 108.83 90.29C108.22 90.24 107.57 90.25 106.99 90.42C106.54 90.54 106.07 90.88 105.79 91.25C104.49 92.92 105.1 95.77 106.94 96.81C107.81 97.31 108.75 97.36 109.7 97.15C110.21 97.03 110.58 96.7 110.78 96.19C110.82 96.07 110.88 95.95 110.95 95.79C111.31 96.77 110.81 97.68 109.88 97.79ZM193.51 94.65C193.41 93.82 192.82 93.84 192.22 93.81C190.91 93.76 190.9 93.75 190.91 95.06C190.91 95.53 190.92 95.99 190.95 96.45C190.97 96.83 191.19 97.08 191.56 97.11C192.08 97.14 192.59 97.16 193.11 97.13C193.67 97.1 193.87 96.67 193.96 96.14C194.14 96.48 194.1 97.43 193.9 97.62C193.87 97.65 193.85 97.66 193.82 97.68C193.79 97.7 193.76 97.71 193.73 97.72C193.7 97.73 193.67 97.74 193.63 97.75C193.6 97.75 193.57 97.76 193.53 97.76C193.14 97.76 192.74 97.75 192.34 97.75C191.95 97.75 191.55 97.75 191.16 97.75C190.76 97.74 190.36 97.74 189.97 97.74C189.57 97.73 189.17 97.73 188.78 97.73C188.74 97.73 188.7 97.68 188.55 97.58C189.62 97.6 189.46 96.87 189.47 96.29C189.49 94.46 189.46 92.64 189.49 90.81C189.5 90.08 188.99 90.06 188.5 89.89L193.83 89.89L193.7 91.31L193.58 91.4C193.49 90.34 192.74 90.45 192.08 90.45C190.71 90.44 190.93 90.25 190.91 91.56C190.9 91.99 190.89 92.42 190.92 92.85C190.94 92.98 191.11 93.22 191.21 93.22C192.02 93.21 192.86 93.41 193.68 92.96L193.51 94.65ZM182.77 95.64C182.82 96.72 183.41 97.24 184.43 97.35C185.13 97.43 185.82 97.09 186.06 96.52C186.32 95.89 186.13 95.27 185.47 94.81C184.94 94.44 184.32 94.16 183.84 93.73C183.43 93.37 183.02 92.9 182.85 92.4C182.44 91.13 183.28 89.98 184.75 89.78C185.42 89.69 186.12 89.8 186.8 89.84C186.92 89.85 187.13 89.99 187.13 90.07C187.17 90.56 187.15 91.05 187.15 91.54L186.98 91.57C186.95 91.52 186.92 91.48 186.91 91.44C186.63 90.26 185.28 89.79 184.31 90.54C184.19 90.63 184.09 90.75 184.01 90.89C183.94 91.03 183.9 91.18 183.9 91.34C183.89 91.49 183.92 91.65 183.99 91.79C184.05 91.93 184.14 92.06 184.26 92.16C184.55 92.42 184.91 92.61 185.24 92.83C185.67 93.11 186.13 93.36 186.53 93.69C187.25 94.29 187.5 95.09 187.31 96.01C187.12 96.94 186.5 97.56 185.63 97.71C184.78 97.86 183.86 97.73 182.98 97.69C182.63 97.68 182.48 97.43 182.51 97.08C182.55 96.61 182.57 96.14 182.59 95.67L182.77 95.64ZM171.82 96.17C171.84 96.21 171.86 96.26 171.86 96.31C171.87 97.69 171.8 97.77 170.44 97.76C169.09 97.76 167.75 97.74 166.4 97.73C166.31 97.73 166.22 97.7 166.07 97.62C167.12 97.61 166.97 96.86 166.97 96.26C166.99 94.45 166.97 92.64 166.99 90.83C167 90.13 166.53 90.05 166.03 89.9L169.46 89.9C168.43 90.31 168.41 90.31 168.41 91.41C168.41 92.95 168.41 94.48 168.45 96.01C168.47 96.95 168.59 97.05 169.54 97.14C169.69 97.15 169.85 97.15 170 97.16C170.8 97.18 171.56 97.16 171.82 96.17L171.82 96.17ZM197.42 88.27C197.42 88.27 197.42 88.27 197.42 88.27L197.42 88.27L197.42 88.27ZM196.67 95.65L196.45 95.66C196.41 95.38 196.35 95.11 196.32 94.83C196.12 93.05 195.91 91.26 195.72 89.47C195.71 89.36 195.73 89.21 195.8 89.14C196.22 88.69 196.71 88.37 197.42 88.27L196.67 95.65ZM197.24 97.16C197.26 97.6 196.99 97.89 196.56 97.89C196.13 97.89 195.93 97.65 195.9 97.25C195.87 96.87 196.17 96.56 196.6 96.55C196.94 96.59 197.22 96.73 197.24 97.16ZM124.16 96.93C124.16 97.37 123.86 97.69 123.43 97.7C123.33 97.7 123.24 97.68 123.15 97.65C123.06 97.62 122.98 97.56 122.91 97.5C122.85 97.43 122.79 97.36 122.75 97.27C122.72 97.18 122.7 97.09 122.7 96.99C122.69 96.9 122.7 96.8 122.74 96.7C122.77 96.61 122.83 96.53 122.89 96.45C122.96 96.38 123.05 96.33 123.14 96.29C123.23 96.25 123.33 96.23 123.43 96.23C123.86 96.23 124.15 96.51 124.16 96.93Z" />
</svg>