<?xml version="1.0" encoding="UTF-8"?>
<svg width="256px" height="86px" viewBox="0 0 256 86" version="1.1" xmlns="http://www.w3.org/2000/svg" xmlns:xlink="http://www.w3.org/1999/xlink">
    <!-- Generator: Sketch 63.1 (92452) - https://sketch.com -->
    <title>logo_brandsource</title>
    <desc>Created with Sketch.</desc>
    <g id="03-what-we-do-(SRC)" stroke="none" stroke-width="1" fill="none" fill-rule="evenodd">
        <g id="Group" fill="#FFFFFF" fill-rule="nonzero">
            <g id="Group-6-Copy-2" transform="translate(38.000000, 5.000000)">
                <g id="AVB-instoreAds-Logo" transform="translate(0.000000, 0.483519)">
                    <g id="Group">
                        <path d="M37.5355383,16.5862743 C37.0543134,16.002965 36.5477609,15.4196557 36.0412085,14.8870689 C31.9634611,10.8039035 26.9739192,8.74964013 21.1738934,8.74964013 C15.4498504,8.74964013 10.4603086,10.8292647 6.38256116,14.8870689 C2.30481375,18.9702343 0.227948613,23.9664056 0.227948613,29.7741377 C0.227948613,35.505786 2.30481375,40.5019574 6.38256116,44.5851228 C10.4603086,48.6682882 15.4498504,50.7479128 21.1738934,50.7479128 C26.9739192,50.7479128 31.9634611,48.6682882 36.0412085,44.5597615 C36.5730886,44.0271747 37.0543134,43.4438654 37.5355383,42.860556 L37.5355383,49.6827392 L41.6639409,49.6827392 L41.6639409,12.046606 L37.5355383,12.046606 L37.5355383,16.5862743 Z M21.1738934,46.4111346 C16.5895935,46.4111346 12.6384842,44.7626517 9.39654838,41.5417697 C6.15461255,38.3208876 4.50831701,34.3391674 4.50831701,29.7741377 C4.50831701,25.1837468 6.15461255,21.2020265 9.39654838,17.9557832 C12.6384842,14.7095399 16.5895935,13.061057 21.1738934,13.061057 C25.7581933,13.061057 29.7093025,14.7095399 32.976566,17.9811445 C35.4080179,20.415827 36.9530029,23.2816511 37.5355383,26.4264493 L37.5355383,33.0457423 C36.9276753,36.241263 35.3826902,39.1070872 32.976566,41.5164084 C29.7346302,44.7626517 25.7581933,46.4111346 21.1738934,46.4111346 Z" id="Shape"></path>
                        <polygon id="Shape" points="62.2806266 42.2518854 49.262228 12.046606 44.5259624 12.046606 61.0649006 49.479849 61.1408835 49.6827392 63.395042 49.6827392 80.2125841 12.046606 75.4509909 12.046606"></polygon>
                        <path d="M118.7359,44.5851228 C122.813647,40.5019574 124.865185,35.505786 124.865185,29.7741377 C124.865185,23.9664056 122.813647,18.9702343 118.7359,14.8870689 C114.658152,10.8039035 109.66861,8.74964013 103.91924,8.74964013 C98.1445417,8.74964013 93.1803274,10.8292647 89.10258,14.8870689 C88.5706999,15.4196557 88.0641475,15.9776037 87.6082502,16.5355518 L87.6082502,0.17752893 L83.4798476,0.17752893 L83.4798476,49.7081005 L87.6082502,49.7081005 L87.6082502,42.9366398 C88.0641475,43.4945879 88.5706999,44.052536 89.10258,44.5851228 C93.1803274,48.6936494 98.1698693,50.773274 103.91924,50.773274 C109.693938,50.7479128 114.68348,48.6682882 118.7359,44.5851228 Z M87.6082502,33.2993551 L87.6082502,26.2996429 C88.2161132,23.1548448 89.7357706,20.3397431 92.1418949,17.9557832 C95.4091583,14.7095399 99.3602676,13.0356957 103.944567,13.0356957 C108.528867,13.0356957 112.479977,14.6841787 115.721912,17.930422 C118.963848,21.2020265 120.610144,25.1583855 120.610144,29.7487764 C120.610144,34.3391674 118.963848,38.2955264 115.721912,41.5164084 C112.454649,44.7626517 108.50354,46.4111346 103.91924,46.4111346 C99.33494,46.4111346 95.3838307,44.7626517 92.1165672,41.4910471 C89.7357706,39.1324485 88.2161132,36.3427081 87.6082502,33.2993551 Z" id="Shape"></path>
                    </g>
                    <path d="M135.24951,4.3875007 C136.085322,4.3875007 136.921133,4.59039091 137.680962,5.0215326 L193.351079,36.2919856 C194.921392,37.1796302 195.883841,38.8534744 195.883841,40.654125 C195.883841,42.4547756 194.870736,44.1032585 193.300424,44.9655419 L137.630307,75.2976277 C136.870478,75.7034081 136.059994,75.9062983 135.24951,75.9062983 C134.363044,75.9062983 133.501904,75.6780468 132.716748,75.2215439 C131.222418,74.3338992 130.285296,72.7107776 130.285296,70.9608495 L130.285296,9.35831075 C130.285296,7.60838272 131.222418,5.9598998 132.742076,5.07225515 C133.501904,4.61575219 134.388371,4.3875007 135.24951,4.3875007 Z M173.038325,31.1943692 C172.405134,31.1943692 171.746616,31.2958143 171.138753,31.4987045 C170.505562,31.7015947 169.948355,32.00593 169.46713,32.4370717 C168.960577,32.8428521 168.580663,33.3754389 168.276732,34.034832 C167.998128,34.6942252 167.846162,35.4550635 167.846162,36.3173469 C167.846162,37.154269 167.9728,37.8390234 168.200749,38.3969715 C168.454025,38.9295583 168.757956,39.4114225 169.137871,39.7664804 C169.517785,40.1468995 169.973682,40.4512348 170.454907,40.6794863 C170.936132,40.9077378 171.442685,41.1359893 171.974565,41.3135182 C172.506445,41.4910471 173.012997,41.6939373 173.494222,41.8714663 C173.975447,42.0743565 174.406017,42.3026079 174.811258,42.581582 C175.2165,42.860556 175.520432,43.2156139 175.748381,43.6213943 C175.976329,44.052536 176.102967,44.5597615 176.102967,45.1937934 C176.102967,45.7010189 176.001657,46.1828831 175.799036,46.5886635 C175.571087,46.994444 175.317811,47.3495018 174.988552,47.6284758 C174.659293,47.9074499 174.304706,48.1103401 173.899464,48.2625077 C173.494222,48.4146754 173.08898,48.4907592 172.683738,48.4907592 C171.822599,48.4907592 171.088098,48.287869 170.480235,47.8820886 C169.872372,47.4763082 169.391147,46.9437214 169.03656,46.2843282 L169.03656,46.2843282 L167.54223,47.4763082 C168.150093,48.4400367 168.909922,49.1247911 169.796389,49.5305715 C170.682856,49.9617132 171.619978,50.1646034 172.607755,50.1646034 C173.240946,50.1646034 173.874136,50.037797 174.507327,49.8095456 C175.140518,49.5812941 175.697725,49.2262362 176.204278,48.7950945 C176.71083,48.3639528 177.116072,47.8060048 177.420004,47.1466116 C177.723935,46.4872184 177.875901,45.7517414 177.875901,44.9401806 C177.875901,43.8496458 177.67328,42.9873624 177.268038,42.3533305 C176.862796,41.7192986 176.356244,41.2120731 175.748381,40.8316539 C175.140518,40.4512348 174.481999,40.1468995 173.772826,39.918648 C173.063652,39.6903965 172.405134,39.4114225 171.797271,39.1324485 C171.189408,38.8281132 170.682856,38.4730553 170.277614,38.0165523 C169.872372,37.5600494 169.669751,36.9260175 169.669751,36.1144567 C169.669751,35.5565086 169.771061,35.0492831 169.973682,34.6435027 C170.176303,34.2377223 170.42958,33.8826644 170.758839,33.6290516 C171.06277,33.3754389 171.442685,33.1725487 171.847927,33.0457423 C172.253168,32.9189359 172.65841,32.8428521 173.08898,32.8428521 C174.456672,32.8428521 175.495104,33.4261614 176.204278,34.5927801 L176.204278,34.5927801 L177.571969,33.3754389 C176.938779,32.5638781 176.254933,32.00593 175.520432,31.6762334 C174.760603,31.3465368 173.950119,31.1943692 173.038325,31.1943692 Z M142.670504,31.6001496 L141.074864,31.6001496 L134.08444,49.6827392 L135.984011,49.6827392 L137.782273,44.9401806 L145.988423,44.9401806 L147.761356,49.6827392 L149.660928,49.6827392 L142.670504,31.6001496 Z M156.904629,31.6001496 L151.585828,31.6001496 L151.585828,49.6827392 L156.904629,49.6827392 C157.917734,49.6827392 158.905511,49.5052103 159.918616,49.1247911 C160.906393,48.744372 161.818188,48.1864239 162.628672,47.4255856 C163.413828,46.6647474 164.072346,45.7263802 164.578899,44.610484 C165.085451,43.4945879 165.338727,42.1758016 165.338727,40.654125 C165.338727,39.1578097 165.085451,37.8390234 164.578899,36.697766 C164.097674,35.5565086 163.439155,34.6181414 162.628672,33.8573031 C161.818188,33.0964648 160.931721,32.5385168 159.918616,32.1580976 C158.905511,31.7776785 157.892406,31.6001496 156.904629,31.6001496 L156.904629,31.6001496 Z M156.372748,33.2993551 C157.613802,33.2993551 158.652235,33.5276065 159.564029,33.9333869 C160.475823,34.3391674 161.235652,34.8717541 161.818188,35.5818699 C162.400723,36.2919856 162.85662,37.0528239 163.135224,37.9404685 C163.413828,38.8027519 163.565794,39.7157578 163.565794,40.654125 C163.565794,41.5924922 163.413828,42.4801369 163.135224,43.3677815 C162.85662,44.2554262 162.426051,45.0416257 161.818188,45.7263802 C161.210325,46.4111346 160.450496,46.9690827 159.564029,47.3748631 C158.652235,47.8060048 157.588474,48.008895 156.372748,48.008895 L156.372748,48.008895 L153.206796,48.008895 L153.206796,33.2993551 Z M141.86002,33.7304967 L145.329905,43.2409751 L138.364808,43.2409751 L141.86002,33.7304967 Z" id="Combined-Shape"></path>
                    <g id="Group" transform="translate(4.052420, 54.273130)">
                        <polygon id="Shape" points="2.12752039 20.6694397 0.126638118 20.6694397 0.126638118 0.684754445 2.12752039 0.684754445"></polygon>
                        <polygon id="Shape" points="21.7311011 17.6007254 21.7817563 17.6007254 21.7817563 0.659393169 23.7826386 0.659393169 23.7826386 20.6440785 21.2752039 20.6440785 9.5231865 3.5505786 9.47253125 3.5505786 9.47253125 20.6694397 7.47164898 20.6694397 7.47164898 0.684754445 9.97908372 0.684754445"></polygon>
                        <path d="M46.2229132,3.95635902 C45.361774,2.66293395 44.0700652,2.00354078 42.398442,2.00354078 C41.8665619,2.00354078 41.3600094,2.07962461 40.853457,2.20643099 C40.3469045,2.33323737 39.8910073,2.56148885 39.5110929,2.86582416 C39.1058509,3.17015947 38.8019194,3.52521733 38.5486432,4.00708157 C38.295367,4.46358453 38.1940565,5.0215326 38.1940565,5.63020322 C38.1940565,6.54320914 38.4473327,7.22796359 38.9538852,7.7351891 C39.4604377,8.24241462 40.0683006,8.64819503 40.8281293,8.95253034 C41.5626304,9.28222692 42.3731144,9.56120096 43.2595812,9.81481371 C44.146048,10.0684265 44.956532,10.3981231 45.6910331,10.8292647 C46.4255342,11.2604064 47.0587248,11.8183545 47.5652772,12.5031089 C48.0718297,13.1878634 48.3251059,14.1515919 48.3251059,15.3435718 C48.3251059,16.2565778 48.1224849,17.0681386 47.7425706,17.7782543 C47.3626562,18.5137313 46.8561038,19.1224019 46.2482408,19.6042662 C45.6150502,20.0861304 44.9312044,20.4665495 44.146048,20.7455236 C43.3862193,20.9991363 42.601063,21.151304 41.8159067,21.151304 C40.6001807,21.151304 39.4604377,20.9230525 38.3713498,20.4665495 C37.282262,20.0100466 36.3704676,19.2492083 35.6106389,18.1840347 L37.4595554,16.8652484 C37.890125,17.6007254 38.4726603,18.1840347 39.232489,18.6405377 C39.9923178,19.0716794 40.8787846,19.2999308 41.9172172,19.2999308 C42.4237696,19.2999308 42.9049945,19.223847 43.4115469,19.0716794 C43.9180994,18.9195117 44.348669,18.6658989 44.753911,18.3615636 C45.159153,18.0572283 45.4884121,17.6768092 45.7416883,17.2203062 C45.9949646,16.7638033 46.1216027,16.2565778 46.1216027,15.6732684 C46.1216027,14.988514 45.9696369,14.4052046 45.6910331,13.9487017 C45.4124292,13.4921987 45.0325149,13.1117796 44.55129,12.782083 C44.0700652,12.4777477 43.5381851,12.2241349 42.9303221,11.9958834 C42.3224591,11.7929932 41.7145962,11.590103 41.0560779,11.3618515 C40.4228874,11.1589613 39.7896968,10.9307098 39.1818338,10.6517358 C38.5739708,10.3981231 38.0420907,10.0430652 37.5608659,9.63728478 C37.079641,9.23150437 36.6997267,8.72427886 36.4211228,8.11560824 C36.142519,7.50693762 35.9905532,6.74609935 35.9905532,5.80773215 C35.9905532,4.84400367 36.1678466,4.00708157 36.5224333,3.29696585 C36.87702,2.58685013 37.3582449,1.97817951 37.9661079,1.52167654 C38.5739708,1.03981231 39.2578167,0.710115721 40.0176454,0.481864239 C40.7774741,0.253612757 41.5626304,0.152167654 42.3477868,0.152167654 C43.4622022,0.152167654 44.4753071,0.329696585 45.3871016,0.684754445 C46.298896,1.03981231 47.1347076,1.6738442 47.919864,2.58685013 L46.2229132,3.95635902 Z" id="Shape"></path>
                        <polygon id="Shape" points="58.7094316 20.6694397 56.7085494 20.6694397 56.7085494 2.53612757 50.0980396 2.53612757 50.0980396 0.684754445 65.3199414 0.684754445 65.3199414 2.53612757 58.7094316 2.53612757"></polygon>
                        <path d="M87.6082502,10.6517358 C87.6082502,12.1734124 87.354974,13.5682825 86.8230939,14.8617076 C86.2912138,16.1297714 85.5820403,17.2456675 84.6702459,18.1840347 C83.7584514,19.1224019 82.6693636,19.8578789 81.4029824,20.3651044 C80.1366013,20.8976912 78.7942372,21.151304 77.325235,21.151304 C75.8562329,21.151304 74.4885412,20.8976912 73.2474876,20.3651044 C71.9811064,19.8325176 70.9173462,19.0970406 69.9802242,18.1840347 C69.0431021,17.2710288 68.3339286,16.1551326 67.8273762,14.8617076 C67.2954961,13.5936438 67.0422198,12.1734124 67.0422198,10.6517358 C67.0422198,9.13005927 67.2954961,7.7351891 67.8273762,6.44176404 C68.3592563,5.17370025 69.0684297,4.05780412 69.9802242,3.11943692 C70.8920186,2.18106971 71.9811064,1.44559272 73.2474876,0.938367203 C74.5138688,0.405780412 75.8562329,0.152167654 77.325235,0.152167654 C78.7942372,0.152167654 80.1619289,0.405780412 81.4029824,0.938367203 C82.6693636,1.47095399 83.7331238,2.20643099 84.6702459,3.11943692 C85.607368,4.03244284 86.3165414,5.14833898 86.8230939,6.44176404 C87.354974,7.7351891 87.6082502,9.13005927 87.6082502,10.6517358 Z M85.4554022,10.6517358 C85.4554022,9.5104784 85.2781089,8.39458227 84.8981945,7.35476997 C84.5182801,6.31495766 83.9864,5.40195173 83.3025542,4.59039091 C82.6187084,3.77883009 81.7575692,3.17015947 80.7444642,2.68829523 C79.7313593,2.20643099 78.6169438,1.97817951 77.3505626,1.97817951 C76.0841815,1.97817951 74.9444384,2.20643099 73.9566611,2.68829523 C72.9435561,3.17015947 72.1077446,3.77883009 71.3985711,4.59039091 C70.6893976,5.37659046 70.1575175,6.28959638 69.8029308,7.35476997 C69.4230164,8.39458227 69.2457231,9.48511713 69.2457231,10.6517358 C69.2457231,11.7929932 69.4230164,12.9088894 69.8029308,13.9487017 C70.1828452,14.988514 70.7147253,15.9015199 71.3985711,16.7130807 C72.1077446,17.4992803 72.9435561,18.1333122 73.9566611,18.6151764 C74.969766,19.0970406 76.0841815,19.3252921 77.3505626,19.3252921 C78.6169438,19.3252921 79.7566869,19.0970406 80.7444642,18.6151764 C81.7575692,18.1333122 82.5933807,17.5246415 83.3025542,16.7130807 C84.0117277,15.9015199 84.5436078,15.0138752 84.8981945,13.9487017 C85.2527812,12.9088894 85.4554022,11.8183545 85.4554022,10.6517358 Z" id="Shape"></path>
                        <path d="M93.6362247,20.6694397 L91.6353424,20.6694397 L91.6353424,0.684754445 L97.7139721,0.684754445 C99.7148543,0.684754445 101.310495,1.11589613 102.475565,2.00354078 C103.640636,2.89118543 104.223171,4.23533305 104.223171,6.01062235 C104.223171,7.40549252 103.792602,8.5721112 102.931463,9.53583968 C102.070323,10.4995682 100.82927,11.0321549 99.1829742,11.1843226 L104.856362,20.6694397 L102.399582,20.6694397 L97.0047986,11.3872128 L93.6615523,11.3872128 L93.6615523,20.6694397 L93.6362247,20.6694397 Z M93.6362247,9.5104784 L97.2074196,9.5104784 C98.0938864,9.5104784 98.8537151,9.4090333 99.4869057,9.23150437 C100.120096,9.05397544 100.601321,8.80036268 100.981236,8.4706661 C101.36115,8.16633079 101.614426,7.78591165 101.791719,7.38013124 C101.969013,6.94898955 102.044996,6.49248659 102.044996,6.01062235 C102.044996,5.52875811 101.969013,5.09761642 101.791719,4.66647474 C101.614426,4.23533305 101.36115,3.88027519 100.981236,3.5505786 C100.601321,3.22088202 100.120096,2.99263054 99.4869057,2.78974033 C98.8537151,2.6122114 98.119214,2.5107663 97.2074196,2.5107663 L93.6362247,2.5107663 L93.6362247,9.5104784 Z" id="Shape"></path>
                        <polygon id="Shape" points="110.175163 18.7927053 120.736782 18.7927053 120.736782 20.6440785 108.148953 20.6440785 108.148953 0.659393169 120.382195 0.659393169 120.382195 2.5107663 110.175163 2.5107663 110.175163 9.3075882 119.723677 9.3075882 119.723677 11.1589613 110.175163 11.1589613"></polygon>
                    </g>
                </g>
            </g>
        </g>
    </g>
</svg>