<svg xmlns="http://www.w3.org/2000/svg" viewBox="0 0 256 109" width="256" height="109">
	<style>
		tspan { white-space:pre }
		.shp0 { fill: #ffffff } 
	</style>
	<g >
		<g >
			<path fill-rule="evenodd" class="shp0" d="M210.66 81.95C208.63 81.95 206.98 80.31 206.98 78.28C206.98 76.25 208.63 74.6 210.66 74.6C212.69 74.6 214.34 76.25 214.34 78.28C214.34 80.31 212.69 81.95 210.66 81.95ZM230.27 80.73C228.91 80.73 227.82 79.63 227.82 78.28C227.82 76.93 228.91 75.83 230.27 75.83C231.62 75.83 232.72 76.93 232.72 78.28C232.72 79.63 231.62 80.73 230.27 80.73ZM238.23 80.11C237.22 80.11 236.39 79.29 236.39 78.28C236.39 77.26 237.22 76.44 238.23 76.44C239.25 76.44 240.07 77.26 240.07 78.28C240.07 79.29 239.25 80.11 238.23 80.11ZM220.46 81.34C218.77 81.34 217.4 79.97 217.4 78.28C217.4 76.59 218.77 75.22 220.46 75.22C222.16 75.22 223.53 76.59 223.53 78.28C223.53 79.97 222.16 81.34 220.46 81.34ZM228.64 67.71C227.39 68.23 225.95 67.63 225.44 66.39C224.92 65.14 225.51 63.7 226.76 63.18C228.01 62.67 229.45 63.26 229.96 64.51C230.48 65.76 229.89 67.19 228.64 67.71ZM235.76 64.1C234.82 64.49 233.75 64.04 233.36 63.1C232.97 62.17 233.42 61.09 234.36 60.7C235.29 60.32 236.37 60.76 236.76 61.7C237.15 62.64 236.7 63.71 235.76 64.1ZM219.81 72.02C218.25 72.67 216.46 71.93 215.81 70.37C215.16 68.81 215.91 67.02 217.47 66.37C219.03 65.72 220.83 66.46 221.47 68.02C222.12 69.59 221.38 71.38 219.81 72.02ZM228.64 88.85C229.89 89.36 230.48 90.8 229.96 92.05C229.45 93.3 228.01 93.89 226.76 93.37C225.51 92.85 224.92 91.42 225.44 90.17C225.95 88.92 227.39 88.33 228.64 88.85ZM235.76 92.46C236.7 92.85 237.15 93.92 236.76 94.86C236.37 95.8 235.29 96.24 234.36 95.85C233.42 95.46 232.97 94.39 233.36 93.45C233.75 92.51 234.82 92.07 235.76 92.46ZM219.81 84.53C221.38 85.18 222.12 86.97 221.47 88.53C220.83 90.09 219.03 90.84 217.47 90.19C215.91 89.54 215.16 87.75 215.81 86.19C216.46 84.63 218.25 83.88 219.81 84.53ZM209.67 71.6C208.24 73.04 205.91 73.04 204.48 71.6C203.04 70.17 203.04 67.84 204.48 66.4C205.91 64.97 208.24 64.97 209.68 66.4C211.11 67.84 211.11 70.16 209.67 71.6ZM222.67 56.88C221.71 57.84 220.16 57.84 219.21 56.88C218.25 55.92 218.25 54.37 219.21 53.42C220.17 52.46 221.72 52.46 222.67 53.42C223.63 54.37 223.63 55.92 222.67 56.88ZM227.87 50.82C227.15 51.54 225.99 51.54 225.27 50.82C224.56 50.1 224.56 48.94 225.27 48.22C225.99 47.5 227.16 47.5 227.87 48.22C228.59 48.94 228.59 50.1 227.87 50.82ZM216.17 64.24C214.98 65.44 213.04 65.44 211.84 64.24C210.65 63.05 210.65 61.11 211.84 59.91C213.04 58.71 214.98 58.71 216.17 59.91C217.37 61.1 217.37 63.04 216.17 64.24ZM204.48 90.15C203.04 88.72 203.04 86.39 204.48 84.95C205.91 83.52 208.24 83.52 209.67 84.96C211.11 86.39 211.11 88.72 209.68 90.15C208.24 91.59 205.91 91.59 204.48 90.15ZM219.21 103.14C218.25 102.18 218.25 100.63 219.21 99.67C220.16 98.72 221.71 98.72 222.67 99.68C223.63 100.63 223.63 102.18 222.67 103.14C221.72 104.1 220.17 104.1 219.21 103.14ZM225.27 108.33C224.56 107.62 224.56 106.45 225.27 105.74C225.99 105.02 227.15 105.02 227.87 105.74C228.59 106.45 228.59 107.62 227.87 108.34C227.16 109.05 225.99 109.05 225.27 108.33ZM211.84 96.65C210.65 95.45 210.65 93.51 211.84 92.31C213.04 91.12 214.98 91.12 216.17 92.32C217.37 93.51 217.37 95.45 216.17 96.65C214.98 97.84 213.04 97.84 211.84 96.65ZM144.29 27.52C141.57 27.03 139.76 25.48 139.65 23.55C139.59 22.79 139.71 22.2 140.02 21.58C140.31 20.99 141.04 20.2 141.59 19.87C141.82 19.74 142 19.61 142 19.59C142 19.57 141.84 19.45 141.64 19.32C140.68 18.7 140.28 17.28 140.78 16.24C141.01 15.77 141.58 15.2 141.95 15.06C142.1 15.01 142.24 14.93 142.24 14.89C142.24 14.85 142.05 14.62 141.82 14.38C140.86 13.34 140.38 11.84 140.49 10.17C140.55 9.24 140.7 8.68 141.09 7.88C141.67 6.69 142.7 5.82 144.04 5.37C144.92 5.07 146.45 5.01 147.38 5.24C148.34 5.49 148.95 5.83 149.61 6.46C149.93 6.77 150.19 7.02 150.2 7.02C150.2 7.02 150.29 6.88 150.37 6.69C150.87 5.67 152.07 4.95 153.28 4.95L153.68 4.95L153.68 7.79L153.4 7.79C152.95 7.79 152.26 8.01 151.97 8.26C151.51 8.63 151.46 8.84 151.46 10.21C151.48 11.99 151.22 12.92 150.42 14.04C149.76 14.95 148.58 15.71 147.42 15.95C146.78 16.08 145.19 16.1 144.49 15.98C144.09 15.91 143.98 15.92 143.78 16.02C143.48 16.18 143.39 16.36 143.39 16.79C143.39 17.09 143.43 17.19 143.6 17.37C143.99 17.75 144.46 17.84 146.62 17.91C147.71 17.94 148.84 18.01 149.12 18.06C149.83 18.17 150.82 18.52 151.35 18.83C152.76 19.69 153.58 21.29 153.41 22.91C153.17 25.4 151.22 27.08 148.02 27.55C147.24 27.67 145.02 27.65 144.29 27.52ZM147.86 25.16C149.13 24.91 149.93 24.41 150.38 23.57C150.62 23.13 150.65 23.02 150.65 22.5C150.65 21.98 150.62 21.87 150.42 21.54C150.26 21.28 150.05 21.08 149.76 20.91C148.97 20.43 148.8 20.41 146.37 20.37L144.16 20.35L143.7 20.6C142.25 21.36 141.87 22.97 142.88 24.09C143.38 24.65 144.28 25.03 145.4 25.18C146.18 25.29 147.25 25.27 147.86 25.16ZM146.96 13.7C147.77 13.34 148.35 12.62 148.62 11.64C149.23 9.45 147.91 7.22 146 7.22C145.3 7.22 144.8 7.44 144.27 7.97C143.17 9.08 142.92 10.78 143.63 12.29C144.26 13.64 145.72 14.25 146.96 13.7ZM85.57 19.48C84.28 19.24 83.31 18.73 82.31 17.8C81.39 16.92 80.65 15.63 80.26 14.23C79.99 13.25 79.92 11.48 80.11 10.42C80.47 8.33 81.58 6.69 83.21 5.85C84.1 5.39 84.88 5.18 85.96 5.13C87.95 5.03 89.62 5.68 90.7 6.97C91.17 7.54 91.7 8.61 91.91 9.43C92.09 10.16 92.23 11.54 92.2 12.27L92.18 12.81L87.47 12.83L82.76 12.85L82.81 13.25C83.04 15.2 84.38 16.78 86.19 17.25C86.82 17.41 88.2 17.41 88.98 17.25C89.3 17.18 89.9 16.99 90.3 16.82C90.7 16.66 91.06 16.51 91.1 16.5C91.15 16.49 91.83 18.36 91.83 18.53C91.83 18.62 90.54 19.12 89.92 19.28C88.74 19.58 86.64 19.68 85.57 19.48ZM89.53 10.29C89.53 9.91 89.31 9.17 89.09 8.79C88.76 8.23 88.38 7.88 87.81 7.59C86.12 6.76 83.95 7.55 83.14 9.29C83.01 9.57 82.88 9.97 82.86 10.17L82.82 10.55L89.53 10.55L89.53 10.29ZM111 19.48C109.86 19.3 108.05 18.7 108.05 18.5C108.05 18.4 108.67 16.58 108.73 16.51C108.76 16.48 109.14 16.59 109.57 16.76C110.69 17.2 111.43 17.38 112.19 17.38C113.29 17.4 114.11 17.12 114.67 16.56C115.2 16.03 115.34 15.42 115.04 14.85C114.75 14.29 114.3 14.03 112.28 13.35C110.46 12.73 109.7 12.35 109.07 11.74C108.31 10.98 108.04 10.3 108.04 9.14C108.05 6.71 109.81 5.26 112.93 5.13C114.08 5.08 114.92 5.18 115.84 5.47C116.36 5.63 117.34 6.06 117.34 6.13C117.34 6.13 117.26 6.6 117.15 7.17C117.04 7.74 116.96 8.2 116.96 8.22C116.96 8.23 116.7 8.12 116.4 7.98C115.3 7.47 114.58 7.31 113.5 7.3C112.45 7.3 112.02 7.4 111.49 7.78C110.6 8.41 110.6 9.46 111.48 10.02C111.92 10.29 112.33 10.45 113.92 10.95C115.92 11.57 116.83 12.11 117.46 13.05C117.92 13.71 118.06 14.26 118.06 15.18C118.05 16.66 117.44 17.77 116.19 18.62C114.98 19.43 112.9 19.78 111 19.48ZM168.15 19.48C165.94 19.08 164.28 17.79 163.33 15.74C162.47 13.88 162.4 11.21 163.18 9.25C163.92 7.38 165.32 6.04 167.21 5.41C167.87 5.18 168.04 5.15 169.09 5.12C170.08 5.1 170.34 5.11 170.93 5.25C173 5.74 174.57 7.19 175.35 9.31C176.04 11.19 176.01 13.69 175.28 15.57C174.17 18.43 171.24 20.04 168.15 19.48ZM158.62 19.41C157.54 19.13 156.6 18.34 156.07 17.27C155.54 16.21 155.53 16.07 155.53 11.68L155.53 7.79L157.06 7.79L157.06 4.95L155.53 4.95L155.53 1.04L158.29 1.04L158.29 4.95L161.6 4.95L161.6 7.79L158.29 7.79L158.31 11.76C158.33 15.64 158.33 15.73 158.5 16.08C158.75 16.63 159.24 17.11 159.69 17.26C160.07 17.38 160.64 17.38 161.16 17.25C161.32 17.21 161.34 17.27 161.59 18.21C161.74 18.76 161.84 19.22 161.82 19.24C161.56 19.45 159.28 19.58 158.62 19.41ZM66.56 0.35L69.55 0.35L69.57 4.74L69.59 9.13L73.08 4.75L76.57 0.35L78.42 0.35C80.16 0.35 80.25 0.36 80.14 0.49C79.29 1.47 72.9 9.31 72.88 9.41C72.86 9.49 74.2 11.25 76.73 14.43C78.86 17.12 80.62 19.35 80.62 19.38C80.62 19.41 79.71 19.44 78.6 19.43L76.58 19.43L73.12 14.76C71.23 12.2 69.64 10.1 69.61 10.09C69.58 10.09 69.55 12.2 69.55 14.76L69.55 19.44L66.56 19.44L66.56 0.35ZM94.45 7.17L94.66 6.98C96.22 5.57 98.43 4.86 100.9 4.98C102.04 5.03 102.64 5.17 103.49 5.57C104.58 6.1 105.35 7.01 105.73 8.27C105.99 9.14 106.05 10.22 106.05 14.94L106.05 19.44L103.28 19.44L103.28 14.98C103.28 12.52 103.25 10.23 103.21 9.9C103.07 8.69 102.61 7.92 101.76 7.51C101.35 7.31 101.25 7.29 100.44 7.3C99.22 7.3 98.2 7.59 97.47 8.15L97.21 8.33L97.21 19.44L94.45 19.44L94.45 7.17ZM120.57 5.26L123.33 5.26L123.33 19.44L120.57 19.44L120.57 5.26ZM126.41 7.11L126.74 6.85C128.41 5.49 130.46 4.86 132.86 4.98C135.06 5.08 136.57 5.92 137.33 7.44C137.91 8.62 137.89 8.29 137.91 14.17L137.94 19.44L135.17 19.44L135.17 14.61C135.17 11.33 135.14 9.66 135.08 9.38C134.9 8.51 134.41 7.84 133.72 7.51C133.32 7.31 133.22 7.29 132.4 7.29C131.23 7.3 130.23 7.57 129.43 8.12L129.17 8.29L129.17 19.44L126.41 19.44L126.41 7.11ZM177.58 7.13L178.14 6.69C178.82 6.15 180.17 5.47 181 5.27C182.4 4.91 184.38 4.87 185.49 5.15C187.44 5.65 188.62 6.9 189 8.85C189.08 9.3 189.1 10.42 189.1 14.43L189.1 19.44L186.34 19.44L186.32 14.36L186.3 9.28L186.12 8.85C185.89 8.27 185.43 7.77 184.89 7.51C184.49 7.31 184.39 7.29 183.57 7.29C182.36 7.3 181.34 7.59 180.6 8.15L180.34 8.33L180.34 19.44L177.58 19.44L177.58 7.13ZM120.57 1.04L123.33 1.04L123.33 3.57L120.57 3.57L120.57 1.04ZM170.52 17.11C173.36 15.76 173.92 10.68 171.5 8.24C170.76 7.49 169.74 7.14 168.85 7.32C167.37 7.61 166.21 8.78 165.67 10.51C165.43 11.27 165.37 12.76 165.55 13.58C165.75 14.5 166.27 15.5 166.88 16.15C167.73 17.05 168.47 17.39 169.47 17.35C169.94 17.32 170.19 17.27 170.52 17.11ZM107.5 42.1L147.6 42.1L147.6 44.33L107.5 44.33L107.5 42.1ZM40.89 79.77L40.89 85.63L38.62 85.63L38.62 69.81L43.37 69.81C44.38 69.81 45.26 69.93 46 70.16C46.75 70.4 47.37 70.73 47.85 71.16C48.34 71.59 48.71 72.11 48.95 72.71C49.19 73.32 49.32 73.99 49.32 74.74C49.32 75.48 49.19 76.16 48.93 76.77C48.67 77.38 48.29 77.91 47.79 78.36C47.29 78.81 46.67 79.16 45.94 79.4C45.2 79.65 44.34 79.77 43.37 79.77L40.89 79.77ZM40.89 77.97L43.37 77.97C43.97 77.97 44.49 77.89 44.95 77.73C45.41 77.57 45.8 77.35 46.11 77.07C46.42 76.78 46.65 76.44 46.81 76.05C46.96 75.65 47.04 75.21 47.04 74.74C47.04 74.24 46.97 73.81 46.82 73.42C46.67 73.03 46.44 72.71 46.13 72.43C45.83 72.16 45.45 71.95 44.99 71.81C44.53 71.67 43.99 71.6 43.37 71.6L40.89 71.6L40.89 77.97ZM66.95 79.1L66.95 85.63L64.67 85.63L64.67 69.81L69.21 69.81C70.22 69.81 71.1 69.91 71.83 70.12C72.57 70.32 73.18 70.62 73.66 71.01C74.14 71.39 74.49 71.86 74.72 72.4C74.95 72.94 75.06 73.55 75.06 74.22C75.06 74.78 74.98 75.3 74.8 75.78C74.63 76.27 74.38 76.7 74.06 77.09C73.73 77.48 73.33 77.81 72.85 78.09C72.38 78.37 71.84 78.58 71.24 78.72C71.52 78.88 71.77 79.12 71.98 79.43L76.49 85.63L74.46 85.63C74.05 85.63 73.74 85.46 73.55 85.14L69.58 79.6C69.46 79.42 69.32 79.29 69.17 79.22C69.03 79.14 68.81 79.1 68.51 79.1L66.95 79.1ZM66.95 77.44L69.13 77.44C69.74 77.44 70.28 77.36 70.74 77.22C71.2 77.07 71.59 76.86 71.9 76.59C72.21 76.32 72.44 75.99 72.6 75.62C72.76 75.25 72.84 74.84 72.84 74.38C72.84 73.47 72.53 72.77 71.93 72.3C71.33 71.83 70.42 71.6 69.21 71.6L66.95 71.6L66.95 77.44ZM124.56 77.49L119.37 69.81L121.64 69.81C121.8 69.81 121.92 69.84 122 69.89C122.08 69.94 122.15 70.02 122.2 70.12L126.24 76.37C126.28 76.28 126.31 76.19 126.35 76.11C126.38 76.02 126.42 75.93 126.48 75.84L130.28 70.15C130.42 69.92 130.59 69.81 130.8 69.81L132.98 69.81L127.75 77.4L133.15 85.63L130.88 85.63C130.72 85.63 130.58 85.58 130.49 85.49C130.39 85.4 130.31 85.31 130.26 85.2L126.11 78.66C126.09 78.74 126.06 78.82 126.02 78.9C125.98 78.98 125.95 79.06 125.91 79.12L121.87 85.2C121.8 85.3 121.72 85.4 121.63 85.49C121.53 85.58 121.41 85.63 121.27 85.63L119.15 85.63L124.56 77.49ZM147.91 85.63L145.62 85.63L145.62 69.81L147.91 69.81L147.91 85.63ZM168.75 79.76C168.94 80.13 169.11 80.53 169.27 80.95C169.35 80.74 169.44 80.53 169.52 80.33C169.6 80.13 169.7 79.93 169.8 79.74L175.05 70.2C175.15 70.01 175.25 69.9 175.37 69.87C175.48 69.83 175.64 69.81 175.83 69.81L177.52 69.81L177.52 85.63L175.53 85.63L175.53 74.25C175.53 74.09 175.53 73.92 175.54 73.73C175.54 73.55 175.56 73.36 175.57 73.17L170.25 82.89C170.17 83.06 170.06 83.19 169.92 83.28C169.77 83.37 169.61 83.41 169.44 83.41L169.12 83.41C168.74 83.41 168.47 83.24 168.29 82.89L162.86 73.13C162.88 73.33 162.89 73.52 162.91 73.71C162.92 73.9 162.93 74.08 162.93 74.25L162.93 85.63L160.93 85.63L160.93 69.81L162.62 69.81C162.82 69.81 162.98 69.83 163.09 69.87C163.2 69.9 163.31 70.01 163.4 70.2L168.75 79.76ZM97.3 85.63C92.9 85.63 89.34 82.06 89.34 77.67C89.34 73.27 92.9 69.71 97.3 69.71C101.7 69.71 105.27 73.27 105.27 77.67C105.27 82.06 101.7 85.63 97.3 85.63ZM97.3 83.54C100.55 83.54 103.19 80.91 103.19 77.67C103.19 74.42 100.55 71.79 97.3 71.79C94.06 71.79 91.42 74.42 91.42 77.67C91.42 80.91 94.06 83.54 97.3 83.54ZM97.3 79.5C96.29 79.5 95.47 78.68 95.47 77.67C95.47 76.65 96.29 75.83 97.3 75.83C98.32 75.83 99.14 76.65 99.14 77.67C99.14 78.68 98.32 79.5 97.3 79.5ZM197.79 85.63C193.39 85.63 189.83 82.06 189.83 77.67C189.83 73.27 193.39 69.71 197.79 69.71C202.19 69.71 205.76 73.27 205.76 77.67C205.76 82.06 202.19 85.63 197.79 85.63ZM197.79 83.54C201.04 83.54 203.67 80.91 203.67 77.67C203.67 74.42 201.04 71.79 197.79 71.79C194.54 71.79 191.91 74.42 191.91 77.67C191.91 80.91 194.54 83.54 197.79 83.54ZM197.79 79.5C196.78 79.5 195.95 78.68 195.95 77.67C195.95 76.65 196.78 75.83 197.79 75.83C198.81 75.83 199.63 76.65 199.63 77.67C199.63 78.68 198.81 79.5 197.79 79.5Z" />
		</g>
	</g>
</svg>