<?xml version="1.0" encoding="UTF-8"?>
<svg width="256px" height="146px" viewBox="0 0 256 146" version="1.1" xmlns="http://www.w3.org/2000/svg" xmlns:xlink="http://www.w3.org/1999/xlink">
    <!-- Generator: Sketch 61.2 (89653) - https://sketch.com -->
    <title>logo_eyeic</title>
    <desc>Created with Sketch.</desc>
    <g id="03-what-we-do-(SRC)" stroke="none" stroke-width="1" fill="none" fill-rule="evenodd">
        <g id="Group" fill="#FFFFFF">
            <path d="M90.0968796,101.557118 C93.7352133,108.158524 98.8537044,113.829635 105.00504,118.123141 L105.00504,118.123141 L96.528899,139.666667 C89.7985376,135.681899 83.7765384,130.62711 78.6971566,124.736555 L78.6971566,124.736555 Z M132.975199,6.33333333 C148.989178,6.33333333 163.77597,11.5875428 175.705704,20.4660901 L175.705712,20.4660958 L151.157453,32.5390102 C145.536468,30.2876102 139.400475,29.0490469 132.975199,29.0490469 C105.954031,29.0490469 84.0490469,50.9540315 84.0490469,77.9751993 C84.0490469,84.4004745 85.2876102,90.5364678 87.5390102,96.1574526 L87.5390102,96.1574526 L75.4660901,120.705704 C66.5875428,108.77597 61.3333333,93.9891779 61.3333333,77.9751993 C61.3333333,38.4084893 93.4084893,6.33333333 132.975199,6.33333333 Z M132.975199,36.0384973 C156.1362,36.0384973 174.911901,54.8141983 174.911901,77.9751993 C174.911901,101.1362 156.1362,119.911901 132.975199,119.911901 C109.814198,119.911901 91.0384973,101.1362 91.0384973,77.9751993 C91.0384973,76.9843127 91.0728633,76.0014527 91.1404685,75.0277463 C93.8841542,75.8093773 96.780864,76.2278367 99.7753102,76.2278367 C117.146061,76.2278367 131.227837,62.1460609 131.227837,44.7753102 C131.227837,41.780864 130.809377,38.8841542 130.027746,36.1404685 C131.001453,36.0728633 131.984313,36.0384973 132.975199,36.0384973 Z M179.736555,23.6971566 C185.62711,28.7765384 190.681899,34.7985376 194.666667,41.528899 L194.666667,41.528899 L173.123141,50.0050404 C168.829635,43.8537044 163.158524,38.7352133 156.557118,35.0968796 L156.557118,35.0968796 Z" id="Combined-Shape"></path>
        </g>
    </g>
</svg>