<svg height="48" viewBox="0 0 256 48" width="256" xmlns="http://www.w3.org/2000/svg" xmlns:xlink="http://www.w3.org/1999/xlink"><filter id="a" height="162.9%" width="123.6%" x="-11.8%" y="-31.4%"><feOffset dx="0" dy="0" in="SourceAlpha" result="shadowOffsetOuter1"/><feGaussianBlur in="shadowOffsetOuter1" result="shadowBlurOuter1" stdDeviation="17"/><feColorMatrix in="shadowBlurOuter1" result="shadowMatrixOuter1" type="matrix" values="0 0 0 0 0   0 0 0 0 0   0 0 0 0 0  0 0 0 0.17 0"/><feMerge><feMergeNode in="shadowMatrixOuter1"/><feMergeNode in="SourceGraphic"/></feMerge></filter><g fill="#fff" filter="url(#a)" transform="translate(-152 -59)"><path d="m135 1c1.656854 0 3 1.34314575 3 3v5c3.313708 0 6 2.6862915 6 6v7h2c1.104569 0 2 .8954305 2 2s-.895431 2-2 2h-2v7c0 3.2383969-2.565575 5.8775718-5.775062 5.9958615l-.224938.0041385v5c0 1.6568542-1.343146 3-3 3h-12c-1.656854 0-3-1.3431458-3-3v-5c-3.313708 0-6-2.6862915-6-6v-18c0-3.3137085 2.686292-6 6-6v-5c0-1.65685425 1.343146-3 3-3zm-1 38h-10v4h10zm4-26h-18c-1.104569 0-2 .8954305-2 2v18c0 1.1045695.895431 2 2 2h18c1.104569 0 2-.8954305 2-2v-18c0-1.1045695-.895431-2-2-2zm-4-8h-10v4h10z" transform="translate(152 59)"/></g></svg>