<?xml version="1.0" encoding="UTF-8"?>
<svg width="256px" height="86px" viewBox="0 0 256 86" version="1.1" xmlns="http://www.w3.org/2000/svg" xmlns:xlink="http://www.w3.org/1999/xlink">
    <!-- Generator: Sketch 61.2 (89653) - https://sketch.com -->
    <title>logo_thnks</title>
    <desc>Created with Sketch.</desc>
    <g id="03-what-we-do-(SRC)" stroke="none" stroke-width="1" fill="none" fill-rule="evenodd">
        <g id="Group" fill="#FFFFFF">
            <path d="M109.606815,34.1939847 C109.682276,33.4330423 109.790975,32.433303 109.903268,31.3997045 C110.294946,27.8257702 110.565347,25.2257353 110.498869,24.3115352 C110.373101,22.5758025 109.13249,21.3363752 107.338498,21.1546045 C105.734057,20.982635 103.771178,21.7382312 103.282479,23.4445599 L103.282479,23.4436688 C102.267351,26.9864169 101.198323,32.7059592 100.803052,34.8907727 C98.286793,35.2819363 90.9599065,36.4242409 86.2489952,37.1949846 L86.9820432,29.2603337 C87.091641,28.0752595 86.53916,26.9284998 85.5411008,26.2673531 C84.5385499,25.6044244 83.2521225,25.5384879 82.1866876,26.0971658 C80.1384653,27.1699698 78.9903828,29.0660885 78.6777594,31.8924459 C78.5816366,32.7656584 78.2007392,35.3683665 77.7192272,38.6669715 C76.4579535,47.2966283 74.5516694,60.3368996 74.4339864,64.5773267 L74.4169179,65.041555 C74.3702041,66.2257382 74.3172018,67.5667432 74.9532288,68.6689513 C75.1796112,69.061897 75.4751661,69.4325668 75.8560636,69.8059097 C76.7553051,70.6844685 78.0480208,71.101472 79.3074979,70.9081178 C80.5274478,70.726347 81.554254,70.0215397 82.1238036,68.9754667 C82.3106589,68.634201 82.4319353,68.2840249 82.4840392,67.937413 C82.8182228,65.6902272 84.7837976,49.1063168 85.2724962,44.9754868 C87.7258713,44.5103674 94.6700636,43.2005486 99.3674998,42.4289138 C98.9533636,46.0572011 98.4637666,49.9465611 97.9885431,53.723651 C97.4441472,58.0522904 96.880886,62.5270593 96.4344095,66.5839336 C96.2421641,68.3205573 97.2366299,69.9012503 98.9093448,70.5169542 C99.3692965,70.6853595 99.8391299,70.7637704 100.298183,70.7566422 C101.451656,70.7370394 102.535956,70.1783616 103.225884,69.1812954 C104.054156,67.9837468 104.344321,66.5179971 104.534769,65.1119467 L105.304649,59.3621092 C105.915523,54.7848716 106.524599,50.2085249 107.19117,45.6045562 C107.593628,42.1330908 107.593628,42.1330908 109.464876,41.5592654 L110.067665,41.3739305 C111.715226,40.8544581 112.770779,38.9013132 112.42312,37.0203421 C112.20662,35.8566527 111.343312,34.5700007 109.606815,34.1939847 M218.810303,11.167904 C212.61982,5.35569431 201.941216,7.14934419 197.541131,14.2294942 C189.998642,26.3653668 203.531283,35.1072938 206.859644,45.5600046 C215.992201,74.2459283 167.736801,78.9140513 153.843027,62.0245165 C150.692537,58.1948557 145.245883,63.6542163 148.369422,67.4526909 C161.481638,83.3914933 189.121859,83.3611982 204.957852,71.7831124 C214.009557,65.1654087 217.559809,55.1341566 214.572818,44.4078986 C212.947716,38.5743041 209.839449,34.2964535 206.320638,29.5009127 C203.698375,25.9278695 201.182116,20.7384919 205.351326,17.0496144 C207.35014,15.2818045 211.001905,14.4041367 213.336698,16.5960785 C216.952529,19.9926971 222.436016,14.573433 218.810303,11.167904 M152.5018,21.2891505 C152.584448,19.7298423 152.253858,18.567935 151.488469,17.7348189 C150.780575,16.9631842 149.741192,16.5443985 148.402661,16.4918276 C146.053493,16.396487 145.26385,19.4366924 145.161439,20.6164204 L144.944938,23.098839 C144.093309,32.9028776 143.576762,38.8032996 142.018136,47.9337171 C140.640976,45.8362249 139.466842,43.909811 138.334031,42.0359681 C136.877817,39.6319605 135.373092,37.1459778 133.436264,34.3222935 C131.713242,31.8069067 130.275893,29.8599991 128.914005,28.193767 L128.804407,28.060112 C127.595237,26.5729775 125.911742,24.5271652 122.447731,24.9691177 C119.750007,25.3023641 119.034926,28.1287215 118.608213,29.8172295 L118.53904,30.0836484 C117.677529,33.4330423 116.98311,37.1923115 116.353372,41.9156787 C115.644579,47.2324739 115.02023,52.6089684 114.417442,57.8090383 L113.912573,62.145697 C113.7895,63.189988 114.113802,64.2431893 114.801035,65.0353178 C115.460418,65.7953691 116.37044,66.2328665 117.364906,66.2658347 C117.549066,66.2720719 117.723345,66.2702899 117.892233,66.2613795 C120.924141,66.1036666 121.419128,63.6034274 121.691326,62.2267811 C121.985983,60.7396466 122.189008,59.1063827 122.385746,57.5283629 C122.465698,56.8850369 122.544752,56.2515122 122.6274,55.6447186 C122.965177,53.1721014 123.344278,50.3136668 123.736854,47.3563275 C124.247113,43.5034999 124.77983,39.4804848 125.274817,35.9279354 C126.560346,37.8703878 128.365117,40.7127838 129.931828,43.1809458 C131.939625,46.3441138 134.016594,49.6159878 135.433281,51.711698 C135.772855,52.2151317 136.089072,52.7720275 136.412475,53.3360515 C137.82467,55.8015405 139.57105,58.8435279 143.57227,58.3516776 C144.291843,58.256337 144.923378,57.9239816 145.491131,57.4855933 L145.492927,57.4900484 C149.047671,55.5288843 149.511216,50.8028441 149.804076,48.8015834 C150.460765,44.3134491 152.006813,30.5362933 152.5018,21.2891505 M165.201677,55.6946165 C165.528674,52.8602398 165.81255,50.0187348 166.08385,47.1763388 C173.752107,53.4991106 182.055492,56.9474092 192.832915,55.7703543 C198.174463,55.1867275 198.234652,46.805669 192.832915,47.395533 C184.012982,48.3587399 177.712003,45.8700841 171.56015,40.8125795 C178.613042,33.7805453 184.471137,25.3665185 191.126063,18.0333151 C194.753572,14.037031 188.801151,8.09562148 185.156573,12.1115082 C179.090062,18.7942574 173.673951,26.3618026 167.425076,32.9768333 C167.9542,27.7054807 168.562379,22.4439295 169.41311,17.2135645 C170.271926,11.9413209 162.137429,9.67185926 161.272324,14.9868725 C159.075875,28.4762245 158.323064,42.1313087 156.75815,55.6946165 C156.141887,61.0399248 164.589905,60.9971552 165.201677,55.6946165 M89.0338589,16.7840865 C98.2230107,15.0991426 107.725684,13.3580637 121.793737,11.6793571 C123.808721,11.4396692 124.691792,10.0166891 124.674966,8.71221647 C124.653164,7.0825167 123.24007,5.26659098 120.911565,5.05096094 C118.781593,4.8567157 115.872758,5.25768065 113.535269,5.58201675 C112.899242,5.67022903 112.299149,5.75398616 111.760143,5.81992262 C103.079454,6.86866873 95.3447193,8.16244897 87.1563217,9.53196704 C83.2709877,10.1815303 79.3371432,10.8408949 75.2371052,11.4806567 C71.1415589,12.1204186 65.6895145,13.2101522 61.3091934,14.0869289 C58.6024856,14.6277861 56.2649968,15.0946875 55.0351651,15.296952 C47.6588697,16.5051931 42.1753833,17.5851253 34.8008846,19.2807616 C34.7676459,19.2878898 31.4276062,20.1147687 30.6164023,21.4816137 C29.9417467,22.6185721 29.8150803,23.9863081 30.2651502,25.2337546 C30.6918632,26.4161557 31.6045798,27.336593 32.7670358,27.7598338 C33.3258052,27.9612073 33.8369624,28.0226886 34.3220677,27.9371494 C37.158137,27.4666838 39.9663576,26.7271263 42.6820488,26.0116266 C44.0457337,25.6507581 45.4094185,25.2916717 46.7793918,24.9655536 C49.6747517,24.2741118 52.5799933,23.6218755 55.7214992,22.9152861 L58.7022017,22.2434471 L57.5262706,32.8021908 C56.4033417,42.8423532 55.3450935,52.3265109 54.3596111,61.79463 C53.9095411,66.112577 53.7774847,69.8433331 53.95356,73.2025284 C54.0460893,74.9569728 55.917338,77.5739374 57.6349701,77.7459068 C57.7355845,77.7565992 57.8361989,77.7601633 57.9377117,77.7588188 C59.7451781,77.7289772 61.7673484,75.9183976 62.4321223,74.5765016 C63.2630897,72.896904 63.742805,66.1099039 63.7068712,64.6441542 C63.6655474,63.0046531 65.5691365,39.7353203 67.4835057,27.6742946 C67.905727,25.0145604 68.3405251,21.972573 68.5453473,20.5201888 C70.0401902,20.203872 73.2436818,19.5400523 75.9620681,19.0954267 C80.5714667,18.3362664 84.8736319,17.547702 89.0338589,16.7840865" id="Logo_02"></path>
        </g>
    </g>
</svg>