<svg height="130" viewBox="0 0 200 130" width="200" xmlns="http://www.w3.org/2000/svg"><path d="m136.251662 59.4926027c-.783298 3.8207278-2.282388 7.3355303-4.497316 10.5445114-2.214927 3.2089822-4.927094 5.7471518-8.136578 7.6145865-3.209484 1.8674336-6.574836 2.8011373-10.096155 2.8011373-2.060091 0-3.843933-.354163-5.351578-1.0625007l-.263287.9337131-1.058255 3.0587126-2.923189 7.5984876 5.590645.7727279-.860232 2.0928039h-19.2593607l.8602313-2.0928039 3.8953095-.7727279 15.6235219-38.7007715-3.392212-.8049245.827226-1.9318186h12.396418l-1.126499 4.443183c3.711608-3.4987551 7.268132-5.2481075 10.669678-5.2481075 2.802682 0 4.856355.9659004 6.161078 2.8977284 1.304724 1.931828 1.618239 4.5504897.940554 7.8560629zm-9.740458 1.416668c.462059-2.2538007.460897-4.0299824-.003484-5.3286006-.46438-1.2986183-1.295422-1.9479174-2.493149-1.9479174-1.62891 0-3.933694 1.4273848-6.914422 4.2821987l-7.171538 17.8049306c.469295.5151537 1.07877.9015134 1.828441 1.1590907.749671.2575774 1.423928.386364 2.022792.386364 1.724727 0 3.466809-.7566217 5.226298-2.269887 1.75949-1.5132654 3.30937-3.5523875 4.649691-6.1174263 1.34032-2.5650388 2.292101-5.2212634 2.855371-7.9687527zm55.358383-4.443184c.426855-2.0820818-.222074-3.123107-1.946801-3.123107-.838409 0-1.914529.429289-3.228392 1.2878794-1.313863.8585905-2.556341 1.9532763-3.72747 3.2840923-1.17113 1.3308149-1.997471 2.586485-2.479046 3.7670461l-7.273479 18.1269002h-9.593749l7.420879-18.3200822c1.037463-2.4899119 1.644197-4.1641384 1.820219-5.0227288.426853-2.0820818-.246028-3.123107-2.018665-3.123107-1.149819 0-2.601637.7136925-4.355502 2.1410994-1.753864 1.4274069-3.270982 3.1606604-4.551397 5.199812l-7.729624 19.1250066h-9.557818l10.921955-27.3352368-3.032897-.8049245.902764-2.1250005h11.78558l-1.216728 5.4090928c2.155981-2.1035469 4.308612-3.6650846 6.457957-4.6846604 2.149344-1.0195769 4.42171-1.5293569 6.817165-1.5293569 2.131955 0 3.687247.5634418 4.665923 1.6903411.978675 1.1269004 1.275361 2.6884381.890064 4.6846615 4.248901-4.2500231 8.732806-6.3750026 13.451852-6.3750026 2.108001 0 3.662681.5956385 4.664087 1.7869321 1.001407 1.1912947 1.282077 2.8601549.842022 5.0066311-.16282.7941961-.656862 2.2108494-1.482142 4.250001l-6.925127 17.1287938 4.009652.7727278-.902764 2.1250005h-13.869614l7.420877-18.3200822c1.037464-2.4899119 1.644198-4.1641384 1.820219-5.0227288zm-76.147424-8.2265361c-1.039876 5.072245-3.030008 9.7383547-5.9704574 13.9984711-2.9404489 4.2601154-6.541011 7.6296876-10.8017944 10.1088186-4.2607835 2.479131-8.7284888 3.718678-13.4032503 3.718678-2.7348947 0-5.1030515-.4701731-7.1045416-1.4105332l-.3495283 1.2395597-1.4048968 4.0606251-3.8807087 10.087447 7.4219151 1.025842-1.1420084 2.7783234h-25.5679565l1.1420084-2.7783234 5.1712574-1.025842 20.7411624-51.3775928-4.5033661-1.0685852 1.0981937-2.5646056h16.4569869l-1.495495 5.8985926c4.927382-4.6448087 9.6488811-6.9671778 14.1646376-6.9671778 3.720728 0 6.447101 1.2822892 8.1792 3.8469075 1.732099 2.5646182 2.148309 6.0410482 1.248642 10.429395zm-12.9310416 1.8807106c.6134093-2.9920547.6118671-5.3500427-.0046254-7.0740366-.6164925-1.7239928-1.7197507-2.5859761-3.3098059-2.5859761-2.1624741 0-5.2222133 1.894939-9.1793088 5.6848749l-9.5206467 23.6371123c.6230185.6838982 1.4321321 1.1968134 2.4273651 1.5387625.9952329.3419491 1.8903497.5129216 2.6853777.5129216 2.2896786 0 4.6023974-1.0044611 6.9382244-3.0134115 2.335827-2.0089505 4.3933871-4.7160076 6.1727431-8.1212502 1.779355-3.4052426 3.0429013-6.9315398 3.7906765-10.5789969zm20.9957596-4.9973515c-2.080769-4.1387968-4.795272-8.0753676-8.143811-11.6610828-17.7432466-18.9999961-46.5695204-20.953988-64.3852834-4.3643631-17.8157631 16.5896247-17.8745487 45.4407132-.1313014 64.4407089 17.7432474 18.9999963 46.5695206 20.9539883 64.3852848 4.3643635 3.980478-3.7065292 7.074555-8.0251333 9.281728-12.7091934 6.368716.052806 10.98474-2.0317981 13.974889-4.0811639-.076582 11.4533729-3.917882 21.8010241-11.758929 29.1024251-18.8432734 17.546419-53.650201 10.855762-77.7434469-14.9440011-24.093246-25.799763-28.3491887-60.9387866-9.5059141-78.4852064 18.8432746-17.54641966 53.6502013-10.85576298 77.743447 14.9440001 3.974401 4.2559054 7.408998 8.7659472 10.289151 13.4092324-1.358141-.0054389-2.823313-.011231-4.005814-.0157193z" fill="#4780fb"/></svg>