<svg height="48" viewBox="0 0 256 48" width="256" xmlns="http://www.w3.org/2000/svg" xmlns:xlink="http://www.w3.org/1999/xlink"><filter id="a" height="162.9%" width="123.6%" x="-11.8%" y="-31.4%"><feOffset dx="0" dy="0" in="SourceAlpha" result="shadowOffsetOuter1"/><feGaussianBlur in="shadowOffsetOuter1" result="shadowBlurOuter1" stdDeviation="17"/><feColorMatrix in="shadowBlurOuter1" result="shadowMatrixOuter1" type="matrix" values="0 0 0 0 0   0 0 0 0 0   0 0 0 0 0  0 0 0 0.17 0"/><feMerge><feMergeNode in="shadowMatrixOuter1"/><feMergeNode in="SourceGraphic"/></feMerge></filter><g fill="#fff" fill-rule="evenodd" filter="url(#a)" transform="translate(-152 -60)"><path d="m125 11c1 0 2 1.0715616 2 2v12s9.38282.1609863 12 1 4.107048 3.363726 4 6-.488597 6.5434521-1 9-2.391024 4-5 4c0 0-.003724 0-.011047 0h-12.988953c-.899741 0-1.488597-.2872329-2-1l-5.761098-10.3543014c-.743859-1.0310137-.757742-2.9664718.261098-3.6456986 1.5-1 3-.5 4 1.5s2.5 4 2.5 4v-22.5c0-1.4518356 1-2 2-2zm0-9c6.525457 0 11.834393 5.20854437 11.9962 11.6950252l.0038.3049748v5c0 1.1045695-.895431 2-2 2-1.054362 0-1.918165-.8158778-1.994514-1.8507377l-.005486-.1492623v-5c0-4.418278-3.581722-8-8-8-4.334914 0-7.864543 3.44783777-7.996193 7.7508207l-.003807.2491793v5c0 1.1045695-.895431 2-2 2-1.054362 0-1.918165-.8158778-1.994514-1.8507377l-.005486-.1492623v-5c0-6.627417 5.372583-12 12-12z" transform="translate(152 60)"/></g></svg>