<svg height="48" viewBox="0 0 256 48" width="256" xmlns="http://www.w3.org/2000/svg" xmlns:xlink="http://www.w3.org/1999/xlink"><filter id="a" height="162.9%" width="123.6%" x="-11.8%" y="-31.4%"><feOffset dx="0" dy="0" in="SourceAlpha" result="shadowOffsetOuter1"/><feGaussianBlur in="shadowOffsetOuter1" result="shadowBlurOuter1" stdDeviation="17"/><feColorMatrix in="shadowBlurOuter1" result="shadowMatrixOuter1" type="matrix" values="0 0 0 0 0   0 0 0 0 0   0 0 0 0 0  0 0 0 0.17 0"/><feMerge><feMergeNode in="shadowMatrixOuter1"/><feMergeNode in="SourceGraphic"/></feMerge></filter><g fill="none" fill-rule="evenodd" filter="url(#a)" transform="translate(-152 -69)"><g transform="translate(152 69)"><rect height="27" rx="4" stroke="#fff" stroke-width="4" width="36" x="110" y="14"/><path d="m117.585786 3.58578644c.739941-.73994077 1.915425-.77888502 2.701213-.11683275l.127215.11683275 7.585786 7.58521356 7.585786-7.58521356c.739941-.73994077 1.915425-.77888502 2.701213-.11683275l.127215.11683275c.73994.73994076.778885 1.91542492.116832 2.70121235l-.116832.12721477-9 9.00000004c-.739941.7399407-1.915425.778885-2.701213.1168327l-.127215-.1168327-9-9.00000004c-.781048-.78104858-.781048-2.04737854 0-2.82842712z" fill="#fff" fill-rule="nonzero"/></g></g></svg>