<svg xmlns="http://www.w3.org/2000/svg" viewBox="0 0 256 59" width="256" height="59">
	<style>
		tspan { white-space:pre }
		.shp0 { fill: #ffffff } 
	</style>
	<path fill-rule="evenodd" class="shp0" d="M53.11 50.61L69.1 34.65L85.09 50.61L77.12 50.61L77.12 58.59L60.7 58.59L60.7 50.61L53.11 50.61L53.11 50.61ZM47.99 20.69L47.99 13.11L63.98 29.07L47.99 45.04L47.99 37.08L40 37.08L40 20.69L47.99 20.69ZM77.5 0L77.5 7.97L85.09 7.97L69.1 23.94L53.11 7.97L61.08 7.97L61.08 0L77.5 0ZM118.26 20.39C119.41 19.28 120.93 18.73 122.82 18.73C124.71 18.73 126.42 19.46 128.53 21.52L126.72 23.4C125.16 21.95 123.74 21.23 122.44 21.23C121.62 21.23 120.64 21.78 120.09 22.29C119.53 22.81 119.25 23.44 119.25 24.19C119.25 24.94 119.56 25.9 120.19 26.47C120.81 27.03 122.2 27.73 123.79 28.56C125.38 29.4 126.6 30.61 127.46 31.61C128.32 32.61 128.45 33.54 128.45 35C128.45 36.84 128.11 37.81 126.82 39.08C125.54 40.34 123.96 40.98 122.09 40.98C119.47 40.98 117.58 40.16 115.84 37.95L117.61 36.24C119.03 37.9 120.49 38.44 121.97 38.44C122.97 38.44 124.13 38.11 124.84 37.45C125.55 36.79 125.91 35.72 125.91 34.84C125.91 33.96 125.29 32.92 124.64 32.33C124 31.74 122.89 31.04 121.31 30.25C119.74 29.46 118.55 28.58 117.74 27.62C116.94 26.66 116.83 25.39 116.83 23.82C116.83 22.25 117.11 21.5 118.26 20.39ZM81.2 30.22C81.2 24.04 85.92 18.73 92.12 18.73C95.83 18.73 99.02 20.64 100.98 23.5L100.98 19.61L103.64 19.61L103.64 40.84L100.98 40.84L100.98 36.85C99.02 39.62 95.83 41.42 92.12 41.42C85.92 41.42 81.2 36.41 81.2 30.22ZM92.42 39.07C97.15 39.07 101.27 34.94 101.27 30.22C101.27 25.5 97.15 21.38 92.42 21.38C87.69 21.38 83.85 25.5 83.85 30.22C83.85 34.94 87.69 39.07 92.42 39.07ZM133.63 11.24L136.29 11.24L136.29 41.01L133.63 41.01L133.63 11.24ZM199.82 12.18L199.82 41.28L197.27 41.28L197.27 14.78L192.62 14.78L194.14 12.18L199.82 12.18ZM214.8 12.18L214.8 41.28L212.25 41.28L212.25 14.78L207.6 14.78L209.12 12.18L214.8 12.18ZM184.42 11.24L184.94 11.24L184.94 31.38L188.51 31.38L188.51 33.89L184.94 33.89L184.94 41L182.29 41L182.29 33.89L168.27 33.89L184.42 11.24ZM182.34 19.05L173.67 31.37L182.29 31.37L182.34 19.05ZM110.59 11.24C111.07 11.27 111.51 11.46 111.92 11.8C112.32 12.14 112.53 12.63 112.53 13.27C112.53 13.92 112.32 14.41 111.89 14.75C111.47 15.09 111 15.27 110.49 15.31L110.16 15.31C110.14 15.3 110.13 15.3 110.11 15.3C110.1 15.3 110.08 15.29 110.07 15.29C110.05 15.29 110.04 15.28 110.02 15.27C110.01 15.27 109.99 15.26 109.98 15.25C109.57 15.19 109.2 14.98 108.86 14.64C108.52 14.31 108.35 13.85 108.35 13.27C108.35 12.63 108.56 12.14 108.96 11.8C109.37 11.46 109.81 11.27 110.29 11.24L110.59 11.24ZM109.29 19.67L111.79 19.67L111.79 40.89L109.29 40.89L109.29 19.67ZM142.06 30.22C142.06 23.88 146.92 18.73 153.28 18.73C159.54 18.73 164.35 24 164.49 30.22L144.79 30.22C144.79 35.03 148.46 38.92 153.28 38.92C156.77 38.92 159.82 36.83 161.23 33.84C161.29 33.72 162.52 34.4 163.62 34.99C161.94 39.01 158.03 41.72 153.28 41.72C146.92 41.72 142.06 36.57 142.06 30.22L142.06 30.22ZM161.34 28.15C160.54 24.29 157.47 21.38 153.35 21.38C149.22 21.38 145.93 24.25 145.08 28.1C146.88 28.15 159.82 28.15 161.34 28.15Z" />
</svg>