<svg xmlns="http://www.w3.org/2000/svg" viewBox="0 0 230 90" width="230" height="90">
	<style>
		tspan { white-space:pre }
		.shp0 { fill: #ffffff } 
	</style>
	<g id="03-what-we-do-(SRC)">
		<g id="Group-2">
			<path id="Shape" fill-rule="evenodd" class="shp0" d="M78.36 75.18C83.31 75.18 85.08 79.17 85.08 82.59C85.08 86 83.31 90 78.36 90C73.39 90 71.62 86 71.62 82.59C71.62 79.17 73.39 75.18 78.36 75.18ZM78.36 88.59C81.25 88.59 83.2 86.17 83.2 82.59C83.2 79 81.25 76.59 78.36 76.59C75.44 76.59 73.49 79 73.49 82.59C73.49 86.17 75.44 88.59 78.36 88.59ZM88.85 77.78C89.65 76.02 91.24 75.12 93.59 75.12L93.79 75.12L93.7 76.78L93.7 76.83L93.16 76.81C89.69 76.81 88.96 79.92 88.95 82.53L88.96 82.62L88.96 89.61L87.26 89.61L87.26 75.46L88.85 75.46L88.85 77.78ZM120.41 79.2C120.41 81.49 127.04 80.04 127.04 85.23C127.04 88.59 124 89.93 120.91 89.93C119.45 89.93 117.97 89.68 116.58 89.32L116.8 86.24C118 86.82 119.26 87.19 120.56 87.19C121.53 87.19 123.07 86.82 123.07 85.43C123.07 82.6 116.43 84.54 116.43 79.33C116.43 76.24 119.19 74.86 122.18 74.86C123.98 74.86 125.15 75.15 126.34 75.39L126.08 78.22C124.91 77.83 124.07 77.61 122.66 77.61C121.63 77.61 120.41 77.97 120.41 79.2ZM144.17 89.61L144.17 75.22L147.32 75.22L147.32 89.61L144.17 89.61ZM166.07 79.2C166.07 81.49 172.7 80.04 172.7 85.23C172.7 88.59 169.66 89.93 166.55 89.93C165.1 89.93 163.63 89.68 162.22 89.32L162.46 86.24C163.65 86.82 164.9 87.19 166.22 87.19C167.18 87.19 168.71 86.82 168.71 85.43C168.71 82.6 162.08 84.54 162.08 79.33C162.08 76.24 164.85 74.86 167.84 74.86C169.63 74.86 170.79 75.15 171.99 75.39L171.74 78.22C170.57 77.83 169.71 77.61 168.32 77.61C167.29 77.61 166.07 77.97 166.07 79.2ZM141.8 75.22L136.39 81.67L142.48 89.61L137.64 89.61L132.74 82.62L132.69 82.62L132.69 89.61L128.88 89.61L128.88 68.65L132.69 67.47L132.69 80.97L132.74 80.97L137.3 75.22L141.8 75.22ZM109.69 68.77L111.31 68.27L111.39 68.25L111.39 89.61L109.69 89.61L109.69 87.42C108.71 89.14 107.23 89.95 105.06 89.95C101.41 89.95 99.13 87.1 99.13 82.54C99.13 79.19 100.16 75.19 105.06 75.12C108.02 75.09 109.34 76.91 109.69 77.52L109.69 68.77ZM105.34 88.53C108.35 88.53 109.69 85.53 109.69 82.54C109.69 79.55 108.35 76.54 105.34 76.54C101.42 76.54 101 80.73 101 82.54C101 84.34 101.42 88.53 105.34 88.53ZM95.56 68.77L97.18 68.27L97.25 68.25L97.25 89.61L95.56 89.61L95.56 68.77ZM150.12 89.61L150.12 68.65L153.93 67.47L153.93 89.61L150.12 89.61ZM156.13 89.61L156.13 68.65L159.94 67.47L159.94 89.61L156.13 89.61ZM145.83 67.7C147 67.7 147.95 68.66 147.95 69.85C147.95 71.04 147 71.99 145.83 71.99C144.66 71.99 143.7 71.04 143.7 69.85C143.7 68.66 144.66 67.7 145.83 67.7ZM65.9 87.79C65.93 87.7 69.92 75.46 69.92 75.46L71.61 75.46L66.86 89.61L64.77 89.61C64.77 89.61 60.83 77.36 60.82 77.28L60.69 77.28C60.66 77.36 56.72 89.61 56.72 89.61L54.64 89.61L54.63 89.58C54.58 89.45 50.1 75.8 50.03 75.53L50 75.46L51.86 75.46C51.86 75.46 55.64 87.7 55.67 87.79L55.8 87.79C55.82 87.7 59.84 75.46 59.84 75.46L61.93 75.46C61.93 75.46 65.76 87.7 65.77 87.79L65.9 87.79ZM178.91 45.82C179.99 48.55 180.27 51.47 179.74 54.51C179.14 57.88 177.54 61.47 174.96 65.18C174.96 65.18 174.96 65.19 174.95 65.19C174.95 65.19 174.95 65.18 174.94 65.18C174.94 65.18 174.93 65.17 174.94 65.16C177.51 61.45 179.11 57.87 179.7 54.5C180.24 51.47 179.96 48.56 178.88 45.83C178.28 44.31 177.42 42.83 176.31 41.41C177.87 43.67 178.86 46.12 179.27 48.71C179.28 48.73 179.26 48.75 179.25 48.75C179.25 48.75 179.24 48.75 179.24 48.75C179.23 48.75 179.21 48.74 179.21 48.72C179.7 51.08 179.54 52.7 179.54 52.7C179.5 57.65 176.29 62.06 176.29 62.06C173.7 66.16 170.84 67.48 170.84 67.48C176.97 62.18 178.31 57.48 178.31 57.48C180.82 50.54 177.8 45.78 177.8 45.78C182.79 58.37 170.82 66.11 170.82 66.11C167.27 68.61 164.9 69.41 164.9 69.41C177.46 61.57 176.85 52.63 176.85 52.63C176.84 49.18 175.53 47.41 175.1 46.92C176.59 49.14 181.1 58.34 163.29 69.7L165.59 65C164.19 65.79 163.42 66.02 163.42 66.02C164.66 65.28 165.5 64.59 166.05 64.07L166.32 63.51C165.72 63.9 165.42 63.95 165.42 63.95C165.79 63.72 166.13 63.48 166.46 63.23L172.34 51.25C172.22 50.89 172.07 50.53 171.9 50.19C171.82 50.07 171.74 49.94 171.65 49.81C171.52 49.64 171.39 49.47 171.25 49.3C170.42 52.4 169.02 56.36 166.7 60.41C166.69 60.44 166.67 60.45 166.64 60.45C166.63 60.45 166.62 60.44 166.61 60.44C166.58 60.42 166.57 60.38 166.59 60.35C168.92 56.26 170.32 52.29 171.15 49.18C171.04 49.04 170.92 48.91 170.79 48.77C167.52 62.07 162.46 65.24 162.46 65.24C166.09 61.03 167.84 54.82 167.84 54.82C168.81 51.7 169.07 49.02 169.11 47.24C168.98 47.14 168.85 47.04 168.71 46.94C166.61 58.42 161.38 63.82 161.38 63.82C163.26 60.55 163.47 59.31 163.47 59.31C163.08 59.85 162.59 60.7 162.4 61.03C162.78 60.25 163.42 57.5 163.42 57.5C162.82 59.39 161.14 62.05 161.14 62.05C164.23 56.32 165.52 50.39 165.91 45.18C164.73 44.55 163.4 43.93 161.93 43.35C161.51 43.18 161.08 43.02 160.63 42.86C160.66 43 160.7 43.14 160.73 43.28C160.74 43.34 162.2 49.65 161.37 56.93C161.36 56.97 161.33 56.99 161.3 56.99C161.3 56.99 161.3 56.99 161.29 56.99C161.26 56.99 161.23 56.95 161.24 56.92C162.07 49.66 160.62 43.37 160.6 43.31C160.56 43.14 160.53 42.97 160.49 42.8C160.4 42.77 160.32 42.74 160.24 42.71C160.5 43.94 160.66 44.84 160.66 44.84C161.89 51.57 161.11 56.55 161.11 56.55C160.38 63.5 159.53 65.14 159.53 65.14C160.04 63.74 160.43 59.9 160.43 59.9C161.9 51.98 160.27 44.11 160.27 44.11C160.19 43.61 160.09 43.11 159.99 42.62C159.89 42.59 159.79 42.56 159.69 42.52C160.74 48.01 160.62 53.25 160.62 53.25C160.17 61.42 159.06 63.47 159.06 63.47C159.83 51.71 157.53 43.34 157.53 43.34C157.42 42.81 157.28 42.26 157.14 41.7C156.93 41.64 156.73 41.58 156.52 41.52C157.51 46.44 157.47 50.87 157.47 50.87C157.6 59.59 156.84 62.69 156.84 62.69C156.72 58.26 156.28 56.49 156.28 56.49C156.26 57.75 156.04 59.05 156.04 59.05C156.15 57.98 155.78 54.5 155.78 54.5C155.78 55.74 155.53 62.55 155.53 62.55C155.69 54.56 154.13 46.73 152.31 40.42C149.71 39.81 146.89 39.26 143.85 38.76C144.71 39.62 145.52 40.5 146.28 41.4C149.29 45.03 151.37 49.06 152.45 53.36C152.46 53.38 152.45 53.4 152.43 53.4C152.43 53.4 152.42 53.4 152.42 53.4C152.41 53.4 152.39 53.39 152.39 53.38C151.31 49.08 149.24 45.07 146.23 41.45C145.46 40.52 144.62 39.62 143.73 38.75C143.7 38.74 143.66 38.73 143.62 38.73C144.64 39.85 145.59 41.03 146.47 42.27C147.22 43.22 147.57 43.79 147.57 43.79C152.64 50.45 154.37 62.69 154.37 62.69C150.47 48.04 147.1 46.68 147.1 46.68C151.78 54.8 152.86 63.77 152.86 63.77C152.6 62.21 151.84 60.33 151.84 60.33C151.97 60.82 151.98 61.57 151.98 61.57C151.67 60.52 151.23 59.52 151.23 59.52C151.37 60.63 151.28 61.61 151.28 61.61C148.49 49.91 141.77 44.09 141.77 44.09C134.68 36.77 121.45 33.71 121.45 33.71C123.53 33.11 123.59 30.98 123.59 30.98C123.22 29.26 125.08 28.23 125.08 28.23C131.05 30.04 135.7 32.69 139.19 35.29C139.31 35.24 139.42 35.2 139.54 35.15C138.81 34.61 138.06 34.08 137.29 33.56C131.28 29.59 125.79 27.9 125.73 27.88C125.72 27.87 125.71 27.86 125.71 27.84C125.72 27.82 125.74 27.81 125.75 27.82C125.76 27.82 125.84 27.84 125.98 27.89C126.46 28 127.66 28.31 129.3 28.94C131.28 29.69 134.32 31.06 137.53 33.34C138.31 33.88 139.05 34.46 139.78 35.05C142.24 34.05 144.32 33 145.43 31.97C146.57 30.9 147.46 29.27 147.92 28.29C147.44 27.21 147.14 26.61 147.14 26.61C138.46 12.57 131.05 10.38 131.05 10.38C131.61 7.46 131.75 5.16 133.66 4.44C138.71 2.56 137.8 0.66 137.8 0.66C145.04 6.59 150.03 15.56 150.03 15.56C152.4 19.49 154.45 24.4 156 28.62C156.11 28.66 156.23 28.69 156.35 28.73C156.03 27.78 155.7 26.82 155.35 25.84C152.36 18.25 149.15 12.8 146.53 9.14C141.88 2.61 138.08 0.14 138.05 0.12C138.02 0.1 138.01 0.06 138.03 0.03C138.05 0 138.09 -0.01 138.12 0.01C138.12 0.02 138.32 0.14 138.67 0.41C142.05 2.53 145.25 5.97 148.2 10.64C150.28 13.95 152.24 17.89 154.04 22.36C154.91 24.34 155.77 26.49 156.6 28.81C158.56 29.43 160.72 30.22 162.91 31.21C163.73 31.57 164.53 31.96 165.29 32.35C164.97 30.56 164.68 29.52 164.68 29.52C161.38 17.64 154.05 13.73 154.05 13.73C155.74 11.49 157.32 10.74 157.32 10.74C160.23 9.34 160.18 7.82 160.18 7.82C162.45 9.26 164.5 11.93 164.5 11.93C171.25 20.4 172.08 32.28 172.18 35.54C172.2 34.91 172.2 34.28 172.19 33.64C172.18 32.47 172.13 31.33 172.04 30.22C171.38 25.01 169.91 19.61 167.07 14.86C165.38 12.05 163.64 10.19 162.47 9.12C161.2 7.96 160.32 7.46 160.31 7.46C160.28 7.44 160.27 7.4 160.28 7.37C160.3 7.34 160.34 7.33 160.37 7.34C160.38 7.35 160.86 7.63 161.62 8.23C165.25 10.87 167.99 14.53 169.77 19.15C170.89 22.06 171.64 25.36 172 28.99C172.43 31.84 172.61 34.65 172.64 37.29C172.87 37.5 173.1 37.7 173.31 37.91C174.35 38.9 175.25 39.93 176.03 41.01C177.29 42.55 178.25 44.16 178.91 45.82ZM148.14 63.31C148.43 63.73 148.65 63.81 148.65 63.81C148.24 63.67 147.53 63.36 147.53 63.36C148.14 64.06 148.53 64.29 148.53 64.29C146.54 63.42 144.66 62.49 143.02 61.62C140.6 60.52 138.54 59.39 136.79 58.3C137.41 58.73 138.05 59.14 138.7 59.55C141.71 61.43 145.02 63.05 148.55 64.37C148.56 64.37 148.56 64.38 148.56 64.38C148.56 64.39 148.55 64.39 148.55 64.39C148.55 64.39 148.54 64.39 148.54 64.39C145.01 63.07 141.7 61.45 138.69 59.57C137.9 59.08 137.14 58.57 136.39 58.04C133.78 56.36 131.91 54.77 130.63 53.5C128.08 50.99 127.23 49.17 127.22 49.15C127.21 49.14 127.22 49.12 127.24 49.11C127.25 49.1 127.27 49.11 127.28 49.13C127.28 49.13 127.31 49.19 127.37 49.31C127.77 49.9 129.27 52 132.11 54.59C133.19 55.57 134.35 56.52 135.57 57.42C137.33 58.61 139.45 59.86 142.01 61.08C139.03 59.46 137.07 58.18 137.07 58.18C131.67 54.98 127.56 49.1 127.56 49.1C129.6 49.12 130.03 48.56 130.03 48.56C130.87 47.67 132.44 47.64 132.44 47.64C136.4 53.86 141.59 56.94 141.59 56.94C142.35 57.45 145.31 59.24 145.31 59.24C145.83 59.45 145.84 59.6 145.84 59.6C145.67 59.52 145.02 59.14 145.02 59.14C144.74 59 142.16 57.53 142.16 57.53C142.45 58.07 149.05 61.76 149.05 61.76C150.22 62.51 151.43 62.89 151.43 62.89C147.9 61.88 144.32 60.07 144.32 60.07C142.22 59.09 140.14 57.62 140.14 57.62C143.81 60.93 148.65 63.22 148.65 63.22C149.43 63.64 150.32 64.11 150.32 64.11C149.95 64.04 148.14 63.31 148.14 63.31ZM130.67 53.46C131.73 54.5 133.18 55.76 135.11 57.1C134.05 56.3 133.04 55.46 132.09 54.6C129.5 52.24 128.03 50.29 127.49 49.51C127.87 50.17 128.82 51.63 130.67 53.46ZM179.21 48.7C178.74 45.78 177.53 43.05 175.61 40.55C174.75 39.55 173.75 38.58 172.64 37.65C172.64 37.77 172.64 37.9 172.64 38.02C173.65 38.86 174.15 39.38 174.15 39.38C177.34 42.58 178.67 46.09 179.21 48.7ZM172.64 37.38C172.64 37.45 172.64 37.53 172.64 37.6C173.59 38.4 174.45 39.22 175.22 40.06C174.63 39.34 173.98 38.64 173.27 37.96C173.07 37.76 172.85 37.57 172.64 37.38ZM172.21 37.67C172.32 37.76 172.42 37.84 172.51 37.92C172.51 37.79 172.51 37.67 172.51 37.54C172.41 37.46 172.31 37.37 172.21 37.29C172.21 37.42 172.21 37.55 172.21 37.67ZM172.51 37.26C172.41 37.17 172.31 37.09 172.21 37C172.21 37.08 172.21 37.16 172.21 37.25C172.31 37.33 172.41 37.41 172.51 37.5C172.51 37.42 172.51 37.34 172.51 37.26ZM172.21 36.86C172.21 36.88 172.21 36.9 172.21 36.91C172.31 37 172.41 37.09 172.51 37.18C172.49 35.34 172.39 33.42 172.19 31.46C172.22 32.18 172.25 32.9 172.26 33.64C172.27 34.74 172.25 35.81 172.21 36.86ZM169.12 46.92C169.12 46.88 169.12 46.84 169.12 46.8C169.01 46.71 168.9 46.61 168.79 46.52C168.78 46.57 168.77 46.61 168.76 46.66C168.88 46.74 169 46.83 169.12 46.92ZM165.94 44.9C165.94 44.79 165.95 44.69 165.96 44.58C163.83 43.36 162.02 42.72 162.02 42.72C161.55 42.5 161.02 42.28 160.45 42.06C160.49 42.22 160.52 42.38 160.56 42.55C162.68 43.31 164.46 44.1 165.94 44.9ZM160.17 42.41C160.25 42.44 160.34 42.47 160.42 42.5C160.38 42.33 160.34 42.17 160.31 42.01C160.23 41.98 160.15 41.95 160.06 41.92C160.1 42.08 160.14 42.25 160.17 42.41ZM156.9 29.66C160.25 30.78 163.09 32.05 165.45 33.3C165.42 33.16 165.4 33.02 165.38 32.88C164.21 32.27 162.98 31.68 161.69 31.11C159.97 30.36 158.28 29.72 156.73 29.18C156.79 29.34 156.84 29.5 156.9 29.66ZM159.63 42.22C159.72 42.25 159.82 42.29 159.92 42.32C159.88 42.15 159.85 41.99 159.81 41.82C159.71 41.79 159.62 41.76 159.52 41.72C159.56 41.89 159.59 42.05 159.63 42.22ZM156.46 41.23C156.66 41.29 156.86 41.34 157.06 41.4C157.01 41.24 156.97 41.07 156.92 40.9C156.73 40.84 156.54 40.79 156.35 40.73C156.39 40.9 156.43 41.06 156.46 41.23ZM156.12 28.97C156.18 29.14 156.24 29.3 156.3 29.47C156.41 29.5 156.52 29.54 156.62 29.57C156.57 29.41 156.52 29.25 156.47 29.09C156.35 29.05 156.24 29.01 156.12 28.97ZM156.02 28.7C156.05 28.78 156.08 28.85 156.11 28.93C156.22 28.97 156.34 29.01 156.45 29.05C156.43 28.97 156.4 28.89 156.37 28.8C156.26 28.77 156.14 28.73 156.02 28.7ZM155.61 26.51C155.88 27.26 156.13 28.01 156.37 28.74C156.4 28.74 156.42 28.75 156.44 28.76C156.17 27.99 155.89 27.24 155.61 26.51ZM156.56 29.09C156.53 29 156.5 28.92 156.47 28.84C156.45 28.83 156.42 28.82 156.4 28.81C156.42 28.9 156.45 28.98 156.48 29.06C156.51 29.07 156.53 29.08 156.56 29.09ZM156.74 29.61C156.69 29.45 156.63 29.29 156.57 29.13C156.55 29.12 156.52 29.11 156.49 29.1C156.54 29.26 156.6 29.42 156.65 29.58C156.68 29.59 156.71 29.6 156.74 29.61ZM162.89 31.27C160.72 30.29 158.57 29.5 156.62 28.88C156.65 28.97 156.69 29.05 156.72 29.14C158.28 29.68 159.97 30.33 161.7 31.08C162.99 31.65 164.21 32.23 165.37 32.84C165.35 32.7 165.33 32.56 165.3 32.43C164.53 32.03 163.72 31.64 162.89 31.27ZM143.53 38.46C146.76 38.97 149.65 39.54 152.23 40.14C152.18 39.97 152.13 39.8 152.08 39.63C148.86 38.87 145.52 38.21 142.71 37.69C142.99 37.94 143.26 38.2 143.53 38.46ZM146.24 41.98C145.42 40.84 144.54 39.76 143.6 38.72C143.46 38.7 143.32 38.68 143.17 38.66C144.51 39.94 145.52 41.09 146.24 41.98ZM142.92 37.97C143.07 38.12 143.2 38.28 143.34 38.43C143.37 38.43 143.39 38.44 143.41 38.44C143.25 38.28 143.09 38.12 142.92 37.97ZM141.98 37.56C142.28 37.82 142.57 38.09 142.85 38.35C143.01 38.38 143.16 38.4 143.31 38.42C143.09 38.19 142.87 37.95 142.65 37.72C142.63 37.7 142.61 37.68 142.59 37.67C142.38 37.63 142.18 37.59 141.98 37.56ZM139.61 35.12C139.66 35.1 139.71 35.08 139.76 35.06C139.04 34.47 138.29 33.9 137.52 33.35C134.31 31.08 131.27 29.71 129.3 28.96C127.88 28.42 126.8 28.12 126.21 27.97C127.66 28.46 132.31 30.19 137.32 33.51C138.11 34.03 138.87 34.57 139.61 35.12ZM146.64 9.06C148.76 12.04 151.29 16.2 153.76 21.73C152.04 17.52 150.17 13.8 148.18 10.65C145.3 6.08 142.17 2.69 138.86 0.56C140.2 1.6 143.18 4.22 146.64 9.06ZM167.17 14.78C169.58 18.81 171.01 23.3 171.8 27.75C171.4 24.61 170.7 21.74 169.71 19.17C168.09 14.97 165.68 11.56 162.53 9.01C163.82 10.19 165.53 12.05 167.17 14.78ZM162.33 61.16C162.33 61.16 162.36 61.11 162.4 61.03C162.38 61.08 162.35 61.13 162.33 61.16Z" />
		</g>
	</g>
</svg>