<?xml version="1.0" encoding="UTF-8"?>
<svg width="256px" height="100px" viewBox="0 0 256 100" version="1.1" xmlns="http://www.w3.org/2000/svg" xmlns:xlink="http://www.w3.org/1999/xlink">
    <!-- Generator: Sketch 61.2 (89653) - https://sketch.com -->
    <title>logo_cisco</title>
    <desc>Created with Sketch.</desc>
    <g id="03-what-we-do-(SRC)" stroke="none" stroke-width="1" fill="none" fill-rule="evenodd">
        <g id="Group" fill="#FFFFFF">
            <path d="M151.838815,64.9340556 C155.347042,64.9340556 157.934324,65.7932305 158.633958,66.0071179 L158.633958,74.0626651 L158.256249,73.8583707 C157.403313,73.4156055 155.272683,72.455049 152.362566,72.455049 C147.553397,72.455049 144.202554,75.8663721 144.202554,80.4611615 C144.202554,84.9185226 147.408667,88.4702401 152.362566,88.4702401 C155.87047,88.4702401 158.31724,87.058715 158.633958,86.8771249 L158.633958,94.9330017 L157.755903,95.1803339 C156.501509,95.5198425 154.402776,95.9998023 151.838815,95.9998023 C143.457165,95.9998023 136.10939,90.1276204 136.10939,80.4611615 C136.10939,71.4989822 142.757856,64.9340556 151.838815,64.9340556 Z M74.0275501,64.9340556 C77.5357779,64.9340556 80.1233838,65.7932305 80.8369712,66.0071179 L80.8369712,74.0626651 L80.4601541,73.8583707 C79.6082625,73.4156055 77.4775832,72.455049 74.5672026,72.455049 C69.742132,72.455049 66.3990775,75.8663721 66.3990775,80.4611615 C66.3990775,84.9185226 69.5990251,88.4702401 74.5672026,88.4702401 C78.0754303,88.4702401 80.5046776,87.058715 80.8369712,86.8771249 L80.8369712,94.9330017 L80.0079899,95.1673795 C78.7600974,95.5074888 76.6369967,95.9998023 74.0275501,95.9998023 C65.6549866,95.9998023 58.3039661,90.1276204 58.3039661,80.4611615 C58.3039661,71.4989822 64.9628166,64.9340556 74.0275501,64.9340556 Z M182.093718,64.9338908 C191.174352,64.9338908 197.696261,71.8909992 197.696261,80.4609968 C197.696261,89.0431882 191.174352,95.999967 182.093718,95.999967 C172.998805,95.999967 166.491174,89.0431882 166.491174,80.4609968 C166.491174,71.8909992 172.998805,64.9338908 182.093718,64.9338908 Z M119.536867,64.922389 C123.172301,64.922389 126.584151,65.8197934 126.807086,65.8781263 L126.807086,72.2822254 L126.172246,72.1165376 C125.105022,71.8532878 122.886856,71.3706497 120.98189,71.3706497 C117.981513,71.3706497 116.361906,72.3847199 116.361906,73.8259059 C116.361906,75.6556485 118.552642,76.2897307 119.774405,76.6901517 L121.837935,77.3512583 C126.680204,78.9120762 128.886516,82.2792375 128.886516,85.9268584 C128.886516,93.4686144 122.362011,96 116.647147,96 C112.679744,96 108.96578,95.2604571 108.600062,95.178725 L108.600062,88.277313 L109.627599,88.5472636 C110.959147,88.8837192 113.26967,89.3879457 115.648644,89.3879457 C119.346707,89.3879457 121.061069,88.2918139 121.061069,86.5876354 C121.061069,85.1408633 119.728235,84.2824118 118.003239,83.6915748 L116.140918,83.0741473 C111.981733,81.7443542 108.520558,79.2713016 108.520558,74.3054224 C108.520558,68.6929374 112.663843,64.922389 119.536867,64.922389 Z M98.5320228,65.4661046 L98.5320228,95.4650508 L91.076187,95.4650508 L91.076187,65.4661046 L98.5320228,65.4661046 Z M182.093718,72.5718797 C177.664544,72.5718797 174.377628,76.1058007 174.377628,80.4609968 C174.377628,84.8224545 177.664544,88.3563756 182.093718,88.3563756 C186.506017,88.3563756 189.792932,84.8224545 189.792932,80.4609968 C189.792932,76.1058007 186.506017,72.5718797 182.093718,72.5718797 Z M87.3627096,5 C89.3162944,5 90.9323529,6.55153742 91.0537751,8.50788183 L91.0610975,8.74451284 L91.0610975,48.5852462 C91.0610975,50.6611736 89.3944378,52.3360208 87.3627096,52.3360208 C85.3935235,52.3360208 83.7768651,50.7875304 83.6554197,48.8229239 L83.6480964,48.5852462 L83.6480964,8.74451284 C83.6480964,6.67814288 85.3147561,5 87.3627096,5 Z M168.678892,5 C170.633101,5 172.235682,6.55153742 172.356067,8.50788183 L172.363326,8.74451284 L172.363326,48.5852462 C172.363326,50.6611736 170.711269,52.3360208 168.678892,52.3360208 C166.71189,52.3360208 165.111217,50.7875304 164.990998,48.8229239 L164.983749,48.5852462 L164.983749,8.74451284 C164.983749,6.67814288 166.63321,5 168.678892,5 Z M46.7000104,29.4805848 C48.6592117,29.4805848 50.2712858,31.0318176 50.3923933,32.9831578 L50.3996963,33.2191655 L50.3996963,41.0967478 C50.3996963,43.1779482 48.7375797,44.858398 46.7000104,44.858398 C44.7433053,44.858398 43.128627,43.3047277 43.0073155,41.3350351 L43,41.0967478 L43,33.2191655 C43,31.1583982 44.6650371,29.4805848 46.7000104,29.4805848 Z M67.0272226,19.1390788 C68.9820555,19.1390788 70.5981619,20.6957961 70.719586,22.6472653 L70.7269085,22.8832621 L70.7269085,41.096649 C70.7269085,43.1778493 69.0602488,44.8586287 67.0272226,44.8586287 C65.0673972,44.8586287 63.4552991,43.3046537 63.3341907,41.3349376 L63.3268876,41.096649 L63.3268876,22.8832621 C63.3268876,20.8228243 64.9890042,19.1390788 67.0272226,19.1390788 Z M107.679797,19.1390788 C109.648671,19.1390788 111.250317,20.6957961 111.370607,22.6472653 L111.377861,22.8832621 L111.377861,41.096649 C111.377861,43.1778493 109.727426,44.8586287 107.679797,44.8586287 C105.727148,44.8586287 104.109926,43.3046537 103.988413,41.3349376 L103.981085,41.096649 L103.981085,22.8832621 C103.981085,20.8228243 105.649042,19.1390788 107.679797,19.1390788 Z M128.013759,29.4805848 C129.952367,29.4805848 131.566349,31.0318176 131.687634,32.9831578 L131.694948,33.2191655 L131.694948,41.0967478 C131.694948,43.1779482 130.029911,44.858398 128.013759,44.858398 C126.044573,44.858398 124.442916,43.3047277 124.322624,41.3350351 L124.315371,41.0967478 L124.315371,33.2191655 C124.315371,31.1583982 125.965806,29.4805848 128.013759,29.4805848 Z M148.330684,19.1390788 C150.301119,19.1390788 151.904324,20.6957961 152.024733,22.6472653 L152.031993,22.8832621 L152.031993,41.096649 C152.031993,43.1778493 150.379936,44.8586287 148.330684,44.8586287 C146.3771,44.8586287 144.776942,43.3046537 144.656743,41.3349376 L144.649495,41.096649 L144.649495,22.8832621 C144.649495,20.8228243 146.298956,19.1390788 148.330684,19.1390788 Z M188.967326,19.1390788 C190.968338,19.1390788 192.57002,20.6957961 192.690266,22.6472653 L192.697515,22.8832621 L192.697515,41.096649 C192.697515,43.1778493 191.048379,44.8586287 188.967326,44.8586287 C187.013741,44.8586287 185.413884,43.3046537 185.293708,41.3349376 L185.286461,41.096649 L185.286461,22.8832621 C185.286461,20.8228243 186.935598,19.1390788 188.967326,19.1390788 Z M209.318811,29.4805848 C211.270212,29.4805848 212.872385,31.0318176 212.992742,32.9831578 L213,33.2191655 L213,41.0967478 C213,43.1779482 211.348268,44.858398 209.318811,44.858398 C207.348689,44.858398 205.745195,43.3047277 205.624764,41.3350351 L205.617502,41.0967478 L205.617502,33.2191655 C205.617502,31.1583982 207.269884,29.4805848 209.318811,29.4805848 Z" id="Shape"></path>
        </g>
    </g>
</svg>