<svg xmlns="http://www.w3.org/2000/svg" viewBox="0 0 256 86" width="256" height="86">
	<style>
		tspan { white-space:pre }
		.shp0 { fill: #ffffff } 
	</style>
	<path id="Layer" fill-rule="evenodd" class="shp0" d="M47.01 75.23L43.43 75.23L43.43 85.49C43.43 85.54 43.42 85.58 43.4 85.63C43.38 85.67 43.36 85.71 43.32 85.74C43.29 85.78 43.25 85.8 43.21 85.82C43.16 85.84 43.12 85.85 43.07 85.85L41.3 85.85C41.25 85.85 41.2 85.84 41.16 85.82C41.12 85.8 41.08 85.78 41.05 85.74C41.01 85.71 40.99 85.67 40.97 85.63C40.95 85.58 40.94 85.54 40.94 85.49L40.94 75.23L37.36 75.23C37.16 75.23 37 75.11 37 74.91L37 73.5C37 73.3 37.16 73.16 37.36 73.16L47.01 73.16C47.21 73.16 47.37 73.3 47.37 73.5L47.37 74.91C47.37 75.11 47.21 75.23 47.01 75.23L47.01 75.23ZM58.17 85.85C58.12 85.85 58.08 85.84 58.03 85.82C57.99 85.8 57.95 85.78 57.92 85.74C57.88 85.71 57.86 85.67 57.84 85.63C57.82 85.58 57.81 85.54 57.81 85.49L57.81 80.32L52.13 80.32L52.13 85.49C52.13 85.54 52.12 85.58 52.1 85.63C52.08 85.67 52.06 85.71 52.02 85.74C51.99 85.77 51.95 85.8 51.91 85.82C51.87 85.84 51.82 85.85 51.77 85.85L50 85.85C49.95 85.85 49.9 85.84 49.86 85.82C49.82 85.8 49.78 85.78 49.74 85.74C49.71 85.71 49.68 85.67 49.67 85.63C49.65 85.58 49.64 85.54 49.64 85.49L49.64 73.5C49.64 73.3 49.8 73.16 50 73.16L51.77 73.16C51.97 73.16 52.13 73.3 52.13 73.5L52.13 78.14L57.81 78.14L57.81 73.5C57.81 73.3 57.97 73.16 58.17 73.16L59.94 73.16C60.14 73.16 60.3 73.3 60.3 73.5L60.3 85.49C60.3 85.54 60.29 85.58 60.27 85.63C60.26 85.67 60.23 85.71 60.2 85.74C60.16 85.78 60.12 85.8 60.08 85.82C60.04 85.84 59.99 85.85 59.94 85.85L58.17 85.85ZM68.83 85.99C65.87 85.99 63.13 84.35 63.13 80.42L63.13 78.59C63.13 74.66 65.87 73.02 68.83 73.02C71.79 73.02 74.53 74.66 74.53 78.59L74.53 80.42C74.53 84.35 71.79 85.99 68.83 85.99ZM72.02 78.59C72.02 76.23 70.59 75.18 68.83 75.18C67.07 75.18 65.64 76.23 65.64 78.59L65.64 80.42C65.64 82.77 67.07 83.83 68.83 83.83C70.59 83.83 72.02 82.77 72.02 80.42L72.02 78.59ZM89.98 85.85L88.16 85.85C88 85.85 87.88 85.67 87.88 85.49L87.88 77.77C87.88 77.64 87.86 77.59 87.82 77.59C87.81 77.59 87.77 77.64 87.73 77.7L84.84 84.08C84.73 84.28 84.5 84.39 84.27 84.39L83.34 84.39C83.1 84.39 82.87 84.28 82.76 84.08L79.85 77.7C79.81 77.64 79.77 77.59 79.76 77.59C79.72 77.59 79.7 77.64 79.7 77.77L79.7 85.49C79.7 85.67 79.58 85.85 79.42 85.85L77.61 85.85C77.45 85.85 77.3 85.76 77.3 85.58L77.3 73.87C77.3 73.48 77.63 73.16 78.02 73.16L79.49 73.16C79.77 73.16 80.03 73.33 80.15 73.59L83.59 80.56C83.68 80.73 83.72 80.81 83.79 80.81C83.86 80.81 83.9 80.73 83.99 80.56L87.43 73.59C87.46 73.53 87.5 73.47 87.54 73.42C87.59 73.36 87.64 73.32 87.7 73.28C87.76 73.24 87.82 73.21 87.89 73.19C87.96 73.17 88.02 73.16 88.09 73.16L89.56 73.16C89.96 73.16 90.28 73.48 90.28 73.87L90.28 85.58C90.28 85.76 90.14 85.85 89.98 85.85L89.98 85.85ZM129.36 85.85L127.55 85.85C127.11 85.85 126.74 85.85 126.46 85.21L121.59 77.09C121.54 76.98 121.48 76.95 121.43 76.95C121.38 76.95 121.34 76.98 121.34 77.09L121.34 85.49C121.34 85.54 121.33 85.58 121.32 85.63C121.3 85.67 121.28 85.71 121.24 85.74C121.21 85.77 121.17 85.8 121.13 85.82C121.09 85.84 121.04 85.85 121 85.85L119.48 85.85C119.43 85.85 119.38 85.84 119.34 85.82C119.3 85.8 119.26 85.78 119.22 85.74C119.19 85.71 119.16 85.67 119.15 85.63C119.13 85.58 119.12 85.54 119.12 85.49L119.12 73.87C119.12 73.48 119.44 73.16 119.83 73.16L121.77 73.16C122.15 73.16 122.34 73.27 122.56 73.73L127.62 82.33C127.65 82.42 127.71 82.47 127.76 82.47C127.8 82.47 127.85 82.42 127.85 82.31L127.85 73.5C127.85 73.3 127.99 73.16 128.19 73.16L129.73 73.16C129.78 73.16 129.82 73.17 129.86 73.18C129.91 73.2 129.95 73.22 129.98 73.26C130.01 73.29 130.03 73.32 130.05 73.37C130.07 73.41 130.08 73.45 130.07 73.5L130.08 85.13C130.07 85.23 130.06 85.32 130.02 85.41C129.98 85.49 129.93 85.57 129.86 85.64C129.8 85.7 129.72 85.76 129.63 85.79C129.54 85.83 129.45 85.85 129.36 85.85L129.36 85.85ZM93.92 85.53C93.74 85.49 93.58 85.37 93.58 85.17L93.58 83.89C93.58 83.69 93.74 83.54 93.92 83.54L93.96 83.54C94.67 83.64 96.35 83.87 98.01 83.87C99.6 83.87 100.09 83.3 100.09 82.26C100.09 80.92 96.88 80.18 95.32 79.54C93.75 78.9 93.2 77.67 93.2 76.42C93.2 74.45 94.79 73.02 98.12 73.02C99.83 73.02 101.4 73.34 102.01 73.49C102.19 73.53 102.33 73.65 102.33 73.83L102.33 75.15C102.33 75.33 102.2 75.47 102.03 75.47L101.99 75.47C100.81 75.37 99.58 75.15 98.02 75.15C96.69 75.15 95.69 75.61 95.69 76.42C95.69 77.01 96.37 77.55 97.16 77.86C97.96 78.17 99.01 78.58 100.2 79.06C101.71 79.67 102.69 80.55 102.69 82.26C102.69 84.07 101.56 86 97.97 86C96.39 86 94.78 85.73 93.92 85.53ZM110.65 85.99C107.69 85.99 104.95 84.35 104.95 80.42L104.95 78.59C104.95 74.66 107.69 73.02 110.65 73.02C113.6 73.02 116.34 74.66 116.34 78.59L116.34 80.42C116.34 84.35 113.6 85.99 110.65 85.99L110.65 85.99ZM113.83 78.59C113.83 76.23 112.4 75.18 110.65 75.18C108.89 75.18 107.46 76.23 107.46 78.59L107.46 80.42C107.46 82.77 108.89 83.83 110.65 83.83C112.4 83.83 113.83 82.77 113.83 80.42L113.83 78.59ZM146.48 85.85C146.28 85.85 146.21 85.67 146.12 85.49L143.54 81.16L143.14 81.16C142.67 81.16 141.23 81.11 140.81 81.09L140.81 85.49C140.81 85.69 140.67 85.85 140.47 85.85L138.68 85.85C138.63 85.85 138.58 85.84 138.54 85.82C138.5 85.8 138.46 85.78 138.43 85.74C138.39 85.71 138.37 85.67 138.35 85.63C138.33 85.58 138.32 85.54 138.32 85.49L138.32 73.78C138.32 73.43 138.53 73.3 138.89 73.25C139.83 73.11 141.83 73.02 143.14 73.02C145.9 73.02 148.45 74 148.45 77.06L148.45 77.22C148.45 79.11 147.5 80.14 146.03 80.71L148.84 85.49C148.88 85.54 148.88 85.6 148.88 85.64C148.88 85.76 148.81 85.85 148.67 85.85L146.48 85.85ZM145.98 77.06C145.98 75.72 144.93 75.14 143.14 75.14C142.76 75.14 141.13 75.18 140.81 75.21L140.81 79.09C141.1 79.1 142.83 79.14 143.14 79.14C144.99 79.14 145.98 78.79 145.98 77.22L145.98 77.06ZM153.66 82.33C153.66 83.83 153.72 83.87 155.08 83.87L159.62 83.87C159.81 83.87 159.97 84.03 159.97 84.22L159.97 85.36C159.97 85.62 159.88 85.71 159.62 85.74C159.04 85.83 157.87 85.99 155.74 85.99C152.76 85.99 151.19 86.01 151.19 82.33L151.19 76.68C151.19 73 152.76 73.02 155.74 73.02C157.87 73.02 159.04 73.18 159.62 73.27C159.88 73.3 159.97 73.39 159.97 73.64L159.97 74.78C159.97 74.83 159.97 74.88 159.95 74.92C159.93 74.96 159.9 75 159.87 75.04C159.84 75.07 159.8 75.1 159.75 75.12C159.71 75.13 159.66 75.14 159.62 75.14L155.08 75.14C153.72 75.14 153.66 75.18 153.66 76.68L153.66 78.31L159.4 78.31C159.45 78.31 159.49 78.32 159.54 78.34C159.58 78.36 159.62 78.39 159.65 78.42C159.69 78.45 159.71 78.49 159.73 78.53C159.75 78.58 159.76 78.62 159.76 78.67L159.76 79.96C159.76 80.16 159.6 80.32 159.4 80.32L153.66 80.32L153.66 82.33ZM168.02 85.99C165.14 85.99 162.66 84.74 162.66 80.93L162.66 73.5C162.66 73.3 162.82 73.16 163.02 73.16L164.79 73.16C164.99 73.16 165.15 73.3 165.15 73.5L165.15 80.93C165.15 82.97 166.09 83.94 168.02 83.94C169.96 83.94 170.91 82.97 170.91 80.93L170.91 73.5C170.91 73.3 171.07 73.16 171.26 73.16L173.04 73.16C173.24 73.16 173.4 73.3 173.4 73.5L173.4 80.93C173.4 84.74 170.91 85.99 168.02 85.99L168.02 85.99ZM185.19 75.23L181.61 75.23L181.61 85.49C181.61 85.54 181.6 85.58 181.58 85.63C181.56 85.67 181.54 85.71 181.5 85.74C181.47 85.78 181.43 85.8 181.39 85.82C181.34 85.84 181.3 85.85 181.25 85.85L179.48 85.85C179.43 85.85 179.38 85.84 179.34 85.82C179.3 85.8 179.26 85.78 179.22 85.74C179.19 85.71 179.16 85.67 179.14 85.63C179.13 85.58 179.12 85.54 179.12 85.49L179.12 75.23L175.53 75.23C175.34 75.23 175.18 75.11 175.18 74.91L175.18 73.5C175.18 73.3 175.34 73.16 175.53 73.16L185.19 73.16C185.38 73.16 185.54 73.3 185.54 73.5L185.54 74.91C185.54 75.11 185.38 75.23 185.19 75.23L185.19 75.23ZM207.35 85.85C207.15 85.85 207.08 85.67 206.99 85.49L204.41 81.16L204.01 81.16C203.54 81.16 202.09 81.11 201.68 81.09L201.68 85.49C201.68 85.69 201.54 85.85 201.34 85.85L199.55 85.85C199.5 85.85 199.46 85.84 199.41 85.82C199.37 85.8 199.33 85.78 199.3 85.74C199.26 85.71 199.24 85.67 199.22 85.63C199.2 85.58 199.19 85.54 199.19 85.49L199.19 73.78C199.19 73.43 199.4 73.3 199.76 73.25C200.69 73.11 202.7 73.02 204.01 73.02C206.77 73.02 209.32 74 209.32 77.06L209.32 77.22C209.32 79.11 208.37 80.14 206.9 80.71L209.72 85.49C209.75 85.54 209.75 85.6 209.75 85.64C209.75 85.76 209.68 85.85 209.54 85.85L207.35 85.85ZM206.85 77.06C206.85 75.72 205.8 75.14 204.01 75.14C203.63 75.14 202 75.18 201.68 75.21L201.68 79.09C201.97 79.1 203.71 79.14 204.01 79.14C205.86 79.14 206.85 78.79 206.85 77.22L206.85 77.06L206.85 77.06ZM212.33 85.53C212.15 85.49 211.99 85.37 211.99 85.17L211.99 83.89C211.99 83.69 212.15 83.54 212.33 83.54L212.36 83.54C213.08 83.64 214.76 83.87 216.42 83.87C218.01 83.87 218.5 83.3 218.5 82.26C218.5 80.92 215.29 80.18 213.72 79.54C212.16 78.9 211.61 77.67 211.61 76.42C211.61 74.45 213.2 73.02 216.53 73.02C218.24 73.02 219.8 73.34 220.41 73.49C220.59 73.53 220.74 73.65 220.74 73.83L220.74 75.15C220.74 75.33 220.61 75.47 220.43 75.47L220.4 75.47C219.21 75.37 217.98 75.15 216.43 75.15C215.1 75.15 214.1 75.61 214.1 76.42C214.1 77.01 214.78 77.55 215.57 77.86C216.37 78.17 217.41 78.58 218.6 79.06C220.12 79.67 221.09 80.55 221.09 82.26C221.09 84.07 219.96 86 216.38 86C214.79 86 213.19 85.73 212.33 85.53ZM189.86 82.33C189.86 83.83 189.92 83.87 191.28 83.87L195.82 83.87C195.87 83.87 195.91 83.88 195.95 83.89C196 83.91 196.04 83.94 196.07 83.97C196.1 84.01 196.13 84.04 196.15 84.09C196.17 84.13 196.18 84.18 196.18 84.22L196.18 85.36C196.18 85.62 196.08 85.71 195.82 85.74C195.24 85.83 194.08 85.99 191.94 85.99C188.96 85.99 187.39 86.01 187.39 82.33L187.39 76.68C187.39 73 188.96 73.02 191.94 73.02C194.08 73.02 195.24 73.18 195.82 73.27C196.08 73.3 196.18 73.39 196.18 73.64L196.18 74.78C196.18 74.83 196.17 74.88 196.15 74.92C196.13 74.96 196.1 75 196.07 75.04C196.04 75.07 196 75.1 195.96 75.11C195.91 75.13 195.87 75.14 195.82 75.14L191.28 75.14C189.92 75.14 189.86 75.18 189.86 76.68L189.86 78.31L195.6 78.31C195.8 78.31 195.96 78.48 195.96 78.67L195.96 79.96C195.96 80.01 195.95 80.05 195.93 80.1C195.91 80.14 195.89 80.18 195.85 80.21C195.82 80.25 195.78 80.27 195.74 80.29C195.69 80.31 195.65 80.32 195.6 80.32L189.86 80.32L189.86 82.33ZM141.63 18.13C140.88 18.91 139.63 18.95 138.83 18.2C138.64 18.02 138.49 17.81 138.38 17.58C138.28 17.34 138.22 17.08 138.21 16.83C138.2 16.57 138.25 16.31 138.34 16.07C138.43 15.83 138.57 15.6 138.75 15.42C139.11 15.04 139.61 14.81 140.13 14.8C140.65 14.78 141.16 14.98 141.54 15.34C141.92 15.7 142.15 16.19 142.16 16.71C142.18 17.24 141.98 17.75 141.63 18.13L141.63 18.13ZM121.91 13.64C122 13.73 122.08 13.84 122.13 13.95C122.18 14.07 122.21 14.19 122.21 14.32C122.22 14.45 122.19 14.58 122.15 14.7C122.1 14.81 122.04 14.92 121.95 15.02C121.86 15.11 121.75 15.18 121.64 15.24C121.52 15.29 121.39 15.32 121.27 15.32C121.14 15.32 121.01 15.3 120.89 15.26C120.77 15.21 120.66 15.15 120.57 15.06C120.18 14.69 120.16 14.08 120.53 13.69C120.62 13.59 120.72 13.52 120.84 13.47C120.96 13.42 121.08 13.39 121.21 13.38C121.34 13.38 121.47 13.4 121.59 13.44C121.71 13.49 121.82 13.56 121.91 13.64ZM126.85 11.77C126.97 11.88 127.06 12.01 127.12 12.15C127.19 12.3 127.23 12.45 127.23 12.61C127.24 12.77 127.21 12.92 127.15 13.07C127.1 13.22 127.01 13.35 126.91 13.47C126.45 13.95 125.68 13.97 125.2 13.52C125.09 13.41 124.99 13.28 124.93 13.14C124.86 13 124.83 12.84 124.82 12.68C124.82 12.53 124.85 12.37 124.9 12.22C124.96 12.07 125.04 11.94 125.15 11.82C125.26 11.71 125.39 11.62 125.53 11.55C125.68 11.49 125.83 11.45 125.99 11.45C126.15 11.44 126.31 11.47 126.45 11.53C126.6 11.58 126.74 11.66 126.85 11.77ZM132.15 11.39C132.3 11.52 132.42 11.69 132.5 11.87C132.58 12.05 132.63 12.25 132.64 12.45C132.64 12.65 132.61 12.85 132.54 13.04C132.47 13.22 132.36 13.4 132.22 13.54C132.08 13.69 131.92 13.8 131.74 13.89C131.55 13.97 131.36 14.01 131.16 14.02C130.95 14.03 130.75 13.99 130.57 13.92C130.38 13.85 130.21 13.74 130.06 13.61C129.92 13.47 129.8 13.3 129.72 13.12C129.63 12.94 129.59 12.74 129.58 12.54C129.57 12.34 129.61 12.14 129.68 11.95C129.75 11.77 129.86 11.6 129.99 11.45C130.13 11.3 130.3 11.19 130.48 11.11C130.66 11.02 130.86 10.98 131.06 10.97C131.26 10.97 131.46 11 131.65 11.07C131.84 11.14 132.01 11.25 132.15 11.39ZM137.17 12.67C137.86 13.31 137.89 14.4 137.24 15.09C137.09 15.25 136.9 15.38 136.69 15.48C136.49 15.57 136.26 15.62 136.04 15.63C135.81 15.63 135.59 15.59 135.38 15.51C135.17 15.43 134.97 15.31 134.81 15.16C134.64 15 134.51 14.82 134.42 14.61C134.33 14.41 134.28 14.19 134.27 13.96C134.26 13.74 134.3 13.51 134.38 13.3C134.46 13.09 134.58 12.9 134.74 12.74C134.9 12.57 135.08 12.44 135.29 12.35C135.49 12.25 135.72 12.2 135.94 12.2C136.17 12.19 136.39 12.23 136.6 12.31C136.81 12.39 137.01 12.51 137.17 12.67L137.17 12.67ZM117.72 16.93C117.86 17.06 117.94 17.24 117.94 17.43C117.95 17.63 117.88 17.81 117.74 17.95C117.61 18.09 117.43 18.17 117.24 18.18C117.04 18.18 116.86 18.11 116.72 17.98C116.65 17.91 116.59 17.84 116.55 17.75C116.51 17.66 116.49 17.57 116.49 17.47C116.49 17.38 116.5 17.28 116.54 17.2C116.57 17.11 116.62 17.03 116.69 16.96C116.75 16.89 116.83 16.83 116.92 16.79C117.01 16.75 117.1 16.73 117.2 16.73C117.29 16.73 117.39 16.74 117.48 16.78C117.57 16.81 117.65 16.86 117.72 16.93L117.72 16.93ZM143.35 34.58C143.46 34.53 143.59 34.5 143.72 34.5C143.85 34.49 143.97 34.51 144.09 34.56C144.21 34.6 144.32 34.67 144.42 34.76C144.51 34.85 144.58 34.95 144.64 35.07C144.69 35.19 144.72 35.31 144.72 35.44C144.73 35.57 144.7 35.69 144.66 35.81C144.61 35.93 144.54 36.04 144.46 36.13C144.37 36.23 144.26 36.3 144.15 36.36C144.03 36.41 143.9 36.44 143.77 36.44C143.65 36.45 143.52 36.43 143.4 36.38C143.28 36.34 143.17 36.27 143.07 36.18C142.98 36.09 142.91 35.99 142.85 35.87C142.8 35.75 142.77 35.63 142.77 35.5C142.76 35.37 142.79 35.24 142.83 35.13C142.88 35.01 142.95 34.9 143.03 34.8C143.12 34.71 143.23 34.64 143.35 34.58ZM144.28 29.79C144.39 29.67 144.52 29.58 144.67 29.51C144.81 29.45 144.97 29.41 145.13 29.41C145.28 29.4 145.44 29.43 145.59 29.48C145.74 29.54 145.87 29.62 145.99 29.73C146.1 29.84 146.2 29.97 146.26 30.11C146.33 30.26 146.37 30.41 146.37 30.57C146.38 30.73 146.35 30.88 146.29 31.03C146.24 31.18 146.15 31.31 146.04 31.43C145.82 31.66 145.52 31.8 145.2 31.81C144.89 31.82 144.58 31.7 144.34 31.48C144.11 31.27 143.97 30.96 143.96 30.65C143.95 30.33 144.07 30.02 144.28 29.78L144.28 29.79ZM144.39 24.15C144.57 24.07 144.77 24.03 144.97 24.02C145.17 24.01 145.37 24.05 145.56 24.12C145.74 24.19 145.92 24.29 146.06 24.43C146.21 24.57 146.33 24.73 146.41 24.91C146.49 25.1 146.54 25.29 146.55 25.49C146.55 25.69 146.52 25.89 146.45 26.08C146.37 26.27 146.27 26.44 146.13 26.59C145.55 27.2 144.58 27.23 143.97 26.65C143.82 26.52 143.7 26.35 143.62 26.17C143.54 25.99 143.49 25.79 143.48 25.59C143.48 25.39 143.51 25.19 143.58 25C143.65 24.81 143.76 24.64 143.9 24.5C144.04 24.35 144.2 24.23 144.39 24.15ZM142.05 19.6C142.2 19.43 142.39 19.3 142.6 19.21C142.8 19.12 143.02 19.07 143.25 19.06C143.47 19.05 143.7 19.09 143.91 19.17C144.12 19.25 144.31 19.37 144.48 19.52C144.64 19.68 144.78 19.86 144.87 20.07C144.96 20.27 145.02 20.5 145.02 20.72C145.03 20.95 144.99 21.17 144.91 21.38C144.83 21.59 144.71 21.79 144.55 21.95C143.91 22.64 142.82 22.67 142.12 22.02C141.96 21.87 141.82 21.68 141.73 21.48C141.64 21.27 141.59 21.05 141.58 20.83C141.57 20.6 141.61 20.38 141.69 20.17C141.77 19.96 141.89 19.76 142.05 19.6L142.05 19.6ZM140.35 39.16C140.41 39.09 140.49 39.03 140.58 38.99C140.67 38.95 140.76 38.93 140.86 38.93C140.95 38.93 141.05 38.94 141.13 38.98C141.22 39.01 141.31 39.06 141.38 39.13C141.45 39.19 141.5 39.27 141.54 39.36C141.58 39.44 141.6 39.54 141.61 39.63C141.61 39.73 141.59 39.82 141.56 39.91C141.52 40 141.47 40.08 141.41 40.15C141.34 40.22 141.26 40.27 141.18 40.31C141.09 40.35 141 40.37 140.9 40.38C140.8 40.38 140.71 40.36 140.62 40.33C140.53 40.3 140.45 40.25 140.38 40.18C140.31 40.12 140.26 40.04 140.22 39.95C140.18 39.86 140.16 39.77 140.15 39.68C140.15 39.58 140.16 39.49 140.2 39.4C140.23 39.31 140.28 39.23 140.35 39.16L140.35 39.16ZM119.35 41.69C119.17 41.88 118.96 42.03 118.72 42.14C118.48 42.24 118.23 42.3 117.97 42.31C117.71 42.32 117.45 42.27 117.21 42.18C116.97 42.09 116.74 41.95 116.56 41.77C116.37 41.6 116.21 41.38 116.11 41.15C116 40.91 115.94 40.66 115.93 40.4C115.92 40.14 115.97 39.88 116.06 39.64C116.15 39.39 116.29 39.17 116.47 38.98C116.65 38.8 116.86 38.64 117.1 38.54C117.34 38.43 117.59 38.37 117.85 38.37C118.11 38.36 118.37 38.4 118.61 38.49C118.85 38.59 119.08 38.72 119.27 38.9C119.46 39.08 119.61 39.29 119.71 39.53C119.82 39.77 119.88 40.02 119.89 40.28C119.89 40.54 119.85 40.8 119.76 41.04C119.67 41.28 119.53 41.5 119.35 41.69ZM115.07 22.3C114.98 22.4 114.87 22.47 114.75 22.52C114.64 22.57 114.51 22.6 114.38 22.6C114.26 22.61 114.13 22.59 114.01 22.54C113.89 22.5 113.78 22.43 113.69 22.34C113.59 22.25 113.52 22.15 113.46 22.03C113.41 21.92 113.38 21.79 113.38 21.66C113.37 21.54 113.4 21.41 113.44 21.29C113.49 21.17 113.56 21.06 113.64 20.97C113.73 20.88 113.84 20.8 113.95 20.75C114.07 20.7 114.2 20.67 114.33 20.67C114.45 20.66 114.58 20.69 114.7 20.73C114.82 20.78 114.93 20.85 115.02 20.93C115.11 21.02 115.19 21.12 115.24 21.24C115.29 21.36 115.32 21.48 115.33 21.61C115.33 21.74 115.31 21.86 115.26 21.98C115.22 22.1 115.15 22.21 115.07 22.3ZM113.42 27.6C113.28 27.66 113.12 27.69 112.97 27.7C112.81 27.7 112.65 27.68 112.5 27.62C112.36 27.56 112.22 27.48 112.11 27.37C111.75 27.04 111.64 26.52 111.81 26.07C111.99 25.62 112.42 25.31 112.9 25.3C113.39 25.28 113.83 25.57 114.03 26.01C114.23 26.45 114.14 26.97 113.81 27.33C113.7 27.44 113.57 27.53 113.42 27.6ZM112.03 32.67C111.42 32.1 111.39 31.13 111.97 30.52C112.11 30.37 112.27 30.25 112.45 30.17C112.64 30.09 112.84 30.04 113.04 30.04C113.24 30.03 113.44 30.06 113.63 30.13C113.81 30.21 113.99 30.31 114.13 30.45C114.28 30.59 114.4 30.75 114.48 30.94C114.56 31.12 114.61 31.32 114.61 31.52C114.62 31.72 114.58 31.92 114.51 32.1C114.44 32.29 114.33 32.46 114.2 32.61C113.62 33.22 112.65 33.25 112.03 32.67ZM116.05 37.51C115.4 38.19 114.31 38.23 113.61 37.58C113.45 37.43 113.31 37.24 113.22 37.04C113.13 36.83 113.08 36.61 113.07 36.39C113.07 36.16 113.11 35.94 113.19 35.72C113.27 35.51 113.39 35.32 113.55 35.16C113.7 34.99 113.89 34.86 114.09 34.77C114.3 34.68 114.52 34.63 114.74 34.62C114.97 34.61 115.19 34.65 115.41 34.73C115.62 34.81 115.81 34.93 115.97 35.09C116.14 35.24 116.27 35.43 116.36 35.63C116.45 35.84 116.51 36.06 116.51 36.28C116.52 36.51 116.48 36.73 116.4 36.94C116.32 37.15 116.2 37.35 116.05 37.51ZM136.19 43.46C136.09 43.38 136.02 43.27 135.97 43.16C135.92 43.04 135.89 42.91 135.88 42.79C135.88 42.66 135.9 42.53 135.95 42.41C135.99 42.29 136.06 42.18 136.15 42.09C136.24 42 136.34 41.92 136.46 41.87C136.57 41.82 136.7 41.79 136.83 41.79C136.96 41.78 137.08 41.8 137.2 41.85C137.32 41.89 137.43 41.96 137.53 42.05C137.62 42.14 137.69 42.24 137.75 42.36C137.8 42.47 137.83 42.6 137.83 42.73C137.84 42.85 137.81 42.98 137.77 43.1C137.72 43.22 137.65 43.33 137.57 43.42C137.48 43.51 137.37 43.59 137.26 43.64C137.14 43.69 137.01 43.72 136.89 43.73C136.76 43.73 136.63 43.71 136.51 43.66C136.39 43.62 136.28 43.55 136.19 43.46L136.19 43.46ZM131.24 45.33C131.13 45.23 131.04 45.1 130.97 44.95C130.91 44.81 130.87 44.65 130.87 44.5C130.86 44.34 130.89 44.18 130.94 44.04C131 43.89 131.08 43.75 131.19 43.64C131.3 43.52 131.43 43.43 131.58 43.37C131.72 43.3 131.88 43.27 132.03 43.26C132.19 43.26 132.35 43.28 132.5 43.34C132.65 43.39 132.78 43.48 132.9 43.59C133.39 44.04 133.4 44.8 132.95 45.28C132.84 45.39 132.71 45.49 132.56 45.55C132.42 45.62 132.26 45.65 132.11 45.66C131.95 45.66 131.79 45.64 131.64 45.58C131.5 45.52 131.36 45.44 131.24 45.33ZM125.94 45.72C125.32 45.14 125.3 44.18 125.87 43.56C126.01 43.42 126.18 43.3 126.36 43.22C126.54 43.14 126.74 43.09 126.94 43.09C127.14 43.08 127.34 43.12 127.53 43.19C127.72 43.26 127.89 43.37 128.04 43.5C128.66 44.08 128.68 45.04 128.1 45.66C127.96 45.8 127.8 45.92 127.61 46C127.43 46.08 127.23 46.13 127.03 46.13C126.83 46.14 126.63 46.11 126.44 46.03C126.26 45.96 126.08 45.85 125.94 45.72ZM120.54 43.9C120.45 43.7 120.4 43.47 120.39 43.25C120.38 43.02 120.42 42.8 120.5 42.59C120.58 42.38 120.7 42.19 120.86 42.02C121.01 41.86 121.2 41.73 121.4 41.63C121.61 41.54 121.83 41.49 122.05 41.48C122.28 41.48 122.51 41.51 122.72 41.59C122.93 41.67 123.12 41.79 123.29 41.95C123.45 42.1 123.59 42.28 123.68 42.49C123.77 42.7 123.82 42.92 123.83 43.14C123.84 43.37 123.8 43.59 123.72 43.8C123.64 44.02 123.52 44.21 123.36 44.37C122.72 45.06 121.62 45.09 120.93 44.44C120.77 44.29 120.63 44.11 120.54 43.9ZM133.68 17.87C133.55 18.03 133.4 18.16 133.22 18.26C133.04 18.35 132.85 18.41 132.65 18.43C132.45 18.45 132.25 18.43 132.05 18.38C131.86 18.32 131.68 18.23 131.52 18.1C131.36 17.98 131.23 17.82 131.13 17.64C131.04 17.46 130.97 17.27 130.95 17.07C130.93 16.87 130.95 16.66 131.01 16.47C131.11 16.07 131.38 15.72 131.74 15.51C132.11 15.31 132.54 15.26 132.94 15.38C133.34 15.5 133.68 15.77 133.87 16.14C134.06 16.52 134.1 16.95 133.96 17.35C133.9 17.54 133.81 17.72 133.68 17.87ZM119.2 20.97C119.29 20.99 119.38 21.04 119.46 21.1C119.54 21.17 119.6 21.24 119.65 21.33C119.7 21.42 119.73 21.51 119.74 21.61C119.75 21.71 119.74 21.81 119.71 21.91C119.59 22.31 119.17 22.54 118.77 22.42C118.67 22.39 118.59 22.35 118.51 22.29C118.43 22.22 118.36 22.15 118.32 22.06C118.27 21.97 118.24 21.88 118.23 21.78C118.22 21.68 118.22 21.58 118.25 21.49C118.28 21.39 118.33 21.3 118.39 21.22C118.45 21.15 118.53 21.08 118.62 21.03C118.71 20.99 118.8 20.95 118.9 20.94C119 20.93 119.1 20.94 119.2 20.97ZM122.19 18.21C122.29 18.29 122.37 18.38 122.43 18.49C122.49 18.6 122.53 18.72 122.54 18.84C122.55 18.96 122.54 19.08 122.51 19.2C122.47 19.32 122.41 19.43 122.34 19.53C122.26 19.62 122.16 19.7 122.06 19.76C121.95 19.82 121.83 19.86 121.71 19.87C121.58 19.88 121.46 19.87 121.34 19.84C121.11 19.76 120.91 19.6 120.8 19.39C120.68 19.17 120.65 18.92 120.72 18.68C120.79 18.45 120.95 18.25 121.17 18.13C121.38 18.01 121.63 17.98 121.87 18.04C121.99 18.07 122.1 18.13 122.19 18.21ZM125.7 16.19C125.82 16.29 125.92 16.41 126 16.55C126.07 16.69 126.12 16.84 126.14 16.99C126.16 17.15 126.14 17.3 126.1 17.45C126.06 17.6 125.98 17.74 125.89 17.86C125.79 17.99 125.67 18.09 125.53 18.16C125.39 18.24 125.24 18.28 125.08 18.3C124.93 18.31 124.77 18.3 124.62 18.25C124.47 18.21 124.33 18.14 124.21 18.04C124.09 17.94 123.98 17.82 123.91 17.69C123.83 17.55 123.79 17.4 123.77 17.24C123.75 17.09 123.77 16.93 123.81 16.78C123.85 16.63 123.93 16.49 124.03 16.37C124.13 16.25 124.25 16.15 124.39 16.07C124.52 16 124.67 15.95 124.83 15.94C124.98 15.92 125.14 15.93 125.29 15.98C125.44 16.02 125.58 16.1 125.7 16.19ZM129.08 15.13C129.25 15.18 129.41 15.26 129.55 15.37C129.68 15.48 129.8 15.62 129.88 15.78C129.96 15.93 130.02 16.1 130.04 16.27C130.05 16.45 130.04 16.63 129.99 16.8C129.94 16.96 129.85 17.12 129.74 17.26C129.63 17.39 129.49 17.5 129.34 17.59C129.19 17.67 129.02 17.72 128.84 17.74C128.67 17.76 128.49 17.75 128.32 17.7C127.97 17.61 127.66 17.38 127.48 17.06C127.3 16.75 127.26 16.37 127.36 16.02C127.46 15.67 127.71 15.37 128.03 15.21C128.36 15.04 128.74 15.01 129.08 15.13ZM117.51 24.59C117.65 24.63 117.78 24.73 117.85 24.86C117.92 24.99 117.94 25.15 117.9 25.29C117.85 25.44 117.76 25.56 117.63 25.63C117.49 25.7 117.34 25.72 117.19 25.68C117.05 25.64 116.92 25.54 116.85 25.41C116.78 25.28 116.76 25.12 116.8 24.98C116.84 24.83 116.94 24.71 117.08 24.64C117.21 24.56 117.36 24.55 117.51 24.59L117.51 24.59ZM140.65 27.74C140.71 27.66 140.79 27.59 140.88 27.55C140.96 27.5 141.06 27.47 141.16 27.46C141.26 27.45 141.36 27.46 141.45 27.48C141.66 27.53 141.83 27.66 141.94 27.84C142.04 28.02 142.07 28.24 142.01 28.44C141.95 28.64 141.81 28.81 141.62 28.9C141.44 29 141.22 29.01 141.02 28.94C140.93 28.91 140.84 28.86 140.76 28.8C140.68 28.74 140.62 28.66 140.57 28.57C140.52 28.49 140.49 28.39 140.48 28.29C140.47 28.19 140.48 28.09 140.51 28C140.54 27.9 140.58 27.81 140.65 27.74ZM139.8 23.89C139.88 23.79 139.98 23.71 140.08 23.65C140.19 23.6 140.31 23.56 140.43 23.55C140.56 23.53 140.68 23.55 140.8 23.58C141.04 23.65 141.24 23.81 141.37 24.03C141.49 24.25 141.52 24.51 141.45 24.75C141.37 24.99 141.21 25.19 140.99 25.31C140.77 25.43 140.51 25.45 140.27 25.38C140.15 25.34 140.04 25.28 139.94 25.21C139.84 25.13 139.76 25.03 139.71 24.93C139.65 24.82 139.61 24.7 139.6 24.58C139.58 24.45 139.59 24.33 139.63 24.21C139.67 24.09 139.72 23.98 139.8 23.89ZM137.78 20.39C137.88 20.27 138 20.17 138.14 20.1C138.27 20.03 138.42 19.98 138.58 19.96C138.73 19.95 138.89 19.96 139.04 20C139.19 20.05 139.33 20.12 139.45 20.21C139.57 20.31 139.67 20.43 139.75 20.57C139.82 20.7 139.87 20.85 139.89 21.01C139.91 21.16 139.89 21.32 139.85 21.47C139.8 21.62 139.73 21.76 139.63 21.88C139.53 22.01 139.41 22.11 139.27 22.18C139.14 22.26 138.98 22.3 138.83 22.32C138.67 22.34 138.52 22.32 138.37 22.28C138.21 22.24 138.07 22.16 137.95 22.07C137.83 21.97 137.73 21.85 137.65 21.71C137.58 21.57 137.53 21.42 137.52 21.26C137.5 21.11 137.52 20.95 137.56 20.8C137.61 20.65 137.68 20.51 137.78 20.39ZM134.65 18.16C134.7 17.99 134.78 17.83 134.89 17.69C135 17.55 135.14 17.44 135.29 17.36C135.45 17.27 135.62 17.22 135.79 17.2C135.97 17.18 136.15 17.2 136.32 17.25C136.48 17.29 136.64 17.38 136.78 17.49C136.92 17.6 137.03 17.73 137.11 17.89C137.2 18.04 137.25 18.21 137.27 18.39C137.29 18.56 137.27 18.74 137.22 18.91C137.17 19.07 137.09 19.23 136.98 19.37C136.87 19.5 136.73 19.62 136.57 19.7C136.42 19.79 136.25 19.84 136.08 19.86C135.9 19.88 135.72 19.86 135.56 19.81C135.39 19.77 135.23 19.68 135.09 19.57C134.95 19.46 134.84 19.33 134.76 19.17C134.67 19.02 134.62 18.85 134.6 18.68C134.58 18.5 134.6 18.32 134.65 18.16ZM140.3 31.63C140.35 31.57 140.41 31.52 140.47 31.48C140.54 31.45 140.61 31.43 140.68 31.42C140.76 31.41 140.83 31.41 140.9 31.43C140.97 31.45 141.04 31.49 141.1 31.54C141.16 31.58 141.21 31.64 141.24 31.71C141.28 31.77 141.3 31.84 141.31 31.92C141.32 31.99 141.31 32.07 141.29 32.14C141.27 32.21 141.23 32.28 141.19 32.34C141.14 32.39 141.08 32.44 141.01 32.48C140.95 32.51 140.88 32.54 140.8 32.54C140.73 32.55 140.65 32.54 140.58 32.52C140.51 32.5 140.44 32.47 140.39 32.42C140.33 32.37 140.28 32.31 140.25 32.25C140.21 32.18 140.19 32.11 140.18 32.04C140.17 31.97 140.18 31.89 140.2 31.82C140.22 31.75 140.26 31.68 140.3 31.63ZM127.09 40.64C126.86 41.45 126 41.92 125.18 41.68C124.99 41.63 124.8 41.53 124.65 41.41C124.49 41.28 124.36 41.12 124.26 40.95C124.16 40.77 124.1 40.57 124.08 40.37C124.06 40.17 124.08 39.97 124.13 39.77C124.19 39.58 124.29 39.4 124.41 39.24C124.54 39.08 124.7 38.95 124.87 38.86C125.05 38.76 125.25 38.7 125.45 38.68C125.65 38.66 125.85 38.68 126.05 38.73C126.24 38.79 126.42 38.88 126.58 39.01C126.74 39.14 126.87 39.29 126.97 39.47C127.06 39.65 127.13 39.84 127.15 40.05C127.17 40.25 127.15 40.45 127.09 40.64ZM117.59 29.11C117.47 29.52 117.05 29.74 116.65 29.62C116.55 29.6 116.46 29.55 116.38 29.49C116.31 29.43 116.24 29.35 116.19 29.26C116.14 29.18 116.11 29.08 116.1 28.98C116.09 28.88 116.1 28.78 116.13 28.69C116.16 28.59 116.21 28.5 116.27 28.43C116.33 28.35 116.41 28.28 116.5 28.24C116.58 28.19 116.68 28.16 116.78 28.15C116.88 28.14 116.98 28.14 117.08 28.17C117.17 28.2 117.26 28.25 117.34 28.31C117.42 28.37 117.48 28.45 117.53 28.54C117.57 28.62 117.6 28.72 117.61 28.82C117.63 28.92 117.62 29.02 117.59 29.11L117.59 29.11ZM118.47 32.9C118.44 33.02 118.38 33.13 118.3 33.22C118.22 33.32 118.13 33.4 118.02 33.46C117.91 33.52 117.79 33.56 117.67 33.57C117.55 33.58 117.42 33.57 117.31 33.54C117.19 33.5 117.08 33.44 116.98 33.37C116.89 33.29 116.81 33.19 116.75 33.09C116.69 32.98 116.65 32.86 116.64 32.74C116.63 32.62 116.64 32.49 116.67 32.37C116.71 32.26 116.76 32.14 116.84 32.05C116.92 31.95 117.01 31.87 117.12 31.81C117.23 31.75 117.35 31.72 117.47 31.71C117.59 31.69 117.72 31.71 117.84 31.75C117.95 31.78 118.06 31.83 118.16 31.91C118.26 31.99 118.34 32.08 118.39 32.19C118.45 32.3 118.49 32.41 118.5 32.54C118.52 32.66 118.51 32.78 118.47 32.9ZM120.54 36.31C120.5 36.46 120.42 36.6 120.32 36.72C120.22 36.84 120.1 36.94 119.96 37.02C119.83 37.09 119.68 37.14 119.52 37.16C119.36 37.17 119.21 37.16 119.06 37.11C118.91 37.07 118.77 37 118.64 36.9C118.52 36.8 118.42 36.68 118.35 36.54C118.27 36.41 118.22 36.26 118.21 36.1C118.19 35.95 118.21 35.79 118.25 35.64C118.29 35.49 118.37 35.35 118.47 35.23C118.56 35.1 118.68 35 118.82 34.93C118.96 34.85 119.11 34.81 119.26 34.79C119.42 34.77 119.58 34.79 119.73 34.83C119.88 34.87 120.02 34.95 120.14 35.05C120.26 35.14 120.36 35.26 120.44 35.4C120.52 35.54 120.56 35.69 120.58 35.85C120.6 36 120.59 36.16 120.54 36.31ZM121.79 39.87C121.62 39.82 121.46 39.73 121.33 39.63C121.19 39.52 121.07 39.38 120.99 39.23C120.91 39.07 120.85 38.9 120.83 38.73C120.82 38.55 120.83 38.38 120.88 38.21C120.93 38.04 121.01 37.88 121.12 37.75C121.23 37.61 121.37 37.49 121.52 37.41C121.68 37.33 121.85 37.27 122.02 37.25C122.2 37.23 122.37 37.25 122.54 37.3C122.71 37.35 122.87 37.43 123.01 37.54C123.14 37.65 123.26 37.79 123.34 37.94C123.43 38.09 123.48 38.26 123.5 38.44C123.52 38.61 123.5 38.79 123.45 38.96C123.24 39.67 122.5 40.07 121.79 39.87ZM138.9 36.14C138.8 36.11 138.71 36.06 138.64 36C138.56 35.94 138.49 35.86 138.45 35.77C138.4 35.69 138.37 35.59 138.36 35.49C138.35 35.39 138.36 35.29 138.39 35.2C138.42 35.1 138.46 35.01 138.53 34.94C138.59 34.86 138.67 34.79 138.75 34.75C138.84 34.7 138.94 34.67 139.04 34.66C139.13 34.65 139.24 34.65 139.33 34.68C139.43 34.71 139.52 34.76 139.59 34.82C139.67 34.88 139.73 34.96 139.78 35.05C139.83 35.14 139.86 35.23 139.87 35.33C139.88 35.43 139.87 35.53 139.85 35.63C139.82 35.72 139.77 35.81 139.71 35.89C139.64 35.97 139.57 36.03 139.48 36.08C139.39 36.13 139.29 36.16 139.19 36.17C139.09 36.18 138.99 36.17 138.9 36.14ZM136.23 39.07C136.11 39.04 136 38.98 135.91 38.9C135.81 38.82 135.73 38.73 135.67 38.62C135.61 38.51 135.58 38.4 135.56 38.27C135.55 38.15 135.56 38.03 135.59 37.91C135.63 37.79 135.69 37.68 135.76 37.59C135.84 37.49 135.94 37.41 136.05 37.35C136.15 37.29 136.27 37.26 136.4 37.24C136.52 37.23 136.64 37.24 136.76 37.28C136.88 37.31 136.99 37.37 137.09 37.44C137.18 37.52 137.26 37.62 137.32 37.73C137.38 37.84 137.41 37.95 137.43 38.08C137.44 38.2 137.43 38.32 137.39 38.44C137.36 38.56 137.3 38.67 137.22 38.76C137.14 38.86 137.05 38.94 136.94 38.99C136.83 39.05 136.71 39.09 136.59 39.1C136.47 39.12 136.35 39.1 136.23 39.07L136.23 39.07ZM132 39.66C132.04 39.51 132.12 39.37 132.22 39.25C132.31 39.13 132.44 39.03 132.57 38.95C132.71 38.88 132.86 38.83 133.02 38.81C133.17 38.8 133.33 38.81 133.48 38.86C133.78 38.95 134.04 39.15 134.19 39.43C134.34 39.71 134.37 40.03 134.28 40.33C134.2 40.64 133.99 40.89 133.71 41.04C133.44 41.19 133.11 41.23 132.81 41.14C132.18 40.95 131.81 40.29 132 39.66ZM129.02 41.98C128.68 41.88 128.4 41.64 128.23 41.33C128.06 41.02 128.02 40.66 128.12 40.32C128.22 39.98 128.45 39.69 128.76 39.52C129.07 39.36 129.44 39.32 129.78 39.42C130.12 39.51 130.41 39.75 130.58 40.06C130.75 40.37 130.79 40.74 130.69 41.08C130.59 41.42 130.36 41.71 130.04 41.88C129.73 42.05 129.36 42.08 129.02 41.98L129.02 41.98ZM125.4 21.81C124.81 22.12 124.09 21.9 123.77 21.32C123.7 21.18 123.65 21.03 123.64 20.88C123.62 20.72 123.63 20.56 123.68 20.41C123.72 20.26 123.8 20.12 123.9 20C124 19.88 124.12 19.78 124.26 19.71C124.39 19.63 124.55 19.58 124.7 19.57C124.86 19.55 125.02 19.57 125.17 19.61C125.32 19.66 125.46 19.73 125.58 19.83C125.71 19.93 125.81 20.06 125.88 20.19C126.19 20.77 125.98 21.49 125.4 21.81ZM119.97 29.52C120.05 29.48 120.14 29.45 120.23 29.44C120.32 29.44 120.42 29.44 120.5 29.47C120.59 29.5 120.68 29.54 120.75 29.6C120.82 29.66 120.88 29.73 120.93 29.81C120.97 29.89 121 29.98 121.01 30.07C121.02 30.16 121.01 30.25 120.98 30.34C120.96 30.43 120.91 30.51 120.85 30.58C120.79 30.65 120.72 30.71 120.64 30.75C120.56 30.8 120.47 30.83 120.38 30.84C120.29 30.85 120.19 30.84 120.11 30.82C120.02 30.79 119.93 30.75 119.86 30.69C119.79 30.63 119.73 30.56 119.69 30.48C119.64 30.4 119.62 30.31 119.61 30.22C119.6 30.12 119.6 30.03 119.63 29.94C119.66 29.86 119.7 29.77 119.76 29.7C119.81 29.63 119.89 29.57 119.97 29.52L119.97 29.52ZM120.15 26.56C120.26 26.55 120.37 26.56 120.48 26.59C120.58 26.62 120.68 26.67 120.76 26.74C120.85 26.8 120.92 26.89 120.97 26.98C121.02 27.08 121.05 27.18 121.06 27.29C121.07 27.39 121.06 27.5 121.03 27.61C121 27.71 120.95 27.8 120.88 27.89C120.81 27.97 120.73 28.04 120.63 28.09C120.54 28.14 120.43 28.18 120.33 28.19C120.22 28.2 120.11 28.19 120.01 28.15C119.9 28.12 119.81 28.07 119.72 28C119.64 27.94 119.57 27.85 119.52 27.76C119.47 27.66 119.44 27.56 119.43 27.45C119.42 27.35 119.43 27.24 119.46 27.14C119.49 27.04 119.54 26.94 119.6 26.86C119.67 26.78 119.75 26.71 119.85 26.66C119.94 26.6 120.05 26.57 120.15 26.56ZM120.6 23.9C120.7 23.84 120.82 23.8 120.94 23.79C121.07 23.78 121.19 23.79 121.31 23.82C121.43 23.86 121.54 23.92 121.63 23.99C121.73 24.07 121.81 24.16 121.87 24.27C121.92 24.38 121.96 24.5 121.97 24.62C121.99 24.74 121.98 24.87 121.94 24.99C121.9 25.1 121.85 25.21 121.77 25.31C121.69 25.4 121.59 25.48 121.48 25.54C121.03 25.79 120.46 25.61 120.21 25.16C120.15 25.05 120.12 24.94 120.11 24.81C120.09 24.69 120.11 24.57 120.14 24.45C120.18 24.33 120.24 24.22 120.31 24.13C120.39 24.03 120.49 23.95 120.6 23.9ZM122.12 21.51C122.24 21.44 122.37 21.4 122.51 21.39C122.65 21.37 122.79 21.39 122.92 21.43C123.05 21.47 123.18 21.53 123.29 21.62C123.39 21.71 123.48 21.82 123.55 21.94C123.82 22.44 123.63 23.09 123.11 23.36C122.6 23.64 121.97 23.45 121.69 22.94C121.41 22.42 121.6 21.79 122.12 21.51L122.12 21.51ZM120.95 32.24C121.02 32.21 121.09 32.18 121.17 32.18C121.25 32.17 121.33 32.17 121.4 32.2C121.47 32.22 121.54 32.25 121.6 32.3C121.66 32.35 121.71 32.41 121.75 32.48C121.79 32.55 121.81 32.62 121.82 32.7C121.82 32.77 121.82 32.85 121.79 32.93C121.77 33 121.74 33.07 121.69 33.13C121.64 33.19 121.58 33.24 121.51 33.28C121.22 33.43 120.87 33.32 120.71 33.04C120.68 32.97 120.65 32.9 120.65 32.82C120.64 32.74 120.64 32.66 120.67 32.59C120.69 32.52 120.73 32.45 120.77 32.39C120.82 32.33 120.88 32.28 120.95 32.24ZM134.56 22.47C134.52 22.39 134.49 22.3 134.48 22.21C134.47 22.12 134.48 22.02 134.51 21.94C134.54 21.85 134.58 21.76 134.64 21.69C134.7 21.62 134.77 21.56 134.86 21.52C134.94 21.48 135.03 21.45 135.12 21.44C135.21 21.43 135.3 21.44 135.39 21.46C135.48 21.49 135.56 21.53 135.63 21.59C135.71 21.65 135.76 21.72 135.81 21.8C135.85 21.89 135.88 21.98 135.89 22.07C135.9 22.16 135.89 22.25 135.86 22.34C135.84 22.43 135.79 22.51 135.73 22.58C135.68 22.66 135.6 22.72 135.52 22.76C135.44 22.8 135.35 22.83 135.26 22.84C135.17 22.85 135.07 22.84 134.98 22.81C134.9 22.79 134.81 22.74 134.74 22.68C134.67 22.63 134.61 22.55 134.56 22.47ZM132.17 20.96C132.12 20.86 132.09 20.76 132.08 20.65C132.07 20.54 132.08 20.43 132.11 20.33C132.14 20.23 132.19 20.13 132.26 20.05C132.33 19.96 132.41 19.89 132.51 19.84C132.6 19.79 132.71 19.76 132.81 19.75C132.92 19.74 133.03 19.75 133.13 19.78C133.23 19.81 133.33 19.86 133.41 19.93C133.5 20 133.57 20.08 133.62 20.18C133.67 20.27 133.7 20.37 133.71 20.48C133.73 20.59 133.72 20.7 133.68 20.8C133.65 20.9 133.6 21 133.53 21.08C133.46 21.17 133.38 21.23 133.28 21.28C132.89 21.5 132.39 21.36 132.17 20.96L132.17 20.96ZM129.41 20.22C129.35 20.11 129.31 19.99 129.3 19.87C129.29 19.75 129.3 19.63 129.33 19.51C129.37 19.39 129.43 19.28 129.5 19.19C129.58 19.09 129.68 19.01 129.79 18.96C129.89 18.9 130.01 18.86 130.14 18.84C130.26 18.83 130.38 18.84 130.5 18.88C130.62 18.91 130.73 18.97 130.82 19.05C130.92 19.12 131 19.22 131.06 19.33C131.12 19.44 131.15 19.56 131.16 19.68C131.18 19.8 131.16 19.92 131.13 20.04C131.09 20.16 131.03 20.27 130.95 20.36C130.88 20.46 130.78 20.54 130.67 20.59C130.56 20.65 130.45 20.69 130.32 20.7C130.2 20.71 130.08 20.7 129.96 20.67C129.84 20.63 129.73 20.58 129.64 20.5C129.54 20.42 129.47 20.33 129.41 20.22ZM126.52 20.33C126.46 20.21 126.42 20.08 126.4 19.94C126.39 19.8 126.4 19.67 126.44 19.53C126.48 19.4 126.55 19.28 126.63 19.17C126.72 19.06 126.83 18.98 126.95 18.91C127.07 18.84 127.2 18.8 127.34 18.79C127.48 18.77 127.62 18.79 127.75 18.83C127.89 18.87 128.01 18.93 128.12 19.02C128.23 19.11 128.32 19.21 128.38 19.33C128.66 19.85 128.47 20.49 127.96 20.77C127.44 21.04 126.8 20.85 126.52 20.33ZM136.36 24.62C136.2 24.34 136.31 23.98 136.59 23.82C136.65 23.78 136.73 23.76 136.81 23.76C136.88 23.75 136.96 23.76 137.04 23.78C137.11 23.8 137.18 23.84 137.24 23.89C137.3 23.94 137.35 24 137.38 24.07C137.42 24.14 137.44 24.21 137.45 24.29C137.46 24.36 137.45 24.44 137.43 24.51C137.41 24.59 137.37 24.65 137.32 24.71C137.27 24.77 137.21 24.82 137.15 24.85C136.87 25.01 136.51 24.9 136.36 24.62ZM133.85 37.39C133.71 37.47 133.55 37.51 133.4 37.53C133.24 37.54 133.08 37.53 132.93 37.48C132.78 37.44 132.64 37.36 132.52 37.26C132.4 37.17 132.3 37.05 132.22 36.91C132.14 36.77 132.1 36.62 132.08 36.46C132.06 36.31 132.08 36.15 132.12 36C132.16 35.85 132.24 35.71 132.34 35.59C132.44 35.47 132.56 35.37 132.7 35.29C132.84 35.22 132.99 35.17 133.15 35.15C133.3 35.14 133.46 35.15 133.61 35.2C133.77 35.24 133.91 35.32 134.03 35.42C134.15 35.52 134.25 35.64 134.33 35.78C134.64 36.35 134.42 37.07 133.85 37.39ZM123.62 34.88C123.62 34.97 123.62 35.07 123.59 35.15C123.56 35.24 123.52 35.32 123.46 35.39C123.4 35.46 123.33 35.52 123.25 35.57C122.91 35.76 122.48 35.63 122.3 35.29C122.25 35.21 122.23 35.12 122.22 35.03C122.21 34.93 122.22 34.84 122.24 34.75C122.27 34.67 122.31 34.58 122.37 34.51C122.43 34.44 122.5 34.38 122.58 34.34C122.66 34.3 122.75 34.27 122.84 34.26C122.94 34.25 123.03 34.26 123.12 34.29C123.2 34.31 123.29 34.36 123.36 34.41C123.43 34.47 123.49 34.54 123.54 34.62C123.58 34.7 123.61 34.79 123.62 34.88ZM125.93 36.14C125.98 36.23 126.01 36.34 126.02 36.45C126.03 36.55 126.02 36.66 125.99 36.77C125.96 36.87 125.91 36.97 125.84 37.05C125.77 37.13 125.69 37.2 125.59 37.26C125.5 37.31 125.4 37.34 125.29 37.35C125.18 37.36 125.07 37.35 124.97 37.32C124.87 37.29 124.77 37.23 124.69 37.17C124.61 37.1 124.54 37.01 124.49 36.92C124.43 36.82 124.4 36.72 124.39 36.61C124.38 36.51 124.39 36.4 124.42 36.29C124.45 36.19 124.5 36.1 124.57 36.01C124.64 35.93 124.72 35.86 124.82 35.81C124.91 35.76 125.02 35.73 125.12 35.72C125.23 35.71 125.34 35.72 125.44 35.75C125.54 35.78 125.64 35.83 125.72 35.89C125.81 35.96 125.88 36.05 125.93 36.14ZM128.7 36.88C128.76 36.98 128.8 37.1 128.81 37.23C128.82 37.35 128.81 37.47 128.77 37.59C128.74 37.71 128.68 37.82 128.6 37.92C128.52 38.01 128.42 38.09 128.31 38.15C128.1 38.26 127.85 38.27 127.61 38.2C127.38 38.13 127.19 37.97 127.07 37.75C126.96 37.54 126.93 37.29 126.99 37.06C127.06 36.82 127.21 36.62 127.42 36.5C127.88 36.26 128.46 36.42 128.7 36.88ZM131.58 36.76C131.85 37.27 131.67 37.91 131.15 38.18C130.64 38.47 130 38.27 129.73 37.76C129.66 37.64 129.62 37.51 129.6 37.37C129.59 37.23 129.6 37.09 129.64 36.96C129.68 36.83 129.74 36.7 129.83 36.6C129.91 36.49 130.02 36.4 130.14 36.33C130.27 36.27 130.4 36.23 130.54 36.21C130.68 36.2 130.82 36.21 130.95 36.25C131.08 36.29 131.21 36.36 131.31 36.44C131.42 36.53 131.51 36.64 131.58 36.76L131.58 36.76ZM138.12 27.58C137.79 27.76 137.36 27.63 137.18 27.29C137.14 27.21 137.11 27.12 137.1 27.03C137.09 26.93 137.1 26.84 137.12 26.75C137.15 26.66 137.19 26.58 137.25 26.51C137.31 26.44 137.38 26.38 137.47 26.34C137.55 26.29 137.64 26.27 137.73 26.26C137.82 26.25 137.91 26.26 138 26.28C138.09 26.31 138.17 26.35 138.24 26.41C138.32 26.47 138.38 26.54 138.42 26.62C138.6 26.95 138.47 27.38 138.12 27.58L138.12 27.58ZM138.26 30.44C137.86 30.65 137.35 30.51 137.14 30.12C136.93 29.71 137.07 29.22 137.47 29C137.57 28.95 137.67 28.92 137.78 28.91C137.88 28.9 137.99 28.91 138.1 28.94C138.2 28.97 138.29 29.02 138.38 29.09C138.46 29.16 138.53 29.24 138.58 29.34C138.63 29.43 138.67 29.53 138.68 29.64C138.69 29.75 138.68 29.85 138.65 29.96C138.62 30.06 138.57 30.16 138.5 30.24C138.43 30.32 138.35 30.39 138.26 30.44ZM137.5 33.2C137.06 33.45 136.49 33.28 136.24 32.83C136.18 32.72 136.14 32.6 136.13 32.48C136.12 32.35 136.13 32.23 136.16 32.11C136.2 31.99 136.26 31.88 136.34 31.79C136.42 31.69 136.51 31.61 136.62 31.55C136.73 31.49 136.85 31.46 136.97 31.45C137.09 31.43 137.22 31.44 137.34 31.48C137.45 31.52 137.56 31.57 137.66 31.65C137.76 31.73 137.83 31.82 137.89 31.93C137.95 32.04 137.99 32.16 138 32.28C138.01 32.41 138 32.53 137.96 32.65C137.93 32.77 137.87 32.88 137.79 32.97C137.71 33.07 137.61 33.15 137.5 33.2L137.5 33.2ZM135.99 35.58C135.47 35.86 134.83 35.67 134.56 35.16C134.49 35.04 134.45 34.9 134.44 34.77C134.42 34.63 134.44 34.49 134.48 34.36C134.51 34.22 134.58 34.1 134.67 33.99C134.76 33.89 134.86 33.8 134.99 33.73C135.11 33.67 135.24 33.63 135.38 33.61C135.52 33.6 135.66 33.61 135.79 33.65C135.92 33.69 136.04 33.76 136.15 33.84C136.26 33.93 136.35 34.04 136.42 34.16C136.69 34.67 136.5 35.32 135.99 35.58L135.99 35.58ZM155.3 31.38C154.93 31.23 154.59 31 154.31 30.72C154.02 30.43 153.8 30.09 153.64 29.72C153.49 29.35 153.41 28.95 153.41 28.55C153.41 28.15 153.49 27.75 153.64 27.38C153.8 27.01 154.02 26.67 154.31 26.39C154.59 26.1 154.93 25.88 155.3 25.73C155.68 25.57 156.08 25.5 156.48 25.5C156.88 25.5 157.28 25.57 157.65 25.73C158.02 25.88 158.36 26.1 158.65 26.39C158.93 26.67 159.16 27.01 159.31 27.38C159.47 27.75 159.55 28.15 159.55 28.56C159.55 28.96 159.47 29.36 159.31 29.73C159.16 30.1 158.93 30.44 158.64 30.72C158.36 31 158.02 31.23 157.65 31.38C157.27 31.54 156.88 31.61 156.47 31.61C156.07 31.61 155.67 31.53 155.3 31.38ZM144.42 5.23C144.37 5.45 144.29 5.66 144.16 5.84C144.03 6.02 143.87 6.18 143.69 6.3C143.5 6.42 143.29 6.5 143.07 6.54C142.85 6.58 142.63 6.58 142.41 6.53C142.2 6.49 141.99 6.4 141.81 6.27C141.62 6.15 141.47 5.99 141.34 5.8C141.22 5.61 141.14 5.41 141.1 5.19C141.06 4.97 141.06 4.75 141.11 4.53C141.15 4.31 141.24 4.1 141.37 3.92C141.5 3.74 141.66 3.58 141.84 3.46C142.03 3.34 142.24 3.26 142.46 3.22C142.68 3.18 142.9 3.19 143.12 3.23C143.33 3.28 143.54 3.37 143.72 3.49C143.91 3.62 144.06 3.78 144.19 3.96C144.31 4.15 144.39 4.36 144.43 4.57C144.47 4.79 144.47 5.02 144.42 5.23L144.42 5.23ZM150.47 9.55C150.43 9.81 150.33 10.07 150.19 10.3C150.05 10.53 149.87 10.73 149.65 10.88C149.43 11.04 149.18 11.16 148.92 11.22C148.66 11.28 148.39 11.29 148.12 11.25C147.59 11.16 147.11 10.87 146.79 10.43C146.47 9.99 146.34 9.44 146.43 8.91C146.51 8.37 146.81 7.89 147.24 7.57C147.68 7.26 148.23 7.13 148.77 7.21C149.03 7.25 149.29 7.34 149.52 7.48C149.75 7.62 149.94 7.81 150.1 8.03C150.26 8.24 150.38 8.49 150.44 8.75C150.5 9.01 150.51 9.28 150.47 9.55ZM155.34 15.16C155.27 15.82 154.93 16.44 154.4 16.86C153.88 17.28 153.21 17.48 152.54 17.41C151.87 17.34 151.25 17.01 150.82 16.48C150.4 15.96 150.19 15.29 150.25 14.62C150.29 14.29 150.39 13.97 150.55 13.67C150.71 13.38 150.93 13.12 151.19 12.9C151.45 12.69 151.75 12.54 152.08 12.44C152.4 12.35 152.74 12.32 153.07 12.35C153.4 12.39 153.73 12.48 154.02 12.64C154.32 12.8 154.58 13.02 154.79 13.28C155 13.54 155.16 13.84 155.25 14.16C155.35 14.48 155.38 14.82 155.34 15.16L155.34 15.16ZM158.37 21.62C158.35 21.99 158.25 22.36 158.09 22.69C157.93 23.02 157.71 23.32 157.43 23.57C157.16 23.82 156.84 24.01 156.49 24.13C156.14 24.25 155.77 24.31 155.4 24.29C154.65 24.25 153.96 23.91 153.46 23.36C152.96 22.8 152.7 22.07 152.74 21.33C152.78 20.59 153.12 19.89 153.67 19.39C154.23 18.89 154.95 18.63 155.7 18.67C156.07 18.69 156.43 18.78 156.76 18.94C157.1 19.1 157.4 19.32 157.65 19.59C157.89 19.87 158.09 20.19 158.21 20.54C158.33 20.89 158.39 21.26 158.37 21.63L158.37 21.62ZM130.19 1.7C130.12 1.85 130.03 1.98 129.92 2.09C129.8 2.21 129.67 2.3 129.52 2.36C129.37 2.42 129.21 2.45 129.05 2.45C128.71 2.47 128.39 2.34 128.15 2.11C127.91 1.88 127.77 1.56 127.77 1.23C127.77 0.89 127.91 0.57 128.15 0.34C128.39 0.11 128.71 -0.01 129.05 0C129.73 0 130.28 0.55 130.28 1.23C130.28 1.39 130.25 1.55 130.19 1.7ZM142.41 50.58C142.63 50.53 142.85 50.53 143.07 50.57C143.29 50.61 143.5 50.69 143.68 50.81C143.87 50.93 144.03 51.09 144.16 51.27C144.29 51.45 144.37 51.66 144.42 51.87C144.47 52.09 144.47 52.32 144.43 52.53C144.39 52.75 144.31 52.96 144.19 53.15C144.06 53.33 143.91 53.49 143.72 53.62C143.54 53.75 143.33 53.83 143.12 53.88C142.9 53.93 142.68 53.93 142.46 53.89C142.24 53.85 142.03 53.77 141.84 53.65C141.66 53.53 141.49 53.37 141.37 53.19C141.24 53 141.15 52.8 141.11 52.58C141.06 52.36 141.06 52.14 141.1 51.92C141.14 51.7 141.22 51.49 141.34 51.31C141.47 51.12 141.62 50.96 141.81 50.83C141.99 50.71 142.2 50.62 142.41 50.58L142.41 50.58ZM148.12 45.86C148.39 45.82 148.66 45.83 148.92 45.89C149.18 45.95 149.43 46.07 149.65 46.22C149.87 46.38 150.05 46.58 150.19 46.81C150.33 47.04 150.43 47.29 150.47 47.56C150.51 47.82 150.5 48.1 150.44 48.36C150.38 48.62 150.26 48.87 150.1 49.08C149.94 49.3 149.74 49.48 149.51 49.62C149.28 49.76 149.03 49.86 148.76 49.9C148.5 49.94 148.23 49.93 147.96 49.87C147.7 49.81 147.46 49.69 147.24 49.54C147.02 49.38 146.83 49.18 146.69 48.95C146.55 48.72 146.46 48.46 146.42 48.2C146.37 47.93 146.39 47.66 146.45 47.4C146.51 47.14 146.63 46.89 146.78 46.68C146.94 46.46 147.14 46.27 147.37 46.13C147.6 45.99 147.86 45.9 148.12 45.86ZM152.53 39.68C152.87 39.65 153.2 39.68 153.52 39.77C153.85 39.87 154.15 40.02 154.41 40.24C154.67 40.45 154.89 40.71 155.05 41C155.21 41.3 155.31 41.62 155.34 41.95C155.38 42.29 155.35 42.62 155.25 42.95C155.16 43.27 155 43.57 154.79 43.83C154.58 44.09 154.32 44.3 154.02 44.46C153.72 44.62 153.4 44.72 153.07 44.75C152.73 44.79 152.4 44.76 152.07 44.66C151.75 44.57 151.45 44.41 151.19 44.2C150.93 43.99 150.71 43.73 150.55 43.44C150.39 43.14 150.29 42.82 150.25 42.49C150.22 42.15 150.25 41.81 150.35 41.49C150.44 41.17 150.6 40.87 150.81 40.61C151.03 40.35 151.29 40.14 151.58 39.98C151.88 39.82 152.2 39.72 152.53 39.68L152.53 39.68ZM155.4 32.82C155.77 32.8 156.14 32.85 156.49 32.98C156.83 33.1 157.16 33.29 157.43 33.54C157.71 33.78 157.93 34.08 158.09 34.42C158.25 34.75 158.35 35.11 158.37 35.48C158.39 35.85 158.33 36.22 158.21 36.57C158.08 36.92 157.89 37.24 157.65 37.51C157.4 37.78 157.1 38.01 156.77 38.17C156.43 38.32 156.07 38.41 155.7 38.43C154.96 38.47 154.23 38.22 153.67 37.72C153.12 37.22 152.78 36.52 152.74 35.78C152.7 35.03 152.96 34.3 153.46 33.75C153.96 33.2 154.65 32.86 155.4 32.82ZM129.05 54.66C129.21 54.66 129.37 54.69 129.52 54.75C129.67 54.81 129.8 54.9 129.92 55.01C130.03 55.13 130.12 55.26 130.19 55.41C130.25 55.56 130.28 55.72 130.28 55.88C130.28 56.04 130.25 56.2 130.19 56.35C130.12 56.5 130.03 56.64 129.92 56.75C129.8 56.87 129.67 56.96 129.52 57.02C129.37 57.08 129.21 57.11 129.05 57.11C128.88 57.11 128.72 57.08 128.57 57.02C128.43 56.96 128.29 56.87 128.18 56.75C128.06 56.64 127.97 56.5 127.91 56.35C127.85 56.2 127.81 56.04 127.81 55.88C127.81 55.72 127.85 55.56 127.91 55.41C127.97 55.26 128.06 55.13 128.18 55.01C128.29 54.9 128.43 54.81 128.58 54.75C128.72 54.69 128.88 54.66 129.05 54.66ZM101.62 31.61C101.22 31.61 100.82 31.53 100.45 31.38C100.07 31.23 99.74 31 99.45 30.72C99.16 30.44 98.94 30.1 98.78 29.73C98.63 29.36 98.55 28.96 98.55 28.55C98.55 28.15 98.63 27.75 98.78 27.38C98.94 27.01 99.16 26.67 99.45 26.39C99.73 26.1 100.07 25.88 100.44 25.73C100.82 25.57 101.22 25.5 101.62 25.5C102.02 25.5 102.42 25.57 102.79 25.73C103.16 25.88 103.5 26.11 103.78 26.39C104.07 26.67 104.29 27.01 104.45 27.38C104.6 27.75 104.68 28.15 104.68 28.55C104.68 28.95 104.6 29.35 104.45 29.72C104.29 30.09 104.07 30.43 103.78 30.72C103.5 31 103.16 31.23 102.79 31.38C102.42 31.53 102.02 31.61 101.62 31.61ZM115.68 6.53C115.24 6.62 114.78 6.54 114.41 6.3C114.03 6.05 113.77 5.67 113.68 5.23C113.58 4.8 113.67 4.34 113.91 3.96C114.15 3.59 114.54 3.32 114.98 3.23C115.41 3.15 115.85 3.25 116.21 3.49C116.58 3.74 116.83 4.11 116.92 4.54C117.02 4.97 116.94 5.42 116.7 5.79C116.47 6.16 116.1 6.43 115.68 6.53L115.68 6.53ZM109.97 11.25C109.71 11.29 109.43 11.28 109.17 11.22C108.91 11.16 108.66 11.04 108.45 10.88C108.23 10.73 108.04 10.53 107.9 10.3C107.76 10.07 107.67 9.81 107.63 9.55C107.58 9.28 107.59 9.01 107.65 8.75C107.72 8.49 107.83 8.24 107.99 8.02C108.15 7.81 108.35 7.62 108.58 7.48C108.81 7.34 109.06 7.25 109.33 7.21C109.85 7.14 110.38 7.29 110.81 7.6C111.23 7.92 111.51 8.39 111.6 8.92C111.68 9.44 111.56 9.98 111.26 10.41C110.95 10.85 110.49 11.15 109.97 11.25ZM105.56 17.42C105.22 17.46 104.89 17.43 104.56 17.33C104.24 17.24 103.94 17.08 103.68 16.87C103.42 16.66 103.2 16.4 103.04 16.11C102.88 15.81 102.78 15.49 102.75 15.16C102.71 14.82 102.74 14.48 102.84 14.16C102.93 13.84 103.09 13.54 103.3 13.28C103.51 13.02 103.77 12.8 104.07 12.64C104.36 12.48 104.69 12.38 105.02 12.35C105.36 12.32 105.69 12.35 106.02 12.44C106.34 12.54 106.64 12.69 106.9 12.9C107.16 13.12 107.38 13.38 107.54 13.67C107.7 13.97 107.8 14.29 107.84 14.62C107.87 14.96 107.84 15.29 107.74 15.61C107.65 15.94 107.49 16.24 107.28 16.5C107.07 16.76 106.8 16.97 106.51 17.13C106.21 17.29 105.89 17.39 105.56 17.43L105.56 17.42ZM102.69 24.29C102.32 24.31 101.95 24.25 101.61 24.13C101.26 24.01 100.93 23.82 100.66 23.57C100.38 23.32 100.16 23.02 100 22.69C99.84 22.36 99.74 21.99 99.72 21.62C99.71 21.25 99.76 20.89 99.88 20.54C100.01 20.19 100.2 19.87 100.45 19.6C100.69 19.32 100.99 19.1 101.33 18.94C101.66 18.78 102.02 18.69 102.39 18.67C102.76 18.65 103.13 18.7 103.48 18.82C103.83 18.95 104.15 19.14 104.43 19.38C104.71 19.63 104.93 19.93 105.09 20.26C105.25 20.6 105.34 20.96 105.36 21.33C105.38 21.7 105.33 22.07 105.2 22.42C105.08 22.77 104.89 23.09 104.64 23.36C104.39 23.64 104.09 23.86 103.76 24.02C103.42 24.18 103.06 24.27 102.69 24.29L102.69 24.29ZM113.67 51.87C113.72 51.66 113.81 51.45 113.93 51.27C114.06 51.09 114.22 50.93 114.41 50.81C114.59 50.69 114.8 50.61 115.02 50.57C115.24 50.53 115.46 50.53 115.68 50.58C116.11 50.67 116.49 50.94 116.73 51.31C116.97 51.69 117.05 52.14 116.96 52.58C116.87 53.01 116.61 53.39 116.24 53.64C115.86 53.88 115.41 53.97 114.97 53.88C114.76 53.83 114.55 53.75 114.37 53.62C114.18 53.49 114.03 53.33 113.91 53.15C113.79 52.96 113.7 52.75 113.66 52.53C113.62 52.32 113.63 52.09 113.67 51.87L113.67 51.87ZM107.63 47.56C107.67 47.29 107.76 47.04 107.9 46.81C108.04 46.58 108.23 46.38 108.45 46.22C108.66 46.07 108.91 45.95 109.17 45.89C109.43 45.83 109.71 45.82 109.97 45.86C110.24 45.9 110.49 45.99 110.72 46.13C110.95 46.27 111.15 46.46 111.31 46.68C111.47 46.89 111.58 47.14 111.65 47.4C111.71 47.66 111.72 47.93 111.68 48.2C111.64 48.46 111.54 48.72 111.4 48.95C111.26 49.18 111.08 49.38 110.86 49.54C110.64 49.69 110.39 49.81 110.13 49.87C109.87 49.93 109.59 49.94 109.33 49.9C109.06 49.86 108.81 49.76 108.58 49.62C108.35 49.48 108.15 49.3 107.99 49.08C107.83 48.87 107.72 48.62 107.66 48.36C107.59 48.1 107.58 47.83 107.63 47.56ZM102.75 41.95C102.78 41.62 102.88 41.3 103.04 41C103.2 40.71 103.42 40.45 103.68 40.24C103.94 40.02 104.24 39.87 104.57 39.77C104.89 39.68 105.22 39.65 105.56 39.68C105.89 39.72 106.21 39.82 106.51 39.98C106.8 40.14 107.06 40.35 107.28 40.61C107.49 40.87 107.65 41.17 107.74 41.49C107.84 41.81 107.87 42.15 107.84 42.48C107.8 42.82 107.7 43.14 107.54 43.44C107.38 43.73 107.16 43.99 106.9 44.2C106.64 44.41 106.34 44.57 106.02 44.67C105.69 44.76 105.36 44.79 105.02 44.75C104.69 44.72 104.37 44.62 104.07 44.46C103.78 44.3 103.51 44.09 103.3 43.83C103.09 43.57 102.93 43.27 102.84 42.94C102.74 42.62 102.71 42.29 102.75 41.95L102.75 41.95ZM99.72 35.48C99.74 35.11 99.84 34.75 100 34.42C100.16 34.08 100.38 33.78 100.66 33.54C100.93 33.29 101.26 33.1 101.6 32.98C101.95 32.85 102.32 32.8 102.69 32.82C103.06 32.84 103.42 32.93 103.76 33.09C104.09 33.25 104.39 33.47 104.64 33.75C104.89 34.02 105.08 34.34 105.2 34.69C105.33 35.04 105.38 35.41 105.36 35.78C105.34 36.14 105.25 36.51 105.09 36.84C104.93 37.18 104.71 37.47 104.43 37.72C104.15 37.97 103.83 38.16 103.48 38.28C103.13 38.4 102.76 38.45 102.39 38.43C102.02 38.41 101.66 38.32 101.33 38.17C100.99 38.01 100.69 37.78 100.45 37.51C100.2 37.24 100.01 36.92 99.88 36.57C99.76 36.22 99.71 35.85 99.72 35.48L99.72 35.48ZM135.8 53.68C135.97 53.63 136.14 53.62 136.32 53.64C136.49 53.67 136.66 53.72 136.81 53.81C136.96 53.9 137.09 54.01 137.2 54.15C137.3 54.29 137.38 54.44 137.43 54.61C137.62 55.32 137.2 56.04 136.49 56.23C135.78 56.41 135.06 56 134.87 55.3C134.82 55.13 134.81 54.95 134.83 54.78C134.85 54.61 134.91 54.44 135 54.29C135.09 54.14 135.2 54.01 135.34 53.91C135.48 53.8 135.63 53.72 135.8 53.68ZM122.29 53.68C122.46 53.72 122.61 53.8 122.75 53.9C122.89 54.01 123.01 54.14 123.09 54.29C123.18 54.44 123.24 54.61 123.26 54.78C123.28 54.95 123.27 55.13 123.23 55.29C123.18 55.46 123.1 55.62 123 55.76C122.89 55.89 122.76 56.01 122.61 56.1C122.46 56.18 122.29 56.24 122.12 56.26C121.95 56.28 121.77 56.27 121.6 56.22C121.27 56.13 120.98 55.91 120.81 55.61C120.63 55.31 120.58 54.95 120.67 54.61C120.76 54.27 120.99 53.99 121.29 53.81C121.59 53.64 121.95 53.59 122.29 53.68ZM137.43 2.5C137.38 2.67 137.3 2.82 137.2 2.96C137.09 3.1 136.96 3.21 136.81 3.3C136.66 3.39 136.49 3.44 136.32 3.46C136.15 3.49 135.97 3.48 135.8 3.43C135.47 3.34 135.18 3.12 135 2.82C134.83 2.51 134.78 2.15 134.87 1.82C134.96 1.48 135.18 1.19 135.49 1.02C135.79 0.84 136.15 0.8 136.49 0.89C136.65 0.93 136.81 1.01 136.95 1.11C137.09 1.21 137.21 1.35 137.29 1.5C137.38 1.65 137.44 1.81 137.46 1.98C137.48 2.16 137.47 2.33 137.43 2.5L137.43 2.5ZM123.23 1.81C123.31 2.15 123.25 2.5 123.07 2.8C122.9 3.09 122.61 3.31 122.28 3.4C121.94 3.49 121.59 3.44 121.29 3.27C120.99 3.1 120.77 2.83 120.67 2.5C120.62 2.33 120.61 2.15 120.63 1.98C120.66 1.81 120.71 1.64 120.8 1.49C120.89 1.35 121 1.21 121.14 1.11C121.28 1 121.44 0.93 121.6 0.88C121.77 0.84 121.95 0.83 122.12 0.85C122.29 0.87 122.46 0.93 122.61 1.01C122.76 1.1 122.89 1.21 123 1.35C123.1 1.49 123.18 1.65 123.23 1.81ZM148.75 22.49C148.43 22.5 148.12 22.44 147.83 22.32C147.53 22.21 147.27 22.04 147.04 21.82C146.82 21.6 146.64 21.34 146.51 21.05C146.39 20.76 146.32 20.45 146.31 20.14C146.31 19.82 146.37 19.51 146.48 19.22C146.6 18.93 146.77 18.66 146.99 18.44C147.21 18.21 147.48 18.03 147.77 17.91C148.05 17.79 148.36 17.72 148.68 17.72C148.99 17.71 149.3 17.77 149.6 17.88C149.89 18 150.16 18.17 150.38 18.39C150.61 18.61 150.79 18.87 150.91 19.16C151.04 19.45 151.1 19.76 151.11 20.07C151.11 20.39 151.06 20.7 150.94 20.99C150.82 21.28 150.65 21.55 150.43 21.77C150.21 22 149.95 22.18 149.66 22.3C149.37 22.42 149.06 22.49 148.75 22.49ZM132.83 7.1C132.87 7.27 132.86 7.44 132.83 7.61C132.8 7.78 132.73 7.95 132.63 8.09C132.54 8.23 132.41 8.36 132.27 8.45C132.13 8.55 131.96 8.61 131.79 8.65C131.08 8.79 130.38 8.33 130.24 7.62C130.2 7.45 130.2 7.27 130.24 7.1C130.27 6.93 130.34 6.77 130.43 6.62C130.53 6.48 130.65 6.36 130.8 6.26C130.94 6.16 131.11 6.1 131.28 6.07C131.45 6.03 131.62 6.03 131.79 6.06C131.96 6.1 132.12 6.16 132.27 6.26C132.41 6.36 132.54 6.48 132.63 6.62C132.73 6.77 132.8 6.93 132.83 7.1L132.83 7.1ZM138.51 8.33C138.56 8.53 138.57 8.74 138.54 8.95C138.51 9.16 138.44 9.36 138.33 9.54C138.23 9.72 138.08 9.88 137.92 10C137.75 10.13 137.56 10.22 137.35 10.27C137.15 10.32 136.94 10.33 136.73 10.31C136.52 10.28 136.32 10.21 136.14 10.1C135.96 9.99 135.8 9.85 135.67 9.68C135.55 9.52 135.46 9.32 135.4 9.12C135.35 8.92 135.34 8.7 135.37 8.5C135.4 8.29 135.47 8.09 135.58 7.91C135.69 7.73 135.83 7.57 136 7.44C136.16 7.32 136.36 7.23 136.56 7.18C136.76 7.13 136.98 7.11 137.18 7.14C137.39 7.17 137.59 7.24 137.77 7.35C137.96 7.46 138.11 7.6 138.24 7.77C138.37 7.94 138.46 8.13 138.51 8.33L138.51 8.33ZM143.74 10.85C143.82 11.1 143.85 11.36 143.82 11.62C143.8 11.88 143.73 12.13 143.6 12.37C143.48 12.6 143.32 12.8 143.12 12.97C142.91 13.14 142.68 13.26 142.43 13.34C142.18 13.42 141.92 13.45 141.66 13.42C141.4 13.4 141.14 13.32 140.91 13.2C140.68 13.08 140.47 12.92 140.3 12.72C140.13 12.52 140.01 12.28 139.93 12.03C139.85 11.78 139.82 11.52 139.85 11.26C139.87 11 139.94 10.75 140.07 10.51C140.19 10.28 140.36 10.08 140.56 9.91C140.76 9.74 140.99 9.62 141.24 9.54C141.49 9.46 141.75 9.43 142.02 9.46C142.28 9.48 142.53 9.55 142.76 9.68C143 9.8 143.2 9.96 143.37 10.16C143.54 10.36 143.66 10.6 143.74 10.85L143.74 10.85ZM148.05 15.4C148.04 15.69 147.97 15.98 147.85 16.24C147.73 16.5 147.56 16.73 147.35 16.93C147.13 17.13 146.89 17.28 146.62 17.38C146.34 17.48 146.06 17.52 145.77 17.51C145.48 17.5 145.19 17.43 144.93 17.31C144.67 17.19 144.43 17.02 144.24 16.81C144.04 16.6 143.89 16.35 143.79 16.08C143.68 15.81 143.64 15.52 143.65 15.23C143.66 14.94 143.73 14.66 143.85 14.4C143.97 14.13 144.14 13.9 144.36 13.7C144.57 13.51 144.82 13.36 145.09 13.26C145.36 13.16 145.65 13.11 145.94 13.12C146.23 13.13 146.51 13.2 146.77 13.32C147.04 13.44 147.27 13.61 147.47 13.82C147.66 14.04 147.82 14.29 147.92 14.56C148.02 14.83 148.06 15.11 148.05 15.4ZM121.45 8.59C121.5 8.7 121.53 8.82 121.53 8.95C121.53 9.08 121.51 9.2 121.46 9.32C121.41 9.43 121.34 9.54 121.26 9.63C121.17 9.72 121.06 9.79 120.95 9.84C120.83 9.89 120.71 9.92 120.58 9.92C120.45 9.92 120.33 9.9 120.21 9.85C120.09 9.81 119.99 9.74 119.9 9.65C119.81 9.56 119.73 9.46 119.68 9.34C119.63 9.23 119.6 9.1 119.6 8.98C119.6 8.85 119.62 8.73 119.67 8.61C119.72 8.49 119.78 8.38 119.87 8.29C119.96 8.2 120.07 8.13 120.18 8.08C120.3 8.03 120.42 8.01 120.55 8C120.68 8 120.8 8.02 120.92 8.07C121.04 8.12 121.15 8.19 121.24 8.27C121.33 8.36 121.4 8.47 121.45 8.59ZM145.46 40.23C145.61 40.13 145.77 40.05 145.93 40.02C146.1 39.98 146.28 39.97 146.45 40C146.62 40.03 146.78 40.09 146.93 40.19C147.08 40.28 147.21 40.4 147.31 40.54C147.41 40.68 147.48 40.84 147.52 41.01C147.56 41.18 147.56 41.35 147.53 41.52C147.51 41.69 147.44 41.86 147.35 42C147.26 42.15 147.14 42.28 147 42.38C146.85 42.48 146.69 42.55 146.52 42.59C146.35 42.63 146.18 42.63 146.01 42.6C145.84 42.57 145.67 42.51 145.52 42.42C145.38 42.32 145.25 42.2 145.15 42.06C145.05 41.92 144.98 41.76 144.94 41.59C144.9 41.42 144.9 41.25 144.92 41.08C144.95 40.91 145.02 40.74 145.11 40.6C145.2 40.45 145.32 40.32 145.46 40.23L145.46 40.23ZM148.1 35.08C148.27 34.97 148.47 34.9 148.68 34.86C148.89 34.83 149.1 34.83 149.3 34.88C149.51 34.92 149.7 35.01 149.87 35.13C150.05 35.25 150.19 35.4 150.31 35.58C150.42 35.76 150.5 35.96 150.53 36.16C150.57 36.37 150.56 36.58 150.52 36.79C150.47 36.99 150.38 37.18 150.26 37.36C150.14 37.53 149.99 37.67 149.81 37.78C149.63 37.9 149.43 37.97 149.23 38.01C149.02 38.04 148.81 38.04 148.6 37.99C148.4 37.95 148.2 37.86 148.03 37.74C147.86 37.62 147.71 37.47 147.6 37.29C147.48 37.11 147.41 36.91 147.37 36.71C147.34 36.5 147.34 36.29 147.39 36.08C147.43 35.88 147.52 35.69 147.64 35.51C147.76 35.34 147.92 35.2 148.09 35.09L148.1 35.08ZM149.34 29.3C149.57 29.17 149.82 29.09 150.08 29.06C150.34 29.03 150.6 29.05 150.86 29.12C151.11 29.19 151.35 29.31 151.55 29.47C151.76 29.63 151.93 29.83 152.06 30.06C152.19 30.29 152.27 30.54 152.3 30.8C152.33 31.06 152.31 31.32 152.24 31.57C152.17 31.82 152.05 32.06 151.89 32.26C151.73 32.47 151.52 32.64 151.3 32.77C151.07 32.9 150.82 32.98 150.56 33.01C150.3 33.04 150.03 33.02 149.78 32.95C149.53 32.88 149.29 32.76 149.08 32.6C148.88 32.44 148.7 32.24 148.58 32.01C148.45 31.78 148.36 31.53 148.33 31.27C148.3 31.01 148.32 30.75 148.39 30.5C148.47 30.24 148.59 30.01 148.75 29.8C148.91 29.6 149.11 29.43 149.34 29.3L149.34 29.3ZM150.09 23.27C150.38 23.25 150.67 23.29 150.94 23.38C151.22 23.48 151.47 23.62 151.69 23.81C151.91 24 152.09 24.23 152.22 24.49C152.35 24.75 152.42 25.03 152.44 25.32C152.46 25.6 152.43 25.89 152.33 26.17C152.24 26.44 152.09 26.69 151.9 26.91C151.71 27.12 151.48 27.3 151.22 27.43C150.7 27.69 150.1 27.73 149.55 27.54C148.99 27.36 148.54 26.96 148.28 26.44C148.02 25.92 147.98 25.32 148.16 24.76C148.35 24.21 148.74 23.76 149.26 23.5C149.52 23.37 149.8 23.29 150.09 23.27ZM137.15 47.27C137.38 47.17 137.65 47.16 137.88 47.26C138.12 47.35 138.31 47.54 138.41 47.77C138.51 48 138.51 48.27 138.42 48.5C138.33 48.74 138.14 48.93 137.91 49.03C137.79 49.08 137.67 49.11 137.54 49.11C137.42 49.11 137.29 49.09 137.17 49.04C137.06 48.99 136.95 48.92 136.86 48.84C136.77 48.75 136.69 48.64 136.65 48.53C136.6 48.41 136.57 48.29 136.57 48.16C136.56 48.04 136.59 47.91 136.63 47.79C136.68 47.68 136.75 47.57 136.84 47.48C136.93 47.39 137.03 47.32 137.15 47.27L137.15 47.27ZM110.33 39.2C110.04 39.32 109.73 39.39 109.42 39.39C109.1 39.4 108.79 39.34 108.5 39.23C108.21 39.11 107.94 38.94 107.71 38.72C107.49 38.5 107.3 38.24 107.18 37.95C107.05 37.66 106.99 37.35 106.98 37.04C106.98 36.73 107.04 36.41 107.15 36.12C107.27 35.83 107.44 35.56 107.66 35.34C107.88 35.11 108.14 34.94 108.43 34.81C108.72 34.69 109.03 34.62 109.35 34.62C109.66 34.61 109.97 34.67 110.26 34.78C110.55 34.9 110.82 35.07 111.05 35.29C111.27 35.51 111.45 35.77 111.58 36.06C111.7 36.35 111.77 36.66 111.77 36.97C111.78 37.28 111.72 37.59 111.61 37.89C111.49 38.18 111.32 38.44 111.1 38.67C110.88 38.89 110.62 39.07 110.33 39.2ZM112.63 16.88C112.03 17.31 111.21 17.16 110.78 16.57C110.68 16.43 110.61 16.27 110.57 16.1C110.53 15.93 110.53 15.76 110.56 15.59C110.59 15.42 110.65 15.25 110.74 15.11C110.84 14.96 110.96 14.83 111.1 14.73C111.24 14.63 111.4 14.56 111.57 14.52C111.74 14.48 111.92 14.48 112.09 14.51C112.26 14.54 112.42 14.6 112.57 14.69C112.72 14.78 112.84 14.91 112.94 15.05C113.04 15.19 113.12 15.35 113.15 15.52C113.19 15.68 113.2 15.86 113.17 16.03C113.14 16.2 113.08 16.36 112.98 16.51C112.89 16.66 112.77 16.78 112.63 16.88L112.63 16.88ZM110 22.03C109.82 22.14 109.62 22.21 109.42 22.25C109.21 22.28 109 22.28 108.79 22.23C108.59 22.19 108.39 22.1 108.22 21.98C108.05 21.86 107.9 21.71 107.79 21.53C107.68 21.35 107.6 21.15 107.56 20.95C107.53 20.74 107.53 20.53 107.58 20.32C107.62 20.12 107.71 19.93 107.83 19.75C107.95 19.58 108.11 19.44 108.29 19.33C108.46 19.21 108.66 19.14 108.87 19.1C109.08 19.06 109.29 19.07 109.49 19.11C109.7 19.16 109.89 19.25 110.06 19.37C110.24 19.49 110.38 19.64 110.5 19.82C110.97 20.56 110.75 21.55 110 22.03L110 22.03ZM108.75 27.81C108.52 27.94 108.27 28.02 108.01 28.05C107.75 28.08 107.49 28.06 107.24 27.99C106.98 27.92 106.75 27.8 106.54 27.64C106.33 27.48 106.16 27.28 106.03 27.05C105.9 26.82 105.82 26.57 105.79 26.31C105.76 26.05 105.78 25.79 105.85 25.54C105.92 25.29 106.04 25.05 106.2 24.85C106.36 24.64 106.57 24.47 106.8 24.34C107.02 24.21 107.27 24.13 107.53 24.1C107.79 24.07 108.06 24.09 108.31 24.16C108.56 24.23 108.8 24.35 109.01 24.51C109.21 24.67 109.39 24.87 109.51 25.1C109.64 25.33 109.73 25.58 109.76 25.84C109.79 26.1 109.77 26.36 109.7 26.61C109.63 26.87 109.51 27.1 109.34 27.31C109.18 27.51 108.98 27.68 108.75 27.81ZM108.83 33.61C108.57 33.74 108.29 33.82 108 33.84C107.71 33.86 107.42 33.82 107.15 33.73C106.87 33.63 106.62 33.49 106.4 33.3C106.18 33.11 106 32.88 105.87 32.62C105.74 32.36 105.67 32.08 105.65 31.79C105.63 31.51 105.67 31.22 105.76 30.94C105.85 30.67 106 30.42 106.19 30.2C106.38 29.99 106.61 29.81 106.87 29.68C107.13 29.55 107.41 29.47 107.7 29.45C107.99 29.43 108.28 29.47 108.55 29.56C108.83 29.66 109.08 29.8 109.3 29.99C109.52 30.18 109.7 30.41 109.82 30.67C109.95 30.93 110.03 31.21 110.05 31.5C110.07 31.79 110.03 32.08 109.94 32.35C109.84 32.62 109.7 32.88 109.51 33.09C109.32 33.31 109.09 33.49 108.83 33.61ZM125.26 50.01C125.23 49.84 125.23 49.67 125.26 49.5C125.3 49.33 125.36 49.17 125.46 49.02C125.56 48.88 125.68 48.75 125.82 48.66C125.97 48.56 126.13 48.49 126.3 48.46C126.47 48.43 126.64 48.43 126.81 48.46C126.98 48.49 127.15 48.56 127.29 48.66C127.43 48.75 127.56 48.88 127.65 49.02C127.75 49.16 127.82 49.32 127.86 49.49C127.89 49.66 127.89 49.84 127.86 50.01C127.82 50.18 127.76 50.34 127.66 50.49C127.56 50.63 127.44 50.75 127.3 50.85C127.15 50.95 126.99 51.01 126.82 51.05C126.1 51.19 125.41 50.73 125.26 50.01ZM119.59 48.78C119.54 48.58 119.52 48.37 119.55 48.16C119.58 47.95 119.66 47.75 119.76 47.57C119.87 47.39 120.01 47.23 120.18 47.11C120.35 46.98 120.54 46.89 120.74 46.84C120.94 46.79 121.16 46.78 121.36 46.81C121.57 46.84 121.77 46.91 121.95 47.01C122.14 47.12 122.29 47.26 122.42 47.43C122.55 47.6 122.64 47.79 122.69 47.99C122.74 48.2 122.76 48.41 122.73 48.61C122.7 48.82 122.62 49.02 122.52 49.2C122.41 49.38 122.27 49.54 122.1 49.66C121.93 49.79 121.74 49.88 121.54 49.93C121.33 49.98 121.12 50 120.91 49.97C120.7 49.94 120.5 49.87 120.32 49.76C120.14 49.65 119.98 49.51 119.86 49.34C119.73 49.18 119.64 48.98 119.59 48.78ZM114.27 45.49C114.29 45.23 114.36 44.98 114.49 44.74C114.61 44.51 114.77 44.31 114.97 44.14C115.18 43.97 115.41 43.85 115.66 43.77C115.91 43.69 116.17 43.66 116.43 43.69C116.7 43.71 116.95 43.78 117.18 43.91C117.41 44.03 117.62 44.19 117.79 44.39C117.96 44.6 118.09 44.83 118.17 45.08C118.24 45.33 118.27 45.59 118.25 45.85C118.22 46.11 118.15 46.36 118.03 46.6C117.9 46.83 117.74 47.03 117.53 47.2C117.33 47.36 117.1 47.49 116.85 47.57C116.6 47.65 116.34 47.67 116.08 47.65C115.82 47.63 115.56 47.56 115.33 47.43C115.1 47.31 114.89 47.15 114.72 46.95C114.55 46.75 114.43 46.51 114.35 46.26C114.27 46.01 114.24 45.75 114.27 45.49ZM110.17 42.55C110.07 42.28 110.03 41.99 110.04 41.7C110.05 41.42 110.12 41.13 110.24 40.87C110.36 40.61 110.53 40.38 110.75 40.18C110.96 39.99 111.21 39.83 111.48 39.73C111.75 39.63 112.04 39.59 112.32 39.6C112.61 39.61 112.9 39.68 113.16 39.8C113.42 39.92 113.66 40.09 113.86 40.3C114.05 40.51 114.21 40.76 114.31 41.03C114.41 41.3 114.45 41.59 114.44 41.88C114.43 42.16 114.36 42.45 114.24 42.71C114.12 42.97 113.95 43.21 113.74 43.4C113.52 43.6 113.27 43.75 113 43.85C112.73 43.95 112.44 44 112.15 43.98C111.87 43.97 111.58 43.91 111.32 43.79C111.06 43.67 110.82 43.49 110.62 43.28C110.43 43.07 110.27 42.82 110.17 42.55ZM142.04 44.3C142.18 44.27 142.31 44.26 142.45 44.27C142.58 44.29 142.71 44.33 142.83 44.39C142.95 44.46 143.06 44.55 143.14 44.65C143.49 45.1 143.42 45.75 142.97 46.1C142.86 46.18 142.74 46.25 142.61 46.28C142.48 46.32 142.34 46.33 142.21 46.32C142.07 46.3 141.94 46.26 141.82 46.19C141.71 46.13 141.6 46.04 141.52 45.93C141.43 45.83 141.37 45.71 141.33 45.58C141.3 45.45 141.29 45.31 141.3 45.18C141.32 45.04 141.36 44.91 141.43 44.79C141.49 44.68 141.58 44.57 141.69 44.49C141.79 44.4 141.91 44.34 142.04 44.3ZM132 48.65C132.13 48.63 132.27 48.64 132.4 48.67C132.53 48.7 132.66 48.76 132.77 48.84C132.88 48.92 132.97 49.02 133.04 49.14C133.11 49.26 133.15 49.38 133.17 49.52C133.26 50.08 132.87 50.6 132.3 50.68C132.03 50.72 131.76 50.64 131.55 50.48C131.34 50.32 131.2 50.08 131.16 49.81C131.12 49.55 131.19 49.28 131.34 49.06C131.5 48.84 131.73 48.7 132 48.65L132 48.65ZM126.97 7.29C127.05 7.86 126.66 8.38 126.09 8.46C125.53 8.54 125.01 8.16 124.92 7.59C124.9 7.46 124.91 7.32 124.94 7.19C124.98 7.06 125.03 6.94 125.12 6.83C125.2 6.72 125.3 6.63 125.41 6.56C125.53 6.49 125.66 6.44 125.79 6.42C125.93 6.4 126.06 6.41 126.2 6.44C126.33 6.48 126.45 6.53 126.56 6.62C126.67 6.7 126.76 6.8 126.83 6.91C126.9 7.03 126.95 7.16 126.97 7.29L126.97 7.29ZM116.41 12.62C116.3 12.71 116.18 12.77 116.05 12.81C115.92 12.84 115.78 12.85 115.64 12.84C115.51 12.82 115.38 12.78 115.26 12.71C115.14 12.65 115.04 12.56 114.95 12.45C114.6 12.01 114.68 11.36 115.12 11.01C115.23 10.92 115.35 10.86 115.48 10.82C115.61 10.79 115.75 10.78 115.88 10.79C116.02 10.81 116.15 10.85 116.27 10.92C116.39 10.98 116.49 11.07 116.58 11.18C116.93 11.62 116.85 12.27 116.41 12.62Z" />
</svg>