<svg width="230" height="160" viewBox="0 0 230 160" xmlns="http://www.w3.org/2000/svg"><g fill="none" fill-rule="evenodd"><path d="M52.677 89.976c-4.99-.257-8.956-4.4-8.956-9.473 0-5.239 4.23-9.485 9.448-9.485 5.219 0 9.45 4.246 9.45 9.485a9.476 9.476 0 0 1-.938 4.124l-5.557-1.85c-.475-.158-.763-.798-.643-1.429l1.784-9.362a9.18 9.18 0 0 0-.64-.28l-2.197 5.636c-.271.692-1.055 1.198-1.754 1.13l-8.486-.83a9.888 9.888 0 0 0-.217.799l7.514 1.837c.655.16 1.187.824 1.187 1.48l.005 8.218zm.806.007a9.441 9.441 0 0 0 7.86-4.718l-5.977-1.18c-.77-.152-1.446.397-1.513 1.225l-.37 4.673zm30.858-3.35l.023-12.688c.003-1.2.028-2.184.308-2.998l.046-.132h-.14l-2.161-.003c-5.832 14.378-5.83 14.383-6.277 15.481-.176-.448-6.133-15.476-6.133-15.476l-2.534-.002.052.135c.146.398.298.807.294 2.997l-.02 12.67c-.002 1.198-.026 2.19-.307 3.006l-.046.131 2.751-.002-.028-.124c-.247-1.046-.253-1.391-.291-3.053l-.033-1.349-.245-10.91 6.047 15.628.75.001 6.217-15.611-.315 11.534c-.06 2.592-.087 2.874-.366 3.761l-.04.13 2.794.006-.05-.136c-.148-.395-.3-.806-.296-2.997zm17.578 3.12l-.062-.135c-.183-.507-.295-.812-.288-4.616l.01-5.222c.247-.364 1.094-1.449 2.508-1.543.412-.027.968.05 1.49.204l.126.039.012-1.838-.05-.03c-.433-.247-1.04-.314-1.33-.314-1.342-.003-2.304.97-2.771 1.572l-.1-1.545-2.114.963.028.086c.22.663.329.995.32 5.275l-.004 2.377c-.007 3.804-.12 4.108-.307 4.613l-.042.127 2.574-.013zm7.695-13.413l-.14.06-2.122.9.096.338.148.607c.077.547.08 1.052.098 3.857l.004.534-.004 2.36c-.008 3.757-.114 4.091-.274 4.599l-.051.16 2.537-.004-.047-.143c-.162-.49-.27-.815-.262-4.616l.017-8.652zm20.86 11.775c-.916.193-2.633.19-3.197.189l-3.046-.062-.562.024-.297.018 8.318-11.74h-.193l-9.771.003c-.366-.002-.435.196-.545.606l-.292 1.298.166-.055c1.02-.33 2.062-.328 5.949-.32.886 0 1.15.002 1.69-.037l-8.487 11.714 9.302.018c.996.002 1.319-.017 1.49-.423l.717-1.662-.232.1c-.46.2-.669.275-1.01.329zm-18.762-11.582l-.008 1.72 2.4.004c-.002.195-.016 8.235-.016 8.235-.002 1.153-.008 3.553 2.83 3.558 1.037.002 1.77-.297 2.117-.474l.052-.03.005-1.703-.159.115c-.794.575-1.417.574-1.65.572-1.088 0-1.295-.786-1.292-2.23l.015-8.04 2.824-.003.004-1.718-2.818-.002.001-3.93-.144.074-1.761.894-.003 2.964-2.397-.006zm-15.094 8.521l.006-3.789c.007-3.349-1.474-4.91-4.657-4.918-1.073-.002-2.652.49-3.52 1.1l-.043.028-.003 2.073.133-.098c.823-.68 1.854-1.44 3.055-1.438 2.019.004 3.103.865 3.1 3.122 0 0 0 .415-.002.559h-.193c-2.713-.006-7.762-.015-7.77 4.614-.002.625.195 3.745 4.192 3.752 1.351.004 3.092-.688 3.907-2.178.005.673.056 1.138.201 1.803l.016.071 2.043.002-.08-.136c-.188-.53-.392-.846-.385-4.567zm-1.935-1.518c-.002 1.246-.24 4.883-3.642 4.908-1.507.01-2.321-.768-2.319-2.183.006-2.702 3.213-3.007 5.623-3.001h.34l-.002.276zm13.983-12.982a1.2 1.2 0 0 0-1.225 1.2c-.002.65.558 1.202 1.22 1.203.69.002 1.254-.537 1.255-1.199.002-.673-.548-1.202-1.25-1.204zm25.018 5.981a1.14 1.14 0 0 1 0 2.28 1.14 1.14 0 0 1 0-2.28zm3.643.264h7.696v1.076h-3.224V89.52h-1.307V77.875h-3.165V76.8zm10.477 0h3.302c1.193 0 2.15.254 2.875.761.724.508 1.087 1.281 1.087 2.32 0 .785-.228 1.465-.684 2.04-.455.574-1.164 1.007-2.128 1.299.662.157 1.152.43 1.47.816.317.385.558.953.722 1.7l.806 3.785h-1.425l-.542-3.064c-.178-.973-.474-1.675-.89-2.107-.416-.432-1.016-.647-1.802-.647h-1.484v5.818h-1.307V76.798zm1.307 1.112v4.76h1.366c.97 0 1.752-.238 2.349-.715.597-.478.895-1.124.895-1.939 0-.704-.213-1.232-.64-1.581-.425-.35-1.064-.525-1.916-.525h-2.054zm11.53-1.113h1.313l3.827 12.722h-1.495l-1.165-4.396h-3.639l-1.163 4.396h-1.457l3.779-12.722zm.633 1.551l-1.52 5.745h3.07l-1.55-5.745zm4.578-1.55h1.46l3.043 11.08 2.895-11.08h1.474l-3.738 12.72h-1.327l-3.807-12.72zm11.456 0h6.664v1.076h-5.327v4.478h5.032v1.057h-5.032v5.052h5.327v1.058h-6.664V76.799zm10.074 0h1.336v11.644h5.102v1.077h-6.438V76.799zM60.311 88.707a1.005 1.005 0 0 1 0 2.011 1.005 1.005 0 0 1 0-2.01zm-4.068-3.546c.346.475.271 1.12-.167 1.444-.439.322-1.075.2-1.422-.274-.346-.474-.271-1.12.168-1.443.437-.323 1.074-.2 1.42.273z" opacity=".301" fill="#D4E1ED"/></g></svg>