<?xml version="1.0" encoding="UTF-8"?>
<svg width="230px" height="160px" viewBox="0 0 230 160" version="1.1" xmlns="http://www.w3.org/2000/svg" xmlns:xlink="http://www.w3.org/1999/xlink">
    <!-- Generator: Sketch 52.4 (67378) - http://www.bohemiancoding.com/sketch -->
    <g id="03-what-we-do-(SRC)" stroke="none" stroke-width="1" fill="none" fill-rule="evenodd" opacity="0.301">
        <g id="Group-2" fill="#D4E1ED">
            <g id="Group-14" transform="translate(35.000000, 54.000000)">
                <path d="M138.835775,32.5362968 C139.908729,31.5095541 142.415435,28.7550914 142.231044,25.6232352 L142.230318,25.5926947 C142.308721,22.490652 140.307276,19.3958807 137.248848,17.8921244 L137.184964,17.8514037 C136.646309,17.4274724 136.044496,17.1147958 135.406386,16.7839404 C134.884428,16.5127116 134.343595,16.2320298 133.844867,15.8851769 C133.285159,15.4917861 132.991876,15.1078483 132.949044,14.7115489 C132.927992,14.5246701 132.956304,14.2447155 133.209661,13.9669423 C133.231439,13.9436734 133.763561,13.3619494 134.203486,13.3321361 C135.124717,13.3066857 135.514553,13.6520842 135.979161,14.0549281 C136.088053,14.148731 136.204931,14.2498056 136.338506,14.355243 C136.996217,14.8286209 137.971894,15.2583694 138.697118,15.3914387 C139.884773,15.4641542 140.402375,15.0482216 141.301828,14.1778172 L142.521424,8.07262475 L142.394383,7.95046273 C141.564622,7.14768372 140.909089,6.51360466 139.827423,6.15148152 C138.466266,5.41705508 136.802388,5.2199961 135.345406,5.09056253 C132.268829,4.86878029 129.765027,5.20109008 127.704054,6.11003369 C123.089915,8.37730265 120.531666,12.669698 121.201718,17.0384446 C121.513877,19.9848762 123.301166,22.11035 126.996979,23.9464161 L127.428919,24.1442022 C128.218027,24.5012352 129.033995,24.8706299 129.68735,25.5396124 C129.88989,25.7650304 129.955952,26.0195347 129.885535,26.2674945 C129.704047,26.9088451 128.662309,27.2484264 128.456139,27.3095074 C127.312041,27.6250927 125.158873,27.9726727 123.516047,26.7830473 C123.070314,26.4311043 122.700079,25.9715424 122.342186,25.5257965 C121.745455,24.7833713 121.182118,24.082394 120.373409,23.9195113 L120.249272,23.8700648 C119.16325,23.1741776 118.300821,23.499943 117.048557,24.1558367 C116.304458,26.4689164 115.564715,28.7950849 115.268527,31.2012404 C115.203192,31.8556798 115.161812,32.5413869 115.121885,33.2300026 L115.335315,33.3550732 C116.105548,33.809545 116.833676,34.2385664 117.64674,34.5548788 C118.291384,34.861011 118.922235,35.0755217 119.590835,35.3031212 C119.860888,35.3947427 120.132394,35.4870914 120.406077,35.5852573 C124.711687,36.6527207 132.883709,37.691825 138.835775,32.5362968 Z M113.103744,18.7421685 C114.38795,18.5931017 114.644936,18.692722 115.649651,19.1820972 C115.654007,19.1842787 115.659088,19.1864601 115.66417,19.1893688 L115.66417,19.1879144 L116.643477,19.6307518 L120.07214,9.73562799 C120.183936,8.88994685 120.022049,7.69377705 118.531673,7.18476862 C117.884126,6.81464678 117.239482,6.76229163 116.433677,6.98480103 C114.702286,7.53962021 113.004288,8.41293324 111.429702,9.27243032 L111.078343,9.46512637 L110.921537,9.09500453 C110.660195,8.47619571 110.193409,8.2282359 109.138604,8.14897601 L99.5865507,9.12336357 C99.1546103,9.16990148 98.8939942,9.29497212 98.4649576,9.57056383 C97.205434,11.0423253 97.9074278,11.9439974 99.1524325,13.2855982 L99.2780218,13.4201218 L99.2431762,13.6011834 L94.988382,35.9321102 C94.8903788,36.5429203 95.0195979,37.0228425 95.383299,37.3987816 C96.4627869,38.5142372 99.2874592,38.4829695 100.783643,38.2851834 L107.964742,37.5522113 C108.729168,37.1188269 109.21265,36.5094711 109.3651,35.7881335 C109.521179,35.0493441 109.305572,34.2429293 108.756754,33.5114115 C108.565829,33.3623448 108.373452,33.2241853 108.181801,33.0874802 C107.973453,32.9376863 107.765106,32.7886196 107.556758,32.6242826 L107.391967,32.4941218 L109.085609,20.8720052 C109.677259,19.566035 111.889955,18.9188671 113.103744,18.7421685 Z M94.5571676,13.4652054 C94.7713229,11.8923694 94.4105257,11.0226921 93.2642503,10.3951575 C93.1052672,10.3500739 92.9056309,10.2686325 92.7118022,10.1900998 C92.3161593,10.0286714 91.9735108,9.88978483 91.5168881,9.86288009 L84.5303433,10.4409682 C84.3575672,10.63221 84.184791,10.7776409 84.0170965,10.918709 C83.8704546,11.0423253 83.7216348,11.1659417 83.5735409,11.32737 L83.3993129,11.5171575 L83.1626531,11.4139015 C82.9906029,11.3390045 82.8192787,11.2604718 82.6479544,11.1819391 C82.4831637,11.1070421 82.319099,11.0321452 82.1550342,10.9601568 C81.1154735,10.5769462 80.0047697,10.3878859 78.8744652,10.3878859 C76.8708426,10.3878859 74.8055143,10.97979 72.9703122,12.1279676 C67.2440169,15.9717084 63.4857727,22.3001374 62.6683527,29.4844277 C62.3518384,33.8240881 63.0668994,36.879593 64.8563667,38.8123707 C65.2977444,39.2377563 65.6708828,39.5547958 66.0527326,39.8267518 C69.0284025,41.8111575 72.4723103,42.208184 75.7390863,40.9363901 C76.4643105,40.6346209 77.1735639,40.2623176 77.90024,39.8005742 L78.0243775,39.7220415 L78.6828144,39.8602009 L91.3085404,39.2413921 L91.6722415,37.7470888 C91.8442917,36.396035 91.3499196,35.5016345 89.9038268,34.5963266 L89.6831379,34.4588944 L94.5571676,13.4652054 Z M61.3427676,8.60708359 C61.5017507,7.48144782 60.8295208,6.50851457 59.6738081,6.17038755 L59.5525744,6.10857938 C59.2825209,5.89843162 58.8694553,5.77481529 58.3242667,5.74136616 L51.4045093,6.53251068 L44.2524478,17.9073947 L43.5831217,17.6907025 L44.0542634,9.99449513 C44.0397444,8.91248865 43.286934,7.94828126 42.2640702,7.72868048 L42.1464662,7.68068826 C41.7348525,7.42109396 41.2687924,7.2931147 40.6814987,7.2785716 L35.1062011,8.14970317 L14.2249692,40.7626001 C14.1218843,41.0258302 13.9135366,41.2686999 13.7124484,41.503571 C13.6543724,41.5711964 13.5955704,41.6395489 13.5396722,41.7086286 C12.5901294,42.9229773 12.4042861,43.9097265 12.8993842,45.1095321 C13.3545549,45.897768 14.4333169,46.9441439 14.8471086,46.9405081 L27.8241945,45.2920479 L28.049965,43.7199391 C28.0594024,42.5593999 27.6238323,41.7791627 26.5886273,41.1581724 L26.2670313,40.9662035 L30.3127519,34.6523176 L30.980626,34.8682826 L30.6125693,41.8853273 C30.5603009,43.2240194 31.0815331,44.0297071 32.3541238,44.5699831 L33.226716,44.8768425 C33.9221763,44.9851886 34.6967652,44.8986571 35.5149111,44.8063085 C36.1479396,44.7343201 36.8034727,44.6601503 37.45465,44.6943266 C38.9442999,44.6456072 39.9613561,43.9249967 40.9341294,42.2045483 C42.0462851,40.1685146 43.3355727,38.198652 44.5820292,36.292779 C45.1308475,35.4536422 45.6803919,34.6137783 46.2154172,33.7680972 L46.8840173,33.9898794 L46.4128756,40.4012041 C46.4012604,41.1792599 46.6567949,41.9849475 47.0350149,42.3390719 C47.5809295,42.8364459 48.7097821,43.334547 49.5046976,43.3490901 L50.5297393,43.2676487 C52.9340864,43.0793156 55.4204658,42.8837109 57.8502212,42.6124822 C59.6774379,42.4030616 60.1601948,42.179825 60.3271633,40.6157148 C60.3649127,39.3213791 59.8320653,38.4131627 58.6487664,37.7849008 L58.4324333,37.6707375 L61.3427676,8.60708359 Z M142.578048,20.9483564 C145.58203,22.4259352 147.849899,25.5425211 147.761333,28.9994154 C147.923945,31.7175204 146.127219,34.3912689 144.241926,36.208429 C139.058641,40.6840674 131.812932,40.9065768 125.451431,39.3097446 C124.509873,38.9854336 123.581383,38.7192949 122.683383,38.2764575 C121.03475,37.6343798 118.853995,36.2484225 116.876507,35.0137135 C116.213714,34.7119443 115.581412,34.3432767 114.967258,33.9818807 L114.371979,33.6328464 L113.360004,32.8947842 L112.949842,35.7350512 C113.362182,36.0608166 113.775248,36.3262281 114.186861,36.6367233 C115.468163,38.320814 115.114626,40.2855865 113.244578,41.3050577 C110.96219,41.954407 107.103765,42.4423279 104.806133,42.4277848 C103.142255,42.3979715 100.962952,42.7673662 99.2257534,42.4125146 C98.1658661,42.1907323 97.2526208,41.644639 96.7371961,41.3050577 C96.3981774,41.6737252 96.1629695,41.9994906 95.3375641,42.9891484 L80.3031352,43.6530408 C76.4744738,45.6476267 72.9841052,45.8395956 68.7285851,44.5248995 C66.9616223,43.7424809 67.2265941,43.5061555 66.1362169,42.7230097 C66.3285937,45.470928 65.3855844,45.883952 63.0589139,46.3711458 C60.2756208,46.6816409 57.4923277,46.8881529 54.6799966,47.1099352 C50.7925332,46.8881529 49.0843724,45.2935023 47.4350135,43.7424809 C46.1537114,45.8395956 45.5061638,48.3664588 42.6045408,48.4399015 C41.1765967,48.3664588 39.7043697,48.8529255 38.2756997,48.6166001 C35.6223517,47.6320324 34.9820636,46.6758237 33.2913256,45.6032702 C33.285518,45.6025431 33.2797104,45.6025431 33.2739028,45.6018159 C33.809654,46.7049099 33.474265,47.8530875 33.3131041,49.0158082 L20.0449121,50.6998989 C18.7686916,50.7827945 16.4790446,49.2550421 14.6619913,47.6320324 C13.6921218,47.4560609 12.5777882,46.0032054 12.2496587,45.4294802 C11.6340529,43.9475385 11.8634532,42.6735632 12.9712532,41.2570654 C13.0344109,41.1785327 13.0975686,41.1036358 13.1614522,41.0301931 C13.3335024,40.8287712 13.4953893,40.6404381 13.5839552,40.4266546 L34.6713569,7.48144782 L40.6350379,6.55577964 C41.3958337,6.56886843 41.9657046,6.72157096 42.4789514,7.0320661 C43.3776778,7.24657679 44.1021761,7.89592611 44.4840259,8.73506286 C45.6513538,9.46585352 46.9014401,10.3820687 47.5083345,10.7703694 C47.6157751,10.7950927 47.71886,10.8292689 47.8197671,10.8692625 L50.9761986,5.84971224 L58.3061179,5.01711989 C59.0364238,5.05638625 59.5547523,5.21272455 59.9409578,5.49195203 C60.9311539,5.80026571 61.628792,6.47942838 61.9278835,7.33165391 C63.1133602,8.03117692 64.4687093,8.85286195 64.9442066,9.20480492 C66.2102638,9.5887427 67.0647072,10.6816565 66.8730563,12.040709 L66.3060892,17.7176072 C67.9931975,15.2874556 70.1028088,13.1765249 72.5761212,11.5171575 C75.6490684,9.59601425 79.3223765,9.13645236 82.4163763,10.2817213 L82.435251,10.2889929 C82.6065753,10.3638898 82.7778995,10.4424225 82.9499497,10.5209553 C83.0414194,10.5631303 83.1336151,10.6053052 83.2250848,10.6467531 C83.3339774,10.5442242 83.4421439,10.4526027 83.5503105,10.3624355 C83.7339759,10.2075515 83.907478,10.0613934 84.0715428,9.85997148 L84.1695461,9.74144523 L91.5089027,9.13717951 C92.1361237,9.17135579 92.568064,9.34660012 92.9847595,9.51602721 C93.1640692,9.5887427 93.3477346,9.66363965 93.5510006,9.7305379 C94.3778579,10.1799196 94.8446439,10.7303759 95.0929189,11.3215528 C96.0025345,11.8850979 96.8678671,12.4617317 98.0598774,13.1561646 C97.1502618,12.0814297 96.4526236,10.7710966 97.9509849,9.05428385 L98.0272096,8.98811276 C98.4751209,8.6972508 98.8693119,8.46965132 99.5103259,8.39984445 L109.12844,7.42472974 C110.041686,7.48871937 110.899033,7.66541801 111.405746,8.458744 C112.920804,7.63924043 114.543303,6.82700842 116.226055,6.28818664 C117.233674,6.00823201 118.080858,6.08749189 118.831491,6.52669345 C119.714246,6.82337264 120.327674,7.40655087 120.620232,8.191151 C121.196637,8.67034607 121.684475,9.13645236 122.294273,9.72181205 C123.500077,7.99700064 125.235824,6.51360466 127.398429,5.45123136 C129.583539,4.48629682 132.20059,4.13289954 135.403482,4.36631626 C136.939593,4.50156707 138.690585,4.71098768 140.116351,5.4875891 C141.295294,5.87588982 142.037941,6.59504601 142.898918,7.4269112 L143.311258,7.82466493 L143.269153,8.03553985 C143.913071,8.4667427 144.546825,8.88558392 145.111614,9.19026182 C146.141738,9.88396759 147.113059,10.416245 148.085106,11.3462761 L146.80453,17.7430577 C145.833209,18.688359 145.213973,19.2351795 143.800548,19.1464666 C142.990388,18.9835839 141.959539,18.5262035 141.282227,18.0382826 C140.354463,17.2994932 139.662632,16.5316176 138.646302,17.6099883 C138.591855,17.6688879 138.554832,17.7270603 138.527246,17.7852327 C139.460818,18.3814997 140.277512,19.1217433 140.947564,19.9594258 C141.513805,20.2531964 142.074965,20.55642 142.578048,20.9483564 Z M80.3893781,19.663401 L80.4750402,19.9622617 C81.0311181,21.9015838 80.2579811,24.268473 79.6372937,26.169983 L79.4267681,26.8200595 C78.6064444,28.9026311 77.3868481,31.3255112 75.1342246,31.7930718 L74.8423926,31.8541528 L74.7262405,31.5792883 C74.3175306,30.6128994 74.5106333,29.3643745 74.6659867,28.3609007 L74.7168032,28.0307724 C74.9157135,26.8935021 75.1697961,25.9474736 75.5168003,25.0428929 L75.521156,25.0327128 C76.3596285,23.0366726 77.6387528,21.4042098 79.5480018,19.8946363 L79.6104335,19.8553699 C79.7810318,19.7695656 79.9349333,19.7201191 80.0815752,19.7019402 L80.3893781,19.663401 Z M81.0391036,27.418508 C81.849264,24.8487426 83.0420002,21.5540037 81.893547,18.8213557 C81.1567075,17.3445041 78.977405,17.2848774 77.7701498,18.1123796 C77.5639799,18.2745352 77.35781,18.4374179 77.1661592,18.5995734 C73.5581866,21.5838171 72.4685354,24.9221852 72.0561957,28.423436 C71.7767048,30.2107827 71.9828747,32.3522539 73.4115447,33.2095695 C73.6322336,33.563694 74.1919412,33.2830122 74.3393091,33.563694 C75.4282344,33.563694 76.3567247,33.2830122 77.1661592,32.8110886 C79.0659709,31.6738184 80.2289431,29.44218 81.0391036,27.418508 Z M91.3918795,11.5832559 C92.0249081,11.5388994 92.172276,11.9228372 92.0387012,12.809239 L87.0470675,34.36211 C87.1799164,35.7953323 89.5356248,35.7211625 89.1087661,37.2278275 L78.948367,37.7295643 L78.9926499,35.765519 C78.4329423,36.2672559 77.8144327,36.784263 77.1661592,37.2721839 C75.6496492,38.4094542 73.9117244,39.3700258 72.1302426,39.5176382 C69.4797984,39.8717627 66.8431472,39.0151742 65.2678352,36.577751 C62.1905323,28.8815436 66.8141092,18.4221476 73.2641768,14.0206791 C74.2507431,13.2077199 75.6641682,12.5721865 77.1661592,12.2769616 C78.8155181,11.9519234 80.6122448,12.0559065 82.0409149,12.809239 C82.5410945,13.1633634 83.1893681,13.3851457 83.5421799,13.8876097 C84.1904534,15.2757484 84.5730292,13.1335501 84.750161,12.5874568 C84.9708499,12.2326052 85.1770198,12.3809448 85.3977086,12.0849927 L91.3918795,11.5832559 Z M58.2730146,7.46152378 C58.6265523,7.43171043 58.8770052,7.71239221 58.8182032,8.02288735 L55.8432592,37.6559036 C55.7546933,39.118212 58.0378067,38.5423054 57.7728349,40.2998387 C57.1986083,40.624877 56.2265609,40.5361641 55.3430795,40.7288601 L48.5982761,41.2596832 C48.2454643,41.2894966 48.0828515,40.9506424 48.1126154,40.4925348 L49.3496346,23.9766657 L39.2030285,39.9457143 C38.5845189,40.8764726 38.0400563,42.7379891 36.4792633,42.6049198 L32.9300927,42.8405179 C32.546791,42.8557882 32.2818192,42.6492762 32.3261022,41.9548433 L33.1950646,25.3509885 L23.623411,40.2263961 C22.4604388,42.2646113 25.8324775,41.7177908 25.4789398,43.3873384 L14.773352,44.7463909 C13.4920499,43.5938504 15.4216256,42.5314771 15.7744374,41.526549 L36.1257256,9.72152118 L40.6614625,9.01254516 C41.1028402,8.95364562 41.5304249,9.26414076 41.5151799,9.60299494 L40.4110097,27.2117778 L52.4124185,8.1414136 L58.2730146,7.46152378 Z M117.55919,8.99785663 L117.235417,9.94315799 L114.82018,16.8860329 C114.393322,16.6795209 114.01002,16.6351645 113.464831,16.6053511 C110.505132,16.4722818 107.01549,18.1563725 106.543622,20.2542144 L104.894989,31.6290984 C104.615498,33.1503064 105.675385,33.6229571 106.470301,34.2883038 C106.986452,34.5391723 107.074292,35.5288301 106.322933,35.6473563 L98.1799496,36.429775 C97.6057229,36.5773874 96.8986474,36.5039448 96.7520055,35.7949688 L101.110611,12.9419448 C100.609705,12.2627821 100.09428,11.849031 99.6078936,11.1691411 C99.4314877,10.9924425 99.5643366,10.8295598 99.7697805,10.8295598 L108.826735,9.8689882 C109.268113,9.839902 109.400962,10.5190647 109.326915,11.1102416 L109.032905,13.163727 C109.297877,12.9274017 109.474283,12.764519 109.680453,12.6176337 C112.066651,10.7110336 114.230709,9.30835177 117.16137,8.5695624 L117.235417,8.5695624 C117.485143,8.5695624 117.603473,8.83497394 117.55919,8.99785663 Z M135.465478,18.969259 C137.748592,20.0476297 139.824083,22.4108831 139.677441,25.2766005 C139.824083,27.0639472 138.897045,28.2753873 138.042602,29.64971 C134.184176,34.5689129 126.335928,35.2044463 120.047748,33.5639848 C119.090219,33.2244035 118.280059,33.0324346 117.235417,32.471071 C117.117813,32.4121715 117.014002,32.3525448 116.896398,32.2791021 C116.939955,31.4370568 117.072804,30.6095545 117.235417,29.7827794 C117.543945,28.2608442 118.000568,26.7839926 118.472436,25.3507703 C119.473521,24.7748636 119.827059,26.0597463 120.475332,26.5622104 C121.755909,28.4229997 124.36207,29.3392149 126.615419,29.353758 C128.809241,29.1319758 130.753335,28.7778513 131.607779,26.635653 C131.901789,24.7006938 130.532647,23.9771747 129.324665,23.1198591 C126.615419,21.908419 123.184579,20.4017541 122.889843,16.8125176 C122.182767,12.8088027 124.96606,9.64786039 127.676033,8.08229591 C130.120307,6.44183447 134.861488,6.54581762 137.541696,7.15153765 L137.498139,7.15153765 C138.425177,7.37259273 139.073451,7.53547543 139.824083,8.2888079 L138.897045,12.9418721 C137.748592,14.1678552 136.74678,12.0111138 135.745695,11.730432 C134.817205,11.4504774 133.256412,10.8738435 132.182006,11.5828196 C131.254241,12.1594534 130.326477,13.0160419 130.399798,14.3161948 C130.606694,17.1077424 133.830638,17.6102065 135.465478,18.969259 Z" id="Shape"></path>
            </g>
        </g>
    </g>
</svg>