<?xml version="1.0" encoding="UTF-8"?>
<svg width="230px" height="160px" viewBox="0 0 230 160" version="1.1" xmlns="http://www.w3.org/2000/svg" xmlns:xlink="http://www.w3.org/1999/xlink">
    <!-- Generator: Sketch 61.2 (89653) - https://sketch.com -->
    <title>logo_clients_mayday_active</title>
    <desc>Created with Sketch.</desc>
    <g id="03-what-we-do-(SRC)" stroke="none" stroke-width="1" fill="none" fill-rule="evenodd">
        <g id="Group-2">
            <path d="M39.6592284,84.4439933 C39.6159415,84.2622658 39.5672413,84.0235676 39.5131276,83.7278988 C39.5074018,83.6966138 39.5045212,83.6648737 39.5045212,83.6330681 C39.5045212,83.3424234 39.7399098,83.1068094 40.0302763,83.1068094 L43.2565531,83.1067974 C43.4984261,83.1067974 43.7090928,83.2719756 43.7670137,83.5070361 L43.7670224,83.507034 C43.8498204,83.843053 43.9224924,84.1067268 43.9850385,84.2980553 C44.1541263,84.8152951 44.3647194,85.3234847 44.617354,85.8177944 C45.1128072,86.7872078 45.7594863,87.6788798 46.546024,88.4669709 L53.9807373,95.916368 L61.4154506,88.4669709 C65.5229529,84.3513561 65.5229529,77.6777414 61.4154506,73.5621266 C60.763858,72.9092471 60.0412355,72.3524339 59.2617428,71.8980993 C58.5976247,71.5110119 57.8961275,71.2007967 57.1705552,70.9701264 C57.0031821,70.9169159 56.7743275,70.854569 56.4839911,70.7830857 C56.2489949,70.7252275 56.0838062,70.5142812 56.0838062,70.2720486 L56.0838053,67.0438553 C56.0838053,67.0116343 56.0867616,66.9794816 56.0926369,66.9478019 C56.1456349,66.6620361 56.4200356,66.4733817 56.7055278,66.5264306 L56.7055289,66.5264247 C57.0400148,66.5885773 57.3078367,66.6444412 57.5089946,66.6940165 C58.8592882,67.0267958 60.1628845,67.5514018 61.3782939,68.2598145 C62.4708804,68.8966387 63.4824022,69.6760619 64.3911478,70.5866023 C70.1392352,76.3460424 70.1392352,85.6830551 64.3911478,91.4424952 L55.4685859,100.382679 C54.6471143,101.205774 53.3143603,101.205774 52.4928887,100.382679 L43.5703268,91.4424952 C42.4730133,90.3430145 41.5672565,89.0941139 40.872769,87.7352662 C40.3311298,86.6754842 39.9275147,85.5703176 39.6592284,84.4439933 Z M81.3925038,97.1023079 C81.2857068,97.0365237 81.2323089,96.9501833 81.2323089,96.843284 C81.2323089,96.7774999 81.2549006,96.7034938 81.3000834,96.6212636 L82.0271208,95.3138099 C82.0928423,95.1986876 82.185261,95.1411274 82.3043809,95.1411274 C82.3618867,95.1411274 82.4296607,95.1575732 82.5077045,95.1904652 C82.9143548,95.3754832 83.3066222,95.5204117 83.6845193,95.6252553 C84.0624159,95.7300988 84.4608448,95.7825197 84.8798175,95.7825197 C85.1919932,95.7825197 85.4559009,95.7218759 85.671549,95.6005863 C85.8871965,95.4792968 85.9950187,95.3158667 85.9950187,95.1102912 C85.9950187,94.9581653 85.934433,94.8286547 85.8132595,94.7217554 C85.6920859,94.6148562 85.5195702,94.5182371 85.2957076,94.4318954 C85.0718444,94.3455537 84.7565929,94.2427675 84.3499432,94.1235337 C83.7132688,93.9344043 83.1957221,93.7319154 82.7972875,93.5160611 C82.3988523,93.3002069 82.0938696,93.0257676 81.8823293,92.6927353 C81.6707896,92.359703 81.5650211,91.9403353 81.5650211,91.4346195 C81.5650211,90.8590081 81.7169988,90.3635786 82.0209594,89.9483161 C82.32492,89.5330536 82.7295103,89.2195556 83.2347419,89.0078128 C83.7399735,88.7960701 84.288327,88.6902003 84.8798175,88.6902003 C85.2536068,88.6902003 85.6304713,88.7333704 86.0104221,88.8197121 C86.3903729,88.9060539 86.7364306,89.0150072 87.0486064,89.1465756 C87.3607821,89.2781439 87.6154478,89.4097102 87.8126115,89.5412786 C87.9358387,89.6235088 87.9974518,89.7160164 87.9974518,89.8188041 C87.9974518,89.8804768 87.9707528,89.9585943 87.9173543,90.053159 L87.1841559,91.3852816 C87.1266496,91.4921809 87.0424459,91.5456297 86.9315412,91.5456297 C86.8576047,91.5456297 86.7672395,91.5189053 86.6604426,91.4654557 C86.3154064,91.2886608 85.9981007,91.1540108 85.7085167,91.0615019 C85.4189326,90.9689929 85.0913582,90.9227391 84.725784,90.9227391 C84.4670073,90.9227391 84.2431478,90.9782436 84.0541992,91.0892544 C83.8652507,91.2002652 83.7707777,91.3400544 83.7707777,91.5086263 C83.7707777,91.6895328 83.8919496,91.84474 84.1342962,91.9742525 C84.3766432,92.1037651 84.7668569,92.2466379 85.3049495,92.4028753 C85.9703765,92.6002278 86.5084612,92.7986052 86.9192182,92.9980134 C87.3299758,93.1974217 87.6606307,93.4687773 87.9111928,93.8120884 C88.161755,94.1553995 88.2870342,94.6004638 88.2870342,95.1472946 C88.2870342,95.7270176 88.1330024,96.2337536 87.8249345,96.6675179 C87.516866,97.1012822 87.0978996,97.4332817 86.5680227,97.6635262 C86.0381453,97.8937708 85.4528246,98.0088913 84.8120429,98.0088913 C84.2123368,98.0088913 83.6126401,97.9307738 83.012934,97.7745364 C82.4132278,97.6182991 81.87309,97.3942251 81.3925038,97.1023079 Z M100.610544,97.4908436 C100.631081,97.5442933 100.64135,97.5915749 100.64135,97.63269 C100.64135,97.6984742 100.617732,97.751923 100.570495,97.7930381 C100.523258,97.8341532 100.456511,97.8547105 100.370251,97.8547105 L98.6204331,97.8547105 C98.5341742,97.8547105 98.4551047,97.8269582 98.3832223,97.7714528 C98.3113395,97.7159474 98.2589689,97.6450249 98.2261079,97.5586832 L97.8194602,96.3745742 L94.695665,96.3745742 L94.2951783,97.552516 C94.270533,97.6388577 94.2212428,97.7097802 94.1473063,97.7652856 C94.0733698,97.820791 93.9891661,97.8485432 93.8946916,97.8485432 L92.1510347,97.8485432 C92.0647758,97.8485432 91.9980287,97.8290138 91.9507916,97.7899545 C91.9035541,97.7508952 91.8799361,97.6964185 91.8799361,97.6265228 C91.8799361,97.5854077 91.8902049,97.538126 91.9107429,97.4846764 L95.200894,89.1280739 C95.24197,89.0335092 95.3005021,88.9595031 95.3764923,88.9060534 C95.4524824,88.8526038 95.5336056,88.8258794 95.6198646,88.8258794 L96.9199055,88.8258794 C97.0061649,88.8258794 97.0872881,88.8536317 97.1632783,88.9091371 C97.2392685,88.9646425 97.2936932,89.0376207 97.3265537,89.1280739 L100.610544,97.4908436 Z M97.1848432,94.5120695 L96.2544816,91.7799846 L95.3241206,94.5120695 L97.1848432,94.5120695 Z M104.862708,89.1589101 C104.862708,89.0520108 104.891461,88.9708097 104.948966,88.9153043 C105.006473,88.8597989 105.086569,88.8320466 105.189259,88.8320466 L110.771425,88.8320466 C110.878222,88.8320466 110.960373,88.8608268 111.017879,88.9183879 C111.075385,88.9759491 111.104138,89.0561223 111.104138,89.1589101 L111.104138,90.6020429 C111.104138,90.7048307 111.075385,90.7850039 111.017879,90.842565 C110.960373,90.9001262 110.878222,90.9289063 110.771425,90.9289063 L107.105433,90.9289063 L107.105433,92.9332575 L109.951968,92.9332575 C110.058766,92.9332575 110.140916,92.9620376 110.198421,93.0195988 C110.255928,93.0771599 110.28468,93.1573332 110.28468,93.2601209 L110.28468,94.4318954 C110.28468,94.5346832 110.255928,94.6148564 110.198421,94.6724176 C110.140916,94.7299787 110.058766,94.7587588 109.951968,94.7587588 L107.105433,94.7587588 L107.105433,97.5155126 C107.105433,97.6183003 107.07668,97.6984736 107.019174,97.7560347 C106.961668,97.8135958 106.881572,97.842376 106.778882,97.842376 L105.189259,97.842376 C105.086569,97.842376 105.006473,97.8135958 104.948966,97.7560347 C104.891461,97.6984736 104.862708,97.6183003 104.862708,97.5155126 L104.862708,89.1589101 Z M115.504174,89.1589101 C115.504174,89.0561223 115.532926,88.9759491 115.590432,88.9183879 C115.647939,88.8608268 115.728035,88.8320466 115.830725,88.8320466 L121.628538,88.8320466 C121.731227,88.8320466 121.811324,88.8608268 121.86883,88.9183879 C121.926336,88.9759491 121.955088,89.0561223 121.955088,89.1589101 L121.955088,90.577374 C121.955088,90.6801617 121.927363,90.760335 121.87191,90.8178961 C121.816458,90.8754572 121.735335,90.9042374 121.628538,90.9042374 L117.716092,90.9042374 L117.716092,92.3967081 L120.685854,92.3967081 C120.796759,92.3967081 120.884043,92.4265161 120.947711,92.486133 C121.011378,92.5457499 121.043211,92.6290067 121.043211,92.735906 L121.043211,93.9076805 C121.043211,94.0104683 121.011378,94.0906415 120.947711,94.1482026 C120.884043,94.2057638 120.796759,94.2345439 120.685854,94.2345439 L117.716092,94.2345439 L117.716092,95.7701853 L121.628538,95.7701853 C121.768196,95.7701853 121.878071,95.8082162 121.958169,95.8842791 C122.038267,95.960342 122.078315,96.0621004 122.078315,96.1895572 L122.078315,97.5216798 C122.078315,97.620356 122.048536,97.6984736 121.988976,97.7560347 C121.929416,97.8135958 121.848293,97.842376 121.745603,97.842376 L115.830725,97.842376 C115.728035,97.842376 115.647939,97.8146238 115.590432,97.7591184 C115.532926,97.703613 115.504174,97.6244676 115.504174,97.5216798 L115.504174,89.1589101 Z M126.219576,89.1589101 C126.219576,89.0561223 126.248328,88.9759491 126.305834,88.9183879 C126.36334,88.8608268 126.443437,88.8320466 126.546126,88.8320466 L132.559586,88.8320466 C132.662276,88.8320466 132.742372,88.8608268 132.799878,88.9183879 C132.857385,88.9759491 132.886137,89.0561223 132.886137,89.1589101 L132.886137,90.6452135 C132.886137,90.7480013 132.857385,90.8292024 132.799878,90.8888193 C132.742372,90.9484362 132.662276,90.9782442 132.559586,90.9782442 L130.668057,90.9782442 L130.668057,97.5956866 C130.668057,97.7025859 130.639305,97.783787 130.581799,97.8392924 C130.524292,97.8947978 130.442142,97.92255 130.335345,97.92255 L128.758044,97.92255 C128.655355,97.92255 128.575258,97.8937699 128.517753,97.8362087 C128.460246,97.7786479 128.431494,97.6984744 128.431494,97.5956866 L128.431494,90.9782442 L126.546126,90.9782442 C126.443437,90.9782442 126.36334,90.9484362 126.305834,90.8888193 C126.248328,90.8292024 126.219576,90.7480013 126.219576,90.6452135 L126.219576,89.1589101 Z M144.501093,88.8320466 C144.681827,88.8320466 144.772192,88.9019413 144.772192,89.0417326 C144.772192,89.0910707 144.759869,89.1465753 144.735224,89.2082479 L141.796269,94.4010592 L141.796269,97.5216798 C141.796269,97.6244676 141.76957,97.7046408 141.716171,97.7622019 C141.662773,97.8197631 141.584729,97.8485432 141.48204,97.8485432 L139.892417,97.8485432 C139.789728,97.8485432 139.709631,97.8197631 139.652125,97.7622019 C139.594619,97.7046408 139.565866,97.6244676 139.565866,97.5216798 L139.565866,94.3887248 L136.633072,89.2082479 C136.604319,89.1342408 136.589943,89.0787362 136.589943,89.0417326 C136.589943,88.9759484 136.613561,88.9245554 136.660798,88.8875518 C136.708035,88.8505481 136.774783,88.8320466 136.861041,88.8320466 L138.715602,88.8320466 C138.793646,88.8320466 138.868609,88.8587711 138.940491,88.9122207 C139.012374,88.9656703 139.070906,89.0376207 139.116089,89.1280739 L140.681067,92.0883463 L142.246045,89.1219067 C142.291229,89.0314534 142.349761,88.960531 142.421644,88.9091371 C142.493526,88.8577432 142.570542,88.8320466 142.652694,88.8320466 L144.501093,88.8320466 Z" id="Shape" fill="#FFFFFF"></path>
            <path d="M53.9807373,74.6864668 C57.4652145,74.6864668 60.2899413,77.5138996 60.2899413,81.0017148 C60.2899413,84.4895299 57.4652145,87.3169627 53.9807373,87.3169627 C50.4962601,87.3169627 47.6715332,84.4895299 47.6715332,81.0017148 C47.6715332,77.5138996 50.4962601,74.6864668 53.9807373,74.6864668 Z M87.4209929,66.8037397 C87.7012099,66.8037397 87.8829697,66.9472882 87.9662774,67.2343892 L91.0562238,77.5246452 L94.1688901,67.2343892 C94.2749184,66.9472882 94.4680379,66.8037397 94.7482549,66.8037397 L98.633408,66.8037397 C98.7697299,66.8037397 98.8927962,66.8509596 99.0026111,66.9454007 C99.1124259,67.0398419 99.174906,67.158836 99.1900528,67.3023865 C99.455123,69.9618493 99.7258693,72.6004953 100.0023,75.2184039 C100.27873,77.8363125 100.549476,80.4749586 100.814547,83.1344213 L100.814547,83.1910857 C100.814547,83.4857421 100.647933,83.6330681 100.314702,83.6330681 L97.0997951,83.6330681 C96.7514171,83.6330681 96.5696574,83.4668542 96.5545106,83.1344213 L95.5661822,74.3741043 L93.0101606,83.1910857 C92.9950133,83.2666387 92.9401069,83.3573008 92.8454389,83.4630749 C92.7507708,83.568849 92.6579977,83.6217352 92.5671168,83.6217352 L89.5794116,83.6217352 C89.4885301,83.6217352 89.3919704,83.5707378 89.2897287,83.4687413 C89.1874875,83.3667449 89.1325811,83.2741939 89.1250075,83.1910857 L86.5689859,74.39677 L85.5806575,83.1344213 C85.5655107,83.4668542 85.3799644,83.6330681 85.0240127,83.6330681 L81.8091058,83.6330681 C81.4834478,83.6330681 81.3206214,83.4668542 81.3206214,83.1344213 L82.9451153,67.3023865 C82.9602621,67.1663913 83.0132752,67.049286 83.1041567,66.9510672 C83.1950376,66.8528484 83.3237843,66.8037397 83.4903998,66.8037397 L87.4209929,66.8037397 Z M114.27771,66.8037397 C114.406459,66.8037397 114.516272,66.8434044 114.607153,66.922735 C114.698035,67.0020656 114.766195,67.071951 114.811635,67.1323933 L115.095638,67.7783675 L121.059688,83.1230885 C121.120276,83.2741943 121.108915,83.3969659 121.025608,83.4914071 C120.9423,83.5858482 120.798407,83.6330681 120.593924,83.6330681 L117.333576,83.6330681 C117.159387,83.6330681 117.024961,83.6009586 116.930293,83.5367386 C116.835625,83.4725187 116.761785,83.3648574 116.708771,83.2137515 C116.557303,82.8284316 116.409622,82.4450063 116.265727,82.0634641 C116.121832,81.6819218 115.977939,81.2984965 115.834044,80.9131766 L109.801833,80.9131766 L109.584571,81.489737 L109.364469,82.0634641 C109.216787,82.4450063 109.071001,82.8284316 108.927105,83.2137515 C108.828651,83.4932973 108.635531,83.6330681 108.34774,83.6330681 L104.996512,83.6330681 C104.852617,83.6330681 104.733337,83.5952922 104.638669,83.5197393 C104.544001,83.4441863 104.526961,83.3308587 104.587548,83.1797529 L110.756081,67.2457221 C110.763654,67.2003904 110.788267,67.1512817 110.829921,67.0983946 C110.871575,67.0455076 110.922695,66.996399 110.983283,66.9510672 C111.04387,66.9057355 111.108243,66.8698483 111.176404,66.8434048 C111.244565,66.8169613 111.308939,66.8037397 111.369526,66.8037397 L114.27771,66.8037397 Z M126.184542,66.8037397 C126.237556,66.8188503 126.279209,66.8282943 126.309503,66.8320719 C126.339796,66.8358496 126.37009,66.8471824 126.400383,66.8660706 C126.430677,66.8849588 126.460971,66.9151796 126.491264,66.9567336 C126.521558,66.9982877 126.563211,67.0643955 126.616225,67.1550591 L129.388089,73.0141586 L132.137232,67.1550591 C132.182673,67.0643955 132.220539,66.9982877 132.250833,66.9567336 C132.281127,66.9151796 132.31142,66.8849588 132.341714,66.8660706 C132.372008,66.8471824 132.404194,66.8358496 132.438275,66.8320719 C132.472355,66.8282943 132.512115,66.8188503 132.557555,66.8037397 L136.931192,66.8037397 C136.984207,66.8037397 137.027753,66.8207389 137.061833,66.8547377 C137.095914,66.8887365 137.112954,66.9284012 137.112954,66.973733 C137.112954,67.0568412 137.059941,67.1512809 136.953913,67.257055 L131.569227,76.7653422 L131.569227,83.1004227 C131.569227,83.4555214 131.395041,83.6330681 131.046662,83.6330681 L127.638634,83.6330681 C127.487165,83.6330681 127.369779,83.5858482 127.286471,83.4914071 C127.203163,83.3969659 127.16151,83.2666391 127.16151,83.1004227 L127.16151,76.7426764 L121.788184,67.257055 C121.68973,67.1588362 121.640503,67.0643964 121.640503,66.973733 C121.640503,66.9284012 121.65565,66.8887365 121.685944,66.8547377 C121.716237,66.8207389 121.757891,66.8037397 121.810905,66.8037397 L126.184542,66.8037397 Z M147.25897,66.7924069 C148.054181,66.7924069 148.820979,66.8906242 149.55939,67.0870618 C150.2978,67.2834993 150.986972,67.5630409 151.626927,67.925695 C152.266883,68.288349 152.851921,68.7227718 153.382062,69.2289763 C153.912203,69.7351808 154.364708,70.3018192 154.739593,70.9289084 C155.114478,71.5559977 155.406051,72.2321862 155.614321,72.9574942 C155.82259,73.6828021 155.926724,74.4420976 155.926724,75.2354032 C155.926724,76.0362642 155.824483,76.7974484 155.620001,77.5189788 C155.415518,78.2405091 155.123945,78.91292 154.745274,79.5362316 C154.366602,80.1595432 153.914096,80.7242928 153.387742,81.2304973 C152.861388,81.7367019 152.278242,82.167347 151.638287,82.5224457 C150.998332,82.8775445 150.307266,83.1514197 149.56507,83.3440796 C148.822873,83.5367396 148.054181,83.6330681 147.25897,83.6330681 L141.658443,83.6330681 C141.522121,83.6330681 141.400948,83.6028474 141.29492,83.542405 C141.188891,83.4819627 141.135878,83.3535247 141.135878,83.1570871 L141.135878,67.3250523 C141.135878,67.1663912 141.179425,67.0379531 141.266519,66.9397343 C141.353614,66.8415156 141.484254,66.7924069 141.658443,66.7924069 L147.25897,66.7924069 Z M168.365543,66.8037397 C168.494292,66.8037397 168.604105,66.8434044 168.694986,66.922735 C168.785868,67.0020656 168.854028,67.071951 168.899468,67.1323933 L169.183471,67.7783675 L175.147521,83.1230885 C175.208109,83.2741943 175.196748,83.3969659 175.113441,83.4914071 C175.030133,83.5858482 174.88624,83.6330681 174.681757,83.6330681 L171.421409,83.6330681 C171.24722,83.6330681 171.112794,83.6009586 171.018126,83.5367386 C170.923458,83.4725187 170.849618,83.3648574 170.796604,83.2137515 C170.645136,82.8284316 170.497455,82.4450063 170.35356,82.0634641 C170.209665,81.6819218 170.065772,81.2984965 169.921877,80.9131766 L163.889666,80.9131766 L163.672404,81.489737 L163.452302,82.0634641 C163.30462,82.4450063 163.158833,82.8284316 163.014938,83.2137515 C162.916484,83.4932973 162.723364,83.6330681 162.435573,83.6330681 L159.084345,83.6330681 C158.94045,83.6330681 158.82117,83.5952922 158.726502,83.5197393 C158.631834,83.4441863 158.614794,83.3308587 158.675381,83.1797529 L164.843914,67.2457221 C164.851487,67.2003904 164.8761,67.1512817 164.917754,67.0983946 C164.959408,67.0455076 165.010528,66.996399 165.071116,66.9510672 C165.131703,66.9057355 165.196076,66.8698483 165.264237,66.8434048 C165.332398,66.8169613 165.396772,66.8037397 165.457359,66.8037397 L168.365543,66.8037397 Z M180.071587,66.8037397 C180.124602,66.8188503 180.166255,66.8282943 180.196549,66.8320719 C180.226842,66.8358496 180.257136,66.8471824 180.287429,66.8660706 C180.317723,66.8849588 180.348016,66.9151796 180.37831,66.9567336 C180.408604,66.9982877 180.450257,67.0643955 180.503271,67.1550591 L183.275135,73.0141586 L186.024278,67.1550591 C186.069719,67.0643955 186.107585,66.9982877 186.137879,66.9567336 C186.168173,66.9151796 186.198466,66.8849588 186.22876,66.8660706 C186.259053,66.8471824 186.29124,66.8358496 186.32532,66.8320719 C186.359401,66.8282943 186.399161,66.8188503 186.444602,66.8037397 L190.818239,66.8037397 C190.871253,66.8037397 190.914799,66.8207389 190.94888,66.8547377 C190.98296,66.8887365 191,66.9284012 191,66.973733 C191,67.0568412 190.946987,67.1512809 190.840959,67.257055 L185.456273,76.7653422 L185.456273,83.1004227 C185.456273,83.4555214 185.282087,83.6330681 184.933709,83.6330681 L181.52568,83.6330681 C181.374211,83.6330681 181.256824,83.5858482 181.173517,83.4914071 C181.090209,83.3969659 181.048556,83.2666391 181.048556,83.1004227 L181.048556,76.7426764 L175.67523,67.257055 C175.576776,67.1588362 175.527549,67.0643964 175.527549,66.973733 C175.527549,66.9284012 175.542696,66.8887365 175.57299,66.8547377 C175.603283,66.8207389 175.644937,66.8037397 175.69795,66.8037397 L180.071587,66.8037397 Z M53.9807373,78.8966321 C52.8192449,78.8966321 51.8776693,79.8391097 51.8776693,81.0017148 C51.8776693,82.1643198 52.8192449,83.1067974 53.9807373,83.1067974 C55.1422297,83.1067974 56.0838053,82.1643198 56.0838053,81.0017148 C56.0838053,79.8391097 55.1422297,78.8966321 53.9807373,78.8966321 Z M147.031768,70.8609112 L145.532235,70.8609112 L145.532235,79.5758967 L146.486483,79.5758967 C146.660673,79.5758967 146.831072,79.5702303 146.997688,79.5588973 C147.164303,79.5475644 147.330917,79.5343429 147.497532,79.5192323 C148.06554,79.4739005 148.595672,79.3360185 149.087945,79.1055821 C149.580219,78.8751457 150.010005,78.5729386 150.377317,78.1989516 C150.744628,77.8249647 151.032414,77.3848755 151.240684,76.878671 C151.448953,76.3724665 151.553087,75.8209384 151.553087,75.2240704 C151.553087,74.5894259 151.433806,74.0057883 151.195243,73.4731402 C150.95668,72.9404922 150.632921,72.4796263 150.223955,72.0905288 C149.81499,71.7014312 149.335977,71.3992241 148.786903,71.1838983 C148.237829,70.9685725 147.65279,70.8609112 147.031768,70.8609112 Z M51.3519023,66.5135581 C51.6422668,66.5135581 51.8776693,66.7491706 51.8776693,67.0398133 L51.8776693,70.2716643 C51.8776693,70.4835787 51.7512412,70.6715525 51.5622425,70.7540217 L51.4776001,70.7826755 L51.1534526,70.8655227 C51.0064574,70.9047132 50.8820801,70.9405542 50.7803207,70.9730454 C49.2081029,71.4750472 47.7559403,72.3498207 46.546024,73.5621266 C45.3527297,74.7577777 44.4869556,76.1896987 43.9825316,77.7404054 C43.9230992,77.9231132 43.8535449,78.1753116 43.7738686,78.4970004 C43.7157213,78.7317675 43.5051913,78.8966345 43.2635484,78.8966345 L40.0366349,78.8966345 C40.004598,78.8966345 39.972628,78.8937012 39.941124,78.8878758 C39.6873059,78.8409427 39.5099929,78.6188353 39.5107685,78.3693177 L39.5196158,78.2747536 L39.5827172,77.9458934 C39.6129108,77.7953418 39.6410689,77.6656081 39.6671914,77.5566922 C40.2908504,74.9563916 41.6181899,72.5425947 43.5703268,70.5866023 C45.5923968,68.5605386 48.1049391,67.2059325 50.8069954,66.61079 L51.0871067,66.5537926 C51.1406783,66.5435594 51.1976931,66.5329593 51.2581511,66.5219925 C51.2890867,66.5163809 51.3204628,66.5135581 51.3519023,66.5135581 Z M51.3519023,58 C51.6422738,58 51.8776693,58.2356182 51.8776693,58.5262707 L51.8776693,61.709579 C51.8776693,61.9436753 51.7239963,62.1457324 51.506729,62.2125568 L51.4224511,62.2310927 L51.0898884,62.2778224 C50.9386166,62.2999866 50.8098593,62.32035 50.7036162,62.3389125 C42.9498493,63.6936317 36.8177679,69.7716093 35.3754297,77.5018486 L35.3103039,77.8711918 C35.2865294,78.0143137 35.2588639,78.2039596 35.2273073,78.4401293 C35.1923837,78.7014977 34.9696067,78.8966495 34.7061634,78.8966495 L31.5258142,78.8966495 C31.5062236,78.8966495 31.4866482,78.8955361 31.4671798,78.8933492 C31.1786176,78.8609353 30.9709432,78.6005086 31.003327,78.3116701 L31.0585692,77.8566735 C32.4273579,67.7669311 40.2889284,59.74264 50.292805,58.1384435 L50.7974801,58.0635825 L51.2926648,58.003351 C51.3123319,58.0011188 51.3321092,58 51.3519023,58 Z M112.823618,72.0961952 C112.679723,72.4815151 112.533937,72.8970499 112.386255,73.3428121 C112.238572,73.7885743 112.092786,74.2381074 111.948891,74.691425 C111.804996,75.1447425 111.659209,75.5923868 111.511527,76.0343713 C111.363845,76.4763559 111.218059,76.8900019 111.074164,77.2753218 L114.561713,77.2753218 L112.823618,72.0961952 Z M166.919395,72.0961952 C166.7755,72.4815151 166.629714,72.8970499 166.482032,73.3428121 C166.33435,73.7885743 166.188564,74.2381074 166.044668,74.691425 C165.900773,75.1447425 165.754987,75.5923868 165.607304,76.0343713 C165.459622,76.4763559 165.313836,76.8900019 165.169941,77.2753218 L168.65749,77.2753218 L166.919395,72.0961952 Z" id="Combined-Shape" fill="#FF2D45"></path>
        </g>
    </g>
</svg>