<?xml version="1.0" encoding="UTF-8"?>
<svg width="230px" height="160px" viewBox="0 0 230 160" version="1.1" xmlns="http://www.w3.org/2000/svg" xmlns:xlink="http://www.w3.org/1999/xlink">
    <!-- Generator: Sketch 52.4 (67378) - http://www.bohemiancoding.com/sketch -->
    <g id="03-what-we-do-(SRC)" stroke="none" stroke-width="1" fill="none" fill-rule="evenodd" opacity="0.301">
        <g id="Group-2" fill="#D4E1ED">
            <path d="M143.789002,115.872407 L141.141531,115.872407 L141.141531,109.509024 L143.789002,109.509024 C144.563294,109.509024 145.209218,109.830633 145.660138,110.473444 C146.177695,111.051934 146.434838,111.822981 146.434838,112.722673 C146.434838,113.55845 146.177695,114.329497 145.660138,114.972308 C145.209218,115.551612 144.563294,115.872407 143.789002,115.872407 Z M144.046146,124.035987 L141.981641,124.035987 C141.528677,124.035987 141.206123,123.714785 141.141531,123.135481 L141.141531,116.644269 L144.046146,116.644269 C144.886256,116.644269 145.595955,117.029793 146.177695,117.736926 C146.7578,118.444059 147.080354,119.34375 147.080354,120.372085 C147.080354,121.400827 146.821575,122.23579 146.241879,122.942923 C145.660138,123.650056 144.950439,124.035987 144.046146,124.035987 Z M137.398441,124.614476 L144.950439,124.614476 C145.9831,124.614476 146.887394,124.164223 147.597502,123.329261 C148.371793,122.493484 148.758939,121.529471 148.758939,120.372085 C148.758939,119.279835 148.435977,118.315008 147.790461,117.54396 C147.208721,116.772098 146.434838,116.32266 145.531771,116.129694 C146.241879,115.937136 146.887394,115.486883 147.339132,114.843665 C147.854645,114.201668 148.113424,113.494535 148.113424,112.658758 C148.113424,111.630423 147.726278,110.730325 147.01617,110.023192 C146.370246,109.316059 145.531771,108.930942 144.563294,108.930942 L137.398441,108.930942 L137.398441,109.379973 L138.367328,109.379973 C138.947024,109.444702 139.269986,109.830633 139.269986,110.344801 L139.269986,123.135481 C139.269986,123.714785 138.947024,124.035987 138.367328,124.164223 L137.398441,124.164223 L137.398441,124.614476 Z M132.787034,118.722108 L137.629012,118.722108 L137.629012,117.95106 L132.787034,117.95106 L132.787034,118.722108 Z M169.026648,123.071566 L169.026648,116.901149 C169.026648,116.129694 168.703686,115.422968 168.122355,114.650699 C167.542249,113.880059 166.704183,113.494535 165.670704,113.494535 C164.961006,113.494535 164.315081,113.687093 163.669566,114.073024 C163.024051,114.458548 162.636496,114.908394 162.572313,115.422968 L162.572313,113.365484 L159.860658,113.751008 L159.860658,114.136939 C160.829544,114.136939 161.280873,114.52287 161.280873,115.230003 L161.280873,123.071566 C161.280873,123.45709 161.087914,123.778699 160.764952,123.971665 C160.441989,124.164223 160.055253,124.228952 159.602288,124.228952 L159.602288,124.614476 L164.443449,124.614476 L164.443449,124.228952 C164.056712,124.228952 163.669566,124.164223 163.346604,123.971665 C162.959458,123.778699 162.765272,123.45709 162.765272,123.071566 L162.765272,117.093707 C162.765272,116.57954 163.024051,116.001051 163.410788,115.422968 C163.863752,114.908394 164.508041,114.587192 165.282332,114.587192 C166.058259,114.587192 166.638364,114.843665 167.02551,115.294325 C167.412247,115.808492 167.606842,116.386574 167.606842,117.093707 L167.606842,123.071566 C167.606842,123.45709 167.412247,123.778699 167.091329,123.971665 C166.768367,124.164223 166.381221,124.228952 165.927848,124.228952 L165.927848,124.614476 L170.705642,124.614476 L170.705642,124.228952 C170.318497,124.228952 169.930942,124.164223 169.544205,123.971665 C169.221243,123.778699 169.026648,123.45709 169.026648,123.071566 Z M173.609848,123.843428 L180,113.494535 L172.384227,113.494535 L171.995446,116.644269 L172.384227,116.644269 C172.384227,116.32266 172.576778,115.872407 172.963924,115.230003 C173.286886,114.587192 173.738624,114.265583 174.319956,114.136939 L177.677535,114.136939 L171.351158,124.614476 L179.484078,124.614476 L180,121.529471 L179.548671,121.529471 C179.548671,121.6573 179.548671,121.850266 179.418259,122.10796 C179.354076,122.300519 179.225709,122.557399 179.031523,122.814686 C178.838563,123.071566 178.644377,123.329261 178.451417,123.521819 C178.192639,123.778699 177.934269,123.843428 177.611307,123.843428 L173.609848,123.843428 Z M131.524211,121.850266 C131.524211,121.208269 131.395844,120.693694 131.201249,120.307356 C131.008289,119.986154 130.621144,119.665359 130.103996,119.472394 L126.489682,117.80084 C126.231313,117.67179 125.974169,117.479231 125.843758,117.286673 C125.651207,117.093707 125.585388,116.772098 125.585388,116.32266 C125.585388,115.808492 125.779574,115.294325 126.231313,114.908394 C126.618049,114.458548 127.135606,114.201668 127.651119,114.201668 C128.491229,114.201668 129.200928,114.52287 129.652666,115.101359 C130.168588,115.679849 130.426958,116.258745 130.49155,116.901149 L130.878287,116.901149 L130.878287,113.55845 L129.781034,114.587192 C129.652666,114.329497 129.393888,114.136939 129.071335,113.880059 C128.684189,113.687093 128.296635,113.55845 127.78153,113.55845 C126.812644,113.55845 126.038353,113.880059 125.328245,114.394633 C124.68273,114.908394 124.359768,115.679849 124.359768,116.644269 C124.359768,117.350995 124.488135,117.80084 124.746913,118.186364 C125.005283,118.507973 125.328245,118.700532 125.715391,118.893904 L129.007151,120.372085 C129.393888,120.565051 129.71685,120.757609 129.911445,120.950575 C130.103996,121.208269 130.234407,121.593386 130.234407,122.10796 C130.234407,122.686043 129.975628,123.20021 129.52389,123.650056 C129.007151,124.099902 128.425411,124.292867 127.715712,124.292867 C126.748052,124.292867 125.974169,123.971665 125.456612,123.264532 C124.875281,122.557399 124.553954,121.97891 124.553954,121.464742 L124.166808,121.464742 L124.166808,124.807442 L125.069876,123.778699 C125.456612,124.292867 125.843758,124.614476 126.295496,124.74312 C126.748052,124.936085 127.19979,125 127.715712,125 C128.814191,125 129.71685,124.74312 130.426958,124.164223 C131.137065,123.586141 131.524211,122.814686 131.524211,121.850266 Z M157.343598,118.507973 L151.791921,118.507973 C151.791921,117.158029 152.114883,116.129694 152.632031,115.358239 C153.212136,114.587192 153.921835,114.201668 154.762354,114.201668 C155.730831,114.201668 156.374711,114.650699 156.761857,115.422968 C157.149412,116.258745 157.343598,117.286673 157.343598,118.507973 Z M158.69963,121.015303 L158.312075,121.015303 C158.117889,122.043231 157.730743,122.749957 157.149412,123.135481 C156.63349,123.586141 155.923791,123.778699 155.084907,123.778699 C154.051837,123.778699 153.277955,123.393176 152.696214,122.557399 C152.114883,121.786351 151.791921,120.628965 151.791921,119.150785 L158.69963,119.150785 C158.69963,117.479231 158.440851,116.129694 157.859111,115.101359 C157.279414,114.073024 156.310528,113.55845 154.890721,113.55845 C153.470506,113.55845 152.309069,114.073024 151.470594,115.101359 C150.630484,116.06578 150.179154,117.54396 150.179154,119.536309 C150.179154,121.015303 150.630484,122.364841 151.470594,123.393176 C152.309069,124.485832 153.535098,125 155.019497,125 C155.795015,125 156.569306,124.678391 157.343598,123.971665 C158.182073,123.20021 158.635037,122.23579 158.69963,121.015303 Z M121.455153,118.507973 L115.96766,118.507973 C115.96766,117.158029 116.226438,116.129694 116.808179,115.358239 C117.323692,114.587192 118.033799,114.201668 118.87391,114.201668 C119.840752,114.201668 120.550859,114.650699 120.938005,115.422968 C121.325151,116.258745 121.455153,117.286673 121.455153,118.507973 Z M100.411926,118.507973 L94.8614754,118.507973 C94.8614754,117.158029 95.1836198,116.129694 95.6999503,115.358239 C96.2816908,114.587192 96.9913898,114.201668 97.8302735,114.201668 C98.7987509,114.201668 99.4442662,114.650699 99.8318207,115.422968 C100.218966,116.258745 100.411926,117.286673 100.411926,118.507973 Z M101.767549,121.015303 L101.380403,121.015303 C101.186626,122.043231 100.799889,122.749957 100.218966,123.135481 C99.7022271,123.586141 98.9925282,123.778699 98.1528268,123.778699 C97.1201658,123.778699 96.3458745,123.393176 95.7641339,122.557399 C95.1836198,121.786351 94.8614754,120.628965 94.8614754,119.150785 L101.767549,119.150785 C101.767549,117.479231 101.445405,116.129694 100.928665,115.101359 C100.347334,114.073024 99.379265,113.55845 97.9594584,113.55845 C96.5396517,113.55845 95.3773971,114.073024 94.5385133,115.101359 C93.6342195,116.06578 93.2470738,117.54396 93.2470738,119.536309 C93.2470738,121.015303 93.6342195,122.364841 94.5385133,123.393176 C95.3773971,124.485832 96.6046529,125 98.0886432,125 C98.8629345,125 99.6372259,124.678391 100.411926,123.971665 C101.251627,123.20021 101.703365,122.23579 101.767549,121.015303 Z M58.4562916,121.722436 L53.6793147,108.930942 L50,108.930942 L50,109.316059 C50.5175569,109.316059 50.9684774,109.444702 51.2914395,109.701582 C51.6785851,109.959277 51.8723624,110.344801 51.8723624,110.858968 L51.8723624,122.878601 C51.8723624,123.393176 51.6785851,123.778699 51.2914395,124.035987 C50.9684774,124.292867 50.5175569,124.421511 50,124.421511 L50,124.807442 L54.5831997,124.807442 L54.5831997,124.421511 C54.067278,124.421511 53.6151311,124.292867 53.2275766,124.035987 C52.9042057,123.778699 52.7116549,123.393176 52.7116549,122.878601 L52.7116549,111.309221 L57.8099587,124.807442 L58.0687371,124.807442 L63.2324509,111.309221 L63.2324509,122.878601 C63.2324509,123.393176 63.1032661,123.778699 62.7161204,124.035987 C62.3931584,124.292867 61.9418291,124.421511 61.4250898,124.421511 L61.4250898,124.807442 L66.9121744,124.807442 L66.9121744,124.421511 C66.3954351,124.421511 65.9432882,124.292867 65.5565514,124.035987 C65.2335893,123.778699 65.0406297,123.393176 65.0406297,122.878601 L65.0406297,110.858968 C65.0406297,110.344801 65.2335893,109.959277 65.5565514,109.701582 C65.9432882,109.444702 66.3954351,109.316059 66.9121744,109.316059 L66.9121744,108.930942 L63.4904118,108.930942 L58.4562916,121.722436 Z M80.4021774,123.393176 L80.4021774,116.515625 C80.4667698,116.06578 80.7251395,115.679849 81.1768776,115.358239 C81.5640232,114.972308 81.9507601,114.77975 82.3387234,114.77975 C82.5966842,114.77975 82.7912791,114.908394 82.9842387,115.101359 C83.2421995,115.358239 83.306792,115.615934 83.306792,116.001051 L83.9527161,116.001051 L83.5651616,113.494535 C82.468317,113.494535 81.693208,113.687093 81.2410612,114.073024 C80.8539155,114.458548 80.5309534,114.77975 80.4021774,115.037444 L80.4021774,113.494535 L77.4329704,113.943973 L77.4329704,114.394633 C78.4660402,114.394633 78.9823707,114.77975 78.9823707,115.679849 L78.9823707,123.393176 C78.9823707,123.650056 78.7881847,123.90775 78.4660402,124.099902 C78.2080794,124.357596 77.7559325,124.421511 77.239602,124.421511 L77.239602,124.807442 L82.1453549,124.807442 L82.1453549,124.421511 C81.5640232,124.421511 81.1768776,124.357596 80.8539155,124.099902 C80.5309534,123.90775 80.4021774,123.650056 80.4021774,123.393176 Z M90.9241998,114.587192 C90.7300138,114.329497 90.4070517,114.073024 90.019906,113.816144 C89.696944,113.623178 89.2456147,113.494535 88.7938766,113.494535 C87.5670296,113.494535 86.5339598,114.073024 85.6954848,115.101359 C84.8561923,116.129694 84.4040454,117.607875 84.4040454,119.472394 C84.4040454,120.950575 84.7907822,122.300519 85.6313012,123.393176 C86.4697762,124.485832 87.5024372,125 88.7938766,125 C89.8265376,125 90.6658302,124.678391 91.2471619,123.971665 C91.8268584,123.20021 92.1502292,122.300519 92.1502292,121.208269 L91.5693063,121.208269 C91.5693063,122.10796 91.3113455,122.814686 90.7300138,123.393176 C90.1490909,123.971665 89.5685768,124.228952 88.9868362,124.228952 C88.4713234,124.228952 88.0191765,124.035987 87.6312132,123.714785 C87.2440675,123.329261 86.9211054,122.878601 86.7285546,122.364841 C86.4697762,121.850266 86.2759989,121.271777 86.2109977,120.565051 C86.0826305,119.922239 86.0826305,119.279835 86.0826305,118.572295 C86.0826305,117.414909 86.3410001,116.451303 86.7927382,115.486883 C87.3090687,114.587192 87.9541752,114.136939 88.7938766,114.136939 C89.6327604,114.136939 90.2782757,114.458548 90.6658302,114.972308 C91.0529758,115.551612 91.3113455,116.193609 91.5693063,116.965064 L91.956452,116.965064 L91.956452,113.494535 L90.9241998,114.587192 Z M74.7867255,118.507973 L69.3008673,118.507973 C69.3008673,117.158029 69.5584193,116.129694 70.0747498,115.358239 C70.6556727,114.587192 71.3657805,114.201668 72.2050731,114.201668 C73.1731416,114.201668 73.8178393,114.650699 74.2058026,115.422968 C74.5929483,116.258745 74.7867255,117.286673 74.7867255,118.507973 Z M76.1423486,121.015303 L75.8193865,121.015303 C75.5606081,122.043231 75.1734624,122.749957 74.5929483,123.135481 C74.0766178,123.586141 73.3665101,123.778699 72.5922187,123.778699 C71.5591489,123.778699 70.720674,123.393176 70.1393423,122.557399 C69.5584193,121.786351 69.3008673,120.628965 69.3008673,119.150785 L76.1423486,119.150785 C76.1423486,117.479231 75.8835701,116.129694 75.3038737,115.101359 C74.7225419,114.073024 73.7532469,113.55845 72.3984415,113.55845 C70.9132248,113.55845 69.8163802,114.073024 68.912904,115.101359 C68.0736115,116.06578 67.6218734,117.54396 67.6218734,119.536309 C67.6218734,121.015303 68.0736115,122.364841 68.912904,123.393176 C69.8163802,124.485832 70.9778172,125 72.5276263,125 C73.3023265,125 74.0766178,124.678391 74.8509091,123.971665 C75.6260181,123.20021 76.078165,122.23579 76.1423486,121.015303 Z M110.417618,120.821931 C110.417618,121.97891 110.159248,122.878601 109.642918,123.45709 C109.061995,124.035987 108.41648,124.292867 107.705963,124.292867 C106.737486,124.292867 105.963603,123.778699 105.446864,122.814686 C104.930124,121.786351 104.737982,120.693694 104.737982,119.472394 C104.737982,117.993399 104.994308,116.708184 105.640641,115.679849 C106.286156,114.650699 106.996264,114.136939 107.770555,114.136939 C108.674849,114.136939 109.319956,114.52287 109.772103,115.358239 C110.223432,116.129694 110.417618,116.965064 110.417618,117.929484 L110.417618,120.821931 Z M110.417618,110.858968 L110.417618,115.230003 C110.223432,114.843665 109.836286,114.458548 109.449141,114.073024 C108.997402,113.687093 108.41648,113.494535 107.705963,113.494535 C106.479525,113.494535 105.446864,114.073024 104.607571,115.165274 C103.768687,116.258745 103.316949,117.67179 103.316949,119.34375 C103.316949,121.015303 103.704504,122.364841 104.479204,123.45709 C105.253087,124.485832 106.286156,125 107.641779,125 C108.41648,125 108.997402,124.807442 109.449141,124.485832 C109.90047,124.099902 110.223432,123.650056 110.417618,123.135481 C110.417618,123.650056 110.546394,124.099902 110.869356,124.485832 C111.126908,124.807442 111.384869,125 111.643647,125 L113.514783,124.678391 L113.514783,124.228952 C113.25764,124.228952 112.934678,124.164223 112.676308,124.035987 C112.353346,123.90775 112.224979,123.650056 112.224979,123.329261 L112.224979,109.187822 L111.643647,109.187822 L108.997402,109.379973 L108.997402,109.701582 C109.384957,109.701582 109.707919,109.830633 110.030881,110.087921 C110.288024,110.280886 110.417618,110.537766 110.417618,110.858968 Z M90.490347,78.0368448 C95.5467264,86.3148787 104.691112,91.8437261 115.132047,91.8437261 C125.492461,91.8437261 134.576064,86.4000688 139.655843,78.2283455 L115.885897,69.2944472 L115.885897,64.1071768 L139.686419,78.1790473 C139.802039,77.9922106 139.915568,77.8039545 140.026975,77.6143112 L118.674409,62.299652 L120.43026,61.2415986 L140.032473,77.6049494 C142.524977,73.3583802 143.953345,68.4168833 143.953345,63.1431636 C143.953345,47.6327696 131.598093,34.9960724 116.153627,34.4602937 L120.342365,60.5658123 L115.827028,63.063779 L116.134921,34.4596508 C115.974814,34.4541987 115.814371,34.450047 115.653606,34.4472061 L112.757662,61.5648362 L110.868947,60.4778787 L115.624581,34.4467075 C115.460732,34.4439735 115.29655,34.4426011 115.132047,34.4426011 C99.2147189,34.4426011 86.310748,47.2923949 86.310748,63.1431636 C86.310748,68.5935673 87.8364864,73.6891421 90.4858407,78.0294648 L115.000818,63.9602136 L114.94154,69.4853772 L90.490347,78.0368448 Z M122.875369,121.015303 C122.744957,122.23579 122.294037,123.20021 121.519337,123.971665 C120.745454,124.678391 119.970754,125 119.195236,125 C117.646654,125 116.485217,124.485832 115.580923,123.393176 C114.742039,122.364841 114.289892,121.015303 114.289892,119.536309 C114.289892,117.54396 114.742039,116.06578 115.580923,115.101359 C116.485217,114.073024 117.582061,113.55845 119.06646,113.55845 C120.422492,113.55845 121.39097,114.073024 121.971075,115.101359 C122.552407,116.129694 122.875369,117.479231 122.875369,119.150785 L115.96766,119.150785 C115.96766,120.628965 116.226438,121.786351 116.808179,122.557399 C117.387875,123.393176 118.227985,123.778699 119.261055,123.778699 C120.09953,123.778699 120.745454,123.586141 121.325151,123.135481 C121.842299,122.749957 122.229853,122.043231 122.487814,121.015303 L122.875369,121.015303 Z M146.406222,63.1431636 C146.406222,80.3430867 132.404325,94.2863271 115.132047,94.2863271 C97.8600378,94.2863271 83.8578715,80.3429487 83.8578715,63.1431636 C83.8578715,45.9433784 97.8600378,32 115.132047,32 C132.404325,32 146.406222,45.9432404 146.406222,63.1431636 Z M115.059687,62.9461271 L113.879444,62.4759264 L115.443153,42.3004487 L115.059687,62.9461271 Z M117.538318,63.0051566 L134.656126,74.5252774 L116.358076,63.8865285 L117.538318,63.0051566 Z M113.525004,62.8284751 L114.58669,63.7692836 L108.507236,67.001659 L113.525004,62.8284751 Z M112.300201,62.226374 L90.1511349,77.4649478 L110.456046,61.1239467 L112.300201,62.226374 Z" id="Combined-Shape"></path>
        </g>
    </g>
</svg>