<?xml version="1.0" encoding="UTF-8"?>
<svg width="80px" height="60px" viewBox="0 0 80 60" version="1.1" xmlns="http://www.w3.org/2000/svg" xmlns:xlink="http://www.w3.org/1999/xlink">
	<!-- Generator: Sketch 61.2 (89653) - https://sketch.com -->
	<title>
		sign_RW
	</title>
	<desc>
		Created with Sketch.
	</desc>
	<g id="Header-&amp;-Footer" stroke="none" stroke-width="1" fill="none" fill-rule="evenodd">
		<g id="Branding/BCL/SIGN/Color-RB" fill-rule="nonzero">
			<g id="Group">
				<path d="M29.0588917,28.6403823 C29.5284504,28.9687439 30.0017741,29.2974035 30.478673,29.6261818 C30.9850275,29.9752675 31.482796,30.3179274 31.9722673,30.6542236 C30.6033869,33.5531948 29.8388452,36.7915176 29.8388452,40.2079541 C29.8388452,45.5938569 31.7389235,50.5371024 34.9069367,54.4071562 C30.2271619,50.2511114 27.2796209,44.1961698 27.2796209,37.4545455 C27.2796209,34.4469031 27.8662764,31.5759327 28.931675,28.949272 Z M57.1374408,38.8727273 C59.6144907,38.8727273 61.7956443,40.1363856 63.0683027,42.0526625 C61.8971064,41.0432611 60.3707611,40.4327359 58.7014562,40.4327359 C55.0108332,40.4327359 52.018992,43.4169615 52.018992,47.0981902 C52.018992,49.5133588 53.3067902,51.6285114 55.2348278,52.7977381 C52.2324747,51.9679389 50.028436,49.2225229 50.028436,45.9636364 C50.028436,42.0474355 53.2112459,38.8727273 57.1374408,38.8727273 Z M50.028436,14.7636364 C58.1585893,14.7636364 65.2926089,19.0177352 69.3152136,25.4160362 C65.1867354,20.7123079 59.1223019,17.7418268 52.3623049,17.7418268 C44.2615898,17.7418268 37.1597023,22.0074306 33.191109,28.4096049 C32.232631,27.6568832 31.2698295,26.8948634 30.3110155,26.1306856 C34.2413496,19.3361001 41.5995521,14.7636364 50.028436,14.7636364 Z" id="Combined-Shape" fill="#ED4159">
				</path>
				<path d="M10.6624958,7.91301491 C9.04505239,10.1005989 43.3668032,36.7347996 51.2949314,41.9227675 C51.1681099,42.1048577 51.0496249,42.2931594 50.9400275,42.487123 C45.7475385,39.9931658 39.4653317,35.8216702 30.478673,29.6261818 C12.7218009,17.3844364 -0.0786729858,5.3072 1.88625592,2.6552 C3.80908285,0.0600236722 19.1633502,7.44929661 36.4615225,19.2387281 C36.4183407,19.2707782 36.3752768,19.3029774 36.3323316,19.3353251 C31.2026451,16.5210311 11.9194806,6.2170736 10.6624958,7.91301491 Z" id="Combined-Shape" fill="#FFFFFF">
				</path>
			</g>
		</g>
	</g>
</svg>
