<svg width="230" height="160" viewBox="0 0 230 160" xmlns="http://www.w3.org/2000/svg"><g fill="none" fill-rule="evenodd"><path d="M70.203 78.72c0-1.414.003-2.827-.003-4.24 0-.372.082-.81-.532-.804-2.107.019-4.23-.193-6.289.473-.497.161-1.173.9-1.379-.318-.012-.074-.424-.115-.651-.117-1.33-.01-2.663-.045-3.992.005-3.293.126-5.066 1.956-5.074 5.182-.004 1.337.034 2.675-.015 4.01-.025.692.179.93.916.928.746-.003.807-.349.798-.92a105.466 105.466 0 0 1 .001-4.355c.054-2.158.912-3.053 3.106-3.246.738-.066 1.49.02 2.229-.044.807-.07 1.088.19 1.068 1.01-.054 2.214.01 4.432-.034 6.647-.014.725.25.906.951.905.694-.002.859-.26.847-.884-.03-1.604-.044-3.21.015-4.813.06-1.637.798-2.398 2.444-2.735.933-.19 1.877-.044 2.808-.13.854-.08 1.16.163 1.132 1.055-.069 2.214-.003 4.431-.035 6.647-.01.636.179.858.853.86.69 0 .863-.25.847-.875-.037-1.413-.012-2.827-.011-4.241m-5.106-9.84c-2.503.002-5.007-.129-7.507.186-5.28.666-8.856 3.838-9.654 8.868-.377 2.38-.021 4.812-.147 7.215-.057 1.067.573.953 1.242.928.692-.025 1.43.247 1.439-.994.021-3.131.208-6.262.357-9.391.098-2.032 1.326-3.499 3.337-4.069 1.027-.291 2.082-.327 3.141-.327 4.543.001 9.087-.022 13.63.019.934.008.916-.495.845-1.091-.067-.55.392-1.383-.81-1.356-1.956.044-3.915.012-5.873.012M49.937 86.97c-.968-.078-2.239.42-2.828-.167-.638-.635-.205-1.888-.2-2.867.012-2.101-.257-4.226.112-6.298.96-5.396 4.845-8.848 10.591-9.452 4.764-.501 9.546-.204 14.321-.168.586.004.848.2.816.809-.041.762 0 1.528.006 2.293-.604.12-.311.609-.405.938.068 3.324-.211 6.643-.203 9.96.005 2.034-1.72 3.822-3.3 4.25-1.18.318-2.38.427-3.597.431-4.774.019-9.547.036-14.32.053-.387-.168-.767-.307-.993.218zm33.373-9.567c0 1.74-.105 3.49.034 5.22.108 1.335-.7 1.02-1.452 1.105-.963.108-1.158-.267-1.137-1.15.06-2.522.027-5.047.017-7.57-.002-.714-.068-1.46.82-1.722.836-.246 1.523.024 2.104.673 1.822 2.037 3.665 4.054 5.5 6.08.945 1.044.944 1.044 1.892-.032 1.73-1.962 3.472-3.912 5.178-5.892.619-.718 1.319-1.135 2.262-.81.958.33.868 1.174.867 1.958-.005 2.524-.055 5.05.02 7.57.039 1.28-.825.822-1.42.865-.588.042-1.235.219-1.179-.847.097-1.84.027-3.688.027-5.813-1.735 1.995-3.282 3.778-4.833 5.558-1.374 1.576-2.394 1.583-3.767.026-1.564-1.773-3.123-3.55-4.683-5.325l-.25.106zm62.238-4.21c1.384.045 2.777-.075 4.146.261 1.655.408 2.352 1.254 2.369 2.946.013 1.356.013 2.712 0 4.069-.014 1.454-.528 2.374-1.886 2.715-3.146.79-6.342.818-9.484-.023-1.429-.382-1.927-1.274-1.943-2.796-.013-1.24-.008-2.48 0-3.72.01-1.88.695-2.72 2.537-3.184 1.406-.354 2.837-.22 4.26-.268zm-.15 8.394v.004c.96 0 1.924.051 2.88-.015.875-.06 1.38-.485 1.298-1.51-.088-1.112-.06-2.24-.006-3.357.04-.809-.28-1.26-1.054-1.365a22.993 22.993 0 0 0-6.204 0c-.753.102-1.124.525-1.084 1.35.052 1.117.074 2.243-.006 3.358-.072 1.008.414 1.459 1.297 1.52.956.066 1.92.015 2.88.015zm-33.043-4.08c1.377 0 2.757.06 4.13-.021.87-.052.952.334.923 1.02-.027.615.058 1.09-.886 1.065-2.79-.072-5.586-.034-8.379-.013-.321.002-.888-.264-.886.4.002.577-.273 1.286.588 1.583.498.171 1.004.175 1.514.176 2.4.005 4.8.042 7.199-.019.83-.02.891.345.843.974-.043.558.185 1.143-.833 1.11-2.515-.079-5.035-.015-7.552-.034a6.76 6.76 0 0 1-2.195-.395c-1.55-.545-2.048-1.23-2.053-2.86-.005-1.364.046-2.731-.015-4.093-.06-1.321.557-2.143 1.72-2.64 1.688-.72 3.478-.572 5.237-.513.838.029.31.795.413 1.213.098.399.043.756-.562.746-1.06-.016-2.125-.076-3.179.119-1.038.192-1.428.859-1.143 1.853.135.474.477.319.749.322 1.455.016 2.911.008 4.367.008zm77.037 6.142c-1.475.207-2.88.33-3.629-1.402-.46-1.066-1.309-1.317-2.43-1.25-1.61.098-3.232.072-4.845.006-.821-.033-1.446.153-1.78.92-.79 1.807-2.212 2.105-3.955 1.703-.096-.36.229-.527.396-.754 2.103-2.85 4.21-5.698 6.327-8.538 1.131-1.516 2.206-1.521 3.31-.015 2.093 2.858 4.175 5.723 6.252 8.592.147.202.406.363.354.738zm-6.078-4.672c-.725-.978-1.316-1.782-1.915-2.578-.15-.2-.293-.539-.585-.127l-1.923 2.705h4.423zm-26.576-5.62c1.633-.359 2.829-.122 3.803 1.431 1.343 2.14 2.98 4.09 4.564 6.22 1.476-2.04 3.05-3.926 4.289-6.016 1-1.689 2.271-2.033 3.998-1.666.07.35-.242.52-.403.74a1532.578 1532.578 0 0 1-6.35 8.625c-1.078 1.453-2.154 1.458-3.207.01-2.145-2.95-4.273-5.911-6.405-8.87-.102-.142-.183-.3-.289-.474zm-28.348-.142c1.733 0 3.467.034 5.199-.015.796-.022 1.18.065 1.153 1.034-.025.885-.338 1.01-1.097.968-1.02-.058-2.05.028-3.07-.03-.714-.04-.953.16-.937.895.048 2.253-.05 4.51.046 6.759.051 1.215-.708.919-1.36.94-.665.023-1.283.16-1.235-.934.097-2.25-.003-4.506.048-6.758.016-.721-.181-.942-.913-.903-1.139.061-2.287-.036-3.425.032-1.003.06-.649-.618-.696-1.08-.054-.522-.09-.957.734-.928 1.849.065 3.702.02 5.553.02zm-55.894-1.064c.094-.331-.199-.823.405-.944.82.002 1.64.016 2.46.002.395-.007.673.02.66.532-.068 2.877.272 5.78-.143 8.628-.815 5.583-4.847 9.176-10.809 9.762-4.717.463-9.451.214-14.18.128-.612-.01-.805-.216-.769-.815.047-.764-.013-1.533-.027-2.3.226-.528.606-.388.992-.22 0 .578.027 1.156-.008 1.73-.031.518.095.767.697.765 4.5-.02 9.01.312 13.495-.21 5.305-.619 8.69-3.705 9.644-8.775.365-1.936.123-3.913.146-5.871.028-2.466.006-2.466-2.563-2.412z" opacity=".301" fill="#D4E1ED"/></g></svg>