<?xml version="1.0" encoding="UTF-8"?>
<svg width="256px" height="256px" viewBox="0 0 256 256" version="1.1" xmlns="http://www.w3.org/2000/svg" xmlns:xlink="http://www.w3.org/1999/xlink">
    <!-- Generator: Sketch 46.2 (44496) - http://www.bohemiancoding.com/sketch -->
    <defs></defs>
    <g id="---Logos" stroke="none" stroke-width="1" fill="none" fill-rule="evenodd">
        <g id="Group" fill="#FFFFFF">
            <g id="Group-3" transform="translate(50.937500, 62.414062)">
                <g id="Group-4" transform="translate(32.303977, 0.000000)" stroke="#FFFFFF" stroke-width="1.38849432">
                    <circle id="Oval-6" fill-opacity="0.524598053" cx="26.7897727" cy="43.0433239" r="26.381392"></circle>
                    <path d="M12.2933605,20.9982031 C5.1335903,25.7158455 0.408380682,33.8277687 0.408380682,43.0433239 C0.408380682,57.6133644 12.2197322,69.4247159 26.7897727,69.4247159 C27.3366857,69.4247159 27.8797116,69.4080736 28.4183717,69.3752677 C16.7174573,63.2154705 8.73934659,50.9369787 8.73934659,36.7950994 C8.73934659,31.140944 10.0146728,25.7846569 12.2933605,20.9982031 L12.2933605,20.9982031 Z" id="Combined-Shape" fill-opacity="0.75"></path>
                    <circle id="Oval-6" fill-opacity="0.510275136" cx="76.7755682" cy="24.9928977" r="16.6619318"></circle>
                    <circle id="Oval-6" fill-opacity="0.610054348" cx="68.4446023" cy="45.8203125" r="23.6044034"></circle>
                    <circle id="Oval-6" fill-opacity="0.75" cx="45.534446" cy="36.7950994" r="36.7950994"></circle>
                    <path d="M70.3407809,9.61896092 C72.320601,8.78932442 74.4945569,8.33096591 76.7755682,8.33096591 C85.977699,8.33096591 93.4375,15.7907669 93.4375,24.9928977 C93.4375,32.3270802 88.6988585,38.5544937 82.1162111,40.7805025 C82.2572094,39.471379 82.3295455,38.1416867 82.3295455,36.7950994 C82.3295455,26.0315459 77.7078944,16.3474368 70.3407809,9.61896092 Z" id="Combined-Shape" fill-opacity="0.75"></path>
                    <path d="M63.5099354,68.9081098 C65.1014101,69.2466066 66.7522064,69.4247159 68.4446023,69.4247159 C81.4809543,69.4247159 92.0490057,58.8566645 92.0490057,45.8203125 C92.0490057,37.2246867 87.4545109,29.7021626 80.5873808,25.5745997 C81.7187789,29.1120241 82.3295455,32.8822357 82.3295455,36.7950994 C82.3295455,50.5879792 74.7403505,62.6083076 63.5099354,68.9081098 L63.5099354,68.9081098 Z" id="Combined-Shape" fill-opacity="0.75"></path>
                </g>
                <path d="M6.17545455,124.392756 L6.17545455,109.996847 C6.17545455,107.597528 7.68613636,105.464801 10.1743182,105.464801 C13.2401136,105.464801 13.5511364,107.908551 13.5511364,110.307869 L13.5511364,124.392756 L18.8385227,124.392756 L18.8385227,109.819119 C18.8385227,107.508665 20.3936364,105.464801 22.8373864,105.464801 C25.7698864,105.464801 26.2142045,107.686392 26.2142045,110.307869 L26.2142045,124.392756 L31.5015909,124.392756 L31.5015909,109.241506 C31.5015909,103.998551 28.9245455,101.377074 24.4369318,101.377074 C21.6377273,101.377074 19.2828409,102.621165 17.9498864,104.931619 C16.7057955,102.443438 14.5730682,101.377074 11.7738636,101.377074 C8.97465909,101.377074 6.7975,102.621165 5.33125,104.842756 L4.88693182,102.043551 L0.488181818,102.043551 L0.888068182,105.909119 L0.888068182,124.392756 L6.17545455,124.392756 Z M42.3429545,124.392756 L42.3429545,102.043551 L37.0555682,102.043551 L37.0555682,124.392756 L42.3429545,124.392756 Z M36.61125,95.6453693 C36.61125,97.3337784 37.8109091,98.5778693 39.6770455,98.5778693 C41.4543182,98.5778693 42.7428409,97.3337784 42.7428409,95.6453693 C42.7428409,94.001392 41.49875,92.6684375 39.6770455,92.6684375 C37.8553409,92.6684375 36.61125,94.001392 36.61125,95.6453693 Z M51.8069318,124.392756 L51.8069318,109.952415 C51.8069318,107.15321 54.0285227,104.442869 57.1831818,104.442869 C61.3153409,104.442869 61.7596591,107.64196 61.7596591,110.485597 L61.7596591,124.392756 L65.1809091,124.392756 L65.1809091,109.730256 C65.1809091,107.019915 67.4469318,104.442869 70.5127273,104.442869 C74.4227273,104.442869 75.0892045,107.286506 75.0892045,110.441165 L75.0892045,124.392756 L78.5104545,124.392756 L78.5104545,109.508097 C78.5104545,104.442869 75.9778409,101.688097 71.4013636,101.688097 C68.6021591,101.688097 65.93625,103.065483 64.5144318,105.820256 C63.3147727,102.887756 61.0931818,101.688097 58.1606818,101.688097 C55.4503409,101.688097 52.9177273,103.021051 51.3626136,105.464801 L50.9627273,102.310142 L48.0746591,102.310142 L48.3856818,105.642528 L48.3856818,124.392756 L51.8069318,124.392756 Z M94.1060227,101.688097 C98.2381818,101.688097 100.593068,103.909688 100.593068,107.197642 C100.593068,113.773551 92.6842045,114.839915 88.3743182,114.839915 C87.93,114.839915 87.5745455,114.795483 87.2190909,114.795483 C87.3968182,118.438892 89.1740909,122.260028 93.8838636,122.260028 C96.8607955,122.260028 98.7269318,120.83821 99.5711364,120.216165 L100.904091,122.482188 C99.7932955,123.415256 97.21625,125.014801 93.6617045,125.014801 C86.7303409,125.014801 83.7978409,120.305028 83.7978409,113.684687 C83.7978409,107.108778 87.3523864,101.688097 94.1060227,101.688097 Z M97.3495455,107.597528 C97.3495455,105.509233 95.9277273,104.265142 93.9282955,104.265142 C89.1740909,104.265142 87.3523864,108.752756 87.2190909,112.262869 C87.4856818,112.262869 87.7522727,112.307301 88.1077273,112.307301 C91.1290909,112.307301 97.3495455,111.596392 97.3495455,107.597528 Z M114.411364,101.688097 C116.188636,101.688097 117.566023,101.999119 118.987841,102.487869 L118.987841,93.512642 L122.409091,93.512642 L122.409091,120.393892 L122.764545,124.392756 L119.69875,124.392756 L119.387727,121.726847 L119.21,121.682415 C117.477159,124.126165 115.033409,125.014801 112.678523,125.014801 C106.191477,125.014801 104.014318,119.905142 104.014318,113.99571 C104.014318,106.531165 107.746591,101.688097 114.411364,101.688097 Z M118.987841,117.594688 L118.987841,105.420369 C117.965909,104.887188 116.321932,104.354006 114.278068,104.354006 C109.435,104.354006 107.435568,108.397301 107.435568,113.595824 C107.435568,118.172301 108.679659,122.348892 113.211705,122.348892 C116.855114,122.348892 118.987841,119.816278 118.987841,117.594688 Z M132.450682,124.392756 L132.450682,102.310142 L128.985,102.310142 L128.985,124.392756 L132.450682,124.392756 Z M128.407386,96.0008239 C128.407386,97.3782102 129.340455,98.3557102 130.673409,98.3557102 C132.006364,98.3557102 133.028295,97.3782102 133.028295,96.0008239 C133.028295,94.7123011 132.006364,93.6903693 130.717841,93.6903693 C129.384886,93.6903693 128.407386,94.7123011 128.407386,96.0008239 Z M156.177273,103.109915 L156.177273,120.527187 L156.532727,124.392756 L153.4225,124.392756 L153.155909,121.771278 L153.022614,121.726847 C151.911818,123.326392 150.00125,125.014801 146.535568,125.014801 C140.359545,125.014801 137.738068,120.749347 137.738068,114.306733 C137.738068,106.442301 141.514773,101.688097 148.890455,101.688097 C150.267841,101.688097 153.333636,102.043551 156.177273,103.109915 Z M152.756023,117.372528 L152.756023,105.153778 C151.95625,104.798324 150.178977,104.398438 148.312841,104.398438 C142.981023,104.398438 141.159318,108.752756 141.159318,114.440028 C141.159318,118.305597 142.314545,122.437756 146.979886,122.437756 C150.712159,122.437756 152.756023,119.86071 152.756023,117.372528 Z" id="mimedia"></path>
            </g>
        </g>
    </g>
</svg>