<?xml version="1.0" encoding="UTF-8"?>
<svg width="230px" height="160px" viewBox="0 0 230 160" version="1.1" xmlns="http://www.w3.org/2000/svg" xmlns:xlink="http://www.w3.org/1999/xlink">
    <!-- Generator: Sketch 47.1 (45422) - http://www.bohemiancoding.com/sketch -->
    <defs></defs>
    <g id="---Logos" stroke="none" stroke-width="1" fill="none" fill-rule="evenodd">
        <g id="Group-2" fill="#D4E1ED">
            <g id="Group-3" transform="translate(68.000000, 36.000000)">
                <g id="Group-4" opacity="0.300000012" transform="translate(19.341235, 0.000000)" stroke="#D4E1ED" stroke-width="2" fill-opacity="0.524598053">
                    <ellipse id="Oval-6" cx="16.0397365" cy="25.9626398" rx="15.7952284" ry="15.9125857"></ellipse>
                    <path d="M7.36035595,12.6655828 C3.07361457,15.5111449 0.244508179,20.404051 0.244508179,25.9626398 C0.244508179,34.7509182 7.3162728,41.8752255 16.0397365,41.8752255 C16.3671876,41.8752255 16.6923114,41.8651872 17.0148213,41.8453995 C10.0091782,38.1299663 5.23247503,30.7238919 5.23247503,22.1938695 C5.23247503,18.7834265 5.99604615,15.5526502 7.36035595,12.6655828 L7.36035595,12.6655828 Z" id="Combined-Shape"></path>
                    <ellipse id="Oval-6" cx="45.9675376" cy="15.0750812" rx="9.9759337" ry="10.0500541"></ellipse>
                    <ellipse id="Oval-6" cx="40.9795708" cy="27.6376488" rx="14.1325727" ry="14.2375767"></ellipse>
                    <ellipse id="Oval-6" cx="27.2626619" cy="22.1938695" rx="22.0301869" ry="22.1938695"></ellipse>
                    <path d="M42.1148625,5.80191293 C43.3002324,5.30149727 44.6018366,5.02502706 45.9675376,5.02502706 C51.4770937,5.02502706 55.9434713,9.52458955 55.9434713,15.0750812 C55.9434713,19.4988738 53.1063229,23.2550914 49.16512,24.5977634 C49.2495394,23.8081333 49.2928489,23.0060967 49.2928489,22.1938695 C49.2928489,15.7015674 46.5257457,9.86035869 42.1148625,5.80191293 Z" id="Combined-Shape"></path>
                    <path d="M38.0250569,41.5636218 C38.9779143,41.7677944 39.9662892,41.8752255 40.9795708,41.8752255 C48.7847752,41.8752255 55.1121435,35.5008453 55.1121435,27.6376488 C55.1121435,22.4529856 52.3612995,17.9155901 48.2497694,15.425949 C48.927167,17.5596336 49.2928489,19.8337294 49.2928489,22.1938695 C49.2928489,30.5133843 44.7489997,37.7637411 38.0250569,41.5636218 L38.0250569,41.5636218 Z" id="Combined-Shape"></path>
                </g>
                <path d="M3.69740591,75.030551 L3.69740591,66.3473043 C3.69740591,64.9000965 4.60189056,63.6136896 6.09162999,63.6136896 C7.9272018,63.6136896 8.11341922,65.0876975 8.11341922,66.5349053 L8.11341922,75.030551 L11.2791155,75.030551 L11.2791155,66.2401037 C11.2791155,64.8464962 12.2102027,63.6136896 13.6733396,63.6136896 C15.4291039,63.6136896 15.6951288,64.9536968 15.6951288,66.5349053 L15.6951288,75.030551 L18.8608251,75.030551 L18.8608251,65.8917018 C18.8608251,62.7292848 17.3178807,61.1480763 14.6310292,61.1480763 C12.9550724,61.1480763 11.5451404,61.8984803 10.7470657,63.2920878 C10.002196,61.7912798 8.72527649,61.1480763 7.04931963,61.1480763 C5.37336277,61.1480763 4.06984076,61.8984803 3.1919586,63.2384876 L2.9259337,61.5500785 L0.292287203,61.5500785 L0.531709612,63.881691 L0.531709612,75.030551 L3.69740591,75.030551 Z M25.3518327,75.030551 L25.3518327,61.5500785 L22.1861364,61.5500785 L22.1861364,75.030551 L25.3518327,75.030551 Z M21.9201115,57.6908577 C21.9201115,58.7092632 22.6383787,59.4596672 23.7556833,59.4596672 C24.8197829,59.4596672 25.5912551,58.7092632 25.5912551,57.6908577 C25.5912551,56.6992523 24.8463854,55.895248 23.7556833,55.895248 C22.6649812,55.895248 21.9201115,56.6992523 21.9201115,57.6908577 Z M31.018163,75.030551 L31.018163,66.3205041 C31.018163,64.6320951 32.3482875,62.9972863 34.2370643,62.9972863 C36.7110958,62.9972863 36.9771207,64.9268966 36.9771207,66.6421059 L36.9771207,75.030551 L39.0255124,75.030551 L39.0255124,66.1865034 C39.0255124,64.5516946 40.3822394,62.9972863 42.2178112,62.9972863 C44.5588303,62.9972863 44.9578677,64.7124955 44.9578677,66.6153057 L44.9578677,75.030551 L47.0062594,75.030551 L47.0062594,66.0525027 C47.0062594,62.9972863 45.4899175,61.3356773 42.749861,61.3356773 C41.0739042,61.3356773 39.4777548,62.1664818 38.6264751,63.8280907 C37.9082079,62.0592812 36.5780834,61.3356773 34.8223191,61.3356773 C33.1995672,61.3356773 31.6832252,62.1396816 30.7521381,63.6136896 L30.5127157,61.7108793 L28.7835539,61.7108793 L28.9697713,63.7208902 L28.9697713,75.030551 L31.018163,75.030551 Z M56.3437334,61.3356773 C58.8177649,61.3356773 60.2276969,62.6756845 60.2276969,64.6588952 C60.2276969,68.6253166 55.4924537,69.26852 52.9120122,69.26852 C52.6459873,69.26852 52.4331673,69.2417199 52.2203474,69.2417199 C52.3267574,71.4393317 53.390857,73.7441441 56.2107209,73.7441441 C57.9930877,73.7441441 59.1103923,72.8865395 59.6158396,72.5113375 L60.4139143,73.8781448 C59.7488521,74.4409479 58.2059076,75.4057531 56.0777085,75.4057531 C51.92772,75.4057531 50.1719557,72.5649378 50.1719557,68.5717163 C50.1719557,64.6052949 52.3001549,61.3356773 56.3437334,61.3356773 Z M58.2857151,64.9000965 C58.2857151,63.6404897 57.4344354,62.8900857 56.2373234,62.8900857 C53.390857,62.8900857 52.3001549,65.5969003 52.2203474,67.7141117 C52.3799624,67.7141117 52.5395773,67.7409118 52.7523972,67.7409118 C54.5613665,67.7409118 58.2857151,67.3121095 58.2857151,64.9000965 Z M68.5010712,61.3356773 C69.5651708,61.3356773 70.389848,61.5232783 71.2411277,61.8180799 L71.2411277,56.4044508 L73.2895194,56.4044508 L73.2895194,72.6185381 L73.5023393,75.030551 L71.6667675,75.030551 L71.4805501,73.4225424 L71.3741401,73.3957422 C70.336643,74.8697502 68.8735061,75.4057531 67.4635741,75.4057531 C63.5796106,75.4057531 62.2760886,72.3237365 62.2760886,68.7593173 C62.2760886,64.256893 64.5106977,61.3356773 68.5010712,61.3356773 Z M71.2411277,70.930129 L71.2411277,63.5868894 C70.6292704,63.2652877 69.6449783,62.943686 68.4212638,62.943686 C65.5215924,62.943686 64.3244803,65.3824991 64.3244803,68.518116 C64.3244803,71.2785308 65.06935,73.7977444 67.782804,73.7977444 C69.9642082,73.7977444 71.2411277,72.2701362 71.2411277,70.930129 Z M79.3016821,75.030551 L79.3016821,61.7108793 L77.2266879,61.7108793 L77.2266879,75.030551 L79.3016821,75.030551 Z M76.8808555,57.9052588 C76.8808555,58.7360633 77.4395078,59.3256665 78.2375825,59.3256665 C79.0356572,59.3256665 79.6475145,58.7360633 79.6475145,57.9052588 C79.6475145,57.1280547 79.0356572,56.5116513 78.264185,56.5116513 C77.4661103,56.5116513 76.8808555,57.1280547 76.8808555,57.9052588 Z M93.5074117,62.1932819 L93.5074117,72.6989385 L93.7202316,75.030551 L91.8580573,75.030551 L91.6984424,73.4493425 L91.6186349,73.4225424 C90.9535727,74.3873476 89.8096656,75.4057531 87.7346714,75.4057531 C84.0369253,75.4057531 82.4673784,72.8329392 82.4673784,68.9469183 C82.4673784,64.2032927 84.72859,61.3356773 89.1446034,61.3356773 C89.9692805,61.3356773 91.8048523,61.5500785 93.5074117,62.1932819 Z M91.45902,70.7961282 L91.45902,63.4260886 C90.9801752,63.2116874 89.9160756,62.9704861 88.798771,62.9704861 C85.6064722,62.9704861 84.5157701,65.5969003 84.5157701,69.0273187 C84.5157701,71.3589313 85.2074349,73.8513447 88.0006963,73.8513447 C90.2353054,73.8513447 91.45902,72.2969363 91.45902,70.7961282 Z" id="mimedia" opacity="0.301"></path>
            </g>
        </g>
    </g>
</svg>