<svg xmlns="http://www.w3.org/2000/svg" width="2560px" height="1200px" viewBox="0 0 2560 1200"><style>
@keyframes jz6zq3br2u9q1lrco4mt9rg8_t { 0% { transform: translate(652.5px,467.5px) rotate(45deg) scale(1,1) translate(-6.5px,-223.5px); animation-timing-function: cubic-bezier(.4,0,.6,1); } 47.264% { transform: translate(652.5px,467.5px) rotate(45deg) scale(1.2,1.2) translate(-6.5px,-223.5px); animation-timing-function: cubic-bezier(.4,0,.6,1); } 100% { transform: translate(652.5px,467.5px) rotate(45deg) scale(1,1) translate(-6.5px,-223.5px); } }
@keyframes jz6zq3br2u9q1lrco4mt9rg8_o { 0% { opacity: 1; } 6.049% { opacity: 1; animation-timing-function: cubic-bezier(.4,0,.6,1); } 11.818% { opacity: .5; animation-timing-function: cubic-bezier(.4,0,.6,1); } 17.851% { opacity: 1; } 100% { opacity: 1; } }
@keyframes csyouo1tz6x5vmp78fbw1st7_o { 0% { opacity: .2; } 48.35% { opacity: 1; } 100% { opacity: .2; } }
@keyframes qo3l2djf1yha6qaug9fqu8bi_o { 0% { opacity: 1; animation-timing-function: cubic-bezier(.4,0,.6,1); } 53.609% { opacity: .3; animation-timing-function: cubic-bezier(.4,0,.6,1); } 100% { opacity: 1; } }
@keyframes vl4mt1do0cyzn2h76s46u0hp_o { 0% { opacity: 1; animation-timing-function: cubic-bezier(.4,0,.6,1); } 49.972% { opacity: .3; animation-timing-function: cubic-bezier(.4,0,.6,1); } 100% { opacity: 1; } }
@keyframes t9r1i5gnhlo1mqopi7rit1v2_o { 0% { opacity: .2; } 55.257% { opacity: 1; } 100% { opacity: .2; } }
@keyframes xemh99w93mn16rzcl00m2u76_o { 0% { opacity: 1; animation-timing-function: cubic-bezier(.4,0,.6,1); } 49.598% { opacity: .3; animation-timing-function: cubic-bezier(.4,0,.6,1); } 100% { opacity: 1; } }
@keyframes rojjbok5sj7wmvqj8qqgrxy7_o { 0% { opacity: 1; animation-timing-function: cubic-bezier(.4,0,.6,1); } 48.947% { opacity: .3; animation-timing-function: cubic-bezier(.4,0,.6,1); } 100% { opacity: 1; } }
@keyframes b28ujopohumh2iymn72dwe1u_o { 0% { opacity: 1; animation-timing-function: cubic-bezier(.4,0,.6,1); } 49.972% { opacity: .3; animation-timing-function: cubic-bezier(.4,0,.6,1); } 100% { opacity: 1; } }
@keyframes wyognyn77p0628a9uegyrgvw_t { 0% { transform: translate(1132.2px,925.2px) rotate(45deg) scale(1,1) translate(-486.2px,-681.2px); animation-timing-function: cubic-bezier(0,0,.6,1); } 52.057% { transform: translate(1132.2px,925.2px) rotate(45deg) scale(1.2,1.2) translate(-486.2px,-681.2px); animation-timing-function: cubic-bezier(.4,0,.6,1); } 100% { transform: translate(1132.2px,925.2px) rotate(45deg) scale(1,1) translate(-486.2px,-681.2px); } }
@keyframes wyognyn77p0628a9uegyrgvw_o { 0% { opacity: 1; animation-timing-function: cubic-bezier(0,0,1,1); } 11.57% { opacity: 1; animation-timing-function: cubic-bezier(.4,0,.6,1); } 17.355% { opacity: .5; animation-timing-function: cubic-bezier(.4,0,.6,1); } 23.421% { opacity: 1; animation-timing-function: cubic-bezier(0,0,1,1); } 100% { opacity: 1; } }
@keyframes isrw2da3eydok5gprlh6it4z_t { 0% { transform: translate(1754.1px,323.1px) rotate(45deg) scale(1,1) translate(-1108.1px,-79.1px); animation-timing-function: cubic-bezier(0,0,.6,1); } 47.73% { transform: translate(1754.1px,323.1px) rotate(45deg) scale(1.2,1.2) translate(-1108.1px,-79.1px); animation-timing-function: cubic-bezier(.4,0,.6,1); } 100% { transform: translate(1754.1px,323.1px) rotate(45deg) scale(1,1) translate(-1108.1px,-79.1px); } }
@keyframes isrw2da3eydok5gprlh6it4z_o { 0% { opacity: 1; animation-timing-function: cubic-bezier(0,0,1,1); } 8.81% { opacity: 1; animation-timing-function: cubic-bezier(.4,0,.6,1); } 14.595% { opacity: .5; animation-timing-function: cubic-bezier(.4,0,.6,1); } 20.661% { opacity: 1; animation-timing-function: cubic-bezier(0,0,1,1); } 100% { opacity: 1; } }
</style><title>mission-bg-1</title><desc>Created with Sketch.</desc><path d="M2.9 219.3l1.4 .4c1.4 .4 3 .4 4.5 0l1.3-0.4c.3-0.1 .5 0 .6 .3c.1 .1 .1 .2 0 .3l-0.4 1.3c-0.4 1.5-0.4 3.1 0 4.5l.4 1.4c.1 .3 0 .5-0.3 .6c-0.1 .1-0.2 .1-0.3 0l-1.3-0.4c-1.5-0.4-3.1-0.4-4.5 0l-1.4 .4c-0.3 .1-0.5 0-0.6-0.3c-0.1-0.1-0.1-0.2 0-0.3l.4-1.4c.4-1.4 .4-3 0-4.5l-0.4-1.3c-0.1-0.3 0-0.5 .3-0.6c.1-0.1 .2-0.1 .3 0Z" fill="#f2f3f5" fill-rule="evenodd" transform="translate(652.5,467.5) rotate(45) translate(-6.5,-223.5)" style="animation: 1.52s linear infinite both jz6zq3br2u9q1lrco4mt9rg8_t, 6.07s linear infinite both jz6zq3br2u9q1lrco4mt9rg8_o;"/><ellipse rx="1" ry="1" fill="#f2f3f5" fill-rule="evenodd" opacity=".2" transform="translate(2040.5,497.5)" style="animation: 2s linear infinite both csyouo1tz6x5vmp78fbw1st7_o;"/><ellipse rx="1" ry="1" fill="#f2f3f5" fill-rule="evenodd" transform="translate(1973.5,304.5)" style="animation: 2.3s linear infinite both qo3l2djf1yha6qaug9fqu8bi_o;"/><ellipse rx="1" ry="1" fill="#f2f3f5" fill-rule="evenodd" transform="translate(1923.5,404.5)" style="animation: 1.77s linear infinite both vl4mt1do0cyzn2h76s46u0hp_o;"/><ellipse rx="1" ry="1" fill="#f2f3f5" fill-rule="evenodd" opacity=".2" transform="translate(1973.5,244.5)" style="animation: 1.75s linear infinite both t9r1i5gnhlo1mqopi7rit1v2_o;"/><ellipse rx="1" ry="1" fill="#f2f3f5" fill-rule="evenodd" transform="translate(1894,379)" style="animation: 2.12s linear infinite both xemh99w93mn16rzcl00m2u76_o;"/><ellipse rx="1" ry="1" fill="#f2f3f5" fill-rule="evenodd" transform="translate(1664,249)" style="animation: 1.57s linear infinite both rojjbok5sj7wmvqj8qqgrxy7_o;"/><ellipse rx="1" ry="1" fill="#f2f3f5" fill-rule="evenodd" transform="translate(2084,259)" style="animation: 1.77s linear infinite both b28ujopohumh2iymn72dwe1u_o;"/><path d="M480.6 674.3l1.5 .7c2.6 1.2 5.6 1.2 8.1 0l1.5-0.7c.5-0.3 1.1-0.1 1.4 .4c.1 .3 .1 .6 0 .9l-0.7 1.5c-1.3 2.6-1.3 5.6 0 8.1l.7 1.5c.2 .5 0 1.1-0.5 1.4c-0.3 .1-0.6 .1-0.9 0l-1.5-0.7c-2.5-1.3-5.5-1.3-8.1 0l-1.5 .7c-0.5 .2-1.1 0-1.3-0.5c-0.2-0.3-0.2-0.6 0-0.9l.7-1.5c1.2-2.5 1.2-5.5 0-8.1l-0.7-1.5c-0.3-0.5-0.1-1.1 .4-1.3c.3-0.2 .6-0.2 .9 0Z" fill="#f2f3f5" fill-rule="evenodd" transform="translate(1132.2,925.2) rotate(45) translate(-486.2,-681.2)" style="animation: 2.02s linear infinite both wyognyn77p0628a9uegyrgvw_t, 6.05s linear infinite both wyognyn77p0628a9uegyrgvw_o;"/><path d="M1105.6 75.2c1.6 .8 3.4 .8 5.1 0c.4-0.2 1 0 1.3 .5c.1 .3 .1 .6 0 .9c-0.8 1.6-0.8 3.4 0 5.1c.2 .4 0 1-0.5 1.3c-0.3 .1-0.6 .1-0.8 0c-1.7-0.8-3.5-0.8-5.1 0c-0.5 .2-1.1 0-1.4-0.5c-0.1-0.3-0.1-0.6 0-0.8c.8-1.7 .8-3.5 0-5.1c-0.2-0.5 0-1.1 .5-1.4c.3-0.1 .6-0.1 .9 0Z" fill="#f2f3f5" fill-rule="evenodd" transform="translate(1754.1,323.1) rotate(45) translate(-1108.1,-79.1)" style="animation: 1.85s linear infinite both isrw2da3eydok5gprlh6it4z_t, 6.05s linear infinite both isrw2da3eydok5gprlh6it4z_o;"/></svg>