<?xml version="1.0" encoding="UTF-8"?>
<svg width="48px" height="48px" viewBox="0 0 48 48" version="1.1" xmlns="http://www.w3.org/2000/svg" xmlns:xlink="http://www.w3.org/1999/xlink">
    <!-- Generator: Sketch 42 (36781) - http://www.bohemiancoding.com/sketch -->
    <defs></defs>
    <g id="Statistics-icons" stroke="none" stroke-width="1" fill="none" fill-rule="evenodd">
        <g id="iPhone" fill="#92a1ae">
            <path d="M34,34 L34,6 L14,6 L14,34 L34,34 Z M34,38 L14,38 L14,42 L34,42 L34,38 Z M12.0049466,2 L35.9950534,2 C37.1023548,2 38,2.89153983 38,3.99729162 L38,44.0027084 C38,45.1057821 37.1029738,46 35.9950534,46 L12.0049466,46 C10.8976452,46 10,45.1084602 10,44.0027084 L10,3.99729162 C10,2.89421792 10.8970262,2 12.0049466,2 Z M22,40 C22,39.4477153 22.4433532,39 23.0093689,39 L24.9906311,39 C25.5480902,39 26,39.4438648 26,40 C26,40.5522847 25.5566468,41 24.9906311,41 L23.0093689,41 C22.4519098,41 22,40.5561352 22,40 Z" id="Combined-Shape"></path>
        </g>
    </g>
</svg>