<?xml version="1.0" encoding="UTF-8"?>
<svg width="43px" height="671px" viewBox="0 0 43 671" version="1.1" xmlns="http://www.w3.org/2000/svg" xmlns:xlink="http://www.w3.org/1999/xlink">
    <!-- Generator: Sketch 58 (84663) - https://sketch.com -->
    <title>Group 32</title>
    <desc>Created with Sketch.</desc>
    <g id="Grant's" stroke="none" stroke-width="1" fill="none" fill-rule="evenodd">
        <g id="Case-Grants" transform="translate(-938.000000, -3074.000000)" fill-rule="nonzero">
            <g id="Group-13-+-Group-13-Copy-+-Group-13-Mask" transform="translate(-347.000000, 2304.000000)">
                <g id="Group-51" transform="translate(347.000000, 746.000000)">
                    <g id="Group-43" transform="translate(694.000000, 0.000000)">
                        <g id="Group-49" transform="translate(0.374332, 0.000000)">
                            <g id="Group-32" transform="translate(245.000000, 24.000000)">
                                <rect id="Rectangle" fill="#ED4159" x="19" y="0" width="2" height="378"></rect>
                                <polygon id="Rectangle-Copy-4" fill="#ED4159" transform="translate(20.000000, 544.000000) scale(-1, 1) translate(-20.000000, -544.000000) " points="19 417 21 417 21 671 19 671"></polygon>
                                <circle id="Oval" stroke="#ED4159" stroke-width="2" fill-opacity="0.8" fill="#212632" cx="20" cy="398" r="20"></circle>
                                <path d="M25.7454405,393.2 L31.5635757,397.2 C32.0455658,397.531371 32.1432483,398.158172 31.7817557,398.6 C31.7197334,398.675806 31.6462721,398.743146 31.5635757,398.8 L25.7454405,402.8 C25.2634504,403.131371 24.5796726,403.041828 24.2181801,402.6 C24.0765571,402.426904 24,402.21637 24,402 L24,394 C24,393.447715 24.4884127,393 25.0909003,393 C25.3269387,393 25.5566099,393.070178 25.7454405,393.2 Z" id="Rectangle" fill="#FF506B"></path>
                                <path d="M14.2545595,393.2 C14.4433901,393.070178 14.6730613,393 14.9090997,393 C15.5115873,393 16,393.447715 16,394 L16,402 C16,402.21637 15.9234429,402.426904 15.7818199,402.6 C15.4203274,403.041828 14.7365496,403.131371 14.2545595,402.8 L8.43642434,398.8 C8.35372791,398.743146 8.28026659,398.675806 8.21824427,398.6 C7.8567517,398.158172 7.95443424,397.531371 8.43642434,397.2 L14.2545595,393.2 Z" id="Rectangle" fill="#FF506B"></path>
                            </g>
                        </g>
                    </g>
                </g>
            </g>
        </g>
    </g>
</svg>