<?xml version="1.0" encoding="UTF-8"?>
<svg width="48px" height="48px" viewBox="0 0 48 48" version="1.1" xmlns="http://www.w3.org/2000/svg" xmlns:xlink="http://www.w3.org/1999/xlink">
    <!-- Generator: Sketch 42 (36781) - http://www.bohemiancoding.com/sketch -->
    <defs></defs>
    <g id="Statistics-icons" stroke="none" stroke-width="1" fill="none" fill-rule="evenodd">
        <g id="Note-2" fill="#92a1ae">
            <path d="M37.4100719,6.52394105 L16.8345324,11.68909 L16.8345324,15.5803259 L37.4100719,10.4151769 L37.4100719,6.52394105 Z M41.1510791,4.04398859 L41.1510791,32.9999922 C41.1510791,36.8659932 38.2199937,40 34.6043165,40 C30.9886394,40 28.057554,36.8659932 28.057554,33 C28.057554,29.1340068 30.9886394,26 34.6043165,26 C35.6084003,26 36.5596892,26.241691 37.4100719,26.6736312 L37.4100719,14.5239411 L16.8345324,19.68909 L16.8345324,38.9999922 C16.8345324,42.8659932 13.9034469,46 10.2877698,46 C6.67209265,46 3.74100719,42.8659932 3.74100719,39 C3.74100719,35.1340068 6.67209265,32 10.2877698,32 C11.2918536,32 12.2431424,32.241691 13.0935252,32.6736312 L13.0935252,10 L13.164903,10 C13.1998835,9.12669801 13.7716517,8.34921142 14.6065961,8.13961242 L38.8530447,2.0529425 C39.8587491,1.80047702 40.8654458,2.46754065 41.1015646,3.54287082 C41.1384675,3.71093399 41.1543639,3.87902307 41.1510791,4.04398859 Z M37.4100719,33 C37.4100719,31.3431458 36.1538925,30 34.6043165,30 C33.0547406,30 31.7985612,31.3431458 31.7985612,33 C31.7985612,34.6568542 33.0547406,36 34.6043165,36 C36.1538925,36 37.4100719,34.6568542 37.4100719,33 Z M13.0935252,39 C13.0935252,37.3431458 11.8373457,36 10.2877698,36 C8.73819387,36 7.48201439,37.3431458 7.48201439,39 C7.48201439,40.6568542 8.73819387,42 10.2877698,42 C11.8373457,42 13.0935252,40.6568542 13.0935252,39 Z" id="Combined-Shape"></path>
        </g>
    </g>
</svg>