<?xml version="1.0" encoding="UTF-8"?>
<svg width="230px" height="160px" viewBox="0 0 230 160" version="1.1" xmlns="http://www.w3.org/2000/svg" xmlns:xlink="http://www.w3.org/1999/xlink">
    <!-- Generator: Sketch 48.2 (47327) - http://www.bohemiancoding.com/sketch -->
    <defs></defs>
    <g id="---Logos" stroke="none" stroke-width="1" fill="none" fill-rule="evenodd" opacity="0.301">
        <g id="Group-2" fill="#D4E1ED">
            <path d="M64.6794262,71.1163435 L64.6794262,81.567867 C64.6794262,82.265928 64.6228944,82.5373961 64.4344551,82.867036 C64.2271718,83.2160665 63.7937612,83.468144 63.3038189,83.468144 C62.8138766,83.468144 62.3616221,83.2160665 62.1731827,82.867036 C61.9847434,82.5373961 61.9282116,82.265928 61.9282116,81.567867 L61.9282116,71.601108 C61.9282116,68.2077562 60.2134134,66.5207756 57.386823,66.5207756 C54.5602325,66.5207756 52.7512147,68.2465374 52.7512147,71.601108 L52.7512147,81.567867 C52.7512147,82.265928 52.6946829,82.5373961 52.5062435,82.867036 C52.2989602,83.2160665 51.8655497,83.468144 51.3756073,83.468144 C50.885665,83.468144 50.4522545,83.2160665 50.2449712,82.867036 C50.0565318,82.5373961 50,82.265928 50,81.567867 L50,65.9778393 C50,65.299169 50.0376879,65.0277008 50.2449712,64.6786704 C50.4522545,64.3296399 50.8668211,64.0775623 51.3756073,64.0775623 C51.8843936,64.0775623 52.2989602,64.3296399 52.5062435,64.6786704 C52.7135268,65.0277008 52.7512147,65.299169 52.7512147,65.9778393 L52.7512147,66.3268698 C54.0891341,64.7950139 55.898152,64 57.952141,64 C59.9684422,64 61.6078646,64.6204986 62.7573447,65.7839335 C64.0764203,67.1024931 64.6794262,68.9058172 64.6794262,71.1163435 Z M79.1267085,74.4903047 L68.1783816,74.4903047 C68.1783816,78.6592798 70.1004631,81.1024931 73.680811,81.1024931 C75.1129501,81.1024931 76.5450892,80.6952909 77.6568815,79.7257618 C78.2410435,79.2216066 78.5237025,79.0470914 78.9382691,79.0470914 C79.5224312,79.0470914 80.1065932,79.6288089 80.1065932,80.2686981 C80.1065932,81.1218837 78.9194252,81.9750693 78.1845117,82.4404432 C77.0727195,83.1191136 75.4709849,83.5457064 73.5677473,83.5457064 C68.64948,83.5457064 65.4460109,80.5207756 65.4460109,73.7728532 C65.4460109,67.4709141 68.4233528,64 73.0966489,64 C77.807633,64 80.6719113,67.5290859 80.7095991,72.8421053 C80.7095991,73.2299169 80.6907552,73.7534626 80.3327204,74.1218837 C79.9746856,74.4903047 79.560119,74.4903047 79.1267085,74.4903047 Z M68.1783816,72.3573407 L78.0149163,72.3573407 C77.9583845,71 77.8453208,70.3019391 77.4307542,69.2548476 C76.7335286,67.5096953 75.1129501,66.4044321 73.0966489,66.4044321 C71.0803478,66.4044321 69.4409253,67.5290859 68.7625436,69.2548476 C68.347977,70.3019391 68.2349134,71 68.1783816,72.3573407 Z M81.4008083,76.4293629 L81.4008083,65.9778393 C81.4008083,65.2797784 81.4573401,65.0083102 81.6457794,64.6786704 C81.8530627,64.3296399 82.2864733,64.0775623 82.7764156,64.0775623 C83.2663579,64.0775623 83.7186124,64.3296399 83.9070518,64.6786704 C84.0954911,65.0083102 84.1520229,65.2797784 84.1520229,65.9778393 L84.1520229,75.9445983 C84.1520229,79.3379501 85.8668211,81.0249307 88.6934115,81.0249307 C91.5200019,81.0249307 93.3290198,79.299169 93.3290198,75.9445983 L93.3290198,65.9778393 C93.3290198,65.2797784 93.3855516,65.0083102 93.573991,64.6786704 C93.7812743,64.3296399 94.2146848,64.0775623 94.7046272,64.0775623 C95.1945695,64.0775623 95.62798,64.3296399 95.8352633,64.6786704 C96.0237027,65.0083102 96.0802345,65.2797784 96.0802345,65.9778393 L96.0802345,81.567867 C96.0802345,82.2465374 96.0425466,82.5180055 95.8352633,82.867036 C95.62798,83.2160665 95.2134134,83.468144 94.7046272,83.468144 C94.1958409,83.468144 93.7812743,83.2160665 93.573991,82.867036 C93.3667077,82.5180055 93.3290198,82.2465374 93.3290198,81.567867 L93.3290198,81.2188366 C91.9911004,82.7506925 90.1820825,83.5457064 88.1280934,83.5457064 C86.1117923,83.5457064 84.4723698,82.9252078 83.3228897,81.7617729 C82.0038142,80.4432133 81.4008083,78.6398892 81.4008083,76.4293629 Z M102.971098,75.8476454 L99.0892475,82.3822715 C98.655837,83.099723 98.2978022,83.468144 97.7136402,83.468144 C97.468669,83.468144 97.2236979,83.3905817 96.9787267,83.2354571 C96.5641601,82.9639889 96.3380329,82.5761773 96.3380329,82.1108033 C96.3380329,81.7811634 96.4887844,81.432133 96.8091313,80.9279778 L101.237456,73.734072 L96.8468191,66.6177285 C96.5453162,66.1135734 96.3757207,65.7645429 96.3757207,65.4155125 C96.3757207,64.9695291 96.601848,64.5623269 97.0352585,64.2908587 C97.2802297,64.1357341 97.5252008,64.0581717 97.7513281,64.0581717 C98.354334,64.0581717 98.6935249,64.4265928 99.1269354,65.1440443 L102.971098,71.6204986 L106.815261,65.1440443 C107.248672,64.4265928 107.587863,64.0581717 108.190869,64.0581717 C108.416996,64.0581717 108.661967,64.1357341 108.906938,64.2908587 C109.340349,64.5623269 109.566476,64.9695291 109.566476,65.4155125 C109.566476,65.7645429 109.396881,66.1135734 109.095378,66.6177285 L104.685897,73.734072 L109.133065,80.9279778 C109.453412,81.432133 109.604164,81.7811634 109.604164,82.1108033 C109.604164,82.5761773 109.378037,82.9639889 108.96347,83.2354571 C108.718499,83.3905817 108.473528,83.468144 108.228557,83.468144 C107.644395,83.468144 107.28636,83.099723 106.852949,82.3822715 L102.971098,75.8476454 Z M124.673297,73.7728532 C124.673297,76.8365651 124.25873,79.9390582 122.374337,81.8781163 C121.394452,82.8864266 119.773873,83.5457064 117.851792,83.5457064 C115.816647,83.5457064 114.15838,83.0803324 112.613178,81.1024931 L112.613178,90.099723 C112.613178,90.7783934 112.57549,91.0498615 112.368207,91.398892 C112.160923,91.7479224 111.746357,92 111.23757,92 C110.728784,92 110.314218,91.7479224 110.106934,91.398892 C109.899651,91.0498615 109.861963,90.7783934 109.861963,90.099723 L109.861963,65.9778393 C109.861963,65.299169 109.899651,65.0277008 110.106934,64.6786704 C110.314218,64.3296399 110.728784,64.0775623 111.23757,64.0775623 C111.746357,64.0775623 112.160923,64.3296399 112.368207,64.6786704 C112.57549,65.0277008 112.613178,65.299169 112.613178,65.9778393 L112.613178,66.5207756 C114.15838,64.5041551 115.778959,64 117.851792,64 C119.773873,64 121.394452,64.6592798 122.374337,65.66759 C124.25873,67.6066482 124.673297,70.7091413 124.673297,73.7728532 Z M112.613178,73.7728532 C112.613178,77.4958449 113.216184,81.0249307 117.26763,81.0249307 C121.319076,81.0249307 121.922082,77.4958449 121.922082,73.7728532 C121.922082,70.0498615 121.319076,66.5207756 117.26763,66.5207756 C113.216184,66.5207756 112.613178,70.0498615 112.613178,73.7728532 Z M132.299074,81.0249307 C133.674682,81.0249307 134.748786,80.5789474 135.653295,79.6481994 C136.953527,78.3102493 137.16081,75.9833795 137.16081,73.7728532 C137.16081,71.5623269 136.953527,69.2548476 135.653295,67.9168975 C134.748786,66.9861496 133.674682,66.5207756 132.299074,66.5207756 C130.923467,66.5207756 129.849363,66.9861496 128.944854,67.9168975 C127.644622,69.2548476 127.437339,71.5623269 127.437339,73.7728532 C127.437339,75.9833795 127.644622,78.3102493 128.944854,79.6481994 C129.849363,80.5789474 130.923467,81.0249307 132.299074,81.0249307 Z M132.299074,64 C134.560347,64 136.350521,64.8531856 137.631908,66.1717452 C139.55399,68.1883657 139.912025,70.8254848 139.912025,73.7728532 C139.912025,76.700831 139.55399,79.3573407 137.631908,81.3739612 C136.350521,82.6925208 134.560347,83.5457064 132.299074,83.5457064 C130.037802,83.5457064 128.247628,82.6925208 126.96624,81.3739612 C125.044159,79.3573407 124.686124,76.700831 124.686124,73.7728532 C124.686124,70.8254848 125.044159,68.1883657 126.96624,66.1717452 C128.247628,64.8531856 130.037802,64 132.299074,64 Z M150.873179,68.2077562 L146.972484,81.3739612 C146.727513,82.2271468 146.501386,82.7700831 146.124507,83.0803324 C145.841848,83.33241 145.483813,83.468144 145.069247,83.468144 C144.635836,83.468144 144.277801,83.33241 143.995142,83.0803324 C143.618263,82.7700831 143.392136,82.2271468 143.147165,81.3739612 L138.775372,66.2880886 C138.605776,65.66759 138.568089,65.3379501 138.662308,64.9889197 C138.81306,64.465374 139.34069,64.0775623 139.924852,64.0775623 C140.245199,64.0775623 140.546702,64.2132964 140.791673,64.465374 C140.998956,64.6786704 141.130864,65.0083102 141.281615,65.5512465 L145.144622,79.434903 L149.026473,66.0941828 C149.271444,65.2797784 149.478728,64.7368421 149.855606,64.4265928 C150.119421,64.1939058 150.458612,64.0581717 150.873179,64.0581717 C151.287745,64.0581717 151.626936,64.1939058 151.890751,64.4265928 C152.26763,64.7368421 152.474913,65.2797784 152.719885,66.0941828 L156.601735,79.434903 L160.464742,65.5512465 C160.615494,65.0083102 160.747401,64.6786704 160.954685,64.465374 C161.199656,64.2132964 161.501159,64.0775623 161.821506,64.0775623 C162.405668,64.0775623 162.933298,64.465374 163.084049,64.9889197 C163.178269,65.3379501 163.140581,65.66759 162.970986,66.2880886 L158.599193,81.3739612 C158.354221,82.2271468 158.128094,82.7700831 157.751216,83.0803324 C157.468556,83.33241 157.110522,83.468144 156.677111,83.468144 C156.262545,83.468144 155.90451,83.33241 155.621851,83.0803324 C155.244972,82.7700831 155.018845,82.2271468 154.773874,81.3739612 L150.873179,68.2077562 Z M175.32659,74.4903047 L164.378263,74.4903047 C164.378263,78.6592798 166.300345,81.1024931 169.880693,81.1024931 C171.312832,81.1024931 172.744971,80.6952909 173.856763,79.7257618 C174.440925,79.2216066 174.723584,79.0470914 175.138151,79.0470914 C175.722313,79.0470914 176.306475,79.6288089 176.306475,80.2686981 C176.306475,81.1218837 175.119307,81.9750693 174.384393,82.4404432 C173.272601,83.1191136 171.670867,83.5457064 169.767629,83.5457064 C164.849362,83.5457064 161.645893,80.5207756 161.645893,73.7728532 C161.645893,67.4709141 164.623235,64 169.296531,64 C174.007515,64 176.871793,67.5290859 176.909481,72.8421053 C176.909481,73.2299169 176.890637,73.7534626 176.532602,74.1218837 C176.174567,74.4903047 175.760001,74.4903047 175.32659,74.4903047 Z M164.378263,72.3573407 L174.214798,72.3573407 C174.158266,71 174.045203,70.3019391 173.630636,69.2548476 C172.93341,67.5096953 171.312832,66.4044321 169.296531,66.4044321 C167.28023,66.4044321 165.640807,67.5290859 164.962425,69.2548476 C164.547859,70.3019391 164.434795,71 164.378263,72.3573407 Z M180.559188,65.9584488 L180.559188,66.5207756 C181.595604,64.9695291 183.593062,64 185.628207,64 C186.947282,64 187.964855,64.2714681 188.963584,64.9113573 C189.528902,65.2797784 190,65.7257618 190,66.3462604 C190,66.7146814 189.830405,67.1024931 189.604277,67.3351801 C189.359306,67.5872576 189.020115,67.7423823 188.662081,67.7423823 C188.341734,67.7423823 188.040231,67.6066482 187.361849,67.199446 C186.664623,66.7728532 185.892022,66.5207756 185.044045,66.5207756 C182.29283,66.5207756 180.559188,68.6731302 180.559188,71.6592798 L180.559188,81.567867 C180.559188,82.2465374 180.5215,82.5180055 180.314217,82.867036 C180.106934,83.2160665 179.692367,83.468144 179.183581,83.468144 C178.674794,83.468144 178.260228,83.2160665 178.052945,82.867036 C177.845661,82.5180055 177.807973,82.2465374 177.807973,81.567867 L177.807973,65.9584488 C177.807973,65.2797784 177.845661,65.0083102 178.052945,64.6592798 C178.260228,64.3102493 178.674794,64.0581717 179.183581,64.0581717 C179.692367,64.0581717 180.106934,64.3102493 180.314217,64.6592798 C180.5215,65.0083102 180.559188,65.2797784 180.559188,65.9584488 Z" id="neuxpower"></path>
            <path d="M50.6037647,98.9502762 C50.4581509,98.9502762 50.2770215,98.9502762 50.1385107,98.788674 C50,98.6270718 50,98.4157459 50,98.2458564 L50,93.7955801 C50,93.5262431 50.0071031,93.4309392 50.0674796,93.2900552 C50.1420623,93.128453 50.3018824,93.0165746 50.497218,93.0165746 C50.6925537,93.0165746 50.8523738,93.128453 50.9269565,93.2900552 C50.9873329,93.4309392 50.9944361,93.5262431 50.9944361,93.7955801 L50.9944361,97.9226519 L52.7169414,97.9226519 C52.9264832,97.9226519 53.0081691,97.9309392 53.1040611,97.9889503 C53.2283656,98.0635359 53.313603,98.2334254 53.313603,98.4364641 C53.313603,98.6395028 53.2283656,98.8093923 53.1040611,98.8839779 C53.0081691,98.941989 52.9264832,98.9502762 52.7169414,98.9502762 L50.6037647,98.9502762 Z M55.8648041,98.9502762 C55.7191903,98.9502762 55.5380609,98.9502762 55.3995501,98.788674 C55.2610394,98.6270718 55.2610394,98.4157459 55.2610394,98.2458564 L55.2610394,93.7541436 C55.2610394,93.5842541 55.2610394,93.3729282 55.3995501,93.211326 C55.5380609,93.0497238 55.7191903,93.0497238 55.8648041,93.0497238 L58.0312541,93.0497238 C58.240796,93.0497238 58.3224818,93.058011 58.4183739,93.1160221 C58.5426784,93.1906077 58.6279157,93.3604972 58.6279157,93.5635359 C58.6279157,93.7665746 58.5426784,93.9364641 58.4183739,94.0110497 C58.3224818,94.0690608 58.240796,94.0773481 58.0312541,94.0773481 L56.2554754,94.0773481 L56.2554754,95.461326 L57.6903046,95.461326 C57.8998465,95.461326 57.9815323,95.4696133 58.0774244,95.5276243 C58.2017289,95.6022099 58.2869662,95.7720994 58.2869662,95.9751381 C58.2869662,96.1781768 58.2017289,96.3480663 58.0774244,96.4226519 C57.9815323,96.480663 57.8998465,96.4889503 57.6903046,96.4889503 L56.2554754,96.4889503 L56.2554754,97.9226519 L58.0312541,97.9226519 C58.240796,97.9226519 58.3224818,97.9309392 58.4183739,97.9889503 C58.5426784,98.0635359 58.6279157,98.2334254 58.6279157,98.4364641 C58.6279157,98.6395028 58.5426784,98.8093923 58.4183739,98.8839779 C58.3224818,98.941989 58.240796,98.9502762 58.0312541,98.9502762 L55.8648041,98.9502762 Z M62.9619986,93.5469613 L64.4216887,98.0635359 C64.5175808,98.3618785 64.5744057,98.5814917 64.3968278,98.8052486 C64.3044873,98.9212707 64.1730797,98.9834254 64.0416721,98.9834254 C63.9315738,98.9834254 63.8427849,98.9461326 63.7682022,98.8756906 C63.6829648,98.7928177 63.6438977,98.7058011 63.5586603,98.4406077 L63.3917371,97.9060773 L61.4170712,97.9060773 L61.250148,98.4406077 C61.1649106,98.7058011 61.1258435,98.7928177 61.0406061,98.8756906 C60.9660234,98.9461326 60.8772345,98.9834254 60.7671362,98.9834254 C60.6357286,98.9834254 60.504321,98.9212707 60.4119805,98.8052486 C60.2344026,98.5814917 60.2912275,98.3618785 60.3871196,98.0635359 L61.8468096,93.5469613 C61.9178408,93.3314917 61.9711141,93.2361878 62.0492484,93.1574586 C62.1451405,93.058011 62.2516872,93.0165746 62.4044041,93.0165746 C62.5571211,93.0165746 62.6636678,93.058011 62.7595599,93.1574586 C62.8376941,93.2361878 62.8909675,93.3314917 62.9619986,93.5469613 Z M62.4044041,94.7941989 L61.7260567,96.9364641 L63.0827516,96.9364641 L62.4044041,94.7941989 Z M67.0368178,98.9502762 C66.891204,98.9502762 66.7100745,98.9502762 66.5715638,98.788674 C66.4330531,98.6270718 66.4330531,98.4157459 66.4330531,98.2458564 L66.4330531,93.7541436 C66.4330531,93.5842541 66.4330531,93.3729282 66.5715638,93.211326 C66.7100745,93.0497238 66.891204,93.0497238 67.0368178,93.0497238 L68.2656567,93.0497238 C68.9546588,93.0497238 69.4128097,93.3066298 69.7928263,93.9116022 C70.1124665,94.4171271 70.1195696,95.0220994 70.1195696,96 C70.1195696,96.9779006 70.1124665,97.5828729 69.7928263,98.0883978 C69.4128097,98.6933702 68.9546588,98.9502762 68.2656567,98.9502762 L67.0368178,98.9502762 Z M67.4274891,94.0773481 L67.4274891,97.9226519 L68.1804193,97.9226519 C68.5142657,97.9226519 68.7557716,97.7983425 68.9191432,97.558011 C69.1038242,97.288674 69.1251335,96.9281768 69.1251335,96 C69.1251335,95.0718232 69.1038242,94.711326 68.9191432,94.441989 C68.7557716,94.2016575 68.5142657,94.0773481 68.1804193,94.0773481 L67.4274891,94.0773481 Z M72.9122765,98.9502762 C72.7666627,98.9502762 72.5855333,98.9502762 72.4470225,98.788674 C72.3085118,98.6270718 72.3085118,98.4157459 72.3085118,98.2458564 L72.3085118,93.7541436 C72.3085118,93.5842541 72.3085118,93.3729282 72.4470225,93.211326 C72.5855333,93.0497238 72.7666627,93.0497238 72.9122765,93.0497238 L75.0787265,93.0497238 C75.2882684,93.0497238 75.3699542,93.058011 75.4658463,93.1160221 C75.5901508,93.1906077 75.6753881,93.3604972 75.6753881,93.5635359 C75.6753881,93.7665746 75.5901508,93.9364641 75.4658463,94.0110497 C75.3699542,94.0690608 75.2882684,94.0773481 75.0787265,94.0773481 L73.3029478,94.0773481 L73.3029478,95.461326 L74.737777,95.461326 C74.9473189,95.461326 75.0290047,95.4696133 75.1248968,95.5276243 C75.2492013,95.6022099 75.3344386,95.7720994 75.3344386,95.9751381 C75.3344386,96.1781768 75.2492013,96.3480663 75.1248968,96.4226519 C75.0290047,96.480663 74.9473189,96.4889503 74.737777,96.4889503 L73.3029478,96.4889503 L73.3029478,97.9226519 L75.0787265,97.9226519 C75.2882684,97.9226519 75.3699542,97.9309392 75.4658463,97.9889503 C75.5901508,98.0635359 75.6753881,98.2334254 75.6753881,98.4364641 C75.6753881,98.6395028 75.5901508,98.8093923 75.4658463,98.8839779 C75.3699542,98.941989 75.2882684,98.9502762 75.0787265,98.9502762 L72.9122765,98.9502762 Z M78.7735291,96.6008287 L78.7735291,98.2044199 C78.7735291,98.4737569 78.766426,98.5690608 78.7060495,98.7099448 C78.6314668,98.871547 78.4716467,98.9834254 78.2763111,98.9834254 C78.0809754,98.9834254 77.9211553,98.871547 77.8465726,98.7099448 C77.7861961,98.5690608 77.779093,98.4737569 77.779093,98.2044199 L77.779093,93.7541436 C77.779093,93.5842541 77.779093,93.3729282 77.9176038,93.211326 C78.0561145,93.0497238 78.2372439,93.0497238 78.3828578,93.0497238 L79.7644136,93.0497238 C80.7979168,93.0497238 81.4087846,93.8660221 81.4087846,94.8522099 C81.4087846,95.5566298 81.0749382,96.1367403 80.4924828,96.410221 L81.2489645,97.9475138 C81.3626144,98.179558 81.4016815,98.2748619 81.4087846,98.4116022 C81.4158877,98.5939227 81.3270988,98.7845304 81.1637272,98.8922652 C81.0784898,98.9502762 80.9897009,98.9834254 80.9009119,98.9834254 C80.6345451,98.9834254 80.53155,98.7720994 80.4036939,98.5110497 L79.4660828,96.6008287 L78.7735291,96.6008287 Z M78.7735291,95.6312155 L79.7111402,95.6312155 C80.1444302,95.6312155 80.4214517,95.3162983 80.4214517,94.8563536 C80.4214517,94.3922652 80.1444302,94.0773481 79.7111402,94.0773481 L78.7735291,94.0773481 L78.7735291,95.6312155 Z M87.4345921,93.7955801 L87.4345921,98.2044199 C87.4345921,98.4737569 87.427489,98.5690608 87.3671126,98.7099448 C87.2925298,98.871547 87.1327098,98.9834254 86.9373741,98.9834254 C86.7420385,98.9834254 86.5822184,98.871547 86.5076357,98.7099448 C86.4472592,98.5690608 86.4401561,98.4737569 86.4401561,98.2044199 L86.4401561,93.7955801 C86.4401561,93.5262431 86.4472592,93.4309392 86.5076357,93.2900552 C86.5822184,93.128453 86.7420385,93.0165746 86.9373741,93.0165746 C87.1327098,93.0165746 87.2925298,93.128453 87.3671126,93.2900552 C87.427489,93.4309392 87.4345921,93.5262431 87.4345921,93.7955801 Z M93.6723101,93.7955801 L93.6723101,98.2624309 C93.6723101,98.4986188 93.6510008,98.6726519 93.5373509,98.8052486 C93.4379073,98.9212707 93.3171544,98.9834254 93.1644374,98.9834254 C92.9371378,98.9834254 92.7950755,98.8176796 92.5855336,98.4530387 L90.784894,95.3535912 L90.784894,98.2044199 C90.784894,98.4737569 90.7777909,98.5690608 90.7174144,98.7099448 C90.6428317,98.871547 90.4830116,98.9834254 90.287676,98.9834254 C90.0923403,98.9834254 89.9325202,98.871547 89.8579375,98.7099448 C89.7975611,98.5690608 89.790458,98.4737569 89.790458,98.2044199 L89.790458,93.7375691 C89.790458,93.5013812 89.8153189,93.3273481 89.9254171,93.1947514 C90.0248607,93.0787293 90.1491652,93.0165746 90.2983307,93.0165746 C90.5291819,93.0165746 90.6676926,93.1823204 90.8807861,93.5469613 L92.6778741,96.6464088 L92.6778741,93.7955801 C92.6778741,93.5262431 92.6849772,93.4309392 92.7453537,93.2900552 C92.8199364,93.128453 92.9797564,93.0165746 93.1750921,93.0165746 C93.3704277,93.0165746 93.5302478,93.128453 93.6048305,93.2900552 C93.665207,93.4309392 93.6723101,93.5262431 93.6723101,93.7955801 Z M99.8543861,95.5276243 L101.289215,95.5276243 C101.498757,95.5276243 101.580443,95.5359116 101.676335,95.5939227 C101.80064,95.6685083 101.885877,95.8383978 101.885877,96.0414365 C101.885877,96.2444751 101.80064,96.4143646 101.676335,96.4889503 C101.580443,96.5469613 101.498757,96.5552486 101.289215,96.5552486 L99.8543861,96.5552486 L99.8543861,98.2044199 C99.8543861,98.4737569 99.847283,98.5690608 99.7869065,98.7099448 C99.7123238,98.871547 99.5525037,98.9834254 99.3571681,98.9834254 C99.1618324,98.9834254 99.0020123,98.871547 98.9274296,98.7099448 C98.8670532,98.5690608 98.85995,98.4737569 98.85995,98.2044199 L98.85995,93.7541436 C98.85995,93.5842541 98.85995,93.3729282 98.9984608,93.211326 C99.1369715,93.0497238 99.3181009,93.0497238 99.4637148,93.0497238 L101.633716,93.0497238 C101.843258,93.0497238 101.924944,93.058011 102.020836,93.1160221 C102.145141,93.1906077 102.230378,93.3604972 102.230378,93.5635359 C102.230378,93.7665746 102.145141,93.9364641 102.020836,94.0110497 C101.924944,94.0690608 101.843258,94.0773481 101.633716,94.0773481 L99.8543861,94.0773481 L99.8543861,95.5276243 Z M105.221972,93.7955801 L105.221972,98.2044199 C105.221972,98.4737569 105.214869,98.5690608 105.154493,98.7099448 C105.07991,98.871547 104.92009,98.9834254 104.724754,98.9834254 C104.529419,98.9834254 104.369598,98.871547 104.295016,98.7099448 C104.234639,98.5690608 104.227536,98.4737569 104.227536,98.2044199 L104.227536,93.7955801 C104.227536,93.5262431 104.234639,93.4309392 104.295016,93.2900552 C104.369598,93.128453 104.529419,93.0165746 104.724754,93.0165746 C104.92009,93.0165746 105.07991,93.128453 105.154493,93.2900552 C105.214869,93.4309392 105.221972,93.5262431 105.221972,93.7955801 Z M108.181603,98.9502762 C108.035989,98.9502762 107.854859,98.9502762 107.716349,98.788674 C107.577838,98.6270718 107.577838,98.4157459 107.577838,98.2458564 L107.577838,93.7955801 C107.577838,93.5262431 107.584941,93.4309392 107.645318,93.2900552 C107.7199,93.128453 107.87972,93.0165746 108.075056,93.0165746 C108.270392,93.0165746 108.430212,93.128453 108.504794,93.2900552 C108.565171,93.4309392 108.572274,93.5262431 108.572274,93.7955801 L108.572274,97.9226519 L110.294779,97.9226519 C110.504321,97.9226519 110.586007,97.9309392 110.681899,97.9889503 C110.806204,98.0635359 110.891441,98.2334254 110.891441,98.4364641 C110.891441,98.6395028 110.806204,98.8093923 110.681899,98.8839779 C110.586007,98.941989 110.504321,98.9502762 110.294779,98.9502762 L108.181603,98.9502762 Z M113.442642,98.9502762 C113.297028,98.9502762 113.115899,98.9502762 112.977388,98.788674 C112.838877,98.6270718 112.838877,98.4157459 112.838877,98.2458564 L112.838877,93.7541436 C112.838877,93.5842541 112.838877,93.3729282 112.977388,93.211326 C113.115899,93.0497238 113.297028,93.0497238 113.442642,93.0497238 L115.609092,93.0497238 C115.818634,93.0497238 115.90032,93.058011 115.996212,93.1160221 C116.120516,93.1906077 116.205754,93.3604972 116.205754,93.5635359 C116.205754,93.7665746 116.120516,93.9364641 115.996212,94.0110497 C115.90032,94.0690608 115.818634,94.0773481 115.609092,94.0773481 L113.833313,94.0773481 L113.833313,95.461326 L115.268143,95.461326 C115.477684,95.461326 115.55937,95.4696133 115.655262,95.5276243 C115.779567,95.6022099 115.864804,95.7720994 115.864804,95.9751381 C115.864804,96.1781768 115.779567,96.3480663 115.655262,96.4226519 C115.55937,96.480663 115.477684,96.4889503 115.268143,96.4889503 L113.833313,96.4889503 L113.833313,97.9226519 L115.609092,97.9226519 C115.818634,97.9226519 115.90032,97.9309392 115.996212,97.9889503 C116.120516,98.0635359 116.205754,98.2334254 116.205754,98.4364641 C116.205754,98.6395028 116.120516,98.8093923 115.996212,98.8839779 C115.90032,98.941989 115.818634,98.9502762 115.609092,98.9502762 L113.442642,98.9502762 Z M122.842429,99 C122.256422,99 121.826684,98.7803867 121.485734,98.378453 C120.984965,97.7941989 120.967207,97.1270718 120.967207,96 C120.967207,94.8729282 120.984965,94.2058011 121.485734,93.621547 C121.826684,93.2196133 122.256422,93 122.842429,93 C123.428436,93 123.858175,93.2196133 124.199124,93.621547 C124.699894,94.2058011 124.717651,94.8729282 124.717651,96 C124.717651,97.1270718 124.699894,97.7941989 124.199124,98.378453 C123.858175,98.7803867 123.428436,99 122.842429,99 Z M122.842429,94.0276243 C122.572511,94.0276243 122.348763,94.1519337 122.2067,94.3425414 C122.018468,94.5911602 121.961643,94.8729282 121.961643,96 C121.961643,97.1270718 122.018468,97.4046961 122.2067,97.6533149 C122.348763,97.839779 122.572511,97.9723757 122.842429,97.9723757 C123.112348,97.9723757 123.336096,97.839779 123.478158,97.6533149 C123.66639,97.4046961 123.723215,97.1270718 123.723215,96 C123.723215,94.8729282 123.66639,94.5911602 123.478158,94.3425414 C123.336096,94.1519337 123.112348,94.0276243 122.842429,94.0276243 Z M126.96697,98.7099448 C126.906594,98.5690608 126.899491,98.4737569 126.899491,98.2044199 L126.899491,93.7541436 C126.899491,93.5842541 126.899491,93.3729282 127.038001,93.211326 C127.176512,93.0497238 127.357641,93.0497238 127.503255,93.0497238 L128.867053,93.0497238 C129.918314,93.0497238 130.536285,93.8867403 130.536285,94.8895028 C130.536285,95.8922652 129.918314,96.7292818 128.867053,96.7292818 L127.893927,96.7292818 L127.893927,98.2044199 C127.893927,98.4737569 127.886824,98.5690608 127.826447,98.7099448 C127.751864,98.871547 127.592044,98.9834254 127.396709,98.9834254 C127.201373,98.9834254 127.041553,98.871547 126.96697,98.7099448 Z M127.893927,95.7016575 L128.810228,95.7016575 C129.257725,95.7016575 129.541849,95.3701657 129.541849,94.8895028 C129.541849,94.4046961 129.257725,94.0773481 128.810228,94.0773481 L127.893927,94.0773481 L127.893927,95.7016575 Z M135.168699,94.0773481 L134.41932,94.0773481 L134.41932,98.2044199 C134.41932,98.4737569 134.412217,98.5690608 134.351841,98.7099448 C134.277258,98.871547 134.117438,98.9834254 133.922102,98.9834254 C133.726767,98.9834254 133.566947,98.871547 133.492364,98.7099448 C133.431987,98.5690608 133.424884,98.4737569 133.424884,98.2044199 L133.424884,94.0773481 L132.675506,94.0773481 C132.465964,94.0773481 132.384278,94.0690608 132.288386,94.0110497 C132.164081,93.9364641 132.078844,93.7665746 132.078844,93.5635359 C132.078844,93.3604972 132.164081,93.1906077 132.288386,93.1160221 C132.384278,93.058011 132.465964,93.0497238 132.675506,93.0497238 L135.168699,93.0497238 C135.378241,93.0497238 135.459927,93.058011 135.555819,93.1160221 C135.680123,93.1906077 135.765361,93.3604972 135.765361,93.5635359 C135.765361,93.7665746 135.680123,93.9364641 135.555819,94.0110497 C135.459927,94.0690608 135.378241,94.0773481 135.168699,94.0773481 Z M138.707233,93.7955801 L138.707233,98.2044199 C138.707233,98.4737569 138.70013,98.5690608 138.639753,98.7099448 C138.565171,98.871547 138.405351,98.9834254 138.210015,98.9834254 C138.014679,98.9834254 137.854859,98.871547 137.780277,98.7099448 C137.7199,98.5690608 137.712797,98.4737569 137.712797,98.2044199 L137.712797,93.7955801 C137.712797,93.5262431 137.7199,93.4309392 137.780277,93.2900552 C137.854859,93.128453 138.014679,93.0165746 138.210015,93.0165746 C138.405351,93.0165746 138.565171,93.128453 138.639753,93.2900552 C138.70013,93.4309392 138.707233,93.5262431 138.707233,93.7955801 Z M143.357405,97.8314917 C143.123002,97.8314917 143.005801,97.711326 142.881496,97.4254144 L142.057535,95.531768 L142.057535,98.2044199 C142.057535,98.4737569 142.050432,98.5690608 141.990055,98.7099448 C141.915473,98.871547 141.755653,98.9834254 141.560317,98.9834254 C141.364981,98.9834254 141.205161,98.871547 141.130578,98.7099448 C141.070202,98.5690608 141.063099,98.4737569 141.063099,98.2044199 L141.063099,93.7334254 C141.063099,93.480663 141.091511,93.3149171 141.212264,93.1740331 C141.301053,93.070442 141.411151,93.0165746 141.546111,93.0165746 C141.663312,93.0165746 141.752101,93.0414365 141.84089,93.1118785 C141.940334,93.1864641 142.029122,93.3273481 142.093051,93.468232 L143.357405,96.2776243 L144.621759,93.468232 C144.685687,93.3273481 144.774476,93.1864641 144.87392,93.1118785 C144.962709,93.0414365 145.051498,93.0165746 145.168699,93.0165746 C145.303658,93.0165746 145.413757,93.070442 145.502546,93.1740331 C145.623298,93.3149171 145.651711,93.480663 145.651711,93.7334254 L145.651711,98.2044199 C145.651711,98.4737569 145.644608,98.5690608 145.584231,98.7099448 C145.509649,98.871547 145.349829,98.9834254 145.154493,98.9834254 C144.959157,98.9834254 144.799337,98.871547 144.724754,98.7099448 C144.664378,98.5690608 144.657275,98.4737569 144.657275,98.2044199 L144.657275,95.531768 L143.833314,97.4254144 C143.709009,97.711326 143.591808,97.8314917 143.357405,97.8314917 Z M149.002012,93.7955801 L149.002012,98.2044199 C149.002012,98.4737569 148.994909,98.5690608 148.934533,98.7099448 C148.85995,98.871547 148.70013,98.9834254 148.504794,98.9834254 C148.309459,98.9834254 148.149638,98.871547 148.075056,98.7099448 C148.014679,98.5690608 148.007576,98.4737569 148.007576,98.2044199 L148.007576,93.7955801 C148.007576,93.5262431 148.014679,93.4309392 148.075056,93.2900552 C148.149638,93.128453 148.309459,93.0165746 148.504794,93.0165746 C148.70013,93.0165746 148.85995,93.128453 148.934533,93.2900552 C148.994909,93.4309392 149.002012,93.5262431 149.002012,93.7955801 Z M153.250858,94.0773481 L151.744998,94.0773481 C151.535456,94.0773481 151.45377,94.0690608 151.357878,94.0110497 C151.233574,93.9364641 151.148336,93.7665746 151.148336,93.5635359 C151.148336,93.3604972 151.233574,93.1906077 151.357878,93.1160221 C151.45377,93.058011 151.535456,93.0497238 151.744998,93.0497238 L153.783592,93.0497238 C153.989582,93.0497238 154.181366,93.058011 154.323428,93.2237569 C154.426424,93.3439227 154.476145,93.4930939 154.476145,93.6629834 C154.476145,93.808011 154.433527,93.9281768 154.309222,94.160221 L152.277731,97.9226519 L153.883035,97.9226519 C154.092577,97.9226519 154.174263,97.9309392 154.270155,97.9889503 C154.39446,98.0635359 154.479697,98.2334254 154.479697,98.4364641 C154.479697,98.6395028 154.39446,98.8093923 154.270155,98.8839779 C154.174263,98.941989 154.092577,98.9502762 153.883035,98.9502762 L151.744998,98.9502762 C151.539007,98.9502762 151.347223,98.941989 151.205161,98.7762431 C151.102166,98.6560773 151.052444,98.5069061 151.052444,98.3370166 C151.052444,98.191989 151.098614,98.0635359 151.219367,97.839779 L153.250858,94.0773481 Z M158.788919,93.5469613 L160.248609,98.0635359 C160.344501,98.3618785 160.401326,98.5814917 160.223748,98.8052486 C160.131408,98.9212707 160,98.9834254 159.868592,98.9834254 C159.758494,98.9834254 159.669705,98.9461326 159.595122,98.8756906 C159.509885,98.7928177 159.470818,98.7058011 159.385581,98.4406077 L159.218657,97.9060773 L157.243992,97.9060773 L157.077068,98.4406077 C156.991831,98.7058011 156.952764,98.7928177 156.867526,98.8756906 C156.792944,98.9461326 156.704155,98.9834254 156.594057,98.9834254 C156.462649,98.9834254 156.331241,98.9212707 156.238901,98.8052486 C156.061323,98.5814917 156.118148,98.3618785 156.21404,98.0635359 L157.67373,93.5469613 C157.744761,93.3314917 157.798034,93.2361878 157.876169,93.1574586 C157.972061,93.058011 158.078608,93.0165746 158.231324,93.0165746 C158.384041,93.0165746 158.490588,93.058011 158.58648,93.1574586 C158.664614,93.2361878 158.717888,93.3314917 158.788919,93.5469613 Z M158.231324,94.7941989 L157.552977,96.9364641 L158.909672,96.9364641 L158.231324,94.7941989 Z M164.465491,94.0773481 L163.716112,94.0773481 L163.716112,98.2044199 C163.716112,98.4737569 163.709009,98.5690608 163.648632,98.7099448 C163.57405,98.871547 163.41423,98.9834254 163.218894,98.9834254 C163.023558,98.9834254 162.863738,98.871547 162.789156,98.7099448 C162.728779,98.5690608 162.721676,98.4737569 162.721676,98.2044199 L162.721676,94.0773481 L161.972297,94.0773481 C161.762755,94.0773481 161.68107,94.0690608 161.585178,94.0110497 C161.460873,93.9364641 161.375636,93.7665746 161.375636,93.5635359 C161.375636,93.3604972 161.460873,93.1906077 161.585178,93.1160221 C161.68107,93.058011 161.762755,93.0497238 161.972297,93.0497238 L164.465491,93.0497238 C164.675032,93.0497238 164.756718,93.058011 164.85261,93.1160221 C164.976915,93.1906077 165.062152,93.3604972 165.062152,93.5635359 C165.062152,93.7665746 164.976915,93.9364641 164.85261,94.0110497 C164.756718,94.0690608 164.675032,94.0773481 164.465491,94.0773481 Z M168.004025,93.7955801 L168.004025,98.2044199 C168.004025,98.4737569 167.996922,98.5690608 167.936545,98.7099448 C167.861962,98.871547 167.702142,98.9834254 167.506807,98.9834254 C167.311471,98.9834254 167.151651,98.871547 167.077068,98.7099448 C167.016692,98.5690608 167.009589,98.4737569 167.009589,98.2044199 L167.009589,93.7955801 C167.009589,93.5262431 167.016692,93.4309392 167.077068,93.2900552 C167.151651,93.128453 167.311471,93.0165746 167.506807,93.0165746 C167.702142,93.0165746 167.861962,93.128453 167.936545,93.2900552 C167.996922,93.4309392 168.004025,93.5262431 168.004025,93.7955801 Z M172.061086,99 C171.475079,99 171.045341,98.7803867 170.704392,98.378453 C170.203622,97.7941989 170.185864,97.1270718 170.185864,96 C170.185864,94.8729282 170.203622,94.2058011 170.704392,93.621547 C171.045341,93.2196133 171.475079,93 172.061086,93 C172.647093,93 173.076832,93.2196133 173.417781,93.621547 C173.918551,94.2058011 173.936309,94.8729282 173.936309,96 C173.936309,97.1270718 173.918551,97.7941989 173.417781,98.378453 C173.076832,98.7803867 172.647093,99 172.061086,99 Z M172.061086,94.0276243 C171.791168,94.0276243 171.56742,94.1519337 171.425358,94.3425414 C171.237125,94.5911602 171.1803,94.8729282 171.1803,96 C171.1803,97.1270718 171.237125,97.4046961 171.425358,97.6533149 C171.56742,97.839779 171.791168,97.9723757 172.061086,97.9723757 C172.331005,97.9723757 172.554753,97.839779 172.696815,97.6533149 C172.885048,97.4046961 172.941873,97.1270718 172.941873,96 C172.941873,94.8729282 172.885048,94.5911602 172.696815,94.3425414 C172.554753,94.1519337 172.331005,94.0276243 172.061086,94.0276243 Z M180,93.7955801 L180,98.2624309 C180,98.4986188 179.978691,98.6726519 179.865041,98.8052486 C179.765597,98.9212707 179.644844,98.9834254 179.492127,98.9834254 C179.264828,98.9834254 179.122765,98.8176796 178.913223,98.4530387 L177.112584,95.3535912 L177.112584,98.2044199 C177.112584,98.4737569 177.105481,98.5690608 177.045104,98.7099448 C176.970522,98.871547 176.810702,98.9834254 176.615366,98.9834254 C176.42003,98.9834254 176.26021,98.871547 176.185627,98.7099448 C176.125251,98.5690608 176.118148,98.4737569 176.118148,98.2044199 L176.118148,93.7375691 C176.118148,93.5013812 176.143009,93.3273481 176.253107,93.1947514 C176.352551,93.0787293 176.476855,93.0165746 176.626021,93.0165746 C176.856872,93.0165746 176.995382,93.1823204 177.208476,93.5469613 L179.005564,96.6464088 L179.005564,93.7955801 C179.005564,93.5262431 179.012667,93.4309392 179.073044,93.2900552 C179.147626,93.128453 179.307446,93.0165746 179.502782,93.0165746 C179.698118,93.0165746 179.857938,93.128453 179.93252,93.2900552 C179.992897,93.4309392 180,93.5262431 180,93.7955801 Z" id="LEADER-IN-FILE-OPTIM"></path>
        </g>
    </g>
</svg>