<?xml version="1.0" encoding="UTF-8"?>
<svg width="230px" height="160px" viewBox="0 0 230 160" version="1.1" xmlns="http://www.w3.org/2000/svg" xmlns:xlink="http://www.w3.org/1999/xlink">
    <!-- Generator: Sketch 52.4 (67378) - http://www.bohemiancoding.com/sketch -->
    <g id="03-what-we-do-(SRC)" stroke="none" stroke-width="1" fill="none" fill-rule="evenodd" opacity="0.301">
        <g id="Group-2" fill="#D4E1ED">
            <path d="M78.2959957,89.4088206 C78.3329562,90.7938992 78.5639596,91.2544149 78.9214818,91.3787259 C79.2256955,91.4853791 79.566159,91.5037432 79.8511817,91.5037432 C80.0466461,91.5037432 80.1539738,91.5383525 80.1539738,91.6464183 C80.1539738,91.7883871 79.9940484,91.8229964 79.7438539,91.8229964 C78.5817291,91.8229964 77.8666848,91.7707293 77.5283536,91.7707293 C77.3670066,91.7707293 76.526865,91.8229964 75.5992975,91.8229964 C75.3668726,91.8229964 75.204104,91.8053386 75.204104,91.6464183 C75.204104,91.5383525 75.3128533,91.5037432 75.4919698,91.5037432 C75.7229732,91.5037432 76.0449564,91.4853791 76.2958616,91.4161605 C76.7600008,91.2741917 76.8317895,90.7578773 76.8488482,89.2138784 L77.0101952,78.7032434 C77.0101952,78.3500872 77.0627929,78.1000526 77.2426202,78.1000526 C77.4387954,78.1000526 77.6001424,78.3296042 77.9029345,78.6509763 C78.11759,78.8805279 80.83419,81.7742898 83.4420407,84.3487985 C84.6567632,85.5565927 87.0698602,88.1134436 87.3726524,88.3966749 L87.4614998,88.3966749 L87.2830941,80.4259394 C87.2653246,79.3438688 87.1039777,79.0062515 86.6760883,78.8275544 C86.4081243,78.7209012 85.9781026,78.7209012 85.7286189,78.7209012 C85.5146743,78.7209012 85.4428855,78.6672215 85.4428855,78.5605683 C85.4428855,78.4193059 85.6397715,78.4023544 85.9070246,78.4023544 C86.8374353,78.4023544 87.6939248,78.4539152 88.0685057,78.4539152 C88.2653917,78.4539152 88.9434755,78.4023544 89.8198669,78.4023544 C90.0522918,78.4023544 90.2314083,78.4193059 90.2314083,78.5605683 C90.2314083,78.6672215 90.1240806,78.7209012 89.9094251,78.7209012 C89.7310194,78.7209012 89.5881527,78.7209012 89.374208,78.7752873 C88.8723975,78.9172561 88.7295308,79.2894827 88.7124721,80.2818517 L88.5170077,91.4853791 C88.5170077,91.8759698 88.4452189,92.0363028 88.2838719,92.0363028 C88.086986,92.0363028 87.8723305,91.8406542 87.6754445,91.6464183 C86.550991,90.5791803 84.263702,88.2547061 82.4071454,86.425357 C80.4574767,84.5084251 78.4751122,82.2884852 78.1545505,81.9515742 L78.1005313,81.9515742 L78.2959957,89.4088206 Z M93.6267318,85.1109096 C93.6267318,82.0765915 95.6460569,78.1523198 101.005336,78.1523198 C105.453395,78.1523198 108.223304,80.7275348 108.223304,84.793069 C108.223304,88.8578969 105.365258,92.0709121 100.826219,92.0709121 C95.6993654,92.0709121 93.6267318,88.2547061 93.6267318,85.1109096 Z M105.723491,85.4499396 C105.723491,81.4719881 103.417722,79.0062515 100.487888,79.0062515 C98.4323133,79.0062515 96.0917158,80.1398829 96.0917158,84.5635175 C96.0917158,88.2547061 98.1465799,91.1830774 101.577513,91.1830774 C102.829197,91.1830774 105.723491,90.5791803 105.723491,85.4499396 Z M111.995909,80.1398122 C111.585789,79.1636885 111.281575,78.9701589 110.63832,78.7914619 C110.370356,78.7208306 110.084622,78.7208306 109.941756,78.7208306 C109.781119,78.7208306 109.728522,78.6671509 109.728522,78.5604977 C109.728522,78.4192352 109.923986,78.40299 110.191239,78.40299 C111.137998,78.40299 112.157256,78.4538445 112.782742,78.4538445 C113.229823,78.4538445 114.085601,78.40299 114.979762,78.40299 C115.194418,78.40299 115.390593,78.4375993 115.390593,78.5604977 C115.390593,78.6862213 115.283976,78.7208306 115.122629,78.7208306 C114.839028,78.7208306 114.570353,78.7391947 114.425354,78.8451416 C114.300968,78.9327243 114.24837,79.0577416 114.24837,79.2180746 C114.24837,79.4490387 114.408295,79.9462826 114.657068,80.5847891 L117.731901,88.6473452 L117.802268,88.6473452 C118.570621,86.6922724 120.893449,80.9753798 121.321339,79.8043139 C121.410897,79.5719371 121.482686,79.3063636 121.482686,79.1474433 C121.482686,79.0061808 121.410897,78.8620931 121.250261,78.8084134 C121.035605,78.7391947 120.768352,78.7208306 120.534505,78.7208306 C120.377423,78.7208306 120.231713,78.7031728 120.231713,78.5788618 C120.231713,78.4375993 120.39235,78.40299 120.733524,78.40299 C121.624841,78.40299 122.376846,78.4538445 122.609271,78.4538445 C122.912774,78.4538445 123.752916,78.40299 124.288133,78.40299 C124.521269,78.40299 124.663425,78.4375993 124.663425,78.5604977 C124.663425,78.6862213 124.553965,78.7208306 124.37627,78.7208306 C124.197864,78.7208306 123.823283,78.7208306 123.500589,78.9327243 C123.268164,79.0937636 123.001622,79.3960653 122.518292,80.5311093 C121.822438,82.2008318 121.34053,83.1585915 120.377423,85.3446284 C119.230935,87.9360886 118.392926,89.8706783 118.000576,90.7578067 C117.535015,91.7883165 117.426266,92.0715477 117.178915,92.0715477 C116.945779,92.0715477 116.83774,91.8229258 116.498698,90.9887708 L111.995909,80.1398122 Z M128.525375,87.1891632 C128.437238,87.1891632 128.400989,87.2265978 128.367582,87.3318383 L127.401632,89.8710314 C127.221805,90.3124767 127.132958,90.7397957 127.132958,90.9538084 C127.132958,91.2737679 127.295726,91.5033194 127.848713,91.5033194 L128.115966,91.5033194 C128.3292,91.5033194 128.384641,91.5379287 128.384641,91.6467008 C128.384641,91.7886696 128.275891,91.8232789 128.081138,91.8232789 C127.508249,91.8232789 126.739896,91.7703055 126.186199,91.7703055 C125.991445,91.7703055 125.008437,91.8232789 124.079448,91.8232789 C123.845602,91.8232789 123.738274,91.7886696 123.738274,91.6467008 C123.738274,91.5379287 123.810063,91.5033194 123.952219,91.5033194 C124.115698,91.5033194 124.36376,91.4856616 124.506627,91.4694164 C125.32971,91.3606443 125.668751,90.7581598 126.024141,89.8710314 L130.509872,78.7211838 C130.723817,78.206282 130.832566,78.0099272 131.011682,78.0099272 C131.170897,78.0099272 131.276803,78.1702601 131.456631,78.5785087 C131.886652,79.5567514 134.743987,86.8013977 135.88692,89.4973922 C136.567847,91.0922456 137.084584,91.3429865 137.460587,91.4319819 C137.72784,91.4856616 137.996514,91.5033194 138.21117,91.5033194 C138.353326,91.5033194 138.443595,91.5216835 138.443595,91.6467008 C138.443595,91.7886696 138.280826,91.8232789 137.621934,91.8232789 C136.977967,91.8232789 135.674397,91.8232789 134.242887,91.7886696 C133.922325,91.7703055 133.70767,91.7703055 133.70767,91.6467008 C133.70767,91.5379287 133.78088,91.5033194 133.958575,91.4856616 C134.085094,91.4496397 134.208059,91.2907194 134.1185,91.077413 L132.688412,87.3155931 C132.654294,87.2265978 132.601697,87.1891632 132.512849,87.1891632 L128.525375,87.1891632 Z M132.172386,86.3006222 C132.261233,86.3006222 132.279003,86.2483551 132.261233,86.196088 L130.65416,81.8113006 C130.634969,81.7378441 130.61791,81.6488487 130.563891,81.6488487 C130.509872,81.6488487 130.474333,81.7378441 130.455142,81.8113006 L128.813241,86.1777239 C128.79405,86.2483551 128.813241,86.3006222 128.884319,86.3006222 L132.172386,86.3006222 Z M142.654894,83.5479109 C142.654894,80.8512101 142.654894,80.3539662 142.618644,79.7867973 C142.581683,79.1843128 142.438817,78.8982563 141.848159,78.7753579 C141.706713,78.7386297 141.401789,78.7209719 141.152305,78.7209719 C140.955419,78.7209719 140.848802,78.6863626 140.848802,78.560639 C140.848802,78.4377406 140.975321,78.402425 141.241863,78.402425 C142.190044,78.402425 143.313786,78.4539858 143.689078,78.4539858 C144.298216,78.4539858 145.654384,78.402425 146.209503,78.402425 C147.333245,78.402425 148.532331,78.5076655 149.495437,79.1638298 C149.997248,79.5028597 150.71016,80.4069396 150.71016,81.5977823 C150.71016,82.9108171 150.155752,84.1193176 148.351793,85.5714959 C149.942518,87.5647095 151.17501,89.1433178 152.230518,90.2430462 C153.230585,91.273556 153.961266,91.397867 154.229941,91.4501341 C154.427538,91.4854497 154.588174,91.5038138 154.731041,91.5038138 C154.871775,91.5038138 154.944274,91.5574936 154.944274,91.6464889 C154.944274,91.7884577 154.817756,91.823067 154.606654,91.823067 L152.908601,91.823067 C151.909245,91.823067 151.462165,91.7361906 150.996604,91.4854497 C150.229673,91.0772011 149.550167,90.2430462 148.548679,88.8763317 C147.834345,87.8987953 147.013395,86.6924137 146.78097,86.4254276 C146.68999,86.3187744 146.584084,86.3004103 146.458986,86.3004103 L144.905222,86.2665073 C144.815664,86.2665073 144.763066,86.3004103 144.763066,86.4077698 L144.763066,86.6563918 C144.763066,88.3070439 144.763066,89.709074 144.850492,90.4570588 C144.905222,90.9726669 145.011839,91.3611387 145.547767,91.43177 C145.816442,91.4692045 146.209503,91.5038138 146.421315,91.5038138 C146.566314,91.5038138 146.638103,91.5574936 146.638103,91.6464889 C146.638103,91.7707999 146.512295,91.823067 146.280581,91.823067 C145.244975,91.823067 143.921503,91.7707999 143.652828,91.7707999 C143.313786,91.7707999 142.190044,91.823067 141.474288,91.823067 C141.241863,91.823067 141.117477,91.7707999 141.117477,91.6464889 C141.117477,91.5574936 141.187844,91.5038138 141.401789,91.5038138 C141.670464,91.5038138 141.885119,91.4692045 142.046466,91.43177 C142.403988,91.3611387 142.492125,90.9726669 142.563914,90.4570588 C142.654894,89.709074 142.654894,88.3070439 142.654894,86.6747559 L142.654894,83.5479109 Z M144.763066,84.9513536 C144.763066,85.1484148 144.797894,85.219046 144.92157,85.2713131 C145.297572,85.3970368 145.834922,85.4500102 146.280581,85.4500102 C146.993493,85.4500102 147.22805,85.3765537 147.549322,85.1484148 C148.083118,84.757824 148.601987,83.9420332 148.601987,82.4849107 C148.601987,79.9626691 146.925258,79.2372862 145.868329,79.2372862 C145.421959,79.2372862 145.100686,79.2521188 144.92157,79.3065049 C144.797894,79.3439394 144.763066,79.4138644 144.763066,79.5565395 L144.763066,84.9513536 Z M160.668041,79.3962772 L158.003328,79.4669084 C156.967722,79.5029303 156.541965,79.5912194 156.271869,79.9803975 C156.092752,80.2473836 156.003905,80.46069 155.967655,80.6026588 C155.931405,80.7439212 155.877386,80.8173777 155.770769,80.8173777 C155.647804,80.8173777 155.612265,80.7276761 155.612265,80.5306149 C155.612265,80.2473836 155.952018,78.6334598 155.986846,78.491491 C156.039444,78.2605268 156.092752,78.152461 156.201502,78.152461 C156.342236,78.152461 156.522774,78.3297454 156.967722,78.3664737 C157.48517,78.4194471 158.166097,78.4540564 158.756755,78.4540564 L165.829013,78.4540564 C166.973368,78.4540564 167.402679,78.276772 167.544124,78.276772 C167.671353,78.276772 167.687701,78.3820126 167.687701,78.6504113 C167.687701,79.0226379 167.635104,80.2473836 167.635104,80.7107246 C167.617334,80.888009 167.583217,80.9932495 167.474467,80.9932495 C167.33089,80.9932495 167.29464,80.9049605 167.276871,80.6379744 L167.259812,80.4437385 C167.224273,79.9803975 166.742364,79.4845662 165.150929,79.4492506 L162.899179,79.3962772 L162.899179,86.6748265 C162.899179,88.3071145 162.899179,89.7091446 162.990869,90.474081 C163.045599,90.9727375 163.150795,91.360503 163.686723,91.4318406 C163.936917,91.4692752 164.329978,91.5038845 164.597231,91.5038845 C164.792696,91.5038845 164.883676,91.5575642 164.883676,91.6465596 C164.883676,91.7708706 164.740809,91.8231377 164.543212,91.8231377 C163.36545,91.8231377 162.240286,91.7708706 161.739186,91.7708706 C161.328355,91.7708706 160.20177,91.8231377 159.488858,91.8231377 C159.255011,91.8231377 159.132757,91.7708706 159.132757,91.6465596 C159.132757,91.5575642 159.200992,91.5038845 159.416358,91.5038845 C159.685033,91.5038845 159.899688,91.4692752 160.060325,91.4318406 C160.416425,91.360503 160.525174,90.9727375 160.577772,90.4571295 C160.668041,89.7091446 160.668041,88.3071145 160.668041,86.6748265 L160.668041,79.3962772 Z M173.583548,83.5479109 C173.583548,80.8512101 173.583548,80.3539662 173.548009,79.7867973 C173.511759,79.1843128 173.333353,78.8805985 172.941714,78.7916031 C172.743406,78.7386297 172.50956,78.7209719 172.297747,78.7209719 C172.117209,78.7209719 172.011303,78.6863626 172.011303,78.5443938 C172.011303,78.4377406 172.155591,78.402425 172.440614,78.402425 C173.119409,78.402425 174.243862,78.4539858 174.762731,78.4539858 C175.209812,78.4539858 176.263898,78.402425 176.941982,78.402425 C177.175828,78.402425 177.319406,78.4377406 177.319406,78.5443938 C177.319406,78.6863626 177.210657,78.7209719 177.03154,78.7209719 C176.853134,78.7209719 176.710268,78.7386297 176.497745,78.7753579 C176.012993,78.8622344 175.870837,79.1638298 175.834587,79.7867973 C175.798337,80.3539662 175.798337,80.8512101 175.798337,83.5479109 L175.798337,86.6747559 C175.798337,88.3967456 175.798337,89.799482 175.870837,90.5644183 C175.925567,91.0411792 176.049243,91.3611387 176.58446,91.43177 C176.834654,91.4692045 177.227005,91.5038138 177.49639,91.5038138 C177.691855,91.5038138 177.782834,91.5574936 177.782834,91.6464889 C177.782834,91.7707999 177.640678,91.823067 177.443082,91.823067 C176.263898,91.823067 175.137312,91.7707999 174.653982,91.7707999 C174.243862,91.7707999 173.119409,91.823067 172.406497,91.823067 C172.171229,91.823067 172.047553,91.7707999 172.047553,91.6464889 C172.047553,91.5574936 172.117209,91.5038138 172.331154,91.5038138 C172.599829,91.5038138 172.817327,91.4692045 172.976542,91.43177 C173.333353,91.3611387 173.43997,91.060956 173.49399,90.5460542 C173.583548,89.799482 173.583548,88.3967456 173.583548,86.6747559 L173.583548,83.5479109 Z M182.869458,91.609125 C182.585857,91.4855203 182.531127,91.3979376 182.531127,91.0080532 C182.531127,90.0312231 182.603627,88.9646914 182.619974,88.6800475 C182.639876,88.414474 182.691052,88.2188255 182.83463,88.2188255 C182.995266,88.2188255 183.014457,88.380571 183.014457,88.5190082 C183.014457,88.751385 183.084114,89.1236117 183.173672,89.4266197 C183.566733,90.7403608 184.62153,91.2199469 185.729636,91.2199469 C187.336708,91.2199469 188.123542,90.1378763 188.123542,89.1956555 C188.123542,88.3254786 187.854867,87.4906174 186.37147,86.3562796 L185.549098,85.7156543 C183.585213,84.1879005 182.905708,82.9469096 182.905708,81.507445 C182.905708,79.5566101 184.549031,78.152461 187.032495,78.152461 C188.193909,78.152461 188.943781,78.3297454 189.408631,78.4540564 C189.5714,78.491491 189.660958,78.5437581 189.660958,78.6673628 C189.660958,78.8983269 189.589169,79.413935 189.589169,80.797601 C189.589169,81.1881918 189.53515,81.3308669 189.391573,81.3308669 C189.266475,81.3308669 189.212456,81.2242137 189.212456,81.0109073 C189.212456,80.8512807 189.124319,80.3010634 188.749739,79.8391351 C188.481064,79.5029303 187.961484,78.9696645 186.80007,78.9696645 C185.47873,78.9696645 184.675549,79.7338945 184.675549,80.797601 C184.675549,81.6133918 185.08638,82.2349467 186.569066,83.3558645 L187.068034,83.7273849 C189.212456,85.3766243 190,86.567467 190,88.2548474 C190,89.2825319 189.606228,90.5101029 188.318295,91.3428452 C187.424134,91.9135457 186.42691,92.0710533 185.47873,92.0710533 C184.441703,92.0710533 183.639233,91.9474487 182.869458,91.609125 Z M50.9018355,92.9990066 C40.9885911,92.2460775 37.9748852,86.5807457 41.295648,80.2048636 C43.0839697,76.771479 45.8169176,73.0753462 42.560125,69.661032 C42.4719883,69.5494346 42.5451987,69.4788034 42.6816684,69.5409589 C50.0972329,72.4763933 46.2384099,78.4080049 44.9725113,80.8631468 C42.4769638,85.7070373 44.0698211,91.5885007 50.9018355,92.8542125 C51.05181,92.8859966 51.0404376,93.0124265 50.9018355,92.9990066 Z M52.2258759,87.5974824 C52.2145035,87.7260313 52.0972248,87.7295629 52.0872739,87.5974824 L49.9719935,67 L53.9011837,67.0042379 L52.2258759,87.5974824 Z M56.711962,77.230794 C56.5790462,77.1276724 56.6636289,77.0153687 56.8434562,77.1008325 C63.58378,80.0164901 68.9110738,91.0681603 53.4096795,92.9949806 C53.2625481,93.0076942 53.2490433,92.88974 53.4082579,92.8501865 C63.1530475,89.7847907 59.160598,79.1449006 56.711962,77.230794 Z" id="Combined-Shape"></path>
        </g>
    </g>
</svg>