<?xml version="1.0" encoding="UTF-8"?>
<svg width="256px" height="256px" viewBox="0 0 256 256" version="1.1" xmlns="http://www.w3.org/2000/svg" xmlns:xlink="http://www.w3.org/1999/xlink">
    <g id="03-what-we-do-(SRC)" stroke="none" stroke-width="1" fill="none" fill-rule="evenodd">
        <g id="Group-Copy-3" fill="#FFFFFF">
            <path d="M155.820896,80.5625 L155.820896,94.8838241 L146.039905,85.3958534 L155.820896,80.5625 Z M88,65 L121.114428,65 L121.114428,93.0125 L88,65 Z M122.706468,65 L155.820896,96.8166667 L122.706468,148 L122.706468,65 Z M157.253731,81.2009615 L168,91.975 L157.253731,91.975 L157.253731,81.2009615 Z" id="Shape"></path>
            <path d="M87.395112,170 C93.99389,170 98.7291242,174.892265 98.7291242,180.939227 L98.7291242,181 C98.7291242,187.046961 93.9327902,192 87.3340122,192 C80.7352342,192 76,187.107735 76,181.060773 L76,181 C76,174.953039 80.796334,170 87.395112,170 Z M145.531568,170 C149.380855,170 151.702648,171.033149 153.93279,172.917127 L150.96945,176.472376 C149.319756,175.104972 147.85336,174.314917 145.378819,174.314917 C141.95723,174.314917 139.238289,177.323204 139.238289,180.939227 L139.238289,181 C139.238289,184.889503 141.92668,187.745856 145.714868,187.745856 C147.425662,187.745856 148.953157,187.320442 150.144603,186.469613 L150.144603,183.430939 L145.409369,183.430939 L145.409369,179.389503 L154.696538,179.389503 L154.696538,188.627072 C152.496945,190.480663 149.472505,192 145.562118,192 C138.90224,192 134.319756,187.350829 134.319756,181.060773 L134.319756,181 C134.319756,174.953039 139.05499,170 145.531568,170 Z M169.665988,170 C176.264766,170 181,174.892265 181,180.939227 L181,181 C181,187.046961 176.203666,192 169.604888,192 C163.00611,192 158.270876,187.107735 158.270876,181.060773 L158.270876,181 C158.270876,174.953039 163.06721,170 169.665988,170 Z M112.690428,170.364641 C115.409369,170.364641 117.517312,171.124309 118.922607,172.522099 C120.114053,173.707182 120.755601,175.378453 120.755601,177.383978 L120.755601,177.444751 C120.755601,180.878453 118.892057,183.035912 116.173116,184.038674 L121.397149,191.635359 L115.898167,191.635359 L111.315682,184.828729 L107.619145,184.828729 L107.619145,191.635359 L102.91446,191.635359 L102.91446,170.364641 L112.690428,170.364641 Z M129.92057,170.364641 L129.92057,191.635359 L125.215886,191.635359 L125.215886,170.364641 L129.92057,170.364641 Z M87.3340122,174.314917 C83.5458248,174.314917 80.9185336,177.292818 80.9185336,180.939227 L80.9185336,181 C80.9185336,184.646409 83.6069246,187.685083 87.395112,187.685083 C91.1832994,187.685083 93.8105906,184.707182 93.8105906,181.060773 L93.8105906,181 C93.8105906,177.353591 91.1221996,174.314917 87.3340122,174.314917 Z M169.604888,174.314917 C165.816701,174.314917 163.189409,177.292818 163.189409,180.939227 L163.189409,181 C163.189409,184.646409 165.8778,187.685083 169.665988,187.685083 C173.454175,187.685083 176.081466,184.707182 176.081466,181.060773 L176.081466,181 C176.081466,177.353591 173.393075,174.314917 169.604888,174.314917 Z M112.293279,174.588398 L107.619145,174.588398 L107.619145,180.696133 L112.384929,180.696133 C114.676171,180.696133 115.989817,179.480663 115.989817,177.687845 L115.989817,177.627072 C115.989817,175.621547 114.584521,174.588398 112.293279,174.588398 Z" id="Combined-Shape"></path>
        </g>
    </g>
</svg>