<?xml version="1.0" encoding="UTF-8"?>
<svg width="68px" height="48px" viewBox="0 0 68 48" version="1.1" xmlns="http://www.w3.org/2000/svg" xmlns:xlink="http://www.w3.org/1999/xlink">
    <!-- Generator: Sketch 64 (93537) - https://sketch.com -->
    <title>i68_other</title>
    <desc>Created with Sketch.</desc>
    <g id="Final" stroke="none" stroke-width="1" fill="none" fill-rule="evenodd">
        <g id="3-copy" transform="translate(-107.000000, -142.000000)">
            <g id="Icon-Fitness" transform="translate(106.000000, 130.000000)">
                <g id="Group-18" transform="translate(1.000000, 12.000000)">
                    <g id="Group" transform="translate(8.000000, 8.000000)">
                        <path d="M10,25 L10,9 L6,9 C2.6862915,9 0,11.6862915 0,15 L0,19 C0,22.3137085 2.6862915,25 6,25 L10,25 Z M7,12 L7,22 L6,22 C4.34314575,22 3,20.6568542 3,19 L3,15 C3,13.3431458 4.34314575,12 6,12 L7,12 Z" id="Rectangle" fill="#FF6A40" fill-rule="nonzero"></path>
                        <path d="M12,10 L40,10 L40,6 C40,2.6862915 37.3137085,0 34,0 L18,0 C14.6862915,0 12,2.6862915 12,6 L12,10 Z M37,7 L15,7 L15,6 C15,4.34314575 16.3431458,3 18,3 L34,3 C35.6568542,3 37,4.34314575 37,6 L37,7 Z" id="Shape" fill="#FF6A40" fill-rule="nonzero"></path>
                        <path d="M42,25 L42,9 L46,9 C49.3137085,9 52,11.6862915 52,15 L52,19 C52,22.3137085 49.3137085,25 46,25 L42,25 Z M45,12 L45,22 L46,22 C47.6568542,22 49,20.6568542 49,19 L49,15 C49,13.3431458 47.6568542,12 46,12 L45,12 Z" id="Shape" fill="#FF6A40" fill-rule="nonzero"></path>
                        <path d="M12.0383925,8 L39.961602,8 C41.2417876,8 42.3809251,8.81235753 42.7979615,10.0227111 C43.5993205,12.3484741 44,14.674237 44,17 C44,19.3257619 43.5993209,21.6515238 42.7979626,23.9772857 C42.3809279,25.1876385 41.2417917,26 39.9616075,26 L12.038398,26 C10.7582124,26 9.6190749,25.1876425 9.20203852,23.9772889 C8.40067951,21.6515259 8,19.325763 8,17 C8,14.6742381 8.40067914,12.3484762 9.20203743,10.0227143 C9.61907206,8.81236154 10.7582083,8 12.0383925,8 Z" id="Rectangle-Copy-9" fill="#FFFFFF"></path>
                        <path d="M39.9615907,5 L12.0383925,5 C9.47802365,5 7.19975087,6.62472396 6.36568141,9.04543002 C5.45748752,11.6812582 5,14.3367671 5,17 C5,19.6632341 5.45748793,22.3187442 6.36568355,24.9545762 C7.19975688,27.375285 9.47803563,29 12.0384093,29 L21.498498,29 C22.634838,29 23.6736448,28.3579663 24.1818091,27.3415817 L25.998,23.709 L27.8164536,27.3426134 C28.3248227,28.3584309 29.3633242,29 30.4992486,29 L39.9616075,29 C42.5219763,29 44.8002491,27.375276 45.6343186,24.95457 C46.5425125,22.3187418 47,19.6632329 47,17 C47,14.3367659 46.5425121,11.6812558 45.6343165,9.04542383 C44.8002431,6.62471496 42.5219644,5 39.9615907,5 Z M39.961602,8 C41.2417876,8 42.3809251,8.81235753 42.7979615,10.0227111 C43.5993205,12.3484741 44,14.674237 44,17 C44,19.3257619 43.5993209,21.6515238 42.7979626,23.9772857 C42.3809279,25.1876385 41.2417917,26 39.9616075,26 L30.5,26 L28.6832816,22.3665631 C28.425245,21.8504901 28.0246099,21.4211842 27.531004,21.1282734 L27.3416408,21.0249224 C25.9145918,20.3113979 24.19073,20.8419737 23.4033445,22.2055536 L23.3167184,22.3665631 L21.499,26 L12.038398,26 C10.7582124,26 9.6190749,25.1876425 9.20203852,23.9772889 C8.40067951,21.6515259 8,19.325763 8,17 C8,14.6742381 8.40067914,12.3484762 9.20203743,10.0227143 C9.61907206,8.81236154 10.7582083,8 12.0383925,8 L39.961602,8 Z" id="Shape" fill="#FF6A40" fill-rule="nonzero"></path>
                    </g>
                </g>
            </g>
        </g>
    </g>
</svg>