<svg height="460" viewBox="0 0 461 460" width="461" xmlns="http://www.w3.org/2000/svg"><g fill="none" fill-rule="evenodd"><path d="m171.935597 360.339513c84.865487 0 178.864382-60.966467 178.864382-145.831953 0-84.865487-90.271938-133.7075642-175.137424-133.7075642-84.8654865 0-153.6625561 68.7970692-153.6625561 153.6625562 0 84.865486 65.0701123 125.876961 149.9355981 125.876961z" fill="#f88f74" transform="matrix(.99026807 -.1391731 .1391731 .99026807 -28.883345 28.088434)"/><path d="m286.277216 287.406511c64.057553 0 135.009121-46.018269 135.009121-110.075823 0-64.057553-68.138413-100.9241774-132.195966-100.9241774-64.057554 0-115.986461 51.9289074-115.986461 115.9864604 0 64.057554 49.115752 95.01354 113.173306 95.01354z" fill="#ffdcb9" transform="matrix(.90630779 .42261826 -.42261826 .90630779 104.721882 -108.556863)"/></g></svg>