<?xml version="1.0" encoding="UTF-8"?>
<svg width="388px" height="132px" viewBox="0 0 388 132" version="1.1" xmlns="http://www.w3.org/2000/svg" xmlns:xlink="http://www.w3.org/1999/xlink">
    <!-- Generator: Sketch 58 (84663) - https://sketch.com -->
    <title>pattern_circles</title>
    <desc>Created with Sketch.</desc>
    <g id="Page-1" stroke="none" stroke-width="1" fill="none" fill-rule="evenodd" opacity="0.400000006">
        <g id="Landing-Fitness-Wellness_2560" transform="translate(-1216.000000, -1855.000000)" fill="#565B68" fill-rule="nonzero">
            <g id="Group-38" transform="translate(0.000000, 1274.000000)">
                <g id="Group-16-Copy" transform="translate(1216.000000, 581.000000)">
                    <circle id="Oval-Copy-32" cx="2" cy="2" r="2"></circle>
                    <circle id="Oval-Copy-31" cx="66" cy="2" r="2"></circle>
                    <circle id="Oval-Copy-30" cx="130" cy="2" r="2"></circle>
                    <circle id="Oval-Copy-64" cx="2" cy="66" r="2"></circle>
                    <circle id="Oval-Copy-63" cx="66" cy="66" r="2"></circle>
                    <circle id="Oval-Copy-62" cx="130" cy="66" r="2"></circle>
                    <circle id="Oval-Copy-56" cx="2" cy="130" r="2"></circle>
                    <circle id="Oval-Copy-55" cx="66" cy="130" r="2"></circle>
                    <circle id="Oval-Copy-54" cx="130" cy="130" r="2"></circle>
                    <circle id="Oval-Copy-32" cx="194" cy="2" r="2"></circle>
                    <circle id="Oval-Copy-31" cx="258" cy="2" r="2"></circle>
                    <circle id="Oval-Copy-30" cx="322" cy="2" r="2"></circle>
                    <circle id="Oval-Copy-64" cx="194" cy="66" r="2"></circle>
                    <circle id="Oval-Copy-63" cx="258" cy="66" r="2"></circle>
                    <circle id="Oval-Copy-62" cx="322" cy="66" r="2"></circle>
                    <circle id="Oval-Copy-56" cx="194" cy="130" r="2"></circle>
                    <circle id="Oval-Copy-55" cx="258" cy="130" r="2"></circle>
                    <circle id="Oval-Copy-54" cx="322" cy="130" r="2"></circle>
                    <circle id="Oval-Copy-30" cx="386" cy="2" r="2"></circle>
                    <circle id="Oval-Copy-62" cx="386" cy="66" r="2"></circle>
                    <circle id="Oval-Copy-54" cx="386" cy="130" r="2"></circle>
                </g>
            </g>
        </g>
    </g>
</svg>