<?xml version="1.0" encoding="UTF-8"?>
<svg width="280px" height="280px" viewBox="0 0 280 280" version="1.1" xmlns="http://www.w3.org/2000/svg" xmlns:xlink="http://www.w3.org/1999/xlink">
    <!-- Generator: Sketch 58 (84663) - https://sketch.com -->
    <title>pattern_pluses_small</title>
    <desc>Created with Sketch.</desc>
    <g id="Page-1" stroke="none" stroke-width="1" fill="none" fill-rule="evenodd">
        <g id="Landing-Fitness-Wellness_2560" transform="translate(-290.000000, -10552.000000)" fill="#565B68" fill-rule="nonzero">
            <g id="Group-32" transform="translate(430.000000, 10692.000000) rotate(-90.000000) translate(-430.000000, -10692.000000) translate(290.000000, 10552.000000)">
                <path d="M4,0 C4.27614237,0 4.5,0.223857625 4.5,0.5 L4.5,0.5 L4.5,3.5 L7.5,3.5 C7.74545989,3.5 7.94960837,3.67687516 7.99194433,3.91012437 L8,4 C8,4.27614237 7.77614237,4.5 7.5,4.5 L7.5,4.5 L4.5,4.5 L4.5,7.5 C4.5,7.74545989 4.32312484,7.94960837 4.08987563,7.99194433 L4,8 C3.72385763,8 3.5,7.77614237 3.5,7.5 L3.5,7.5 L3.5,4.5 L0.5,4.5 C0.254540111,4.5 0.0503916296,4.32312484 0.00805566941,4.08987563 L3.061617e-17,4 C4.75250138e-17,3.72385763 0.223857625,3.5 0.5,3.5 L0.5,3.5 L3.5,3.5 L3.5,0.5 C3.5,0.254540111 3.67687516,0.0503916296 3.91012437,0.00805566941 Z" id="Combined-Shape-Copy-3"></path>
                <path d="M4,68 C4.27614237,68 4.5,68.2238576 4.5,68.5 L4.5,68.5 L4.5,71.5 L7.5,71.5 C7.74545989,71.5 7.94960837,71.6768752 7.99194433,71.9101244 L8,72 C8,72.2761424 7.77614237,72.5 7.5,72.5 L7.5,72.5 L4.5,72.5 L4.5,75.5 C4.5,75.7454599 4.32312484,75.9496084 4.08987563,75.9919443 L4,76 C3.72385763,76 3.5,75.7761424 3.5,75.5 L3.5,75.5 L3.5,72.5 L0.5,72.5 C0.254540111,72.5 0.0503916296,72.3231248 0.00805566941,72.0898756 L3.061617e-17,72 C4.75250138e-17,71.7238576 0.223857625,71.5 0.5,71.5 L0.5,71.5 L3.5,71.5 L3.5,68.5 C3.5,68.2545401 3.67687516,68.0503916 3.91012437,68.0080557 Z" id="Combined-Shape-Copy-11"></path>
                <path d="M4,136 C4.27614237,136 4.5,136.223858 4.5,136.5 L4.5,136.5 L4.5,139.5 L7.5,139.5 C7.74545989,139.5 7.94960837,139.676875 7.99194433,139.910124 L8,140 C8,140.276142 7.77614237,140.5 7.5,140.5 L7.5,140.5 L4.5,140.5 L4.5,143.5 C4.5,143.74546 4.32312484,143.949608 4.08987563,143.991944 L4,144 C3.72385763,144 3.5,143.776142 3.5,143.5 L3.5,143.5 L3.5,140.5 L0.5,140.5 C0.254540111,140.5 0.0503916296,140.323125 0.00805566941,140.089876 L3.061617e-17,140 C4.75250138e-17,139.723858 0.223857625,139.5 0.5,139.5 L0.5,139.5 L3.5,139.5 L3.5,136.5 C3.5,136.25454 3.67687516,136.050392 3.91012437,136.008056 Z" id="Combined-Shape-Copy-21"></path>
                <path d="M4,204 C4.27614237,204 4.5,204.223858 4.5,204.5 L4.5,204.5 L4.5,207.5 L7.5,207.5 C7.74545989,207.5 7.94960837,207.676875 7.99194433,207.910124 L8,208 C8,208.276142 7.77614237,208.5 7.5,208.5 L7.5,208.5 L4.5,208.5 L4.5,211.5 C4.5,211.74546 4.32312484,211.949608 4.08987563,211.991944 L4,212 C3.72385763,212 3.5,211.776142 3.5,211.5 L3.5,211.5 L3.5,208.5 L0.5,208.5 C0.254540111,208.5 0.0503916296,208.323125 0.00805566941,208.089876 L3.061617e-17,208 C4.75250138e-17,207.723858 0.223857625,207.5 0.5,207.5 L0.5,207.5 L3.5,207.5 L3.5,204.5 C3.5,204.25454 3.67687516,204.050392 3.91012437,204.008056 Z" id="Combined-Shape-Copy-31"></path>
                <path d="M4,272 C4.27614237,272 4.5,272.223858 4.5,272.5 L4.5,272.5 L4.5,275.5 L7.5,275.5 C7.74545989,275.5 7.94960837,275.676875 7.99194433,275.910124 L8,276 C8,276.276142 7.77614237,276.5 7.5,276.5 L7.5,276.5 L4.5,276.5 L4.5,279.5 C4.5,279.74546 4.32312484,279.949608 4.08987563,279.991944 L4,280 C3.72385763,280 3.5,279.776142 3.5,279.5 L3.5,279.5 L3.5,276.5 L0.5,276.5 C0.254540111,276.5 0.0503916296,276.323125 0.00805566941,276.089876 L3.061617e-17,276 C4.75250138e-17,275.723858 0.223857625,275.5 0.5,275.5 L0.5,275.5 L3.5,275.5 L3.5,272.5 C3.5,272.25454 3.67687516,272.050392 3.91012437,272.008056 Z" id="Combined-Shape-Copy-41"></path>
                <path d="M208,0 C208.276142,0 208.5,0.223857625 208.5,0.5 L208.5,0.5 L208.5,3.5 L211.5,3.5 C211.74546,3.5 211.949608,3.67687516 211.991944,3.91012437 L212,4 C212,4.27614237 211.776142,4.5 211.5,4.5 L211.5,4.5 L208.5,4.5 L208.5,7.5 C208.5,7.74545989 208.323125,7.94960837 208.089876,7.99194433 L208,8 C207.723858,8 207.5,7.77614237 207.5,7.5 L207.5,7.5 L207.5,4.5 L204.5,4.5 C204.25454,4.5 204.050392,4.32312484 204.008056,4.08987563 L204,4 C204,3.72385763 204.223858,3.5 204.5,3.5 L204.5,3.5 L207.5,3.5 L207.5,0.5 C207.5,0.254540111 207.676875,0.0503916296 207.910124,0.00805566941 Z" id="Combined-Shape-Copy-6"></path>
                <path d="M208,68 C208.276142,68 208.5,68.2238576 208.5,68.5 L208.5,68.5 L208.5,71.5 L211.5,71.5 C211.74546,71.5 211.949608,71.6768752 211.991944,71.9101244 L212,72 C212,72.2761424 211.776142,72.5 211.5,72.5 L211.5,72.5 L208.5,72.5 L208.5,75.5 C208.5,75.7454599 208.323125,75.9496084 208.089876,75.9919443 L208,76 C207.723858,76 207.5,75.7761424 207.5,75.5 L207.5,75.5 L207.5,72.5 L204.5,72.5 C204.25454,72.5 204.050392,72.3231248 204.008056,72.0898756 L204,72 C204,71.7238576 204.223858,71.5 204.5,71.5 L204.5,71.5 L207.5,71.5 L207.5,68.5 C207.5,68.2545401 207.676875,68.0503916 207.910124,68.0080557 Z" id="Combined-Shape-Copy-12"></path>
                <path d="M208,136 C208.276142,136 208.5,136.223858 208.5,136.5 L208.5,136.5 L208.5,139.5 L211.5,139.5 C211.74546,139.5 211.949608,139.676875 211.991944,139.910124 L212,140 C212,140.276142 211.776142,140.5 211.5,140.5 L211.5,140.5 L208.5,140.5 L208.5,143.5 C208.5,143.74546 208.323125,143.949608 208.089876,143.991944 L208,144 C207.723858,144 207.5,143.776142 207.5,143.5 L207.5,143.5 L207.5,140.5 L204.5,140.5 C204.25454,140.5 204.050392,140.323125 204.008056,140.089876 L204,140 C204,139.723858 204.223858,139.5 204.5,139.5 L204.5,139.5 L207.5,139.5 L207.5,136.5 C207.5,136.25454 207.676875,136.050392 207.910124,136.008056 Z" id="Combined-Shape-Copy-22"></path>
                <path d="M208,204 C208.276142,204 208.5,204.223858 208.5,204.5 L208.5,204.5 L208.5,207.5 L211.5,207.5 C211.74546,207.5 211.949608,207.676875 211.991944,207.910124 L212,208 C212,208.276142 211.776142,208.5 211.5,208.5 L211.5,208.5 L208.5,208.5 L208.5,211.5 C208.5,211.74546 208.323125,211.949608 208.089876,211.991944 L208,212 C207.723858,212 207.5,211.776142 207.5,211.5 L207.5,211.5 L207.5,208.5 L204.5,208.5 C204.25454,208.5 204.050392,208.323125 204.008056,208.089876 L204,208 C204,207.723858 204.223858,207.5 204.5,207.5 L204.5,207.5 L207.5,207.5 L207.5,204.5 C207.5,204.25454 207.676875,204.050392 207.910124,204.008056 Z" id="Combined-Shape-Copy-32"></path>
                <path d="M208,272 C208.276142,272 208.5,272.223858 208.5,272.5 L208.5,272.5 L208.5,275.5 L211.5,275.5 C211.74546,275.5 211.949608,275.676875 211.991944,275.910124 L212,276 C212,276.276142 211.776142,276.5 211.5,276.5 L211.5,276.5 L208.5,276.5 L208.5,279.5 C208.5,279.74546 208.323125,279.949608 208.089876,279.991944 L208,280 C207.723858,280 207.5,279.776142 207.5,279.5 L207.5,279.5 L207.5,276.5 L204.5,276.5 C204.25454,276.5 204.050392,276.323125 204.008056,276.089876 L204,276 C204,275.723858 204.223858,275.5 204.5,275.5 L204.5,275.5 L207.5,275.5 L207.5,272.5 C207.5,272.25454 207.676875,272.050392 207.910124,272.008056 Z" id="Combined-Shape-Copy-42"></path>
                <path d="M72,0 C72.2761424,0 72.5,0.223857625 72.5,0.5 L72.5,0.5 L72.5,3.5 L75.5,3.5 C75.7454599,3.5 75.9496084,3.67687516 75.9919443,3.91012437 L76,4 C76,4.27614237 75.7761424,4.5 75.5,4.5 L75.5,4.5 L72.5,4.5 L72.5,7.5 C72.5,7.74545989 72.3231248,7.94960837 72.0898756,7.99194433 L72,8 C71.7238576,8 71.5,7.77614237 71.5,7.5 L71.5,7.5 L71.5,4.5 L68.5,4.5 C68.2545401,4.5 68.0503916,4.32312484 68.0080557,4.08987563 L68,4 C68,3.72385763 68.2238576,3.5 68.5,3.5 L68.5,3.5 L71.5,3.5 L71.5,0.5 C71.5,0.254540111 71.6768752,0.0503916296 71.9101244,0.00805566941 Z" id="Combined-Shape-Copy-4"></path>
                <path d="M72,68 C72.2761424,68 72.5,68.2238576 72.5,68.5 L72.5,68.5 L72.5,71.5 L75.5,71.5 C75.7454599,71.5 75.9496084,71.6768752 75.9919443,71.9101244 L76,72 C76,72.2761424 75.7761424,72.5 75.5,72.5 L75.5,72.5 L72.5,72.5 L72.5,75.5 C72.5,75.7454599 72.3231248,75.9496084 72.0898756,75.9919443 L72,76 C71.7238576,76 71.5,75.7761424 71.5,75.5 L71.5,75.5 L71.5,72.5 L68.5,72.5 C68.2545401,72.5 68.0503916,72.3231248 68.0080557,72.0898756 L68,72 C68,71.7238576 68.2238576,71.5 68.5,71.5 L68.5,71.5 L71.5,71.5 L71.5,68.5 C71.5,68.2545401 71.6768752,68.0503916 71.9101244,68.0080557 Z" id="Combined-Shape-Copy-14"></path>
                <path d="M72,136 C72.2761424,136 72.5,136.223858 72.5,136.5 L72.5,136.5 L72.5,139.5 L75.5,139.5 C75.7454599,139.5 75.9496084,139.676875 75.9919443,139.910124 L76,140 C76,140.276142 75.7761424,140.5 75.5,140.5 L75.5,140.5 L72.5,140.5 L72.5,143.5 C72.5,143.74546 72.3231248,143.949608 72.0898756,143.991944 L72,144 C71.7238576,144 71.5,143.776142 71.5,143.5 L71.5,143.5 L71.5,140.5 L68.5,140.5 C68.2545401,140.5 68.0503916,140.323125 68.0080557,140.089876 L68,140 C68,139.723858 68.2238576,139.5 68.5,139.5 L68.5,139.5 L71.5,139.5 L71.5,136.5 C71.5,136.25454 71.6768752,136.050392 71.9101244,136.008056 Z" id="Combined-Shape-Copy-24"></path>
                <path d="M72,204 C72.2761424,204 72.5,204.223858 72.5,204.5 L72.5,204.5 L72.5,207.5 L75.5,207.5 C75.7454599,207.5 75.9496084,207.676875 75.9919443,207.910124 L76,208 C76,208.276142 75.7761424,208.5 75.5,208.5 L75.5,208.5 L72.5,208.5 L72.5,211.5 C72.5,211.74546 72.3231248,211.949608 72.0898756,211.991944 L72,212 C71.7238576,212 71.5,211.776142 71.5,211.5 L71.5,211.5 L71.5,208.5 L68.5,208.5 C68.2545401,208.5 68.0503916,208.323125 68.0080557,208.089876 L68,208 C68,207.723858 68.2238576,207.5 68.5,207.5 L68.5,207.5 L71.5,207.5 L71.5,204.5 C71.5,204.25454 71.6768752,204.050392 71.9101244,204.008056 Z" id="Combined-Shape-Copy-34"></path>
                <path d="M72,272 C72.2761424,272 72.5,272.223858 72.5,272.5 L72.5,272.5 L72.5,275.5 L75.5,275.5 C75.7454599,275.5 75.9496084,275.676875 75.9919443,275.910124 L76,276 C76,276.276142 75.7761424,276.5 75.5,276.5 L75.5,276.5 L72.5,276.5 L72.5,279.5 C72.5,279.74546 72.3231248,279.949608 72.0898756,279.991944 L72,280 C71.7238576,280 71.5,279.776142 71.5,279.5 L71.5,279.5 L71.5,276.5 L68.5,276.5 C68.2545401,276.5 68.0503916,276.323125 68.0080557,276.089876 L68,276 C68,275.723858 68.2238576,275.5 68.5,275.5 L68.5,275.5 L71.5,275.5 L71.5,272.5 C71.5,272.25454 71.6768752,272.050392 71.9101244,272.008056 Z" id="Combined-Shape-Copy-44"></path>
                <path d="M276,0 C276.276142,0 276.5,0.223857625 276.5,0.5 L276.5,0.5 L276.5,3.5 L279.5,3.5 C279.74546,3.5 279.949608,3.67687516 279.991944,3.91012437 L280,4 C280,4.27614237 279.776142,4.5 279.5,4.5 L279.5,4.5 L276.5,4.5 L276.5,7.5 C276.5,7.74545989 276.323125,7.94960837 276.089876,7.99194433 L276,8 C275.723858,8 275.5,7.77614237 275.5,7.5 L275.5,7.5 L275.5,4.5 L272.5,4.5 C272.25454,4.5 272.050392,4.32312484 272.008056,4.08987563 L272,4 C272,3.72385763 272.223858,3.5 272.5,3.5 L272.5,3.5 L275.5,3.5 L275.5,0.5 C275.5,0.254540111 275.676875,0.0503916296 275.910124,0.00805566941 Z" id="Combined-Shape-Copy-7"></path>
                <path d="M276,68 C276.276142,68 276.5,68.2238576 276.5,68.5 L276.5,68.5 L276.5,71.5 L279.5,71.5 C279.74546,71.5 279.949608,71.6768752 279.991944,71.9101244 L280,72 C280,72.2761424 279.776142,72.5 279.5,72.5 L279.5,72.5 L276.5,72.5 L276.5,75.5 C276.5,75.7454599 276.323125,75.9496084 276.089876,75.9919443 L276,76 C275.723858,76 275.5,75.7761424 275.5,75.5 L275.5,75.5 L275.5,72.5 L272.5,72.5 C272.25454,72.5 272.050392,72.3231248 272.008056,72.0898756 L272,72 C272,71.7238576 272.223858,71.5 272.5,71.5 L272.5,71.5 L275.5,71.5 L275.5,68.5 C275.5,68.2545401 275.676875,68.0503916 275.910124,68.0080557 Z" id="Combined-Shape-Copy-15"></path>
                <path d="M276,136 C276.276142,136 276.5,136.223858 276.5,136.5 L276.5,136.5 L276.5,139.5 L279.5,139.5 C279.74546,139.5 279.949608,139.676875 279.991944,139.910124 L280,140 C280,140.276142 279.776142,140.5 279.5,140.5 L279.5,140.5 L276.5,140.5 L276.5,143.5 C276.5,143.74546 276.323125,143.949608 276.089876,143.991944 L276,144 C275.723858,144 275.5,143.776142 275.5,143.5 L275.5,143.5 L275.5,140.5 L272.5,140.5 C272.25454,140.5 272.050392,140.323125 272.008056,140.089876 L272,140 C272,139.723858 272.223858,139.5 272.5,139.5 L272.5,139.5 L275.5,139.5 L275.5,136.5 C275.5,136.25454 275.676875,136.050392 275.910124,136.008056 Z" id="Combined-Shape-Copy-25"></path>
                <path d="M276,204 C276.276142,204 276.5,204.223858 276.5,204.5 L276.5,204.5 L276.5,207.5 L279.5,207.5 C279.74546,207.5 279.949608,207.676875 279.991944,207.910124 L280,208 C280,208.276142 279.776142,208.5 279.5,208.5 L279.5,208.5 L276.5,208.5 L276.5,211.5 C276.5,211.74546 276.323125,211.949608 276.089876,211.991944 L276,212 C275.723858,212 275.5,211.776142 275.5,211.5 L275.5,211.5 L275.5,208.5 L272.5,208.5 C272.25454,208.5 272.050392,208.323125 272.008056,208.089876 L272,208 C272,207.723858 272.223858,207.5 272.5,207.5 L272.5,207.5 L275.5,207.5 L275.5,204.5 C275.5,204.25454 275.676875,204.050392 275.910124,204.008056 Z" id="Combined-Shape-Copy-35"></path>
                <path d="M276,272 C276.276142,272 276.5,272.223858 276.5,272.5 L276.5,272.5 L276.5,275.5 L279.5,275.5 C279.74546,275.5 279.949608,275.676875 279.991944,275.910124 L280,276 C280,276.276142 279.776142,276.5 279.5,276.5 L279.5,276.5 L276.5,276.5 L276.5,279.5 C276.5,279.74546 276.323125,279.949608 276.089876,279.991944 L276,280 C275.723858,280 275.5,279.776142 275.5,279.5 L275.5,279.5 L275.5,276.5 L272.5,276.5 C272.25454,276.5 272.050392,276.323125 272.008056,276.089876 L272,276 C272,275.723858 272.223858,275.5 272.5,275.5 L272.5,275.5 L275.5,275.5 L275.5,272.5 C275.5,272.25454 275.676875,272.050392 275.910124,272.008056 Z" id="Combined-Shape-Copy-45"></path>
                <path d="M140,0 C140.276142,0 140.5,0.223857625 140.5,0.5 L140.5,0.5 L140.5,3.5 L143.5,3.5 C143.74546,3.5 143.949608,3.67687516 143.991944,3.91012437 L144,4 C144,4.27614237 143.776142,4.5 143.5,4.5 L143.5,4.5 L140.5,4.5 L140.5,7.5 C140.5,7.74545989 140.323125,7.94960837 140.089876,7.99194433 L140,8 C139.723858,8 139.5,7.77614237 139.5,7.5 L139.5,7.5 L139.5,4.5 L136.5,4.5 C136.25454,4.5 136.050392,4.32312484 136.008056,4.08987563 L136,4 C136,3.72385763 136.223858,3.5 136.5,3.5 L136.5,3.5 L139.5,3.5 L139.5,0.5 C139.5,0.254540111 139.676875,0.0503916296 139.910124,0.00805566941 Z" id="Combined-Shape-Copy-5"></path>
                <path d="M140,68 C140.276142,68 140.5,68.2238576 140.5,68.5 L140.5,68.5 L140.5,71.5 L143.5,71.5 C143.74546,71.5 143.949608,71.6768752 143.991944,71.9101244 L144,72 C144,72.2761424 143.776142,72.5 143.5,72.5 L143.5,72.5 L140.5,72.5 L140.5,75.5 C140.5,75.7454599 140.323125,75.9496084 140.089876,75.9919443 L140,76 C139.723858,76 139.5,75.7761424 139.5,75.5 L139.5,75.5 L139.5,72.5 L136.5,72.5 C136.25454,72.5 136.050392,72.3231248 136.008056,72.0898756 L136,72 C136,71.7238576 136.223858,71.5 136.5,71.5 L136.5,71.5 L139.5,71.5 L139.5,68.5 C139.5,68.2545401 139.676875,68.0503916 139.910124,68.0080557 Z" id="Combined-Shape-Copy-17"></path>
                <path d="M140,136 C140.276142,136 140.5,136.223858 140.5,136.5 L140.5,136.5 L140.5,139.5 L143.5,139.5 C143.74546,139.5 143.949608,139.676875 143.991944,139.910124 L144,140 C144,140.276142 143.776142,140.5 143.5,140.5 L143.5,140.5 L140.5,140.5 L140.5,143.5 C140.5,143.74546 140.323125,143.949608 140.089876,143.991944 L140,144 C139.723858,144 139.5,143.776142 139.5,143.5 L139.5,143.5 L139.5,140.5 L136.5,140.5 C136.25454,140.5 136.050392,140.323125 136.008056,140.089876 L136,140 C136,139.723858 136.223858,139.5 136.5,139.5 L136.5,139.5 L139.5,139.5 L139.5,136.5 C139.5,136.25454 139.676875,136.050392 139.910124,136.008056 Z" id="Combined-Shape-Copy-27"></path>
                <path d="M140,204 C140.276142,204 140.5,204.223858 140.5,204.5 L140.5,204.5 L140.5,207.5 L143.5,207.5 C143.74546,207.5 143.949608,207.676875 143.991944,207.910124 L144,208 C144,208.276142 143.776142,208.5 143.5,208.5 L143.5,208.5 L140.5,208.5 L140.5,211.5 C140.5,211.74546 140.323125,211.949608 140.089876,211.991944 L140,212 C139.723858,212 139.5,211.776142 139.5,211.5 L139.5,211.5 L139.5,208.5 L136.5,208.5 C136.25454,208.5 136.050392,208.323125 136.008056,208.089876 L136,208 C136,207.723858 136.223858,207.5 136.5,207.5 L136.5,207.5 L139.5,207.5 L139.5,204.5 C139.5,204.25454 139.676875,204.050392 139.910124,204.008056 Z" id="Combined-Shape-Copy-37"></path>
                <path d="M140,272 C140.276142,272 140.5,272.223858 140.5,272.5 L140.5,272.5 L140.5,275.5 L143.5,275.5 C143.74546,275.5 143.949608,275.676875 143.991944,275.910124 L144,276 C144,276.276142 143.776142,276.5 143.5,276.5 L143.5,276.5 L140.5,276.5 L140.5,279.5 C140.5,279.74546 140.323125,279.949608 140.089876,279.991944 L140,280 C139.723858,280 139.5,279.776142 139.5,279.5 L139.5,279.5 L139.5,276.5 L136.5,276.5 C136.25454,276.5 136.050392,276.323125 136.008056,276.089876 L136,276 C136,275.723858 136.223858,275.5 136.5,275.5 L136.5,275.5 L139.5,275.5 L139.5,272.5 C139.5,272.25454 139.676875,272.050392 139.910124,272.008056 Z" id="Combined-Shape-Copy-47"></path>
            </g>
        </g>
    </g>
</svg>