<?xml version="1.0" encoding="UTF-8"?>
<svg width="386px" height="434px" viewBox="0 0 386 434" version="1.1" xmlns="http://www.w3.org/2000/svg" xmlns:xlink="http://www.w3.org/1999/xlink">
    <!-- Generator: Sketch 60.1 (88133) - https://sketch.com -->
    <title>pic-04-bg</title>
    <desc>Created with Sketch.</desc>
    <defs>
        <linearGradient x1="10.5752969%" y1="0%" x2="89.4247031%" y2="100%" id="linearGradient-1">
            <stop stop-color="#006B8A" offset="0%"></stop>
            <stop stop-color="#4CFF8D" offset="100%"></stop>
        </linearGradient>
    </defs>
    <g id="Actual" stroke="none" stroke-width="1" fill="none" fill-rule="evenodd">
        <g id="Case_Greenlinks_2560" transform="translate(-1424.000000, -6381.000000)" fill="url(#linearGradient-1)">
            <g id="Block-4" transform="translate(712.000000, 6331.000000)">
                <g id="Group-40" transform="translate(712.000000, 0.000000)">
                    <g id="pic-04-bg" transform="translate(0.000000, 50.000000)">
                        <path d="M55.8501681,273.730058 C91.7014189,273.730058 130.668864,332.690509 130.668864,368.54176 C130.668864,404.393011 101.605683,433.456192 65.754432,433.456192 C29.9031812,433.456192 0.84,404.393011 0.84,368.54176 C0.84,332.690509 19.9989172,273.730058 55.8501681,273.730058 Z M296.664288,352.595021 C304.672417,352.595021 311.164288,360.20618 311.164288,369.595021 C311.164288,378.983861 304.672417,386.595021 296.664288,386.595021 C288.656159,386.595021 282.164288,378.983861 282.164288,369.595021 C282.164288,360.20618 288.656159,352.595021 296.664288,352.595021 Z M196.631744,1.65803735 C245.490971,1.65803735 395.940965,-17.0804263 320.715968,103.160358 C245.490971,223.401141 326.895651,304.975029 233.693393,304.975029 C140.491135,304.975029 108.164288,197.580048 108.164288,148.720821 C108.164288,99.8615945 147.772517,1.65803735 196.631744,1.65803735 Z M336.486459,170.450451 C343.573534,150.978873 360.233522,136.622698 372.688991,141.156118 C385.144461,145.689538 388.67878,167.39584 381.591705,186.867418 C374.50463,206.338997 356.095054,225.502127 343.639585,220.968706 C331.184115,216.435286 329.399384,189.92203 336.486459,170.450451 Z" id="Combined-Shape"></path>
                    </g>
                </g>
            </g>
        </g>
    </g>
</svg>