<?xml version="1.0" encoding="UTF-8"?>
<svg width="343px" height="414px" viewBox="0 0 343 414" version="1.1" xmlns="http://www.w3.org/2000/svg" xmlns:xlink="http://www.w3.org/1999/xlink">
    <!-- Generator: Sketch 60.1 (88133) - https://sketch.com -->
    <title>pic-03-bg</title>
    <desc>Created with Sketch.</desc>
    <defs>
        <linearGradient x1="15.7384439%" y1="0%" x2="84.2615561%" y2="100%" id="linearGradient-1">
            <stop stop-color="#006B8A" offset="0%"></stop>
            <stop stop-color="#4CFF8D" offset="100%"></stop>
        </linearGradient>
    </defs>
    <g id="Actual" stroke="none" stroke-width="1" fill="none" fill-rule="evenodd">
        <g id="Case_Greenlinks_2560" transform="translate(-763.000000, -5670.000000)" fill="url(#linearGradient-1)">
            <g id="Block-3" transform="translate(763.000000, 5669.000000)">
                <g id="Group-33">
                    <g id="pic-03-bg">
                        <path d="M7.72238138,291.703259 C19.9856106,285.984822 56.7513087,301.036368 72.5061881,334.822816 C88.2610675,368.609264 77.039076,408.336373 64.7758467,414.054811 C52.5126175,419.773248 29.7994527,397.01963 14.0445733,363.233182 C-1.71030615,329.446735 -4.54084787,297.421697 7.72238138,291.703259 Z M194.84597,1.64098383 C337.776405,-10.8638089 373.751824,159.974271 317.287496,242.303417 C281.138905,295.010724 303.324913,354.956863 238.737656,354.956863 C61.4864729,350.889569 145.286062,201.158211 83.0500336,165.154797 C20.8140051,129.151383 51.9155352,14.1457766 194.84597,1.64098383 Z M32.9405061,184.560304 C44.4529254,179.191975 60.9756655,190.259261 69.8450791,209.27978 C78.7144927,228.300299 76.5719132,248.071367 65.0594939,253.439696 C53.5470746,258.808025 37.0243345,247.740739 28.1549209,228.72022 C19.2855073,209.699701 21.4280868,189.928633 32.9405061,184.560304 Z" id="Combined-Shape"></path>
                    </g>
                </g>
            </g>
        </g>
    </g>
</svg>