<?xml version="1.0" encoding="UTF-8"?>
<svg width="390px" height="222px" viewBox="0 0 390 222" version="1.1" xmlns="http://www.w3.org/2000/svg" xmlns:xlink="http://www.w3.org/1999/xlink">
    <!-- Generator: Sketch 58 (84663) - https://sketch.com -->
    <title>pic_20-years_mask</title>
    <desc>Created with Sketch.</desc>
    <g id="Page-1" stroke="none" stroke-width="1" fill="none" fill-rule="evenodd">
        <g id="pic_20-years_img">
            <path d="M390,0 L390,530 L0,530 L0,0 L390,0 Z M290.1,2 C230.4,2 192.6,51.7087912 192.6,111 L192.6,111 L192.6,111.598901 C192.6,170.89011 229.8,220 289.5,220 C349.5,220 387,170.291209 387,111 L387,111 L387,110.401099 C387,51.1098901 349.8,2 290.1,2 Z M89.7,2.5989011 C49.2,2.5989011 26.7,18.4697802 4.2,47.5164835 L4.2,47.5164835 L43.5,80.1565934 C60,61.2912088 71.1,52.9065934 85.2,52.9065934 C99.6,52.9065934 108.9,60.9917582 108.9,74.467033 C108.9,87.043956 101.1,96.9258242 81.6,112.197802 L81.6,112.197802 L3,172.087912 L3,215.807692 L169.2,215.807692 L169.2,168.494505 L82.5,168.494505 L118.5,143.340659 C149.7,120.881868 167.1,103.513736 167.1,69.9752747 L167.1,69.9752747 L167.1,69.3763736 C167.1,29.8489011 135.6,2.5989011 89.7,2.5989011 Z M289.5,53.206044 C312.9,53.206044 328.5,77.4615385 328.5,111 L328.5,111 L328.5,111.598901 C328.5,144.837912 313.5,168.494505 290.1,168.494505 C266.7,168.494505 251.1,144.538462 251.1,111 L251.1,111 L251.1,110.401099 C251.1,76.8626374 266.4,53.206044 289.5,53.206044 Z" id="Combined-Shape" fill="#1D1F26"></path>
            <rect id="Rectangle" stroke="#1D1F26" stroke-width="2" x="1" y="1" width="388" height="528"></rect>
        </g>
    </g>
</svg>