<?xml version="1.0" encoding="UTF-8"?>
<svg width="48px" height="48px" viewBox="0 0 48 48" version="1.1" xmlns="http://www.w3.org/2000/svg" xmlns:xlink="http://www.w3.org/1999/xlink">
    <!-- Generator: Sketch 42 (36781) - http://www.bohemiancoding.com/sketch -->
    <defs></defs>
    <g id="Statistics-icons" stroke="none" stroke-width="1" fill="none" fill-rule="evenodd">
        <g id="Pin-2" transform="translate(2.000000, 0.000000)" fill-rule="nonzero" fill="#92a1ae">
            <path d="M30.7871949,36.7886885 C27.7607701,40.6292497 23.9465443,44 22.4460432,44 C20.9455421,44 17.1313162,40.6292497 14.1048914,36.7886885 C9.99757122,31.5764609 7.48201439,25.8428817 7.48201439,20 C7.48201439,11.163444 14.1816383,4 22.4460432,4 C30.7104481,4 37.4100719,11.163444 37.4100719,20 C37.4100719,25.8428817 34.8945151,31.5764609 30.7871949,36.7886885 Z M21.1823904,38.7083977 C21.7373324,39.1988172 22.4460432,39.7487515 22.4460432,39.7487515 C22.4460432,39.7487515 23.234229,39.1285826 23.709696,38.7083977 C25.0894519,37.4890643 26.5721853,35.9297128 27.9263136,34.2113115 C31.5166848,29.6550971 33.6690647,24.7492882 33.6690647,20 C33.6690647,13.372583 28.6443468,8 22.4460432,8 C16.2477395,8 11.2230216,13.372583 11.2230216,20 C11.2230216,24.7492882 13.3754016,29.6550971 16.9657728,34.2113115 C18.319901,35.9297128 19.8026344,37.4890643 21.1823904,38.7083977 Z M16.8345324,20 C16.8345324,16.6862915 19.3468913,14 22.4460432,14 C25.545195,14 28.057554,16.6862915 28.057554,20 C28.057554,23.3137085 25.545195,26 22.4460432,26 C19.3468913,26 16.8345324,23.3137085 16.8345324,20 Z M24.3165468,20 C24.3165468,18.8954305 23.4790938,18 22.4460432,18 C21.4129926,18 20.5755396,18.8954305 20.5755396,20 C20.5755396,21.1045695 21.4129926,22 22.4460432,22 C23.4790938,22 24.3165468,21.1045695 24.3165468,20 Z" id="Combined-Shape"></path>
        </g>
    </g>
</svg>