<svg width="230" height="160" viewBox="0 0 230 160" xmlns="http://www.w3.org/2000/svg"><g fill="none" fill-rule="evenodd"><path d="M91.603 69.241h-8.239l-7.2 10.513 1.559-10.513h-6.905l-3.94 25.132h6.905l1.974-11.379 3.49 11.379h8.686L82.44 82.029l8.826-11.824 1.05 24.168h6.16l7.063-14.951-.35 14.95h7.078l12.43-25.13h-6.435l-7.326 14.8-.187-14.8h-5.8L97.585 84.35l.08-15.11h-6.062zm50.591 25.132h5.828l1.483-9.6 2.787-.09 1.944 9.69h7.246l-2.717-10.52c1.365-.264 1.934-.67 3.004-1.726 1.217-1.243 1.726-3.127 1.726-5.5 0-2.6-.922-4.22-1.77-5.125-1.845-2.034-3.867-2.26-6.228-2.26H144.76l-2.806 21.188-5.37-21.189h-7.741l-12.516 25.132h7.414c2.787-5.92 9.913-8.763 9.913-8.763l1.879 8.763h6.66zm-8.972-11.356l-1.403-6.692s-2.177 4.87-3.87 8.854c1.693-1.822 5.273-2.162 5.273-2.162zm49.463-8.569h-10.466l-.59 4.243h8.657l-.893 5.516h-8.355l-.664 4.34h10.613l-.893 5.826h-17.36l3.632-25.132h16.91l-.591 5.207zm4.394-5.207c1.304 0 2.282.98 2.282 2.285 0 1.306-.978 2.285-2.282 2.285s-2.282-.98-2.282-2.285c0-1.305.978-2.285 2.282-2.285zm0 .373c-1.091 0-1.91.82-1.91 1.912 0 1.093.819 1.912 1.91 1.912s1.91-.82 1.91-1.912-.819-1.912-1.91-1.912zm.472 3.158l-.812-1.053v1.053h-.359V70.28h.453c.2 0 .958.006.958.712 0 .38-.266.653-.646.693l.859 1.086h-.453zm-.812-1.372h.147c.22 0 .546-.034.546-.393 0-.393-.333-.407-.56-.407h-.133v.8zM150.25 79.73h1.1c.923 0 2.96.229 4.228-.595 1.608-1.045 1.559-3.514-.229-4.153-.83-.296-2.11-.294-3.402-.294h-.848l-.849 5.042zm-90.26-10.49c1.742 0 4.41.076 6.41 2.11 1.11 1.131 2 2.826 2 5.388 0 2.789-.926 5.2-2.408 6.594-1.112 1.055-3.223 1.914-7.335 1.914h-3.26l-1.378 9.126h-6.92l3.949-25.132h8.942zm-3.734 10.641h2.038c1.222 0 1.697.173 2.682-.784.853-.829.816-2.909.148-3.55-.896-.859-1.46-.941-2.312-.941h-1.704l-.852 5.275z" opacity=".301" fill="#D4E1ED"/></g></svg>