<svg xmlns="http://www.w3.org/2000/svg" width="92.003" height="16.185" viewBox="0 0 92.003 16.185"><g fill="#FFF"><path d="M29.266.542c-1.718 2.727-3.978 4.917-5.757 7.584.952 2.853 2.633 4.982 3.358 8.059h-5.518a49.868 49.868 0 0 1-2.398-7.109c-.878 1.976-.804 4.895-1.439 7.109h-4.558c.232-3.561 1.04-6.557 1.439-9.953-.955 3.244-3.946 4.476-8.637 4.028-.73 1.647-.751 3.998-1.199 5.925H-.001C.685 10.621 1.725 5.406 2.639.068c5.949-.11 12.422-.738 11.755 5.688.496-1.722.808-3.625.959-5.688h4.798c-.219 2.233-.704 4.203-.96 6.4 1.424-1.282 3.055-4.408 4.558-6.4h5.037l.12.355.36.119zM6.716 3.624c-.195.991-.468 1.907-.48 3.081 1.623.102 3.087.047 3.599-.948.139-.769-.164-1.103-.24-1.658-.586-.529-1.713-.521-2.879-.475zM28.905.423c.32-.125.641-.082.96 0"/><path d="M29.865.423l-.119-.355h4.077c.088 3.246-.063 6.259-.24 9.244 2.021-2.744 3.152-6.369 5.038-9.244h3.838c-.153 3.313.206 6.117.24 9.244 1.76-2.923 3.171-6.188 4.798-9.244h4.078c-2.503 5.587-5.553 10.631-8.156 16.117-1.549-.128-3.637.275-4.798-.236.444-2.723-.02-6.341.48-9.007-.956.831-1.799 2.615-2.64 4.267-.831 1.633-1.533 3.537-2.398 4.977h-3.838A310.58 310.58 0 0 1 29.504.543l.361-.12zM59.731.068c.858 4.683 2.252 8.836 3.119 13.51 1.236-4.069 1.629-8.977 2.398-13.51 7.715 0 15.191.07 12.474 6.874-.45 1.128-1.644 1.792-3.118 2.37.562 2.291 1.434 4.271 1.679 6.873h-4.558c-.512-2.022-1.042-4.026-1.439-6.162h-1.68c-1.084 1.457-.631 4.432-1.439 6.162h-8.396c-.238-1.896-.854-3.423-.959-5.451-2.893.316-5.434 2.995-6.957 5.451h-4.797C48.773 10.73 51.206 4.997 54.454.068h5.277zm9.116 6.637c2.398.079 4.829.189 4.318-2.606-.903-.609-2.199-.831-3.838-.712-.033 1.232-.448 2.085-.48 3.318zM54.214 9.786c.771-.501 1.813-.737 3.118-.71-.493-1.488-.442-3.514-1.199-4.742-.297 2.001-2.023 3.846-1.919 5.452zM91.636.068c-.027 1.316-.511 2.183-.479 3.556h-6.716c-.469.406-.518 1.228-.48 2.133 1.362.55 3.756.081 5.516.237.066 1.407-.26 2.428-.479 3.555h-5.517c-.684.511-.32 2.055-.719 2.844h7.196c-.169 1.334-.326 2.681-.72 3.793H77.723c.28-4.943 1.65-10.847 2.398-16.117L91.636.068z"/></g><path fill="none" d="M-971.146-43.919H311.188v82.982H-971.146z"/></svg>