<?xml version="1.0" encoding="UTF-8"?>
<svg width="230px" height="160px" viewBox="0 0 230 160" version="1.1" xmlns="http://www.w3.org/2000/svg" xmlns:xlink="http://www.w3.org/1999/xlink">
    <!-- Generator: Sketch 47.1 (45422) - http://www.bohemiancoding.com/sketch -->
    <defs></defs>
    <g id="---Logos" stroke="none" stroke-width="1" fill="none" fill-rule="evenodd" opacity="0.301">
        <g id="Group-2" fill="#D4E1ED">
            <path d="M138.960725,71.730324 C138.510554,73.8942758 137.649008,75.8849601 136.376061,77.7024366 C135.103114,79.519913 133.544398,80.9574606 131.699867,82.0151224 C129.855335,83.0727843 127.921225,83.6016073 125.897479,83.6016073 C124.713519,83.6016073 123.688322,83.4010193 122.821859,82.9998372 L122.670545,83.5286655 L122.062353,85.261034 L120.382359,89.5646022 L123.595373,90.0022532 L123.100987,91.1875579 L112.032389,91.1875579 L112.526774,90.0022532 L114.765458,89.5646022 L123.744494,67.6455813 L121.794946,67.1896949 L122.270364,66.0955674 L129.394742,66.0955674 L128.747329,68.6120606 C130.880437,66.6304642 132.924416,65.6396809 134.879328,65.6396809 C136.490065,65.6396809 137.670336,66.1867392 138.420177,67.2808722 C139.170018,68.3750051 139.350199,69.8581409 138.960725,71.730324 Z M133.362761,72.5326841 C133.628312,71.2561957 133.627644,70.2502163 133.360759,69.5147158 C133.093873,68.7792153 132.616263,68.4114706 131.927914,68.4114706 C130.991759,68.4114706 129.667171,69.2199011 127.954109,70.8367865 L123.832535,80.9209949 C124.102245,81.2127637 124.452518,81.431587 124.883363,81.5774714 C125.314209,81.7233558 125.701713,81.7962969 126.045887,81.7962969 C127.03711,81.7962969 128.038307,81.367768 129.049507,80.5106971 C130.060708,79.6536263 130.951444,78.4987255 131.721743,77.0459601 C132.492042,75.5931946 133.039043,74.0887844 133.362761,72.5326841 Z M165.177924,70.0161909 C165.423242,68.8369587 165.050295,68.2473514 164.059073,68.2473514 C163.577228,68.2473514 162.958768,68.4904885 162.203675,68.9767698 C161.448581,69.4630511 160.734513,70.0830505 160.06145,70.8367865 C159.388387,71.5905226 158.913479,72.3016983 158.636711,72.9703351 L154.456552,83.2368981 L148.942903,83.2368981 L153.207775,72.8609224 C153.804018,71.4507066 154.152716,70.5024722 154.253878,70.0161909 C154.499196,68.8369587 154.112483,68.2473514 153.093726,68.2473514 C152.432911,68.2473514 151.598532,68.6515667 150.590564,69.4600094 C149.582596,70.2684521 148.71069,71.2501178 147.974818,72.4050359 L143.532506,83.2368981 L138.039507,83.2368981 L144.316493,67.7549941 L142.573449,67.2991076 L143.092278,66.0955674 L149.8656,66.0955674 L149.166331,69.1591244 C150.405401,67.9677351 151.642545,67.0833242 152.8778,66.5058652 C154.113056,65.9284061 155.419013,65.6396809 156.795711,65.6396809 C158.020973,65.6396809 158.914819,65.9587982 159.477276,66.5970425 C160.039734,67.2352867 160.210242,68.1196976 159.988808,69.2503017 C162.430704,66.8432091 165.007662,65.6396809 167.719757,65.6396809 C168.931252,65.6396809 169.824746,65.9770335 170.400267,66.6517488 C170.975787,67.3264642 171.137093,68.2716593 170.884188,69.4873626 C170.790613,69.9371728 170.50668,70.739525 170.032382,71.8944431 L166.052424,81.5957069 L168.356821,82.0333579 L167.837992,83.2368981 L159.866949,83.2368981 L164.131821,72.8609224 C164.728064,71.4507066 165.076762,70.5024722 165.177924,70.0161909 Z M121.415036,65.3569138 C120.817407,68.2296895 119.673653,70.8724422 117.983739,73.2852511 C116.293826,75.69806 114.224537,77.6064906 111.775811,79.0106001 C109.327085,80.4147096 106.759438,81.1167538 104.072794,81.1167538 C102.501015,81.1167538 101.140005,80.8504612 99.9897237,80.3178679 L99.7888454,81.0199192 L98.9814335,83.3197422 L96.7511411,89.0329869 L101.01661,89.6139948 L100.360283,91.1875579 L85.666055,91.1875579 L86.3223816,89.6139948 L89.2943687,89.0329869 L101.214577,59.9341731 L98.6264355,59.3289565 L99.2575813,57.8764367 L108.71562,57.8764367 L107.85614,61.2172323 C110.687969,58.5865443 113.401474,57.2712201 115.996736,57.2712201 C118.135086,57.2712201 119.701967,57.9974727 120.697426,59.4499998 C121.692885,60.9025269 121.932086,62.8714785 121.415036,65.3569138 Z M113.983403,66.422095 C114.335937,64.72748 114.335051,63.3919821 113.980745,62.4155611 C113.626438,61.4391401 112.992382,60.950937 112.078558,60.950937 C110.835756,60.950937 109.077285,62.024177 106.803093,64.1706892 L101.331457,77.5580803 C101.689513,77.9454208 102.154521,78.2359219 102.726494,78.4295922 C103.298467,78.6232624 103.812902,78.7200961 104.269814,78.7200961 C105.585722,78.7200961 106.91487,78.1511982 108.2573,77.0133853 C109.599729,75.8755725 110.782235,74.3423724 111.804853,72.4137392 C112.827471,70.485106 113.553647,68.4879113 113.983403,66.422095 Z M126.049932,63.5917364 L126.049932,63.5917364 C124.854087,61.247639 123.294028,59.0180768 121.369581,56.9872294 C111.172312,46.2261697 94.6054883,45.119484 84.366544,54.5153778 C74.1275997,63.9112715 74.0938148,80.2517109 84.2910834,91.0127706 C94.488352,101.77383 111.055176,102.880516 121.29412,93.4846222 C123.581752,91.385349 125.359957,88.9394142 126.628447,86.2864954 C130.288629,86.3164028 132.941516,85.1357419 134.659993,83.9750392 C134.61598,90.4619058 132.408337,96.3225219 127.901988,100.457829 C117.07252,110.395624 97.0685385,106.606225 83.2218454,91.99397 C69.3751524,77.3817148 66.9292083,57.4799667 77.7586764,47.5421715 C88.5881446,37.6043762 108.592126,41.3937748 122.438819,56.00603 C124.722957,58.4164545 126.696863,60.9708142 128.352123,63.6006394 C127.571582,63.5975589 126.72953,63.5942788 126.049932,63.5917364 Z" id="Combined-Shape"></path>
        </g>
    </g>
</svg>