<?xml version="1.0" encoding="UTF-8"?>
<svg width="256px" height="256px" viewBox="0 0 256 256" version="1.1" xmlns="http://www.w3.org/2000/svg" xmlns:xlink="http://www.w3.org/1999/xlink">
    <!-- Generator: Sketch 42 (36781) - http://www.bohemiancoding.com/sketch -->
    <defs></defs>
    <g id="Standard" stroke="none" stroke-width="1" fill="none" fill-rule="evenodd">
        <g id="Group" fill="#FFFFFF">
            <path d="M157.795228,124.65255 C157.048074,128.286536 155.618155,131.629549 153.50543,134.681688 C151.392705,137.733828 148.805685,140.147942 145.744294,141.924104 C142.682904,143.700265 139.472838,144.588333 136.114002,144.588333 C134.148969,144.588333 132.447438,144.25148 131.009359,143.577763 L130.758221,144.46584 L129.748797,147.375055 L126.960491,154.602159 L132.293169,155.337119 L131.472631,157.327635 L113.101946,157.327635 L113.922484,155.337119 L117.638054,154.602159 L132.540667,117.792926 L129.30498,117.027343 L130.094036,115.189944 L141.918451,115.189944 L140.843932,119.415962 C144.384277,116.088212 147.776694,114.424361 151.021284,114.424361 C153.694643,114.424361 155.653554,115.343052 156.898074,117.18046 C158.142594,119.017868 158.441643,121.50854 157.795228,124.65255 Z M148.50422,125.999977 C148.944958,123.856333 148.94385,122.166964 148.500897,120.931817 C148.057944,119.69667 147.265249,119.079106 146.122788,119.079106 C144.56904,119.079106 142.370605,120.436726 139.527415,123.152008 L132.68679,140.086705 C133.134431,140.57668 133.715783,140.944156 134.430862,141.189144 C135.145941,141.434132 135.789086,141.556624 136.360317,141.556624 C138.005461,141.556624 139.667159,140.836983 141.345461,139.39768 C143.023763,137.958377 144.502128,136.018919 145.780603,133.579249 C147.059077,131.139579 147.966941,128.61318 148.50422,125.999977 Z M201.308226,121.773958 C201.715384,119.79364 201.096399,118.803496 199.451255,118.803496 C198.651532,118.803496 197.625067,119.211803 196.371829,120.028429 C195.118591,120.845055 193.933444,121.886237 192.816354,123.152008 C191.699263,124.417778 190.911052,125.612076 190.451698,126.734936 L183.513836,143.975866 L174.362767,143.975866 L181.441227,126.551196 C182.430819,124.182981 183.009557,122.590584 183.177457,121.773958 C183.584614,119.79364 182.942781,118.803496 181.251938,118.803496 C180.155175,118.803496 178.770347,119.482306 177.09741,120.839947 C175.424474,122.197588 173.97736,123.846127 172.756026,125.785613 L165.383067,143.975866 L156.266271,143.975866 L166.684259,117.976666 L163.791308,117.211083 L164.652416,115.189944 L175.894179,115.189944 L174.733594,120.334662 C176.790093,118.333928 178.843396,116.848712 180.893564,115.878969 C182.943732,114.909225 185.111245,114.424361 187.396168,114.424361 C189.429749,114.424361 190.913276,114.960264 191.846793,116.032085 C192.78031,117.103907 193.063306,118.589123 192.695788,120.487779 C196.748633,116.44548 201.02564,114.424361 205.526937,114.424361 C207.537669,114.424361 209.020612,114.990887 209.975811,116.123955 C210.93101,117.257024 211.19873,118.844317 210.77898,120.885882 C210.623673,121.641261 210.152427,122.988674 209.365228,124.92816 L202.759644,141.219767 L206.58428,141.954727 L205.723172,143.975866 L192.493537,143.975866 L199.571996,126.551196 C200.561589,124.182981 201.140327,122.590584 201.308226,121.773958 Z M128.674438,113.949502 C127.682545,118.773836 125.784243,123.211885 122.979473,127.263784 C120.174704,131.315682 116.740281,134.520563 112.676101,136.878524 C108.611921,139.236485 104.350367,140.415448 99.8913109,140.415448 C97.2826113,140.415448 95.0237273,139.968255 93.114591,139.073856 L92.7811909,140.252831 L91.4411196,144.114989 L87.7394767,153.709402 L94.8189257,154.685105 L93.7296125,157.327635 L69.3414268,157.327635 L70.43074,154.685105 L75.3633824,153.709402 L95.1474946,104.84294 L90.8519253,103.826583 L91.8994455,101.387325 L107.597065,101.387325 L106.170576,106.997618 C110.870596,102.579829 115.374233,100.370968 119.681621,100.370968 C123.230665,100.370968 125.831236,101.590584 127.483412,104.029854 C129.135587,106.469124 129.532592,109.77564 128.674438,113.949502 Z M116.340068,115.738291 C116.925173,112.892476 116.923702,110.649737 116.335656,109.010005 C115.74761,107.370274 114.695259,106.550421 113.178573,106.550421 C111.115881,106.550421 108.197326,108.352743 104.422821,111.957442 L95.3414812,134.439267 C95.9357521,135.089739 96.7075311,135.577585 97.6568415,135.902821 C98.6061518,136.228057 99.4599656,136.390673 100.218309,136.390673 C102.402336,136.390673 104.60834,135.435306 106.836386,133.524545 C109.064432,131.613784 111.027051,129.039037 112.724303,125.800229 C114.421554,122.561421 115.626797,119.207475 116.340068,115.738291 Z M136.36703,110.98519 L136.36703,110.98519 C134.382273,107.048681 131.793024,103.304514 128.598995,99.8940542 C111.674467,81.8227018 84.1783111,79.9642132 67.1846129,95.7430037 C50.1909146,111.521794 50.1348415,138.962757 67.0593701,157.034109 C83.9838987,175.105462 111.480054,176.96395 128.473753,161.18516 C132.270562,157.659791 135.22187,153.552263 137.327199,149.097141 C143.402046,149.147366 147.805075,147.164649 150.657251,145.215448 C150.584202,156.109026 146.92015,165.950925 139.440909,172.895463 C121.467112,189.584284 88.266265,183.220639 65.284743,158.681865 C42.3032209,134.143091 38.2436583,100.721522 56.2174561,84.0327009 C74.1912538,67.3438799 107.3921,73.7075241 130.373622,98.2462982 C134.164634,102.294192 137.44075,106.583801 140.188005,111.000141 C138.892532,110.994968 137.494967,110.989459 136.36703,110.98519 Z" id="Combined-Shape"></path>
        </g>
    </g>
</svg>