<?xml version="1.0" encoding="UTF-8"?>
<svg width="230px" height="160px" viewBox="0 0 230 160" version="1.1" xmlns="http://www.w3.org/2000/svg" xmlns:xlink="http://www.w3.org/1999/xlink">
    <!-- Generator: Sketch 48.2 (47327) - http://www.bohemiancoding.com/sketch -->
    <defs></defs>
    <g id="---Logos" stroke="none" stroke-width="1" fill="none" fill-rule="evenodd" opacity="0.301">
        <g id="Group-2" fill="#D4E1ED">
            <path d="M55,83.7744966 L55,70 L60.332914,70 C61.271563,70 61.9883972,70.0438474 62.4834382,70.1315436 C63.1777812,70.2442959 63.7596063,70.4588351 64.2289308,70.7751678 C64.6982553,71.0915005 65.0759594,71.5346728 65.3620545,72.104698 C65.6481496,72.6747232 65.791195,73.3011152 65.791195,73.9838926 C65.791195,75.1552631 65.4086691,76.1465284 64.6436059,76.9577181 C63.8785426,77.7689079 62.4963063,78.1744966 60.4968553,78.1744966 L56.8708595,78.1744966 L56.8708595,83.7744966 L55,83.7744966 Z M56.8708595,76.5489933 L60.5257862,76.5489933 C61.7344575,76.5489933 62.5927298,76.3297561 63.1006289,75.8912752 C63.608528,75.4527942 63.8624738,74.8357982 63.8624738,74.0402685 C63.8624738,73.4639792 63.7129994,72.9706956 63.4140461,72.5604027 C63.1150928,72.1501098 62.7213162,71.8791953 62.2327044,71.747651 C61.9176784,71.6662188 61.3358533,71.6255034 60.4872117,71.6255034 L56.8708595,71.6255034 L56.8708595,76.5489933 Z M67.9320755,83.7744966 L67.9320755,73.7959732 L69.4943396,73.7959732 L69.4943396,75.3087248 C69.892944,74.6008913 70.2610046,74.1342293 70.5985325,73.9087248 C70.9360604,73.6832203 71.3073355,73.5704698 71.712369,73.5704698 C72.2974173,73.5704698 72.8921004,73.7521235 73.4964361,74.1154362 L72.8985325,75.6845638 C72.4742117,75.4402672 72.0498973,75.3181208 71.6255765,75.3181208 C71.2462595,75.3181208 70.9055221,75.4293054 70.6033543,75.6516779 C70.3011865,75.8740503 70.0858148,76.1825484 69.9572327,76.5771812 C69.7643596,77.1785265 69.6679245,77.836238 69.6679245,78.5503356 L69.6679245,83.7744966 L67.9320755,83.7744966 Z M81.2113208,82.5436242 C80.5684105,83.0760653 79.9496186,83.4519005 79.3549266,83.6711409 C78.7602346,83.8903814 78.1221557,84 77.4406709,84 C76.3155779,84 75.4508765,83.7322174 74.8465409,83.1966443 C74.2422052,82.6610711 73.9400419,81.9767379 73.9400419,81.1436242 C73.9400419,80.6550311 74.0541568,80.2087269 74.2823899,79.804698 C74.5106231,79.4006691 74.8095719,79.0765113 75.1792453,78.8322148 C75.5489187,78.5879182 75.9651968,78.4031326 76.4280922,78.2778523 C76.7688347,78.1901562 77.2831552,78.1055932 77.9710692,78.0241611 C79.3726136,77.8612967 80.4044691,77.6671152 81.0666667,77.4416107 C81.0730958,77.2098422 81.0763103,77.0626401 81.0763103,77 C81.0763103,76.3109585 80.9123706,75.8255048 80.5844864,75.5436242 C80.1408783,75.1615193 79.4819051,74.9704698 78.6075472,74.9704698 C77.7910511,74.9704698 77.1883318,75.109842 76.7993711,75.3885906 C76.4104104,75.6673392 76.1227123,76.1606229 75.9362683,76.8684564 L74.2389937,76.642953 C74.3932922,75.9351195 74.6472379,75.3635369 75.0008386,74.9281879 C75.3544392,74.492839 75.8655452,74.1577193 76.5341719,73.9228188 C77.2027986,73.6879183 77.9774938,73.5704698 78.8582809,73.5704698 C79.7326389,73.5704698 80.4430441,73.6706925 80.9895178,73.8711409 C81.5359916,74.0715894 81.9378044,74.3237121 82.1949686,74.6275168 C82.4521327,74.9313214 82.6321448,75.3149865 82.7350105,75.7785235 C82.7928724,76.0666681 82.8218029,76.5865734 82.8218029,77.338255 L82.8218029,79.5932886 C82.8218029,81.165556 82.8587697,82.1599532 82.9327044,82.5765101 C83.0066391,82.993067 83.152899,83.3923918 83.3714885,83.7744966 L81.5584906,83.7744966 C81.3784757,83.4237119 81.2627536,83.0134252 81.2113208,82.5436242 Z M81.0666667,78.766443 C80.4366146,79.0170035 79.4915507,79.2299768 78.2314465,79.4053691 C77.5178161,79.5055933 77.0131391,79.6183439 76.7174004,79.7436242 C76.4216617,79.8689044 76.193432,80.0521241 76.0327044,80.2932886 C75.8719768,80.5344531 75.7916143,80.8022357 75.7916143,81.0966443 C75.7916143,81.5476533 75.9668047,81.9234884 76.3171908,82.2241611 C76.6675769,82.5248337 77.1802901,82.6751678 77.8553459,82.6751678 C78.5239726,82.6751678 79.1186557,82.5326636 79.639413,82.247651 C80.1601703,81.9626384 80.5426962,81.5727094 80.7870021,81.0778523 C80.9734461,80.6957475 81.0666667,80.1319948 81.0666667,79.3865772 L81.0666667,78.766443 Z M92.1953878,80.1194631 L93.9023061,80.3355705 C93.7158621,81.4818849 93.2385084,82.3791914 92.4702306,83.0275168 C91.7019528,83.6758422 90.7584962,84 89.6398323,84 C88.2382879,84 87.1116045,83.5536957 86.2597484,82.6610738 C85.4078923,81.7684519 84.9819706,80.4890464 84.9819706,78.8228188 C84.9819706,77.7454085 85.1651973,76.8026886 85.5316562,75.9946309 C85.898115,75.1865731 86.4558313,74.5805389 87.2048218,74.1765101 C87.9538123,73.7724812 88.7686888,73.5704698 89.6494759,73.5704698 C90.7617107,73.5704698 91.6714151,73.8445163 92.3786164,74.3926174 C93.0858177,74.9407186 93.5390626,75.7190106 93.7383648,76.7275168 L92.0507338,76.9812081 C91.8900062,76.3109586 91.6055227,75.8067131 91.1972746,75.4684564 C90.7890266,75.1301997 90.2956004,74.9610738 89.7169811,74.9610738 C88.8426232,74.9610738 88.132218,75.2664399 87.5857442,75.8771812 C87.0392705,76.4879225 86.7660377,77.4541321 86.7660377,78.7758389 C86.7660377,80.1163378 87.029627,81.0903773 87.5568134,81.6979866 C88.0839998,82.3055959 88.7719035,82.609396 89.6205451,82.609396 C90.30203,82.609396 90.870997,82.4058186 91.3274633,81.9986577 C91.7839296,81.5914968 92.0732349,80.9651049 92.1953878,80.1194631 Z M99.1773585,82.261745 L99.4280922,83.7557047 C98.9394804,83.8559289 98.502308,83.9060403 98.1165618,83.9060403 C97.4865098,83.9060403 96.9979053,83.8089495 96.6507338,83.6147651 C96.3035622,83.4205807 96.05926,83.165326 95.9178197,82.8489933 C95.7763794,82.5326606 95.7056604,81.8671192 95.7056604,80.852349 L95.7056604,75.1114094 L94.4327044,75.1114094 L94.4327044,73.7959732 L95.7056604,73.7959732 L95.7056604,71.3248322 L97.4318658,70.3100671 L97.4318658,73.7959732 L99.1773585,73.7959732 L99.1773585,75.1114094 L97.4318658,75.1114094 L97.4318658,80.9463087 C97.4318658,81.4286378 97.4624036,81.7387018 97.5234801,81.8765101 C97.5845566,82.0143184 97.6842062,82.123937 97.8224319,82.2053691 C97.9606576,82.2868013 98.1583495,82.3275168 98.4155136,82.3275168 C98.6083867,82.3275168 98.8623325,82.3055931 99.1773585,82.261745 Z M100.884277,71.9449664 L100.884277,70 L102.620126,70 L102.620126,71.9449664 L100.884277,71.9449664 Z M100.884277,83.7744966 L100.884277,73.7959732 L102.620126,73.7959732 L102.620126,83.7744966 L100.884277,83.7744966 Z M111.945493,80.1194631 L113.652411,80.3355705 C113.465967,81.4818849 112.988613,82.3791914 112.220335,83.0275168 C111.452058,83.6758422 110.508601,84 109.389937,84 C107.988393,84 106.861709,83.5536957 106.009853,82.6610738 C105.157997,81.7684519 104.732075,80.4890464 104.732075,78.8228188 C104.732075,77.7454085 104.915302,76.8026886 105.281761,75.9946309 C105.64822,75.1865731 106.205936,74.5805389 106.954927,74.1765101 C107.703917,73.7724812 108.518794,73.5704698 109.399581,73.5704698 C110.511815,73.5704698 111.42152,73.8445163 112.128721,74.3926174 C112.835922,74.9407186 113.289167,75.7190106 113.48847,76.7275168 L111.800839,76.9812081 C111.640111,76.3109586 111.355627,75.8067131 110.947379,75.4684564 C110.539131,75.1301997 110.045705,74.9610738 109.467086,74.9610738 C108.592728,74.9610738 107.882323,75.2664399 107.335849,75.8771812 C106.789375,76.4879225 106.516143,77.4541321 106.516143,78.7758389 C106.516143,80.1163378 106.779732,81.0903773 107.306918,81.6979866 C107.834105,82.3055959 108.522008,82.609396 109.37065,82.609396 C110.052135,82.609396 110.621102,82.4058186 111.077568,81.9986577 C111.534034,81.5914968 111.82334,80.9651049 111.945493,80.1194631 Z M122.148428,80.5610738 L123.942138,80.7771812 C123.659258,81.7982154 123.135294,82.5906012 122.370231,83.1543624 C121.605167,83.7181236 120.627958,84 119.438574,84 C117.940593,84 116.752835,83.5505638 115.875262,82.6516779 C114.99769,81.7527919 114.55891,80.4921781 114.55891,78.8697987 C114.55891,77.1910431 115.002511,75.8881478 115.889727,74.9610738 C116.776944,74.0339998 117.927736,73.5704698 119.342138,73.5704698 C120.711537,73.5704698 121.830184,74.024604 122.698113,74.9328859 C123.566042,75.8411679 124,77.1190074 124,78.766443 C124,78.8666672 123.996785,79.0170012 123.990356,79.2174497 L116.352621,79.2174497 C116.416912,80.313652 116.735147,81.1530172 117.307338,81.7355705 C117.879528,82.3181237 118.593147,82.609396 119.448218,82.609396 C120.084699,82.609396 120.62795,82.4465341 121.077987,82.1208054 C121.528025,81.7950767 121.884834,81.2751714 122.148428,80.5610738 Z M116.449057,77.8268456 L122.167715,77.8268456 C122.090566,76.9874678 121.871979,76.3579439 121.51195,75.938255 C120.959047,75.2867976 120.242213,74.9610738 119.361426,74.9610738 C118.564217,74.9610738 117.893993,75.2210265 117.350734,75.7409396 C116.807475,76.2608527 116.506919,76.9561478 116.449057,77.8268456 Z" id="Practice"></path>
            <path d="M41.7352941,84 C36.9109244,84 33,80.1399685 33,75.3783784 C33,70.6167882 36.9109244,66.7567568 41.7352941,66.7567568 C46.5596638,66.7567568 50.4705882,70.6167882 50.4705882,75.3783784 C50.4705882,80.1399685 46.5596638,84 41.7352941,84 Z M50.0735294,66.7567568 C47.6613445,66.7567568 45.7058824,64.826741 45.7058824,62.4459459 C45.7058824,60.0651509 47.6613445,58.1351351 50.0735294,58.1351351 C52.4857143,58.1351351 54.4411765,60.0651509 54.4411765,62.4459459 C54.4411765,64.826741 52.4857143,66.7567568 50.0735294,66.7567568 Z M57.6176471,59.7027027 C56.3019099,59.7027027 55.2352941,58.6499668 55.2352941,57.3513514 C55.2352941,56.0527359 56.3019099,55 57.6176471,55 C58.9333843,55 60,56.0527359 60,57.3513514 C60,58.6499668 58.9333843,59.7027027 57.6176471,59.7027027 Z" id="Combined-Shape"></path>
            <path d="M135.147122,81.5006711 L130.160537,81.5006711 L129.474398,83.7744966 L125,83.7744966 L130.324823,70 L135.098803,70 L140.423626,83.7744966 L135.842925,83.7744966 L135.147122,81.5006711 Z M134.229049,78.5221477 L132.663493,73.5704698 L131.107601,78.5221477 L134.229049,78.5221477 Z M152.368239,70 L152.368239,83.7744966 L148.686283,83.7744966 L148.686283,82.2993289 C148.170871,82.9257302 147.700565,83.3485448 147.27535,83.5677852 C146.708397,83.8559299 146.077026,84 145.38122,84 C143.983165,84 142.915312,83.4832266 142.177629,82.4496644 C141.439945,81.4161022 141.071109,80.1601864 141.071109,78.6818792 C141.071109,77.0281797 141.478601,75.7628679 142.293596,74.885906 C143.108591,74.0089442 144.144231,73.5704698 145.400548,73.5704698 C146.0126,73.5704698 146.56827,73.6706925 147.067575,73.8711409 C147.566881,74.0715894 148.009806,74.3722575 148.396365,74.7731544 L148.396365,70 L152.368239,70 Z M148.425357,78.757047 C148.425357,77.9740453 148.254629,77.3899348 147.913169,77.004698 C147.571708,76.6194612 147.140057,76.4268456 146.618203,76.4268456 C146.160775,76.4268456 145.777443,76.6116313 145.468196,76.9812081 C145.158948,77.3507848 145.004327,77.9709129 145.004327,78.8416107 C145.004327,79.6559325 145.16378,80.2525708 145.482691,80.6315436 C145.801603,81.0105164 146.196209,81.2 146.666522,81.2 C147.169049,81.2 147.587815,81.0089505 147.922833,80.6268456 C148.257851,80.2447408 148.425357,79.6214808 148.425357,78.757047 Z M154.793884,73.7959732 L158.466176,73.7959732 L158.466176,75.252349 C158.994474,74.6447397 159.527595,74.2125292 160.065556,73.9557047 C160.603517,73.6988801 161.252604,73.5704698 162.012837,73.5704698 C162.831054,73.5704698 163.47853,73.711408 163.955286,73.9932886 C164.432042,74.2751692 164.821817,74.6948518 165.124621,75.252349 C165.743116,74.6008916 166.306839,74.1577193 166.815808,73.9228188 C167.324778,73.6879183 167.952927,73.5704698 168.700274,73.5704698 C169.801967,73.5704698 170.662048,73.8883637 171.280542,74.5241611 C171.899037,75.1599584 172.208279,76.1543557 172.208279,77.5073826 L172.208279,83.7744966 L168.265397,83.7744966 L168.265397,78.0899329 C168.265397,77.6389239 168.175202,77.3038042 167.994807,77.0845638 C167.730659,76.740043 167.402089,76.5677852 167.009087,76.5677852 C166.545216,76.5677852 166.171548,76.7306471 165.888072,77.0563758 C165.604595,77.3821045 165.462859,77.9051418 165.462859,78.6255034 L165.462859,83.7744966 L161.519977,83.7744966 L161.519977,78.2778523 C161.519977,77.8393714 161.494207,77.5418352 161.442666,77.3852349 C161.358911,77.1346744 161.213954,76.932663 161.007789,76.7791946 C160.801624,76.6257263 160.560028,76.5489933 160.282994,76.5489933 C159.832009,76.5489933 159.461562,76.7149872 159.171643,77.0469799 C158.881724,77.3789726 158.736766,77.9239336 158.736766,78.6818792 L158.736766,83.7744966 L154.793884,83.7744966 L154.793884,73.7959732 Z M174.701572,70 L178.63479,70 L178.63479,72.6026846 L174.701572,72.6026846 L174.701572,70 Z M174.701572,73.7959732 L178.63479,73.7959732 L178.63479,83.7744966 L174.701572,83.7744966 L174.701572,73.7959732 Z M181.147411,73.7959732 L184.810039,73.7959732 L184.810039,75.4214765 C185.357664,74.7574911 185.911724,74.2829992 186.472234,73.9979866 C187.032745,73.712974 187.715655,73.5704698 188.520987,73.5704698 C189.609794,73.5704698 190.461822,73.8852318 191.077095,74.5147651 C191.692368,75.1442984 192,76.1167719 192,77.4322148 L192,83.7744966 L188.047454,83.7744966 L188.047454,78.2872483 C188.047454,77.660847 187.928267,77.2176747 187.689889,76.9577181 C187.451511,76.6977616 187.116498,76.5677852 186.684841,76.5677852 C186.208085,76.5677852 185.821531,76.743175 185.525169,77.0939597 C185.228808,77.4447445 185.080629,78.0742684 185.080629,78.9825503 L185.080629,83.7744966 L181.147411,83.7744966 L181.147411,73.7959732 Z" id="Admin"></path>
            <path d="M105.807018,88.2766839 C105.529238,88.2766839 105.277048,88.3455952 105.050439,88.4834197 C104.823829,88.6212442 104.630118,88.8013806 104.469298,89.0238342 C104.308479,89.2462878 104.182993,89.4989623 104.092836,89.7818653 C104.00268,90.0647683 103.957602,90.3512939 103.957602,90.6414508 C103.957602,91.0379985 104.042884,91.3547484 104.21345,91.5917098 C104.384016,91.8286713 104.656918,91.9471503 105.032164,91.9471503 C105.309943,91.9471503 105.563352,91.878239 105.792398,91.7404145 C106.021444,91.60259 106.216373,91.4224536 106.377193,91.2 C106.538012,90.9775464 106.663499,90.7248719 106.753655,90.4419689 C106.843811,90.1590659 106.888889,89.8725403 106.888889,89.5823834 C106.888889,89.1858357 106.802389,88.8690858 106.629386,88.6321244 C106.456383,88.3951629 106.182263,88.2766839 105.807018,88.2766839 Z M104.937135,92.7378238 C104.654482,92.7378238 104.394982,92.693092 104.158626,92.6036269 C103.92227,92.5141619 103.717593,92.3848022 103.544591,92.215544 C103.371588,92.0462859 103.237574,91.8359253 103.142544,91.584456 C103.047514,91.3329867 103,91.0452521 103,90.7212435 C103,90.3343677 103.063352,89.9474976 103.190058,89.5606218 C103.316765,89.1737459 103.503166,88.8267718 103.749269,88.5196891 C103.995372,88.2126064 104.298731,87.9635588 104.659357,87.7725389 C105.019982,87.5815189 105.434208,87.4860104 105.902047,87.4860104 C106.184699,87.4860104 106.445418,87.5307422 106.684211,87.6202073 C106.923003,87.7096723 107.127679,87.839032 107.298246,88.0082902 C107.468812,88.1775483 107.601608,88.3879089 107.696637,88.6393782 C107.791667,88.8908475 107.839181,89.1785821 107.839181,89.5025907 C107.839181,89.8894665 107.775829,90.2763366 107.649123,90.6632124 C107.522417,91.0500883 107.337233,91.3970624 107.093567,91.7041451 C106.849901,92.0112278 106.546542,92.2602754 106.18348,92.4512953 C105.820417,92.6423153 105.404973,92.7378238 104.937135,92.7378238 Z M111.983918,88.8352332 L111.442982,91.0911917 C111.418616,91.2024185 111.400341,91.3136437 111.388158,91.4248705 C111.375975,91.5360973 111.369883,91.6473224 111.369883,91.7585492 C111.369883,91.8987917 111.380848,92.0366142 111.402778,92.1720207 C111.424708,92.3074273 111.462475,92.4404139 111.516082,92.5709845 L110.726608,92.6870466 C110.697368,92.6338512 110.671784,92.5746117 110.649854,92.5093264 C110.627924,92.4440411 110.607213,92.3775478 110.587719,92.3098446 C110.465886,92.4065635 110.314816,92.4996541 110.134503,92.5891192 C109.95419,92.6785842 109.744641,92.7233161 109.505848,92.7233161 C109.291422,92.7233161 109.108675,92.6918829 108.957602,92.6290155 C108.806529,92.5661482 108.68348,92.4803114 108.58845,92.3715026 C108.493421,92.2626938 108.425195,92.1345431 108.383772,91.9870466 C108.342349,91.8395502 108.321637,91.6835932 108.321637,91.519171 C108.321637,91.3063893 108.350877,91.0766852 108.409357,90.8300518 L108.891813,88.8352332 L109.776316,88.8352332 L109.30117,90.8082902 C109.237816,91.0597595 109.20614,91.2652842 109.20614,91.4248705 C109.20614,91.5022456 109.21345,91.5747838 109.22807,91.642487 C109.24269,91.7101903 109.268275,91.7694298 109.304825,91.8202073 C109.341374,91.8709847 109.392544,91.9108807 109.458333,91.9398964 C109.524123,91.9689121 109.60575,91.9834197 109.703216,91.9834197 C109.864036,91.9834197 110.007797,91.9507775 110.134503,91.8854922 C110.261209,91.8202069 110.378167,91.7319522 110.48538,91.6207254 C110.5,91.4127796 110.534113,91.2000011 110.587719,90.9823834 L111.099415,88.8352332 L111.983918,88.8352332 Z M115.046784,89.611399 C114.949317,89.5775473 114.844542,89.55095 114.732456,89.5316062 C114.62037,89.5122624 114.488792,89.5025907 114.337719,89.5025907 C114.254873,89.5025907 114.167154,89.5086355 114.074561,89.5207254 C113.981968,89.5328153 113.903996,89.5485319 113.840643,89.5678756 L113.102339,92.6290155 L112.217836,92.6290155 L113.095029,89.0093264 C113.299709,88.9416232 113.521441,88.8823837 113.760234,88.8316062 C113.999027,88.7808288 114.257309,88.7554404 114.535088,88.7554404 C114.593568,88.7554404 114.659356,88.7590673 114.732456,88.7663212 C114.805556,88.7735752 114.877436,88.7820379 114.948099,88.7917098 C115.018763,88.8013817 115.084551,88.8134714 115.145468,88.8279793 C115.206384,88.8424871 115.258772,88.8594127 115.302632,88.8787565 L115.046784,89.611399 Z M117.97076,92.0124352 C118.20468,92.0124352 118.389863,91.9749572 118.526316,91.9 C118.662769,91.8250428 118.730994,91.7101908 118.730994,91.5554404 C118.730994,91.4297058 118.687135,91.3293613 118.599415,91.2544041 C118.511695,91.1794469 118.358188,91.0911922 118.138889,90.9896373 C118.021929,90.9364419 117.9135,90.8808293 117.813596,90.8227979 C117.713693,90.7647665 117.627193,90.6970643 117.554094,90.6196891 C117.480994,90.5423139 117.422515,90.4516413 117.378655,90.3476684 C117.334795,90.2436955 117.312865,90.1191717 117.312865,89.9740933 C117.312865,89.5968893 117.451753,89.297065 117.729532,89.0746114 C118.007311,88.8521578 118.409354,88.7409326 118.935673,88.7409326 C119.179338,88.7409326 119.397416,88.766321 119.589912,88.8170984 C119.782408,88.8678759 119.927387,88.9198616 120.024854,88.973057 L119.710526,89.6549223 C119.62768,89.6065628 119.508285,89.559413 119.352339,89.5134715 C119.196393,89.46753 119.033139,89.4445596 118.862573,89.4445596 C118.779727,89.4445596 118.6981,89.4518134 118.61769,89.4663212 C118.53728,89.4808291 118.4654,89.5050085 118.402047,89.5388601 C118.338694,89.5727117 118.286306,89.6198615 118.244883,89.6803109 C118.20346,89.7407602 118.182749,89.8145073 118.182749,89.9015544 C118.182749,90.0127812 118.227826,90.1034539 118.317982,90.1735751 C118.408139,90.2436964 118.538498,90.3174435 118.709064,90.3948187 C118.869884,90.4673579 119.006335,90.5374781 119.118421,90.6051813 C119.230507,90.6728846 119.323099,90.7490497 119.396199,90.8336788 C119.469299,90.9183078 119.522904,91.0126074 119.557018,91.1165803 C119.591131,91.2205532 119.608187,91.345077 119.608187,91.4901554 C119.608187,91.6690855 119.571638,91.8347143 119.498538,91.9870466 C119.425438,92.139379 119.319445,92.2699476 119.180556,92.3787565 C119.041666,92.4875653 118.869884,92.5734021 118.665205,92.6362694 C118.460525,92.6991368 118.22661,92.7305699 117.96345,92.7305699 C117.783137,92.7305699 117.621102,92.7184803 117.477339,92.6943005 C117.333576,92.6701208 117.20809,92.6423145 117.100877,92.6108808 C116.993664,92.5794472 116.903509,92.546805 116.830409,92.5129534 C116.75731,92.4791017 116.701267,92.4500865 116.662281,92.4259067 L116.976608,91.7367876 C117.010721,91.7561314 117.060672,91.7815197 117.126462,91.8129534 C117.192252,91.844387 117.267787,91.8746113 117.35307,91.9036269 C117.438353,91.9326426 117.533382,91.958031 117.638158,91.9797927 C117.742934,92.0015545 117.853801,92.0124352 117.97076,92.0124352 Z M121.640351,92.7305699 C121.187132,92.7305699 120.841132,92.5975834 120.602339,92.3316062 C120.363547,92.0656291 120.244152,91.7150281 120.244152,91.2797927 C120.244152,90.9993078 120.288011,90.7091552 120.375731,90.4093264 C120.463451,90.1094976 120.597465,89.8362707 120.777778,89.5896373 C120.958091,89.3430039 121.184696,89.1398972 121.457602,88.9803109 C121.730508,88.8207246 122.052142,88.7409326 122.422515,88.7409326 C122.875733,88.7409326 123.221734,88.8727103 123.460526,89.1362694 C123.699319,89.3998286 123.818713,89.7492206 123.818713,90.184456 C123.818713,90.4697769 123.776073,90.7623474 123.690789,91.0621762 C123.605506,91.362005 123.473929,91.6352319 123.296053,91.8818653 C123.118176,92.1284986 122.891571,92.3316054 122.616228,92.4911917 C122.340886,92.650778 122.015596,92.7305699 121.640351,92.7305699 Z M122.312865,89.480829 C122.122806,89.480829 121.953461,89.5352326 121.804825,89.6440415 C121.656188,89.7528503 121.531921,89.8918817 121.432018,90.0611399 C121.332115,90.2303981 121.255361,90.4153703 121.201754,90.6160622 C121.148148,90.816754 121.121345,91.011398 121.121345,91.2 C121.121345,91.4417974 121.167641,91.6328145 121.260234,91.773057 C121.352827,91.9132995 121.516081,91.9834197 121.75,91.9834197 C121.940059,91.9834197 122.109405,91.9290161 122.258041,91.8202073 C122.406677,91.7113984 122.530945,91.573576 122.630848,91.4067358 C122.730751,91.2398955 122.807505,91.0549233 122.861111,90.8518135 C122.914718,90.6487036 122.94152,90.4552686 122.94152,90.2715026 C122.94152,90.0297052 122.895225,89.8374791 122.802632,89.6948187 C122.710039,89.5521582 122.546785,89.480829 122.312865,89.480829 Z M126.004386,88.8352332 L127.283626,88.8352332 L127.108187,89.5606218 L125.828947,89.5606218 L125.280702,91.8310881 C125.217349,92.0922293 125.157651,92.3243513 125.101608,92.5274611 C125.045565,92.730571 124.980995,92.9167522 124.907895,93.0860104 C124.834795,93.2552685 124.748295,93.4136435 124.648392,93.5611399 C124.548489,93.7086363 124.423003,93.8549216 124.27193,94 L123.504386,93.8839378 C123.596979,93.7678751 123.683479,93.6506051 123.763889,93.5321244 C123.844299,93.4136436 123.917397,93.2879109 123.983187,93.1549223 C124.048977,93.0219337 124.109893,92.8768574 124.165936,92.7196891 C124.221979,92.5625208 124.27193,92.3872203 124.315789,92.1937824 L125.185673,88.5668394 C125.244152,88.320206 125.323343,88.0989647 125.423246,87.9031088 C125.523149,87.7072529 125.647416,87.5428331 125.796053,87.4098446 C125.944689,87.276856 126.122562,87.1753026 126.329678,87.1051813 C126.536794,87.0350601 126.776802,87 127.049708,87 C127.24464,87 127.421296,87.0205525 127.579678,87.061658 C127.738061,87.1027636 127.858674,87.1426596 127.94152,87.1813472 L127.619883,87.8704663 C127.55653,87.8414506 127.472466,87.8136443 127.36769,87.7870466 C127.262914,87.7604489 127.139864,87.7471503 126.998538,87.7471503 C126.852338,87.7471503 126.728071,87.7677027 126.625731,87.8088083 C126.523391,87.8499138 126.435673,87.9067354 126.362573,87.9792746 C126.289473,88.0518138 126.229776,88.1400686 126.18348,88.2440415 C126.137183,88.3480143 126.099415,88.4604484 126.070175,88.5813472 L126.004386,88.8352332 Z M128.080409,87.8341969 L129.001462,87.6891192 L128.723684,88.8352332 L129.973684,88.8352332 L129.798246,89.5606218 L128.548246,89.5606218 L128.182749,91.0621762 C128.158382,91.168567 128.141326,91.2568218 128.131579,91.326943 C128.121832,91.3970643 128.116959,91.4611396 128.116959,91.519171 C128.116959,91.5772024 128.123051,91.6340239 128.135234,91.6896373 C128.147417,91.7452507 128.171783,91.7936095 128.208333,91.834715 C128.244883,91.8758206 128.298489,91.9096717 128.369152,91.9362694 C128.439815,91.9628671 128.536062,91.9761658 128.657895,91.9761658 C128.789474,91.9761658 128.916179,91.9592402 129.038012,91.9253886 C129.159845,91.891537 129.267056,91.8552679 129.359649,91.8165803 L129.425439,92.5202073 C129.313352,92.5685667 129.172028,92.6145076 129.001462,92.6580311 C128.830896,92.7015546 128.631093,92.7233161 128.402047,92.7233161 C127.982941,92.7233161 127.683237,92.6326434 127.502924,92.4512953 C127.322611,92.2699473 127.232456,92.0221087 127.232456,91.707772 C127.232456,91.5917093 127.240984,91.4720213 127.258041,91.3487047 C127.275098,91.225388 127.300682,91.0936104 127.334795,90.9533679 L128.080409,87.8341969 Z M132.98538,90.2279793 C132.892787,90.435925 132.788012,90.6499125 132.671053,90.8699482 C132.554093,91.0899838 132.432262,91.3051803 132.305556,91.515544 C132.178849,91.7259078 132.052145,91.9265966 131.925439,92.1176166 C131.798732,92.3086365 131.681774,92.4791012 131.574561,92.6290155 L130.843567,92.6290155 C130.799707,92.4065619 130.757066,92.1526785 130.715643,91.8673575 C130.67422,91.5820366 130.636452,91.2773764 130.602339,90.9533679 C130.568226,90.6293593 130.537768,90.2884301 130.510965,89.9305699 C130.484162,89.5727098 130.465887,89.2076012 130.45614,88.8352332 L131.333333,88.8352332 C131.333333,89.038343 131.33577,89.2571664 131.340643,89.4917098 C131.345517,89.7262533 131.354045,89.9656292 131.366228,90.2098446 C131.378411,90.4540599 131.393031,90.6946448 131.410088,90.9316062 C131.427144,91.1685677 131.450292,91.391018 131.479532,91.5989637 C131.615985,91.391018 131.751218,91.1697766 131.885234,90.9352332 C132.01925,90.7006897 132.147173,90.4637318 132.269006,90.2243523 C132.390839,89.9849729 132.504142,89.746806 132.608918,89.5098446 C132.713694,89.2728831 132.805068,89.0480149 132.883041,88.8352332 L133.643275,88.8352332 C133.643275,89.033507 133.645711,89.2438676 133.650585,89.4663212 C133.655458,89.6887749 133.663986,89.918479 133.67617,90.1554404 C133.688353,90.3924019 133.702973,90.6329867 133.720029,90.8772021 C133.737086,91.1214175 133.760234,91.3620023 133.789474,91.5989637 C133.91618,91.4151977 134.045321,91.2048371 134.176901,90.9678756 C134.30848,90.7309142 134.435185,90.4879114 134.557018,90.2388601 C134.678851,89.9898088 134.789717,89.7431791 134.88962,89.4989637 C134.989523,89.2547483 135.07115,89.033507 135.134503,88.8352332 L136.055556,88.8352332 C135.953216,89.1253901 135.82773,89.4336771 135.679094,89.7601036 C135.530457,90.0865301 135.363549,90.4165786 135.178363,90.7502591 C134.993176,91.0839395 134.794592,91.4115701 134.582602,91.7331606 C134.370613,92.0547512 134.150099,92.3533665 133.921053,92.6290155 L133.190058,92.6290155 C133.136452,92.2227959 133.091374,91.8226272 133.054825,91.4284974 C133.018275,91.0343676 132.995127,90.6341989 132.98538,90.2279793 Z M139.22076,91.1564767 C139.20614,91.2096721 139.191521,91.2967179 139.176901,91.4176166 C139.162281,91.5385153 139.154971,91.6521584 139.154971,91.7585492 C139.154971,91.8987917 139.167154,92.0354052 139.19152,92.1683938 C139.215887,92.3013824 139.254873,92.4355779 139.30848,92.5709845 L138.519006,92.6870466 C138.460526,92.5709839 138.41423,92.447669 138.380117,92.3170984 C138.258284,92.4234893 138.108432,92.5189978 137.930556,92.6036269 C137.752679,92.688256 137.551658,92.7305699 137.327485,92.7305699 C137.098439,92.7305699 136.902291,92.6930919 136.739035,92.6181347 C136.575779,92.5431775 136.442983,92.4392062 136.340643,92.3062176 C136.238304,92.173229 136.162768,92.0172721 136.114035,91.838342 C136.065302,91.6594119 136.040936,91.4659769 136.040936,91.2580311 C136.040936,90.9050069 136.104288,90.5761673 136.230994,90.2715026 C136.3577,89.9668379 136.534356,89.7032826 136.760965,89.480829 C136.987574,89.2583754 137.256821,89.0830749 137.568713,88.9549223 C137.880606,88.8267697 138.221733,88.7626943 138.592105,88.7626943 C138.782165,88.7626943 138.97344,88.7784109 139.165936,88.8098446 C139.358432,88.8412782 139.552143,88.9005177 139.747076,88.9875648 L139.22076,91.1564767 Z M138.738304,89.5170984 C138.645711,89.4977547 138.540936,89.4880829 138.423977,89.4880829 C138.204677,89.4880829 138.002438,89.5352327 137.817251,89.6295337 C137.632065,89.7238347 137.472467,89.8495674 137.33845,90.0067358 C137.204434,90.1639041 137.100878,90.3440404 137.027778,90.5471503 C136.954678,90.7502601 136.918129,90.9630386 136.918129,91.1854922 C136.918129,91.296719 136.927875,91.4006904 136.947368,91.4974093 C136.966862,91.5941283 136.999756,91.6787561 137.046053,91.7512953 C137.092349,91.8238346 137.154483,91.8818651 137.232456,91.9253886 C137.310429,91.9689121 137.410331,91.9906736 137.532164,91.9906736 C137.68811,91.9906736 137.825779,91.9580314 137.945175,91.8927461 C138.064572,91.8274608 138.175438,91.7392061 138.277778,91.6279793 C138.282651,91.5022446 138.293616,91.3837657 138.310673,91.2725389 C138.327729,91.1613121 138.350877,91.0500869 138.380117,90.9388601 L138.738304,89.5170984 Z M142.788012,89.611399 C142.690545,89.5775473 142.585771,89.55095 142.473684,89.5316062 C142.361598,89.5122624 142.23002,89.5025907 142.078947,89.5025907 C141.996101,89.5025907 141.908383,89.5086355 141.815789,89.5207254 C141.723196,89.5328153 141.645224,89.5485319 141.581871,89.5678756 L140.843567,92.6290155 L139.959064,92.6290155 L140.836257,89.0093264 C141.040937,88.9416232 141.262669,88.8823837 141.501462,88.8316062 C141.740255,88.7808288 141.998537,88.7554404 142.276316,88.7554404 C142.334796,88.7554404 142.400584,88.7590673 142.473684,88.7663212 C142.546784,88.7735752 142.618664,88.7820379 142.689327,88.7917098 C142.759991,88.8013817 142.825779,88.8134714 142.886696,88.8279793 C142.947612,88.8424871 143,88.8594127 143.04386,88.8787565 L142.788012,89.611399 Z M143.05117,91.2580311 C143.05117,90.9340226 143.103557,90.6208996 143.208333,90.3186528 C143.31311,90.0164061 143.46418,89.748015 143.66155,89.5134715 C143.858919,89.278928 144.09649,89.0915378 144.374269,88.9512953 C144.652048,88.8110528 144.963936,88.7409326 145.309942,88.7409326 C145.680314,88.7409326 145.967835,88.8352322 146.172515,89.0238342 C146.377194,89.2124362 146.479532,89.45423 146.479532,89.7492228 C146.479532,90.0538875 146.403997,90.3005172 146.252924,90.4891192 C146.101851,90.6777212 145.905703,90.8252154 145.664474,90.9316062 C145.423244,91.0379971 145.150343,91.1105352 144.84576,91.1492228 C144.541178,91.1879104 144.232945,91.2120898 143.921053,91.2217617 C143.916179,91.2314336 143.913743,91.2411053 143.913743,91.2507772 L143.913743,91.3233161 C143.913743,91.7633873 144.193954,91.9834197 144.754386,91.9834197 C145.085772,91.9834197 145.417152,91.9157174 145.748538,91.7803109 L145.821637,92.4911917 C145.704678,92.5443871 145.538987,92.5975818 145.324561,92.6507772 C145.110135,92.7039726 144.866473,92.7305699 144.593567,92.7305699 C144.320661,92.7305699 144.086746,92.6918829 143.891813,92.6145078 C143.69688,92.5371326 143.537281,92.4307433 143.413012,92.2953368 C143.288742,92.1599302 143.197369,92.0039732 143.138889,91.8274611 C143.080409,91.650949 143.05117,91.4611409 143.05117,91.2580311 Z M145.178363,89.4590674 C145.032163,89.4590674 144.893276,89.4880826 144.761696,89.546114 C144.630116,89.6041454 144.513158,89.6839373 144.410819,89.7854922 C144.308479,89.8870471 144.219542,90.0067351 144.144006,90.1445596 C144.068469,90.2823841 144.013645,90.4310873 143.979532,90.5906736 C144.56433,90.5713298 144.989521,90.5012096 145.255117,90.3803109 C145.520713,90.2594122 145.653509,90.0780668 145.653509,89.8362694 C145.653509,89.7395505 145.618178,89.6525047 145.547515,89.5751295 C145.476851,89.4977544 145.353802,89.4590674 145.178363,89.4590674 Z M147.261696,91.5699482 C147.417642,91.5699482 147.544346,91.6134711 147.641813,91.7005181 C147.739279,91.7875652 147.788012,91.9157159 147.788012,92.0849741 C147.788012,92.1816931 147.769737,92.2699478 147.733187,92.3497409 C147.696637,92.4295341 147.649123,92.4972363 147.590643,92.5528497 C147.532163,92.6084631 147.465156,92.6507771 147.38962,92.6797927 C147.314083,92.7088084 147.23733,92.7233161 147.159357,92.7233161 C147.003411,92.7233161 146.877924,92.6810022 146.782895,92.5963731 C146.687865,92.511744 146.640351,92.3848022 146.640351,92.215544 C146.640351,92.0124342 146.703703,91.8540593 146.830409,91.7404145 C146.957116,91.6267697 147.100876,91.5699482 147.261696,91.5699482 Z M152.627193,89.8217617 C152.929339,89.4590655 153.222952,89.0951659 153.508041,88.7300518 C153.79313,88.3649377 154.05994,87.9889484 154.30848,87.6020725 L155.346491,87.6020725 C155.156432,87.8680497 154.966375,88.126769 154.776316,88.3782383 C154.586256,88.6297076 154.392545,88.8799642 154.195175,89.1290155 C153.997806,89.3780669 153.794348,89.6259055 153.584795,89.8725389 C153.375243,90.1191722 153.158383,90.3706378 152.934211,90.626943 L152.451754,92.6290155 L151.530702,92.6290155 L152.013158,90.626943 C151.813352,90.1191684 151.631823,89.6150284 151.468567,89.1145078 C151.305311,88.6139871 151.153022,88.1098471 151.011696,87.6020725 L151.991228,87.6020725 C152.074074,87.9744405 152.169103,88.346803 152.276316,88.719171 C152.383529,89.091539 152.500487,89.4590655 152.627193,89.8217617 Z M156.289474,92.7305699 C155.836255,92.7305699 155.490255,92.5975834 155.251462,92.3316062 C155.012669,92.0656291 154.893275,91.7150281 154.893275,91.2797927 C154.893275,90.9993078 154.937134,90.7091552 155.024854,90.4093264 C155.112574,90.1094976 155.246588,89.8362707 155.426901,89.5896373 C155.607213,89.3430039 155.833819,89.1398972 156.106725,88.9803109 C156.379631,88.8207246 156.701265,88.7409326 157.071637,88.7409326 C157.524856,88.7409326 157.870857,88.8727103 158.109649,89.1362694 C158.348442,89.3998286 158.467836,89.7492206 158.467836,90.184456 C158.467836,90.4697769 158.425195,90.7623474 158.339912,91.0621762 C158.254629,91.362005 158.123052,91.6352319 157.945175,91.8818653 C157.767299,92.1284986 157.540693,92.3316054 157.265351,92.4911917 C156.990008,92.650778 156.664719,92.7305699 156.289474,92.7305699 Z M156.961988,89.480829 C156.771929,89.480829 156.602584,89.5352326 156.453947,89.6440415 C156.305311,89.7528503 156.181043,89.8918817 156.08114,90.0611399 C155.981237,90.2303981 155.904484,90.4153703 155.850877,90.6160622 C155.797271,90.816754 155.770468,91.011398 155.770468,91.2 C155.770468,91.4417974 155.816764,91.6328145 155.909357,91.773057 C156.00195,91.9132995 156.165204,91.9834197 156.399123,91.9834197 C156.589182,91.9834197 156.758528,91.9290161 156.907164,91.8202073 C157.0558,91.7113984 157.180068,91.573576 157.279971,91.4067358 C157.379874,91.2398955 157.456627,91.0549233 157.510234,90.8518135 C157.56384,90.6487036 157.590643,90.4552686 157.590643,90.2715026 C157.590643,90.0297052 157.544347,89.8374791 157.451754,89.6948187 C157.359161,89.5521582 157.195908,89.480829 156.961988,89.480829 Z M162.744152,88.8352332 L162.203216,91.0911917 C162.17885,91.2024185 162.160575,91.3136437 162.148392,91.4248705 C162.136209,91.5360973 162.130117,91.6473224 162.130117,91.7585492 C162.130117,91.8987917 162.141082,92.0366142 162.163012,92.1720207 C162.184942,92.3074273 162.222709,92.4404139 162.276316,92.5709845 L161.486842,92.6870466 C161.457602,92.6338512 161.432018,92.5746117 161.410088,92.5093264 C161.388158,92.4440411 161.367446,92.3775478 161.347953,92.3098446 C161.22612,92.4065635 161.07505,92.4996541 160.894737,92.5891192 C160.714424,92.6785842 160.504874,92.7233161 160.266082,92.7233161 C160.051656,92.7233161 159.868909,92.6918829 159.717836,92.6290155 C159.566763,92.5661482 159.443714,92.4803114 159.348684,92.3715026 C159.253654,92.2626938 159.185429,92.1345431 159.144006,91.9870466 C159.102583,91.8395502 159.081871,91.6835932 159.081871,91.519171 C159.081871,91.3063893 159.111111,91.0766852 159.169591,90.8300518 L159.652047,88.8352332 L160.53655,88.8352332 L160.061404,90.8082902 C159.99805,91.0597595 159.966374,91.2652842 159.966374,91.4248705 C159.966374,91.5022456 159.973684,91.5747838 159.988304,91.642487 C160.002924,91.7101903 160.028509,91.7694298 160.065058,91.8202073 C160.101608,91.8709847 160.152777,91.9108807 160.218567,91.9398964 C160.284357,91.9689121 160.365984,91.9834197 160.46345,91.9834197 C160.62427,91.9834197 160.768031,91.9507775 160.894737,91.8854922 C161.021443,91.8202069 161.138401,91.7319522 161.245614,91.6207254 C161.260234,91.4127796 161.294347,91.2000011 161.347953,90.9823834 L161.859649,88.8352332 L162.744152,88.8352332 Z M165.807018,89.611399 C165.709551,89.5775473 165.604776,89.55095 165.49269,89.5316062 C165.380604,89.5122624 165.249026,89.5025907 165.097953,89.5025907 C165.015107,89.5025907 164.927388,89.5086355 164.834795,89.5207254 C164.742202,89.5328153 164.66423,89.5485319 164.600877,89.5678756 L163.862573,92.6290155 L162.97807,92.6290155 L163.855263,89.0093264 C164.059943,88.9416232 164.281675,88.8823837 164.520468,88.8316062 C164.75926,88.7808288 165.017542,88.7554404 165.295322,88.7554404 C165.353801,88.7554404 165.41959,88.7590673 165.49269,88.7663212 C165.56579,88.7735752 165.63767,88.7820379 165.708333,88.7917098 C165.778996,88.8013817 165.844785,88.8134714 165.905702,88.8279793 C165.966618,88.8424871 166.019006,88.8594127 166.062865,88.8787565 L165.807018,89.611399 Z M168.730994,92.0124352 C168.964913,92.0124352 169.150097,91.9749572 169.28655,91.9 C169.423003,91.8250428 169.491228,91.7101908 169.491228,91.5554404 C169.491228,91.4297058 169.447369,91.3293613 169.359649,91.2544041 C169.271929,91.1794469 169.118422,91.0911922 168.899123,90.9896373 C168.782163,90.9364419 168.673733,90.8808293 168.57383,90.8227979 C168.473927,90.7647665 168.387427,90.6970643 168.314327,90.6196891 C168.241228,90.5423139 168.182749,90.4516413 168.138889,90.3476684 C168.095029,90.2436955 168.073099,90.1191717 168.073099,89.9740933 C168.073099,89.5968893 168.211987,89.297065 168.489766,89.0746114 C168.767545,88.8521578 169.169588,88.7409326 169.695906,88.7409326 C169.939572,88.7409326 170.15765,88.766321 170.350146,88.8170984 C170.542642,88.8678759 170.687621,88.9198616 170.785088,88.973057 L170.47076,89.6549223 C170.387914,89.6065628 170.268519,89.559413 170.112573,89.5134715 C169.956627,89.46753 169.793373,89.4445596 169.622807,89.4445596 C169.539961,89.4445596 169.458334,89.4518134 169.377924,89.4663212 C169.297514,89.4808291 169.225634,89.5050085 169.162281,89.5388601 C169.098928,89.5727117 169.04654,89.6198615 169.005117,89.6803109 C168.963694,89.7407602 168.942982,89.8145073 168.942982,89.9015544 C168.942982,90.0127812 168.98806,90.1034539 169.078216,90.1735751 C169.168373,90.2436964 169.298732,90.3174435 169.469298,90.3948187 C169.630118,90.4673579 169.766569,90.5374781 169.878655,90.6051813 C169.990741,90.6728846 170.083333,90.7490497 170.156433,90.8336788 C170.229533,90.9183078 170.283138,91.0126074 170.317251,91.1165803 C170.351365,91.2205532 170.368421,91.345077 170.368421,91.4901554 C170.368421,91.6690855 170.331872,91.8347143 170.258772,91.9870466 C170.185672,92.139379 170.079679,92.2699476 169.940789,92.3787565 C169.8019,92.4875653 169.630118,92.5734021 169.425439,92.6362694 C169.220759,92.6991368 168.986843,92.7305699 168.723684,92.7305699 C168.543371,92.7305699 168.381336,92.7184803 168.237573,92.6943005 C168.09381,92.6701208 167.968324,92.6423145 167.861111,92.6108808 C167.753898,92.5794472 167.663743,92.546805 167.590643,92.5129534 C167.517543,92.4791017 167.461501,92.4500865 167.422515,92.4259067 L167.736842,91.7367876 C167.770955,91.7561314 167.820906,91.7815197 167.886696,91.8129534 C167.952486,91.844387 168.028021,91.8746113 168.113304,91.9036269 C168.198587,91.9326426 168.293615,91.958031 168.398392,91.9797927 C168.503168,92.0015545 168.614035,92.0124352 168.730994,92.0124352 Z M174.739766,88.8352332 L174.19883,91.0911917 C174.174464,91.2024185 174.156189,91.3136437 174.144006,91.4248705 C174.131823,91.5360973 174.125731,91.6473224 174.125731,91.7585492 C174.125731,91.8987917 174.136696,92.0366142 174.158626,92.1720207 C174.180556,92.3074273 174.218323,92.4404139 174.27193,92.5709845 L173.482456,92.6870466 C173.453216,92.6338512 173.427632,92.5746117 173.405702,92.5093264 C173.383772,92.4440411 173.363061,92.3775478 173.343567,92.3098446 C173.221734,92.4065635 173.070664,92.4996541 172.890351,92.5891192 C172.710038,92.6785842 172.500489,92.7233161 172.261696,92.7233161 C172.04727,92.7233161 171.864523,92.6918829 171.71345,92.6290155 C171.562377,92.5661482 171.439328,92.4803114 171.344298,92.3715026 C171.249269,92.2626938 171.181043,92.1345431 171.13962,91.9870466 C171.098197,91.8395502 171.077485,91.6835932 171.077485,91.519171 C171.077485,91.3063893 171.106725,91.0766852 171.165205,90.8300518 L171.647661,88.8352332 L172.532164,88.8352332 L172.057018,90.8082902 C171.993664,91.0597595 171.961988,91.2652842 171.961988,91.4248705 C171.961988,91.5022456 171.969298,91.5747838 171.983918,91.642487 C171.998538,91.7101903 172.024123,91.7694298 172.060673,91.8202073 C172.097222,91.8709847 172.148391,91.9108807 172.214181,91.9398964 C172.279971,91.9689121 172.361598,91.9834197 172.459064,91.9834197 C172.619884,91.9834197 172.763645,91.9507775 172.890351,91.8854922 C173.017057,91.8202069 173.134015,91.7319522 173.241228,91.6207254 C173.255848,91.4127796 173.289961,91.2000011 173.343567,90.9823834 L173.855263,88.8352332 L174.739766,88.8352332 Z M175.149123,91.1927461 C175.149123,90.8639016 175.20151,90.5507787 175.306287,90.2533679 C175.411063,89.9559571 175.560915,89.6948198 175.755848,89.4699482 C175.950781,89.2450766 176.18957,89.0673582 176.472222,88.9367876 C176.754875,88.806217 177.076509,88.7409326 177.437135,88.7409326 C177.627194,88.7409326 177.801412,88.7566492 177.959795,88.7880829 C178.118178,88.8195166 178.26803,88.8666664 178.409357,88.9295337 L178.095029,89.6331606 C178.00731,89.594473 177.909845,89.5606219 177.802632,89.5316062 C177.695419,89.5025905 177.563841,89.4880829 177.407895,89.4880829 C177.198342,89.4880829 177.009504,89.5303968 176.841374,89.6150259 C176.673245,89.699655 176.530702,89.814507 176.413743,89.9595855 C176.296783,90.1046639 176.206628,90.2763375 176.143275,90.4746114 C176.079922,90.6728853 176.048246,90.8832459 176.048246,91.1056995 C176.048246,91.2314341 176.061647,91.3462862 176.08845,91.4502591 C176.115254,91.554232 176.159113,91.6461136 176.220029,91.7259067 C176.280946,91.8056999 176.365009,91.8673573 176.472222,91.9108808 C176.579435,91.9544044 176.713449,91.9761658 176.874269,91.9761658 C177.039962,91.9761658 177.199561,91.9544044 177.35307,91.9108808 C177.50658,91.8673573 177.624756,91.8238344 177.707602,91.7803109 L177.780702,92.4984456 C177.668615,92.551641 177.519981,92.6036267 177.334795,92.6544041 C177.149609,92.7051816 176.94006,92.7305699 176.70614,92.7305699 C176.438108,92.7305699 176.206629,92.690674 176.011696,92.6108808 C175.816763,92.5310877 175.654728,92.4222805 175.525585,92.284456 C175.396442,92.1466314 175.301414,91.9846296 175.240497,91.7984456 C175.179581,91.6122616 175.149123,91.4103638 175.149123,91.1927461 Z M178.504386,91.1927461 C178.504386,90.8639016 178.556773,90.5507787 178.66155,90.2533679 C178.766326,89.9559571 178.916178,89.6948198 179.111111,89.4699482 C179.306044,89.2450766 179.544833,89.0673582 179.827485,88.9367876 C180.110138,88.806217 180.431772,88.7409326 180.792398,88.7409326 C180.982457,88.7409326 181.156676,88.7566492 181.315058,88.7880829 C181.473441,88.8195166 181.623294,88.8666664 181.76462,88.9295337 L181.450292,89.6331606 C181.362573,89.594473 181.265108,89.5606219 181.157895,89.5316062 C181.050682,89.5025905 180.919104,89.4880829 180.763158,89.4880829 C180.553605,89.4880829 180.364767,89.5303968 180.196637,89.6150259 C180.028508,89.699655 179.885965,89.814507 179.769006,89.9595855 C179.652046,90.1046639 179.561891,90.2763375 179.498538,90.4746114 C179.435185,90.6728853 179.403509,90.8832459 179.403509,91.1056995 C179.403509,91.2314341 179.41691,91.3462862 179.443713,91.4502591 C179.470517,91.554232 179.514376,91.6461136 179.575292,91.7259067 C179.636209,91.8056999 179.720272,91.8673573 179.827485,91.9108808 C179.934698,91.9544044 180.068713,91.9761658 180.229532,91.9761658 C180.395225,91.9761658 180.554824,91.9544044 180.708333,91.9108808 C180.861843,91.8673573 180.980019,91.8238344 181.062865,91.7803109 L181.135965,92.4984456 C181.023879,92.551641 180.875245,92.6036267 180.690058,92.6544041 C180.504872,92.7051816 180.295323,92.7305699 180.061404,92.7305699 C179.793371,92.7305699 179.561892,92.690674 179.366959,92.6108808 C179.172026,92.5310877 179.009991,92.4222805 178.880848,92.284456 C178.751705,92.1466314 178.656677,91.9846296 178.59576,91.7984456 C178.534844,91.6122616 178.504386,91.4103638 178.504386,91.1927461 Z M181.859649,91.2580311 C181.859649,90.9340226 181.912037,90.6208996 182.016813,90.3186528 C182.121589,90.0164061 182.27266,89.748015 182.470029,89.5134715 C182.667399,89.278928 182.904969,89.0915378 183.182749,88.9512953 C183.460528,88.8110528 183.772415,88.7409326 184.118421,88.7409326 C184.488793,88.7409326 184.776315,88.8352322 184.980994,89.0238342 C185.185674,89.2124362 185.288012,89.45423 185.288012,89.7492228 C185.288012,90.0538875 185.212476,90.3005172 185.061404,90.4891192 C184.910331,90.6777212 184.714182,90.8252154 184.472953,90.9316062 C184.231724,91.0379971 183.958822,91.1105352 183.65424,91.1492228 C183.349657,91.1879104 183.041425,91.2120898 182.729532,91.2217617 C182.724659,91.2314336 182.722222,91.2411053 182.722222,91.2507772 L182.722222,91.3233161 C182.722222,91.7633873 183.002434,91.9834197 183.562865,91.9834197 C183.894251,91.9834197 184.225632,91.9157174 184.557018,91.7803109 L184.630117,92.4911917 C184.513157,92.5443871 184.347467,92.5975818 184.133041,92.6507772 C183.918615,92.7039726 183.674953,92.7305699 183.402047,92.7305699 C183.129141,92.7305699 182.895225,92.6918829 182.700292,92.6145078 C182.50536,92.5371326 182.345761,92.4307433 182.221491,92.2953368 C182.097222,92.1599302 182.005848,92.0039732 181.947368,91.8274611 C181.888889,91.650949 181.859649,91.4611409 181.859649,91.2580311 Z M183.986842,89.4590674 C183.840643,89.4590674 183.701755,89.4880826 183.570175,89.546114 C183.438596,89.6041454 183.321638,89.6839373 183.219298,89.7854922 C183.116959,89.8870471 183.028022,90.0067351 182.952485,90.1445596 C182.876949,90.2823841 182.822125,90.4310873 182.788012,90.5906736 C183.37281,90.5713298 183.798001,90.5012096 184.063596,90.3803109 C184.329192,90.2594122 184.461988,90.0780668 184.461988,89.8362694 C184.461988,89.7395505 184.426657,89.6525047 184.355994,89.5751295 C184.285331,89.4977544 184.162282,89.4590674 183.986842,89.4590674 Z M186.611111,92.0124352 C186.84503,92.0124352 187.030214,91.9749572 187.166667,91.9 C187.30312,91.8250428 187.371345,91.7101908 187.371345,91.5554404 C187.371345,91.4297058 187.327486,91.3293613 187.239766,91.2544041 C187.152046,91.1794469 186.998539,91.0911922 186.77924,90.9896373 C186.66228,90.9364419 186.55385,90.8808293 186.453947,90.8227979 C186.354044,90.7647665 186.267544,90.6970643 186.194444,90.6196891 C186.121345,90.5423139 186.062866,90.4516413 186.019006,90.3476684 C185.975146,90.2436955 185.953216,90.1191717 185.953216,89.9740933 C185.953216,89.5968893 186.092104,89.297065 186.369883,89.0746114 C186.647662,88.8521578 187.049705,88.7409326 187.576023,88.7409326 C187.819689,88.7409326 188.037767,88.766321 188.230263,88.8170984 C188.422759,88.8678759 188.567738,88.9198616 188.665205,88.973057 L188.350877,89.6549223 C188.268031,89.6065628 188.148636,89.559413 187.99269,89.5134715 C187.836744,89.46753 187.67349,89.4445596 187.502924,89.4445596 C187.420078,89.4445596 187.338451,89.4518134 187.258041,89.4663212 C187.177631,89.4808291 187.105751,89.5050085 187.042398,89.5388601 C186.979045,89.5727117 186.926657,89.6198615 186.885234,89.6803109 C186.843811,89.7407602 186.823099,89.8145073 186.823099,89.9015544 C186.823099,90.0127812 186.868177,90.1034539 186.958333,90.1735751 C187.04849,90.2436964 187.178849,90.3174435 187.349415,90.3948187 C187.510235,90.4673579 187.646686,90.5374781 187.758772,90.6051813 C187.870858,90.6728846 187.96345,90.7490497 188.03655,90.8336788 C188.109649,90.9183078 188.163255,91.0126074 188.197368,91.1165803 C188.231482,91.2205532 188.248538,91.345077 188.248538,91.4901554 C188.248538,91.6690855 188.211989,91.8347143 188.138889,91.9870466 C188.065789,92.139379 187.959796,92.2699476 187.820906,92.3787565 C187.682017,92.4875653 187.510235,92.5734021 187.305556,92.6362694 C187.100876,92.6991368 186.86696,92.7305699 186.603801,92.7305699 C186.423488,92.7305699 186.261453,92.7184803 186.11769,92.6943005 C185.973927,92.6701208 185.848441,92.6423145 185.741228,92.6108808 C185.634015,92.5794472 185.54386,92.546805 185.47076,92.5129534 C185.39766,92.4791017 185.341618,92.4500865 185.302632,92.4259067 L185.616959,91.7367876 C185.651072,91.7561314 185.701023,91.7815197 185.766813,91.8129534 C185.832603,91.844387 185.908138,91.8746113 185.993421,91.9036269 C186.078704,91.9326426 186.173732,91.958031 186.278509,91.9797927 C186.383285,92.0015545 186.494151,92.0124352 186.611111,92.0124352 Z M189.812865,92.0124352 C190.046785,92.0124352 190.231968,91.9749572 190.368421,91.9 C190.504874,91.8250428 190.573099,91.7101908 190.573099,91.5554404 C190.573099,91.4297058 190.52924,91.3293613 190.44152,91.2544041 C190.353801,91.1794469 190.200293,91.0911922 189.980994,90.9896373 C189.864035,90.9364419 189.755605,90.8808293 189.655702,90.8227979 C189.555799,90.7647665 189.469299,90.6970643 189.396199,90.6196891 C189.323099,90.5423139 189.26462,90.4516413 189.22076,90.3476684 C189.1769,90.2436955 189.154971,90.1191717 189.154971,89.9740933 C189.154971,89.5968893 189.293858,89.297065 189.571637,89.0746114 C189.849417,88.8521578 190.251459,88.7409326 190.777778,88.7409326 C191.021444,88.7409326 191.239521,88.766321 191.432018,88.8170984 C191.624514,88.8678759 191.769493,88.9198616 191.866959,88.973057 L191.552632,89.6549223 C191.469785,89.6065628 191.350391,89.559413 191.194444,89.5134715 C191.038498,89.46753 190.875245,89.4445596 190.704678,89.4445596 C190.621832,89.4445596 190.540205,89.4518134 190.459795,89.4663212 C190.379386,89.4808291 190.307505,89.5050085 190.244152,89.5388601 C190.180799,89.5727117 190.128412,89.6198615 190.086988,89.6803109 C190.045565,89.7407602 190.024854,89.8145073 190.024854,89.9015544 C190.024854,90.0127812 190.069931,90.1034539 190.160088,90.1735751 C190.250244,90.2436964 190.380603,90.3174435 190.55117,90.3948187 C190.711989,90.4673579 190.84844,90.5374781 190.960526,90.6051813 C191.072613,90.6728846 191.165204,90.7490497 191.238304,90.8336788 C191.311404,90.9183078 191.36501,91.0126074 191.399123,91.1165803 C191.433236,91.2205532 191.450292,91.345077 191.450292,91.4901554 C191.450292,91.6690855 191.413743,91.8347143 191.340643,91.9870466 C191.267543,92.139379 191.16155,92.2699476 191.022661,92.3787565 C190.883771,92.4875653 190.711989,92.5734021 190.50731,92.6362694 C190.302631,92.6991368 190.068715,92.7305699 189.805556,92.7305699 C189.625243,92.7305699 189.463207,92.7184803 189.319444,92.6943005 C189.175682,92.6701208 189.050195,92.6423145 188.942982,92.6108808 C188.835769,92.5794472 188.745614,92.546805 188.672515,92.5129534 C188.599415,92.4791017 188.543373,92.4500865 188.504386,92.4259067 L188.818713,91.7367876 C188.852827,91.7561314 188.902777,91.7815197 188.968567,91.8129534 C189.034357,91.844387 189.109892,91.8746113 189.195175,91.9036269 C189.280459,91.9326426 189.375487,91.958031 189.480263,91.9797927 C189.58504,92.0015545 189.695906,92.0124352 189.812865,92.0124352 Z M192.473684,91.5699482 C192.62963,91.5699482 192.756335,91.6134711 192.853801,91.7005181 C192.951268,91.7875652 193,91.9157159 193,92.0849741 C193,92.1816931 192.981725,92.2699478 192.945175,92.3497409 C192.908626,92.4295341 192.861111,92.4972363 192.802632,92.5528497 C192.744152,92.6084631 192.677145,92.6507771 192.601608,92.6797927 C192.526072,92.7088084 192.449318,92.7233161 192.371345,92.7233161 C192.215399,92.7233161 192.089913,92.6810022 191.994883,92.5963731 C191.899853,92.511744 191.852339,92.3848022 191.852339,92.215544 C191.852339,92.0124342 191.915691,91.8540593 192.042398,91.7404145 C192.169104,91.6267697 192.312865,91.5699482 192.473684,91.5699482 Z" id="Our-software.-Your-s"></path>
        </g>
    </g>
</svg>