<svg height="466" viewBox="0 0 24 466" width="24" xmlns="http://www.w3.org/2000/svg" xmlns:xlink="http://www.w3.org/1999/xlink"><linearGradient id="a" x1="50%" x2="50%" y1="100%" y2="0%"><stop offset="0" stop-color="#ed4159"/><stop offset="1" stop-color="#ed4159" stop-opacity="0"/></linearGradient><g fill="none" fill-rule="evenodd"><path d="m12 466c-6.627417 0-12-5.372583-12-12s5.372583-12 12-12 12 5.372583 12 12-5.372583 12-12 12zm-3-18.326369c-2.36494733 1.123464-4 3.533973-4 6.326369 0 3.865993 3.13400675 7 7 7 3.8659932 0 7-3.134007 7-7 0-2.792396-1.6350527-5.202905-4-6.326369v2.326003c1.2144467.912206 2 2.364548 2 4.000366 0 2.761424-2.2385763 5-5 5-2.76142375 0-5-2.238576-5-5 0-1.635818.7855533-3.08816 2-4.000366zm3-1.673631c-.5522847 0-1 .447715-1 1v4c0 .552285.4477153 1 1 1s1-.447715 1-1v-4c0-.552285-.4477153-1-1-1z" fill="#ed4159"/><path d="m13 434.5v-429h-1v429z" fill="url(#a)" fill-rule="nonzero"/></g></svg>