<?xml version="1.0" encoding="UTF-8"?>
<svg width="894px" height="16px" viewBox="0 0 894 16" version="1.1" xmlns="http://www.w3.org/2000/svg" xmlns:xlink="http://www.w3.org/1999/xlink">
    <!-- Generator: Sketch 58 (84663) - https://sketch.com -->
    <title>recipe-customer</title>
    <desc>Created with Sketch.</desc>
    <g id="Landing-Pages" stroke="none" stroke-width="1" fill="none" fill-rule="evenodd">
        <g id="Group-14" transform="translate(-625.000000, -521.000000)" fill="#AC4DFF">
            <g id="Group-26" transform="translate(381.000000, 393.000000)">
                <g id="Group-25" transform="translate(243.000000, 128.000000)">
                    <path d="M9.5,2 C10.3284271,2 11,2.67157288 11,3.5 L11,12.5 C11,13.3284271 10.3284271,14 9.5,14 L2.5,14 C1.67157288,14 1,13.3284271 1,12.5 L1,3.5 C1,2.67157288 1.67157288,2 2.5,2 L9.5,2 Z M59.5,2 C60.3284271,2 61,2.67157288 61,3.5 L61,12.5 C61,13.3284271 60.3284271,14 59.5,14 L42.5,14 C41.6715729,14 41,13.3284271 41,12.5 L41,3.5 C41,2.67157288 41.6715729,2 42.5,2 L59.5,2 Z M76.5,2 C77.3284271,2 78,2.67157288 78,3.5 L78,12.5 C78,13.3284271 77.3284271,14 76.5,14 L72.5,14 C71.6715729,14 71,13.3284271 71,12.5 L71,3.5 C71,2.67157288 71.6715729,2 72.5,2 L76.5,2 Z M186.5,2 C187.328427,2 188,2.67157288 188,3.5 L188,12.5 C188,13.3284271 187.328427,14 186.5,14 L162.5,14 C161.671573,14 161,13.3284271 161,12.5 L161,3.5 C161,2.67157288 161.671573,2 162.5,2 L186.5,2 Z M440.5,2 C441.328427,2 442,2.67157288 442,3.5 L442,12.5 C442,13.3284271 441.328427,14 440.5,14 L437.5,14 C436.671573,14 436,13.3284271 436,12.5 L436,3.5 C436,2.67157288 436.671573,2 437.5,2 L440.5,2 Z M490.5,2 C491.328427,2 492,2.67157288 492,3.5 L492,12.5 C492,13.3284271 491.328427,14 490.5,14 L487.5,14 C486.671573,14 486,13.3284271 486,12.5 L486,3.5 C486,2.67157288 486.671573,2 487.5,2 L490.5,2 Z M222.5,2 C223.328427,2 224,2.67157288 224,3.5 L224,12.5 C224,13.3284271 223.328427,14 222.5,14 L219.5,14 C218.671573,14 218,13.3284271 218,12.5 L218,3.5 C218,2.67157288 218.671573,2 219.5,2 L222.5,2 Z M517.5,2 C518.328427,2 519,2.67157288 519,3.5 L519,12.5 C519,13.3284271 518.328427,14 517.5,14 C516.671573,14 516,13.3284271 516,12.5 L516,3.5 C516,2.67157288 516.671573,2 517.5,2 Z M249.5,2 C250.328427,2 251,2.67157288 251,3.5 L251,12.5 C251,13.3284271 250.328427,14 249.5,14 C248.671573,14 248,13.3284271 248,12.5 L248,3.5 C248,2.67157288 248.671573,2 249.5,2 Z M557.5,2 C558.328427,2 559,2.67157288 559,3.5 L559,12.5 C559,13.3284271 558.328427,14 557.5,14 C556.671573,14 556,13.3284271 556,12.5 L556,3.5 C556,2.67157288 556.671573,2 557.5,2 Z M299.5,2 C300.328427,2 301,2.67157288 301,3.5 L301,12.5 C301,13.3284271 300.328427,14 299.5,14 L289.5,14 C288.671573,14 288,13.3284271 288,12.5 L288,3.5 C288,2.67157288 288.671573,2 289.5,2 L299.5,2 Z M587.5,2 C588.328427,2 589,2.67157288 589,3.5 L589,12.5 C589,13.3284271 588.328427,14 587.5,14 C586.671573,14 586,13.3284271 586,12.5 L586,3.5 C586,2.67157288 586.671573,2 587.5,2 Z M319.5,2 C320.328427,2 321,2.67157288 321,3.5 L321,12.5 C321,13.3284271 320.328427,14 319.5,14 C318.671573,14 318,13.3284271 318,12.5 L318,3.5 C318,2.67157288 318.671573,2 319.5,2 Z M605.5,2 C606.328427,2 607,2.67157288 607,3.5 L607,12.5 C607,13.3284271 606.328427,14 605.5,14 L592.5,14 C591.671573,14 591,13.3284271 591,12.5 L591,3.5 C591,2.67157288 591.671573,2 592.5,2 L605.5,2 Z M354.5,2 C355.328427,2 356,2.67157288 356,3.5 L356,12.5 C356,13.3284271 355.328427,14 354.5,14 L324.5,14 C323.671573,14 323,13.3284271 323,12.5 L323,3.5 C323,2.67157288 323.671573,2 324.5,2 L354.5,2 Z M741.5,2 C742.328427,2 743,2.67157288 743,3.5 L743,12.5 C743,13.3284271 742.328427,14 741.5,14 L707.5,14 C706.671573,14 706,13.3284271 706,12.5 L706,3.5 C706,2.67157288 706.671573,2 707.5,2 L741.5,2 Z M767.5,2 C768.328427,2 769,2.67157288 769,3.5 L769,12.5 C769,13.3284271 768.328427,14 767.5,14 C766.671573,14 766,13.3284271 766,12.5 L766,3.5 C766,2.67157288 766.671573,2 767.5,2 Z M807.5,2 C808.328427,2 809,2.67157288 809,3.5 L809,12.5 C809,13.3284271 808.328427,14 807.5,14 C806.671573,14 806,13.3284271 806,12.5 L806,3.5 C806,2.67157288 806.671573,2 807.5,2 Z M825.5,2 C826.328427,2 827,2.67157288 827,3.5 L827,12.5 C827,13.3284271 826.328427,14 825.5,14 C824.671573,14 824,13.3284271 824,12.5 L824,3.5 C824,2.67157288 824.671573,2 825.5,2 Z M831.5,2 C832.328427,2 833,2.67157288 833,3.5 L833,12.5 C833,13.3284271 832.328427,14 831.5,14 C830.671573,14 830,13.3284271 830,12.5 L830,3.5 C830,2.67157288 830.671573,2 831.5,2 Z M871.5,2 C872.328427,2 873,2.67157288 873,3.5 L873,12.5 C873,13.3284271 872.328427,14 871.5,14 L849.5,14 C848.671573,14 848,13.3284271 848,12.5 L848,3.5 C848,2.67157288 848.671573,2 849.5,2 L871.5,2 Z M892.5,2 C893.328427,2 894,2.67157288 894,3.5 L894,12.5 C894,13.3284271 893.328427,14 892.5,14 L878.5,14 C877.671573,14 877,13.3284271 877,12.5 L877,3.5 C877,2.67157288 877.671573,2 878.5,2 L892.5,2 Z M679.5,2 C680.328427,2 681,2.67157288 681,3.5 L681,12.5 C681,13.3284271 680.328427,14 679.5,14 C678.671573,14 678,13.3284271 678,12.5 L678,3.5 C678,2.67157288 678.671573,2 679.5,2 Z M482.5,2 C483.328427,2 484,2.67157288 484,3.5 L484,12.5 C484,13.3284271 483.328427,14 482.5,14 L469.5,14 C468.671573,14 468,13.3284271 468,12.5 L468,3.5 C468,2.67157288 468.671573,2 469.5,2 L482.5,2 Z M464.5,2 C465.328427,2 466,2.67157288 466,3.5 L466,12.5 C466,13.3284271 465.328427,14 464.5,14 C463.671573,14 463,13.3284271 463,12.5 L463,3.5 C463,2.67157288 463.671573,2 464.5,2 Z M399.5,2 C400.328427,2 401,2.67157288 401,3.5 L401,12.5 C401,13.3284271 400.328427,14 399.5,14 C398.671573,14 398,13.3284271 398,12.5 L398,3.5 C398,2.67157288 398.671573,2 399.5,2 Z M86.5,2 C87.3284271,2 88,2.67157288 88,3.5 L88,12.5 C88,13.3284271 87.3284271,14 86.5,14 C85.6715729,14 85,13.3284271 85,12.5 L85,3.5 C85,2.67157288 85.6715729,2 86.5,2 Z M142.5,2 C143.328427,2 144,2.67157288 144,3.5 L144,12.5 C144,13.3284271 143.328427,14 142.5,14 L106.5,14 C105.671573,14 105,13.3284271 105,12.5 L105,3.5 C105,2.67157288 105.671573,2 106.5,2 L142.5,2 Z M147.5,2 C148.328427,2 149,2.67157288 149,3.5 L149,12.5 C149,13.3284271 148.328427,14 147.5,14 C146.671573,14 146,13.3284271 146,12.5 L146,3.5 C146,2.67157288 146.671573,2 147.5,2 Z M17.5,2 C18.3284271,2 19,2.67157288 19,3.5 L19,12.5 C19,13.3284271 18.3284271,14 17.5,14 C16.6715729,14 16,13.3284271 16,12.5 L16,3.5 C16,2.67157288 16.6715729,2 17.5,2 Z M22.5,2 C23.3284271,2 24,2.67157288 24,3.5 L24,12.5 C24,13.3284271 23.3284271,14 22.5,14 C21.6715729,14 21,13.3284271 21,12.5 L21,3.5 C21,2.67157288 21.6715729,2 22.5,2 Z M612.5,2 C613.328427,2 614,2.67157288 614,3.5 L614,12.5 C614,13.3284271 613.328427,14 612.5,14 C611.671573,14 611,13.3284271 611,12.5 L611,3.5 C611,2.67157288 611.671573,2 612.5,2 Z M652.5,2 C653.328427,2 654,2.67157288 654,3.5 L654,12.5 C654,13.3284271 653.328427,14 652.5,14 L619.5,14 C618.671573,14 618,13.3284271 618,12.5 L618,3.5 C618,2.67157288 618.671573,2 619.5,2 L652.5,2 Z M657.5,2 C658.328427,2 659,2.67157288 659,3.5 L659,12.5 C659,13.3284271 658.328427,14 657.5,14 C656.671573,14 656,13.3284271 656,12.5 L656,3.5 C656,2.67157288 656.671573,2 657.5,2 Z M757.5,2 C758.328427,2 759,2.67157288 759,3.5 L759,12.5 C759,13.3284271 758.328427,14 757.5,14 L747.5,14 C746.671573,14 746,13.3284271 746,12.5 L746,3.5 C746,2.67157288 746.671573,2 747.5,2 L757.5,2 Z M432.5,2 C433.328427,2 434,2.67157288 434,3.5 L434,12.5 C434,13.3284271 433.328427,14 432.5,14 L404.5,14 C403.671573,14 403,13.3284271 403,12.5 L403,3.5 C403,2.67157288 403.671573,2 404.5,2 L432.5,2 Z" id="Combined-Shape"></path>
                </g>
            </g>
        </g>
    </g>
</svg>