<?xml version="1.0" encoding="UTF-8"?>
<svg width="972px" height="16px" viewBox="0 0 972 16" version="1.1" xmlns="http://www.w3.org/2000/svg" xmlns:xlink="http://www.w3.org/1999/xlink">
    <!-- Generator: Sketch 58 (84663) - https://sketch.com -->
    <title>recipe-analysis-gray</title>
    <desc>Created with Sketch.</desc>
    <g id="Landing-Pages" stroke="none" stroke-width="1" fill="none" fill-rule="evenodd" fill-opacity="0.4">
        <g id="Group-14" transform="translate(-532.000000, -457.000000)" fill="#92A1AE">
            <g id="Group-26" transform="translate(381.000000, 393.000000)">
                <g id="Group-23" transform="translate(151.000000, 64.000000)">
                    <path d="M127.5,2 C128.328427,2 129,2.67157288 129,3.5 L129,12.5 C129,13.3284271 128.328427,14 127.5,14 L1.5,14 C0.671572875,14 1.01453063e-16,13.3284271 0,12.5 L0,3.5 C-1.01453063e-16,2.67157288 0.671572875,2 1.5,2 L127.5,2 Z M178.5,2 C179.328427,2 180,2.67157288 180,3.5 L180,12.5 C180,13.3284271 179.328427,14 178.5,14 L161.5,14 C160.671573,14 160,13.3284271 160,12.5 L160,3.5 C160,2.67157288 160.671573,2 161.5,2 L178.5,2 Z M248.5,2 C249.328427,2 250,2.67157288 250,3.5 L250,12.5 C250,13.3284271 249.328427,14 248.5,14 L191.5,14 C190.671573,14 190,13.3284271 190,12.5 L190,3.5 C190,2.67157288 190.671573,2 191.5,2 L248.5,2 Z M268.5,2 C269.328427,2 270,2.67157288 270,3.5 L270,12.5 C270,13.3284271 269.328427,14 268.5,14 L261.5,14 C260.671573,14 260,13.3284271 260,12.5 L260,3.5 C260,2.67157288 260.671573,2 261.5,2 L268.5,2 Z M308.5,2 C309.328427,2 310,2.67157288 310,3.5 L310,12.5 C310,13.3284271 309.328427,14 308.5,14 L301.5,14 C300.671573,14 300,13.3284271 300,12.5 L300,3.5 C300,2.67157288 300.671573,2 301.5,2 L308.5,2 Z M477.5,2 C478.328427,2 479,2.67157288 479,3.5 L479,12.5 C479,13.3284271 478.328427,14 477.5,14 L471.5,14 C470.671573,14 470,13.3284271 470,12.5 L470,3.5 C470,2.67157288 470.671573,2 471.5,2 L477.5,2 Z M697.5,2 C698.328427,2 699,2.67157288 699,3.5 L699,12.5 C699,13.3284271 698.328427,14 697.5,14 L671.5,14 C670.671573,14 670,13.3284271 670,12.5 L670,3.5 C670,2.67157288 670.671573,2 671.5,2 L697.5,2 Z M792.5,2 C793.328427,2 794,2.67157288 794,3.5 L794,12.5 C794,13.3284271 793.328427,14 792.5,14 L781.5,14 C780.671573,14 780,13.3284271 780,12.5 L780,3.5 C780,2.67157288 780.671573,2 781.5,2 L792.5,2 Z M371.5,2 C372.328427,2 373,2.67157288 373,3.5 L373,12.5 C373,13.3284271 372.328427,14 371.5,14 C370.671573,14 370,13.3284271 370,12.5 L370,3.5 C370,2.67157288 370.671573,2 371.5,2 Z M401.5,2 C402.328427,2 403,2.67157288 403,3.5 L403,12.5 C403,13.3284271 402.328427,14 401.5,14 C400.671573,14 400,13.3284271 400,12.5 L400,3.5 C400,2.67157288 400.671573,2 401.5,2 Z M571.5,2 C572.328427,2 573,2.67157288 573,3.5 L573,12.5 C573,13.3284271 572.328427,14 571.5,14 C570.671573,14 570,13.3284271 570,12.5 L570,3.5 C570,2.67157288 570.671573,2 571.5,2 Z M865.5,2 C866.328427,2 867,2.67157288 867,3.5 L867,12.5 C867,13.3284271 866.328427,14 865.5,14 L845.5,14 C844.671573,14 844,13.3284271 844,12.5 L844,3.5 C844,2.67157288 844.671573,2 845.5,2 L865.5,2 Z M746.5,2 C747.328427,2 748,2.67157288 748,3.5 L748,12.5 C748,13.3284271 747.328427,14 746.5,14 C745.671573,14 745,13.3284271 745,12.5 L745,3.5 C745,2.67157288 745.671573,2 746.5,2 Z M419.5,2 C420.328427,2 421,2.67157288 421,3.5 L421,12.5 C421,13.3284271 420.328427,14 419.5,14 L406.5,14 C405.671573,14 405,13.3284271 405,12.5 L405,3.5 C405,2.67157288 405.671573,2 406.5,2 L419.5,2 Z M629.5,2 C630.328427,2 631,2.67157288 631,3.5 L631,12.5 C631,13.3284271 630.328427,14 629.5,14 L576.5,14 C575.671573,14 575,13.3284271 575,12.5 L575,3.5 C575,2.67157288 575.671573,2 576.5,2 L629.5,2 Z M919.5,2 C920.328427,2 921,2.67157288 921,3.5 L921,12.5 C921,13.3284271 920.328427,14 919.5,14 C918.671573,14 918,13.3284271 918,12.5 L918,3.5 C918,2.67157288 918.671573,2 919.5,2 Z M427.5,2 C428.328427,2 429,2.67157288 429,3.5 L429,12.5 C429,13.3284271 428.328427,14 427.5,14 C426.671573,14 426,13.3284271 426,12.5 L426,3.5 C426,2.67157288 426.671573,2 427.5,2 Z M815.5,2 C816.328427,2 817,2.67157288 817,3.5 L817,12.5 C817,13.3284271 816.328427,14 815.5,14 C814.671573,14 814,13.3284271 814,12.5 L814,3.5 C814,2.67157288 814.671573,2 815.5,2 Z M878.5,2 C879.328427,2 880,2.67157288 880,3.5 L880,12.5 C880,13.3284271 879.328427,14 878.5,14 C877.671573,14 877,13.3284271 877,12.5 L877,3.5 C877,2.67157288 877.671573,2 878.5,2 Z M958.5,2 C959.328427,2 960,2.67157288 960,3.5 L960,12.5 C960,13.3284271 959.328427,14 958.5,14 L936.5,14 C935.671573,14 935,13.3284271 935,12.5 L935,3.5 C935,2.67157288 935.671573,2 936.5,2 L958.5,2 Z M969.5,2 C970.328427,2 971,2.67157288 971,3.5 L971,12.5 C971,13.3284271 970.328427,14 969.5,14 L963.5,14 C962.671573,14 962,13.3284271 962,12.5 L962,3.5 C962,2.67157288 962.671573,2 963.5,2 L969.5,2 Z M464.5,2 C465.328427,2 466,2.67157288 466,3.5 L466,12.5 C466,13.3284271 465.328427,14 464.5,14 C463.671573,14 463,13.3284271 463,12.5 L463,3.5 C463,2.67157288 463.671573,2 464.5,2 Z M908.5,2 C909.328427,2 910,2.67157288 910,3.5 L910,12.5 C910,13.3284271 909.328427,14 908.5,14 C907.671573,14 907,13.3284271 907,12.5 L907,3.5 C907,2.67157288 907.671573,2 908.5,2 Z M486.5,2 C487.328427,2 488,2.67157288 488,3.5 L488,12.5 C488,13.3284271 487.328427,14 486.5,14 C485.671573,14 485,13.3284271 485,12.5 L485,3.5 C485,2.67157288 485.671573,2 486.5,2 Z M481.5,2 C482.328427,2 483,2.67157288 483,3.5 L483,12.5 C483,13.3284271 482.328427,14 481.5,14 C480.671573,14 480,13.3284271 480,12.5 L480,3.5 C480,2.67157288 480.671573,2 481.5,2 Z M459.5,2 C460.328427,2 461,2.67157288 461,3.5 L461,12.5 C461,13.3284271 460.328427,14 459.5,14 L438.5,14 C437.671573,14 437,13.3284271 437,12.5 L437,3.5 C437,2.67157288 437.671573,2 438.5,2 L459.5,2 Z M903.5,2 C904.328427,2 905,2.67157288 905,3.5 L905,12.5 C905,13.3284271 904.328427,14 903.5,14 L882.5,14 C881.671573,14 881,13.3284271 881,12.5 L881,3.5 C881,2.67157288 881.671573,2 882.5,2 L903.5,2 Z M519.5,2 C520.328427,2 521,2.67157288 521,3.5 L521,12.5 C521,13.3284271 520.328427,14 519.5,14 C518.671573,14 518,13.3284271 518,12.5 L518,3.5 C518,2.67157288 518.671573,2 519.5,2 Z M529.5,2 C530.328427,2 531,2.67157288 531,3.5 L531,12.5 C531,13.3284271 530.328427,14 529.5,14 C528.671573,14 528,13.3284271 528,12.5 L528,3.5 C528,2.67157288 528.671573,2 529.5,2 Z M545.5,2 C546.328427,2 547,2.67157288 547,3.5 L547,12.5 C547,13.3284271 546.328427,14 545.5,14 L535.5,14 C534.671573,14 534,13.3284271 534,12.5 L534,3.5 C534,2.67157288 534.671573,2 535.5,2 L545.5,2 Z M366.5,2 C367.328427,2 368,2.67157288 368,3.5 L368,12.5 C368,13.3284271 367.328427,14 366.5,14 L335.5,14 C334.671573,14 334,13.3284271 334,12.5 L334,3.5 C334,2.67157288 334.671573,2 335.5,2 L366.5,2 Z" id="Combined-Shape"></path>
                </g>
            </g>
        </g>
    </g>
</svg>