<?xml version="1.0" encoding="UTF-8"?>
<svg width="766px" height="16px" viewBox="0 0 766 16" version="1.1" xmlns="http://www.w3.org/2000/svg" xmlns:xlink="http://www.w3.org/1999/xlink">
    <!-- Generator: Sketch 58 (84663) - https://sketch.com -->
    <title>recipe-qa-gray</title>
    <desc>Created with Sketch.</desc>
    <g id="Landing-Pages" stroke="none" stroke-width="1" fill="none" fill-rule="evenodd" fill-opacity="0.4">
        <g id="Group-14" transform="translate(-743.000000, -649.000000)" fill="#92A1AE">
            <g id="Group-26" transform="translate(381.000000, 393.000000)">
                <g id="Group" transform="translate(362.000000, 256.000000)">
                    <path d="M755,2 C756.104569,2 757,2.8954305 757,4 L757,12 C757,13.1045695 756.104569,14 755,14 L749,14 C747.895431,14 747,13.1045695 747,12 L747,4 C747,2.8954305 747.895431,2 749,2 L755,2 Z M763.5,2 C764.328427,2 765,2.67157288 765,3.5 L765,12.5 C765,13.3284271 764.328427,14 763.5,14 C762.671573,14 762,13.3284271 762,12.5 L762,3.5 C762,2.67157288 762.671573,2 763.5,2 Z M742,2 C743.104569,2 744,2.8954305 744,4 L744,12 C744,13.1045695 743.104569,14 742,14 L2,14 C0.8954305,14 1.3527075e-16,13.1045695 0,12 L0,4 C-1.3527075e-16,2.8954305 0.8954305,2 2,2 L742,2 Z" id="Combined-Shape"></path>
                </g>
            </g>
        </g>
    </g>
</svg>