<svg height="164" viewBox="0 0 24 164" width="24" xmlns="http://www.w3.org/2000/svg" xmlns:xlink="http://www.w3.org/1999/xlink"><linearGradient id="a" x1="50%" x2="50%" y1="0%" y2="100%"><stop offset="0" stop-color="#12c8fc"/><stop offset="1" stop-color="#1860ed"/></linearGradient><linearGradient id="b" x1="50%" x2="50%" y1="100%" y2="0%"><stop offset="0" stop-color="#009dff"/><stop offset="1" stop-color="#009fff" stop-opacity="0"/></linearGradient><g fill="none" fill-rule="evenodd"><path d="m12 164c-6.627417 0-12-5.372583-12-12s5.372583-12 12-12 12 5.372583 12 12-5.372583 12-12 12zm4.3531738-10.877992-2.9160333-5.027803c-.5851898.481684-1.1774874 1.911819-.3493995 3.339602l3.6615833 6.313274c.273381.471362.8788555.632862 1.3523652.360721.4735097-.27214.6357461-.874868.3623651-1.346229l-.9677273-1.668548h1.4336727c.5467619 0 .99-.441227.99-.985509 0-.544281-.4432381-.985508-.99-.985508zm-8.20173909 2.983686c-.51022059-.618869-1.16344787-.80659-1.95968182-.563165l-.70589643 1.217101-.00193949.003359c-.27107102.471649-.10847073 1.073742.36317791 1.344813.47405488.272454 1.07917318.110315 1.35349188-.362663zm3.82295749-10.533549-.4403376-.759226c-.2733809-.471362-.8788554-.632862-1.3523651-.360721-.47350972.27214-.63574613.874868-.36236518 1.346229l1.01191428 1.744735-3.235628 5.578846h-2.5256106c-.5467619 0-.99.441227-.99.985508 0 .544282.4432381.985509.99.985509h9.0043457c.4348503-.805304-.1259738-1.971017-1.1193568-1.971017-.6622553 0-1.6866124 0-3.07307123 0l4.24754233-7.323581c.273381-.471361.1111446-1.074089-.3623651-1.346229-.4735097-.272141-1.0789842-.110641-1.3523652.360721z" fill="url(#a)"/><path d="m12 133.5v-130h-1v130z" fill="url(#b)" fill-rule="nonzero"/></g></svg>