<svg height="100" viewBox="0 0 100 100" width="100" xmlns="http://www.w3.org/2000/svg" xmlns:xlink="http://www.w3.org/1999/xlink"><defs><linearGradient id="a" x1="50%" x2="50%" y1="0%" y2="100%"><stop offset="0" stop-color="#4d5463"/><stop offset="1" stop-color="#212632"/></linearGradient><circle id="b" cx="46" cy="46" r="46"/><mask id="c" fill="#fff"><use fill="#fff" fill-rule="evenodd" xlink:href="#b"/></mask></defs><g fill="none" fill-rule="evenodd" transform="translate(4 4)"><use fill="#212632" xlink:href="#b"/><use fill="url(#a)" xlink:href="#b"/><path d="m63.6181556 37.3269966c-2.5936599-6.8160954-6.8083573-13.001071-15.1080691-13.001071-6.6138329 0-17.2478387 6.0587516-17.2478387 21.9629743 0 16.0304468 9.0778098 20.3851745 15.5619597 20.3851745 6.7435158 0 10.8933718-3.6604958 10.8933718-10.0973455v-4.6708614c0-2.9662638-.9726225-3.5342717-5.5763689-3.8498317v-1.3253519h16.8587896v1.3253519c-3.9553314.31556-4.7334294 1.1360159-4.7334294 3.4711597v11.1077112c-5.5115274 3.0293757-11.4769452 5.3650933-17.8962536 5.3650933-10.6988473 0-22.370317-6.5642212-22.370317-21.7111001 0-15.7779987 11.8011527-23.2888999 22.9538905-23.2888999 5.1873199 0 10.1152738 1.1365897 14.4596542 4.0391677l2.2046109-2.7132421h.9726225l.389049 13.001071z" fill="#fff" mask="url(#c)"/></g></svg>