<svg version="1" xmlns="http://www.w3.org/2000/svg" width="337.333" height="337.333" viewBox="0 0 253.000000 253.000000"><path d="M2.9 30.4c-9.4 4.8 9.5 28.3 49.8 62.3 16 13.5 43.8 34.8 57 43.7.1.1-.8 3.3-1.9 7.1-2.9 9.5-3.1 31.9-.5 41.5 2.6 9.3 10.9 25.6 16.2 31.5l4.4 5-3.4-7c-7.9-16.4-10.7-33.4-8.1-49.5 1.3-7.9 4.8-19 6.1-19 .7 0 2.3.8 3.6 1.9 4.4 3.4 24.3 16.6 31.5 20.8 11.4 6.8 34.2 17.7 27 13-4.3-2.8-36.9-27.6-46-35.1-5.5-4.5-10.4-8.4-10.9-8.7-1.6-1.1.3-4.7 5.6-11.2 15.1-18.4 34-28.2 56.7-29.4 20.7-1.1 39.2 4.8 54.5 17.4 7.7 6.3 7.2 4.6-1.1-4.5-9.9-10.9-21.8-18.4-36.4-22.9-11.2-3.5-28.8-4.1-39.5-1.3-16.3 4.2-28.4 10.9-38.8 21.6-5.9 6.1-12.3 14.5-13.6 17.7-.7 1.8-4.4-.9-23.5-17.3-1.6-1.4-6.3-5.4-10.5-9C70 89.5 64.9 84.8 51.8 72.1 34.1 54.9 31.5 50 39.9 50c10.1 0 35.9 11.9 67.3 31.1 7.1 4.3 12.8 7.6 12.8 7.4 0-.7-25-16.9-41-26.5C49.6 44.4 20.8 31 9.2 29.7c-2.2-.3-5 0-6.3.7z"/><path d="M200.8 173.1c-4.7 1.4-11.3 7.1-13.8 11.9-2.6 5-3.4 12.6-2.1 17.7 1.2 4.4 6.5 12.3 8.3 12.3.7 0 .5-.7-.4-1.8-2.7-3-4-6.2-4.5-11.3-1.8-16.7 14.6-30.8 29.7-25.5 2.4.8 4.5 1.4 4.7 1.2.2-.1-1.5-1.3-3.7-2.5-4.6-2.6-12.8-3.5-18.2-2z"/></svg>