<svg width="230" height="160" viewBox="0 0 230 160" xmlns="http://www.w3.org/2000/svg"><g fill="none" fill-rule="evenodd"><path d="M68.763 101.507h48.56l47.533-47.253H68.763v47.253zm57.026-38.37l-9.459-.003V85.49l-8.263-22.355h-8.193l-7.056 18.694c-.747-4.711-5.653-6.343-9.514-7.563-2.552-.812-5.25-2.01-5.225-3.333.017-1.084 1.451-2.093 4.28-1.94 1.902.102 3.583.252 6.918 1.855l3.294-5.69c-3.052-1.544-7.265-2.515-10.716-2.52h-.023c-4.025 0-7.381 1.3-9.459 3.434-1.448 1.493-2.23 3.385-2.264 5.484-.052 2.887 1.012 4.932 3.25 6.567 1.885 1.374 4.3 2.267 6.43 2.926 2.624.806 4.768 1.509 4.741 3.007a2.154 2.154 0 0 1-.618 1.467c-.657.673-1.66.926-3.049.952-2.683.054-4.669-.363-7.832-2.222l-2.922 5.768c3.158 1.786 6.897 2.832 10.706 2.832l.492-.004c3.32-.059 5.998-1.004 8.142-2.715.118-.094.232-.197.345-.296l-.946 2.521h8.589l1.443-4.36c1.51.506 3.226.793 5.05.793 1.772 0 3.448-.27 4.93-.753l1.39 4.32h14.01v-9.03h3.056c7.387 0 11.76-3.738 11.76-10.007 0-6.981-4.246-10.184-13.287-10.184zM103.93 82.27a8.629 8.629 0 0 1-3.031-.532l3-9.401h.06l2.939 9.428a8.781 8.781 0 0 1-2.968.505zm22.417-5.405h-2.086v-7.579h2.086c2.779 0 4.99.917 4.99 3.746 0 2.916-2.211 3.833-4.99 3.833zm4.457 21.364v-1.091h.737c.368 0 .765.078.765.517 0 .546-.404.574-.855.574h-.647zm0 .455h.62l.936 1.53h.606l-1.015-1.554c.522-.062.923-.339.923-.972 0-.696-.414-1.005-1.252-1.005h-1.355v3.532h.537v-1.53zm.654 2.831c1.677 0 3.114-1.3 3.114-3.072 0-1.76-1.437-3.057-3.114-3.057-1.697 0-3.13 1.297-3.13 3.057 0 1.772 1.433 3.072 3.13 3.072zm-2.51-3.072c0-1.451 1.1-2.55 2.51-2.55 1.391 0 2.494 1.099 2.494 2.55 0 1.476-1.103 2.56-2.494 2.56-1.41 0-2.51-1.084-2.51-2.56z" opacity=".301" fill="#D4E1ED"/></g></svg>