<svg xmlns="http://www.w3.org/2000/svg" width="115.305" height="57" viewBox="0 0 115.305 57"><g fill-rule="evenodd" clip-rule="evenodd" fill="#FFF"><path d="M0 0v57h58.429l56.876-57H0zm70.385 35H67v11H49.964l-1.662-5.242c-1.774.582-3.78.886-5.901.886-2.182 0-4.235-.314-6.042-.923L34.632 46H24.354l1.132-3.077c-.135.12-.271.465-.412.578C22.509 45.561 19.305 46 15.331 47h-.589c-4.559 0-9.031-1.504-12.812-3.653l3.497-7.065c3.785 2.237 6.162 2.678 9.372 2.614 1.662-.032 2.862-.367 3.648-1.178a2.634 2.634 0 0 0 .739-1.78c.032-1.805-2.533-2.658-5.674-3.627-2.547-.793-5.438-1.873-7.692-3.527-2.679-1.968-3.952-4.431-3.891-7.906.042-2.527.977-4.875 2.71-6.672C7.127 11.636 11.144 10 15.96 10h.027c4.129 0 9.17 1.246 12.821 3.104l-3.94 6.885c-3.991-1.93-6.002-2.093-8.278-2.215-3.385-.184-5.101 1.04-5.122 2.344-.028 1.592 3.199 3.039 6.254 4.016 4.619 1.469 10.489 3.565 11.383 9.235L37.549 11h9.803L57 37.648V10.74l11.438.003c10.818 0 15.961 3.832 15.961 12.235C84.398 30.524 79.225 35 70.385 35z"/><path d="M69.224 18H67v9h2.224c3.326 0 5.973-1.042 5.973-4.553C75.196 19.042 72.55 18 69.224 18zm-26.861 4l-3.591 11.225c1.069.406 2.31.595 3.628.595 1.288 0 2.495-.156 3.551-.539L42.437 22h-.074z"/></g><path fill="#FFF" d="M72.336 53.241c0-1.747 1.318-3.069 3.005-3.069 1.664 0 2.984 1.322 2.984 3.069 0 1.776-1.32 3.082-2.984 3.082-1.687 0-3.005-1.306-3.005-3.082zm3.005 3.697c2.007 0 3.726-1.565 3.726-3.698 0-2.119-1.719-3.68-3.726-3.68-2.031 0-3.746 1.562-3.746 3.68 0 2.133 1.715 3.698 3.746 3.698zm-.782-3.407h.741l1.12 1.842h.725l-1.214-1.872c.624-.073 1.104-.407 1.104-1.169 0-.837-.496-1.209-1.499-1.209h-1.62v4.251h.643v-1.843zm0-.548v-1.314h.881c.44 0 .916.094.916.624 0 .656-.484.69-1.023.69h-.774z"/></svg>