<?xml version="1.0" encoding="UTF-8"?>
<svg width="230px" height="160px" viewBox="0 0 230 160" version="1.1" xmlns="http://www.w3.org/2000/svg" xmlns:xlink="http://www.w3.org/1999/xlink">
    <!-- Generator: Sketch 48.2 (47327) - http://www.bohemiancoding.com/sketch -->
    <defs></defs>
    <g id="---Logos" stroke="none" stroke-width="1" fill="none" fill-rule="evenodd" opacity="0.301">
        <g id="Group-2" fill="#D4E1ED">
            <path d="M68.3063584,72.262085 L66.1560694,73.4152592 C65.816954,72.7163623 65.3969197,72.366919 64.8959538,72.366919 C64.6570316,72.366919 64.4527947,72.4465144 64.283237,72.6057076 C64.1136793,72.7649008 64.0289017,72.9687427 64.0289017,73.2172394 C64.0289017,73.6521086 64.5298601,74.0830885 65.5317919,74.5101922 C66.9113749,75.1081373 67.8400747,75.6594811 68.3179191,76.16424 C68.7957635,76.6689988 69.0346821,77.3484718 69.0346821,78.2026791 C69.0346821,79.2976176 68.6339154,80.2139354 67.8323699,80.9516599 C67.053946,81.6505568 66.1136857,82 65.0115607,82 C63.1233046,82 61.7861311,81.0720341 61,79.2160745 L63.2196532,78.1793826 C63.5279399,78.7229691 63.763005,79.0685296 63.9248555,79.2160745 C64.2408494,79.5111644 64.6184949,79.658707 65.0578035,79.658707 C65.9364206,79.658707 66.3757225,79.254906 66.3757225,78.4472918 C66.3757225,77.9813605 66.0366123,77.5464978 65.3583815,77.1426907 C65.0963378,77.0106769 64.834298,76.8825477 64.5722543,76.7582994 C64.3102106,76.634051 64.0443173,76.5059218 63.7745665,76.373908 C63.019264,76.001163 62.4874775,75.6284235 62.1791908,75.2556785 C61.7861252,74.7819817 61.5895954,74.1723974 61.5895954,73.4269074 C61.5895954,72.4406862 61.9248521,71.6253187 62.5953757,70.9807804 C63.2813136,70.3362422 64.1136753,70.0139779 65.0924855,70.0139779 C66.5337259,70.0139779 67.6050061,70.7633394 68.3063584,72.262085 Z M93.2312139,70.8177053 L93.2312139,74.3005242 C92.637762,73.5705652 92.1059754,73.0696966 91.6358382,72.7979033 C91.1734081,72.5183446 90.6300609,72.3785673 90.0057803,72.3785673 C89.0269701,72.3785673 88.2138761,72.7241278 87.566474,73.4152592 C86.9190719,74.1063906 86.5953757,74.9722332 86.5953757,76.012813 C86.5953757,77.0766895 86.9075113,77.9502975 87.5317919,78.6336634 C88.1637797,79.3170292 88.9691666,79.658707 89.9479769,79.658707 C90.5722575,79.658707 91.1233117,79.5228125 91.6011561,79.2510192 C92.0635861,78.9869915 92.6069333,78.4744748 93.2312139,77.7134537 L93.2312139,81.1729761 C92.1753319,81.7243281 91.1194658,82 90.0635838,82 C88.3217639,82 86.8651311,81.4331255 85.6936416,80.2993593 C84.5221521,79.1578277 83.9364162,77.7406414 83.9364162,76.0477577 C83.9364162,74.3548741 84.5298592,72.9260396 85.716763,71.7612114 C86.9036668,70.5963832 88.3602997,70.0139779 90.0867052,70.0139779 C91.1965373,70.0139779 92.2446964,70.2818843 93.2312139,70.8177053 Z M95.2196532,75.9196273 C95.2196532,74.2811023 95.8015356,72.8872121 96.9653179,71.737915 C98.1291002,70.5886178 99.5471978,70.0139779 101.219653,70.0139779 C102.899816,70.0139779 104.32562,70.5925005 105.49711,71.7495632 C106.653185,72.9066259 107.231214,74.3276949 107.231214,76.012813 C107.231214,77.7134622 106.649331,79.138414 105.485549,80.2877111 C104.31406,81.4292427 102.876694,82 101.17341,82 C99.4855407,82 98.0712966,81.4175946 96.9306358,80.2527665 C95.789975,79.1034693 95.2196532,77.659104 95.2196532,75.9196273 Z M97.8786127,75.9662202 C97.8786127,77.0999863 98.1791877,77.9968905 98.7803468,78.6569598 C99.3969202,79.3247946 100.210014,79.658707 101.219653,79.658707 C102.236999,79.658707 103.050093,79.3286773 103.65896,78.668608 C104.267826,78.0085387 104.572254,77.1271653 104.572254,76.0244613 C104.572254,74.9217573 104.267826,74.0403838 103.65896,73.3803145 C103.042386,72.7124797 102.229292,72.3785673 101.219653,72.3785673 C100.225429,72.3785673 99.4200416,72.7124797 98.8034682,73.3803145 C98.1868948,74.0481493 97.8786127,74.9101093 97.8786127,75.9662202 Z M109.982659,70.3284799 L112.595376,70.3284799 L112.595376,71.37682 C113.504822,70.468254 114.529859,70.0139779 115.67052,70.0139779 C116.980739,70.0139779 118.001923,70.429427 118.734104,71.2603378 C119.366092,71.9670002 119.682081,73.1201628 119.682081,74.7198602 L119.682081,81.6738497 L117.069364,81.6738497 L117.069364,75.3372161 C117.069364,74.218981 116.915223,73.4463232 116.606936,73.0192196 C116.306357,72.5843504 115.759156,72.366919 114.965318,72.366919 C114.102115,72.366919 113.489405,72.654239 113.127168,73.2288876 C112.772638,73.7957706 112.595376,74.7858598 112.595376,76.1991846 L112.595376,81.6738497 L109.982659,81.6738497 L109.982659,70.3284799 Z M131.265896,62 L133.878613,62 L133.878613,81.6738497 L131.265896,81.6738497 L131.265896,80.4857309 C130.240843,81.4952487 129.080931,82 127.786127,82 C126.244694,82 124.965323,81.4331255 123.947977,80.2993593 C122.938338,79.1422967 122.433526,77.6979314 122.433526,75.9662202 C122.433526,74.2733365 122.938338,72.8600328 123.947977,71.7262667 C124.949909,70.5847351 126.210012,70.0139779 127.728324,70.0139779 C129.046249,70.0139779 130.225428,70.5575562 131.265896,71.6447292 L131.265896,62 Z M125.092486,75.9662202 C125.092486,77.0533931 125.3815,77.9386493 125.959538,78.6220151 C126.552989,79.3131465 127.300574,79.658707 128.202312,79.658707 C129.165708,79.658707 129.94412,79.3247946 130.537572,78.6569598 C131.131024,77.9658284 131.427746,77.0883377 131.427746,76.0244613 C131.427746,74.9605849 131.131024,74.0830941 130.537572,73.3919627 C129.94412,72.7163624 129.173415,72.3785673 128.225434,72.3785673 C127.331402,72.3785673 126.583818,72.7202451 125.982659,73.4036109 C125.389207,74.0947423 125.092486,74.9489369 125.092486,75.9662202 Z M143.705202,72.262085 L141.554913,73.4152592 C141.215798,72.7163623 140.795764,72.366919 140.294798,72.366919 C140.055875,72.366919 139.851639,72.4465144 139.682081,72.6057076 C139.512523,72.7649008 139.427746,72.9687427 139.427746,73.2172394 C139.427746,73.6521086 139.928704,74.0830885 140.930636,74.5101922 C142.310219,75.1081373 143.238919,75.6594811 143.716763,76.16424 C144.194607,76.6689988 144.433526,77.3484718 144.433526,78.2026791 C144.433526,79.2976176 144.032759,80.2139354 143.231214,80.9516599 C142.45279,81.6505568 141.51253,82 140.410405,82 C138.522149,82 137.184975,81.0720341 136.398844,79.2160745 L138.618497,78.1793826 C138.926784,78.7229691 139.161849,79.0685296 139.323699,79.2160745 C139.639693,79.5111644 140.017339,79.658707 140.456647,79.658707 C141.335265,79.658707 141.774566,79.254906 141.774566,78.4472918 C141.774566,77.9813605 141.435456,77.5464978 140.757225,77.1426907 C140.495182,77.0106769 140.233142,76.8825477 139.971098,76.7582994 C139.709055,76.634051 139.443161,76.5059218 139.17341,76.373908 C138.418108,76.001163 137.886321,75.6284235 137.578035,75.2556785 C137.184969,74.7819817 136.988439,74.1723974 136.988439,73.4269074 C136.988439,72.4406862 137.323696,71.6253187 137.99422,70.9807804 C138.680158,70.3362422 139.512519,70.0139779 140.491329,70.0139779 C141.93257,70.0139779 143.00385,70.7633394 143.705202,72.262085 Z M149.450867,72.7746069 L149.450867,81.6738497 L146.849711,81.6738497 L146.849711,72.7746069 L145.739884,72.7746069 L145.739884,70.3284799 L146.849711,70.3284799 L146.849711,66.1700641 L149.450867,66.1700641 L149.450867,70.3284799 L151.473988,70.3284799 L151.473988,72.7746069 L149.450867,72.7746069 Z M153.242775,70.3284799 L155.843931,70.3284799 L155.843931,71.3418754 C156.321775,70.8371165 156.745663,70.491556 157.115607,70.3051835 C157.493258,70.1110454 157.940267,70.0139779 158.456647,70.0139779 C159.142585,70.0139779 159.859341,70.2391746 160.606936,70.6895748 L159.416185,73.0891089 C158.922926,72.7318949 158.441235,72.5532906 157.971098,72.5532906 C156.552979,72.5532906 155.843931,73.6326819 155.843931,75.7914968 L155.843931,81.6738497 L153.242775,81.6738497 L153.242775,70.3284799 Z M190.976879,72.7746069 L190.976879,81.6738497 L188.375723,81.6738497 L188.375723,72.7746069 L187.265896,72.7746069 L187.265896,70.3284799 L188.375723,70.3284799 L188.375723,66.1700641 L190.976879,66.1700641 L190.976879,70.3284799 L193,70.3284799 L193,72.7746069 L190.976879,72.7746069 Z M81.600562,75.2153202 L73.8061547,77.3038254 C74.1143395,78.1859826 74.5966119,78.824515 75.2529864,79.2194415 C75.907351,79.6068672 76.6365282,79.6928616 77.4405399,79.4774273 C78.0658823,79.3098674 78.5430742,79.0212174 78.87213,78.6114688 C79.1937412,78.203715 79.5028465,77.5259794 79.7994552,76.5782417 L82.2407089,77.2023774 C82.0638885,77.8527157 81.8468539,78.4273975 81.5895986,78.9264399 C81.3323433,79.4254823 81.0299429,79.8602411 80.6823883,80.2307295 C80.3348337,80.6012178 79.9351934,80.9112944 79.4834553,81.1609686 C79.0317173,81.4106428 78.5229629,81.6112778 77.9571769,81.7628797 C76.3342645,82.1977378 74.890799,82.0217595 73.626737,81.2349396 C72.3606652,80.4406188 71.493493,79.1696205 71.0251945,77.4219067 C70.5609157,75.6891948 70.6615209,74.1588814 71.3270129,72.8309207 C72.0039692,71.5159671 73.1352752,70.6460612 74.7209648,70.2211769 C76.3215436,69.7923031 77.7247721,69.9670038 78.9306926,70.7452843 C80.1271587,71.5180587 80.9675679,72.808287 81.4519453,74.6160082 L81.600562,75.2153202 Z M78.4713356,73.8361456 C77.7596659,72.5797342 76.7338368,72.1310638 75.3938174,72.490121 C75.0885908,72.5719062 74.8145413,72.6955834 74.5716607,72.8611563 C74.3287801,73.0267292 74.1211517,73.2270711 73.9487693,73.4621882 C73.7763868,73.6973052 73.6451925,73.9595699 73.5551824,74.2489902 C73.4651724,74.5384105 73.4214301,74.8516064 73.4239544,75.1885873 L78.4713356,73.8361456 Z M172.328886,75.2153202 L164.534478,77.3038254 C164.842663,78.1859826 165.324936,78.824515 165.98131,79.2194415 C166.635675,79.6068672 167.364852,79.6928616 168.168864,79.4774273 C168.794206,79.3098674 169.271398,79.0212174 169.600454,78.6114688 C169.922065,78.203715 170.23117,77.5259794 170.527779,76.5782417 L172.969033,77.2023774 C172.792212,77.8527157 172.575178,78.4273975 172.317922,78.9264399 C172.060667,79.4254823 171.758267,79.8602411 171.410712,80.2307295 C171.063157,80.6012178 170.663517,80.9112944 170.211779,81.1609686 C169.760041,81.4106428 169.251287,81.6112778 168.685501,81.7628797 C167.062588,82.1977378 165.619123,82.0217595 164.355061,81.2349396 C163.088989,80.4406188 162.221817,79.1696205 161.753518,77.4219067 C161.289239,75.6891948 161.389845,74.1588814 162.055337,72.8309207 C162.732293,71.5159671 163.863599,70.6460612 165.449289,70.2211769 C167.049867,69.7923031 168.453096,69.9670038 169.659016,70.7452843 C170.855482,71.5180587 171.695892,72.808287 172.180269,74.6160082 L172.328886,75.2153202 Z M169.199659,73.8361456 C168.48799,72.5797342 167.462161,72.1310638 166.122141,72.490121 C165.816914,72.5719062 165.542865,72.6955834 165.299984,72.8611563 C165.057104,73.0267292 164.849475,73.2270711 164.677093,73.4621882 C164.50471,73.6973052 164.373516,73.9595699 164.283506,74.2489902 C164.193496,74.5384105 164.149754,74.8516064 164.152278,75.1885873 L169.199659,73.8361456 Z M185.427152,75.2153202 L177.632744,77.3038254 C177.940929,78.1859826 178.423201,78.824515 179.079576,79.2194415 C179.733941,79.6068672 180.463118,79.6928616 181.267129,79.4774273 C181.892472,79.3098674 182.369664,79.0212174 182.69872,78.6114688 C183.020331,78.203715 183.329436,77.5259794 183.626045,76.5782417 L186.067299,77.2023774 C185.890478,77.8527157 185.673443,78.4273975 185.416188,78.9264399 C185.158933,79.4254823 184.856532,79.8602411 184.508978,80.2307295 C184.161423,80.6012178 183.761783,80.9112944 183.310045,81.1609686 C182.858307,81.4106428 182.349552,81.6112778 181.783766,81.7628797 C180.160854,82.1977378 178.717389,82.0217595 177.453327,81.2349396 C176.187255,80.4406188 175.320083,79.1696205 174.851784,77.4219067 C174.387505,75.6891948 174.48811,74.1588814 175.153602,72.8309207 C175.830559,71.5159671 176.961865,70.6460612 178.547554,70.2211769 C180.148133,69.7923031 181.551362,69.9670038 182.757282,70.7452843 C183.953748,71.5180587 184.794157,72.808287 185.278535,74.6160082 L185.427152,75.2153202 Z M182.297925,73.8361456 C181.586256,72.5797342 180.560426,72.1310638 179.220407,72.490121 C178.91518,72.5719062 178.641131,72.6955834 178.39825,72.8611563 C178.15537,73.0267292 177.947741,73.2270711 177.775359,73.4621882 C177.602976,73.6973052 177.471782,73.9595699 177.381772,74.2489902 C177.291762,74.5384105 177.24802,74.8516064 177.250544,75.1885873 L182.297925,73.8361456 Z" id="Combined-Shape"></path>
            <path d="M141.236104,95.9889043 C140.081131,95.9889043 138.915262,95.5783634 138,94.7461859 L138.991534,93.5367545 C139.67798,94.1137309 140.397114,94.479889 141.268792,94.479889 C141.955239,94.479889 142.369286,94.2024965 142.369286,93.7253814 C142.369286,93.2926491 142.107782,93.0707351 140.832953,92.7378641 C139.296621,92.3384189 138.305087,91.9056865 138.305087,90.3411928 C138.305087,88.9320388 139.416477,88 140.974601,88 C142.08599,88 143.03394,88.3550624 143.807554,88.9875173 L142.935876,90.2746186 C142.260326,89.7975035 141.595672,89.5090153 140.952809,89.5090153 C140.309947,89.5090153 139.972171,89.8085992 139.972171,90.2080444 C139.972171,90.7184466 140.299051,90.8848821 141.617463,91.2288488 C143.164692,91.6393897 144.03637,92.2052705 144.03637,93.5811373 C144.03637,95.1234397 142.881396,95.9889043 141.236104,95.9889043 Z M150.461032,96 C148.412589,96 147.159552,94.8349515 147.159552,92.5492372 L147.159552,88.110957 L148.837532,88.110957 L148.837532,92.5048544 C148.837532,93.7697642 149.458603,94.4244105 150.482824,94.4244105 C151.507046,94.4244105 152.128116,93.7919556 152.128116,92.5603329 L152.128116,88.110957 L153.806097,88.110957 L153.806097,92.4937587 C153.806097,94.8460472 152.509476,96 150.461032,96 Z M157.299742,95.8779473 L157.299742,88.110957 L159.108474,88.110957 L161.113333,91.3952843 L163.118192,88.110957 L164.926924,88.110957 L164.926924,95.8779473 L163.25984,95.8779473 L163.25984,90.8072122 L161.113333,94.1248266 L161.069749,94.1248266 L158.945034,90.8404993 L158.945034,95.8779473 L157.299742,95.8779473 Z M168.540425,95.8779473 L168.540425,88.110957 L170.349157,88.110957 L172.354016,91.3952843 L174.358876,88.110957 L176.167607,88.110957 L176.167607,95.8779473 L174.500523,95.8779473 L174.500523,90.8072122 L172.354016,94.1248266 L172.310432,94.1248266 L170.185717,90.8404993 L170.185717,95.8779473 L168.540425,95.8779473 Z M179.85738,95.8779473 L179.85738,88.110957 L181.535361,88.110957 L181.535361,95.8779473 L179.85738,95.8779473 Z M187.001177,95.8779473 L187.001177,89.6865465 L184.680335,89.6865465 L184.680335,88.110957 L191,88.110957 L191,89.6865465 L188.679157,89.6865465 L188.679157,95.8779473 L187.001177,95.8779473 Z" id="SUMMIT"></path>
            <path d="M39.7531345,86.977698 L39.7531345,75.0150379 L45.6039759,80.8658793 C47.3424388,82.6043423 50.1610442,82.6043423 51.8995072,80.8658793 C52.7343466,80.03104 53.2033544,78.8987548 53.2033544,77.7181137 L53.2033544,68.9829566 C54.9459412,70.9987618 56,73.6262866 56,76.5 C56,82.8512746 50.8512746,88 44.5,88 C42.8074104,88 41.200226,87.6343368 39.7531345,86.977698 Z M35.3015215,83.4031458 C33.8564069,81.4805879 33,79.0903063 33,76.5 C33,70.1487254 38.1487254,65 44.5,65 C46.0018846,65 47.4365251,65.2879062 48.7517415,65.8115388 L48.7517415,77.7181137 L42.9009001,71.8672722 C42.0660608,71.0324329 40.9337756,70.563425 39.7531345,70.563425 C37.2945765,70.563425 35.3015215,72.55648 35.3015215,75.0150379 L35.3015215,83.4031458 Z" id="Combined-Shape" fill-rule="nonzero"></path>
        </g>
    </g>
</svg>