<?xml version="1.0" encoding="UTF-8" standalone="no"?>
<svg width="230px" height="160px" viewBox="0 0 230 160" version="1.1" xmlns="http://www.w3.org/2000/svg" xmlns:xlink="http://www.w3.org/1999/xlink">
    <!-- Generator: Sketch 3.8.3 (29802) - http://www.bohemiancoding.com/sketch -->
    <defs></defs>
    <g id="02-company" stroke="none" stroke-width="1" fill="none" fill-rule="evenodd">
        <g id="logos_clients" transform="translate(-460.000000, -1280.000000)">
            <g id="logos" opacity="0.301364272" transform="translate(37.000000, 52.000000)">
                <g id="shots" transform="translate(473.000000, 1275.000000)" fill="#D4E1ED">
                    <path d="M13.448,36.48 C9.99198272,36.48 6.80801456,35.4400104 3.896,33.36 C3.44799776,33.0399984 3.224,32.5920029 3.224,32.016 C3.224,31.5679978 3.3839984,31.1920015 3.704,30.888 C4.0240016,30.5839985 4.40799776,30.432 4.856,30.432 C5.24000192,30.432 5.54399888,30.527999 5.768,30.72 C8.36001296,32.4800088 10.9839867,33.36 13.64,33.36 C15.1440075,33.36 16.3759952,33.0000036 17.336,32.28 C18.2960048,31.5599964 18.776,30.6080059 18.776,29.424 L18.776,29.328 C18.776,28.2079944 18.2560052,27.344003 17.216,26.736 C16.1759948,26.127997 14.6320102,25.5360029 12.584,24.96 C11.3359938,24.6079982 10.3440037,24.2880014 9.608,24 C8.87199632,23.7119986 8.04000464,23.3040026 7.112,22.776 C6.18399536,22.2479974 5.49600224,21.584004 5.048,20.784 C4.59999776,19.983996 4.376,19.0400054 4.376,17.952 L4.376,17.856 C4.376,15.7439894 5.16799208,14.0320066 6.752,12.72 C8.33600792,11.4079934 10.3599877,10.752 12.824,10.752 C15.5120134,10.752 18.151987,11.455993 20.744,12.864 C21.352003,13.2160018 21.656,13.7279966 21.656,14.4 C21.656,14.8480022 21.4960016,15.2239985 21.176,15.528 C20.8559984,15.8320015 20.4720022,15.984 20.024,15.984 C19.7359986,15.984 19.4640013,15.9200006 19.208,15.792 C16.9679888,14.5119936 14.8080104,13.872 12.728,13.872 C11.2879928,13.872 10.1280044,14.2079966 9.248,14.88 C8.3679956,15.5520034 7.928,16.4159947 7.928,17.472 L7.928,17.568 C7.928,18.0160022 8.05599872,18.4319981 8.312,18.816 C8.56800128,19.2000019 8.8559984,19.5199987 9.176,19.776 C9.4960016,20.0320013 9.99999656,20.3039986 10.688,20.592 C11.3760034,20.8800014 11.9279979,21.0879994 12.344,21.216 C12.7600021,21.3440006 13.4159955,21.5519986 14.312,21.84 C15.2400046,22.1280014 16.0159969,22.3839989 16.64,22.608 C17.2640031,22.8320011 17.9679961,23.143998 18.752,23.544 C19.5360039,23.944002 20.1599977,24.3759977 20.624,24.84 C21.0880023,25.3040023 21.4799984,25.8879965 21.8,26.592 C22.1200016,27.2960035 22.28,28.0799957 22.28,28.944 L22.28,29.04 C22.28,31.3440115 21.4480083,33.1599934 19.784,34.488 C18.1199917,35.8160066 16.0080128,36.48 13.448,36.48 L13.448,36.48 Z M29.144,34.368 L29.144,2.592 C29.144,2.07999744 29.3199982,1.64000184 29.672,1.272 C30.0240018,0.90399816 30.4559974,0.72 30.968,0.72 C31.4800026,0.72 31.9199982,0.90399816 32.288,1.272 C32.6560018,1.64000184 32.84,2.07999744 32.84,2.592 L32.84,15.504 C34.7920098,12.2719838 37.6239814,10.656 41.336,10.656 C44.2800147,10.656 46.5999915,11.559991 48.296,13.368 C49.9920085,15.176009 50.84,17.583985 50.84,20.592 L50.84,34.368 C50.84,34.8800026 50.6640018,35.3199982 50.312,35.688 C49.9599982,36.0560018 49.5280026,36.24 49.016,36.24 C48.5039974,36.24 48.0640018,36.0560018 47.696,35.688 C47.3279982,35.3199982 47.144,34.8800026 47.144,34.368 L47.144,21.504 C47.144,19.1679883 46.544006,17.3360066 45.344,16.008 C44.143994,14.6799934 42.4560109,14.016 40.28,14.016 C38.1359893,14.016 36.360007,14.7359928 34.952,16.176 C33.543993,17.6160072 32.84,19.4879885 32.84,21.792 L32.84,34.368 C32.84,34.9120027 32.6640018,35.3599982 32.312,35.712 C31.9599982,36.0640018 31.5280026,36.24 31.016,36.24 C30.4719973,36.24 30.0240018,36.0560018 29.672,35.688 C29.3199982,35.3199982 29.144,34.8800026 29.144,34.368 L29.144,34.368 Z M70.04,36.576 C66.3599816,36.576 63.2960122,35.3200126 60.848,32.808 C58.3999878,30.2959874 57.176,27.2640178 57.176,23.712 L57.176,23.616 C57.176,20.0639822 58.4159876,17.0160127 60.896,14.472 C63.3760124,11.9279873 66.4559816,10.656 70.136,10.656 C73.8160184,10.656 76.8879877,11.9119874 79.352,14.424 C81.8160123,16.9360126 83.048,19.9679822 83.048,23.52 L83.048,23.616 C83.048,27.1680178 81.8000125,30.2159873 79.304,32.76 C76.8079875,35.3040127 73.7200184,36.576 70.04,36.576 L70.04,36.576 Z M70.136,33.264 C72.7920133,33.264 74.9759914,32.3360093 76.688,30.48 C78.4000086,28.6239907 79.256,26.3680133 79.256,23.712 L79.256,23.616 C79.256,20.9279866 78.3680089,18.6400094 76.592,16.752 C74.8159911,14.8639906 72.632013,13.92 70.04,13.92 C67.4159869,13.92 65.2480086,14.8559906 63.536,16.728 C61.8239914,18.6000094 60.968,20.8639867 60.968,23.52 L60.968,23.616 C60.968,26.3040134 61.8479912,28.5839906 63.608,30.456 C65.3680088,32.3280094 67.543987,33.264 70.136,33.264 L70.136,33.264 Z M98.024,36.432 C95.8799893,36.432 94.1760063,35.8640057 92.912,34.728 C91.6479937,33.5919943 91.016,31.824012 91.016,29.424 L91.016,14.448 L89,14.448 C88.5839979,14.448 88.2080017,14.2800017 87.872,13.944 C87.5359983,13.6079983 87.368,13.2320021 87.368,12.816 C87.368,12.3679978 87.5279984,11.9840016 87.848,11.664 C88.1680016,11.3439984 88.5519978,11.184 89,11.184 L91.016,11.184 L91.016,5.328 C91.016,4.81599744 91.1919982,4.37600184 91.544,4.008 C91.8960018,3.63999816 92.3279974,3.456 92.84,3.456 C93.3520026,3.456 93.7919982,3.63999816 94.16,4.008 C94.5280018,4.37600184 94.712,4.81599744 94.712,5.328 L94.712,11.184 L101.144,11.184 C101.592002,11.184 101.983998,11.3439984 102.32,11.664 C102.656002,11.9840016 102.824,12.3679978 102.824,12.816 C102.824,13.2640022 102.656002,13.6479984 102.32,13.968 C101.983998,14.2880016 101.592002,14.448 101.144,14.448 L94.712,14.448 L94.712,28.944 C94.712,31.6960138 96.1039861,33.072 98.888,33.072 C99.4000026,33.072 99.8959976,33.0240005 100.376,32.928 L101.144,32.736 C101.592002,32.736 101.967998,32.8959984 102.272,33.216 C102.576002,33.5360016 102.728,33.9039979 102.728,34.32 C102.728,35.0240035 102.376004,35.5039987 101.672,35.76 C100.583995,36.2080022 99.3680067,36.432 98.024,36.432 L98.024,36.432 Z M117.32,36.48 C113.863983,36.48 110.680015,35.4400104 107.768,33.36 C107.319998,33.0399984 107.096,32.5920029 107.096,32.016 C107.096,31.5679978 107.255998,31.1920015 107.576,30.888 C107.896002,30.5839985 108.279998,30.432 108.728,30.432 C109.112002,30.432 109.415999,30.527999 109.64,30.72 C112.232013,32.4800088 114.855987,33.36 117.512,33.36 C119.016008,33.36 120.247995,33.0000036 121.208,32.28 C122.168005,31.5599964 122.648,30.6080059 122.648,29.424 L122.648,29.328 C122.648,28.2079944 122.128005,27.344003 121.088,26.736 C120.047995,26.127997 118.50401,25.5360029 116.456,24.96 C115.207994,24.6079982 114.216004,24.2880014 113.48,24 C112.743996,23.7119986 111.912005,23.3040026 110.984,22.776 C110.055995,22.2479974 109.368002,21.584004 108.92,20.784 C108.471998,19.983996 108.248,19.0400054 108.248,17.952 L108.248,17.856 C108.248,15.7439894 109.039992,14.0320066 110.624,12.72 C112.208008,11.4079934 114.231988,10.752 116.696,10.752 C119.384013,10.752 122.023987,11.455993 124.616,12.864 C125.224003,13.2160018 125.528,13.7279966 125.528,14.4 C125.528,14.8480022 125.368002,15.2239985 125.048,15.528 C124.727998,15.8320015 124.344002,15.984 123.896,15.984 C123.607999,15.984 123.336001,15.9200006 123.08,15.792 C120.839989,14.5119936 118.68001,13.872 116.6,13.872 C115.159993,13.872 114.000004,14.2079966 113.12,14.88 C112.239996,15.5520034 111.8,16.4159947 111.8,17.472 L111.8,17.568 C111.8,18.0160022 111.927999,18.4319981 112.184,18.816 C112.440001,19.2000019 112.727998,19.5199987 113.048,19.776 C113.368002,20.0320013 113.871997,20.3039986 114.56,20.592 C115.248003,20.8800014 115.799998,21.0879994 116.216,21.216 C116.632002,21.3440006 117.287996,21.5519986 118.184,21.84 C119.112005,22.1280014 119.887997,22.3839989 120.512,22.608 C121.136003,22.8320011 121.839996,23.143998 122.624,23.544 C123.408004,23.944002 124.031998,24.3759977 124.496,24.84 C124.960002,25.3040023 125.351998,25.8879965 125.672,26.592 C125.992002,27.2960035 126.152,28.0799957 126.152,28.944 L126.152,29.04 C126.152,31.3440115 125.320008,33.1599934 123.656,34.488 C121.991992,35.8160066 119.880013,36.48 117.32,36.48 L117.32,36.48 Z"></path>
                    <path d="M3.604,59.144 C2.88932976,59.144 2.32133544,58.9546686 1.9,58.576 C1.47866456,58.1973314 1.268,57.608004 1.268,56.808 L1.268,51.816 L0.596,51.816 C0.45733264,51.816 0.33200056,51.7600006 0.22,51.648 C0.10799944,51.5359994 0.052,51.4106674 0.052,51.272 C0.052,51.1226659 0.1053328,50.9946672 0.212,50.888 C0.3186672,50.7813328 0.44666592,50.728 0.596,50.728 L1.268,50.728 L1.268,48.776 C1.268,48.6053325 1.32666608,48.4586673 1.444,48.336 C1.56133392,48.2133327 1.70533248,48.152 1.876,48.152 C2.04666752,48.152 2.19333272,48.2133327 2.316,48.336 C2.43866728,48.4586673 2.5,48.6053325 2.5,48.776 L2.5,50.728 L4.644,50.728 C4.79333408,50.728 4.92399944,50.7813328 5.036,50.888 C5.14800056,50.9946672 5.204,51.1226659 5.204,51.272 C5.204,51.4213341 5.14800056,51.5493328 5.036,51.656 C4.92399944,51.7626672 4.79333408,51.816 4.644,51.816 L2.5,51.816 L2.5,56.648 C2.5,57.5653379 2.96399536,58.024 3.892,58.024 C4.06266752,58.024 4.2279992,58.0080002 4.388,57.976 L4.644,57.912 C4.79333408,57.912 4.91866616,57.9653328 5.02,58.072 C5.12133384,58.1786672 5.172,58.3013326 5.172,58.44 C5.172,58.6746678 5.05466784,58.8346662 4.82,58.92 C4.45733152,59.0693341 4.05200224,59.144 3.604,59.144 L3.604,59.144 Z M7.3,58.456 L7.3,47.864 C7.3,47.6933325 7.35866608,47.5466673 7.476,47.424 C7.59333392,47.3013327 7.73733248,47.24 7.908,47.24 C8.07866752,47.24 8.22533272,47.3013327 8.348,47.424 C8.47066728,47.5466673 8.532,47.6933325 8.532,47.864 L8.532,52.168 C9.18266992,51.0906613 10.1266605,50.552 11.364,50.552 C12.3453382,50.552 13.1186638,50.8533303 13.684,51.456 C14.2493362,52.0586697 14.532,52.8613283 14.532,53.864 L14.532,58.456 C14.532,58.6266675 14.4733339,58.7733327 14.356,58.896 C14.2386661,59.0186673 14.0946675,59.08 13.924,59.08 C13.7533325,59.08 13.6066673,59.0186673 13.484,58.896 C13.3613327,58.7733327 13.3,58.6266675 13.3,58.456 L13.3,54.168 C13.3,53.3893294 13.100002,52.7786689 12.7,52.336 C12.299998,51.8933311 11.737337,51.672 11.012,51.672 C10.2973298,51.672 9.70533568,51.9119976 9.236,52.392 C8.76666432,52.8720024 8.532,53.4959962 8.532,54.264 L8.532,58.456 C8.532,58.6373342 8.47333392,58.7866661 8.356,58.904 C8.23866608,59.0213339 8.09466752,59.08 7.924,59.08 C7.74266576,59.08 7.59333392,59.0186673 7.476,58.896 C7.35866608,58.7733327 7.3,58.6266675 7.3,58.456 L7.3,58.456 Z M17.892,54.408 L23.22,54.408 C23.1559997,53.5973293 22.894669,52.925336 22.436,52.392 C21.977331,51.858664 21.3586706,51.592 20.58,51.592 C19.8653298,51.592 19.2600025,51.858664 18.764,52.392 C18.2679975,52.925336 17.9773338,53.5973293 17.892,54.408 L17.892,54.408 Z M23.892,57.944 C23.0279957,58.7760042 21.9880061,59.192 20.772,59.192 C19.6093275,59.192 18.6306706,58.7893374 17.836,57.984 C17.0413294,57.1786626 16.644,56.146673 16.644,54.888 L16.644,54.856 C16.644,53.6506606 17.0226629,52.6320042 17.78,51.8 C18.5373371,50.9679958 19.4813277,50.552 20.612,50.552 C21.7853392,50.552 22.7186632,50.9626626 23.412,51.784 C24.1053368,52.6053374 24.452,53.5919942 24.452,54.744 C24.452,54.9040008 24.3960006,55.0399994 24.284,55.152 C24.1719994,55.2640006 24.0360008,55.32 23.876,55.32 L17.892,55.32 C17.9773338,56.194671 18.2946639,56.8799975 18.844,57.376 C19.3933361,57.8720025 20.0466629,58.12 20.804,58.12 C21.7000045,58.12 22.4946632,57.8000032 23.188,57.16 C23.3053339,57.0639995 23.4226661,57.016 23.54,57.016 C23.6893341,57.016 23.8173328,57.0666662 23.924,57.168 C24.0306672,57.2693338 24.084,57.3946659 24.084,57.544 C24.084,57.7040008 24.0200006,57.8373328 23.892,57.944 L23.892,57.944 Z M35.156,59.192 C33.9613274,59.192 32.9560041,58.7706709 32.14,57.928 C31.3239959,57.0853291 30.916,56.0773392 30.916,54.904 L30.916,54.872 C30.916,53.6879941 31.3239959,52.6720042 32.14,51.824 C32.9560041,50.9759958 33.9613274,50.552 35.156,50.552 C36.3080058,50.552 37.321329,50.951996 38.196,51.752 C38.3240006,51.8586672 38.388,52.0026658 38.388,52.184 C38.388,52.3546675 38.3293339,52.4959994 38.212,52.608 C38.0946661,52.7200006 37.9560008,52.776 37.796,52.776 C37.6466659,52.776 37.5133339,52.7280005 37.396,52.632 C36.6813298,51.9706634 35.9293373,51.64 35.14,51.64 C34.3079958,51.64 33.6066695,51.9493302 33.036,52.568 C32.4653305,53.1866698 32.18,53.9439955 32.18,54.84 L32.18,54.872 C32.18,55.7680045 32.4706638,56.5279969 33.052,57.152 C33.6333362,57.7760031 34.3559957,58.088 35.22,58.088 C36.0413374,58.088 36.8093298,57.7520034 37.524,57.08 C37.6306672,56.9733328 37.7479994,56.92 37.876,56.92 C38.0253341,56.92 38.1559994,56.9759994 38.268,57.088 C38.3800006,57.2000006 38.436,57.3306659 38.436,57.48 C38.436,57.6293341 38.3826672,57.7573328 38.276,57.864 C37.3906622,58.7493378 36.3506726,59.192 35.156,59.192 L35.156,59.192 Z M44.34,59.192 C43.1133272,59.192 42.0920041,58.7733375 41.276,57.936 C40.4599959,57.0986625 40.052,56.0880059 40.052,54.904 L40.052,54.872 C40.052,53.6879941 40.4653292,52.6720042 41.292,51.824 C42.1186708,50.9759958 43.1453272,50.552 44.372,50.552 C45.5986728,50.552 46.6226626,50.9706625 47.444,51.808 C48.2653374,52.6453375 48.676,53.6559941 48.676,54.84 L48.676,54.872 C48.676,56.0560059 48.2600042,57.0719958 47.428,57.92 C46.5959958,58.7680042 45.5666728,59.192 44.34,59.192 L44.34,59.192 Z M44.372,58.088 C45.2573378,58.088 45.9853305,57.7786698 46.556,57.16 C47.1266695,56.5413302 47.412,55.7893378 47.412,54.904 L47.412,54.872 C47.412,53.9759955 47.116003,53.2133365 46.524,52.584 C45.931997,51.9546635 45.2040043,51.64 44.34,51.64 C43.465329,51.64 42.7426695,51.9519969 42.172,52.576 C41.6013305,53.2000031 41.316,53.9546622 41.316,54.84 L41.316,54.872 C41.316,55.7680045 41.6093304,56.5279969 42.196,57.152 C42.7826696,57.7760031 43.5079957,58.088 44.372,58.088 L44.372,58.088 Z M50.9,58.456 L50.9,51.272 C50.9,51.1013325 50.9586661,50.9546673 51.076,50.832 C51.1933339,50.7093327 51.3373325,50.648 51.508,50.648 C51.6786675,50.648 51.8253327,50.7066661 51.948,50.824 C52.0706673,50.9413339 52.132,51.0906658 52.132,51.272 L52.132,52.12 C52.8253368,51.0746614 53.7159946,50.552 54.804,50.552 C56.0413395,50.552 56.926664,51.1013278 57.46,52.2 C58.1746702,51.1013278 59.1453272,50.552 60.372,50.552 C61.3213381,50.552 62.0706639,50.8506637 62.62,51.448 C63.1693361,52.0453363 63.444,52.8559949 63.444,53.88 L63.444,58.456 C63.444,58.6266675 63.3853339,58.7733327 63.268,58.896 C63.1506661,59.0186673 63.0066675,59.08 62.836,59.08 C62.6653325,59.08 62.5186673,59.0186673 62.396,58.896 C62.2733327,58.7733327 62.212,58.6266675 62.212,58.456 L62.212,54.168 C62.212,53.367996 62.0226686,52.7520022 61.644,52.32 C61.2653314,51.8879978 60.7400034,51.672 60.068,51.672 C59.4173301,51.672 58.8760022,51.901331 58.444,52.36 C58.0119978,52.818669 57.796,53.4426627 57.796,54.232 L57.796,58.456 C57.796,58.6266675 57.7346673,58.7733327 57.612,58.896 C57.4893327,59.0186673 57.3426675,59.08 57.172,59.08 C57.0013325,59.08 56.8573339,59.0186673 56.74,58.896 C56.6226661,58.7733327 56.564,58.6266675 56.564,58.456 L56.564,54.136 C56.564,53.3679962 56.3746686,52.7653355 55.996,52.328 C55.6173314,51.8906645 55.0973366,51.672 54.436,51.672 C53.7746634,51.672 53.2253355,51.9173309 52.788,52.408 C52.3506645,52.8986691 52.132,53.5226629 52.132,54.28 L52.132,58.456 C52.132,58.6373342 52.0733339,58.7866661 51.956,58.904 C51.8386661,59.0213339 51.6946675,59.08 51.524,59.08 C51.3426658,59.08 51.1933339,59.0186673 51.076,58.896 C50.9586661,58.7733327 50.9,58.6266675 50.9,58.456 L50.9,58.456 Z M66.852,54.408 L72.18,54.408 C72.1159997,53.5973293 71.854669,52.925336 71.396,52.392 C70.937331,51.858664 70.3186706,51.592 69.54,51.592 C68.8253298,51.592 68.2200025,51.858664 67.724,52.392 C67.2279975,52.925336 66.9373338,53.5973293 66.852,54.408 L66.852,54.408 Z M72.852,57.944 C71.9879957,58.7760042 70.9480061,59.192 69.732,59.192 C68.5693275,59.192 67.5906706,58.7893374 66.796,57.984 C66.0013294,57.1786626 65.604,56.146673 65.604,54.888 L65.604,54.856 C65.604,53.6506606 65.9826629,52.6320042 66.74,51.8 C67.4973371,50.9679958 68.4413277,50.552 69.572,50.552 C70.7453392,50.552 71.6786632,50.9626626 72.372,51.784 C73.0653368,52.6053374 73.412,53.5919942 73.412,54.744 C73.412,54.9040008 73.3560006,55.0399994 73.244,55.152 C73.1319994,55.2640006 72.9960008,55.32 72.836,55.32 L66.852,55.32 C66.9373338,56.194671 67.2546639,56.8799975 67.804,57.376 C68.3533361,57.8720025 69.0066629,58.12 69.764,58.12 C70.6600045,58.12 71.4546632,57.8000032 72.148,57.16 C72.2653339,57.0639995 72.3826661,57.016 72.5,57.016 C72.6493341,57.016 72.7773328,57.0666662 72.884,57.168 C72.9906672,57.2693338 73.044,57.3946659 73.044,57.544 C73.044,57.7040008 72.9800006,57.8373328 72.852,57.944 L72.852,57.944 Z M83.46,47.864 L83.46,58.456 C83.46,58.6266675 83.4013339,58.7733327 83.284,58.896 C83.1666661,59.0186673 83.0226675,59.08 82.852,59.08 C82.6813325,59.08 82.5346673,59.0186673 82.412,58.896 C82.2893327,58.7733327 82.228,58.6266675 82.228,58.456 L82.228,57.336 C81.3959958,58.5626728 80.3400064,59.176 79.06,59.176 C78.0039947,59.176 77.0813373,58.7866706 76.292,58.008 C75.5026627,57.2293294 75.108,56.1893398 75.108,54.888 L75.108,54.856 C75.108,53.5653269 75.5026627,52.5253373 76.292,51.736 C77.0813373,50.9466627 78.0039947,50.552 79.06,50.552 C80.3613398,50.552 81.4173293,51.1386608 82.228,52.312 L82.228,47.864 C82.228,47.6826658 82.2866661,47.5333339 82.404,47.416 C82.5213339,47.2986661 82.6653325,47.24 82.836,47.24 C83.0173342,47.24 83.1666661,47.3013327 83.284,47.424 C83.4013339,47.5466673 83.46,47.6933325 83.46,47.864 L83.46,47.864 Z M79.284,51.656 C78.4519958,51.656 77.7586694,51.9439971 77.204,52.52 C76.6493306,53.0960029 76.372,53.8693285 76.372,54.84 L76.372,54.872 C76.372,55.8213381 76.6573305,56.591997 77.228,57.184 C77.7986695,57.776003 78.483996,58.072 79.284,58.072 C80.084004,58.072 80.7826637,57.7706697 81.38,57.168 C81.9773363,56.5653303 82.276,55.8000046 82.276,54.872 L82.276,54.84 C82.276,53.9226621 81.9773363,53.1626697 81.38,52.56 C80.7826637,51.9573303 80.084004,51.656 79.284,51.656 L79.284,51.656 Z M87.412,61.608 C86.9639978,61.608 86.510669,61.5280008 86.052,61.368 C85.7959987,61.2613328 85.668,61.0853346 85.668,60.84 C85.668,60.6906659 85.7213328,60.5653338 85.828,60.464 C85.9346672,60.3626662 86.0573326,60.312 86.196,60.312 C86.270667,60.312 86.3719994,60.3333331 86.5,60.376 C86.7880014,60.4720005 87.0866651,60.52 87.396,60.52 C87.7693352,60.52 88.0813321,60.4053345 88.332,60.176 C88.5826679,59.9466655 88.8253322,59.5706693 89.06,59.048 L89.124,58.92 L85.668,51.592 C85.6146664,51.4639994 85.588,51.3520005 85.588,51.256 C85.588,51.0853325 85.6493327,50.9413339 85.772,50.824 C85.8946673,50.7066661 86.0413325,50.648 86.212,50.648 C86.5000014,50.648 86.7079994,50.8079984 86.836,51.128 L89.716,57.624 L92.276,51.112 C92.3933339,50.8026651 92.5906653,50.648 92.868,50.648 C93.0386675,50.648 93.1826661,50.7066661 93.3,50.824 C93.4173339,50.9413339 93.476,51.0853325 93.476,51.256 C93.476,51.330667 93.4546669,51.4319994 93.412,51.56 L90.18,59.272 C89.8279982,60.1146709 89.4360022,60.7146649 89.004,61.072 C88.5719978,61.4293351 88.0413365,61.608 87.412,61.608 L87.412,61.608 Z M102.868,59.176 C102.035996,59.176 101.313336,58.946669 100.7,58.488 C100.086664,58.029331 99.78,57.400004 99.78,56.6 L99.78,56.568 C99.78,55.7146624 100.099997,55.0560023 100.74,54.592 C101.380003,54.1279977 102.238661,53.896 103.316,53.896 C104.180004,53.896 105.027996,54.0133322 105.86,54.248 L105.86,53.96 C105.86,53.2239963 105.646669,52.6640019 105.22,52.28 C104.793331,51.8959981 104.185337,51.704 103.396,51.704 C102.659996,51.704 101.945337,51.8586651 101.252,52.168 C101.177333,52.2000002 101.102667,52.216 101.028,52.216 C100.878666,52.216 100.750667,52.1626672 100.644,52.056 C100.537333,51.9493328 100.484,51.8266674 100.484,51.688 C100.484,51.4319987 100.595999,51.2613338 100.82,51.176 C101.684004,50.8026648 102.585329,50.616 103.524,50.616 C104.697339,50.616 105.587997,50.919997 106.196,51.528 C106.761336,52.0933362 107.044,52.8986614 107.044,53.944 L107.044,58.472 C107.044,58.6426675 106.988001,58.7866661 106.876,58.904 C106.763999,59.0213339 106.622668,59.08 106.452,59.08 C106.281332,59.08 106.140001,59.0240006 106.028,58.912 C105.915999,58.7999994 105.86,58.6640008 105.86,58.504 L105.86,57.752 C105.134663,58.7013381 104.13734,59.176 102.868,59.176 L102.868,59.176 Z M103.108,58.2 C103.876004,58.2 104.529331,57.9893354 105.068,57.568 C105.606669,57.1466646 105.876,56.6106699 105.876,55.96 L105.876,55.16 C105.065329,54.9253322 104.254671,54.808 103.444,54.808 C102.675996,54.808 102.081335,54.9626651 101.66,55.272 C101.238665,55.5813349 101.028,55.9973307 101.028,56.52 L101.028,56.552 C101.028,57.0533358 101.227998,57.4533318 101.628,57.752 C102.028002,58.0506682 102.52133,58.2 103.108,58.2 L103.108,58.2 Z M109.668,61.016 L109.668,51.272 C109.668,51.1013325 109.726666,50.9546673 109.844,50.832 C109.961334,50.7093327 110.105332,50.648 110.276,50.648 C110.446668,50.648 110.593333,50.7066661 110.716,50.824 C110.838667,50.9413339 110.9,51.0906658 110.9,51.272 L110.9,52.392 C111.732004,51.1653272 112.787994,50.552 114.068,50.552 C115.124005,50.552 116.046663,50.9413294 116.836,51.72 C117.625337,52.4986706 118.02,53.5386602 118.02,54.84 L118.02,54.872 C118.02,56.1626731 117.625337,57.2026627 116.836,57.992 C116.046663,58.7813373 115.124005,59.176 114.068,59.176 C112.76666,59.176 111.710671,58.5893392 110.9,57.416 L110.9,61.016 C110.9,61.1973342 110.841334,61.3466661 110.724,61.464 C110.606666,61.5813339 110.462668,61.64 110.292,61.64 C110.110666,61.64 109.961334,61.5786673 109.844,61.456 C109.726666,61.3333327 109.668,61.1866675 109.668,61.016 L109.668,61.016 Z M113.844,58.072 C114.676004,58.072 115.369331,57.7840029 115.924,57.208 C116.478669,56.6319971 116.756,55.8586715 116.756,54.888 L116.756,54.856 C116.756,53.9066619 116.473336,53.136003 115.908,52.544 C115.342664,51.951997 114.654671,51.656 113.844,51.656 C113.043996,51.656 112.345336,51.9573303 111.748,52.56 C111.150664,53.1626697 110.852,53.9226621 110.852,54.84 L110.852,54.872 C110.852,55.8000046 111.150664,56.5653303 111.748,57.168 C112.345336,57.7706697 113.043996,58.072 113.844,58.072 L113.844,58.072 Z M120.292,61.016 L120.292,51.272 C120.292,51.1013325 120.350666,50.9546673 120.468,50.832 C120.585334,50.7093327 120.729332,50.648 120.9,50.648 C121.070668,50.648 121.217333,50.7066661 121.34,50.824 C121.462667,50.9413339 121.524,51.0906658 121.524,51.272 L121.524,52.392 C122.356004,51.1653272 123.411994,50.552 124.692,50.552 C125.748005,50.552 126.670663,50.9413294 127.46,51.72 C128.249337,52.4986706 128.644,53.5386602 128.644,54.84 L128.644,54.872 C128.644,56.1626731 128.249337,57.2026627 127.46,57.992 C126.670663,58.7813373 125.748005,59.176 124.692,59.176 C123.39066,59.176 122.334671,58.5893392 121.524,57.416 L121.524,61.016 C121.524,61.1973342 121.465334,61.3466661 121.348,61.464 C121.230666,61.5813339 121.086668,61.64 120.916,61.64 C120.734666,61.64 120.585334,61.5786673 120.468,61.456 C120.350666,61.3333327 120.292,61.1866675 120.292,61.016 L120.292,61.016 Z M124.468,58.072 C125.300004,58.072 125.993331,57.7840029 126.548,57.208 C127.102669,56.6319971 127.38,55.8586715 127.38,54.888 L127.38,54.856 C127.38,53.9066619 127.097336,53.136003 126.532,52.544 C125.966664,51.951997 125.278671,51.656 124.468,51.656 C123.667996,51.656 122.969336,51.9573303 122.372,52.56 C121.774664,53.1626697 121.476,53.9226621 121.476,54.84 L121.476,54.872 C121.476,55.8000046 121.774664,56.5653303 122.372,57.168 C122.969336,57.7706697 123.667996,58.072 124.468,58.072 L124.468,58.072 Z" id="the-comedy-app"></path>
                </g>
                <g id="png" transform="translate(0.000000, 963.000000)"></g>
            </g>
            <g id="Slices">
                <g id="png" transform="translate(0.000000, 960.000000)"></g>
            </g>
            <g id="Ovals" transform="translate(192.000000, 38.000000)">
                <g id="visible"></g>
            </g>
        </g>
    </g>
</svg>