<svg width="230" height="160" viewBox="0 0 230 160" xmlns="http://www.w3.org/2000/svg"><g fill="none" fill-rule="evenodd"><path d="M156.096 100.958c-5.588-.184-11.203-1.7-16.042-5.763-1.09-.916-1.556-2.07-1.2-3.524.325-1.334 1.163-2.264 2.43-2.293.87-.02 1.864.301 2.606.803 3.606 2.435 7.425 4.151 11.737 4.36 2.251.11 4.467-.15 6.499-1.283 1.702-.95 2.774-2.351 2.592-4.573-.182-2.216-1.412-3.512-3.29-3.996-3.724-.96-7.491-1.73-11.228-2.639a23.544 23.544 0 0 1-3.701-1.205c-6.832-2.925-8.799-11.525-4.019-17.566 2.813-3.554 6.629-4.891 10.794-5.213 4.516-.35 8.791.688 12.713 3.136.989.617 1.908 1.421 2.721 2.288 1.443 1.537 1.46 3.056.213 4.71-1.146 1.52-2.346 1.679-4.12.541-1.3-.833-2.568-1.726-3.902-2.492-3.19-1.833-6.573-2.016-9.996-.994-1.039.31-2.086.925-2.903 1.68-2.463 2.275-1.963 6.314 1.046 7.589 2.258.956 4.712 1.38 7.072 2.07 2.918.85 5.927 1.466 8.718 2.662 3.906 1.675 6.475 4.652 6.401 9.551-.075 4.987-2.394 8.347-6.495 10.424-2.588 1.311-5.368 1.701-8.646 1.727zM104.9 62.892c.432-.268.787-.454 1.108-.691 10.203-7.526 23.76-1.62 26.04 11.403.35 1.997.374 4.075.393 6.117.05 5.44.018 10.88.015 16.321 0 .477.004.956-.044 1.429-.227 2.273-1.472 3.522-3.38 3.414-1.977-.112-2.956-1.222-2.992-3.586-.05-3.149.003-6.3-.02-9.449-.025-3.72.085-7.454-.173-11.158-.308-4.43-2.21-7.995-6.21-9.746-4.084-1.788-7.971-1.187-11.41 1.875-2.332 2.078-3.163 4.93-3.216 8.03-.111 6.486-.109 12.976-.161 19.464-.005.666-.012 1.342-.117 1.995-.296 1.84-1.522 2.883-3.296 2.872-1.675-.01-2.715-.936-3.046-2.78-.1-.557-.099-1.14-.1-1.71-.009-10.547-.012-21.093-.015-31.64 0-.524.003-1.05.042-1.573.18-2.428.978-3.62 2.53-3.815 2.164-.271 3.247.549 4.052 3.228zM76.43 100.96c-5.496-.2-10.886-1.603-15.557-5.357-.683-.548-1.37-1.307-1.673-2.13-.449-1.214-.13-2.473.834-3.382 1.005-.948 2.174-1.076 3.359-.428.871.477 1.682 1.08 2.534 1.597 4.484 2.724 9.224 4.1 14.367 2.795 1.173-.297 2.387-.908 3.313-1.724 2.314-2.04 1.79-5.865-.938-7.206-1.038-.51-2.194-.777-3.319-1.047-3.304-.794-6.626-1.505-9.928-2.311-.993-.243-1.955-.654-2.908-1.05-8.544-3.558-7.357-14.455-2.63-18.707 2.67-2.4 5.762-3.59 9.17-3.887 5.384-.47 10.373.77 14.782 4.224a8.214 8.214 0 0 1 1.605 1.703c.947 1.335.779 2.938-.351 4.298-1.084 1.306-2.216 1.497-3.698.579-1.465-.908-2.875-1.923-4.373-2.761-3.112-1.742-6.407-1.894-9.75-.95-.844.238-1.677.682-2.403 1.207-1.51 1.091-2.287 2.648-2.11 4.64.175 1.952 1.338 3.18 2.949 3.694 2.64.843 5.365 1.38 8.031 2.136 2.493.708 5.042 1.31 7.412 2.357 3.742 1.656 6.335 4.508 6.406 9.15.072 4.783-1.977 8.31-5.935 10.528-2.795 1.566-5.832 2.007-9.189 2.032z" fill="#FFF"/></g></svg>