<?xml version="1.0" encoding="UTF-8"?>
<svg width="256px" height="256px" viewBox="0 0 256 256" version="1.1" xmlns="http://www.w3.org/2000/svg" xmlns:xlink="http://www.w3.org/1999/xlink">
    <!-- Generator: Sketch 42 (36781) - http://www.bohemiancoding.com/sketch -->
    <defs></defs>
    <g id="Standard" stroke="none" stroke-width="1" fill="none" fill-rule="evenodd">
        <g id="Group" fill="#FFFFFF">
            <path d="M156.001101,105.602478 C155.172531,91.8198063 143.142195,82.5846174 129.904718,84.1785439 C120.574377,84.5921128 113.470817,90.9873436 112.840461,91.5730849 L112.788676,91.5997095 C112.752962,91.2731144 112.683319,90.1974802 112.502962,89.1395958 C111.947606,85.9180183 110.11368,84.040096 106.697615,84.107545 C103.469049,84.171444 101.702981,85.9836923 101.23691,89.0668219 C101.054767,90.2738041 101.001196,91.5127358 100.99941,92.7356928 C100.992268,101.656711 100.98691,110.575955 100.98691,119.496973 C100.98691,128.419767 100.994053,137.340785 101.010125,146.263579 C101.01191,147.84863 101.140482,149.469182 101.495838,151.008084 C102.10298,153.631495 104.026191,154.888177 106.647615,154.955626 C109.426182,155.026625 111.499392,153.807218 112.185105,151.022284 C112.56189,149.492256 112.654747,147.864605 112.663676,146.279554 C112.681533,143.173349 112.683319,140.063595 112.681533,136.955616 C112.681533,133.849412 112.67439,130.744983 112.676176,127.640553 C112.679747,121.42992 112.708319,115.219286 112.854747,109.012203 C113.058318,100.490553 119.058308,94.759163 127.765436,93.9976992 C135.718993,93.3019095 142.643981,98.2469866 144.433264,106.193544 C144.992192,108.678508 144.945763,111.321444 144.956477,113.893381 C144.970763,116.751089 144.974335,119.608797 144.974335,122.466505 L144.968977,131.041403 C144.965406,136.765694 144.968977,142.489984 145.029692,148.210725 C145.07612,152.65526 147.210045,154.930776 150.740396,154.980475 C154.226104,155.0284 156.592172,152.843407 156.585029,148.760967 C156.5761,143.363272 156.6136,137.960251 156.617172,132.559006 C156.624314,123.561663 156.542172,114.567871 156.001101,105.602478 L156.001101,105.602478 Z M81.0190877,120.173238 C77.2226657,117.71845 72.8048162,116.206172 68.669109,114.273225 C64.4173306,112.28703 60.0941238,110.439282 55.9298453,108.291564 C53.6584206,107.116531 52.3459229,105.231509 52.2869944,102.709271 C52.2812557,102.344635 52.2991498,101.980011 52.3405657,101.617662 C52.6905651,98.6073063 54.3227052,96.6921095 57.0780576,95.5632261 C64.7423301,92.4161975 71.5548183,94.0651482 77.9494501,98.9356764 C81.4030156,101.566188 84.6637243,101.505839 86.6012209,99.1894977 C87.3146364,98.3307723 87.6756059,97.2359915 87.6119335,96.1241179 C87.553005,94.2355457 86.4512212,92.1517264 84.4405104,90.4442016 C75.3512403,82.7230654 58.713769,81.8764029 48.8048576,88.5219049 C44.226294,91.5926097 40.5334433,97.4571232 40.5798717,103.431685 C40.5977289,108.085667 42.8780821,112.808872 48.7691433,116.339295 C53.1977071,118.992881 58.095913,120.869028 62.720905,123.211994 C66.7905408,125.274513 71.006605,127.16486 74.7423128,129.729697 C76.8690949,131.190501 77.9869501,133.190896 78.0887356,135.248091 C78.1762355,137.292861 77.263737,139.392655 75.3423118,141.077105 C73.3928598,142.756268 71.0634282,143.941386 68.5530378,144.531204 C61.9101921,146.018632 55.8030598,144.220584 50.1852123,140.551713 C48.3280727,139.337631 46.5245043,137.846653 44.467365,137.188138 C43.0566532,136.737294 40.7423715,136.962716 39.7566589,137.873277 C38.7638034,138.789164 37.8780907,140.810859 38.0138047,142.122565 C38.0316619,142.328462 38.0673761,142.518384 38.1352331,142.685232 C39.1138028,145.040622 40.8227285,147.451036 42.8852249,148.947339 C48.9905715,153.367024 56.1584163,154.795878 62.7155478,155 C69.8208927,155 75.6798112,153.722019 80.8994451,150.223545 C86.5780067,146.412677 89.4565731,140.741635 89.4833588,135.104318 C89.5262159,129.468776 86.7208636,123.861634 81.017302,120.173238 L81.0190877,120.173238 Z M209.533152,120.173238 L209.531366,120.173238 C220.927775,127.541155 220.756347,142.566308 209.413509,150.173846 C204.195661,153.67232 198.334957,154.950301 191.231398,154.950301 C184.67248,154.746179 177.504636,153.317325 171.40286,148.89764 C169.338578,147.401337 167.631438,144.990923 166.652869,142.635532 C166.143941,141.409025 167.140368,138.920512 168.274294,137.873277 C169.260007,136.962716 171.574289,136.737294 172.983215,137.188138 C175.04214,137.846653 176.845708,139.337631 178.702848,140.551713 C184.320695,144.220584 190.427828,146.018632 197.070673,144.531204 C199.581064,143.941386 201.910495,142.756268 203.859947,141.077105 C207.727798,137.68513 207.517084,132.605155 203.259948,129.679998 C199.52424,127.115161 195.308176,125.224814 191.23854,123.162294 C186.613548,120.819329 181.715343,118.943181 177.286779,116.289596 C163.851088,108.238314 169.19215,93.9763995 177.322493,88.5219049 C187.231404,81.8764029 203.86709,82.7230654 212.95636,90.4442016 C216.149212,93.1563616 217.059924,96.8181326 215.117071,99.1415734 C213.18136,101.459689 209.918865,101.516488 206.467086,98.8859771 C200.072454,94.0172239 193.259966,92.3682732 185.595693,95.5135269 C182.840341,96.6459602 181.208201,98.559382 180.858201,101.569738 C180.499273,104.670617 181.843914,106.947908 184.445695,108.291564 C188.609974,110.439282 192.93318,112.28703 197.184959,114.273225 C201.320666,116.206172 205.738515,117.71845 209.533152,120.173238 Z M43.2625178,179 C42.0348694,179 41.0090261,178.568966 40.336342,178.086207 C40.1177197,177.931034 40,177.724138 40,177.482759 C40,177.137931 40.2690736,176.827586 40.655867,176.827586 C40.7904038,176.827586 40.9249406,176.862069 41.1267458,176.982759 C41.7826128,177.37931 42.472114,177.706897 43.3802375,177.706897 C44.5406176,177.706897 45.1460333,177.189655 45.1460333,176.465517 C45.1460333,175.775862 44.8433254,175.431034 43.5652257,175.293103 L42.7243705,175.206897 C41.1435629,175.034483 40.3195249,174.206897 40.3195249,172.87931 C40.3195249,171.310345 41.4126366,170.362069 43.296152,170.362069 C44.2379097,170.362069 45.0787648,170.603448 45.7009976,170.965517 C45.9868884,171.12069 46.1214252,171.310345 46.1214252,171.568966 C46.1214252,171.913793 45.8523515,172.189655 45.5160095,172.189655 C45.3814727,172.189655 45.2301188,172.155172 45.0114964,172.051724 C44.4733492,171.793103 43.8679335,171.62069 43.2288836,171.62069 C42.2198575,171.62069 41.6985273,172.086207 41.6985273,172.758621 C41.6985273,173.413793 42.0685036,173.758621 43.2793349,173.87931 L44.12019,173.965517 C45.8019002,174.155172 46.5418527,174.965517 46.5418527,176.310345 C46.5418527,177.931034 45.3982898,179 43.2625178,179 Z M51.368361,178.896552 L51.20019,178.896552 C49.552114,178.896552 48.9466983,178.189655 48.9466983,176.465517 L48.9466983,171.827586 C48.9466983,171.758621 48.9130641,171.724138 48.8457957,171.724138 L48.391734,171.724138 C48.0049406,171.724138 47.7863183,171.482759 47.7863183,171.137931 C47.7863183,170.793103 48.0049406,170.551724 48.391734,170.551724 L48.8457957,170.551724 C48.9130641,170.551724 48.9466983,170.517241 48.9466983,170.448276 L48.9466983,168.637931 C48.9466983,168.155172 49.2494062,167.862069 49.6530166,167.862069 C50.0566271,167.862069 50.3593349,168.155172 50.3593349,168.637931 L50.3593349,170.448276 C50.3593349,170.517241 50.3929691,170.551724 50.4602375,170.551724 L51.519715,170.551724 C51.9065083,170.551724 52.1251306,170.793103 52.1251306,171.137931 C52.1251306,171.482759 51.9065083,171.724138 51.519715,171.724138 L50.4602375,171.724138 C50.3929691,171.724138 50.3593349,171.758621 50.3593349,171.827586 L50.3593349,176.413793 C50.3593349,177.293103 50.5779572,177.551724 51.4356295,177.551724 C51.8728741,177.551724 52.1251306,177.827586 52.1251306,178.224138 C52.1251306,178.62069 51.8728741,178.896552 51.368361,178.896552 Z M60.4327791,171.241379 L60.4327791,178.12069 C60.4327791,178.603448 60.1300713,178.896552 59.7264608,178.896552 C59.3228504,178.896552 59.0201425,178.603448 59.0201425,178.12069 L59.0201425,177.87931 L59.0033254,177.87931 C58.6165321,178.517241 57.8765796,179 56.7834679,179 C55.0344893,179 54.0086461,177.775862 54.0086461,175.896552 L54.0086461,171.241379 C54.0086461,170.758621 54.3113539,170.465517 54.7149644,170.465517 C55.1185748,170.465517 55.4212827,170.758621 55.4212827,171.241379 L55.4212827,175.551724 C55.4212827,176.87931 55.9930641,177.655172 57.2038955,177.655172 C58.2970071,177.655172 59.0201425,176.862069 59.0201425,175.637931 L59.0201425,171.241379 C59.0201425,170.758621 59.3228504,170.465517 59.7264608,170.465517 C60.1300713,170.465517 60.4327791,170.758621 60.4327791,171.241379 Z M68.7740618,178.896552 C68.3704513,178.896552 68.0677435,178.603448 68.0677435,178.12069 L68.0677435,177.896552 L68.0509264,177.896552 C67.664133,178.551724 66.9578147,179 65.7638005,179 C64.4016152,179 63.4094062,178.224138 62.9889786,176.931034 C62.7871734,176.275862 62.7030879,175.62069 62.7030879,174.672414 C62.7030879,173.741379 62.7871734,173.086207 62.9889786,172.431034 C63.4094062,171.137931 64.4016152,170.362069 65.7638005,170.362069 C66.9746318,170.362069 67.6809501,170.827586 68.0509264,171.465517 L68.0677435,171.465517 L68.0677435,167.775862 C68.0677435,167.293103 68.3704513,167 68.7740618,167 C69.1776722,167 69.48038,167.293103 69.48038,167.775862 L69.48038,178.12069 C69.48038,178.603448 69.1776722,178.896552 68.7740618,178.896552 Z M72.9447031,168.896552 C72.44019,168.896552 72.0197625,168.465517 72.0197625,167.948276 C72.0197625,167.413793 72.44019,167 72.9447031,167 C73.4492162,167 73.8696437,167.413793 73.8696437,167.948276 C73.8696437,168.465517 73.4492162,168.896552 72.9447031,168.896552 Z M72.2383848,178.12069 L72.2383848,171.241379 C72.2383848,170.758621 72.5410926,170.465517 72.9447031,170.465517 C73.3483135,170.465517 73.6510214,170.758621 73.6510214,171.241379 L73.6510214,178.12069 C73.6510214,178.603448 73.3483135,178.896552 72.9447031,178.896552 C72.5410926,178.896552 72.2383848,178.603448 72.2383848,178.12069 Z M79.3688361,179 C77.8048456,179 76.6276485,178.172414 76.1904038,176.775862 C76.0054157,176.206897 75.9213302,175.637931 75.9213302,174.672414 C75.9213302,173.724138 76.0054157,173.155172 76.1904038,172.586207 C76.6276485,171.172414 77.8048456,170.362069 79.3688361,170.362069 C80.9328266,170.362069 82.1100238,171.172414 82.5472684,172.586207 C82.7322565,173.155172 82.816342,173.724138 82.816342,174.672414 C82.816342,175.637931 82.7322565,176.206897 82.5472684,176.775862 C82.1100238,178.172414 80.9328266,179 79.3688361,179 Z M89.1563895,178.12069 L89.1563895,171.241379 C89.1563895,170.758621 89.4590974,170.465517 89.8627078,170.465517 C90.2663183,170.465517 90.5690261,170.758621 90.5690261,171.241379 L90.5690261,171.482759 L90.5858432,171.482759 C90.9726366,170.844828 91.7462233,170.362069 92.8393349,170.362069 C94.5883135,170.362069 95.6309739,171.586207 95.6309739,173.465517 L95.6309739,178.12069 C95.6309739,178.603448 95.328266,178.896552 94.9246556,178.896552 C94.5210451,178.896552 94.2183373,178.603448 94.2183373,178.12069 L94.2183373,173.810345 C94.2183373,172.482759 93.6297387,171.706897 92.4189074,171.706897 C91.3257957,171.706897 90.5690261,172.5 90.5690261,173.724138 L90.5690261,178.12069 C90.5690261,178.603448 90.2663183,178.896552 89.8627078,178.896552 C89.4590974,178.896552 89.1563895,178.603448 89.1563895,178.12069 Z M101.331971,179 C99.6670784,179 98.5403325,178.206897 98.0862708,176.758621 C97.9180998,176.241379 97.8171971,175.655172 97.8171971,174.672414 C97.8171971,173.689655 97.9012827,173.103448 98.0694537,172.586207 C98.5235154,171.155172 99.6838955,170.362069 101.214252,170.362069 C102.795059,170.362069 103.938622,171.155172 104.375867,172.568966 C104.560855,173.12069 104.644941,173.758621 104.644941,174.568966 C104.644941,174.896552 104.426318,175.12069 104.089976,175.12069 L99.3643705,175.12069 C99.2971021,175.12069 99.2634679,175.155172 99.2634679,175.224138 C99.2634679,175.62069 99.2971021,175.896552 99.3980048,176.224138 C99.7007126,177.172414 100.440665,177.655172 101.432874,177.655172 C102.223278,177.655172 102.761425,177.413793 103.366841,176.948276 C103.535012,176.810345 103.686366,176.741379 103.854537,176.741379 C104.190879,176.741379 104.443135,177 104.443135,177.344828 C104.443135,177.551724 104.35905,177.724138 104.224513,177.862069 C103.535012,178.517241 102.576437,179 101.331971,179 Z M109.505083,178.896552 L109.336912,178.896552 C107.688836,178.896552 107.08342,178.189655 107.08342,176.465517 L107.08342,171.827586 C107.08342,171.758621 107.049786,171.724138 106.982518,171.724138 L106.528456,171.724138 C106.141663,171.724138 105.92304,171.482759 105.92304,171.137931 C105.92304,170.793103 106.141663,170.551724 106.528456,170.551724 L106.982518,170.551724 C107.049786,170.551724 107.08342,170.517241 107.08342,170.448276 L107.08342,168.637931 C107.08342,168.155172 107.386128,167.862069 107.789739,167.862069 C108.193349,167.862069 108.496057,168.155172 108.496057,168.637931 L108.496057,170.448276 C108.496057,170.517241 108.529691,170.551724 108.59696,170.551724 L109.656437,170.551724 C110.04323,170.551724 110.261853,170.793103 110.261853,171.137931 C110.261853,171.482759 110.04323,171.724138 109.656437,171.724138 L108.59696,171.724138 C108.529691,171.724138 108.496057,171.758621 108.496057,171.827586 L108.496057,176.413793 C108.496057,177.293103 108.714679,177.551724 109.572352,177.551724 C110.009596,177.551724 110.261853,177.827586 110.261853,178.224138 C110.261853,178.62069 110.009596,178.896552 109.505083,178.896552 Z M119.696247,178.896552 C119.275819,178.896552 118.989929,178.672414 118.838575,178.155172 L117.173682,172.724138 L117.140048,172.724138 L115.458337,178.155172 C115.290166,178.672414 115.021093,178.896552 114.617482,178.896552 C114.213872,178.896552 113.944798,178.672414 113.776627,178.155172 L111.640855,171.465517 C111.607221,171.362069 111.590404,171.241379 111.590404,171.155172 C111.590404,170.758621 111.859477,170.465517 112.279905,170.465517 C112.633064,170.465517 112.851686,170.672414 112.969406,171.086207 L114.667933,176.689655 L114.701568,176.689655 L116.383278,171.172414 C116.534632,170.672414 116.770071,170.465517 117.156865,170.465517 C117.543658,170.465517 117.779097,170.672414 117.930451,171.172414 L119.645796,176.689655 L119.67943,176.689655 L121.344323,171.086207 C121.462043,170.672414 121.680665,170.465517 122.033824,170.465517 C122.437435,170.465517 122.706508,170.758621 122.706508,171.155172 C122.706508,171.241379 122.689691,171.362069 122.656057,171.465517 L120.520285,178.155172 C120.352114,178.672414 120.08304,178.896552 119.696247,178.896552 Z M127.751639,179 C126.187648,179 125.010451,178.172414 124.573207,176.775862 C124.388219,176.206897 124.304133,175.637931 124.304133,174.672414 C124.304133,173.724138 124.388219,173.155172 124.573207,172.586207 C125.010451,171.172414 126.187648,170.362069 127.751639,170.362069 C129.315629,170.362069 130.492827,171.172414 130.930071,172.586207 C131.115059,173.155172 131.199145,173.724138 131.199145,174.672414 C131.199145,175.637931 131.115059,176.206897 130.930071,176.775862 C130.492827,178.172414 129.315629,179 127.751639,179 Z M134.175772,178.896552 C133.772162,178.896552 133.469454,178.603448 133.469454,178.12069 L133.469454,171.241379 C133.469454,170.758621 133.772162,170.465517 134.175772,170.465517 C134.579382,170.465517 134.88209,170.758621 134.88209,171.241379 L134.88209,171.62069 L134.898907,171.62069 C135.235249,170.87931 135.975202,170.362069 136.967411,170.362069 C137.522375,170.362069 137.892352,170.5 138.161425,170.655172 C138.447316,170.810345 138.565036,171.034483 138.565036,171.275862 C138.565036,171.689655 138.279145,172 137.858717,172 C137.757815,172 137.623278,171.965517 137.505558,171.913793 C137.20285,171.793103 136.91696,171.706897 136.580618,171.706897 C135.369786,171.706897 134.88209,172.741379 134.88209,174.12069 L134.88209,178.12069 C134.88209,178.603448 134.579382,178.896552 134.175772,178.896552 Z M140.314014,178.12069 L140.314014,167.775862 C140.314014,167.293103 140.616722,167 141.020333,167 C141.423943,167 141.726651,167.293103 141.726651,167.775862 L141.726651,174.534483 L145.022803,170.724138 C145.174157,170.551724 145.342328,170.465517 145.56095,170.465517 C145.880475,170.465517 146.149549,170.706897 146.149549,171.068966 C146.149549,171.258621 146.08228,171.396552 145.947743,171.551724 L144.081045,173.637931 L146.620428,177.810345 C146.704513,177.948276 146.738147,178.086207 146.738147,178.241379 C146.738147,178.603448 146.452257,178.896552 146.065463,178.896552 C145.79639,178.896552 145.577767,178.758621 145.409596,178.482759 L143.139287,174.672414 L141.726651,176.293103 L141.726651,178.12069 C141.726651,178.603448 141.423943,178.896552 141.020333,178.896552 C140.616722,178.896552 140.314014,178.603448 140.314014,178.12069 Z M155.701663,179 C154.474014,179 153.448171,178.568966 152.775487,178.086207 C152.556865,177.931034 152.439145,177.724138 152.439145,177.482759 C152.439145,177.137931 152.708219,176.827586 153.095012,176.827586 C153.229549,176.827586 153.364086,176.862069 153.565891,176.982759 C154.221758,177.37931 154.911259,177.706897 155.819382,177.706897 C156.979762,177.706897 157.585178,177.189655 157.585178,176.465517 C157.585178,175.775862 157.28247,175.431034 156.004371,175.293103 L155.163515,175.206897 C153.582708,175.034483 152.75867,174.206897 152.75867,172.87931 C152.75867,171.310345 153.851781,170.362069 155.735297,170.362069 C156.677055,170.362069 157.51791,170.603448 158.140143,170.965517 C158.426033,171.12069 158.56057,171.310345 158.56057,171.568966 C158.56057,171.913793 158.291496,172.189655 157.955154,172.189655 C157.820618,172.189655 157.669264,172.155172 157.450641,172.051724 C156.912494,171.793103 156.307078,171.62069 155.668029,171.62069 C154.659002,171.62069 154.137672,172.086207 154.137672,172.758621 C154.137672,173.413793 154.507648,173.758621 155.71848,173.87931 L156.559335,173.965517 C158.241045,174.155172 158.980998,174.965517 158.980998,176.310345 C158.980998,177.931034 157.837435,179 155.701663,179 Z M164.177482,179 C162.613492,179 161.436295,178.172414 160.99905,176.775862 C160.814062,176.206897 160.729976,175.637931 160.729976,174.672414 C160.729976,173.724138 160.814062,173.155172 160.99905,172.586207 C161.436295,171.172414 162.613492,170.362069 164.177482,170.362069 C165.741473,170.362069 166.91867,171.172414 167.355914,172.586207 C167.540903,173.155172 167.624988,173.724138 167.624988,174.672414 C167.624988,175.637931 167.540903,176.206897 167.355914,176.775862 C166.91867,178.172414 165.741473,179 164.177482,179 Z M171.980618,178.896552 L171.829264,178.896552 C170.382993,178.896552 169.861663,178.172414 169.861663,176.689655 L169.861663,167.775862 C169.861663,167.293103 170.164371,167 170.567981,167 C170.971591,167 171.274299,167.293103 171.274299,167.775862 L171.274299,176.603448 C171.274299,177.293103 171.492922,177.551724 172.047886,177.551724 C172.451496,177.551724 172.703753,177.827586 172.703753,178.224138 C172.703753,178.62069 172.451496,178.896552 171.980618,178.896552 Z M180.893682,171.241379 L180.893682,178.12069 C180.893682,178.603448 180.590974,178.896552 180.187363,178.896552 C179.783753,178.896552 179.481045,178.603448 179.481045,178.12069 L179.481045,177.87931 L179.464228,177.87931 C179.077435,178.517241 178.337482,179 177.244371,179 C175.495392,179 174.469549,177.775862 174.469549,175.896552 L174.469549,171.241379 C174.469549,170.758621 174.772257,170.465517 175.175867,170.465517 C175.579477,170.465517 175.882185,170.758621 175.882185,171.241379 L175.882185,175.551724 C175.882185,176.87931 176.453967,177.655172 177.664798,177.655172 C178.75791,177.655172 179.481045,176.862069 179.481045,175.637931 L179.481045,171.241379 C179.481045,170.758621 179.783753,170.465517 180.187363,170.465517 C180.590974,170.465517 180.893682,170.758621 180.893682,171.241379 Z M186.24152,178.896552 L186.073349,178.896552 C184.425273,178.896552 183.819857,178.189655 183.819857,176.465517 L183.819857,171.827586 C183.819857,171.758621 183.786223,171.724138 183.718955,171.724138 L183.264893,171.724138 C182.8781,171.724138 182.659477,171.482759 182.659477,171.137931 C182.659477,170.793103 182.8781,170.551724 183.264893,170.551724 L183.718955,170.551724 C183.786223,170.551724 183.819857,170.517241 183.819857,170.448276 L183.819857,168.637931 C183.819857,168.155172 184.122565,167.862069 184.526176,167.862069 C184.929786,167.862069 185.232494,168.155172 185.232494,168.637931 L185.232494,170.448276 C185.232494,170.517241 185.266128,170.551724 185.333397,170.551724 L186.392874,170.551724 C186.779667,170.551724 186.99829,170.793103 186.99829,171.137931 C186.99829,171.482759 186.779667,171.724138 186.392874,171.724138 L185.333397,171.724138 C185.266128,171.724138 185.232494,171.758621 185.232494,171.827586 L185.232494,176.413793 C185.232494,177.293103 185.451116,177.551724 186.308789,177.551724 C186.746033,177.551724 186.99829,177.827586 186.99829,178.224138 C186.99829,178.62069 186.746033,178.896552 186.24152,178.896552 Z M189.705843,168.896552 C189.20133,168.896552 188.780903,168.465517 188.780903,167.948276 C188.780903,167.413793 189.20133,167 189.705843,167 C190.210356,167 190.630784,167.413793 190.630784,167.948276 C190.630784,168.465517 190.210356,168.896552 189.705843,168.896552 Z M188.999525,178.12069 L188.999525,171.241379 C188.999525,170.758621 189.302233,170.465517 189.705843,170.465517 C190.109454,170.465517 190.412162,170.758621 190.412162,171.241379 L190.412162,178.12069 C190.412162,178.603448 190.109454,178.896552 189.705843,178.896552 C189.302233,178.896552 188.999525,178.603448 188.999525,178.12069 Z M196.129976,179 C194.565986,179 193.388789,178.172414 192.951544,176.775862 C192.766556,176.206897 192.68247,175.637931 192.68247,174.672414 C192.68247,173.724138 192.766556,173.155172 192.951544,172.586207 C193.388789,171.172414 194.565986,170.362069 196.129976,170.362069 C197.693967,170.362069 198.871164,171.172414 199.308409,172.586207 C199.493397,173.155172 199.577482,173.724138 199.577482,174.672414 C199.577482,175.637931 199.493397,176.206897 199.308409,176.775862 C198.871164,178.172414 197.693967,179 196.129976,179 Z M201.847791,178.12069 L201.847791,171.241379 C201.847791,170.758621 202.150499,170.465517 202.554109,170.465517 C202.95772,170.465517 203.260428,170.758621 203.260428,171.241379 L203.260428,171.482759 L203.277245,171.482759 C203.664038,170.844828 204.437625,170.362069 205.530736,170.362069 C207.279715,170.362069 208.322375,171.586207 208.322375,173.465517 L208.322375,178.12069 C208.322375,178.603448 208.019667,178.896552 207.616057,178.896552 C207.212447,178.896552 206.909739,178.603448 206.909739,178.12069 L206.909739,173.810345 C206.909739,172.482759 206.32114,171.706897 205.110309,171.706897 C204.017197,171.706897 203.260428,172.5 203.260428,173.724138 L203.260428,178.12069 C203.260428,178.603448 202.95772,178.896552 202.554109,178.896552 C202.150499,178.896552 201.847791,178.603448 201.847791,178.12069 Z M213.720665,179 C212.493017,179 211.467173,178.568966 210.794489,178.086207 C210.575867,177.931034 210.458147,177.724138 210.458147,177.482759 C210.458147,177.137931 210.727221,176.827586 211.114014,176.827586 C211.248551,176.827586 211.383088,176.862069 211.584893,176.982759 C212.24076,177.37931 212.930261,177.706897 213.838385,177.706897 C214.998765,177.706897 215.604181,177.189655 215.604181,176.465517 C215.604181,175.775862 215.301473,175.431034 214.023373,175.293103 L213.182518,175.206897 C211.60171,175.034483 210.777672,174.206897 210.777672,172.87931 C210.777672,171.310345 211.870784,170.362069 213.754299,170.362069 C214.696057,170.362069 215.536912,170.603448 216.159145,170.965517 C216.445036,171.12069 216.579572,171.310345 216.579572,171.568966 C216.579572,171.913793 216.310499,172.189655 215.974157,172.189655 C215.83962,172.189655 215.688266,172.155172 215.469644,172.051724 C214.931496,171.793103 214.326081,171.62069 213.687031,171.62069 C212.678005,171.62069 212.156675,172.086207 212.156675,172.758621 C212.156675,173.413793 212.526651,173.758621 213.737482,173.87931 L214.578337,173.965517 C216.260048,174.155172 217,174.965517 217,176.310345 C217,177.931034 215.856437,179 213.720665,179 Z M196.129976,177.655172 C197.021283,177.655172 197.67715,177.189655 197.946223,176.362069 C198.08076,175.913793 198.131211,175.465517 198.131211,174.672414 C198.131211,173.87931 198.08076,173.448276 197.946223,173 C197.67715,172.172414 197.021283,171.706897 196.129976,171.706897 C195.23867,171.706897 194.582803,172.172414 194.313729,173 C194.179192,173.448276 194.128741,173.87931 194.128741,174.672414 C194.128741,175.465517 194.179192,175.913793 194.313729,176.362069 C194.582803,177.189655 195.23867,177.655172 196.129976,177.655172 Z M164.177482,177.655172 C165.068789,177.655172 165.724656,177.189655 165.993729,176.362069 C166.128266,175.913793 166.178717,175.465517 166.178717,174.672414 C166.178717,173.87931 166.128266,173.448276 165.993729,173 C165.724656,172.172414 165.068789,171.706897 164.177482,171.706897 C163.286176,171.706897 162.630309,172.172414 162.361235,173 C162.226698,173.448276 162.176247,173.87931 162.176247,174.672414 C162.176247,175.465517 162.226698,175.913793 162.361235,176.362069 C162.630309,177.189655 163.286176,177.655172 164.177482,177.655172 Z M127.751639,177.655172 C128.642945,177.655172 129.298812,177.189655 129.567886,176.362069 C129.702423,175.913793 129.752874,175.465517 129.752874,174.672414 C129.752874,173.87931 129.702423,173.448276 129.567886,173 C129.298812,172.172414 128.642945,171.706897 127.751639,171.706897 C126.860333,171.706897 126.204466,172.172414 125.935392,173 C125.800855,173.448276 125.750404,173.87931 125.750404,174.672414 C125.750404,175.465517 125.800855,175.913793 125.935392,176.362069 C126.204466,177.189655 126.860333,177.655172 127.751639,177.655172 Z M99.3643705,173.965517 L103.097767,173.965517 C103.165036,173.965517 103.19867,173.931034 103.19867,173.862069 C103.19867,173.482759 103.165036,173.189655 103.08095,172.931034 C102.811876,172.103448 102.139192,171.637931 101.231069,171.637931 C100.322945,171.637931 99.6502613,172.103448 99.3811876,172.931034 C99.2971021,173.189655 99.2634679,173.482759 99.2634679,173.862069 C99.2634679,173.931034 99.2971021,173.965517 99.3643705,173.965517 Z M79.3688361,177.655172 C80.2601425,177.655172 80.9160095,177.189655 81.1850831,176.362069 C81.31962,175.913793 81.3700713,175.465517 81.3700713,174.672414 C81.3700713,173.87931 81.31962,173.448276 81.1850831,173 C80.9160095,172.172414 80.2601425,171.706897 79.3688361,171.706897 C78.4775297,171.706897 77.8216627,172.172414 77.5525891,173 C77.4180523,173.448276 77.367601,173.87931 77.367601,174.672414 C77.367601,175.465517 77.4180523,175.913793 77.5525891,176.362069 C77.8216627,177.189655 78.4775297,177.655172 79.3688361,177.655172 Z M66.1001425,177.655172 C67.008266,177.655172 67.6136817,177.189655 67.8827553,176.362069 C68.0341093,175.913793 68.0677435,175.396552 68.0677435,174.672414 C68.0677435,173.965517 68.0341093,173.448276 67.8827553,173 C67.6136817,172.172414 67.008266,171.706897 66.1001425,171.706897 C65.2088361,171.706897 64.6034204,172.172414 64.3343468,173 C64.1829929,173.448276 64.1493587,173.965517 64.1493587,174.672414 C64.1493587,175.396552 64.1829929,175.913793 64.3343468,176.362069 C64.6034204,177.189655 65.2088361,177.655172 66.1001425,177.655172 Z" id="Combined-Shape"></path>
        </g>
    </g>
</svg>