<svg width="230" height="160" viewBox="0 0 230 160" xmlns="http://www.w3.org/2000/svg"><g fill="none" fill-rule="evenodd"><g opacity=".301"><path d="M156.344 100.902c-5.589-.184-11.203-1.7-16.043-5.764-1.09-.915-1.556-2.07-1.2-3.523.325-1.334 1.163-2.264 2.43-2.293.87-.02 1.864.301 2.606.802 3.606 2.436 7.426 4.152 11.738 4.361 2.25.11 4.467-.15 6.498-1.283 1.702-.95 2.774-2.351 2.592-4.573-.181-2.216-1.412-3.512-3.29-3.996-3.724-.96-7.491-1.731-11.228-2.639a23.544 23.544 0 0 1-3.701-1.205c-6.832-2.925-8.799-11.525-4.018-17.566 2.812-3.554 6.628-4.891 10.794-5.213 4.515-.35 8.79.688 12.712 3.136.989.617 1.908 1.42 2.721 2.287 1.443 1.538 1.46 3.057.213 4.71-1.146 1.52-2.345 1.68-4.12.542-1.3-.833-2.568-1.726-3.902-2.492-3.19-1.833-6.573-2.017-9.996-.995-1.038.31-2.085.926-2.903 1.681-2.463 2.275-1.963 6.314 1.046 7.588 2.258.957 4.712 1.382 7.072 2.07 2.918.852 5.928 1.467 8.718 2.663 3.907 1.675 6.475 4.651 6.401 9.551-.074 4.987-2.394 8.347-6.495 10.424-2.588 1.311-5.368 1.701-8.645 1.727zm-51.197-38.066c.432-.268.787-.454 1.108-.691 10.203-7.527 23.76-1.62 26.04 11.403.35 1.997.374 4.075.393 6.117.05 5.44.018 10.88.015 16.321 0 .477.004.956-.044 1.429-.227 2.273-1.472 3.522-3.38 3.414-1.977-.113-2.956-1.222-2.992-3.586-.05-3.149.003-6.3-.02-9.449-.025-3.72.085-7.454-.172-11.158-.308-4.43-2.211-7.995-6.211-9.746-4.083-1.788-7.971-1.187-11.41 1.875-2.332 2.078-3.163 4.93-3.216 8.029-.111 6.487-.108 12.977-.161 19.465-.005.666-.011 1.342-.117 1.995-.296 1.84-1.522 2.882-3.296 2.871-1.675-.01-2.715-.936-3.046-2.78-.1-.556-.099-1.139-.1-1.71-.009-10.546-.012-21.092-.015-31.639 0-.524.003-1.051.042-1.573.18-2.428.978-3.62 2.53-3.815 2.164-.272 3.247.549 4.052 3.228zm-28.47 38.068c-5.496-.201-10.885-1.604-15.557-5.357-.683-.548-1.37-1.307-1.673-2.13-.449-1.215-.13-2.473.834-3.382 1.005-.948 2.175-1.076 3.36-.428.87.477 1.68 1.08 2.534 1.597 4.483 2.724 9.223 4.1 14.367 2.795 1.172-.298 2.386-.908 3.312-1.724 2.314-2.04 1.79-5.865-.938-7.207-1.037-.51-2.194-.776-3.319-1.047-3.304-.793-6.626-1.505-9.928-2.31-.993-.243-1.955-.654-2.908-1.05-8.544-3.558-7.357-14.456-2.63-18.707 2.67-2.4 5.762-3.59 9.17-3.887 5.384-.47 10.373.77 14.782 4.224a8.214 8.214 0 0 1 1.606 1.703c.946 1.334.778 2.937-.352 4.298-1.084 1.306-2.216 1.497-3.698.578-1.464-.908-2.875-1.922-4.373-2.76-3.112-1.743-6.407-1.894-9.75-.95-.844.238-1.677.682-2.403 1.207-1.51 1.09-2.287 2.648-2.109 4.64.174 1.952 1.337 3.18 2.948 3.694 2.64.843 5.365 1.38 8.032 2.136 2.492.707 5.041 1.31 7.41 2.357 3.743 1.656 6.336 4.507 6.407 9.15.072 4.783-1.977 8.31-5.935 10.528-2.795 1.566-5.832 2.007-9.189 2.032z" fill="#D4E1ED"/></g></g></svg>