<?xml version="1.0" encoding="UTF-8"?>
<svg width="230px" height="160px" viewBox="0 0 230 160" version="1.1" xmlns="http://www.w3.org/2000/svg" xmlns:xlink="http://www.w3.org/1999/xlink">
    <!-- Generator: Sketch 48.2 (47327) - http://www.bohemiancoding.com/sketch -->
    <defs></defs>
    <g id="---Logos" stroke="none" stroke-width="1" fill="none" fill-rule="evenodd" opacity="0.301">
        <g id="Group-2" fill="#D4E1ED">
            <path d="M135.531572,42.9262533 C141.744545,41.9860582 146.579297,42.319402 148.315779,44.0559399 C151.666205,47.4064765 149.796491,52.973331 144.665947,55.0544204 C140.895509,56.5838132 134.163905,57.1969465 124.471135,56.8938203 C119.617975,61.2087162 113.481401,66.4527937 106.061412,72.626053 C102.094191,75.9266891 95.6572266,76.9785156 91.2740295,73.0821058 C87.8458286,70.0346326 89.1603517,62.9435587 94.04657,59.7562155 C97.3491834,57.6018782 103.394914,55.742255 112.183763,54.1773457 C117.920142,50.0246003 128.066406,44.0559399 135.531572,42.9262533 Z M142.990887,52.6742346 C145.434764,51.8898116 146.498926,49.6413098 145.062869,48.2052054 C144.31858,47.4608918 141.936779,46.919341 139.583312,47.721 C135.075896,49.2563563 131.111157,51.4565768 127.689096,54.3216614 C133.540998,54.6193899 138.641595,54.0702477 142.990887,52.6742346 Z M95.1693986,61.4537074 C93.6138513,62.3103313 93.1865129,63.977364 94.3492877,64.7613128 C94.9519382,65.1676229 96.6392032,65.2190291 98.1311394,64.3627073 C100.988531,62.7226594 104.220672,60.3519992 107.827561,57.2507267 C102.157145,58.5282073 97.9377573,59.9292008 95.1693986,61.4537074 Z" id="Combined-Shape"></path>
            <path d="M57.7035954,93 C56.6307401,93 55.872589,92.8600509 55.3147042,92.6081425 C55.0715237,92.5101781 55,92.3282443 55,92.0483461 C55,90.9147583 55.0429142,90.3829517 55.0858284,89.9910941 C55.1144379,89.7391858 55.1716569,89.6552163 55.2574853,89.6552163 C55.3576184,89.6552163 55.3719232,89.7811705 55.3862279,89.8931298 C55.4005327,90.0330789 55.4148374,90.1590331 55.4577516,90.326972 C55.7009321,91.4745547 56.7737875,92.1323155 57.889557,92.1323155 C59.2485071,92.1323155 59.6633445,91.4465649 59.6633445,90.8447837 C59.6633445,90.2569975 59.5489066,89.7671756 58.3330039,88.9554707 L57.4461102,88.3536896 C55.7009321,87.1501272 55.2145711,86.1704835 55.2145711,84.9389313 C55.2145711,83.3295165 56.5735212,82.0279898 58.8622792,82.0279898 C59.4773829,82.0279898 59.906525,82.0559796 60.507324,82.1679389 C60.7361998,82.2099237 60.9793804,82.2659033 61.2082562,82.3358779 C61.3513036,82.3778626 61.3942178,82.4198473 61.3942178,82.5318066 C61.3656083,82.9796438 61.3369988,83.259542 61.3369988,84.5050891 C61.3369988,84.7569975 61.2940846,84.8549618 61.1796467,84.8549618 C61.108123,84.8549618 61.0509041,84.8129771 61.0222946,84.5890585 C61.0079898,84.4491094 60.9650756,84.0992366 60.7648093,83.7773537 C60.4930193,83.3295165 59.8350014,82.8536896 58.8050602,82.8536896 C57.6320717,82.8536896 57.2029296,83.4974555 57.2029296,84.1412214 C57.2029296,84.6170483 57.3745865,85.1628499 58.3473086,85.8066158 L59.0768503,86.2824427 C61.0795135,87.5839695 61.708922,88.4516539 61.708922,89.8651399 C61.708922,90.8307888 61.2654751,91.7824427 60.1926198,92.3982188 C59.362945,92.8880407 58.4474418,93 57.7035954,93 Z M71.7170367,93 C67.4971391,93 65.6947421,90.0330789 65.6947421,87.5559796 C65.6947421,84.7569975 67.611577,82.0279898 71.8171698,82.0279898 C75.4505732,82.0279898 77.7250265,84.4071247 77.7250265,87.2480916 C77.7250265,90.5089059 75.464878,93 71.7170367,93 Z M72.1461788,92.1043257 C73.0330726,92.1043257 74.864079,91.7264631 74.864079,87.8638677 C74.864079,85.5407125 73.8770521,82.8956743 71.3451135,82.8956743 C70.0290776,82.8956743 68.5556896,83.6094148 68.5556896,86.9262087 C68.5556896,89.5712468 69.6857639,92.1043257 72.1461788,92.1043257 Z M85.3871642,86.4223919 L85.3871642,88.759542 C85.3871642,90.173028 85.34425,91.1806616 85.5874306,91.4745547 C85.7876969,91.740458 86.0594869,91.8104326 87.2467801,91.8104326 C88.0335407,91.8104326 88.4912923,91.7964377 88.891825,91.586514 C89.2351387,91.43257 89.4783192,91.0687023 89.6356713,90.4109415 C89.6785855,90.2569975 89.707195,90.1450382 89.8216329,90.1450382 C89.9217661,90.1450382 89.9360708,90.2150127 89.9360708,90.4109415 C89.9360708,90.7328244 89.7787187,92.062341 89.6356713,92.4681934 C89.5212334,92.8320611 89.4067955,92.846056 88.834606,92.846056 C86.8605522,92.846056 85.5302116,92.7620865 84.0139094,92.7620865 C83.3415867,92.7620865 82.5691309,92.8040712 81.7823703,92.8040712 C81.582104,92.8040712 81.4676661,92.7760814 81.4676661,92.6501272 C81.4676661,92.5661578 81.5534945,92.524173 81.7537608,92.524173 C81.9254177,92.5101781 82.0827698,92.4961832 82.2401219,92.4681934 C82.7550925,92.3842239 82.7693972,92.1323155 82.8123114,91.0127226 C82.8409209,90.4529262 82.8552257,89.6132316 82.8552257,88.7455471 L82.8552257,86.2824427 C82.8552257,84.0012723 82.8409209,83.7493639 82.8123114,83.3015267 C82.783702,82.9096692 82.6835688,82.6717557 82.3259504,82.5737913 C82.1972077,82.5318066 81.9826366,82.5178117 81.7680656,82.5038168 C81.6107135,82.5038168 81.4676661,82.475827 81.4676661,82.3638677 C81.4676661,82.2519084 81.6107135,82.2239186 81.8968082,82.2239186 C82.7121783,82.2239186 83.4560246,82.2659033 84.0139094,82.2659033 C84.142652,82.2659033 85.9164395,82.2239186 86.4314101,82.2239186 C86.6888954,82.2239186 86.7747238,82.2659033 86.7747238,82.3498728 C86.7747238,82.475827 86.6316764,82.5038168 86.4314101,82.5038168 C86.2883627,82.5178117 86.1453153,82.5178117 85.945049,82.5597964 C85.5588211,82.629771 85.4586879,82.8956743 85.4300784,83.3854962 C85.401469,83.8333333 85.3871642,84.1132316 85.3871642,86.4223919 Z M94.5083852,88.7455471 L94.5083852,86.2824427 C94.5083852,84.1132316 94.5083852,83.7073791 94.465471,83.259542 C94.4368615,82.8676845 94.2795094,82.6157761 93.9648051,82.5597964 C93.864672,82.5318066 93.7216246,82.5178117 93.535663,82.5038168 C93.3640062,82.5038168 93.263873,82.4478372 93.263873,82.3498728 C93.263873,82.2659033 93.3353967,82.2239186 93.5785772,82.2239186 C94.1507667,82.2239186 95.552631,82.2659033 95.6670689,82.2659033 C95.7958116,82.2659033 97.4837706,82.2239186 97.9987412,82.2239186 C98.2419217,82.2239186 98.3134454,82.2798982 98.3134454,82.3638677 C98.3134454,82.475827 98.1847028,82.5038168 98.0416554,82.5038168 C97.898608,82.5178117 97.8127796,82.5178117 97.626818,82.5458015 C97.2548948,82.6157761 97.1118474,82.7977099 97.083238,83.3015267 C97.0403238,83.7493639 97.0403238,84.1132316 97.0403238,86.2824427 L97.0403238,88.7455471 C97.0403238,89.851145 97.0546285,91.1526718 97.1118474,91.740458 C97.1404569,92.1043257 97.2262853,92.3562341 97.6554275,92.4541985 C97.8413891,92.4961832 98.0988743,92.5101781 98.2848359,92.524173 C98.5280165,92.524173 98.5852354,92.5801527 98.5852354,92.6641221 C98.5852354,92.7340967 98.5137117,92.8040712 98.2848359,92.8040712 C97.3121138,92.8040712 95.7815068,92.7620865 95.6527642,92.7620865 C95.5812405,92.7620865 94.079243,92.8040712 93.592882,92.8040712 C93.3640062,92.8040712 93.2495683,92.7760814 93.2495683,92.6641221 C93.2495683,92.5661578 93.3640062,92.524173 93.535663,92.524173 C93.6787104,92.5101781 93.8217578,92.4961832 93.9791099,92.4681934 C94.2795094,92.4262087 94.3796425,92.1183206 94.4225568,91.7124682 C94.4797757,91.1246819 94.5083852,90.1170483 94.5083852,88.7455471 Z M103.844177,88.7455471 L103.844177,86.2824427 C103.844177,84.2251908 103.844177,83.8333333 103.815568,83.3854962 C103.786958,82.9796438 103.715435,82.6017812 103.171855,82.5458015 C103.057417,82.5318066 102.914369,82.5318066 102.642579,82.5038168 C102.428008,82.4898219 102.370789,82.4198473 102.370789,82.3498728 C102.370789,82.2659033 102.456618,82.2239186 102.699798,82.2239186 C103.057417,82.2239186 104.373452,82.2659033 105.002861,82.2659033 C105.474917,82.2659033 106.11863,82.2519084 107.320228,82.2379135 C109.766339,82.2519084 111.683173,82.5597964 112.984905,83.8613232 C113.714446,84.5750636 114.358159,85.7506361 114.358159,87.4160305 C114.358159,89.1094148 113.600008,90.4949109 112.784638,91.2506361 C112.083706,91.9503817 110.76767,92.9160305 107.892418,92.9160305 C107.320228,92.9160305 106.833867,92.9020356 106.361811,92.8600509 C105.803926,92.8040712 105.217432,92.7620865 104.945642,92.7620865 C104.602328,92.7620865 104.259015,92.7620865 103.858482,92.7760814 C103.457949,92.7900763 103.271988,92.8040712 102.871455,92.8040712 C102.628274,92.8040712 102.58536,92.7340967 102.58536,92.6641221 C102.58536,92.5661578 102.699798,92.524173 102.85715,92.524173 C103.043112,92.5101781 103.143245,92.4961832 103.300597,92.4681934 C103.586692,92.4262087 103.729739,92.1603053 103.772654,91.6145038 C103.815568,90.9427481 103.844177,89.9491094 103.844177,88.7455471 Z M106.376116,86.0585242 L106.376116,87.8498728 C106.376116,89.3333333 106.390421,90.2989822 106.404725,90.5648855 C106.433335,91.1386768 106.490554,91.4185751 106.647906,91.5725191 C106.905391,91.8804071 107.491885,92.0763359 108.121294,92.0763359 C109.122625,92.0763359 109.966605,91.8664122 110.724756,91.0966921 C111.468602,90.3689567 111.654564,89.1234097 111.654564,87.807888 C111.654564,86.5343511 111.182508,85.4007634 110.581709,84.6030534 C109.594682,83.3435115 108.235732,83.0776081 107.291619,83.0776081 C106.976915,83.0776081 106.647906,83.1195929 106.519163,83.1895674 C106.404725,83.2455471 106.390421,83.3155216 106.390421,83.4414758 C106.404725,83.9173028 106.376116,84.9249364 106.376116,86.0585242 Z M127.307848,93 C126.234993,93 125.476842,92.8600509 124.918957,92.6081425 C124.675777,92.5101781 124.604253,92.3282443 124.604253,92.0483461 C124.604253,90.9147583 124.647167,90.3829517 124.690081,89.9910941 C124.718691,89.7391858 124.77591,89.6552163 124.861738,89.6552163 C124.961871,89.6552163 124.976176,89.7811705 124.990481,89.8931298 C125.004786,90.0330789 125.01909,90.1590331 125.062005,90.326972 C125.305185,91.4745547 126.37804,92.1323155 127.49381,92.1323155 C128.85276,92.1323155 129.267597,91.4465649 129.267597,90.8447837 C129.267597,90.2569975 129.15316,89.7671756 127.937257,88.9554707 L127.050363,88.3536896 C125.305185,87.1501272 124.818824,86.1704835 124.818824,84.9389313 C124.818824,83.3295165 126.177774,82.0279898 128.466532,82.0279898 C129.081636,82.0279898 129.510778,82.0559796 130.111577,82.1679389 C130.340453,82.2099237 130.583633,82.2659033 130.812509,82.3358779 C130.955556,82.3778626 130.998471,82.4198473 130.998471,82.5318066 C130.969861,82.9796438 130.941252,83.259542 130.941252,84.5050891 C130.941252,84.7569975 130.898338,84.8549618 130.7839,84.8549618 C130.712376,84.8549618 130.655157,84.8129771 130.626548,84.5890585 C130.612243,84.4491094 130.569329,84.0992366 130.369062,83.7773537 C130.097272,83.3295165 129.439254,82.8536896 128.409313,82.8536896 C127.236325,82.8536896 126.807183,83.4974555 126.807183,84.1412214 C126.807183,84.6170483 126.978839,85.1628499 127.951562,85.8066158 L128.681103,86.2824427 C130.683766,87.5839695 131.313175,88.4516539 131.313175,89.8651399 C131.313175,90.8307888 130.869728,91.7824427 129.796873,92.3982188 C128.967198,92.8880407 128.051695,93 127.307848,93 Z M140.977976,83.259542 L140.977976,88.7455471 C140.977976,89.8371501 140.977976,91.1386768 141.0495,91.7264631 C141.078109,92.0903308 141.178242,92.3842239 141.607384,92.4541985 C141.793346,92.4821883 141.965003,92.4961832 142.222488,92.524173 C142.451364,92.5381679 142.508583,92.5801527 142.508583,92.678117 C142.508583,92.7620865 142.437059,92.8040712 142.179574,92.8040712 C141.206852,92.8040712 139.819292,92.7620865 139.590416,92.7620865 C139.347236,92.7620865 137.959676,92.8040712 137.48762,92.8040712 C137.258744,92.8040712 137.158611,92.7760814 137.158611,92.6641221 C137.158611,92.5661578 137.273049,92.524173 137.444706,92.524173 C137.587753,92.5101781 137.745105,92.4961832 137.902457,92.4681934 C138.217162,92.4122137 138.317295,92.1043257 138.360209,91.6984733 C138.417428,91.110687 138.446037,90.1030534 138.446037,88.7455471 L138.446037,83.259542 C137.888153,83.259542 137.001259,83.2455471 136.286022,83.2875318 C135.484957,83.3295165 135.170252,83.5114504 134.984291,84.0012723 C134.912767,84.1552163 134.884158,84.2391858 134.855548,84.3231552 C134.826939,84.4351145 134.784024,84.5470738 134.683891,84.5470738 C134.555149,84.5470738 134.555149,84.4351145 134.569453,84.2671756 C134.626672,83.6933842 134.784024,82.937659 134.884158,82.4058524 C134.912767,82.1959288 134.955681,82.0559796 135.04151,82.0559796 C135.141643,82.0559796 135.198862,82.0979644 135.527871,82.1679389 C135.785356,82.2239186 136.572117,82.2659033 137.115697,82.2659033 L143.338258,82.2659033 C143.781705,82.2659033 144.03919,82.2379135 144.239456,82.2099237 C144.468332,82.1679389 144.58277,82.1259542 144.682903,82.1259542 C144.811646,82.1259542 144.82595,82.2099237 144.82595,82.5597964 C144.82595,82.7557252 144.740122,84.0572519 144.725817,84.4071247 C144.711512,84.6030534 144.668598,84.6870229 144.58277,84.6870229 C144.468332,84.6870229 144.439722,84.6030534 144.425418,84.4351145 C144.411113,84.2811705 144.411113,84.2251908 144.396808,84.1552163 C144.339589,83.721374 144.125018,83.3854962 143.281039,83.3295165 C142.808982,83.2875318 142.065136,83.259542 140.977976,83.259542 Z M152.67405,89.9071247 L149.398265,89.9071247 C149.326741,89.9071247 149.298132,89.9351145 149.269522,90.0050891 L148.826075,91.1526718 C148.683028,91.5165394 148.597199,91.8804071 148.597199,92.0483461 C148.597199,92.3142494 148.725942,92.4402036 149.026342,92.4681934 C149.183694,92.4961832 149.412569,92.5101781 149.527007,92.524173 C149.741578,92.524173 149.784493,92.5941476 149.784493,92.6641221 C149.784493,92.7760814 149.670055,92.8040712 149.484093,92.8040712 C148.84038,92.8040712 148.354019,92.7620865 147.595868,92.7620865 C147.438516,92.7620865 146.494403,92.8040712 145.779166,92.8040712 C145.5789,92.8040712 145.493071,92.7480916 145.493071,92.6641221 C145.493071,92.5521628 145.593204,92.524173 145.764861,92.524173 C145.936518,92.5101781 146.079566,92.4961832 146.222613,92.4681934 C146.723279,92.370229 147.009374,91.9363868 147.309773,91.264631 L151.129138,82.8117048 C151.400928,82.2099237 151.55828,82 151.715632,82 C151.85868,82 151.987422,82.1959288 152.230603,82.6997455 C152.602526,83.4834606 155.005722,88.8435115 155.978444,90.9707379 C156.464805,92.062341 156.779509,92.3982188 157.280175,92.4681934 C157.437527,92.5101781 157.609184,92.5101781 157.737927,92.524173 C157.923888,92.524173 158.009717,92.5801527 158.009717,92.6641221 C158.009717,92.7620865 157.909584,92.8040712 157.637794,92.8040712 C156.235929,92.8040712 154.605189,92.7760814 153.689686,92.7620865 C153.46081,92.7620865 153.374982,92.7201018 153.374982,92.6361323 C153.374982,92.5521628 153.446505,92.4961832 153.575248,92.4681934 C153.7326,92.4402036 153.789819,92.3422392 153.746905,92.216285 L152.788488,89.9910941 C152.774183,89.9351145 152.716964,89.9071247 152.67405,89.9071247 Z M149.813102,88.7875318 L152.259212,88.7875318 C152.345041,88.7875318 152.345041,88.7455471 152.330736,88.7175573 L151.071919,85.7226463 C151.029005,85.6246819 151.000395,85.6526718 150.971786,85.7226463 L149.755883,88.7175573 C149.741578,88.759542 149.770188,88.7875318 149.813102,88.7875318 Z M164.784961,83.259542 L164.784961,88.7455471 C164.784961,89.8371501 164.784961,91.1386768 164.856484,91.7264631 C164.885094,92.0903308 164.985227,92.3842239 165.414369,92.4541985 C165.600331,92.4821883 165.771988,92.4961832 166.029473,92.524173 C166.258349,92.5381679 166.315568,92.5801527 166.315568,92.678117 C166.315568,92.7620865 166.244044,92.8040712 165.986559,92.8040712 C165.013837,92.8040712 163.626277,92.7620865 163.397401,92.7620865 C163.154221,92.7620865 161.766661,92.8040712 161.294605,92.8040712 C161.065729,92.8040712 160.965596,92.7760814 160.965596,92.6641221 C160.965596,92.5661578 161.080034,92.524173 161.251691,92.524173 C161.394738,92.5101781 161.55209,92.4961832 161.709442,92.4681934 C162.024146,92.4122137 162.12428,92.1043257 162.167194,91.6984733 C162.224413,91.110687 162.253022,90.1030534 162.253022,88.7455471 L162.253022,83.259542 C161.695137,83.259542 160.808244,83.2455471 160.093007,83.2875318 C159.291941,83.3295165 158.977237,83.5114504 158.791276,84.0012723 C158.719752,84.1552163 158.691143,84.2391858 158.662533,84.3231552 C158.633924,84.4351145 158.591009,84.5470738 158.490876,84.5470738 C158.362134,84.5470738 158.362134,84.4351145 158.376438,84.2671756 C158.433657,83.6933842 158.591009,82.937659 158.691143,82.4058524 C158.719752,82.1959288 158.762666,82.0559796 158.848495,82.0559796 C158.948628,82.0559796 159.005847,82.0979644 159.334856,82.1679389 C159.592341,82.2239186 160.379102,82.2659033 160.922682,82.2659033 L167.145243,82.2659033 C167.588689,82.2659033 167.846175,82.2379135 168.046441,82.2099237 C168.275317,82.1679389 168.389755,82.1259542 168.489888,82.1259542 C168.61863,82.1259542 168.632935,82.2099237 168.632935,82.5597964 C168.632935,82.7557252 168.547107,84.0572519 168.532802,84.4071247 C168.518497,84.6030534 168.475583,84.6870229 168.389755,84.6870229 C168.275317,84.6870229 168.246707,84.6030534 168.232403,84.4351145 C168.218098,84.2811705 168.218098,84.2251908 168.203793,84.1552163 C168.146574,83.721374 167.932003,83.3854962 167.088024,83.3295165 C166.615967,83.2875318 165.872121,83.259542 164.784961,83.259542 Z M173.333992,88.7455471 L173.333992,86.2824427 C173.333992,84.0012723 173.319687,83.721374 173.291078,83.2735369 C173.262469,82.8676845 173.133726,82.629771 172.776107,82.5458015 C172.647365,82.5178117 172.447098,82.5178117 172.304051,82.5038168 C172.11809,82.4898219 172.046566,82.4338422 172.046566,82.3498728 C172.046566,82.2659033 172.132394,82.2239186 172.36127,82.2239186 C173.17664,82.2239186 173.863268,82.2659033 174.492676,82.2659033 C174.793075,82.2659033 178.297736,82.2519084 178.526612,82.2519084 C178.812707,82.2519084 179.15602,82.2239186 179.299068,82.1959288 C179.399201,82.1679389 179.470725,82.1399491 179.527944,82.1399491 C179.599467,82.1399491 179.613772,82.1959288 179.613772,82.2659033 C179.613772,82.3358779 179.585163,82.475827 179.542248,82.8816794 C179.499334,83.1615776 179.470725,83.6513995 179.42781,84.3791349 C179.42781,84.4910941 179.370592,84.5750636 179.284763,84.5750636 C179.213239,84.5750636 179.15602,84.5050891 179.141716,84.3791349 C179.141716,84.2251908 179.127411,84.0852417 179.070192,83.889313 C178.998668,83.56743 178.812707,83.3854962 178.126079,83.3295165 C177.654023,83.2875318 176.409511,83.259542 175.980369,83.259542 C175.89454,83.259542 175.865931,83.3015267 175.865931,83.3994911 L175.865931,86.4783715 C175.865931,86.5763359 175.880236,86.6463104 175.980369,86.6463104 C176.380901,86.6603053 177.539585,86.6463104 178.054556,86.6323155 C178.755488,86.6043257 178.941449,86.562341 179.098802,86.3104326 C179.18463,86.1844784 179.227544,86.1284987 179.299068,86.1284987 C179.384896,86.1284987 179.384896,86.2124682 179.384896,86.2964377 C179.384896,86.4363868 179.313373,86.9402036 179.270458,87.4860051 C179.256154,87.807888 179.256154,88.4936387 179.256154,88.6475827 C179.256154,88.8295165 179.213239,88.913486 179.127411,88.913486 C179.027278,88.913486 178.998668,88.8155216 178.970059,88.6895674 C178.955754,88.5776081 178.941449,88.4796438 178.927145,88.3676845 C178.869926,87.9618321 178.669659,87.7239186 177.968727,87.6819338 C177.568195,87.653944 176.395206,87.6259542 175.951759,87.6259542 C175.880236,87.6259542 175.865931,87.6959288 175.865931,87.807888 L175.865931,88.7735369 C175.865931,89.2493639 175.851626,90.0750636 175.865931,90.6068702 C175.880236,91.586514 176.080502,91.8104326 177.668328,91.8104326 C178.040251,91.8104326 178.598136,91.7964377 178.998668,91.6424936 C179.399201,91.4885496 179.570858,91.1806616 179.699601,90.5368957 C179.72821,90.3689567 179.785429,90.2849873 179.871257,90.2849873 C179.985695,90.2849873 180,90.4249364 180,90.5928753 C180,91.1386768 179.842648,92.2022901 179.771124,92.4681934 C179.670991,92.8320611 179.570858,92.846056 179.041583,92.846056 C177.067529,92.846056 175.994673,92.7620865 174.492676,92.7620865 C173.820353,92.7620865 173.219554,92.8040712 172.432794,92.8040712 C172.175308,92.8040712 172.08948,92.7620865 172.08948,92.6641221 C172.08948,92.5941476 172.161004,92.524173 172.375575,92.524173 C172.547232,92.5101781 172.690279,92.4961832 172.804717,92.4681934 C173.20525,92.4122137 173.262469,91.8804071 173.291078,90.9987277 C173.319687,90.4389313 173.333992,89.6132316 173.333992,88.7455471 Z" id="SOLID-STATE"></path>
            <path d="M55.7612551,105.769427 C55.7997023,104.194904 55.7843234,102.352866 55.8304601,101.366879 C55.8381496,101.13758 55.8689073,101 55.9611807,101 C56.0226963,101 56.0611435,101.02293 56.2610691,101.183439 C56.5840258,101.450955 56.9838769,101.833121 58.74476,103.438217 C59.5290834,104.156688 60.0596551,104.66879 60.2672702,104.852229 L60.2211335,101.985987 C60.2057546,101.557962 60.1673074,101.359236 59.8597296,101.305732 C59.7520773,101.282803 59.6290462,101.275159 59.521394,101.267516 C59.4214312,101.267516 59.3829839,101.229299 59.3829839,101.191083 C59.3829839,101.13758 59.4521889,101.11465 59.5367728,101.11465 C59.8443507,101.11465 60.3441646,101.13758 60.6517424,101.13758 C60.8209102,101.13758 61.2053825,101.11465 61.5283392,101.11465 C61.6436809,101.11465 61.697507,101.13758 61.697507,101.183439 C61.697507,101.221656 61.6590598,101.267516 61.5667865,101.267516 C61.4668237,101.275159 61.4283764,101.275159 61.3745503,101.290446 C61.1207986,101.321019 61.0439042,101.450955 61.0208358,101.924841 C60.9593203,103.461146 60.9593203,104.989809 60.9285625,106.526115 C60.9285625,106.915924 60.8747364,107 60.7747736,107 C60.6517424,107 60.4133696,106.816561 59.9135557,106.380892 C59.3906734,105.922293 58.7140022,105.318471 58.2526354,104.898089 C57.8220265,104.50828 57.0530819,103.789809 56.4917524,103.247134 L56.5686469,105.853503 C56.5840258,106.403822 56.6147836,106.610191 56.830088,106.686624 C56.9454297,106.724841 57.0838397,106.724841 57.2376286,106.740127 C57.3529703,106.747771 57.3914176,106.770701 57.3914176,106.816561 C57.3914176,106.877707 57.329902,106.892994 57.2068709,106.892994 C56.9377403,106.892994 56.691678,106.877707 56.2149324,106.870064 C56.0380751,106.870064 55.4690562,106.892994 55.1691678,106.892994 C55.0615156,106.892994 55,106.877707 55,106.816561 C55,106.770701 55.0384472,106.740127 55.1460995,106.740127 C55.2153045,106.732484 55.3152673,106.732484 55.3998512,106.717197 C55.6997395,106.671338 55.7381868,106.480255 55.7612551,105.769427 Z M73.58539,104.676433 L73.58539,103.33121 C73.58539,102.08535 73.5777006,101.932484 73.5623217,101.687898 C73.5469428,101.466242 73.4777378,101.336306 73.2855017,101.290446 C73.2162967,101.275159 73.1086444,101.275159 73.03175,101.267516 C72.9317872,101.259873 72.8933399,101.229299 72.8933399,101.183439 C72.8933399,101.13758 72.9394766,101.11465 73.0625077,101.11465 C73.5008061,101.11465 73.8698995,101.13758 74.2082351,101.13758 C74.3697135,101.13758 76.2536276,101.129936 76.3766588,101.129936 C76.5304477,101.129936 76.7149944,101.11465 76.7918888,101.099363 C76.8457149,101.084076 76.8841622,101.06879 76.9149199,101.06879 C76.9533672,101.06879 76.9610566,101.099363 76.9610566,101.13758 C76.9610566,101.175796 76.9456777,101.252229 76.9226094,101.473885 C76.8995411,101.626752 76.8841622,101.894268 76.8610938,102.29172 C76.8610938,102.352866 76.830336,102.398726 76.7841994,102.398726 C76.7457521,102.398726 76.7149944,102.36051 76.7073049,102.29172 C76.7073049,102.207643 76.6996155,102.13121 76.6688577,102.024204 C76.6304105,101.848408 76.5304477,101.749045 76.1613543,101.718471 C75.9076026,101.695541 75.2386208,101.680255 75.0079375,101.680255 C74.9618008,101.680255 74.9464219,101.703185 74.9464219,101.756688 L74.9464219,103.438217 C74.9464219,103.49172 74.9541113,103.529936 75.0079375,103.529936 C75.2232419,103.53758 75.846087,103.529936 76.1229071,103.522293 C76.4996899,103.507006 76.5996527,103.484076 76.6842366,103.346497 C76.7303733,103.277707 76.7534416,103.247134 76.7918888,103.247134 C76.8380255,103.247134 76.8380255,103.292994 76.8380255,103.338854 C76.8380255,103.415287 76.7995783,103.690446 76.7765099,103.988535 C76.7688205,104.164331 76.7688205,104.538854 76.7688205,104.62293 C76.7688205,104.722293 76.7457521,104.768153 76.6996155,104.768153 C76.6457893,104.768153 76.6304105,104.71465 76.6150316,104.64586 C76.6073421,104.584713 76.5996527,104.53121 76.5919632,104.470064 C76.5612054,104.248408 76.4535532,104.118471 76.0767704,104.095541 C75.8614659,104.080255 75.2309314,104.064968 74.9925586,104.064968 C74.9541113,104.064968 74.9464219,104.103185 74.9464219,104.164331 L74.9464219,104.69172 C74.9464219,104.951592 74.9387324,105.402548 74.9464219,105.692994 C74.9541113,106.228025 75.0617636,106.350318 75.915292,106.350318 C76.1152176,106.350318 76.415106,106.342675 76.6304105,106.258599 C76.8457149,106.174522 76.9379883,106.006369 77.0071933,105.654777 C77.0225722,105.563057 77.05333,105.517197 77.0994666,105.517197 C77.1609822,105.517197 77.1686716,105.593631 77.1686716,105.68535 C77.1686716,105.983439 77.0840877,106.564331 77.0456405,106.709554 C76.9918144,106.90828 76.9379883,106.915924 76.6534788,106.915924 C75.5923353,106.915924 75.0156269,106.870064 74.2082351,106.870064 C73.8468312,106.870064 73.5238745,106.892994 73.100955,106.892994 C72.962545,106.892994 72.9164083,106.870064 72.9164083,106.816561 C72.9164083,106.778344 72.9548555,106.740127 73.0701972,106.740127 C73.1624705,106.732484 73.239365,106.724841 73.3008806,106.709554 C73.516185,106.678981 73.5469428,106.388535 73.5623217,105.907006 C73.5777006,105.601274 73.58539,105.150318 73.58539,104.676433 Z M91.5325561,101.680255 L91.5325561,104.676433 C91.5325561,105.272611 91.5325561,105.983439 91.5710033,106.304459 C91.5863822,106.503185 91.6402083,106.663694 91.8708917,106.701911 C91.9708545,106.717197 92.0631278,106.724841 92.2015379,106.740127 C92.324569,106.747771 92.3553268,106.770701 92.3553268,106.824204 C92.3553268,106.870064 92.3168795,106.892994 92.1784695,106.892994 C91.6555872,106.892994 90.909711,106.870064 90.7866799,106.870064 C90.6559593,106.870064 89.9100831,106.892994 89.6563314,106.892994 C89.5333003,106.892994 89.4794742,106.877707 89.4794742,106.816561 C89.4794742,106.763057 89.5409897,106.740127 89.6332631,106.740127 C89.7101575,106.732484 89.7947414,106.724841 89.8793253,106.709554 C90.0484931,106.678981 90.1023192,106.510828 90.1253876,106.289172 C90.1561454,105.968153 90.1715243,105.417834 90.1715243,104.676433 L90.1715243,101.680255 C89.8716359,101.680255 89.3948903,101.672611 89.010418,101.695541 C88.579809,101.718471 88.4106412,101.817834 88.3106784,102.08535 C88.2722312,102.169427 88.2568523,102.215287 88.2414734,102.261146 C88.2260945,102.322293 88.2030262,102.383439 88.1492001,102.383439 C88.0799951,102.383439 88.0799951,102.322293 88.0876845,102.230573 C88.1184423,101.917197 88.2030262,101.504459 88.2568523,101.214013 C88.2722312,101.099363 88.2952995,101.02293 88.3414362,101.02293 C88.3952623,101.02293 88.4260201,101.04586 88.6028774,101.084076 C88.7412874,101.11465 89.1642069,101.13758 89.4564058,101.13758 L92.8013146,101.13758 C93.0396874,101.13758 93.1780974,101.122293 93.2857497,101.107006 C93.4087808,101.084076 93.4702964,101.061146 93.5241225,101.061146 C93.5933275,101.061146 93.6010169,101.107006 93.6010169,101.298089 C93.6010169,101.405096 93.5548803,102.115924 93.5471908,102.307006 C93.5395014,102.414013 93.516433,102.459873 93.4702964,102.459873 C93.4087808,102.459873 93.3934019,102.414013 93.3857125,102.322293 C93.378023,102.238217 93.378023,102.207643 93.3703336,102.169427 C93.3395758,101.932484 93.2242341,101.749045 92.7705568,101.718471 C92.5168051,101.695541 92.116954,101.680255 91.5325561,101.680255 Z M106.919137,106.526115 L105.21208,101.863694 C105.089049,101.535032 105.004465,101.366879 104.827608,101.313376 C104.727645,101.282803 104.65844,101.282803 104.581545,101.267516 C104.489272,101.259873 104.458514,101.229299 104.458514,101.183439 C104.458514,101.13758 104.51234,101.11465 104.619993,101.11465 C105.096738,101.11465 105.619621,101.13758 105.734962,101.13758 C105.919509,101.13758 106.46546,101.11465 106.88069,101.11465 C106.988342,101.11465 107.042168,101.13758 107.042168,101.191083 C107.042168,101.244586 106.988342,101.267516 106.919137,101.267516 C106.842242,101.275159 106.811485,101.275159 106.726901,101.298089 C106.634627,101.313376 106.588491,101.374522 106.588491,101.466242 C106.588491,101.565605 106.665385,101.802548 106.773037,102.15414 C106.857621,102.429299 107.43433,104.210191 107.688081,104.867516 L109.049113,101.405096 C109.126008,101.206369 109.187523,101.129936 109.264418,101.129936 C109.36438,101.129936 109.410517,101.267516 109.525859,101.489172 L111.063748,104.875159 C111.286742,104.233121 111.686593,102.933758 111.901898,102.17707 C111.994171,101.863694 112.055686,101.634395 112.055686,101.527389 C112.055686,101.366879 111.994171,101.305732 111.58663,101.267516 C111.517425,101.267516 111.45591,101.236943 111.45591,101.198726 C111.45591,101.152866 111.471289,101.11465 111.617388,101.11465 C112.109513,101.11465 112.501674,101.13758 112.570879,101.13758 C112.624705,101.13758 113.170656,101.122293 113.439787,101.122293 C113.53206,101.122293 113.593576,101.129936 113.593576,101.191083 C113.593576,101.236943 113.562818,101.267516 113.470544,101.267516 C113.39365,101.275159 113.339824,101.275159 113.224482,101.305732 C113.001488,101.351592 112.886147,101.573248 112.686221,102.115924 C112.355575,103.025478 111.625077,105.081529 111.063748,106.533758 C110.971475,106.785987 110.886891,107 110.75617,107 C110.656207,107 110.594692,106.88535 110.471661,106.617834 L108.933772,103.338854 C108.618504,104.118471 107.934144,105.746497 107.549671,106.564331 C107.42664,106.83949 107.334367,107 107.211336,107 C107.111373,107 107.057547,106.88535 106.919137,106.526115 Z M127.303857,107 C125.035471,107 124.066601,105.379618 124.066601,104.026752 C124.066601,102.498089 125.096986,101.007643 127.357683,101.007643 C129.310802,101.007643 130.533424,102.307006 130.533424,103.858599 C130.533424,105.63949 129.318492,107 127.303857,107 Z M127.53454,106.510828 C128.011286,106.510828 128.995535,106.304459 128.995535,104.194904 C128.995535,102.926115 128.464963,101.481529 127.103932,101.481529 C126.396503,101.481529 125.60449,101.871338 125.60449,103.682803 C125.60449,105.127389 126.211956,106.510828 127.53454,106.510828 Z M142.52127,104.676433 L142.52127,103.33121 C142.52127,102.146497 142.505891,101.993631 142.498202,101.749045 C142.482823,101.435669 142.390549,101.336306 142.206003,101.298089 C142.090661,101.275159 141.96763,101.275159 141.898425,101.267516 C141.806152,101.259873 141.760015,101.229299 141.760015,101.183439 C141.760015,101.13758 141.813841,101.11465 141.929183,101.11465 C142.259829,101.11465 142.998016,101.13758 143.105668,101.13758 C143.251767,101.13758 143.989954,101.11465 144.343669,101.11465 C145.066476,101.11465 145.57398,101.183439 145.912315,101.374522 C146.281409,101.573248 146.612055,101.963057 146.612055,102.543949 C146.612055,103.185987 146.242962,103.675159 145.581669,104.080255 C146.050725,104.752866 146.612055,105.570701 147.081111,106.105732 C147.488652,106.556688 147.673199,106.686624 147.888503,106.717197 C147.973087,106.732484 148.019224,106.732484 148.080739,106.740127 C148.165323,106.740127 148.21146,106.770701 148.21146,106.816561 C148.21146,106.88535 148.134565,106.892994 148.057671,106.892994 L147.365621,106.892994 C146.573608,106.892994 146.235272,106.816561 145.966142,106.640764 C145.720079,106.495541 145.474017,106.166879 145.174129,105.68535 C144.820414,105.104459 144.643557,104.791083 144.505147,104.584713 C144.489768,104.561783 144.451321,104.538854 144.412874,104.538854 L143.90537,104.538854 C143.866923,104.538854 143.843855,104.55414 143.843855,104.6 L143.843855,104.989809 C143.843855,105.593631 143.843855,105.952866 143.882302,106.273885 C143.897681,106.472611 143.951507,106.640764 144.18219,106.694268 C144.289842,106.724841 144.374426,106.724841 144.528215,106.740127 C144.651246,106.747771 144.666625,106.778344 144.666625,106.824204 C144.666625,106.870064 144.612799,106.892994 144.505147,106.892994 C143.989954,106.892994 143.151805,106.870064 143.097978,106.870064 C143.005705,106.870064 142.259829,106.892994 141.998388,106.892994 C141.883046,106.892994 141.844599,106.870064 141.844599,106.816561 C141.844599,106.763057 141.898425,106.740127 141.983009,106.740127 C142.059903,106.732484 142.159866,106.724841 142.24445,106.709554 C142.398239,106.671338 142.459754,106.533758 142.482823,106.273885 C142.513581,105.952866 142.52127,105.417834 142.52127,104.676433 Z M143.843855,101.718471 L143.843855,103.843312 C143.843855,103.904459 143.866923,103.935032 143.91306,103.957962 C144.059159,104.034395 144.289842,104.057325 144.505147,104.057325 C144.712762,104.057325 144.866551,104.026752 144.989582,103.935032 C145.15106,103.812739 145.28947,103.484076 145.28947,102.971975 C145.28947,101.886624 144.59742,101.603822 144.197569,101.603822 C144.074538,101.603822 143.943817,101.611465 143.889991,101.634395 C143.859234,101.649682 143.843855,101.657325 143.843855,101.718471 Z M160.537641,103.33121 L160.537641,103.789809 C160.960561,103.4 161.591095,102.742675 162.198561,102.06242 C162.452313,101.771975 162.598412,101.557962 162.598412,101.435669 C162.598412,101.351592 162.567655,101.305732 162.383108,101.267516 C162.313903,101.259873 162.252387,101.244586 162.252387,101.191083 C162.252387,101.152866 162.290835,101.122293 162.375419,101.122293 C162.721444,101.122293 162.752201,101.13758 163.1905,101.13758 C163.636488,101.13758 164.197817,101.122293 164.29778,101.122293 C164.428501,101.122293 164.459258,101.13758 164.459258,101.191083 C164.459258,101.229299 164.420811,101.259873 164.320848,101.267516 C164.205507,101.282803 164.136302,101.290446 164.044028,101.313376 C163.667245,101.389809 163.421183,101.619108 163.05209,101.970701 C162.698375,102.307006 161.829468,103.201274 161.629542,103.415287 C161.929431,103.881529 163.198189,105.410191 163.713382,105.945223 C164.174749,106.411465 164.382364,106.579618 164.520774,106.640764 C164.659184,106.701911 164.751457,106.724841 164.874488,106.740127 C164.982141,106.747771 165.035967,106.763057 165.035967,106.824204 C165.035967,106.88535 164.966762,106.892994 164.882178,106.892994 L164.128612,106.892994 C163.113605,106.892994 162.759891,106.793631 162.367729,106.365605 C161.94481,105.907006 161.10666,104.836943 160.537641,104.003822 L160.537641,104.676433 C160.537641,105.272611 160.545331,105.968153 160.576088,106.289172 C160.591467,106.480255 160.645293,106.671338 160.906734,106.709554 C161.014387,106.724841 161.137418,106.732484 161.237381,106.740127 C161.329654,106.740127 161.368101,106.778344 161.368101,106.816561 C161.368101,106.854777 161.337343,106.892994 161.222002,106.892994 C160.714498,106.892994 159.891728,106.870064 159.822523,106.870064 C159.784075,106.870064 158.907479,106.892994 158.653727,106.892994 C158.553764,106.892994 158.499938,106.877707 158.499938,106.816561 C158.499938,106.763057 158.553764,106.740127 158.638348,106.740127 C158.715243,106.732484 158.792137,106.732484 158.876721,106.717197 C159.115094,106.678981 159.138162,106.495541 159.16123,106.273885 C159.191988,105.952866 159.207367,105.417834 159.207367,104.676433 L159.207367,103.33121 C159.207367,102.146497 159.207367,101.932484 159.184299,101.687898 C159.16892,101.473885 159.084336,101.336306 158.899789,101.298089 C158.784448,101.275159 158.684485,101.275159 158.60759,101.267516 C158.507627,101.267516 158.446112,101.252229 158.446112,101.183439 C158.446112,101.13758 158.507627,101.11465 158.653727,101.11465 C158.984373,101.11465 159.768697,101.13758 159.822523,101.13758 C159.891728,101.13758 160.822151,101.11465 161.098971,101.11465 C161.229691,101.11465 161.260449,101.145223 161.260449,101.183439 C161.260449,101.236943 161.222002,101.259873 161.122039,101.267516 C161.052834,101.275159 161.006697,101.275159 160.891356,101.290446 C160.622225,101.328662 160.576088,101.504459 160.560709,101.749045 C160.545331,101.993631 160.537641,102.146497 160.537641,103.33121 Z M176.846955,107 C176.270247,107 175.862706,106.923567 175.562818,106.785987 C175.432097,106.732484 175.39365,106.633121 175.39365,106.480255 C175.39365,105.861146 175.416718,105.570701 175.439787,105.356688 C175.455166,105.219108 175.485923,105.173248 175.53206,105.173248 C175.585886,105.173248 175.593576,105.242038 175.601265,105.303185 C175.608955,105.379618 175.616644,105.448408 175.639712,105.540127 C175.770433,106.166879 176.347141,106.526115 176.946918,106.526115 C177.677415,106.526115 177.900409,106.151592 177.900409,105.82293 C177.900409,105.501911 177.838894,105.234395 177.185291,104.791083 L176.708545,104.46242 C175.770433,103.805096 175.508992,103.270064 175.508992,102.597452 C175.508992,101.718471 176.239489,101.007643 177.4698,101.007643 C177.800447,101.007643 178.03113,101.02293 178.354087,101.084076 C178.477118,101.107006 178.607838,101.13758 178.730869,101.175796 C178.807764,101.198726 178.830832,101.221656 178.830832,101.282803 C178.815453,101.527389 178.800074,101.680255 178.800074,102.36051 C178.800074,102.498089 178.777006,102.551592 178.715491,102.551592 C178.677043,102.551592 178.646286,102.528662 178.630907,102.406369 C178.623217,102.329936 178.600149,102.138854 178.492497,101.963057 C178.346397,101.718471 177.992683,101.458599 177.439043,101.458599 C176.808508,101.458599 176.577825,101.810191 176.577825,102.161783 C176.577825,102.421656 176.670098,102.719745 177.19298,103.071338 L177.585142,103.33121 C178.661664,104.042038 179,104.515924 179,105.287898 C179,105.815287 178.761627,106.335032 178.184919,106.671338 C177.738931,106.938854 177.246806,107 176.846955,107 Z" id="NETWORKS"></path>
            <polygon id="Line" fill-rule="nonzero" points="55 98 55 97 180 97 180 98"></polygon>
        </g>
    </g>
</svg>