<?xml version="1.0" encoding="UTF-8" standalone="no"?>
<!-- Created with Keyshape -->
<svg xmlns="http://www.w3.org/2000/svg" width="106px" height="106px" viewBox="0 0 106 106">
    <defs>
        <linearGradient id="Gradient-0" x1="-0.22688" y1="0.324393" x2="1.2461" y2="0.809641">
            <stop offset="0" stop-color="#cff6f0"/>
            <stop offset="1" stop-color="#dffdec"/>
        </linearGradient>
    </defs>
    <style>
@keyframes Mask-2_t { 0% { transform: translate(52.889725px,52.999624px) rotate(0deg) translate(-52.889725px,-52.999624px); } 100% { transform: translate(52.889725px,52.999624px) rotate(360deg) translate(-52.889725px,-52.999624px); } }
@keyframes Path-53_t { 0% { transform: translate(53.5px,53.5px) scale(1.1,1.1) translate(-53.5px,-53.5px); animation-timing-function: cubic-bezier(0.42,0,0.58,1); } 20% { transform: translate(53.5px,53.5px) scale(0.9,0.9) translate(-53.5px,-53.5px); animation-timing-function: cubic-bezier(0.42,0,0.58,1); } 40% { transform: translate(53.5px,53.5px) scale(1.1,1.1) translate(-53.5px,-53.5px); animation-timing-function: steps(1); } 40.01% { transform: translate(53.5px,53.5px) scale(1.1,1.1) translate(-53.5px,-53.5px); animation-timing-function: cubic-bezier(0.42,0,0.58,1); } 60% { transform: translate(53.5px,53.5px) scale(0.9,0.9) translate(-53.5px,-53.5px); animation-timing-function: cubic-bezier(0.42,0,0.58,1); } 80% { transform: translate(53.5px,53.5px) scale(1.1,1.1) translate(-53.5px,-53.5px); animation-timing-function: steps(1); } 80.01% { transform: translate(53.5px,53.5px) scale(1.1,1.1) translate(-53.5px,-53.5px); animation-timing-function: cubic-bezier(0.42,0,0.58,1); } 100% { transform: translate(53.5px,53.5px) scale(0.9,0.9) translate(-53.5px,-53.5px); } }
    </style>
    <title>Solution</title>
    <desc>Created with Sketch.</desc>
    <ellipse id="Mask" fill="url(#Gradient-0)" rx="41" ry="41" stroke="none" stroke-width="1" fill-rule="evenodd" transform="translate(53,53)"/>
    <path id="Mask-2" d="M65.2018,104.589L64.2847,100.695C60.7018,101.539,57.0126,101.98,53.2644,101.999L53.2855,105.999C57.3844,105.978,61.3732,105.491,65.2018,104.589ZM31.8235,101.6C35.4552,103.185,39.2989,104.374,43.3002,105.114L44.0273,101.181C40.3659,100.504,36.8129,99.413,33.4239,97.9343L31.8235,101.6ZM84.9392,95.299L82.5266,92.1084C79.568,94.346,76.3654,96.2422,72.9787,97.7565L74.6114,101.408C78.2956,99.7608,81.7574,97.7053,84.9392,95.299ZM14.0259,88.9172C16.741,91.862,19.7857,94.4983,23.1014,96.7677L25.3606,93.4668C22.2993,91.3715,19.4823,88.9341,16.9667,86.2059L14.0259,88.9172ZM99.3098,78.7958L95.8171,76.846C94.0091,80.085,91.8371,83.1101,89.3473,85.8621L92.313,88.5462C94.9953,85.5815,97.347,82.3119,99.3098,78.7958ZM2.80104,70.0468C4.10215,73.8795,5.82988,77.5152,7.92766,80.8973L11.3269,78.7889C9.37331,75.6393,7.78238,72.277,6.58883,68.7612L2.80104,70.0468ZM105.779,57.8678L101.796,57.5047C101.457,61.2233,100.7,64.8599,99.5444,68.3631L103.343,69.6166C104.58,65.8679,105.409,61.9342,105.779,57.8678ZM6.67822e-06,48.377L6.67822e-06,60.47L6.67822e-06,53C6.67822e-06,55.5109,0.174603,57.981,0.512329,60.3988L4.47392,59.8458C4.16022,57.6001,4.00115,55.323,4.00001,53.0249C4.00001,51.5736,4.06085,50.1519,4.18259,48.7376L0.197368,48.394C0.0928276,49.6084,0.0292363,50.8344,0.00798144,52.0708L6.67822e-06,53L6.67822e-06,48.377ZM105.752,47.8369C105.359,43.773,104.507,39.8434,103.249,36.1005L99.4571,37.3747C100.633,40.8722,101.411,44.5049,101.77,48.2212L105.752,47.8369ZM6.54808,27.4606C4.63055,30.9408,3.09275,34.6597,1.99055,38.5613L5.83977,39.6492C6.84981,36.0737,8.26409,32.635,10.0512,29.3913L6.54808,27.4606ZM99.2029,27.0137C97.2259,23.5063,94.8611,20.2466,92.1667,17.2927L89.2112,19.9881C91.7123,22.73,93.8968,25.7462,95.7183,28.9777L99.2029,27.0137ZM20.823,10.8819C17.6355,13.3208,14.7329,16.1133,12.1739,19.2009L15.2536,21.7534C17.6215,18.8964,20.3064,16.3138,23.2531,14.0591L20.823,10.8819ZM84.7679,10.572C81.5763,8.1785,78.1058,6.1367,74.4139,4.5041L72.7962,8.16237C76.1897,9.66302,79.4005,11.5465,82.3685,13.7725L84.7679,10.572ZM40.5371,1.47361C36.5903,2.42481,32.8157,3.81769,29.2685,5.59701L31.0612,9.17281C34.3693,7.51333,37.8593,6.23352,41.4741,5.36231L40.5371,1.47361ZM53,4C56.7486,4,60.4395,4.4202,64.0257,5.24454L64.9211,1.34605C61.3631,0.528239,57.6683,0.0685951,53.8767,0.00710421L53,0L53,4ZM52.99,0L52.1235,0.00710049C51.5706,0.0160661,51.5277,0.0142146,50.979,0.0399933L51.167,4.03557C51.9418,3.99918,52.2113,4.00014,52.9912,4L52.99,0Z" fill="#06C6B9" fill-rule="nonzero" stroke="none" stroke-width="1" transform="translate(52.8897,52.9996) translate(-52.8897,-52.9996)" style="animation: 10s linear infinite both Mask-2_t;"/>
    <path id="Path-53" stroke="#00C5B8" stroke-width="8" stroke-linecap="round" d="M40.5,54.4808L50.2437,62L66.5,45" fill="none" fill-rule="evenodd" transform="translate(53.5,53.5) scale(1.1,1.1) translate(-53.5,-53.5)" style="animation: 10s linear infinite both Path-53_t;"/>
</svg>
