<?xml version="1.0" encoding="UTF-8"?>
<svg width="230px" height="160px" viewBox="0 0 230 160" version="1.1" xmlns="http://www.w3.org/2000/svg" xmlns:xlink="http://www.w3.org/1999/xlink">
    <!-- Generator: Sketch 52.4 (67378) - http://www.bohemiancoding.com/sketch -->
    <g id="03-what-we-do-(SRC)" stroke="none" stroke-width="1" fill="none" fill-rule="evenodd" opacity="0.301">
        <g id="Group-2" fill="#D4E1ED">
            <path d="M98.1529749,92 C93.4600919,92 89.1042014,90.5804281 86.196333,87.9487972 C83.999287,85.9608003 82.9435134,83.2590049 82.9435134,80.4797073 C82.9435134,77.7331991 84.0447651,75.0135185 86.196333,73.03584 C88.8956844,70.5546273 93.6642884,69 98.1529749,69 C103.120773,69 107.096467,70.2620455 110.135994,73.0429481 C112.298704,75.0217732 113.3447,77.7295303 113.3447,80.4797073 C113.3447,83.1459619 112.23458,85.985335 110.135994,87.9487972 C107.305666,90.5971667 102.858592,92 98.1529749,92 L98.1529749,88.9654959 C100.644037,88.9654959 102.954778,88.0987568 104.567431,86.4806145 C106.170533,84.8721026 106.917283,82.8946534 106.917283,80.4797073 C106.917283,78.1642757 106.111411,76.0017845 104.567431,74.467106 C102.975698,72.8849632 100.610383,71.9955237 98.1529749,71.9955237 C95.6882903,71.9955237 93.3207015,72.8764792 91.7280592,74.467106 C90.1922645,76.000638 89.3850286,78.1716131 89.3850286,80.4797073 C89.3850286,82.7809226 90.2006779,84.9484582 91.7280592,86.4806145 C93.3216111,88.0797252 95.6810139,88.9654959 98.1529749,88.9654959 L98.1529749,92 Z M63.8524979,69.0112355 C68.2811533,69.0176558 71.8943867,70.476208 73.1727755,71.1512556 C73.6814478,71.4344363 73.9499959,71.0927851 73.9499959,70.8290947 L73.9499959,70.0155523 L76.8051097,70.0155523 L76.8051097,77.0212348 L74.2481047,77.0212348 C73.9727349,75.7254828 73.2084758,74.797063 72.6652401,74.350165 C72.1829451,73.9534828 71.5771771,73.6175641 71.0580448,73.3839114 C69.5336196,72.6976283 67.1369248,72.0450517 64.3079609,72.0549114 C61.9139948,72.0549114 59.6173518,72.5024973 58.481082,73.2197354 C57.7648022,73.6719072 57.4032515,74.2316189 57.4032515,74.8910744 C57.4032515,75.8181184 58.1943427,76.1992084 58.5834077,76.3207353 C59.8649799,76.7206277 63.0752775,76.9891334 64.924871,77.1842643 C66.6901027,77.370682 70.3797392,77.8682545 72.0117201,78.2720448 C72.8523824,78.4795578 73.880187,78.8510174 74.5312057,79.1594206 C75.2784106,79.5134537 75.9958273,79.9736509 76.5829493,80.565464 C77.0143088,81.0004387 78.2388061,82.4289531 78.2388061,84.730627 C78.2388061,87.1290638 76.8310322,88.450497 76.1895639,88.9657252 C75.0030408,89.9191382 73.5445588,90.5322759 72.3637205,90.8720927 C71.1101172,91.233234 69.2964514,91.7872133 65.920841,91.7872133 C63.8524979,91.7872133 62.7792153,91.5361341 61.1149449,91.1855404 C59.0854857,90.7588204 57.1447086,89.9787552 56.4834574,89.6758551 C55.9515912,89.432572 55.7983301,89.942985 55.7983301,90.066117 C55.7983301,90.2708784 55.7983301,91.1538975 55.7983301,91.1538975 L52.6323736,91.1538975 L52.6323736,83.1053765 L55.4811205,83.1053765 C55.4811205,84.0610825 55.9313535,85.0250431 56.2169558,85.376554 C57.3652773,86.7906228 58.5970511,87.3475829 59.7697034,87.7694877 C60.7884123,88.1359028 63.5814486,88.8409882 65.9049236,88.8409882 C69.0520067,88.8409882 70.8031402,88.0318024 71.0569078,87.929307 C71.3106755,87.827041 72.7698397,87.3503345 72.7698397,85.7892869 C72.7698397,84.2225069 71.3836678,83.9340525 70.5586955,83.7231001 C69.5220227,83.4573459 66.9727489,83.1961777 64.3843641,82.9217103 C61.7746045,82.64495 59.1552945,82.230612 57.9298877,81.960272 C55.1886964,81.355389 54.1406541,80.3258496 53.4889532,79.7207373 C53.5303383,79.7597177 51.9986366,78.3367063 52.0000009,75.9080024 C52.0000009,73.2096464 53.8314032,71.5830201 56.0671055,70.5761811 C58.4899502,69.4847319 61.3423353,69.0112355 63.8524979,69.0112355 Z M126.42556,70.2842872 L140.354131,82.9588563 L140.211103,74.4256034 C140.196777,73.3064093 139.992126,72.8388747 138.792414,72.8388747 C137.18772,72.8388747 136.173104,72.8388747 136.173104,72.8388747 L136.173104,70.2865802 L148.082903,70.2865802 L148.082903,72.8388747 C148.082903,72.8388747 147.131729,72.8388747 145.527263,72.8388747 C144.303448,72.8388747 144.226362,73.2341811 144.211127,74.4256034 L144.427148,90.73291 L140.348219,90.73291 L124.306963,76.2943663 L124.309237,86.5406901 C124.32379,87.6552982 124.375408,88.1790104 125.513042,88.1790104 C127.116144,88.1790104 128.373841,88.1790104 128.373841,88.1790104 L128.373841,90.7313049 L116.677788,90.7313049 L116.677788,88.1790104 C116.677788,88.1790104 117.808601,88.1790104 119.411703,88.1790104 C120.432913,88.1790104 120.39221,87.197394 120.39221,86.4829075 L120.39221,74.5223663 C120.39221,73.7503265 120.284882,72.8409383 118.68178,72.8409383 L116.463132,72.8409383 L116.463132,70.2842872 L126.42556,70.2842872 Z M161.691309,88.1744245 C161.802503,88.1744245 162.299806,88.1599789 162.395992,88.1299411 C162.671134,88.0439551 162.857822,87.8463019 162.944457,87.6399354 C162.980612,87.5534908 162.999258,87.1696492 162.999258,87.0877905 C162.999258,87.0877905 163.000395,83.1874645 163.000395,83.0528677 C163.000395,82.9558755 162.993119,82.9127678 162.830307,82.698376 C162.650442,82.4617425 155.535169,74.3302162 155.21,73.9720558 C154.804563,73.5267628 154.095105,72.8393332 153.015001,72.8393332 C152.15683,72.8393332 150.540993,72.8393332 150.540993,72.8393332 L150.540993,70.285663 L164.50572,70.285663 L164.50572,72.8363524 C164.50572,72.8363524 163.147972,72.8363524 162.822576,72.8363524 C162.433966,72.8363524 162.175423,73.2089585 162.507413,73.6223793 C162.507413,73.6223793 167.206663,79.2908072 167.251459,79.3501949 C167.295573,79.4102705 167.33241,79.4249454 167.391759,79.3689972 C167.451108,79.3132782 172.209024,73.6751174 172.246316,73.6304047 C172.472115,73.3566252 172.320218,72.8393332 171.831784,72.8393332 C171.506388,72.8393332 170.103389,72.8393332 170.103389,72.8393332 L170.103389,70.285663 L181.550222,70.285663 L181.550222,72.8393332 C181.550222,72.8393332 179.851388,72.8393332 178.993217,72.8393332 C178.065009,72.8393332 177.687314,73.0124518 176.98968,73.8081091 C176.670651,74.1722313 169.478975,82.4502776 169.282965,82.6740706 C169.180412,82.7916995 169.189735,82.9558755 169.189735,83.0528677 C169.189735,83.2083304 169.189735,86.7124328 169.189735,87.0859561 C169.189735,87.1678148 169.208381,87.5516564 169.244308,87.6378717 C169.330717,87.8444675 169.517859,88.0421207 169.793001,88.1281067 C169.889187,88.1579152 170.379214,88.1728194 170.490862,88.1728194 C170.99385,88.1728194 173.106762,88.1728194 173.106762,88.1728194 L173.106762,90.7260311 L159.212299,90.7260311 L159.212299,88.1728194 L161.691309,88.1744245 Z M179.202871,90.6045042 L179.202871,91.0323706 C177.657753,91.0323706 176.405514,89.7696372 176.405514,88.2117998 C176.405514,86.6539623 177.657753,85.3909996 179.202871,85.3909996 C180.747761,85.3909996 182,86.6539623 182,88.2117998 C182,89.7696372 180.747761,91.0323706 179.202871,91.0323706 L179.202871,90.6045042 C180.513322,90.6045042 181.575917,89.533233 181.575917,88.2117998 C181.575917,86.8903666 180.513322,85.8188661 179.202871,85.8188661 C177.89242,85.8188661 176.830052,86.8903666 176.830052,88.2117998 C176.830052,89.533233 177.89242,90.6045042 179.202871,90.6045042 Z M180.221125,88.2640793 C180.185879,88.2865503 180.191109,88.3351611 180.227492,88.3546512 C180.444877,88.495439 180.500133,88.7485819 180.506955,89.1308184 C180.516278,89.5701496 180.572216,89.8370503 180.728433,89.9516983 L180.15268,89.9503225 C180.09174,89.8533303 180.001466,89.6779188 180.001466,89.496087 C180.001466,89.1202708 180.027843,88.4592102 179.345445,88.5156171 L178.398818,88.5156171 L178.398818,88.0707827 L179.481879,88.0707827 C179.79545,88.0588593 180.134944,87.986631 180.134944,87.5145105 C180.134944,87.0274856 179.803181,86.9332449 179.476876,86.9332449 L178.414508,86.9332449 L178.414508,89.9503225 L177.918342,89.9503225 L177.918342,86.4842833 L179.467553,86.4842833 C179.986913,86.4698376 180.666355,86.6615291 180.666355,87.4358619 C180.666355,87.8648748 180.494903,88.0776616 180.217714,88.2682066 L180.221125,88.2640793 Z" id="Combined-Shape"></path>
        </g>
    </g>
</svg>