<?xml version="1.0" encoding="UTF-8"?>
<svg width="230px" height="160px" viewBox="0 0 230 160" version="1.1" xmlns="http://www.w3.org/2000/svg" xmlns:xlink="http://www.w3.org/1999/xlink">
    <!-- Generator: Sketch 48.2 (47327) - http://www.bohemiancoding.com/sketch -->
    <defs></defs>
    <g id="---Logos" stroke="none" stroke-width="1" fill="none" fill-rule="evenodd" opacity="0.301">
        <g id="Group-2" fill="#D4E1ED">
            <path d="M57.9539459,73.7085572 C57.5664845,73.3956014 57.179029,73.1638973 56.7915676,73.0134378 C56.4041062,72.8629784 56.0287586,72.7877497 55.6655135,72.7877497 C55.2054031,72.7877497 54.8300555,72.8960789 54.5394595,73.1127406 C54.2488634,73.3294022 54.1035676,73.6122618 54.1035676,73.9613278 C54.1035676,74.202063 54.1762155,74.4006665 54.3215135,74.5571444 C54.4668115,74.7136222 54.6575123,74.8490337 54.8936216,74.9633829 C55.1297309,75.0777321 55.3961066,75.1770339 55.6927568,75.2612912 C55.9894069,75.3455485 56.2830256,75.4358228 56.5736216,75.5321169 C57.7360058,75.9172932 58.5865919,76.4318569 59.1254054,77.0758234 C59.6642189,77.71979 59.9336216,78.5593413 59.9336216,79.5945025 C59.9336216,80.2926345 59.8155687,80.9245548 59.5794595,81.4902825 C59.3433502,82.0560101 58.9982725,82.5404823 58.5442162,82.9437138 C58.0901599,83.3469452 57.5331925,83.6598962 56.8732973,83.8825762 C56.2134021,84.1052562 55.4657339,84.2165946 54.6302703,84.2165946 C52.8988022,84.2165946 51.2944939,83.70504 49.8172973,82.6819156 L51.3429189,79.8292181 C51.8756783,80.2986517 52.4023758,80.6477124 52.923027,80.8764109 C53.4436783,81.1051093 53.9582677,81.2194568 54.4668108,81.2194568 C55.0480029,81.2194568 55.4808634,81.0870544 55.7654054,80.8222457 C56.0499474,80.557437 56.1922162,80.2565226 56.1922162,79.9194934 C56.1922162,79.7148685 56.1558923,79.5373289 56.0832432,79.3868695 C56.0105942,79.23641 55.8895144,79.0979893 55.72,78.9716034 C55.5504856,78.8452174 55.3295149,78.7278608 55.0570811,78.61953 C54.7846473,78.5111991 54.4547046,78.3908334 54.0672432,78.258429 C53.6071328,78.1139879 53.1561103,77.9545033 52.7141622,77.7799703 C52.272214,77.6054373 51.8787044,77.3737332 51.5336216,77.084851 C51.1885388,76.7959688 50.9100551,76.4318623 50.6981622,75.9925206 C50.4862692,75.5531789 50.3803243,74.9964872 50.3803243,74.3224288 C50.3803243,73.6483703 50.4923232,73.037514 50.7163243,72.4898415 C50.9403254,71.942169 51.2551331,71.4727424 51.6607568,71.0815478 C52.0663804,70.6903532 52.5628079,70.3864296 53.1500541,70.1697679 C53.7373002,69.9531063 54.3941585,69.8447771 55.1206486,69.8447771 C55.7987061,69.8447771 56.5070233,69.9380605 57.2456216,70.1246303 C57.9842199,70.3112001 58.6925372,70.5850322 59.3705946,70.9461349 L57.9539459,73.7085572 Z M69.284108,76.4709794 L70.4646485,76.4709794 C71.7723307,76.4709794 72.426162,75.9052602 72.426162,74.7738049 C72.426162,73.6423497 71.7723307,73.0766305 70.4646485,73.0766305 L69.284108,73.0766305 L69.284108,76.4709794 Z M69.284108,83.8374386 L65.7243242,83.8374386 L65.7243242,70.2239331 L71.3909188,70.2239331 C72.9286562,70.2239331 74.1061579,70.6211401 74.9234593,71.4155662 C75.7407607,72.2099922 76.1494053,73.3293939 76.1494053,74.7738049 C76.1494053,76.2182159 75.7407607,77.3376176 74.9234593,78.1320437 C74.1061579,78.9264697 72.9286562,79.3236768 71.3909188,79.3236768 L69.284108,79.3236768 L69.284108,83.8374386 Z M89.3865943,73.2210709 L85.1548105,73.2210709 L85.1548105,75.4960068 L89.1504862,75.4960068 L89.1504862,78.4931446 L85.1548105,78.4931446 L85.1548105,80.8403008 L89.3865943,80.8403008 L89.3865943,83.8374386 L81.5950267,83.8374386 L81.5950267,70.2239331 L89.3865943,70.2239331 L89.3865943,73.2210709 Z M105.36627,74.7738049 C104.542914,73.774754 103.525843,73.275236 102.315027,73.275236 C101.782267,73.275236 101.288867,73.3715286 100.83481,73.5641168 C100.380754,73.7567049 99.9902715,74.0185005 99.6633509,74.3495113 C99.3364304,74.6805222 99.0791356,75.0747201 98.891459,75.5321169 C98.7037824,75.9895137 98.6099455,76.4830134 98.6099455,77.0126308 C98.6099455,77.5542849 98.7037824,78.0538029 98.891459,78.5111997 C99.0791356,78.9685965 99.3394574,79.3658036 99.672432,79.7028328 C100.005407,80.039862 100.395889,80.3046667 100.843891,80.4972549 C101.291894,80.689843 101.776213,80.7861356 102.296864,80.7861356 C103.435032,80.7861356 104.458157,80.3046725 105.36627,79.3417319 L105.36627,83.5305028 L105.003027,83.6568881 C104.458159,83.8494762 103.949624,83.990906 103.477405,84.0811817 C103.005186,84.1714574 102.539029,84.2165946 102.078918,84.2165946 C101.134481,84.2165946 100.229409,84.0390551 99.3636752,83.6839707 C98.4979412,83.3288863 97.735138,82.8293683 97.0752428,82.1854018 C96.4153476,81.5414352 95.8856232,80.7771125 95.4860536,79.8924108 C95.0864841,79.0077091 94.8867023,78.0417737 94.8867023,76.9945757 C94.8867023,75.9473778 95.0834571,74.9874607 95.4769725,74.1147957 C95.870488,73.2421307 96.3971855,72.4898446 97.0570806,71.8579148 C97.7169758,71.225985 98.482806,70.7324853 99.3545942,70.377401 C100.226382,70.0223166 101.140535,69.8447771 102.097081,69.8447771 C102.641948,69.8447771 103.177727,69.9019508 103.704432,70.0163 C104.231137,70.1306492 104.785078,70.3081887 105.36627,70.5489239 L105.36627,74.7738049 Z M116.369513,73.2210709 L116.369513,83.8374386 L112.809729,83.8374386 L112.809729,73.2210709 L109.885621,73.2210709 L109.885621,70.2239331 L119.293621,70.2239331 L119.293621,73.2210709 L116.369513,73.2210709 Z M127.99027,76.3084839 L128.66227,76.3084839 C129.364543,76.3084839 129.903349,76.164045 130.278702,75.8751628 C130.654055,75.5862806 130.841729,75.1710187 130.841729,74.6293646 C130.841729,74.0877104 130.654055,73.6724485 130.278702,73.3835663 C129.903349,73.0946841 129.364543,72.9502452 128.66227,72.9502452 L127.99027,72.9502452 L127.99027,76.3084839 Z M135.818161,83.8374386 L131.386594,83.8374386 L127.99027,78.6014749 L127.99027,83.8374386 L124.430486,83.8374386 L124.430486,70.2239331 L129.969945,70.2239331 C130.73276,70.2239331 131.398699,70.3352714 131.967783,70.5579514 C132.536867,70.7806315 133.006051,71.084555 133.375351,71.4697313 C133.74465,71.8549076 134.023133,72.3002609 134.21081,72.8058048 C134.398487,73.3113486 134.492324,73.8529946 134.492324,74.430759 C134.492324,75.4659202 134.241083,76.3054715 133.738594,76.9494381 C133.236105,77.5934047 132.494491,78.0297306 131.513729,78.258429 L135.818161,83.8374386 Z M144.296864,70.2239331 L144.296864,77.6265024 C144.296864,78.0237154 144.311999,78.4299499 144.342269,78.8452181 C144.37254,79.2604862 144.46335,79.6366293 144.614702,79.9736585 C144.766054,80.3106877 145.005187,80.5845199 145.332107,80.7951631 C145.659028,81.0058064 146.119131,81.1111265 146.712432,81.1111265 C147.305732,81.1111265 147.762808,81.0058064 148.083675,80.7951631 C148.404541,80.5845199 148.643674,80.3106877 148.80108,79.9736585 C148.958486,79.6366293 149.052323,79.2604862 149.082594,78.8452181 C149.112864,78.4299499 149.127999,78.0237154 149.127999,77.6265024 L149.127999,70.2239331 L152.669621,70.2239331 L152.669621,78.1139886 C152.669621,80.2324581 152.182274,81.7791583 151.207567,82.7541358 C150.232859,83.7291132 148.734496,84.2165946 146.712432,84.2165946 C144.690367,84.2165946 143.188977,83.7291132 142.208215,82.7541358 C141.227454,81.7791583 140.73708,80.2324581 140.73708,78.1139886 L140.73708,70.2239331 L144.296864,70.2239331 Z M158.478485,83.8374386 L160.803242,70.2239331 L164.326702,70.2239331 L167.069188,77.482062 L169.793513,70.2239331 L173.316972,70.2239331 L175.641729,83.8374386 L172.100107,83.8374386 L170.919567,76.0015481 L167.686702,83.8374386 L166.270053,83.8374386 L163.200648,76.0015481 L162.020107,83.8374386 L158.478485,83.8374386 Z M115.83684,88.6551617 L117.824272,88.3492451 L117.337031,90.3249563 L119.465507,90.3249563 L119.080842,91.8800323 L116.965188,91.8800323 L116.401014,94.2253927 C116.349725,94.4208404 116.31767,94.6035387 116.304848,94.7734932 C116.292026,94.9434477 116.313396,95.0900313 116.368959,95.2132483 C116.424521,95.3364653 116.520687,95.4320633 116.657457,95.5000451 C116.794227,95.5680269 116.982283,95.6020173 117.221631,95.6020173 C117.426787,95.6020173 117.625528,95.5828977 117.817861,95.5446579 C118.010194,95.5064182 118.204661,95.4533082 118.401269,95.3853264 L118.542312,96.8384301 C118.285868,96.9319051 118.008058,97.0126323 117.708873,97.0806141 C117.409688,97.1485959 117.054945,97.1825862 116.644635,97.1825862 C116.054813,97.1825862 115.597494,97.0954859 115.272665,96.9212825 C114.947836,96.7470791 114.71704,96.5091464 114.580269,96.2074772 C114.443499,95.9058079 114.383663,95.5595308 114.400759,95.1686355 C114.417856,94.7777401 114.477692,94.3656066 114.580269,93.9322226 L115.83684,88.6551617 Z M119.529617,94.403844 C119.529617,93.8599896 119.625782,93.3331386 119.818116,92.823275 C120.010449,92.3134115 120.281848,91.8609145 120.632322,91.4657702 C120.982796,91.070626 121.408059,90.7519661 121.908125,90.5097809 C122.408191,90.2675958 122.961675,90.146505 123.568593,90.146505 C123.867778,90.146505 124.145588,90.188993 124.402033,90.2739702 C124.658477,90.3589475 124.882862,90.4821627 125.075195,90.6436194 C125.267528,90.8050762 125.417118,91.0026454 125.52397,91.2363328 C125.630822,91.4700202 125.684247,91.7355702 125.684247,92.0329906 C125.684247,92.5088632 125.577397,92.9124991 125.363693,93.2439103 C125.14999,93.5753216 124.852947,93.8451203 124.472554,94.0533146 C124.092162,94.2615089 123.641255,94.4123412 123.119818,94.5058162 C122.598381,94.5992912 122.029939,94.646028 121.414473,94.646028 C121.47431,95.0029324 121.604667,95.255736 121.805548,95.4044462 C122.006429,95.5531563 122.324843,95.6275103 122.760798,95.6275103 C123.034338,95.6275103 123.312149,95.6041419 123.594237,95.5574044 C123.876326,95.510667 124.141314,95.4405618 124.38921,95.3470868 L124.530254,96.8384301 C124.290906,96.9319051 123.985315,97.0168811 123.613471,97.0933606 C123.241627,97.1698401 122.837733,97.2080793 122.401778,97.2080793 C121.871793,97.2080793 121.42516,97.1337253 121.061864,96.9850151 C120.698568,96.8363049 120.403661,96.634487 120.177136,96.3795552 C119.95061,96.1246235 119.786061,95.8272076 119.683483,95.4872986 C119.580905,95.1473896 119.529617,94.7862416 119.529617,94.403844 Z M123.260862,91.6505948 C122.824906,91.6505948 122.442383,91.805676 122.11328,92.115843 C121.784176,92.4260099 121.568339,92.836019 121.465761,93.3458825 C121.995746,93.3288871 122.423146,93.2842747 122.747976,93.212044 C123.072805,93.1398134 123.324971,93.052713 123.504482,92.9507403 C123.683993,92.8487676 123.803665,92.7382988 123.863502,92.6193307 C123.923339,92.5003625 123.953257,92.3813961 123.953257,92.262428 C123.953257,91.8545372 123.722461,91.6505948 123.260862,91.6505948 Z M126.325354,94.3528579 C126.325354,93.7750126 126.419382,93.2311664 126.607441,92.7213029 C126.795501,92.2114393 127.064763,91.7653155 127.415237,91.3829178 C127.76571,91.0005202 128.190974,90.6988555 128.69104,90.4779146 C129.191106,90.2569738 129.748864,90.146505 130.36433,90.146505 C130.748996,90.146505 131.093054,90.1826198 131.396513,90.2548505 C131.699972,90.3270811 131.975645,90.4226791 132.223541,90.5416473 L131.569612,92.020244 C131.398649,91.9522622 131.221278,91.8906546 131.037493,91.8354194 C130.853708,91.7801842 130.629322,91.752567 130.36433,91.752567 C129.72322,91.752567 129.218887,91.9671314 128.851317,92.3962665 C128.483747,92.8254016 128.299965,93.4096115 128.299965,94.1489135 C128.299965,94.5822975 128.393993,94.9328234 128.582052,95.2005018 C128.770111,95.4681801 129.116305,95.6020173 129.620646,95.6020173 C129.868542,95.6020173 130.107886,95.5765245 130.338686,95.5255381 C130.569486,95.4745518 130.774638,95.4108198 130.954149,95.3343403 L131.095192,96.8511766 C130.855844,96.9446516 130.592993,97.0275032 130.30663,97.0997338 C130.020268,97.1719645 129.671936,97.2080793 129.261626,97.2080793 C128.731641,97.2080793 128.28287,97.1316009 127.9153,96.9786419 C127.54773,96.8256828 127.244276,96.6196161 127.004928,96.3604355 C126.76558,96.1012548 126.592483,95.7974657 126.485631,95.449059 C126.378779,95.1006523 126.325354,94.7352556 126.325354,94.3528579 Z M136.647181,90.2102376 C137.014751,90.2102376 137.331028,90.2633476 137.59602,90.3695692 C137.861012,90.4757907 138.078987,90.6244987 138.249949,90.8156975 C138.420912,91.0068963 138.549132,91.2342071 138.634614,91.4976365 C138.720095,91.761066 138.762835,92.0457356 138.762835,92.3516537 C138.762835,92.7085581 138.720095,93.0612084 138.634614,93.4096151 L137.762708,97.029628 L135.852208,97.029628 L136.69847,93.4860943 C136.732662,93.341633 136.764717,93.1886762 136.794636,93.0272194 C136.824554,92.8657627 136.839513,92.7128059 136.839513,92.5683446 C136.839513,92.3474037 136.781814,92.1583322 136.666414,92.0011242 C136.551015,91.8439163 136.330903,91.7653136 136.006074,91.7653136 C135.869304,91.7653136 135.738947,91.7738112 135.614998,91.7908066 C135.49105,91.8078021 135.369241,91.829046 135.249567,91.8545392 L134.005819,97.029628 L132.09532,97.029628 L134.403306,87.4442419 L136.390738,87.1383253 L135.608587,90.3377029 C135.77955,90.303712 135.952647,90.2739704 136.127884,90.2484772 C136.303121,90.222984 136.476218,90.2102376 136.647181,90.2102376 Z M140.891311,90.6308729 C141.03663,90.5883843 141.196905,90.5395231 141.372142,90.4842879 C141.547379,90.4290527 141.743983,90.3780671 141.96196,90.3313296 C142.179938,90.2845921 142.423556,90.2463529 142.692823,90.2166109 C142.962089,90.1868689 143.26768,90.1719981 143.609606,90.1719981 C144.618286,90.1719981 145.310675,90.4609164 145.686794,91.0387617 C146.062912,91.616607 146.127022,92.4068836 145.879126,93.4096151 L145.00722,97.029628 L143.09672,97.029628 L143.942982,93.4860943 C143.994271,93.2651534 144.034874,93.0505891 144.064792,92.8423948 C144.094711,92.6342006 144.092574,92.4515022 144.058381,92.2942943 C144.024189,92.1370864 143.945119,92.0096224 143.821171,91.9118986 C143.697223,91.8141747 143.50703,91.7653136 143.250586,91.7653136 C143.00269,91.7653136 142.750524,91.7908063 142.494079,91.8417927 L141.250331,97.029628 L139.339832,97.029628 L140.891311,90.6308729 Z M149.661659,97.2080793 C149.208607,97.2080793 148.815399,97.1400985 148.482021,97.0041349 C148.148644,96.8681713 147.87297,96.6769754 147.654993,96.4305413 C147.437015,96.1841073 147.272466,95.8930646 147.16134,95.5574044 C147.050214,95.2217443 146.994652,94.8499744 146.994652,94.4420836 C146.994652,93.9322201 147.077995,93.4223642 147.244684,92.9125007 C147.411373,92.4026372 147.657128,91.9437669 147.981958,91.5358761 C148.306787,91.1279853 148.704269,90.7944546 149.174417,90.535274 C149.644565,90.2760934 150.183089,90.146505 150.790007,90.146505 C151.234511,90.146505 151.625582,90.2144858 151.963234,90.3504494 C152.300885,90.486413 152.578695,90.6776089 152.796673,90.924043 C153.014651,91.170477 153.1792,91.4615197 153.290326,91.7971799 C153.401451,92.13284 153.457014,92.5046099 153.457014,92.9125007 C153.457014,93.4223642 153.375807,93.9322201 153.213393,94.4420836 C153.050978,94.9519471 152.811634,95.4108174 152.495353,95.8187082 C152.179071,96.226599 151.783726,96.5601297 151.309304,96.8193103 C150.834882,97.0784909 150.285673,97.2080793 149.661659,97.2080793 Z M150.610497,91.752567 C150.328409,91.752567 150.080516,91.8332942 149.866813,91.994751 C149.653109,92.1562078 149.473601,92.3601501 149.328283,92.6065841 C149.182964,92.8530182 149.073977,93.1228169 149.001318,93.4159884 C148.928659,93.7091599 148.89233,93.9874563 148.89233,94.2508857 C148.89233,94.6842697 148.960714,95.0178004 149.097484,95.2514879 C149.234254,95.4851753 149.482147,95.6020173 149.841169,95.6020173 C150.123257,95.6020173 150.37115,95.5212901 150.584853,95.3598333 C150.798556,95.1983765 150.978065,94.9944342 151.123383,94.7480002 C151.268701,94.5015661 151.377689,94.2317674 151.450348,93.9385959 C151.523007,93.6454244 151.559336,93.3671281 151.559336,93.1036986 C151.559336,92.6703146 151.490952,92.3367839 151.354182,92.1030964 C151.217411,91.869409 150.969519,91.752567 150.610497,91.752567 Z M156.765127,97.1570932 C156.158209,97.1570932 155.681657,97.0784904 155.335458,96.9212825 C154.989258,96.7640746 154.741366,96.5495102 154.591773,96.277583 C154.442181,96.0056558 154.369523,95.6933691 154.373797,95.3407135 C154.378071,94.9880579 154.427222,94.6120392 154.521252,94.2126462 L156.149664,87.4442419 L158.137097,87.1383253 L156.354818,94.4803232 C156.320626,94.6332822 156.301393,94.7734926 156.297119,94.9009585 C156.292845,95.0284243 156.316352,95.1410175 156.36764,95.2387413 C156.418929,95.3364652 156.506546,95.415068 156.630494,95.474552 C156.754442,95.5340361 156.92754,95.5722753 157.149791,95.5892707 L156.765127,97.1570932 Z M161.060546,97.2080793 C160.607494,97.2080793 160.214286,97.1400985 159.880908,97.0041349 C159.547531,96.8681713 159.271857,96.6769754 159.05388,96.4305413 C158.835902,96.1841073 158.671353,95.8930646 158.560227,95.5574044 C158.449101,95.2217443 158.393539,94.8499744 158.393539,94.4420836 C158.393539,93.9322201 158.476883,93.4223642 158.643571,92.9125007 C158.81026,92.4026372 159.056015,91.9437669 159.380845,91.5358761 C159.705674,91.1279853 160.103156,90.7944546 160.573304,90.535274 C161.043452,90.2760934 161.581976,90.146505 162.188894,90.146505 C162.633398,90.146505 163.024469,90.2144858 163.362121,90.3504494 C163.699772,90.486413 163.977583,90.6776089 164.19556,90.924043 C164.413538,91.170477 164.578087,91.4615197 164.689213,91.7971799 C164.800339,92.13284 164.855901,92.5046099 164.855901,92.9125007 C164.855901,93.4223642 164.774694,93.9322201 164.61228,94.4420836 C164.449865,94.9519471 164.210521,95.4108174 163.89424,95.8187082 C163.577959,96.226599 163.182613,96.5601297 162.708191,96.8193103 C162.23377,97.0784909 161.68456,97.2080793 161.060546,97.2080793 Z M162.009384,91.752567 C161.727296,91.752567 161.479403,91.8332942 161.2657,91.994751 C161.051996,92.1562078 160.872488,92.3601501 160.72717,92.6065841 C160.581851,92.8530182 160.472864,93.1228169 160.400205,93.4159884 C160.327546,93.7091599 160.291217,93.9874563 160.291217,94.2508857 C160.291217,94.6842697 160.359601,95.0178004 160.496371,95.2514879 C160.633141,95.4851753 160.881034,95.6020173 161.240056,95.6020173 C161.522144,95.6020173 161.770037,95.5212901 161.98374,95.3598333 C162.197444,95.1983765 162.376952,94.9944342 162.52227,94.7480002 C162.667589,94.5015661 162.776576,94.2317674 162.849235,93.9385959 C162.921894,93.6454244 162.958223,93.3671281 162.958223,93.1036986 C162.958223,92.6703146 162.889839,92.3367839 162.753069,92.1030964 C162.616299,91.869409 162.368406,91.752567 162.009384,91.752567 Z M171.19004,96.1883574 C171.061818,96.7407095 170.892995,97.2186994 170.683566,97.6223413 C170.474136,98.0259833 170.213422,98.3616384 169.901415,98.6293167 C169.589408,98.8969951 169.215432,99.0966886 168.779477,99.2284033 C168.343522,99.3601181 167.834915,99.4259745 167.253642,99.4259745 C166.715109,99.4259745 166.262064,99.3771133 165.894494,99.2793894 C165.526924,99.1816656 165.193552,99.0605748 164.894367,98.9161135 L165.535474,97.4120237 C165.800467,97.5309918 166.07614,97.632963 166.362503,97.7179403 C166.648865,97.8029175 167.001471,97.8454055 167.42033,97.8454055 C167.967411,97.8454055 168.379852,97.7243147 168.657667,97.4821296 C168.935481,97.2399444 169.117126,96.9276577 169.202608,96.54526 L169.253896,96.3030761 C169.082934,96.3880533 168.901288,96.4560341 168.708955,96.5070205 C168.516622,96.5580068 168.313607,96.5834996 168.099903,96.5834996 C167.698141,96.5834996 167.351946,96.521892 167.06131,96.398675 C166.770673,96.275458 166.533466,96.1033817 166.349681,95.8824408 C166.165896,95.6614999 166.029127,95.4001988 165.939372,95.0985296 C165.849616,94.7968603 165.804739,94.4675784 165.804739,94.110674 C165.804739,93.4648469 165.924412,92.8933834 166.163759,92.3962665 C166.403107,91.8991496 166.721521,91.4848917 167.119009,91.1534804 C167.516498,90.8220691 167.973816,90.57139 168.490979,90.4014355 C169.008141,90.231481 169.548803,90.146505 170.11298,90.146505 C170.523291,90.146505 170.929321,90.188993 171.331084,90.2739702 C171.732846,90.3589475 172.126055,90.4906603 172.510721,90.6691125 L171.19004,96.1883574 Z M170.343779,91.7908066 C170.19846,91.7568157 170.018952,91.7398205 169.805249,91.7398205 C169.480419,91.7398205 169.189787,91.7971793 168.933343,91.9118986 C168.676899,92.0266179 168.456787,92.181699 168.273002,92.3771467 C168.089217,92.5725944 167.948175,92.8084027 167.849872,93.0845788 C167.751568,93.3607549 167.702417,93.6560464 167.702417,93.9704622 C167.702417,94.1234213 167.715239,94.265756 167.740883,94.3974708 C167.766528,94.5291855 167.813542,94.6439031 167.881927,94.7416269 C167.950312,94.8393507 168.04434,94.9179535 168.164014,94.9774376 C168.283688,95.0369217 168.433278,95.0666633 168.612789,95.0666633 C168.732463,95.0666633 168.892738,95.0454193 169.09362,95.0029306 C169.294501,94.960442 169.476146,94.8627196 169.638561,94.7097606 L170.343779,91.7908066 Z M174.53662,97.029628 L172.638943,97.029628 L174.241711,90.3249563 L176.152211,90.3249563 L174.53662,97.029628 Z M175.459815,89.5091788 C175.194822,89.5091788 174.955478,89.430576 174.741775,89.2733681 C174.528071,89.1161602 174.421221,88.8761031 174.421221,88.5531895 C174.421221,88.3747373 174.45755,88.2069097 174.530209,88.0497018 C174.602868,87.8924939 174.699033,87.7565323 174.818707,87.641813 C174.938381,87.5270938 175.077287,87.4357446 175.235427,87.3677628 C175.393568,87.299781 175.562391,87.2657906 175.741902,87.2657906 C176.006894,87.2657906 176.246239,87.3443934 176.459942,87.5016013 C176.673645,87.6588092 176.780496,87.8988663 176.780496,88.2217799 C176.780496,88.4002321 176.744167,88.5680597 176.671507,88.7252676 C176.598848,88.8824755 176.502683,89.0184371 176.383009,89.1331564 C176.263335,89.2478756 176.12443,89.3392248 175.966289,89.4072066 C175.808149,89.4751884 175.639326,89.5091788 175.459815,89.5091788 Z M176.652274,94.403844 C176.652274,93.8599896 176.748439,93.3331386 176.940772,92.823275 C177.133106,92.3134115 177.404505,91.8609145 177.754979,91.4657702 C178.105452,91.070626 178.530716,90.7519661 179.030782,90.5097809 C179.530848,90.2675958 180.084332,90.146505 180.69125,90.146505 C180.990435,90.146505 181.268245,90.188993 181.524689,90.2739702 C181.781134,90.3589475 182.005519,90.4821627 182.197852,90.6436194 C182.390185,90.8050762 182.539775,91.0026454 182.646627,91.2363328 C182.753479,91.4700202 182.806904,91.7355702 182.806904,92.0329906 C182.806904,92.5088632 182.700054,92.9124991 182.48635,93.2439103 C182.272647,93.5753216 181.975603,93.8451203 181.595211,94.0533146 C181.214819,94.2615089 180.763911,94.4123412 180.242475,94.5058162 C179.721038,94.5992912 179.152596,94.646028 178.53713,94.646028 C178.596966,95.0029324 178.727324,95.255736 178.928205,95.4044462 C179.129086,95.5531563 179.4475,95.6275103 179.883455,95.6275103 C180.156995,95.6275103 180.434806,95.6041419 180.716894,95.5574044 C180.998983,95.510667 181.263971,95.4405618 181.511867,95.3470868 L181.652911,96.8384301 C181.413563,96.9319051 181.107971,97.0168811 180.736127,97.0933606 C180.364283,97.1698401 179.96039,97.2080793 179.524435,97.2080793 C178.99445,97.2080793 178.547816,97.1337253 178.184521,96.9850151 C177.821225,96.8363049 177.526318,96.634487 177.299793,96.3795552 C177.073267,96.1246235 176.908718,95.8272076 176.80614,95.4872986 C176.703562,95.1473896 176.652274,94.7862416 176.652274,94.403844 Z M180.383518,91.6505948 C179.947563,91.6505948 179.56504,91.805676 179.235936,92.115843 C178.906833,92.4260099 178.690996,92.836019 178.588418,93.3458825 C179.118403,93.3288871 179.545803,93.2842747 179.870633,93.212044 C180.195462,93.1398134 180.447628,93.052713 180.627139,92.9507403 C180.80665,92.8487676 180.926322,92.7382988 180.986159,92.6193307 C181.045996,92.5003625 181.075914,92.3813961 181.075914,92.262428 C181.075914,91.8545372 180.845118,91.6505948 180.383518,91.6505948 Z M185.255934,95.6784964 C185.691889,95.6784964 185.991069,95.6168888 186.153484,95.4936718 C186.315898,95.3704548 186.397105,95.2366176 186.397105,95.0921563 C186.397105,94.9986813 186.382146,94.9179542 186.352227,94.8499724 C186.322309,94.7819906 186.273157,94.7182586 186.204772,94.6587745 C186.136387,94.5992904 186.042359,94.5376828 185.922685,94.4739499 C185.803011,94.410217 185.649147,94.335863 185.461088,94.2508857 C185.247384,94.1574108 185.046506,94.057564 184.858447,93.9513424 C184.670388,93.8451209 184.505839,93.7176569 184.364795,93.5689467 C184.22375,93.4202365 184.112626,93.2502846 184.031419,93.0590857 C183.950211,92.8678869 183.909608,92.6405762 183.909608,92.3771467 C183.909608,91.688831 184.163912,91.1449847 184.672526,90.7455916 C185.18114,90.3461986 185.92268,90.146505 186.897168,90.146505 C187.358768,90.146505 187.769072,90.1974906 188.128094,90.2994633 C188.487116,90.401436 188.777748,90.5119048 189,90.6308729 L188.346071,92.0457371 C188.16656,91.9522621 187.935763,91.8630373 187.653675,91.7780601 C187.371586,91.6930828 187.093776,91.6505948 186.820235,91.6505948 C186.700561,91.6505948 186.583026,91.656968 186.467626,91.6697146 C186.352226,91.6824612 186.245376,91.7100784 186.147073,91.752567 C186.048769,91.7950557 185.9697,91.8545388 185.909863,91.9310184 C185.850026,92.0074979 185.820108,92.1094691 185.820108,92.2369349 C185.820108,92.4068894 185.886355,92.5343534 186.018851,92.6193307 C186.151347,92.7043079 186.337267,92.8062791 186.576615,92.9252472 C186.909992,93.086704 187.187802,93.235412 187.410054,93.3713756 C187.632306,93.5073392 187.809677,93.6517983 187.942173,93.8047574 C188.074669,93.9577164 188.170834,94.1319172 188.230671,94.3273649 C188.290508,94.5228126 188.320426,94.7522477 188.320426,95.0156772 C188.320426,95.2876044 188.262727,95.5552787 188.147327,95.8187082 C188.031927,96.0821377 187.850282,96.3158216 187.602386,96.519767 C187.35449,96.7237124 187.038214,96.8894156 186.653547,97.0168814 C186.268881,97.1443473 185.807289,97.2080793 185.268756,97.2080793 C184.935378,97.2080793 184.634061,97.1868353 184.364795,97.1443467 C184.095528,97.101858 183.858321,97.0487481 183.653165,96.9850151 C183.44801,96.9212822 183.274913,96.8554258 183.133869,96.787444 C182.992824,96.7194622 182.883837,96.6642278 182.806904,96.6217392 L183.460833,95.1686355 C183.606152,95.2536127 183.832674,95.3598327 184.140407,95.4872986 C184.44814,95.6147644 184.819978,95.6784964 185.255934,95.6784964 Z M96.7876458,65.2453279 C125.336414,52.6095613 150.737665,47.4076681 153.522927,53.6265742 C154.631659,56.1021408 151.989517,60.0142836 146.606223,64.6240501 C145.891247,65.2362911 143.439248,66.9234134 143.024273,66.9347038 C142.38883,66.9519925 141.974913,66.6741257 142.622783,66.1989447 C145.11439,64.3714736 147.582513,60.5080524 146.971855,59.005534 C144.639288,53.2662776 126.448934,56.1829389 98.1114678,67.2338182 C96.9671754,67.6800626 93.9420397,69.1533869 91.8653927,69.1533869 C89.7887458,69.1533869 92.4540759,67.2062614 93.7388091,66.6179627 C94.7446859,66.1573565 95.7612128,65.6996301 96.7876458,65.2453279 Z M105.984443,90.7546721 C77.435674,103.390439 52.0344233,108.592332 49.2491613,102.373426 C48.140429,99.8978592 50.7825714,95.9857164 56.165865,91.3759499 C56.8808412,90.7637089 59.3328408,89.0765866 59.7478149,89.0652962 C60.3832587,89.0480075 60.7971758,89.3258743 60.1493055,89.8010553 C57.6576986,91.6285264 55.1895755,95.4919476 55.8002338,96.994466 C58.1328006,102.733722 76.3231541,99.8170611 104.660621,88.7661818 C105.804913,88.3199374 108.830049,86.8466131 110.906696,86.8466131 C112.983343,86.8466131 110.318013,88.7937386 109.033279,89.3820373 C108.027402,89.8426435 107.010876,90.3003699 105.984443,90.7546721 Z" id="Combined-Shape"></path>
        </g>
    </g>
</svg>