<?xml version="1.0" encoding="UTF-8"?>
<svg width="230px" height="160px" viewBox="0 0 230 160" version="1.1" xmlns="http://www.w3.org/2000/svg" xmlns:xlink="http://www.w3.org/1999/xlink">
    <!-- Generator: Sketch 52.4 (67378) - http://www.bohemiancoding.com/sketch -->
    <g id="03-what-we-do-(SRC)" stroke="none" stroke-width="1" fill="none" fill-rule="evenodd" opacity="0.301">
        <g id="Group-6" fill="#D4E1ED">
            <path d="M77.3902851,74.6615475 C74.8759016,73.39764 72.3155605,72.7654275 69.7080386,72.7654275 C67.9745836,72.7654275 66.6470575,72.9662175 65.7261595,73.366935 C64.8045626,73.7676525 64.3441135,74.32293 64.3441135,75.03156 C64.3441135,75.771585 64.8358416,76.3109925 65.819822,76.6504725 C66.5224655,76.8968025 67.6700057,77.0661975 69.2627923,77.1590025 C71.6052283,77.3132175 73.1510089,77.4363825 73.9003089,77.5284975 C76.0237913,77.806395 77.5931623,78.323205 78.608247,79.07772 C79.623157,79.8334425 80.1307867,80.90484 80.1307867,82.2915675 C80.1307867,84.06435 79.3344808,85.43676 77.7415195,86.40759 C76.1490824,87.3785925 73.8613411,87.86418 70.8788198,87.86418 C66.553395,87.86418 63.1883603,86.9244 60.7838904,85.04277 L62.329671,83.031765 C64.9841988,84.6351525 67.8417785,85.43676 70.9024101,85.43676 C72.8850494,85.43676 74.423316,85.1671425 75.5165111,84.6275625 C76.5625254,84.103335 77.085882,83.3865975 77.085882,82.4764875 C77.085882,81.41337 76.3984413,80.70474 75.0246082,80.349735 C74.3060632,80.1646425 72.3699057,79.9721325 69.2157863,79.7713425 C66.42059,79.5864225 64.4613664,79.2169275 63.337067,78.6618225 C62.0252679,78.0146025 61.369281,76.92768 61.369281,75.4015725 C61.369281,73.829235 62.1149113,72.588615 63.6061719,71.6790225 C65.0974326,70.7696025 67.2016933,70.3148925 69.9186045,70.3148925 C73.5724901,70.3148925 76.6327723,71.139615 79.1003246,72.7885425 L77.3902851,74.6615475 Z M101.351282,73.2284175 L93.2472052,73.2284175 L93.2472052,87.4713975 L90.436282,87.4713975 L90.436282,73.2284175 L82.3323795,73.2284175 L82.3323795,70.73079 L101.351282,70.73079 L101.351282,73.2284175 Z M114.749562,81.22845 L110.430079,73.1180175 L106.057473,81.22845 L114.749562,81.22845 Z M121.142901,87.4713975 L118.068989,87.4713975 L116.114483,83.725215 L104.692727,83.725215 L102.738571,87.4713975 L99.6646586,87.4713975 L108.635463,70.73079 L112.172271,70.73079 L121.142901,87.4713975 Z M135.945943,84.9739425 C137.632043,84.9739425 139.017234,84.43695 140.102391,83.360895 C141.187723,82.2853575 141.730126,80.90415 141.730126,79.2169275 C141.730126,77.4225825 141.148929,75.97548 139.985488,74.875965 C138.82222,73.77783 137.295312,73.2284175 135.407034,73.2284175 L127.255252,73.2284175 L127.255252,84.9739425 L135.945943,84.9739425 Z M135.172529,70.73079 C138.123946,70.73079 140.462188,71.5054875 142.187779,73.0545375 C143.912847,74.60376 144.775555,76.6811775 144.775555,79.2859275 C144.775555,81.6757425 143.862521,83.663805 142.035228,85.2509775 C140.333052,86.7312 138.224947,87.4713975 135.710738,87.4713975 L124.444853,87.4713975 L124.444853,70.73079 L135.172529,70.73079 Z M161.101487,81.22845 L156.782178,73.1180175 L152.409572,81.22845 L161.101487,81.22845 Z M167.494476,87.4713975 L164.420564,87.4713975 L162.466058,83.725215 L151.044826,83.725215 L149.090321,87.4713975 L146.016583,87.4713975 L154.987737,70.73079 L158.52437,70.73079 L167.494476,87.4713975 Z M54,56.3613675 C54,56.3613675 80.1528044,45 114.283521,45 C148.413015,45 174,56.404665 174,56.404665 C174,56.404665 149.008366,47.7867375 114.272512,47.7867375 C79.5368337,47.7867375 54,56.3613675 54,56.3613675 Z M54,102.638633 C54,102.638633 79.5368337,111.212573 114.272512,111.212573 C149.008366,111.212573 174,102.594645 174,102.594645 C174,102.594645 148.413015,114 114.283521,114 C80.1528044,114 54,102.638633 54,102.638633 Z" id="Shape"></path>
        </g>
    </g>
</svg>