<svg xmlns="http://www.w3.org/2000/svg" viewBox="0 0 800 800"><style>
@keyframes oi3hauzopp5ygs6umt3bph49_o { 0% { opacity: .1; } 40% { opacity: .1; animation-timing-function: cubic-bezier(.4,0,.6,1); } 60% { opacity: .5; animation-timing-function: cubic-bezier(.4,0,.6,1); } 100% { opacity: .1; } }
@keyframes l2c4bz09vc0t0zhmz9ahoa8i_t { 0% { transform: translate(98px,6px) rotate(0deg) translate(-98px,-190px); } 40% { transform: translate(98px,6px) rotate(0deg) translate(-98px,-190px); animation-timing-function: cubic-bezier(.4,0,.6,1); } 100% { transform: translate(98px,6px) rotate(360deg) translate(-98px,-190px); } }
@keyframes d31skvo0f54a1zxunr9dfuab_t { 0% { transform: translate(282px,6px) rotate(0deg) translate(-282px,-190px); } 40% { transform: translate(282px,6px) rotate(0deg) translate(-282px,-190px); animation-timing-function: cubic-bezier(.4,0,.6,1); } 100% { transform: translate(282px,6px) rotate(360deg) translate(-282px,-190px); } }
@keyframes tis79stcv8ce9kcpc85p73pz_t { 0% { transform: translate(466px,6px) rotate(0deg) translate(-466px,-190px); } 40% { transform: translate(466px,6px) rotate(0deg) translate(-466px,-190px); animation-timing-function: cubic-bezier(.4,0,.6,1); } 100% { transform: translate(466px,6px) rotate(360deg) translate(-466px,-190px); } }
@keyframes k5jsyox4msfx9pa4t9ug6n1e_t { 0% { transform: translate(650px,6px) rotate(0deg) translate(-650px,-190px); } 40% { transform: translate(650px,6px) rotate(0deg) translate(-650px,-190px); animation-timing-function: cubic-bezier(.4,0,.6,1); } 100% { transform: translate(650px,6px) rotate(360deg) translate(-650px,-190px); } }
@keyframes qiajht5zzhkyulxm7fdcxzaz_t { 0% { transform: translate(6px,98px) rotate(0deg) translate(-6px,-282px); } 40% { transform: translate(6px,98px) rotate(0deg) translate(-6px,-282px); animation-timing-function: cubic-bezier(.4,0,.6,1); } 100% { transform: translate(6px,98px) rotate(360deg) translate(-6px,-282px); } }
@keyframes mggietzgedk3m6w9brqtizpv_t { 0% { transform: translate(190px,98px) rotate(0deg) translate(-190px,-282px); } 40% { transform: translate(190px,98px) rotate(0deg) translate(-190px,-282px); animation-timing-function: cubic-bezier(.4,0,.6,1); } 100% { transform: translate(190px,98px) rotate(360deg) translate(-190px,-282px); } }
@keyframes vj3c0fvt6f7brek6pae96zfw_t { 0% { transform: translate(374px,98px) rotate(0deg) translate(-374px,-282px); } 40% { transform: translate(374px,98px) rotate(0deg) translate(-374px,-282px); animation-timing-function: cubic-bezier(.4,0,.6,1); } 100% { transform: translate(374px,98px) rotate(360deg) translate(-374px,-282px); } }
@keyframes d951ejltj3if6wrt0mvsmjlk_t { 0% { transform: translate(558px,98px) rotate(0deg) translate(-558px,-282px); } 40% { transform: translate(558px,98px) rotate(0deg) translate(-558px,-282px); animation-timing-function: cubic-bezier(.4,0,.6,1); } 100% { transform: translate(558px,98px) rotate(360deg) translate(-558px,-282px); } }
@keyframes d5bgkb5dhhtjevvbihitw08f_t { 0% { transform: translate(98px,190px) rotate(0deg) translate(-98px,-374px); } 40% { transform: translate(98px,190px) rotate(0deg) translate(-98px,-374px); animation-timing-function: cubic-bezier(.4,0,.6,1); } 100% { transform: translate(98px,190px) rotate(360deg) translate(-98px,-374px); } }
@keyframes qv1yra1ovyihjcvwfr3dt7u2_t { 0% { transform: translate(282px,190px) rotate(0deg) translate(-282px,-374px); } 40% { transform: translate(282px,190px) rotate(0deg) translate(-282px,-374px); animation-timing-function: cubic-bezier(.4,0,.6,1); } 100% { transform: translate(282px,190px) rotate(360deg) translate(-282px,-374px); } }
@keyframes j711wiog0uwg07lzfi13dtw8_t { 0% { transform: translate(466px,190px) rotate(0deg) translate(-466px,-374px); } 40% { transform: translate(466px,190px) rotate(0deg) translate(-466px,-374px); animation-timing-function: cubic-bezier(.4,0,.6,1); } 100% { transform: translate(466px,190px) rotate(360deg) translate(-466px,-374px); } }
@keyframes jr1qfst0208x8vndejhy6fmd_t { 0% { transform: translate(650px,190px) rotate(0deg) translate(-650px,-374px); } 40% { transform: translate(650px,190px) rotate(0deg) translate(-650px,-374px); animation-timing-function: cubic-bezier(.4,0,.6,1); } 100% { transform: translate(650px,190px) rotate(360deg) translate(-650px,-374px); } }
@keyframes jg5tpumwf7fyey35z7flpdtw_t { 0% { transform: translate(6px,282px) rotate(0deg) translate(-6px,-466px); } 40% { transform: translate(6px,282px) rotate(0deg) translate(-6px,-466px); animation-timing-function: cubic-bezier(.4,0,.6,1); } 100% { transform: translate(6px,282px) rotate(360deg) translate(-6px,-466px); } }
@keyframes ir1c29vgt024l9jwbikdwlkk_t { 0% { transform: translate(190px,282px) rotate(0deg) translate(-190px,-466px); } 40% { transform: translate(190px,282px) rotate(0deg) translate(-190px,-466px); animation-timing-function: cubic-bezier(.4,0,.6,1); } 100% { transform: translate(190px,282px) rotate(360deg) translate(-190px,-466px); } }
@keyframes pwakp3dya4snxv6mmh1arwuu_t { 0% { transform: translate(374px,282px) rotate(0deg) translate(-374px,-466px); } 40% { transform: translate(374px,282px) rotate(0deg) translate(-374px,-466px); animation-timing-function: cubic-bezier(.4,0,.6,1); } 100% { transform: translate(374px,282px) rotate(360deg) translate(-374px,-466px); } }
@keyframes oxc3nsoh7ic6awi5trzmnlje_t { 0% { transform: translate(558px,282px) rotate(0deg) translate(-558px,-466px); } 40% { transform: translate(558px,282px) rotate(0deg) translate(-558px,-466px); animation-timing-function: cubic-bezier(.4,0,.6,1); } 100% { transform: translate(558px,282px) rotate(360deg) translate(-558px,-466px); } }
@keyframes d5isq51meejjqgi6bvrzma7z_t { 0% { transform: translate(98px,374px) rotate(0deg) translate(-98px,-558px); } 40% { transform: translate(98px,374px) rotate(0deg) translate(-98px,-558px); animation-timing-function: cubic-bezier(.4,0,.6,1); } 100% { transform: translate(98px,374px) rotate(360deg) translate(-98px,-558px); } }
@keyframes aua87fycfazl645zttoohs3f_t { 0% { transform: translate(282px,374px) rotate(0deg) translate(-282px,-558px); } 40% { transform: translate(282px,374px) rotate(0deg) translate(-282px,-558px); animation-timing-function: cubic-bezier(.4,0,.6,1); } 100% { transform: translate(282px,374px) rotate(360deg) translate(-282px,-558px); } }
@keyframes lj3xljaq3atwjcgrj0wm1m5u_t { 0% { transform: translate(466px,374px) rotate(0deg) translate(-466px,-558px); } 40% { transform: translate(466px,374px) rotate(0deg) translate(-466px,-558px); animation-timing-function: cubic-bezier(.4,0,.6,1); } 100% { transform: translate(466px,374px) rotate(360deg) translate(-466px,-558px); } }
@keyframes m3o9y80h0sbypzw27jy671nj_t { 0% { transform: translate(650px,374px) rotate(0deg) translate(-650px,-558px); } 40% { transform: translate(650px,374px) rotate(0deg) translate(-650px,-558px); animation-timing-function: cubic-bezier(.4,0,.6,1); } 100% { transform: translate(650px,374px) rotate(360deg) translate(-650px,-558px); } }
@keyframes odz55nhlj81q4jc88ma0yjum_t { 0% { transform: translate(6px,466px) rotate(0deg) translate(-6px,-650px); } 40% { transform: translate(6px,466px) rotate(0deg) translate(-6px,-650px); animation-timing-function: cubic-bezier(.4,0,.6,1); } 100% { transform: translate(6px,466px) rotate(360deg) translate(-6px,-650px); } }
@keyframes e1hxt9t1lro1pwll79ciaqgf_t { 0% { transform: translate(190px,466px) rotate(0deg) translate(-190px,-650px); } 40% { transform: translate(190px,466px) rotate(0deg) translate(-190px,-650px); animation-timing-function: cubic-bezier(.4,0,.6,1); } 100% { transform: translate(190px,466px) rotate(360deg) translate(-190px,-650px); } }
@keyframes j4xwjhicqvnpexyfftqpntkq_t { 0% { transform: translate(374px,466px) rotate(0deg) translate(-374px,-650px); } 40% { transform: translate(374px,466px) rotate(0deg) translate(-374px,-650px); animation-timing-function: cubic-bezier(.4,0,.6,1); } 100% { transform: translate(374px,466px) rotate(360deg) translate(-374px,-650px); } }
@keyframes lbngc1u3kkvp3rs8eznbgn7c_t { 0% { transform: translate(558px,466px) rotate(0deg) translate(-558px,-650px); } 40% { transform: translate(558px,466px) rotate(0deg) translate(-558px,-650px); animation-timing-function: cubic-bezier(.4,0,.6,1); } 100% { transform: translate(558px,466px) rotate(360deg) translate(-558px,-650px); } }
@keyframes t67ixtbti9eb99hq85i1uef7_o { 0% { opacity: .1; animation-timing-function: cubic-bezier(.4,0,.6,1); } 20% { opacity: .5; animation-timing-function: cubic-bezier(.4,0,.6,1); } 60% { opacity: .1; } 100% { opacity: .1; } }
@keyframes z8uij3h3xt1uj67ubii616hz_t { 0% { transform: translate(6px,6px) rotate(0deg) translate(-6px,-190px); animation-timing-function: cubic-bezier(.4,0,1,1); } 60% { transform: translate(6px,6px) rotate(360deg) translate(-6px,-190px); } 100% { transform: translate(6px,6px) rotate(360deg) translate(-6px,-190px); } }
@keyframes iijhsolhezo4aqlt0rvpq2cj_t { 0% { transform: translate(190px,6px) rotate(0deg) translate(-190px,-190px); animation-timing-function: cubic-bezier(.4,0,1,1); } 60% { transform: translate(190px,6px) rotate(360deg) translate(-190px,-190px); } 100% { transform: translate(190px,6px) rotate(360deg) translate(-190px,-190px); } }
@keyframes paf77ldaw1l9xmr6h6tb2g4m_t { 0% { transform: translate(374px,6px) rotate(0deg) translate(-374px,-190px); animation-timing-function: cubic-bezier(.4,0,1,1); } 60% { transform: translate(374px,6px) rotate(360deg) translate(-374px,-190px); } 100% { transform: translate(374px,6px) rotate(360deg) translate(-374px,-190px); } }
@keyframes hslzgc5n15mms8sa98wf6xuh_t { 0% { transform: translate(558px,6px) rotate(0deg) translate(-558px,-190px); animation-timing-function: cubic-bezier(.4,0,1,1); } 60% { transform: translate(558px,6px) rotate(360deg) translate(-558px,-190px); } 100% { transform: translate(558px,6px) rotate(360deg) translate(-558px,-190px); } }
@keyframes kej377hpod3dvqi1wej6k0zs_t { 0% { transform: translate(98px,98px) rotate(0deg) translate(-98px,-282px); animation-timing-function: cubic-bezier(.4,0,1,1); } 60% { transform: translate(98px,98px) rotate(360deg) translate(-98px,-282px); } 100% { transform: translate(98px,98px) rotate(360deg) translate(-98px,-282px); } }
@keyframes m0bx11bw7gy9nctlnqvb2acd_t { 0% { transform: translate(282px,98px) rotate(0deg) translate(-282px,-282px); animation-timing-function: cubic-bezier(.4,0,1,1); } 60% { transform: translate(282px,98px) rotate(360deg) translate(-282px,-282px); } 100% { transform: translate(282px,98px) rotate(360deg) translate(-282px,-282px); } }
@keyframes lom657y86e9bif1no5ghdkhm_t { 0% { transform: translate(466px,98px) rotate(0deg) translate(-466px,-282px); animation-timing-function: cubic-bezier(.4,0,1,1); } 60% { transform: translate(466px,98px) rotate(360deg) translate(-466px,-282px); } 100% { transform: translate(466px,98px) rotate(360deg) translate(-466px,-282px); } }
@keyframes u98mpl53si81i6lid06qg2yk_t { 0% { transform: translate(650px,98px) rotate(0deg) translate(-650px,-282px); animation-timing-function: cubic-bezier(.4,0,1,1); } 60% { transform: translate(650px,98px) rotate(360deg) translate(-650px,-282px); } 100% { transform: translate(650px,98px) rotate(360deg) translate(-650px,-282px); } }
@keyframes z2ifejlfhdjr6348vmeedlnx_t { 0% { transform: translate(6px,190px) rotate(0deg) translate(-6px,-374px); animation-timing-function: cubic-bezier(.4,0,1,1); } 60% { transform: translate(6px,190px) rotate(360deg) translate(-6px,-374px); } 100% { transform: translate(6px,190px) rotate(360deg) translate(-6px,-374px); } }
@keyframes z3zvtid6tmsiu11gx42tit0q_t { 0% { transform: translate(190px,190px) rotate(0deg) translate(-190px,-374px); animation-timing-function: cubic-bezier(.4,0,1,1); } 60% { transform: translate(190px,190px) rotate(360deg) translate(-190px,-374px); } 100% { transform: translate(190px,190px) rotate(360deg) translate(-190px,-374px); } }
@keyframes kma1snaqtkgz4g8ay5vxw0ar_t { 0% { transform: translate(374px,190px) rotate(0deg) translate(-374px,-374px); animation-timing-function: cubic-bezier(.4,0,1,1); } 60% { transform: translate(374px,190px) rotate(360deg) translate(-374px,-374px); } 100% { transform: translate(374px,190px) rotate(360deg) translate(-374px,-374px); } }
@keyframes fu3qg1ou2ap9194pxd7p8wu9_t { 0% { transform: translate(558px,190px) rotate(0deg) translate(-558px,-374px); animation-timing-function: cubic-bezier(.4,0,1,1); } 60% { transform: translate(558px,190px) rotate(360deg) translate(-558px,-374px); } 100% { transform: translate(558px,190px) rotate(360deg) translate(-558px,-374px); } }
@keyframes m5ynft9na2j8bq99t0e6uiaz_t { 0% { transform: translate(98px,282px) rotate(0deg) translate(-98px,-466px); animation-timing-function: cubic-bezier(.4,0,1,1); } 60% { transform: translate(98px,282px) rotate(360deg) translate(-98px,-466px); } 100% { transform: translate(98px,282px) rotate(360deg) translate(-98px,-466px); } }
@keyframes ia41e2gihfesxwriihmriwxb_t { 0% { transform: translate(282px,282px) rotate(0deg) translate(-282px,-466px); animation-timing-function: cubic-bezier(.4,0,1,1); } 60% { transform: translate(282px,282px) rotate(360deg) translate(-282px,-466px); } 100% { transform: translate(282px,282px) rotate(360deg) translate(-282px,-466px); } }
@keyframes f9vbw3jmvclikmr25yjct4b3_t { 0% { transform: translate(466px,282px) rotate(0deg) translate(-466px,-466px); animation-timing-function: cubic-bezier(.4,0,1,1); } 60% { transform: translate(466px,282px) rotate(360deg) translate(-466px,-466px); } 100% { transform: translate(466px,282px) rotate(360deg) translate(-466px,-466px); } }
@keyframes izryqtybp0bk7fbyuicoufg1_t { 0% { transform: translate(650px,282px) rotate(0deg) translate(-650px,-466px); animation-timing-function: cubic-bezier(.4,0,1,1); } 60% { transform: translate(650px,282px) rotate(360deg) translate(-650px,-466px); } 100% { transform: translate(650px,282px) rotate(360deg) translate(-650px,-466px); } }
@keyframes u4xz6ahzdi6sf6vznbmb83od_t { 0% { transform: translate(6px,374px) rotate(0deg) translate(-6px,-558px); animation-timing-function: cubic-bezier(.4,0,1,1); } 60% { transform: translate(6px,374px) rotate(360deg) translate(-6px,-558px); } 100% { transform: translate(6px,374px) rotate(360deg) translate(-6px,-558px); } }
@keyframes ntbd2u1o706s413m1o5q6924_t { 0% { transform: translate(190px,374px) rotate(0deg) translate(-190px,-558px); animation-timing-function: cubic-bezier(.4,0,1,1); } 60% { transform: translate(190px,374px) rotate(360deg) translate(-190px,-558px); } 100% { transform: translate(190px,374px) rotate(360deg) translate(-190px,-558px); } }
@keyframes czcikkmfnfp2td334spqiat8_t { 0% { transform: translate(374px,374px) rotate(0deg) translate(-374px,-558px); animation-timing-function: cubic-bezier(.4,0,1,1); } 60% { transform: translate(374px,374px) rotate(360deg) translate(-374px,-558px); } 100% { transform: translate(374px,374px) rotate(360deg) translate(-374px,-558px); } }
@keyframes e80xt5k9wb5femysvagr5agr_t { 0% { transform: translate(558px,374px) rotate(0deg) translate(-558px,-558px); animation-timing-function: cubic-bezier(.4,0,1,1); } 60% { transform: translate(558px,374px) rotate(360deg) translate(-558px,-558px); } 100% { transform: translate(558px,374px) rotate(360deg) translate(-558px,-558px); } }
@keyframes v75kt0k1xv5ey9as9zwu1xk1_t { 0% { transform: translate(98px,466px) rotate(0deg) translate(-98px,-650px); animation-timing-function: cubic-bezier(.4,0,1,1); } 60% { transform: translate(98px,466px) rotate(360deg) translate(-98px,-650px); } 100% { transform: translate(98px,466px) rotate(360deg) translate(-98px,-650px); } }
@keyframes hmhh0qq8oykv5j93bm67vl9t_t { 0% { transform: translate(282px,466px) rotate(0deg) translate(-282px,-650px); animation-timing-function: cubic-bezier(.4,0,1,1); } 60% { transform: translate(282px,466px) rotate(360deg) translate(-282px,-650px); } 100% { transform: translate(282px,466px) rotate(360deg) translate(-282px,-650px); } }
@keyframes sf5w1xzhct3a4zn3uhb4ajh3_t { 0% { transform: translate(466px,466px) rotate(0deg) translate(-466px,-650px); animation-timing-function: cubic-bezier(.4,0,1,1); } 60% { transform: translate(466px,466px) rotate(360deg) translate(-466px,-650px); } 100% { transform: translate(466px,466px) rotate(360deg) translate(-466px,-650px); } }
@keyframes n7vlks8fj2oiwx33mvx69dqx_t { 0% { transform: translate(650px,466px) rotate(0deg) translate(-650px,-650px); animation-timing-function: cubic-bezier(.4,0,1,1); } 60% { transform: translate(650px,466px) rotate(360deg) translate(-650px,-650px); } 100% { transform: translate(650px,466px) rotate(360deg) translate(-650px,-650px); } }
</style><g transform="translate(72,-20)"><g opacity=".1" transform="translate(328,420) scale(1.01,1.01) translate(-328,-236)" style="animation: 5s linear infinite both oi3hauzopp5ygs6umt3bph49_o;"><path d="M98 184c.6 0 1 .4 1 1v4h4c.6 0 1 .4 1 1c0 .6-0.4 1-1 1h-4v4c0 .6-0.4 1-1 1c-0.6 0-1-0.4-1-1v-4h-4c-0.6 0-1-0.4-1-1c0-0.6 .4-1 1-1h4v-4c0-0.6 .4-1 1-1Z" fill="#989cb4" transform="translate(98,6) translate(-98,-190)" style="animation: 5s linear infinite both l2c4bz09vc0t0zhmz9ahoa8i_t;"/><path d="M282 184c.6 0 1 .4 1 1v4h4c.6 0 1 .4 1 1c0 .6-0.4 1-1 1h-4v4c0 .6-0.4 1-1 1c-0.6 0-1-0.4-1-1v-4h-4c-0.6 0-1-0.4-1-1c0-0.6 .4-1 1-1h4v-4c0-0.6 .4-1 1-1Z" fill="#989cb4" transform="translate(282,6) translate(-282,-190)" style="animation: 5s linear infinite both d31skvo0f54a1zxunr9dfuab_t;"/><path d="M466 184c.6 0 1 .4 1 1v4h4c.6 0 1 .4 1 1c0 .6-0.4 1-1 1h-4v4c0 .6-0.4 1-1 1c-0.6 0-1-0.4-1-1v-4h-4c-0.6 0-1-0.4-1-1c0-0.6 .4-1 1-1h4v-4c0-0.6 .4-1 1-1Z" fill="#989cb4" transform="translate(466,6) translate(-466,-190)" style="animation: 5s linear infinite both tis79stcv8ce9kcpc85p73pz_t;"/><path d="M650 184c.6 0 1 .4 1 1v4h4c.6 0 1 .4 1 1c0 .6-0.4 1-1 1h-4v4c0 .6-0.4 1-1 1c-0.6 0-1-0.4-1-1v-4h-4c-0.6 0-1-0.4-1-1c0-0.6 .4-1 1-1h4v-4c0-0.6 .4-1 1-1Z" fill="#989cb4" transform="translate(650,6) translate(-650,-190)" style="animation: 5s linear infinite both k5jsyox4msfx9pa4t9ug6n1e_t;"/><path d="M6 276c.6 0 1 .4 1 1v4h4c.6 0 1 .4 1 1c0 .6-0.4 1-1 1h-4v4c0 .6-0.4 1-1 1c-0.6 0-1-0.4-1-1v-4h-4c-0.6 0-1-0.4-1-1c0-0.6 .4-1 1-1h4v-4c0-0.6 .4-1 1-1Z" fill="#989cb4" transform="translate(6,98) translate(-6,-282)" style="animation: 5s linear infinite both qiajht5zzhkyulxm7fdcxzaz_t;"/><path d="M190 276c.6 0 1 .4 1 1v4h4c.6 0 1 .4 1 1c0 .6-0.4 1-1 1h-4v4c0 .6-0.4 1-1 1c-0.6 0-1-0.4-1-1v-4h-4c-0.6 0-1-0.4-1-1c0-0.6 .4-1 1-1h4v-4c0-0.6 .4-1 1-1Z" fill="#989cb4" transform="translate(190,98) translate(-190,-282)" style="animation: 5s linear infinite both mggietzgedk3m6w9brqtizpv_t;"/><path d="M374 276c.6 0 1 .4 1 1v4h4c.6 0 1 .4 1 1c0 .6-0.4 1-1 1h-4v4c0 .6-0.4 1-1 1c-0.6 0-1-0.4-1-1v-4h-4c-0.6 0-1-0.4-1-1c0-0.6 .4-1 1-1h4v-4c0-0.6 .4-1 1-1Z" fill="#989cb4" transform="translate(374,98) translate(-374,-282)" style="animation: 5s linear infinite both vj3c0fvt6f7brek6pae96zfw_t;"/><path d="M558 276c.6 0 1 .4 1 1v4h4c.6 0 1 .4 1 1c0 .6-0.4 1-1 1h-4v4c0 .6-0.4 1-1 1c-0.6 0-1-0.4-1-1v-4h-4c-0.6 0-1-0.4-1-1c0-0.6 .4-1 1-1h4v-4c0-0.6 .4-1 1-1Z" fill="#989cb4" transform="translate(558,98) translate(-558,-282)" style="animation: 5s linear infinite both d951ejltj3if6wrt0mvsmjlk_t;"/><path d="M98 368c.6 0 1 .4 1 1v4h4c.6 0 1 .4 1 1c0 .6-0.4 1-1 1h-4v4c0 .6-0.4 1-1 1c-0.6 0-1-0.4-1-1v-4h-4c-0.6 0-1-0.4-1-1c0-0.6 .4-1 1-1h4v-4c0-0.6 .4-1 1-1Z" fill="#989cb4" transform="translate(98,190) translate(-98,-374)" style="animation: 5s linear infinite both d5bgkb5dhhtjevvbihitw08f_t;"/><path d="M282 368c.6 0 1 .4 1 1v4h4c.6 0 1 .4 1 1c0 .6-0.4 1-1 1h-4v4c0 .6-0.4 1-1 1c-0.6 0-1-0.4-1-1v-4h-4c-0.6 0-1-0.4-1-1c0-0.6 .4-1 1-1h4v-4c0-0.6 .4-1 1-1Z" fill="#989cb4" transform="translate(282,190) translate(-282,-374)" style="animation: 5s linear infinite both qv1yra1ovyihjcvwfr3dt7u2_t;"/><path d="M466 368c.6 0 1 .4 1 1v4h4c.6 0 1 .4 1 1c0 .6-0.4 1-1 1h-4v4c0 .6-0.4 1-1 1c-0.6 0-1-0.4-1-1v-4h-4c-0.6 0-1-0.4-1-1c0-0.6 .4-1 1-1h4v-4c0-0.6 .4-1 1-1Z" fill="#989cb4" transform="translate(466,190) translate(-466,-374)" style="animation: 5s linear infinite both j711wiog0uwg07lzfi13dtw8_t;"/><path d="M650 368c.6 0 1 .4 1 1v4h4c.6 0 1 .4 1 1c0 .6-0.4 1-1 1h-4v4c0 .6-0.4 1-1 1c-0.6 0-1-0.4-1-1v-4h-4c-0.6 0-1-0.4-1-1c0-0.6 .4-1 1-1h4v-4c0-0.6 .4-1 1-1Z" fill="#989cb4" transform="translate(650,190) translate(-650,-374)" style="animation: 5s linear infinite both jr1qfst0208x8vndejhy6fmd_t;"/><path d="M6 460c.6 0 1 .4 1 1v4h4c.6 0 1 .4 1 1c0 .6-0.4 1-1 1h-4v4c0 .6-0.4 1-1 1c-0.6 0-1-0.4-1-1v-4h-4c-0.6 0-1-0.4-1-1c0-0.6 .4-1 1-1h4v-4c0-0.6 .4-1 1-1Z" fill="#989cb4" transform="translate(6,282) translate(-6,-466)" style="animation: 5s linear infinite both jg5tpumwf7fyey35z7flpdtw_t;"/><path d="M190 460c.6 0 1 .4 1 1v4h4c.6 0 1 .4 1 1c0 .6-0.4 1-1 1h-4v4c0 .6-0.4 1-1 1c-0.6 0-1-0.4-1-1v-4h-4c-0.6 0-1-0.4-1-1c0-0.6 .4-1 1-1h4v-4c0-0.6 .4-1 1-1Z" fill="#989cb4" transform="translate(190,282) translate(-190,-466)" style="animation: 5s linear infinite both ir1c29vgt024l9jwbikdwlkk_t;"/><path d="M374 460c.6 0 1 .4 1 1v4h4c.6 0 1 .4 1 1c0 .6-0.4 1-1 1h-4v4c0 .6-0.4 1-1 1c-0.6 0-1-0.4-1-1v-4h-4c-0.6 0-1-0.4-1-1c0-0.6 .4-1 1-1h4v-4c0-0.6 .4-1 1-1Z" fill="#989cb4" transform="translate(374,282) translate(-374,-466)" style="animation: 5s linear infinite both pwakp3dya4snxv6mmh1arwuu_t;"/><path d="M558 460c.6 0 1 .4 1 1v4h4c.6 0 1 .4 1 1c0 .6-0.4 1-1 1h-4v4c0 .6-0.4 1-1 1c-0.6 0-1-0.4-1-1v-4h-4c-0.6 0-1-0.4-1-1c0-0.6 .4-1 1-1h4v-4c0-0.6 .4-1 1-1Z" fill="#989cb4" transform="translate(558,282) translate(-558,-466)" style="animation: 5s linear infinite both oxc3nsoh7ic6awi5trzmnlje_t;"/><path d="M98 552c.6 0 1 .4 1 1v4h4c.6 0 1 .4 1 1c0 .6-0.4 1-1 1h-4v4c0 .6-0.4 1-1 1c-0.6 0-1-0.4-1-1v-4h-4c-0.6 0-1-0.4-1-1c0-0.6 .4-1 1-1h4v-4c0-0.6 .4-1 1-1Z" fill="#989cb4" transform="translate(98,374) translate(-98,-558)" style="animation: 5s linear infinite both d5isq51meejjqgi6bvrzma7z_t;"/><path d="M282 552c.6 0 1 .4 1 1v4h4c.6 0 1 .4 1 1c0 .6-0.4 1-1 1h-4v4c0 .6-0.4 1-1 1c-0.6 0-1-0.4-1-1v-4h-4c-0.6 0-1-0.4-1-1c0-0.6 .4-1 1-1h4v-4c0-0.6 .4-1 1-1Z" fill="#989cb4" transform="translate(282,374) translate(-282,-558)" style="animation: 5s linear infinite both aua87fycfazl645zttoohs3f_t;"/><path d="M466 552c.6 0 1 .4 1 1v4h4c.6 0 1 .4 1 1c0 .6-0.4 1-1 1h-4v4c0 .6-0.4 1-1 1c-0.6 0-1-0.4-1-1v-4h-4c-0.6 0-1-0.4-1-1c0-0.6 .4-1 1-1h4v-4c0-0.6 .4-1 1-1Z" fill="#989cb4" transform="translate(466,374) translate(-466,-558)" style="animation: 5s linear infinite both lj3xljaq3atwjcgrj0wm1m5u_t;"/><path d="M650 552c.6 0 1 .4 1 1v4h4c.6 0 1 .4 1 1c0 .6-0.4 1-1 1h-4v4c0 .6-0.4 1-1 1c-0.6 0-1-0.4-1-1v-4h-4c-0.6 0-1-0.4-1-1c0-0.6 .4-1 1-1h4v-4c0-0.6 .4-1 1-1Z" fill="#989cb4" transform="translate(650,374) translate(-650,-558)" style="animation: 5s linear infinite both m3o9y80h0sbypzw27jy671nj_t;"/><path d="M6 644c.6 0 1 .4 1 1v4h4c.6 0 1 .4 1 1c0 .6-0.4 1-1 1h-4v4c0 .6-0.4 1-1 1c-0.6 0-1-0.4-1-1v-4h-4c-0.6 0-1-0.4-1-1c0-0.6 .4-1 1-1h4v-4c0-0.6 .4-1 1-1Z" fill="#989cb4" transform="translate(6,466) translate(-6,-650)" style="animation: 5s linear infinite both odz55nhlj81q4jc88ma0yjum_t;"/><path d="M190 644c.6 0 1 .4 1 1v4h4c.6 0 1 .4 1 1c0 .6-0.4 1-1 1h-4v4c0 .6-0.4 1-1 1c-0.6 0-1-0.4-1-1v-4h-4c-0.6 0-1-0.4-1-1c0-0.6 .4-1 1-1h4v-4c0-0.6 .4-1 1-1Z" fill="#989cb4" transform="translate(190,466) translate(-190,-650)" style="animation: 5s linear infinite both e1hxt9t1lro1pwll79ciaqgf_t;"/><path d="M374 644c.6 0 1 .4 1 1v4h4c.6 0 1 .4 1 1c0 .6-0.4 1-1 1h-4v4c0 .6-0.4 1-1 1c-0.6 0-1-0.4-1-1v-4h-4c-0.6 0-1-0.4-1-1c0-0.6 .4-1 1-1h4v-4c0-0.6 .4-1 1-1Z" fill="#989cb4" transform="translate(374,466) translate(-374,-650)" style="animation: 5s linear infinite both j4xwjhicqvnpexyfftqpntkq_t;"/><path d="M558 644c.6 0 1 .4 1 1v4h4c.6 0 1 .4 1 1c0 .6-0.4 1-1 1h-4v4c0 .6-0.4 1-1 1c-0.6 0-1-0.4-1-1v-4h-4c-0.6 0-1-0.4-1-1c0-0.6 .4-1 1-1h4v-4c0-0.6 .4-1 1-1Z" fill="#989cb4" transform="translate(558,466) translate(-558,-650)" style="animation: 5s linear infinite both lbngc1u3kkvp3rs8eznbgn7c_t;"/></g><g opacity=".1" transform="translate(0,184)" style="animation: 5s linear infinite both t67ixtbti9eb99hq85i1uef7_o;"><path d="M6 184c.6 0 1 .4 1 1v4h4c.6 0 1 .4 1 1c0 .6-0.4 1-1 1h-4v4c0 .6-0.4 1-1 1c-0.6 0-1-0.4-1-1v-4h-4c-0.6 0-1-0.4-1-1c0-0.6 .4-1 1-1h4v-4c0-0.6 .4-1 1-1Z" fill="#989cb4" transform="translate(6,6) translate(-6,-190)" style="animation: 5s linear infinite both z8uij3h3xt1uj67ubii616hz_t;"/><path d="M190 184c.6 0 1 .4 1 1v4h4c.6 0 1 .4 1 1c0 .6-0.4 1-1 1h-4v4c0 .6-0.4 1-1 1c-0.6 0-1-0.4-1-1v-4h-4c-0.6 0-1-0.4-1-1c0-0.6 .4-1 1-1h4v-4c0-0.6 .4-1 1-1Z" fill="#989cb4" transform="translate(190,6) translate(-190,-190)" style="animation: 5s linear infinite both iijhsolhezo4aqlt0rvpq2cj_t;"/><path d="M374 184c.6 0 1 .4 1 1v4h4c.6 0 1 .4 1 1c0 .6-0.4 1-1 1h-4v4c0 .6-0.4 1-1 1c-0.6 0-1-0.4-1-1v-4h-4c-0.6 0-1-0.4-1-1c0-0.6 .4-1 1-1h4v-4c0-0.6 .4-1 1-1Z" fill="#989cb4" transform="translate(374,6) translate(-374,-190)" style="animation: 5s linear infinite both paf77ldaw1l9xmr6h6tb2g4m_t;"/><path d="M558 184c.6 0 1 .4 1 1v4h4c.6 0 1 .4 1 1c0 .6-0.4 1-1 1h-4v4c0 .6-0.4 1-1 1c-0.6 0-1-0.4-1-1v-4h-4c-0.6 0-1-0.4-1-1c0-0.6 .4-1 1-1h4v-4c0-0.6 .4-1 1-1Z" fill="#989cb4" transform="translate(558,6) translate(-558,-190)" style="animation: 5s linear infinite both hslzgc5n15mms8sa98wf6xuh_t;"/><path d="M98 276c.6 0 1 .4 1 1v4h4c.6 0 1 .4 1 1c0 .6-0.4 1-1 1h-4v4c0 .6-0.4 1-1 1c-0.6 0-1-0.4-1-1v-4h-4c-0.6 0-1-0.4-1-1c0-0.6 .4-1 1-1h4v-4c0-0.6 .4-1 1-1Z" fill="#989cb4" transform="translate(98,98) translate(-98,-282)" style="animation: 5s linear infinite both kej377hpod3dvqi1wej6k0zs_t;"/><path d="M282 276c.6 0 1 .4 1 1v4h4c.6 0 1 .4 1 1c0 .6-0.4 1-1 1h-4v4c0 .6-0.4 1-1 1c-0.6 0-1-0.4-1-1v-4h-4c-0.6 0-1-0.4-1-1c0-0.6 .4-1 1-1h4v-4c0-0.6 .4-1 1-1Z" fill="#989cb4" transform="translate(282,98) translate(-282,-282)" style="animation: 5s linear infinite both m0bx11bw7gy9nctlnqvb2acd_t;"/><path d="M466 276c.6 0 1 .4 1 1v4h4c.6 0 1 .4 1 1c0 .6-0.4 1-1 1h-4v4c0 .6-0.4 1-1 1c-0.6 0-1-0.4-1-1v-4h-4c-0.6 0-1-0.4-1-1c0-0.6 .4-1 1-1h4v-4c0-0.6 .4-1 1-1Z" fill="#989cb4" transform="translate(466,98) translate(-466,-282)" style="animation: 5s linear infinite both lom657y86e9bif1no5ghdkhm_t;"/><path d="M650 276c.6 0 1 .4 1 1v4h4c.6 0 1 .4 1 1c0 .6-0.4 1-1 1h-4v4c0 .6-0.4 1-1 1c-0.6 0-1-0.4-1-1v-4h-4c-0.6 0-1-0.4-1-1c0-0.6 .4-1 1-1h4v-4c0-0.6 .4-1 1-1Z" fill="#989cb4" transform="translate(650,98) translate(-650,-282)" style="animation: 5s linear infinite both u98mpl53si81i6lid06qg2yk_t;"/><path d="M6 368c.6 0 1 .4 1 1v4h4c.6 0 1 .4 1 1c0 .6-0.4 1-1 1h-4v4c0 .6-0.4 1-1 1c-0.6 0-1-0.4-1-1v-4h-4c-0.6 0-1-0.4-1-1c0-0.6 .4-1 1-1h4v-4c0-0.6 .4-1 1-1Z" fill="#989cb4" transform="translate(6,190) translate(-6,-374)" style="animation: 5s linear infinite both z2ifejlfhdjr6348vmeedlnx_t;"/><path d="M190 368c.6 0 1 .4 1 1v4h4c.6 0 1 .4 1 1c0 .6-0.4 1-1 1h-4v4c0 .6-0.4 1-1 1c-0.6 0-1-0.4-1-1v-4h-4c-0.6 0-1-0.4-1-1c0-0.6 .4-1 1-1h4v-4c0-0.6 .4-1 1-1Z" fill="#989cb4" transform="translate(190,190) translate(-190,-374)" style="animation: 5s linear infinite both z3zvtid6tmsiu11gx42tit0q_t;"/><path d="M374 368c.6 0 1 .4 1 1v4h4c.6 0 1 .4 1 1c0 .6-0.4 1-1 1h-4v4c0 .6-0.4 1-1 1c-0.6 0-1-0.4-1-1v-4h-4c-0.6 0-1-0.4-1-1c0-0.6 .4-1 1-1h4v-4c0-0.6 .4-1 1-1Z" fill="#989cb4" transform="translate(374,190) translate(-374,-374)" style="animation: 5s linear infinite both kma1snaqtkgz4g8ay5vxw0ar_t;"/><path d="M558 368c.6 0 1 .4 1 1v4h4c.6 0 1 .4 1 1c0 .6-0.4 1-1 1h-4v4c0 .6-0.4 1-1 1c-0.6 0-1-0.4-1-1v-4h-4c-0.6 0-1-0.4-1-1c0-0.6 .4-1 1-1h4v-4c0-0.6 .4-1 1-1Z" fill="#989cb4" transform="translate(558,190) translate(-558,-374)" style="animation: 5s linear infinite both fu3qg1ou2ap9194pxd7p8wu9_t;"/><path d="M98 460c.6 0 1 .4 1 1v4h4c.6 0 1 .4 1 1c0 .6-0.4 1-1 1h-4v4c0 .6-0.4 1-1 1c-0.6 0-1-0.4-1-1v-4h-4c-0.6 0-1-0.4-1-1c0-0.6 .4-1 1-1h4v-4c0-0.6 .4-1 1-1Z" fill="#989cb4" transform="translate(98,282) translate(-98,-466)" style="animation: 5s linear infinite both m5ynft9na2j8bq99t0e6uiaz_t;"/><path d="M282 460c.6 0 1 .4 1 1v4h4c.6 0 1 .4 1 1c0 .6-0.4 1-1 1h-4v4c0 .6-0.4 1-1 1c-0.6 0-1-0.4-1-1v-4h-4c-0.6 0-1-0.4-1-1c0-0.6 .4-1 1-1h4v-4c0-0.6 .4-1 1-1Z" fill="#989cb4" transform="translate(282,282) translate(-282,-466)" style="animation: 5s linear infinite both ia41e2gihfesxwriihmriwxb_t;"/><path d="M466 460c.6 0 1 .4 1 1v4h4c.6 0 1 .4 1 1c0 .6-0.4 1-1 1h-4v4c0 .6-0.4 1-1 1c-0.6 0-1-0.4-1-1v-4h-4c-0.6 0-1-0.4-1-1c0-0.6 .4-1 1-1h4v-4c0-0.6 .4-1 1-1Z" fill="#989cb4" transform="translate(466,282) translate(-466,-466)" style="animation: 5s linear infinite both f9vbw3jmvclikmr25yjct4b3_t;"/><path d="M650 460c.6 0 1 .4 1 1v4h4c.6 0 1 .4 1 1c0 .6-0.4 1-1 1h-4v4c0 .6-0.4 1-1 1c-0.6 0-1-0.4-1-1v-4h-4c-0.6 0-1-0.4-1-1c0-0.6 .4-1 1-1h4v-4c0-0.6 .4-1 1-1Z" fill="#989cb4" transform="translate(650,282) translate(-650,-466)" style="animation: 5s linear infinite both izryqtybp0bk7fbyuicoufg1_t;"/><path d="M6 552c.6 0 1 .4 1 1v4h4c.6 0 1 .4 1 1c0 .6-0.4 1-1 1h-4v4c0 .6-0.4 1-1 1c-0.6 0-1-0.4-1-1v-4h-4c-0.6 0-1-0.4-1-1c0-0.6 .4-1 1-1h4v-4c0-0.6 .4-1 1-1Z" fill="#989cb4" transform="translate(6,374) translate(-6,-558)" style="animation: 5s linear infinite both u4xz6ahzdi6sf6vznbmb83od_t;"/><path d="M190 552c.6 0 1 .4 1 1v4h4c.6 0 1 .4 1 1c0 .6-0.4 1-1 1h-4v4c0 .6-0.4 1-1 1c-0.6 0-1-0.4-1-1v-4h-4c-0.6 0-1-0.4-1-1c0-0.6 .4-1 1-1h4v-4c0-0.6 .4-1 1-1Z" fill="#989cb4" transform="translate(190,374) translate(-190,-558)" style="animation: 5s linear infinite both ntbd2u1o706s413m1o5q6924_t;"/><path d="M374 552c.6 0 1 .4 1 1v4h4c.6 0 1 .4 1 1c0 .6-0.4 1-1 1h-4v4c0 .6-0.4 1-1 1c-0.6 0-1-0.4-1-1v-4h-4c-0.6 0-1-0.4-1-1c0-0.6 .4-1 1-1h4v-4c0-0.6 .4-1 1-1Z" fill="#989cb4" transform="translate(374,374) translate(-374,-558)" style="animation: 5s linear infinite both czcikkmfnfp2td334spqiat8_t;"/><path d="M558 552c.6 0 1 .4 1 1v4h4c.6 0 1 .4 1 1c0 .6-0.4 1-1 1h-4v4c0 .6-0.4 1-1 1c-0.6 0-1-0.4-1-1v-4h-4c-0.6 0-1-0.4-1-1c0-0.6 .4-1 1-1h4v-4c0-0.6 .4-1 1-1Z" fill="#989cb4" transform="translate(558,374) translate(-558,-558)" style="animation: 5s linear infinite both e80xt5k9wb5femysvagr5agr_t;"/><path d="M98 644c.6 0 1 .4 1 1v4h4c.6 0 1 .4 1 1c0 .6-0.4 1-1 1h-4v4c0 .6-0.4 1-1 1c-0.6 0-1-0.4-1-1v-4h-4c-0.6 0-1-0.4-1-1c0-0.6 .4-1 1-1h4v-4c0-0.6 .4-1 1-1Z" fill="#989cb4" transform="translate(98,466) translate(-98,-650)" style="animation: 5s linear infinite both v75kt0k1xv5ey9as9zwu1xk1_t;"/><path d="M282 644c.6 0 1 .4 1 1v4h4c.6 0 1 .4 1 1c0 .6-0.4 1-1 1h-4v4c0 .6-0.4 1-1 1c-0.6 0-1-0.4-1-1v-4h-4c-0.6 0-1-0.4-1-1c0-0.6 .4-1 1-1h4v-4c0-0.6 .4-1 1-1Z" fill="#989cb4" transform="translate(282,466) translate(-282,-650)" style="animation: 5s linear infinite both hmhh0qq8oykv5j93bm67vl9t_t;"/><path d="M466 644c.6 0 1 .4 1 1v4h4c.6 0 1 .4 1 1c0 .6-0.4 1-1 1h-4v4c0 .6-0.4 1-1 1c-0.6 0-1-0.4-1-1v-4h-4c-0.6 0-1-0.4-1-1c0-0.6 .4-1 1-1h4v-4c0-0.6 .4-1 1-1Z" fill="#989cb4" transform="translate(466,466) translate(-466,-650)" style="animation: 5s linear infinite both sf5w1xzhct3a4zn3uhb4ajh3_t;"/><path d="M650 644c.6 0 1 .4 1 1v4h4c.6 0 1 .4 1 1c0 .6-0.4 1-1 1h-4v4c0 .6-0.4 1-1 1c-0.6 0-1-0.4-1-1v-4h-4c-0.6 0-1-0.4-1-1c0-0.6 .4-1 1-1h4v-4c0-0.6 .4-1 1-1Z" fill="#989cb4" transform="translate(650,466) translate(-650,-650)" style="animation: 5s linear infinite both n7vlks8fj2oiwx33mvx69dqx_t;"/></g></g></svg>