<svg xmlns="http://www.w3.org/2000/svg" viewBox="0 0 360 360"><style>
@keyframes te4sf5njrgtflxqh591ni2pl_t { 0% { transform: translate(180px,180px) scale(1,1) translate(-144px,-144px); } 29.412% { transform: translate(180px,180px) scale(1,1) translate(-144px,-144px); animation-timing-function: cubic-bezier(.4,0,.6,1); } 65.686% { transform: translate(180px,180px) scale(1.1,1.1) translate(-144px,-144px); animation-timing-function: cubic-bezier(.4,0,.6,1); } 100% { transform: translate(180px,180px) scale(1,1) translate(-144px,-144px); } }
@keyframes o3rb6epk4z8kbfzz2flv1vkw_o { 0% { opacity: .1; } 63.725% { opacity: .1; animation-timing-function: cubic-bezier(0,0,.6,1); } 78.431% { opacity: .4; animation-timing-function: cubic-bezier(0,0,.6,1); } 93.137% { opacity: .1; } 100% { opacity: .1; } }
@keyframes wxl4qregfey8ledakuqiz4kk_o { 0% { opacity: .1; } 56.863% { opacity: .1; animation-timing-function: cubic-bezier(0,0,.6,1); } 71.569% { opacity: .4; animation-timing-function: cubic-bezier(0,0,.6,1); } 86.275% { opacity: .1; } 100% { opacity: .1; } }
@keyframes a9v8emakooz3fvebrrfm0pu0_o { 0% { opacity: .1; } 50% { opacity: .1; animation-timing-function: cubic-bezier(0,0,.6,1); } 64.706% { opacity: .4; animation-timing-function: cubic-bezier(0,0,.6,1); } 79.412% { opacity: .1; } 100% { opacity: .1; } }
@keyframes sy08m35wnf8kturdxchfa31l_o { 0% { opacity: .1; } 43.137% { opacity: .1; animation-timing-function: cubic-bezier(0,0,.6,1); } 57.843% { opacity: .4; animation-timing-function: cubic-bezier(0,0,.6,1); } 72.549% { opacity: .1; } 100% { opacity: .1; } }
@keyframes n8rh1533rf71zf8zh0os86pd_o { 0% { opacity: .1; } 36.275% { opacity: .1; animation-timing-function: cubic-bezier(0,0,.6,1); } 50.98% { opacity: .4; animation-timing-function: cubic-bezier(0,0,.6,1); } 65.686% { opacity: .1; } 100% { opacity: .1; } }
@keyframes fj6k3wqmtzcw7e7u4ognuq6o_o { 0% { opacity: .1; } 70.588% { opacity: .1; animation-timing-function: cubic-bezier(0,0,.6,1); } 85.294% { opacity: .4; animation-timing-function: cubic-bezier(0,0,.6,1); } 100% { opacity: .1; } }
@keyframes a0irrs5nomt0npo8z237b85s_o { 0% { opacity: .1; } 29.412% { opacity: .1; animation-timing-function: cubic-bezier(0,0,.6,1); } 44.118% { opacity: .4; animation-timing-function: cubic-bezier(0,0,.6,1); } 58.824% { opacity: .1; } 100% { opacity: .1; } }
</style><g fill="#d8d8d8" transform="translate(180,180) translate(-144,-144)" style="animation: 1.7s linear infinite both te4sf5njrgtflxqh591ni2pl_t;"><g opacity=".1" transform="translate(184,0)" style="animation: 1.7s linear infinite both o3rb6epk4z8kbfzz2flv1vkw_o;"><path d="M98 92c.6 0 1 .4 1 1v4h4c.6 0 1 .4 1 1c0 .6-0.4 1-1 1h-4v4c0 .6-0.4 1-1 1c-0.6 0-1-0.4-1-1v-4h-4c-0.6 0-1-0.4-1-1c0-0.6 .4-1 1-1h4v-4c0-0.6 .4-1 1-1Z" fill="#989cb4"/><path d="M6 0c.6 0 1 .4 1 1v4h4c.6 0 1 .4 1 1c0 .6-0.4 1-1 1h-4v4c0 .6-0.4 1-1 1c-0.6 0-1-0.4-1-1v-4h-4c-0.6 0-1-0.4-1-1c0-0.6 .4-1 1-1h4v-4c0-0.6 .4-1 1-1Z" fill="#989cb4"/></g><g opacity=".1" transform="translate(92,0)" style="animation: 1.7s linear infinite both wxl4qregfey8ledakuqiz4kk_o;"><path d="M6 0c.6 0 1 .4 1 1v4h4c.6 0 1 .4 1 1c0 .6-0.4 1-1 1h-4v4c0 .6-0.4 1-1 1c-0.6 0-1-0.4-1-1v-4h-4c-0.6 0-1-0.4-1-1c0-0.6 .4-1 1-1h4v-4c0-0.6 .4-1 1-1Z" fill="#989cb4"/><path d="M190 184c.6 0 1 .4 1 1v4h4c.6 0 1 .4 1 1c0 .6-0.4 1-1 1h-4v4c0 .6-0.4 1-1 1c-0.6 0-1-0.4-1-1v-4h-4c-0.6 0-1-0.4-1-1c0-0.6 .4-1 1-1h4v-4c0-0.6 .4-1 1-1Z" fill="#989cb4"/><path d="M98 92c.6 0 1 .4 1 1v4h4c.6 0 1 .4 1 1c0 .6-0.4 1-1 1h-4v4c0 .6-0.4 1-1 1c-0.6 0-1-0.4-1-1v-4h-4c-0.6 0-1-0.4-1-1c0-0.6 .4-1 1-1h4v-4c0-0.6 .4-1 1-1Z" fill="#989cb4"/></g><g opacity=".1" style="animation: 1.7s linear infinite both a9v8emakooz3fvebrrfm0pu0_o;"><path d="M282 276c.6 0 1 .4 1 1v4h4c.6 0 1 .4 1 1c0 .6-0.4 1-1 1h-4v4c0 .6-0.4 1-1 1c-0.6 0-1-0.4-1-1v-4h-4c-0.6 0-1-0.4-1-1c0-0.6 .4-1 1-1h4v-4c0-0.6 .4-1 1-1Z" fill="#989cb4"/><path d="M6 0c.6 0 1 .4 1 1v4h4c.6 0 1 .4 1 1c0 .6-0.4 1-1 1h-4v4c0 .6-0.4 1-1 1c-0.6 0-1-0.4-1-1v-4h-4c-0.6 0-1-0.4-1-1c0-0.6 .4-1 1-1h4v-4c0-0.6 .4-1 1-1Z" fill="#989cb4"/><path d="M190 184c.6 0 1 .4 1 1v4h4c.6 0 1 .4 1 1c0 .6-0.4 1-1 1h-4v4c0 .6-0.4 1-1 1c-0.6 0-1-0.4-1-1v-4h-4c-0.6 0-1-0.4-1-1c0-0.6 .4-1 1-1h4v-4c0-0.6 .4-1 1-1Z" fill="#989cb4"/><path d="M98 92c.6 0 1 .4 1 1v4h4c.6 0 1 .4 1 1c0 .6-0.4 1-1 1h-4v4c0 .6-0.4 1-1 1c-0.6 0-1-0.4-1-1v-4h-4c-0.6 0-1-0.4-1-1c0-0.6 .4-1 1-1h4v-4c0-0.6 .4-1 1-1Z" fill="#989cb4"/></g><g opacity=".1" transform="translate(0,92)" style="animation: 1.7s linear infinite both sy08m35wnf8kturdxchfa31l_o;"><path d="M6 0c.6 0 1 .4 1 1v4h4c.6 0 1 .4 1 1c0 .6-0.4 1-1 1h-4v4c0 .6-0.4 1-1 1c-0.6 0-1-0.4-1-1v-4h-4c-0.6 0-1-0.4-1-1c0-0.6 .4-1 1-1h4v-4c0-0.6 .4-1 1-1Z" fill="#989cb4"/><path d="M190 184c.6 0 1 .4 1 1v4h4c.6 0 1 .4 1 1c0 .6-0.4 1-1 1h-4v4c0 .6-0.4 1-1 1c-0.6 0-1-0.4-1-1v-4h-4c-0.6 0-1-0.4-1-1c0-0.6 .4-1 1-1h4v-4c0-0.6 .4-1 1-1Z" fill="#989cb4"/><path d="M98 92c.6 0 1 .4 1 1v4h4c.6 0 1 .4 1 1c0 .6-0.4 1-1 1h-4v4c0 .6-0.4 1-1 1c-0.6 0-1-0.4-1-1v-4h-4c-0.6 0-1-0.4-1-1c0-0.6 .4-1 1-1h4v-4c0-0.6 .4-1 1-1Z" fill="#989cb4"/></g><g opacity=".1" transform="translate(0,184)" style="animation: 1.7s linear infinite both n8rh1533rf71zf8zh0os86pd_o;"><path d="M98 92c.6 0 1 .4 1 1v4h4c.6 0 1 .4 1 1c0 .6-0.4 1-1 1h-4v4c0 .6-0.4 1-1 1c-0.6 0-1-0.4-1-1v-4h-4c-0.6 0-1-0.4-1-1c0-0.6 .4-1 1-1h4v-4c0-0.6 .4-1 1-1Z" fill="#989cb4"/><path d="M6 0c.6 0 1 .4 1 1v4h4c.6 0 1 .4 1 1c0 .6-0.4 1-1 1h-4v4c0 .6-0.4 1-1 1c-0.6 0-1-0.4-1-1v-4h-4c-0.6 0-1-0.4-1-1c0-0.6 .4-1 1-1h4v-4c0-0.6 .4-1 1-1Z" fill="#989cb4"/></g><path d="M282 0c.6 0 1 .4 1 1v4h4c.6 0 1 .4 1 1c0 .6-0.4 1-1 1h-4v4c0 .6-0.4 1-1 1c-0.6 0-1-0.4-1-1v-4h-4c-0.6 0-1-0.4-1-1c0-0.6 .4-1 1-1h4v-4c0-0.6 .4-1 1-1Z" opacity=".1" fill="#989cb4" style="animation: 1.7s linear infinite both fj6k3wqmtzcw7e7u4ognuq6o_o;"/><path d="M6 276c.6 0 1 .4 1 1v4h4c.6 0 1 .4 1 1c0 .6-0.4 1-1 1h-4v4c0 .6-0.4 1-1 1c-0.6 0-1-0.4-1-1v-4h-4c-0.6 0-1-0.4-1-1c0-0.6 .4-1 1-1h4v-4c0-0.6 .4-1 1-1Z" opacity=".1" fill="#989cb4" style="animation: 1.7s linear infinite both a0irrs5nomt0npo8z237b85s_o;"/></g></svg>