<svg width="230" height="160" viewBox="0 0 230 160" xmlns="http://www.w3.org/2000/svg"><g fill="none" fill-rule="evenodd"><path d="M92.593 66.471l-2.791 8.458h5.517l-2.726-8.458M103.88 83.13c-.13.009-.221.02-.312.02-1.768.001-3.537-.004-5.305.006-.235.001-.324-.083-.392-.299-.398-1.266-.815-2.526-1.216-3.791-.048-.15-.11-.2-.267-.2-2.562.004-5.124.005-7.685-.002-.18 0-.23.08-.277.226-.412 1.262-.834 2.52-1.242 3.784-.067.205-.158.283-.38.282-1.648-.01-3.296-.005-4.943-.006-.084 0-.169-.008-.291-.014.031-.104.051-.183.08-.26 2.547-6.915 5.097-13.83 7.639-20.748.083-.227.193-.29.428-.29 1.975.01 3.95.01 5.926.001.224 0 .329.063.41.28 2.473 6.649 4.955 13.295 7.435 19.942.128.344.253.69.392 1.069zm82.204-2.044c0-1.035.807-1.845 1.832-1.84 1.027.004 1.825.814 1.823 1.852a1.81 1.81 0 0 1-1.82 1.824 1.81 1.81 0 0 1-1.835-1.836zm.336-.01c-.005.825.67 1.51 1.488 1.51.81 0 1.489-.67 1.496-1.477a1.491 1.491 0 1 0-2.984-.033zm1.879.01l.57.845c-.274.081-.452.052-.558-.2-.053-.126-.138-.239-.213-.355-.119-.184-.28-.274-.544-.21v.765c-.347.067-.362.058-.364-.226-.002-.493.005-.985-.003-1.477-.003-.185.048-.271.248-.256.257.02.518.003.774.032.317.037.48.193.523.451.041.248-.098.47-.383.609-.023.01-.046.02-.05.023zm-.737-.236c.199-.015.39-.002.562-.053.094-.028.223-.17.215-.25-.008-.088-.142-.212-.24-.235-.168-.039-.35-.01-.537-.01v.548zm-65.657 17.134c0 .329.047.646.14.952.092.307.232.575.418.805.185.23.42.413.704.55.284.137.623.205 1.017.205.546 0 .986-.117 1.319-.353.333-.235.582-.588.746-1.059h1.77a3.534 3.534 0 0 1-1.377 2.143 3.746 3.746 0 0 1-1.139.558 4.59 4.59 0 0 1-1.32.189c-.666 0-1.256-.11-1.77-.329a3.653 3.653 0 0 1-1.303-.919 3.902 3.902 0 0 1-.803-1.412 5.745 5.745 0 0 1-.27-1.806c0-.602.095-1.174.287-1.716a4.393 4.393 0 0 1 .82-1.428c.354-.41.783-.736 1.286-.977.502-.24 1.07-.362 1.704-.362.667 0 1.265.14 1.795.42.53.278.97.648 1.32 1.107.35.46.603.989.762 1.585.158.597.199 1.212.123 1.847h-6.229zm-60.966 0c0 .329.046.646.139.952.093.307.232.575.418.805.185.23.42.413.705.55.284.137.622.205 1.016.205.546 0 .986-.117 1.32-.353.332-.235.581-.588.745-1.059h1.77a3.534 3.534 0 0 1-1.377 2.143 3.746 3.746 0 0 1-1.139.558 4.59 4.59 0 0 1-1.32.189c-.666 0-1.256-.11-1.77-.329a3.653 3.653 0 0 1-1.302-.919 3.902 3.902 0 0 1-.804-1.412 5.745 5.745 0 0 1-.27-1.806c0-.602.096-1.174.287-1.716a4.393 4.393 0 0 1 .82-1.428c.354-.41.783-.736 1.286-.977.502-.24 1.07-.362 1.705-.362.666 0 1.264.14 1.794.42.53.278.97.648 1.32 1.107.35.46.603.989.762 1.585.158.597.2 1.212.123 1.847h-6.228zm65.326-1.231a3.044 3.044 0 0 0-.188-.854 2.283 2.283 0 0 0-.427-.714 2.12 2.12 0 0 0-.655-.493 1.931 1.931 0 0 0-.86-.189c-.328 0-.626.058-.894.173a2.036 2.036 0 0 0-.688.476 2.35 2.35 0 0 0-.46.714 2.49 2.49 0 0 0-.188.887h4.36zm-60.967 0a3.03 3.03 0 0 0-.188-.854 2.283 2.283 0 0 0-.426-.714 2.117 2.117 0 0 0-.656-.493 1.931 1.931 0 0 0-.86-.189c-.328 0-.626.058-.894.173a2.038 2.038 0 0 0-.688.476c-.191.202-.344.44-.459.714a2.49 2.49 0 0 0-.188.887h4.36zm10.037 3.103c0 .23.03.394.09.492.06.099.178.148.353.148h.197c.076 0 .164-.01.262-.033v1.298a5.624 5.624 0 0 1-.574.148 3.453 3.453 0 0 1-.606.065c-.383 0-.7-.077-.95-.23-.252-.153-.416-.421-.493-.804a3.3 3.3 0 0 1-1.368.787 5.382 5.382 0 0 1-1.565.247c-.383 0-.749-.052-1.098-.156a2.865 2.865 0 0 1-.927-.46 2.195 2.195 0 0 1-.639-.772 2.379 2.379 0 0 1-.237-1.091c0-.526.095-.953.286-1.281.191-.329.443-.585.754-.772.312-.186.661-.32 1.05-.402a12.16 12.16 0 0 1 1.171-.189c.339-.066.661-.112.967-.14.306-.027.576-.073.812-.14.234-.065.42-.166.557-.303.136-.136.205-.342.205-.616 0-.24-.058-.437-.172-.59a1.16 1.16 0 0 0-.427-.354 1.843 1.843 0 0 0-.565-.164 4.549 4.549 0 0 0-.59-.04c-.525 0-.956.109-1.295.328-.339.219-.53.558-.574 1.017h-1.868c.033-.547.164-1 .393-1.362.23-.361.522-.651.877-.87a3.59 3.59 0 0 1 1.205-.46 7.148 7.148 0 0 1 1.377-.132c.415 0 .825.044 1.229.132.404.088.767.23 1.09.427.322.197.582.451.778.763.197.312.295.693.295 1.141v4.368zm-1.868-2.364c-.284.186-.634.298-1.049.336-.416.038-.83.096-1.246.172-.196.033-.388.08-.573.14a1.72 1.72 0 0 0-.492.246c-.142.105-.254.241-.336.41-.082.17-.123.376-.123.617 0 .207.06.383.18.525.12.142.265.255.435.337.169.082.355.139.557.172.202.033.385.05.549.05.207 0 .432-.028.672-.083a2.23 2.23 0 0 0 .68-.28 1.79 1.79 0 0 0 .533-.5c.142-.202.213-.451.213-.747v-1.395zm38.884 2.364c0 .23.03.394.09.492.06.099.178.148.353.148h.196c.077 0 .164-.01.263-.033v1.298a5.574 5.574 0 0 1-.574.148 3.457 3.457 0 0 1-.607.065c-.382 0-.699-.077-.95-.23-.252-.153-.416-.421-.492-.804a3.302 3.302 0 0 1-1.369.787 5.382 5.382 0 0 1-1.565.247c-.382 0-.748-.052-1.098-.156a2.867 2.867 0 0 1-.926-.46 2.195 2.195 0 0 1-.64-.772 2.379 2.379 0 0 1-.237-1.091c0-.526.096-.953.287-1.281a2.13 2.13 0 0 1 .754-.772c.311-.186.661-.32 1.049-.402.388-.082.779-.145 1.172-.189.338-.066.66-.112.967-.14.306-.027.576-.073.811-.14.235-.065.42-.166.557-.303.137-.136.205-.342.205-.616 0-.24-.057-.437-.172-.59a1.16 1.16 0 0 0-.426-.354 1.841 1.841 0 0 0-.565-.164 4.555 4.555 0 0 0-.59-.04c-.525 0-.957.109-1.295.328-.34.219-.53.558-.574 1.017h-1.868c.033-.547.163-1 .393-1.362.23-.361.522-.651.877-.87a3.59 3.59 0 0 1 1.204-.46 7.148 7.148 0 0 1 1.377-.132c.415 0 .825.044 1.23.132.404.088.767.23 1.09.427.322.197.581.451.778.763.197.312.295.693.295 1.141v4.368zm-1.868-2.364c-.285.186-.634.298-1.05.336-.415.038-.83.096-1.245.172-.197.033-.388.08-.574.14a1.72 1.72 0 0 0-.491.246c-.143.105-.254.241-.336.41-.082.17-.123.376-.123.617 0 .207.06.383.18.525.12.142.265.255.434.337.17.082.355.139.558.172.202.033.385.05.549.05.207 0 .431-.028.672-.083.24-.055.467-.148.68-.28.213-.13.39-.297.533-.5.141-.202.213-.451.213-.747v-1.395zm4.473-4.237h1.754v1.642h.033c.054-.23.16-.454.32-.673.158-.219.35-.419.573-.6.224-.18.473-.325.746-.434a2.23 2.23 0 0 1 .836-.165c.218 0 .369.006.45.017l.254.033v1.806a8.888 8.888 0 0 0-.401-.058 3.364 3.364 0 0 0-.401-.024 2.15 2.15 0 0 0-.894.189 2.051 2.051 0 0 0-.73.558c-.207.246-.37.55-.49.911-.121.361-.181.777-.181 1.248v4.039h-1.869v-8.489zm-34.112.14h1.41v-2.545h1.868v2.545h1.688v1.395h-1.688v4.532c0 .197.008.367.025.509a.878.878 0 0 0 .114.361c.06.099.15.172.27.222.12.049.285.074.492.074.132 0 .263-.003.394-.009a1.93 1.93 0 0 0 .393-.057v1.445l-.606.065a5.5 5.5 0 0 1-.607.033c-.491 0-.888-.046-1.188-.14-.3-.092-.536-.23-.705-.41a1.415 1.415 0 0 1-.344-.681 5.114 5.114 0 0 1-.107-.936v-5.008h-1.41v-1.395zm6.51-3.27h1.868v4.35h.033c.23-.383.571-.703 1.025-.96a3.022 3.022 0 0 1 1.516-.386c.928 0 1.66.24 2.196.722.535.482.803 1.205.803 2.168v5.828h-1.868V96.51c-.022-.667-.164-1.152-.427-1.453-.262-.3-.672-.451-1.229-.451-.317 0-.6.057-.852.172a1.844 1.844 0 0 0-.64.476c-.174.203-.31.441-.41.714a2.553 2.553 0 0 0-.147.87v5.008h-1.868V90.123zm14.862 5.971c-.077-.526-.287-.922-.632-1.19-.344-.268-.778-.403-1.303-.403-.24 0-.497.041-.77.123a1.83 1.83 0 0 0-.754.46c-.23.224-.42.537-.573.936-.154.4-.23.922-.23 1.568 0 .35.041.7.123 1.05.082.351.213.663.393.937.18.274.413.495.697.665.284.17.628.254 1.033.254.546 0 .997-.17 1.352-.509.355-.34.576-.815.664-1.428h1.868c-.175 1.106-.593 1.951-1.254 2.537-.661.585-1.538.878-2.63.878-.667 0-1.254-.113-1.762-.337a3.734 3.734 0 0 1-1.287-.92 3.902 3.902 0 0 1-.795-1.386 5.43 5.43 0 0 1-.27-1.74c0-.636.087-1.232.262-1.79a4.1 4.1 0 0 1 .787-1.454c.35-.41.784-.733 1.303-.968.518-.236 1.128-.354 1.827-.354.492 0 .959.064 1.401.19.443.125.836.314 1.18.566.345.252.626.57.845.952.218.383.35.837.393 1.363h-1.868zm-24.275 5.751h1.868V90.123h-1.868v11.723zM47.457 90.123h2.05v4.663h5.326v-4.663h2.049v11.723h-2.05V96.56h-5.326v5.286h-2.049V90.123zm70.402-28.285h8.486v10.668l-8.486-10.668zm13.79 21.293V61.844h.309c1.725 0 3.45.006 5.176-.006.265-.002.33.073.33.333-.008 5.427-.006 10.854-.006 16.28v.391c.131.008.248.022.364.022l8.488.001c.36 0 .36 0 .36.37 0 1.21-.006 2.42.006 3.63.002.234-.074.29-.296.29-4.822-.006-9.644-.005-14.466-.006-.084 0-.168-.01-.264-.018zM82.802 61.838v4.289h-6.05v17.02h-5.798v-.396-16.228c0-.396 0-.396-.388-.396-1.785 0-3.57-.005-5.357.005-.26.002-.335-.068-.331-.333.014-1.218.006-2.437.006-3.655v-.306h17.918zm106.464.027l-1.215 2.043c-2.154 3.617-4.309 7.233-6.457 10.853a.85.85 0 0 0-.108.412c-.006 2.488-.004 4.977-.004 7.465v.35h-5.734c-.008-.121-.021-.24-.021-.357-.001-2.48.002-4.96-.007-7.44 0-.17-.052-.36-.14-.507-2.494-4.187-4.996-8.37-7.496-12.554-.047-.079-.086-.163-.144-.273.12-.006.202-.014.285-.014 2.01 0 4.02.002 6.029-.005.187 0 .294.048.38.224 1.176 2.41 2.359 4.816 3.54 7.223l.453.918.998-2.063c.978-2.026 1.956-4.053 2.93-6.081.07-.148.145-.222.326-.221 2.044.007 4.088.004 6.132.005.066 0 .132.011.253.022zM61.681 66.606c-.86-.253-1.68-.515-2.51-.733-1.212-.317-2.442-.536-3.702-.492-.65.023-1.293.11-1.868.441-.229.132-.451.295-.63.487-.64.687-.618 1.45.047 2.108.569.562 1.292.84 2.035 1.08 1.343.433 2.698.831 4.025 1.31 1.043.378 1.993.95 2.78 1.752 1.13 1.151 1.525 2.565 1.473 4.144-.087 2.667-1.623 4.76-4.256 5.774-1.442.556-2.948.755-4.482.78-2.595.043-5.13-.393-7.641-.996-.058-.014-.113-.04-.196-.069.19-1.565.38-3.129.569-4.699 1.386.749 2.89 1.058 4.407 1.306 1.323.217 2.654.32 3.983.028.504-.11.975-.302 1.343-.678.643-.658.596-1.776-.098-2.507-.524-.55-1.2-.837-1.905-1.046-1.155-.342-2.322-.644-3.479-.982a9.095 9.095 0 0 1-2.31-1.018c-1.475-.928-2.25-2.289-2.468-3.995-.138-1.078-.077-2.137.333-3.157.573-1.425 1.62-2.401 2.951-3.098 1.294-.677 2.688-1.006 4.131-1.15 2.655-.263 5.24.116 7.79.835.153.043.25.082.222.292-.177 1.36-.335 2.723-.501 4.085-.008.065-.028.13-.043.198zm93.826 12.243H165.181c.333 0 .334.001.334.345 0 1.218-.005 2.437.006 3.655.002.242-.077.305-.31.305-5.038-.006-10.075-.006-15.112 0-.241 0-.304-.077-.304-.31.005-6.895.006-13.79 0-20.686 0-.247.064-.32.317-.32 5.028.007 10.057.007 15.086 0 .244 0 .326.06.323.315-.013 1.132-.005 2.264-.006 3.395 0 .094-.01.187-.016.308h-9.986v4.18h8.654c.341 0 .342 0 .342.33v3.981h-9.002v4.502zm-29.184 4.284c-.095.005-.188.016-.28.016-1.38.001-2.76-.002-4.14.004a.48.48 0 0 1-.416-.196c-2.932-3.622-5.868-7.241-8.803-10.86-.058-.071-.12-.137-.238-.27v10.949c0 .373 0 .374-.36.374-1.596 0-3.192-.005-4.787.005-.241 0-.327-.057-.326-.315.006-6.894.006-13.788 0-20.682 0-.246.064-.322.317-.32 1.397.012 2.794.009 4.191.001a.475.475 0 0 1 .411.203c4.77 5.9 9.543 11.795 14.312 17.695a.57.57 0 0 1 .135.318c.01.977.006 1.953.005 2.929 0 .042-.012.084-.021.149z" opacity=".301" fill="#D4E1ED"/></g></svg>