<svg width="230" height="160" viewBox="0 0 230 160" xmlns="http://www.w3.org/2000/svg"><g fill="none" fill-rule="evenodd"><path d="M112.83 73.168c-.86.868-1.71 1.495-2.39 2.295-2.136 2.513-3.31 5.43-3.777 8.679-.595 4.133-.692 8.305-1.025 12.458-.185 2.3-.402 4.601-1.255 6.78-.91 2.323-2.612 3.5-5.098 3.715-2.128.184-4.096-.48-6.108-.93-3.465-.775-6.921-1.59-10.381-2.388-.252-.058-.507-.107-.759-.34 1.52-.171 2.971-.452 4.378-.915 5.082-1.674 8.815-4.791 10.496-10.015 1.282-3.985 2.439-8.012 3.734-11.994.917-2.816 2.468-5.184 5.277-6.49 2.159-1.004 4.437-.996 6.908-.855zM86.314 84.975c-1.87-.03-1.816.334-1.155-1.658 1.042-3.14 2.804-5.752 5.799-7.346 2.511-1.336 5.24-1.756 8.052-1.734.31.002.62-.01.478.506-1.076 3.877-2.983 7.105-6.797 8.878-1.684.783-4.183 1.32-6.377 1.354zm-8.767-7.18c-.894-.004-1.787-.012-2.67-.195-.283-.06-.42-.138-.284-.465 1.491-3.609 3.675-6.572 7.498-7.97 2.578-.942 5.247-.961 7.939-.665.591.065.459.372.315.731-2.282 5.676-6.556 8.57-12.656 8.563l-.142.001zm40.117-17.455c1.686-.081 1.686-.081 1.176 1.533-1.798 5.69-5.918 8.817-12.165 9.223-.563.036-1.13.028-1.693.047-.382.012-.572-.084-.454-.536 1.287-4.937 4.136-8.634 9.501-9.806a21.36 21.36 0 0 1 3.635-.46zm2.914 12.009c-.896.034-1.783-.074-2.67-.178-.364-.043-.44-.2-.309-.516 1.93-4.647 4.994-7.92 10.26-8.603a19.37 19.37 0 0 1 5.131.022c.437.06.573.142.384.601-2.318 5.642-6.15 8.343-11.809 8.671-.328.02-.658.003-.987.003zm-3.069-25.22c.064 3.81-1.746 6.645-4.638 8.91-.854.669-1.776 1.233-2.723 1.763-.384.215-.576.19-.717-.25-1.707-5.345-.954-10.17 3.98-13.903a19.065 19.065 0 0 1 2.552-1.635c.375-.2.592-.195.707.27.157.639.395 1.26.523 1.903.192.97.322 1.951.316 2.941zM97.95 57.361c.069-3.172 1.174-5.698 2.858-8.01.186-.256.343-.522.7-.146 1.971 2.073 3.626 4.323 4.182 7.216.541 2.814-.24 5.358-1.6 7.775-.357.633-.801 1.216-1.197 1.828-.159.245-.32.333-.557.094-2.488-2.506-4.31-5.335-4.387-8.757zM115.7 74.794c3.92.212 7.53 1.168 10.19 4.336 1.4 1.666 2.316 3.588 2.872 5.685.08.3.247.682-.34.685-3.4.017-6.675-.455-9.498-2.546-2.6-1.926-3.963-4.649-4.801-7.69-.094-.336.02-.486.376-.473.4.013.8.003 1.2.003zM76.338 56.62c3.592-.019 6.838.89 9.418 3.552 1.428 1.473 2.448 3.208 3.226 5.098.149.362.139.592-.307.638-4.56.474-8.855.011-12.27-3.508-1.378-1.42-2.36-3.097-3.129-4.911-.192-.453-.09-.627.388-.704.887-.143 1.779-.162 2.674-.165zm8.412-7.273c.018-2.056.304-3.645.834-5.195.108-.314.202-.52.588-.305 3.028 1.678 5.667 3.743 6.907 7.135.757 2.07.719 4.206.286 6.339-.15.735-.378 1.454-.578 2.179-.083.3-.239.441-.566.26-3.356-1.843-6.141-4.193-7.162-8.1-.232-.892-.329-1.806-.31-2.313zm34.2 8.369c-.352 0-.704-.008-1.056.002-.482.013-.536-.19-.401-.617 1.414-4.48 4.903-7.08 9.634-7.157h.283c2.153.02 2.032-.168 1.152 1.828-1.833 4.154-5.202 5.916-9.611 5.944zM99.677 70.275c-3.31-.462-6.143-1.427-7.919-4.31-.752-1.221-1.173-2.56-1.395-3.97-.087-.555-.038-.802.667-.698 1.934.287 3.773.793 5.392 1.93 1.97 1.385 2.902 3.401 3.4 5.673.06.276.083.56.143.836.089.403-.024.6-.288.539zm9.084-26.441c-.055 2.397-1.2 4.374-2.768 6.17-.27.308-.403.171-.591-.069-2.919-3.726-3.28-7.539-.344-11.357 1.025-1.333.849-1.442 1.902.072 1.065 1.53 1.764 3.208 1.801 5.184zm61.936 59.615c0 .753.004 1.506-.003 2.259-.001.226.044.499-.311.522-.266.018-.471-.061-.519-.353-.087-.538-.313-.372-.61-.153-1.756 1.29-4.03.771-5.12-1.157-1.021-1.807-.854-4.457.444-6.071.945-1.176 2.25-1.399 3.643-1.11 1.176.244 1.951 1.005 2.275 2.172.06.216.324.607-.151.68-.33.051-.762.2-.934-.344-.36-1.142-1.19-1.538-2.342-1.484-.782.037-1.377.364-1.752 1.009-.924 1.589-.968 3.219-.04 4.825.532.925 1.622 1.302 2.709 1.005.888-.242 1.644-1.22 1.688-2.15.014-.313-.113-.424-.407-.42-.518.006-1.036-.01-1.554.005-.402.012-.534-.175-.532-.558.002-.391.158-.55.55-.544.824.014 1.648.02 2.471-.004.45-.013.576.196.56.6-.016.423-.003.848-.003 1.272h-.062zm-14.703-3.646v2.784c0 1.012-.01 2.024.003 3.037.004.374-.037.623-.52.624-.498 0-.582-.24-.58-.658.01-2.425 0-4.85.014-7.274.001-.292-.18-.734.323-.797.428-.054.866-.117 1.158.407.835 1.499 1.718 2.972 2.582 4.455l1.001 1.72c.228-.21.14-.432.141-.62.008-1.766.013-3.531-.001-5.297-.004-.44.06-.706.605-.7.576.006.49.365.49.714 0 2.425.007 4.85-.007 7.274-.002.266.184.687-.283.745-.425.053-.87.128-1.165-.39-.964-1.697-1.964-3.374-2.953-5.057-.2-.34-.409-.675-.614-1.013l-.194.046zm-20.618 2.076c0-1.25.022-2.5-.01-3.748-.013-.504.162-.651.648-.638 1.06.029 2.12.017 3.179.004.969-.011 1.725.39 2.1 1.269.41.964.358 1.953-.387 2.768-.306.334-.435.522-.04.886.422.387.444.978.498 1.51.066.653-.028 1.322.26 1.946.085.182.041.36-.185.344-.369-.024-.84.22-1.048-.305-.075-.19-.066-.415-.078-.626-.013-.211.015-.426-.01-.635-.258-2.09-.443-2.144-2.197-2.104-1.532.035-1.532.007-1.531 1.51 0 .518-.02 1.038.004 1.555.02.452-.148.625-.613.633-.476.008-.604-.17-.595-.622.024-1.249.008-2.498.008-3.747h-.003zm2.775-3.287c-.305 0-.613.028-.913-.006-.604-.067-.79.208-.746.773.035.443.036.893 0 1.335-.045.563.131.83.74.778.511-.044 1.03-.004 1.545-.013 1.122-.018 1.568-.459 1.554-1.522-.013-.968-.443-1.342-1.548-1.344h-.632zm-23.206-1.265c1.544.004 2.429.67 2.763 2.08.063.265.24.599-.175.695-.36.085-.744.112-.933-.377-.466-1.207-1.184-1.585-2.415-1.267-.599.154-.976.56-1.039 1.196-.062.623.308.976.84 1.15.714.231 1.451.392 2.168.616 1.469.459 2.012 1.23 1.93 2.701-.042.76-.42 1.326-1.045 1.737-1.253.822-3.08.77-4.241-.117-.641-.49-.915-1.17-1.014-1.943-.038-.295.009-.534.383-.505.278.021.653-.135.706.35.169 1.54 1.89 1.952 2.991 1.599.625-.2 1.081-.601 1.106-1.307.025-.679-.372-1.102-.979-1.313a13.99 13.99 0 0 0-1.624-.469c-1.813-.394-2.514-1.21-2.328-2.755.157-1.31 1.232-2.076 2.906-2.071zm12.687 4.505c0-1.225.015-2.45-.008-3.676-.009-.478.134-.675.642-.666 1.436.026 2.872.012 4.309.007.337-.001.62.016.574.483-.039.392-.113.646-.62.626-1.058-.043-2.119-.003-3.178-.02-.385-.006-.563.114-.545.523.023.517.028 1.038 0 1.554-.024.457.19.554.594.543a68.854 68.854 0 0 1 2.543-.005c.402.005.877-.134.877.573 0 .693-.474.506-.834.513-.87.015-1.743.02-2.613-.002-.43-.012-.588.144-.569.574.027.587.023 1.178.001 1.766-.015.407.155.529.544.522 1.059-.019 2.119.003 3.178-.01.403-.005.68.044.675.56-.004.527-.304.542-.694.54-1.413-.01-2.826-.02-4.238.006-.504.01-.654-.181-.644-.664.024-1.248.008-2.498.008-3.747h-.002zm-5.544.592c0-1.036-.035-2.073.013-3.106.028-.61-.2-.788-.769-.734-.419.04-.846-.004-1.268.012-.384.015-.63-.064-.63-.53-.002-.434.171-.575.59-.572 1.763.014 3.526.013 5.29 0 .372-.002.562.085.555.51-.006.396-.082.625-.545.595-.468-.03-.942.024-1.41-.015-.558-.045-.734.17-.727.724.027 2.094.006 4.189.018 6.283.002.406-.04.671-.559.656-.428-.012-.576-.146-.566-.576.023-1.082.008-2.165.008-3.247zm21.791-.59c0-1.177.008-2.353-.003-3.53-.005-.453-.023-.82.634-.822.652-.003.569.38.568.783-.003 2.07.015 4.141-.012 6.21-.007.534.163.698.686.677.939-.037 1.88 0 2.82-.016.388-.007.616.062.607.534-.008.426-.143.578-.575.571-1.363-.02-2.727-.023-4.09.003-.506.01-.652-.196-.644-.67.02-1.247.007-2.494.007-3.74h.002zm7.192.013c0-1.247.014-2.494-.008-3.741-.008-.467.174-.62.624-.614.42.005.587.154.585.582a776.34 776.34 0 0 0 0 7.553c.002.46-.17.615-.624.619-.495.003-.588-.237-.583-.658.015-1.247.005-2.494.006-3.741z" opacity=".301" fill="#D4E1ED"/></g></svg>