<svg xmlns="http://www.w3.org/2000/svg" width="160.26" height="43.17" viewBox="0 0 160.26 43.17"><path fill="#FFF" d="M48.922 35.419c-3.862 0-6.324-1.823-7.445-2.688l-.118-.089.08-.121 1.61-2.488.092-.145.141.101c.936.681 2.908 1.822 5.581 1.822 2.298 0 3.614-.987 3.614-2.705 0-1.89-1.551-2.427-4.361-3.406l-.334-.114c-2.82-.971-5.431-2.389-5.431-6.165 0-3.399 2.649-6.266 6.747-6.266 2.428 0 4.313 1.108 5.936 2.052l.129.074-.064.131-1.289 2.632-.072.149-.148-.076a9.721 9.721 0 0 0-4.432-1.054c-1.463 0-3.205.394-3.205 2.271 0 1.835 1.373 2.283 4.104 3.173 2.969.959 6.139 2.331 6.139 6.542-.003 3.757-2.721 6.37-7.274 6.37m10.182 5.06c-.706 0-1.378-.393-2.173-.573l-.147-.034.024-.147.381-2.458.022-.154.156.02.248.03c.382.046.683.086 1.108.086 1.43 0 2.344-.538 2.955-1.731l-5.361-15.58-.075-.709H60.1l.122.498.035-.498 3.111 11.623 2.779-11.004.027-.121h3.471v-.498l-4.533 16.116c-1.008 3.291-2.921 5.134-6.008 5.134m33.076-5.06h-4.096V24.713c0-1.258-.392-2.096-1.665-2.096-.877 0-1.365.517-2.432 1.501v11.301H79.89V24.713c0-1.258-.537-2.096-1.813-2.096-.931 0-1.328.563-2.283 1.553v11.249h-4.098V19.227v.498h1.992l.033.11.678 2.05c1.59-1.67 3.195-2.479 4.906-2.479 2.175 0 3.062 1.17 3.563 2.274 1.074-1.079 2.727-2.274 4.779-2.274 3.424 0 4.533 2.9 4.533 5.336v10.677zm6.233 0c-2.814 0-4.78-2.159-4.78-4.722 0-1.646.578-2.803 1.824-3.631 1.27-.857 3.383-1.477 6.631-1.942v-.382c0-1.654-.607-2.27-2.239-2.27-1.397 0-2.802.574-4.114 1.197l-.14.068-.073-.137-1.229-2.283-.07-.131.125-.08c1.932-1.177 3.728-1.699 5.824-1.699 3.763 0 6.348 1.923 6.348 5.566v10.446h-3.045l-.639-2.191c-.956.866-2.455 2.191-4.423 2.191m4.009-8.097c-2.51.482-4.082 1.267-4.582 1.885-.311.355-.404.65-.404 1.26 0 1.123.611 1.719 1.77 1.719.957 0 2.361-.4 3.217-1.072v-3.792zm19.461 8.097h-3.993l-.104-.788v-9.918c0-1.47-.418-2.096-1.634-2.096-1.024 0-2.565.605-3.487 1.58v11.222h-4.097V19.227h3.053l.021 2.024c1.58-1.685 3.898-1.845 5.736-1.845 2.885 0 4.506 1.795 4.506 5.336v10.677zm7.846 0c-3.004 0-4.773-4.048-4.773-4.865v-8.291h-2.049v-2.38l.133-.656h-.133 2.049V15.18h4.098v4.046h4.096v3.057l-.832.16-.16-.181h-3.104v8.097c-1.025 1.012 0 1.012 2.048 1.012.381 0 .452.176 1.039 0l-.015.393v.619l1.023 1.959v1.077c-.397.159-1.944 0-3.42 0"/><path fill="#FFF" d="M140.322 35.419c-4.271 0-7.174-3.321-7.174-8.075 0-4.824 2.863-8.117 6.91-8.117 4.101 0 6.405 3.083 6.405 8.146v1.056h-9.102c.211 2.437 1.209 3.526 3.225 3.526 1.65 0 2.737-.605 3.894-1.334l.134-.086.09.135 1.404 2.168.078.123-.117.091c-1.428 1.093-2.848 2.367-5.747 2.367m-2.926-9.479h5.187c-.087-2.489-.912-3.7-2.524-3.7-1.579 0-2.452 1.211-2.663 3.7m17.617 9.479c-5.083 0-6.501-4.352-6.501-8.075 0-3.662 1.412-7.938 6.501-7.938 2.098 0 3.563.494 4.904 1.658l.108.095-.08.116-1.609 2.285-.097.135-.137-.1c-.839-.622-1.683-1.333-3.061-1.333-1.973 0-3.457 1.896-3.457 5.052 0 3.103 1.488 5.068 3.544 5.068 1.357 0 2.722-1.266 3.625-2.023l-.354.194.104.134 1.67 2.11.086.11-.097.098c-1.379 1.397-3.014 2.414-5.149 2.414M39.944 3.035h1.024v1.012h-1.024zm0-3.035h1.024v1.012h-1.024zm-4.096 4.089h1.023v.97h-1.023zm-3.074 2.994h1.024v1.013h-1.024zm4.097-2.024h2.049v2.024h-2.049zM31.75 6.071h1.024v1.012H31.75zm4.098 1.012h1.023v1.013h-1.023zm3.072-6.071h1.024v1.012H38.92zm-3.072 1.011h3.072v2.023h-3.072zm-2.049 5.06h2.049l-.233-2.994h-1.816zm0 1.013v2.023h-1.024V8.096h-2.228V9.27h-2.894l1.024.85 2.049 1.012v1.012h-1.024v-2.023h-3.073l1.199 2.521H26.43v1.37h-.925v1.375h-1.021c-1.143 1.68-4.011 6.919-4.878 9.056-3.122-4.297-5.548-6.001-7.458-6.617-1.033-.306-2.273.802-.561 2.549 3.93 4.27 5.169 7.806 6.362 10.628.634 1.487 3.466 1.718 4.036.204 1.21-3.201 2.963-6.798 5.041-9.754v-1.532h1.108V18.54H29.3v-1.601h1.425v-1.76h-1.024v-1.013h1.024v1.23h1.346l-.002-1.387h1.105v-1.675h.623v-1.205h2.049V8.096h-2.047z"/><path fill="#FFF" d="M33.689 12.336h-.514v1.675H32.07l.002 1.387h-1.376v1.542h-1.019a12.662 12.662 0 0 1 2.389 7.41c0 3.435-1.354 6.668-3.813 9.096a13.02 13.02 0 0 1-9.209 3.77 13.022 13.022 0 0 1-9.205-3.767c-2.46-2.431-3.815-5.664-3.815-9.099s1.355-6.666 3.813-9.098a13.032 13.032 0 0 1 9.207-3.766c2.678 0 5.226.8 7.385 2.273V12.64h1.398v-2.145h1.474V9.27h1.085a19.054 19.054 0 0 0-11.342-3.738C8.547 5.531.002 13.975 0 24.35c.002 10.377 8.547 18.82 19.045 18.82 10.501 0 19.047-8.443 19.047-18.82 0-4.565-1.656-8.752-4.403-12.014z"/></svg>