<svg xmlns="http://www.w3.org/2000/svg" width="150px" height="100px" viewBox="0 0 150 100"><defs><linearGradient id="iusej4cszzc7ylrwoyhr6704" x1=".7" y1="-1.2" x2=".7" y2=".9"><stop offset="0" stop-color="#0056e6"/><stop offset="1" stop-color="#fff"/></linearGradient><linearGradient id="lzuw786dx4m58jgae068uwyz" x1=".5" y1="0" x2=".5" y2="1.4"><stop offset="0" stop-color="#0056e6"/><stop offset="1" stop-color="#f5f5f7"/></linearGradient><linearGradient id="j4qei76yzwswnyg5egetskdi" x1="-1.4" y1="2.1" x2=".7" y2=".1"><stop offset="0" stop-color="#0056e6"/><stop offset="1" stop-color="#fff"/></linearGradient><linearGradient id="wj7pfuurkxr8i3edvakcerb2" x1=".7" y1=".4" x2=".4" y2=".7"><stop offset="0" stop-color="#aac5f2"/><stop offset="1" stop-color="#4281ea"/></linearGradient></defs><style>
@keyframes a1_t { 0% { transform: translate(100.4px,50.1px); animation-timing-function: cubic-bezier(.4,0,.6,1); } 48.736% { transform: translate(100.4px,64.2px); animation-timing-function: cubic-bezier(.4,0,.6,1); } 100% { transform: translate(100.4px,50.1px); } }
@keyframes tljs3faos12norqxj3yzprc5_t { 0% { transform: rotate(0deg) translate(-32.6px,-32.6px); animation-timing-function: cubic-bezier(.4,0,.6,1); } 41.398% { transform: rotate(14deg) translate(-32.6px,-32.6px); animation-timing-function: cubic-bezier(.4,0,.6,1); } 100% { transform: rotate(0deg) translate(-32.6px,-32.6px); } }
@keyframes imhvsn3e34b124c19fk15ayo_t { 0% { transform: translate(21px,33px); animation-timing-function: cubic-bezier(.4,0,.6,1); } 54.878% { transform: translate(21px,47.6px); animation-timing-function: cubic-bezier(.4,0,.6,1); } 100% { transform: translate(21px,33px); } }
@keyframes u169d14ctsuh6nmhppg9xbyu_t { 0% { transform: translate(15.7px,16.5px) rotate(0deg) translate(-15.7px,-16.5px); } 100% { transform: translate(15.7px,16.5px) rotate(-360deg) translate(-15.7px,-16.5px); } }
</style><title>Group 4</title><desc>Created with Sketch.</desc><g style="animation: 4.62s linear infinite both a1_t;"><g transform="translate(100.4,50.1) translate(-32.6,-32.6)" style="animation: 6.2s linear infinite both tljs3faos12norqxj3yzprc5_t;"><path d="M11.5 0h46.1c6.4 0 11.5 5.2 11.5 11.5c0 6.4-5.1 11.5-11.5 11.5h-46.1c-6.3 0-11.5-5.1-11.5-11.5c0-6.3 5.2-11.5 11.5-11.5Z" fill="url(#iusej4cszzc7ylrwoyhr6704)" fill-rule="evenodd" transform="translate(48.9,65.2) rotate(-135)"/><path d="M11.5 0h23.1v23h-23.1c-6.3 0-11.5-5.1-11.5-11.5c0-6.3 5.2-11.5 11.5-11.5Z" fill="url(#lzuw786dx4m58jgae068uwyz)" fill-rule="evenodd" transform="translate(48.9,65.2) rotate(-135)"/></g></g><g transform="translate(37,49) translate(-16,-16)" style="animation: 5.47s linear infinite both imhvsn3e34b124c19fk15ayo_t;"><ellipse fill="url(#j4qei76yzwswnyg5egetskdi)" rx="16" ry="16" fill-rule="evenodd" transform="translate(16,16)"/><path d="M23.7 22.2l-14-13.5c-0.5-0.6-1.5-0.6-2 0c-0.6 .6-0.6 1.5 0 2l14 13.6c.6 .6 1.5 .6 2.1 0c.5-0.6 .5-1.5-0.1-2.1Z" fill="url(#wj7pfuurkxr8i3edvakcerb2)" fill-rule="evenodd" transform="translate(15.7,16.5) translate(-15.7,-16.5)" style="animation: 16.18s linear infinite both u169d14ctsuh6nmhppg9xbyu_t;"/></g></svg>