<?xml version="1.0" encoding="UTF-8"?>
<svg width="561px" height="100px" viewBox="0 0 561 100" version="1.1" xmlns="http://www.w3.org/2000/svg" xmlns:xlink="http://www.w3.org/1999/xlink">
    <!-- Generator: Sketch 58 (84663) - https://sketch.com -->
    <title>thnks-type-2</title>
    <desc>Created with Sketch.</desc>
    <g id="Thnks" stroke="none" stroke-width="1" fill="none" fill-rule="evenodd">
        <g id="Case-Study-Thnks_1920" transform="translate(-980.000000, -2176.000000)" fill-rule="nonzero">
            <g id="Group-23-Copy" transform="translate(380.000000, 2176.000000)">
                <path d="M805.372,52.588 C813.688,52.588 819.652,46.708 819.652,38.392 C819.652,30.118 813.73,24.238 805.372,24.238 C797.098,24.238 791.092,30.16 791.092,38.434 C791.092,46.708 797.014,52.588 805.372,52.588 Z M805.372,45.07 C801.802,45.07 799.408,42.466 799.408,38.392 C799.408,34.234 801.76,31.672 805.372,31.672 C808.942,31.672 811.336,34.36 811.336,38.434 C811.336,42.466 808.984,45.07 805.372,45.07 Z M850.018,30.748 C846.574,30.748 844.684,32.554 843.256,34.864 C842.332,32.428 840.358,30.748 836.788,30.748 C833.554,30.748 831.706,32.386 830.278,34.57 C829.522,31.714 827.506,30.958 825.658,30.958 C824.02,30.958 822.592,31.588 822.592,31.882 L822.592,48.304 C822.592,51.286 824.104,52.21 826.246,52.21 L827.086,52.21 C829.144,52.21 830.656,51.244 830.656,48.304 L830.656,38.812 C831.244,37.93 832.21,37.3 833.386,37.3 C834.982,37.3 835.822,38.266 835.822,40.198 L835.822,48.304 C835.822,51.286 837.334,52.21 839.518,52.21 L840.316,52.21 C842.416,52.21 843.886,51.244 843.886,48.304 L843.886,38.812 C844.516,37.93 845.44,37.3 846.616,37.3 C848.254,37.3 849.094,38.266 849.094,40.156 L849.094,48.304 C849.094,51.286 850.606,52.21 852.748,52.21 L853.588,52.21 C855.688,52.21 857.158,51.202 857.158,48.304 L857.158,38.686 C857.158,34.36 855.352,30.748 850.018,30.748 Z M875.134,30.748 C871.858,30.748 869.758,32.386 868.288,34.612 C867.658,32.008 865.81,30.958 863.71,30.958 C862.03,30.958 860.602,31.588 860.602,31.882 L860.602,48.304 C860.602,51.286 862.072,52.21 864.256,52.21 L865.096,52.21 C867.154,52.21 868.666,51.244 868.666,48.304 L868.666,38.938 C869.254,37.972 870.388,37.3 871.774,37.3 C873.454,37.3 874.42,38.476 874.42,40.324 L874.42,48.304 C874.42,51.286 875.932,52.21 878.074,52.21 L878.914,52.21 C881.014,52.21 882.484,51.202 882.484,48.304 L882.484,38.938 C882.484,34.654 880.51,30.748 875.134,30.748 Z M885.088,41.836 C885.088,48.556 889.54,52.588 896.638,52.588 C899.578,52.588 901.804,52.084 903.358,51.202 C904.87,50.32 905.71,49.102 905.71,47.716 C905.71,44.65 901.93,44.524 901.888,44.608 C901.132,46.078 899.41,47.128 896.932,47.128 C894.538,47.128 892.732,45.994 892.144,44.02 C892.06,43.852 892.018,43.642 891.976,43.432 L905.248,43.432 C906.508,43.432 906.844,42.718 906.886,41.5 L906.886,41.122 C906.886,35.116 902.476,30.748 896.134,30.748 C889.708,30.748 885.088,35.452 885.088,41.836 Z M899.704,39.694 L892.06,39.694 C892.27,37.51 893.866,35.914 896.008,35.914 C898.234,35.914 899.578,37.3 899.704,39.694 Z M910.456,51.076 C911.968,51.958 914.362,52.462 917.68,52.462 C924.064,52.462 927.424,49.9 927.424,45.532 C927.424,40.576 922.468,39.652 919.822,39.064 L918.26112,38.7078579 C917.014586,38.4116953 916.252,38.1319231 916.252,37.426 C916.252,36.544 917.134,36.04 918.688,36.04 C920.83,36.04 923.266,37.216 924.778,38.686 C924.904,38.812 926.92,37.426 926.92,35.536 C926.92,34.822 926.752,34.192 926.374,33.604 C925.324,31.798 922.552,30.79 918.1,30.79 C912.262,30.79 908.902,33.478 908.902,37.678 C908.902,42.76 913.648,43.642 916.252,44.188 L917.162436,44.3975887 C918.651309,44.7499936 919.57,45.06328 919.57,45.91 C919.57,46.75 918.688,47.212 917.05,47.212 C914.278,47.212 911.758,46.078 910.33,44.776 C910.162,44.608 908.398,45.91 908.398,47.716 C908.398,49.144 909.028,50.278 910.456,51.076 Z M940.906,52.21 L942.124,52.21 C944.56,52.21 945.82,50.782 945.82,48.304 L945.82,44.398 L949.054,44.398 C956.698,44.398 960.772,41.164 960.772,34.696 C960.772,28.186 956.53,24.826 948.802,24.826 L941.662,24.826 C938.89,24.826 937.336,26.506 937.336,29.53 L937.336,48.304 C937.336,50.866 938.638,52.21 940.906,52.21 Z M948.718,38.224 L945.694,38.224 L945.694,31.168 L948.55,31.168 C951.196,31.168 952.582,32.428 952.582,34.738 C952.582,36.964 951.238,38.224 948.718,38.224 Z M976.102,30.748 C973.54,30.748 971.734,32.386 971.062,34.738 C970.936,34.234 970.81,33.772 970.6,33.436 C969.676,31.504 967.996,30.958 966.442,30.958 C964.804,30.958 963.376,31.588 963.376,31.882 L963.376,48.304 C963.376,51.286 964.846,52.21 967.03,52.21 L967.87,52.21 C969.928,52.21 971.44,51.244 971.44,48.304 L971.44,43.348 C971.44,39.946 972.574,38.224 974.968,38.224 C976.144,38.224 977.152,38.728 977.824,39.316 C977.908,39.4 980.512,38.35 980.512,35.074 C980.512,32.428 978.79,30.748 976.102,30.748 Z M981.898,41.626 C981.898,48.304 986.308,52.588 993.154,52.588 C1000.042,52.588 1004.536,48.262 1004.536,41.668 C1004.536,35.116 1000.084,30.748 993.28,30.748 C986.434,30.748 981.898,35.116 981.898,41.626 Z M997.69,41.668 C997.69,44.398 995.8,46.414 993.238,46.414 C990.592,46.414 988.744,44.482 988.744,41.626 C988.744,38.812 990.592,36.88 993.238,36.88 C995.842,36.88 997.69,38.854 997.69,41.668 Z" id="OmnesPro" fill="#02B8C7"></path>
                <path d="M614.258,92.062 C619.332,92.062 624.288,89.23 627.12,81.088 L629.362,75.306 L653.67,75.306 L655.794,80.852 C659.098,89.23 664.29,91.944 669.364,91.944 C676.444,91.944 682.816,86.634 681.99,84.51 L656.384,20.554 L656.280485,20.2374664 C655.044732,16.6272521 652.187521,14.064 641.752,14.064 C631.014,14.064 627.828,16.778 626.648,20.554 L602.104,84.746 C601.278,86.87 607.768,92.062 614.258,92.062 Z M633.256,58.196 L641.398,36.13 L649.422,58.196 L633.256,58.196 Z M685.058,75.424 C685.058,85.572 692.61,92.18 704.41,92.18 C713.024,92.18 720.34,88.522 724.116,82.268 C724.352,83.684 724.942,84.982 725.532,86.162 C727.774,90.174 731.668,92.062 736.624,92.062 C740.99,92.062 745.474,90.764 745.474,89.466 L745.474,56.662 C745.474,39.906 736.27,31.292 715.266,31.292 C702.522,31.292 694.38,33.652 690.368,38.254 C688.244,40.496 687.3,43.21 687.3,46.278 C687.3,56.426 702.168,54.656 702.286,54.302 C703.702,50.762 706.77,47.34 713.968,47.34 C719.16,47.34 722.228,49.582 722.818,54.302 C722.936,54.892 723.054,55.6 723.054,56.308 L720.576,56.308 C697.802,56.426 685.058,62.798 685.058,75.424 Z M723.054,69.76 C722.818,75.188 718.688,78.728 712.552,78.728 C708.54,78.728 705.826,76.604 705.826,73.064 C705.826,68.108 711.018,66.102 719.868,65.984 L723.054,65.866 L723.054,69.76 Z" id="Aa" fill="#02B8C7"></path>
                <path d="M791.62,91 L796.675,91 C796.915,91 797.035,90.88 797.035,90.685 L797.035,90.61 C797.035,90.4 796.915,90.295 796.675,90.295 L791.95,90.295 L791.95,81.595 C791.95,81.355 791.83,81.25 791.605,81.25 L791.5,81.25 C791.29,81.25 791.185,81.355 791.185,81.595 L791.185,90.535 C791.185,90.805 791.365,91 791.62,91 Z M798.945,81.67 C798.945,82 799.125,82.18 799.44,82.18 C799.8,82.18 799.995,82 799.995,81.67 C799.995,81.31 799.815,81.13 799.47,81.13 C799.125,81.13 798.945,81.31 798.945,81.67 Z M799.095,90.7 C799.095,90.97 799.23,91.045 799.41,91.045 L799.5,91.045 C799.695,91.045 799.83,90.97 799.83,90.7 L799.83,84.205 C799.83,83.935 799.695,83.86 799.5,83.86 L799.41,83.86 C799.23,83.86 799.095,83.935 799.095,84.205 L799.095,90.7 Z M804.74,94.15 C806.975,94.15 808.295,93.4 808.295,92.08 C808.295,90.94 807.125,90.445 806.03,90.19 L805.073013,89.9661297 C804.416176,89.8056574 804.035,89.6561765 804.035,89.275 C804.035,89.095 804.095,88.93 804.275,88.81 L804.593889,88.8355556 C804.646667,88.8383333 804.7,88.84 804.755,88.84 C806.39,88.84 807.605,87.715 807.605,86.29 C807.605,85.675 807.35,85.105 806.96,84.685 L808.13,83.41 C808.13,83.305 807.995,83.14 807.8,83.095 C807.62,83.05 807.395,83.095 807.2,83.41 L806.555,84.31 C806.075,83.95 805.445,83.755 804.785,83.755 C803.165,83.755 801.965,84.91 801.965,86.35 C801.965,87.43 802.685,88.33 803.735,88.675 C803.495,88.84 803.33,89.095 803.33,89.395 C803.33,89.77 803.555,89.995 803.87,90.145 C802.55,90.385 801.44,91.135 801.44,92.23 C801.44,93.505 802.55,94.15 804.74,94.15 Z M804.77,88.27 C803.555,88.27 802.715,87.46 802.715,86.32 C802.715,85.165 803.555,84.355 804.77,84.355 C806,84.355 806.84,85.18 806.84,86.32 C806.84,87.46 805.97,88.27 804.77,88.27 Z M804.755,93.55 C803.075,93.55 802.16,93.085 802.16,92.23 C802.16,91.285 803.405,90.67 804.8,90.565 C805.02,90.625 805.246667,90.6716667 805.475556,90.7227778 L805.82,90.805 C806.705,91.015 807.56,91.36 807.56,92.11 C807.56,93.055 806.495,93.55 804.755,93.55 Z M812.995,83.755 C811.84,83.755 810.925,84.355 810.49,85.3 L810.49,81.55 C810.49,80.965 810.25,80.83 809.995,80.83 C809.86,80.83 809.755,80.875 809.755,80.905 L809.755,90.7 C809.755,90.97 809.89,91.045 810.07,91.045 L810.16,91.045 C810.355,91.045 810.49,90.97 810.49,90.7 L810.49,86.905 C810.49,85.42 811.54,84.445 812.95,84.445 C814.345,84.445 815.125,85.39 815.125,86.965 L815.125,90.7 C815.125,90.97 815.26,91.045 815.44,91.045 L815.53,91.045 C815.725,91.045 815.86,90.97 815.86,90.7 L815.86,86.92 C815.86,85.015 814.9,83.755 812.995,83.755 Z M820.665,91.15 C819.405,91.15 818.805,90.445 818.805,88.945 L818.805,84.565 L817.935,84.565 C817.665,84.565 817.59,84.445 817.59,84.265 L817.59,84.19 C817.59,84.01 817.665,83.905 817.935,83.905 L818.805,83.905 L818.805,82.525 C818.805,82.255 818.94,82.165 819.12,82.165 L819.21,82.165 C819.405,82.165 819.525,82.255 819.525,82.525 L819.525,83.905 L821.565,83.905 C821.835,83.905 821.925,84.01 821.925,84.19 L821.925,84.265 C821.925,84.445 821.835,84.565 821.565,84.565 L819.525,84.565 L819.525,88.87 C819.525,90.025 819.885,90.52 820.695,90.52 C821.22,90.52 821.61,90.265 821.85,89.905 C821.88,89.875 822.09,89.98 822.09,90.28 C822.09,90.4 822.03,90.565 821.85,90.73 C821.625,90.97 821.235,91.15 820.665,91.15 Z" id="Light" fill="#0C0F35"></path>
                <path d="M844.575,91.045 L844.71,91.045 C845.04,91.045 845.205,90.835 845.205,90.535 L845.205,86.995 L846.3,86.995 L849.465,90.625 C849.675,90.925 849.885,91.045 850.155,91.045 C850.62,91.045 850.875,90.655 850.815,90.58 L847.59,86.935 L847.995,86.89 C849.81,86.77 850.845,85.78 850.845,84.13 C850.845,82.27 849.63,81.295 847.35,81.295 L844.71,81.295 C844.335,81.295 844.095,81.565 844.095,81.955 L844.095,90.49 C844.095,90.865 844.26,91.045 844.575,91.045 Z M845.205,86.125 L845.205,82.255 L847.305,82.255 C848.895,82.255 849.705,82.915 849.705,84.19 C849.705,85.375 848.94,86.125 847.35,86.125 L845.205,86.125 Z M851.985,87.46 C851.985,89.65 853.455,91.165 855.63,91.165 C856.74,91.165 857.565,90.79 858.015,90.4 C858.405,90.085 858.585,89.74 858.585,89.515 C858.585,89.035 858.03,88.915 857.97,88.945 C857.61,89.635 856.98,90.265 855.645,90.265 C854.205,90.265 853.17,89.305 853.035,87.865 C853.02,87.79 853.02,87.715 853.02,87.655 L858.435,87.655 C858.705,87.655 858.81,87.565 858.81,87.31 L858.81,87.205 C858.81,85.09 857.52,83.68 855.525,83.68 C853.47,83.68 851.985,85.285 851.985,87.46 Z M857.745,86.875 L853.05,86.875 C853.245,85.51 854.22,84.55 855.525,84.55 C856.83,84.55 857.685,85.48 857.745,86.875 Z M862.635,94.15 C864.915,94.15 866.235,93.34 866.235,92.005 C866.235,90.905 865.228197,90.390034 864.238239,90.1232054 L863.682072,89.9874344 C862.715346,89.7617474 862.153235,89.6535294 862.14,89.23 C862.14,89.08 862.17,88.945 862.32,88.84 C862.455,88.855 862.575,88.855 862.71,88.855 C864.39,88.855 865.62,87.745 865.62,86.29 C865.62,85.66 865.365,85.105 864.975,84.67 L866.16,83.41 C866.175,83.32 865.98,82.975 865.635,82.93 C865.38,82.9 865.14,83.005 864.93,83.365 L864.39,84.175 C863.925,83.86 863.325,83.68 862.695,83.68 C861.03,83.68 859.8,84.85 859.8,86.335 C859.8,87.445 860.52,88.345 861.615,88.69 C861.36,88.87 861.18,89.14 861.18,89.455 C861.18,89.8 861.375,90.025 861.63,90.175 C860.325,90.415 859.29,91.15 859.29,92.2 C859.29,93.49 860.4,94.15 862.635,94.15 Z M862.695,88.105 C861.615,88.105 860.85,87.385 860.85,86.305 C860.85,85.225 861.6,84.49 862.68,84.49 C863.805,84.49 864.54,85.24 864.54,86.305 C864.54,87.385 863.775,88.105 862.695,88.105 Z M862.665,93.37 C861.15,93.37 860.34,92.95 860.34,92.185 C860.34,91.345 861.45,90.805 862.725,90.7 C863.01,90.775 863.31,90.835 863.61,90.91 C864.435,91.12 865.185,91.42 865.185,92.08 C865.185,92.92 864.24,93.37 862.665,93.37 Z M872.88,83.785 L872.745,83.785 C872.475,83.785 872.28,83.905 872.28,84.295 L872.28,88.75 C871.89,89.62 871.11,90.205 870.075,90.205 C868.86,90.205 868.185,89.35 868.185,87.97 L868.185,84.295 C868.185,83.905 867.99,83.785 867.705,83.785 L867.585,83.785 C867.3,83.785 867.105,83.905 867.105,84.295 L867.105,88.045 C867.105,89.89 868.005,91.165 869.85,91.165 C871.005,91.165 871.83,90.565 872.31,89.77 C872.31,89.965 872.325,90.16 872.34,90.355 C872.4,90.91 872.67,91.06 872.97,91.06 C873.18,91.06 873.36,90.97 873.36,90.94 L873.36,84.295 C873.36,83.905 873.165,83.785 872.88,83.785 Z M875.835,91.045 L875.955,91.045 C876.24,91.045 876.435,90.925 876.435,90.535 L876.435,81.73 C876.435,80.95 876.09,80.77 875.745,80.77 C875.535,80.77 875.355,80.845 875.355,80.89 L875.355,90.535 C875.355,90.925 875.55,91.045 875.835,91.045 Z M877.98,89.155 C877.98,90.37 878.91,91.15 880.41,91.15 C881.61,91.15 882.585,90.58 883.065,89.71 C883.065,89.935 883.08,90.16 883.095,90.37 C883.155,90.91 883.41,91.06 883.725,91.06 C883.92,91.06 884.115,90.985 884.115,90.94 L884.115,86.515 C884.115,84.745 883.08,83.68 881.175,83.68 C879.99,83.68 879.165,84.085 878.7,84.535 C878.415,84.805 878.265,85.12 878.265,85.33 C878.265,85.87 878.895,85.9 878.925,85.885 C879.285,85.165 879.975,84.61 881.115,84.61 C882.345,84.61 883.05,85.285 883.05,86.5 L883.05,86.8 L882.885,86.8 C879.51,86.845 877.98,87.535 877.98,89.155 Z M883.05,88.195 C883.05,89.41 882,90.34 880.62,90.34 C879.66,90.34 879.06,89.875 879.06,89.125 C879.06,88.03 880.185,87.58 882.795,87.52 L883.05,87.505 L883.05,88.195 Z M888.885,83.68 C889.53,83.68 889.95,83.995 889.95,84.46 C889.95,84.895 889.65,85.075 889.62,85.045 C889.44,84.865 889.155,84.745 888.765,84.745 C887.595,84.745 887.055,85.9 887.055,87.7 L887.055,90.535 C887.055,90.91 886.86,91.045 886.59,91.045 L886.47,91.045 C886.17,91.045 885.975,90.925 885.975,90.535 L885.975,83.905 C885.975,83.875 886.14,83.785 886.365,83.785 C886.665,83.785 886.935,83.935 886.995,84.505 C887.01,84.76 887.025,85.015 887.025,85.285 C887.31,84.205 887.97,83.68 888.885,83.68 Z" id="Regular" fill="#0C0F35"></path>
                <path d="M911.99,90.325 C912.575,90.82 913.625,91.21 915.125,91.21 C917.675,91.21 919.1,90.085 919.1,88.15 C919.1,86.32 917.57,85.6 915.815,85.21 L915.106022,85.0513005 C914.287244,84.8575623 913.745,84.6431579 913.745,83.98 C913.745,83.275 914.375,82.84 915.425,82.84 C916.46,82.84 917.435,83.35 918.005,84.025 C918.05,84.07 918.875,83.56 918.875,82.87 C918.875,82.51 918.665,82.12 918.2,81.805 C917.645,81.4 916.715,81.085 915.41,81.085 C913.07,81.085 911.63,82.27 911.63,84.07 C911.63,86.065 913.22,86.635 914.765,86.98 L915.264129,87.0922694 C916.175562,87.304525 916.88,87.5455 916.88,88.285 C916.88,89.035 916.265,89.455 915.11,89.455 C913.925,89.455 912.815,88.84 912.23,88.15 C912.155,88.075 911.39,88.63 911.39,89.245 C911.39,89.605 911.57,89.995 911.99,90.325 Z M919.94,87.4 C919.94,89.725 921.5,91.21 923.885,91.21 C924.905,91.21 925.685,90.985 926.225,90.655 C926.75,90.34 927.035,89.92 927.035,89.515 C927.035,88.675 926.015,88.585 926,88.615 C925.67,89.2 925.04,89.68 923.945,89.68 C922.865,89.68 922.07,89.065 921.845,88.105 L921.8,87.865 L926.87,87.865 C927.26,87.865 927.365,87.67 927.38,87.31 L927.38,87.175 C927.38,85.03 925.91,83.515 923.735,83.515 C921.53,83.515 919.94,85.165 919.94,87.4 Z M925.43,86.71 L921.83,86.71 C921.965,85.69 922.715,84.97 923.72,84.97 C924.725,84.97 925.37,85.645 925.43,86.71 Z M937.685,83.515 C936.47,83.515 935.72,84.175 935.225,85.015 C934.865,84.1 934.1,83.515 932.885,83.515 C931.82,83.515 931.115,84.07 930.62,84.805 C930.455,83.83 929.885,83.605 929.36,83.605 C928.94,83.605 928.565,83.77 928.565,83.845 L928.565,90.055 C928.565,90.835 928.955,91.06 929.525,91.06 L929.75,91.06 C930.29,91.06 930.68,90.82 930.68,90.055 L930.68,86.185 C930.98,85.66 931.52,85.285 932.12,85.285 C932.96,85.285 933.38,85.795 933.38,86.8 L933.38,90.055 C933.38,90.835 933.785,91.06 934.34,91.06 L934.565,91.06 C935.105,91.06 935.495,90.82 935.495,90.055 L935.495,86.185 C935.795,85.66 936.335,85.285 936.935,85.285 C937.79,85.285 938.21,85.795 938.21,86.755 L938.21,90.055 C938.21,90.835 938.6,91.06 939.17,91.06 L939.395,91.06 C939.935,91.06 940.325,90.82 940.325,90.055 L940.325,86.425 C940.325,84.7 939.545,83.515 937.685,83.515 Z M941.765,81.43 C941.765,82.105 942.23,82.525 942.95,82.525 C943.7,82.525 944.135,82.105 944.135,81.43 C944.135,80.755 943.685,80.335 942.95,80.335 C942.215,80.335 941.765,80.755 941.765,81.43 Z M941.885,90.055 C941.885,90.835 942.275,91.06 942.845,91.06 L943.055,91.06 C943.61,91.06 944,90.82 944,90.055 L944,84.625 C944,83.845 943.61,83.605 943.055,83.605 L942.83,83.605 C942.29,83.605 941.885,83.86 941.885,84.625 L941.885,90.055 Z M947.735,89.905 C948.11,90.625 948.95,91.21 950.09,91.21 C952.1,91.21 953.48,89.62 953.48,87.34 C953.48,85 952.085,83.515 950.105,83.515 C949.07,83.515 948.275,83.965 947.75,84.715 L947.75,82.27 C947.75,80.905 947.06,80.575 946.445,80.575 C946.01,80.575 945.635,80.755 945.635,80.815 L945.635,90.04 C945.635,90.835 946.04,91.06 946.595,91.06 L946.82,91.06 C947.27,91.06 947.615,90.88 947.69,90.34 L947.735,89.905 Z M951.455,87.355 C951.455,88.645 950.705,89.515 949.58,89.515 C948.575,89.515 947.78,88.825 947.75,87.835 L947.75,86.41 C948.065,85.675 948.695,85.21 949.595,85.21 C950.69,85.21 951.455,86.065 951.455,87.355 Z M954.32,87.34 C954.32,89.65 955.88,91.21 958.205,91.21 C960.53,91.21 962.12,89.65 962.12,87.37 C962.12,85.09 960.545,83.515 958.235,83.515 C955.91,83.515 954.32,85.09 954.32,87.34 Z M960.245,87.37 C960.245,88.615 959.39,89.545 958.22,89.545 C957.035,89.545 956.18,88.615 956.18,87.34 C956.18,86.08 957.035,85.165 958.22,85.165 C959.405,85.165 960.245,86.08 960.245,87.37 Z M964.325,91.06 L964.55,91.06 C965.09,91.06 965.48,90.82 965.48,90.055 L965.48,82.27 C965.48,80.905 964.79,80.575 964.16,80.575 C963.74,80.575 963.365,80.755 963.365,80.815 L963.365,90.055 C963.365,90.835 963.77,91.06 964.325,91.06 Z M970.115,91.21 C971.195,91.21 972.005,90.67 972.5,89.815 C972.5,89.995 972.515,90.16 972.53,90.325 C972.605,90.895 972.965,91.06 973.445,91.06 L973.655,91.06 C974.21,91.06 974.585,90.82 974.585,90.055 L974.585,82.27 C974.585,80.905 973.895,80.575 973.265,80.575 C972.845,80.575 972.47,80.755 972.47,80.815 L972.47,84.625 C972.05,83.995 971.21,83.515 970.16,83.515 C968.135,83.515 966.755,85.03 966.755,87.355 C966.755,89.65 968.135,91.21 970.115,91.21 Z M972.485,87.76 C972.485,88.81 971.645,89.515 970.64,89.515 C969.545,89.515 968.765,88.63 968.765,87.355 C968.765,86.035 969.53,85.21 970.67,85.21 C971.57,85.21 972.17,85.66 972.485,86.38 L972.485,87.76 Z" id="Semibold" fill="#0C0F35"></path>
                <path d="M998.22,91 L1001.31,91 C1004.28,91 1005.51,90.145 1005.51,88.195 C1005.51,86.995 1004.865,86.095 1003.41,85.75 C1004.55,85.48 1005.18,84.85 1005.18,83.74 C1005.18,82.165 1003.95,81.295 1001.67,81.295 L998.22,81.295 C997.23,81.295 996.675,81.88 996.675,82.975 L996.675,89.32 C996.675,90.415 997.23,91 998.22,91 Z M999.63,85.315 L999.63,83.32 L1000.875,83.32 C1001.715,83.32 1002.135,83.65 1002.135,84.28 C1002.135,84.955 1001.7,85.315 1000.83,85.315 L999.63,85.315 Z M999.63,88.975 L999.63,86.83 L1000.98,86.83 C1002.03,86.83 1002.48,87.13 1002.48,87.865 C1002.48,88.645 1002.045,88.975 1001.01,88.975 L999.63,88.975 Z M1006.215,87.295 C1006.215,89.68 1007.79,91.21 1010.235,91.21 C1012.695,91.21 1014.3,89.665 1014.3,87.31 C1014.3,84.97 1012.71,83.41 1010.28,83.41 C1007.835,83.41 1006.215,84.97 1006.215,87.295 Z M1011.855,87.31 C1011.855,88.285 1011.18,89.005 1010.265,89.005 C1009.32,89.005 1008.66,88.315 1008.66,87.295 C1008.66,86.29 1009.32,85.6 1010.265,85.6 C1011.195,85.6 1011.855,86.305 1011.855,87.31 Z M1016.64,91.075 L1016.94,91.075 C1017.675,91.075 1018.215,90.715 1018.215,89.68 L1018.215,82.63 C1018.215,80.875 1017.27,80.44 1016.43,80.44 C1015.845,80.44 1015.335,80.665 1015.335,80.77 L1015.335,89.68 C1015.335,90.745 1015.875,91.075 1016.64,91.075 Z M1024.785,89.8450098 C1024.80083,89.9991324 1024.83041,90.1468609 1024.86,90.28 C1025.025,90.88 1025.475,91.075 1026.075,91.075 L1026.36,91.075 C1027.11,91.075 1027.635,90.715 1027.635,89.68 L1027.635,82.63 C1027.635,80.875 1026.69,80.44 1025.865,80.44 C1025.28,80.44 1024.755,80.665 1024.755,80.77 L1024.755,84.43 C1024.32,83.815 1023.54,83.41 1022.61,83.41 C1020.555,83.41 1019.22,84.91 1019.22,87.295 C1019.22,89.605 1020.57,91.21 1022.595,91.21 C1023.6,91.21 1024.39499,90.6700043 1024.785,89.8450098 Z M1024.755,87.67 C1024.755,88.48 1024.185,88.975 1023.39,88.975 C1022.535,88.975 1021.95,88.3 1021.95,87.31 C1021.95,86.275 1022.535,85.645 1023.435,85.645 C1024.065,85.645 1024.515,85.975 1024.755,86.47 L1024.755,87.67 Z" id="Bold" fill="#0C0F35"></path>
                <path d="M1051.385,91 L1054.475,91 C1057.655,91 1058.93,90.16 1058.93,88.15 C1058.93,86.935 1058.27,86.035 1056.815,85.69 C1057.97,85.435 1058.615,84.85 1058.615,83.695 C1058.615,82.15 1057.34,81.295 1054.985,81.295 L1051.385,81.295 C1050.17,81.295 1049.525,81.985 1049.525,83.335 L1049.525,88.96 C1049.525,90.31 1050.17,91 1051.385,91 Z M1053.125,85.225 L1053.125,83.68 L1053.92,83.68 C1054.58,83.68 1054.925,83.92 1054.925,84.415 C1054.925,84.97 1054.61,85.225 1053.845,85.225 L1053.125,85.225 Z M1053.125,88.615 L1053.125,86.92 L1054.025,86.92 C1054.91,86.92 1055.24,87.13 1055.24,87.73 C1055.24,88.36 1054.895,88.615 1054.085,88.615 L1053.125,88.615 Z M1061.345,91.075 L1061.705,91.075 C1062.605,91.075 1063.25,90.64 1063.25,89.38 L1063.25,82.93 C1063.25,80.845 1062.095,80.32 1061.105,80.32 C1060.385,80.32 1059.74,80.605 1059.74,80.725 L1059.74,89.38 C1059.74,90.685 1060.4,91.075 1061.345,91.075 Z M1064.045,88.99 C1064.045,90.295 1065.035,91.15 1066.52,91.15 C1067.63,91.15 1068.545,90.685 1068.995,89.875 C1069.055,90.055 1069.145,90.22 1069.235,90.37 C1069.595,90.895 1070.165,91.165 1070.9,91.165 C1071.59,91.165 1072.28,90.955 1072.28,90.76 L1072.28,86.695 C1072.28,84.43 1071.065,83.32 1068.125,83.32 C1066.295,83.32 1065.185,83.605 1064.675,84.235 C1064.435,84.52 1064.33,84.88 1064.33,85.315 C1064.33,86.845 1066.67,86.515 1066.685,86.455 C1066.805,86.11 1067.075,85.735 1067.93,85.735 C1068.38,85.735 1068.665,85.885 1068.77,86.245 C1068.8,86.335 1068.815,86.44 1068.815,86.56 L1068.455,86.56 C1065.68,86.56 1064.045,87.4 1064.045,88.99 Z M1068.815,88.36 C1068.77,88.855 1068.41,89.155 1067.855,89.155 C1067.48,89.155 1067.21,88.945 1067.21,88.585 C1067.21,88.09 1067.69,87.91 1068.41,87.91 L1068.815,87.91 L1068.815,88.36 Z M1072.97,87.265 C1072.97,89.635 1074.56,91.225 1077.02,91.225 C1078.19,91.225 1078.985,90.925 1079.495,90.535 C1080.005,90.13 1080.215,89.635 1080.215,89.26 C1080.215,87.79 1078.43,87.625 1078.385,87.745 C1078.205,88.225 1077.785,88.525 1077.23,88.525 C1076.54,88.525 1076.075,88 1076.075,87.265 C1076.075,86.56 1076.54,86.035 1077.23,86.035 C1077.86,86.035 1078.205,86.335 1078.385,86.815 C1078.445,86.935 1080.215,86.695 1080.215,85.33 C1080.215,84.94 1080.035,84.445 1079.54,84.04 C1079.045,83.635 1078.25,83.335 1077.02,83.335 C1074.62,83.335 1072.97,84.97 1072.97,87.265 Z M1080.95,89.38 L1080.95,80.725 C1080.95,80.605 1081.595,80.32 1082.315,80.32 C1083.305,80.32 1084.46,80.845 1084.46,82.93 L1084.46,86.23 L1085.495,84.37 C1085.945,83.605 1086.695,83.335 1087.28,83.335 C1088.315,83.335 1089.29,84.16 1089.2,84.355 L1087.43,87.16 L1089.32,90.145 C1089.395,90.34 1088.375,91.135 1087.37,91.135 C1086.725,91.135 1085.96,90.88 1085.495,90.1 L1084.46,88.27 L1084.46,89.38 C1084.46,90.64 1083.815,91.075 1082.915,91.075 L1082.555,91.075 C1081.61,91.075 1080.95,90.685 1080.95,89.38 Z" id="Black" fill="#0C0F35"></path>
            </g>
        </g>
    </g>
</svg>