<?xml version="1.0" encoding="UTF-8"?>
<svg width="561px" height="100px" viewBox="0 0 561 100" version="1.1" xmlns="http://www.w3.org/2000/svg" xmlns:xlink="http://www.w3.org/1999/xlink">
    <!-- Generator: Sketch 58 (84663) - https://sketch.com -->
    <title>thnks-type-1</title>
    <desc>Created with Sketch.</desc>
    <g id="Thnks" stroke="none" stroke-width="1" fill="none" fill-rule="evenodd">
        <g id="Case-Study-Thnks_1920" transform="translate(-380.000000, -2176.000000)" fill-rule="nonzero">
            <g id="Group-23-Copy" transform="translate(380.000000, 2176.000000)">
                <g id="Group-47" transform="translate(0.334000, 5.037000)">
                    <path d="M200.486,41.293 L211.826,41.293 L211.826,46.963 L193.388,46.963 L193.388,16.366 L200.486,16.366 L200.486,41.293 Z M230.222,46.963 C229.605997,46.963 229.140502,46.8790008 228.8255,46.711 C228.510498,46.5429992 228.248001,46.1930027 228.038,45.661 L227.576,44.464 C227.029997,44.9260023 226.505003,45.3319982 226.001,45.682 C225.496997,46.0320017 224.975503,46.3294988 224.4365,46.5745 C223.897497,46.8195012 223.323503,47.0014994 222.7145,47.1205 C222.105497,47.2395006 221.430004,47.299 220.688,47.299 C219.693995,47.299 218.791004,47.1695013 217.979,46.9105 C217.166996,46.6514987 216.477503,46.2700025 215.9105,45.766 C215.343497,45.2619975 214.906002,44.6355037 214.598,43.8865 C214.289998,43.1374963 214.136,42.2730049 214.136,41.293 C214.136,40.5229961 214.331998,39.7320041 214.724,38.92 C215.116002,38.1079959 215.794995,37.3695033 216.761,36.7045 C217.727005,36.0394967 219.028992,35.4830022 220.667,35.035 C222.305008,34.5869978 224.369988,34.3350003 226.862,34.279 L226.862,33.355 C226.862,32.0809936 226.599503,31.1605028 226.0745,30.5935 C225.549497,30.0264972 224.804005,29.743 223.838,29.743 C223.067996,29.743 222.438002,29.8269992 221.948,29.995 C221.555998,30.1294007 221.1976,30.2772396 220.872801,30.4385197 L220.6355,30.562 C220.250498,30.772001 219.876002,30.9609992 219.512,31.129 C219.147998,31.2970008 218.714003,31.381 218.21,31.381 C217.761998,31.381 217.380502,31.2725011 217.0655,31.0555 C216.750498,30.8384989 216.502001,30.5690016 216.32,30.247 L215.144,28.21 C216.460007,27.0479942 217.919492,26.1835028 219.5225,25.6165 C221.125508,25.0494972 222.843991,24.766 224.678,24.766 C225.994007,24.766 227.180495,24.9794979 228.2375,25.4065 C229.294505,25.8335021 230.190496,26.4284962 230.9255,27.1915 C231.660504,27.9545038 232.223998,28.8609947 232.616,29.911 C233.008002,30.9610052 233.204,32.1089938 233.204,33.355 L233.204,46.963 L230.222,46.963 Z M222.746,42.994 C223.586004,42.994 224.320997,42.8470015 224.951,42.553 C225.581003,42.2589985 226.217997,41.7830033 226.862,41.125 L226.862,38.101 C225.559993,38.1570003 224.489004,38.2689992 223.649,38.437 C222.808996,38.6050008 222.144002,38.8149987 221.654,39.067 C221.163998,39.3190013 220.824501,39.6059984 220.6355,39.928 C220.446499,40.2500016 220.352,40.5999981 220.352,40.978 C220.352,41.7200037 220.554998,42.2414985 220.961,42.5425 C221.367002,42.8435015 221.961996,42.994 222.746,42.994 Z M245.468,47.299 C244.431995,47.299 243.518504,47.1485015 242.7275,46.8475 C241.936496,46.5464985 241.271503,46.1195028 240.7325,45.5665 C240.193497,45.0134972 239.784001,44.3450039 239.504,43.561 C239.223999,42.7769961 239.084,41.9020048 239.084,40.936 L239.084,29.68 L237.236,29.68 C236.899998,29.68 236.613001,29.5715011 236.375,29.3545 C236.136999,29.1374989 236.018,28.8190021 236.018,28.399 L236.018,25.858 L239.483,25.186 L240.764,19.873 C240.932001,19.2009966 241.407996,18.865 242.192,18.865 L245.594,18.865 L245.594,25.228 L250.886,25.228 L250.886,29.68 L245.594,29.68 L245.594,40.495 C245.594,40.9990025 245.716499,41.4154984 245.9615,41.7445 C246.206501,42.0735016 246.559998,42.238 247.022,42.238 C247.260001,42.238 247.459499,42.2135002 247.6205,42.1645 C247.781501,42.1154998 247.921499,42.0595003 248.0405,41.9965 C248.159501,41.9334997 248.271499,41.8775002 248.3765,41.8285 C248.481501,41.7794998 248.603999,41.755 248.744,41.755 C248.940001,41.755 249.097499,41.8004995 249.2165,41.8915 C249.335501,41.9825005 249.457999,42.125999 249.584,42.322 L251.558,45.409 C250.717996,46.0390031 249.773005,46.5114984 248.723,46.8265 C247.672995,47.1415016 246.588006,47.299 245.468,47.299 Z M264.326,24.85 C265.978008,24.85 267.482993,25.1089974 268.841,25.627 C270.199007,26.1450026 271.364495,26.8869952 272.3375,27.853 C273.310505,28.8190048 274.066497,29.9914931 274.6055,31.3705 C275.144503,32.7495069 275.414,34.2999914 275.414,36.022 C275.414,37.7580087 275.144503,39.322493 274.6055,40.7155 C274.066497,42.108507 273.310505,43.2914951 272.3375,44.2645 C271.364495,45.2375049 270.199007,45.9864974 268.841,46.5115 C267.482993,47.0365026 265.978008,47.299 264.326,47.299 C262.659992,47.299 261.144507,47.0365026 259.7795,46.5115 C258.414493,45.9864974 257.238505,45.2375049 256.2515,44.2645 C255.264495,43.2914951 254.501503,42.108507 253.9625,40.7155 C253.423497,39.322493 253.154,37.7580087 253.154,36.022 C253.154,34.2999914 253.423497,32.7495069 253.9625,31.3705 C254.501503,29.9914931 255.264495,28.8190048 256.2515,27.853 C257.238505,26.8869952 258.414493,26.1450026 259.7795,25.627 C261.144507,25.1089974 262.659992,24.85 264.326,24.85 Z M264.326,29.68 C262.785992,29.68 261.659004,30.2049947 260.945,31.255 C260.230996,32.3050052 259.874,33.9079892 259.874,36.064 C259.874,38.2200108 260.230996,39.8264947 260.945,40.8835 C261.659004,41.9405053 262.785992,42.469 264.326,42.469 C265.824007,42.469 266.926496,41.9405053 267.6335,40.8835 C268.340504,39.8264947 268.694,38.2200108 268.694,36.064 C268.694,33.9079892 268.340504,32.3050052 267.6335,31.255 C266.926496,30.2049947 265.824007,29.68 264.326,29.68 Z" id="Lato" fill="#00418E"></path>
                    <path d="M86.966,85.963 L71.508,85.963 C69.7773247,85.963 68.3515056,85.5598374 67.2305,84.7535 C66.1094944,83.9471626 65.3326688,82.914673 64.9,81.656 L59.826,66.67 L27.14,66.67 L22.066,81.656 C21.6726647,82.7573388 20.9056724,83.7504956 19.765,84.6355 C18.6243276,85.5205044 17.2280083,85.963 15.576,85.963 L-3.69482223e-13,85.963 L33.276,-2.7000624e-13 L53.69,-2.7000624e-13 L86.966,85.963 Z M31.742,53.1 L55.224,53.1 L47.318,29.559 L45.5185,24.2785 L45.5185,24.2785 C44.8301632,22.2528232 44.15167,20.0600118 43.483,17.7 C42.8536635,20.0993453 42.20467,22.3216564 41.536,24.367 L41.139519,25.5611632 C40.6171721,27.1093242 40.1200024,28.4812607 39.648,29.677 L31.742,53.1 Z M120.596,23.6 C124.293352,23.6 127.626818,24.1998273 130.5965,25.3995 C133.566182,26.5991727 136.08349,28.2708226 138.1485,30.4145 C140.21351,32.5581774 141.796661,35.1049852 142.898,38.055 C143.999339,41.0050147 144.55,44.2303158 144.55,47.731 L144.55,85.963 L136.172,85.963 C134.441325,85.963 133.133504,85.7270024 132.2485,85.255 C131.363496,84.7829976 130.626003,83.7996741 130.036,82.305 L128.738,78.942 C127.203992,80.2400065 125.729007,81.3806617 124.313,82.364 C122.896993,83.3473382 121.431841,84.1831632 119.9175,84.8715 C118.403159,85.5598368 116.790509,86.071165 115.0795,86.4055 C113.368491,86.739835 111.470677,86.907 109.386,86.907 C106.593319,86.907 104.056345,86.5431703 101.775,85.8155 C99.4936553,85.0878297 97.556508,84.0160071 95.9635,82.6 C94.370492,81.1839929 93.1413377,79.4238439 92.276,77.3195 C91.4106623,75.2151561 90.978,72.7863471 90.978,70.033 C90.978,67.8696558 91.5286612,65.6473447 92.63,63.366 C93.7313388,61.0846553 95.6389864,59.0098427 98.353,57.1415 C101.067014,55.2731573 104.724977,53.709673 109.327,52.451 C113.929023,51.192327 119.730632,50.4843341 126.732,50.327 L126.732,47.731 C126.732,44.1516488 125.994507,41.565508 124.5195,39.9725 C123.044493,38.379492 120.950014,37.583 118.236,37.583 C116.072656,37.583 114.302674,37.8189976 112.926,38.291 C111.549326,38.7630024 110.320172,39.293997 109.2385,39.884 C108.156828,40.4740029 107.104672,41.0049976 106.082,41.477 C105.059328,41.9490024 103.840007,42.185 102.424,42.185 C101.165327,42.185 100.093504,41.8801697 99.2085,41.2705 C98.3234956,40.6608303 97.6253359,39.9036712 97.114,38.999 L93.81,33.276 C97.5073518,30.011317 101.607811,27.582508 106.1115,25.9895 C110.615189,24.396492 115.443308,23.6 120.596,23.6 Z M126.732,61.065 C123.073982,61.2223341 120.065012,61.5369976 117.705,62.009 C115.344988,62.4810024 113.476674,63.0709965 112.1,63.779 C110.723326,64.4870035 109.769503,65.2933288 109.2385,66.198 C108.707497,67.1026712 108.442,68.0859947 108.442,69.148 C108.442,71.2326771 109.012328,72.6978291 110.153,73.5435 C111.293672,74.3891709 112.965322,74.812 115.168,74.812 C117.528012,74.812 119.592991,74.3990041 121.363,73.573 C123.133009,72.7469959 124.922658,71.4096759 126.732,69.561 L126.732,69.561 Z" id="Aa" fill="#00418E"></path>
                    <path d="M193.006,85.3105 L198.0385,85.3105 L198.0385,85.963 L192.241,85.963 L192.241,75.3505 L193.006,75.3505 L193.006,85.3105 Z M200.476,78.5005 L200.476,85.963 L199.7635,85.963 L199.7635,78.5005 L200.476,78.5005 Z M200.791,75.928 C200.791,76.0180004 200.77225,76.1017496 200.73475,76.17925 C200.69725,76.2567504 200.6485,76.3254997 200.5885,76.3855 C200.5285,76.4455003 200.4585,76.4929998 200.3785,76.528 C200.2985,76.5630002 200.2135,76.5805 200.1235,76.5805 C200.0335,76.5805 199.9485,76.5630002 199.8685,76.528 C199.7885,76.4929998 199.7185,76.4455003 199.6585,76.3855 C199.5985,76.3254997 199.551,76.2567504 199.516,76.17925 C199.481,76.1017496 199.4635,76.0180004 199.4635,75.928 C199.4635,75.8379995 199.481,75.7517504 199.516,75.66925 C199.551,75.5867496 199.5985,75.5155003 199.6585,75.4555 C199.7185,75.3954997 199.7885,75.3480002 199.8685,75.313 C199.9485,75.2779998 200.0335,75.2605 200.1235,75.2605 C200.2135,75.2605 200.2985,75.2779998 200.3785,75.313 C200.4585,75.3480002 200.5285,75.3954997 200.5885,75.4555 C200.6485,75.5155003 200.69725,75.5867496 200.73475,75.66925 C200.77225,75.7517504 200.791,75.8379995 200.791,75.928 Z M205.576,78.373 C205.901002,78.373 206.202249,78.4129996 206.47975,78.493 C206.757251,78.5730004 207.005999,78.6854993 207.226,78.8305 L209.1385,78.8305 L209.1385,79.078 C209.1385,79.2030006 209.068501,79.2704999 208.9285,79.2805 L207.796,79.363 C207.936001,79.5530009 208.0435,79.7667488 208.1185,80.00425 C208.1935,80.2417512 208.231,80.4954986 208.231,80.7655 C208.231,81.1255018 208.166001,81.4517485 208.036,81.74425 C207.905999,82.0367515 207.724751,82.286749 207.49225,82.49425 C207.259749,82.701751 206.981002,82.8629994 206.656,82.978 C206.330998,83.0930006 205.971002,83.1505 205.576,83.1505 C205.145998,83.1505 204.756002,83.0855006 204.406,82.9555 C204.195999,83.0755006 204.031001,83.2179992 203.911,83.383 C203.790999,83.5480008 203.731,83.7079992 203.731,83.863 C203.731,84.0780011 203.805999,84.2429994 203.956,84.358 C204.106001,84.4730006 204.304749,84.5567497 204.55225,84.60925 C204.799751,84.6617503 205.082248,84.6954999 205.39975,84.7105 L206.36725,84.75925 L206.36725,84.75925 C206.694752,84.7767501 207.017248,84.8079998 207.33475,84.853 C207.652252,84.8980002 207.934749,84.9767494 208.18225,85.08925 C208.429751,85.2017506 208.628499,85.359249 208.7785,85.56175 C208.928501,85.764251 209.0035,86.0329983 209.0035,86.368 C209.0035,86.6780015 208.926001,86.9754986 208.771,87.2605 C208.615999,87.5455014 208.392251,87.7979989 208.09975,88.018 C207.807249,88.2380011 207.453502,88.4142493 207.0385,88.54675 C206.623498,88.6792507 206.158503,88.7455 205.6435,88.7455 C205.118497,88.7455 204.658502,88.6917505 204.2635,88.58425 C203.868498,88.4767495 203.537251,88.3317509 203.26975,88.14925 C203.002249,87.9667491 202.801001,87.7555012 202.666,87.5155 C202.530999,87.2754988 202.4635,87.0205013 202.4635,86.7505 C202.4635,86.355498 202.593499,86.0155014 202.8535,85.7305 C203.113501,85.4454986 203.470998,85.2255008 203.926,85.0705 C203.675999,84.9854996 203.477251,84.8630008 203.32975,84.703 C203.182249,84.5429992 203.1085,84.3205014 203.1085,84.0355 C203.1085,83.9304995 203.1285,83.8205006 203.1685,83.7055 C203.2085,83.5904994 203.2685,83.4767506 203.3485,83.36425 C203.4285,83.2517494 203.524749,83.1455005 203.63725,83.0455 C203.749751,82.9454995 203.880999,82.8555004 204.031,82.7755 C203.675998,82.570499 203.399751,82.2980017 203.20225,81.958 C203.004749,81.6179983 202.906,81.2205023 202.906,80.7655 C202.906,80.4054982 202.969749,80.0792515 203.09725,79.78675 C203.224751,79.4942485 203.404749,79.243001 203.63725,79.033 C203.869751,78.8229989 204.150998,78.6605006 204.481,78.5455 C204.811002,78.4304994 205.175998,78.373 205.576,78.373 Z M208.3435,86.4655 C208.3435,86.2304988 208.282251,86.0417507 208.15975,85.89925 C208.037249,85.7567493 207.873501,85.6455004 207.6685,85.5655 C207.463499,85.4854996 207.227251,85.4292502 206.95975,85.39675 C206.692249,85.3642498 206.412251,85.3405001 206.11975,85.3255 L205.2385,85.2805 L205.2385,85.2805 C204.943499,85.2654999 204.668501,85.2355002 204.4135,85.1905 C204.223499,85.2655004 204.047251,85.3517495 203.88475,85.44925 C203.722249,85.5467505 203.583501,85.6567494 203.4685,85.77925 C203.353499,85.9017506 203.2635,86.0367493 203.1985,86.18425 C203.1335,86.3317507 203.101,86.4929991 203.101,86.668 C203.101,86.8880011 203.157249,87.0917491 203.26975,87.27925 C203.382251,87.4667509 203.547249,87.6292493 203.76475,87.76675 C203.982251,87.9042507 204.248498,88.0129996 204.5635,88.093 C204.878502,88.1730004 205.240998,88.213 205.651,88.213 C206.031002,88.213 206.384748,88.1705004 206.71225,88.0855 C207.039752,88.0004996 207.324749,87.8805008 207.56725,87.7255 C207.809751,87.5704992 207.999749,87.3855011 208.13725,87.1705 C208.274751,86.9554989 208.3435,86.7205013 208.3435,86.4655 Z M205.576,82.663 C205.896002,82.663 206.180999,82.6167505 206.431,82.52425 C206.681001,82.4317495 206.890999,82.3030008 207.061,82.138 C207.231001,81.9729992 207.35975,81.7755011 207.44725,81.5455 C207.53475,81.3154988 207.5785,81.0605014 207.5785,80.7805 C207.5785,80.5004986 207.5335,80.2442512 207.4435,80.01175 C207.3535,79.7792488 207.222251,79.5805008 207.04975,79.4155 C206.877249,79.2504992 206.667251,79.1230004 206.41975,79.033 C206.172249,78.9429995 205.891002,78.898 205.576,78.898 C205.260998,78.898 204.978501,78.9429995 204.7285,79.033 C204.478499,79.1230004 204.267251,79.2504992 204.09475,79.4155 C203.922249,79.5805008 203.791,79.7792488 203.701,80.01175 C203.611,80.2442512 203.566,80.5004986 203.566,80.7805 C203.566,81.0605014 203.611,81.3154988 203.701,81.5455 C203.791,81.7755011 203.922249,81.9729992 204.09475,82.138 C204.267251,82.3030008 204.478499,82.4317495 204.7285,82.52425 C204.978501,82.6167505 205.260998,82.663 205.576,82.663 Z M210.6835,85.963 L210.6835,75.0505 L211.396,75.0505 L211.396,79.7755 C211.741002,79.3504979 212.134748,79.0117513 212.57725,78.75925 C213.019752,78.5067487 213.515997,78.3805 214.066,78.3805 C214.476002,78.3805 214.837248,78.4454993 215.14975,78.5755 C215.462252,78.7055006 215.720999,78.8929988 215.926,79.138 C216.131001,79.3830012 216.285999,79.6779983 216.391,80.023 C216.496001,80.3680017 216.5485,80.7579978 216.5485,81.193 L216.5485,85.963 L215.836,85.963 L215.836,81.193 C215.836,80.4929965 215.676002,79.944252 215.356,79.54675 C215.035998,79.149248 214.546003,78.9505 213.886,78.9505 C213.395998,78.9505 212.941002,79.0767487 212.521,79.32925 C212.100998,79.5817513 211.726002,79.9279978 211.396,80.368 L211.396,85.963 L210.6835,85.963 Z M220.8385,86.083 C220.333497,86.083 219.939751,85.9430014 219.65725,85.663 C219.374749,85.383 219.2335,84.9505029 219.2335,84.3655 L219.2335,79.2655 L218.161,79.2655 C218.106,79.2655 218.061,79.2505001 218.026,79.2205 C217.991,79.1904998 217.9735,79.1480003 217.9735,79.093 L217.9735,78.8155 L219.2485,78.7255 L219.4285,76.0555 C219.4335,76.0104998 219.45225,75.9705002 219.48475,75.9355 C219.51725,75.9004998 219.561,75.883 219.616,75.883 L219.9535,75.883 L219.9535,78.733 L222.301,78.733 L222.301,79.2655 L219.9535,79.2655 L219.9535,84.328 C219.9535,84.533001 219.97975,84.7092493 220.03225,84.85675 C220.08475,85.0042507 220.15725,85.1254995 220.24975,85.2205 C220.34225,85.3155005 220.450999,85.3854998 220.576,85.4305 C220.701001,85.4755002 220.835999,85.498 220.981,85.498 C221.161001,85.498 221.315999,85.4717503 221.446,85.41925 C221.576001,85.3667497 221.6885,85.3092503 221.7835,85.24675 C221.846834,85.2050831 221.902389,85.1656389 221.950167,85.1284167 L222.016,85.07425 C222.076,85.0217497 222.1235,84.9955 222.1585,84.9955 C222.1985,84.9955 222.2385,85.0204997 222.2785,85.0705 L222.4735,85.3855 C222.283499,85.595501 222.042251,85.7642494 221.74975,85.89175 C221.457249,86.0192506 221.153502,86.083 220.8385,86.083 Z" id="Light" fill="#0C0F35"></path>
                    <path d="M246.5685,81.478 L246.5685,85.963 L245.121,85.963 L245.121,75.2155 L248.1585,75.2155 C248.838503,75.2155 249.425998,75.2842493 249.921,75.42175 C250.416002,75.5592507 250.824748,75.7579987 251.14725,76.018 C251.469752,76.2780013 251.708499,76.5917482 251.8635,76.95925 C252.018501,77.3267518 252.096,77.7379977 252.096,78.193 C252.096,78.5730019 252.036001,78.9279983 251.916,79.258 C251.795999,79.5880016 251.622251,79.8842487 251.39475,80.14675 C251.167249,80.4092513 250.889752,80.6329991 250.56225,80.818 C250.234748,81.0030009 249.863502,81.1429995 249.4485,81.238 C249.628501,81.3430005 249.788499,81.495499 249.9285,81.6955 L253.0635,85.963 L251.7735,85.963 C251.546356,85.963 251.370643,85.8876946 251.246357,85.737082 L248.3985,81.8155 C248.3135,81.6954994 248.221,81.6092503 248.121,81.55675 C248.020999,81.5042497 247.871001,81.478 247.671,81.478 L246.5685,81.478 Z M246.5685,80.4205 L248.091,80.4205 C248.516002,80.4205 248.889748,80.3692505 249.21225,80.26675 C249.534752,80.1642495 249.804749,80.0192509 250.02225,79.83175 C250.239751,79.6442491 250.403499,79.4205013 250.5135,79.1605 C250.623501,78.9004987 250.6785,78.6130016 250.6785,78.298 C250.6785,77.6579968 250.467252,77.1755016 250.04475,76.8505 C249.622248,76.5254984 248.993504,76.363 248.1585,76.363 L246.5685,76.363 L246.5685,80.4205 Z M257.4285,78.2455 C257.883502,78.2455 258.303498,78.3217492 258.6885,78.47425 C259.073502,78.6267508 259.405999,78.8467486 259.686,79.13425 C259.966001,79.4217514 260.184749,79.7767479 260.34225,80.19925 C260.499751,80.6217521 260.5785,81.1029973 260.5785,81.643 C260.5785,81.853001 260.556,81.9929996 260.511,82.063 C260.466,82.1330003 260.381,82.168 260.256,82.168 L255.201,82.168 C255.211,82.6480024 255.275999,83.0654982 255.396,83.4205 C255.516001,83.7755018 255.680999,84.0717488 255.891,84.30925 C256.101001,84.5467512 256.350999,84.7242494 256.641,84.84175 C256.931001,84.9592506 257.255998,85.018 257.616,85.018 C257.951002,85.018 258.239749,84.9792504 258.48225,84.90175 C258.724751,84.8242496 258.933499,84.7405004 259.1085,84.6505 C259.225167,84.5904997 259.329056,84.5332777 259.420167,84.4788334 L259.54725,84.39925 C259.664751,84.3217496 259.766,84.283 259.851,84.283 C259.961001,84.283 260.046,84.3254996 260.106,84.4105 L260.481,84.898 C260.315999,85.098001 260.118501,85.2717493 259.8885,85.41925 C259.658499,85.5667507 259.412251,85.6879995 259.14975,85.783 C258.887249,85.8780005 258.616001,85.9492498 258.336,85.99675 C258.055999,86.0442502 257.778501,86.068 257.5035,86.068 C256.978497,86.068 256.494752,85.9792509 256.05225,85.80175 C255.609748,85.6242491 255.227252,85.3642517 254.90475,85.02175 C254.582248,84.6792483 254.331001,84.2555025 254.151,83.7505 C253.970999,83.2455 253.881,82.6655033 253.881,82.0105 C253.881,81.4804973 253.962249,80.9855023 254.12475,80.5255 C254.287251,80.0654977 254.520998,79.6667517 254.826,79.32925 C255.131002,78.9917483 255.503498,78.726751 255.9435,78.53425 C256.383502,78.341749 256.878497,78.2455 257.4285,78.2455 Z M257.4585,79.228 C256.813497,79.228 256.306002,79.4142481 255.936,79.78675 C255.565998,80.1592519 255.336,80.6754967 255.246,81.3355 L259.3785,81.3355 C259.3785,81.0254984 259.336,80.7417513 259.251,80.48425 C259.166,80.2267487 259.041001,80.0042509 258.876,79.81675 C258.710999,79.6292491 258.509751,79.4842505 258.27225,79.38175 C258.034749,79.2792495 257.763502,79.228 257.4585,79.228 Z M264.8385,78.238 C265.168502,78.238 265.477249,78.2742496 265.76475,78.34675 C266.052251,78.4192504 266.313499,78.5254993 266.5485,78.6655 L268.611,78.6655 L268.611,79.1605 C268.611,79.3255008 268.506001,79.4304998 268.296,79.4755 L267.4335,79.5955 C267.603501,79.9205016 267.6885,80.282998 267.6885,80.683 C267.6885,81.0530018 267.617251,81.3892485 267.47475,81.69175 C267.332249,81.9942515 267.134751,82.2529989 266.88225,82.468 C266.629749,82.6830011 266.329752,82.8479994 265.98225,82.963 C265.634748,83.0780006 265.253502,83.1355 264.8385,83.1355 C264.483498,83.1355 264.148502,83.0930004 263.8335,83.008 C263.673499,83.1080005 263.55225,83.2154994 263.46975,83.3305 C263.38725,83.4455006 263.346,83.5579994 263.346,83.668 C263.346,83.8480009 263.418499,83.9842495 263.5635,84.07675 C263.708501,84.1692505 263.900999,84.2354998 264.141,84.2755 C264.321001,84.3055001 264.519281,84.3270625 264.735843,84.3401875 L264.9585,84.3505 C265.263502,84.3605 265.574748,84.3767499 265.89225,84.39925 C266.209752,84.4217501 266.520998,84.4604997 266.826,84.5155 C267.131002,84.5705003 267.403499,84.6604994 267.6435,84.7855 C267.883501,84.9105006 268.075999,85.0829989 268.221,85.303 C268.366001,85.5230011 268.4385,85.8079982 268.4385,86.158 C268.4385,86.4830016 268.357251,86.7979985 268.19475,87.103 C268.032249,87.4080015 267.798502,87.6792488 267.4935,87.91675 C267.188498,88.1542512 266.816002,88.3442493 266.376,88.48675 C265.935998,88.6292507 265.438503,88.7005 264.8835,88.7005 C264.328497,88.7005 263.842252,88.6455005 263.42475,88.5355 C263.007248,88.4254994 262.661001,88.2780009 262.386,88.093 C262.110999,87.9079991 261.904751,87.6942512 261.76725,87.45175 C261.629749,87.2092488 261.561,86.9555013 261.561,86.6905 C261.561,86.3154981 261.679749,85.9967513 261.91725,85.73425 C262.154751,85.4717487 262.480998,85.2630008 262.896,85.108 C262.680999,85.0079995 262.509751,84.8742508 262.38225,84.70675 C262.254749,84.5392492 262.191,84.3155014 262.191,84.0355 C262.191,83.9254994 262.211,83.8117506 262.251,83.69425 C262.291,83.5767494 262.35225,83.4605006 262.43475,83.3455 C262.51725,83.2304994 262.618499,83.1205005 262.7385,83.0155 C262.858501,82.9104995 262.998499,82.8180004 263.1585,82.738 C262.783498,82.5279989 262.489751,82.2492517 262.27725,81.90175 C262.064749,81.5542483 261.9585,81.1480023 261.9585,80.683 C261.9585,80.3129981 262.029749,79.9767515 262.17225,79.67425 C262.314751,79.3717485 262.513499,79.1142511 262.7685,78.90175 C263.023501,78.6892489 263.327248,78.5255006 263.67975,78.4105 C264.032252,78.2954994 264.418498,78.238 264.8385,78.238 Z M267.2085,86.3755 C267.2085,86.185499 267.156001,86.0330006 267.051,85.918 C266.945999,85.8029994 266.803501,85.7142503 266.6235,85.65175 C266.443499,85.5892497 266.236001,85.5430001 266.001,85.513 C265.844333,85.4929999 265.682111,85.4768888 265.514334,85.4646667 L264.4635,85.408 L264.4635,85.408 C264.193499,85.3929999 263.936001,85.3655002 263.691,85.3255 C263.405999,85.4605007 263.174751,85.625499 262.99725,85.8205 C262.819749,86.015501 262.731,86.2479986 262.731,86.518 C262.731,86.6880008 262.77475,86.8467493 262.86225,86.99425 C262.94975,87.1417507 263.083499,87.2692495 263.2635,87.37675 C263.443501,87.4842505 263.669749,87.5692497 263.94225,87.63175 C264.214751,87.6942503 264.535998,87.7255 264.906,87.7255 C265.266002,87.7255 265.588499,87.6930003 265.8735,87.628 C266.158501,87.5629997 266.399749,87.4705006 266.59725,87.3505 C266.794751,87.2304994 266.945999,87.0880008 267.051,86.923 C267.156001,86.7579992 267.2085,86.575501 267.2085,86.3755 Z M264.8385,82.2505 C265.108501,82.2505 265.347249,82.2130004 265.55475,82.138 C265.762251,82.0629996 265.935999,81.9580007 266.076,81.823 C266.216001,81.6879993 266.321,81.5267509 266.391,81.33925 C266.461,81.1517491 266.496,80.9455011 266.496,80.7205 C266.496,80.2554977 266.354751,79.8855014 266.07225,79.6105 C265.789749,79.3354986 265.378503,79.198 264.8385,79.198 C264.303497,79.198 263.894751,79.3354986 263.61225,79.6105 C263.329749,79.8855014 263.1885,80.2554977 263.1885,80.7205 C263.1885,80.9455011 263.22475,81.1517491 263.29725,81.33925 C263.36975,81.5267509 263.475999,81.6879993 263.616,81.823 C263.756001,81.9580007 263.928499,82.0629996 264.1335,82.138 C264.338501,82.2130004 264.573499,82.2505 264.8385,82.2505 Z M271.101,78.3655 L271.101,83.2105 C271.101,83.7855029 271.233499,84.2304984 271.4985,84.5455 C271.763501,84.8605016 272.163497,85.018 272.6985,85.018 C273.088502,85.018 273.455998,84.9255009 273.801,84.7405 C274.146002,84.5554991 274.463499,84.2980016 274.7535,83.968 L274.7535,78.3655 L276.0885,78.3655 L276.0885,85.963 L275.2935,85.963 C275.103499,85.963 274.9835,85.8705009 274.9335,85.6855 L274.8285,84.868 C274.498498,85.2330018 274.128502,85.5267489 273.7185,85.74925 C273.308498,85.9717511 272.838503,86.083 272.3085,86.083 C271.893498,86.083 271.527252,86.0142507 271.20975,85.87675 C270.892248,85.7392493 270.626001,85.5455012 270.411,85.2955 C270.195999,85.0454987 270.034751,84.7430018 269.92725,84.388 C269.819749,84.0329982 269.766,83.6405021 269.766,83.2105 L269.766,78.3655 L271.101,78.3655 Z M279.771,74.9155 L279.771,85.963 L278.436,85.963 L278.436,74.9155 L279.771,74.9155 Z M287.706,85.963 L287.1135,85.963 C286.983499,85.963 286.8785,85.9430002 286.7985,85.903 C286.7185,85.8629998 286.666,85.7780006 286.641,85.648 L286.491,84.943 C286.290999,85.1230009 286.096001,85.2842493 285.906,85.42675 C285.715999,85.5692507 285.516001,85.6892495 285.306,85.78675 C285.095999,85.8842505 284.872251,85.9579997 284.63475,86.008 C284.397249,86.0580002 284.133501,86.083 283.8435,86.083 C283.548499,86.083 283.272251,86.0417504 283.01475,85.95925 C282.757249,85.8767496 282.533501,85.7530008 282.3435,85.588 C282.153499,85.4229992 282.002251,85.2142513 281.88975,84.96175 C281.777249,84.7092487 281.721,84.4105017 281.721,84.0655 C281.721,83.7654985 281.803499,83.4767514 281.9685,83.19925 C282.133501,82.9217486 282.399748,82.6755011 282.76725,82.4605 C283.134752,82.2454989 283.615997,82.0692507 284.211,81.93175 C284.806003,81.7942493 285.533496,81.7155001 286.3935,81.6955 L286.3935,81.103 C286.3935,80.512997 286.267251,80.0667515 286.01475,79.76425 C285.762249,79.4617485 285.388502,79.3105 284.8935,79.3105 C284.568498,79.3105 284.294751,79.3517496 284.07225,79.43425 C283.849749,79.5167504 283.657251,79.6092495 283.49475,79.71175 C283.332249,79.8142505 283.192251,79.9067496 283.07475,79.98925 C282.957249,80.0717504 282.841001,80.113 282.726,80.113 C282.636,80.113 282.55725,80.0892502 282.48975,80.04175 C282.42225,79.9942498 282.3685,79.9355003 282.3285,79.8655 L282.0885,79.438 C282.508502,79.032998 282.960998,78.7305 283.446,78.5305 C283.931002,78.330499 284.468497,78.2305 285.0585,78.2305 C285.483502,78.2305 285.860998,78.3004993 286.191,78.4405 C286.521002,78.5805007 286.798499,78.7754987 287.0235,79.0255 C287.248501,79.2755012 287.418499,79.5779982 287.5335,79.933 C287.648501,80.2880018 287.706,80.6779979 287.706,81.103 L287.706,85.963 Z M284.241,85.1455 C284.476001,85.1455 284.690999,85.1217502 284.886,85.07425 C285.081001,85.0267498 285.264749,84.9592504 285.43725,84.87175 C285.609751,84.7842496 285.774749,84.6780006 285.93225,84.553 C286.089751,84.4279994 286.243499,84.2855008 286.3935,84.1255 L286.3935,82.543 C285.778497,82.5630001 285.256002,82.6117496 284.826,82.68925 C284.395998,82.7667504 284.046001,82.8679994 283.776,82.993 C283.505999,83.1180006 283.309751,83.2654991 283.18725,83.4355 C283.064749,83.6055008 283.0035,83.7954989 283.0035,84.0055 C283.0035,84.205501 283.036,84.3779993 283.101,84.523 C283.166,84.6680007 283.253499,84.7867495 283.3635,84.87925 C283.473501,84.9717505 283.603499,85.0392498 283.7535,85.08175 C283.903501,85.1242502 284.065999,85.1455 284.241,85.1455 Z M289.731,85.963 L289.731,78.3655 L290.496,78.3655 C290.641001,78.3655 290.741,78.3929997 290.796,78.448 C290.851,78.5030003 290.8885,78.5979993 290.9085,78.733 L290.9985,79.918 C291.258501,79.3879973 291.579748,78.9742515 291.96225,78.67675 C292.344752,78.3792485 292.793497,78.2305 293.3085,78.2305 C293.518501,78.2305 293.708499,78.2542498 293.8785,78.30175 C294.048501,78.3492502 294.205999,78.4154996 294.351,78.5005 L294.1785,79.498 C294.1435,79.6230006 294.066001,79.6855 293.946,79.6855 C293.8935,79.6855 293.819907,79.6721408 293.725219,79.645422 L293.6235,79.61425 C293.478499,79.5667498 293.276001,79.543 293.016,79.543 C292.550998,79.543 292.162252,79.6779986 291.84975,79.948 C291.537248,80.2180013 291.276001,80.6104974 291.066,81.1255 L291.066,85.963 L289.731,85.963 Z" id="Regular" fill="#0C0F35"></path>
                    <path d="M316.761,85.963 L316.761,75.118 L320.5035,75.118 C321.213504,75.118 321.819747,75.1854993 322.32225,75.3205 C322.824753,75.4555007 323.237248,75.6479987 323.55975,75.898 C323.882252,76.1480012 324.118499,76.4504982 324.2685,76.8055 C324.418501,77.1605018 324.4935,77.5604978 324.4935,78.0055 C324.4935,78.2605013 324.456,78.5042488 324.381,78.73675 C324.306,78.9692512 324.189751,79.186749 324.03225,79.38925 C323.874749,79.591751 323.674751,79.7754992 323.43225,79.9405 C323.189749,80.1055008 322.901002,80.2454994 322.566,80.3605 C324.056007,80.6955017 324.801,81.5004936 324.801,82.7755 C324.801,83.2355023 324.713501,83.660498 324.5385,84.0505 C324.363499,84.4405019 324.108502,84.7767486 323.7735,85.05925 C323.438498,85.3417514 323.026002,85.5629992 322.536,85.723 C322.045998,85.8830008 321.486003,85.963 320.856,85.963 L316.761,85.963 Z M318.7785,81.208 L318.7785,84.388 L320.826,84.388 C321.201002,84.388 321.514749,84.3430004 321.76725,84.253 C322.019751,84.1629995 322.222249,84.0430007 322.37475,83.893 C322.527251,83.7429992 322.63725,83.568001 322.70475,83.368 C322.77225,83.167999 322.806,82.9555011 322.806,82.7305 C322.806,82.4954988 322.7685,82.2842509 322.6935,82.09675 C322.6185,81.9092491 322.501001,81.7492507 322.341,81.61675 C322.180999,81.4842493 321.976001,81.3830003 321.726,81.313 C321.475999,81.2429996 321.173502,81.208 320.8185,81.208 L318.7785,81.208 Z M318.7785,79.813 L320.391,79.813 C321.076003,79.813 321.595998,79.6880012 321.951,79.438 C322.306002,79.1879987 322.4835,78.7905027 322.4835,78.2455 C322.4835,77.6804972 322.323502,77.2780012 322.0035,77.038 C321.683498,76.7979988 321.183503,76.678 320.5035,76.678 L318.7785,76.678 L318.7785,79.813 Z M329.7135,78.148 C330.288503,78.148 330.809748,78.2404991 331.27725,78.4255 C331.744752,78.6105009 332.143498,78.8729983 332.4735,79.213 C332.803502,79.5530017 333.058499,79.9679975 333.2385,80.458 C333.418501,80.9480024 333.5085,81.495497 333.5085,82.1005 C333.5085,82.710503 333.418501,83.2604975 333.2385,83.7505 C333.058499,84.2405024 332.803502,84.6579983 332.4735,85.003 C332.143498,85.3480017 331.744752,85.6129991 331.27725,85.798 C330.809748,85.9830009 330.288503,86.0755 329.7135,86.0755 C329.138497,86.0755 328.616002,85.9830009 328.146,85.798 C327.675998,85.6129991 327.274752,85.3480017 326.94225,85.003 C326.609748,84.6579983 326.352251,84.2405024 326.16975,83.7505 C325.987249,83.2604975 325.896,82.710503 325.896,82.1005 C325.896,81.495497 325.987249,80.9480024 326.16975,80.458 C326.352251,79.9679975 326.609748,79.5530017 326.94225,79.213 C327.274752,78.8729983 327.675998,78.6105009 328.146,78.4255 C328.616002,78.2404991 329.138497,78.148 329.7135,78.148 Z M329.7135,84.6505 C330.353503,84.6505 330.827248,84.4355021 331.13475,84.0055 C331.442252,83.5754978 331.596,82.9455041 331.596,82.1155 C331.596,81.2854958 331.442252,80.6530022 331.13475,80.218 C330.827248,79.7829978 330.353503,79.5655 329.7135,79.5655 C329.063497,79.5655 328.583502,79.7842478 328.2735,80.22175 C327.963498,80.6592522 327.8085,81.2904959 327.8085,82.1155 C327.8085,82.9405041 327.963498,83.5692478 328.2735,84.00175 C328.583502,84.4342522 329.063497,84.6505 329.7135,84.6505 Z M336.9285,74.818 L336.9285,85.963 L335.076,85.963 L335.076,74.818 L336.9285,74.818 Z M345.5685,74.818 L345.5685,85.963 L344.436,85.963 C344.195999,85.963 344.0385,85.8505011 343.9635,85.6255 L343.8135,84.883 C343.653499,85.0630009 343.486001,85.2254993 343.311,85.3705 C343.135999,85.5155007 342.947251,85.6404995 342.74475,85.7455 C342.542249,85.8505005 342.324751,85.9317497 342.09225,85.98925 C341.859749,86.0467503 341.608501,86.0755 341.3385,86.0755 C340.918498,86.0755 340.533502,85.9880009 340.1835,85.813 C339.833498,85.6379991 339.532251,85.3842517 339.27975,85.05175 C339.027249,84.7192483 338.832251,84.3080024 338.69475,83.818 C338.557249,83.3279975 338.4885,82.7680031 338.4885,82.138 C338.4885,81.5679971 338.565999,81.0380024 338.721,80.548 C338.876001,80.0579975 339.098499,79.6330018 339.3885,79.273 C339.678501,78.9129982 340.025998,78.631751 340.431,78.42925 C340.836002,78.226749 341.290997,78.1255 341.796,78.1255 C342.226002,78.1255 342.593498,78.1942493 342.8985,78.33175 C343.203502,78.4692507 343.475999,78.6529988 343.716,78.883 L343.716,74.818 L345.5685,74.818 Z M342.231,79.5355 C341.950999,79.5355 341.697251,79.5879995 341.46975,79.693 C341.242249,79.7980005 341.049751,79.9567489 340.89225,80.16925 C340.734749,80.3817511 340.6135,80.6517484 340.5285,80.97925 C340.4435,81.3067516 340.401,81.6929978 340.401,82.138 C340.401,82.5880022 340.43725,82.9692484 340.50975,83.28175 C340.58225,83.5942516 340.685999,83.849249 340.821,84.04675 C340.956001,84.244251 341.120999,84.3867496 341.316,84.47425 C341.511001,84.5617504 341.728499,84.6055 341.9685,84.6055 C342.353502,84.6055 342.680999,84.5255008 342.951,84.3655 C343.221001,84.2054992 343.475999,83.9780015 343.716,83.683 L343.716,83.683 L343.716,80.233 C343.505999,79.9779987 343.277251,79.7980005 343.02975,79.693 C342.782249,79.5879995 342.516001,79.5355 342.231,79.5355 Z" id="Bold" fill="#0C0F35"></path>
                    <path d="M367.566,85.963 L367.566,75.0355 L371.586,75.0355 C372.341004,75.0355 372.983497,75.1054993 373.5135,75.2455 C374.043503,75.3855007 374.475998,75.5829987 374.811,75.838 C375.146002,76.0930013 375.389749,76.4029982 375.54225,76.768 C375.694751,77.1330018 375.771,77.5404977 375.771,77.9905 C375.771,78.2355012 375.736,78.4717489 375.666,78.69925 C375.596,78.9267511 375.486001,79.140499 375.336,79.3405 C375.185999,79.540501 374.993501,79.7217492 374.7585,79.88425 C374.523499,80.0467508 374.241002,80.1879994 373.911,80.308 C374.631004,80.4830009 375.163498,80.766748 375.5085,81.15925 C375.853502,81.551752 376.026,82.0554969 376.026,82.6705 C376.026,83.1355023 375.936001,83.567998 375.756,83.968 C375.575999,84.368002 375.312252,84.7167485 374.96475,85.01425 C374.617248,85.3117515 374.188503,85.5442492 373.6785,85.71175 C373.168497,85.8792508 372.586003,85.963 371.931,85.963 L367.566,85.963 Z M370.101,81.328 L370.101,84.0505 L371.886,84.0505 C372.221002,84.0505 372.494749,84.0080004 372.70725,83.923 C372.919751,83.8379996 373.085999,83.7280007 373.206,83.593 C373.326001,83.4579993 373.4085,83.3055008 373.4535,83.1355 C373.4985,82.9654991 373.521,82.7930009 373.521,82.618 C373.521,82.417999 373.49475,82.2380008 373.44225,82.078 C373.38975,81.9179992 373.299751,81.7830005 373.17225,81.673 C373.044749,81.5629994 372.876001,81.4780003 372.666,81.418 C372.455999,81.3579997 372.191002,81.328 371.871,81.328 L370.101,81.328 Z M370.101,79.633 L371.421,79.633 C371.701001,79.633 371.953499,79.6130002 372.1785,79.573 C372.403501,79.5329998 372.594749,79.4630005 372.75225,79.363 C372.909751,79.2629995 373.02975,79.1255009 373.11225,78.9505 C373.19475,78.7754991 373.236,78.5555013 373.236,78.2905 C373.236,78.0304987 373.2035,77.8142509 373.1385,77.64175 C373.0735,77.4692491 372.973501,77.3305005 372.8385,77.2255 C372.703499,77.1204995 372.532251,77.0455002 372.32475,77.0005 C372.117249,76.9554998 371.871001,76.933 371.586,76.933 L370.101,76.933 L370.101,79.633 Z M379.806,74.7355 L379.806,85.963 L377.481,85.963 L377.481,74.7355 L379.806,74.7355 Z M387.051,85.963 C386.830999,85.963 386.664751,85.9330003 386.55225,85.873 C386.439749,85.8129997 386.346,85.6880009 386.271,85.498 L386.106,85.0705 C385.910999,85.2355008 385.723501,85.3804994 385.5435,85.5055 C385.363499,85.6305006 385.177251,85.7367496 384.98475,85.82425 C384.792249,85.9117504 384.587251,85.9767498 384.36975,86.01925 C384.152249,86.0617502 383.911001,86.083 383.646,86.083 C383.290998,86.083 382.968501,86.0367505 382.6785,85.94425 C382.388499,85.8517495 382.142251,85.7155009 381.93975,85.5355 C381.737249,85.3554991 381.581001,85.1317513 381.471,84.86425 C381.360999,84.5967487 381.306,84.2880017 381.306,83.938 C381.306,83.6629986 381.375999,83.3805014 381.516,83.0905 C381.656001,82.8004985 381.898498,82.5367512 382.2435,82.29925 C382.588502,82.0617488 383.053497,81.8630008 383.6385,81.703 C384.223503,81.5429992 384.960996,81.4530001 385.851,81.433 L385.851,81.103 C385.851,80.6479977 385.757251,80.319251 385.56975,80.11675 C385.382249,79.914249 385.116002,79.813 384.771,79.813 C384.495999,79.813 384.271001,79.8429997 384.096,79.903 C383.979333,79.9430002 383.871,79.9863333 383.771,80.0329999 L383.62725,80.1055 C383.489749,80.1805004 383.356001,80.2479997 383.226,80.308 C383.095999,80.3680003 382.941001,80.398 382.761,80.398 C382.600999,80.398 382.464751,80.3592504 382.35225,80.28175 C382.239749,80.2042496 382.151,80.1080006 382.086,79.993 L381.666,79.2655 C382.136002,78.8504979 382.657247,78.541751 383.22975,78.33925 C383.802253,78.136749 384.415997,78.0355 385.071,78.0355 C385.541002,78.0355 385.964748,78.1117492 386.34225,78.26425 C386.719752,78.4167508 387.039749,78.6292486 387.30225,78.90175 C387.564751,79.1742514 387.765999,79.4979981 387.906,79.873 C388.046001,80.2480019 388.116,80.6579978 388.116,81.103 L388.116,85.963 L387.051,85.963 Z M384.381,84.5455 C384.681002,84.5455 384.943499,84.4930005 385.1685,84.388 C385.393501,84.2829995 385.620999,84.1130012 385.851,83.878 L385.851,82.798 C385.385998,82.8180001 385.003502,82.8579997 384.7035,82.918 C384.403499,82.9780003 384.166001,83.0529995 383.991,83.143 C383.815999,83.2330004 383.69475,83.3354994 383.62725,83.4505 C383.55975,83.5655006 383.526,83.6904993 383.526,83.8255 C383.526,84.0905013 383.598499,84.2767495 383.7435,84.38425 C383.888501,84.4917505 384.100999,84.5455 384.381,84.5455 Z M395.376,80.0305 C395.306,80.1155004 395.2385,80.1829997 395.1735,80.233 C395.1085,80.2830002 395.016001,80.308 394.896,80.308 C394.780999,80.308 394.67725,80.2805003 394.58475,80.2255 L394.2735,80.04175 L394.2735,80.04175 C394.158499,79.9742497 394.023501,79.9130003 393.8685,79.858 C393.713499,79.8029997 393.521001,79.7755 393.291,79.7755 C393.005999,79.7755 392.759751,79.8279995 392.55225,79.933 C392.344749,80.0380005 392.173501,80.187999 392.0385,80.383 C391.903499,80.578001 391.8035,80.8167486 391.7385,81.09925 C391.6735,81.3817514 391.641,81.7004982 391.641,82.0555 C391.641,82.8005037 391.784749,83.372998 392.07225,83.773 C392.359751,84.173002 392.756,84.373 393.261,84.373 C393.531001,84.373 393.744749,84.3392503 393.90225,84.27175 C394.059751,84.2042497 394.193499,84.1292504 394.3035,84.04675 L394.60725,83.818 L394.60725,83.818 C394.69975,83.7479996 394.815999,83.713 394.956,83.713 C395.141001,83.713 395.281,83.7804993 395.376,83.9155 L396.051,84.748 C395.810999,85.0230014 395.558501,85.2467491 395.2935,85.41925 C395.028499,85.5917509 394.757251,85.7267495 394.47975,85.82425 C394.202249,85.9217505 393.923501,85.9892498 393.6435,86.02675 C393.363499,86.0642502 393.091001,86.083 392.826,86.083 C392.350998,86.083 391.897252,85.9930009 391.46475,85.813 C391.032248,85.6329991 390.652252,85.3717517 390.32475,85.02925 C389.997248,84.6867483 389.737251,84.2655025 389.54475,83.7655 C389.352249,83.2654975 389.256,82.6955032 389.256,82.0555 C389.256,81.4954972 389.339749,80.9717524 389.50725,80.48425 C389.674751,79.9967476 389.922248,79.5742518 390.24975,79.21675 C390.577252,78.8592482 390.982248,78.578001 391.46475,78.373 C391.947252,78.167999 392.505997,78.0655 393.141,78.0655 C393.751003,78.0655 394.285998,78.162999 394.746,78.358 C395.206002,78.553001 395.620998,78.8379981 395.991,79.213 L395.376,80.0305 Z M399.381,74.7355 L399.381,81.028 L399.726,81.028 C399.871001,81.028 399.98225,81.0080002 400.05975,80.968 C400.13725,80.9279998 400.211,80.8555005 400.281,80.7505 L401.751,78.5605 C401.836,78.4304993 401.937249,78.3355003 402.05475,78.2755 C402.172251,78.2154997 402.320999,78.1855 402.501,78.1855 L404.631,78.1855 L402.621,80.953 C402.526,81.0830006 402.422251,81.1979995 402.30975,81.298 C402.197249,81.3980005 402.076001,81.4879996 401.946,81.568 C402.171001,81.7380008 402.365999,81.9629986 402.531,82.243 L404.721,85.963 L402.621,85.963 C402.445999,85.963 402.294751,85.9342503 402.16725,85.87675 C402.039749,85.8192497 401.936,85.7180007 401.856,85.573 L400.386,82.8205 C400.316,82.6954994 400.2435,82.6142502 400.1685,82.57675 C400.0935,82.5392498 399.981001,82.5205 399.831,82.5205 L399.381,82.5205 L399.381,85.963 L397.056,85.963 L397.056,74.7355 L399.381,74.7355 Z" id="Black" fill="#0C0F35"></path>
                </g>
            </g>
        </g>
    </g>
</svg>