<svg width="230" height="160" viewBox="0 0 230 160" xmlns="http://www.w3.org/2000/svg"><g fill="none" fill-rule="evenodd"><path d="M49.86 101.92H46.9v8.489a.298.298 0 0 1-.299.296h-1.466a.298.298 0 0 1-.295-.296v-8.49h-2.964c-.162 0-.297-.102-.297-.263v-1.168c0-.165.135-.28.297-.28h7.983c.164 0 .297.115.297.28v1.168c0 .161-.133.264-.297.264zm10.703 8.785h-1.466a.298.298 0 0 1-.3-.296v-4.28h-4.7v4.28a.297.297 0 0 1-.293.296h-1.47a.298.298 0 0 1-.298-.296v-9.921c0-.165.134-.28.298-.28h1.47c.16 0 .294.115.294.28v3.837h4.699v-3.837c0-.165.133-.28.3-.28h1.466c.16 0 .296.115.296.28v9.921a.3.3 0 0 1-.296.296zm7.352.116c-2.447 0-4.713-1.359-4.713-4.61V104.7c0-3.25 2.266-4.61 4.713-4.61 2.449 0 4.715 1.36 4.715 4.61v1.511c0 3.251-2.266 4.61-4.715 4.61zm2.637-6.121c0-1.95-1.182-2.822-2.637-2.822-1.452 0-2.637.873-2.637 2.822v1.511c0 1.95 1.185 2.822 2.637 2.822 1.455 0 2.637-.873 2.637-2.822V104.7zm14.86 6.005h-1.498c-.133 0-.234-.15-.234-.296v-6.389c0-.104-.017-.148-.049-.148-.012 0-.042.044-.074.088l-2.394 5.284c-.088.16-.28.252-.471.252h-.772c-.193 0-.388-.091-.474-.252l-2.41-5.284c-.033-.044-.064-.088-.076-.088-.03 0-.046.044-.046.148v6.389c0 .146-.102.296-.236.296h-1.497c-.135 0-.255-.077-.255-.224v-9.682c0-.326.268-.591.595-.591h1.216c.235 0 .445.145.549.354l2.846 5.772c.074.134.105.207.167.207.058 0 .087-.073.163-.207l2.844-5.772a.622.622 0 0 1 .55-.354h1.216c.328 0 .594.265.594.59v9.683c0 .147-.119.224-.253.224zm32.587 0h-1.5c-.357 0-.669 0-.902-.532l-4.024-6.714c-.042-.088-.088-.12-.132-.12-.044 0-.076.032-.076.12v6.95c0 .161-.12.296-.283.296h-1.26a.296.296 0 0 1-.295-.296v-9.61c0-.326.265-.591.592-.591h1.6c.314 0 .476.088.656.473l4.184 7.113c.029.07.074.117.12.117.03 0 .07-.046.07-.134v-7.289a.27.27 0 0 1 .283-.28h1.277c.162 0 .283.115.283.28v9.625a.595.595 0 0 1-.593.592zm-25.97.125c-1.31 0-2.64-.226-3.353-.39-.148-.029-.282-.131-.282-.294v-1.064c0-.162.134-.283.282-.283h.03c.592.076 1.98.268 3.353.268 1.321 0 1.722-.47 1.722-1.328 0-1.108-2.652-1.72-3.948-2.253-1.293-.531-1.75-1.55-1.75-2.582 0-1.628 1.316-2.81 4.073-2.81 1.415 0 2.709.267 3.212.389.15.03.265.134.265.279v1.094c0 .147-.102.267-.25.267h-.03c-.979-.09-1.995-.269-3.287-.269-1.095 0-1.921.383-1.921 1.05 0 .486.558.934 1.216 1.192.657.26 1.524.595 2.51.989 1.252.504 2.062 1.237 2.062 2.654 0 1.492-.935 3.091-3.904 3.091zm10.486-.009c-2.447 0-4.713-1.359-4.713-4.61V104.7c0-3.25 2.266-4.61 4.713-4.61s4.714 1.36 4.714 4.61v1.511c0 3.251-2.267 4.61-4.714 4.61zm2.637-6.121c0-1.95-1.184-2.822-2.637-2.822s-2.637.873-2.637 2.822v1.511c0 1.95 1.184 2.822 2.637 2.822s2.637-.873 2.637-2.822V104.7zm28.825 6.005h-1.812c-.162 0-.222-.15-.295-.296l-2.137-3.584h-.329c-.388 0-1.585-.041-1.928-.059v3.643c0 .161-.12.296-.282.296h-1.484a.298.298 0 0 1-.296-.296v-9.685c0-.296.176-.4.476-.441.771-.12 2.43-.193 3.514-.193 2.284 0 4.394.813 4.394 3.34v.133c0 1.563-.785 2.422-2.003 2.892l2.328 3.954a.184.184 0 0 1 .032.119c0 .1-.06.177-.178.177zm-2.227-7.275c0-1.109-.862-1.582-2.346-1.582-.312 0-1.662.03-1.928.059v3.204a84.74 84.74 0 0 0 1.928.045c1.526 0 2.346-.293 2.346-1.593v-.133zm6.36 4.364c0 1.238.047 1.271 1.169 1.271h3.756c.163 0 .297.132.297.295v.943c0 .21-.076.283-.297.311-.475.075-1.44.207-3.207.207-2.462 0-3.766.017-3.766-3.027v-4.677c0-3.043 1.304-3.027 3.766-3.027 1.766 0 2.732.133 3.207.206.221.027.297.104.297.312v.943a.299.299 0 0 1-.297.297h-3.756c-1.122 0-1.169.034-1.169 1.27v1.354h4.748c.163 0 .295.135.295.294v1.068a.296.296 0 0 1-.295.294h-4.748v1.666zm11.882 3.027c-2.386 0-4.441-1.035-4.441-4.183v-6.15c0-.165.135-.28.297-.28h1.466c.165 0 .298.115.298.28v6.15c0 1.686.781 2.485 2.38 2.485 1.604 0 2.384-.8 2.384-2.485v-6.15c0-.165.134-.28.297-.28h1.468c.164 0 .3.115.3.28v6.15c0 3.148-2.058 4.183-4.45 4.183zm14.202-8.901h-2.96v8.489a.3.3 0 0 1-.3.296h-1.466a.299.299 0 0 1-.3-.296v-8.49h-2.96c-.16 0-.294-.102-.294-.263v-1.168c0-.165.133-.28.293-.28h7.987c.161 0 .294.115.294.28v1.168c0 .161-.133.264-.294.264zm20.146 8.785h-1.811c-.162 0-.221-.15-.295-.296l-2.138-3.584h-.33c-.384 0-1.585-.041-1.928-.059v3.643c0 .161-.117.296-.28.296h-1.481a.299.299 0 0 1-.298-.296v-9.685c0-.296.176-.4.474-.441.77-.12 2.432-.193 3.512-.193 2.286 0 4.394.813 4.394 3.34v.133c0 1.563-.786 2.422-2.003 2.892l2.332 3.954c.03.044.03.086.03.119 0 .1-.06.177-.178.177zm-2.225-7.275c0-1.109-.865-1.582-2.35-1.582-.31 0-1.66.03-1.927.059v3.204c.24.014 1.679.045 1.927.045 1.53 0 2.35-.293 2.35-1.593v-.133zm7.886 7.4c-1.312 0-2.64-.226-3.352-.39-.147-.029-.282-.131-.282-.294v-1.064c0-.162.135-.283.282-.283h.03c.593.076 1.982.268 3.354.268 1.32 0 1.722-.47 1.722-1.328 0-1.108-2.656-1.72-3.952-2.253-1.289-.531-1.748-1.55-1.748-2.582 0-1.628 1.314-2.81 4.073-2.81 1.415 0 2.708.267 3.212.389.15.03.266.134.266.279v1.094c0 .147-.1.267-.252.267h-.028c-.98-.09-1.996-.269-3.283-.269-1.1 0-1.924.383-1.924 1.05 0 .486.557.933 1.217 1.192.659.26 1.522.595 2.507.989 1.252.504 2.061 1.237 2.061 2.654 0 1.492-.935 3.091-3.903 3.091zm-21.938-3.036c0 1.238.045 1.271 1.17 1.271h3.757c.16 0 .296.132.296.295v.943c0 .21-.076.283-.296.311-.476.075-1.44.207-3.205.207-2.467 0-3.771.017-3.771-3.027v-4.677c0-3.043 1.304-3.027 3.77-3.027 1.765 0 2.73.133 3.206.206.22.027.296.104.296.312v.943a.3.3 0 0 1-.296.297h-3.756c-1.126 0-1.17.034-1.17 1.27v1.354h4.746c.166 0 .295.135.295.294v1.068c0 .161-.129.294-.295.294h-4.747v1.666zM128.15 54.68a1.64 1.64 0 0 1-2.312.062 1.617 1.617 0 0 1-.065-2.303 1.633 1.633 0 1 1 2.377 2.241zm-16.313-3.709a.817.817 0 0 0-1.143.035.804.804 0 0 0 .032 1.136.813.813 0 0 0 1.143-.035.804.804 0 0 0-.032-1.136zm4.09-1.548a1.004 1.004 0 0 0-1.409.043.99.99 0 0 0 .044 1.405c.396.373 1.03.353 1.408-.045a.993.993 0 0 0-.044-1.403zm4.386-.319a1.271 1.271 0 0 0-1.788.053 1.258 1.258 0 0 0 .057 1.783 1.267 1.267 0 0 0 1.787-.053 1.26 1.26 0 0 0-.056-1.783zm4.152 1.058a1.422 1.422 0 0 0-1.956 2.064c.571.537 1.479.509 2.014-.06.538-.569.514-1.47-.058-2.004zM108.37 53.69a.606.606 0 0 0-.852.025.6.6 0 1 0 .852-.025zm20.946 14.788a.804.804 0 0 0 .032 1.139c.33.304.84.289 1.145-.037a.805.805 0 0 0-.034-1.138.813.813 0 0 0-1.143.036zm1.035-4.152a.994.994 0 0 0 1.454 1.36.985.985 0 0 0-.045-1.403 1.002 1.002 0 0 0-1.409.043zm-.319-4.374a1.257 1.257 0 0 0 .055 1.783c.51.48 1.31.45 1.79-.055a1.253 1.253 0 0 0-.056-1.781 1.27 1.27 0 0 0-1.789.053zM128.5 55.9a1.415 1.415 0 0 0 .06 2.005 1.428 1.428 0 0 0 2.011-.06 1.41 1.41 0 0 0-.061-2.008 1.426 1.426 0 0 0-2.01.063zm-1.408 16.18a.598.598 0 1 0 .875.818.588.588 0 0 0-.025-.844.6.6 0 0 0-.85.026zm-17.376 2.096c.621-.66.59-1.686-.068-2.308a1.64 1.64 0 0 0-2.314.068 1.626 1.626 0 0 0 .071 2.306c.657.62 1.695.59 2.311-.066zm-3.544-16.04a.803.803 0 0 0-.036-1.133.81.81 0 0 0-1.14.03.795.795 0 0 0 .037 1.135.812.812 0 0 0 1.14-.032zm-1.039 4.156a.995.995 0 1 0-1.41.038 1.005 1.005 0 0 0 1.41-.038zm.32 4.37a1.261 1.261 0 0 0-.053-1.787c-.509-.48-1.309-.45-1.79.055a1.261 1.261 0 0 0 .054 1.784 1.268 1.268 0 0 0 1.789-.051zm1.53 4.054a1.417 1.417 0 0 0-.059-2.005 1.423 1.423 0 0 0-2.009.06c-.54.567-.52 1.464.054 2.006.577.535 1.48.504 2.015-.06zm16.668 4.925a.809.809 0 0 0 1.14-.036.797.797 0 0 0-.035-1.133.806.806 0 0 0-1.14.033.802.802 0 0 0 .035 1.136zm-4.092 1.547a1.001 1.001 0 0 0 1.408-.044.985.985 0 0 0-.04-1.4 1.004 1.004 0 0 0-1.412.042.992.992 0 0 0 .044 1.402zm-4.39.317c.515.481 1.31.457 1.789-.049.48-.507.46-1.306-.05-1.782a1.276 1.276 0 0 0-1.794.05 1.255 1.255 0 0 0 .056 1.781zm-4.142-1.053c.571.537 1.476.51 2.01-.06a1.413 1.413 0 0 0-.061-2.006 1.428 1.428 0 0 0-2.013.064 1.41 1.41 0 0 0 .064 2.002zm10.782-22.416a1.27 1.27 0 0 1-1.58.85 1.259 1.259 0 0 1-.864-1.574 1.275 1.275 0 1 1 2.444.724zm-12.217 2.995a.639.639 0 0 0-.782.428c-.099.33.094.68.428.773a.627.627 0 0 0 .354-1.202zm2.21-2.422a.775.775 0 1 0-.435 1.489.775.775 0 0 0 .435-1.489zm2.832-1.706a.993.993 0 0 0-1.227.664.984.984 0 0 0 .672 1.22.983.983 0 0 0 1.224-.664.992.992 0 0 0-.669-1.22zm3.136-.7a1.108 1.108 0 1 0-.628 2.123 1.116 1.116 0 0 0 1.377-.746 1.103 1.103 0 0 0-.749-1.376zm-9.574 7.826a.47.47 0 1 0-.262.901.47.47 0 0 0 .262-.901zm19.03 2.818c-.1.329.09.681.425.777a.628.628 0 1 0 .356-1.202.632.632 0 0 0-.782.425zm-.728-3.134a.771.771 0 0 0 .528.964.774.774 0 1 0 .438-1.483.775.775 0 0 0-.966.52zm-1.713-2.819a.981.981 0 0 0 .667 1.223.99.99 0 0 0 1.225-.669.97.97 0 0 0-.67-1.214.99.99 0 0 0-1.222.66zm-2.411-2.19a1.105 1.105 0 0 0 .752 1.373 1.113 1.113 0 0 0 1.377-.752 1.1 1.1 0 0 0-.747-1.372 1.117 1.117 0 0 0-1.382.751zm4.596 11.305a.472.472 0 0 0 .316.582.466.466 0 0 0 .583-.319.465.465 0 0 0-.317-.582.475.475 0 0 0-.582.32zm-10.847 7.3a1.268 1.268 0 0 0-.864-1.58 1.275 1.275 0 0 0-1.583.86 1.27 1.27 0 0 0 .866 1.58 1.279 1.279 0 0 0 1.581-.86zm-7.863-9.54a.625.625 0 0 0-.424-.778.638.638 0 0 0-.783.427c-.101.33.095.675.428.773.331.1.68-.087.78-.422zm.73 3.132a.765.765 0 0 0-.525-.954.762.762 0 0 0-.962.52.772.772 0 0 0 .523.962.776.776 0 0 0 .963-.528zm1.714 2.823a.987.987 0 1 0-1.896-.555.976.976 0 0 0 .666 1.218.99.99 0 0 0 1.23-.663zm2.41 2.192a1.107 1.107 0 0 0-.756-1.373 1.105 1.105 0 1 0-.623 2.121 1.116 1.116 0 0 0 1.379-.748zm12.778-2.333a.633.633 0 0 0 .785-.424.635.635 0 0 0-.426-.782.634.634 0 0 0-.782.428.627.627 0 0 0 .423.778zm-2.207 2.425c.409.12.84-.116.96-.52a.771.771 0 0 0-.52-.966.784.784 0 0 0-.97.525c-.119.408.121.837.53.96zm-2.832 1.709a.983.983 0 1 0 .558-1.887.988.988 0 0 0-1.228.666.987.987 0 0 0 .67 1.22zm-3.134.695a1.104 1.104 0 1 0 .627-2.118 1.104 1.104 0 1 0-.627 2.118zm-2.596-18.02a.987.987 0 0 1-.399 1.335.998.998 0 0 1-1.345-.404.979.979 0 0 1 .398-1.334.991.991 0 0 1 1.346.402zm-4.895 7.718a.585.585 0 0 0-.232.79c.155.285.51.384.789.227a.57.57 0 0 0 .238-.783.593.593 0 0 0-.795-.234zm-.098-2.372a.674.674 0 0 0-.272.911.684.684 0 0 0 .923.277.684.684 0 0 0 .275-.92.68.68 0 0 0-.926-.268zm.619-2.283a.776.776 0 0 0-.32 1.047.783.783 0 0 0 1.053.313.772.772 0 0 0 .318-1.05.78.78 0 0 0-1.051-.31zm1.26-1.976a.864.864 0 0 0-.356 1.183.87.87 0 0 0 1.176.351.864.864 0 0 0 .361-1.178.872.872 0 0 0-1.181-.356zm-.966 8.878a.484.484 0 0 0-.197.66c.13.232.42.32.662.196a.492.492 0 0 0 .194-.66.492.492 0 0 0-.659-.196zm11.262-8.08a.596.596 0 0 0 .796.238.583.583 0 1 0-.554-1.026.58.58 0 0 0-.242.788zm-1.978-1.255c.178.33.597.45.918.27a.668.668 0 0 0 .278-.916.682.682 0 0 0-.917-.277.685.685 0 0 0-.28.923zm-2.288-.609a.77.77 0 0 0 1.046.309.771.771 0 1 0-.731-1.356.77.77 0 0 0-.315 1.047zm-2.385.093a.878.878 0 0 0 1.185.359.877.877 0 0 0 .352-1.185.877.877 0 0 0-1.186-.35.87.87 0 0 0-.351 1.176zm8.137 3.547a.479.479 0 0 0 .651.194.471.471 0 0 0 .197-.65.493.493 0 0 0-.66-.206.498.498 0 0 0-.188.662zm-1.68 9.23a.989.989 0 0 0-1.348-.401.975.975 0 0 0-.396 1.336c.26.477.863.652 1.345.401a.99.99 0 0 0 .398-1.336zm-8.93-.956a.588.588 0 0 0-.788-.232.574.574 0 0 0-.236.781.57.57 0 0 0 .787.232.574.574 0 0 0 .236-.781zm1.98 1.255a.68.68 0 0 0-.919-.271.668.668 0 0 0-.274.916c.17.328.587.457.916.279.33-.184.454-.6.277-.924zm2.292.61c-.2-.374-.676-.507-1.058-.313a.776.776 0 0 0 .74 1.365.768.768 0 0 0 .318-1.052zm2.382-.095a.881.881 0 0 0-1.187-.355.862.862 0 0 0-.342 1.182.862.862 0 0 0 1.176.35.863.863 0 0 0 .353-1.177zm5.416-7.595a.598.598 0 0 0 .246-.795.584.584 0 0 0-.789-.234.575.575 0 0 0-.237.788.584.584 0 0 0 .78.241zm.11 2.369a.674.674 0 0 0 .27-.917.677.677 0 0 0-.918-.275.689.689 0 0 0-.278.923c.175.324.6.442.926.269zm-.622 2.282a.779.779 0 0 0 .323-1.05.781.781 0 0 0-1.373.74.783.783 0 0 0 1.05.31zm-1.254 1.968a.865.865 0 0 0 .353-1.177.876.876 0 0 0-1.184-.353.87.87 0 1 0 .831 1.53zm16.95-3.283a2.535 2.535 0 0 1-2.537-2.533 2.527 2.527 0 0 1 2.541-2.526 2.53 2.53 0 0 1 2.54 2.529c0 1.396-1.14 2.53-2.544 2.53zm-9.972-21.822a1.392 1.392 0 0 0-1.08-1.656 1.396 1.396 0 0 0-.582 2.729c.756.16 1.5-.321 1.662-1.073zm5.004 3.568a1.69 1.69 0 0 0-1.409-1.934 1.692 1.692 0 1 0-.533 3.343 1.699 1.699 0 0 0 1.942-1.41zm4.033 4.64a2.107 2.107 0 0 0-1.882-2.32 2.118 2.118 0 0 0-2.33 1.879 2.117 2.117 0 0 0 4.212.44zm2.501 5.35a2.322 2.322 0 0 0-2.207-2.441 2.325 2.325 0 1 0-.25 4.645 2.336 2.336 0 0 0 2.457-2.203zM118.762 40.7c0-.563-.458-1.013-1.021-1.013a1.015 1.015 0 1 0 0 2.028c.563 0 1.021-.452 1.021-1.015zm10.039 40.826a1.4 1.4 0 0 0-1.082 1.658 1.402 1.402 0 0 0 1.664 1.076c.757-.161 1.24-.9 1.08-1.66a1.404 1.404 0 0 0-1.662-1.074zm4.724-3.9a1.69 1.69 0 1 0 .531 3.34 1.692 1.692 0 0 0 1.411-1.935 1.696 1.696 0 0 0-1.942-1.406zm3.648-5.11a2.115 2.115 0 0 0-1.884 2.317 2.113 2.113 0 0 0 2.328 1.876 2.104 2.104 0 0 0 1.883-2.316 2.113 2.113 0 0 0-2.327-1.877zm2.372-5.678a2.325 2.325 0 0 0 .25 4.643A2.322 2.322 0 0 0 142 69.038a2.335 2.335 0 0 0-2.455-2.2zM117.74 84.9a1.017 1.017 0 0 0 0 2.032c.563 0 1.021-.452 1.021-1.017 0-.56-.458-1.015-1.021-1.015zM95.046 65.838a2.536 2.536 0 0 0 2.535-2.533 2.526 2.526 0 0 0-2.535-2.526 2.533 2.533 0 0 0-2.543 2.529 2.54 2.54 0 0 0 2.543 2.53zm11.634-20.75a1.396 1.396 0 0 0-.582-2.73 1.395 1.395 0 1 0 .582 2.73zm-4.722 3.904a1.693 1.693 0 0 0 1.411-1.938 1.693 1.693 0 0 0-1.945-1.404 1.686 1.686 0 0 0-1.408 1.934 1.695 1.695 0 0 0 1.942 1.408zm-3.652 5.11a2.113 2.113 0 0 0 1.884-2.32 2.114 2.114 0 0 0-2.327-1.878 2.106 2.106 0 0 0-1.883 2.32 2.114 2.114 0 0 0 2.326 1.877zm-2.37 5.676a2.33 2.33 0 0 0 2.208-2.446 2.324 2.324 0 0 0-2.457-2.2 2.325 2.325 0 0 0-2.208 2.443 2.338 2.338 0 0 0 2.456 2.203zm9.083 22.821a1.398 1.398 0 0 0 1.078 1.66 1.398 1.398 0 0 0 .585-2.734 1.403 1.403 0 0 0-1.663 1.074zm-5.002-3.57a1.687 1.687 0 0 0 1.41 1.936 1.695 1.695 0 0 0 1.944-1.406 1.693 1.693 0 0 0-1.413-1.935 1.695 1.695 0 0 0-1.941 1.406zm-4.036-4.637a2.104 2.104 0 0 0 1.882 2.316 2.11 2.11 0 0 0 2.327-1.876 2.113 2.113 0 0 0-1.884-2.317 2.11 2.11 0 0 0-2.325 1.877zm-2.502-5.354a2.326 2.326 0 0 0 2.208 2.442 2.326 2.326 0 0 0 2.458-2.199 2.331 2.331 0 0 0-2.21-2.444 2.338 2.338 0 0 0-2.456 2.2zm29.852 15.054a1.091 1.091 0 0 0-.775 1.337c.157.582.758.925 1.34.77.588-.157.936-.752.778-1.336a1.095 1.095 0 0 0-1.343-.77zm-11.182 0a1.09 1.09 0 1 0-.566 2.106 1.096 1.096 0 0 0 1.343-.77 1.091 1.091 0 0 0-.777-1.336zm12.526-42.34a1.087 1.087 0 0 0-.778-1.333 1.09 1.09 0 1 0-.565 2.105 1.096 1.096 0 0 0 1.343-.771zm-11.749-.564a1.093 1.093 0 0 0-1.343-.77c-.583.155-.933.75-.775 1.332a1.097 1.097 0 0 0 2.118-.562zm21.871 16.946a1.99 1.99 0 0 1-2.607-1.035 1.97 1.97 0 0 1 1.04-2.595 1.982 1.982 0 0 1 2.604 1.031 1.975 1.975 0 0 1-1.037 2.6zM120.873 45.56a1.091 1.091 0 0 0-1.288-.856 1.085 1.085 0 0 0-.858 1.282c.118.588.693.973 1.288.854a1.09 1.09 0 0 0 .858-1.28zm4.698 1.017a1.325 1.325 0 0 0-1.614-.953c-.71.18-1.139.897-.956 1.607.181.706.905 1.135 1.614.95a1.32 1.32 0 0 0 .956-1.604zm4.33 2.082a1.648 1.648 0 0 0-2.07-1.08 1.643 1.643 0 0 0-1.086 2.062 1.657 1.657 0 0 0 2.071 1.08 1.645 1.645 0 0 0 1.085-2.062zm3.454 3.068a1.82 1.82 0 0 0-2.34-1.073 1.81 1.81 0 0 0-1.079 2.333 1.825 1.825 0 0 0 2.341 1.074 1.814 1.814 0 0 0 1.078-2.334zm-21.899-4.94a.796.796 0 0 0-1.049-.415.789.789 0 0 0-.415 1.044c.173.4.644.583 1.047.411a.79.79 0 0 0 .417-1.04zm19.87 26.176a1.088 1.088 0 0 0-.261 1.52c.351.493 1.032.609 1.527.26.493-.348.611-1.024.258-1.52a1.096 1.096 0 0 0-1.524-.26zm2.176-4.253a1.32 1.32 0 0 0-.412 1.823 1.33 1.33 0 0 0 1.83.41c.619-.39.805-1.204.412-1.822a1.333 1.333 0 0 0-1.83-.411zm1.03-4.786a1.645 1.645 0 0 0-.632 2.243 1.655 1.655 0 0 0 2.25.625 1.637 1.637 0 0 0 .632-2.24 1.653 1.653 0 0 0-2.25-.628zm-.063-4.8a1.816 1.816 0 1 0 1.62 3.252 1.807 1.807 0 0 0 .824-2.432 1.832 1.832 0 0 0-2.444-.82zM124.444 78.79a.79.79 0 0 0-.416 1.04.795.795 0 0 0 1.046.416.792.792 0 1 0-.63-1.456zm-22.19-6.677a1.975 1.975 0 0 0 1.033-2.599 1.981 1.981 0 0 0-2.602-1.029 1.97 1.97 0 0 0-1.038 2.597 1.99 1.99 0 0 0 2.608 1.031zm1.903-18.461c.491-.35.61-1.027.26-1.518a1.093 1.093 0 0 0-1.525-.26 1.086 1.086 0 0 0-.262 1.522c.35.488 1.034.606 1.527.256zm-2.176 4.254c.621-.39.804-1.21.412-1.825a1.328 1.328 0 0 0-1.83-.408 1.316 1.316 0 0 0-.41 1.822c.392.615 1.21.8 1.828.411zm-1.032 4.787a1.642 1.642 0 0 0 .63-2.243 1.65 1.65 0 0 0-2.25-.625 1.636 1.636 0 0 0-.63 2.239 1.655 1.655 0 0 0 2.25.629zm.062 4.8a1.812 1.812 0 0 0 .825-2.432 1.82 1.82 0 0 0-2.445-.822 1.813 1.813 0 0 0-.825 2.432 1.829 1.829 0 0 0 2.445.823zm13.597 13.566c.12.594.698.977 1.29.857a1.091 1.091 0 1 0-.43-2.141c-.592.12-.978.696-.86 1.284zm-4.693-1.02c.18.71.902 1.134 1.611.954a1.32 1.32 0 0 0 .958-1.605 1.329 1.329 0 0 0-1.616-.954 1.32 1.32 0 0 0-.953 1.606zm-4.335-2.081a1.646 1.646 0 0 0 2.07 1.077 1.64 1.64 0 0 0 1.088-2.059 1.66 1.66 0 0 0-2.074-1.082 1.645 1.645 0 0 0-1.084 2.064zm-3.455-3.071a1.82 1.82 0 0 0 2.342 1.073 1.808 1.808 0 0 0 1.078-2.333 1.822 1.822 0 0 0-2.342-1.07 1.816 1.816 0 0 0-1.078 2.33zm26.074 1.6a.853.853 0 0 0-.14 1.197.858.858 0 0 0 1.202.139.85.85 0 0 0 .143-1.198.863.863 0 0 0-1.205-.137zm-8.016 3.444a.852.852 0 0 0 .249 1.685.85.85 0 0 0 .723-.966.854.854 0 0 0-.972-.72zm-4.161-34.213a.854.854 0 0 0-.973-.717.852.852 0 0 0-.721.967.854.854 0 0 0 .97.717c.466-.07.792-.5.724-.967zm-8.6 3.214a.862.862 0 0 0-1.203-.14.85.85 0 0 0-.139 1.197.856.856 0 0 0 1.201.14.85.85 0 0 0 .142-1.197z" opacity=".301" fill="#D4E1ED"/></g></svg>