<svg xmlns="http://www.w3.org/2000/svg" width="194.856" height="43.322" viewBox="0 0 194.856 43.322"><path d="M63.292 18.415h-2.703v7.784a.273.273 0 0 1-.272.271h-1.34a.272.272 0 0 1-.27-.271v-7.784H56c-.148 0-.271-.094-.271-.242v-1.07c0-.151.123-.258.271-.258h7.292c.148 0 .271.106.271.258v1.07c0 .148-.123.242-.271.242m9.776 8.055h-1.34a.273.273 0 0 1-.274-.271v-3.925h-4.292v3.925a.271.271 0 0 1-.268.271h-1.343a.272.272 0 0 1-.272-.271v-9.097c0-.151.122-.258.272-.258h1.343c.146 0 .268.106.268.258v3.518h4.292v-3.518c0-.151.122-.258.274-.258h1.34c.146 0 .27.106.27.258v9.097a.272.272 0 0 1-.27.271zm6.714.107c-2.234 0-4.304-1.246-4.304-4.227v-1.387c0-2.979 2.069-4.227 4.304-4.227 2.237 0 4.308 1.247 4.308 4.227v1.387c0 2.981-2.07 4.227-4.308 4.227zm2.409-5.613c0-1.787-1.08-2.587-2.409-2.587-1.325 0-2.407.8-2.407 2.587v1.387c0 1.787 1.082 2.587 2.407 2.587 1.329 0 2.409-.8 2.409-2.587v-1.387zm13.574 5.506h-1.369c-.121 0-.214-.137-.214-.271v-5.858c0-.096-.016-.136-.044-.136-.011 0-.038.04-.068.081l-2.187 4.845c-.08.147-.256.231-.431.231h-.705c-.176 0-.353-.084-.433-.231l-2.201-4.845c-.029-.041-.058-.081-.068-.081-.027 0-.042.04-.042.136v5.858c0 .134-.095.271-.217.271H86.42c-.124 0-.232-.069-.232-.204v-8.879c0-.299.244-.542.542-.542h1.11a.57.57 0 0 1 .502.325l2.6 5.292c.066.123.096.19.152.19.053 0 .08-.067.148-.19l2.599-5.292a.57.57 0 0 1 .501-.325h1.111c.299 0 .542.243.542.542v8.879c0 .134-.107.204-.23.204zm29.762 0h-1.37c-.325 0-.61 0-.823-.486l-3.676-6.157c-.039-.08-.081-.109-.121-.109-.039 0-.068.029-.068.109V26.2c0 .148-.109.271-.259.271h-1.15a.27.27 0 0 1-.27-.271v-8.813a.54.54 0 0 1 .54-.542h1.463c.285 0 .434.081.598.435l3.822 6.521c.025.065.066.107.108.107.027 0 .065-.042.065-.122v-6.684c0-.151.107-.258.258-.258h1.166a.25.25 0 0 1 .259.258v8.825a.544.544 0 0 1-.542.543zm-23.719.115c-1.196 0-2.411-.207-3.063-.357-.136-.026-.258-.12-.258-.27v-.976a.26.26 0 0 1 .258-.259h.027c.541.068 1.81.244 3.063.244 1.207 0 1.572-.43 1.572-1.217 0-1.016-2.422-1.577-3.605-2.065-1.182-.487-1.599-1.422-1.599-2.368 0-1.492 1.202-2.576 3.721-2.576 1.292 0 2.474.245 2.934.356.137.027.242.123.242.256v1.003c0 .135-.093.245-.229.245h-.027c-.895-.082-1.822-.246-3.002-.246-1 0-1.755.351-1.755.962 0 .445.51.856 1.11 1.093.601.239 1.393.546 2.292.907 1.145.462 1.885 1.134 1.885 2.434 0 1.368-.854 2.834-3.566 2.834zm9.578-.008c-2.235 0-4.305-1.246-4.305-4.227v-1.387c0-2.979 2.069-4.227 4.305-4.227s4.305 1.247 4.305 4.227v1.387c-.001 2.981-2.07 4.227-4.305 4.227zm2.408-5.613c0-1.787-1.081-2.587-2.408-2.587-1.328 0-2.409.8-2.409 2.587v1.387c0 1.787 1.081 2.587 2.409 2.587 1.327 0 2.408-.8 2.408-2.587v-1.387zm26.327 5.506h-1.654c-.148 0-.203-.137-.271-.271l-1.952-3.286h-.3a59.97 59.97 0 0 1-1.761-.054v3.34c0 .148-.109.271-.258.271h-1.355a.272.272 0 0 1-.27-.271v-8.881c0-.271.16-.367.434-.404.705-.109 2.22-.177 3.21-.177 2.086 0 4.014.746 4.014 3.063v.122c0 1.434-.718 2.221-1.829 2.651l2.126 3.626c.028.04.028.079.028.109 0 .092-.054.162-.162.162zm-2.033-6.67c0-1.017-.788-1.45-2.144-1.45-.285 0-1.518.027-1.761.054v2.938c.216.014 1.527.041 1.761.041 1.395 0 2.144-.268 2.144-1.46V19.8zm5.808 4.001c0 1.136.043 1.166 1.067 1.166h3.431c.149 0 .271.121.271.271v.865c0 .191-.069.259-.271.285-.434.068-1.316.189-2.929.189-2.249 0-3.44.015-3.44-2.776v-4.287c0-2.792 1.191-2.776 3.44-2.776 1.612 0 2.495.122 2.929.188.202.025.271.096.271.286v.865a.273.273 0 0 1-.271.272h-3.431c-1.024 0-1.067.03-1.067 1.164v1.241h4.336c.149 0 .271.124.271.271v.979a.272.272 0 0 1-.271.271h-4.336v1.526zm10.853 2.776c-2.18 0-4.057-.949-4.057-3.836v-5.639c0-.151.123-.258.271-.258h1.339c.15 0 .271.106.271.258v5.639c0 1.546.715 2.279 2.175 2.279 1.465 0 2.178-.733 2.178-2.279v-5.639c0-.151.122-.258.271-.258h1.341c.15 0 .273.106.273.258v5.639c.001 2.887-1.878 3.836-4.062 3.836zm12.972-8.162h-2.703v7.784a.275.275 0 0 1-.274.271h-1.34a.273.273 0 0 1-.272-.271v-7.784h-2.705c-.146 0-.269-.094-.269-.242v-1.07c0-.151.122-.258.269-.258h7.295c.146 0 .268.106.268.258v1.07c-.002.148-.123.242-.269.242zm18.4 8.055h-1.654c-.148 0-.202-.137-.27-.271l-1.953-3.286h-.302c-.35 0-1.447-.038-1.76-.054v3.34c0 .148-.107.271-.256.271h-1.354a.273.273 0 0 1-.271-.271v-8.881c0-.271.161-.367.433-.404.703-.109 2.222-.177 3.208-.177 2.088 0 4.014.746 4.014 3.063v.122c0 1.434-.719 2.221-1.829 2.651l2.13 3.626c.026.04.026.079.026.109 0 .092-.054.162-.162.162zm-2.032-6.67c0-1.017-.79-1.45-2.146-1.45-.283 0-1.517.027-1.76.054v2.938c.219.014 1.533.041 1.76.041 1.398 0 2.146-.268 2.146-1.46V19.8zm7.203 6.785c-1.198 0-2.411-.207-3.063-.357-.134-.026-.257-.12-.257-.27v-.976a.26.26 0 0 1 .257-.259h.027c.542.068 1.811.244 3.063.244 1.205 0 1.573-.43 1.573-1.217 0-1.016-2.426-1.577-3.61-2.065-1.177-.487-1.596-1.422-1.596-2.368 0-1.492 1.2-2.576 3.72-2.576 1.292 0 2.474.245 2.935.356.136.027.243.123.243.256v1.003c0 .135-.093.245-.231.245h-.025c-.895-.082-1.822-.246-2.999-.246-1.005 0-1.757.351-1.757.962 0 .445.51.855 1.112 1.093.601.239 1.39.546 2.289.907 1.144.462 1.883 1.134 1.883 2.434 0 1.368-.853 2.834-3.564 2.834zm-20.037-2.784c0 1.136.041 1.166 1.068 1.166h3.432c.146 0 .27.121.27.271v.865c0 .191-.069.259-.27.285-.436.068-1.316.189-2.929.189-2.253 0-3.443.015-3.443-2.776v-4.287c0-2.792 1.19-2.776 3.443-2.776 1.612 0 2.493.122 2.929.188.2.025.27.096.27.286v.865a.274.274 0 0 1-.27.272h-3.432c-1.027 0-1.068.03-1.068 1.164v1.241h4.335c.151 0 .27.124.27.271v.979a.27.27 0 0 1-.27.271h-4.335v1.526zM32.558 13.75a1.495 1.495 0 0 1-2.171-2.054 1.487 1.487 0 0 1 2.111-.066c.6.567.627 1.511.06 2.12m-14.901-3.4a.744.744 0 0 0-1.044.031.74.74 0 0 0 .029 1.041.738.738 0 0 0 1.015-1.072zm3.736-1.42a.91.91 0 1 0 .04 1.286.913.913 0 0 0-.04-1.286zm4.006-.293a1.16 1.16 0 0 0-1.634.049 1.157 1.157 0 0 0 1.685 1.587 1.158 1.158 0 0 0-.051-1.636zm3.792.97a1.302 1.302 0 0 0-1.787 1.892 1.301 1.301 0 1 0 1.787-1.892zM14.49 12.84a.551.551 0 0 0-.777.023c-.21.221-.2.566.021.775a.55.55 0 1 0 .756-.798zM33.623 26.4a.74.74 0 0 0 .028 1.044.74.74 0 0 0 1.016-1.077.742.742 0 0 0-1.044.033zm.944-3.807a.914.914 0 0 0 .041 1.285.908.908 0 0 0 1.287-.039.907.907 0 0 0-.04-1.286.914.914 0 0 0-1.288.04zm-.291-4.011a1.156 1.156 0 1 0 1.685 1.584 1.152 1.152 0 0 0-.051-1.633 1.158 1.158 0 0 0-1.634.049zm-1.398-3.715a1.299 1.299 0 1 0 1.892 1.783 1.299 1.299 0 1 0-1.892-1.783zm-1.286 14.836a.55.55 0 0 0 .025.776.544.544 0 0 0 .773-.026.541.541 0 0 0-.022-.772.545.545 0 0 0-.776.022zm-15.871 1.922a1.497 1.497 0 1 0-2.176-2.053 1.496 1.496 0 0 0 2.176 2.053zm-3.237-14.707a.738.738 0 0 0-1.074-1.012.738.738 0 0 0 1.074 1.012zm-.949 3.811a.914.914 0 0 0-.037-1.288.907.907 0 0 0-1.288.04.908.908 0 0 0 .038 1.283.916.916 0 0 0 1.287-.035zm.293 4.007zm1.397 3.717a1.301 1.301 0 0 0-.053-1.839 1.296 1.296 0 0 0-1.835.056 1.299 1.299 0 0 0 .049 1.839c.526.49 1.351.463 1.839-.056zm15.224 4.516a.735.735 0 1 0 1.01-1.071.737.737 0 0 0-1.01 1.071zm-3.738 1.419a.914.914 0 0 0 1.287-.04.906.906 0 0 0-.036-1.284.914.914 0 0 0-1.29.039.913.913 0 0 0 .039 1.285zm-4.009.29c.47.441 1.196.42 1.634-.045a1.153 1.153 0 0 0-.047-1.634 1.154 1.154 0 1 0-1.587 1.679zm-3.783-.966a1.298 1.298 0 1 0 1.779-1.894 1.3 1.3 0 0 0-1.779 1.894zm9.847-20.554a1.158 1.158 0 0 1-1.443.78 1.156 1.156 0 0 1-.788-1.444 1.164 1.164 0 1 1 2.231.664zm-11.159 2.746a.583.583 0 0 0-.714.393.57.57 0 0 0 .392.709.575.575 0 0 0 .322-1.102zm2.02-2.219a.71.71 0 1 0 .482.882.713.713 0 0 0-.482-.882zm2.586-1.566a.907.907 0 0 0-1.121.609.904.904 0 0 0 1.732.51.909.909 0 0 0-.611-1.119zm2.865-.64c-.544-.161-1.1.15-1.26.687a1.01 1.01 0 0 0 .686 1.259 1.017 1.017 0 0 0 1.258-.684 1.012 1.012 0 0 0-.684-1.262zm-8.746 7.174a.426.426 0 0 0-.529.289.434.434 0 0 0 .288.538.431.431 0 0 0 .241-.827zm17.381 2.584a.571.571 0 0 0 .391.713.572.572 0 0 0 .713-.391.573.573 0 0 0-.389-.711.578.578 0 0 0-.715.389zm-.664-2.873a.708.708 0 0 0 .482.884.707.707 0 0 0 .881-.481.706.706 0 0 0-.48-.878.708.708 0 0 0-.883.475zm-1.565-2.585a.9.9 0 1 0 1.728.508.89.89 0 0 0-.611-1.113.904.904 0 0 0-1.117.605zm-2.201-2.008a1.013 1.013 0 1 0 1.946.569 1.01 1.01 0 0 0-.684-1.258 1.02 1.02 0 0 0-1.262.689zm4.197 10.366a.432.432 0 0 0 .288.533.425.425 0 0 0 .532-.292.426.426 0 1 0-.82-.241zm-9.907 6.694a1.163 1.163 0 0 0-.79-1.45 1.162 1.162 0 0 0-1.444.789 1.163 1.163 0 0 0 .791 1.449 1.166 1.166 0 0 0 1.443-.788zm-7.182-8.748a.573.573 0 1 0-1.102-.322.571.571 0 0 0 .391.71.568.568 0 0 0 .711-.388zm.666 2.872a.7.7 0 0 0-.479-.875.696.696 0 0 0-.879.478.71.71 0 0 0 .479.882.708.708 0 0 0 .879-.485zm1.567 2.588a.911.911 0 0 0-.616-1.124.9.9 0 0 0-1.116.615.896.896 0 0 0 .609 1.117.902.902 0 0 0 1.123-.608zm2.2 2.01a1.016 1.016 0 0 0-.689-1.259 1.008 1.008 0 0 0-1.255.69 1.01 1.01 0 0 0 .686 1.255c.538.156 1.1-.152 1.258-.686zm11.671-2.139a.579.579 0 0 0 .718-.389.582.582 0 0 0-.39-.717.576.576 0 1 0-.328 1.106zm-2.016 2.223a.707.707 0 0 0 .878-.477.708.708 0 0 0-.477-.885.717.717 0 0 0-.885.48.72.72 0 0 0 .484.882zm-2.585 1.567a.901.901 0 1 0 .51-1.729.901.901 0 0 0-.51 1.729zm-2.863.638a1.004 1.004 0 0 0 1.256-.683 1.014 1.014 0 1 0-1.946-.571 1.015 1.015 0 0 0 .69 1.254zm-2.372-16.524a.906.906 0 0 1-.364 1.225.91.91 0 0 1-1.229-.371.904.904 0 0 1 1.593-.854zm-4.47 7.078a.537.537 0 0 0-.213.724.525.525 0 0 0 .721.209.523.523 0 0 0 .217-.718.537.537 0 0 0-.725-.215zm-.089-2.175a.618.618 0 0 0-.249.836c.167.305.54.415.843.254a.62.62 0 1 0-.594-1.09zm.564-2.094a.712.712 0 0 0-.291.96.71.71 0 0 0 .961.287.709.709 0 0 0 .291-.963.712.712 0 0 0-.961-.284zm1.151-1.812a.793.793 0 0 0-.325 1.085.793.793 0 0 0 1.074.322.793.793 0 0 0 .33-1.08.796.796 0 0 0-1.079-.327zm-.881 8.141a.444.444 0 0 0-.18.605.45.45 0 0 0 .604.18.451.451 0 0 0 .178-.605.448.448 0 0 0-.602-.18zm10.286-7.409c.139.258.46.353.727.219a.544.544 0 0 0 .216-.727.532.532 0 0 0-.721-.215.533.533 0 0 0-.222.723zm-1.808-1.151a.618.618 0 0 0 .84.248.614.614 0 0 0 .254-.84.622.622 0 0 0-.838-.255.631.631 0 0 0-.256.847zm-2.088-.558a.698.698 0 0 0 .954.283.707.707 0 0 0 .292-.96.7.7 0 0 0-.96-.283.708.708 0 0 0-.286.96zm-2.179.085a.8.8 0 0 0 1.083.329.8.8 0 1 0-.762-1.408.798.798 0 0 0-.321 1.079zm7.431 3.252a.437.437 0 0 0 .596.179.434.434 0 0 0 .18-.596.448.448 0 0 0-.603-.189.456.456 0 0 0-.173.606zm-1.534 8.465a.9.9 0 0 0-1.229-.368.895.895 0 0 0-.363 1.225.917.917 0 0 0 1.229.368.912.912 0 0 0 .363-1.225zm-8.157-.877a.535.535 0 0 0-.719-.214.53.53 0 0 0-.216.718c.136.262.46.357.72.212a.527.527 0 0 0 .215-.716zm1.809 1.15a.62.62 0 0 0-1.09.591.616.616 0 0 0 .837.256.631.631 0 0 0 .253-.847zm2.093.56a.72.72 0 0 0-.966-.287.712.712 0 1 0 .966.287zm2.177-.088a.803.803 0 0 0-1.084-.324.791.791 0 0 0-.313 1.083.785.785 0 0 0 1.075.32.794.794 0 0 0 .322-1.079zm4.946-6.964a.55.55 0 0 0 .225-.729.532.532 0 0 0-.72-.215.528.528 0 0 0-.218.723.532.532 0 0 0 .713.221zm.101 2.172a.617.617 0 0 0 .245-.841.615.615 0 0 0-.837-.252.634.634 0 0 0-.255.848c.16.297.549.404.847.245zm-.569 2.094a.715.715 0 0 0 .295-.965.71.71 0 0 0-.962-.287.716.716 0 0 0-.291.967c.19.339.62.469.958.285zm-1.145 1.803a.798.798 0 1 0-1.08-.321.79.79 0 0 0 1.08.321zm15.481-3.01a2.32 2.32 0 0 1-2.316-2.323 2.312 2.312 0 0 1 2.321-2.316 2.315 2.315 0 0 1 2.318 2.319 2.322 2.322 0 0 1-2.323 2.32zM34.671 3.97a1.278 1.278 0 0 0-.985-1.518 1.28 1.28 0 1 0 .985 1.518zm4.571 3.272a1.55 1.55 0 0 0-1.288-1.773 1.549 1.549 0 0 0-1.776 1.289 1.55 1.55 0 1 0 3.064.484zm3.683 4.254a1.932 1.932 0 0 0-1.72-2.127 1.938 1.938 0 0 0-2.127 1.723 1.933 1.933 0 1 0 3.847.404zm2.284 4.907a2.126 2.126 0 0 0-2.016-2.239 2.133 2.133 0 1 0 2.016 2.239zM23.984.93A.93.93 0 0 0 23.05 0a.93.93 0 1 0 0 1.861.933.933 0 0 0 .934-.931zm9.168 37.434a1.283 1.283 0 0 0-.988 1.52 1.28 1.28 0 1 0 .988-1.52zm4.316-3.577a1.55 1.55 0 1 0 .485 3.063 1.551 1.551 0 0 0-.485-3.063zm3.332-4.684a1.933 1.933 0 0 0 .404 3.845 1.928 1.928 0 0 0 1.721-2.124 1.931 1.931 0 0 0-2.125-1.721zm2.166-5.207a2.133 2.133 0 0 0-2.015 2.24 2.127 2.127 0 0 0 2.242 2.017 2.128 2.128 0 0 0 2.016-2.239 2.136 2.136 0 0 0-2.243-2.018zM23.051 41.459a.932.932 0 1 0 0 1.864.932.932 0 1 0 0-1.864zM2.322 23.98a2.32 2.32 0 0 0 0-4.639A2.317 2.317 0 0 0 0 21.66c0 1.28 1.043 2.32 2.322 2.32zM12.949 4.954a1.28 1.28 0 1 0-.532-2.504 1.28 1.28 0 0 0 .532 2.504zM8.635 8.533a1.551 1.551 0 1 0-.484-3.065 1.551 1.551 0 0 0 .484 3.065zm-3.336 4.685a1.935 1.935 0 1 0-.402-3.85 1.935 1.935 0 0 0 .402 3.85zm-2.164 5.205a2.135 2.135 0 0 0 2.017-2.243 2.126 2.126 0 0 0-2.243-2.016 2.13 2.13 0 0 0-2.018 2.239 2.137 2.137 0 0 0 2.244 2.02zm8.297 20.927a1.28 1.28 0 1 0 2.504.538 1.28 1.28 0 0 0-2.504-.538zm-4.57-3.274c-.136.85.442 1.641 1.288 1.774s1.641-.438 1.775-1.289a1.55 1.55 0 1 0-3.063-.485zm-3.686-4.253a1.928 1.928 0 0 0 1.721 2.124 1.93 1.93 0 0 0 2.125-1.72 1.937 1.937 0 0 0-1.723-2.125 1.93 1.93 0 0 0-2.123 1.721zM.891 26.914a2.13 2.13 0 0 0 2.018 2.239 2.126 2.126 0 0 0 2.244-2.017 2.133 2.133 0 0 0-4.262-.222zm27.265 13.804a1.001 1.001 0 0 0 .518 1.932 1 1 0 1 0-.518-1.932zm-10.213 0a1 1 0 1 0-.517 1.932 1 1 0 0 0 .517-1.932zM29.385 1.896a.998.998 0 0 0-.711-1.224.997.997 0 0 0-1.225.705 1.001 1.001 0 0 0 1.936.519zm-10.732-.519a.998.998 0 0 0-1.228-.705 1 1 0 1 0 1.228.705zM38.63 16.916a1.816 1.816 0 0 1-2.382-.949 1.81 1.81 0 0 1 .949-2.38 1.812 1.812 0 0 1 1.433 3.329zM25.911 5.386a.995.995 0 0 0-1.175-.784.999.999 0 1 0 1.175.784zm4.291.933a1.21 1.21 0 0 0-1.474-.874 1.209 1.209 0 0 0-.873 1.473 1.21 1.21 0 1 0 2.347-.599zm3.955 1.91a1.504 1.504 0 0 0-1.89-.99 1.508 1.508 0 1 0 .899 2.881 1.51 1.51 0 0 0 .991-1.891zm3.156 2.812a1.66 1.66 0 0 0-2.137-.983 1.665 1.665 0 1 0 2.137.983zM17.311 6.512a.728.728 0 1 0-1.338.576c.158.367.589.535.957.377s.541-.588.381-.953zm18.148 24.002a.998.998 0 0 0-.238 1.393.999.999 0 1 0 1.63-1.156.997.997 0 0 0-1.392-.237zm1.987-3.901a1.214 1.214 0 0 0-.376 1.672 1.212 1.212 0 0 0 2.047-1.295 1.214 1.214 0 0 0-1.671-.377zm.941-4.387a1.51 1.51 0 0 0-.576 2.057c.41.728 1.33.982 2.055.573a1.504 1.504 0 0 0 .577-2.055 1.507 1.507 0 0 0-2.056-.575zm-.057-4.403a1.668 1.668 0 0 0-.752 2.229 1.66 1.66 0 0 0 2.231.753 1.661 1.661 0 0 0 .752-2.23 1.67 1.67 0 0 0-2.231-.752zm-9.156 18.033a.725.725 0 0 0-.381.954.728.728 0 1 0 .381-.954zM8.906 29.734a1.813 1.813 0 0 0 .943-2.383 1.806 1.806 0 0 0-2.377-.944 1.809 1.809 0 0 0-.948 2.381 1.815 1.815 0 0 0 2.382.946zm1.737-16.927a.999.999 0 1 0-1.155-1.631.998.998 0 1 0 1.155 1.631zm-1.987 3.9a1.215 1.215 0 0 0 .377-1.674 1.211 1.211 0 1 0-.377 1.674zm-.943 4.39c.729-.407.985-1.33.577-2.058s-1.329-.983-2.056-.573a1.504 1.504 0 0 0-.576 2.054 1.51 1.51 0 0 0 2.055.577zm.058 4.401a1.664 1.664 0 0 0 .752-2.23 1.66 1.66 0 0 0-2.232-.753 1.665 1.665 0 1 0 1.48 2.983zm12.418 12.44a1 1 0 1 0 1.961-.395 1.003 1.003 0 0 0-1.176-.784c-.54.11-.892.638-.785 1.179zm-4.287-.936a1.211 1.211 0 1 0 .871-1.472 1.21 1.21 0 0 0-.871 1.472zm-3.959-1.909a1.502 1.502 0 0 0 1.891.988 1.505 1.505 0 0 0 .993-1.888 1.51 1.51 0 1 0-2.884.9zm-3.156-2.816a1.66 1.66 0 0 0 2.14.983 1.659 1.659 0 0 0 .985-2.139 1.667 1.667 0 0 0-3.125 1.156zm23.817 1.468a.78.78 0 1 0 .969 1.224.782.782 0 0 0 .131-1.098.786.786 0 0 0-1.1-.126zm-7.323 3.157a.782.782 0 1 0 .231 1.547.782.782 0 0 0-.231-1.547zM21.48 5.531a.781.781 0 1 0-1.545.231.781.781 0 0 0 1.545-.231zm-7.853 2.948a.785.785 0 0 0-1.1-.129.783.783 0 1 0 1.1.129z" fill="#FFF"/></svg>