<svg width="231" height="160" viewBox="0 0 231 160" xmlns="http://www.w3.org/2000/svg"><g fill="none" fill-rule="evenodd"><path d="M94.229 60.496c-.156 0-.271-.01-.385.001-1.065.098-2.128.23-3.195.292-3.062.18-6.086-.064-9.044-.915-2.362-.679-4.562-1.678-6.419-3.355-1.32 1.001-2.793 1.7-4.329 2.272-2.316.86-4.715 1.35-7.173 1.568a35.106 35.106 0 0 1-6.273 0c-.85-.077-1.7-.17-2.591-.259 0 .143-.003.27 0 .397.02.825.046 1.65.063 2.475.07 3.34.358 6.659.993 9.942 1.068 5.515 3.122 10.625 6.232 15.303 3.443 5.18 7.842 9.413 12.84 13.057.198.144.32.109.486-.025 1.518-1.23 3.09-2.4 4.552-3.692 4.019-3.548 7.344-7.659 9.788-12.458 2.803-5.506 4.047-11.399 4.309-17.528.093-2.203.1-4.41.145-6.615.003-.15 0-.3 0-.46zm-38.767.3c.875.074 1.716.156 2.56.216 2.198.156 4.393.117 6.585-.14 2.522-.295 4.981-.85 7.314-1.864 1.041-.452 2.02-1.05 3.032-1.57.097-.049.28-.062.354-.004 2.297 1.813 4.944 2.824 7.769 3.428 2.98.637 5.992.708 9.018.438.49-.044.98-.093 1.499-.143.006.108.02.21.018.313-.059 2.369-.06 4.74-.19 7.106-.537 9.814-4.003 18.398-10.785 25.574-2.272 2.405-4.759 4.56-7.44 6.52-.049-.026-.103-.045-.147-.078-4.654-3.42-8.775-7.373-12.065-12.153-3.283-4.769-5.438-10.01-6.528-15.697-.687-3.59-.938-7.217-.994-10.863-.005-.35 0-.702 0-1.083zm41.416-3.308c0 .529.006 1.045-.001 1.56-.04 2.83-.002 5.663-.139 8.488-.357 7.387-2.01 14.44-5.62 20.961-2.666 4.817-6.129 8.986-10.285 12.567-1.7 1.466-3.53 2.78-5.298 4.168-.232.182-.432.22-.695.035-4.973-3.48-9.41-7.525-13.053-12.41-3.984-5.343-6.671-11.283-8.148-17.781-.664-2.923-1.127-5.88-1.273-8.872-.144-2.966-.183-5.937-.267-8.907-.002-.08.015-.16.028-.281l1.36.243c3.043.544 6.102.65 9.168.264 4.289-.542 8.306-1.874 11.949-4.251.56-.367.555-.368 1.07.03 2.854 2.208 6.088 3.572 9.6 4.298 3.763.778 7.523.673 11.275-.096.057-.012.115-.025.172-.033.023-.003.047.004.157.017zm63.467 16.55c1.648.001 3.294-.019 4.916.342 1.804.4 3.362 1.2 4.432 2.773 2.11 3.103 1.439 8.339-3.363 10.15-1.45.547-2.971.672-4.508.652-1.763-.023-3.526-.047-5.29-.065-.185-.002-.324-.021-.336-.25-.01-.22.079-.327.302-.334.14-.005.28-.037.419-.057.627-.092.86-.326.922-.963.038-.398.064-.8.065-1.2.006-2.782.005-5.564 0-8.347 0-.352-.028-.706-.06-1.058-.048-.526-.266-.744-.795-.825-.128-.02-.256-.05-.384-.053-.197-.007-.31-.077-.302-.294.008-.214.123-.272.32-.282 1.22-.058 2.441-.126 3.662-.19zm-.05 6.341h-.009c0 1.227-.008 2.454.004 3.68.005.518.018 1.04.087 1.551.122.9.66 1.416 1.563 1.5a7.69 7.69 0 0 0 1.44.008c1.934-.185 3.325-1.155 4.077-2.97.632-1.524.693-3.114.433-4.723-.207-1.283-.722-2.425-1.74-3.265-1.511-1.249-3.282-1.49-5.156-1.197-.618.096-.693.213-.696.852-.007 1.521-.002 3.043-.002 4.564zm19.723-6.59c2.06.018 3.897.605 5.333 2.155 1.247 1.348 1.806 2.98 1.86 4.8.115 3.874-2.422 6.881-6.257 7.351-2.344.287-4.512-.191-6.28-1.855-1.652-1.555-2.28-3.526-2.098-5.767.174-2.142 1.059-3.92 2.783-5.227 1.372-1.042 2.95-1.47 4.66-1.458zm4.426 7.472c-.03-.34-.052-.895-.133-1.441-.196-1.32-.587-2.577-1.43-3.638-1.106-1.392-2.547-1.899-4.265-1.45-1.5.39-2.368 1.47-2.848 2.886-.491 1.445-.537 2.934-.326 4.434.186 1.321.584 2.564 1.382 3.66 1.74 2.392 5.703 2.31 7.005-.853.448-1.087.581-2.225.615-3.598zm-63.164-7.526c1.74.057 3.338.483 4.702 1.596 1.43 1.167 2.19 2.715 2.44 4.52.282 2.035-.105 3.926-1.375 5.574-1.315 1.705-3.102 2.558-5.218 2.723-1.427.111-2.826-.073-4.122-.714-2.444-1.207-3.707-3.217-3.868-5.925-.217-3.65 2.017-6.69 5.526-7.508.625-.146 1.276-.18 1.915-.266zm4.449 7.48c-.035-.352-.065-.942-.157-1.522-.199-1.258-.585-2.453-1.38-3.472-1.103-1.415-2.547-1.936-4.282-1.493-1.458.371-2.33 1.404-2.819 2.778-.567 1.593-.595 3.231-.313 4.881.206 1.21.607 2.34 1.341 3.343 1.733 2.37 5.692 2.284 6.985-.86.453-1.098.593-2.246.625-3.656zm22.291 6.67h-4.94c-.192 0-.42.068-.443-.249-.02-.287.16-.315.378-.333.27-.023.538-.061.804-.106.474-.079.69-.272.743-.757.059-.525.085-1.057.086-1.586.006-2.784.002-5.568-.006-8.351 0-.317-.028-.636-.072-.95-.076-.549-.284-.748-.835-.845-.116-.02-.232-.06-.347-.058-.254.004-.328-.125-.31-.355.018-.242.179-.231.353-.23 1.565.016 3.13.035 4.694.038 1.412.003 2.824-.01 4.236-.026.205-.003.294.042.315.262.078.797.182 1.592.254 2.39.009.099-.094.275-.18.303-.167.052-.383.092-.466-.166-.08-.246-.16-.492-.248-.735-.235-.646-.687-1.065-1.373-1.107-1.055-.065-2.113-.072-3.17-.09-.24-.005-.392.14-.42.392-.014.14-.04.28-.041.42a692.922 692.922 0 0 0-.002 3.964c.001.507.047.548.543.548.659 0 1.318.003 1.976-.008.98-.015 1.188-.192 1.373-1.138.02-.104.053-.206.064-.31.03-.275.23-.256.42-.254.218.002.228.148.228.316a774.346 774.346 0 0 0 0 3.82c0 .17-.009.315-.23.313-.186-.002-.384.03-.416-.252-.03-.257-.085-.51-.138-.764-.098-.472-.331-.72-.811-.746-.868-.047-1.74-.052-2.609-.07-.28-.006-.403.15-.399.422.02 1.367.015 2.736.068 4.101.034.866.421 1.253 1.285 1.28 1.007.03 2.02.03 3.023-.05.91-.072 1.502-.663 1.88-1.473.09-.192.145-.416.282-.565.09-.1.306-.138.449-.112.076.014.187.24.162.34-.207.821-.444 1.634-.667 2.45-.07.253-.207.337-.48.334-1.671-.016-3.342-.008-5.013-.007zm-40.034-7.286c0 1.603-.007 3.207.006 4.81.003.387.058.775.117 1.158.058.368.296.576.666.626.303.042.605.1.909.118.233.014.308.12.298.334-.01.23-.156.248-.34.247a727.402 727.402 0 0 0-4.27-.025 53.054 53.054 0 0 0-1.552.025c-.185.005-.324-.022-.34-.25-.016-.222.071-.316.298-.331.316-.022.63-.077.944-.117.498-.062.716-.251.794-.746.05-.313.08-.633.08-.95.007-3.3.006-6.602.006-9.904 0-.627-.053-.68-.691-.674-.717.007-1.435.01-2.15.049-.882.048-1.48.536-1.873 1.304-.08.158-.128.352-.252.46-.105.092-.306.129-.447.1-.072-.013-.17-.24-.145-.343.22-.927.46-1.849.707-2.769.022-.083.117-.188.194-.203.076-.014.227.054.248.118.126.382.44.418.762.455.058.006.117.006.176.006l9.74.005c.468 0 .913-.04 1.216-.489.053-.078.25-.059.38-.085.018.103.06.208.051.308-.08.938-.179 1.874-.247 2.812-.015.21-.05.338-.27.368-.227.03-.351-.062-.39-.292-.224-1.36-.753-1.734-2.253-1.795-.587-.024-1.176-.012-1.764-.01-.526.001-.605.077-.609.621-.006.967-.003 1.934-.003 2.901V80.6h.004zm27.114 7.287c-1.587 0-3.175-.003-4.763.003-.225 0-.423-.016-.387-.302.012-.096.117-.232.205-.257.259-.073.53-.1.797-.144.48-.08.7-.258.768-.738.07-.5.105-1.008.105-1.513-.002-2.97-.018-5.942-.034-8.913a2.924 2.924 0 0 0-.078-.593c-.077-.356-.292-.584-.659-.65-.254-.044-.508-.107-.764-.125-.227-.017-.322-.123-.31-.333.012-.236.168-.262.37-.26 1.306.018 2.61.029 3.916.034.424.002.847-.014 1.27-.032.188-.008.364-.02.396.228.03.233-.07.346-.31.368-.209.02-.414.08-.622.116-.398.07-.63.308-.687.701a7.12 7.12 0 0 0-.097 1.018c.002 2.994.014 5.988.026 8.983.001.151.03.304.06.454.132.66.413.988 1.072 1.022a33.47 33.47 0 0 0 3.026.004c.537-.021.992-.305 1.283-.774.241-.389.456-.796.653-1.21.124-.262.312-.248.524-.187.239.068.164.248.12.405-.219.781-.447 1.56-.658 2.343-.073.271-.201.362-.494.358-1.576-.018-3.152-.008-4.728-.008v.002zm-26.371-17.75h-1.7c.006-.041.006-.062.01-.062.544-.12.502-.546.5-.953-.003-.79.007-1.58-.011-2.368-.015-.621-.03-.62-.56-.854.127-.145 1.245-.198 1.698-.063-.076.063-.125.14-.18.144-.319.025-.372.231-.37.493.005.4.002.799.002 1.233h2.485c0-.48.037-.973-.023-1.454-.018-.146-.303-.257-.522-.428h1.716c-.086.072-.136.151-.19.154-.326.013-.371.219-.37.483.003.978.01 1.956-.006 2.934-.006.356.066.605.48.611.03 0 .061.03.066.127h-1.667c.015-.052.02-.092.029-.093.524-.058.52-.428.504-.824-.016-.364-.004-.729-.004-1.161h-.777c-.47 0-.94.012-1.41-.005-.253-.009-.327.086-.316.327.017.353.013.707.003 1.06-.01.332.089.556.464.559.033 0 .068.013.095.03.017.01.02.04.054.11zm40.22.006c.008-.06.008-.082.012-.083.589-.09.569-.52.56-.968-.017-.73-.003-1.46-.007-2.19-.004-.675-.008-.675-.541-.987.051-.036.091-.09.132-.09.668-.007 1.337-.039 2.002 0 .582.036.939.38 1.045.887.09.434-.138.9-.584 1.193-.069.044-.141.082-.258.149.532.784.892 1.684 1.9 2.124-.447.141-.821.099-1.13-.142-.253-.197-.462-.462-.66-.721-.22-.289-.374-.634-.62-.896-.127-.134-.389-.156-.595-.183-.027-.003-.096.268-.132.414a.609.609 0 0 0-.002.211c.053.47-.225 1.085.622 1.205l-.079.077h-1.665zm1.12-3.159h.003c0 .248-.01.496.005.743.005.077.058.187.12.22.273.138.974-.026 1.141-.27.24-.347.245-.732.095-1.112-.145-.367-.455-.524-.83-.557-.489-.043-.531 0-.533.48v.496zm-18.996-1.177h1.674c-.08.092-.106.151-.136.154-.486.038-.482.402-.484.745-.007 1.06-.004 2.121-.005 3.182v.345l-.096.063-3.126-3.574c-.035.102-.073.16-.073.22.014.882.031 1.765.053 2.649.006.251.146.382.398.402.08.006.157.037.235.056l-.012.094h-1.525c.014-.05.02-.109.032-.11.414-.027.496-.29.497-.65 0-.942.025-1.884.026-2.826 0-.302-.139-.517-.47-.561-.075-.01-.145-.055-.225-.161.074-.024.146-.062.222-.068.566-.045.972.105 1.352.628.688.945 1.52 1.785 2.291 2.669l.104-.031v-.54c-.003-.589-.001-1.178-.01-1.767-.009-.53-.048-.575-.547-.76-.037-.014-.064-.056-.175-.159zm47.654 4.472c-1.362-.051-2.351-1.045-2.291-2.303.066-1.397 1.109-2.352 2.507-2.296 1.279.052 2.21 1.056 2.171 2.342-.04 1.32-1.083 2.306-2.387 2.257zm-.009-4.348c-.649-.004-1.192.326-1.406.92-.302.84-.246 1.674.218 2.443.338.56.874.826 1.525.745.675-.084 1.133-.492 1.25-1.16.083-.465.104-.966.023-1.427-.175-.993-.775-1.517-1.61-1.521zm-62.09.788c-.045-.043-.12-.08-.131-.13-.105-.467-.45-.556-.854-.572-.89-.037-.89-.04-.89.843v.868c.379 0 .73.023 1.074-.017.088-.01.15-.224.23-.342.034-.052.08-.098.12-.146.036.06.103.12.105.18.01.33.008.66 0 .988 0 .06-.048.117-.075.176-.05-.037-.14-.071-.143-.112-.033-.395-.301-.423-.605-.414-.22.007-.441.001-.699.001 0 .52-.011.999.005 1.478.01.268.197.393.45.4.33.01.659.008.988 0 .314-.006.465-.237.617-.466.064-.096.15-.177.226-.264l.105.073c-.083.263-.158.53-.257.787-.024.063-.132.132-.201.132-1.012.008-2.024.005-3.035.002-.041 0-.082-.028-.204-.072.127-.06.187-.113.247-.113.355-.001.459-.193.456-.522-.01-.99-.008-1.982 0-2.972.004-.296-.055-.517-.403-.535-.02-.001-.044-.019-.06-.035-.014-.016-.02-.04-.058-.116.103-.02.191-.054.28-.054.834 0 1.67.005 2.504.016.07 0 .193.04.2.078.048.276.073.557.106.836l-.098.024zm5.08-.918h1.66l.068.109c-.047.012-.093.035-.14.036-.45.014-.48.334-.476.666.008.683-.01 1.37.047 2.049.072.886.506 1.302 1.265 1.308.724.005 1.219-.448 1.285-1.31.056-.726-.003-1.46-.012-2.19-.004-.3-.12-.497-.45-.51-.05-.002-.097-.04-.135-.142h1.525c-.023.059-.03.097-.04.098-.568.058-.535.476-.54.886-.01.659-.002 1.321-.068 1.976-.103 1.021-.746 1.54-1.772 1.499-1.01-.04-1.469-.418-1.637-1.354a2.06 2.06 0 0 1-.023-.352c-.003-.66-.007-1.32-.004-1.98.002-.334-.048-.618-.468-.64-.035 0-.068-.045-.103-.07l.019-.079zm21.999 4.318c.029-.048.04-.094.064-.101.562-.182.57-.18.577-.79.008-.79.005-1.58-.003-2.37-.004-.412.1-.893-.594-.931l.065-.102h2.982c.03.268.061.563.093.86l-.1.04c-.056-.08-.132-.155-.163-.245-.09-.265-.274-.385-.543-.434-1.085-.2-1.18-.126-1.18.957 0 .785-.001.778.77.75.293-.01.546-.028.56-.409.003-.064.049-.126.075-.188l.108.072v1.329l-.06.038c-.051-.07-.134-.137-.145-.213-.04-.273-.21-.329-.449-.34-.86-.037-.86-.041-.86.804 0 1.08.023 1.081 1.11 1.094.48.006.824-.134 1.022-.576.038-.087.049-.186.072-.279l.221.164c-.096.288-.186.579-.295.863-.015.042-.115.072-.176.073-1.011.002-2.023 0-3.034-.005-.036 0-.072-.036-.117-.06zm-2.249 23.24c-.719-.796-.807-1.309-.304-1.769.447-.409 1.312-.4 1.71.018.432.453.33.85-.413 1.622.831.728.987 1.387.457 1.933-.458.472-1.487.482-1.934.02-.499-.518-.342-1.107.484-1.824zm.506-1.848c-.368.01-.643.318-.63.704.012.34.53.876.821.848.221-.02.512-.49.504-.816-.009-.412-.324-.746-.695-.736zm.718 3.062c.006-.323-.12-.557-.433-.8-.489-.38-.902-.223-1.014.399-.03.17-.028.354.001.524a.75.75 0 0 0 .793.603c.406-.033.646-.299.653-.726zm-4.943-28.77h1.526l.024.093-.447.205 1.248 3.138c.098-.196.154-.291.197-.392.33-.78.651-1.562.987-2.34.12-.277.217-.52-.23-.552-.019-.001-.037-.027-.052-.045-.007-.007-.005-.021-.019-.09h1.404c-.023.056-.034.113-.05.114-.493.045-.624.454-.782.81-.48 1.085-.94 2.18-1.413 3.268-.041.094-.131.167-.199.25-.053-.083-.122-.16-.158-.25-.482-1.2-.948-2.406-1.448-3.598-.074-.175-.301-.286-.46-.425-.048-.041-.103-.074-.155-.111l.027-.075zm31.393 4.34c.024-.07.026-.105.04-.11.545-.202.54-.202.575-.793.03-.505-.041-.978-.308-1.422-.199-.332-.35-.692-.533-1.033-.205-.383-.322-.856-.95-.834l.08-.13h1.562l.014.09-.412.178.951 1.963 1.06-1.975-.446-.162c.151-.168 1.051-.203 1.335-.066-.012.03-.02.087-.038.09-.523.102-.698.548-.931.937-.103.171-.186.356-.303.516-.442.598-.576 1.265-.516 1.997.04.492.038.52.526.61.046.009.086.05.117.143h-1.823zm-5.597-.008c.041-.073.049-.105.064-.11.603-.174.603-.174.604-.827 0-.954-.007-1.908.005-2.862.003-.246-.076-.334-.322-.327-.52.015-1.057-.032-1.309.583-.009.024-.057.035-.09.043-.02.005-.045-.007-.112-.02l.262-1.026c.52.278 3.36.288 3.986.017l-.126 1.148c-.098-.084-.14-.106-.162-.14-.108-.167-.182-.448-.32-.484-.356-.091-.739-.08-1.111-.09-.036-.001-.106.144-.107.222-.004 1.119.004 2.237.004 3.356 0 .237.128.336.34.37.081.014.162.036.243.054l-.008.093h-1.841zm21.203.006h-1.772c.028-.062.04-.117.055-.118.452-.026.537-.304.53-.699-.017-.883-.01-1.768-.003-2.651.002-.347.003-.678-.458-.727-.02-.002-.033-.054-.08-.136h2.92v.932c-.081-.052-.122-.063-.134-.088-.25-.554-.939-.841-1.535-.626-.061.023-.14.112-.141.17-.011.527-.007 1.054-.007 1.611.353 0 .661-.036.958.009.428.064.359-.376.61-.62v1.482c-.083-.07-.13-.097-.159-.137-.097-.135-.172-.373-.286-.393-.33-.057-.677-.036-1.016-.022-.04.002-.107.144-.109.223-.008.388.003.777.005 1.166.001.312.137.488.467.48.05-.001.102.026.153.04l.002.104zm-27.801-3.47c-.043-.074-.093-.145-.127-.223-.158-.37-.438-.53-.835-.52-.293.008-.544.089-.668.369-.134.306-.107.625.15.845.32.273.682.495 1.026.74.418.299.668.685.65 1.22-.017.515-.267.881-.737 1.06-.513.193-1.039.16-1.546-.051-.077-.032-.173-.107-.191-.18-.069-.275-.109-.556-.16-.835l.125-.044c.056.096.118.19.168.29.157.318.368.57.729.666.417.112.819-.013.994-.32.192-.338.12-.817-.192-1.099-.164-.149-.359-.264-.541-.392-.173-.122-.362-.225-.52-.364-.381-.337-.623-.743-.48-1.277.152-.568.584-.816 1.121-.861.297-.025.604.052.903.099.065.01.16.08.17.138.048.23.068.467.098.702l-.137.037zm-55.852-.076l.256-1c.55.271 3.412.28 3.987.005l-.13 1.112c-.076-.033-.107-.036-.117-.052-.113-.18-.188-.47-.34-.518-.337-.106-.712-.103-1.073-.113-.06-.002-.179.152-.18.234-.008 1.095 0 2.19.005 3.285.002.277.129.44.424.45.063.001.124.045.168.15h-1.827l-.015-.083c.064-.023.128-.067.192-.067.35.001.48-.193.48-.514.002-1.06 0-2.12.008-3.18.001-.21-.075-.306-.288-.291-.21.014-.421.02-.632.032a.731.731 0 0 0-.647.416c-.041.078-.118.137-.178.205l-.093-.07zM148.513 95c.716-.044 1.385.21 1.905-.427.068.604-.16.873-.686.873h-2.141c.137-.14.205-.204.268-.273.474-.519.968-1.022 1.413-1.565.273-.333.367-.753.325-1.196-.032-.336-.169-.59-.495-.701-.34-.117-.69.002-.91.292-.078.1-.143.211-.236.35-.049-.073-.118-.128-.11-.17.074-.432.67-.868 1.196-.886.588-.02.992.242 1.124.75.106.412.014.809-.226 1.14-.358.495-.757.959-1.138 1.436-.078.098-.153.199-.29.377zm12.292-29.178c-.04.075-.044.093-.05.093-.589.04-.56.462-.555.883.01.86.015 1.72.002 2.58-.006.369.067.63.5.631.025 0 .049.041.14.124h-1.837c.077-.064.12-.13.164-.132.378-.019.452-.25.448-.577-.01-.93-.012-1.861.001-2.791.005-.368-.027-.67-.493-.68-.025 0-.049-.042-.144-.131h1.824zm-24.62 4.316h-1.744c.015-.06.017-.081.021-.082.576-.071.575-.489.57-.926-.01-.813-.002-1.626-.006-2.439-.001-.36.01-.735-.51-.74-.032 0-.062-.029-.093-.044l.03-.088h1.757c-.09.078-.134.152-.18.152-.396.008-.444.272-.444.579 0 .92.005 1.838-.004 2.757-.004.377.043.693.52.706.018.001.035.053.082.125zm1.248 21.6l1.252-.44v.594l-.002 2.577c0 .658 0 .658.542.86-.179.152-1.325.173-1.608.03.01-.02.02-.06.03-.06.535.006.52-.357.512-.74-.013-.729-.017-1.459 0-2.188.009-.347-.092-.543-.465-.537-.058.001-.117-.04-.261-.095zm8.978.067c-.805.114-1.585-.242-2.315.283l.217-.706h2.682l-2.24 4.474c-.3-.065-.199-.217-.124-.37.53-1.074 1.06-2.15 1.586-3.225.06-.123.108-.252.194-.456zm-71.744-.067c-.275-1.163-1.865-2.201-2.975-1.941.141 1.291 1.4 2.2 2.975 1.94zm3.622-1.91c-1.227-.218-2.732.777-2.988 1.953 1.597.183 2.778-.607 2.988-1.953zm-3.228 1.176c1.235-1.38 1.284-3.787.1-5.049-1.279 1.252-1.329 3.745-.1 5.049zm7.294-21.297h-6.318c-.167.001-.367-.055-.366.238.006 1.215 0 2.43.007 3.644 0 .08.047.195.108.23.257.148.62-.007.726-.288.34-.902.795-1.734 1.465-2.437.277-.29.591-.498 1.01-.51.576-.016 1.152-.048 1.727-.061.506-.012.507-.004.507.497v11.64c0 .119.002.237-.01.354-.06.665-.36 1.008-1.013 1.123a10.41 10.41 0 0 1-1.19.141c-.328.02-.25.243-.262.43-.012.196.018.337.278.336 2.212-.006 4.424-.006 6.635 0 .218 0 .31-.08.28-.29-.026-.182.117-.438-.245-.475-.361-.037-.718-.12-1.074-.2-.883-.199-1.14-.523-1.14-1.421v-7.96c0-1.275.007-2.548-.006-3.822-.003-.283.092-.372.365-.36.505.024 1.011.03 1.517.028.63-.002 1.13.24 1.536.726a7.153 7.153 0 0 1 1.307 2.289c.126.37.382.308.616.265.081-.015.174-.24.176-.371.014-1.12-.004-2.241.015-3.361.005-.32-.102-.393-.404-.392-2.082.012-4.165.007-6.247.007zm-17.46-3.572h-6.413c-.118.684-.114.69.501.812 1.248.248 1.542.61 1.542 1.895 0 2.878.009 5.755-.003 8.632-.007 1.804.828 3.09 2.39 3.899 1.576.816 3.255.973 4.976.582 2.703-.613 4.093-2.37 4.093-5.13.001-2.252-.013-4.504.013-6.756.008-.644.108-1.29.21-1.928.08-.506.401-.85.9-.988a9.33 9.33 0 0 1 1.1-.245c.25-.038.352-.14.318-.39-.018-.124-.018-.25-.026-.375h-6.284c-.075.68-.074.673.538.808.332.073.662.16.987.263.51.163.85.51.955 1.04.1.494.22.997.224 1.497.025 2.5.04 5 .007 7.5a3.654 3.654 0 0 1-2.859 3.547 5.84 5.84 0 0 1-2.52.025c-1.186-.25-2.04-.934-2.408-2.095a6.378 6.378 0 0 1-.272-1.84c-.028-2.83-.013-5.66-.012-8.49 0-.142.002-.284.017-.424.05-.457.28-.772.739-.88.308-.074.62-.149.933-.18.292-.03.43-.14.377-.445-.017-.101-.015-.206-.024-.334z" opacity=".301" fill="#D4E1ED"/></g></svg>