<svg height="160" viewBox="0 0 230 160" width="230" xmlns="http://www.w3.org/2000/svg"><path d="m46.6840746 69.2738053c.3697889-.3650737.9702161-.3650737 1.340005 0l14.6850343 14.4868931-7.3359595 7.2383451-7.3481151-7.2501422c-.3697889-.364755-.9702161-.364755-1.340005 0l-7.3490748 7.2510987-7.3359595-7.2383451zm64.8240604 1.9576883c4.791901 0 8.690999 3.8621299 8.690999 8.6087268s-3.899098 8.6087269-8.690999 8.6087269-8.690999-3.86213-8.690999-8.6087269 3.899098-8.6087268 8.690999-8.6087268zm35.477664.3421172c.095326 0 .172738.0822611.172738.1766383v16.1799427c0 .1001163-.08349.1766383-.178496.1766383h-2.684809c-.005758-.0057392-.011835-.0057392-.017913-.0057392 0 0-.005758-.0060579-.011836-.0060579-.002879 0-.006078-.0012754-.008957-.0028696-.002879-.0012754-.005758-.0028696-.008957-.0028696-.002879 0-.004478-.0015942-.005758-.0028696-.001599-.0015942-.003199-.0031884-.006078-.0031884-.002879-.0028696-.006077-.0041449-.008956-.0057391-.002879-.0015943-.005758-.0028696-.008957-.006058l-.011836-.0117972-.011836-.0117971-.006078-.0057392-9.0835-11.3150555v11.2088812c0 .1001163-.08349.1769572-.178816.1769572h-2.660817c-.101084 0-.178497-.08258-.178497-.1769572v-16.1796238c0-.1001163.083171-.1769572.178497-.1769572h2.672653c.065576 0 .119317.0414495.149067.0943772l9.059828 11.3032583v-11.2267363c0-.1001163.083171-.1766383.178497-.1766383zm-53.5023143 0c.0953262 0 .1788166.0822611.1845745.1708991v2.6355458c0 .1004352-.0831705.1769572-.1784967.1769572h-5.1549726v13.3731789c0 .1001163-.0834904.1766383-.1784967.1766383h-2.6608168c-.101404 0-.1788166-.08258-.1788166-.1766383v-13.3671209h-5.1549726c-.1010842 0-.1784967-.08258-.1784967-.1769572v-2.6358646c0-.1001163.0834904-.1766383.1784967-.1766383zm98.8372833 0c.102363 0 .179136.0822611.179136.1766383v13.3671209h6.327357c.095966 0 .172739.08258.172739.1769572v2.6358646c0 .1001163-.083171.1766383-.179136.1766383h-9.161553c-.099165 0-.179136-.08258-.179136-.1766383v-16.1799427c0-.1001163.086369-.1766383.179136-.1766383zm-22.548807-.0178552c.073574 0 .131154.0414495.159943.1061743l7.066295 16.197479c.025591.0529277.019194.1179715 0 .1648412-.035187.0471886-.089568.0768408-.147147.0768408l-2.773417-.0178551c-.073574 0-.131154-.0411306-.163142-.1058554l-5.610811-12.6066834-5.61401 12.6066834c-.031989.0647248-.089569.1058554-.159944.1058554l-2.776615.0178551c-.05758 0-.118358-.0296522-.147148-.0768408-.02879-.0468697-.035188-.1119135-.012796-.1648412l7.066295-16.197479c.02879-.0647248.089569-.1061743.159944-.1061743zm-58.257748 2.7181258c-3.095543 0-5.619448 2.5003569-5.619448 5.566339 0 3.0659822 2.523905 5.566339 5.619448 5.566339 3.095223 0 5.619128-2.4942988 5.619128-5.566339 0-3.0720401-2.523905-5.566339-5.619128-5.566339z" fill="#ffffff" fill-rule="evenodd" opacity="1"/></svg>