<svg width="32" height="32" viewBox="0 0 32 32" xmlns="http://www.w3.org/2000/svg"><path d="M0 16C0 7.163 7.163 0 16 0s16 7.163 16 16-7.163 16-16 16S0 24.837 0 16zm2 0C2 8.268 8.268 2 16 2s14 6.268 14 14-6.268 14-14 14S2 23.732 2 16zm14.906-2.056l.032.519-.533-.064c-1.94-.243-3.636-1.07-5.076-2.457l-.704-.689-.181.509c-.384 1.133-.139 2.33.661 3.135.427.445.33.509-.405.244-.256-.085-.48-.148-.501-.117-.075.075.181 1.038.384 1.42.277.53.842 1.048 1.46 1.356l.523.243-.618.01c-.598 0-.619.011-.555.234.213.688 1.056 1.42 1.994 1.737l.661.223-.575.339a6.079 6.079 0 0 1-2.858.783c-.48.01-.875.053-.875.085 0 .106 1.301.7 2.058.932 2.272.689 4.97.392 6.996-.784 1.44-.836 2.88-2.5 3.551-4.11.363-.858.725-2.425.725-3.177 0-.488.032-.551.63-1.134.351-.339.682-.71.746-.815.107-.202.096-.202-.448-.021-.906.317-1.034.275-.586-.202.33-.339.725-.953.725-1.133 0-.032-.16.021-.341.116-.192.106-.619.265-.939.36l-.576.18-.522-.349c-.288-.19-.694-.402-.907-.466-.544-.148-1.375-.127-1.866.042-1.333.477-2.176 1.706-2.08 3.051z" fill="#FFF" fill-rule="evenodd"/></svg>