<svg width="230" height="160" viewBox="0 0 230 160" xmlns="http://www.w3.org/2000/svg"><g fill="none" fill-rule="evenodd"><path d="M132.367 45.026h-32a17.891 17.891 0 0 1 2.964-3.933c2.795-2.807 6.144-4.593 10.062-5.212a18.274 18.274 0 0 1 18.974 9.145zM84.42 89.649c.01-.112.029-.224.026-.336-.059-2.416-.118-4.831-.185-7.247a4.867 4.867 0 0 0-.096-.765c-.1-.524-.343-.765-.872-.845-.276-.041-.558-.046-.838-.053-.172-.005-.258-.066-.256-.248.013-.965-.117-.775.74-.775 1.26 0 2.521.003 3.781-.015.284-.004.38.075.375.36-.012.626.001.627-.608.69-.714.075-.84.175-.893.877-.06.803-.102 1.609-.104 2.413-.007 2.944.006 5.888.01 8.832.001.107.002.215 0 .322-.014.653-.32.833-.889.51a1.513 1.513 0 0 1-.395-.324c-.7-.816-1.393-1.64-2.088-2.46-.069-.081-.141-.16-.237-.267-.015.195-.015.352-.043.503a.701.701 0 0 1-.692.601c-.461.018-.78-.15-.817-.55-.068-.715-.701-.902-1.375-.71a1.698 1.698 0 0 0-1.111.97c-.346.793-.63 1.613-.916 2.431-.148.422-.241.864-.368 1.331.127.011.219.026.31.026 2.793-.002 5.586-.003 8.378-.007.48-.001.48-.008.48.468 0 .086-.007.172.001.257.026.24-.088.324-.32.322-.474-.002-.948.001-1.422.021-.888.039-1.199.384-1.004 1.232.297 1.293.595 2.593 1.003 3.854 1.083 3.345 2.225 6.672 3.344 10.005.033.098.076.192.143.363.08-.166.133-.265.177-.368a136.239 136.239 0 0 0 4.114-10.893c.343-1.05.69-2.098.993-3.159.192-.672-.078-.993-.78-1.037-.236-.015-.478.009-.709-.033-.099-.017-.176-.155-.262-.24-.006-.005-.001-.02-.002-.03-.06-.766-.06-.758.703-.757 1.897.003 3.794.004 5.691-.01.285-.003.378.072.366.36-.032.737.126.716-.692.684-1.191-.047-2.043.516-2.534 1.515a84.1 84.1 0 0 0-2.267 5.048c-1.71 4.146-3.376 8.31-5.062 12.465a2.36 2.36 0 0 1-.263.512c-.163.222-.344.213-.487-.02a2.944 2.944 0 0 1-.252-.556c-1.172-3.293-2.358-6.582-3.503-9.885-.868-2.501-1.679-5.022-2.526-7.53a6.412 6.412 0 0 0-.461-1.024.931.931 0 0 0-.847-.5c-.842-.013-1.683-.024-2.523-.05-.228-.007-.286.111-.342.294-.554 1.803-1.095 3.611-1.682 5.404-.532 1.622-1.133 3.22-2.044 4.68-.454.726-.979 1.39-1.722 1.85-.559.344-1.165.496-1.822.408-.53-.07-.953-.426-1.076-.894a.821.821 0 0 1 .355-.896c.316-.194.73-.174.977.104.158.177.265.41.356.633.125.31.293.444.59.3.29-.14.581-.334.796-.573.583-.648.957-1.434 1.231-2.247.606-1.798 1.17-3.61 1.738-5.42.343-1.094.661-2.196.99-3.295.029-.1.049-.201.084-.347h-1.904c.108-.315.174-.58.293-.817.04-.08.214-.127.33-.13.42-.016.841-.015 1.261-.004.201.006.314-.052.381-.254.149-.444.322-.88.52-1.414-.649 0-1.237-.011-1.825.003-.528.013-1.056.047-1.583.085-.203.015-.303-.033-.29-.257.014-.254.003-.51.003-.801h.58c.74-.001 1.144-.38 1.164-1.116.03-1.138.06-2.277.067-3.415.012-1.87.007-3.74.006-5.609 0-1.155-.565-1.755-1.725-1.788-.31-.008-.377-.115-.372-.395.017-.788-.044-.638.661-.637 1.044.002 2.089.01 3.134.002a.905.905 0 0 1 .773.372c2.54 3.16 5.09 6.315 7.639 9.47.131.162.274.316.411.473l.111-.047zm-9.527-7.913c-.017.166-.032.237-.031.308.023 2.469.042 4.938.077 7.407.009.6.042 1.203.126 1.796.043.305.174.626.355.874.256.35.68.281.907-.085.153-.246.306-.493.479-.725 1.24-1.666 2.612-2.15 4.507-1.615l-6.42-7.96zm27.396 8.543l.197-.533c1.035-2.807 2.072-5.613 3.105-8.42.278-.756.177-.909-.645-.91-.306-.001-.384-.107-.375-.393.022-.752-.078-.65.65-.646 4.519.019 9.037.032 13.555.043.28.001.56-.047.84-.035.093.003.239.101.267.186.336 1.04.657 2.086.974 3.132.047.156.195.344-.078.462-.255.112-.461.258-.722-.062-.57-.7-1.193-1.357-1.793-2.033-.396-.446-.9-.65-1.488-.661-.981-.02-1.962-.032-2.943-.055-.194-.005-.272.058-.271.256.004 1.59.004 3.18 0 4.77 0 .184.045.28.256.264.612-.045 1.23-.045 1.837-.121.91-.115 1.291-.558 1.348-1.474.005-.084.014-.167.024-.278.259 0 .503-.003.748 0 .218.003.182.161.182.301-.003.988-.01 1.975-.002 2.963.003.332.038.664.07.995.02.214-.072.279-.276.291-.588.036-.593.045-.761-.524-.173-.582-.545-.945-1.155-1.025-.732-.096-1.467-.171-2.242-.26-.013.214-.028.339-.026.463.02 1.322.033 2.643.065 3.964.025 1.027.488 1.514 1.514 1.52.87.005 1.747-.014 2.606-.132.743-.101 1.36-.527 1.831-1.123.413-.523.815-1.054 1.212-1.59.151-.204.29-.327.56-.178.467.256.484.263.358.638-.327.964-.66 1.927-.982 2.893-.106.318-.288.447-.644.441a751.807 751.807 0 0 0-8.151-.1c-.786-.006-1.573.052-2.359.1-.292.018-.408-.063-.4-.371.023-.803-.08-.682.683-.7.301-.007.602-.033.902-.062.317-.031.482-.207.48-.532l-.03-9.153a34.033 34.033 0 0 0-.03-1.257c-.026-.619-.249-.854-.87-.881a23.456 23.456 0 0 0-1.615-.017c-.688.017-1.188.353-1.482.97-.527 1.104-1.07 2.201-1.556 3.322-1.177 2.717-2.325 5.447-3.485 8.171-.063.148-.137.292-.204.438-.098.216-.267.382-.498.32-.17-.046-.377-.187-.445-.34-.245-.548-.444-1.116-.648-1.68-1.188-3.288-2.373-6.576-3.56-9.864a5.313 5.313 0 0 0-.257-.625c-.231-.45-.572-.756-1.115-.736-.239.008-.32-.079-.314-.318.022-.854-.107-.717.706-.716 1.584.004 3.168-.004 4.752-.012.408-.002.418-.005.414.405-.006.7.1.631-.637.638-.13 0-.26-.005-.388.006-.712.063-.893.274-.698.963.28.99.616 1.963.934 2.942.605 1.866 1.214 3.73 1.823 5.595.042.127.097.249.145.373l.107-.008zm63.537 15.791c-.744 0-1.488.006-2.232-.003-.204-.003-.305.067-.376.26-.354.968-.725 1.928-1.084 2.893-.063.17-.115.348-.136.527-.055.46.151.687.617.698.248.007.496.006.744.001.175-.003.259.069.255.248-.021.934.159.838-.806.795-.722-.031-1.444-.074-2.166-.073-2.049.001-4.097.02-6.146.038-.475.004-.949.03-1.422.061-.234.015-.336-.065-.336-.305 0-.938-.046-.74.715-.765.322-.01.645-.024.964-.065.32-.041.49-.255.518-.57.02-.223.024-.45.024-.675-.001-3.17-.003-6.338-.01-9.507-.001-.8-.215-1.018-1.027-1.068-.334-.02-.668-.032-1.002-.03-.218 0-.3-.078-.307-.302-.02-.75-.028-.75.717-.739 1.208.02 2.415.052 3.622.057.657.002 1.315-.036 1.972-.068.227-.012.297.068.3.292.012.74.02.74-.719.769-1.024.039-1.14.149-1.145 1.179-.011 2.911-.016 5.823-.017 8.734 0 .332.018.666.055.996.057.505.344.838.84.937 1.071.212 1.94-.019 2.418-1.112 1.48-3.38 2.987-6.75 4.484-10.124.12-.27.225-.527-.03-.796-.12-.127-.052-.277.119-.32a4.648 4.648 0 0 0 1.999-1.067c.205-.185.409-.081.52.234.477 1.344.95 2.69 1.427 4.034.95 2.677 1.895 5.356 2.854 8.03.223.62.699 1 1.337 1.148.237.055.494.038.74.032.198-.005.27.077.272.264.009.97.027.796-.747.796-1.562 0-3.124.003-4.687.008-.522.002-.522.007-.523-.507v-.13c.001-.426.001-.426.422-.428.064 0 .13.002.194-.001.368-.02.599-.271.493-.626a124.293 124.293 0 0 0-1.139-3.586c-.027-.082-.217-.154-.332-.157-.744-.014-1.488-.007-2.233-.007zm-2.093-.945h4.223c-.004-.062.001-.095-.007-.123-.543-1.76-1.086-3.52-1.635-5.278-.029-.09-.121-.16-.184-.24-.07.074-.17.136-.208.224-.225.533-.436 1.072-.652 1.61l-1.537 3.807zm9.3-18.95c.836-1.246 1.64-2.44 2.441-3.635.222-.33.445-.66.657-.997.084-.134.154-.283.205-.434.124-.371.012-.557-.37-.612a3.905 3.905 0 0 0-.58-.03c-.209.001-.294-.094-.287-.295.006-.14.01-.28 0-.419-.019-.253.093-.346.344-.332.57.033 1.142.073 1.713.071a50.058 50.058 0 0 0 2.423-.068c.305-.015.425.054.415.38-.019.623 0 .642-.618.672-.622.03-1.113.254-1.486.767-1.385 1.904-2.785 3.797-4.17 5.7a.745.745 0 0 0-.122.419c.007 1.374.022 2.75.046 4.124.012.627.26.868.889.908.064.004.13-.001.194.005.21.018.57-.014.601.07.09.249.071.546.044.82-.007.067-.206.165-.317.165-.431.002-.862-.05-1.293-.047-1.325.01-2.65.024-3.976.06-.313.008-.419-.08-.412-.393.02-.813-.05-.666.67-.674 1.037-.012 1.206-.165 1.215-1.187.01-1.182.01-2.363.005-3.545a.788.788 0 0 0-.115-.421 1184.36 1184.36 0 0 0-4.273-6.18c-.275-.394-.67-.577-1.194-.551.16.76.296 1.495.476 2.219.078.315 0 .45-.305.531-.542.145-.53.153-.786-.334-.22-.418-.47-.82-.694-1.235-.376-.696-.952-1.035-1.748-1.052-.754-.017-1.507-.069-2.26-.115-.245-.015-.338.057-.337.321.014 3.513.015 7.027.025 10.54.002.78.246 1.007 1.034 1.007h.744c.064.001.15-.017.19.017.28.236.13.558.13.84 0 .07-.211.2-.324.198-.83-.014-1.66-.082-2.489-.079-1.132.004-2.263.053-3.395.086-.459.013-.482-.003-.483-.452-.002-.749-.012-.595.6-.61.216-.004.432 0 .647 0 .682-.003.898-.204.91-.873.026-1.558.056-3.115.065-4.673.01-1.987-.003-3.975.008-5.962.002-.275-.062-.392-.356-.368-.89.07-1.783.122-2.674.187-.335.025-.64.147-.843.418-.476.633-.95 1.27-1.394 1.924-.235.346-.2.35-.762.145-.315-.115-.261-.299-.193-.533.285-.978.572-1.955.833-2.939.073-.277.172-.368.475-.358 2.413.08 4.827.173 7.24.191 2.728.02 5.457-.03 8.185-.059.765-.008 1.53-.037 2.295-.079.306-.016.451.076.416.392-.007.064 0 .129-.001.193-.001.454-.001.454-.47.462-.065.001-.13.001-.194.007-.568.053-.674.267-.369.75.96 1.517 1.921 3.033 2.882 4.548.08.126.166.247.272.403zM69.245 83.188c-.034-1.75-.063-3.501-.104-5.252a5.743 5.743 0 0 0-.107-.99c-.147-.732-.583-1.088-1.33-1.11-.366-.01-.733-.007-1.1-.001-.173.003-.246-.059-.262-.239-.07-.799-.074-.788.733-.786 1.983.003 3.967 0 5.95-.014.288-.002.405.07.398.374-.018.812.024.646-.652.663-.204.005-.41-.004-.614.003-.807.031-1.204.392-1.292 1.191-.033.299-.048.6-.051.9-.029 2.718-.04 5.436-.084 8.153-.024 1.458-.025 2.924-.439 4.344-.78 2.685-2.574 4.287-5.316 4.784-1.798.325-3.61.276-5.378-.237-2.293-.665-3.683-2.186-4.022-4.54a34.39 34.39 0 0 1-.323-4.297c-.05-2.889-.016-5.78-.023-8.67 0-.288-.021-.58-.067-.864-.07-.431-.312-.68-.75-.719a15.04 15.04 0 0 0-1.484-.042c-.255.002-.342-.09-.338-.338.01-.809-.059-.695.677-.694 2.393.003 4.787-.001 7.18-.006.45-.001.453-.01.45.432-.005.65.087.593-.61.602-.442.006-.886 0-1.323.05-.647.077-1.101.582-1.1 1.23.008 3.308.02 6.616.051 9.924.01.964.04 1.934.148 2.892.316 2.777 2.119 4.056 4.496 4.352a7.3 7.3 0 0 0 3.004-.27c1.983-.588 3.082-1.962 3.443-3.945.125-.682.186-1.384.198-2.078.029-1.6.01-3.201.01-4.802h.03zM97.809 59.26c.226.227.487.372.532.566.048.207-.109.461-.204.79.167-.101.264-.152.352-.215.5-.357.337-.336.808-.008.087.06.177.114.354.227-.068-.252-.095-.425-.162-.58-.095-.22-.046-.361.16-.48.142-.084.266-.2.398-.3a38.525 38.525 0 0 0-.024-.082c-.164-.008-.33-.034-.491-.02-.243.02-.385-.055-.432-.309a.97.97 0 0 0-.232-.45c-.062.162-.127.323-.185.486-.096.268-.317.343-.749.268-.257-.045-.17-.242-.17-.382 0-.849.012-1.697.022-2.546.002-.24.396-.69.616-.69.065 0 .135.054.196.094.159.106.314.218.54.292-.044-.164-.073-.334-.138-.49-.086-.21-.064-.36.148-.479.146-.082.273-.198.396-.385-.174 0-.35-.013-.522.003-.22.02-.34-.055-.39-.277-.038-.174-.117-.338-.213-.604-.11.282-.173.48-.267.66-.045.088-.153.143-.232.212-.044-.086-.121-.17-.127-.258-.017-.256-.002-.515-.007-.773-.004-.186.066-.27.266-.269 2.221.004 4.443.004 6.665 0 .188 0 .244.082.237.255-.008.225-.001.45-.001.676 0 4.545 0 9.09-.005 13.634 0 .152.118.384-.193.421-.54.064-.697.014-.8-.287-.165-.473-.164-.472.246-.779a.61.61 0 0 0 .22-.27c-.163-.008-.328-.033-.49-.02-.24.02-.386-.05-.433-.306a.965.965 0 0 0-.231-.447c-.056.14-.134.277-.165.424-.053.255-.183.364-.45.33-.153-.021-.31-.005-.467-.005l-.04.1c.147.111.284.239.442.33.276.16.145.367.086.564-.057.194-.094.377-.39.373-1.391-.016-2.782-.01-4.174-.005-.203 0-.325-.04-.325-.28-.005-2.825-.015-5.65-.023-8.476 0-.04.016-.08.048-.233zm35.967-.91c-.04.705-.41.958-1.09.788l.006.113c.134.107.258.23.404.315.208.12.251.261.156.477-.068.153-.101.32-.091.533.151-.103.312-.194.452-.31.158-.132.288-.145.449-.001.133.12.292.21.507.278-.027-.104-.05-.21-.082-.311-.169-.528-.17-.528.38-.827.011.117.03.216.03.315.002 2.717-.002 5.434.007 8.152.001.292-.085.389-.386.386a133.729 133.729 0 0 0-3.978.003c-.363.007-.409-.199-.503-.449-.092-.242-.066-.4.169-.529.137-.076.255-.187.368-.362-.118-.01-.238-.042-.352-.025-.359.052-.576-.064-.626-.445-.014-.108-.082-.21-.176-.346-.096.662-.436.956-1.126.758l-.007.124c.15.117.29.252.454.345.226.127.18.294.1.465-.086.183-.036.49-.385.454h-.032c-.568.015-.568.015-.568-.54V53.727c0-.459 0-.46.452-.46 2.07 0 4.14.007 6.21-.006.301-.002.409.088.385.383-.02.234.006.473-.012.708-.006.074-.088.143-.135.214-.056-.053-.137-.096-.165-.162-.087-.2-.153-.41-.3-.618-.059.154-.138.304-.171.463-.054.259-.187.36-.45.326-.154-.02-.311-.004-.466-.004l-.02.079c.14.109.27.232.422.322.18.108.224.23.141.424-.07.164-.11.34-.109.562.137-.087.276-.169.409-.26.317-.221.837-.001.844.383.017.945.01 1.89-.002 2.835-.001.08-.125.23-.183.227-.213-.017-.493.152-.622-.164-.075-.185-.133-.378-.198-.567l-.11-.062zm-4.488 28.496c.778.299 1.172.872 1.583 1.42.606.808 1.19 1.633 1.796 2.441.2.265.44.501.665.746.425.461.956.693 1.582.675.273-.008.352.095.352.356-.002.69.008.674-.673.663a75.904 75.904 0 0 0-2.747.004c-.266.005-.457-.06-.597-.283-.594-.945-1.19-1.889-1.785-2.833-.394-.628-.77-1.267-1.184-1.88-.585-.868-1.44-1.097-2.435-.966-.197.026-.281.09-.28.299.007 1.235-.004 2.47.006 3.705.006.642.322.934.97.942.064 0 .129-.004.193 0 .221.019.592-.023.633.072.1.239.073.543.047.816-.006.067-.202.165-.311.165-.453.002-.905-.047-1.357-.044-1.271.007-2.542.026-3.813.054-.258.005-.37-.057-.371-.336-.002-.703-.013-.703.706-.729.75-.027.976-.255.978-1.007.006-3.222.01-6.444.013-9.666.001-.942-.235-1.21-1.188-1.25-.495-.02-.422-.111-.425-.475 0-.075.007-.15-.002-.225-.031-.265.075-.363.348-.349.71.038 1.422.077 2.133.073 1.218-.007 2.435-.044 3.653-.072 1.022-.024 2.019.102 2.976.478 1.215.477 2.042 1.331 2.223 2.623.194 1.395-.294 2.603-1.468 3.433-.565.399-1.222.667-1.839.992-.09.048-.19.08-.382.158zm-3.793-3.752c0 .827.011 1.654-.006 2.48-.007.288.08.423.375.41.548-.025 1.106.012 1.643-.076 1.38-.225 2.385-.944 2.813-2.328.344-1.11-.055-2.41-.914-2.971-.943-.617-1.994-.842-3.107-.79-.593.028-.802.268-.804.858-.002.806 0 1.611 0 2.417zm-14.993 22.065c.865.372 1.293 1.094 1.791 1.747.684.897 1.355 1.805 2.057 2.687.458.576 1.063.9 1.827.853.175-.01.246.06.26.24.062.803.066.787-.74.77a62.805 62.805 0 0 0-2.683.01c-.256.006-.439-.057-.572-.269-.612-.972-1.224-1.944-1.834-2.917-.36-.573-.709-1.153-1.075-1.722-.605-.94-1.501-1.195-2.555-1.033-.082.013-.206.156-.207.24a143.94 143.94 0 0 0 .005 3.866c.01.547.323.805.877.815.216.004.431 0 .647.002.064 0 .183-.003.185.012.05.281.096.564.119.849.016.2-.141.21-.29.204-.42-.019-.84-.058-1.26-.055-1.282.008-2.564.031-3.846.052-.455.008-.468.003-.467-.43.002-.724-.07-.624.642-.635.139-.002.28-.008.417-.036.434-.09.606-.294.618-.734.01-.386.005-.773.007-1.16l.033-8.507v-.29c-.015-.86-.272-1.125-1.134-1.176-.476-.028-.476-.028-.477-.492 0-.086.007-.172-.001-.257-.023-.232.06-.346.31-.314.127.016.258.01.388.01 1.8-.003 3.6.004 5.399-.013 1.224-.012 2.412.135 3.5.726 1.073.581 1.709 1.496 1.754 2.713.048 1.29-.45 2.387-1.54 3.127-.555.377-1.187.643-1.785.956-.1.053-.209.092-.37.161zm-3.176-3.741c0 .837.009 1.675-.005 2.513-.004.266.092.372.353.36.57-.026 1.149.015 1.706-.078 1.354-.227 2.33-.948 2.768-2.297.358-1.105-.012-2.662-1.393-3.275a5.813 5.813 0 0 0-2.603-.511c-.582.02-.822.263-.825.84-.004.816 0 1.632 0 2.448zm42.415 6.512c.01-.112.03-.224.026-.335-.06-2.437-.122-4.874-.19-7.31-.005-.214-.038-.428-.071-.64-.091-.59-.41-.883-1.012-.93a7.459 7.459 0 0 0-.646-.026c-.224.002-.337-.073-.332-.319.015-.87-.089-.72.707-.72 1.271-.001 2.543.004 3.814-.012.277-.004.385.063.375.356-.027.77.1.668-.693.713-.568.033-.787.226-.802.789a197.23 197.23 0 0 0-.08 4.282c-.012 2.439-.002 4.878-.003 7.316 0 .118-.014.237-.04.351-.067.288-.282.436-.553.32-.258-.11-.535-.258-.713-.466a432.578 432.578 0 0 1-5.185-6.14c-1.265-1.537-2.473-3.119-3.708-4.68-.111-.14-.232-.274-.415-.49-.02.188-.04.283-.04.377.022 2.385.038 4.77.072 7.155.01.643.068 1.286.118 1.928.015.19.062.383.128.562.167.459.38.592.874.597.627.007.54-.086.549.547.002.159 0 .317 0 .505h-.575l-3.49-.003c-.021 0-.043.003-.064.005-.504.035-.504.035-.504-.453v-.601h.587c.758-.001 1.147-.38 1.159-1.147.028-1.869.056-3.738.074-5.607.01-1.139.007-2.278.001-3.416-.005-1.12-.54-1.674-1.665-1.743-.425-.026-.427-.026-.425-.472.002-.683-.049-.577.588-.575 1.012.001 2.025.014 3.036 0 .433-.007.738.127 1.02.478 2.528 3.157 5.074 6.3 7.617 9.446.111.137.238.263.357.394l.104-.036zm-23.6-2.585c.939 0 1.877.008 2.814-.006.26-.003.363.058.361.336-.005.65.008.65-.659.686-.68.035-.92.285-.92.96v1.965c0 .108-.002.216.013.322.086.61.083.6-.473.86-1.76.82-3.612 1.259-5.548 1.09-2.805-.243-5.146-1.363-6.253-4.11-1.06-2.63-1.03-5.256.755-7.639 1.125-1.5 2.706-2.293 4.52-2.644 1.621-.314 3.216-.248 4.745.443.234.106.46.235.676.375.358.232.36.231.593-.115.071-.105.192-.214.31-.243.222-.055.38.009.415.297.13 1.096.286 2.19.432 3.285.061.46-.175.723-.655.684-.089-.007-.194-.147-.242-.249a7.83 7.83 0 0 0-1.982-2.635c-1.474-1.266-3.455-1.38-5.037-.247-1.66 1.189-2.486 2.853-2.552 4.866-.057 1.744.33 3.387 1.374 4.835 1.314 1.822 3.416 2.462 5.452 1.671.719-.28 1.146-.731 1.11-1.543-.017-.407.014-.816.003-1.224-.015-.53-.238-.835-.76-.929-.43-.077-.877-.08-1.317-.086-.241-.003-.348-.055-.346-.324.006-.684-.007-.681.682-.679.83.003 1.66 0 2.49 0v-.002zm-1.07-35.72c.007.746-.585.407-.976.55.131.105.225.202.337.266.266.15.363.34.217.631a.74.74 0 0 0-.061.436c.145-.096.303-.178.434-.29.17-.148.31-.145.48 0 .133.115.292.198.497.25-.036-.118-.056-.244-.109-.355-.14-.294-.12-.523.209-.677.11-.051.2-.149.331-.25-.368-.17-.998.193-.972-.6.302 0 .609-.012.913.011.059.004.152.147.153.226.01 1.138.003 2.277.01 3.415.001.24-.135.249-.314.248-1.154-.003-2.308-.002-3.461-.002-1.79 0-3.58-.003-5.37.005-.233 0-.37-.042-.453-.29-.081-.242.01-.352.192-.466.14-.087.266-.197.398-.297l-.03-.102c-.133 0-.267-.015-.398.003-.319.044-.513-.057-.562-.397-.018-.122-.089-.235-.17-.44-.093.24-.17.399-.214.566-.052.2-.157.287-.367.27-.178-.013-.359-.002-.538-.002l-.044.098c.153.116.301.24.462.345.158.104.205.216.132.402-.07.18-.123.312-.369.311-2.954-.009-5.909-.007-8.863-.002-.215 0-.31-.05-.307-.286.01-1.107.009-2.213 0-3.32-.001-.218.064-.317.294-.305.234.012.469.003.71.003.033.78-.572.459-.968.592.112.096.185.188.28.234.355.172.415.417.235.754-.05.095-.055.213-.104.412.22-.15.37-.233.495-.343.176-.154.327-.162.506-.005.126.112.278.195.506.35-.067-.25-.09-.414-.155-.56-.105-.234-.077-.398.166-.525.136-.072.248-.188.401-.308-.37-.162-.969.195-.98-.556h17.427zm-10.756-22.884l-1.502.921c-2.422 1.485-4.842 2.973-7.27 4.448-.181.11-.418.178-.63.18-2.253.012-4.507.001-6.76.014-.314.001-.406-.092-.403-.4.013-1.6.01-3.201 0-4.801-.001-.279.083-.368.37-.368 5.294.008 10.588.006 15.882.006h.313zm4.378-.006h15.698c.43 0 .432 0 .432.42 0 1.578-.009 3.156.008 4.734.003.334-.105.411-.426.41-2.274-.014-4.548-.006-6.822-.011-.144 0-.314-.015-.43-.089-2.795-1.797-5.585-3.604-8.46-5.464zm21.816 46.599c-1.415-.01-2.503-.314-3.467-1.023-.368-.27-.464-.243-.633.171-.083.202-.206.296-.422.245-.212-.05-.295-.182-.275-.402.114-1.228.22-2.458.33-3.687.016-.183.112-.27.3-.25.117.014.234.034.352.041.238.015.347.135.341.374-.018.733.242 1.387.591 2.013.853 1.527 2.9 1.938 4.3.886 1.12-.842.965-2.254.324-3.171-.434-.622-1.075-.978-1.751-1.277-.924-.408-1.869-.775-2.766-1.235-1.722-.883-2.205-2.557-1.872-4.34.292-1.57 1.407-2.502 2.969-2.823 1.214-.25 2.422-.204 3.56.377.176.09.313.065.393-.125.113-.266.353-.255.545-.185.096.035.168.243.182.38.102 1.035.179 2.073.283 3.108.026.264-.066.367-.314.408-.233.04-.44.139-.564-.2-.195-.532-.398-1.07-.678-1.561a2.7 2.7 0 0 0-3.27-1.18c-1.806.667-1.585 2.71-.604 3.541.679.574 1.505.863 2.321 1.17.604.228 1.213.447 1.796.72 1.247.585 1.962 1.554 2.098 2.945.114 1.164.002 2.278-.646 3.28-.852 1.317-2.14 1.79-3.423 1.8zM113.38 60.752c0 2.373-.005 4.746.006 7.119.001.288-.067.396-.374.389a69.08 69.08 0 0 0-2.49-.003c-.245.003-.338-.062-.337-.326.007-4.778.006-9.556 0-14.334 0-.245.06-.34.326-.336.85.016 1.703.017 2.554 0 .272-.005.32.1.32.34-.008 2.384-.005 4.768-.005 7.151zm1.392-.032c0-2.352.005-4.703-.006-7.054-.001-.3.064-.414.389-.404.807.023 1.616.018 2.425.001.285-.006.39.059.389.37-.01 4.746-.01 9.492-.002 14.237 0 .284-.06.4-.371.392-.819-.02-1.639-.02-2.458 0-.311.008-.372-.108-.371-.392.01-2.383.005-4.767.005-7.15zm7.77.032c0 2.362-.005 4.724.007 7.086.002.315-.066.434-.407.423a57.29 57.29 0 0 0-2.457-.004c-.244.003-.338-.06-.338-.325.008-4.778.007-9.556.002-14.334 0-.245.055-.342.323-.337.85.016 1.703.017 2.554 0 .272-.005.321.1.32.34-.006 2.383-.004 4.767-.004 7.15zm3.853 0c0 2.363-.005 4.726.007 7.088.002.32-.076.432-.412.422a50.289 50.289 0 0 0-2.36-.004c-.26.005-.356-.063-.356-.34.008-4.78.008-9.558 0-14.337 0-.273.104-.32.342-.317.809.01 1.618.016 2.426-.003.295-.007.36.098.359.372-.01 2.373-.006 4.746-.006 7.12zm-20.13-.009c0-2.361.005-4.723-.007-7.085-.002-.31.083-.405.396-.396.765.021 1.53.015 2.296.002.241-.004.313.074.312.313a5872.17 5872.17 0 0 0 0 14.365c0 .238-.071.32-.312.317a62.682 62.682 0 0 0-2.328.002c-.287.006-.365-.086-.363-.367.01-2.384.006-4.767.006-7.15zm23.659 36.901h5.464c.411-.001.411-.006.413.404.002.71.034.631-.618.645a6.828 6.828 0 0 0-.58.029c-.434.046-.63.252-.668.687a1.83 1.83 0 0 0-.005.161c0 3.244-.004 6.488 0 9.732.002.863.458 1.296 1.33 1.307.737.008.65-.118.67.674.009.312-.1.403-.412.396-1.52-.034-3.04-.051-4.559-.061-.452-.003-.905.031-1.357.058-.224.013-.31-.08-.307-.3.012-.9-.098-.75.74-.77.311-.007.626-.01.931-.064.379-.066.53-.267.53-.653.009-2.997.013-5.994.017-8.99 0-.463-.01-.925-.015-1.387-.005-.422-.13-.627-.556-.7-.474-.082-.962-.096-1.444-.12-.218-.011-.34-.057-.333-.311.022-.895-.113-.726.759-.737zM89.825 79.475c1.228-.034 2.457-.06 3.684-.109.298-.011.426.043.415.376-.023.653-.004.654-.674.67-1.044.026-1.198.176-1.2 1.207-.007 2.878-.009 5.756-.012 8.634 0 .215.003.43.008.645.025 1.032.44 1.439 1.469 1.445.598.004.52-.065.528.54 0 .054-.007.109 0 .161.045.314-.107.381-.395.365-.807-.046-1.615-.094-2.423-.092-1.088.003-2.176.045-3.264.083-.512.018-.541.006-.543-.488-.002-.57-.002-.562.556-.572a10.14 10.14 0 0 0 1.094-.063c.369-.047.517-.224.555-.599.021-.213.033-.429.032-.643-.002-3.157-.003-6.315-.015-9.472-.004-.879-.193-1.06-1.075-1.111-.333-.02-.667-.036-1.001-.04-.177-.003-.242-.077-.258-.25-.072-.778-.058-.792.709-.78.603.008 1.206.001 1.81.001v.092zm9.077 32.092c-1.066.035-2.132.072-3.199.105-.432.014-.439.006-.437-.418.002-.719-.076-.634.632-.648.354-.006.711-.018 1.06-.068.332-.048.506-.28.507-.612.014-2.739.025-5.477.03-8.216.002-.72-.017-1.44-.027-2.159-.006-.46-.138-.67-.587-.747-.454-.077-.92-.1-1.382-.108-.279-.006-.373-.09-.367-.375.013-.68 0-.682.69-.67 1.228.02 2.457.052 3.685.057.647.002 1.294-.034 1.94-.07.246-.012.315.086.32.316.014.713.021.713-.69.744-1.104.048-1.178.123-1.178 1.231-.002 3.126-.004 6.251.002 9.377.001.868.448 1.29 1.326 1.304.683.011.65-.156.648.656 0 .407-.013.41-.418.408-.851-.003-1.703 0-2.554 0v-.107zm49.464-18.275c-.834.032-1.869.068-2.903.11-.45.019-.462.016-.46-.425.002-.738-.063-.621.64-.634.27-.005.541.005.807-.031.61-.083.75-.253.759-.862.015-1.064.042-2.127.039-3.19-.006-2.332-.026-4.662-.043-6.993-.004-.452-.152-.664-.603-.737a11.359 11.359 0 0 0-1.414-.113c-.235-.008-.32-.079-.316-.318.018-.883-.088-.717.703-.716 1.843 0 3.686.001 5.528-.018.307-.003.39.091.385.381-.01.652.002.652-.65.668-1.078.026-1.198.145-1.204 1.218-.014 2.685-.028 5.37-.036 8.056-.001.484.02.967.04 1.45.03.714.393 1.104 1.104 1.194.085.01.173.002.258.013.194.024.537.018.554.088.067.273.046.573.017.859-.005.048-.21.112-.322.109-.894-.026-1.788-.065-2.883-.109zm-47.016-19.81c-1.078 0-2.156-.01-3.234.006-.29.004-.37-.095-.366-.37.012-1.063.01-2.126 0-3.189-.002-.265.09-.354.357-.353 2.166.008 4.332.007 6.499 0 .232 0 .323.064.32.31-.01 1.095-.01 2.19 0 3.286.002.237-.067.317-.311.315-1.088-.011-2.177-.005-3.265-.005zm30.025-3.9c1.046 0 2.092.007 3.138-.006.283-.003.403.067.398.375a123.59 123.59 0 0 0-.001 3.19c.003.268-.09.347-.356.346a772.489 772.489 0 0 0-6.34 0c-.256 0-.362-.058-.358-.337.014-1.074.012-2.148 0-3.222-.003-.264.08-.355.35-.352 1.056.013 2.113.005 3.17.005zM72.834 97.386c-.188 2.058-.878 3.882-2.536 5.228-.621.504-1.354.758-2.164.686-.867-.078-1.615-.92-1.754-1.935-.18-1.31.194-2.507.777-3.652.456-.894 1.072-1.66 1.946-2.19.605-.366 1.258-.575 1.97-.47 1.053.157 1.698.885 1.76 1.947.007.128 0 .258 0 .386zm-5.765 3.86c.012.901.582 1.36 1.434 1.102a2.81 2.81 0 0 0 .718-.357c.678-.448 1.165-1.08 1.594-1.753.604-.945 1.112-1.937 1.29-3.061.143-.905-.52-1.507-1.394-1.218a3.337 3.337 0 0 0-1.132.647c-1.046.923-1.731 2.098-2.194 3.4-.142.4-.213.826-.316 1.24zm54.477-27.994l.057-.112c-.04-.128-.07-.263-.126-.384-.126-.275-.093-.48.2-.625.123-.061.221-.171.33-.259-.14-.068-.25-.085-.35-.065-.395.08-.57-.11-.638-.47-.021-.112-.087-.216-.166-.402-.07.191-.108.29-.143.388-.204.57-.082.47-.656.482-.107.002-.213.015-.407.029.211.157.333.265.47.346.196.117.266.249.16.474-.072.155-.097.334-.143.502l.042.095c.458-.55.915-.559 1.37 0zm-10.932-1.448l-.02.092c.128.095.251.2.387.284.193.12.257.26.159.48-.07.156-.099.33-.146.495.207-.06.36-.14.483-.252.178-.163.326-.15.502.003.13.111.285.193.43.288a1.239 1.239 0 0 0-.094-.534c-.09-.212-.06-.357.151-.477.146-.083.27-.206.403-.312a.639.639 0 0 0-.384-.064c-.363.067-.53-.102-.595-.44-.023-.122-.096-.236-.178-.428-.08.217-.146.342-.17.475-.054.302-.203.448-.526.394-.13-.022-.268-.004-.402-.004zm22.664-8.255l-.095-.093c-.157-.008-.316-.032-.471-.02-.244.02-.385-.067-.442-.312-.035-.155-.108-.3-.194-.53-.073.176-.127.26-.142.35-.061.384-.263.558-.663.494-.1-.017-.21.026-.35.047.056.072.07.108.095.12.487.235.638.578.36 1.07-.021.038-.009.096-.016.204.175-.119.317-.195.434-.299.194-.172.364-.187.56-.003.113.107.256.182.39.275.026-.05.048-.075.042-.086-.24-.536-.205-.982.492-1.217zm-33.742-.09l-.017.081c.135.101.263.217.408.3.21.12.234.268.147.477-.065.156-.096.326-.167.58.176-.115.278-.159.35-.232.28-.289.543-.268.818.007.07.072.172.114.345.224-.075-.259-.107-.434-.177-.593-.092-.207-.038-.34.145-.457.146-.093.276-.211.413-.319a.962.962 0 0 0-.494-.095c-.263.025-.399-.081-.453-.335-.032-.148-.1-.287-.178-.503-.143.319-.19.64-.374.771-.184.13-.505.071-.766.095z" opacity=".301" fill="#D4E1ED"/></g></svg>