<svg preserveAspectRatio="none" viewBox="0 0 138 123" xmlns="http://www.w3.org/2000/svg" xmlns:xlink="http://www.w3.org/1999/xlink"><defs><path id="a" d="m53.222 39.334c2.095-2.589 3.37-6.102 4.333-9.575.623.046 1.69-.627 1.926-1.623.03-.114.046-.237.063-.355.408-.52.74-1.206.927-2.004.272-1.139.189-2.246-.152-3.067.07-.081.146-.161.204-.242 1.599-2.266.474-11.129-2.085-15.98-2.15-4.074-8.628-6.953-12.648-6.426-2.278.297-3.388 1.643-3.897 2.583-1.629-.93-3.929-1.051-6.66 1.784-4.064 4.216-6.241 13.048-4.888 16.662.136.364.321.711.529 1.046-.594.824-.812 2.208-.476 3.64.194.799.528 1.484.934 2.004.012.118.033.24.06.355.231.997 1.305 1.67 1.923 1.623.965 3.473 2.24 6.986 4.335 9.575v3.353c-11.836.488-18.65 7.141-18.65 7.141l52.892.017s-7.84-6.311-18.67-7.158z"/><mask id="b" height="53.845" width="56.892" x="-2" y="-2"><path d="m17-2h56.892v53.845h-56.892z" fill="#fff"/><use xlink:href="#a"/></mask></defs><g fill="none" fill-rule="evenodd" opacity=".298"><path d="m58 117.272h24c8 0 12-3 12-3h-48s4 3 12 3zm6 5h12c2.98 0 8-3 8-3h-28s5 3 8 3zm44-31.272c.608-1.328.363-1.045 1-2 3.844 0 25.502-6.386 29-9 0 9.552-11.244 10.573-30 11zm-2 5 1-2s20.182-.999 25-3c-3.121 9.583-26 5-26 5zm-2 5 1-2s13.916.962 19.454 0c-5.151 8.878-20.454 2-20.454 2zm-74-10c-.608-1.328-.363-1.045-1-2-3.844 0-25.502-6.386-29-9 0 9.552 11.244 10.573 30 11zm2 5-1-2s-20.182-.999-25-3c3.121 9.583 26 5 26 5zm2 5-1-2s-13.916.962-19.454 0c5.151 8.878 20.454 2 20.454 2zm63.778-96.636 2.475-2.475-1.414-1.414-2.475 2.475-2.475-2.475-1.414 1.414 2.475 2.475-2.475 2.475 1.414 1.414 2.475-2.475 2.475 2.475 1.414-1.414zm-82.778 65.454 3.818-3.818-2.182-2.182-3.818 3.818-3.818-3.818-2.182 2.182 3.818 3.818-3.818 3.818 2.182 2.182 3.818-3.818 3.818 3.818 2.182-2.182zm16-46.818a6 6 0 1 0 0-12 6 6 0 0 0 0 12zm0-2a4 4 0 1 0 0-8 4 4 0 0 0 0 8zm100 34a4 4 0 1 0 0-8 4 4 0 0 0 0 8zm0-1.5a2.5 2.5 0 1 0 0-5 2.5 2.5 0 0 0 0 5zm-30.884 5.964c1.782-2.202 2.867-5.19 3.686-8.146.53.04 1.438-.533 1.639-1.38.025-.097.039-.202.053-.302.347-.443.63-1.026.79-1.706.23-.968.16-1.91-.13-2.608.058-.07.124-.138.173-.207 1.36-1.927.403-9.468-1.774-13.595-1.83-3.466-7.34-5.916-10.76-5.467-1.939.252-2.883 1.398-3.316 2.197-1.386-.79-3.343-.894-5.667 1.518-3.457 3.587-5.309 11.101-4.158 14.176.116.31.273.605.45.89-.505.7-.69 1.878-.405 3.096.166.68.45 1.263.795 1.706.01.1.028.205.05.302.198.848 1.111 1.42 1.637 1.38.82 2.955 1.906 5.944 3.688 8.146v2.853c-10.07.416-15.867 6.076-15.867 6.076l45 .014s-6.67-5.369-15.884-6.09zm-46 0c1.782-2.202 2.867-5.19 3.686-8.146.53.04 1.438-.533 1.639-1.38.025-.097.039-.202.053-.302.347-.443.63-1.026.79-1.706.23-.968.16-1.91-.13-2.608.058-.07.124-.138.173-.207 1.36-1.927.403-9.468-1.774-13.595-1.83-3.466-7.34-5.916-10.76-5.467-1.939.252-2.883 1.398-3.316 2.197-1.386-.79-3.343-.894-5.667 1.518-3.457 3.587-5.309 11.101-4.158 14.176.116.31.273.605.45.89-.505.7-.69 1.878-.405 3.096.166.68.45 1.263.795 1.706.01.1.028.205.05.302.198.848 1.111 1.42 1.637 1.38.82 2.955 1.906 5.944 3.688 8.146v2.853c-10.07.416-15.867 6.076-15.867 6.076l45 .014s-6.67-5.369-15.884-6.09z" fill="#fff"/><g transform="translate(25 24)"><use fill="#fff" xlink:href="#a"/><use mask="url(#b)" stroke="#d23e52" stroke-width="4" xlink:href="#a"/></g></g></svg>