<svg width="230" height="160" viewBox="0 0 230 160" xmlns="http://www.w3.org/2000/svg"><g fill="none" fill-rule="evenodd"><path d="M43.277 72.302c.024-.001.06.007.07-.005.482-.56 1.152-.738 1.834-.843 1.81-.281 3.585-.132 5.284.583.426.18.828.43 1.209.693.204.14.372.36.497.578.178.311.09.576-.236.733-.228.11-.484.2-.734.221-.575.049-1.156.092-1.73.063-1.39-.073-2.766-.266-4.107-.653a9.52 9.52 0 0 1-1.04-.37c-.352-.148-.693-.323-.919-.653-.022-.032-.084-.036-.128-.053v-.294zm134.328 22.274c-.063.143-.108.297-.191.427-.307.484-.971.676-1.537.458a1.215 1.215 0 0 1-.772-1.354c.094-.564.597-.988 1.196-1.006.626-.019 1.057.284 1.243.872.01.032.04.059.06.088v.515zm-1.22.729c.522-.01.93-.449.924-.994-.005-.555-.448-.996-.983-.979-.517.018-.938.467-.932.997.005.548.45.986.99.976zm-65.326-.992l-1.807.9c-.11-.186-.211-.352-.308-.52l-3.463-5.987c-.092-.16-.197-.312-.277-.477-.097-.201-.237-.28-.466-.269-.344.018-.69.005-1.034.005h-3.85c-.044.404-.017.792-.022 1.177-.004.392 0 .784 0 1.176v4.675h-2.036v-16.18c.086-.01.178-.033.27-.033 2.847-.002 5.693-.013 8.54.004a4.307 4.307 0 0 1 3.97 2.851c.655 1.824.198 4.346-1.543 5.516-.423.284-.87.506-1.359.649-.092.026-.182.06-.305.1l3.69 6.413zm-11.214-8.381h.396c1.895 0 3.79 0 5.686-.002.233 0 .468-.005.7-.03 1.068-.118 1.713-.552 2.125-1.748.105-.302.116-.652.103-.977-.055-1.367-1.048-2.385-2.475-2.391-2.056-.01-4.111-.003-6.166-.002-.12 0-.238.015-.369.023v5.127zm51.338 9.072h-1.981c-.08-.268-.1-15.753-.02-16.208.114-.006.233-.017.353-.017 2.759-.001 5.518-.007 8.276 0 2.497.007 4.371 1.954 4.402 4.402a5.492 5.492 0 0 1-.28 1.876c-.463 1.347-1.397 2.218-2.733 2.684-.148.052-.298.098-.482.158l3.692 6.415-1.808.9c-.081-.135-.151-.245-.217-.358-1.253-2.164-2.51-4.326-3.752-6.496-.164-.287-.34-.41-.688-.405-1.44.023-2.881.01-4.322.01h-.44v7.04zm.02-9.072h.367c1.908 0 3.815 0 5.723-.002.221 0 .443-.01.664-.028.859-.068 1.503-.457 1.932-1.22.832-1.483.122-3.931-2.286-3.905-1.98.021-3.963.004-5.944.004h-.456v5.15zM119.047 95v-1.948h.45c2.5-.003 5.001-.003 7.501-.01.332 0 .666-.018.994-.061.964-.127 1.663-.761 1.914-1.696.226-.843.08-1.632-.37-2.362-.325-.529-.84-.82-1.437-.95a3.896 3.896 0 0 0-.806-.07c-1.355-.007-2.71-.012-4.065-.001-1.45.012-2.518-.668-3.318-1.807-1.279-1.82-1.094-4.643.758-6.254.575-.5 1.257-.765 1.987-.912.36-.072.733-.105 1.1-.106 2.649-.008 5.297-.005 7.945-.004.11 0 .219.01.322.016.084.279.1 1.536.02 1.987h-.421c-2.464 0-4.927-.002-7.391.003-.344 0-.687.043-1.031.06-.872.04-1.754.806-1.956 1.699-.11.486-.138.97-.033 1.456.2.932 1.106 1.871 2.313 1.864 1.503-.008 3.006.008 4.509-.005 1.037-.01 1.906.404 2.62 1.095 1.158 1.118 1.542 2.529 1.37 4.1-.154 1.417-.85 2.514-2.05 3.283-.632.404-1.33.637-2.09.637-2.834.003-5.667.002-8.5.001-.097 0-.194-.008-.335-.015zM95.798 78.778v2.044c-.138.007-.268.02-.399.02h-3.992c-.766 0-1.532.025-2.263.276-2.246.773-3.675 2.294-4.211 4.615-.01.046-.01.095-.02.194h7.439v2.031h-7.433c.013.108.014.168.028.226.494 2.019 1.652 3.49 3.583 4.344.891.394 1.826.489 2.778.496 1.355.01 2.71.003 4.065.003h.424v1.955c-.092.01-.185.032-.278.032-1.676.002-3.351.009-5.027-.002a6.875 6.875 0 0 1-2.758-.605c-1.84-.816-3.294-2.07-4.166-3.892-.947-1.978-1.1-4.021-.421-6.142.877-2.744 3.564-5.247 6.988-5.536.367-.031.737-.055 1.106-.056 1.38-.007 2.76-.003 4.14-.003h.417zm38.264.087h2.062c.007.152.02.294.02.435 0 2.99-.001 5.978.001 8.967.001.615.077 1.221.277 1.808a3.868 3.868 0 0 0 1.394 1.897c1.61 1.194 3.854 1.201 5.516.11a3.81 3.81 0 0 0 1.527-1.973 4.755 4.755 0 0 0 .272-1.62c-.013-3.037-.006-6.075-.006-9.113v-.498h2.006c.01.104.027.209.027.313.002 3.198.009 6.395-.001 9.592-.007 2.135-.904 3.828-2.633 5.083-.78.567-1.674.881-2.62 1.034-1.155.186-2.309.213-3.432-.181-1.317-.463-2.46-1.168-3.258-2.353-.602-.895-.941-1.883-1.071-2.94a13.22 13.22 0 0 1-.078-1.576c-.007-2.842-.003-5.684-.003-8.526v-.459zm32.33 7.06h7.41v2.007h-7.55c-.015 2.37.002 4.702-.01 7.058h-2.047c-.01-.084-.03-.176-.03-.268 0-2.438-.01-4.875.01-7.313.009-.904.087-1.804.318-2.692a7.1 7.1 0 0 1 1.03-2.224c1.245-1.823 2.917-3.071 5.125-3.513a9.652 9.652 0 0 1 1.72-.192c1.552-.026 3.105-.01 4.657-.01.06 0 .122.008.179.012.09.255.11 1.547.03 2.035-.123.006-.254.017-.385.017-1.38.001-2.759-.002-4.139.002-.716.002-1.43.053-2.115.277-2.125.695-3.492 2.122-4.116 4.254-.034.117-.05.24-.072.36-.008.047-.008.095-.015.19zm-89.895 5.08l4.544-12.212h1.896c.063.35.07.689-.061 1.032-.883 2.324-1.76 4.65-2.638 6.976l-2.96 7.837c-.042.113-.09.225-.15.374-.325 0-.655.013-.983-.005-.227-.013-.38-.171-.475-.365a8.308 8.308 0 0 1-.307-.708 12581.308 12581.308 0 0 1-5.582-14.66c-.056-.147-.105-.296-.168-.472.127-.01.22-.023.313-.023.431-.002.863.01 1.294-.005.371-.013.61.157.749.48.126.293.247.588.36.886l3.914 10.42c.056.148.116.295.174.443l.08.002zm39.411 4h-1.898c-.085-.257-.115-15.676-.03-16.203h1.906c.004.005.014.012.022.022.008.008.02.018.02.028.008.048.018.096.018.145 0 5.29 0 10.58-.003 15.87 0 .033-.017.068-.035.138zm25.106-22.748c-.239-.039-.5-.052-.743-.128-.35-.11-.478-.374-.358-.722.067-.193.163-.388.29-.547.222-.276.456-.55.724-.781a15.789 15.789 0 0 1 5.949-3.221c.407-.119.846-.134 1.27-.193.06-.008.124-.002.185.005.642.066.864.425.62 1.015-.18.439-.478.797-.808 1.13-.67.676-1.436 1.228-2.251 1.714-1.188.71-2.431 1.29-3.798 1.568-.349.071-.704.106-1.08.16zm2.936-5.585c-.216-.04-.44-.053-.645-.125-.285-.1-.398-.327-.324-.615.045-.175.11-.359.214-.503.237-.325.474-.662.766-.936a14.454 14.454 0 0 1 5.398-3.222c.446-.148.904-.235 1.378-.207.578.034.822.352.605.88a4.146 4.146 0 0 1-.586.966c-.434.551-.974 1.003-1.536 1.422-1.31.979-2.718 1.763-4.318 2.17a5.87 5.87 0 0 1-.542.112c-.133.021-.27.02-.404.03l-.006.028zm1.596-5.243c-.101-.013-.265-.014-.416-.058-.304-.088-.44-.315-.362-.621.048-.187.117-.382.228-.536.235-.327.475-.66.764-.938a12.92 12.92 0 0 1 4.592-2.865c.451-.164.915-.287 1.404-.268.58.022.813.343.596.877a3.39 3.39 0 0 1-.45.753c-.456.6-1.022 1.092-1.62 1.546-1.153.876-2.398 1.58-3.805 1.972a4.19 4.19 0 0 1-.468.102c-.133.021-.27.022-.463.036zm-13.068 12.322c-.29-.043-.59-.055-.868-.136-.403-.118-.517-.401-.328-.77.094-.182.221-.357.369-.498.255-.246.522-.486.812-.689a12.812 12.812 0 0 1 4.512-2.012c.321-.074.656-.086.986-.12.084-.009.172.001.257.01.678.076.876.452.538 1.037-.223.387-.535.702-.886.973-1.402 1.085-2.973 1.804-4.726 2.112-.217.038-.44.041-.661.06l-.005.033zm18.986-21.502h.116c.604.014.843.36.563.899-.183.354-.428.69-.701.982-.995 1.063-2.19 1.85-3.52 2.44-.486.215-.983.4-1.512.46a2.24 2.24 0 0 1-.727-.04c-.27-.06-.377-.262-.322-.531.031-.154.08-.313.162-.445.148-.239.302-.48.493-.684a10.987 10.987 0 0 1 4.55-2.906c.209-.07.43-.108.646-.152.096-.02.196-.018.252-.023zm-51.362 53.03h-.808l1.59-5.274c.248 0 .48-.002.712.001.109.002.217.014.362.024l.246 3.51c.03.007.043.012.055.012a.076.076 0 0 0 .032-.01c.011-.006.024-.013.029-.022l1.75-3.495h1.023c.093.29-.53 4.782-.632 5.252h-.769c.108-1.204.335-2.384.444-3.576l-.086-.028-1.818 3.602h-.696l-.25-3.682-.083-.013c-.216.598-.365 1.218-.55 1.825-.19.62-.366 1.242-.55 1.874zM53.774 72.166c-1.662-.12-3.105-.48-4.443-1.203a2.718 2.718 0 0 1-.69-.54c-.313-.34-.253-.7.166-.901a3.86 3.86 0 0 1 1.08-.342c1.24-.185 2.451-.03 3.62.421.45.174.865.416 1.214.75.165.159.32.344.427.545.243.452.085.905-.402 1.073-.353.121-.738.152-.972.197zm81.742-2.949c-.098-.014-.286-.018-.46-.07-.278-.082-.377-.252-.315-.533.03-.14.09-.285.177-.396.181-.23.37-.463.59-.654a10.21 10.21 0 0 1 4.344-2.248c.327-.078.684-.079 1.022-.05.368.032.516.28.399.63a1.505 1.505 0 0 1-.322.57c-.368.375-.742.754-1.164 1.064-1.08.794-2.267 1.373-3.598 1.625-.073.014-.145.03-.218.036-.123.01-.246.015-.455.026zm10.176-15.725c-.71-.004-.918-.34-.586-.964.08-.15.173-.3.286-.427 1.221-1.371 2.704-2.337 4.492-2.809.244-.064.513-.069.768-.05.38.027.561.291.415.638-.127.299-.3.592-.51.84-.756.894-1.708 1.544-2.741 2.08-.514.266-1.044.495-1.616.612-.168.034-.338.054-.508.08zm-20.45 20.814c-.245-.02-.495-.015-.733-.064-.594-.12-.734-.494-.333-.94.235-.26.517-.49.81-.685.963-.634 2.021-1.058 3.14-1.324.358-.085.725-.14 1.09-.174.242-.022.495-.007.734.038.461.089.6.41.366.818-.198.347-.496.605-.817.835-.745.536-1.573.901-2.447 1.17-.59.181-1.187.317-1.81.326zm16.941-13.322c.679.01.883.333.55.915-.127.22-.287.431-.468.61-1.146 1.14-2.498 1.933-4.08 2.308a2.882 2.882 0 0 1-.947.044c-.39-.04-.529-.302-.366-.659.104-.23.253-.449.42-.639.626-.707 1.407-1.218 2.23-1.666.701-.383 1.429-.71 2.224-.855.145-.027.292-.04.437-.058zm-15.031 44.295c-.127.007-.235.015-.344.017-.121.003-.242.001-.412.001.085-.418.159-.797.239-1.174.107-.503.231-1.003.324-1.508.06-.333.077-.673.12-1.07l.632-.302.19.554c.111-.073.205-.15.312-.2.199-.094.397-.206.608-.25.51-.107.722.013.996.526.088-.06.168-.126.26-.173.248-.128.49-.289.756-.362.643-.177 1.138.264 1.052.921-.042.327-.127.648-.195.972-.126.598-.253 1.197-.382 1.795-.018.083-.05.162-.08.255h-.78c.086-.423.164-.825.25-1.227.1-.479.207-.956.31-1.435.011-.048.031-.097.026-.144-.013-.129.008-.301-.067-.374-.122-.12-.304-.059-.446.026-.454.271-.829.586-.913 1.165-.086.593-.241 1.175-.368 1.76-.015.071-.043.14-.07.225h-.775c.031-.169.057-.32.088-.47.163-.766.332-1.531.485-2.3.027-.133.046-.335-.029-.408-.137-.135-.329-.03-.475.058-.439.268-.81.572-.883 1.144-.07.532-.216 1.054-.331 1.58-.028.13-.063.258-.098.398zm-33.7-5.266c.638.023 1.243.007 1.837.076.849.098 1.34.634 1.417 1.484.095 1.06-.226 2.008-.87 2.845-.392.51-.937.807-1.577.85-.623.043-1.25.01-1.927.01.35-1.751.737-3.474 1.12-5.265zm.672.738l-.816 3.807c.32 0 .6.022.876-.005.513-.05.889-.316 1.146-.764.265-.463.452-.954.503-1.482a2.749 2.749 0 0 0-.052-.836c-.1-.46-.387-.684-.858-.717-.244-.017-.49-.003-.8-.003zm54.452-53.855h.074c.555.026.742.31.49.796a3.115 3.115 0 0 1-.509.714 8.07 8.07 0 0 1-3.302 2.076c-.231.078-.476.116-.717.162a1.035 1.035 0 0 1-.294.009c-.443-.045-.603-.298-.436-.716a1.7 1.7 0 0 1 .276-.473c1.11-1.295 2.478-2.176 4.162-2.543.048-.01.097-.017.146-.021.036-.004.073-.001.11-.001v-.003zm-92.784 20.94a5.054 5.054 0 0 1 2.221.441c.328.149.626.34.847.632.424.561.273 1.118-.38 1.392-.434.182-.892.182-1.344.126a6.039 6.039 0 0 1-2.548-.905 2.565 2.565 0 0 1-.581-.5c-.278-.333-.2-.673.173-.893.337-.197.715-.255 1.096-.29.17-.015.344-.002.516-.002zm82.766-6.667c-.049-.002-.098 0-.147-.007-.47-.058-.63-.322-.41-.743.123-.236.285-.462.472-.651 1.006-1.012 2.206-1.714 3.568-2.14.256-.08.53-.126.798-.134.548-.018.75.303.494.782-.12.224-.277.437-.454.62a8.023 8.023 0 0 1-3.452 2.116c-.28.087-.575.123-.863.182l-.006-.025zm-10.285 9.448c-.237-.044-.436-.059-.62-.12-.265-.087-.355-.298-.24-.553.07-.153.165-.304.283-.423.207-.207.425-.41.665-.577 1.017-.711 2.13-1.213 3.359-1.436.239-.043.491-.052.733-.028.484.046.642.35.402.767a2.25 2.25 0 0 1-.41.514c-.84.788-1.849 1.285-2.945 1.608-.41.12-.84.171-1.227.248zm-74.42 3.075c1.642.128 3.033.67 4.2 1.738.152.14.283.31.389.486.243.405.12.64-.349.64-.316-.002-.642-.03-.949-.104-1.187-.287-2.326-.71-3.387-1.319a4.21 4.21 0 0 1-.821-.613c-.308-.298-.227-.592.185-.71.256-.074.53-.087.732-.118zm94.848 27.32c-.144-.087-.256-.16-.373-.224a1.528 1.528 0 0 0-1.283-.11c-.135.047-.27.131-.37.232a.633.633 0 0 0 .124 1.008c.253.148.526.27.802.372 1.173.43 1.164 1.942.35 2.591a2.128 2.128 0 0 1-.927.434c-.628.124-1.248.124-1.843-.149-.133-.06-.256-.14-.421-.23l.39-.658c.084.043.15.07.206.109.422.286.893.338 1.38.27.4-.058.73-.234.872-.642.137-.394.011-.729-.369-.93-.282-.148-.587-.252-.872-.395-.537-.27-.797-.735-.745-1.32.033-.381.19-.707.476-.966.835-.752 2.369-.638 3.018.021l-.415.587zm-29.78-26.668c-.155-.03-.463-.062-.75-.157-.336-.113-.411-.39-.185-.666a2.4 2.4 0 0 1 .544-.487c.974-.631 2.05-1.002 3.197-1.152.349-.046.708-.015 1.062-.006a.682.682 0 0 1 .278.088c.241.124.318.312.184.546a2.08 2.08 0 0 1-.414.507c-.426.382-.938.623-1.468.828-.739.286-1.5.463-2.448.499zm19.932-16.233c-.31-.008-.56.033-.68-.206-.11-.219-.014-.436.118-.62.142-.198.29-.399.465-.566a7.89 7.89 0 0 1 2.977-1.79c.22-.072.453-.119.683-.15.142-.018.297-.004.436.032.245.066.353.242.26.476-.088.224-.204.46-.372.624-.392.386-.8.764-1.244 1.087a6.231 6.231 0 0 1-2.223 1.042c-.166.04-.338.058-.42.071zM62.18 69.5c-.778-.005-1.421-.149-2.017-.464a2.395 2.395 0 0 1-.534-.384c-.31-.297-.29-.602.051-.87.132-.104.288-.193.448-.247 1.018-.35 2.046-.371 3.07-.03.194.065.383.173.545.298.375.292.415.746.088 1.09-.147.156-.341.28-.536.375a2.43 2.43 0 0 1-1.115.232zm80.627-21.071c-.103-.01-.178-.011-.25-.023-.277-.044-.394-.182-.347-.455.023-.14.077-.288.158-.404.153-.22.321-.435.51-.625a6.565 6.565 0 0 1 2.394-1.547c.286-.106.593-.155.891-.225a.765.765 0 0 1 .22-.01c.497.033.665.3.446.74a2.334 2.334 0 0 1-.395.572c-.876.912-1.92 1.558-3.147 1.897-.164.045-.338.057-.48.08zm-31.167 57.065l-.39-.558c-.069.044-.145.096-.224.142-.095.056-.189.116-.29.159-.9.38-1.62-.073-1.654-1.046a3.169 3.169 0 0 1 .572-1.972 2.21 2.21 0 0 1 2.376-.86c.094.026.188.06.276.102.099.047.19.108.31.177-.087.396-.176.785-.26 1.175-.096.454-.182.91-.284 1.363-.065.29-.065.56.201.808l-.633.51zm.1-3.471c-.594-.132-1.028.034-1.357.458-.394.507-.514 1.105-.484 1.728.02.392.31.547.681.396.372-.15.66-.425.769-.796.167-.57.26-1.163.392-1.786zm-23.766 3.337l-.066-.598.258-.017c.416-.029.84-.016 1.245-.096.537-.106.928-.437 1.13-.958.203-.527-.06-.938-.626-.973-.23-.014-.462-.002-.742-.002l.104-.62c.252-.009.493-.012.735-.026.513-.03.831-.289.92-.741.061-.314-.07-.523-.386-.602-.342-.085-.658.014-.963.154-.189.086-.37.19-.581.298l-.304-.488c.65-.46 1.317-.767 2.112-.662.789.105 1.195.816.899 1.549a1.504 1.504 0 0 1-.492.63c-.085.066-.173.129-.271.201.043.05.07.091.107.12.399.303.555.854.27 1.465-.217.464-.58.786-1.031 1.013-.716.36-1.481.414-2.318.353zm79.05-2.6c-.02.684-.16 1.275-.533 1.785-.488.667-1.14.992-1.98.843-.56-.1-.925-.468-.999-1.031-.108-.832.054-1.61.587-2.28.423-.533.985-.796 1.675-.757.68.039 1.09.396 1.214 1.062.027.143.028.291.036.379zm-2.677 1.083c0 .11-.008.22.002.33.034.387.24.567.628.558.384-.01.64-.222.826-.53.294-.489.381-1.028.355-1.586-.023-.48-.37-.715-.84-.587-.306.082-.51.286-.66.55-.222.391-.305.82-.31 1.265zm-31.124-.159c0 .145-.007.266.001.385.027.39.25.596.643.61.32.011.608-.072.86-.272.066-.053.135-.1.239-.177l.345.496c-.202.26-.452.426-.746.531a2.42 2.42 0 0 1-1.13.104 1.212 1.212 0 0 1-1.05-1.084c-.107-.98.156-1.846.913-2.521.394-.351.864-.52 1.396-.46.446.051.804.245.933.71.129.465.02.876-.34 1.205-.272.25-.612.36-.974.395-.34.034-.684.05-1.09.078zm.194-.707c.395.01.723.034 1.04-.082.336-.123.506-.451.376-.713-.11-.224-.453-.29-.745-.13-.35.192-.544.5-.671.925zm19.363-.117c-.013.589-.162 1.137-.488 1.63-.478.723-1.288 1.067-2.062.894-.494-.11-.826-.407-.921-.89-.202-1.026.036-1.946.807-2.683.466-.444 1.048-.57 1.677-.46.511.09.874.487.954 1.034.023.157.023.316.033.475zm-2.685 1.048c0 .073-.005.147 0 .22.037.46.318.678.779.592.355-.066.581-.302.741-.606.252-.478.336-.994.298-1.526-.033-.465-.373-.685-.829-.564-.318.085-.529.3-.68.578-.223.406-.295.85-.31 1.306zm-26.487-.25c0 .187-.018.344.003.497.044.323.244.498.568.521.33.024.636-.045.9-.256.076-.059.154-.114.26-.193l.337.497a1.455 1.455 0 0 1-.681.51c-.388.155-.794.179-1.2.125a1.215 1.215 0 0 1-1.02-.987c-.172-.876.14-2.121 1.081-2.76.347-.237.73-.352 1.15-.322.513.037.856.28.988.694.148.465.006.95-.372 1.26-.275.227-.603.325-.95.365-.172.02-.344.039-.516.047-.169.008-.339.001-.548.001zm.191-.663c.316-.015.577-.001.826-.05.171-.032.346-.127.482-.239.16-.13.177-.379.09-.542-.096-.181-.268-.207-.444-.188a.824.824 0 0 0-.346.108c-.31.199-.508.482-.608.911zm-15.562 1.75c-.59.614-1.284.735-2.033.575-.49-.105-.801-.464-.875-.945-.166-1.08.134-2.017 1.014-2.717a1.68 1.68 0 0 1 1.283-.36c.417.05.758.23.904.651.153.444.063.849-.255 1.194-.272.295-.634.417-1.02.46-.342.039-.686.051-1.032.075-.252.56.04 1.01.65 1.001.268-.004.508-.079.723-.237l.273-.202c.05.055.094.096.128.145.076.109.148.222.24.36zm-1.907-1.75c.329-.018.608-.026.885-.052a.758.758 0 0 0 .276-.1c.256-.139.367-.42.265-.65-.086-.196-.328-.277-.61-.2a.65.65 0 0 0-.169.074c-.328.204-.52.501-.647.927zm12.841-1.553l.765-.118c-.018.157-.023.263-.044.365-.172.814-.347 1.627-.522 2.44-.062.293-.101.583.14.863l-.555.47c-.248-.166-.248-.166-.451-.578-.108.074-.211.148-.318.218-.37.244-.765.394-1.219.3-.391-.081-.602-.313-.626-.708-.01-.17-.003-.345.03-.51.181-.9.374-1.797.57-2.729l.8-.172c-.021.159-.03.286-.056.409-.155.742-.317 1.483-.47 2.226-.035.167-.064.34-.061.508.003.238.128.324.365.286.501-.08 1.072-.636 1.179-1.145.126-.598.252-1.197.38-1.795.024-.105.059-.209.093-.33zm37.447-.147l-.355 1.705c-.078.372-.165.741-.23 1.115-.033.187-.108.413.077.55.195.145.409.024.588-.076.457-.253.795-.593.888-1.144.099-.591.247-1.173.366-1.761.033-.164.09-.267.28-.277.178-.01.356-.047.587-.08l-.331 1.584c-.09.431-.174.864-.277 1.292-.066.278-.063.534.154.788l-.562.476c-.256-.116-.326-.343-.434-.594-.12.084-.225.16-.332.23-.382.254-.79.401-1.255.288-.363-.088-.555-.296-.574-.667a2.865 2.865 0 0 1 .043-.694c.152-.768.328-1.532.483-2.3.041-.203.117-.334.345-.35.157-.01.313-.048.539-.085zm11.582 3.982h-.735c.146-1.255.636-2.431.635-3.726l.66-.301.175.537.323-.198c.3-.183.626-.285.98-.27.55.022.895.41.805.954-.096.59-.235 1.174-.359 1.76-.086.406-.178.811-.272 1.24h-.796c.092-.442.177-.859.266-1.275.102-.478.21-.955.31-1.433.034-.165.098-.356-.07-.477-.154-.11-.332-.047-.493.022a1.98 1.98 0 0 0-.822.661c-.089.12-.115.292-.15.445-.13.597-.254 1.195-.382 1.793-.017.083-.045.164-.075.268zm-31.497-3.732l.63-.3.189.54.293-.18c.287-.179.598-.285.94-.287.604-.005.971.402.866.999-.104.59-.242 1.173-.367 1.758-.083.395-.17.788-.26 1.2h-.769c.01-.097.01-.189.03-.277.168-.802.342-1.602.51-2.403.037-.176.118-.382-.066-.51-.166-.115-.372-.057-.523.048-.27.186-.527.395-.771.614-.072.065-.097.193-.12.298-.145.644-.282 1.29-.422 1.934-.02.094-.048.188-.077.298h-.741c.018-.133.028-.261.055-.387.163-.777.34-1.552.492-2.331.06-.308.07-.626.11-1.014zm-6.154-34.835c-.122-.01-.248-.005-.367-.032-.296-.067-.411-.274-.288-.55a1.4 1.4 0 0 1 .289-.422c.991-.975 2.185-1.57 3.552-1.822.164-.03.346-.016.512.018.288.057.389.244.289.519-.046.124-.113.25-.202.347-1.014 1.122-2.297 1.726-3.785 1.942zm-8.623 4.558c-.153-.026-.34-.039-.514-.09-.336-.097-.417-.318-.226-.616.085-.132.192-.258.314-.357.978-.792 2.106-1.245 3.351-1.406.226-.03.47-.005.692.051.302.076.39.291.237.564-.1.178-.232.352-.388.483-.992.828-2.151 1.25-3.466 1.37zm-65.514.976c1.202.087 2.203.448 3.002 1.253.184.186.334.428.433.67.137.334-.038.59-.4.618a2.575 2.575 0 0 1-.733-.04 6.877 6.877 0 0 1-2.545-1.13 2.747 2.747 0 0 1-.579-.56c-.23-.3-.14-.567.217-.688.218-.073.455-.093.605-.123zm81.817-16.786c-.106-.008-.18-.006-.253-.02-.27-.053-.401-.23-.285-.476.123-.26.288-.515.488-.721a6.51 6.51 0 0 1 2.223-1.482c.337-.139.702-.21 1.055-.312a.381.381 0 0 1 .073-.012c.213-.018.434-.024.573.165.154.206.01.398-.087.577a1.606 1.606 0 0 1-.238.326 6.418 6.418 0 0 1-3.216 1.905c-.118.03-.242.037-.333.05zm32.932 49.492l.312-.584c.116.06.21.109.303.16a1.6 1.6 0 0 0 .958.205c.154-.018.319-.06.451-.137.315-.183.32-.58.021-.79-.1-.07-.216-.116-.326-.169-.178-.084-.363-.153-.534-.249-.637-.357-.752-1.112-.254-1.647.066-.071.142-.137.222-.192.6-.416 1.655-.394 2.283.06-.04.091-.08.19-.128.285-.05.097-.109.19-.175.305l-.371-.16c-.317-.137-.64-.172-.969-.05-.17.064-.3.17-.31.37-.012.2.102.317.272.393.224.1.448.2.674.297 1.05.454.764 1.613.17 2.024-.673.466-1.915.432-2.599-.121zm-103.97-38.03c.315.056.702.118 1.084.199.117.024.23.087.334.15.385.235.443.577.157.924-.261.315-.619.473-1.002.583a3.294 3.294 0 0 1-2.167-.098 2 2 0 0 1-.615-.388c-.285-.266-.25-.57.059-.812.317-.25.696-.363 1.084-.434.324-.06.657-.079 1.067-.125zm48.82 34.695l-.314.587c-.148-.065-.278-.127-.411-.18-.307-.123-.62-.152-.936-.035-.175.065-.302.176-.315.369-.013.197.107.317.276.394.213.096.43.185.642.283.416.19.735.467.738.961.004.52-.238.904-.692 1.173-.61.36-1.955.285-2.432-.208.042-.087.084-.185.134-.28.051-.096.11-.19.176-.305.104.053.2.1.292.15.3.165.62.242.96.208.143-.015.294-.051.42-.118.356-.188.366-.611.027-.83-.103-.065-.22-.11-.33-.162-.167-.079-.34-.145-.501-.235-.613-.34-.743-1.096-.28-1.624.08-.091.176-.173.278-.24.6-.393 1.634-.358 2.268.092zm18.995-41.007c.21.012.436-.029.55.174.118.21.008.406-.117.578-.1.138-.208.276-.333.392-.828.767-1.785 1.296-2.899 1.527a1.94 1.94 0 0 1-.477.035c-.468-.022-.603-.286-.358-.691a1.45 1.45 0 0 1 .2-.264c.856-.875 1.898-1.424 3.083-1.715.118-.03.245-.026.351-.036zM59.65 71.028c.82.017 1.466.182 2.044.567.31.208.572.466.706.823.169.449-.032.83-.507.895-.286.04-.593.034-.875-.024a4.435 4.435 0 0 1-1.826-.833 2.184 2.184 0 0 1-.437-.44c-.277-.382-.178-.71.265-.86.241-.082.502-.103.63-.128zm54.12 3.042c-.212-.037-.497-.06-.764-.14-.42-.13-.481-.396-.182-.708.093-.097.2-.185.313-.254a6.345 6.345 0 0 1 3.361-.944c.157 0 .32.031.47.08.352.118.447.403.198.683a2.816 2.816 0 0 1-.65.53c-.596.36-1.258.55-1.942.66-.243.04-.488.057-.804.093zm-54.11 2.496c.325.088.619.14.89.247a5.898 5.898 0 0 1 2.602 1.98c.152.202.276.437.36.675.102.292-.034.43-.335.365a2.6 2.6 0 0 1-.556-.19 11.694 11.694 0 0 1-2.842-1.887 3.955 3.955 0 0 1-.462-.521c-.106-.136-.215-.32-.083-.466.101-.112.292-.143.425-.203zm12.258-7.76c-.335-.067-.671-.128-1.003-.207a1.12 1.12 0 0 1-.331-.158c-.45-.289-.461-.694-.022-.995.371-.255.8-.368 1.24-.44.598-.096 1.198-.114 1.794.018.153.034.308.09.445.168.321.181.38.459.13.726a2.438 2.438 0 0 1-.576.447c-.468.265-1.07.394-1.677.442zm-8.148 1.386c.62.017 1.122.122 1.58.387.26.151.476.35.59.635.152.382.03.736-.325.949-.285.17-.601.215-.926.184a3.216 3.216 0 0 1-1.808-.756c-.24-.204-.447-.444-.366-.79.083-.351.394-.45.693-.526.213-.054.437-.066.562-.083zm68.668-9.738c-.085-.005-.16-.001-.232-.014-.276-.05-.386-.223-.27-.477.079-.174.191-.346.328-.48.8-.781 1.748-1.3 2.845-1.54.153-.033.321-.034.476-.01.255.04.352.22.252.458a1.41 1.41 0 0 1-.25.402c-.787.859-1.765 1.391-2.903 1.64-.083.018-.171.015-.246.02zm27.332 41.632l-.393-.064c-.064-.205.02-.393.073-.602l.479-.063.275-.867.84-.182-.285 1.054.887.045c-.057.254-.124.514-.326.605-.196.09-.455.041-.703.054-.03.068-.069.13-.083.199-.142.657-.279 1.315-.416 1.973-.015.071-.032.144-.033.217-.005.23.074.309.312.298.133-.006.265-.04.414-.062.012.071.032.14.034.211.013.329-.025.397-.34.455a2.1 2.1 0 0 1-.654.033c-.356-.049-.55-.268-.552-.625a4.197 4.197 0 0 1 .097-.797c.108-.564.232-1.125.348-1.688.012-.057.016-.116.026-.194zm-19.44-.073l.096-.59.5-.07.267-.866.85-.174-.296 1.042.875.057c-.036.255-.113.511-.314.603-.195.089-.455.04-.698.051-.03.071-.069.134-.084.202-.137.633-.27 1.267-.404 1.9-.008.036-.02.07-.025.107-.07.427.043.537.477.458.07-.013.14-.035.236-.06v.553c-.282.166-.58.223-.891.185-.426-.053-.64-.287-.63-.714.007-.254.053-.51.102-.76.12-.61.253-1.216.385-1.845l-.445-.079zm-72.047-32.27c.506-.002.939.076 1.331.304.662.386.654 1.099-.012 1.48-.768.44-2.122.165-2.657-.539-.265-.348-.21-.699.16-.943.373-.245.797-.304 1.178-.302zm56.032-1.85c-.16-.01-.285-.005-.405-.028-.312-.062-.406-.258-.26-.538a.914.914 0 0 1 .167-.239 5.205 5.205 0 0 1 3.178-1.46c.218-.022.476-.035.59.198.121.245-.04.454-.205.62-.188.19-.39.376-.612.525-.752.507-1.569.856-2.453.922zm-7.864 3.587c-.143-.027-.341-.044-.524-.106-.247-.083-.311-.273-.166-.49.093-.14.214-.271.35-.37.853-.62 1.817-.952 2.866-1.04.144-.013.295.014.437.048.368.088.451.31.224.619-.1.136-.224.263-.36.363-.824.603-1.76.896-2.827.976zm-55.54 3.24c.192.04.388.066.574.124a3.803 3.803 0 0 1 1.948 1.384c.142.191.25.425.31.655.088.345-.087.51-.447.458a1.753 1.753 0 0 1-.39-.106 6.213 6.213 0 0 1-2.223-1.473 1.899 1.899 0 0 1-.304-.412c-.18-.338-.045-.568.344-.606.06-.006.123 0 .184 0l.004-.024zm17.379-7.39c.327.048.658.08.98.15.189.04.394.118.428.35.033.226-.132.36-.291.476a3.517 3.517 0 0 1-1.81.664c-.364.029-.735-.013-1.1-.045a1.006 1.006 0 0 1-.377-.14c-.384-.212-.418-.543-.074-.821.15-.121.33-.211.51-.287.552-.232 1.137-.301 1.734-.347zm-5.337 2.23c.309.07.63.104.923.215.623.237.71.778.224 1.229-.64.593-1.926.627-2.595.069-.46-.385-.428-.854.094-1.158.412-.241.87-.32 1.354-.355zm81.158 30.332l.813-.314c.025.199.078.366.061.525-.05.485-.105.972-.2 1.45-.184.936-.397 1.866-.597 2.798-.02.095-.025.192-.04.314l.29.077.03.52c-.128.038-.229.082-.334.097-.61.089-.896-.193-.777-.796.215-1.092.45-2.18.682-3.268.096-.455.197-.908.072-1.403zm-16.497-46.89c-.397.001-.528-.2-.357-.542a1.22 1.22 0 0 1 .182-.275c.745-.817 1.642-1.392 2.724-1.663.117-.03.244-.037.365-.029.304.02.413.191.306.476a.958.958 0 0 1-.164.285c-.786.913-1.764 1.506-2.956 1.736-.036.007-.073.01-.1.013zm-28.341 20.589c-.289-.049-.587-.068-.864-.154-.321-.1-.362-.319-.122-.55.131-.124.287-.234.45-.315.847-.423 1.74-.663 2.696-.622.169.007.345.04.5.104.226.094.283.285.132.475a1.77 1.77 0 0 1-.465.408c-.711.426-1.497.6-2.327.654zm25.796-17.98c.049.002.11 0 .171.009.251.035.348.178.257.412a1.105 1.105 0 0 1-.21.342 4.87 4.87 0 0 1-2.78 1.549.912.912 0 0 1-.364-.016c-.216-.051-.282-.171-.216-.385a.79.79 0 0 1 .154-.288c.752-.84 1.688-1.368 2.791-1.606.06-.013.123-.011.197-.018zM76.773 71.462c-.332-.018-.647-.064-.927-.235-.485-.296-.507-.768-.04-1.09.495-.342 1.063-.437 1.65-.42.23.006.469.038.688.107.576.181.665.592.23 1.017-.445.436-1.006.587-1.6.62zm44.213 33.81h-.739c.145-1.245.633-2.41.613-3.711l.654-.317.199.54c.313-.22.591-.478.978-.49.13-.004.26.04.429.069l-.32.795c-.546-.106-.889.201-1.166.595-.108.153-.167.35-.21.536-.138.595-.257 1.195-.384 1.792-.013.059-.033.115-.054.191zm-39.3-35.837c-.116-.018-.349-.04-.574-.094-.182-.042-.361-.132-.402-.335-.046-.227.119-.362.278-.48.345-.255.752-.363 1.16-.451a5.106 5.106 0 0 1 1.688-.096c.157.019.318.052.463.113.258.108.287.284.083.484a1.594 1.594 0 0 1-.356.257c-.692.375-1.432.579-2.34.602zM66.96 83.503c-.19-.109-.36-.178-.497-.29-.85-.694-1.595-1.484-2.192-2.407a1.147 1.147 0 0 1-.176-.36c-.026-.12-.031-.284.033-.372.045-.062.227-.056.338-.033.14.03.282.093.402.172.215.14.429.289.618.46.653.594 1.156 1.296 1.463 2.126.073.197.175.406.011.704zm71.947-34.656c.055.003.13.001.202.013.22.034.306.137.267.351a.783.783 0 0 1-.138.334c-.651.833-1.505 1.349-2.543 1.56-.154.031-.334.041-.439-.113-.1-.148-.053-.313.038-.449.596-.897 1.421-1.466 2.484-1.685.036-.007.073-.006.13-.01zM118.77 68.563c-.146-.022-.298-.024-.434-.07-.202-.069-.258-.22-.155-.408.063-.116.149-.23.25-.315.734-.62 1.58-.985 2.544-1.052.227-.016.51-.051.608.222.085.238-.104.42-.268.564-.725.639-1.58.974-2.545 1.059zM81.636 69.97c.174.035.422.06.65.14.359.126.427.406.175.69-.364.41-.849.619-1.373.743-.364.087-.731.113-1.094-.004-.227-.074-.444-.175-.494-.442-.051-.28.104-.47.314-.618.524-.369 1.131-.455 1.822-.51zm-18.451 3.574c.768.073 1.423.447 1.881 1.15.027.04.05.085.068.13.087.22.162.45-.004.66-.168.212-.41.2-.643.138a3.434 3.434 0 0 1-1.844-1.201c-.12-.198-.28-.398-.146-.64.133-.239.387-.224.688-.237zm62.743-8.789c-.122-.014-.209-.016-.292-.034-.269-.057-.347-.213-.214-.453.07-.126.161-.248.267-.345a4.649 4.649 0 0 1 2.31-1.14c.164-.031.345-.018.51.016.192.04.26.178.192.362a.914.914 0 0 1-.19.31c-.714.744-1.597 1.15-2.583 1.284zm-14.22 6.663c-.13-.024-.327-.04-.51-.101-.214-.072-.268-.255-.128-.435.103-.132.236-.252.376-.344.712-.467 1.504-.706 2.35-.77.132-.01.27.018.4.05.337.082.408.29.181.561-.108.13-.24.246-.382.338-.674.437-1.422.644-2.288.7zm-45.75 1.22c.534.033.96.162 1.292.473.182.169.34.392.431.62.17.427-.09.787-.55.822-.11.008-.223 0-.33-.024a2.455 2.455 0 0 1-1.309-.773 1.195 1.195 0 0 1-.23-.37c-.129-.345.016-.604.376-.696.13-.034.265-.044.32-.053zm1.307 7.452c-.008.23-.103.319-.313.28a1.146 1.146 0 0 1-.374-.145 5.633 5.633 0 0 1-1.74-1.62 1.424 1.424 0 0 1-.188-.396c-.087-.287.056-.453.358-.425.11.01.222.034.322.078.904.392 1.528 1.051 1.877 1.967.034.09.043.19.058.26zm94.178 25.187l.824-3.848.858-.138-.85 3.986h-.832zm-56.275-32.215c-.254-.04-.515-.056-.759-.129-.314-.094-.336-.284-.083-.502a.838.838 0 0 1 .15-.106c.842-.45 1.735-.677 2.695-.609.198.014.422.032.477.263.055.23-.138.354-.3.46-.66.432-1.401.573-2.18.623zm23.765-12.807c.073.005.149 0 .22.016.188.044.268.18.187.356-.06.13-.144.26-.246.36a4.07 4.07 0 0 1-2.226 1.13c-.202.034-.446.065-.568-.15-.128-.224.055-.4.198-.54a4.08 4.08 0 0 1 2.435-1.172zm-59.53 11.82c.411.028.777.15 1.088.415a.854.854 0 0 1 .317.64c.01.359-.272.658-.675.696-.658.063-1.179-.206-1.552-.732-.28-.393-.14-.77.32-.924.16-.053.334-.065.502-.096zm19.637-3.122c-.125.104-.23.227-.363.297-.815.428-1.68.684-2.607.678a1.386 1.386 0 0 1-.5-.102c-.218-.088-.25-.265-.086-.437.108-.112.24-.216.381-.28a5.119 5.119 0 0 1 2.655-.438c.173.016.377.023.52.282zm45.096-15.168c.41.002.5.145.352.441-.011.022-.021.045-.036.064a3.84 3.84 0 0 1-2.412 1.502.47.47 0 0 1-.366-.103c-.116-.116-.04-.278.045-.404a1.87 1.87 0 0 1 .228-.287 4.533 4.533 0 0 1 1.87-1.143c.127-.04.262-.058.319-.07zm-60.853 19.68c-.534-.025-.908-.16-1.187-.488-.316-.373-.236-.79.207-.997a1.52 1.52 0 0 1 1.515.089c.47.294.478.88.01 1.18-.188.12-.424.17-.545.215zm40.663-4.593c-.096-.009-.17-.013-.243-.023-.135-.019-.303-.039-.315-.195a.503.503 0 0 1 .133-.354c.162-.162.353-.302.55-.422a3.886 3.886 0 0 1 1.555-.532c.177-.021.37.002.542.049.197.054.246.194.143.369-.074.123-.17.243-.283.332a3.682 3.682 0 0 1-2.082.776zm8.352-4.722c.255.01.47-.033.557.178.083.202-.07.352-.2.475a3.493 3.493 0 0 1-2.169.969.355.355 0 0 1-.073 0c-.155-.021-.338.001-.415-.176-.076-.176.046-.306.153-.42.469-.497 1.068-.765 1.714-.945.164-.045.336-.063.433-.081zm4.922-4.484c-.228-.022-.43.034-.517-.165-.072-.169.038-.313.148-.428.616-.643 1.376-1.018 2.255-1.152.156-.024.34-.03.433.129.106.181-.017.337-.132.46a3.732 3.732 0 0 1-2.187 1.156zm-19.694 11.536c-.103-.013-.278-.015-.44-.06-.251-.071-.293-.244-.118-.44.064-.073.144-.135.226-.187a4.334 4.334 0 0 1 2.075-.678c.165-.012.344.024.503.078.17.057.217.21.104.352-.12.15-.267.29-.43.39-.566.345-1.189.513-1.92.545zm-39.555 6.547c-.005.333-.167.462-.478.377-.391-.107-.714-.34-.98-.628a3.858 3.858 0 0 1-.624-.85c-.182-.36.019-.6.42-.573.676.045 1.561.872 1.65 1.543.006.048.009.097.012.13zm8.632-5.986c.22.065.456.102.66.201.33.16.408.496.225.808-.358.61-1.423.726-1.905.206-.275-.297-.247-.636.073-.892.221-.178.575-.285.947-.323zm8.63-1.31c.182.027.37.034.542.089.239.075.274.221.133.42-.354.497-1.666.933-2.253.748-.371-.117-.45-.39-.167-.655.15-.139.335-.254.523-.334a3.305 3.305 0 0 1 1.223-.269zm15.27 1.827c.173-.152.257-.262.37-.32.753-.386 1.552-.59 2.405-.543.17.01.382.006.437.2.062.216-.136.326-.291.414-.763.435-1.59.55-2.45.45-.134-.016-.258-.108-.47-.201zm10.72-4.6c.049 0 .098-.001.148.001.149.008.314.01.371.178.056.163-.057.285-.17.379-.589.49-1.274.724-2.04.729a.566.566 0 0 1-.18-.034c-.198-.067-.247-.194-.136-.364a.805.805 0 0 1 .175-.188 3.353 3.353 0 0 1 1.832-.7zm10.436-4.402c-.06-.005-.11-.007-.158-.014-.305-.04-.372-.198-.19-.451a.669.669 0 0 1 .096-.11c.536-.479 1.155-.777 1.878-.835.155-.013.347-.04.425.136.082.186-.058.33-.181.443-.53.49-1.159.765-1.87.83zm-6.063 3.147c-.081-.039-.271-.069-.34-.176-.113-.174.056-.318.182-.43.51-.457 1.116-.701 1.794-.77.17-.017.369-.024.455.158.089.188-.054.329-.182.441-.522.462-1.138.707-1.91.777zM69.435 76.33c.002.324-.154.468-.48.447-.49-.033-1.195-.674-1.265-1.15-.044-.296.09-.47.388-.5.598-.064 1.353.606 1.357 1.203zm20.08-6.07c.077-.228.261-.31.436-.395.504-.248 1.046-.36 1.6-.411.304-.028.614-.015.92-.009.091.002.181.046.35.093-.13.114-.197.202-.285.244-.818.387-1.67.652-2.587.664-.16.002-.325-.003-.434-.185zm13.617.45c.13-.124.225-.251.352-.33a3.738 3.738 0 0 1 1.905-.592c.173-.005.409-.045.482.167.081.232-.135.346-.295.449-.571.367-1.21.518-1.882.534a.67.67 0 0 1-.562-.228zm-32.422 3.81c.459.004.9.318 1.041.737.071.211.062.414-.09.584-.162.18-.373.214-.605.149a1.334 1.334 0 0 1-.839-.665c-.247-.454-.025-.808.493-.804zm29.567-3.242c-.45.666-2.268 1.02-2.853.597.198-.313.8-.576 1.74-.708.36-.05.747-.148 1.113.111zm-20.97 1.908c-.04-.004-.102-.005-.162-.014-.259-.04-.448-.184-.485-.384-.044-.242.105-.39.285-.507.327-.212.692-.247 1.062-.171.364.074.459.365.223.66-.228.284-.54.409-.924.416zm9.724-2.114c-.108.122-.17.228-.263.29-.471.322-.985.543-1.563.58-.177.01-.406.045-.479-.169-.074-.215.13-.325.28-.418.502-.312 1.06-.428 1.647-.42.06 0 .12.018.178.037.044.014.085.041.2.1zm10.864-.588c.082-.08.153-.18.248-.239a3.803 3.803 0 0 1 1.761-.57c.153-.01.355-.042.41.147.054.185-.128.276-.259.357a3.308 3.308 0 0 1-1.78.484c-.115-.001-.23-.05-.344-.077l-.036-.102zm-5.355 1.078c.468-.456 2.07-.812 2.62-.571-.064.076-.108.167-.18.207a3.62 3.62 0 0 1-2.312.43c-.033-.005-.063-.032-.128-.066zm-5.108.596c.168-.564 1.564-1.054 2.293-.836-.105.261-.366.434-1.091.694-.385.137-.774.296-1.202.142zm5.58-1.978c-.394.51-1.9 1.006-2.517.881.071-.1.111-.207.188-.254.208-.128.42-.268.651-.334.435-.123.882-.203 1.326-.29.113-.022.235-.003.353-.003zm-20.924 4.571a.473.473 0 0 1-.425.473.815.815 0 0 1-.84-.525c-.05-.153-.027-.295.086-.407.212-.208.474-.18.726-.105.272.082.453.327.453.564zm25.073-5.07c-.359.52-1.617.895-2.169.665.167-.275.537-.48 1.207-.668.49-.137.692-.139.962.002zm64.31 30.66a.53.53 0 0 1-.552.554c-.316.001-.54-.21-.55-.516-.01-.325.214-.569.531-.578a.54.54 0 0 1 .572.54zM82.504 72.137c.155.081.322.132.435.24.086.083-.049.278-.278.418-.246.15-.513.243-.806.202-.145-.02-.302-.058-.34-.234-.037-.172.067-.295.205-.354.244-.104.503-.177.784-.272zm2.2.796c-.033-.008-.107-.015-.173-.043-.162-.069-.19-.217-.07-.349.156-.172.674-.287.893-.198.147.06.166.184.048.318-.126.145-.438.274-.699.272zm-8.926 1.777c-.195-.002-.358-.113-.382-.271-.027-.185.083-.292.233-.37.01-.006.021-.012.033-.016.18-.064.358-.082.518.045.108.087.12.201.067.327a.498.498 0 0 1-.469.285zm2.5-1.072c.15 0 .298 0 .344.157.051.172-.07.264-.205.336a.488.488 0 0 1-.1.042c-.206.056-.417-.037-.448-.195-.028-.147.108-.292.314-.331.035-.007.072-.007.095-.009zm97.607 20.09c.208-.012.376-.03.543-.03.176 0 .375.024.422.217.031.13-.04.284-.111.418l.197.556c-.193.1-.295.067-.36-.135-.089-.268-.1-.264-.394-.238l-.054.386c-.121.059-.234.07-.24-.093-.012-.35-.003-.7-.003-1.08zm.292.196l.022.357c.177-.023.367-.001.368-.197.002-.203-.182-.185-.39-.16z" opacity=".301" fill="#D4E1ED"/></g></svg>