<svg xmlns="http://www.w3.org/2000/svg" width="2560px" height="434px" viewBox="0 0 2560 434"><style>
@keyframes a1_t { 0% { transform: translate(2560px,434px); } 100% { transform: translate(0px,434px); } }
@keyframes kv4ms8gsgyj3fl5ycm404j8e_t { 0% { transform: scale(1,1) translate(-2560px,-434.1px); animation-timing-function: cubic-bezier(.4,0,.6,1); } 49.288% { transform: scale(1.6,1) translate(-2560px,-434.1px); animation-timing-function: cubic-bezier(.3,0,.6,1); } 100% { transform: scale(1,1) translate(-2560px,-434.1px); } }
</style><title>wawe-1</title><desc>Created with Sketch.</desc><g style="animation: 30.43s linear infinite both a1_t;"><path d="M2460.5 334c32.2-23.1 65.5-40.1 99.5-51.9v-0.3c166.2-52.8 313.6-5.4 475.4 46.6c127.3 41 263.6 84.8 424.8 84.8c196.2 1.1 322.7-49.1 436.3-94.2c92-36.5 175.7-69.7 281.3-69.7c185.9 0 298.1 51.3 397 96.5c78.1 35.7 147.8 67.5 239 67.4c63.1-0.2 139.8-30.9 206.7-79.2c182.8-131.8 404-60.6 565.1-8.7c3.3 1 6.5 2.1 9.8 3.1c127.3 41 263.6 84.8 424.8 84.8c196.2 1.1 322.7-49.1 436.3-94.2c92-36.5 175.7-69.7 281.3-69.7c185.9 0 298.1 51.3 397 96.5c78.1 35.7 147.8 67.5 239 67.4c63.1-0.2 134.5-39.4 206.7-79.2c33.2-18.2 66.6-36.6 99.5-51.3v151.4h-7680v-152.3c166.2-52.8 313.6-5.4 475.4 46.6c127.3 41 263.6 84.8 424.8 84.8c196.2 1.1 322.7-49.1 436.3-94.2c92-36.5 175.7-69.7 281.3-69.7c185.9 0 298.1 51.3 397 96.5c78.1 35.7 147.8 67.5 239 67.4c63.1-0.2 139.8-30.9 206.7-79.2Z" fill="#f5f5f5" fill-rule="evenodd" transform="translate(2560,434) translate(-2560,-434.1)" style="animation: 30.43s linear infinite both kv4ms8gsgyj3fl5ycm404j8e_t;"/></g></svg>