<svg width="42" height="37" viewBox="0 0 42 37" xmlns="http://www.w3.org/2000/svg"><path d="M21.665 20.46l-4.146 13.777c5.394 3.95 9.582 3.135 15.576.847l4.03-13.781c-5.994 2.287-10.072 3.102-15.46-.843zm4.7-16.247L22.22 17.99c5.394 3.95 9.582 3.135 15.576.848l4.03-13.782c-5.994 2.288-10.072 3.103-15.46-.843zm-10.904 28.58l4.145-13.777c-5.393-3.95-9.581-3.135-15.576-.848L0 31.95c5.994-2.287 10.072-3.102 15.46.843zm4.674-16.253L24.28 2.763c-5.393-3.95-9.58-3.135-15.575-.847L4.674 15.697c5.994-2.287 10.072-3.102 15.46.843z" fill="#FFF" fill-rule="evenodd"/></svg>