<svg xmlns="http://www.w3.org/2000/svg" width="106px" height="106px" viewBox="0 0 106 106"><defs><linearGradient id="Gradient-0" x1="0" y1="0" x2="1" y2="1"><stop offset="0" stop-color="#00c5b8"/><stop offset="1" stop-color="#49f592"/></linearGradient></defs><style>
@keyframes a0_t { 0% { transform: translate(53px,53px) scale(1,1); animation-timing-function: cubic-bezier(.4,0,.6,1); } 40% { transform: translate(53px,53px) scale(1,1); animation-timing-function: cubic-bezier(.4,0,.6,1); } 100% { transform: translate(53px,53px) scale(1.2,1.2); } }
@keyframes a0_o { 0% { opacity: .3; animation-timing-function: cubic-bezier(.4,0,.6,1); } 75% { opacity: .3; animation-timing-function: cubic-bezier(.4,0,.6,1); } 100% { opacity: 0; } }
@keyframes a1_t { 0% { transform: translate(53px,52px) scale(.8,.8) translate(-53px,-52px); animation-timing-function: cubic-bezier(.4,0,.6,1); } 75% { transform: translate(53px,52px) scale(1,1) translate(-53px,-52px); } 100% { transform: translate(53px,52px) scale(1,1) translate(-53px,-52px); } }
@keyframes a1_o { 0% { opacity: 0; animation-timing-function: cubic-bezier(.4,0,.6,1); } 25% { opacity: 1; animation-timing-function: cubic-bezier(.4,0,.6,1); } 50% { opacity: 1; animation-timing-function: cubic-bezier(.4,0,.6,1); } 75% { opacity: 0; } 100% { opacity: 0; } }
@keyframes a2_t { 0% { transform: translate(53px,51.9px) scale(.9,.9) translate(-53px,-51.9px); } 17.5% { transform: translate(53px,51.9px) scale(.9,.9) translate(-53px,-51.9px); animation-timing-function: cubic-bezier(.4,0,.6,1); } 92.5% { transform: translate(53px,51.9px) scale(1,1) translate(-53px,-51.9px); } 100% { transform: translate(53px,51.9px) scale(1,1) translate(-53px,-51.9px); } }
@keyframes a2_o { 0% { opacity: 0; } 17.5% { opacity: 0; animation-timing-function: cubic-bezier(.4,0,.6,1); } 42.5% { opacity: 1; animation-timing-function: cubic-bezier(.4,0,.6,1); } 67.5% { opacity: 1; animation-timing-function: cubic-bezier(.4,0,.6,1); } 92.5% { opacity: 0; } 100% { opacity: 0; } }
</style><title>Group 31</title><desc>Created with Sketch.</desc><ellipse fill="url(#Gradient-0)" opacity=".3" rx="43" ry="43" fill-rule="evenodd" transform="translate(53,53)" style="animation: 2s linear infinite both a0_t, 2s linear infinite both a0_o;"/><ellipse fill="url(#Gradient-0)" opacity=".15" rx="43" ry="43" fill-rule="evenodd" transform="translate(53,53)"/><ellipse fill="url(#Gradient-0)" rx="43" ry="43" fill-rule="evenodd" transform="translate(53,53)"/><ellipse cx="53" cy="52" fill="#fff" rx="5" ry="5" fill-rule="evenodd"/><path d="M64.5 60c1.6-2.3 2.5-5 2.5-8c0-3-0.9-5.7-2.5-8m-23 .1c-1.6 2.2-2.5 5-2.5 7.9c0 3 .9 5.8 2.6 8.1" stroke="#fff" stroke-width="4" opacity="0" stroke-linecap="round" stroke-linejoin="round" fill="none" transform="translate(53,52) scale(.8,.8) translate(-53,-52)" style="animation: 2s linear infinite both a1_t, 2s linear infinite both a1_o;"/><path d="M33.1 38.6c-2.6 3.8-4.1 8.4-4.1 13.4c0 4.9 1.4 9.4 3.9 13.2m40.2-0.1c2.5-3.8 3.9-8.3 3.9-13.1c0-4.8-1.4-9.3-3.8-13" stroke="#fff" stroke-width="4" opacity="0" stroke-linecap="round" stroke-linejoin="round" fill="none" transform="translate(53,51.9) scale(.9,.9) translate(-53,-51.9)" style="animation: 2s linear infinite both a2_t, 2s linear infinite both a2_o;"/><path d="M51 55h4v17c0 1.1-0.9 2-2 2c-1.1 0-2-0.9-2-2v-17Z" fill="#fff" fill-rule="evenodd"/></svg>