<?xml version="1.0" encoding="UTF-8"?>
<svg width="256px" height="256px" viewBox="0 0 256 256" version="1.1" xmlns="http://www.w3.org/2000/svg" xmlns:xlink="http://www.w3.org/1999/xlink">
    <!-- Generator: Sketch 42 (36781) - http://www.bohemiancoding.com/sketch -->
    <defs></defs>
    <g id="Standard" stroke="none" stroke-width="1" fill="none" fill-rule="evenodd">
        <g id="Group" fill="#FFFFFF">
            <path d="M175.601377,123.882417 C175.538629,121.603113 175.419884,120.02398 175.24514,119.144994 C174.972491,117.773529 174.29088,116.754741 173.200285,116.088601 C172.382338,115.618385 171.822443,115.172665 171.520582,114.751429 C171.218721,114.330194 171.067792,113.815902 171.067792,113.208539 C171.067792,112.248514 171.525446,111.410953 172.440767,110.695832 C173.356088,109.980711 174.816684,109.319479 176.8226,108.712116 C178.166369,108.300676 179.909347,107.908835 182.051588,107.53658 C184.193828,107.164325 185.751798,106.978201 186.725543,106.978201 C188.264061,106.978201 189.033309,107.938212 189.033309,109.858263 C189.033309,110.485218 188.935936,111.925235 188.741186,114.178356 C188.488013,117.685388 188.341953,120.898486 188.303003,123.817747 L188.303003,126.421925 C188.696983,125.656449 189.164825,124.91574 189.70653,124.199796 C191.420322,121.927083 193.601479,120.232369 196.250067,119.115605 C198.236508,118.273134 200.388454,117.851904 202.705968,117.851904 C206.406201,117.851904 209.551353,118.909876 212.141516,121.02585 C213.446335,122.083838 214.497964,123.33773 215.296436,124.787564 C216.211757,126.433322 216.66941,128.039871 216.66941,129.60726 C216.66941,130.880763 216.406503,131.92404 215.88068,132.737123 C215.354858,133.550206 214.673246,133.956741 213.835825,133.956741 L200.106081,133.956741 C199.502358,133.956741 199.200502,134.221234 199.200502,134.750228 C199.200502,136.023731 199.886982,137.223745 201.259963,138.350305 C202.632945,139.476866 204.108147,140.040138 205.685615,140.040138 C206.620411,140.040138 207.657434,139.858911 208.796716,139.496452 C209.935999,139.133994 210.875649,138.688274 211.615696,138.159281 C212.277843,137.689064 212.803658,137.453959 213.193156,137.453959 C213.699503,137.453959 214.196106,137.767432 214.682979,138.394388 C214.913479,138.691206 215.089415,138.992414 215.210788,139.298013 C215.4972,138.531486 215.943206,137.838434 216.548809,137.218852 C217.834153,135.86698 219.421335,135.191054 221.310401,135.191054 C223.004719,135.191054 224.455578,135.827796 225.663022,137.101299 C226.870467,138.35521 227.47418,139.824614 227.47418,141.509557 C227.47418,143.253277 226.850992,144.756968 225.604598,146.020675 C224.358203,147.284382 222.868395,147.916226 221.135128,147.916226 C219.440811,147.916226 217.989951,147.33826 216.782507,146.182311 C215.648363,145.092416 215.007123,143.780508 214.858775,142.246556 C214.423503,142.985027 213.731974,143.709176 212.784185,144.419008 C209.687674,146.750498 206.114081,147.916226 202.063299,147.916226 C197.973568,147.916226 194.546035,146.72111 191.780597,144.330842 C191.769543,144.321172 191.758504,144.311485 191.747481,144.301781 C191.721222,144.902069 191.493249,145.450539 191.063558,145.947204 C190.605898,146.476197 189.997316,146.848447 189.237794,147.063962 C187.835601,147.494994 185.469434,147.710507 182.139224,147.710507 C178.730302,147.710507 176.242523,147.47683 174.675829,147.009468 C176.620511,144.739999 178.033731,141.973103 178.895601,138.737161 C180.114882,134.159301 179.592229,129.901396 177.303271,126.148969 C176.793072,125.316353 176.225079,124.560149 175.601377,123.882417 L175.601377,123.882417 Z M188.433677,140.037209 C188.451574,140.255364 188.471309,140.422874 188.492883,140.53974 C188.603082,141.136703 188.98263,141.614874 189.631536,141.974265 C189.199414,141.379608 188.805704,140.744696 188.450404,140.069526 C188.444815,140.058756 188.439239,140.047984 188.433677,140.037209 L188.433677,140.037209 Z M221.16434,107.419027 C222.897607,107.419027 224.367941,108.045973 225.575386,109.299883 C227.191803,110.945641 228,113.277097 228,116.29432 C228,118.29274 227.654326,120.442969 226.962966,122.745071 C226.271607,125.047173 225.351431,127.099442 224.202411,128.901938 C222.897592,130.939544 221.845963,131.958331 221.047491,131.958331 C220.268495,131.958331 219.168179,130.655459 217.74651,128.049675 C216.694865,126.129624 215.862325,124.072458 215.248865,121.878114 C214.635406,119.68377 214.32868,117.675583 214.32868,115.853494 C214.32868,113.619965 214.825283,111.748923 215.818504,110.240312 C217.045423,108.359446 218.827351,107.419027 221.16434,107.419027 Z M200.865598,128.461113 C200.164502,128.461113 199.672767,128.34356 199.390381,128.108452 C199.107995,127.873344 198.966804,127.46191 198.966804,126.87414 C198.966804,126.051261 199.258923,125.23819 199.843171,124.434903 C200.466368,123.57284 201.323251,123.141814 202.413846,123.141814 C203.387592,123.141814 204.176314,123.474879 204.780036,124.14102 C205.383758,124.80716 205.685615,125.66921 205.685615,126.727198 C205.685615,127.883147 205.062427,128.461113 203.816033,128.461113 L200.865598,128.461113 Z M63.1130902,142.038548 L60.1042314,137.189464 C59.4031345,136.092292 58.9503496,135.435958 58.7458631,135.220442 C58.5413765,135.004926 58.2736005,134.89717 57.942527,134.89717 C57.2414301,134.89717 56.5208692,135.543708 55.7808226,136.836803 L50.9023816,145.300659 C49.9675858,146.926825 48.9159564,147.739895 47.7474617,147.739895 C47.02689,147.739895 46.3647529,147.490097 45.7610306,146.990491 C45.1573084,146.490886 44.5049086,145.64353 43.8038118,144.448396 L35.0401454,129.78359 C33.579527,127.412915 32.4402617,125.865142 31.6223155,125.140225 C31.2328172,124.826747 30.5219936,124.52307 29.4898233,124.229185 C29.0613752,124.092038 28.7059634,123.822647 28.4235772,123.421004 C28.141191,123.019361 28,122.573641 28,122.083832 C28,120.575221 29.1587399,119.517249 31.4762544,118.909886 C33.8132437,118.322116 36.3644189,118.028235 39.1298564,118.028235 C45.3423532,118.028235 48.448555,119.193963 48.448555,121.525453 C48.448555,121.956485 48.1466984,122.612819 47.5429761,123.494475 C47.4261267,123.670806 47.3677028,123.856931 47.3677028,124.052854 C47.3677028,124.483886 47.8253564,125.551654 48.7406772,127.256189 C49.7533726,129.195832 50.6297305,130.165639 51.3697771,130.165639 C51.7982252,130.165639 52.3435145,129.675838 53.0056615,128.69622 C53.6678085,127.716602 53.9988771,126.923123 53.9988771,126.31576 C53.9988771,125.708397 53.8528174,125.223494 53.5606938,124.861035 C53.2685701,124.498576 52.5772211,123.925509 51.486626,123.141814 C50.824479,122.671598 50.4934105,122.113224 50.4934105,121.466676 C50.4934105,119.938472 52.0513801,118.939277 55.1673659,118.469061 C57.0564324,118.175175 59.276539,118.028235 61.8277524,118.028235 C64.7684641,118.028235 66.8911976,118.278034 68.1960167,118.777639 C69.5008358,119.277244 70.1532355,120.085416 70.1532355,121.202181 C70.1532355,121.652805 70.075337,122.015258 69.9195378,122.289551 C69.7637385,122.563844 69.3450341,123.053646 68.6634122,123.75897 C68.4491882,123.994079 68.3420778,124.297756 68.3420778,124.670011 C68.3420778,125.199004 68.789994,126.315752 69.68584,128.020287 C70.4648364,129.509306 71.1756601,130.253804 71.8183321,130.253804 C72.519429,130.253804 73.4055242,129.303589 74.4766443,127.403131 C75.2556408,125.972889 75.6451332,125.022674 75.6451332,124.552457 C75.6451332,124.180202 75.3335392,123.602236 74.7103421,122.818542 C74.2624191,122.269956 74.038461,121.672398 74.038461,121.02585 C74.038461,120.007048 74.4961145,119.301734 75.4114354,118.909886 C76.6967795,118.341708 78.566343,118.057623 81.0201819,118.057623 C82.6755494,118.057623 84.1458832,118.184972 85.4312273,118.439672 C86.171274,118.596411 86.7749872,118.914782 87.2423851,119.394795 C87.7097829,119.874808 87.9434784,120.428283 87.9434784,121.055239 C87.9434784,121.682194 87.6708337,122.21118 87.1255362,122.642212 C87.0281616,122.740174 86.3465499,123.014462 85.0806807,123.465087 C84.3601089,123.73938 83.766133,124.131221 83.2987352,124.640622 C82.8313373,125.150023 82.2665733,126.061054 81.6044263,127.373742 L74.301371,141.597722 C72.1591307,145.751302 70.2700926,147.828061 68.6342,147.828061 C67.9331032,147.828061 67.1589871,147.382341 66.3118284,146.490889 C65.4646697,145.599437 64.3984343,144.115338 63.1130902,142.038548 Z M101.231287,117.822516 C104.795196,117.822516 107.920872,118.753139 110.60841,120.614413 C112.536426,121.946693 114.084659,123.680591 115.253153,125.816158 C116.460598,128.049686 117.064311,130.381142 117.064311,132.810594 C117.064311,137.062136 115.126586,140.676871 111.251079,143.654909 C107.550846,146.495801 103.315116,147.916226 98.5437627,147.916226 C93.8892588,147.916226 90.12092,146.583965 87.238633,143.919405 C84.4342457,141.333214 83.0320731,137.963379 83.0320731,133.809799 C83.0320731,129.186003 84.7458397,125.404735 88.1734241,122.465881 C91.7568079,119.370289 96.1093853,117.822516 101.231287,117.822516 Z M98.8943094,124.611234 C98.0374133,124.611234 97.3509329,124.929605 96.8348478,125.566356 C96.3187626,126.203108 96.0607239,127.050465 96.0607239,128.108452 C96.0607239,129.283993 96.2798134,130.885645 96.7179989,132.913453 C97.1561844,134.941262 97.6771305,136.738834 98.2808527,138.306223 C98.884575,139.912796 99.8680433,140.716071 101.231287,140.716071 C102.964554,140.716071 103.831175,139.609119 103.831175,137.395183 C103.831175,135.749425 103.612085,133.878383 103.1739,131.782001 C102.735714,129.685618 102.205031,127.981109 101.581834,126.668421 C100.939162,125.336141 100.043329,124.650418 98.8943094,124.611234 Z M117.414942,141.094887 C119.009472,138.615409 119.826742,135.841441 119.826742,132.810594 C119.826742,129.911658 119.105067,127.124649 117.679904,124.488386 C116.298804,121.964183 114.458879,119.903612 112.172431,118.323651 C110.507648,117.170693 108.699438,116.321612 106.759282,115.776504 C106.774346,114.598762 107.810217,113.16882 109.866915,111.486646 C111.162822,110.447676 112.842243,109.391537 114.90523,108.318199 C116.968217,107.24486 118.780353,106.497761 120.341692,106.076878 C121.338692,105.808122 121.978991,106.244016 122.262608,107.384572 L124.844454,118.554385 L125.010789,119.178899 C125.111599,119.557395 125.284275,119.713679 125.528822,119.647758 C125.660501,119.612262 125.968676,119.255365 126.453357,118.577058 C128.170396,116.166988 130.35508,114.60448 133.007476,113.889487 C135.641061,113.179564 138.218765,113.509007 140.740664,114.877824 C143.901522,116.601772 145.996048,119.39403 147.024306,123.254681 C148.491085,128.761788 147.621981,133.711911 144.416967,138.1052 C142.117502,141.280776 138.992627,143.400975 135.04225,144.465858 C133.085873,144.993229 131.255552,145.217868 129.551234,145.139779 C127.846917,145.061691 125.902331,144.668069 123.71742,143.958901 C123.389886,143.864641 123.141471,143.84033 122.97217,143.885968 C122.765245,143.941748 122.229987,144.278725 121.366378,144.89691 C120.927689,145.218001 120.379154,145.467282 119.720758,145.644763 C118.554456,145.959157 117.870506,145.737863 117.668887,144.980872 C117.603361,144.73485 117.574782,144.438306 117.583151,144.091231 C117.615414,143.207211 117.559345,142.208434 117.414942,141.094887 L117.414942,141.094887 Z M129.301271,124.046505 C128.28546,124.320332 127.645077,124.868196 127.380103,125.690113 C127.163821,126.316353 127.272419,127.443221 127.7059,129.070751 C128.890413,133.51807 129.839805,136.477034 130.554105,137.947731 C131.20054,139.31502 132.191544,139.818642 133.527148,139.45861 C134.900374,139.088436 135.788134,138.220347 136.190455,136.854319 C136.592775,135.48829 136.496549,133.688742 135.901773,131.45562 C135.024729,128.162711 133.782645,125.921568 132.175482,124.732123 C131.247601,124.049206 130.289541,123.820669 129.301271,124.046505 Z M142.611268,143.868912 C144.138386,142.724138 145.487212,141.347044 146.649766,139.74155 C150.351531,134.667365 151.373518,128.846471 149.692609,122.5354 C149.207131,120.712645 148.5077,119.072732 147.598805,117.626578 C147.664142,117.24061 147.693246,116.949945 147.686116,116.754579 C147.666678,116.221968 147.346757,115.719924 146.726346,115.24843 C145.859048,114.568399 145.291479,113.974243 145.023623,113.465943 C144.755767,112.957643 144.705007,112.391243 144.871343,111.766726 C145.209055,110.498767 146.884191,109.621776 149.8968,109.135726 C151.535459,108.887812 153.514785,108.817944 155.834836,108.92612 C158.154887,109.034295 160.095553,109.29882 161.656892,109.719703 C162.653892,109.988459 162.991767,110.688034 162.670527,111.818449 L159.355043,122.790499 L159.188709,123.415013 C159.087899,123.793508 159.159767,124.015713 159.404314,124.081635 C159.535993,124.117131 159.980259,123.963066 160.737126,123.619437 C163.421936,122.395952 166.090499,122.14171 168.742895,122.856703 C171.37648,123.566626 173.445103,125.148556 174.948826,127.60254 C176.829402,130.685483 177.255555,134.157228 176.227298,138.017879 C174.760519,143.524985 171.547627,147.374745 166.588528,149.567274 C163.018862,151.160738 159.258896,151.425024 155.308519,150.36014 C153.352142,149.832769 151.655392,149.106632 150.21822,148.181708 C148.781047,147.256784 147.292618,145.937741 145.752888,144.224539 C145.516083,143.978153 145.313032,143.832143 145.14373,143.786506 C144.936806,143.730726 144.30578,143.753314 143.250633,143.85427 C143.046058,143.876037 142.832937,143.880918 142.611268,143.868912 Z M160.485161,129.788661 C159.46935,129.514834 158.642472,129.667175 158.004503,130.245691 C157.505954,130.679237 157.039946,131.70976 156.606465,133.33729 C155.421953,137.784609 154.773537,140.824706 154.661199,142.45767 C154.541481,143.966945 155.149415,144.901584 156.485019,145.261616 C157.858245,145.63179 159.05851,145.32656 160.08585,144.345918 C161.11319,143.365276 161.924236,141.758418 162.519012,139.525296 C163.396056,136.232387 163.434233,133.666713 162.633547,131.828196 C162.16939,130.770034 161.453269,130.090196 160.485161,129.788661 Z" id="Combined-Shape"></path>
        </g>
    </g>
</svg>