<?xml version="1.0" encoding="UTF-8"?>
<svg width="230px" height="160px" viewBox="0 0 230 160" version="1.1" xmlns="http://www.w3.org/2000/svg" xmlns:xlink="http://www.w3.org/1999/xlink">
    <!-- Generator: Sketch 52.4 (67378) - http://www.bohemiancoding.com/sketch -->
    <g id="03-what-we-do-(SRC)" stroke="none" stroke-width="1" fill="none" fill-rule="evenodd" opacity="0.301">
        <g id="Group-2" fill="#D4E1ED">
            <path d="M78.3552736,117.586971 C81.2545275,117.586971 83.2047561,115.174746 83.2047561,111.592902 C83.2047561,108.002418 81.2545275,105.590009 78.3552736,105.590009 C75.4429298,105.590009 73.4928829,108.002418 73.4928829,111.592902 C73.4928829,115.174746 75.4429298,117.586971 78.3552736,117.586971 Z M78.3552736,104.177164 C83.3085671,104.177164 85.0762629,108.172842 85.0762629,111.592902 C85.0762629,115.004138 83.3085671,119 78.3552736,119 C73.3888901,119 71.6204671,115.004138 71.6204671,111.592902 C71.6204671,108.172842 73.3890719,104.177164 78.3552736,104.177164 Z M88.8467292,106.778197 C89.6526734,105.023033 91.2389273,104.123297 93.5922189,104.123297 L93.7871145,104.123297 L93.6962117,105.779369 L93.6962117,105.833052 L93.1629759,105.806395 C89.6917616,105.806395 88.963812,108.919802 88.9509038,111.530211 L88.963812,111.619927 L88.963812,118.612639 L87.2604754,118.612639 L87.2604754,104.45624 L88.8467292,104.45624 L88.8467292,106.778197 Z M120.412817,108.200124 C120.412817,110.485864 127.043813,109.037169 127.043813,114.229675 C127.043994,117.587044 124.001478,118.927823 120.907328,118.927823 C119.450884,118.927823 117.968986,118.675956 116.577628,118.315804 L116.799249,115.238062 C117.995348,115.822872 119.255806,116.191848 120.55608,116.191848 C121.530921,116.191848 123.065179,115.822872 123.065179,114.427675 C123.065361,111.602168 116.434729,113.536948 116.434729,108.334882 C116.434729,105.23894 119.191083,103.862312 122.181422,103.862312 C123.975479,103.862312 125.14558,104.150212 126.341316,104.393439 L126.081879,107.21913 C124.911596,106.831953 124.066382,106.607111 122.662116,106.607111 C121.634914,106.607111 120.412817,106.967079 120.412817,108.200124 Z M144.169736,118.612584 L144.169736,104.222151 L147.321518,104.222151 L147.321518,118.612584 L144.169736,118.612584 Z M166.072293,108.200124 C166.072293,110.485864 172.702925,109.037169 172.702925,114.229675 C172.703107,117.587044 169.66059,118.927823 166.553532,118.927823 C165.097088,118.927823 163.628098,118.675956 162.224014,118.315804 L162.458361,115.238062 C163.654278,115.822872 164.90201,116.191848 166.215374,116.191848 C167.177489,116.191848 168.711565,115.822872 168.711565,114.427675 C168.711565,111.602168 162.081115,113.536948 162.081115,108.334882 C162.081115,105.23894 164.850196,103.862312 167.840716,103.862312 C169.634955,103.862312 170.791784,104.150212 171.987702,104.393439 L171.740991,107.21913 C170.570891,106.831953 169.712404,106.607111 168.32141,106.607111 C167.294208,106.607111 166.072293,106.967079 166.072293,108.200124 Z M141.799646,104.222151 L136.391293,110.665903 L142.475962,118.612584 L137.639206,118.612584 L132.737727,111.619872 L132.685731,111.619872 L132.685731,118.612584 L128.877086,118.612584 L128.877086,97.652465 L132.685731,96.4734698 L132.685731,109.972993 L132.737727,109.972993 L137.30123,104.222151 L141.799646,104.222151 Z M105.344787,117.533104 C108.348216,117.533104 109.687396,114.527062 109.687396,111.538852 C109.687396,108.551194 108.348216,105.536143 105.344787,105.536143 C101.418695,105.536143 101.002724,109.730005 101.002724,111.538852 C101.002724,113.339058 101.418877,117.533104 105.344787,117.533104 Z M109.687396,97.7690776 L111.312192,97.2651597 L111.390369,97.2473268 L111.390369,118.612639 L109.687396,118.612639 L109.687396,116.4168 C108.712554,118.135563 107.230293,118.946134 105.058989,118.946134 C101.405424,118.946134 99.1303083,116.101874 99.1303083,111.538852 C99.1303083,108.191226 100.157692,104.186172 105.058989,104.123297 C108.022965,104.08708 109.336329,105.914495 109.687396,106.517321 L109.687396,97.7690776 Z M95.5554285,97.769096 L97.1802251,97.2651781 L97.2453115,97.2473451 L97.2453115,118.612658 L95.5554285,118.612658 L95.5554285,97.769096 Z M150.120633,118.612658 L150.120633,97.6523547 L153.929461,96.4733595 L153.929461,118.612658 L150.120633,118.612658 Z M156.126599,118.612658 L156.126599,97.6523547 L159.935972,96.4733595 L159.935972,118.612658 L156.126599,118.612658 Z M145.829549,96.6986978 C146.999831,96.6986978 147.948856,97.6609403 147.948856,98.8494954 C147.948856,100.037131 146.999831,100.991468 145.829549,100.991468 C144.659811,100.991468 143.697878,100.037131 143.697696,98.8494954 C143.697696,97.6609403 144.659811,96.6986978 145.829549,96.6986978 Z M65.8998085,116.786052 C65.9259885,116.704976 69.9175304,104.456332 69.9175304,104.456332 L71.6074134,104.456332 L66.8619237,118.612731 L64.7686141,118.612731 C64.7686141,118.612731 60.8301594,106.364087 60.8163422,106.283379 L60.6867148,106.283379 C60.6605348,106.364271 56.7211711,118.612731 56.7211711,118.612731 L54.6413151,118.612731 L54.6278615,118.576698 C54.5760469,118.450764 50.1039928,104.798283 50.02618,104.528215 L50,104.456332 L51.859144,104.456332 C51.859144,104.456332 55.6425185,116.704976 55.6681531,116.786052 L55.7986895,116.786052 C55.8246877,116.704976 59.8416824,104.456332 59.8416824,104.456332 L61.934992,104.456332 C61.934992,104.456332 65.7569093,116.704976 65.7701811,116.786052 L65.8998085,116.786052 Z M162.404583,90.0278792 C162.356405,90.1129993 162.327861,90.1648434 162.327861,90.1648434 C162.351678,90.1311999 162.377494,90.0843195 162.404583,90.0278792 Z M130.673998,82.4611677 C131.726107,83.4991541 133.176006,84.7557318 135.105509,86.101474 C134.0474,85.2993601 133.039288,84.4643381 132.090627,83.6006363 C129.501715,81.2431974 128.029635,79.2894812 127.4864,78.5105318 C127.866556,79.1701661 128.815763,80.6282373 130.673998,82.4611677 Z M148.144243,92.3065959 C148.430041,92.7294384 148.651299,92.8106977 148.651299,92.8106977 C148.235146,92.6669312 147.533012,92.3610139 147.532831,92.3610139 C148.144243,93.0627486 148.534216,93.2877744 148.533852,93.2877744 C146.535445,92.4183734 144.656848,91.4892229 143.020598,90.6242342 C140.60022,89.5239245 138.538181,88.3934642 136.792483,87.2959122 C137.413895,87.7253731 138.048942,88.1445387 138.69926,88.5504675 C141.708325,90.4291752 145.023004,92.049765 148.550942,93.3671952 C148.556396,93.3694013 148.559305,93.3756521 148.557305,93.3811674 C148.555669,93.3855797 148.551669,93.3883373 148.547306,93.3883373 C148.546033,93.3883373 148.544761,93.3881535 148.543488,93.3877858 C145.014096,92.0696202 141.697962,90.4481111 138.687443,88.5684843 C137.901134,88.0776193 137.137368,87.5670829 136.393602,87.0422067 C133.781055,85.3609481 131.908639,83.7705087 130.625456,82.5043712 C128.076541,79.9891936 127.230781,78.1728093 127.222418,78.1546087 C127.214964,78.1382465 127.222055,78.1189428 127.238235,78.1114052 C127.253871,78.1042353 127.273506,78.1108537 127.28096,78.1273997 C127.282414,78.130525 127.311503,78.1928483 127.372408,78.3060966 C127.772926,78.9030399 129.26864,81.0019934 132.105717,83.5851934 C133.187642,84.5704164 134.347562,85.5170321 135.57075,86.4211797 C137.325719,87.6101025 139.453026,88.8595102 142.012667,90.0833635 C139.025783,88.4563391 137.067373,87.1764132 137.067191,87.1764132 C131.671565,83.9821138 127.563667,78.1049706 127.563667,78.1049706 C129.604799,78.1233551 130.034224,77.5558269 130.034042,77.5558269 C130.865984,76.6741084 132.438966,76.6382587 132.438785,76.6382587 C136.404146,82.8568012 141.591606,85.9437354 141.591424,85.9437354 C142.345553,86.4478372 145.310439,88.2384833 145.310075,88.2384833 C145.829494,88.4546845 145.843129,88.5990025 145.842948,88.5990025 C145.673687,88.517927 145.024095,88.1399426 145.023913,88.1399426 C144.737933,87.9956246 142.163566,86.5289126 142.163566,86.5289126 C142.449546,87.0688641 149.053816,90.7586246 149.053816,90.7586246 C150.224281,91.5055851 151.43347,91.8923941 151.43347,91.8925779 C147.896805,90.8759175 144.321962,89.0670707 144.32178,89.0670707 C142.215926,88.0860761 140.135706,86.6186288 140.135706,86.6188126 C143.814543,89.9309564 148.651299,92.2163282 148.651299,92.2163282 C149.431245,92.6395384 150.315365,93.1074228 150.315365,93.1074228 C149.951027,93.0443641 148.144243,92.3065959 148.144243,92.3065959 Z M179.206329,77.701487 C178.739452,74.7812998 177.531536,72.0530464 175.609305,69.5547826 C174.745365,68.5544843 173.754343,67.5839688 172.640965,66.6459938 C172.641511,66.7719273 172.642238,66.8978609 172.642056,67.0228752 C173.649986,67.8560588 174.14577,68.3763389 174.14577,68.3763389 C177.337731,71.5770728 178.665094,75.0868495 179.206329,77.701487 Z M172.640238,66.3781323 C172.640784,66.4533247 172.64042,66.5274141 172.640965,66.6024226 C173.5889,67.399205 174.448658,68.2197033 175.216969,69.062263 C174.627555,68.3414084 173.981054,67.639306 173.270376,66.959265 C173.065845,66.7636543 172.854587,66.5704337 172.640238,66.3781323 Z M172.209723,66.6726513 C172.315715,66.7570359 172.41589,66.8382952 172.513156,66.9177161 C172.513156,66.791231 172.51352,66.6654813 172.512792,66.5382609 C172.412981,66.4551631 172.312261,66.3722492 172.210632,66.2898869 C172.211177,66.417475 172.210632,66.5450631 172.209723,66.6726513 Z M172.509702,66.2628617 C172.409527,66.1742486 172.310079,66.0852679 172.207904,65.9973902 C172.208995,66.0804879 172.209904,66.1637695 172.210268,66.2468672 C172.312079,66.3294135 172.412436,66.4121435 172.512247,66.4952413 C172.511883,66.4182104 172.510429,66.3402603 172.509702,66.2628617 Z M172.206632,65.8613452 C172.206814,65.878075 172.206814,65.8951726 172.207177,65.9120863 C172.308988,65.9994125 172.4088,66.087474 172.508793,66.1755356 C172.488249,64.3400314 172.391892,62.421981 172.186997,60.4649556 C172.223176,61.178824 172.246993,61.9031716 172.255719,62.6398368 C172.268628,63.7353666 172.249538,64.8125119 172.206632,65.8613452 Z M169.119936,75.9227908 C169.1203,75.8821611 169.120664,75.842083 169.120664,75.8025564 C169.010308,75.7069572 168.899043,75.6133803 168.786505,75.5212742 C168.778687,75.5663161 168.770506,75.6108065 168.762507,75.6556646 C168.88468,75.7448292 169.004308,75.8339938 169.119936,75.9227908 Z M165.93543,73.8968236 C165.942702,73.792216 165.948883,73.6887116 165.95561,73.5848394 C163.825757,72.3552869 162.016064,71.7237808 162.016064,71.7237808 C161.547551,71.501145 161.021224,71.2803477 160.449809,71.0619404 C160.486898,71.2224367 160.523441,71.3849553 160.560165,71.5465546 C162.682927,72.3131865 164.455896,73.1037181 165.93543,73.8968236 Z M160.172556,71.4084874 C160.254914,71.4375348 160.336363,71.4665822 160.41763,71.4958135 C160.380541,71.3329272 160.343635,71.1691217 160.306183,71.0073385 C160.226552,70.9773719 160.146012,70.9474052 160.064745,70.9176224 C160.102015,71.0849209 160.138013,71.2489103 160.172556,71.4084874 Z M156.896055,58.6599696 C160.24855,59.7805022 163.092535,61.053442 165.446554,62.3019305 C165.424192,62.1572448 165.401648,62.0156845 165.379104,61.8781688 C164.211185,61.2672533 162.980725,60.6785829 161.688451,60.1149155 C159.966752,59.3637266 158.284868,58.7222929 156.730249,58.1812383 C156.786063,58.3387931 156.840786,58.500944 156.896055,58.6599696 Z M159.626048,71.2185759 C159.724587,71.2524033 159.821853,71.2860469 159.919119,71.3200581 C159.882939,71.1534949 159.846033,70.9882187 159.808399,70.8242293 C159.714951,70.7905858 159.619503,70.7573099 159.523873,70.7238502 C159.559144,70.8889426 159.592959,71.0538512 159.626048,71.2185759 Z M156.459904,70.2289406 C156.661526,70.2866678 156.860785,70.3447627 157.057862,70.4030414 C157.012956,70.2353752 156.967141,70.0666059 156.920235,69.8969173 C156.732976,69.8423155 156.543534,69.7880813 156.352457,69.734031 C156.389363,69.8993073 156.425179,70.0642159 156.459904,70.2289406 Z M156.124654,57.9733101 C156.184468,58.1384025 156.243737,58.3023919 156.302096,58.4650943 C156.409725,58.499841 156.516082,58.5351391 156.622801,58.5702534 C156.570987,58.4104925 156.519172,58.2507316 156.466267,58.0894999 C156.351366,58.0499733 156.238101,58.0117336 156.124654,57.9733101 Z M156.023934,57.6962563 C156.053023,57.7760449 156.081748,57.8549142 156.110473,57.9341512 C156.224102,57.9725747 156.338457,58.0115498 156.45354,58.0510764 C156.426633,57.9692655 156.399362,57.887087 156.37191,57.8049085 C156.255372,57.7683234 156.139017,57.7317383 156.023934,57.6962563 Z M155.610326,55.5131021 C155.876671,56.2646587 156.129563,57.0062877 156.37191,57.7365183 C156.395544,57.7438721 156.418997,57.7512259 156.442814,57.7587635 C156.167924,56.9915801 155.890488,56.2414943 155.610326,55.5131021 Z M156.560442,58.0878453 C156.530444,58.0032768 156.500446,57.9198113 156.470267,57.8357944 C156.445905,57.8280729 156.421724,57.8205353 156.397363,57.8128138 C156.424452,57.8951762 156.45245,57.9780901 156.479357,58.0599009 C156.506446,58.069277 156.533535,58.0786531 156.560442,58.0878453 Z M156.743702,58.6099639 C156.687524,58.4485483 156.631164,58.2869489 156.574623,58.127188 C156.54717,58.1178119 156.519172,58.1078843 156.491901,58.0985083 C156.544807,58.2593723 156.59644,58.4189493 156.648072,58.5785264 C156.679888,58.5891894 156.711886,58.5994847 156.743702,58.6099639 Z M162.88964,60.2662196 C160.717791,59.2894534 158.56903,58.5049886 156.623529,57.8845132 C156.654254,57.9707363 156.685343,58.0547533 156.716068,58.1415279 C158.27796,58.6844209 159.969842,59.3297153 161.701177,60.0849488 C162.986179,60.6454909 164.21064,61.2306682 165.372559,61.8379068 C165.349652,61.6991041 165.326744,61.5630592 165.303837,61.431978 C164.528254,61.0304614 163.723946,60.6414463 162.88964,60.2662196 Z M143.530071,67.4578514 C146.764575,67.9720647 149.65092,68.5357321 152.225469,69.1350654 C152.176382,68.9672153 152.127476,68.7995491 152.078025,68.6339051 C148.864975,67.8738917 145.522297,67.2080067 142.712128,66.6893811 C142.990291,66.9427189 143.26209,67.199366 143.530071,67.4578514 Z M146.236611,70.9759011 C145.415941,69.8397417 144.535093,68.7554264 143.598067,67.7249776 C143.456985,67.7023647 143.315723,67.6797518 143.173732,67.6575066 C144.505277,68.9365133 145.521024,70.0892187 146.236611,70.9759011 Z M142.921023,66.9699279 C143.065194,67.1201289 143.203367,67.2758453 143.344993,67.4284363 C143.367355,67.4319293 143.389354,67.4354224 143.411534,67.4390993 C143.248454,67.2824637 143.08792,67.1247251 142.921023,66.9699279 Z M141.979451,66.5553584 C142.283794,66.8248746 142.573228,67.0903461 142.851391,67.3515893 C143.005926,67.3754891 143.160461,67.399205 143.313359,67.4232886 C143.093374,67.1866807 142.874299,66.9491535 142.648132,66.7184286 C142.629406,66.7011472 142.60959,66.6842335 142.590682,66.6669521 C142.383787,66.6288963 142.179983,66.5915758 141.979451,66.5553584 Z M139.608888,64.1238302 C139.658521,64.1036073 139.70779,64.0833844 139.757242,64.0633453 C139.035837,63.4671374 138.290434,62.8968515 137.52176,62.3535908 C134.306528,60.0820073 131.274556,58.7088722 129.297238,57.9569479 C127.884063,57.4195703 126.79723,57.1153075 126.214724,56.9691511 C127.660443,57.463693 132.312302,59.1927511 137.320319,62.5082041 C138.109719,63.0308742 138.872394,63.5699065 139.608888,64.1238302 Z M146.636584,38.0616564 C148.763345,41.0441668 151.288443,45.1999733 153.762999,50.7285472 C152.036392,46.5192419 150.16543,42.803927 148.181568,39.6543019 C145.297404,35.0758367 142.166893,31.6864783 138.864758,29.5593966 C140.201029,30.6041853 143.18355,33.2193743 146.636584,38.0616564 Z M167.17098,43.782164 C169.583904,47.8085439 171.007624,52.3002344 171.795569,56.7455961 C171.395961,53.6123331 170.697827,50.7438063 169.706805,48.1732915 C168.087644,43.9733623 165.677084,40.5647002 162.525666,38.0052161 C163.822667,39.1858659 165.534366,41.0513368 167.17098,43.782164 Z M178.913259,74.8213779 C179.993184,77.5498152 180.270074,80.4731277 179.735747,83.5104238 C179.143243,86.8793755 177.538081,90.4687569 174.964986,94.1789241 C174.961896,94.1833364 174.956987,94.1859102 174.951896,94.1859102 C174.948624,94.1859102 174.945351,94.1848072 174.942624,94.1827849 C174.935352,94.1778211 174.933534,94.1675258 174.938625,94.160172 C177.508992,90.4538655 179.112336,86.8688964 179.703931,83.5045408 C180.237167,80.4734954 179.961004,77.5562497 178.883442,74.8333278 C178.279484,73.3079695 177.416998,71.830043 176.308712,70.4080052 C177.86624,72.6742572 178.862171,75.1175515 179.273779,77.7127015 C179.276688,77.7303506 179.264689,77.7470804 179.247235,77.7500219 C179.245417,77.7503896 179.243599,77.7505735 179.241963,77.7505735 C179.227055,77.7505735 179.21451,77.7395428 179.211056,77.7246514 C179.69575,80.0815387 179.54176,81.7048863 179.54176,81.7048863 C179.502127,86.6455252 176.291076,91.064781 176.290713,91.064781 C173.703983,95.1593672 170.843635,96.4824966 170.843635,96.4824966 C176.967393,91.18189 178.30621,86.4839259 178.30621,86.4839259 C180.81549,79.5447126 177.799517,74.7750491 177.799336,74.7750491 C182.791717,87.3658283 170.817637,95.1143253 170.817455,95.1143253 C167.268246,97.6072577 164.902047,98.4086361 164.902047,98.4086361 C177.460995,90.5698714 176.850129,81.6328192 176.850129,81.6330031 C176.83922,78.1781959 175.528947,76.4051989 175.099886,75.9172754 C176.591056,78.1388532 181.100925,87.3446861 163.289795,98.6963529 L165.593453,94.0011464 C164.186823,94.7854274 163.420331,95.0246092 163.420331,95.0246092 C164.658245,94.2756264 165.501096,93.5908054 166.050331,93.0703414 L166.324675,92.5114539 C165.71999,92.8991821 165.422556,92.9547032 165.422556,92.9547032 C165.786531,92.7223236 166.134325,92.4763396 166.464847,92.2253917 L172.341895,80.2477342 C172.220631,79.8853766 172.072459,79.5338658 171.899744,79.1939372 C171.821568,79.0694744 171.737028,78.9426216 171.645762,78.8133789 C171.524134,78.6413004 171.392325,78.4708765 171.254698,78.3013718 C170.417119,81.4039327 169.01758,85.3551202 166.700468,89.4144083 C166.688287,89.4351827 166.666652,89.4469488 166.644471,89.4469488 C166.633563,89.4469488 166.622473,89.4441911 166.612292,89.4383081 C166.581567,89.4201075 166.57084,89.3802132 166.588657,89.3489596 C168.921586,85.2624625 170.321308,81.2871914 171.153614,78.1813213 C171.038349,78.0436217 170.918176,77.9066575 170.792366,77.7706125 C167.518775,91.0741571 162.458398,94.241799 162.458216,94.241799 C166.085237,90.0293684 167.84057,83.8198342 167.84057,83.8198342 C168.811412,80.7036688 169.073758,78.0189865 169.114664,76.2399226 C168.984673,76.1384404 168.848682,76.0378775 168.712328,75.9373145 C166.611565,87.4163855 161.379018,92.8195774 161.379018,92.8195774 C163.26416,89.5528432 163.472327,88.3104217 163.472327,88.3104217 C163.079809,88.8468801 162.590025,89.6991835 162.404583,90.0278976 C162.776375,89.2529928 163.420331,86.5015749 163.420331,86.5015749 C162.821827,88.3914971 161.144852,91.0463965 161.14467,91.0463965 C164.228457,85.3244182 165.515277,79.3917539 165.913613,74.1841727 C164.729513,73.5465997 163.401787,72.934765 161.931343,72.3508746 C161.509009,72.1832084 161.075039,72.0182998 160.630888,71.855965 C160.662522,71.9969738 160.695429,72.1350411 160.726699,72.2769691 C160.741607,72.3391086 162.201506,78.6532503 161.365019,85.9329437 C161.361201,85.9662196 161.333203,85.9906709 161.301023,85.9906709 C161.298478,85.9906709 161.295933,85.990487 161.293569,85.9903032 C161.258117,85.9860748 161.232846,85.9537181 161.236846,85.9178684 C162.070606,78.6607879 160.61598,72.3690752 160.601253,72.3063842 C160.563801,72.1376149 160.52544,71.971971 160.487625,71.8044886 C160.404903,71.7745219 160.321818,71.7447391 160.238369,71.7149563 C160.49926,72.9419349 160.663976,73.8392803 160.663976,73.8392803 C161.886073,80.5705653 161.105764,85.5477893 161.105582,85.5479732 C160.377996,92.5048355 159.532964,94.1423391 159.532782,94.1423391 C160.039838,92.7390535 160.429992,88.8955989 160.429992,88.8955989 C161.898982,80.9761264 160.27364,73.1103365 160.27364,73.1103365 C160.185464,72.6088086 160.08838,72.1124282 159.985114,71.6245047 C159.88603,71.5897581 159.785128,71.555563 159.685135,71.5210002 C160.738698,77.0085768 160.624888,82.2450216 160.624888,82.2450216 C160.169829,90.416545 159.064996,92.4689858 159.064814,92.4689858 C159.832216,80.7146994 157.530557,72.3363509 157.530557,72.3363509 C157.416565,71.8129454 157.283483,71.2647209 157.136584,70.7019727 C156.932416,70.6409363 156.72734,70.5800837 156.519536,70.5197827 C157.512194,75.4350511 157.466016,79.8686467 157.465834,79.8686467 C157.596007,88.5894977 156.841695,91.6856241 156.841695,91.6858079 C156.724613,87.2577277 156.282825,85.4935552 156.282825,85.493739 C156.257009,86.7538097 156.035569,88.0499139 156.035569,88.0499139 C156.152107,86.9786516 155.775406,83.4960839 155.775406,83.4960839 C155.775406,84.7377701 155.528877,91.5504983 155.528695,91.5504983 C155.692502,83.5604295 154.12861,75.7262609 152.308736,69.4214953 C149.711098,68.8103959 146.888748,68.2572076 143.845868,67.7643203 C144.712353,68.6190137 145.52357,69.4992615 146.275518,70.4039606 C149.290764,74.0317655 151.368983,78.0553878 152.452726,82.3626822 C152.45709,82.3801474 152.446727,82.3979803 152.429455,82.4023926 C152.426728,82.403128 152.424183,82.4034957 152.421456,82.4034957 C152.407093,82.4034957 152.393821,82.393568 152.390185,82.3788605 C151.308987,78.0813098 149.235313,74.066696 146.226976,70.4467964 C145.457029,69.5204036 144.623632,68.6203006 143.73333,67.7464874 C143.696787,67.7406044 143.659517,67.7349052 143.622792,67.7288383 C144.639449,68.8484517 145.592838,70.0281823 146.472413,71.2715232 C147.215998,72.2175873 147.571973,72.7948593 147.571973,72.7948593 C152.642531,79.4463558 154.371866,91.6856241 154.371503,91.6858079 C150.471227,77.0427719 147.103824,75.6751521 147.103642,75.6751521 C151.784409,83.8020013 152.863243,92.7745355 152.863243,92.7745355 C152.603443,91.2083636 151.836405,89.3274498 151.836405,89.3274498 C151.966033,89.8227271 151.979486,90.5698714 151.979305,90.5698714 C151.667144,89.5168097 151.225539,88.5177983 151.225539,88.5179822 C151.368438,89.6333672 151.277535,90.6057211 151.277535,90.6057211 C148.494819,78.9060366 141.773284,73.0921359 141.773284,73.0923198 C134.675048,65.7666652 121.453054,62.7062047 121.453054,62.7062047 C123.533092,62.1123867 123.58527,59.9796059 123.585088,59.9796059 C123.221113,58.2606592 125.080803,57.2254304 125.080621,57.2254304 C131.045481,59.0414471 135.701341,61.6908311 139.192008,64.2909449 C139.308182,64.2447999 139.423628,64.1986549 139.538348,64.1525099 C138.813125,63.6081461 138.062995,63.0779384 137.286685,62.563909 C131.283465,58.5891894 125.788754,56.8956132 125.73403,56.8790672 C125.716941,56.8737357 125.707123,56.855719 125.712396,56.8384376 C125.717486,56.8211562 125.735849,56.8115963 125.752393,56.8165601 C125.758756,56.8183985 125.83766,56.8428499 125.97565,56.8884433 C126.455435,57.0007723 127.659897,57.311102 129.304147,57.9363574 C131.282374,58.6888332 134.316164,60.0625198 137.533214,62.3352064 C138.305706,62.8812247 139.054018,63.4551875 139.779058,64.0545208 C142.236343,63.0505456 144.318926,62.0000577 145.426849,60.9692412 C146.573497,59.9011043 147.456709,58.2716898 147.922131,57.294556 C147.440346,56.2106084 147.143276,55.6145843 147.143276,55.6145843 C138.458604,41.5749261 131.048026,39.3790866 131.048026,39.3790866 C131.607078,36.462944 131.749978,34.15882 133.660936,33.4390685 C138.705314,31.5583386 137.795559,29.6592242 137.795377,29.6592242 C145.03724,35.59005 150.02944,44.5631357 150.029258,44.5631357 C152.396367,48.4895042 154.451861,53.4045887 155.995936,57.6199609 C156.112291,57.6558105 156.228647,57.6916602 156.346821,57.728613 C156.033388,56.7843873 155.701229,55.8201225 155.347617,54.8417017 C152.363642,47.2476341 149.146228,41.804548 146.531864,38.1379519 C141.877095,31.6101828 138.084994,29.1444594 138.047178,29.1203758 C138.016998,29.1012559 138.008272,29.0608101 138.02718,29.0304758 C138.046269,28.9997737 138.086448,28.9909492 138.116082,29.010069 C138.124627,29.0155844 138.321705,29.1439079 138.673317,29.4114017 C142.052719,31.5307619 145.254861,34.96792 148.199566,39.6427197 C150.284695,42.953025 152.244923,46.8880341 154.043889,51.3642817 C154.909465,53.3384047 155.766315,55.4857093 156.595894,57.80785 C158.55594,58.4312669 160.723245,59.2206955 162.91473,60.2061024 C163.734491,60.5747108 164.525891,60.9567398 165.289474,61.3509025 C164.974042,59.5582341 164.681516,58.5211669 164.681516,58.5211669 C161.379018,46.6418663 154.046253,42.7268962 154.046253,42.7268962 C155.736681,40.4861986 157.323117,39.7388704 157.322935,39.7390542 C160.234551,38.3352171 160.182737,36.8230955 160.182737,36.8232794 C162.445489,38.2627823 164.499711,40.9272417 164.499347,40.9272417 C171.249425,49.3953064 172.082822,61.2788355 172.182633,64.5395027 C172.19536,63.913512 172.198814,63.2796159 172.191178,62.6391014 C172.177361,61.4687469 172.126274,60.3285429 172.042643,59.2164671 C171.376507,54.0103566 169.910427,48.6084516 167.065715,43.8582756 C165.38474,41.0513368 163.63668,39.1884397 162.466579,38.120119 C161.198303,36.9622659 160.316546,36.4620248 160.307819,36.457061 C160.276549,36.4395958 160.265277,36.3998853 160.282548,36.3682641 C160.300001,36.3366428 160.339271,36.3256121 160.37036,36.3430774 C160.383268,36.3502473 160.862872,36.6256465 161.622455,37.2328851 C165.248023,39.8668262 167.986015,43.5301131 169.767346,48.150311 C170.890723,51.0642474 171.636308,54.3616836 172.000101,57.9909592 C172.432253,60.8423885 172.614604,63.6546588 172.639875,66.2913576 C172.869495,66.4963443 173.095661,66.7024341 173.31401,66.9114654 C174.347211,67.8998138 175.252966,68.9324687 176.02964,70.0063048 C177.287735,71.5474739 178.254031,73.15593 178.913259,74.8213779 Z" id="Shape"></path>
        </g>
    </g>
</svg>