<svg width="72" height="72" viewBox="0 0 72 72" fill="none" xmlns="http://www.w3.org/2000/svg">
<path d="M35.1421 29.579C35.5755 29.2321 36.1928 29.2376 36.6207 29.5915C58.7063 47.8722 60.4159 58.7024 60.4778 59.1548L60.4871 59.2126C60.5018 59.2894 60.9985 62.0316 59.6309 63.0937C52.5434 68.5926 46.114 72 35.9706 72C26.6366 72 19.4489 69.2319 11.9364 62.7445C8.75798 60.0041 15.6892 45.1295 35.1421 29.579ZM11.7992 10.3315C13.196 10.3315 17.3397 11.2026 25.6344 19.2716C26.0678 19.6925 26.1103 20.3739 25.7333 20.8467C11.4979 38.6685 7.89671 48.8445 7.38291 54.243C7.32562 54.8448 6.82059 55.3051 6.21577 55.3051C5.81424 55.3051 5.43304 55.0978 5.2168 54.7449C-3.58298 40.3824 -0.910008 22.1882 10.6746 10.6928C10.8488 10.5203 11.0719 10.4065 11.314 10.3676C11.4624 10.3435 11.6255 10.3315 11.7992 10.3315ZM46.345 19.2711C49.2398 16.4558 56.7093 9.73108 60.6677 10.3671C61.9744 10.5767 72.0009 21.3551 72 36.0294C72 42.6805 70.1897 49.1517 66.7645 54.7435C66.5034 55.1695 65.9966 55.3879 65.5008 55.2732C65.0101 55.1594 64.6464 54.7435 64.5984 54.2411C64.0841 48.8432 60.4829 38.6671 46.2461 20.8458C45.8696 20.3739 45.9121 19.6921 46.345 19.2711ZM21.2944 3.31263C30.9947 -1.23696 41.4676 -0.959402 50.5899 3.28163C51.6549 3.77707 51.4045 5.3633 50.2434 5.5104C46.4619 5.98872 41.8529 7.68596 36.544 10.5554C36.1933 10.7451 35.7765 10.74 35.4364 10.5587C30.0517 7.68967 25.4131 6.00121 21.6492 5.54C21.1304 5.47663 20.7164 5.07695 20.6341 4.56024C20.5519 4.04352 20.8212 3.53467 21.2944 3.31263Z" fill="#002B3B"/>
</svg>
