<svg width="230" height="160" viewBox="0 0 230 160" xmlns="http://www.w3.org/2000/svg"><g fill="none" fill-rule="evenodd"><path d="M117.398 84.498c-15.362.003-27.558-12.232-27.494-27.705.063-15.192 12.662-27.263 27.698-27.153 14.836.11 27.55 12.298 27.248 27.984-.292 15.15-12.755 26.951-27.452 26.874zm-8.83-20.062l-.116-.12c.047-.107.087-.218.144-.319 3.573-6.365 7.15-12.727 10.72-19.095a70.03 70.03 0 0 0 1.334-2.532c.512-1.01.32-2.006-.143-2.966-.39-.808-.816-.885-1.477-.305-.238.21-.468.433-.683.667-2.286 2.495-4.488 5.074-6.88 7.463-1.621 1.617-3.49 2.99-5.293 4.419-.401.318-.97.456-1.485.59-.638.169-1.064-.164-1.186-.78-.07-.346-.079-.763.05-1.08.537-1.309 1.034-2.65 1.736-3.87 1.11-1.93 2.365-3.78 3.575-5.653.585-.908.543-1.763-.016-2.676-.944-1.542-1.493-1.626-2.697-.294-1.957 2.164-3.464 4.63-4.765 7.222-1.09 2.174-2.04 4.401-2.115 6.893-.057 1.922.642 3.234 2.128 3.593.736.178 1.574.169 2.322.021 2.437-.481 4.4-1.875 6.198-3.504.582-.526 1.058-1.168 1.582-1.758l.215.19c-.075.173-.14.35-.224.517-2.937 5.787-5.84 11.592-8.838 17.347-.753 1.444-.654 2.762-.047 4.138.42.954.98 1.011 1.62.206.275-.345.547-.696.779-1.07a24.953 24.953 0 0 1 4.143-5.039c4.788-4.504 9.518-9.07 14.303-13.577 1.597-1.504 3.29-2.905 4.94-4.353.006.3-.093.51-.212.708-3.503 5.899-7.007 11.798-10.514 17.695-.942 1.583-1.552 3.272-1.65 5.12-.137 2.558 1.157 4.214 3.704 4.51 1.248.146 2.555.112 3.8-.081 3.742-.58 6.814-2.528 9.579-5.004 1.838-1.647 3.315-3.55 3.888-6.016.871-3.755-1.31-6.355-5.129-6.081-2.431.173-4.492 1.307-6.464 2.632-.249.168-.495.34-.742.511.038-.363.164-.622.295-.878 2.688-5.282 5.35-10.577 8.085-15.834.615-1.183.5-2.262.01-3.369-.153-.348-.48-.753-.807-.842-.215-.06-.66.342-.853.635-1.217 1.854-2.602 3.557-4.249 5.053-5.155 4.685-10.298 9.384-15.444 14.08-1.046.955-2.081 1.924-3.121 2.886zm2.136 47.288c-.111.189-.177.463-.339.545-.433.218-.955.555-1.355.464-.397-.09-.726-.618-1.006-1.009-.12-.167-.055-.475-.055-.72-.002-5.636-.002-11.272-.002-16.909 0-.098-.001-.196.001-.294.025-.959.579-1.579 1.387-1.554.78.024 1.312.635 1.316 1.55.008 1.667.002 3.334.002 5v2.065c3.953-2.075 7.167-1.622 9.405 1.265 2.007 2.59 1.844 6.354-.348 8.8-1.948 2.172-5.705 3.244-9.006.797zm3.904-1.258c2.271.004 4.079-1.814 4.1-4.123.022-2.326-1.813-4.256-4.054-4.263-2.32-.007-4.121 1.813-4.124 4.17-.003 2.37 1.778 4.211 4.078 4.216zm33.192-9.493V96.8c0-1.029-.01-2.058.003-3.088.01-.86.549-1.447 1.314-1.464.802-.018 1.36.576 1.36 1.486.004 5.784.002 11.569.002 17.353 0 1.019-.314 1.532-1.041 1.703-.699.165-1.252-.19-1.683-1.083-3.172 2.453-7.061 1.416-8.992-.747-2.16-2.42-2.395-6.105-.497-8.677 1.114-1.51 2.571-2.462 4.457-2.706 1.825-.235 3.492.18 5.077 1.397zm-4.007 9.493c2.32.006 4.076-1.785 4.101-4.185.025-2.364-1.755-4.193-4.086-4.201-2.24-.007-4.092 1.909-4.09 4.233.002 2.293 1.82 4.146 4.075 4.153zm-66.05-2.45l2.836-6.508c.108-.247.207-.498.32-.742.389-.834 1.118-1.161 1.85-.835.693.31.96 1.069.614 1.876-.762 1.778-1.545 3.546-2.319 5.318-1.43 3.276-2.86 6.552-4.297 9.825-.116.266-.245.55-.444.752-.469.478-1.041.524-1.618.207-.584-.32-.801-1.03-.506-1.74a107.737 107.737 0 0 1 1.79-4.106c.24-.516.232-.937-.002-1.451-1.325-2.92-2.613-5.856-3.92-8.784-.24-.537-.305-1.12.142-1.498.331-.28.919-.516 1.296-.415.413.111.849.57 1.045.986 1.086 2.301 2.102 4.636 3.212 7.115zm45.635-3.399c0-1.053-.01-2.107.003-3.16.013-1.052.518-1.624 1.392-1.615.869.009 1.351.587 1.358 1.649.012 2.008-.027 4.018.038 6.025.077 2.39 2.393 3.707 4.532 2.609.757-.39 1.323-1 1.364-1.879.085-1.808.096-3.62.133-5.43.011-.587-.028-1.178.02-1.763.058-.7.58-1.17 1.253-1.21.76-.043 1.267.33 1.443 1.07.033.142.062.29.06.435-.038 2.252-.006 4.508-.143 6.754-.157 2.567-1.758 4.392-4.061 4.863-2.914.596-5.403-.349-6.584-2.515-.743-1.364-.728-2.875-.805-4.363-.025-.489-.003-.98-.003-1.47zm-29.09-.13c0-1.079-.01-2.158.003-3.236.01-.894.511-1.407 1.342-1.41.825-.004 1.351.513 1.354 1.399.006 2.109.048 4.22-.035 6.325-.153 3.866-2.911 6.082-6.744 5.502-2.95-.447-4.548-2.336-4.7-5.73-.093-2.055-.044-4.118-.033-6.177.005-.785.537-1.29 1.29-1.315.78-.025 1.331.399 1.374 1.21.068 1.271.04 2.547.06 3.821.016 1.03.002 2.06.08 3.085.114 1.529 1.34 2.52 3.005 2.504 1.639-.016 2.801-.994 2.884-2.527.063-1.147.012-2.3.012-3.45h.108zm61.654 8.628c-.95-.021-2.253-.602-3.253-1.804-.468-.562-.443-1.33.021-1.8.493-.501 1.26-.496 1.869-.02.401.313.802.735 1.264.835.524.114 1.199.08 1.659-.168.896-.48.887-1.53.032-2.09-.653-.427-1.378-.742-2.068-1.112-.988-.528-1.918-1.131-2.34-2.233-.54-1.407-.432-2.759.588-3.923 1.078-1.23 2.505-1.585 4.012-1.113.906.285 1.739.872 2.53 1.428.587.412.607 1.251.185 1.776-.455.566-1.19.628-1.847.208-.53-.339-1.069-.694-1.652-.914-.628-.237-1.17.044-1.47.641-.294.589.076 1.016.517 1.299.677.436 1.406.792 2.117 1.175 1.149.617 2.172 1.349 2.542 2.695.732 2.656-1.243 5.124-4.706 5.12zm-54.407-12.59c1.212-.998 2.569-1.405 4.093-.561.546.303.811.79.707 1.411-.097.583-.455.99-1.05 1.089-.273.045-.585-.013-.854-.104-.873-.291-1.51-.187-1.965.622-.384.684-.704 1.485-.758 2.255-.137 1.953-.086 3.918-.163 5.875-.017.435-.135.976-.417 1.258-.277.278-.871.47-1.234.369-.395-.11-.716-.576-1.004-.938-.116-.144-.079-.425-.079-.644-.004-3.237-.011-6.473.001-9.71.005-1.181.773-1.87 1.748-1.556.347.11.635.406.975.634zm64.595.517c-.008 1.042-.724 1.77-1.741 1.773-1.028.003-1.81-.79-1.798-1.821a1.772 1.772 0 0 1 1.843-1.781c.998.024 1.703.786 1.696 1.829zm-3.143.006c.015.824.653 1.48 1.425 1.467.743-.012 1.408-.738 1.392-1.52-.017-.814-.654-1.448-1.445-1.439-.794.01-1.386.653-1.372 1.492zm.846-1.011c.247 0 .547-.052.814.019.172.045.403.26.418.42.053.52.02 1.05.02 1.776l-.78-1.108-.182.096-.126.817-.164.003v-2.023z" opacity=".301" fill="#D4E1ED"/></g></svg>